G04 #@! TF.FileFunction,Copper,L2,Bot,Signal*
%FSLAX46Y46*%
G04 Gerber Fmt 4.6, Leading zero omitted, Abs format (unit mm)*
G04 Created by KiCad (PCBNEW 4.0.1-stable) date 11/25/16 12:52:12*
%MOMM*%
G01*
G04 APERTURE LIST*
%ADD10C,0.100000*%
%ADD11R,1.716000X1.716000*%
%ADD12C,1.716000*%
%ADD13R,1.916000X1.916000*%
%ADD14C,1.916000*%
%ADD15R,2.016000X2.016000*%
%ADD16C,2.016000*%
%ADD17C,3.800000*%
%ADD18C,0.304800*%
G04 APERTURE END LIST*
D10*
D11*
X163830000Y-88265000D03*
D12*
X163830000Y-90805000D03*
D11*
X163830000Y-96520000D03*
D12*
X163830000Y-99060000D03*
D11*
X142875000Y-90805000D03*
D12*
X142875000Y-93345000D03*
D13*
X167640520Y-93342460D03*
D14*
X177800000Y-93345000D03*
D15*
X105410000Y-89535000D03*
D16*
X107950000Y-89535000D03*
X110490000Y-89535000D03*
D15*
X105410000Y-93345000D03*
D16*
X107950000Y-93345000D03*
X110490000Y-93345000D03*
D15*
X105410000Y-97155000D03*
D16*
X107950000Y-97155000D03*
X110490000Y-97155000D03*
D15*
X105410000Y-100965000D03*
D16*
X107950000Y-100965000D03*
X110490000Y-100965000D03*
D15*
X105410000Y-104775000D03*
D16*
X107950000Y-104775000D03*
X110490000Y-104775000D03*
D15*
X105410000Y-108585000D03*
D16*
X107950000Y-108585000D03*
X110490000Y-108585000D03*
D15*
X105410000Y-112395000D03*
D16*
X107950000Y-112395000D03*
X110490000Y-112395000D03*
D15*
X105410000Y-116205000D03*
D16*
X107950000Y-116205000D03*
X110490000Y-116205000D03*
D15*
X165100000Y-83820000D03*
D16*
X167640000Y-83820000D03*
X170180000Y-83820000D03*
X172720000Y-83820000D03*
X175260000Y-83820000D03*
X177800000Y-83820000D03*
D12*
X124460000Y-84455000D03*
X114300000Y-84455000D03*
X124460000Y-86995000D03*
X114300000Y-86995000D03*
X124460000Y-99695000D03*
X114300000Y-99695000D03*
X124460000Y-97155000D03*
X114300000Y-97155000D03*
X137160000Y-99695000D03*
X147320000Y-99695000D03*
X137160000Y-97155000D03*
X147320000Y-97155000D03*
X137160000Y-84455000D03*
X147320000Y-84455000D03*
X137160000Y-86995000D03*
X147320000Y-86995000D03*
X124460000Y-108585000D03*
X114300000Y-108585000D03*
X124460000Y-111125000D03*
X114300000Y-111125000D03*
X124460000Y-123825000D03*
X114300000Y-123825000D03*
X124460000Y-121285000D03*
X114300000Y-121285000D03*
X137160000Y-123825000D03*
X147320000Y-123825000D03*
X137160000Y-121285000D03*
X147320000Y-121285000D03*
X161290000Y-106045000D03*
X161290000Y-116205000D03*
X163830000Y-106045000D03*
X163830000Y-116205000D03*
X166370000Y-106045000D03*
X166370000Y-116205000D03*
X170180000Y-100330000D03*
X170180000Y-110490000D03*
X172720000Y-100330000D03*
X172720000Y-110490000D03*
X175260000Y-100330000D03*
X175260000Y-110490000D03*
X149225000Y-102235000D03*
X159385000Y-102235000D03*
X127000000Y-84455000D03*
X127000000Y-86995000D03*
X127000000Y-89535000D03*
X127000000Y-92075000D03*
X127000000Y-94615000D03*
X127000000Y-97155000D03*
X127000000Y-99695000D03*
X134620000Y-99695000D03*
X134620000Y-97155000D03*
X134620000Y-94615000D03*
X134620000Y-92075000D03*
X134620000Y-89535000D03*
X134620000Y-86995000D03*
X134620000Y-84455000D03*
X127000000Y-108585000D03*
X127000000Y-111125000D03*
X127000000Y-113665000D03*
X127000000Y-116205000D03*
X127000000Y-118745000D03*
X127000000Y-121285000D03*
X127000000Y-123825000D03*
X134620000Y-123825000D03*
X134620000Y-121285000D03*
X134620000Y-118745000D03*
X134620000Y-116205000D03*
X134620000Y-113665000D03*
X134620000Y-111125000D03*
X134620000Y-108585000D03*
X150495000Y-106045000D03*
X150495000Y-108585000D03*
X150495000Y-111125000D03*
X150495000Y-113665000D03*
X150495000Y-116205000D03*
X150495000Y-118745000D03*
X150495000Y-121285000D03*
X150495000Y-123825000D03*
X158115000Y-123825000D03*
X158115000Y-121285000D03*
X158115000Y-118745000D03*
X158115000Y-116205000D03*
X158115000Y-113665000D03*
X158115000Y-111125000D03*
X158115000Y-108585000D03*
X158115000Y-106045000D03*
X150495000Y-86995000D03*
X150495000Y-89535000D03*
X150495000Y-92075000D03*
X150495000Y-94615000D03*
X158115000Y-94615000D03*
X158115000Y-92075000D03*
X158115000Y-89535000D03*
X158115000Y-86995000D03*
X171450000Y-113665000D03*
X168910000Y-113665000D03*
X173990000Y-113665000D03*
X171450000Y-118110000D03*
X168910000Y-118110000D03*
X173990000Y-118110000D03*
X171450000Y-123190000D03*
X168910000Y-123190000D03*
X173990000Y-123190000D03*
D17*
X100965000Y-125095000D03*
X100965000Y-83820000D03*
X182245000Y-83820000D03*
X182245000Y-125095000D03*
D12*
X113665000Y-116840000D03*
X123825000Y-116840000D03*
X137160000Y-118745000D03*
X147320000Y-118745000D03*
D18*
X105410000Y-89535000D02*
X113030000Y-81915000D01*
X163195000Y-81915000D02*
X165100000Y-83820000D01*
X113030000Y-81915000D02*
X163195000Y-81915000D01*
X127000000Y-92075000D02*
X128905000Y-92075000D01*
X151765000Y-98425000D02*
X156210000Y-93980000D01*
X146050000Y-98425000D02*
X151765000Y-98425000D01*
X135890000Y-88265000D02*
X146050000Y-98425000D01*
X132715000Y-88265000D02*
X135890000Y-88265000D01*
X128905000Y-92075000D02*
X132715000Y-88265000D01*
X158115000Y-86995000D02*
X156210000Y-88900000D01*
X156210000Y-104140000D02*
X158115000Y-106045000D01*
X156210000Y-88900000D02*
X156210000Y-93980000D01*
X156210000Y-93980000D02*
X156210000Y-104140000D01*
X165100000Y-83820000D02*
X165100000Y-84455000D01*
X165100000Y-84455000D02*
X162560000Y-86995000D01*
X158115000Y-86995000D02*
X162560000Y-86995000D01*
X162560000Y-86995000D02*
X163830000Y-88265000D01*
X166370000Y-106045000D02*
X163830000Y-106045000D01*
X163830000Y-106045000D02*
X161290000Y-106045000D01*
X161290000Y-106045000D02*
X158115000Y-106045000D01*
X105410000Y-89535000D02*
X105410000Y-93345000D01*
X105410000Y-93345000D02*
X105410000Y-97155000D01*
X105410000Y-97155000D02*
X105410000Y-100965000D01*
X105410000Y-100965000D02*
X105410000Y-104775000D01*
X105410000Y-104775000D02*
X105410000Y-108585000D01*
X105410000Y-108585000D02*
X105410000Y-112395000D01*
X105410000Y-112395000D02*
X105410000Y-116205000D01*
X147320000Y-118745000D02*
X147320000Y-121285000D01*
X110490000Y-121285000D02*
X110490000Y-123825000D01*
X148590000Y-125730000D02*
X150495000Y-123825000D01*
X112395000Y-125730000D02*
X148590000Y-125730000D01*
X110490000Y-123825000D02*
X112395000Y-125730000D01*
X114300000Y-111125000D02*
X114173000Y-111125000D01*
X114173000Y-111125000D02*
X112525198Y-109477198D01*
X109347000Y-106172000D02*
X107950000Y-104775000D01*
X111887000Y-106172000D02*
X109347000Y-106172000D01*
X112525198Y-106810198D02*
X111887000Y-106172000D01*
X112525198Y-109477198D02*
X112525198Y-106810198D01*
X150495000Y-123825000D02*
X151765000Y-125095000D01*
X151765000Y-125095000D02*
X168910000Y-125095000D01*
X168910000Y-125095000D02*
X170180000Y-123825000D01*
X170180000Y-123825000D02*
X170180000Y-121920000D01*
X170180000Y-121920000D02*
X173990000Y-118110000D01*
X150495000Y-118745000D02*
X151765000Y-120015000D01*
X151765000Y-120015000D02*
X151765000Y-122555000D01*
X151765000Y-122555000D02*
X150495000Y-123825000D01*
X147320000Y-121285000D02*
X147955000Y-121285000D01*
X147955000Y-121285000D02*
X150495000Y-123825000D01*
X163830000Y-96520000D02*
X172085000Y-104775000D01*
X172085000Y-104775000D02*
X173990000Y-104775000D01*
X163830000Y-96520000D02*
X163830000Y-90805000D01*
X177800000Y-83820000D02*
X177800000Y-93345000D01*
X177800000Y-93345000D02*
X177800000Y-100965000D01*
X177800000Y-100965000D02*
X173990000Y-104775000D01*
X173990000Y-104775000D02*
X173990000Y-113665000D01*
X173990000Y-113665000D02*
X173990000Y-118110000D01*
X173990000Y-118110000D02*
X173990000Y-123190000D01*
X114300000Y-111125000D02*
X114046000Y-111125000D01*
X114300000Y-121285000D02*
X110490000Y-121285000D01*
X107950000Y-118745000D02*
X107950000Y-116205000D01*
X110490000Y-121285000D02*
X107950000Y-118745000D01*
X109220000Y-86995000D02*
X113665000Y-82550000D01*
X113665000Y-82550000D02*
X148590000Y-82550000D01*
X148590000Y-82550000D02*
X151130000Y-85090000D01*
X147320000Y-86995000D02*
X149225000Y-85090000D01*
X149225000Y-85090000D02*
X151130000Y-85090000D01*
X152400000Y-86360000D02*
X152400000Y-93980000D01*
X151130000Y-85090000D02*
X152400000Y-86360000D01*
X147320000Y-97155000D02*
X149860000Y-97155000D01*
X152400000Y-93980000D02*
X150495000Y-92075000D01*
X152400000Y-94615000D02*
X152400000Y-93980000D01*
X149860000Y-97155000D02*
X152400000Y-94615000D01*
X114300000Y-97155000D02*
X112395000Y-99060000D01*
X109855000Y-99060000D02*
X107950000Y-100965000D01*
X112395000Y-99060000D02*
X109855000Y-99060000D01*
X114300000Y-86995000D02*
X109220000Y-86995000D01*
X107950000Y-88265000D02*
X107950000Y-89535000D01*
X109220000Y-86995000D02*
X107950000Y-88265000D01*
X107950000Y-89535000D02*
X107950000Y-93345000D01*
X107950000Y-93345000D02*
X107950000Y-97155000D01*
X107950000Y-97155000D02*
X107950000Y-100965000D01*
X107950000Y-100965000D02*
X107950000Y-104775000D01*
X107950000Y-104775000D02*
X107950000Y-108585000D01*
X107950000Y-108585000D02*
X107950000Y-112395000D01*
X107950000Y-112395000D02*
X107950000Y-116205000D01*
X158115000Y-94615000D02*
X159385000Y-94615000D01*
X159385000Y-94615000D02*
X163830000Y-99060000D01*
X142875000Y-90805000D02*
X146050000Y-90805000D01*
X147320000Y-89535000D02*
X150495000Y-89535000D01*
X146050000Y-90805000D02*
X147320000Y-89535000D01*
X150495000Y-94615000D02*
X144145000Y-94615000D01*
X144145000Y-94615000D02*
X142875000Y-93345000D01*
X167640000Y-83820000D02*
X167640000Y-88265000D01*
X166370000Y-89535000D02*
X164465000Y-89535000D01*
X167640000Y-88265000D02*
X166370000Y-89535000D01*
X167640520Y-93342460D02*
X167640520Y-92710520D01*
X167640520Y-92710520D02*
X164465000Y-89535000D01*
X164465000Y-89535000D02*
X163195000Y-89535000D01*
X163195000Y-89535000D02*
X159385000Y-93345000D01*
X159385000Y-93345000D02*
X157480000Y-93345000D01*
X157480000Y-93345000D02*
X156845000Y-93980000D01*
X156845000Y-93980000D02*
X156845000Y-95250000D01*
X156845000Y-95250000D02*
X159385000Y-97790000D01*
X159385000Y-97790000D02*
X159385000Y-102235000D01*
X150495000Y-113665000D02*
X139700000Y-113665000D01*
X139700000Y-113665000D02*
X135890000Y-117475000D01*
X123825000Y-116840000D02*
X125095000Y-116840000D01*
X135890000Y-117475000D02*
X137160000Y-118745000D01*
X125730000Y-117475000D02*
X135890000Y-117475000D01*
X125095000Y-116840000D02*
X125730000Y-117475000D01*
X170180000Y-83820000D02*
X170180000Y-100330000D01*
X172720000Y-100330000D02*
X172720000Y-83820000D01*
X175260000Y-83820000D02*
X175260000Y-100330000D01*
X170180000Y-110490000D02*
X170180000Y-112395000D01*
X170180000Y-112395000D02*
X171450000Y-113665000D01*
X172720000Y-110490000D02*
X172720000Y-116840000D01*
X172720000Y-116840000D02*
X171450000Y-118110000D01*
X175260000Y-110490000D02*
X175260000Y-123825000D01*
X172720000Y-124460000D02*
X171450000Y-123190000D01*
X174625000Y-124460000D02*
X172720000Y-124460000D01*
X175260000Y-123825000D02*
X174625000Y-124460000D01*
X124460000Y-84455000D02*
X127000000Y-84455000D01*
X127000000Y-86995000D02*
X124460000Y-86995000D01*
X124460000Y-86995000D02*
X120650000Y-86995000D01*
X120650000Y-86995000D02*
X118110000Y-84455000D01*
X118110000Y-84455000D02*
X114300000Y-84455000D01*
X127000000Y-99695000D02*
X127635000Y-99695000D01*
X127635000Y-99695000D02*
X132715000Y-104775000D01*
X151130000Y-104775000D02*
X157480000Y-111125000D01*
X132715000Y-104775000D02*
X151130000Y-104775000D01*
X157480000Y-111125000D02*
X158115000Y-111125000D01*
X127000000Y-99695000D02*
X124460000Y-99695000D01*
X124460000Y-97155000D02*
X119380000Y-97155000D01*
X114300000Y-99695000D02*
X116840000Y-99695000D01*
X119380000Y-97155000D02*
X127000000Y-97155000D01*
X116840000Y-99695000D02*
X119380000Y-97155000D01*
X158115000Y-108585000D02*
X156210000Y-108585000D01*
X141605000Y-104140000D02*
X137160000Y-99695000D01*
X151765000Y-104140000D02*
X141605000Y-104140000D01*
X156210000Y-108585000D02*
X151765000Y-104140000D01*
X137160000Y-99695000D02*
X134620000Y-99695000D01*
X134620000Y-97155000D02*
X137160000Y-97155000D01*
X137160000Y-97155000D02*
X140335000Y-97155000D01*
X140335000Y-97155000D02*
X142875000Y-99695000D01*
X142875000Y-99695000D02*
X147320000Y-99695000D01*
X134620000Y-84455000D02*
X137160000Y-84455000D01*
X134620000Y-86995000D02*
X137160000Y-86995000D01*
X137160000Y-86995000D02*
X140335000Y-86995000D01*
X140335000Y-86995000D02*
X142875000Y-84455000D01*
X142875000Y-84455000D02*
X147320000Y-84455000D01*
X127000000Y-108585000D02*
X128905000Y-108585000D01*
X131445000Y-106045000D02*
X150495000Y-106045000D01*
X128905000Y-108585000D02*
X131445000Y-106045000D01*
X124460000Y-108585000D02*
X127000000Y-108585000D01*
X127000000Y-111125000D02*
X124460000Y-111125000D01*
X124460000Y-111125000D02*
X121285000Y-111125000D01*
X121285000Y-111125000D02*
X118745000Y-108585000D01*
X118745000Y-108585000D02*
X114300000Y-108585000D01*
X150495000Y-116205000D02*
X145161000Y-116205000D01*
X145161000Y-116205000D02*
X141351000Y-120015000D01*
X127000000Y-123825000D02*
X128905000Y-123825000D01*
X128905000Y-123825000D02*
X132715000Y-120015000D01*
X132715000Y-120015000D02*
X141351000Y-120015000D01*
X124460000Y-123825000D02*
X127000000Y-123825000D01*
X124460000Y-121285000D02*
X123190000Y-121285000D01*
X114300000Y-123825000D02*
X115570000Y-123825000D01*
X115570000Y-123825000D02*
X117475000Y-123825000D01*
X120015000Y-121285000D02*
X123190000Y-121285000D01*
X123190000Y-121285000D02*
X127000000Y-121285000D01*
X117475000Y-123825000D02*
X120015000Y-121285000D01*
X146050000Y-121920000D02*
X145415000Y-121285000D01*
X146050000Y-117475000D02*
X147320000Y-117475000D01*
X145415000Y-118110000D02*
X146050000Y-117475000D01*
X145415000Y-121285000D02*
X145415000Y-118110000D01*
X137160000Y-123825000D02*
X140335000Y-123825000D01*
X149225000Y-109855000D02*
X150495000Y-108585000D01*
X147320000Y-117475000D02*
X151130000Y-117475000D01*
X151130000Y-117475000D02*
X151765000Y-116840000D01*
X151765000Y-116840000D02*
X151765000Y-113030000D01*
X151765000Y-113030000D02*
X151130000Y-112395000D01*
X151130000Y-112395000D02*
X149860000Y-112395000D01*
X149860000Y-112395000D02*
X149225000Y-111760000D01*
X149225000Y-111760000D02*
X149225000Y-109855000D01*
X146685000Y-122555000D02*
X146050000Y-121920000D01*
X147955000Y-122555000D02*
X146685000Y-122555000D01*
X148590000Y-123190000D02*
X147955000Y-122555000D01*
X148590000Y-124460000D02*
X148590000Y-123190000D01*
X147955000Y-125095000D02*
X148590000Y-124460000D01*
X141605000Y-125095000D02*
X147955000Y-125095000D01*
X140335000Y-123825000D02*
X141605000Y-125095000D01*
X134620000Y-123825000D02*
X137160000Y-123825000D01*
X134620000Y-121285000D02*
X137160000Y-121285000D01*
X137160000Y-121285000D02*
X140335000Y-121285000D01*
X140335000Y-121285000D02*
X142875000Y-123825000D01*
X142875000Y-123825000D02*
X147320000Y-123825000D01*
X161290000Y-116205000D02*
X161290000Y-117475000D01*
X160020000Y-118745000D02*
X158115000Y-118745000D01*
X161290000Y-117475000D02*
X160020000Y-118745000D01*
X168910000Y-113665000D02*
X161925000Y-113665000D01*
X161290000Y-114300000D02*
X161290000Y-116205000D01*
X161925000Y-113665000D02*
X161290000Y-114300000D01*
X158115000Y-121285000D02*
X161925000Y-121285000D01*
X163830000Y-119380000D02*
X163830000Y-116205000D01*
X161925000Y-121285000D02*
X163830000Y-119380000D01*
X168910000Y-118110000D02*
X168910000Y-116205000D01*
X163830000Y-114935000D02*
X163830000Y-116205000D01*
X164465000Y-114300000D02*
X163830000Y-114935000D01*
X167005000Y-114300000D02*
X164465000Y-114300000D01*
X168910000Y-116205000D02*
X167005000Y-114300000D01*
X158115000Y-123825000D02*
X163195000Y-123825000D01*
X163195000Y-123825000D02*
X166370000Y-120650000D01*
X166370000Y-116205000D02*
X166370000Y-120650000D01*
X166370000Y-120650000D02*
X168910000Y-123190000D01*
X149225000Y-102235000D02*
X151130000Y-102235000D01*
X155575000Y-111125000D02*
X150495000Y-111125000D01*
X156845000Y-112395000D02*
X155575000Y-111125000D01*
X158750000Y-112395000D02*
X156845000Y-112395000D01*
X159385000Y-111760000D02*
X158750000Y-112395000D01*
X159385000Y-107950000D02*
X159385000Y-111760000D01*
X158750000Y-107315000D02*
X159385000Y-107950000D01*
X156210000Y-107315000D02*
X158750000Y-107315000D01*
X151130000Y-102235000D02*
X156210000Y-107315000D01*
X127000000Y-89535000D02*
X110490000Y-89535000D01*
X110490000Y-93345000D02*
X125730000Y-93345000D01*
X125730000Y-93345000D02*
X127000000Y-94615000D01*
X134620000Y-94615000D02*
X131445000Y-94615000D01*
X111760000Y-95885000D02*
X110490000Y-97155000D01*
X130175000Y-95885000D02*
X111760000Y-95885000D01*
X131445000Y-94615000D02*
X130175000Y-95885000D01*
X110490000Y-100965000D02*
X120015000Y-100965000D01*
X135890000Y-90805000D02*
X134620000Y-89535000D01*
X135890000Y-95250000D02*
X135890000Y-90805000D01*
X135255000Y-95885000D02*
X135890000Y-95250000D01*
X133350000Y-95885000D02*
X135255000Y-95885000D01*
X130810000Y-98425000D02*
X133350000Y-95885000D01*
X122555000Y-98425000D02*
X130810000Y-98425000D01*
X120015000Y-100965000D02*
X122555000Y-98425000D01*
X110490000Y-104775000D02*
X112141000Y-104775000D01*
X121285000Y-113665000D02*
X127000000Y-113665000D01*
X117475000Y-109855000D02*
X121285000Y-113665000D01*
X113665000Y-109855000D02*
X117475000Y-109855000D01*
X113030000Y-109220000D02*
X113665000Y-109855000D01*
X113030000Y-105664000D02*
X113030000Y-109220000D01*
X112141000Y-104775000D02*
X113030000Y-105664000D01*
X110490000Y-108585000D02*
X110490000Y-109855000D01*
X119380000Y-118745000D02*
X127000000Y-118745000D01*
X110490000Y-109855000D02*
X119380000Y-118745000D01*
X110490000Y-112395000D02*
X111760000Y-112395000D01*
X111760000Y-112395000D02*
X119380000Y-120015000D01*
X130810000Y-120015000D02*
X132080000Y-118745000D01*
X132080000Y-118745000D02*
X134620000Y-118745000D01*
X119380000Y-120015000D02*
X130810000Y-120015000D01*
X110490000Y-116205000D02*
X113030000Y-116205000D01*
X113030000Y-116205000D02*
X113665000Y-116840000D01*
M02*
