M48
;DRILL file {KiCad 4.0.1-stable} date 11/25/16 12:52:17
;FORMAT={-:-/ absolute / metric / decimal}
FMAT,2
METRIC,TZ
T1C0.700
T2C0.900
T3C1.000
T4C3.200
%
G90
G05
M71
T1
X113.665Y-116.84
X114.3Y-84.455
X114.3Y-86.995
X114.3Y-97.155
X114.3Y-99.695
X114.3Y-108.585
X114.3Y-111.125
X114.3Y-121.285
X114.3Y-123.825
X123.825Y-116.84
X124.46Y-84.455
X124.46Y-86.995
X124.46Y-97.155
X124.46Y-99.695
X124.46Y-108.585
X124.46Y-111.125
X124.46Y-121.285
X124.46Y-123.825
X127.Y-84.455
X127.Y-86.995
X127.Y-89.535
X127.Y-92.075
X127.Y-94.615
X127.Y-97.155
X127.Y-99.695
X127.Y-108.585
X127.Y-111.125
X127.Y-113.665
X127.Y-116.205
X127.Y-118.745
X127.Y-121.285
X127.Y-123.825
X134.62Y-84.455
X134.62Y-86.995
X134.62Y-89.535
X134.62Y-92.075
X134.62Y-94.615
X134.62Y-97.155
X134.62Y-99.695
X134.62Y-108.585
X134.62Y-111.125
X134.62Y-113.665
X134.62Y-116.205
X134.62Y-118.745
X134.62Y-121.285
X134.62Y-123.825
X137.16Y-84.455
X137.16Y-86.995
X137.16Y-97.155
X137.16Y-99.695
X137.16Y-118.745
X137.16Y-121.285
X137.16Y-123.825
X142.875Y-90.805
X142.875Y-93.345
X147.32Y-84.455
X147.32Y-86.995
X147.32Y-97.155
X147.32Y-99.695
X147.32Y-118.745
X147.32Y-121.285
X147.32Y-123.825
X149.225Y-102.235
X150.495Y-86.995
X150.495Y-89.535
X150.495Y-92.075
X150.495Y-94.615
X150.495Y-106.045
X150.495Y-108.585
X150.495Y-111.125
X150.495Y-113.665
X150.495Y-116.205
X150.495Y-118.745
X150.495Y-121.285
X150.495Y-123.825
X158.115Y-86.995
X158.115Y-89.535
X158.115Y-92.075
X158.115Y-94.615
X158.115Y-106.045
X158.115Y-108.585
X158.115Y-111.125
X158.115Y-113.665
X158.115Y-116.205
X158.115Y-118.745
X158.115Y-121.285
X158.115Y-123.825
X159.385Y-102.235
X161.29Y-106.045
X161.29Y-116.205
X163.83Y-88.265
X163.83Y-90.805
X163.83Y-96.52
X163.83Y-99.06
X163.83Y-106.045
X163.83Y-116.205
X166.37Y-106.045
X166.37Y-116.205
X168.91Y-113.665
X168.91Y-118.11
X168.91Y-123.19
X170.18Y-100.33
X170.18Y-110.49
X171.45Y-113.665
X171.45Y-118.11
X171.45Y-123.19
X172.72Y-100.33
X172.72Y-110.49
X173.99Y-113.665
X173.99Y-118.11
X173.99Y-123.19
X175.26Y-100.33
X175.26Y-110.49
T2
X167.641Y-93.342
X177.8Y-93.345
T3
X105.41Y-89.535
X105.41Y-93.345
X105.41Y-97.155
X105.41Y-100.965
X105.41Y-104.775
X105.41Y-108.585
X105.41Y-112.395
X105.41Y-116.205
X107.95Y-89.535
X107.95Y-93.345
X107.95Y-97.155
X107.95Y-100.965
X107.95Y-104.775
X107.95Y-108.585
X107.95Y-112.395
X107.95Y-116.205
X110.49Y-89.535
X110.49Y-93.345
X110.49Y-97.155
X110.49Y-100.965
X110.49Y-104.775
X110.49Y-108.585
X110.49Y-112.395
X110.49Y-116.205
X165.1Y-83.82
X167.64Y-83.82
X170.18Y-83.82
X172.72Y-83.82
X175.26Y-83.82
X177.8Y-83.82
T4
X100.965Y-83.82
X100.965Y-125.095
X182.245Y-83.82
X182.245Y-125.095
T0
M30
