G04 #@! TF.GenerationSoftware,KiCad,Pcbnew,(5.0.2)-1*
G04 #@! TF.CreationDate,2019-01-06T22:14:06+08:00*
G04 #@! TF.ProjectId,LQFP Breakout Board,4c514650-2042-4726-9561-6b6f75742042,rev?*
G04 #@! TF.SameCoordinates,Original*
G04 #@! TF.FileFunction,Legend,Bot*
G04 #@! TF.FilePolarity,Positive*
%FSLAX46Y46*%
G04 Gerber Fmt 4.6, Leading zero omitted, Abs format (unit mm)*
G04 Created by KiCad (PCBNEW (5.0.2)-1) date 01/06/19 22:14:06*
%MOMM*%
%LPD*%
G01*
G04 APERTURE LIST*
%ADD10C,0.203200*%
%ADD11C,0.150000*%
G04 APERTURE END LIST*
D10*
X115140619Y-94246095D02*
X115140619Y-93762285D01*
X115624428Y-93713904D01*
X115576047Y-93762285D01*
X115527666Y-93859047D01*
X115527666Y-94100952D01*
X115576047Y-94197714D01*
X115624428Y-94246095D01*
X115721190Y-94294476D01*
X115963095Y-94294476D01*
X116059857Y-94246095D01*
X116108238Y-94197714D01*
X116156619Y-94100952D01*
X116156619Y-93859047D01*
X116108238Y-93762285D01*
X116059857Y-93713904D01*
X115140619Y-94923428D02*
X115140619Y-95020190D01*
X115189000Y-95116952D01*
X115237380Y-95165333D01*
X115334142Y-95213714D01*
X115527666Y-95262095D01*
X115769571Y-95262095D01*
X115963095Y-95213714D01*
X116059857Y-95165333D01*
X116108238Y-95116952D01*
X116156619Y-95020190D01*
X116156619Y-94923428D01*
X116108238Y-94826666D01*
X116059857Y-94778285D01*
X115963095Y-94729904D01*
X115769571Y-94681523D01*
X115527666Y-94681523D01*
X115334142Y-94729904D01*
X115237380Y-94778285D01*
X115189000Y-94826666D01*
X115140619Y-94923428D01*
X115479285Y-91657714D02*
X116156619Y-91657714D01*
X115092238Y-91415809D02*
X115817952Y-91173904D01*
X115817952Y-91802857D01*
X115576047Y-92335047D02*
X115527666Y-92238285D01*
X115479285Y-92189904D01*
X115382523Y-92141523D01*
X115334142Y-92141523D01*
X115237380Y-92189904D01*
X115189000Y-92238285D01*
X115140619Y-92335047D01*
X115140619Y-92528571D01*
X115189000Y-92625333D01*
X115237380Y-92673714D01*
X115334142Y-92722095D01*
X115382523Y-92722095D01*
X115479285Y-92673714D01*
X115527666Y-92625333D01*
X115576047Y-92528571D01*
X115576047Y-92335047D01*
X115624428Y-92238285D01*
X115672809Y-92189904D01*
X115769571Y-92141523D01*
X115963095Y-92141523D01*
X116059857Y-92189904D01*
X116108238Y-92238285D01*
X116156619Y-92335047D01*
X116156619Y-92528571D01*
X116108238Y-92625333D01*
X116059857Y-92673714D01*
X115963095Y-92722095D01*
X115769571Y-92722095D01*
X115672809Y-92673714D01*
X115624428Y-92625333D01*
X115576047Y-92528571D01*
X121575285Y-91657714D02*
X122252619Y-91657714D01*
X121188238Y-91415809D02*
X121913952Y-91173904D01*
X121913952Y-91802857D01*
X122252619Y-92238285D02*
X122252619Y-92431809D01*
X122204238Y-92528571D01*
X122155857Y-92576952D01*
X122010714Y-92673714D01*
X121817190Y-92722095D01*
X121430142Y-92722095D01*
X121333380Y-92673714D01*
X121285000Y-92625333D01*
X121236619Y-92528571D01*
X121236619Y-92335047D01*
X121285000Y-92238285D01*
X121333380Y-92189904D01*
X121430142Y-92141523D01*
X121672047Y-92141523D01*
X121768809Y-92189904D01*
X121817190Y-92238285D01*
X121865571Y-92335047D01*
X121865571Y-92528571D01*
X121817190Y-92625333D01*
X121768809Y-92673714D01*
X121672047Y-92722095D01*
X121333380Y-63233904D02*
X121285000Y-63282285D01*
X121236619Y-63379047D01*
X121236619Y-63620952D01*
X121285000Y-63717714D01*
X121333380Y-63766095D01*
X121430142Y-63814476D01*
X121526904Y-63814476D01*
X121672047Y-63766095D01*
X122252619Y-63185523D01*
X122252619Y-63814476D01*
X121236619Y-64153142D02*
X121236619Y-64830476D01*
X122252619Y-64395047D01*
X115237380Y-63233904D02*
X115189000Y-63282285D01*
X115140619Y-63379047D01*
X115140619Y-63620952D01*
X115189000Y-63717714D01*
X115237380Y-63766095D01*
X115334142Y-63814476D01*
X115430904Y-63814476D01*
X115576047Y-63766095D01*
X116156619Y-63185523D01*
X116156619Y-63814476D01*
X115140619Y-64685333D02*
X115140619Y-64491809D01*
X115189000Y-64395047D01*
X115237380Y-64346666D01*
X115382523Y-64249904D01*
X115576047Y-64201523D01*
X115963095Y-64201523D01*
X116059857Y-64249904D01*
X116108238Y-64298285D01*
X116156619Y-64395047D01*
X116156619Y-64588571D01*
X116108238Y-64685333D01*
X116059857Y-64733714D01*
X115963095Y-64782095D01*
X115721190Y-64782095D01*
X115624428Y-64733714D01*
X115576047Y-64685333D01*
X115527666Y-64588571D01*
X115527666Y-64395047D01*
X115576047Y-64298285D01*
X115624428Y-64249904D01*
X115721190Y-64201523D01*
X69674619Y-76030666D02*
X69674619Y-75450095D01*
X69674619Y-75740380D02*
X68658619Y-75740380D01*
X68803761Y-75643619D01*
X68900523Y-75546857D01*
X68948904Y-75450095D01*
X68658619Y-76659619D02*
X68658619Y-76756380D01*
X68707000Y-76853142D01*
X68755380Y-76901523D01*
X68852142Y-76949904D01*
X69045666Y-76998285D01*
X69287571Y-76998285D01*
X69481095Y-76949904D01*
X69577857Y-76901523D01*
X69626238Y-76853142D01*
X69674619Y-76756380D01*
X69674619Y-76659619D01*
X69626238Y-76562857D01*
X69577857Y-76514476D01*
X69481095Y-76466095D01*
X69287571Y-76417714D01*
X69045666Y-76417714D01*
X68852142Y-76466095D01*
X68755380Y-76514476D01*
X68707000Y-76562857D01*
X68658619Y-76659619D01*
X68658619Y-77627238D02*
X68658619Y-77724000D01*
X68707000Y-77820761D01*
X68755380Y-77869142D01*
X68852142Y-77917523D01*
X69045666Y-77965904D01*
X69287571Y-77965904D01*
X69481095Y-77917523D01*
X69577857Y-77869142D01*
X69626238Y-77820761D01*
X69674619Y-77724000D01*
X69674619Y-77627238D01*
X69626238Y-77530476D01*
X69577857Y-77482095D01*
X69481095Y-77433714D01*
X69287571Y-77385333D01*
X69045666Y-77385333D01*
X68852142Y-77433714D01*
X68755380Y-77482095D01*
X68707000Y-77530476D01*
X68658619Y-77627238D01*
X69674619Y-78570666D02*
X69674619Y-78764190D01*
X69626238Y-78860952D01*
X69577857Y-78909333D01*
X69432714Y-79006095D01*
X69239190Y-79054476D01*
X68852142Y-79054476D01*
X68755380Y-79006095D01*
X68707000Y-78957714D01*
X68658619Y-78860952D01*
X68658619Y-78667428D01*
X68707000Y-78570666D01*
X68755380Y-78522285D01*
X68852142Y-78473904D01*
X69094047Y-78473904D01*
X69190809Y-78522285D01*
X69239190Y-78570666D01*
X69287571Y-78667428D01*
X69287571Y-78860952D01*
X69239190Y-78957714D01*
X69190809Y-79006095D01*
X69094047Y-79054476D01*
X69094047Y-79635047D02*
X69045666Y-79538285D01*
X68997285Y-79489904D01*
X68900523Y-79441523D01*
X68852142Y-79441523D01*
X68755380Y-79489904D01*
X68707000Y-79538285D01*
X68658619Y-79635047D01*
X68658619Y-79828571D01*
X68707000Y-79925333D01*
X68755380Y-79973714D01*
X68852142Y-80022095D01*
X68900523Y-80022095D01*
X68997285Y-79973714D01*
X69045666Y-79925333D01*
X69094047Y-79828571D01*
X69094047Y-79635047D01*
X69142428Y-79538285D01*
X69190809Y-79489904D01*
X69287571Y-79441523D01*
X69481095Y-79441523D01*
X69577857Y-79489904D01*
X69626238Y-79538285D01*
X69674619Y-79635047D01*
X69674619Y-79828571D01*
X69626238Y-79925333D01*
X69577857Y-79973714D01*
X69481095Y-80022095D01*
X69287571Y-80022095D01*
X69190809Y-79973714D01*
X69142428Y-79925333D01*
X69094047Y-79828571D01*
X63578619Y-78570666D02*
X63578619Y-78764190D01*
X63530238Y-78860952D01*
X63481857Y-78909333D01*
X63336714Y-79006095D01*
X63143190Y-79054476D01*
X62756142Y-79054476D01*
X62659380Y-79006095D01*
X62611000Y-78957714D01*
X62562619Y-78860952D01*
X62562619Y-78667428D01*
X62611000Y-78570666D01*
X62659380Y-78522285D01*
X62756142Y-78473904D01*
X62998047Y-78473904D01*
X63094809Y-78522285D01*
X63143190Y-78570666D01*
X63191571Y-78667428D01*
X63191571Y-78860952D01*
X63143190Y-78957714D01*
X63094809Y-79006095D01*
X62998047Y-79054476D01*
X63578619Y-79538285D02*
X63578619Y-79731809D01*
X63530238Y-79828571D01*
X63481857Y-79876952D01*
X63336714Y-79973714D01*
X63143190Y-80022095D01*
X62756142Y-80022095D01*
X62659380Y-79973714D01*
X62611000Y-79925333D01*
X62562619Y-79828571D01*
X62562619Y-79635047D01*
X62611000Y-79538285D01*
X62659380Y-79489904D01*
X62756142Y-79441523D01*
X62998047Y-79441523D01*
X63094809Y-79489904D01*
X63143190Y-79538285D01*
X63191571Y-79635047D01*
X63191571Y-79828571D01*
X63143190Y-79925333D01*
X63094809Y-79973714D01*
X62998047Y-80022095D01*
X62562619Y-106365523D02*
X62562619Y-107042857D01*
X63578619Y-106607428D01*
X62562619Y-107333142D02*
X62562619Y-108010476D01*
X63578619Y-107575047D01*
X68658619Y-106365523D02*
X68658619Y-107042857D01*
X69674619Y-106607428D01*
X68658619Y-107865333D02*
X68658619Y-107671809D01*
X68707000Y-107575047D01*
X68755380Y-107526666D01*
X68900523Y-107429904D01*
X69094047Y-107381523D01*
X69481095Y-107381523D01*
X69577857Y-107429904D01*
X69626238Y-107478285D01*
X69674619Y-107575047D01*
X69674619Y-107768571D01*
X69626238Y-107865333D01*
X69577857Y-107913714D01*
X69481095Y-107962095D01*
X69239190Y-107962095D01*
X69142428Y-107913714D01*
X69094047Y-107865333D01*
X69045666Y-107768571D01*
X69045666Y-107575047D01*
X69094047Y-107478285D01*
X69142428Y-107429904D01*
X69239190Y-107381523D01*
X83009619Y-107762523D02*
X83009619Y-108439857D01*
X84025619Y-108004428D01*
X83009619Y-109310714D02*
X83009619Y-108826904D01*
X83493428Y-108778523D01*
X83445047Y-108826904D01*
X83396666Y-108923666D01*
X83396666Y-109165571D01*
X83445047Y-109262333D01*
X83493428Y-109310714D01*
X83590190Y-109359095D01*
X83832095Y-109359095D01*
X83928857Y-109310714D01*
X83977238Y-109262333D01*
X84025619Y-109165571D01*
X84025619Y-108923666D01*
X83977238Y-108826904D01*
X83928857Y-108778523D01*
X113489619Y-114947095D02*
X113489619Y-114463285D01*
X113973428Y-114414904D01*
X113925047Y-114463285D01*
X113876666Y-114560047D01*
X113876666Y-114801952D01*
X113925047Y-114898714D01*
X113973428Y-114947095D01*
X114070190Y-114995476D01*
X114312095Y-114995476D01*
X114408857Y-114947095D01*
X114457238Y-114898714D01*
X114505619Y-114801952D01*
X114505619Y-114560047D01*
X114457238Y-114463285D01*
X114408857Y-114414904D01*
X113586380Y-115382523D02*
X113538000Y-115430904D01*
X113489619Y-115527666D01*
X113489619Y-115769571D01*
X113538000Y-115866333D01*
X113586380Y-115914714D01*
X113683142Y-115963095D01*
X113779904Y-115963095D01*
X113925047Y-115914714D01*
X114505619Y-115334142D01*
X114505619Y-115963095D01*
X113489619Y-108343095D02*
X113489619Y-107859285D01*
X113973428Y-107810904D01*
X113925047Y-107859285D01*
X113876666Y-107956047D01*
X113876666Y-108197952D01*
X113925047Y-108294714D01*
X113973428Y-108343095D01*
X114070190Y-108391476D01*
X114312095Y-108391476D01*
X114408857Y-108343095D01*
X114457238Y-108294714D01*
X114505619Y-108197952D01*
X114505619Y-107956047D01*
X114457238Y-107859285D01*
X114408857Y-107810904D01*
X114505619Y-109359095D02*
X114505619Y-108778523D01*
X114505619Y-109068809D02*
X113489619Y-109068809D01*
X113634761Y-108972047D01*
X113731523Y-108875285D01*
X113779904Y-108778523D01*
X85549619Y-114366523D02*
X85549619Y-115043857D01*
X86565619Y-114608428D01*
X85888285Y-115866333D02*
X86565619Y-115866333D01*
X85501238Y-115624428D02*
X86226952Y-115382523D01*
X86226952Y-116011476D01*
X85549619Y-107762523D02*
X85549619Y-108439857D01*
X86565619Y-108004428D01*
X85549619Y-108730142D02*
X85549619Y-109359095D01*
X85936666Y-109020428D01*
X85936666Y-109165571D01*
X85985047Y-109262333D01*
X86033428Y-109310714D01*
X86130190Y-109359095D01*
X86372095Y-109359095D01*
X86468857Y-109310714D01*
X86517238Y-109262333D01*
X86565619Y-109165571D01*
X86565619Y-108875285D01*
X86517238Y-108778523D01*
X86468857Y-108730142D01*
X100886380Y-61836904D02*
X100838000Y-61885285D01*
X100789619Y-61982047D01*
X100789619Y-62223952D01*
X100838000Y-62320714D01*
X100886380Y-62369095D01*
X100983142Y-62417476D01*
X101079904Y-62417476D01*
X101225047Y-62369095D01*
X101805619Y-61788523D01*
X101805619Y-62417476D01*
X100789619Y-63336714D02*
X100789619Y-62852904D01*
X101273428Y-62804523D01*
X101225047Y-62852904D01*
X101176666Y-62949666D01*
X101176666Y-63191571D01*
X101225047Y-63288333D01*
X101273428Y-63336714D01*
X101370190Y-63385095D01*
X101612095Y-63385095D01*
X101708857Y-63336714D01*
X101757238Y-63288333D01*
X101805619Y-63191571D01*
X101805619Y-62949666D01*
X101757238Y-62852904D01*
X101708857Y-62804523D01*
X98346380Y-61836904D02*
X98298000Y-61885285D01*
X98249619Y-61982047D01*
X98249619Y-62223952D01*
X98298000Y-62320714D01*
X98346380Y-62369095D01*
X98443142Y-62417476D01*
X98539904Y-62417476D01*
X98685047Y-62369095D01*
X99265619Y-61788523D01*
X99265619Y-62417476D01*
X98249619Y-62756142D02*
X98249619Y-63385095D01*
X98636666Y-63046428D01*
X98636666Y-63191571D01*
X98685047Y-63288333D01*
X98733428Y-63336714D01*
X98830190Y-63385095D01*
X99072095Y-63385095D01*
X99168857Y-63336714D01*
X99217238Y-63288333D01*
X99265619Y-63191571D01*
X99265619Y-62901285D01*
X99217238Y-62804523D01*
X99168857Y-62756142D01*
X98346380Y-55232904D02*
X98298000Y-55281285D01*
X98249619Y-55378047D01*
X98249619Y-55619952D01*
X98298000Y-55716714D01*
X98346380Y-55765095D01*
X98443142Y-55813476D01*
X98539904Y-55813476D01*
X98685047Y-55765095D01*
X99265619Y-55184523D01*
X99265619Y-55813476D01*
X98588285Y-56684333D02*
X99265619Y-56684333D01*
X98201238Y-56442428D02*
X98926952Y-56200523D01*
X98926952Y-56829476D01*
X70406380Y-56224714D02*
X70358000Y-56273095D01*
X70309619Y-56369857D01*
X70309619Y-56611761D01*
X70358000Y-56708523D01*
X70406380Y-56756904D01*
X70503142Y-56805285D01*
X70599904Y-56805285D01*
X70745047Y-56756904D01*
X71325619Y-56176333D01*
X71325619Y-56805285D01*
X71325619Y-62393285D02*
X71325619Y-61812714D01*
X71325619Y-62103000D02*
X70309619Y-62103000D01*
X70454761Y-62006238D01*
X70551523Y-61909476D01*
X70599904Y-61812714D01*
X83390619Y-80094666D02*
X83390619Y-79514095D01*
X83390619Y-79804380D02*
X82374619Y-79804380D01*
X82519761Y-79707619D01*
X82616523Y-79610857D01*
X82664904Y-79514095D01*
X82374619Y-80723619D02*
X82374619Y-80820380D01*
X82423000Y-80917142D01*
X82471380Y-80965523D01*
X82568142Y-81013904D01*
X82761666Y-81062285D01*
X83003571Y-81062285D01*
X83197095Y-81013904D01*
X83293857Y-80965523D01*
X83342238Y-80917142D01*
X83390619Y-80820380D01*
X83390619Y-80723619D01*
X83342238Y-80626857D01*
X83293857Y-80578476D01*
X83197095Y-80530095D01*
X83003571Y-80481714D01*
X82761666Y-80481714D01*
X82568142Y-80530095D01*
X82471380Y-80578476D01*
X82423000Y-80626857D01*
X82374619Y-80723619D01*
X82374619Y-81691238D02*
X82374619Y-81788000D01*
X82423000Y-81884761D01*
X82471380Y-81933142D01*
X82568142Y-81981523D01*
X82761666Y-82029904D01*
X83003571Y-82029904D01*
X83197095Y-81981523D01*
X83293857Y-81933142D01*
X83342238Y-81884761D01*
X83390619Y-81788000D01*
X83390619Y-81691238D01*
X83342238Y-81594476D01*
X83293857Y-81546095D01*
X83197095Y-81497714D01*
X83003571Y-81449333D01*
X82761666Y-81449333D01*
X82568142Y-81497714D01*
X82471380Y-81546095D01*
X82423000Y-81594476D01*
X82374619Y-81691238D01*
X82374619Y-89982523D02*
X82374619Y-90659857D01*
X83390619Y-90224428D01*
X82374619Y-91482333D02*
X82374619Y-91288809D01*
X82423000Y-91192047D01*
X82471380Y-91143666D01*
X82616523Y-91046904D01*
X82810047Y-90998523D01*
X83197095Y-90998523D01*
X83293857Y-91046904D01*
X83342238Y-91095285D01*
X83390619Y-91192047D01*
X83390619Y-91385571D01*
X83342238Y-91482333D01*
X83293857Y-91530714D01*
X83197095Y-91579095D01*
X82955190Y-91579095D01*
X82858428Y-91530714D01*
X82810047Y-91482333D01*
X82761666Y-91385571D01*
X82761666Y-91192047D01*
X82810047Y-91095285D01*
X82858428Y-91046904D01*
X82955190Y-90998523D01*
X86438619Y-94681523D02*
X86438619Y-95358857D01*
X87454619Y-94923428D01*
X86438619Y-96229714D02*
X86438619Y-95745904D01*
X86922428Y-95697523D01*
X86874047Y-95745904D01*
X86825666Y-95842666D01*
X86825666Y-96084571D01*
X86874047Y-96181333D01*
X86922428Y-96229714D01*
X87019190Y-96278095D01*
X87261095Y-96278095D01*
X87357857Y-96229714D01*
X87406238Y-96181333D01*
X87454619Y-96084571D01*
X87454619Y-95842666D01*
X87406238Y-95745904D01*
X87357857Y-95697523D01*
X97487619Y-95262095D02*
X97487619Y-94778285D01*
X97971428Y-94729904D01*
X97923047Y-94778285D01*
X97874666Y-94875047D01*
X97874666Y-95116952D01*
X97923047Y-95213714D01*
X97971428Y-95262095D01*
X98068190Y-95310476D01*
X98310095Y-95310476D01*
X98406857Y-95262095D01*
X98455238Y-95213714D01*
X98503619Y-95116952D01*
X98503619Y-94875047D01*
X98455238Y-94778285D01*
X98406857Y-94729904D01*
X98503619Y-96278095D02*
X98503619Y-95697523D01*
X98503619Y-95987809D02*
X97487619Y-95987809D01*
X97632761Y-95891047D01*
X97729523Y-95794285D01*
X97777904Y-95697523D01*
X101551619Y-90690095D02*
X101551619Y-90206285D01*
X102035428Y-90157904D01*
X101987047Y-90206285D01*
X101938666Y-90303047D01*
X101938666Y-90544952D01*
X101987047Y-90641714D01*
X102035428Y-90690095D01*
X102132190Y-90738476D01*
X102374095Y-90738476D01*
X102470857Y-90690095D01*
X102519238Y-90641714D01*
X102567619Y-90544952D01*
X102567619Y-90303047D01*
X102519238Y-90206285D01*
X102470857Y-90157904D01*
X101551619Y-91367428D02*
X101551619Y-91464190D01*
X101600000Y-91560952D01*
X101648380Y-91609333D01*
X101745142Y-91657714D01*
X101938666Y-91706095D01*
X102180571Y-91706095D01*
X102374095Y-91657714D01*
X102470857Y-91609333D01*
X102519238Y-91560952D01*
X102567619Y-91464190D01*
X102567619Y-91367428D01*
X102519238Y-91270666D01*
X102470857Y-91222285D01*
X102374095Y-91173904D01*
X102180571Y-91125523D01*
X101938666Y-91125523D01*
X101745142Y-91173904D01*
X101648380Y-91222285D01*
X101600000Y-91270666D01*
X101551619Y-91367428D01*
X101648380Y-79489904D02*
X101600000Y-79538285D01*
X101551619Y-79635047D01*
X101551619Y-79876952D01*
X101600000Y-79973714D01*
X101648380Y-80022095D01*
X101745142Y-80070476D01*
X101841904Y-80070476D01*
X101987047Y-80022095D01*
X102567619Y-79441523D01*
X102567619Y-80070476D01*
X101551619Y-80941333D02*
X101551619Y-80747809D01*
X101600000Y-80651047D01*
X101648380Y-80602666D01*
X101793523Y-80505904D01*
X101987047Y-80457523D01*
X102374095Y-80457523D01*
X102470857Y-80505904D01*
X102519238Y-80554285D01*
X102567619Y-80651047D01*
X102567619Y-80844571D01*
X102519238Y-80941333D01*
X102470857Y-80989714D01*
X102374095Y-81038095D01*
X102132190Y-81038095D01*
X102035428Y-80989714D01*
X101987047Y-80941333D01*
X101938666Y-80844571D01*
X101938666Y-80651047D01*
X101987047Y-80554285D01*
X102035428Y-80505904D01*
X102132190Y-80457523D01*
X97584380Y-74917904D02*
X97536000Y-74966285D01*
X97487619Y-75063047D01*
X97487619Y-75304952D01*
X97536000Y-75401714D01*
X97584380Y-75450095D01*
X97681142Y-75498476D01*
X97777904Y-75498476D01*
X97923047Y-75450095D01*
X98503619Y-74869523D01*
X98503619Y-75498476D01*
X97487619Y-76417714D02*
X97487619Y-75933904D01*
X97971428Y-75885523D01*
X97923047Y-75933904D01*
X97874666Y-76030666D01*
X97874666Y-76272571D01*
X97923047Y-76369333D01*
X97971428Y-76417714D01*
X98068190Y-76466095D01*
X98310095Y-76466095D01*
X98406857Y-76417714D01*
X98455238Y-76369333D01*
X98503619Y-76272571D01*
X98503619Y-76030666D01*
X98455238Y-75933904D01*
X98406857Y-75885523D01*
X87454619Y-76490285D02*
X87454619Y-75909714D01*
X87454619Y-76200000D02*
X86438619Y-76200000D01*
X86583761Y-76103238D01*
X86680523Y-76006476D01*
X86728904Y-75909714D01*
D11*
G04 #@! TO.C,U1*
X85981000Y-78473000D02*
X85981000Y-76948000D01*
X85331000Y-92723000D02*
X85331000Y-91963000D01*
X99581000Y-92723000D02*
X99581000Y-91963000D01*
X99581000Y-78473000D02*
X99581000Y-79233000D01*
X85331000Y-78473000D02*
X85331000Y-79233000D01*
X99581000Y-78473000D02*
X98821000Y-78473000D01*
X99581000Y-92723000D02*
X98821000Y-92723000D01*
X85331000Y-92723000D02*
X86091000Y-92723000D01*
X85331000Y-78473000D02*
X85981000Y-78473000D01*
G04 #@! TD*
M02*
