G04 #@! TF.GenerationSoftware,KiCad,Pcbnew,(5.0.2)-1*
G04 #@! TF.CreationDate,2019-01-06T22:14:06+08:00*
G04 #@! TF.ProjectId,LQFP Breakout Board,4c514650-2042-4726-9561-6b6f75742042,rev?*
G04 #@! TF.SameCoordinates,Original*
G04 #@! TF.FileFunction,Legend,Top*
G04 #@! TF.FilePolarity,Positive*
%FSLAX46Y46*%
G04 Gerber Fmt 4.6, Leading zero omitted, Abs format (unit mm)*
G04 Created by KiCad (PCBNEW (5.0.2)-1) date 01/06/19 22:14:06*
%MOMM*%
%LPD*%
G01*
G04 APERTURE LIST*
%ADD10C,0.203200*%
%ADD11C,0.120000*%
%ADD12C,0.150000*%
G04 APERTURE END LIST*
D10*
X92794666Y-66372619D02*
X92214095Y-66372619D01*
X92504380Y-66372619D02*
X92504380Y-65356619D01*
X92407619Y-65501761D01*
X92310857Y-65598523D01*
X92214095Y-65646904D01*
X93665523Y-65695285D02*
X93665523Y-66372619D01*
X93423619Y-65308238D02*
X93181714Y-66033952D01*
X93810666Y-66033952D01*
X94100952Y-65356619D02*
X94729904Y-65356619D01*
X94391238Y-65743666D01*
X94536380Y-65743666D01*
X94633142Y-65792047D01*
X94681523Y-65840428D01*
X94729904Y-65937190D01*
X94729904Y-66179095D01*
X94681523Y-66275857D01*
X94633142Y-66324238D01*
X94536380Y-66372619D01*
X94246095Y-66372619D01*
X94149333Y-66324238D01*
X94100952Y-66275857D01*
X67013666Y-61038619D02*
X66433095Y-61038619D01*
X66723380Y-61038619D02*
X66723380Y-60022619D01*
X66626619Y-60167761D01*
X66529857Y-60264523D01*
X66433095Y-60312904D01*
X67884523Y-60361285D02*
X67884523Y-61038619D01*
X67642619Y-59974238D02*
X67400714Y-60699952D01*
X68029666Y-60699952D01*
X68852142Y-60361285D02*
X68852142Y-61038619D01*
X68610238Y-59974238D02*
X68368333Y-60699952D01*
X68997285Y-60699952D01*
X70188666Y-55958619D02*
X69608095Y-55958619D01*
X69898380Y-55958619D02*
X69898380Y-54942619D01*
X69801619Y-55087761D01*
X69704857Y-55184523D01*
X69608095Y-55232904D01*
X71059523Y-55281285D02*
X71059523Y-55958619D01*
X70817619Y-54894238D02*
X70575714Y-55619952D01*
X71204666Y-55619952D01*
X71494952Y-54942619D02*
X72123904Y-54942619D01*
X71785238Y-55329666D01*
X71930380Y-55329666D01*
X72027142Y-55378047D01*
X72075523Y-55426428D01*
X72123904Y-55523190D01*
X72123904Y-55765095D01*
X72075523Y-55861857D01*
X72027142Y-55910238D01*
X71930380Y-55958619D01*
X71640095Y-55958619D01*
X71543333Y-55910238D01*
X71494952Y-55861857D01*
X113368666Y-55958619D02*
X112788095Y-55958619D01*
X113078380Y-55958619D02*
X113078380Y-54942619D01*
X112981619Y-55087761D01*
X112884857Y-55184523D01*
X112788095Y-55232904D01*
X113997619Y-54942619D02*
X114094380Y-54942619D01*
X114191142Y-54991000D01*
X114239523Y-55039380D01*
X114287904Y-55136142D01*
X114336285Y-55329666D01*
X114336285Y-55571571D01*
X114287904Y-55765095D01*
X114239523Y-55861857D01*
X114191142Y-55910238D01*
X114094380Y-55958619D01*
X113997619Y-55958619D01*
X113900857Y-55910238D01*
X113852476Y-55861857D01*
X113804095Y-55765095D01*
X113755714Y-55571571D01*
X113755714Y-55329666D01*
X113804095Y-55136142D01*
X113852476Y-55039380D01*
X113900857Y-54991000D01*
X113997619Y-54942619D01*
X114820095Y-55958619D02*
X115013619Y-55958619D01*
X115110380Y-55910238D01*
X115158761Y-55861857D01*
X115255523Y-55716714D01*
X115303904Y-55523190D01*
X115303904Y-55136142D01*
X115255523Y-55039380D01*
X115207142Y-54991000D01*
X115110380Y-54942619D01*
X114916857Y-54942619D01*
X114820095Y-54991000D01*
X114771714Y-55039380D01*
X114723333Y-55136142D01*
X114723333Y-55378047D01*
X114771714Y-55474809D01*
X114820095Y-55523190D01*
X114916857Y-55571571D01*
X115110380Y-55571571D01*
X115207142Y-55523190D01*
X115255523Y-55474809D01*
X115303904Y-55378047D01*
X116670666Y-61038619D02*
X116090095Y-61038619D01*
X116380380Y-61038619D02*
X116380380Y-60022619D01*
X116283619Y-60167761D01*
X116186857Y-60264523D01*
X116090095Y-60312904D01*
X117638285Y-61038619D02*
X117057714Y-61038619D01*
X117348000Y-61038619D02*
X117348000Y-60022619D01*
X117251238Y-60167761D01*
X117154476Y-60264523D01*
X117057714Y-60312904D01*
X118267238Y-60022619D02*
X118364000Y-60022619D01*
X118460761Y-60071000D01*
X118509142Y-60119380D01*
X118557523Y-60216142D01*
X118605904Y-60409666D01*
X118605904Y-60651571D01*
X118557523Y-60845095D01*
X118509142Y-60941857D01*
X118460761Y-60990238D01*
X118364000Y-61038619D01*
X118267238Y-61038619D01*
X118170476Y-60990238D01*
X118122095Y-60941857D01*
X118073714Y-60845095D01*
X118025333Y-60651571D01*
X118025333Y-60409666D01*
X118073714Y-60216142D01*
X118122095Y-60119380D01*
X118170476Y-60071000D01*
X118267238Y-60022619D01*
X113622666Y-64467619D02*
X113042095Y-64467619D01*
X113332380Y-64467619D02*
X113332380Y-63451619D01*
X113235619Y-63596761D01*
X113138857Y-63693523D01*
X113042095Y-63741904D01*
X114251619Y-63451619D02*
X114348380Y-63451619D01*
X114445142Y-63500000D01*
X114493523Y-63548380D01*
X114541904Y-63645142D01*
X114590285Y-63838666D01*
X114590285Y-64080571D01*
X114541904Y-64274095D01*
X114493523Y-64370857D01*
X114445142Y-64419238D01*
X114348380Y-64467619D01*
X114251619Y-64467619D01*
X114154857Y-64419238D01*
X114106476Y-64370857D01*
X114058095Y-64274095D01*
X114009714Y-64080571D01*
X114009714Y-63838666D01*
X114058095Y-63645142D01*
X114106476Y-63548380D01*
X114154857Y-63500000D01*
X114251619Y-63451619D01*
X115170857Y-63887047D02*
X115074095Y-63838666D01*
X115025714Y-63790285D01*
X114977333Y-63693523D01*
X114977333Y-63645142D01*
X115025714Y-63548380D01*
X115074095Y-63500000D01*
X115170857Y-63451619D01*
X115364380Y-63451619D01*
X115461142Y-63500000D01*
X115509523Y-63548380D01*
X115557904Y-63645142D01*
X115557904Y-63693523D01*
X115509523Y-63790285D01*
X115461142Y-63838666D01*
X115364380Y-63887047D01*
X115170857Y-63887047D01*
X115074095Y-63935428D01*
X115025714Y-63983809D01*
X114977333Y-64080571D01*
X114977333Y-64274095D01*
X115025714Y-64370857D01*
X115074095Y-64419238D01*
X115170857Y-64467619D01*
X115364380Y-64467619D01*
X115461142Y-64419238D01*
X115509523Y-64370857D01*
X115557904Y-64274095D01*
X115557904Y-64080571D01*
X115509523Y-63983809D01*
X115461142Y-63935428D01*
X115364380Y-63887047D01*
X119337666Y-61927619D02*
X118757095Y-61927619D01*
X119047380Y-61927619D02*
X119047380Y-60911619D01*
X118950619Y-61056761D01*
X118853857Y-61153523D01*
X118757095Y-61201904D01*
X119966619Y-60911619D02*
X120063380Y-60911619D01*
X120160142Y-60960000D01*
X120208523Y-61008380D01*
X120256904Y-61105142D01*
X120305285Y-61298666D01*
X120305285Y-61540571D01*
X120256904Y-61734095D01*
X120208523Y-61830857D01*
X120160142Y-61879238D01*
X120063380Y-61927619D01*
X119966619Y-61927619D01*
X119869857Y-61879238D01*
X119821476Y-61830857D01*
X119773095Y-61734095D01*
X119724714Y-61540571D01*
X119724714Y-61298666D01*
X119773095Y-61105142D01*
X119821476Y-61008380D01*
X119869857Y-60960000D01*
X119966619Y-60911619D01*
X120643952Y-60911619D02*
X121321285Y-60911619D01*
X120885857Y-61927619D01*
X114112523Y-106631619D02*
X114789857Y-106631619D01*
X114354428Y-107647619D01*
X115612333Y-106970285D02*
X115612333Y-107647619D01*
X115370428Y-106583238D02*
X115128523Y-107308952D01*
X115757476Y-107308952D01*
X121732523Y-106631619D02*
X122409857Y-106631619D01*
X121974428Y-107647619D01*
X122700142Y-106631619D02*
X123329095Y-106631619D01*
X122990428Y-107018666D01*
X123135571Y-107018666D01*
X123232333Y-107067047D01*
X123280714Y-107115428D01*
X123329095Y-107212190D01*
X123329095Y-107454095D01*
X123280714Y-107550857D01*
X123232333Y-107599238D01*
X123135571Y-107647619D01*
X122845285Y-107647619D01*
X122748523Y-107599238D01*
X122700142Y-107550857D01*
X115636523Y-112600619D02*
X116313857Y-112600619D01*
X115878428Y-113616619D01*
X117233095Y-113616619D02*
X116652523Y-113616619D01*
X116942809Y-113616619D02*
X116942809Y-112600619D01*
X116846047Y-112745761D01*
X116749285Y-112842523D01*
X116652523Y-112890904D01*
X115636523Y-110060619D02*
X116313857Y-110060619D01*
X115878428Y-111076619D01*
X116652523Y-110157380D02*
X116700904Y-110109000D01*
X116797666Y-110060619D01*
X117039571Y-110060619D01*
X117136333Y-110109000D01*
X117184714Y-110157380D01*
X117233095Y-110254142D01*
X117233095Y-110350904D01*
X117184714Y-110496047D01*
X116604142Y-111076619D01*
X117233095Y-111076619D01*
X67503523Y-110060619D02*
X68132476Y-110060619D01*
X67793809Y-110447666D01*
X67938952Y-110447666D01*
X68035714Y-110496047D01*
X68084095Y-110544428D01*
X68132476Y-110641190D01*
X68132476Y-110883095D01*
X68084095Y-110979857D01*
X68035714Y-111028238D01*
X67938952Y-111076619D01*
X67648666Y-111076619D01*
X67551904Y-111028238D01*
X67503523Y-110979857D01*
X68713047Y-110496047D02*
X68616285Y-110447666D01*
X68567904Y-110399285D01*
X68519523Y-110302523D01*
X68519523Y-110254142D01*
X68567904Y-110157380D01*
X68616285Y-110109000D01*
X68713047Y-110060619D01*
X68906571Y-110060619D01*
X69003333Y-110109000D01*
X69051714Y-110157380D01*
X69100095Y-110254142D01*
X69100095Y-110302523D01*
X69051714Y-110399285D01*
X69003333Y-110447666D01*
X68906571Y-110496047D01*
X68713047Y-110496047D01*
X68616285Y-110544428D01*
X68567904Y-110592809D01*
X68519523Y-110689571D01*
X68519523Y-110883095D01*
X68567904Y-110979857D01*
X68616285Y-111028238D01*
X68713047Y-111076619D01*
X68906571Y-111076619D01*
X69003333Y-111028238D01*
X69051714Y-110979857D01*
X69100095Y-110883095D01*
X69100095Y-110689571D01*
X69051714Y-110592809D01*
X69003333Y-110544428D01*
X68906571Y-110496047D01*
X67503523Y-112600619D02*
X68132476Y-112600619D01*
X67793809Y-112987666D01*
X67938952Y-112987666D01*
X68035714Y-113036047D01*
X68084095Y-113084428D01*
X68132476Y-113181190D01*
X68132476Y-113423095D01*
X68084095Y-113519857D01*
X68035714Y-113568238D01*
X67938952Y-113616619D01*
X67648666Y-113616619D01*
X67551904Y-113568238D01*
X67503523Y-113519857D01*
X68471142Y-112600619D02*
X69148476Y-112600619D01*
X68713047Y-113616619D01*
X69154523Y-106631619D02*
X69783476Y-106631619D01*
X69444809Y-107018666D01*
X69589952Y-107018666D01*
X69686714Y-107067047D01*
X69735095Y-107115428D01*
X69783476Y-107212190D01*
X69783476Y-107454095D01*
X69735095Y-107550857D01*
X69686714Y-107599238D01*
X69589952Y-107647619D01*
X69299666Y-107647619D01*
X69202904Y-107599238D01*
X69154523Y-107550857D01*
X70654333Y-106631619D02*
X70460809Y-106631619D01*
X70364047Y-106680000D01*
X70315666Y-106728380D01*
X70218904Y-106873523D01*
X70170523Y-107067047D01*
X70170523Y-107454095D01*
X70218904Y-107550857D01*
X70267285Y-107599238D01*
X70364047Y-107647619D01*
X70557571Y-107647619D01*
X70654333Y-107599238D01*
X70702714Y-107550857D01*
X70751095Y-107454095D01*
X70751095Y-107212190D01*
X70702714Y-107115428D01*
X70654333Y-107067047D01*
X70557571Y-107018666D01*
X70364047Y-107018666D01*
X70267285Y-107067047D01*
X70218904Y-107115428D01*
X70170523Y-107212190D01*
X61534523Y-106631619D02*
X62163476Y-106631619D01*
X61824809Y-107018666D01*
X61969952Y-107018666D01*
X62066714Y-107067047D01*
X62115095Y-107115428D01*
X62163476Y-107212190D01*
X62163476Y-107454095D01*
X62115095Y-107550857D01*
X62066714Y-107599238D01*
X61969952Y-107647619D01*
X61679666Y-107647619D01*
X61582904Y-107599238D01*
X61534523Y-107550857D01*
X63082714Y-106631619D02*
X62598904Y-106631619D01*
X62550523Y-107115428D01*
X62598904Y-107067047D01*
X62695666Y-107018666D01*
X62937571Y-107018666D01*
X63034333Y-107067047D01*
X63082714Y-107115428D01*
X63131095Y-107212190D01*
X63131095Y-107454095D01*
X63082714Y-107550857D01*
X63034333Y-107599238D01*
X62937571Y-107647619D01*
X62695666Y-107647619D01*
X62598904Y-107599238D01*
X62550523Y-107550857D01*
X69686714Y-63548380D02*
X69735095Y-63500000D01*
X69831857Y-63451619D01*
X70073761Y-63451619D01*
X70170523Y-63500000D01*
X70218904Y-63548380D01*
X70267285Y-63645142D01*
X70267285Y-63741904D01*
X70218904Y-63887047D01*
X69638333Y-64467619D01*
X70267285Y-64467619D01*
X62647285Y-64467619D02*
X62066714Y-64467619D01*
X62357000Y-64467619D02*
X62357000Y-63451619D01*
X62260238Y-63596761D01*
X62163476Y-63693523D01*
X62066714Y-63741904D01*
X99398666Y-73611619D02*
X98818095Y-73611619D01*
X99108380Y-73611619D02*
X99108380Y-72595619D01*
X99011619Y-72740761D01*
X98914857Y-72837523D01*
X98818095Y-72885904D01*
X100027619Y-72595619D02*
X100124380Y-72595619D01*
X100221142Y-72644000D01*
X100269523Y-72692380D01*
X100317904Y-72789142D01*
X100366285Y-72982666D01*
X100366285Y-73224571D01*
X100317904Y-73418095D01*
X100269523Y-73514857D01*
X100221142Y-73563238D01*
X100124380Y-73611619D01*
X100027619Y-73611619D01*
X99930857Y-73563238D01*
X99882476Y-73514857D01*
X99834095Y-73418095D01*
X99785714Y-73224571D01*
X99785714Y-72982666D01*
X99834095Y-72789142D01*
X99882476Y-72692380D01*
X99930857Y-72644000D01*
X100027619Y-72595619D01*
X100850095Y-73611619D02*
X101043619Y-73611619D01*
X101140380Y-73563238D01*
X101188761Y-73514857D01*
X101285523Y-73369714D01*
X101333904Y-73176190D01*
X101333904Y-72789142D01*
X101285523Y-72692380D01*
X101237142Y-72644000D01*
X101140380Y-72595619D01*
X100946857Y-72595619D01*
X100850095Y-72644000D01*
X100801714Y-72692380D01*
X100753333Y-72789142D01*
X100753333Y-73031047D01*
X100801714Y-73127809D01*
X100850095Y-73176190D01*
X100946857Y-73224571D01*
X101140380Y-73224571D01*
X101237142Y-73176190D01*
X101285523Y-73127809D01*
X101333904Y-73031047D01*
X104986666Y-77802619D02*
X104406095Y-77802619D01*
X104696380Y-77802619D02*
X104696380Y-76786619D01*
X104599619Y-76931761D01*
X104502857Y-77028523D01*
X104406095Y-77076904D01*
X105615619Y-76786619D02*
X105712380Y-76786619D01*
X105809142Y-76835000D01*
X105857523Y-76883380D01*
X105905904Y-76980142D01*
X105954285Y-77173666D01*
X105954285Y-77415571D01*
X105905904Y-77609095D01*
X105857523Y-77705857D01*
X105809142Y-77754238D01*
X105712380Y-77802619D01*
X105615619Y-77802619D01*
X105518857Y-77754238D01*
X105470476Y-77705857D01*
X105422095Y-77609095D01*
X105373714Y-77415571D01*
X105373714Y-77173666D01*
X105422095Y-76980142D01*
X105470476Y-76883380D01*
X105518857Y-76835000D01*
X105615619Y-76786619D01*
X106534857Y-77222047D02*
X106438095Y-77173666D01*
X106389714Y-77125285D01*
X106341333Y-77028523D01*
X106341333Y-76980142D01*
X106389714Y-76883380D01*
X106438095Y-76835000D01*
X106534857Y-76786619D01*
X106728380Y-76786619D01*
X106825142Y-76835000D01*
X106873523Y-76883380D01*
X106921904Y-76980142D01*
X106921904Y-77028523D01*
X106873523Y-77125285D01*
X106825142Y-77173666D01*
X106728380Y-77222047D01*
X106534857Y-77222047D01*
X106438095Y-77270428D01*
X106389714Y-77318809D01*
X106341333Y-77415571D01*
X106341333Y-77609095D01*
X106389714Y-77705857D01*
X106438095Y-77754238D01*
X106534857Y-77802619D01*
X106728380Y-77802619D01*
X106825142Y-77754238D01*
X106873523Y-77705857D01*
X106921904Y-77609095D01*
X106921904Y-77415571D01*
X106873523Y-77318809D01*
X106825142Y-77270428D01*
X106728380Y-77222047D01*
X104333523Y-93423619D02*
X105010857Y-93423619D01*
X104575428Y-94439619D01*
X105301142Y-93423619D02*
X105930095Y-93423619D01*
X105591428Y-93810666D01*
X105736571Y-93810666D01*
X105833333Y-93859047D01*
X105881714Y-93907428D01*
X105930095Y-94004190D01*
X105930095Y-94246095D01*
X105881714Y-94342857D01*
X105833333Y-94391238D01*
X105736571Y-94439619D01*
X105446285Y-94439619D01*
X105349523Y-94391238D01*
X105301142Y-94342857D01*
X99634523Y-97487619D02*
X100311857Y-97487619D01*
X99876428Y-98503619D01*
X100650523Y-97584380D02*
X100698904Y-97536000D01*
X100795666Y-97487619D01*
X101037571Y-97487619D01*
X101134333Y-97536000D01*
X101182714Y-97584380D01*
X101231095Y-97681142D01*
X101231095Y-97777904D01*
X101182714Y-97923047D01*
X100602142Y-98503619D01*
X101231095Y-98503619D01*
X83632523Y-97487619D02*
X84261476Y-97487619D01*
X83922809Y-97874666D01*
X84067952Y-97874666D01*
X84164714Y-97923047D01*
X84213095Y-97971428D01*
X84261476Y-98068190D01*
X84261476Y-98310095D01*
X84213095Y-98406857D01*
X84164714Y-98455238D01*
X84067952Y-98503619D01*
X83777666Y-98503619D01*
X83680904Y-98455238D01*
X83632523Y-98406857D01*
X84600142Y-97487619D02*
X85277476Y-97487619D01*
X84842047Y-98503619D01*
X78933523Y-93423619D02*
X79562476Y-93423619D01*
X79223809Y-93810666D01*
X79368952Y-93810666D01*
X79465714Y-93859047D01*
X79514095Y-93907428D01*
X79562476Y-94004190D01*
X79562476Y-94246095D01*
X79514095Y-94342857D01*
X79465714Y-94391238D01*
X79368952Y-94439619D01*
X79078666Y-94439619D01*
X78981904Y-94391238D01*
X78933523Y-94342857D01*
X80433333Y-93423619D02*
X80239809Y-93423619D01*
X80143047Y-93472000D01*
X80094666Y-93520380D01*
X79997904Y-93665523D01*
X79949523Y-93859047D01*
X79949523Y-94246095D01*
X79997904Y-94342857D01*
X80046285Y-94391238D01*
X80143047Y-94439619D01*
X80336571Y-94439619D01*
X80433333Y-94391238D01*
X80481714Y-94342857D01*
X80530095Y-94246095D01*
X80530095Y-94004190D01*
X80481714Y-93907428D01*
X80433333Y-93859047D01*
X80336571Y-93810666D01*
X80143047Y-93810666D01*
X80046285Y-93859047D01*
X79997904Y-93907428D01*
X79949523Y-94004190D01*
X84285666Y-73611619D02*
X83705095Y-73611619D01*
X83995380Y-73611619D02*
X83995380Y-72595619D01*
X83898619Y-72740761D01*
X83801857Y-72837523D01*
X83705095Y-72885904D01*
X85156523Y-72934285D02*
X85156523Y-73611619D01*
X84914619Y-72547238D02*
X84672714Y-73272952D01*
X85301666Y-73272952D01*
X86124142Y-72934285D02*
X86124142Y-73611619D01*
X85882238Y-72547238D02*
X85640333Y-73272952D01*
X86269285Y-73272952D01*
X80554285Y-77548619D02*
X79973714Y-77548619D01*
X80264000Y-77548619D02*
X80264000Y-76532619D01*
X80167238Y-76677761D01*
X80070476Y-76774523D01*
X79973714Y-76822904D01*
D11*
G04 #@! TO.C,J1*
X63567000Y-62678000D02*
X64897000Y-62678000D01*
X63567000Y-64008000D02*
X63567000Y-62678000D01*
X66167000Y-62678000D02*
X68767000Y-62678000D01*
X66167000Y-65278000D02*
X66167000Y-62678000D01*
X63567000Y-65278000D02*
X66167000Y-65278000D01*
X68767000Y-62678000D02*
X68767000Y-108518000D01*
X63567000Y-65278000D02*
X63567000Y-108518000D01*
X63567000Y-108518000D02*
X68767000Y-108518000D01*
G04 #@! TO.C,J2*
X115376000Y-114487000D02*
X115376000Y-109287000D01*
X72136000Y-114487000D02*
X115376000Y-114487000D01*
X69536000Y-109287000D02*
X115376000Y-109287000D01*
X72136000Y-114487000D02*
X72136000Y-111887000D01*
X72136000Y-111887000D02*
X69536000Y-111887000D01*
X69536000Y-111887000D02*
X69536000Y-109287000D01*
X70866000Y-114487000D02*
X69536000Y-114487000D01*
X69536000Y-114487000D02*
X69536000Y-113157000D01*
G04 #@! TO.C,J3*
X121345000Y-108518000D02*
X120015000Y-108518000D01*
X121345000Y-107188000D02*
X121345000Y-108518000D01*
X118745000Y-108518000D02*
X116145000Y-108518000D01*
X118745000Y-105918000D02*
X118745000Y-108518000D01*
X121345000Y-105918000D02*
X118745000Y-105918000D01*
X116145000Y-108518000D02*
X116145000Y-62678000D01*
X121345000Y-105918000D02*
X121345000Y-62678000D01*
X121345000Y-62678000D02*
X116145000Y-62678000D01*
G04 #@! TO.C,J4*
X69536000Y-56709000D02*
X69536000Y-61909000D01*
X112776000Y-56709000D02*
X69536000Y-56709000D01*
X115376000Y-61909000D02*
X69536000Y-61909000D01*
X112776000Y-56709000D02*
X112776000Y-59309000D01*
X112776000Y-59309000D02*
X115376000Y-59309000D01*
X115376000Y-59309000D02*
X115376000Y-61909000D01*
X114046000Y-56709000D02*
X115376000Y-56709000D01*
X115376000Y-56709000D02*
X115376000Y-58039000D01*
D12*
G04 #@! TO.C,U2*
X82281000Y-76398000D02*
X80981000Y-76398000D01*
X102631000Y-75423000D02*
X101581000Y-75423000D01*
X102631000Y-95773000D02*
X101581000Y-95773000D01*
X82281000Y-95773000D02*
X83331000Y-95773000D01*
X82281000Y-75423000D02*
X83331000Y-75423000D01*
X82281000Y-95773000D02*
X82281000Y-94723000D01*
X102631000Y-95773000D02*
X102631000Y-94723000D01*
X102631000Y-75423000D02*
X102631000Y-76473000D01*
X82281000Y-75423000D02*
X82281000Y-76398000D01*
G04 #@! TD*
M02*
