G04 #@! TF.GenerationSoftware,KiCad,Pcbnew,(5.0.2)-1*
G04 #@! TF.CreationDate,2019-01-06T22:14:06+08:00*
G04 #@! TF.ProjectId,LQFP Breakout Board,4c514650-2042-4726-9561-6b6f75742042,rev?*
G04 #@! TF.SameCoordinates,Original*
G04 #@! TF.FileFunction,Copper,L1,Top*
G04 #@! TF.FilePolarity,Positive*
%FSLAX46Y46*%
G04 Gerber Fmt 4.6, Leading zero omitted, Abs format (unit mm)*
G04 Created by KiCad (PCBNEW (5.0.2)-1) date 01/06/19 22:14:06*
%MOMM*%
%LPD*%
G01*
G04 APERTURE LIST*
G04 #@! TA.AperFunction,ComponentPad*
%ADD10O,1.700000X1.700000*%
G04 #@! TD*
G04 #@! TA.AperFunction,ComponentPad*
%ADD11R,1.700000X1.700000*%
G04 #@! TD*
G04 #@! TA.AperFunction,SMDPad,CuDef*
%ADD12R,0.300000X1.550000*%
G04 #@! TD*
G04 #@! TA.AperFunction,SMDPad,CuDef*
%ADD13R,1.550000X0.300000*%
G04 #@! TD*
G04 #@! TA.AperFunction,ComponentPad*
%ADD14C,3.800000*%
G04 #@! TD*
G04 #@! TA.AperFunction,Conductor*
%ADD15C,0.254000*%
G04 #@! TD*
G04 APERTURE END LIST*
D10*
G04 #@! TO.P,J1,36*
G04 #@! TO.N,P36*
X67437000Y-107188000D03*
G04 #@! TO.P,J1,35*
G04 #@! TO.N,P35*
X64897000Y-107188000D03*
G04 #@! TO.P,J1,34*
G04 #@! TO.N,P34*
X67437000Y-104648000D03*
G04 #@! TO.P,J1,33*
G04 #@! TO.N,P33*
X64897000Y-104648000D03*
G04 #@! TO.P,J1,32*
G04 #@! TO.N,P32*
X67437000Y-102108000D03*
G04 #@! TO.P,J1,31*
G04 #@! TO.N,P31*
X64897000Y-102108000D03*
G04 #@! TO.P,J1,30*
G04 #@! TO.N,P30*
X67437000Y-99568000D03*
G04 #@! TO.P,J1,29*
G04 #@! TO.N,P29*
X64897000Y-99568000D03*
G04 #@! TO.P,J1,28*
G04 #@! TO.N,P28*
X67437000Y-97028000D03*
G04 #@! TO.P,J1,27*
G04 #@! TO.N,P27*
X64897000Y-97028000D03*
G04 #@! TO.P,J1,26*
G04 #@! TO.N,P26*
X67437000Y-94488000D03*
G04 #@! TO.P,J1,25*
G04 #@! TO.N,P25*
X64897000Y-94488000D03*
G04 #@! TO.P,J1,24*
G04 #@! TO.N,P24*
X67437000Y-91948000D03*
G04 #@! TO.P,J1,23*
G04 #@! TO.N,P23*
X64897000Y-91948000D03*
G04 #@! TO.P,J1,22*
G04 #@! TO.N,P22*
X67437000Y-89408000D03*
G04 #@! TO.P,J1,21*
G04 #@! TO.N,P21*
X64897000Y-89408000D03*
G04 #@! TO.P,J1,20*
G04 #@! TO.N,P20*
X67437000Y-86868000D03*
G04 #@! TO.P,J1,19*
G04 #@! TO.N,P19*
X64897000Y-86868000D03*
G04 #@! TO.P,J1,18*
G04 #@! TO.N,P18*
X67437000Y-84328000D03*
G04 #@! TO.P,J1,17*
G04 #@! TO.N,P17*
X64897000Y-84328000D03*
G04 #@! TO.P,J1,16*
G04 #@! TO.N,P16*
X67437000Y-81788000D03*
G04 #@! TO.P,J1,15*
G04 #@! TO.N,P15*
X64897000Y-81788000D03*
G04 #@! TO.P,J1,14*
G04 #@! TO.N,P14*
X67437000Y-79248000D03*
G04 #@! TO.P,J1,13*
G04 #@! TO.N,P13*
X64897000Y-79248000D03*
G04 #@! TO.P,J1,12*
G04 #@! TO.N,P12*
X67437000Y-76708000D03*
G04 #@! TO.P,J1,11*
G04 #@! TO.N,P11*
X64897000Y-76708000D03*
G04 #@! TO.P,J1,10*
G04 #@! TO.N,P10*
X67437000Y-74168000D03*
G04 #@! TO.P,J1,9*
G04 #@! TO.N,P09*
X64897000Y-74168000D03*
G04 #@! TO.P,J1,8*
G04 #@! TO.N,P08*
X67437000Y-71628000D03*
G04 #@! TO.P,J1,7*
G04 #@! TO.N,P07*
X64897000Y-71628000D03*
G04 #@! TO.P,J1,6*
G04 #@! TO.N,P06*
X67437000Y-69088000D03*
G04 #@! TO.P,J1,5*
G04 #@! TO.N,P05*
X64897000Y-69088000D03*
G04 #@! TO.P,J1,4*
G04 #@! TO.N,P04*
X67437000Y-66548000D03*
G04 #@! TO.P,J1,3*
G04 #@! TO.N,P03*
X64897000Y-66548000D03*
G04 #@! TO.P,J1,2*
G04 #@! TO.N,P02*
X67437000Y-64008000D03*
D11*
G04 #@! TO.P,J1,1*
G04 #@! TO.N,P01*
X64897000Y-64008000D03*
G04 #@! TD*
G04 #@! TO.P,J2,1*
G04 #@! TO.N,P37*
X70866000Y-113157000D03*
D10*
G04 #@! TO.P,J2,2*
G04 #@! TO.N,P38*
X70866000Y-110617000D03*
G04 #@! TO.P,J2,3*
G04 #@! TO.N,P39*
X73406000Y-113157000D03*
G04 #@! TO.P,J2,4*
G04 #@! TO.N,P40*
X73406000Y-110617000D03*
G04 #@! TO.P,J2,5*
G04 #@! TO.N,P41*
X75946000Y-113157000D03*
G04 #@! TO.P,J2,6*
G04 #@! TO.N,P42*
X75946000Y-110617000D03*
G04 #@! TO.P,J2,7*
G04 #@! TO.N,P43*
X78486000Y-113157000D03*
G04 #@! TO.P,J2,8*
G04 #@! TO.N,P44*
X78486000Y-110617000D03*
G04 #@! TO.P,J2,9*
G04 #@! TO.N,P45*
X81026000Y-113157000D03*
G04 #@! TO.P,J2,10*
G04 #@! TO.N,P46*
X81026000Y-110617000D03*
G04 #@! TO.P,J2,11*
G04 #@! TO.N,P47*
X83566000Y-113157000D03*
G04 #@! TO.P,J2,12*
G04 #@! TO.N,P48*
X83566000Y-110617000D03*
G04 #@! TO.P,J2,13*
G04 #@! TO.N,P49*
X86106000Y-113157000D03*
G04 #@! TO.P,J2,14*
G04 #@! TO.N,P50*
X86106000Y-110617000D03*
G04 #@! TO.P,J2,15*
G04 #@! TO.N,P51*
X88646000Y-113157000D03*
G04 #@! TO.P,J2,16*
G04 #@! TO.N,P52*
X88646000Y-110617000D03*
G04 #@! TO.P,J2,17*
G04 #@! TO.N,P53*
X91186000Y-113157000D03*
G04 #@! TO.P,J2,18*
G04 #@! TO.N,P54*
X91186000Y-110617000D03*
G04 #@! TO.P,J2,19*
G04 #@! TO.N,P55*
X93726000Y-113157000D03*
G04 #@! TO.P,J2,20*
G04 #@! TO.N,P56*
X93726000Y-110617000D03*
G04 #@! TO.P,J2,21*
G04 #@! TO.N,P57*
X96266000Y-113157000D03*
G04 #@! TO.P,J2,22*
G04 #@! TO.N,P58*
X96266000Y-110617000D03*
G04 #@! TO.P,J2,23*
G04 #@! TO.N,P59*
X98806000Y-113157000D03*
G04 #@! TO.P,J2,24*
G04 #@! TO.N,P60*
X98806000Y-110617000D03*
G04 #@! TO.P,J2,25*
G04 #@! TO.N,P61*
X101346000Y-113157000D03*
G04 #@! TO.P,J2,26*
G04 #@! TO.N,P62*
X101346000Y-110617000D03*
G04 #@! TO.P,J2,27*
G04 #@! TO.N,P63*
X103886000Y-113157000D03*
G04 #@! TO.P,J2,28*
G04 #@! TO.N,P64*
X103886000Y-110617000D03*
G04 #@! TO.P,J2,29*
G04 #@! TO.N,P65*
X106426000Y-113157000D03*
G04 #@! TO.P,J2,30*
G04 #@! TO.N,P66*
X106426000Y-110617000D03*
G04 #@! TO.P,J2,31*
G04 #@! TO.N,P67*
X108966000Y-113157000D03*
G04 #@! TO.P,J2,32*
G04 #@! TO.N,P68*
X108966000Y-110617000D03*
G04 #@! TO.P,J2,33*
G04 #@! TO.N,P69*
X111506000Y-113157000D03*
G04 #@! TO.P,J2,34*
G04 #@! TO.N,P70*
X111506000Y-110617000D03*
G04 #@! TO.P,J2,35*
G04 #@! TO.N,P71*
X114046000Y-113157000D03*
G04 #@! TO.P,J2,36*
G04 #@! TO.N,P72*
X114046000Y-110617000D03*
G04 #@! TD*
G04 #@! TO.P,J3,36*
G04 #@! TO.N,P108*
X117475000Y-64008000D03*
G04 #@! TO.P,J3,35*
G04 #@! TO.N,P107*
X120015000Y-64008000D03*
G04 #@! TO.P,J3,34*
G04 #@! TO.N,P106*
X117475000Y-66548000D03*
G04 #@! TO.P,J3,33*
G04 #@! TO.N,P105*
X120015000Y-66548000D03*
G04 #@! TO.P,J3,32*
G04 #@! TO.N,P104*
X117475000Y-69088000D03*
G04 #@! TO.P,J3,31*
G04 #@! TO.N,P103*
X120015000Y-69088000D03*
G04 #@! TO.P,J3,30*
G04 #@! TO.N,P102*
X117475000Y-71628000D03*
G04 #@! TO.P,J3,29*
G04 #@! TO.N,P101*
X120015000Y-71628000D03*
G04 #@! TO.P,J3,28*
G04 #@! TO.N,P100*
X117475000Y-74168000D03*
G04 #@! TO.P,J3,27*
G04 #@! TO.N,P99*
X120015000Y-74168000D03*
G04 #@! TO.P,J3,26*
G04 #@! TO.N,P98*
X117475000Y-76708000D03*
G04 #@! TO.P,J3,25*
G04 #@! TO.N,P97*
X120015000Y-76708000D03*
G04 #@! TO.P,J3,24*
G04 #@! TO.N,P96*
X117475000Y-79248000D03*
G04 #@! TO.P,J3,23*
G04 #@! TO.N,P95*
X120015000Y-79248000D03*
G04 #@! TO.P,J3,22*
G04 #@! TO.N,P94*
X117475000Y-81788000D03*
G04 #@! TO.P,J3,21*
G04 #@! TO.N,P93*
X120015000Y-81788000D03*
G04 #@! TO.P,J3,20*
G04 #@! TO.N,P92*
X117475000Y-84328000D03*
G04 #@! TO.P,J3,19*
G04 #@! TO.N,P91*
X120015000Y-84328000D03*
G04 #@! TO.P,J3,18*
G04 #@! TO.N,P90*
X117475000Y-86868000D03*
G04 #@! TO.P,J3,17*
G04 #@! TO.N,P89*
X120015000Y-86868000D03*
G04 #@! TO.P,J3,16*
G04 #@! TO.N,P88*
X117475000Y-89408000D03*
G04 #@! TO.P,J3,15*
G04 #@! TO.N,P87*
X120015000Y-89408000D03*
G04 #@! TO.P,J3,14*
G04 #@! TO.N,P86*
X117475000Y-91948000D03*
G04 #@! TO.P,J3,13*
G04 #@! TO.N,P85*
X120015000Y-91948000D03*
G04 #@! TO.P,J3,12*
G04 #@! TO.N,P84*
X117475000Y-94488000D03*
G04 #@! TO.P,J3,11*
G04 #@! TO.N,P83*
X120015000Y-94488000D03*
G04 #@! TO.P,J3,10*
G04 #@! TO.N,P82*
X117475000Y-97028000D03*
G04 #@! TO.P,J3,9*
G04 #@! TO.N,P81*
X120015000Y-97028000D03*
G04 #@! TO.P,J3,8*
G04 #@! TO.N,P80*
X117475000Y-99568000D03*
G04 #@! TO.P,J3,7*
G04 #@! TO.N,P79*
X120015000Y-99568000D03*
G04 #@! TO.P,J3,6*
G04 #@! TO.N,P78*
X117475000Y-102108000D03*
G04 #@! TO.P,J3,5*
G04 #@! TO.N,P77*
X120015000Y-102108000D03*
G04 #@! TO.P,J3,4*
G04 #@! TO.N,P76*
X117475000Y-104648000D03*
G04 #@! TO.P,J3,3*
G04 #@! TO.N,P75*
X120015000Y-104648000D03*
G04 #@! TO.P,J3,2*
G04 #@! TO.N,P74*
X117475000Y-107188000D03*
D11*
G04 #@! TO.P,J3,1*
G04 #@! TO.N,P73*
X120015000Y-107188000D03*
G04 #@! TD*
G04 #@! TO.P,J4,1*
G04 #@! TO.N,P109*
X114046000Y-58039000D03*
D10*
G04 #@! TO.P,J4,2*
G04 #@! TO.N,P110*
X114046000Y-60579000D03*
G04 #@! TO.P,J4,3*
G04 #@! TO.N,P111*
X111506000Y-58039000D03*
G04 #@! TO.P,J4,4*
G04 #@! TO.N,P112*
X111506000Y-60579000D03*
G04 #@! TO.P,J4,5*
G04 #@! TO.N,P113*
X108966000Y-58039000D03*
G04 #@! TO.P,J4,6*
G04 #@! TO.N,P114*
X108966000Y-60579000D03*
G04 #@! TO.P,J4,7*
G04 #@! TO.N,P115*
X106426000Y-58039000D03*
G04 #@! TO.P,J4,8*
G04 #@! TO.N,P116*
X106426000Y-60579000D03*
G04 #@! TO.P,J4,9*
G04 #@! TO.N,P117*
X103886000Y-58039000D03*
G04 #@! TO.P,J4,10*
G04 #@! TO.N,P118*
X103886000Y-60579000D03*
G04 #@! TO.P,J4,11*
G04 #@! TO.N,P119*
X101346000Y-58039000D03*
G04 #@! TO.P,J4,12*
G04 #@! TO.N,P120*
X101346000Y-60579000D03*
G04 #@! TO.P,J4,13*
G04 #@! TO.N,P121*
X98806000Y-58039000D03*
G04 #@! TO.P,J4,14*
G04 #@! TO.N,P122*
X98806000Y-60579000D03*
G04 #@! TO.P,J4,15*
G04 #@! TO.N,P123*
X96266000Y-58039000D03*
G04 #@! TO.P,J4,16*
G04 #@! TO.N,P124*
X96266000Y-60579000D03*
G04 #@! TO.P,J4,17*
G04 #@! TO.N,P125*
X93726000Y-58039000D03*
G04 #@! TO.P,J4,18*
G04 #@! TO.N,P126*
X93726000Y-60579000D03*
G04 #@! TO.P,J4,19*
G04 #@! TO.N,P127*
X91186000Y-58039000D03*
G04 #@! TO.P,J4,20*
G04 #@! TO.N,P128*
X91186000Y-60579000D03*
G04 #@! TO.P,J4,21*
G04 #@! TO.N,P129*
X88646000Y-58039000D03*
G04 #@! TO.P,J4,22*
G04 #@! TO.N,P130*
X88646000Y-60579000D03*
G04 #@! TO.P,J4,23*
G04 #@! TO.N,P131*
X86106000Y-58039000D03*
G04 #@! TO.P,J4,24*
G04 #@! TO.N,P132*
X86106000Y-60579000D03*
G04 #@! TO.P,J4,25*
G04 #@! TO.N,P133*
X83566000Y-58039000D03*
G04 #@! TO.P,J4,26*
G04 #@! TO.N,P134*
X83566000Y-60579000D03*
G04 #@! TO.P,J4,27*
G04 #@! TO.N,P135*
X81026000Y-58039000D03*
G04 #@! TO.P,J4,28*
G04 #@! TO.N,P136*
X81026000Y-60579000D03*
G04 #@! TO.P,J4,29*
G04 #@! TO.N,P137*
X78486000Y-58039000D03*
G04 #@! TO.P,J4,30*
G04 #@! TO.N,P138*
X78486000Y-60579000D03*
G04 #@! TO.P,J4,31*
G04 #@! TO.N,P139*
X75946000Y-58039000D03*
G04 #@! TO.P,J4,32*
G04 #@! TO.N,P140*
X75946000Y-60579000D03*
G04 #@! TO.P,J4,33*
G04 #@! TO.N,P141*
X73406000Y-58039000D03*
G04 #@! TO.P,J4,34*
G04 #@! TO.N,P142*
X73406000Y-60579000D03*
G04 #@! TO.P,J4,35*
G04 #@! TO.N,P143*
X70866000Y-58039000D03*
G04 #@! TO.P,J4,36*
G04 #@! TO.N,P144*
X70866000Y-60579000D03*
G04 #@! TD*
D12*
G04 #@! TO.P,U2,144*
G04 #@! TO.N,P144*
X83706000Y-74898000D03*
G04 #@! TO.P,U2,143*
G04 #@! TO.N,P143*
X84206000Y-74898000D03*
G04 #@! TO.P,U2,142*
G04 #@! TO.N,P142*
X84706000Y-74898000D03*
G04 #@! TO.P,U2,141*
G04 #@! TO.N,P141*
X85206000Y-74898000D03*
G04 #@! TO.P,U2,140*
G04 #@! TO.N,P140*
X85706000Y-74898000D03*
G04 #@! TO.P,U2,139*
G04 #@! TO.N,P139*
X86206000Y-74898000D03*
G04 #@! TO.P,U2,138*
G04 #@! TO.N,P138*
X86706000Y-74898000D03*
G04 #@! TO.P,U2,137*
G04 #@! TO.N,P137*
X87206000Y-74898000D03*
G04 #@! TO.P,U2,136*
G04 #@! TO.N,P136*
X87706000Y-74898000D03*
G04 #@! TO.P,U2,135*
G04 #@! TO.N,P135*
X88206000Y-74898000D03*
G04 #@! TO.P,U2,134*
G04 #@! TO.N,P134*
X88706000Y-74898000D03*
G04 #@! TO.P,U2,133*
G04 #@! TO.N,P133*
X89206000Y-74898000D03*
G04 #@! TO.P,U2,132*
G04 #@! TO.N,P132*
X89706000Y-74898000D03*
G04 #@! TO.P,U2,131*
G04 #@! TO.N,P131*
X90206000Y-74898000D03*
G04 #@! TO.P,U2,130*
G04 #@! TO.N,P130*
X90706000Y-74898000D03*
G04 #@! TO.P,U2,129*
G04 #@! TO.N,P129*
X91206000Y-74898000D03*
G04 #@! TO.P,U2,128*
G04 #@! TO.N,P128*
X91706000Y-74898000D03*
G04 #@! TO.P,U2,127*
G04 #@! TO.N,P127*
X92206000Y-74898000D03*
G04 #@! TO.P,U2,126*
G04 #@! TO.N,P126*
X92706000Y-74898000D03*
G04 #@! TO.P,U2,125*
G04 #@! TO.N,P125*
X93206000Y-74898000D03*
G04 #@! TO.P,U2,124*
G04 #@! TO.N,P124*
X93706000Y-74898000D03*
G04 #@! TO.P,U2,123*
G04 #@! TO.N,P123*
X94206000Y-74898000D03*
G04 #@! TO.P,U2,122*
G04 #@! TO.N,P122*
X94706000Y-74898000D03*
G04 #@! TO.P,U2,121*
G04 #@! TO.N,P121*
X95206000Y-74898000D03*
G04 #@! TO.P,U2,120*
G04 #@! TO.N,P120*
X95706000Y-74898000D03*
G04 #@! TO.P,U2,119*
G04 #@! TO.N,P119*
X96206000Y-74898000D03*
G04 #@! TO.P,U2,118*
G04 #@! TO.N,P118*
X96706000Y-74898000D03*
G04 #@! TO.P,U2,117*
G04 #@! TO.N,P117*
X97206000Y-74898000D03*
G04 #@! TO.P,U2,116*
G04 #@! TO.N,P116*
X97706000Y-74898000D03*
G04 #@! TO.P,U2,115*
G04 #@! TO.N,P115*
X98206000Y-74898000D03*
G04 #@! TO.P,U2,114*
G04 #@! TO.N,P114*
X98706000Y-74898000D03*
G04 #@! TO.P,U2,113*
G04 #@! TO.N,P113*
X99206000Y-74898000D03*
G04 #@! TO.P,U2,112*
G04 #@! TO.N,P112*
X99706000Y-74898000D03*
G04 #@! TO.P,U2,111*
G04 #@! TO.N,P111*
X100206000Y-74898000D03*
G04 #@! TO.P,U2,110*
G04 #@! TO.N,P110*
X100706000Y-74898000D03*
G04 #@! TO.P,U2,109*
G04 #@! TO.N,P109*
X101206000Y-74898000D03*
D13*
G04 #@! TO.P,U2,108*
G04 #@! TO.N,P108*
X103156000Y-76848000D03*
G04 #@! TO.P,U2,107*
G04 #@! TO.N,P107*
X103156000Y-77348000D03*
G04 #@! TO.P,U2,106*
G04 #@! TO.N,P106*
X103156000Y-77848000D03*
G04 #@! TO.P,U2,105*
G04 #@! TO.N,P105*
X103156000Y-78348000D03*
G04 #@! TO.P,U2,104*
G04 #@! TO.N,P104*
X103156000Y-78848000D03*
G04 #@! TO.P,U2,103*
G04 #@! TO.N,P103*
X103156000Y-79348000D03*
G04 #@! TO.P,U2,102*
G04 #@! TO.N,P102*
X103156000Y-79848000D03*
G04 #@! TO.P,U2,101*
G04 #@! TO.N,P101*
X103156000Y-80348000D03*
G04 #@! TO.P,U2,100*
G04 #@! TO.N,P100*
X103156000Y-80848000D03*
G04 #@! TO.P,U2,99*
G04 #@! TO.N,P99*
X103156000Y-81348000D03*
G04 #@! TO.P,U2,98*
G04 #@! TO.N,P98*
X103156000Y-81848000D03*
G04 #@! TO.P,U2,97*
G04 #@! TO.N,P97*
X103156000Y-82348000D03*
G04 #@! TO.P,U2,96*
G04 #@! TO.N,P96*
X103156000Y-82848000D03*
G04 #@! TO.P,U2,95*
G04 #@! TO.N,P95*
X103156000Y-83348000D03*
G04 #@! TO.P,U2,94*
G04 #@! TO.N,P94*
X103156000Y-83848000D03*
G04 #@! TO.P,U2,93*
G04 #@! TO.N,P93*
X103156000Y-84348000D03*
G04 #@! TO.P,U2,92*
G04 #@! TO.N,P92*
X103156000Y-84848000D03*
G04 #@! TO.P,U2,91*
G04 #@! TO.N,P91*
X103156000Y-85348000D03*
G04 #@! TO.P,U2,90*
G04 #@! TO.N,P90*
X103156000Y-85848000D03*
G04 #@! TO.P,U2,89*
G04 #@! TO.N,P89*
X103156000Y-86348000D03*
G04 #@! TO.P,U2,88*
G04 #@! TO.N,P88*
X103156000Y-86848000D03*
G04 #@! TO.P,U2,87*
G04 #@! TO.N,P87*
X103156000Y-87348000D03*
G04 #@! TO.P,U2,86*
G04 #@! TO.N,P86*
X103156000Y-87848000D03*
G04 #@! TO.P,U2,85*
G04 #@! TO.N,P85*
X103156000Y-88348000D03*
G04 #@! TO.P,U2,84*
G04 #@! TO.N,P84*
X103156000Y-88848000D03*
G04 #@! TO.P,U2,83*
G04 #@! TO.N,P83*
X103156000Y-89348000D03*
G04 #@! TO.P,U2,82*
G04 #@! TO.N,P82*
X103156000Y-89848000D03*
G04 #@! TO.P,U2,81*
G04 #@! TO.N,P81*
X103156000Y-90348000D03*
G04 #@! TO.P,U2,80*
G04 #@! TO.N,P80*
X103156000Y-90848000D03*
G04 #@! TO.P,U2,79*
G04 #@! TO.N,P79*
X103156000Y-91348000D03*
G04 #@! TO.P,U2,78*
G04 #@! TO.N,P78*
X103156000Y-91848000D03*
G04 #@! TO.P,U2,77*
G04 #@! TO.N,P77*
X103156000Y-92348000D03*
G04 #@! TO.P,U2,76*
G04 #@! TO.N,P76*
X103156000Y-92848000D03*
G04 #@! TO.P,U2,75*
G04 #@! TO.N,P75*
X103156000Y-93348000D03*
G04 #@! TO.P,U2,74*
G04 #@! TO.N,P74*
X103156000Y-93848000D03*
G04 #@! TO.P,U2,73*
G04 #@! TO.N,P73*
X103156000Y-94348000D03*
D12*
G04 #@! TO.P,U2,72*
G04 #@! TO.N,P72*
X101206000Y-96298000D03*
G04 #@! TO.P,U2,71*
G04 #@! TO.N,P71*
X100706000Y-96298000D03*
G04 #@! TO.P,U2,70*
G04 #@! TO.N,P70*
X100206000Y-96298000D03*
G04 #@! TO.P,U2,69*
G04 #@! TO.N,P69*
X99706000Y-96298000D03*
G04 #@! TO.P,U2,68*
G04 #@! TO.N,P68*
X99206000Y-96298000D03*
G04 #@! TO.P,U2,67*
G04 #@! TO.N,P67*
X98706000Y-96298000D03*
G04 #@! TO.P,U2,66*
G04 #@! TO.N,P66*
X98206000Y-96298000D03*
G04 #@! TO.P,U2,65*
G04 #@! TO.N,P65*
X97706000Y-96298000D03*
G04 #@! TO.P,U2,64*
G04 #@! TO.N,P64*
X97206000Y-96298000D03*
G04 #@! TO.P,U2,63*
G04 #@! TO.N,P63*
X96706000Y-96298000D03*
G04 #@! TO.P,U2,62*
G04 #@! TO.N,P62*
X96206000Y-96298000D03*
G04 #@! TO.P,U2,61*
G04 #@! TO.N,P61*
X95706000Y-96298000D03*
G04 #@! TO.P,U2,60*
G04 #@! TO.N,P60*
X95206000Y-96298000D03*
G04 #@! TO.P,U2,59*
G04 #@! TO.N,P59*
X94706000Y-96298000D03*
G04 #@! TO.P,U2,58*
G04 #@! TO.N,P58*
X94206000Y-96298000D03*
G04 #@! TO.P,U2,57*
G04 #@! TO.N,P57*
X93706000Y-96298000D03*
G04 #@! TO.P,U2,56*
G04 #@! TO.N,P56*
X93206000Y-96298000D03*
G04 #@! TO.P,U2,55*
G04 #@! TO.N,P55*
X92706000Y-96298000D03*
G04 #@! TO.P,U2,54*
G04 #@! TO.N,P54*
X92206000Y-96298000D03*
G04 #@! TO.P,U2,53*
G04 #@! TO.N,P53*
X91706000Y-96298000D03*
G04 #@! TO.P,U2,52*
G04 #@! TO.N,P52*
X91206000Y-96298000D03*
G04 #@! TO.P,U2,51*
G04 #@! TO.N,P51*
X90706000Y-96298000D03*
G04 #@! TO.P,U2,50*
G04 #@! TO.N,P50*
X90206000Y-96298000D03*
G04 #@! TO.P,U2,49*
G04 #@! TO.N,P49*
X89706000Y-96298000D03*
G04 #@! TO.P,U2,48*
G04 #@! TO.N,P48*
X89206000Y-96298000D03*
G04 #@! TO.P,U2,47*
G04 #@! TO.N,P47*
X88706000Y-96298000D03*
G04 #@! TO.P,U2,46*
G04 #@! TO.N,P46*
X88206000Y-96298000D03*
G04 #@! TO.P,U2,45*
G04 #@! TO.N,P45*
X87706000Y-96298000D03*
G04 #@! TO.P,U2,44*
G04 #@! TO.N,P44*
X87206000Y-96298000D03*
G04 #@! TO.P,U2,43*
G04 #@! TO.N,P43*
X86706000Y-96298000D03*
G04 #@! TO.P,U2,42*
G04 #@! TO.N,P42*
X86206000Y-96298000D03*
G04 #@! TO.P,U2,41*
G04 #@! TO.N,P41*
X85706000Y-96298000D03*
G04 #@! TO.P,U2,40*
G04 #@! TO.N,P40*
X85206000Y-96298000D03*
G04 #@! TO.P,U2,39*
G04 #@! TO.N,P39*
X84706000Y-96298000D03*
G04 #@! TO.P,U2,38*
G04 #@! TO.N,P38*
X84206000Y-96298000D03*
G04 #@! TO.P,U2,37*
G04 #@! TO.N,P37*
X83706000Y-96298000D03*
D13*
G04 #@! TO.P,U2,36*
G04 #@! TO.N,P36*
X81756000Y-94348000D03*
G04 #@! TO.P,U2,35*
G04 #@! TO.N,P35*
X81756000Y-93848000D03*
G04 #@! TO.P,U2,34*
G04 #@! TO.N,P34*
X81756000Y-93348000D03*
G04 #@! TO.P,U2,33*
G04 #@! TO.N,P33*
X81756000Y-92848000D03*
G04 #@! TO.P,U2,32*
G04 #@! TO.N,P32*
X81756000Y-92348000D03*
G04 #@! TO.P,U2,31*
G04 #@! TO.N,P31*
X81756000Y-91848000D03*
G04 #@! TO.P,U2,30*
G04 #@! TO.N,P30*
X81756000Y-91348000D03*
G04 #@! TO.P,U2,29*
G04 #@! TO.N,P29*
X81756000Y-90848000D03*
G04 #@! TO.P,U2,28*
G04 #@! TO.N,P28*
X81756000Y-90348000D03*
G04 #@! TO.P,U2,27*
G04 #@! TO.N,P27*
X81756000Y-89848000D03*
G04 #@! TO.P,U2,26*
G04 #@! TO.N,P26*
X81756000Y-89348000D03*
G04 #@! TO.P,U2,25*
G04 #@! TO.N,P25*
X81756000Y-88848000D03*
G04 #@! TO.P,U2,24*
G04 #@! TO.N,P24*
X81756000Y-88348000D03*
G04 #@! TO.P,U2,23*
G04 #@! TO.N,P23*
X81756000Y-87848000D03*
G04 #@! TO.P,U2,22*
G04 #@! TO.N,P22*
X81756000Y-87348000D03*
G04 #@! TO.P,U2,21*
G04 #@! TO.N,P21*
X81756000Y-86848000D03*
G04 #@! TO.P,U2,20*
G04 #@! TO.N,P20*
X81756000Y-86348000D03*
G04 #@! TO.P,U2,19*
G04 #@! TO.N,P19*
X81756000Y-85848000D03*
G04 #@! TO.P,U2,18*
G04 #@! TO.N,P18*
X81756000Y-85348000D03*
G04 #@! TO.P,U2,17*
G04 #@! TO.N,P17*
X81756000Y-84848000D03*
G04 #@! TO.P,U2,16*
G04 #@! TO.N,P16*
X81756000Y-84348000D03*
G04 #@! TO.P,U2,15*
G04 #@! TO.N,P15*
X81756000Y-83848000D03*
G04 #@! TO.P,U2,14*
G04 #@! TO.N,P14*
X81756000Y-83348000D03*
G04 #@! TO.P,U2,13*
G04 #@! TO.N,P13*
X81756000Y-82848000D03*
G04 #@! TO.P,U2,12*
G04 #@! TO.N,P12*
X81756000Y-82348000D03*
G04 #@! TO.P,U2,11*
G04 #@! TO.N,P11*
X81756000Y-81848000D03*
G04 #@! TO.P,U2,10*
G04 #@! TO.N,P10*
X81756000Y-81348000D03*
G04 #@! TO.P,U2,9*
G04 #@! TO.N,P09*
X81756000Y-80848000D03*
G04 #@! TO.P,U2,8*
G04 #@! TO.N,P08*
X81756000Y-80348000D03*
G04 #@! TO.P,U2,7*
G04 #@! TO.N,P07*
X81756000Y-79848000D03*
G04 #@! TO.P,U2,6*
G04 #@! TO.N,P06*
X81756000Y-79348000D03*
G04 #@! TO.P,U2,5*
G04 #@! TO.N,P05*
X81756000Y-78848000D03*
G04 #@! TO.P,U2,4*
G04 #@! TO.N,P04*
X81756000Y-78348000D03*
G04 #@! TO.P,U2,3*
G04 #@! TO.N,P03*
X81756000Y-77848000D03*
G04 #@! TO.P,U2,2*
G04 #@! TO.N,P02*
X81756000Y-77348000D03*
G04 #@! TO.P,U2,1*
G04 #@! TO.N,P01*
X81756000Y-76848000D03*
G04 #@! TD*
D14*
G04 #@! TO.P,REF\002A\002A,1*
G04 #@! TO.N,N/C*
X64897000Y-58039000D03*
G04 #@! TD*
G04 #@! TO.P,REF\002A\002A,1*
G04 #@! TO.N,N/C*
X64897000Y-113157000D03*
G04 #@! TD*
G04 #@! TO.P,REF\002A\002A,1*
G04 #@! TO.N,N/C*
X120015000Y-113157000D03*
G04 #@! TD*
G04 #@! TO.P,REF\002A\002A,1*
G04 #@! TO.N,N/C*
X120015000Y-58039000D03*
G04 #@! TD*
D15*
G04 #@! TO.N,P36*
X81756000Y-94752000D02*
X81756000Y-94348000D01*
X69320000Y-107188000D02*
X81756000Y-94752000D01*
X67437000Y-107188000D02*
X69320000Y-107188000D01*
G04 #@! TO.N,P35*
X68164999Y-105825001D02*
X80164999Y-93825001D01*
X64897000Y-107188000D02*
X66259999Y-105825001D01*
X66259999Y-105825001D02*
X68164999Y-105825001D01*
X80727000Y-93848000D02*
X81756000Y-93848000D01*
X80187998Y-93848000D02*
X80727000Y-93848000D01*
X80164999Y-93825001D02*
X80187998Y-93848000D01*
G04 #@! TO.N,P34*
X78737000Y-93348000D02*
X67437000Y-104648000D01*
X81756000Y-93348000D02*
X78737000Y-93348000D01*
G04 #@! TO.N,P33*
X81733001Y-92825001D02*
X81756000Y-92848000D01*
X78497999Y-92825001D02*
X81733001Y-92825001D01*
X68037999Y-103285001D02*
X78497999Y-92825001D01*
X66259999Y-103285001D02*
X68037999Y-103285001D01*
X64897000Y-104648000D02*
X66259999Y-103285001D01*
G04 #@! TO.N,P32*
X77197000Y-92348000D02*
X67437000Y-102108000D01*
X81756000Y-92348000D02*
X77197000Y-92348000D01*
G04 #@! TO.N,P31*
X80727000Y-91848000D02*
X81756000Y-91848000D01*
X77054934Y-91848000D02*
X80727000Y-91848000D01*
X67971935Y-100930999D02*
X77054934Y-91848000D01*
X66074001Y-100930999D02*
X67971935Y-100930999D01*
X64897000Y-102108000D02*
X66074001Y-100930999D01*
G04 #@! TO.N,P30*
X75657000Y-91348000D02*
X67437000Y-99568000D01*
X81756000Y-91348000D02*
X75657000Y-91348000D01*
G04 #@! TO.N,P29*
X65746999Y-98718001D02*
X64897000Y-99568000D01*
X66074001Y-98390999D02*
X65746999Y-98718001D01*
X67815963Y-98390999D02*
X66074001Y-98390999D01*
X75358962Y-90848000D02*
X67815963Y-98390999D01*
X81756000Y-90848000D02*
X75358962Y-90848000D01*
G04 #@! TO.N,P28*
X74117000Y-90348000D02*
X81756000Y-90348000D01*
X67437000Y-97028000D02*
X74117000Y-90348000D01*
G04 #@! TO.N,P27*
X65746999Y-96178001D02*
X64897000Y-97028000D01*
X66074001Y-95850999D02*
X65746999Y-96178001D01*
X67815963Y-95850999D02*
X66074001Y-95850999D01*
X73818962Y-89848000D02*
X67815963Y-95850999D01*
X81756000Y-89848000D02*
X73818962Y-89848000D01*
G04 #@! TO.N,P26*
X72577000Y-89348000D02*
X81756000Y-89348000D01*
X67437000Y-94488000D02*
X72577000Y-89348000D01*
G04 #@! TO.N,P25*
X65746999Y-93638001D02*
X64897000Y-94488000D01*
X66074001Y-93310999D02*
X65746999Y-93638001D01*
X67815963Y-93310999D02*
X66074001Y-93310999D01*
X72278962Y-88848000D02*
X67815963Y-93310999D01*
X81756000Y-88848000D02*
X72278962Y-88848000D01*
G04 #@! TO.N,P24*
X71037000Y-88348000D02*
X81756000Y-88348000D01*
X67437000Y-91948000D02*
X71037000Y-88348000D01*
G04 #@! TO.N,P23*
X65746999Y-91098001D02*
X64897000Y-91948000D01*
X66074001Y-90770999D02*
X65746999Y-91098001D01*
X67815963Y-90770999D02*
X66074001Y-90770999D01*
X70738962Y-87848000D02*
X67815963Y-90770999D01*
X81756000Y-87848000D02*
X70738962Y-87848000D01*
G04 #@! TO.N,P22*
X69497000Y-87348000D02*
X81756000Y-87348000D01*
X67437000Y-89408000D02*
X69497000Y-87348000D01*
G04 #@! TO.N,P21*
X65746999Y-88558001D02*
X64897000Y-89408000D01*
X66074001Y-88230999D02*
X65746999Y-88558001D01*
X67815963Y-88230999D02*
X66074001Y-88230999D01*
X69198962Y-86848000D02*
X67815963Y-88230999D01*
X81756000Y-86848000D02*
X69198962Y-86848000D01*
G04 #@! TO.N,P20*
X67957000Y-86348000D02*
X67437000Y-86868000D01*
X81756000Y-86348000D02*
X67957000Y-86348000D01*
G04 #@! TO.N,P19*
X68314934Y-85848000D02*
X81756000Y-85848000D01*
X67971935Y-85505001D02*
X68314934Y-85848000D01*
X64897000Y-86868000D02*
X66259999Y-85505001D01*
X66259999Y-85505001D02*
X67971935Y-85505001D01*
G04 #@! TO.N,P18*
X68457000Y-85348000D02*
X81756000Y-85348000D01*
X67437000Y-84328000D02*
X68457000Y-85348000D01*
G04 #@! TO.N,P17*
X65746999Y-83478001D02*
X64897000Y-84328000D01*
X66074001Y-83150999D02*
X65746999Y-83478001D01*
X68001961Y-83150999D02*
X66074001Y-83150999D01*
X69698962Y-84848000D02*
X68001961Y-83150999D01*
X81756000Y-84848000D02*
X69698962Y-84848000D01*
G04 #@! TO.N,P16*
X69997000Y-84348000D02*
X81756000Y-84348000D01*
X67437000Y-81788000D02*
X69997000Y-84348000D01*
G04 #@! TO.N,P15*
X80727000Y-83848000D02*
X81756000Y-83848000D01*
X71394934Y-83848000D02*
X80727000Y-83848000D01*
X68157933Y-80610999D02*
X71394934Y-83848000D01*
X66074001Y-80610999D02*
X68157933Y-80610999D01*
X64897000Y-81788000D02*
X66074001Y-80610999D01*
G04 #@! TO.N,P14*
X71537000Y-83348000D02*
X67437000Y-79248000D01*
X81756000Y-83348000D02*
X71537000Y-83348000D01*
G04 #@! TO.N,P13*
X80727000Y-82848000D02*
X81756000Y-82848000D01*
X72934934Y-82848000D02*
X80727000Y-82848000D01*
X68157933Y-78070999D02*
X72934934Y-82848000D01*
X66074001Y-78070999D02*
X68157933Y-78070999D01*
X64897000Y-79248000D02*
X66074001Y-78070999D01*
G04 #@! TO.N,P12*
X73077000Y-82348000D02*
X67437000Y-76708000D01*
X81756000Y-82348000D02*
X73077000Y-82348000D01*
G04 #@! TO.N,P11*
X80727000Y-81848000D02*
X81756000Y-81848000D01*
X74474934Y-81848000D02*
X80727000Y-81848000D01*
X68157933Y-75530999D02*
X74474934Y-81848000D01*
X66074001Y-75530999D02*
X68157933Y-75530999D01*
X64897000Y-76708000D02*
X66074001Y-75530999D01*
G04 #@! TO.N,P10*
X74617000Y-81348000D02*
X67437000Y-74168000D01*
X81756000Y-81348000D02*
X74617000Y-81348000D01*
G04 #@! TO.N,P09*
X80727000Y-80848000D02*
X81756000Y-80848000D01*
X76014934Y-80848000D02*
X80727000Y-80848000D01*
X68157933Y-72990999D02*
X76014934Y-80848000D01*
X66074001Y-72990999D02*
X68157933Y-72990999D01*
X64897000Y-74168000D02*
X66074001Y-72990999D01*
G04 #@! TO.N,P08*
X76157000Y-80348000D02*
X81756000Y-80348000D01*
X67437000Y-71628000D02*
X76157000Y-80348000D01*
G04 #@! TO.N,P07*
X65746999Y-70778001D02*
X64897000Y-71628000D01*
X66074001Y-70450999D02*
X65746999Y-70778001D01*
X68001961Y-70450999D02*
X66074001Y-70450999D01*
X77398962Y-79848000D02*
X68001961Y-70450999D01*
X81756000Y-79848000D02*
X77398962Y-79848000D01*
G04 #@! TO.N,P06*
X77697000Y-79348000D02*
X67437000Y-69088000D01*
X81756000Y-79348000D02*
X77697000Y-79348000D01*
G04 #@! TO.N,P05*
X80727000Y-78848000D02*
X81756000Y-78848000D01*
X79090408Y-78848000D02*
X80727000Y-78848000D01*
X68150207Y-67907799D02*
X79090408Y-78848000D01*
X66077201Y-67907799D02*
X68150207Y-67907799D01*
X64897000Y-69088000D02*
X66077201Y-67907799D01*
G04 #@! TO.N,P04*
X79217201Y-78328201D02*
X80716839Y-78328201D01*
X67437000Y-66548000D02*
X79217201Y-78328201D01*
X80727000Y-78348000D02*
X81756000Y-78348000D01*
X80716839Y-78337839D02*
X80727000Y-78348000D01*
X80716839Y-78328201D02*
X80716839Y-78337839D01*
G04 #@! TO.N,P03*
X65746999Y-65698001D02*
X64897000Y-66548000D01*
X66077201Y-65367799D02*
X65746999Y-65698001D01*
X68003497Y-65367799D02*
X66077201Y-65367799D01*
X80483698Y-77848000D02*
X68003497Y-65367799D01*
X81756000Y-77848000D02*
X80483698Y-77848000D01*
G04 #@! TO.N,P02*
X80777000Y-77348000D02*
X81756000Y-77348000D01*
X67437000Y-64008000D02*
X80777000Y-77348000D01*
G04 #@! TO.N,P01*
X81756000Y-76444000D02*
X81756000Y-76848000D01*
X68139799Y-62827799D02*
X81756000Y-76444000D01*
X64973201Y-62827799D02*
X68139799Y-62827799D01*
X64897000Y-62904000D02*
X64973201Y-62827799D01*
X64897000Y-64008000D02*
X64897000Y-62904000D01*
G04 #@! TO.N,P37*
X83302000Y-96298000D02*
X83706000Y-96298000D01*
X69688999Y-109911001D02*
X83302000Y-96298000D01*
X69688999Y-111979999D02*
X69688999Y-109911001D01*
X70866000Y-113157000D02*
X69688999Y-111979999D01*
G04 #@! TO.N,P38*
X84206000Y-97277000D02*
X84206000Y-96298000D01*
X70866000Y-110617000D02*
X84206000Y-97277000D01*
G04 #@! TO.N,P39*
X72556001Y-112307001D02*
X73406000Y-113157000D01*
X72228999Y-111979999D02*
X72556001Y-112307001D01*
X72228999Y-110052039D02*
X72228999Y-111979999D01*
X84706000Y-97575038D02*
X72228999Y-110052039D01*
X84706000Y-96298000D02*
X84706000Y-97575038D01*
G04 #@! TO.N,P40*
X85206000Y-98817000D02*
X85206000Y-96298000D01*
X73406000Y-110617000D02*
X85206000Y-98817000D01*
G04 #@! TO.N,P41*
X75096001Y-112307001D02*
X75946000Y-113157000D01*
X74768999Y-111979999D02*
X75096001Y-112307001D01*
X74768999Y-109896067D02*
X74768999Y-111979999D01*
X85706000Y-98959066D02*
X74768999Y-109896067D01*
X85706000Y-96298000D02*
X85706000Y-98959066D01*
G04 #@! TO.N,P42*
X86206000Y-100357000D02*
X86206000Y-96298000D01*
X75946000Y-110617000D02*
X86206000Y-100357000D01*
G04 #@! TO.N,P43*
X77636001Y-112307001D02*
X78486000Y-113157000D01*
X77308999Y-111979999D02*
X77636001Y-112307001D01*
X77308999Y-110052039D02*
X77308999Y-111979999D01*
X86706000Y-100655038D02*
X77308999Y-110052039D01*
X86706000Y-96298000D02*
X86706000Y-100655038D01*
G04 #@! TO.N,P44*
X87206000Y-101897000D02*
X87206000Y-96298000D01*
X78486000Y-110617000D02*
X87206000Y-101897000D01*
G04 #@! TO.N,P45*
X80176001Y-112307001D02*
X81026000Y-113157000D01*
X79848999Y-111979999D02*
X80176001Y-112307001D01*
X79848999Y-110052039D02*
X79848999Y-111979999D01*
X87706000Y-102195038D02*
X79848999Y-110052039D01*
X87706000Y-96298000D02*
X87706000Y-102195038D01*
G04 #@! TO.N,P46*
X88206000Y-103437000D02*
X88206000Y-96298000D01*
X81026000Y-110617000D02*
X88206000Y-103437000D01*
G04 #@! TO.N,P47*
X82716001Y-112307001D02*
X83566000Y-113157000D01*
X82388999Y-111979999D02*
X82716001Y-112307001D01*
X82388999Y-109896067D02*
X82388999Y-111979999D01*
X88706000Y-103579066D02*
X82388999Y-109896067D01*
X88706000Y-96298000D02*
X88706000Y-103579066D01*
G04 #@! TO.N,P48*
X89206000Y-104977000D02*
X89206000Y-96298000D01*
X83566000Y-110617000D02*
X89206000Y-104977000D01*
G04 #@! TO.N,P49*
X85256001Y-112307001D02*
X86106000Y-113157000D01*
X84928999Y-111979999D02*
X85256001Y-112307001D01*
X84928999Y-110052039D02*
X84928999Y-111979999D01*
X89706000Y-105275038D02*
X84928999Y-110052039D01*
X89706000Y-96298000D02*
X89706000Y-105275038D01*
G04 #@! TO.N,P50*
X90183001Y-96320999D02*
X90206000Y-96298000D01*
X90183001Y-106539999D02*
X90183001Y-96320999D01*
X86106000Y-110617000D02*
X90183001Y-106539999D01*
G04 #@! TO.N,P51*
X87796001Y-112307001D02*
X88646000Y-113157000D01*
X87468999Y-111979999D02*
X87796001Y-112307001D01*
X87468999Y-109896067D02*
X87468999Y-111979999D01*
X90706000Y-106659066D02*
X87468999Y-109896067D01*
X90706000Y-96298000D02*
X90706000Y-106659066D01*
G04 #@! TO.N,P52*
X91206000Y-108057000D02*
X91206000Y-96298000D01*
X88646000Y-110617000D02*
X91206000Y-108057000D01*
G04 #@! TO.N,P53*
X90336001Y-112307001D02*
X91186000Y-113157000D01*
X90008999Y-111979999D02*
X90336001Y-112307001D01*
X90008999Y-109896068D02*
X90008999Y-111979999D01*
X91706000Y-108199067D02*
X90008999Y-109896068D01*
X91706000Y-96298000D02*
X91706000Y-108199067D01*
G04 #@! TO.N,P54*
X92206000Y-109597000D02*
X92206000Y-96298000D01*
X91186000Y-110617000D02*
X92206000Y-109597000D01*
G04 #@! TO.N,P55*
X92706000Y-97327000D02*
X92706000Y-96298000D01*
X92706000Y-109739066D02*
X92706000Y-97327000D01*
X92363001Y-110082065D02*
X92706000Y-109739066D01*
X92363001Y-111794001D02*
X92363001Y-110082065D01*
X93726000Y-113157000D02*
X92363001Y-111794001D01*
G04 #@! TO.N,P56*
X93206000Y-110097000D02*
X93726000Y-110617000D01*
X93206000Y-96298000D02*
X93206000Y-110097000D01*
G04 #@! TO.N,P57*
X93706000Y-97327000D02*
X93706000Y-96298000D01*
X93706000Y-108699066D02*
X93706000Y-97327000D01*
X94903001Y-109896067D02*
X93706000Y-108699066D01*
X94903001Y-111794001D02*
X94903001Y-109896067D01*
X96266000Y-113157000D02*
X94903001Y-111794001D01*
G04 #@! TO.N,P58*
X94206000Y-108557000D02*
X96266000Y-110617000D01*
X94206000Y-96298000D02*
X94206000Y-108557000D01*
G04 #@! TO.N,P59*
X94706000Y-97327000D02*
X94706000Y-96298000D01*
X94706000Y-107315038D02*
X94706000Y-97327000D01*
X97443001Y-110052039D02*
X94706000Y-107315038D01*
X97443001Y-111794001D02*
X97443001Y-110052039D01*
X98806000Y-113157000D02*
X97443001Y-111794001D01*
G04 #@! TO.N,P60*
X95206000Y-107017000D02*
X95206000Y-96298000D01*
X98806000Y-110617000D02*
X95206000Y-107017000D01*
G04 #@! TO.N,P61*
X95683001Y-96320999D02*
X95706000Y-96298000D01*
X95683001Y-105752039D02*
X95683001Y-96320999D01*
X100168999Y-110238037D02*
X95683001Y-105752039D01*
X100168999Y-111979999D02*
X100168999Y-110238037D01*
X101346000Y-113157000D02*
X100168999Y-111979999D01*
G04 #@! TO.N,P62*
X96206000Y-105477000D02*
X101346000Y-110617000D01*
X96206000Y-96298000D02*
X96206000Y-105477000D01*
G04 #@! TO.N,P63*
X96683001Y-96320999D02*
X96706000Y-96298000D01*
X96683001Y-104056067D02*
X96683001Y-96320999D01*
X102523001Y-109896067D02*
X96683001Y-104056067D01*
X102523001Y-111794001D02*
X102523001Y-109896067D01*
X103886000Y-113157000D02*
X102523001Y-111794001D01*
G04 #@! TO.N,P64*
X97206000Y-103937000D02*
X97206000Y-96298000D01*
X103886000Y-110617000D02*
X97206000Y-103937000D01*
G04 #@! TO.N,P65*
X97706000Y-97327000D02*
X97706000Y-96298000D01*
X97706000Y-102539066D02*
X97706000Y-97327000D01*
X105063001Y-109896067D02*
X97706000Y-102539066D01*
X105063001Y-111794001D02*
X105063001Y-109896067D01*
X106426000Y-113157000D02*
X105063001Y-111794001D01*
G04 #@! TO.N,P66*
X98206000Y-102397000D02*
X98206000Y-96298000D01*
X106426000Y-110617000D02*
X98206000Y-102397000D01*
G04 #@! TO.N,P67*
X108116001Y-112307001D02*
X108966000Y-113157000D01*
X107788999Y-111979999D02*
X108116001Y-112307001D01*
X107788999Y-110238037D02*
X107788999Y-111979999D01*
X98706000Y-101155038D02*
X107788999Y-110238037D01*
X98706000Y-96298000D02*
X98706000Y-101155038D01*
G04 #@! TO.N,P68*
X99206000Y-100857000D02*
X99206000Y-96298000D01*
X108966000Y-110617000D02*
X99206000Y-100857000D01*
G04 #@! TO.N,P69*
X110656001Y-112307001D02*
X111506000Y-113157000D01*
X110328999Y-111979999D02*
X110656001Y-112307001D01*
X110328999Y-110238037D02*
X110328999Y-111979999D01*
X99706000Y-99615038D02*
X110328999Y-110238037D01*
X99706000Y-96298000D02*
X99706000Y-99615038D01*
G04 #@! TO.N,P70*
X100206000Y-99317000D02*
X100206000Y-96298000D01*
X111506000Y-110617000D02*
X100206000Y-99317000D01*
G04 #@! TO.N,P71*
X113196001Y-112307001D02*
X114046000Y-113157000D01*
X112868999Y-111979999D02*
X113196001Y-112307001D01*
X112868999Y-109489999D02*
X112868999Y-111979999D01*
X100706000Y-97327000D02*
X112868999Y-109489999D01*
X100706000Y-96298000D02*
X100706000Y-97327000D01*
G04 #@! TO.N,P72*
X114046000Y-108734000D02*
X101578000Y-96266000D01*
X114046000Y-110617000D02*
X114046000Y-108734000D01*
X101206000Y-96279000D02*
X101206000Y-96298000D01*
X101219000Y-96266000D02*
X101206000Y-96279000D01*
X101578000Y-96266000D02*
X101219000Y-96266000D01*
G04 #@! TO.N,P108*
X116272919Y-64008000D02*
X117475000Y-64008000D01*
X115592000Y-64008000D02*
X116272919Y-64008000D01*
X103156000Y-76444000D02*
X115592000Y-64008000D01*
X103156000Y-76848000D02*
X103156000Y-76444000D01*
G04 #@! TO.N,P107*
X104185000Y-77348000D02*
X103156000Y-77348000D01*
X104933038Y-77348000D02*
X104185000Y-77348000D01*
X116910039Y-65370999D02*
X104933038Y-77348000D01*
X118652001Y-65370999D02*
X116910039Y-65370999D01*
X120015000Y-64008000D02*
X118652001Y-65370999D01*
G04 #@! TO.N,P106*
X106175000Y-77848000D02*
X117475000Y-66548000D01*
X103156000Y-77848000D02*
X106175000Y-77848000D01*
G04 #@! TO.N,P105*
X104185000Y-78348000D02*
X103156000Y-78348000D01*
X106473038Y-78348000D02*
X104185000Y-78348000D01*
X116910039Y-67910999D02*
X106473038Y-78348000D01*
X117853963Y-67910999D02*
X116910039Y-67910999D01*
X118366963Y-67397999D02*
X117853963Y-67910999D01*
X119165001Y-67397999D02*
X118366963Y-67397999D01*
X120015000Y-66548000D02*
X119165001Y-67397999D01*
G04 #@! TO.N,P104*
X107715000Y-78848000D02*
X117475000Y-69088000D01*
X103156000Y-78848000D02*
X107715000Y-78848000D01*
G04 #@! TO.N,P103*
X103178999Y-79325001D02*
X103156000Y-79348000D01*
X107880065Y-79325001D02*
X103178999Y-79325001D01*
X116940065Y-70265001D02*
X107880065Y-79325001D01*
X118837999Y-70265001D02*
X116940065Y-70265001D01*
X120015000Y-69088000D02*
X118837999Y-70265001D01*
G04 #@! TO.N,P102*
X109255000Y-79848000D02*
X117475000Y-71628000D01*
X103156000Y-79848000D02*
X109255000Y-79848000D01*
G04 #@! TO.N,P101*
X104185000Y-80348000D02*
X103156000Y-80348000D01*
X109553038Y-80348000D02*
X104185000Y-80348000D01*
X117096037Y-72805001D02*
X109553038Y-80348000D01*
X118837999Y-72805001D02*
X117096037Y-72805001D01*
X120015000Y-71628000D02*
X118837999Y-72805001D01*
G04 #@! TO.N,P100*
X110795000Y-80848000D02*
X117475000Y-74168000D01*
X103156000Y-80848000D02*
X110795000Y-80848000D01*
G04 #@! TO.N,P99*
X103178999Y-81325001D02*
X103156000Y-81348000D01*
X110960065Y-81325001D02*
X103178999Y-81325001D01*
X116940065Y-75345001D02*
X110960065Y-81325001D01*
X118837999Y-75345001D02*
X116940065Y-75345001D01*
X120015000Y-74168000D02*
X118837999Y-75345001D01*
G04 #@! TO.N,P98*
X112335000Y-81848000D02*
X117475000Y-76708000D01*
X103156000Y-81848000D02*
X112335000Y-81848000D01*
G04 #@! TO.N,P97*
X104185000Y-82348000D02*
X103156000Y-82348000D01*
X112633038Y-82348000D02*
X104185000Y-82348000D01*
X117096037Y-77885001D02*
X112633038Y-82348000D01*
X118837999Y-77885001D02*
X117096037Y-77885001D01*
X120015000Y-76708000D02*
X118837999Y-77885001D01*
G04 #@! TO.N,P96*
X113875000Y-82848000D02*
X117475000Y-79248000D01*
X103156000Y-82848000D02*
X113875000Y-82848000D01*
G04 #@! TO.N,P95*
X103178999Y-83325001D02*
X103156000Y-83348000D01*
X114040065Y-83325001D02*
X103178999Y-83325001D01*
X116940065Y-80425001D02*
X114040065Y-83325001D01*
X118837999Y-80425001D02*
X116940065Y-80425001D01*
X120015000Y-79248000D02*
X118837999Y-80425001D01*
G04 #@! TO.N,P94*
X115415000Y-83848000D02*
X117475000Y-81788000D01*
X103156000Y-83848000D02*
X115415000Y-83848000D01*
G04 #@! TO.N,P93*
X104185000Y-84348000D02*
X103156000Y-84348000D01*
X115713038Y-84348000D02*
X104185000Y-84348000D01*
X116910039Y-83150999D02*
X115713038Y-84348000D01*
X118652001Y-83150999D02*
X116910039Y-83150999D01*
X120015000Y-81788000D02*
X118652001Y-83150999D01*
G04 #@! TO.N,P92*
X116955000Y-84848000D02*
X117475000Y-84328000D01*
X103156000Y-84848000D02*
X116955000Y-84848000D01*
G04 #@! TO.N,P91*
X104185000Y-85348000D02*
X103156000Y-85348000D01*
X116597067Y-85348000D02*
X104185000Y-85348000D01*
X116754068Y-85505001D02*
X116597067Y-85348000D01*
X118837999Y-85505001D02*
X116754068Y-85505001D01*
X120015000Y-84328000D02*
X118837999Y-85505001D01*
G04 #@! TO.N,P90*
X116455000Y-85848000D02*
X117475000Y-86868000D01*
X103156000Y-85848000D02*
X116455000Y-85848000D01*
G04 #@! TO.N,P89*
X104185000Y-86348000D02*
X103156000Y-86348000D01*
X115177000Y-86348000D02*
X104185000Y-86348000D01*
X116874001Y-88045001D02*
X115177000Y-86348000D01*
X118837999Y-88045001D02*
X116874001Y-88045001D01*
X120015000Y-86868000D02*
X118837999Y-88045001D01*
G04 #@! TO.N,P88*
X114915000Y-86848000D02*
X117475000Y-89408000D01*
X103156000Y-86848000D02*
X114915000Y-86848000D01*
G04 #@! TO.N,P87*
X104185000Y-87348000D02*
X103156000Y-87348000D01*
X113517066Y-87348000D02*
X104185000Y-87348000D01*
X116754067Y-90585001D02*
X113517066Y-87348000D01*
X118837999Y-90585001D02*
X116754067Y-90585001D01*
X120015000Y-89408000D02*
X118837999Y-90585001D01*
G04 #@! TO.N,P86*
X113375000Y-87848000D02*
X117475000Y-91948000D01*
X103156000Y-87848000D02*
X113375000Y-87848000D01*
G04 #@! TO.N,P85*
X104185000Y-88348000D02*
X103156000Y-88348000D01*
X112133038Y-88348000D02*
X104185000Y-88348000D01*
X116910039Y-93125001D02*
X112133038Y-88348000D01*
X118837999Y-93125001D02*
X116910039Y-93125001D01*
X120015000Y-91948000D02*
X118837999Y-93125001D01*
G04 #@! TO.N,P84*
X111835000Y-88848000D02*
X117475000Y-94488000D01*
X103156000Y-88848000D02*
X111835000Y-88848000D01*
G04 #@! TO.N,P83*
X103178999Y-89325001D02*
X103156000Y-89348000D01*
X110534001Y-89325001D02*
X103178999Y-89325001D01*
X116874001Y-95665001D02*
X110534001Y-89325001D01*
X118837999Y-95665001D02*
X116874001Y-95665001D01*
X120015000Y-94488000D02*
X118837999Y-95665001D01*
G04 #@! TO.N,P82*
X116625001Y-96178001D02*
X117475000Y-97028000D01*
X110317991Y-89870991D02*
X116625001Y-96178001D01*
X103976991Y-89870991D02*
X110317991Y-89870991D01*
X103954000Y-89848000D02*
X103976991Y-89870991D01*
X103156000Y-89848000D02*
X103954000Y-89848000D01*
G04 #@! TO.N,P81*
X103178999Y-90325001D02*
X103156000Y-90348000D01*
X109030039Y-90325001D02*
X103178999Y-90325001D01*
X116910039Y-98205001D02*
X109030039Y-90325001D01*
X118837999Y-98205001D02*
X116910039Y-98205001D01*
X120015000Y-97028000D02*
X118837999Y-98205001D01*
G04 #@! TO.N,P80*
X108755000Y-90848000D02*
X117475000Y-99568000D01*
X103156000Y-90848000D02*
X108755000Y-90848000D01*
G04 #@! TO.N,P79*
X104185000Y-91348000D02*
X103156000Y-91348000D01*
X107357066Y-91348000D02*
X104185000Y-91348000D01*
X116754067Y-100745001D02*
X107357066Y-91348000D01*
X118837999Y-100745001D02*
X116754067Y-100745001D01*
X120015000Y-99568000D02*
X118837999Y-100745001D01*
G04 #@! TO.N,P78*
X107215000Y-91848000D02*
X117475000Y-102108000D01*
X103156000Y-91848000D02*
X107215000Y-91848000D01*
G04 #@! TO.N,P77*
X103178999Y-92325001D02*
X103156000Y-92348000D01*
X105914001Y-92325001D02*
X103178999Y-92325001D01*
X116874001Y-103285001D02*
X105914001Y-92325001D01*
X118837999Y-103285001D02*
X116874001Y-103285001D01*
X120015000Y-102108000D02*
X118837999Y-103285001D01*
G04 #@! TO.N,P76*
X105675000Y-92848000D02*
X117475000Y-104648000D01*
X103156000Y-92848000D02*
X105675000Y-92848000D01*
G04 #@! TO.N,P75*
X104185000Y-93348000D02*
X103156000Y-93348000D01*
X104277066Y-93348000D02*
X104185000Y-93348000D01*
X116754067Y-105825001D02*
X104277066Y-93348000D01*
X118837999Y-105825001D02*
X116754067Y-105825001D01*
X120015000Y-104648000D02*
X118837999Y-105825001D01*
G04 #@! TO.N,P74*
X104135000Y-93848000D02*
X103156000Y-93848000D01*
X117475000Y-107188000D02*
X104135000Y-93848000D01*
G04 #@! TO.N,P73*
X103156000Y-94752000D02*
X103156000Y-94348000D01*
X116769001Y-108365001D02*
X103156000Y-94752000D01*
X118837999Y-108365001D02*
X116769001Y-108365001D01*
X120015000Y-107188000D02*
X118837999Y-108365001D01*
G04 #@! TO.N,P109*
X101610000Y-74898000D02*
X101206000Y-74898000D01*
X115223001Y-61284999D02*
X101610000Y-74898000D01*
X115223001Y-59216001D02*
X115223001Y-61284999D01*
X114046000Y-58039000D02*
X115223001Y-59216001D01*
G04 #@! TO.N,P110*
X100706000Y-73919000D02*
X100706000Y-74898000D01*
X114046000Y-60579000D02*
X100706000Y-73919000D01*
G04 #@! TO.N,P111*
X112355999Y-58888999D02*
X111506000Y-58039000D01*
X112683001Y-59216001D02*
X112355999Y-58888999D01*
X112683001Y-61143961D02*
X112683001Y-59216001D01*
X100206000Y-73620962D02*
X112683001Y-61143961D01*
X100206000Y-74898000D02*
X100206000Y-73620962D01*
G04 #@! TO.N,P112*
X99706000Y-72379000D02*
X111506000Y-60579000D01*
X99706000Y-74898000D02*
X99706000Y-72379000D01*
G04 #@! TO.N,P113*
X99206000Y-73869000D02*
X99206000Y-74898000D01*
X99206000Y-72080962D02*
X99206000Y-73869000D01*
X110143001Y-61143961D02*
X99206000Y-72080962D01*
X110143001Y-60200037D02*
X110143001Y-61143961D01*
X111127037Y-59216001D02*
X110143001Y-60200037D01*
X110143001Y-59216001D02*
X111127037Y-59216001D01*
X108966000Y-58039000D02*
X110143001Y-59216001D01*
G04 #@! TO.N,P114*
X98706000Y-70839000D02*
X108966000Y-60579000D01*
X98706000Y-74898000D02*
X98706000Y-70839000D01*
G04 #@! TO.N,P115*
X107275999Y-58888999D02*
X106426000Y-58039000D01*
X107603001Y-59216001D02*
X107275999Y-58888999D01*
X107603001Y-61143961D02*
X107603001Y-59216001D01*
X98206000Y-70540962D02*
X107603001Y-61143961D01*
X98206000Y-74898000D02*
X98206000Y-70540962D01*
G04 #@! TO.N,P116*
X97706000Y-69299000D02*
X97706000Y-74898000D01*
X106426000Y-60579000D02*
X97706000Y-69299000D01*
G04 #@! TO.N,P117*
X97206000Y-73869000D02*
X97206000Y-74898000D01*
X97206000Y-69156934D02*
X97206000Y-73869000D01*
X105063001Y-61299933D02*
X97206000Y-69156934D01*
X105063001Y-59216001D02*
X105063001Y-61299933D01*
X103886000Y-58039000D02*
X105063001Y-59216001D01*
G04 #@! TO.N,P118*
X96706000Y-67759000D02*
X103886000Y-60579000D01*
X96706000Y-74898000D02*
X96706000Y-67759000D01*
G04 #@! TO.N,P119*
X96183001Y-74875001D02*
X96206000Y-74898000D01*
X96183001Y-67639933D02*
X96183001Y-74875001D01*
X102523001Y-61299933D02*
X96183001Y-67639933D01*
X102523001Y-59216001D02*
X102523001Y-61299933D01*
X101346000Y-58039000D02*
X102523001Y-59216001D01*
G04 #@! TO.N,P120*
X95706000Y-66219000D02*
X101346000Y-60579000D01*
X95706000Y-74898000D02*
X95706000Y-66219000D01*
G04 #@! TO.N,P121*
X95206000Y-73869000D02*
X95206000Y-74898000D01*
X95206000Y-66076934D02*
X95206000Y-73869000D01*
X99983001Y-61299933D02*
X95206000Y-66076934D01*
X99983001Y-59216001D02*
X99983001Y-61299933D01*
X98806000Y-58039000D02*
X99983001Y-59216001D01*
G04 #@! TO.N,P122*
X94706000Y-64679000D02*
X98806000Y-60579000D01*
X94706000Y-74898000D02*
X94706000Y-64679000D01*
G04 #@! TO.N,P123*
X94183001Y-74875001D02*
X94206000Y-74898000D01*
X94183001Y-64559933D02*
X94183001Y-74875001D01*
X97443001Y-61299933D02*
X94183001Y-64559933D01*
X97443001Y-59216001D02*
X97443001Y-61299933D01*
X96266000Y-58039000D02*
X97443001Y-59216001D01*
G04 #@! TO.N,P124*
X93706000Y-63139000D02*
X96266000Y-60579000D01*
X93706000Y-74898000D02*
X93706000Y-63139000D01*
G04 #@! TO.N,P125*
X93206000Y-73869000D02*
X93206000Y-74898000D01*
X93206000Y-62996934D02*
X93206000Y-73869000D01*
X94903001Y-61299933D02*
X93206000Y-62996934D01*
X94903001Y-59216001D02*
X94903001Y-61299933D01*
X93726000Y-58039000D02*
X94903001Y-59216001D01*
G04 #@! TO.N,P126*
X92706000Y-61599000D02*
X93726000Y-60579000D01*
X92706000Y-74898000D02*
X92706000Y-61599000D01*
G04 #@! TO.N,P127*
X92183001Y-74875001D02*
X92206000Y-74898000D01*
X92183001Y-61323961D02*
X92183001Y-74875001D01*
X92363001Y-61143961D02*
X92183001Y-61323961D01*
X92363001Y-59216001D02*
X92363001Y-61143961D01*
X91186000Y-58039000D02*
X92363001Y-59216001D01*
G04 #@! TO.N,P128*
X91706000Y-61099000D02*
X91186000Y-60579000D01*
X91706000Y-74898000D02*
X91706000Y-61099000D01*
G04 #@! TO.N,P129*
X91206000Y-73869000D02*
X91206000Y-74898000D01*
X91206000Y-62496934D02*
X91206000Y-73869000D01*
X89823001Y-61113935D02*
X91206000Y-62496934D01*
X89823001Y-59216001D02*
X89823001Y-61113935D01*
X88646000Y-58039000D02*
X89823001Y-59216001D01*
G04 #@! TO.N,P130*
X90706000Y-62639000D02*
X88646000Y-60579000D01*
X90706000Y-74898000D02*
X90706000Y-62639000D01*
G04 #@! TO.N,P131*
X90206000Y-63880962D02*
X90206000Y-74898000D01*
X87283001Y-60957963D02*
X90206000Y-63880962D01*
X86106000Y-58039000D02*
X87283001Y-59216001D01*
X87283001Y-59216001D02*
X87283001Y-60957963D01*
G04 #@! TO.N,P132*
X89706000Y-64179000D02*
X86106000Y-60579000D01*
X89706000Y-74898000D02*
X89706000Y-64179000D01*
G04 #@! TO.N,P133*
X89206000Y-73869000D02*
X89206000Y-74898000D01*
X89206000Y-65576934D02*
X89206000Y-73869000D01*
X84743001Y-61113935D02*
X89206000Y-65576934D01*
X84743001Y-59216001D02*
X84743001Y-61113935D01*
X83566000Y-58039000D02*
X84743001Y-59216001D01*
G04 #@! TO.N,P134*
X88706000Y-65719000D02*
X83566000Y-60579000D01*
X88706000Y-74898000D02*
X88706000Y-65719000D01*
G04 #@! TO.N,P135*
X88206000Y-73869000D02*
X88206000Y-74898000D01*
X88206000Y-67116934D02*
X88206000Y-73869000D01*
X82203001Y-61113935D02*
X88206000Y-67116934D01*
X82203001Y-59216001D02*
X82203001Y-61113935D01*
X81026000Y-58039000D02*
X82203001Y-59216001D01*
G04 #@! TO.N,P136*
X87706000Y-67259000D02*
X81026000Y-60579000D01*
X87706000Y-74898000D02*
X87706000Y-67259000D01*
G04 #@! TO.N,P137*
X87206000Y-73869000D02*
X87206000Y-74898000D01*
X87206000Y-68656934D02*
X87206000Y-73869000D01*
X79848999Y-61299933D02*
X87206000Y-68656934D01*
X79848999Y-59401999D02*
X79848999Y-61299933D01*
X78486000Y-58039000D02*
X79848999Y-59401999D01*
G04 #@! TO.N,P138*
X86706000Y-68799000D02*
X78486000Y-60579000D01*
X86706000Y-74898000D02*
X86706000Y-68799000D01*
G04 #@! TO.N,P139*
X86206000Y-73869000D02*
X86206000Y-74898000D01*
X86206000Y-70196934D02*
X86206000Y-73869000D01*
X77123001Y-61113935D02*
X86206000Y-70196934D01*
X77123001Y-59216001D02*
X77123001Y-61113935D01*
X75946000Y-58039000D02*
X77123001Y-59216001D01*
G04 #@! TO.N,P140*
X85706000Y-70339000D02*
X75946000Y-60579000D01*
X85706000Y-74898000D02*
X85706000Y-70339000D01*
G04 #@! TO.N,P141*
X85206000Y-73869000D02*
X85206000Y-74898000D01*
X85206000Y-71736934D02*
X85206000Y-73869000D01*
X74768999Y-61299933D02*
X85206000Y-71736934D01*
X74768999Y-59401999D02*
X74768999Y-61299933D01*
X73406000Y-58039000D02*
X74768999Y-59401999D01*
G04 #@! TO.N,P142*
X84706000Y-71879000D02*
X73406000Y-60579000D01*
X84706000Y-74898000D02*
X84706000Y-71879000D01*
G04 #@! TO.N,P143*
X84206000Y-73120962D02*
X84206000Y-74898000D01*
X72228999Y-61143961D02*
X84206000Y-73120962D01*
X70866000Y-58039000D02*
X72228999Y-59401999D01*
X72228999Y-59401999D02*
X72228999Y-61143961D01*
G04 #@! TO.N,P144*
X70866000Y-61781081D02*
X70866000Y-60579000D01*
X70866000Y-62462000D02*
X70866000Y-61781081D01*
X83302000Y-74898000D02*
X70866000Y-62462000D01*
X83706000Y-74898000D02*
X83302000Y-74898000D01*
G04 #@! TD*
M02*
