M48
;DRILL file {KiCad (5.0.2)-1} date 01/06/19 22:13:31
;FORMAT={-:-/ absolute / metric / decimal}
FMAT,2
METRIC,TZ
T1C1.000
T2C3.400
%
G90
G05
T1
X64.897Y-64.008
X64.897Y-66.548
X64.897Y-69.088
X64.897Y-71.628
X64.897Y-74.168
X64.897Y-76.708
X64.897Y-79.248
X64.897Y-81.788
X64.897Y-84.328
X64.897Y-86.868
X64.897Y-89.408
X64.897Y-91.948
X64.897Y-94.488
X64.897Y-97.028
X64.897Y-99.568
X64.897Y-102.108
X64.897Y-104.648
X64.897Y-107.188
X67.437Y-64.008
X67.437Y-66.548
X67.437Y-69.088
X67.437Y-71.628
X67.437Y-74.168
X67.437Y-76.708
X67.437Y-79.248
X67.437Y-81.788
X67.437Y-84.328
X67.437Y-86.868
X67.437Y-89.408
X67.437Y-91.948
X67.437Y-94.488
X67.437Y-97.028
X67.437Y-99.568
X67.437Y-102.108
X67.437Y-104.648
X67.437Y-107.188
X70.866Y-58.039
X70.866Y-60.579
X73.406Y-58.039
X73.406Y-60.579
X75.946Y-58.039
X75.946Y-60.579
X78.486Y-58.039
X78.486Y-60.579
X81.026Y-58.039
X81.026Y-60.579
X83.566Y-58.039
X83.566Y-60.579
X86.106Y-58.039
X86.106Y-60.579
X88.646Y-58.039
X88.646Y-60.579
X91.186Y-58.039
X91.186Y-60.579
X93.726Y-58.039
X93.726Y-60.579
X96.266Y-58.039
X96.266Y-60.579
X98.806Y-58.039
X98.806Y-60.579
X101.346Y-58.039
X101.346Y-60.579
X103.886Y-58.039
X103.886Y-60.579
X106.426Y-58.039
X106.426Y-60.579
X108.966Y-58.039
X108.966Y-60.579
X111.506Y-58.039
X111.506Y-60.579
X114.046Y-58.039
X114.046Y-60.579
X117.475Y-64.008
X117.475Y-66.548
X117.475Y-69.088
X117.475Y-71.628
X117.475Y-74.168
X117.475Y-76.708
X117.475Y-79.248
X117.475Y-81.788
X117.475Y-84.328
X117.475Y-86.868
X117.475Y-89.408
X117.475Y-91.948
X117.475Y-94.488
X117.475Y-97.028
X117.475Y-99.568
X117.475Y-102.108
X117.475Y-104.648
X117.475Y-107.188
X120.015Y-64.008
X120.015Y-66.548
X120.015Y-69.088
X120.015Y-71.628
X120.015Y-74.168
X120.015Y-76.708
X120.015Y-79.248
X120.015Y-81.788
X120.015Y-84.328
X120.015Y-86.868
X120.015Y-89.408
X120.015Y-91.948
X120.015Y-94.488
X120.015Y-97.028
X120.015Y-99.568
X120.015Y-102.108
X120.015Y-104.648
X120.015Y-107.188
X70.866Y-110.617
X70.866Y-113.157
X73.406Y-110.617
X73.406Y-113.157
X75.946Y-110.617
X75.946Y-113.157
X78.486Y-110.617
X78.486Y-113.157
X81.026Y-110.617
X81.026Y-113.157
X83.566Y-110.617
X83.566Y-113.157
X86.106Y-110.617
X86.106Y-113.157
X88.646Y-110.617
X88.646Y-113.157
X91.186Y-110.617
X91.186Y-113.157
X93.726Y-110.617
X93.726Y-113.157
X96.266Y-110.617
X96.266Y-113.157
X98.806Y-110.617
X98.806Y-113.157
X101.346Y-110.617
X101.346Y-113.157
X103.886Y-110.617
X103.886Y-113.157
X106.426Y-110.617
X106.426Y-113.157
X108.966Y-110.617
X108.966Y-113.157
X111.506Y-110.617
X111.506Y-113.157
X114.046Y-110.617
X114.046Y-113.157
T2
X64.897Y-58.039
X120.015Y-58.039
X64.897Y-113.157
X120.015Y-113.157
T0
M30
