%FSLAX45Y45*%
G04 Gerber Fmt 4.5, Leading zero omitted, Abs format (unit mm)*
G04 Created by KiCad (PCBNEW (5.0.2)-1) date 01/06/19 22:13:31*
%MOMM*%
%LPD*%
G01*
G04 APERTURE LIST*
%ADD10C,0.200000*%
%ADD11C,0.300000*%
G04 APERTURE END LIST*
D10*
X12382500Y-11315700D02*
X12382500Y-5803900D01*
X6489700Y-11696700D02*
X12001500Y-11696700D01*
X6108700Y-5803900D02*
X6108700Y-11315700D01*
X12001500Y-5422900D02*
X6489700Y-5422900D01*
X12001500Y-5422900D02*
G75*
G02X12382500Y-5803900I0J-381000D01*
G01*
X12382500Y-11315700D02*
G75*
G02X12001500Y-11696700I-381000J0D01*
G01*
X6489700Y-11696700D02*
G75*
G02X6108700Y-11315700I0J381000D01*
G01*
X6108700Y-5803900D02*
G75*
G02X6489700Y-5422900I381000J0D01*
G01*
D10*
X6439700Y-6350800D02*
X6539700Y-6450800D01*
X6539700Y-6350800D02*
X6439700Y-6450800D01*
X6439700Y-6604800D02*
X6539700Y-6704800D01*
X6539700Y-6604800D02*
X6439700Y-6704800D01*
X6439700Y-6858800D02*
X6539700Y-6958800D01*
X6539700Y-6858800D02*
X6439700Y-6958800D01*
X6439700Y-7112800D02*
X6539700Y-7212800D01*
X6539700Y-7112800D02*
X6439700Y-7212800D01*
X6439700Y-7366800D02*
X6539700Y-7466800D01*
X6539700Y-7366800D02*
X6439700Y-7466800D01*
X6439700Y-7620800D02*
X6539700Y-7720800D01*
X6539700Y-7620800D02*
X6439700Y-7720800D01*
X6439700Y-7874800D02*
X6539700Y-7974800D01*
X6539700Y-7874800D02*
X6439700Y-7974800D01*
X6439700Y-8128800D02*
X6539700Y-8228800D01*
X6539700Y-8128800D02*
X6439700Y-8228800D01*
X6439700Y-8382800D02*
X6539700Y-8482800D01*
X6539700Y-8382800D02*
X6439700Y-8482800D01*
X6439700Y-8636800D02*
X6539700Y-8736800D01*
X6539700Y-8636800D02*
X6439700Y-8736800D01*
X6439700Y-8890800D02*
X6539700Y-8990800D01*
X6539700Y-8890800D02*
X6439700Y-8990800D01*
X6439700Y-9144800D02*
X6539700Y-9244800D01*
X6539700Y-9144800D02*
X6439700Y-9244800D01*
X6439700Y-9398800D02*
X6539700Y-9498800D01*
X6539700Y-9398800D02*
X6439700Y-9498800D01*
X6439700Y-9652800D02*
X6539700Y-9752800D01*
X6539700Y-9652800D02*
X6439700Y-9752800D01*
X6439700Y-9906800D02*
X6539700Y-10006800D01*
X6539700Y-9906800D02*
X6439700Y-10006800D01*
X6439700Y-10160800D02*
X6539700Y-10260800D01*
X6539700Y-10160800D02*
X6439700Y-10260800D01*
X6439700Y-10414800D02*
X6539700Y-10514800D01*
X6539700Y-10414800D02*
X6439700Y-10514800D01*
X6439700Y-10668800D02*
X6539700Y-10768800D01*
X6539700Y-10668800D02*
X6439700Y-10768800D01*
X6693700Y-6350800D02*
X6793700Y-6450800D01*
X6793700Y-6350800D02*
X6693700Y-6450800D01*
X6693700Y-6604800D02*
X6793700Y-6704800D01*
X6793700Y-6604800D02*
X6693700Y-6704800D01*
X6693700Y-6858800D02*
X6793700Y-6958800D01*
X6793700Y-6858800D02*
X6693700Y-6958800D01*
X6693700Y-7112800D02*
X6793700Y-7212800D01*
X6793700Y-7112800D02*
X6693700Y-7212800D01*
X6693700Y-7366800D02*
X6793700Y-7466800D01*
X6793700Y-7366800D02*
X6693700Y-7466800D01*
X6693700Y-7620800D02*
X6793700Y-7720800D01*
X6793700Y-7620800D02*
X6693700Y-7720800D01*
X6693700Y-7874800D02*
X6793700Y-7974800D01*
X6793700Y-7874800D02*
X6693700Y-7974800D01*
X6693700Y-8128800D02*
X6793700Y-8228800D01*
X6793700Y-8128800D02*
X6693700Y-8228800D01*
X6693700Y-8382800D02*
X6793700Y-8482800D01*
X6793700Y-8382800D02*
X6693700Y-8482800D01*
X6693700Y-8636800D02*
X6793700Y-8736800D01*
X6793700Y-8636800D02*
X6693700Y-8736800D01*
X6693700Y-8890800D02*
X6793700Y-8990800D01*
X6793700Y-8890800D02*
X6693700Y-8990800D01*
X6693700Y-9144800D02*
X6793700Y-9244800D01*
X6793700Y-9144800D02*
X6693700Y-9244800D01*
X6693700Y-9398800D02*
X6793700Y-9498800D01*
X6793700Y-9398800D02*
X6693700Y-9498800D01*
X6693700Y-9652800D02*
X6793700Y-9752800D01*
X6793700Y-9652800D02*
X6693700Y-9752800D01*
X6693700Y-9906800D02*
X6793700Y-10006800D01*
X6793700Y-9906800D02*
X6693700Y-10006800D01*
X6693700Y-10160800D02*
X6793700Y-10260800D01*
X6793700Y-10160800D02*
X6693700Y-10260800D01*
X6693700Y-10414800D02*
X6793700Y-10514800D01*
X6793700Y-10414800D02*
X6693700Y-10514800D01*
X6693700Y-10668800D02*
X6793700Y-10768800D01*
X6793700Y-10668800D02*
X6693700Y-10768800D01*
X7036600Y-5753900D02*
X7136600Y-5853900D01*
X7136600Y-5753900D02*
X7036600Y-5853900D01*
X7036600Y-6007900D02*
X7136600Y-6107900D01*
X7136600Y-6007900D02*
X7036600Y-6107900D01*
X7290600Y-5753900D02*
X7390600Y-5853900D01*
X7390600Y-5753900D02*
X7290600Y-5853900D01*
X7290600Y-6007900D02*
X7390600Y-6107900D01*
X7390600Y-6007900D02*
X7290600Y-6107900D01*
X7544600Y-5753900D02*
X7644600Y-5853900D01*
X7644600Y-5753900D02*
X7544600Y-5853900D01*
X7544600Y-6007900D02*
X7644600Y-6107900D01*
X7644600Y-6007900D02*
X7544600Y-6107900D01*
X7798600Y-5753900D02*
X7898600Y-5853900D01*
X7898600Y-5753900D02*
X7798600Y-5853900D01*
X7798600Y-6007900D02*
X7898600Y-6107900D01*
X7898600Y-6007900D02*
X7798600Y-6107900D01*
X8052600Y-5753900D02*
X8152600Y-5853900D01*
X8152600Y-5753900D02*
X8052600Y-5853900D01*
X8052600Y-6007900D02*
X8152600Y-6107900D01*
X8152600Y-6007900D02*
X8052600Y-6107900D01*
X8306600Y-5753900D02*
X8406600Y-5853900D01*
X8406600Y-5753900D02*
X8306600Y-5853900D01*
X8306600Y-6007900D02*
X8406600Y-6107900D01*
X8406600Y-6007900D02*
X8306600Y-6107900D01*
X8560600Y-5753900D02*
X8660600Y-5853900D01*
X8660600Y-5753900D02*
X8560600Y-5853900D01*
X8560600Y-6007900D02*
X8660600Y-6107900D01*
X8660600Y-6007900D02*
X8560600Y-6107900D01*
X8814600Y-5753900D02*
X8914600Y-5853900D01*
X8914600Y-5753900D02*
X8814600Y-5853900D01*
X8814600Y-6007900D02*
X8914600Y-6107900D01*
X8914600Y-6007900D02*
X8814600Y-6107900D01*
X9068600Y-5753900D02*
X9168600Y-5853900D01*
X9168600Y-5753900D02*
X9068600Y-5853900D01*
X9068600Y-6007900D02*
X9168600Y-6107900D01*
X9168600Y-6007900D02*
X9068600Y-6107900D01*
X9322600Y-5753900D02*
X9422600Y-5853900D01*
X9422600Y-5753900D02*
X9322600Y-5853900D01*
X9322600Y-6007900D02*
X9422600Y-6107900D01*
X9422600Y-6007900D02*
X9322600Y-6107900D01*
X9576600Y-5753900D02*
X9676600Y-5853900D01*
X9676600Y-5753900D02*
X9576600Y-5853900D01*
X9576600Y-6007900D02*
X9676600Y-6107900D01*
X9676600Y-6007900D02*
X9576600Y-6107900D01*
X9830600Y-5753900D02*
X9930600Y-5853900D01*
X9930600Y-5753900D02*
X9830600Y-5853900D01*
X9830600Y-6007900D02*
X9930600Y-6107900D01*
X9930600Y-6007900D02*
X9830600Y-6107900D01*
X10084600Y-5753900D02*
X10184600Y-5853900D01*
X10184600Y-5753900D02*
X10084600Y-5853900D01*
X10084600Y-6007900D02*
X10184600Y-6107900D01*
X10184600Y-6007900D02*
X10084600Y-6107900D01*
X10338600Y-5753900D02*
X10438600Y-5853900D01*
X10438600Y-5753900D02*
X10338600Y-5853900D01*
X10338600Y-6007900D02*
X10438600Y-6107900D01*
X10438600Y-6007900D02*
X10338600Y-6107900D01*
X10592600Y-5753900D02*
X10692600Y-5853900D01*
X10692600Y-5753900D02*
X10592600Y-5853900D01*
X10592600Y-6007900D02*
X10692600Y-6107900D01*
X10692600Y-6007900D02*
X10592600Y-6107900D01*
X10846600Y-5753900D02*
X10946600Y-5853900D01*
X10946600Y-5753900D02*
X10846600Y-5853900D01*
X10846600Y-6007900D02*
X10946600Y-6107900D01*
X10946600Y-6007900D02*
X10846600Y-6107900D01*
X11100600Y-5753900D02*
X11200600Y-5853900D01*
X11200600Y-5753900D02*
X11100600Y-5853900D01*
X11100600Y-6007900D02*
X11200600Y-6107900D01*
X11200600Y-6007900D02*
X11100600Y-6107900D01*
X11354600Y-5753900D02*
X11454600Y-5853900D01*
X11454600Y-5753900D02*
X11354600Y-5853900D01*
X11354600Y-6007900D02*
X11454600Y-6107900D01*
X11454600Y-6007900D02*
X11354600Y-6107900D01*
X11697500Y-6350800D02*
X11797500Y-6450800D01*
X11797500Y-6350800D02*
X11697500Y-6450800D01*
X11697500Y-6604800D02*
X11797500Y-6704800D01*
X11797500Y-6604800D02*
X11697500Y-6704800D01*
X11697500Y-6858800D02*
X11797500Y-6958800D01*
X11797500Y-6858800D02*
X11697500Y-6958800D01*
X11697500Y-7112800D02*
X11797500Y-7212800D01*
X11797500Y-7112800D02*
X11697500Y-7212800D01*
X11697500Y-7366800D02*
X11797500Y-7466800D01*
X11797500Y-7366800D02*
X11697500Y-7466800D01*
X11697500Y-7620800D02*
X11797500Y-7720800D01*
X11797500Y-7620800D02*
X11697500Y-7720800D01*
X11697500Y-7874800D02*
X11797500Y-7974800D01*
X11797500Y-7874800D02*
X11697500Y-7974800D01*
X11697500Y-8128800D02*
X11797500Y-8228800D01*
X11797500Y-8128800D02*
X11697500Y-8228800D01*
X11697500Y-8382800D02*
X11797500Y-8482800D01*
X11797500Y-8382800D02*
X11697500Y-8482800D01*
X11697500Y-8636800D02*
X11797500Y-8736800D01*
X11797500Y-8636800D02*
X11697500Y-8736800D01*
X11697500Y-8890800D02*
X11797500Y-8990800D01*
X11797500Y-8890800D02*
X11697500Y-8990800D01*
X11697500Y-9144800D02*
X11797500Y-9244800D01*
X11797500Y-9144800D02*
X11697500Y-9244800D01*
X11697500Y-9398800D02*
X11797500Y-9498800D01*
X11797500Y-9398800D02*
X11697500Y-9498800D01*
X11697500Y-9652800D02*
X11797500Y-9752800D01*
X11797500Y-9652800D02*
X11697500Y-9752800D01*
X11697500Y-9906800D02*
X11797500Y-10006800D01*
X11797500Y-9906800D02*
X11697500Y-10006800D01*
X11697500Y-10160800D02*
X11797500Y-10260800D01*
X11797500Y-10160800D02*
X11697500Y-10260800D01*
X11697500Y-10414800D02*
X11797500Y-10514800D01*
X11797500Y-10414800D02*
X11697500Y-10514800D01*
X11697500Y-10668800D02*
X11797500Y-10768800D01*
X11797500Y-10668800D02*
X11697500Y-10768800D01*
X11951500Y-6350800D02*
X12051500Y-6450800D01*
X12051500Y-6350800D02*
X11951500Y-6450800D01*
X11951500Y-6604800D02*
X12051500Y-6704800D01*
X12051500Y-6604800D02*
X11951500Y-6704800D01*
X11951500Y-6858800D02*
X12051500Y-6958800D01*
X12051500Y-6858800D02*
X11951500Y-6958800D01*
X11951500Y-7112800D02*
X12051500Y-7212800D01*
X12051500Y-7112800D02*
X11951500Y-7212800D01*
X11951500Y-7366800D02*
X12051500Y-7466800D01*
X12051500Y-7366800D02*
X11951500Y-7466800D01*
X11951500Y-7620800D02*
X12051500Y-7720800D01*
X12051500Y-7620800D02*
X11951500Y-7720800D01*
X11951500Y-7874800D02*
X12051500Y-7974800D01*
X12051500Y-7874800D02*
X11951500Y-7974800D01*
X11951500Y-8128800D02*
X12051500Y-8228800D01*
X12051500Y-8128800D02*
X11951500Y-8228800D01*
X11951500Y-8382800D02*
X12051500Y-8482800D01*
X12051500Y-8382800D02*
X11951500Y-8482800D01*
X11951500Y-8636800D02*
X12051500Y-8736800D01*
X12051500Y-8636800D02*
X11951500Y-8736800D01*
X11951500Y-8890800D02*
X12051500Y-8990800D01*
X12051500Y-8890800D02*
X11951500Y-8990800D01*
X11951500Y-9144800D02*
X12051500Y-9244800D01*
X12051500Y-9144800D02*
X11951500Y-9244800D01*
X11951500Y-9398800D02*
X12051500Y-9498800D01*
X12051500Y-9398800D02*
X11951500Y-9498800D01*
X11951500Y-9652800D02*
X12051500Y-9752800D01*
X12051500Y-9652800D02*
X11951500Y-9752800D01*
X11951500Y-9906800D02*
X12051500Y-10006800D01*
X12051500Y-9906800D02*
X11951500Y-10006800D01*
X11951500Y-10160800D02*
X12051500Y-10260800D01*
X12051500Y-10160800D02*
X11951500Y-10260800D01*
X11951500Y-10414800D02*
X12051500Y-10514800D01*
X12051500Y-10414800D02*
X11951500Y-10514800D01*
X11951500Y-10668800D02*
X12051500Y-10768800D01*
X12051500Y-10668800D02*
X11951500Y-10768800D01*
X7036600Y-11011700D02*
X7136600Y-11111700D01*
X7136600Y-11011700D02*
X7036600Y-11111700D01*
X7036600Y-11265700D02*
X7136600Y-11365700D01*
X7136600Y-11265700D02*
X7036600Y-11365700D01*
X7290600Y-11011700D02*
X7390600Y-11111700D01*
X7390600Y-11011700D02*
X7290600Y-11111700D01*
X7290600Y-11265700D02*
X7390600Y-11365700D01*
X7390600Y-11265700D02*
X7290600Y-11365700D01*
X7544600Y-11011700D02*
X7644600Y-11111700D01*
X7644600Y-11011700D02*
X7544600Y-11111700D01*
X7544600Y-11265700D02*
X7644600Y-11365700D01*
X7644600Y-11265700D02*
X7544600Y-11365700D01*
X7798600Y-11011700D02*
X7898600Y-11111700D01*
X7898600Y-11011700D02*
X7798600Y-11111700D01*
X7798600Y-11265700D02*
X7898600Y-11365700D01*
X7898600Y-11265700D02*
X7798600Y-11365700D01*
X8052600Y-11011700D02*
X8152600Y-11111700D01*
X8152600Y-11011700D02*
X8052600Y-11111700D01*
X8052600Y-11265700D02*
X8152600Y-11365700D01*
X8152600Y-11265700D02*
X8052600Y-11365700D01*
X8306600Y-11011700D02*
X8406600Y-11111700D01*
X8406600Y-11011700D02*
X8306600Y-11111700D01*
X8306600Y-11265700D02*
X8406600Y-11365700D01*
X8406600Y-11265700D02*
X8306600Y-11365700D01*
X8560600Y-11011700D02*
X8660600Y-11111700D01*
X8660600Y-11011700D02*
X8560600Y-11111700D01*
X8560600Y-11265700D02*
X8660600Y-11365700D01*
X8660600Y-11265700D02*
X8560600Y-11365700D01*
X8814600Y-11011700D02*
X8914600Y-11111700D01*
X8914600Y-11011700D02*
X8814600Y-11111700D01*
X8814600Y-11265700D02*
X8914600Y-11365700D01*
X8914600Y-11265700D02*
X8814600Y-11365700D01*
X9068600Y-11011700D02*
X9168600Y-11111700D01*
X9168600Y-11011700D02*
X9068600Y-11111700D01*
X9068600Y-11265700D02*
X9168600Y-11365700D01*
X9168600Y-11265700D02*
X9068600Y-11365700D01*
X9322600Y-11011700D02*
X9422600Y-11111700D01*
X9422600Y-11011700D02*
X9322600Y-11111700D01*
X9322600Y-11265700D02*
X9422600Y-11365700D01*
X9422600Y-11265700D02*
X9322600Y-11365700D01*
X9576600Y-11011700D02*
X9676600Y-11111700D01*
X9676600Y-11011700D02*
X9576600Y-11111700D01*
X9576600Y-11265700D02*
X9676600Y-11365700D01*
X9676600Y-11265700D02*
X9576600Y-11365700D01*
X9830600Y-11011700D02*
X9930600Y-11111700D01*
X9930600Y-11011700D02*
X9830600Y-11111700D01*
X9830600Y-11265700D02*
X9930600Y-11365700D01*
X9930600Y-11265700D02*
X9830600Y-11365700D01*
X10084600Y-11011700D02*
X10184600Y-11111700D01*
X10184600Y-11011700D02*
X10084600Y-11111700D01*
X10084600Y-11265700D02*
X10184600Y-11365700D01*
X10184600Y-11265700D02*
X10084600Y-11365700D01*
X10338600Y-11011700D02*
X10438600Y-11111700D01*
X10438600Y-11011700D02*
X10338600Y-11111700D01*
X10338600Y-11265700D02*
X10438600Y-11365700D01*
X10438600Y-11265700D02*
X10338600Y-11365700D01*
X10592600Y-11011700D02*
X10692600Y-11111700D01*
X10692600Y-11011700D02*
X10592600Y-11111700D01*
X10592600Y-11265700D02*
X10692600Y-11365700D01*
X10692600Y-11265700D02*
X10592600Y-11365700D01*
X10846600Y-11011700D02*
X10946600Y-11111700D01*
X10946600Y-11011700D02*
X10846600Y-11111700D01*
X10846600Y-11265700D02*
X10946600Y-11365700D01*
X10946600Y-11265700D02*
X10846600Y-11365700D01*
X11100600Y-11011700D02*
X11200600Y-11111700D01*
X11200600Y-11011700D02*
X11100600Y-11111700D01*
X11100600Y-11265700D02*
X11200600Y-11365700D01*
X11200600Y-11265700D02*
X11100600Y-11365700D01*
X11354600Y-11011700D02*
X11454600Y-11111700D01*
X11454600Y-11011700D02*
X11354600Y-11111700D01*
X11354600Y-11265700D02*
X11454600Y-11365700D01*
X11454600Y-11265700D02*
X11354600Y-11365700D01*
X6659700Y-5803900D02*
G75*
G03X6659700Y-5803900I-170000J0D01*
G01*
X12171500Y-5803900D02*
G75*
G03X12171500Y-5803900I-170000J0D01*
G01*
X6659700Y-11315700D02*
G75*
G03X6659700Y-11315700I-170000J0D01*
G01*
X12171500Y-11315700D02*
G75*
G03X12171500Y-11315700I-170000J0D01*
G01*
D11*
X6385128Y-12172414D02*
X6385128Y-11872414D01*
X6456557Y-11872414D01*
X6499414Y-11886700D01*
X6527986Y-11915271D01*
X6542271Y-11943843D01*
X6556557Y-12000986D01*
X6556557Y-12043843D01*
X6542271Y-12100986D01*
X6527986Y-12129557D01*
X6499414Y-12158129D01*
X6456557Y-12172414D01*
X6385128Y-12172414D01*
X6685128Y-12172414D02*
X6685128Y-11972414D01*
X6685128Y-12029557D02*
X6699414Y-12000986D01*
X6713700Y-11986700D01*
X6742271Y-11972414D01*
X6770843Y-11972414D01*
X6870843Y-12172414D02*
X6870843Y-11972414D01*
X6870843Y-11872414D02*
X6856557Y-11886700D01*
X6870843Y-11900986D01*
X6885128Y-11886700D01*
X6870843Y-11872414D01*
X6870843Y-11900986D01*
X7056557Y-12172414D02*
X7027986Y-12158129D01*
X7013700Y-12129557D01*
X7013700Y-11872414D01*
X7213700Y-12172414D02*
X7185128Y-12158129D01*
X7170843Y-12129557D01*
X7170843Y-11872414D01*
X7556557Y-12172414D02*
X7556557Y-11872414D01*
X7656557Y-12086700D01*
X7756557Y-11872414D01*
X7756557Y-12172414D01*
X8027986Y-12172414D02*
X8027986Y-12015271D01*
X8013700Y-11986700D01*
X7985128Y-11972414D01*
X7927986Y-11972414D01*
X7899414Y-11986700D01*
X8027986Y-12158129D02*
X7999414Y-12172414D01*
X7927986Y-12172414D01*
X7899414Y-12158129D01*
X7885128Y-12129557D01*
X7885128Y-12100986D01*
X7899414Y-12072414D01*
X7927986Y-12058129D01*
X7999414Y-12058129D01*
X8027986Y-12043843D01*
X8170843Y-11972414D02*
X8170843Y-12272414D01*
X8170843Y-11986700D02*
X8199414Y-11972414D01*
X8256557Y-11972414D01*
X8285128Y-11986700D01*
X8299414Y-12000986D01*
X8313700Y-12029557D01*
X8313700Y-12115271D01*
X8299414Y-12143843D01*
X8285128Y-12158129D01*
X8256557Y-12172414D01*
X8199414Y-12172414D01*
X8170843Y-12158129D01*
X8442271Y-12143843D02*
X8456557Y-12158129D01*
X8442271Y-12172414D01*
X8427986Y-12158129D01*
X8442271Y-12143843D01*
X8442271Y-12172414D01*
X8442271Y-11986700D02*
X8456557Y-12000986D01*
X8442271Y-12015271D01*
X8427986Y-12000986D01*
X8442271Y-11986700D01*
X8442271Y-12015271D01*
X5998700Y-12616700D02*
X6098700Y-12716700D01*
X6098700Y-12616700D02*
X5998700Y-12716700D01*
X6542271Y-12802414D02*
X6370843Y-12802414D01*
X6456557Y-12802414D02*
X6456557Y-12502414D01*
X6427986Y-12545271D01*
X6399414Y-12573843D01*
X6370843Y-12588129D01*
X6670843Y-12773843D02*
X6685128Y-12788129D01*
X6670843Y-12802414D01*
X6656557Y-12788129D01*
X6670843Y-12773843D01*
X6670843Y-12802414D01*
X6870843Y-12502414D02*
X6899414Y-12502414D01*
X6927986Y-12516700D01*
X6942271Y-12530986D01*
X6956557Y-12559557D01*
X6970843Y-12616700D01*
X6970843Y-12688129D01*
X6956557Y-12745271D01*
X6942271Y-12773843D01*
X6927986Y-12788129D01*
X6899414Y-12802414D01*
X6870843Y-12802414D01*
X6842271Y-12788129D01*
X6827986Y-12773843D01*
X6813700Y-12745271D01*
X6799414Y-12688129D01*
X6799414Y-12616700D01*
X6813700Y-12559557D01*
X6827986Y-12530986D01*
X6842271Y-12516700D01*
X6870843Y-12502414D01*
X7156557Y-12502414D02*
X7185128Y-12502414D01*
X7213700Y-12516700D01*
X7227986Y-12530986D01*
X7242271Y-12559557D01*
X7256557Y-12616700D01*
X7256557Y-12688129D01*
X7242271Y-12745271D01*
X7227986Y-12773843D01*
X7213700Y-12788129D01*
X7185128Y-12802414D01*
X7156557Y-12802414D01*
X7127986Y-12788129D01*
X7113700Y-12773843D01*
X7099414Y-12745271D01*
X7085128Y-12688129D01*
X7085128Y-12616700D01*
X7099414Y-12559557D01*
X7113700Y-12530986D01*
X7127986Y-12516700D01*
X7156557Y-12502414D01*
X7385128Y-12802414D02*
X7385128Y-12602414D01*
X7385128Y-12630986D02*
X7399414Y-12616700D01*
X7427986Y-12602414D01*
X7470843Y-12602414D01*
X7499414Y-12616700D01*
X7513700Y-12645271D01*
X7513700Y-12802414D01*
X7513700Y-12645271D02*
X7527986Y-12616700D01*
X7556557Y-12602414D01*
X7599414Y-12602414D01*
X7627986Y-12616700D01*
X7642271Y-12645271D01*
X7642271Y-12802414D01*
X7785128Y-12802414D02*
X7785128Y-12602414D01*
X7785128Y-12630986D02*
X7799414Y-12616700D01*
X7827986Y-12602414D01*
X7870843Y-12602414D01*
X7899414Y-12616700D01*
X7913700Y-12645271D01*
X7913700Y-12802414D01*
X7913700Y-12645271D02*
X7927986Y-12616700D01*
X7956557Y-12602414D01*
X7999414Y-12602414D01*
X8027986Y-12616700D01*
X8042271Y-12645271D01*
X8042271Y-12802414D01*
X8627986Y-12488129D02*
X8370843Y-12873843D01*
X9013700Y-12502414D02*
X9042271Y-12502414D01*
X9070843Y-12516700D01*
X9085128Y-12530986D01*
X9099414Y-12559557D01*
X9113700Y-12616700D01*
X9113700Y-12688129D01*
X9099414Y-12745271D01*
X9085128Y-12773843D01*
X9070843Y-12788129D01*
X9042271Y-12802414D01*
X9013700Y-12802414D01*
X8985128Y-12788129D01*
X8970843Y-12773843D01*
X8956557Y-12745271D01*
X8942271Y-12688129D01*
X8942271Y-12616700D01*
X8956557Y-12559557D01*
X8970843Y-12530986D01*
X8985128Y-12516700D01*
X9013700Y-12502414D01*
X9242271Y-12773843D02*
X9256557Y-12788129D01*
X9242271Y-12802414D01*
X9227986Y-12788129D01*
X9242271Y-12773843D01*
X9242271Y-12802414D01*
X9442271Y-12502414D02*
X9470843Y-12502414D01*
X9499414Y-12516700D01*
X9513700Y-12530986D01*
X9527986Y-12559557D01*
X9542271Y-12616700D01*
X9542271Y-12688129D01*
X9527986Y-12745271D01*
X9513700Y-12773843D01*
X9499414Y-12788129D01*
X9470843Y-12802414D01*
X9442271Y-12802414D01*
X9413700Y-12788129D01*
X9399414Y-12773843D01*
X9385128Y-12745271D01*
X9370843Y-12688129D01*
X9370843Y-12616700D01*
X9385128Y-12559557D01*
X9399414Y-12530986D01*
X9413700Y-12516700D01*
X9442271Y-12502414D01*
X9642271Y-12502414D02*
X9827986Y-12502414D01*
X9727986Y-12616700D01*
X9770843Y-12616700D01*
X9799414Y-12630986D01*
X9813700Y-12645271D01*
X9827986Y-12673843D01*
X9827986Y-12745271D01*
X9813700Y-12773843D01*
X9799414Y-12788129D01*
X9770843Y-12802414D01*
X9685128Y-12802414D01*
X9656557Y-12788129D01*
X9642271Y-12773843D01*
X9970843Y-12802414D02*
X10027986Y-12802414D01*
X10056557Y-12788129D01*
X10070843Y-12773843D01*
X10099414Y-12730986D01*
X10113700Y-12673843D01*
X10113700Y-12559557D01*
X10099414Y-12530986D01*
X10085128Y-12516700D01*
X10056557Y-12502414D01*
X9999414Y-12502414D01*
X9970843Y-12516700D01*
X9956557Y-12530986D01*
X9942271Y-12559557D01*
X9942271Y-12630986D01*
X9956557Y-12659557D01*
X9970843Y-12673843D01*
X9999414Y-12688129D01*
X10056557Y-12688129D01*
X10085128Y-12673843D01*
X10099414Y-12659557D01*
X10113700Y-12630986D01*
X10227986Y-12502414D02*
X10227986Y-12559557D01*
X10342271Y-12502414D02*
X10342271Y-12559557D01*
X10785128Y-12916700D02*
X10770843Y-12902414D01*
X10742271Y-12859557D01*
X10727986Y-12830986D01*
X10713700Y-12788129D01*
X10699414Y-12716700D01*
X10699414Y-12659557D01*
X10713700Y-12588129D01*
X10727986Y-12545271D01*
X10742271Y-12516700D01*
X10770843Y-12473843D01*
X10785128Y-12459557D01*
X11056557Y-12802414D02*
X10885128Y-12802414D01*
X10970843Y-12802414D02*
X10970843Y-12502414D01*
X10942271Y-12545271D01*
X10913700Y-12573843D01*
X10885128Y-12588129D01*
X11313700Y-12602414D02*
X11313700Y-12802414D01*
X11242271Y-12488129D02*
X11170843Y-12702414D01*
X11356557Y-12702414D01*
X11599414Y-12602414D02*
X11599414Y-12802414D01*
X11527986Y-12488129D02*
X11456557Y-12702414D01*
X11642271Y-12702414D01*
X11985128Y-12802414D02*
X11985128Y-12502414D01*
X12113700Y-12802414D02*
X12113700Y-12645271D01*
X12099414Y-12616700D01*
X12070843Y-12602414D01*
X12027986Y-12602414D01*
X11999414Y-12616700D01*
X11985128Y-12630986D01*
X12299414Y-12802414D02*
X12270843Y-12788129D01*
X12256557Y-12773843D01*
X12242271Y-12745271D01*
X12242271Y-12659557D01*
X12256557Y-12630986D01*
X12270843Y-12616700D01*
X12299414Y-12602414D01*
X12342271Y-12602414D01*
X12370843Y-12616700D01*
X12385128Y-12630986D01*
X12399414Y-12659557D01*
X12399414Y-12745271D01*
X12385128Y-12773843D01*
X12370843Y-12788129D01*
X12342271Y-12802414D01*
X12299414Y-12802414D01*
X12570843Y-12802414D02*
X12542271Y-12788129D01*
X12527986Y-12759557D01*
X12527986Y-12502414D01*
X12799414Y-12788129D02*
X12770843Y-12802414D01*
X12713700Y-12802414D01*
X12685128Y-12788129D01*
X12670843Y-12759557D01*
X12670843Y-12645271D01*
X12685128Y-12616700D01*
X12713700Y-12602414D01*
X12770843Y-12602414D01*
X12799414Y-12616700D01*
X12813700Y-12645271D01*
X12813700Y-12673843D01*
X12670843Y-12702414D01*
X12927986Y-12788129D02*
X12956557Y-12802414D01*
X13013700Y-12802414D01*
X13042271Y-12788129D01*
X13056557Y-12759557D01*
X13056557Y-12745271D01*
X13042271Y-12716700D01*
X13013700Y-12702414D01*
X12970843Y-12702414D01*
X12942271Y-12688129D01*
X12927986Y-12659557D01*
X12927986Y-12645271D01*
X12942271Y-12616700D01*
X12970843Y-12602414D01*
X13013700Y-12602414D01*
X13042271Y-12616700D01*
X13156557Y-12916700D02*
X13170843Y-12902414D01*
X13199414Y-12859557D01*
X13213700Y-12830986D01*
X13227986Y-12788129D01*
X13242271Y-12716700D01*
X13242271Y-12659557D01*
X13227986Y-12588129D01*
X13213700Y-12545271D01*
X13199414Y-12516700D01*
X13170843Y-12473843D01*
X13156557Y-12459557D01*
X6098700Y-13062700D02*
G75*
G03X6098700Y-13062700I-170000J0D01*
G01*
X6356557Y-12898414D02*
X6542271Y-12898414D01*
X6442271Y-13012700D01*
X6485128Y-13012700D01*
X6513700Y-13026986D01*
X6527986Y-13041271D01*
X6542271Y-13069843D01*
X6542271Y-13141271D01*
X6527986Y-13169843D01*
X6513700Y-13184129D01*
X6485128Y-13198414D01*
X6399414Y-13198414D01*
X6370843Y-13184129D01*
X6356557Y-13169843D01*
X6670843Y-13169843D02*
X6685128Y-13184129D01*
X6670843Y-13198414D01*
X6656557Y-13184129D01*
X6670843Y-13169843D01*
X6670843Y-13198414D01*
X6942271Y-12998414D02*
X6942271Y-13198414D01*
X6870843Y-12884129D02*
X6799414Y-13098414D01*
X6985128Y-13098414D01*
X7156557Y-12898414D02*
X7185128Y-12898414D01*
X7213700Y-12912700D01*
X7227986Y-12926986D01*
X7242271Y-12955557D01*
X7256557Y-13012700D01*
X7256557Y-13084129D01*
X7242271Y-13141271D01*
X7227986Y-13169843D01*
X7213700Y-13184129D01*
X7185128Y-13198414D01*
X7156557Y-13198414D01*
X7127986Y-13184129D01*
X7113700Y-13169843D01*
X7099414Y-13141271D01*
X7085128Y-13084129D01*
X7085128Y-13012700D01*
X7099414Y-12955557D01*
X7113700Y-12926986D01*
X7127986Y-12912700D01*
X7156557Y-12898414D01*
X7385128Y-13198414D02*
X7385128Y-12998414D01*
X7385128Y-13026986D02*
X7399414Y-13012700D01*
X7427986Y-12998414D01*
X7470843Y-12998414D01*
X7499414Y-13012700D01*
X7513700Y-13041271D01*
X7513700Y-13198414D01*
X7513700Y-13041271D02*
X7527986Y-13012700D01*
X7556557Y-12998414D01*
X7599414Y-12998414D01*
X7627986Y-13012700D01*
X7642271Y-13041271D01*
X7642271Y-13198414D01*
X7785128Y-13198414D02*
X7785128Y-12998414D01*
X7785128Y-13026986D02*
X7799414Y-13012700D01*
X7827986Y-12998414D01*
X7870843Y-12998414D01*
X7899414Y-13012700D01*
X7913700Y-13041271D01*
X7913700Y-13198414D01*
X7913700Y-13041271D02*
X7927986Y-13012700D01*
X7956557Y-12998414D01*
X7999414Y-12998414D01*
X8027986Y-13012700D01*
X8042271Y-13041271D01*
X8042271Y-13198414D01*
X8627986Y-12884129D02*
X8370843Y-13269843D01*
X9013700Y-12898414D02*
X9042271Y-12898414D01*
X9070843Y-12912700D01*
X9085128Y-12926986D01*
X9099414Y-12955557D01*
X9113700Y-13012700D01*
X9113700Y-13084129D01*
X9099414Y-13141271D01*
X9085128Y-13169843D01*
X9070843Y-13184129D01*
X9042271Y-13198414D01*
X9013700Y-13198414D01*
X8985128Y-13184129D01*
X8970843Y-13169843D01*
X8956557Y-13141271D01*
X8942271Y-13084129D01*
X8942271Y-13012700D01*
X8956557Y-12955557D01*
X8970843Y-12926986D01*
X8985128Y-12912700D01*
X9013700Y-12898414D01*
X9242271Y-13169843D02*
X9256557Y-13184129D01*
X9242271Y-13198414D01*
X9227986Y-13184129D01*
X9242271Y-13169843D01*
X9242271Y-13198414D01*
X9542271Y-13198414D02*
X9370843Y-13198414D01*
X9456557Y-13198414D02*
X9456557Y-12898414D01*
X9427986Y-12941271D01*
X9399414Y-12969843D01*
X9370843Y-12984129D01*
X9642271Y-12898414D02*
X9827986Y-12898414D01*
X9727986Y-13012700D01*
X9770843Y-13012700D01*
X9799414Y-13026986D01*
X9813700Y-13041271D01*
X9827986Y-13069843D01*
X9827986Y-13141271D01*
X9813700Y-13169843D01*
X9799414Y-13184129D01*
X9770843Y-13198414D01*
X9685128Y-13198414D01*
X9656557Y-13184129D01*
X9642271Y-13169843D01*
X10085128Y-12998414D02*
X10085128Y-13198414D01*
X10013700Y-12884129D02*
X9942271Y-13098414D01*
X10127986Y-13098414D01*
X10227986Y-12898414D02*
X10227986Y-12955557D01*
X10342271Y-12898414D02*
X10342271Y-12955557D01*
X10785128Y-13312700D02*
X10770843Y-13298414D01*
X10742271Y-13255557D01*
X10727986Y-13226986D01*
X10713700Y-13184129D01*
X10699414Y-13112700D01*
X10699414Y-13055557D01*
X10713700Y-12984129D01*
X10727986Y-12941271D01*
X10742271Y-12912700D01*
X10770843Y-12869843D01*
X10785128Y-12855557D01*
X11027986Y-12998414D02*
X11027986Y-13198414D01*
X10956557Y-12884129D02*
X10885128Y-13098414D01*
X11070843Y-13098414D01*
X11413700Y-13198414D02*
X11413700Y-12898414D01*
X11542271Y-13198414D02*
X11542271Y-13041271D01*
X11527986Y-13012700D01*
X11499414Y-12998414D01*
X11456557Y-12998414D01*
X11427986Y-13012700D01*
X11413700Y-13026986D01*
X11727986Y-13198414D02*
X11699414Y-13184129D01*
X11685128Y-13169843D01*
X11670843Y-13141271D01*
X11670843Y-13055557D01*
X11685128Y-13026986D01*
X11699414Y-13012700D01*
X11727986Y-12998414D01*
X11770843Y-12998414D01*
X11799414Y-13012700D01*
X11813700Y-13026986D01*
X11827986Y-13055557D01*
X11827986Y-13141271D01*
X11813700Y-13169843D01*
X11799414Y-13184129D01*
X11770843Y-13198414D01*
X11727986Y-13198414D01*
X11999414Y-13198414D02*
X11970843Y-13184129D01*
X11956557Y-13155557D01*
X11956557Y-12898414D01*
X12227986Y-13184129D02*
X12199414Y-13198414D01*
X12142271Y-13198414D01*
X12113700Y-13184129D01*
X12099414Y-13155557D01*
X12099414Y-13041271D01*
X12113700Y-13012700D01*
X12142271Y-12998414D01*
X12199414Y-12998414D01*
X12227986Y-13012700D01*
X12242271Y-13041271D01*
X12242271Y-13069843D01*
X12099414Y-13098414D01*
X12356557Y-13184129D02*
X12385128Y-13198414D01*
X12442271Y-13198414D01*
X12470843Y-13184129D01*
X12485128Y-13155557D01*
X12485128Y-13141271D01*
X12470843Y-13112700D01*
X12442271Y-13098414D01*
X12399414Y-13098414D01*
X12370843Y-13084129D01*
X12356557Y-13055557D01*
X12356557Y-13041271D01*
X12370843Y-13012700D01*
X12399414Y-12998414D01*
X12442271Y-12998414D01*
X12470843Y-13012700D01*
X12585128Y-13312700D02*
X12599414Y-13298414D01*
X12627986Y-13255557D01*
X12642271Y-13226986D01*
X12656557Y-13184129D01*
X12670843Y-13112700D01*
X12670843Y-13055557D01*
X12656557Y-12984129D01*
X12642271Y-12941271D01*
X12627986Y-12912700D01*
X12599414Y-12869843D01*
X12585128Y-12855557D01*
M02*
