G04 #@! TF.GenerationSoftware,KiCad,Pcbnew,(5.0.2)-1*
G04 #@! TF.CreationDate,2019-01-06T22:14:06+08:00*
G04 #@! TF.ProjectId,LQFP Breakout Board,4c514650-2042-4726-9561-6b6f75742042,rev?*
G04 #@! TF.SameCoordinates,Original*
G04 #@! TF.FileFunction,Copper,L2,Bot*
G04 #@! TF.FilePolarity,Positive*
%FSLAX46Y46*%
G04 Gerber Fmt 4.6, Leading zero omitted, Abs format (unit mm)*
G04 Created by KiCad (PCBNEW (5.0.2)-1) date 01/06/19 22:14:06*
%MOMM*%
%LPD*%
G01*
G04 APERTURE LIST*
G04 #@! TA.AperFunction,ComponentPad*
%ADD10O,1.700000X1.700000*%
G04 #@! TD*
G04 #@! TA.AperFunction,ComponentPad*
%ADD11R,1.700000X1.700000*%
G04 #@! TD*
G04 #@! TA.AperFunction,SMDPad,CuDef*
%ADD12R,1.500000X0.280000*%
G04 #@! TD*
G04 #@! TA.AperFunction,SMDPad,CuDef*
%ADD13R,0.280000X1.500000*%
G04 #@! TD*
G04 #@! TA.AperFunction,ComponentPad*
%ADD14C,3.800000*%
G04 #@! TD*
G04 #@! TA.AperFunction,Conductor*
%ADD15C,0.254000*%
G04 #@! TD*
G04 APERTURE END LIST*
D10*
G04 #@! TO.P,J1,36*
G04 #@! TO.N,P36*
X67437000Y-107188000D03*
G04 #@! TO.P,J1,35*
G04 #@! TO.N,P35*
X64897000Y-107188000D03*
G04 #@! TO.P,J1,34*
G04 #@! TO.N,P34*
X67437000Y-104648000D03*
G04 #@! TO.P,J1,33*
G04 #@! TO.N,P33*
X64897000Y-104648000D03*
G04 #@! TO.P,J1,32*
G04 #@! TO.N,P32*
X67437000Y-102108000D03*
G04 #@! TO.P,J1,31*
G04 #@! TO.N,P31*
X64897000Y-102108000D03*
G04 #@! TO.P,J1,30*
G04 #@! TO.N,P30*
X67437000Y-99568000D03*
G04 #@! TO.P,J1,29*
G04 #@! TO.N,P29*
X64897000Y-99568000D03*
G04 #@! TO.P,J1,28*
G04 #@! TO.N,P28*
X67437000Y-97028000D03*
G04 #@! TO.P,J1,27*
G04 #@! TO.N,P27*
X64897000Y-97028000D03*
G04 #@! TO.P,J1,26*
G04 #@! TO.N,P26*
X67437000Y-94488000D03*
G04 #@! TO.P,J1,25*
G04 #@! TO.N,P25*
X64897000Y-94488000D03*
G04 #@! TO.P,J1,24*
G04 #@! TO.N,P24*
X67437000Y-91948000D03*
G04 #@! TO.P,J1,23*
G04 #@! TO.N,P23*
X64897000Y-91948000D03*
G04 #@! TO.P,J1,22*
G04 #@! TO.N,P22*
X67437000Y-89408000D03*
G04 #@! TO.P,J1,21*
G04 #@! TO.N,P21*
X64897000Y-89408000D03*
G04 #@! TO.P,J1,20*
G04 #@! TO.N,P20*
X67437000Y-86868000D03*
G04 #@! TO.P,J1,19*
G04 #@! TO.N,P19*
X64897000Y-86868000D03*
G04 #@! TO.P,J1,18*
G04 #@! TO.N,P18*
X67437000Y-84328000D03*
G04 #@! TO.P,J1,17*
G04 #@! TO.N,P17*
X64897000Y-84328000D03*
G04 #@! TO.P,J1,16*
G04 #@! TO.N,P16*
X67437000Y-81788000D03*
G04 #@! TO.P,J1,15*
G04 #@! TO.N,P15*
X64897000Y-81788000D03*
G04 #@! TO.P,J1,14*
G04 #@! TO.N,P14*
X67437000Y-79248000D03*
G04 #@! TO.P,J1,13*
G04 #@! TO.N,P13*
X64897000Y-79248000D03*
G04 #@! TO.P,J1,12*
G04 #@! TO.N,P12*
X67437000Y-76708000D03*
G04 #@! TO.P,J1,11*
G04 #@! TO.N,P11*
X64897000Y-76708000D03*
G04 #@! TO.P,J1,10*
G04 #@! TO.N,P10*
X67437000Y-74168000D03*
G04 #@! TO.P,J1,9*
G04 #@! TO.N,P09*
X64897000Y-74168000D03*
G04 #@! TO.P,J1,8*
G04 #@! TO.N,P08*
X67437000Y-71628000D03*
G04 #@! TO.P,J1,7*
G04 #@! TO.N,P07*
X64897000Y-71628000D03*
G04 #@! TO.P,J1,6*
G04 #@! TO.N,P06*
X67437000Y-69088000D03*
G04 #@! TO.P,J1,5*
G04 #@! TO.N,P05*
X64897000Y-69088000D03*
G04 #@! TO.P,J1,4*
G04 #@! TO.N,P04*
X67437000Y-66548000D03*
G04 #@! TO.P,J1,3*
G04 #@! TO.N,P03*
X64897000Y-66548000D03*
G04 #@! TO.P,J1,2*
G04 #@! TO.N,P02*
X67437000Y-64008000D03*
D11*
G04 #@! TO.P,J1,1*
G04 #@! TO.N,P01*
X64897000Y-64008000D03*
G04 #@! TD*
G04 #@! TO.P,J2,1*
G04 #@! TO.N,P37*
X70866000Y-113157000D03*
D10*
G04 #@! TO.P,J2,2*
G04 #@! TO.N,P38*
X70866000Y-110617000D03*
G04 #@! TO.P,J2,3*
G04 #@! TO.N,P39*
X73406000Y-113157000D03*
G04 #@! TO.P,J2,4*
G04 #@! TO.N,P40*
X73406000Y-110617000D03*
G04 #@! TO.P,J2,5*
G04 #@! TO.N,P41*
X75946000Y-113157000D03*
G04 #@! TO.P,J2,6*
G04 #@! TO.N,P42*
X75946000Y-110617000D03*
G04 #@! TO.P,J2,7*
G04 #@! TO.N,P43*
X78486000Y-113157000D03*
G04 #@! TO.P,J2,8*
G04 #@! TO.N,P44*
X78486000Y-110617000D03*
G04 #@! TO.P,J2,9*
G04 #@! TO.N,P45*
X81026000Y-113157000D03*
G04 #@! TO.P,J2,10*
G04 #@! TO.N,P46*
X81026000Y-110617000D03*
G04 #@! TO.P,J2,11*
G04 #@! TO.N,P47*
X83566000Y-113157000D03*
G04 #@! TO.P,J2,12*
G04 #@! TO.N,P48*
X83566000Y-110617000D03*
G04 #@! TO.P,J2,13*
G04 #@! TO.N,P49*
X86106000Y-113157000D03*
G04 #@! TO.P,J2,14*
G04 #@! TO.N,P50*
X86106000Y-110617000D03*
G04 #@! TO.P,J2,15*
G04 #@! TO.N,P51*
X88646000Y-113157000D03*
G04 #@! TO.P,J2,16*
G04 #@! TO.N,P52*
X88646000Y-110617000D03*
G04 #@! TO.P,J2,17*
G04 #@! TO.N,P53*
X91186000Y-113157000D03*
G04 #@! TO.P,J2,18*
G04 #@! TO.N,P54*
X91186000Y-110617000D03*
G04 #@! TO.P,J2,19*
G04 #@! TO.N,P55*
X93726000Y-113157000D03*
G04 #@! TO.P,J2,20*
G04 #@! TO.N,P56*
X93726000Y-110617000D03*
G04 #@! TO.P,J2,21*
G04 #@! TO.N,P57*
X96266000Y-113157000D03*
G04 #@! TO.P,J2,22*
G04 #@! TO.N,P58*
X96266000Y-110617000D03*
G04 #@! TO.P,J2,23*
G04 #@! TO.N,P59*
X98806000Y-113157000D03*
G04 #@! TO.P,J2,24*
G04 #@! TO.N,P60*
X98806000Y-110617000D03*
G04 #@! TO.P,J2,25*
G04 #@! TO.N,P61*
X101346000Y-113157000D03*
G04 #@! TO.P,J2,26*
G04 #@! TO.N,P62*
X101346000Y-110617000D03*
G04 #@! TO.P,J2,27*
G04 #@! TO.N,P63*
X103886000Y-113157000D03*
G04 #@! TO.P,J2,28*
G04 #@! TO.N,P64*
X103886000Y-110617000D03*
G04 #@! TO.P,J2,29*
G04 #@! TO.N,P65*
X106426000Y-113157000D03*
G04 #@! TO.P,J2,30*
G04 #@! TO.N,P66*
X106426000Y-110617000D03*
G04 #@! TO.P,J2,31*
G04 #@! TO.N,P67*
X108966000Y-113157000D03*
G04 #@! TO.P,J2,32*
G04 #@! TO.N,P68*
X108966000Y-110617000D03*
G04 #@! TO.P,J2,33*
G04 #@! TO.N,P69*
X111506000Y-113157000D03*
G04 #@! TO.P,J2,34*
G04 #@! TO.N,P70*
X111506000Y-110617000D03*
G04 #@! TO.P,J2,35*
G04 #@! TO.N,P71*
X114046000Y-113157000D03*
G04 #@! TO.P,J2,36*
G04 #@! TO.N,P72*
X114046000Y-110617000D03*
G04 #@! TD*
G04 #@! TO.P,J3,36*
G04 #@! TO.N,P108*
X117475000Y-64008000D03*
G04 #@! TO.P,J3,35*
G04 #@! TO.N,P107*
X120015000Y-64008000D03*
G04 #@! TO.P,J3,34*
G04 #@! TO.N,P106*
X117475000Y-66548000D03*
G04 #@! TO.P,J3,33*
G04 #@! TO.N,P105*
X120015000Y-66548000D03*
G04 #@! TO.P,J3,32*
G04 #@! TO.N,P104*
X117475000Y-69088000D03*
G04 #@! TO.P,J3,31*
G04 #@! TO.N,P103*
X120015000Y-69088000D03*
G04 #@! TO.P,J3,30*
G04 #@! TO.N,P102*
X117475000Y-71628000D03*
G04 #@! TO.P,J3,29*
G04 #@! TO.N,P101*
X120015000Y-71628000D03*
G04 #@! TO.P,J3,28*
G04 #@! TO.N,P100*
X117475000Y-74168000D03*
G04 #@! TO.P,J3,27*
G04 #@! TO.N,P99*
X120015000Y-74168000D03*
G04 #@! TO.P,J3,26*
G04 #@! TO.N,P98*
X117475000Y-76708000D03*
G04 #@! TO.P,J3,25*
G04 #@! TO.N,P97*
X120015000Y-76708000D03*
G04 #@! TO.P,J3,24*
G04 #@! TO.N,P96*
X117475000Y-79248000D03*
G04 #@! TO.P,J3,23*
G04 #@! TO.N,P95*
X120015000Y-79248000D03*
G04 #@! TO.P,J3,22*
G04 #@! TO.N,P94*
X117475000Y-81788000D03*
G04 #@! TO.P,J3,21*
G04 #@! TO.N,P93*
X120015000Y-81788000D03*
G04 #@! TO.P,J3,20*
G04 #@! TO.N,P92*
X117475000Y-84328000D03*
G04 #@! TO.P,J3,19*
G04 #@! TO.N,P91*
X120015000Y-84328000D03*
G04 #@! TO.P,J3,18*
G04 #@! TO.N,P90*
X117475000Y-86868000D03*
G04 #@! TO.P,J3,17*
G04 #@! TO.N,P89*
X120015000Y-86868000D03*
G04 #@! TO.P,J3,16*
G04 #@! TO.N,P88*
X117475000Y-89408000D03*
G04 #@! TO.P,J3,15*
G04 #@! TO.N,P87*
X120015000Y-89408000D03*
G04 #@! TO.P,J3,14*
G04 #@! TO.N,P86*
X117475000Y-91948000D03*
G04 #@! TO.P,J3,13*
G04 #@! TO.N,P85*
X120015000Y-91948000D03*
G04 #@! TO.P,J3,12*
G04 #@! TO.N,P84*
X117475000Y-94488000D03*
G04 #@! TO.P,J3,11*
G04 #@! TO.N,P83*
X120015000Y-94488000D03*
G04 #@! TO.P,J3,10*
G04 #@! TO.N,P82*
X117475000Y-97028000D03*
G04 #@! TO.P,J3,9*
G04 #@! TO.N,P81*
X120015000Y-97028000D03*
G04 #@! TO.P,J3,8*
G04 #@! TO.N,P80*
X117475000Y-99568000D03*
G04 #@! TO.P,J3,7*
G04 #@! TO.N,P79*
X120015000Y-99568000D03*
G04 #@! TO.P,J3,6*
G04 #@! TO.N,P78*
X117475000Y-102108000D03*
G04 #@! TO.P,J3,5*
G04 #@! TO.N,P77*
X120015000Y-102108000D03*
G04 #@! TO.P,J3,4*
G04 #@! TO.N,P76*
X117475000Y-104648000D03*
G04 #@! TO.P,J3,3*
G04 #@! TO.N,P75*
X120015000Y-104648000D03*
G04 #@! TO.P,J3,2*
G04 #@! TO.N,P74*
X117475000Y-107188000D03*
D11*
G04 #@! TO.P,J3,1*
G04 #@! TO.N,P73*
X120015000Y-107188000D03*
G04 #@! TD*
G04 #@! TO.P,J4,1*
G04 #@! TO.N,P109*
X114046000Y-58039000D03*
D10*
G04 #@! TO.P,J4,2*
G04 #@! TO.N,P110*
X114046000Y-60579000D03*
G04 #@! TO.P,J4,3*
G04 #@! TO.N,P111*
X111506000Y-58039000D03*
G04 #@! TO.P,J4,4*
G04 #@! TO.N,P112*
X111506000Y-60579000D03*
G04 #@! TO.P,J4,5*
G04 #@! TO.N,P113*
X108966000Y-58039000D03*
G04 #@! TO.P,J4,6*
G04 #@! TO.N,P114*
X108966000Y-60579000D03*
G04 #@! TO.P,J4,7*
G04 #@! TO.N,P115*
X106426000Y-58039000D03*
G04 #@! TO.P,J4,8*
G04 #@! TO.N,P116*
X106426000Y-60579000D03*
G04 #@! TO.P,J4,9*
G04 #@! TO.N,P117*
X103886000Y-58039000D03*
G04 #@! TO.P,J4,10*
G04 #@! TO.N,P118*
X103886000Y-60579000D03*
G04 #@! TO.P,J4,11*
G04 #@! TO.N,P119*
X101346000Y-58039000D03*
G04 #@! TO.P,J4,12*
G04 #@! TO.N,P120*
X101346000Y-60579000D03*
G04 #@! TO.P,J4,13*
G04 #@! TO.N,P121*
X98806000Y-58039000D03*
G04 #@! TO.P,J4,14*
G04 #@! TO.N,P122*
X98806000Y-60579000D03*
G04 #@! TO.P,J4,15*
G04 #@! TO.N,P123*
X96266000Y-58039000D03*
G04 #@! TO.P,J4,16*
G04 #@! TO.N,P124*
X96266000Y-60579000D03*
G04 #@! TO.P,J4,17*
G04 #@! TO.N,P125*
X93726000Y-58039000D03*
G04 #@! TO.P,J4,18*
G04 #@! TO.N,P126*
X93726000Y-60579000D03*
G04 #@! TO.P,J4,19*
G04 #@! TO.N,P127*
X91186000Y-58039000D03*
G04 #@! TO.P,J4,20*
G04 #@! TO.N,P128*
X91186000Y-60579000D03*
G04 #@! TO.P,J4,21*
G04 #@! TO.N,P129*
X88646000Y-58039000D03*
G04 #@! TO.P,J4,22*
G04 #@! TO.N,P130*
X88646000Y-60579000D03*
G04 #@! TO.P,J4,23*
G04 #@! TO.N,P131*
X86106000Y-58039000D03*
G04 #@! TO.P,J4,24*
G04 #@! TO.N,P132*
X86106000Y-60579000D03*
G04 #@! TO.P,J4,25*
G04 #@! TO.N,P133*
X83566000Y-58039000D03*
G04 #@! TO.P,J4,26*
G04 #@! TO.N,P134*
X83566000Y-60579000D03*
G04 #@! TO.P,J4,27*
G04 #@! TO.N,P135*
X81026000Y-58039000D03*
G04 #@! TO.P,J4,28*
G04 #@! TO.N,P136*
X81026000Y-60579000D03*
G04 #@! TO.P,J4,29*
G04 #@! TO.N,P137*
X78486000Y-58039000D03*
G04 #@! TO.P,J4,30*
G04 #@! TO.N,P138*
X78486000Y-60579000D03*
G04 #@! TO.P,J4,31*
G04 #@! TO.N,P139*
X75946000Y-58039000D03*
G04 #@! TO.P,J4,32*
G04 #@! TO.N,P140*
X75946000Y-60579000D03*
G04 #@! TO.P,J4,33*
G04 #@! TO.N,P141*
X73406000Y-58039000D03*
G04 #@! TO.P,J4,34*
G04 #@! TO.N,P142*
X73406000Y-60579000D03*
G04 #@! TO.P,J4,35*
G04 #@! TO.N,P143*
X70866000Y-58039000D03*
G04 #@! TO.P,J4,36*
G04 #@! TO.N,P144*
X70866000Y-60579000D03*
G04 #@! TD*
D12*
G04 #@! TO.P,U1,100*
G04 #@! TO.N,P12*
X84556000Y-79598000D03*
G04 #@! TO.P,U1,99*
G04 #@! TO.N,P13*
X84556000Y-80098000D03*
G04 #@! TO.P,U1,98*
G04 #@! TO.N,P14*
X84556000Y-80598000D03*
G04 #@! TO.P,U1,97*
G04 #@! TO.N,P15*
X84556000Y-81098000D03*
G04 #@! TO.P,U1,96*
G04 #@! TO.N,P16*
X84556000Y-81598000D03*
G04 #@! TO.P,U1,95*
G04 #@! TO.N,P17*
X84556000Y-82098000D03*
G04 #@! TO.P,U1,94*
G04 #@! TO.N,P18*
X84556000Y-82598000D03*
G04 #@! TO.P,U1,93*
G04 #@! TO.N,P19*
X84556000Y-83098000D03*
G04 #@! TO.P,U1,92*
G04 #@! TO.N,P20*
X84556000Y-83598000D03*
G04 #@! TO.P,U1,91*
G04 #@! TO.N,P21*
X84556000Y-84098000D03*
G04 #@! TO.P,U1,90*
G04 #@! TO.N,P22*
X84556000Y-84598000D03*
G04 #@! TO.P,U1,89*
G04 #@! TO.N,P23*
X84556000Y-85098000D03*
G04 #@! TO.P,U1,88*
G04 #@! TO.N,P24*
X84556000Y-85598000D03*
G04 #@! TO.P,U1,87*
G04 #@! TO.N,P25*
X84556000Y-86098000D03*
G04 #@! TO.P,U1,86*
G04 #@! TO.N,P26*
X84556000Y-86598000D03*
G04 #@! TO.P,U1,85*
G04 #@! TO.N,P27*
X84556000Y-87098000D03*
G04 #@! TO.P,U1,84*
G04 #@! TO.N,P28*
X84556000Y-87598000D03*
G04 #@! TO.P,U1,83*
G04 #@! TO.N,P29*
X84556000Y-88098000D03*
G04 #@! TO.P,U1,82*
G04 #@! TO.N,P30*
X84556000Y-88598000D03*
G04 #@! TO.P,U1,81*
G04 #@! TO.N,P31*
X84556000Y-89098000D03*
G04 #@! TO.P,U1,80*
G04 #@! TO.N,P32*
X84556000Y-89598000D03*
G04 #@! TO.P,U1,79*
G04 #@! TO.N,P33*
X84556000Y-90098000D03*
G04 #@! TO.P,U1,78*
G04 #@! TO.N,P34*
X84556000Y-90598000D03*
G04 #@! TO.P,U1,77*
G04 #@! TO.N,P35*
X84556000Y-91098000D03*
G04 #@! TO.P,U1,76*
G04 #@! TO.N,P36*
X84556000Y-91598000D03*
D13*
G04 #@! TO.P,U1,75*
G04 #@! TO.N,P48*
X86456000Y-93498000D03*
G04 #@! TO.P,U1,74*
G04 #@! TO.N,P49*
X86956000Y-93498000D03*
G04 #@! TO.P,U1,73*
G04 #@! TO.N,P50*
X87456000Y-93498000D03*
G04 #@! TO.P,U1,72*
G04 #@! TO.N,P51*
X87956000Y-93498000D03*
G04 #@! TO.P,U1,71*
G04 #@! TO.N,P52*
X88456000Y-93498000D03*
G04 #@! TO.P,U1,70*
G04 #@! TO.N,P53*
X88956000Y-93498000D03*
G04 #@! TO.P,U1,69*
G04 #@! TO.N,P54*
X89456000Y-93498000D03*
G04 #@! TO.P,U1,68*
G04 #@! TO.N,P55*
X89956000Y-93498000D03*
G04 #@! TO.P,U1,67*
G04 #@! TO.N,P56*
X90456000Y-93498000D03*
G04 #@! TO.P,U1,66*
G04 #@! TO.N,P57*
X90956000Y-93498000D03*
G04 #@! TO.P,U1,65*
G04 #@! TO.N,P58*
X91456000Y-93498000D03*
G04 #@! TO.P,U1,64*
G04 #@! TO.N,P59*
X91956000Y-93498000D03*
G04 #@! TO.P,U1,63*
G04 #@! TO.N,P60*
X92456000Y-93498000D03*
G04 #@! TO.P,U1,62*
G04 #@! TO.N,P61*
X92956000Y-93498000D03*
G04 #@! TO.P,U1,61*
G04 #@! TO.N,P62*
X93456000Y-93498000D03*
G04 #@! TO.P,U1,60*
G04 #@! TO.N,P63*
X93956000Y-93498000D03*
G04 #@! TO.P,U1,59*
G04 #@! TO.N,P64*
X94456000Y-93498000D03*
G04 #@! TO.P,U1,58*
G04 #@! TO.N,P65*
X94956000Y-93498000D03*
G04 #@! TO.P,U1,57*
G04 #@! TO.N,P66*
X95456000Y-93498000D03*
G04 #@! TO.P,U1,56*
G04 #@! TO.N,P67*
X95956000Y-93498000D03*
G04 #@! TO.P,U1,55*
G04 #@! TO.N,P68*
X96456000Y-93498000D03*
G04 #@! TO.P,U1,54*
G04 #@! TO.N,P69*
X96956000Y-93498000D03*
G04 #@! TO.P,U1,53*
G04 #@! TO.N,P70*
X97456000Y-93498000D03*
G04 #@! TO.P,U1,52*
G04 #@! TO.N,P71*
X97956000Y-93498000D03*
G04 #@! TO.P,U1,51*
G04 #@! TO.N,P72*
X98456000Y-93498000D03*
D12*
G04 #@! TO.P,U1,50*
G04 #@! TO.N,P84*
X100356000Y-91598000D03*
G04 #@! TO.P,U1,49*
G04 #@! TO.N,P85*
X100356000Y-91098000D03*
G04 #@! TO.P,U1,48*
G04 #@! TO.N,P86*
X100356000Y-90598000D03*
G04 #@! TO.P,U1,47*
G04 #@! TO.N,P87*
X100356000Y-90098000D03*
G04 #@! TO.P,U1,46*
G04 #@! TO.N,P88*
X100356000Y-89598000D03*
G04 #@! TO.P,U1,45*
G04 #@! TO.N,P89*
X100356000Y-89098000D03*
G04 #@! TO.P,U1,44*
G04 #@! TO.N,P90*
X100356000Y-88598000D03*
G04 #@! TO.P,U1,43*
G04 #@! TO.N,P91*
X100356000Y-88098000D03*
G04 #@! TO.P,U1,42*
G04 #@! TO.N,P92*
X100356000Y-87598000D03*
G04 #@! TO.P,U1,41*
G04 #@! TO.N,P93*
X100356000Y-87098000D03*
G04 #@! TO.P,U1,40*
G04 #@! TO.N,P94*
X100356000Y-86598000D03*
G04 #@! TO.P,U1,39*
G04 #@! TO.N,P95*
X100356000Y-86098000D03*
G04 #@! TO.P,U1,38*
G04 #@! TO.N,P96*
X100356000Y-85598000D03*
G04 #@! TO.P,U1,37*
G04 #@! TO.N,P97*
X100356000Y-85098000D03*
G04 #@! TO.P,U1,36*
G04 #@! TO.N,P98*
X100356000Y-84598000D03*
G04 #@! TO.P,U1,35*
G04 #@! TO.N,P99*
X100356000Y-84098000D03*
G04 #@! TO.P,U1,34*
G04 #@! TO.N,P100*
X100356000Y-83598000D03*
G04 #@! TO.P,U1,33*
G04 #@! TO.N,P101*
X100356000Y-83098000D03*
G04 #@! TO.P,U1,32*
G04 #@! TO.N,P102*
X100356000Y-82598000D03*
G04 #@! TO.P,U1,31*
G04 #@! TO.N,P103*
X100356000Y-82098000D03*
G04 #@! TO.P,U1,30*
G04 #@! TO.N,P104*
X100356000Y-81598000D03*
G04 #@! TO.P,U1,29*
G04 #@! TO.N,P105*
X100356000Y-81098000D03*
G04 #@! TO.P,U1,28*
G04 #@! TO.N,P106*
X100356000Y-80598000D03*
G04 #@! TO.P,U1,27*
G04 #@! TO.N,P107*
X100356000Y-80098000D03*
G04 #@! TO.P,U1,26*
G04 #@! TO.N,P108*
X100356000Y-79598000D03*
D13*
G04 #@! TO.P,U1,25*
G04 #@! TO.N,P120*
X98456000Y-77698000D03*
G04 #@! TO.P,U1,24*
G04 #@! TO.N,P121*
X97956000Y-77698000D03*
G04 #@! TO.P,U1,23*
G04 #@! TO.N,P122*
X97456000Y-77698000D03*
G04 #@! TO.P,U1,22*
G04 #@! TO.N,P123*
X96956000Y-77698000D03*
G04 #@! TO.P,U1,21*
G04 #@! TO.N,P124*
X96456000Y-77698000D03*
G04 #@! TO.P,U1,20*
G04 #@! TO.N,P125*
X95956000Y-77698000D03*
G04 #@! TO.P,U1,19*
G04 #@! TO.N,P126*
X95456000Y-77698000D03*
G04 #@! TO.P,U1,18*
G04 #@! TO.N,P127*
X94956000Y-77698000D03*
G04 #@! TO.P,U1,17*
G04 #@! TO.N,P128*
X94456000Y-77698000D03*
G04 #@! TO.P,U1,16*
G04 #@! TO.N,P129*
X93956000Y-77698000D03*
G04 #@! TO.P,U1,15*
G04 #@! TO.N,P130*
X93456000Y-77698000D03*
G04 #@! TO.P,U1,14*
G04 #@! TO.N,P131*
X92956000Y-77698000D03*
G04 #@! TO.P,U1,13*
G04 #@! TO.N,P132*
X92456000Y-77698000D03*
G04 #@! TO.P,U1,12*
G04 #@! TO.N,P133*
X91956000Y-77698000D03*
G04 #@! TO.P,U1,11*
G04 #@! TO.N,P134*
X91456000Y-77698000D03*
G04 #@! TO.P,U1,10*
G04 #@! TO.N,P135*
X90956000Y-77698000D03*
G04 #@! TO.P,U1,9*
G04 #@! TO.N,P136*
X90456000Y-77698000D03*
G04 #@! TO.P,U1,8*
G04 #@! TO.N,P137*
X89956000Y-77698000D03*
G04 #@! TO.P,U1,7*
G04 #@! TO.N,P138*
X89456000Y-77698000D03*
G04 #@! TO.P,U1,6*
G04 #@! TO.N,P139*
X88956000Y-77698000D03*
G04 #@! TO.P,U1,5*
G04 #@! TO.N,P140*
X88456000Y-77698000D03*
G04 #@! TO.P,U1,4*
G04 #@! TO.N,P141*
X87956000Y-77698000D03*
G04 #@! TO.P,U1,3*
G04 #@! TO.N,P142*
X87456000Y-77698000D03*
G04 #@! TO.P,U1,2*
G04 #@! TO.N,P143*
X86956000Y-77698000D03*
G04 #@! TO.P,U1,1*
G04 #@! TO.N,P144*
X86456000Y-77698000D03*
G04 #@! TD*
D14*
G04 #@! TO.P,REF\002A\002A,1*
G04 #@! TO.N,N/C*
X64897000Y-58039000D03*
G04 #@! TD*
G04 #@! TO.P,REF\002A\002A,1*
G04 #@! TO.N,N/C*
X64897000Y-113157000D03*
G04 #@! TD*
G04 #@! TO.P,REF\002A\002A,1*
G04 #@! TO.N,N/C*
X120015000Y-113157000D03*
G04 #@! TD*
G04 #@! TO.P,REF\002A\002A,1*
G04 #@! TO.N,N/C*
X120015000Y-58039000D03*
G04 #@! TD*
D15*
G04 #@! TO.N,P36*
X68639081Y-107188000D02*
X67437000Y-107188000D01*
X69360000Y-107188000D02*
X68639081Y-107188000D01*
X84556000Y-91992000D02*
X69360000Y-107188000D01*
X84556000Y-91598000D02*
X84556000Y-91992000D01*
G04 #@! TO.N,P35*
X83552000Y-91098000D02*
X84556000Y-91098000D01*
X68824999Y-105825001D02*
X83552000Y-91098000D01*
X66259999Y-105825001D02*
X68824999Y-105825001D01*
X64897000Y-107188000D02*
X66259999Y-105825001D01*
G04 #@! TO.N,P34*
X81487000Y-90598000D02*
X67437000Y-104648000D01*
X84556000Y-90598000D02*
X81487000Y-90598000D01*
G04 #@! TO.N,P33*
X83552000Y-90098000D02*
X84556000Y-90098000D01*
X81344934Y-90098000D02*
X83552000Y-90098000D01*
X68157933Y-103285001D02*
X81344934Y-90098000D01*
X66259999Y-103285001D02*
X68157933Y-103285001D01*
X64897000Y-104648000D02*
X66259999Y-103285001D01*
G04 #@! TO.N,P32*
X79947000Y-89598000D02*
X67310000Y-102235000D01*
X84556000Y-89598000D02*
X79947000Y-89598000D01*
X67310000Y-102235000D02*
X67437000Y-102108000D01*
G04 #@! TO.N,P31*
X83552000Y-89098000D02*
X84556000Y-89098000D01*
X79648962Y-89098000D02*
X83552000Y-89098000D01*
X68001961Y-100745001D02*
X79648962Y-89098000D01*
X66259999Y-100745001D02*
X68001961Y-100745001D01*
X64897000Y-102108000D02*
X66259999Y-100745001D01*
G04 #@! TO.N,P30*
X78407000Y-88598000D02*
X67437000Y-99568000D01*
X84556000Y-88598000D02*
X78407000Y-88598000D01*
G04 #@! TO.N,P29*
X84523001Y-88065001D02*
X84556000Y-88098000D01*
X78297933Y-88065001D02*
X84523001Y-88065001D01*
X68157933Y-98205001D02*
X78297933Y-88065001D01*
X66259999Y-98205001D02*
X68157933Y-98205001D01*
X64897000Y-99568000D02*
X66259999Y-98205001D01*
G04 #@! TO.N,P28*
X76867000Y-87598000D02*
X67437000Y-97028000D01*
X84556000Y-87598000D02*
X76867000Y-87598000D01*
G04 #@! TO.N,P27*
X83552000Y-87098000D02*
X84556000Y-87098000D01*
X76568962Y-87098000D02*
X83552000Y-87098000D01*
X68001961Y-95665001D02*
X76568962Y-87098000D01*
X66259999Y-95665001D02*
X68001961Y-95665001D01*
X64897000Y-97028000D02*
X66259999Y-95665001D01*
G04 #@! TO.N,P26*
X75327000Y-86598000D02*
X67437000Y-94488000D01*
X84556000Y-86598000D02*
X75327000Y-86598000D01*
G04 #@! TO.N,P25*
X83552000Y-86098000D02*
X84556000Y-86098000D01*
X75028962Y-86098000D02*
X83552000Y-86098000D01*
X68001961Y-93125001D02*
X75028962Y-86098000D01*
X66259999Y-93125001D02*
X68001961Y-93125001D01*
X64897000Y-94488000D02*
X66259999Y-93125001D01*
G04 #@! TO.N,P24*
X73787000Y-85598000D02*
X67437000Y-91948000D01*
X84556000Y-85598000D02*
X73787000Y-85598000D01*
G04 #@! TO.N,P23*
X84523001Y-85065001D02*
X84556000Y-85098000D01*
X73677933Y-85065001D02*
X84523001Y-85065001D01*
X68157933Y-90585001D02*
X73677933Y-85065001D01*
X66259999Y-90585001D02*
X68157933Y-90585001D01*
X64897000Y-91948000D02*
X66259999Y-90585001D01*
G04 #@! TO.N,P22*
X72247000Y-84598000D02*
X67437000Y-89408000D01*
X84556000Y-84598000D02*
X72247000Y-84598000D01*
G04 #@! TO.N,P21*
X83552000Y-84098000D02*
X84556000Y-84098000D01*
X72104934Y-84098000D02*
X83552000Y-84098000D01*
X68157933Y-88045001D02*
X72104934Y-84098000D01*
X66259999Y-88045001D02*
X68157933Y-88045001D01*
X64897000Y-89408000D02*
X66259999Y-88045001D01*
G04 #@! TO.N,P20*
X70707000Y-83598000D02*
X67437000Y-86868000D01*
X84556000Y-83598000D02*
X70707000Y-83598000D01*
G04 #@! TO.N,P19*
X83552000Y-83098000D02*
X84556000Y-83098000D01*
X70564934Y-83098000D02*
X83552000Y-83098000D01*
X68157933Y-85505001D02*
X70564934Y-83098000D01*
X66259999Y-85505001D02*
X68157933Y-85505001D01*
X64897000Y-86868000D02*
X66259999Y-85505001D01*
G04 #@! TO.N,P18*
X68286999Y-83478001D02*
X67437000Y-84328000D01*
X69134001Y-82630999D02*
X68286999Y-83478001D01*
X83835001Y-82630999D02*
X69134001Y-82630999D01*
X83868000Y-82598000D02*
X83835001Y-82630999D01*
X84556000Y-82598000D02*
X83868000Y-82598000D01*
G04 #@! TO.N,P17*
X83552000Y-82098000D02*
X84556000Y-82098000D01*
X68868962Y-82098000D02*
X83552000Y-82098000D01*
X68001961Y-82965001D02*
X68868962Y-82098000D01*
X66259999Y-82965001D02*
X68001961Y-82965001D01*
X64897000Y-84328000D02*
X66259999Y-82965001D01*
G04 #@! TO.N,P16*
X67627000Y-81598000D02*
X67437000Y-81788000D01*
X84556000Y-81598000D02*
X67627000Y-81598000D01*
G04 #@! TO.N,P15*
X83552000Y-81098000D02*
X84556000Y-81098000D01*
X68644934Y-81098000D02*
X83552000Y-81098000D01*
X68157933Y-80610999D02*
X68644934Y-81098000D01*
X66074001Y-80610999D02*
X68157933Y-80610999D01*
X64897000Y-81788000D02*
X66074001Y-80610999D01*
G04 #@! TO.N,P14*
X68787000Y-80598000D02*
X67437000Y-79248000D01*
X84556000Y-80598000D02*
X68787000Y-80598000D01*
G04 #@! TO.N,P13*
X70184934Y-80098000D02*
X84556000Y-80098000D01*
X68157933Y-78070999D02*
X70184934Y-80098000D01*
X66074001Y-78070999D02*
X68157933Y-78070999D01*
X64897000Y-79248000D02*
X66074001Y-78070999D01*
G04 #@! TO.N,P12*
X70327000Y-79598000D02*
X67437000Y-76708000D01*
X84556000Y-79598000D02*
X70327000Y-79598000D01*
G04 #@! TO.N,P48*
X86456000Y-107727000D02*
X83566000Y-110617000D01*
X86456000Y-93498000D02*
X86456000Y-107727000D01*
G04 #@! TO.N,P49*
X86956000Y-94502000D02*
X86956000Y-93498000D01*
X86956000Y-107869066D02*
X86956000Y-94502000D01*
X84928999Y-109896067D02*
X86956000Y-107869066D01*
X84928999Y-111979999D02*
X84928999Y-109896067D01*
X86106000Y-113157000D02*
X84928999Y-111979999D01*
G04 #@! TO.N,P50*
X87456000Y-109267000D02*
X87456000Y-93498000D01*
X86106000Y-110617000D02*
X87456000Y-109267000D01*
G04 #@! TO.N,P51*
X87796001Y-112307001D02*
X88646000Y-113157000D01*
X87468999Y-111979999D02*
X87796001Y-112307001D01*
X87468999Y-110052039D02*
X87468999Y-111979999D01*
X87956000Y-109565038D02*
X87468999Y-110052039D01*
X87956000Y-93498000D02*
X87956000Y-109565038D01*
G04 #@! TO.N,P52*
X88456000Y-94502000D02*
X88456000Y-93498000D01*
X88456000Y-109224919D02*
X88456000Y-94502000D01*
X88646000Y-109414919D02*
X88456000Y-109224919D01*
X88646000Y-110617000D02*
X88646000Y-109414919D01*
G04 #@! TO.N,P53*
X88923001Y-93530999D02*
X88956000Y-93498000D01*
X88923001Y-109049854D02*
X88923001Y-93530999D01*
X89823001Y-109949854D02*
X88923001Y-109049854D01*
X89823001Y-111794001D02*
X89823001Y-109949854D01*
X91186000Y-113157000D02*
X89823001Y-111794001D01*
G04 #@! TO.N,P54*
X89456000Y-108887000D02*
X91186000Y-110617000D01*
X89456000Y-93498000D02*
X89456000Y-108887000D01*
G04 #@! TO.N,P55*
X89956000Y-94502000D02*
X89956000Y-93498000D01*
X89956000Y-107489066D02*
X89956000Y-94502000D01*
X92363001Y-109896067D02*
X89956000Y-107489066D01*
X92363001Y-111794001D02*
X92363001Y-109896067D01*
X93726000Y-113157000D02*
X92363001Y-111794001D01*
G04 #@! TO.N,P56*
X90456000Y-107347000D02*
X93726000Y-110617000D01*
X90456000Y-93498000D02*
X90456000Y-107347000D01*
G04 #@! TO.N,P57*
X90956000Y-94502000D02*
X90956000Y-93498000D01*
X90956000Y-106105038D02*
X90956000Y-94502000D01*
X94903001Y-110052039D02*
X90956000Y-106105038D01*
X94903001Y-111794001D02*
X94903001Y-110052039D01*
X96266000Y-113157000D02*
X94903001Y-111794001D01*
G04 #@! TO.N,P58*
X91456000Y-105807000D02*
X96266000Y-110617000D01*
X91456000Y-93498000D02*
X91456000Y-105807000D01*
G04 #@! TO.N,P59*
X91956000Y-94502000D02*
X91956000Y-93498000D01*
X91956000Y-104409066D02*
X91956000Y-94502000D01*
X97443001Y-109896067D02*
X91956000Y-104409066D01*
X97443001Y-111794001D02*
X97443001Y-109896067D01*
X98806000Y-113157000D02*
X97443001Y-111794001D01*
G04 #@! TO.N,P60*
X92456000Y-104267000D02*
X98806000Y-110617000D01*
X92456000Y-93498000D02*
X92456000Y-104267000D01*
G04 #@! TO.N,P61*
X92923001Y-93530999D02*
X92956000Y-93498000D01*
X92923001Y-102836067D02*
X92923001Y-93530999D01*
X99983001Y-109896067D02*
X92923001Y-102836067D01*
X99983001Y-111794001D02*
X99983001Y-109896067D01*
X101346000Y-113157000D02*
X99983001Y-111794001D01*
G04 #@! TO.N,P62*
X93456000Y-102727000D02*
X101346000Y-110617000D01*
X93456000Y-93498000D02*
X93456000Y-102727000D01*
G04 #@! TO.N,P63*
X93923001Y-93530999D02*
X93956000Y-93498000D01*
X93923001Y-101296067D02*
X93923001Y-93530999D01*
X102523001Y-109896067D02*
X93923001Y-101296067D01*
X102523001Y-111794001D02*
X102523001Y-109896067D01*
X103886000Y-113157000D02*
X102523001Y-111794001D01*
G04 #@! TO.N,P64*
X94456000Y-101187000D02*
X103886000Y-110617000D01*
X94456000Y-93498000D02*
X94456000Y-101187000D01*
G04 #@! TO.N,P65*
X94923001Y-93530999D02*
X94956000Y-93498000D01*
X94923001Y-99756067D02*
X94923001Y-93530999D01*
X105063001Y-109896067D02*
X94923001Y-99756067D01*
X105063001Y-111794001D02*
X105063001Y-109896067D01*
X106426000Y-113157000D02*
X105063001Y-111794001D01*
G04 #@! TO.N,P66*
X105576001Y-109767001D02*
X106426000Y-110617000D01*
X95423001Y-99614001D02*
X105576001Y-109767001D01*
X95423001Y-94314999D02*
X95423001Y-99614001D01*
X95456000Y-94282000D02*
X95423001Y-94314999D01*
X95456000Y-93498000D02*
X95456000Y-94282000D01*
G04 #@! TO.N,P67*
X95885000Y-98178066D02*
X95885000Y-94488000D01*
X107603001Y-109896067D02*
X95885000Y-98178066D01*
X107603001Y-111794001D02*
X107603001Y-109896067D01*
X108966000Y-113157000D02*
X107603001Y-111794001D01*
G04 #@! TO.N,P68*
X96456000Y-98107000D02*
X108966000Y-110617000D01*
X96456000Y-93498000D02*
X96456000Y-98107000D01*
G04 #@! TO.N,P69*
X96956000Y-94502000D02*
X96956000Y-93498000D01*
X96956000Y-96709066D02*
X96956000Y-94502000D01*
X110143001Y-109896067D02*
X96956000Y-96709066D01*
X110143001Y-111794001D02*
X110143001Y-109896067D01*
X111506000Y-113157000D02*
X110143001Y-111794001D01*
G04 #@! TO.N,P70*
X97456000Y-96567000D02*
X97456000Y-93498000D01*
X111506000Y-110617000D02*
X97456000Y-96567000D01*
G04 #@! TO.N,P71*
X113196001Y-112307001D02*
X114046000Y-113157000D01*
X112868999Y-111979999D02*
X113196001Y-112307001D01*
X112868999Y-110238037D02*
X112868999Y-111979999D01*
X97956000Y-95325038D02*
X112868999Y-110238037D01*
X97956000Y-93498000D02*
X97956000Y-95325038D01*
G04 #@! TO.N,P72*
X114046000Y-109414919D02*
X114046000Y-110617000D01*
X114046000Y-108694000D02*
X114046000Y-109414919D01*
X98850000Y-93498000D02*
X114046000Y-108694000D01*
X98456000Y-93498000D02*
X98850000Y-93498000D01*
G04 #@! TO.N,P108*
X101885000Y-79598000D02*
X100356000Y-79598000D01*
X117475000Y-64008000D02*
X101885000Y-79598000D01*
G04 #@! TO.N,P107*
X119165001Y-64857999D02*
X120015000Y-64008000D01*
X118837999Y-65185001D02*
X119165001Y-64857999D01*
X116940065Y-65185001D02*
X118837999Y-65185001D01*
X102027066Y-80098000D02*
X116940065Y-65185001D01*
X100356000Y-80098000D02*
X102027066Y-80098000D01*
G04 #@! TO.N,P106*
X103425000Y-80598000D02*
X100356000Y-80598000D01*
X117475000Y-66548000D02*
X103425000Y-80598000D01*
G04 #@! TO.N,P105*
X101360000Y-81098000D02*
X100356000Y-81098000D01*
X103723038Y-81098000D02*
X101360000Y-81098000D01*
X116910039Y-67910999D02*
X103723038Y-81098000D01*
X118652001Y-67910999D02*
X116910039Y-67910999D01*
X120015000Y-66548000D02*
X118652001Y-67910999D01*
G04 #@! TO.N,P104*
X104965000Y-81598000D02*
X117475000Y-69088000D01*
X100356000Y-81598000D02*
X104965000Y-81598000D01*
G04 #@! TO.N,P103*
X101360000Y-82098000D02*
X100356000Y-82098000D01*
X105263038Y-82098000D02*
X101360000Y-82098000D01*
X116910039Y-70450999D02*
X105263038Y-82098000D01*
X118652001Y-70450999D02*
X116910039Y-70450999D01*
X120015000Y-69088000D02*
X118652001Y-70450999D01*
G04 #@! TO.N,P102*
X106505000Y-82598000D02*
X117475000Y-71628000D01*
X100356000Y-82598000D02*
X106505000Y-82598000D01*
G04 #@! TO.N,P101*
X101360000Y-83098000D02*
X100356000Y-83098000D01*
X106647066Y-83098000D02*
X101360000Y-83098000D01*
X116754067Y-72990999D02*
X106647066Y-83098000D01*
X118652001Y-72990999D02*
X116754067Y-72990999D01*
X120015000Y-71628000D02*
X118652001Y-72990999D01*
G04 #@! TO.N,P100*
X108045000Y-83598000D02*
X117475000Y-74168000D01*
X100356000Y-83598000D02*
X108045000Y-83598000D01*
G04 #@! TO.N,P99*
X108389028Y-84052010D02*
X101219000Y-84052010D01*
X117096037Y-75345001D02*
X108389028Y-84052010D01*
X118837999Y-75345001D02*
X117096037Y-75345001D01*
X120015000Y-74168000D02*
X118837999Y-75345001D01*
G04 #@! TO.N,P98*
X109585000Y-84598000D02*
X117475000Y-76708000D01*
X100356000Y-84598000D02*
X109585000Y-84598000D01*
G04 #@! TO.N,P97*
X109773056Y-85052010D02*
X101219000Y-85052010D01*
X116940065Y-77885001D02*
X109773056Y-85052010D01*
X118837999Y-77885001D02*
X116940065Y-77885001D01*
X120015000Y-76708000D02*
X118837999Y-77885001D01*
G04 #@! TO.N,P96*
X111125000Y-85598000D02*
X117475000Y-79248000D01*
X100356000Y-85598000D02*
X111125000Y-85598000D01*
G04 #@! TO.N,P95*
X101360000Y-86098000D02*
X100356000Y-86098000D01*
X111267066Y-86098000D02*
X101360000Y-86098000D01*
X116940065Y-80425001D02*
X111267066Y-86098000D01*
X118837999Y-80425001D02*
X116940065Y-80425001D01*
X120015000Y-79248000D02*
X118837999Y-80425001D01*
G04 #@! TO.N,P94*
X112665000Y-86598000D02*
X117475000Y-81788000D01*
X100356000Y-86598000D02*
X112665000Y-86598000D01*
G04 #@! TO.N,P93*
X101360000Y-87098000D02*
X100356000Y-87098000D01*
X112963038Y-87098000D02*
X101360000Y-87098000D01*
X116910039Y-83150999D02*
X112963038Y-87098000D01*
X118652001Y-83150999D02*
X116910039Y-83150999D01*
X120015000Y-81788000D02*
X118652001Y-83150999D01*
G04 #@! TO.N,P92*
X114205000Y-87598000D02*
X117475000Y-84328000D01*
X100356000Y-87598000D02*
X114205000Y-87598000D01*
G04 #@! TO.N,P91*
X100388999Y-88065001D02*
X100356000Y-88098000D01*
X114380065Y-88065001D02*
X100388999Y-88065001D01*
X116754067Y-85690999D02*
X114380065Y-88065001D01*
X118652001Y-85690999D02*
X116754067Y-85690999D01*
X120015000Y-84328000D02*
X118652001Y-85690999D01*
G04 #@! TO.N,P90*
X115745000Y-88598000D02*
X117475000Y-86868000D01*
X100356000Y-88598000D02*
X115745000Y-88598000D01*
G04 #@! TO.N,P89*
X119165001Y-87717999D02*
X120015000Y-86868000D01*
X118837999Y-88045001D02*
X119165001Y-87717999D01*
X116940066Y-88045001D02*
X118837999Y-88045001D01*
X115887067Y-89098000D02*
X116940066Y-88045001D01*
X100356000Y-89098000D02*
X115887067Y-89098000D01*
G04 #@! TO.N,P88*
X101360000Y-89598000D02*
X100356000Y-89598000D01*
X116029134Y-89598000D02*
X101360000Y-89598000D01*
X116219134Y-89408000D02*
X116029134Y-89598000D01*
X117475000Y-89408000D02*
X116219134Y-89408000D01*
G04 #@! TO.N,P87*
X119165001Y-90257999D02*
X120015000Y-89408000D01*
X118837999Y-90585001D02*
X119165001Y-90257999D01*
X116910039Y-90585001D02*
X118837999Y-90585001D01*
X116423038Y-90098000D02*
X116910039Y-90585001D01*
X100356000Y-90098000D02*
X116423038Y-90098000D01*
G04 #@! TO.N,P86*
X116125000Y-90598000D02*
X100356000Y-90598000D01*
X117475000Y-91948000D02*
X116125000Y-90598000D01*
G04 #@! TO.N,P85*
X101360000Y-91098000D02*
X100356000Y-91098000D01*
X114727066Y-91098000D02*
X101360000Y-91098000D01*
X116754067Y-93125001D02*
X114727066Y-91098000D01*
X118837999Y-93125001D02*
X116754067Y-93125001D01*
X120015000Y-91948000D02*
X118837999Y-93125001D01*
G04 #@! TO.N,P84*
X114585000Y-91598000D02*
X117475000Y-94488000D01*
X100356000Y-91598000D02*
X114585000Y-91598000D01*
G04 #@! TO.N,P120*
X98456000Y-63469000D02*
X101346000Y-60579000D01*
X98456000Y-77698000D02*
X98456000Y-63469000D01*
G04 #@! TO.N,P121*
X97956000Y-76694000D02*
X97956000Y-77698000D01*
X97956000Y-63326934D02*
X97956000Y-76694000D01*
X99983001Y-61299933D02*
X97956000Y-63326934D01*
X99983001Y-59216001D02*
X99983001Y-61299933D01*
X98806000Y-58039000D02*
X99983001Y-59216001D01*
G04 #@! TO.N,P122*
X97456000Y-61929000D02*
X98806000Y-60579000D01*
X97456000Y-77698000D02*
X97456000Y-61929000D01*
G04 #@! TO.N,P123*
X96956000Y-61786934D02*
X96956000Y-77698000D01*
X97443001Y-61299933D02*
X96956000Y-61786934D01*
X97443001Y-59216001D02*
X97443001Y-61299933D01*
X96266000Y-58039000D02*
X97443001Y-59216001D01*
G04 #@! TO.N,P124*
X96456000Y-60769000D02*
X96266000Y-60579000D01*
X96456000Y-77698000D02*
X96456000Y-60769000D01*
G04 #@! TO.N,P125*
X95956000Y-76694000D02*
X95956000Y-77698000D01*
X95956000Y-62166934D02*
X95956000Y-76694000D01*
X95088999Y-61299933D02*
X95956000Y-62166934D01*
X95088999Y-59401999D02*
X95088999Y-61299933D01*
X93726000Y-58039000D02*
X95088999Y-59401999D01*
G04 #@! TO.N,P126*
X95456000Y-62309000D02*
X93726000Y-60579000D01*
X95456000Y-77698000D02*
X95456000Y-62309000D01*
G04 #@! TO.N,P127*
X94956000Y-76694000D02*
X94956000Y-77698000D01*
X94956000Y-63706934D02*
X94956000Y-76694000D01*
X92363001Y-61113935D02*
X94956000Y-63706934D01*
X92363001Y-59216001D02*
X92363001Y-61113935D01*
X91186000Y-58039000D02*
X92363001Y-59216001D01*
G04 #@! TO.N,P128*
X94456000Y-63849000D02*
X91186000Y-60579000D01*
X94456000Y-77698000D02*
X94456000Y-63849000D01*
G04 #@! TO.N,P129*
X93956000Y-76694000D02*
X93956000Y-77698000D01*
X93956000Y-65246934D02*
X93956000Y-76694000D01*
X90008999Y-61299933D02*
X93956000Y-65246934D01*
X90008999Y-59401999D02*
X90008999Y-61299933D01*
X88646000Y-58039000D02*
X90008999Y-59401999D01*
G04 #@! TO.N,P130*
X93456000Y-65389000D02*
X88646000Y-60579000D01*
X93456000Y-77698000D02*
X93456000Y-65389000D01*
G04 #@! TO.N,P131*
X92956000Y-76694000D02*
X92956000Y-77698000D01*
X92956000Y-66786934D02*
X92956000Y-76694000D01*
X87468999Y-61299933D02*
X92956000Y-66786934D01*
X87468999Y-59401999D02*
X87468999Y-61299933D01*
X86106000Y-58039000D02*
X87468999Y-59401999D01*
G04 #@! TO.N,P132*
X92456000Y-66929000D02*
X86106000Y-60579000D01*
X92456000Y-77698000D02*
X92456000Y-66929000D01*
G04 #@! TO.N,P133*
X91956000Y-76694000D02*
X91956000Y-77698000D01*
X91956000Y-68326934D02*
X91956000Y-76694000D01*
X84928999Y-61299933D02*
X91956000Y-68326934D01*
X84928999Y-59401999D02*
X84928999Y-61299933D01*
X83566000Y-58039000D02*
X84928999Y-59401999D01*
G04 #@! TO.N,P134*
X91456000Y-68469000D02*
X83566000Y-60579000D01*
X91456000Y-77698000D02*
X91456000Y-68469000D01*
G04 #@! TO.N,P135*
X90956000Y-69710962D02*
X90956000Y-77698000D01*
X82388999Y-61143961D02*
X90956000Y-69710962D01*
X82388999Y-59401999D02*
X82388999Y-61143961D01*
X81026000Y-58039000D02*
X82388999Y-59401999D01*
G04 #@! TO.N,P136*
X90456000Y-70009000D02*
X81026000Y-60579000D01*
X90456000Y-77698000D02*
X90456000Y-70009000D01*
G04 #@! TO.N,P137*
X89956000Y-76694000D02*
X89956000Y-77698000D01*
X89956000Y-71406934D02*
X89956000Y-76694000D01*
X79848999Y-61299933D02*
X89956000Y-71406934D01*
X79848999Y-59401999D02*
X79848999Y-61299933D01*
X78486000Y-58039000D02*
X79848999Y-59401999D01*
G04 #@! TO.N,P138*
X89456000Y-71549000D02*
X78486000Y-60579000D01*
X89456000Y-77698000D02*
X89456000Y-71549000D01*
G04 #@! TO.N,P139*
X77308999Y-61143961D02*
X88956000Y-72790962D01*
X75946000Y-58039000D02*
X77308999Y-59401999D01*
X77308999Y-59401999D02*
X77308999Y-61143961D01*
X88956000Y-77698000D02*
X88956000Y-75438000D01*
X88956000Y-72790962D02*
X88956000Y-75438000D01*
X88956000Y-75438000D02*
X88956000Y-77526000D01*
G04 #@! TO.N,P140*
X88456000Y-73089000D02*
X75946000Y-60579000D01*
X88456000Y-77698000D02*
X88456000Y-73089000D01*
G04 #@! TO.N,P141*
X87956000Y-76694000D02*
X87956000Y-77698000D01*
X87956000Y-74486934D02*
X87956000Y-76694000D01*
X74768999Y-61299933D02*
X87956000Y-74486934D01*
X74768999Y-60163999D02*
X74768999Y-61299933D01*
X74006999Y-59401999D02*
X74768999Y-60163999D01*
X73566918Y-59401999D02*
X74006999Y-59401999D01*
X73406000Y-59241081D02*
X73566918Y-59401999D01*
X73406000Y-58039000D02*
X73406000Y-59241081D01*
G04 #@! TO.N,P142*
X87456000Y-74629000D02*
X73406000Y-60579000D01*
X87456000Y-77698000D02*
X87456000Y-74629000D01*
G04 #@! TO.N,P143*
X86956000Y-76694000D02*
X86956000Y-77698000D01*
X72228999Y-61966999D02*
X86956000Y-76694000D01*
X72228999Y-59401999D02*
X72228999Y-61966999D01*
X70866000Y-58039000D02*
X72228999Y-59401999D01*
G04 #@! TO.N,P144*
X70866000Y-61781081D02*
X70866000Y-60579000D01*
X70866000Y-62502000D02*
X70866000Y-61781081D01*
X86062000Y-77698000D02*
X70866000Y-62502000D01*
X86456000Y-77698000D02*
X86062000Y-77698000D01*
G04 #@! TD*
M02*
