G04 #@! TF.FileFunction,Legend,Top*
%FSLAX46Y46*%
G04 Gerber Fmt 4.6, Leading zero omitted, Abs format (unit mm)*
G04 Created by KiCad (PCBNEW 4.0.1-stable) date 01/18/17 01:46:29*
%MOMM*%
G01*
G04 APERTURE LIST*
%ADD10C,0.100000*%
%ADD11C,0.150000*%
G04 APERTURE END LIST*
D10*
D11*
X154940000Y-66040000D02*
X154940000Y-73660000D01*
X152400000Y-73660000D02*
X152400000Y-66040000D01*
X154940000Y-66040000D02*
X152400000Y-66040000D01*
X152120000Y-76480000D02*
X152120000Y-74930000D01*
X152400000Y-73660000D02*
X154940000Y-73660000D01*
X155220000Y-74930000D02*
X155220000Y-76480000D01*
X155220000Y-76480000D02*
X152120000Y-76480000D01*
X147320000Y-62230000D02*
X147320000Y-67310000D01*
X147320000Y-67310000D02*
X149860000Y-67310000D01*
X149860000Y-67310000D02*
X149860000Y-62230000D01*
X150140000Y-59410000D02*
X150140000Y-60960000D01*
X149860000Y-62230000D02*
X147320000Y-62230000D01*
X147040000Y-60960000D02*
X147040000Y-59410000D01*
X147040000Y-59410000D02*
X150140000Y-59410000D01*
X152400000Y-93980000D02*
X152400000Y-99060000D01*
X152400000Y-99060000D02*
X154940000Y-99060000D01*
X154940000Y-99060000D02*
X154940000Y-93980000D01*
X155220000Y-91160000D02*
X155220000Y-92710000D01*
X154940000Y-93980000D02*
X152400000Y-93980000D01*
X152120000Y-92710000D02*
X152120000Y-91160000D01*
X152120000Y-91160000D02*
X155220000Y-91160000D01*
X149860000Y-104140000D02*
X149860000Y-93980000D01*
X149860000Y-93980000D02*
X147320000Y-93980000D01*
X147320000Y-93980000D02*
X147320000Y-104140000D01*
X147320000Y-93980000D02*
X149860000Y-93980000D01*
X147040000Y-106960000D02*
X147040000Y-105410000D01*
X147320000Y-104140000D02*
X149860000Y-104140000D01*
X150140000Y-105410000D02*
X150140000Y-106960000D01*
X150140000Y-106960000D02*
X147040000Y-106960000D01*
X149860000Y-88900000D02*
X149860000Y-78740000D01*
X149860000Y-78740000D02*
X147320000Y-78740000D01*
X147320000Y-78740000D02*
X147320000Y-88900000D01*
X147320000Y-78740000D02*
X149860000Y-78740000D01*
X147040000Y-91720000D02*
X147040000Y-90170000D01*
X147320000Y-88900000D02*
X149860000Y-88900000D01*
X150140000Y-90170000D02*
X150140000Y-91720000D01*
X150140000Y-91720000D02*
X147040000Y-91720000D01*
X149860000Y-73660000D02*
X149860000Y-76200000D01*
X150140000Y-70840000D02*
X150140000Y-72390000D01*
X149860000Y-73660000D02*
X147320000Y-73660000D01*
X147040000Y-72390000D02*
X147040000Y-70840000D01*
X147040000Y-70840000D02*
X150140000Y-70840000D01*
X147320000Y-73660000D02*
X147320000Y-76200000D01*
X147320000Y-76200000D02*
X149860000Y-76200000D01*
X158496000Y-66675000D02*
X158496000Y-73025000D01*
X156464000Y-73025000D02*
X156464000Y-66675000D01*
X157480000Y-66675000D02*
X157480000Y-66040000D01*
X157480000Y-73025000D02*
X157480000Y-73660000D01*
X157480000Y-73025000D02*
X156464000Y-73025000D01*
X156464000Y-66675000D02*
X158496000Y-66675000D01*
X158496000Y-73025000D02*
X157480000Y-73025000D01*
X161036000Y-64135000D02*
X161036000Y-70485000D01*
X159004000Y-70485000D02*
X159004000Y-64135000D01*
X160020000Y-64135000D02*
X160020000Y-63500000D01*
X160020000Y-70485000D02*
X160020000Y-71120000D01*
X160020000Y-70485000D02*
X159004000Y-70485000D01*
X159004000Y-64135000D02*
X161036000Y-64135000D01*
X161036000Y-70485000D02*
X160020000Y-70485000D01*
X161036000Y-94615000D02*
X161036000Y-100965000D01*
X159004000Y-100965000D02*
X159004000Y-94615000D01*
X160020000Y-94615000D02*
X160020000Y-93980000D01*
X160020000Y-100965000D02*
X160020000Y-101600000D01*
X160020000Y-100965000D02*
X159004000Y-100965000D01*
X159004000Y-94615000D02*
X161036000Y-94615000D01*
X161036000Y-100965000D02*
X160020000Y-100965000D01*
X156464000Y-103505000D02*
X156464000Y-97155000D01*
X158496000Y-97155000D02*
X158496000Y-103505000D01*
X157480000Y-103505000D02*
X157480000Y-104140000D01*
X157480000Y-97155000D02*
X157480000Y-96520000D01*
X157480000Y-97155000D02*
X158496000Y-97155000D01*
X158496000Y-103505000D02*
X156464000Y-103505000D01*
X156464000Y-97155000D02*
X157480000Y-97155000D01*
X161544000Y-98425000D02*
X161544000Y-92075000D01*
X163576000Y-92075000D02*
X163576000Y-98425000D01*
X162560000Y-98425000D02*
X162560000Y-99060000D01*
X162560000Y-92075000D02*
X162560000Y-91440000D01*
X162560000Y-92075000D02*
X163576000Y-92075000D01*
X163576000Y-98425000D02*
X161544000Y-98425000D01*
X161544000Y-92075000D02*
X162560000Y-92075000D01*
X171450000Y-99060000D02*
X171450000Y-88900000D01*
X171450000Y-88900000D02*
X168910000Y-88900000D01*
X168910000Y-88900000D02*
X168910000Y-99060000D01*
X168910000Y-88900000D02*
X171450000Y-88900000D01*
X168630000Y-101880000D02*
X168630000Y-100330000D01*
X168910000Y-99060000D02*
X171450000Y-99060000D01*
X171730000Y-100330000D02*
X171730000Y-101880000D01*
X171730000Y-101880000D02*
X168630000Y-101880000D01*
X165100000Y-85090000D02*
X162560000Y-85090000D01*
X162560000Y-85090000D02*
X162560000Y-52070000D01*
X162560000Y-52070000D02*
X177800000Y-52070000D01*
X177800000Y-52070000D02*
X177800000Y-85090000D01*
X177800000Y-85090000D02*
X165100000Y-85090000D01*
M02*
