%FSLAX45Y45*%
G04 Gerber Fmt 4.5, Leading zero omitted, Abs format (unit mm)*
G04 Created by KiCad (PCBNEW 4.0.1-stable) date 01/18/17 01:46:31*
%MOMM*%
G01*
G04 APERTURE LIST*
%ADD10C,0.127000*%
%ADD11C,0.150000*%
%ADD12C,0.200000*%
%ADD13C,0.300000*%
G04 APERTURE END LIST*
D10*
D11*
X18161000Y-5080000D02*
X14478000Y-5080000D01*
X18161000Y-10922000D02*
X18161000Y-5080000D01*
X14478000Y-10922000D02*
X18161000Y-10922000D01*
X14478000Y-5080000D02*
X14478000Y-10922000D01*
D12*
X15713000Y-6442000D02*
X15783000Y-6512000D01*
X15783000Y-6442000D02*
X15713000Y-6512000D01*
X15713000Y-7458000D02*
X15783000Y-7528000D01*
X15783000Y-7458000D02*
X15713000Y-7528000D01*
X15713000Y-9490000D02*
X15783000Y-9560000D01*
X15783000Y-9490000D02*
X15713000Y-9560000D01*
X15713000Y-10506000D02*
X15783000Y-10576000D01*
X15783000Y-10506000D02*
X15713000Y-10576000D01*
X15967000Y-6188000D02*
X16037000Y-6258000D01*
X16037000Y-6188000D02*
X15967000Y-6258000D01*
X15967000Y-7204000D02*
X16037000Y-7274000D01*
X16037000Y-7204000D02*
X15967000Y-7274000D01*
X15967000Y-9236000D02*
X16037000Y-9306000D01*
X16037000Y-9236000D02*
X15967000Y-9306000D01*
X15967000Y-10252000D02*
X16037000Y-10322000D01*
X16037000Y-10252000D02*
X15967000Y-10322000D01*
X16221000Y-8982000D02*
X16291000Y-9052000D01*
X16291000Y-8982000D02*
X16221000Y-9052000D01*
X16221000Y-9998000D02*
X16291000Y-10068000D01*
X16291000Y-9998000D02*
X16221000Y-10068000D01*
X14909000Y-6096000D02*
G75*
G03X14909000Y-6096000I-50000J0D01*
G01*
X14909000Y-6350000D02*
G75*
G03X14909000Y-6350000I-50000J0D01*
G01*
X14909000Y-6604000D02*
G75*
G03X14909000Y-6604000I-50000J0D01*
G01*
X14909000Y-7239000D02*
G75*
G03X14909000Y-7239000I-50000J0D01*
G01*
X14909000Y-7493000D02*
G75*
G03X14909000Y-7493000I-50000J0D01*
G01*
X14909000Y-8001000D02*
G75*
G03X14909000Y-8001000I-50000J0D01*
G01*
X14909000Y-8255000D02*
G75*
G03X14909000Y-8255000I-50000J0D01*
G01*
X14909000Y-8509000D02*
G75*
G03X14909000Y-8509000I-50000J0D01*
G01*
X14909000Y-8763000D02*
G75*
G03X14909000Y-8763000I-50000J0D01*
G01*
X14909000Y-9017000D02*
G75*
G03X14909000Y-9017000I-50000J0D01*
G01*
X14909000Y-9525000D02*
G75*
G03X14909000Y-9525000I-50000J0D01*
G01*
X14909000Y-9779000D02*
G75*
G03X14909000Y-9779000I-50000J0D01*
G01*
X14909000Y-10033000D02*
G75*
G03X14909000Y-10033000I-50000J0D01*
G01*
X14909000Y-10287000D02*
G75*
G03X14909000Y-10287000I-50000J0D01*
G01*
X14909000Y-10541000D02*
G75*
G03X14909000Y-10541000I-50000J0D01*
G01*
X15417000Y-6731000D02*
G75*
G03X15417000Y-6731000I-50000J0D01*
G01*
X15417000Y-6985000D02*
G75*
G03X15417000Y-6985000I-50000J0D01*
G01*
X15417000Y-7239000D02*
G75*
G03X15417000Y-7239000I-50000J0D01*
G01*
X15417000Y-7493000D02*
G75*
G03X15417000Y-7493000I-50000J0D01*
G01*
X15417000Y-9271000D02*
G75*
G03X15417000Y-9271000I-50000J0D01*
G01*
X15417000Y-9525000D02*
G75*
G03X15417000Y-9525000I-50000J0D01*
G01*
X15417000Y-9779000D02*
G75*
G03X15417000Y-9779000I-50000J0D01*
G01*
X16560000Y-8001000D02*
G75*
G03X16560000Y-8001000I-50000J0D01*
G01*
X16560000Y-8255000D02*
G75*
G03X16560000Y-8255000I-50000J0D01*
G01*
X16814000Y-8001000D02*
G75*
G03X16814000Y-8001000I-50000J0D01*
G01*
X16814000Y-8255000D02*
G75*
G03X16814000Y-8255000I-50000J0D01*
G01*
X17068000Y-8001000D02*
G75*
G03X17068000Y-8001000I-50000J0D01*
G01*
X17068000Y-8255000D02*
G75*
G03X17068000Y-8255000I-50000J0D01*
G01*
X17068000Y-9017000D02*
G75*
G03X17068000Y-9017000I-50000J0D01*
G01*
X17068000Y-9271000D02*
G75*
G03X17068000Y-9271000I-50000J0D01*
G01*
X17068000Y-9525000D02*
G75*
G03X17068000Y-9525000I-50000J0D01*
G01*
X17068000Y-9779000D02*
G75*
G03X17068000Y-9779000I-50000J0D01*
G01*
X17068000Y-10033000D02*
G75*
G03X17068000Y-10033000I-50000J0D01*
G01*
X17322000Y-8001000D02*
G75*
G03X17322000Y-8001000I-50000J0D01*
G01*
X17322000Y-8255000D02*
G75*
G03X17322000Y-8255000I-50000J0D01*
G01*
D13*
X14741928Y-11395214D02*
X14741928Y-11095214D01*
X14813357Y-11095214D01*
X14856214Y-11109500D01*
X14884786Y-11138072D01*
X14899071Y-11166643D01*
X14913357Y-11223786D01*
X14913357Y-11266643D01*
X14899071Y-11323786D01*
X14884786Y-11352357D01*
X14856214Y-11380929D01*
X14813357Y-11395214D01*
X14741928Y-11395214D01*
X15041928Y-11395214D02*
X15041928Y-11195214D01*
X15041928Y-11252357D02*
X15056214Y-11223786D01*
X15070500Y-11209500D01*
X15099071Y-11195214D01*
X15127643Y-11195214D01*
X15227643Y-11395214D02*
X15227643Y-11195214D01*
X15227643Y-11095214D02*
X15213357Y-11109500D01*
X15227643Y-11123786D01*
X15241928Y-11109500D01*
X15227643Y-11095214D01*
X15227643Y-11123786D01*
X15413357Y-11395214D02*
X15384786Y-11380929D01*
X15370500Y-11352357D01*
X15370500Y-11095214D01*
X15570500Y-11395214D02*
X15541928Y-11380929D01*
X15527643Y-11352357D01*
X15527643Y-11095214D01*
X15913357Y-11395214D02*
X15913357Y-11095214D01*
X16013357Y-11309500D01*
X16113357Y-11095214D01*
X16113357Y-11395214D01*
X16384786Y-11395214D02*
X16384786Y-11238071D01*
X16370500Y-11209500D01*
X16341928Y-11195214D01*
X16284786Y-11195214D01*
X16256214Y-11209500D01*
X16384786Y-11380929D02*
X16356214Y-11395214D01*
X16284786Y-11395214D01*
X16256214Y-11380929D01*
X16241928Y-11352357D01*
X16241928Y-11323786D01*
X16256214Y-11295214D01*
X16284786Y-11280929D01*
X16356214Y-11280929D01*
X16384786Y-11266643D01*
X16527643Y-11195214D02*
X16527643Y-11495214D01*
X16527643Y-11209500D02*
X16556214Y-11195214D01*
X16613357Y-11195214D01*
X16641928Y-11209500D01*
X16656214Y-11223786D01*
X16670500Y-11252357D01*
X16670500Y-11338071D01*
X16656214Y-11366643D01*
X16641928Y-11380929D01*
X16613357Y-11395214D01*
X16556214Y-11395214D01*
X16527643Y-11380929D01*
X16799071Y-11366643D02*
X16813357Y-11380929D01*
X16799071Y-11395214D01*
X16784786Y-11380929D01*
X16799071Y-11366643D01*
X16799071Y-11395214D01*
X16799071Y-11209500D02*
X16813357Y-11223786D01*
X16799071Y-11238071D01*
X16784786Y-11223786D01*
X16799071Y-11209500D01*
X16799071Y-11238071D01*
X14400500Y-11854500D02*
X14470500Y-11924500D01*
X14470500Y-11854500D02*
X14400500Y-11924500D01*
X14799071Y-11725214D02*
X14827643Y-11725214D01*
X14856214Y-11739500D01*
X14870500Y-11753786D01*
X14884786Y-11782357D01*
X14899071Y-11839500D01*
X14899071Y-11910929D01*
X14884786Y-11968071D01*
X14870500Y-11996643D01*
X14856214Y-12010929D01*
X14827643Y-12025214D01*
X14799071Y-12025214D01*
X14770500Y-12010929D01*
X14756214Y-11996643D01*
X14741928Y-11968071D01*
X14727643Y-11910929D01*
X14727643Y-11839500D01*
X14741928Y-11782357D01*
X14756214Y-11753786D01*
X14770500Y-11739500D01*
X14799071Y-11725214D01*
X15027643Y-11996643D02*
X15041928Y-12010929D01*
X15027643Y-12025214D01*
X15013357Y-12010929D01*
X15027643Y-11996643D01*
X15027643Y-12025214D01*
X15141928Y-11725214D02*
X15341928Y-11725214D01*
X15213357Y-12025214D01*
X15513357Y-11725214D02*
X15541928Y-11725214D01*
X15570500Y-11739500D01*
X15584786Y-11753786D01*
X15599071Y-11782357D01*
X15613357Y-11839500D01*
X15613357Y-11910929D01*
X15599071Y-11968071D01*
X15584786Y-11996643D01*
X15570500Y-12010929D01*
X15541928Y-12025214D01*
X15513357Y-12025214D01*
X15484786Y-12010929D01*
X15470500Y-11996643D01*
X15456214Y-11968071D01*
X15441928Y-11910929D01*
X15441928Y-11839500D01*
X15456214Y-11782357D01*
X15470500Y-11753786D01*
X15484786Y-11739500D01*
X15513357Y-11725214D01*
X15741928Y-12025214D02*
X15741928Y-11825214D01*
X15741928Y-11853786D02*
X15756214Y-11839500D01*
X15784786Y-11825214D01*
X15827643Y-11825214D01*
X15856214Y-11839500D01*
X15870500Y-11868071D01*
X15870500Y-12025214D01*
X15870500Y-11868071D02*
X15884786Y-11839500D01*
X15913357Y-11825214D01*
X15956214Y-11825214D01*
X15984786Y-11839500D01*
X15999071Y-11868071D01*
X15999071Y-12025214D01*
X16141928Y-12025214D02*
X16141928Y-11825214D01*
X16141928Y-11853786D02*
X16156214Y-11839500D01*
X16184786Y-11825214D01*
X16227643Y-11825214D01*
X16256214Y-11839500D01*
X16270500Y-11868071D01*
X16270500Y-12025214D01*
X16270500Y-11868071D02*
X16284786Y-11839500D01*
X16313357Y-11825214D01*
X16356214Y-11825214D01*
X16384786Y-11839500D01*
X16399071Y-11868071D01*
X16399071Y-12025214D01*
X16984786Y-11710929D02*
X16727643Y-12096643D01*
X17370500Y-11725214D02*
X17399071Y-11725214D01*
X17427643Y-11739500D01*
X17441928Y-11753786D01*
X17456214Y-11782357D01*
X17470500Y-11839500D01*
X17470500Y-11910929D01*
X17456214Y-11968071D01*
X17441928Y-11996643D01*
X17427643Y-12010929D01*
X17399071Y-12025214D01*
X17370500Y-12025214D01*
X17341928Y-12010929D01*
X17327643Y-11996643D01*
X17313357Y-11968071D01*
X17299071Y-11910929D01*
X17299071Y-11839500D01*
X17313357Y-11782357D01*
X17327643Y-11753786D01*
X17341928Y-11739500D01*
X17370500Y-11725214D01*
X17599071Y-11996643D02*
X17613357Y-12010929D01*
X17599071Y-12025214D01*
X17584786Y-12010929D01*
X17599071Y-11996643D01*
X17599071Y-12025214D01*
X17799071Y-11725214D02*
X17827643Y-11725214D01*
X17856214Y-11739500D01*
X17870500Y-11753786D01*
X17884786Y-11782357D01*
X17899071Y-11839500D01*
X17899071Y-11910929D01*
X17884786Y-11968071D01*
X17870500Y-11996643D01*
X17856214Y-12010929D01*
X17827643Y-12025214D01*
X17799071Y-12025214D01*
X17770500Y-12010929D01*
X17756214Y-11996643D01*
X17741928Y-11968071D01*
X17727643Y-11910929D01*
X17727643Y-11839500D01*
X17741928Y-11782357D01*
X17756214Y-11753786D01*
X17770500Y-11739500D01*
X17799071Y-11725214D01*
X18013357Y-11753786D02*
X18027643Y-11739500D01*
X18056214Y-11725214D01*
X18127643Y-11725214D01*
X18156214Y-11739500D01*
X18170500Y-11753786D01*
X18184786Y-11782357D01*
X18184786Y-11810929D01*
X18170500Y-11853786D01*
X17999071Y-12025214D01*
X18184786Y-12025214D01*
X18356214Y-11853786D02*
X18327643Y-11839500D01*
X18313357Y-11825214D01*
X18299071Y-11796643D01*
X18299071Y-11782357D01*
X18313357Y-11753786D01*
X18327643Y-11739500D01*
X18356214Y-11725214D01*
X18413357Y-11725214D01*
X18441928Y-11739500D01*
X18456214Y-11753786D01*
X18470500Y-11782357D01*
X18470500Y-11796643D01*
X18456214Y-11825214D01*
X18441928Y-11839500D01*
X18413357Y-11853786D01*
X18356214Y-11853786D01*
X18327643Y-11868071D01*
X18313357Y-11882357D01*
X18299071Y-11910929D01*
X18299071Y-11968071D01*
X18313357Y-11996643D01*
X18327643Y-12010929D01*
X18356214Y-12025214D01*
X18413357Y-12025214D01*
X18441928Y-12010929D01*
X18456214Y-11996643D01*
X18470500Y-11968071D01*
X18470500Y-11910929D01*
X18456214Y-11882357D01*
X18441928Y-11868071D01*
X18413357Y-11853786D01*
X18584786Y-11725214D02*
X18584786Y-11782357D01*
X18699071Y-11725214D02*
X18699071Y-11782357D01*
X19141928Y-12139500D02*
X19127643Y-12125214D01*
X19099071Y-12082357D01*
X19084786Y-12053786D01*
X19070500Y-12010929D01*
X19056214Y-11939500D01*
X19056214Y-11882357D01*
X19070500Y-11810929D01*
X19084786Y-11768071D01*
X19099071Y-11739500D01*
X19127643Y-11696643D01*
X19141928Y-11682357D01*
X19413357Y-12025214D02*
X19241928Y-12025214D01*
X19327643Y-12025214D02*
X19327643Y-11725214D01*
X19299071Y-11768071D01*
X19270500Y-11796643D01*
X19241928Y-11810929D01*
X19599071Y-11725214D02*
X19627643Y-11725214D01*
X19656214Y-11739500D01*
X19670500Y-11753786D01*
X19684786Y-11782357D01*
X19699071Y-11839500D01*
X19699071Y-11910929D01*
X19684786Y-11968071D01*
X19670500Y-11996643D01*
X19656214Y-12010929D01*
X19627643Y-12025214D01*
X19599071Y-12025214D01*
X19570500Y-12010929D01*
X19556214Y-11996643D01*
X19541928Y-11968071D01*
X19527643Y-11910929D01*
X19527643Y-11839500D01*
X19541928Y-11782357D01*
X19556214Y-11753786D01*
X19570500Y-11739500D01*
X19599071Y-11725214D01*
X20056214Y-12025214D02*
X20056214Y-11725214D01*
X20184786Y-12025214D02*
X20184786Y-11868071D01*
X20170500Y-11839500D01*
X20141928Y-11825214D01*
X20099071Y-11825214D01*
X20070500Y-11839500D01*
X20056214Y-11853786D01*
X20370500Y-12025214D02*
X20341928Y-12010929D01*
X20327643Y-11996643D01*
X20313357Y-11968071D01*
X20313357Y-11882357D01*
X20327643Y-11853786D01*
X20341928Y-11839500D01*
X20370500Y-11825214D01*
X20413357Y-11825214D01*
X20441928Y-11839500D01*
X20456214Y-11853786D01*
X20470500Y-11882357D01*
X20470500Y-11968071D01*
X20456214Y-11996643D01*
X20441928Y-12010929D01*
X20413357Y-12025214D01*
X20370500Y-12025214D01*
X20641928Y-12025214D02*
X20613357Y-12010929D01*
X20599071Y-11982357D01*
X20599071Y-11725214D01*
X20870500Y-12010929D02*
X20841929Y-12025214D01*
X20784786Y-12025214D01*
X20756214Y-12010929D01*
X20741929Y-11982357D01*
X20741929Y-11868071D01*
X20756214Y-11839500D01*
X20784786Y-11825214D01*
X20841929Y-11825214D01*
X20870500Y-11839500D01*
X20884786Y-11868071D01*
X20884786Y-11896643D01*
X20741929Y-11925214D01*
X20999071Y-12010929D02*
X21027643Y-12025214D01*
X21084786Y-12025214D01*
X21113357Y-12010929D01*
X21127643Y-11982357D01*
X21127643Y-11968071D01*
X21113357Y-11939500D01*
X21084786Y-11925214D01*
X21041929Y-11925214D01*
X21013357Y-11910929D01*
X20999071Y-11882357D01*
X20999071Y-11868071D01*
X21013357Y-11839500D01*
X21041929Y-11825214D01*
X21084786Y-11825214D01*
X21113357Y-11839500D01*
X21227643Y-12139500D02*
X21241929Y-12125214D01*
X21270500Y-12082357D01*
X21284786Y-12053786D01*
X21299071Y-12010929D01*
X21313357Y-11939500D01*
X21313357Y-11882357D01*
X21299071Y-11810929D01*
X21284786Y-11768071D01*
X21270500Y-11739500D01*
X21241929Y-11696643D01*
X21227643Y-11682357D01*
X14470500Y-12285500D02*
G75*
G03X14470500Y-12285500I-50000J0D01*
G01*
X14899071Y-12421214D02*
X14727643Y-12421214D01*
X14813357Y-12421214D02*
X14813357Y-12121214D01*
X14784786Y-12164071D01*
X14756214Y-12192643D01*
X14727643Y-12206929D01*
X15027643Y-12392643D02*
X15041928Y-12406929D01*
X15027643Y-12421214D01*
X15013357Y-12406929D01*
X15027643Y-12392643D01*
X15027643Y-12421214D01*
X15227643Y-12121214D02*
X15256214Y-12121214D01*
X15284786Y-12135500D01*
X15299071Y-12149786D01*
X15313357Y-12178357D01*
X15327643Y-12235500D01*
X15327643Y-12306929D01*
X15313357Y-12364071D01*
X15299071Y-12392643D01*
X15284786Y-12406929D01*
X15256214Y-12421214D01*
X15227643Y-12421214D01*
X15199071Y-12406929D01*
X15184786Y-12392643D01*
X15170500Y-12364071D01*
X15156214Y-12306929D01*
X15156214Y-12235500D01*
X15170500Y-12178357D01*
X15184786Y-12149786D01*
X15199071Y-12135500D01*
X15227643Y-12121214D01*
X15513357Y-12121214D02*
X15541928Y-12121214D01*
X15570500Y-12135500D01*
X15584786Y-12149786D01*
X15599071Y-12178357D01*
X15613357Y-12235500D01*
X15613357Y-12306929D01*
X15599071Y-12364071D01*
X15584786Y-12392643D01*
X15570500Y-12406929D01*
X15541928Y-12421214D01*
X15513357Y-12421214D01*
X15484786Y-12406929D01*
X15470500Y-12392643D01*
X15456214Y-12364071D01*
X15441928Y-12306929D01*
X15441928Y-12235500D01*
X15456214Y-12178357D01*
X15470500Y-12149786D01*
X15484786Y-12135500D01*
X15513357Y-12121214D01*
X15741928Y-12421214D02*
X15741928Y-12221214D01*
X15741928Y-12249786D02*
X15756214Y-12235500D01*
X15784786Y-12221214D01*
X15827643Y-12221214D01*
X15856214Y-12235500D01*
X15870500Y-12264071D01*
X15870500Y-12421214D01*
X15870500Y-12264071D02*
X15884786Y-12235500D01*
X15913357Y-12221214D01*
X15956214Y-12221214D01*
X15984786Y-12235500D01*
X15999071Y-12264071D01*
X15999071Y-12421214D01*
X16141928Y-12421214D02*
X16141928Y-12221214D01*
X16141928Y-12249786D02*
X16156214Y-12235500D01*
X16184786Y-12221214D01*
X16227643Y-12221214D01*
X16256214Y-12235500D01*
X16270500Y-12264071D01*
X16270500Y-12421214D01*
X16270500Y-12264071D02*
X16284786Y-12235500D01*
X16313357Y-12221214D01*
X16356214Y-12221214D01*
X16384786Y-12235500D01*
X16399071Y-12264071D01*
X16399071Y-12421214D01*
X16984786Y-12106929D02*
X16727643Y-12492643D01*
X17370500Y-12121214D02*
X17399071Y-12121214D01*
X17427643Y-12135500D01*
X17441928Y-12149786D01*
X17456214Y-12178357D01*
X17470500Y-12235500D01*
X17470500Y-12306929D01*
X17456214Y-12364071D01*
X17441928Y-12392643D01*
X17427643Y-12406929D01*
X17399071Y-12421214D01*
X17370500Y-12421214D01*
X17341928Y-12406929D01*
X17327643Y-12392643D01*
X17313357Y-12364071D01*
X17299071Y-12306929D01*
X17299071Y-12235500D01*
X17313357Y-12178357D01*
X17327643Y-12149786D01*
X17341928Y-12135500D01*
X17370500Y-12121214D01*
X17599071Y-12392643D02*
X17613357Y-12406929D01*
X17599071Y-12421214D01*
X17584786Y-12406929D01*
X17599071Y-12392643D01*
X17599071Y-12421214D01*
X17799071Y-12121214D02*
X17827643Y-12121214D01*
X17856214Y-12135500D01*
X17870500Y-12149786D01*
X17884786Y-12178357D01*
X17899071Y-12235500D01*
X17899071Y-12306929D01*
X17884786Y-12364071D01*
X17870500Y-12392643D01*
X17856214Y-12406929D01*
X17827643Y-12421214D01*
X17799071Y-12421214D01*
X17770500Y-12406929D01*
X17756214Y-12392643D01*
X17741928Y-12364071D01*
X17727643Y-12306929D01*
X17727643Y-12235500D01*
X17741928Y-12178357D01*
X17756214Y-12149786D01*
X17770500Y-12135500D01*
X17799071Y-12121214D01*
X17999071Y-12121214D02*
X18184786Y-12121214D01*
X18084786Y-12235500D01*
X18127643Y-12235500D01*
X18156214Y-12249786D01*
X18170500Y-12264071D01*
X18184786Y-12292643D01*
X18184786Y-12364071D01*
X18170500Y-12392643D01*
X18156214Y-12406929D01*
X18127643Y-12421214D01*
X18041928Y-12421214D01*
X18013357Y-12406929D01*
X17999071Y-12392643D01*
X18327643Y-12421214D02*
X18384786Y-12421214D01*
X18413357Y-12406929D01*
X18427643Y-12392643D01*
X18456214Y-12349786D01*
X18470500Y-12292643D01*
X18470500Y-12178357D01*
X18456214Y-12149786D01*
X18441928Y-12135500D01*
X18413357Y-12121214D01*
X18356214Y-12121214D01*
X18327643Y-12135500D01*
X18313357Y-12149786D01*
X18299071Y-12178357D01*
X18299071Y-12249786D01*
X18313357Y-12278357D01*
X18327643Y-12292643D01*
X18356214Y-12306929D01*
X18413357Y-12306929D01*
X18441928Y-12292643D01*
X18456214Y-12278357D01*
X18470500Y-12249786D01*
X18584786Y-12121214D02*
X18584786Y-12178357D01*
X18699071Y-12121214D02*
X18699071Y-12178357D01*
X19141928Y-12535500D02*
X19127643Y-12521214D01*
X19099071Y-12478357D01*
X19084786Y-12449786D01*
X19070500Y-12406929D01*
X19056214Y-12335500D01*
X19056214Y-12278357D01*
X19070500Y-12206929D01*
X19084786Y-12164071D01*
X19099071Y-12135500D01*
X19127643Y-12092643D01*
X19141928Y-12078357D01*
X19227643Y-12121214D02*
X19413357Y-12121214D01*
X19313357Y-12235500D01*
X19356214Y-12235500D01*
X19384786Y-12249786D01*
X19399071Y-12264071D01*
X19413357Y-12292643D01*
X19413357Y-12364071D01*
X19399071Y-12392643D01*
X19384786Y-12406929D01*
X19356214Y-12421214D01*
X19270500Y-12421214D01*
X19241928Y-12406929D01*
X19227643Y-12392643D01*
X19684786Y-12121214D02*
X19541928Y-12121214D01*
X19527643Y-12264071D01*
X19541928Y-12249786D01*
X19570500Y-12235500D01*
X19641928Y-12235500D01*
X19670500Y-12249786D01*
X19684786Y-12264071D01*
X19699071Y-12292643D01*
X19699071Y-12364071D01*
X19684786Y-12392643D01*
X19670500Y-12406929D01*
X19641928Y-12421214D01*
X19570500Y-12421214D01*
X19541928Y-12406929D01*
X19527643Y-12392643D01*
X20056214Y-12421214D02*
X20056214Y-12121214D01*
X20184786Y-12421214D02*
X20184786Y-12264071D01*
X20170500Y-12235500D01*
X20141928Y-12221214D01*
X20099071Y-12221214D01*
X20070500Y-12235500D01*
X20056214Y-12249786D01*
X20370500Y-12421214D02*
X20341928Y-12406929D01*
X20327643Y-12392643D01*
X20313357Y-12364071D01*
X20313357Y-12278357D01*
X20327643Y-12249786D01*
X20341928Y-12235500D01*
X20370500Y-12221214D01*
X20413357Y-12221214D01*
X20441928Y-12235500D01*
X20456214Y-12249786D01*
X20470500Y-12278357D01*
X20470500Y-12364071D01*
X20456214Y-12392643D01*
X20441928Y-12406929D01*
X20413357Y-12421214D01*
X20370500Y-12421214D01*
X20641928Y-12421214D02*
X20613357Y-12406929D01*
X20599071Y-12378357D01*
X20599071Y-12121214D01*
X20870500Y-12406929D02*
X20841929Y-12421214D01*
X20784786Y-12421214D01*
X20756214Y-12406929D01*
X20741929Y-12378357D01*
X20741929Y-12264071D01*
X20756214Y-12235500D01*
X20784786Y-12221214D01*
X20841929Y-12221214D01*
X20870500Y-12235500D01*
X20884786Y-12264071D01*
X20884786Y-12292643D01*
X20741929Y-12321214D01*
X20999071Y-12406929D02*
X21027643Y-12421214D01*
X21084786Y-12421214D01*
X21113357Y-12406929D01*
X21127643Y-12378357D01*
X21127643Y-12364071D01*
X21113357Y-12335500D01*
X21084786Y-12321214D01*
X21041929Y-12321214D01*
X21013357Y-12306929D01*
X20999071Y-12278357D01*
X20999071Y-12264071D01*
X21013357Y-12235500D01*
X21041929Y-12221214D01*
X21084786Y-12221214D01*
X21113357Y-12235500D01*
X21227643Y-12535500D02*
X21241929Y-12521214D01*
X21270500Y-12478357D01*
X21284786Y-12449786D01*
X21299071Y-12406929D01*
X21313357Y-12335500D01*
X21313357Y-12278357D01*
X21299071Y-12206929D01*
X21284786Y-12164071D01*
X21270500Y-12135500D01*
X21241929Y-12092643D01*
X21227643Y-12078357D01*
M02*
