M48
;DRILL file {KiCad 4.0.1-stable} date 01/18/17 01:46:31
;FORMAT={-:-/ absolute / metric / decimal}
FMAT,2
METRIC,TZ
T1C0.700
T2C1.000
%
G90
G05
M71
T1
X157.48Y-64.77
X157.48Y-74.93
X157.48Y-95.25
X157.48Y-105.41
X160.02Y-62.23
X160.02Y-72.39
X160.02Y-92.71
X160.02Y-102.87
X162.56Y-90.17
X162.56Y-100.33
T2
X148.59Y-60.96
X148.59Y-63.5
X148.59Y-66.04
X148.59Y-72.39
X148.59Y-74.93
X148.59Y-80.01
X148.59Y-82.55
X148.59Y-85.09
X148.59Y-87.63
X148.59Y-90.17
X148.59Y-95.25
X148.59Y-97.79
X148.59Y-100.33
X148.59Y-102.87
X148.59Y-105.41
X153.67Y-67.31
X153.67Y-69.85
X153.67Y-72.39
X153.67Y-74.93
X153.67Y-92.71
X153.67Y-95.25
X153.67Y-97.79
X165.1Y-80.01
X165.1Y-82.55
X167.64Y-80.01
X167.64Y-82.55
X170.18Y-80.01
X170.18Y-82.55
X170.18Y-90.17
X170.18Y-92.71
X170.18Y-95.25
X170.18Y-97.79
X170.18Y-100.33
X172.72Y-80.01
X172.72Y-82.55
T0
M30
