%FSLAX45Y45*%
G04 Gerber Fmt 4.5, Leading zero omitted, Abs format (unit mm)*
G04 Created by KiCad (PCBNEW (5.0.2)-1) date 08/09/19 14:56:22*
%MOMM*%
%LPD*%
G01*
G04 APERTURE LIST*
%ADD10C,0.150000*%
%ADD11C,0.200000*%
%ADD12C,0.300000*%
G04 APERTURE END LIST*
D10*
X20000000Y-2574300D02*
X20000000Y-12574300D01*
X10000000Y-2574300D02*
X20000000Y-2574300D01*
X10000000Y-12574300D02*
X10000000Y-2574300D01*
X20000000Y-12574300D02*
X10000000Y-12574300D01*
D11*
X11099400Y-8263100D02*
X11129400Y-8293100D01*
X11129400Y-8263100D02*
X11099400Y-8293100D01*
X11118800Y-8694900D02*
X11148800Y-8724900D01*
X11148800Y-8694900D02*
X11118800Y-8724900D01*
X11193510Y-8675508D02*
X11223510Y-8705508D01*
X11223510Y-8675508D02*
X11193510Y-8705508D01*
X11201000Y-8263100D02*
X11231000Y-8293100D01*
X11231000Y-8263100D02*
X11201000Y-8293100D01*
X11344400Y-4036300D02*
X11374400Y-4066300D01*
X11374400Y-4036300D02*
X11344400Y-4066300D01*
X11378800Y-8059900D02*
X11408800Y-8089900D01*
X11408800Y-8059900D02*
X11378800Y-8089900D01*
X11378800Y-8481720D02*
X11408800Y-8511720D01*
X11408800Y-8481720D02*
X11378800Y-8511720D01*
X11542400Y-8337180D02*
X11572400Y-8367180D01*
X11572400Y-8337180D02*
X11542400Y-8367180D01*
X11694800Y-8216220D02*
X11724800Y-8246220D01*
X11724800Y-8216220D02*
X11694800Y-8246220D01*
X11735360Y-8632300D02*
X11765360Y-8662300D01*
X11765360Y-8632300D02*
X11735360Y-8662300D01*
X11898000Y-8479900D02*
X11928000Y-8509900D01*
X11928000Y-8479900D02*
X11898000Y-8509900D01*
X11948800Y-7971900D02*
X11978800Y-8001900D01*
X11978800Y-7971900D02*
X11948800Y-8001900D01*
X12050400Y-8505300D02*
X12080400Y-8535300D01*
X12080400Y-8505300D02*
X12050400Y-8535300D01*
X12139840Y-8149700D02*
X12169840Y-8179700D01*
X12169840Y-8149700D02*
X12139840Y-8179700D01*
X12139840Y-8632300D02*
X12169840Y-8662300D01*
X12169840Y-8632300D02*
X12139840Y-8662300D01*
X12228200Y-8200500D02*
X12258200Y-8230500D01*
X12258200Y-8200500D02*
X12228200Y-8230500D01*
X12329800Y-8251300D02*
X12359800Y-8281300D01*
X12359800Y-8251300D02*
X12329800Y-8281300D01*
X12406000Y-8632300D02*
X12436000Y-8662300D01*
X12436000Y-8632300D02*
X12406000Y-8662300D01*
X12678605Y-9868065D02*
X12708605Y-9898065D01*
X12708605Y-9868065D02*
X12678605Y-9898065D01*
X12678605Y-10452265D02*
X12708605Y-10482265D01*
X12708605Y-10452265D02*
X12678605Y-10482265D01*
X12729405Y-10215065D02*
X12759405Y-10245065D01*
X12759405Y-10215065D02*
X12729405Y-10245065D01*
X12729405Y-10985665D02*
X12759405Y-11015665D01*
X12759405Y-10985665D02*
X12729405Y-11015665D01*
X12737605Y-11204285D02*
X12767605Y-11234285D01*
X12767605Y-11204285D02*
X12737605Y-11234285D01*
X12754805Y-9842665D02*
X12784805Y-9872665D01*
X12784805Y-9842665D02*
X12754805Y-9872665D01*
X12805605Y-10985665D02*
X12835605Y-11015665D01*
X12835605Y-10985665D02*
X12805605Y-11015665D01*
X12932605Y-9360065D02*
X12962605Y-9390065D01*
X12962605Y-9360065D02*
X12932605Y-9390065D01*
X12932605Y-11214265D02*
X12962605Y-11244265D01*
X12962605Y-11214265D02*
X12932605Y-11244265D01*
X12939400Y-9826100D02*
X12969400Y-9856100D01*
X12969400Y-9826100D02*
X12939400Y-9856100D01*
X12939400Y-10105500D02*
X12969400Y-10135500D01*
X12969400Y-10105500D02*
X12939400Y-10135500D01*
X13041000Y-10765900D02*
X13071000Y-10795900D01*
X13071000Y-10765900D02*
X13041000Y-10795900D01*
X13062605Y-9842665D02*
X13092605Y-9872665D01*
X13092605Y-9842665D02*
X13062605Y-9872665D01*
X13090563Y-9162658D02*
X13120563Y-9192658D01*
X13120563Y-9162658D02*
X13090563Y-9192658D01*
X13110405Y-9436265D02*
X13140405Y-9466265D01*
X13140405Y-9436265D02*
X13110405Y-9466265D01*
X13127605Y-9791865D02*
X13157605Y-9821865D01*
X13157605Y-9791865D02*
X13127605Y-9821865D01*
X13186605Y-10985665D02*
X13216605Y-11015665D01*
X13216605Y-10985665D02*
X13186605Y-11015665D01*
X13194805Y-11204285D02*
X13224805Y-11234285D01*
X13224805Y-11204285D02*
X13194805Y-11234285D01*
X13212005Y-10452265D02*
X13242005Y-10482265D01*
X13242005Y-10452265D02*
X13212005Y-10482265D01*
X13244200Y-9165700D02*
X13274200Y-9195700D01*
X13274200Y-9165700D02*
X13244200Y-9195700D01*
X13262805Y-10985665D02*
X13292805Y-11015665D01*
X13292805Y-10985665D02*
X13262805Y-11015665D01*
X13371200Y-10765900D02*
X13401200Y-10795900D01*
X13401200Y-10765900D02*
X13371200Y-10795900D01*
X13389805Y-11214265D02*
X13419805Y-11244265D01*
X13419805Y-11214265D02*
X13389805Y-11244265D01*
X13488520Y-9826100D02*
X13518520Y-9856100D01*
X13518520Y-9826100D02*
X13488520Y-9856100D01*
X13501951Y-9263549D02*
X13531951Y-9293549D01*
X13531951Y-9263549D02*
X13501951Y-9293549D01*
X13624445Y-10308700D02*
X13654445Y-10338700D01*
X13654445Y-10308700D02*
X13624445Y-10338700D01*
X13745405Y-10071265D02*
X13775405Y-10101265D01*
X13775405Y-10071265D02*
X13745405Y-10101265D01*
X13745405Y-10376065D02*
X13775405Y-10406065D01*
X13775405Y-10376065D02*
X13745405Y-10406065D01*
X13752200Y-10283300D02*
X13782200Y-10313300D01*
X13782200Y-10283300D02*
X13752200Y-10313300D01*
X13947645Y-9902300D02*
X13977645Y-9932300D01*
X13977645Y-9902300D02*
X13947645Y-9932300D01*
X14006200Y-6422500D02*
X14036200Y-6452500D01*
X14036200Y-6422500D02*
X14006200Y-6452500D01*
X14006200Y-6701900D02*
X14036200Y-6731900D01*
X14036200Y-6701900D02*
X14006200Y-6731900D01*
X14006200Y-7514700D02*
X14036200Y-7544700D01*
X14036200Y-7514700D02*
X14006200Y-7544700D01*
X14006200Y-7667100D02*
X14036200Y-7697100D01*
X14036200Y-7667100D02*
X14006200Y-7697100D01*
X14244970Y-5848745D02*
X14274970Y-5878745D01*
X14274970Y-5848745D02*
X14244970Y-5878745D01*
X14249000Y-5989800D02*
X14279000Y-6019800D01*
X14279000Y-5989800D02*
X14249000Y-6019800D01*
X14566500Y-5989800D02*
X14596500Y-6019800D01*
X14596500Y-5989800D02*
X14566500Y-6019800D01*
X14604600Y-5367500D02*
X14634600Y-5397500D01*
X14634600Y-5367500D02*
X14604600Y-5397500D01*
X14693500Y-4154400D02*
X14723500Y-4184400D01*
X14723500Y-4154400D02*
X14693500Y-4184400D01*
X15900000Y-4161000D02*
X15930000Y-4191000D01*
X15930000Y-4161000D02*
X15900000Y-4191000D01*
X15900000Y-4288000D02*
X15930000Y-4318000D01*
X15930000Y-4288000D02*
X15900000Y-4318000D01*
X15900000Y-4415000D02*
X15930000Y-4445000D01*
X15930000Y-4415000D02*
X15900000Y-4445000D01*
X15900000Y-4542000D02*
X15930000Y-4572000D01*
X15930000Y-4542000D02*
X15900000Y-4572000D01*
X15900000Y-4669000D02*
X15930000Y-4699000D01*
X15930000Y-4669000D02*
X15900000Y-4699000D01*
X15900000Y-4796000D02*
X15930000Y-4826000D01*
X15930000Y-4796000D02*
X15900000Y-4826000D01*
X15900000Y-4923000D02*
X15930000Y-4953000D01*
X15930000Y-4923000D02*
X15900000Y-4953000D01*
X15900000Y-5050000D02*
X15930000Y-5080000D01*
X15930000Y-5050000D02*
X15900000Y-5080000D01*
X15900000Y-5177000D02*
X15930000Y-5207000D01*
X15930000Y-5177000D02*
X15900000Y-5207000D01*
X15900000Y-5304000D02*
X15930000Y-5334000D01*
X15930000Y-5304000D02*
X15900000Y-5334000D01*
X15900000Y-5431000D02*
X15930000Y-5461000D01*
X15930000Y-5431000D02*
X15900000Y-5461000D01*
X15900000Y-5558000D02*
X15930000Y-5588000D01*
X15930000Y-5558000D02*
X15900000Y-5588000D01*
X15900000Y-5685000D02*
X15930000Y-5715000D01*
X15930000Y-5685000D02*
X15900000Y-5715000D01*
X15900000Y-5812000D02*
X15930000Y-5842000D01*
X15930000Y-5812000D02*
X15900000Y-5842000D01*
X15900000Y-5939000D02*
X15930000Y-5969000D01*
X15930000Y-5939000D02*
X15900000Y-5969000D01*
X15962000Y-6701900D02*
X15992000Y-6731900D01*
X15992000Y-6701900D02*
X15962000Y-6731900D01*
X15962000Y-7514700D02*
X15992000Y-7544700D01*
X15992000Y-7514700D02*
X15962000Y-7544700D01*
X15962000Y-7667100D02*
X15992000Y-7697100D01*
X15992000Y-7667100D02*
X15962000Y-7697100D01*
X16217500Y-6256500D02*
X16247500Y-6286500D01*
X16247500Y-6256500D02*
X16217500Y-6286500D01*
X16306400Y-4224500D02*
X16336400Y-4254500D01*
X16336400Y-4224500D02*
X16306400Y-4254500D01*
X16408000Y-4224500D02*
X16438000Y-4254500D01*
X16438000Y-4224500D02*
X16408000Y-4254500D01*
X16535000Y-4161000D02*
X16565000Y-4191000D01*
X16565000Y-4161000D02*
X16535000Y-4191000D01*
X16813750Y-6942350D02*
X16843750Y-6972350D01*
X16843750Y-6942350D02*
X16813750Y-6972350D01*
X16916000Y-4161000D02*
X16946000Y-4191000D01*
X16946000Y-4161000D02*
X16916000Y-4191000D01*
X16975625Y-6784459D02*
X17005625Y-6814459D01*
X17005625Y-6784459D02*
X16975625Y-6814459D01*
X17170000Y-4161000D02*
X17200000Y-4191000D01*
X17200000Y-4161000D02*
X17170000Y-4191000D01*
X17409800Y-7590900D02*
X17439800Y-7620900D01*
X17439800Y-7590900D02*
X17409800Y-7620900D01*
X17678000Y-4161000D02*
X17708000Y-4191000D01*
X17708000Y-4161000D02*
X17678000Y-4191000D01*
X17678000Y-4288000D02*
X17708000Y-4318000D01*
X17708000Y-4288000D02*
X17678000Y-4318000D01*
X17678000Y-4415000D02*
X17708000Y-4445000D01*
X17708000Y-4415000D02*
X17678000Y-4445000D01*
X17678000Y-4542000D02*
X17708000Y-4572000D01*
X17708000Y-4542000D02*
X17678000Y-4572000D01*
X17678000Y-4669000D02*
X17708000Y-4699000D01*
X17708000Y-4669000D02*
X17678000Y-4699000D01*
X17678000Y-4796000D02*
X17708000Y-4826000D01*
X17708000Y-4796000D02*
X17678000Y-4826000D01*
X17678000Y-4923000D02*
X17708000Y-4953000D01*
X17708000Y-4923000D02*
X17678000Y-4953000D01*
X17678000Y-5050000D02*
X17708000Y-5080000D01*
X17708000Y-5050000D02*
X17678000Y-5080000D01*
X17678000Y-5177000D02*
X17708000Y-5207000D01*
X17708000Y-5177000D02*
X17678000Y-5207000D01*
X17678000Y-5304000D02*
X17708000Y-5334000D01*
X17708000Y-5304000D02*
X17678000Y-5334000D01*
X17678000Y-5431000D02*
X17708000Y-5461000D01*
X17708000Y-5431000D02*
X17678000Y-5461000D01*
X17678000Y-5545300D02*
X17708000Y-5575300D01*
X17708000Y-5545300D02*
X17678000Y-5575300D01*
X17678000Y-5685000D02*
X17708000Y-5715000D01*
X17708000Y-5685000D02*
X17678000Y-5715000D01*
X17678000Y-5812000D02*
X17708000Y-5842000D01*
X17708000Y-5812000D02*
X17678000Y-5842000D01*
X17678000Y-5939000D02*
X17708000Y-5969000D01*
X17708000Y-5939000D02*
X17678000Y-5969000D01*
X17790800Y-7590900D02*
X17820800Y-7620900D01*
X17820800Y-7590900D02*
X17790800Y-7620900D01*
X18249500Y-8161500D02*
X18279500Y-8191500D01*
X18279500Y-8161500D02*
X18249500Y-8191500D01*
X18503500Y-10003000D02*
X18533500Y-10033000D01*
X18533500Y-10003000D02*
X18503500Y-10033000D01*
X18821000Y-9876000D02*
X18851000Y-9906000D01*
X18851000Y-9876000D02*
X18821000Y-9906000D01*
X19075000Y-10130000D02*
X19105000Y-10160000D01*
X19105000Y-10130000D02*
X19075000Y-10160000D01*
X19391000Y-10994500D02*
X19421000Y-11024500D01*
X19421000Y-10994500D02*
X19391000Y-11024500D01*
X17723000Y-3541000D02*
G75*
G03X17723000Y-3541000I-30000J0D01*
G01*
X18073000Y-3541000D02*
G75*
G03X18073000Y-3541000I-30000J0D01*
G01*
X17723000Y-3033000D02*
G75*
G03X17723000Y-3033000I-30000J0D01*
G01*
X18073000Y-3033000D02*
G75*
G03X18073000Y-3033000I-30000J0D01*
G01*
X18500500Y-4684000D02*
G75*
G03X18500500Y-4684000I-30000J0D01*
G01*
X18850500Y-4684000D02*
G75*
G03X18850500Y-4684000I-30000J0D01*
G01*
X19145400Y-8176500D02*
G75*
G03X19145400Y-8176500I-30000J0D01*
G01*
X19145400Y-8430500D02*
G75*
G03X19145400Y-8430500I-30000J0D01*
G01*
X18739000Y-8176500D02*
G75*
G03X18739000Y-8176500I-30000J0D01*
G01*
X18739000Y-8430500D02*
G75*
G03X18739000Y-8430500I-30000J0D01*
G01*
X18500500Y-5192000D02*
G75*
G03X18500500Y-5192000I-30000J0D01*
G01*
X18850500Y-5192000D02*
G75*
G03X18850500Y-5192000I-30000J0D01*
G01*
X19145400Y-9040100D02*
G75*
G03X19145400Y-9040100I-30000J0D01*
G01*
X19145400Y-9294100D02*
G75*
G03X19145400Y-9294100I-30000J0D01*
G01*
X18739000Y-9040100D02*
G75*
G03X18739000Y-9040100I-30000J0D01*
G01*
X18739000Y-9294100D02*
G75*
G03X18739000Y-9294100I-30000J0D01*
G01*
X18251800Y-9284500D02*
X18251800Y-9354500D01*
X18216800Y-9319500D02*
X18286800Y-9319500D01*
X18251800Y-9538500D02*
X18251800Y-9608500D01*
X18216800Y-9573500D02*
X18286800Y-9573500D01*
X18251800Y-9792500D02*
X18251800Y-9862500D01*
X18216800Y-9827500D02*
X18286800Y-9827500D01*
X16232500Y-6769900D02*
X16232500Y-6839900D01*
X16197500Y-6804900D02*
X16267500Y-6804900D01*
X16232500Y-7023900D02*
X16232500Y-7093900D01*
X16197500Y-7058900D02*
X16267500Y-7058900D01*
X16232500Y-7277900D02*
X16232500Y-7347900D01*
X16197500Y-7312900D02*
X16267500Y-7312900D01*
X14090605Y-10660865D02*
X14090605Y-10730865D01*
X14055605Y-10695865D02*
X14125605Y-10695865D01*
X14090605Y-10914865D02*
X14090605Y-10984865D01*
X14055605Y-10949865D02*
X14125605Y-10949865D01*
X14090605Y-11168865D02*
X14090605Y-11238865D01*
X14055605Y-11203865D02*
X14125605Y-11203865D01*
X14010000Y-4445800D02*
X14010000Y-4515800D01*
X13975000Y-4480800D02*
X14045000Y-4480800D01*
X14264000Y-4445800D02*
X14264000Y-4515800D01*
X14229000Y-4480800D02*
X14299000Y-4480800D01*
X14518000Y-4445800D02*
X14518000Y-4515800D01*
X14483000Y-4480800D02*
X14553000Y-4480800D01*
X13691052Y-9729646D02*
X13691052Y-9799646D01*
X13656052Y-9764646D02*
X13726052Y-9764646D01*
X14707000Y-9729900D02*
X14707000Y-9799900D01*
X14672000Y-9764900D02*
X14742000Y-9764900D01*
X13883000Y-3353600D02*
X13883000Y-3423600D01*
X13848000Y-3388600D02*
X13918000Y-3388600D01*
X14137000Y-3620300D02*
X14137000Y-3690300D01*
X14102000Y-3655300D02*
X14172000Y-3655300D01*
X14391000Y-3353600D02*
X14391000Y-3423600D01*
X14356000Y-3388600D02*
X14426000Y-3388600D01*
X10719200Y-7647100D02*
X10719200Y-7717100D01*
X10684200Y-7682100D02*
X10754200Y-7682100D01*
X10973200Y-7647100D02*
X10973200Y-7717100D01*
X10938200Y-7682100D02*
X11008200Y-7682100D01*
X11227200Y-7647100D02*
X11227200Y-7717100D01*
X11192200Y-7682100D02*
X11262200Y-7682100D01*
X10242680Y-5056553D02*
X10242680Y-5126553D01*
X10207680Y-5091553D02*
X10277680Y-5091553D01*
X10242680Y-5310553D02*
X10242680Y-5380553D01*
X10207680Y-5345553D02*
X10277680Y-5345553D01*
X10242680Y-5564553D02*
X10242680Y-5634553D01*
X10207680Y-5599553D02*
X10277680Y-5599553D01*
X10242680Y-5818553D02*
X10242680Y-5888553D01*
X10207680Y-5853553D02*
X10277680Y-5853553D01*
X11004680Y-5056553D02*
X11004680Y-5126553D01*
X10969680Y-5091553D02*
X11039680Y-5091553D01*
X11004680Y-5310553D02*
X11004680Y-5380553D01*
X10969680Y-5345553D02*
X11039680Y-5345553D01*
X11004680Y-5564553D02*
X11004680Y-5634553D01*
X10969680Y-5599553D02*
X11039680Y-5599553D01*
X11004680Y-5818553D02*
X11004680Y-5888553D01*
X10969680Y-5853553D02*
X11039680Y-5853553D01*
X13883000Y-5080800D02*
X13883000Y-5150800D01*
X13848000Y-5115800D02*
X13918000Y-5115800D01*
X14137000Y-5347500D02*
X14137000Y-5417500D01*
X14102000Y-5382500D02*
X14172000Y-5382500D01*
X14391000Y-5080800D02*
X14391000Y-5150800D01*
X14356000Y-5115800D02*
X14426000Y-5115800D01*
X13582605Y-11448265D02*
X13582605Y-11518265D01*
X13547605Y-11483265D02*
X13617605Y-11483265D01*
X13836605Y-11448265D02*
X13836605Y-11518265D01*
X13801605Y-11483265D02*
X13871605Y-11483265D01*
X14090605Y-11448265D02*
X14090605Y-11518265D01*
X14055605Y-11483265D02*
X14125605Y-11483265D01*
X13756000Y-4001300D02*
X13756000Y-4071300D01*
X13721000Y-4036300D02*
X13791000Y-4036300D01*
X14010000Y-4001300D02*
X14010000Y-4071300D01*
X13975000Y-4036300D02*
X14045000Y-4036300D01*
X14264000Y-4001300D02*
X14264000Y-4071300D01*
X14229000Y-4036300D02*
X14299000Y-4036300D01*
X12303956Y-10028856D02*
X12303956Y-9958144D01*
X12233244Y-9958144D01*
X12233244Y-10028856D01*
X12303956Y-10028856D01*
X12303956Y-10282856D02*
X12303956Y-10212144D01*
X12233244Y-10212144D01*
X12233244Y-10282856D01*
X12303956Y-10282856D01*
X13160761Y-12128221D02*
X13160761Y-12057510D01*
X13090049Y-12057510D01*
X13090049Y-12128221D01*
X13160761Y-12128221D01*
X13414761Y-12128221D02*
X13414761Y-12057510D01*
X13344049Y-12057510D01*
X13344049Y-12128221D01*
X13414761Y-12128221D01*
X13668761Y-12128221D02*
X13668761Y-12057510D01*
X13598049Y-12057510D01*
X13598049Y-12128221D01*
X13668761Y-12128221D01*
X12506756Y-3070656D02*
X12506756Y-2999944D01*
X12436044Y-2999944D01*
X12436044Y-3070656D01*
X12506756Y-3070656D01*
X12760756Y-3070656D02*
X12760756Y-2999944D01*
X12690044Y-2999944D01*
X12690044Y-3070656D01*
X12760756Y-3070656D01*
X13014756Y-3070656D02*
X13014756Y-2999944D01*
X12944044Y-2999944D01*
X12944044Y-3070656D01*
X13014756Y-3070656D01*
X13268756Y-3070656D02*
X13268756Y-2999944D01*
X13198044Y-2999944D01*
X13198044Y-3070656D01*
X13268756Y-3070656D01*
X13522756Y-3070656D02*
X13522756Y-2999944D01*
X13452044Y-2999944D01*
X13452044Y-3070656D01*
X13522756Y-3070656D01*
X12506756Y-5356656D02*
X12506756Y-5285944D01*
X12436044Y-5285944D01*
X12436044Y-5356656D01*
X12506756Y-5356656D01*
X12760756Y-5356656D02*
X12760756Y-5285944D01*
X12690044Y-5285944D01*
X12690044Y-5356656D01*
X12760756Y-5356656D01*
X13014756Y-5356656D02*
X13014756Y-5285944D01*
X12944044Y-5285944D01*
X12944044Y-5356656D01*
X13014756Y-5356656D01*
X13268756Y-5356656D02*
X13268756Y-5285944D01*
X13198044Y-5285944D01*
X13198044Y-5356656D01*
X13268756Y-5356656D01*
X13522756Y-5356656D02*
X13522756Y-5285944D01*
X13452044Y-5285944D01*
X13452044Y-5356656D01*
X13522756Y-5356656D01*
X12303956Y-10790856D02*
X12303956Y-10720144D01*
X12233244Y-10720144D01*
X12233244Y-10790856D01*
X12303956Y-10790856D01*
X12303956Y-11044856D02*
X12303956Y-10974144D01*
X12233244Y-10974144D01*
X12233244Y-11044856D01*
X12303956Y-11044856D01*
X12303956Y-11298856D02*
X12303956Y-11228144D01*
X12233244Y-11228144D01*
X12233244Y-11298856D01*
X12303956Y-11298856D01*
X10550956Y-3070656D02*
X10550956Y-2999944D01*
X10480244Y-2999944D01*
X10480244Y-3070656D01*
X10550956Y-3070656D01*
X10550956Y-3324656D02*
X10550956Y-3253944D01*
X10480244Y-3253944D01*
X10480244Y-3324656D01*
X10550956Y-3324656D01*
X12506756Y-3578656D02*
X12506756Y-3507944D01*
X12436044Y-3507944D01*
X12436044Y-3578656D01*
X12506756Y-3578656D01*
X12506756Y-3832656D02*
X12506756Y-3761944D01*
X12436044Y-3761944D01*
X12436044Y-3832656D01*
X12506756Y-3832656D01*
X12760756Y-3578656D02*
X12760756Y-3507944D01*
X12690044Y-3507944D01*
X12690044Y-3578656D01*
X12760756Y-3578656D01*
X12760756Y-3832656D02*
X12760756Y-3761944D01*
X12690044Y-3761944D01*
X12690044Y-3832656D01*
X12760756Y-3832656D01*
X13014756Y-3578656D02*
X13014756Y-3507944D01*
X12944044Y-3507944D01*
X12944044Y-3578656D01*
X13014756Y-3578656D01*
X13014756Y-3832656D02*
X13014756Y-3761944D01*
X12944044Y-3761944D01*
X12944044Y-3832656D01*
X13014756Y-3832656D01*
X13268756Y-3578656D02*
X13268756Y-3507944D01*
X13198044Y-3507944D01*
X13198044Y-3578656D01*
X13268756Y-3578656D01*
X13268756Y-3832656D02*
X13268756Y-3761944D01*
X13198044Y-3761944D01*
X13198044Y-3832656D01*
X13268756Y-3832656D01*
X13522756Y-3578656D02*
X13522756Y-3507944D01*
X13452044Y-3507944D01*
X13452044Y-3578656D01*
X13522756Y-3578656D01*
X13522756Y-3832656D02*
X13522756Y-3761944D01*
X13452044Y-3761944D01*
X13452044Y-3832656D01*
X13522756Y-3832656D01*
X10540156Y-9050056D02*
X10540156Y-8979344D01*
X10469444Y-8979344D01*
X10469444Y-9050056D01*
X10540156Y-9050056D01*
X10540156Y-9304056D02*
X10540156Y-9233344D01*
X10469444Y-9233344D01*
X10469444Y-9304056D01*
X10540156Y-9304056D01*
X10550956Y-3754156D02*
X10550956Y-3683444D01*
X10480244Y-3683444D01*
X10480244Y-3754156D01*
X10550956Y-3754156D01*
X10550956Y-4008156D02*
X10550956Y-3937444D01*
X10480244Y-3937444D01*
X10480244Y-4008156D01*
X10550956Y-4008156D01*
X10550956Y-4262156D02*
X10550956Y-4191444D01*
X10480244Y-4191444D01*
X10480244Y-4262156D01*
X10550956Y-4262156D01*
X10550956Y-4516156D02*
X10550956Y-4445444D01*
X10480244Y-4445444D01*
X10480244Y-4516156D01*
X10550956Y-4516156D01*
X10550956Y-4770156D02*
X10550956Y-4699444D01*
X10480244Y-4699444D01*
X10480244Y-4770156D01*
X10550956Y-4770156D01*
X10551356Y-7260256D02*
X10551356Y-7189544D01*
X10480644Y-7189544D01*
X10480644Y-7260256D01*
X10551356Y-7260256D01*
X10551356Y-7514256D02*
X10551356Y-7443544D01*
X10480644Y-7443544D01*
X10480644Y-7514256D01*
X10551356Y-7514256D01*
X10551356Y-7768256D02*
X10551356Y-7697544D01*
X10480644Y-7697544D01*
X10480644Y-7768256D01*
X10551356Y-7768256D01*
X15747156Y-2852456D02*
X15747156Y-2781744D01*
X15676444Y-2781744D01*
X15676444Y-2852456D01*
X15747156Y-2852456D01*
X16001156Y-2852456D02*
X16001156Y-2781744D01*
X15930444Y-2781744D01*
X15930444Y-2852456D01*
X16001156Y-2852456D01*
X10540156Y-8288056D02*
X10540156Y-8217344D01*
X10469444Y-8217344D01*
X10469444Y-8288056D01*
X10540156Y-8288056D01*
X10540156Y-8542056D02*
X10540156Y-8471344D01*
X10469444Y-8471344D01*
X10469444Y-8542056D01*
X10540156Y-8542056D01*
X10921156Y-8288056D02*
X10921156Y-8217344D01*
X10850444Y-8217344D01*
X10850444Y-8288056D01*
X10921156Y-8288056D01*
X10921156Y-8542056D02*
X10921156Y-8471344D01*
X10850444Y-8471344D01*
X10850444Y-8542056D01*
X10921156Y-8542056D01*
X12506756Y-4848656D02*
X12506756Y-4777944D01*
X12436044Y-4777944D01*
X12436044Y-4848656D01*
X12506756Y-4848656D01*
X12760756Y-4848656D02*
X12760756Y-4777944D01*
X12690044Y-4777944D01*
X12690044Y-4848656D01*
X12760756Y-4848656D01*
X13014756Y-4848656D02*
X13014756Y-4777944D01*
X12944044Y-4777944D01*
X12944044Y-4848656D01*
X13014756Y-4848656D01*
X13268756Y-4848656D02*
X13268756Y-4777944D01*
X13198044Y-4777944D01*
X13198044Y-4848656D01*
X13268756Y-4848656D01*
X13522756Y-4848656D02*
X13522756Y-4777944D01*
X13452044Y-4777944D01*
X13452044Y-4848656D01*
X13522756Y-4848656D01*
X19823856Y-10497856D02*
X19823856Y-10427144D01*
X19753144Y-10427144D01*
X19753144Y-10497856D01*
X19823856Y-10497856D01*
X19823856Y-10751856D02*
X19823856Y-10681144D01*
X19753144Y-10681144D01*
X19753144Y-10751856D01*
X19823856Y-10751856D01*
X19823856Y-11005856D02*
X19823856Y-10935144D01*
X19753144Y-10935144D01*
X19753144Y-11005856D01*
X19823856Y-11005856D01*
X14176761Y-12128221D02*
X14176761Y-12057510D01*
X14106049Y-12057510D01*
X14106049Y-12128221D01*
X14176761Y-12128221D01*
X14430761Y-12128221D02*
X14430761Y-12057510D01*
X14360049Y-12057510D01*
X14360049Y-12128221D01*
X14430761Y-12128221D01*
X14684761Y-12128221D02*
X14684761Y-12057510D01*
X14614049Y-12057510D01*
X14614049Y-12128221D01*
X14684761Y-12128221D01*
X12506756Y-5864656D02*
X12506756Y-5793944D01*
X12436044Y-5793944D01*
X12436044Y-5864656D01*
X12506756Y-5864656D01*
X12760756Y-5864656D02*
X12760756Y-5793944D01*
X12690044Y-5793944D01*
X12690044Y-5864656D01*
X12760756Y-5864656D01*
X13014756Y-5864656D02*
X13014756Y-5793944D01*
X12944044Y-5793944D01*
X12944044Y-5864656D01*
X13014756Y-5864656D01*
X13268756Y-5864656D02*
X13268756Y-5793944D01*
X13198044Y-5793944D01*
X13198044Y-5864656D01*
X13268756Y-5864656D01*
X13522756Y-5864656D02*
X13522756Y-5793944D01*
X13452044Y-5793944D01*
X13452044Y-5864656D01*
X13522756Y-5864656D01*
X12506756Y-4340656D02*
X12506756Y-4269944D01*
X12436044Y-4269944D01*
X12436044Y-4340656D01*
X12506756Y-4340656D01*
X12760756Y-4340656D02*
X12760756Y-4269944D01*
X12690044Y-4269944D01*
X12690044Y-4340656D01*
X12760756Y-4340656D01*
X13014756Y-4340656D02*
X13014756Y-4269944D01*
X12944044Y-4269944D01*
X12944044Y-4340656D01*
X13014756Y-4340656D01*
X13268756Y-4340656D02*
X13268756Y-4269944D01*
X13198044Y-4269944D01*
X13198044Y-4340656D01*
X13268756Y-4340656D01*
X13522756Y-4340656D02*
X13522756Y-4269944D01*
X13452044Y-4269944D01*
X13452044Y-4340656D01*
X13522756Y-4340656D01*
X11455400Y-5884300D02*
X11510400Y-5829300D01*
X11455400Y-5774300D01*
X11400400Y-5829300D01*
X11455400Y-5884300D01*
X11709400Y-5884300D02*
X11764400Y-5829300D01*
X11709400Y-5774300D01*
X11654400Y-5829300D01*
X11709400Y-5884300D01*
X11963400Y-5884300D02*
X12018400Y-5829300D01*
X11963400Y-5774300D01*
X11908400Y-5829300D01*
X11963400Y-5884300D01*
X19598000Y-4993000D02*
X19653000Y-4938000D01*
X19598000Y-4883000D01*
X19543000Y-4938000D01*
X19598000Y-4993000D01*
X19598000Y-5501000D02*
X19653000Y-5446000D01*
X19598000Y-5391000D01*
X19543000Y-5446000D01*
X19598000Y-5501000D01*
X19623400Y-8002900D02*
X19678400Y-7947900D01*
X19623400Y-7892900D01*
X19568400Y-7947900D01*
X19623400Y-8002900D01*
X19623400Y-8510900D02*
X19678400Y-8455900D01*
X19623400Y-8400900D01*
X19568400Y-8455900D01*
X19623400Y-8510900D01*
X10973200Y-6822700D02*
X11028200Y-6767700D01*
X10973200Y-6712700D01*
X10918200Y-6767700D01*
X10973200Y-6822700D01*
X10973200Y-7330700D02*
X11028200Y-7275700D01*
X10973200Y-7220700D01*
X10918200Y-7275700D01*
X10973200Y-7330700D01*
X11227200Y-6822700D02*
X11282200Y-6767700D01*
X11227200Y-6712700D01*
X11172200Y-6767700D01*
X11227200Y-6822700D01*
X11227200Y-7330700D02*
X11282200Y-7275700D01*
X11227200Y-7220700D01*
X11172200Y-7275700D01*
X11227200Y-7330700D01*
X11989200Y-6822700D02*
X12044200Y-6767700D01*
X11989200Y-6712700D01*
X11934200Y-6767700D01*
X11989200Y-6822700D01*
X11989200Y-7330700D02*
X12044200Y-7275700D01*
X11989200Y-7220700D01*
X11934200Y-7275700D01*
X11989200Y-7330700D01*
X16550000Y-3024500D02*
X16605000Y-2969500D01*
X16550000Y-2914500D01*
X16495000Y-2969500D01*
X16550000Y-3024500D01*
X17058000Y-3024500D02*
X17113000Y-2969500D01*
X17058000Y-2914500D01*
X17003000Y-2969500D01*
X17058000Y-3024500D01*
X11455400Y-5376300D02*
X11510400Y-5321300D01*
X11455400Y-5266300D01*
X11400400Y-5321300D01*
X11455400Y-5376300D01*
X11709400Y-5376300D02*
X11764400Y-5321300D01*
X11709400Y-5266300D01*
X11654400Y-5321300D01*
X11709400Y-5376300D01*
X11963400Y-5376300D02*
X12018400Y-5321300D01*
X11963400Y-5266300D01*
X11908400Y-5321300D01*
X11963400Y-5376300D01*
X19623400Y-9018900D02*
X19678400Y-8963900D01*
X19623400Y-8908900D01*
X19568400Y-8963900D01*
X19623400Y-9018900D01*
X19623400Y-9526900D02*
X19678400Y-9471900D01*
X19623400Y-9416900D01*
X19568400Y-9471900D01*
X19623400Y-9526900D01*
X11455400Y-3090300D02*
X11510400Y-3035300D01*
X11455400Y-2980300D01*
X11400400Y-3035300D01*
X11455400Y-3090300D01*
X11709400Y-3090300D02*
X11764400Y-3035300D01*
X11709400Y-2980300D01*
X11654400Y-3035300D01*
X11709400Y-3090300D01*
X11963400Y-3090300D02*
X12018400Y-3035300D01*
X11963400Y-2980300D01*
X11908400Y-3035300D01*
X11963400Y-3090300D01*
X11455400Y-3725300D02*
X11510400Y-3670300D01*
X11455400Y-3615300D01*
X11400400Y-3670300D01*
X11455400Y-3725300D01*
X11709400Y-3725300D02*
X11764400Y-3670300D01*
X11709400Y-3615300D01*
X11654400Y-3670300D01*
X11709400Y-3725300D01*
X11963400Y-3725300D02*
X12018400Y-3670300D01*
X11963400Y-3615300D01*
X11908400Y-3670300D01*
X11963400Y-3725300D01*
X18395000Y-3090000D02*
X18535000Y-3230000D01*
X18535000Y-3090000D02*
X18395000Y-3230000D01*
X18535000Y-3160000D02*
G75*
G03X18535000Y-3160000I-70000J0D01*
G01*
X19655000Y-3090000D02*
X19795000Y-3230000D01*
X19795000Y-3090000D02*
X19655000Y-3230000D01*
X19795000Y-3160000D02*
G75*
G03X19795000Y-3160000I-70000J0D01*
G01*
X16861000Y-6480900D02*
X17001000Y-6620900D01*
X17001000Y-6480900D02*
X16861000Y-6620900D01*
X17001000Y-6550900D02*
G75*
G03X17001000Y-6550900I-70000J0D01*
G01*
X16861000Y-7242900D02*
X17001000Y-7382900D01*
X17001000Y-7242900D02*
X16861000Y-7382900D01*
X17001000Y-7312900D02*
G75*
G03X17001000Y-7312900I-70000J0D01*
G01*
X18385000Y-6480900D02*
X18525000Y-6620900D01*
X18525000Y-6480900D02*
X18385000Y-6620900D01*
X18525000Y-6550900D02*
G75*
G03X18525000Y-6550900I-70000J0D01*
G01*
X18385000Y-7242900D02*
X18525000Y-7382900D01*
X18525000Y-7242900D02*
X18385000Y-7382900D01*
X18525000Y-7312900D02*
G75*
G03X18525000Y-7312900I-70000J0D01*
G01*
X18893000Y-6480900D02*
X19033000Y-6620900D01*
X19033000Y-6480900D02*
X18893000Y-6620900D01*
X19033000Y-6550900D02*
G75*
G03X19033000Y-6550900I-70000J0D01*
G01*
X18893000Y-7242900D02*
X19033000Y-7382900D01*
X19033000Y-7242900D02*
X18893000Y-7382900D01*
X19033000Y-7312900D02*
G75*
G03X19033000Y-7312900I-70000J0D01*
G01*
X19401000Y-6480900D02*
X19541000Y-6620900D01*
X19541000Y-6480900D02*
X19401000Y-6620900D01*
X19541000Y-6550900D02*
G75*
G03X19541000Y-6550900I-70000J0D01*
G01*
X19401000Y-7242900D02*
X19541000Y-7382900D01*
X19541000Y-7242900D02*
X19401000Y-7382900D01*
X19541000Y-7312900D02*
G75*
G03X19541000Y-7312900I-70000J0D01*
G01*
D12*
X10278928Y-13047514D02*
X10278928Y-12747514D01*
X10350357Y-12747514D01*
X10393214Y-12761800D01*
X10421786Y-12790371D01*
X10436071Y-12818943D01*
X10450357Y-12876086D01*
X10450357Y-12918943D01*
X10436071Y-12976086D01*
X10421786Y-13004657D01*
X10393214Y-13033229D01*
X10350357Y-13047514D01*
X10278928Y-13047514D01*
X10578928Y-13047514D02*
X10578928Y-12847514D01*
X10578928Y-12904657D02*
X10593214Y-12876086D01*
X10607500Y-12861800D01*
X10636071Y-12847514D01*
X10664643Y-12847514D01*
X10764643Y-13047514D02*
X10764643Y-12847514D01*
X10764643Y-12747514D02*
X10750357Y-12761800D01*
X10764643Y-12776086D01*
X10778928Y-12761800D01*
X10764643Y-12747514D01*
X10764643Y-12776086D01*
X10950357Y-13047514D02*
X10921786Y-13033229D01*
X10907500Y-13004657D01*
X10907500Y-12747514D01*
X11107500Y-13047514D02*
X11078928Y-13033229D01*
X11064643Y-13004657D01*
X11064643Y-12747514D01*
X11450357Y-13047514D02*
X11450357Y-12747514D01*
X11550357Y-12961800D01*
X11650357Y-12747514D01*
X11650357Y-13047514D01*
X11921786Y-13047514D02*
X11921786Y-12890371D01*
X11907500Y-12861800D01*
X11878928Y-12847514D01*
X11821786Y-12847514D01*
X11793214Y-12861800D01*
X11921786Y-13033229D02*
X11893214Y-13047514D01*
X11821786Y-13047514D01*
X11793214Y-13033229D01*
X11778928Y-13004657D01*
X11778928Y-12976086D01*
X11793214Y-12947514D01*
X11821786Y-12933229D01*
X11893214Y-12933229D01*
X11921786Y-12918943D01*
X12064643Y-12847514D02*
X12064643Y-13147514D01*
X12064643Y-12861800D02*
X12093214Y-12847514D01*
X12150357Y-12847514D01*
X12178928Y-12861800D01*
X12193214Y-12876086D01*
X12207500Y-12904657D01*
X12207500Y-12990371D01*
X12193214Y-13018943D01*
X12178928Y-13033229D01*
X12150357Y-13047514D01*
X12093214Y-13047514D01*
X12064643Y-13033229D01*
X12336071Y-13018943D02*
X12350357Y-13033229D01*
X12336071Y-13047514D01*
X12321786Y-13033229D01*
X12336071Y-13018943D01*
X12336071Y-13047514D01*
X12336071Y-12861800D02*
X12350357Y-12876086D01*
X12336071Y-12890371D01*
X12321786Y-12876086D01*
X12336071Y-12861800D01*
X12336071Y-12890371D01*
X9962500Y-13526800D02*
X9992500Y-13556800D01*
X9992500Y-13526800D02*
X9962500Y-13556800D01*
X10336071Y-13377514D02*
X10364643Y-13377514D01*
X10393214Y-13391800D01*
X10407500Y-13406086D01*
X10421786Y-13434657D01*
X10436071Y-13491800D01*
X10436071Y-13563229D01*
X10421786Y-13620371D01*
X10407500Y-13648943D01*
X10393214Y-13663229D01*
X10364643Y-13677514D01*
X10336071Y-13677514D01*
X10307500Y-13663229D01*
X10293214Y-13648943D01*
X10278928Y-13620371D01*
X10264643Y-13563229D01*
X10264643Y-13491800D01*
X10278928Y-13434657D01*
X10293214Y-13406086D01*
X10307500Y-13391800D01*
X10336071Y-13377514D01*
X10564643Y-13648943D02*
X10578928Y-13663229D01*
X10564643Y-13677514D01*
X10550357Y-13663229D01*
X10564643Y-13648943D01*
X10564643Y-13677514D01*
X10678928Y-13377514D02*
X10864643Y-13377514D01*
X10764643Y-13491800D01*
X10807500Y-13491800D01*
X10836071Y-13506086D01*
X10850357Y-13520371D01*
X10864643Y-13548943D01*
X10864643Y-13620371D01*
X10850357Y-13648943D01*
X10836071Y-13663229D01*
X10807500Y-13677514D01*
X10721786Y-13677514D01*
X10693214Y-13663229D01*
X10678928Y-13648943D01*
X11050357Y-13377514D02*
X11078928Y-13377514D01*
X11107500Y-13391800D01*
X11121786Y-13406086D01*
X11136071Y-13434657D01*
X11150357Y-13491800D01*
X11150357Y-13563229D01*
X11136071Y-13620371D01*
X11121786Y-13648943D01*
X11107500Y-13663229D01*
X11078928Y-13677514D01*
X11050357Y-13677514D01*
X11021786Y-13663229D01*
X11007500Y-13648943D01*
X10993214Y-13620371D01*
X10978928Y-13563229D01*
X10978928Y-13491800D01*
X10993214Y-13434657D01*
X11007500Y-13406086D01*
X11021786Y-13391800D01*
X11050357Y-13377514D01*
X11278928Y-13677514D02*
X11278928Y-13477514D01*
X11278928Y-13506086D02*
X11293214Y-13491800D01*
X11321786Y-13477514D01*
X11364643Y-13477514D01*
X11393214Y-13491800D01*
X11407500Y-13520371D01*
X11407500Y-13677514D01*
X11407500Y-13520371D02*
X11421786Y-13491800D01*
X11450357Y-13477514D01*
X11493214Y-13477514D01*
X11521786Y-13491800D01*
X11536071Y-13520371D01*
X11536071Y-13677514D01*
X11678928Y-13677514D02*
X11678928Y-13477514D01*
X11678928Y-13506086D02*
X11693214Y-13491800D01*
X11721786Y-13477514D01*
X11764643Y-13477514D01*
X11793214Y-13491800D01*
X11807500Y-13520371D01*
X11807500Y-13677514D01*
X11807500Y-13520371D02*
X11821786Y-13491800D01*
X11850357Y-13477514D01*
X11893214Y-13477514D01*
X11921786Y-13491800D01*
X11936071Y-13520371D01*
X11936071Y-13677514D01*
X12521786Y-13363229D02*
X12264643Y-13748943D01*
X12907500Y-13377514D02*
X12936071Y-13377514D01*
X12964643Y-13391800D01*
X12978928Y-13406086D01*
X12993214Y-13434657D01*
X13007500Y-13491800D01*
X13007500Y-13563229D01*
X12993214Y-13620371D01*
X12978928Y-13648943D01*
X12964643Y-13663229D01*
X12936071Y-13677514D01*
X12907500Y-13677514D01*
X12878928Y-13663229D01*
X12864643Y-13648943D01*
X12850357Y-13620371D01*
X12836071Y-13563229D01*
X12836071Y-13491800D01*
X12850357Y-13434657D01*
X12864643Y-13406086D01*
X12878928Y-13391800D01*
X12907500Y-13377514D01*
X13136071Y-13648943D02*
X13150357Y-13663229D01*
X13136071Y-13677514D01*
X13121786Y-13663229D01*
X13136071Y-13648943D01*
X13136071Y-13677514D01*
X13336071Y-13377514D02*
X13364643Y-13377514D01*
X13393214Y-13391800D01*
X13407500Y-13406086D01*
X13421786Y-13434657D01*
X13436071Y-13491800D01*
X13436071Y-13563229D01*
X13421786Y-13620371D01*
X13407500Y-13648943D01*
X13393214Y-13663229D01*
X13364643Y-13677514D01*
X13336071Y-13677514D01*
X13307500Y-13663229D01*
X13293214Y-13648943D01*
X13278928Y-13620371D01*
X13264643Y-13563229D01*
X13264643Y-13491800D01*
X13278928Y-13434657D01*
X13293214Y-13406086D01*
X13307500Y-13391800D01*
X13336071Y-13377514D01*
X13721786Y-13677514D02*
X13550357Y-13677514D01*
X13636071Y-13677514D02*
X13636071Y-13377514D01*
X13607500Y-13420371D01*
X13578928Y-13448943D01*
X13550357Y-13463229D01*
X13836071Y-13406086D02*
X13850357Y-13391800D01*
X13878928Y-13377514D01*
X13950357Y-13377514D01*
X13978928Y-13391800D01*
X13993214Y-13406086D01*
X14007500Y-13434657D01*
X14007500Y-13463229D01*
X13993214Y-13506086D01*
X13821786Y-13677514D01*
X14007500Y-13677514D01*
X14121786Y-13377514D02*
X14121786Y-13434657D01*
X14236071Y-13377514D02*
X14236071Y-13434657D01*
X14678928Y-13791800D02*
X14664643Y-13777514D01*
X14636071Y-13734657D01*
X14621786Y-13706086D01*
X14607500Y-13663229D01*
X14593214Y-13591800D01*
X14593214Y-13534657D01*
X14607500Y-13463229D01*
X14621786Y-13420371D01*
X14636071Y-13391800D01*
X14664643Y-13348943D01*
X14678928Y-13334657D01*
X14950357Y-13677514D02*
X14778928Y-13677514D01*
X14864643Y-13677514D02*
X14864643Y-13377514D01*
X14836071Y-13420371D01*
X14807500Y-13448943D01*
X14778928Y-13463229D01*
X15136071Y-13377514D02*
X15164643Y-13377514D01*
X15193214Y-13391800D01*
X15207500Y-13406086D01*
X15221786Y-13434657D01*
X15236071Y-13491800D01*
X15236071Y-13563229D01*
X15221786Y-13620371D01*
X15207500Y-13648943D01*
X15193214Y-13663229D01*
X15164643Y-13677514D01*
X15136071Y-13677514D01*
X15107500Y-13663229D01*
X15093214Y-13648943D01*
X15078928Y-13620371D01*
X15064643Y-13563229D01*
X15064643Y-13491800D01*
X15078928Y-13434657D01*
X15093214Y-13406086D01*
X15107500Y-13391800D01*
X15136071Y-13377514D01*
X15507500Y-13377514D02*
X15364643Y-13377514D01*
X15350357Y-13520371D01*
X15364643Y-13506086D01*
X15393214Y-13491800D01*
X15464643Y-13491800D01*
X15493214Y-13506086D01*
X15507500Y-13520371D01*
X15521786Y-13548943D01*
X15521786Y-13620371D01*
X15507500Y-13648943D01*
X15493214Y-13663229D01*
X15464643Y-13677514D01*
X15393214Y-13677514D01*
X15364643Y-13663229D01*
X15350357Y-13648943D01*
X15878928Y-13677514D02*
X15878928Y-13377514D01*
X16007500Y-13677514D02*
X16007500Y-13520371D01*
X15993214Y-13491800D01*
X15964643Y-13477514D01*
X15921786Y-13477514D01*
X15893214Y-13491800D01*
X15878928Y-13506086D01*
X16193214Y-13677514D02*
X16164643Y-13663229D01*
X16150357Y-13648943D01*
X16136071Y-13620371D01*
X16136071Y-13534657D01*
X16150357Y-13506086D01*
X16164643Y-13491800D01*
X16193214Y-13477514D01*
X16236071Y-13477514D01*
X16264643Y-13491800D01*
X16278928Y-13506086D01*
X16293214Y-13534657D01*
X16293214Y-13620371D01*
X16278928Y-13648943D01*
X16264643Y-13663229D01*
X16236071Y-13677514D01*
X16193214Y-13677514D01*
X16464643Y-13677514D02*
X16436071Y-13663229D01*
X16421786Y-13634657D01*
X16421786Y-13377514D01*
X16693214Y-13663229D02*
X16664643Y-13677514D01*
X16607500Y-13677514D01*
X16578928Y-13663229D01*
X16564643Y-13634657D01*
X16564643Y-13520371D01*
X16578928Y-13491800D01*
X16607500Y-13477514D01*
X16664643Y-13477514D01*
X16693214Y-13491800D01*
X16707500Y-13520371D01*
X16707500Y-13548943D01*
X16564643Y-13577514D01*
X16821786Y-13663229D02*
X16850357Y-13677514D01*
X16907500Y-13677514D01*
X16936071Y-13663229D01*
X16950357Y-13634657D01*
X16950357Y-13620371D01*
X16936071Y-13591800D01*
X16907500Y-13577514D01*
X16864643Y-13577514D01*
X16836071Y-13563229D01*
X16821786Y-13534657D01*
X16821786Y-13520371D01*
X16836071Y-13491800D01*
X16864643Y-13477514D01*
X16907500Y-13477514D01*
X16936071Y-13491800D01*
X17050357Y-13791800D02*
X17064643Y-13777514D01*
X17093214Y-13734657D01*
X17107500Y-13706086D01*
X17121786Y-13663229D01*
X17136071Y-13591800D01*
X17136071Y-13534657D01*
X17121786Y-13463229D01*
X17107500Y-13420371D01*
X17093214Y-13391800D01*
X17064643Y-13348943D01*
X17050357Y-13334657D01*
X9992500Y-13937800D02*
G75*
G03X9992500Y-13937800I-30000J0D01*
G01*
X10336071Y-13773514D02*
X10364643Y-13773514D01*
X10393214Y-13787800D01*
X10407500Y-13802086D01*
X10421786Y-13830657D01*
X10436071Y-13887800D01*
X10436071Y-13959229D01*
X10421786Y-14016371D01*
X10407500Y-14044943D01*
X10393214Y-14059229D01*
X10364643Y-14073514D01*
X10336071Y-14073514D01*
X10307500Y-14059229D01*
X10293214Y-14044943D01*
X10278928Y-14016371D01*
X10264643Y-13959229D01*
X10264643Y-13887800D01*
X10278928Y-13830657D01*
X10293214Y-13802086D01*
X10307500Y-13787800D01*
X10336071Y-13773514D01*
X10564643Y-14044943D02*
X10578928Y-14059229D01*
X10564643Y-14073514D01*
X10550357Y-14059229D01*
X10564643Y-14044943D01*
X10564643Y-14073514D01*
X10836071Y-13773514D02*
X10778928Y-13773514D01*
X10750357Y-13787800D01*
X10736071Y-13802086D01*
X10707500Y-13844943D01*
X10693214Y-13902086D01*
X10693214Y-14016371D01*
X10707500Y-14044943D01*
X10721786Y-14059229D01*
X10750357Y-14073514D01*
X10807500Y-14073514D01*
X10836071Y-14059229D01*
X10850357Y-14044943D01*
X10864643Y-14016371D01*
X10864643Y-13944943D01*
X10850357Y-13916371D01*
X10836071Y-13902086D01*
X10807500Y-13887800D01*
X10750357Y-13887800D01*
X10721786Y-13902086D01*
X10707500Y-13916371D01*
X10693214Y-13944943D01*
X11050357Y-13773514D02*
X11078928Y-13773514D01*
X11107500Y-13787800D01*
X11121786Y-13802086D01*
X11136071Y-13830657D01*
X11150357Y-13887800D01*
X11150357Y-13959229D01*
X11136071Y-14016371D01*
X11121786Y-14044943D01*
X11107500Y-14059229D01*
X11078928Y-14073514D01*
X11050357Y-14073514D01*
X11021786Y-14059229D01*
X11007500Y-14044943D01*
X10993214Y-14016371D01*
X10978928Y-13959229D01*
X10978928Y-13887800D01*
X10993214Y-13830657D01*
X11007500Y-13802086D01*
X11021786Y-13787800D01*
X11050357Y-13773514D01*
X11278928Y-14073514D02*
X11278928Y-13873514D01*
X11278928Y-13902086D02*
X11293214Y-13887800D01*
X11321786Y-13873514D01*
X11364643Y-13873514D01*
X11393214Y-13887800D01*
X11407500Y-13916371D01*
X11407500Y-14073514D01*
X11407500Y-13916371D02*
X11421786Y-13887800D01*
X11450357Y-13873514D01*
X11493214Y-13873514D01*
X11521786Y-13887800D01*
X11536071Y-13916371D01*
X11536071Y-14073514D01*
X11678928Y-14073514D02*
X11678928Y-13873514D01*
X11678928Y-13902086D02*
X11693214Y-13887800D01*
X11721786Y-13873514D01*
X11764643Y-13873514D01*
X11793214Y-13887800D01*
X11807500Y-13916371D01*
X11807500Y-14073514D01*
X11807500Y-13916371D02*
X11821786Y-13887800D01*
X11850357Y-13873514D01*
X11893214Y-13873514D01*
X11921786Y-13887800D01*
X11936071Y-13916371D01*
X11936071Y-14073514D01*
X12521786Y-13759229D02*
X12264643Y-14144943D01*
X12907500Y-13773514D02*
X12936071Y-13773514D01*
X12964643Y-13787800D01*
X12978928Y-13802086D01*
X12993214Y-13830657D01*
X13007500Y-13887800D01*
X13007500Y-13959229D01*
X12993214Y-14016371D01*
X12978928Y-14044943D01*
X12964643Y-14059229D01*
X12936071Y-14073514D01*
X12907500Y-14073514D01*
X12878928Y-14059229D01*
X12864643Y-14044943D01*
X12850357Y-14016371D01*
X12836071Y-13959229D01*
X12836071Y-13887800D01*
X12850357Y-13830657D01*
X12864643Y-13802086D01*
X12878928Y-13787800D01*
X12907500Y-13773514D01*
X13136071Y-14044943D02*
X13150357Y-14059229D01*
X13136071Y-14073514D01*
X13121786Y-14059229D01*
X13136071Y-14044943D01*
X13136071Y-14073514D01*
X13336071Y-13773514D02*
X13364643Y-13773514D01*
X13393214Y-13787800D01*
X13407500Y-13802086D01*
X13421786Y-13830657D01*
X13436071Y-13887800D01*
X13436071Y-13959229D01*
X13421786Y-14016371D01*
X13407500Y-14044943D01*
X13393214Y-14059229D01*
X13364643Y-14073514D01*
X13336071Y-14073514D01*
X13307500Y-14059229D01*
X13293214Y-14044943D01*
X13278928Y-14016371D01*
X13264643Y-13959229D01*
X13264643Y-13887800D01*
X13278928Y-13830657D01*
X13293214Y-13802086D01*
X13307500Y-13787800D01*
X13336071Y-13773514D01*
X13550357Y-13802086D02*
X13564643Y-13787800D01*
X13593214Y-13773514D01*
X13664643Y-13773514D01*
X13693214Y-13787800D01*
X13707500Y-13802086D01*
X13721786Y-13830657D01*
X13721786Y-13859229D01*
X13707500Y-13902086D01*
X13536071Y-14073514D01*
X13721786Y-14073514D01*
X13978928Y-13873514D02*
X13978928Y-14073514D01*
X13907500Y-13759229D02*
X13836071Y-13973514D01*
X14021786Y-13973514D01*
X14121786Y-13773514D02*
X14121786Y-13830657D01*
X14236071Y-13773514D02*
X14236071Y-13830657D01*
X14678928Y-14187800D02*
X14664643Y-14173514D01*
X14636071Y-14130657D01*
X14621786Y-14102086D01*
X14607500Y-14059229D01*
X14593214Y-13987800D01*
X14593214Y-13930657D01*
X14607500Y-13859229D01*
X14621786Y-13816371D01*
X14636071Y-13787800D01*
X14664643Y-13744943D01*
X14678928Y-13730657D01*
X14950357Y-14073514D02*
X14778928Y-14073514D01*
X14864643Y-14073514D02*
X14864643Y-13773514D01*
X14836071Y-13816371D01*
X14807500Y-13844943D01*
X14778928Y-13859229D01*
X15207500Y-13773514D02*
X15150357Y-13773514D01*
X15121786Y-13787800D01*
X15107500Y-13802086D01*
X15078928Y-13844943D01*
X15064643Y-13902086D01*
X15064643Y-14016371D01*
X15078928Y-14044943D01*
X15093214Y-14059229D01*
X15121786Y-14073514D01*
X15178928Y-14073514D01*
X15207500Y-14059229D01*
X15221786Y-14044943D01*
X15236071Y-14016371D01*
X15236071Y-13944943D01*
X15221786Y-13916371D01*
X15207500Y-13902086D01*
X15178928Y-13887800D01*
X15121786Y-13887800D01*
X15093214Y-13902086D01*
X15078928Y-13916371D01*
X15064643Y-13944943D01*
X15593214Y-14073514D02*
X15593214Y-13773514D01*
X15721786Y-14073514D02*
X15721786Y-13916371D01*
X15707500Y-13887800D01*
X15678928Y-13873514D01*
X15636071Y-13873514D01*
X15607500Y-13887800D01*
X15593214Y-13902086D01*
X15907500Y-14073514D02*
X15878928Y-14059229D01*
X15864643Y-14044943D01*
X15850357Y-14016371D01*
X15850357Y-13930657D01*
X15864643Y-13902086D01*
X15878928Y-13887800D01*
X15907500Y-13873514D01*
X15950357Y-13873514D01*
X15978928Y-13887800D01*
X15993214Y-13902086D01*
X16007500Y-13930657D01*
X16007500Y-14016371D01*
X15993214Y-14044943D01*
X15978928Y-14059229D01*
X15950357Y-14073514D01*
X15907500Y-14073514D01*
X16178928Y-14073514D02*
X16150357Y-14059229D01*
X16136071Y-14030657D01*
X16136071Y-13773514D01*
X16407500Y-14059229D02*
X16378928Y-14073514D01*
X16321786Y-14073514D01*
X16293214Y-14059229D01*
X16278928Y-14030657D01*
X16278928Y-13916371D01*
X16293214Y-13887800D01*
X16321786Y-13873514D01*
X16378928Y-13873514D01*
X16407500Y-13887800D01*
X16421786Y-13916371D01*
X16421786Y-13944943D01*
X16278928Y-13973514D01*
X16536071Y-14059229D02*
X16564643Y-14073514D01*
X16621786Y-14073514D01*
X16650357Y-14059229D01*
X16664643Y-14030657D01*
X16664643Y-14016371D01*
X16650357Y-13987800D01*
X16621786Y-13973514D01*
X16578928Y-13973514D01*
X16550357Y-13959229D01*
X16536071Y-13930657D01*
X16536071Y-13916371D01*
X16550357Y-13887800D01*
X16578928Y-13873514D01*
X16621786Y-13873514D01*
X16650357Y-13887800D01*
X16764643Y-14187800D02*
X16778928Y-14173514D01*
X16807500Y-14130657D01*
X16821786Y-14102086D01*
X16836071Y-14059229D01*
X16850357Y-13987800D01*
X16850357Y-13930657D01*
X16836071Y-13859229D01*
X16821786Y-13816371D01*
X16807500Y-13787800D01*
X16778928Y-13744943D01*
X16764643Y-13730657D01*
X9957500Y-14298800D02*
X9957500Y-14368800D01*
X9922500Y-14333800D02*
X9992500Y-14333800D01*
X10336071Y-14169514D02*
X10364643Y-14169514D01*
X10393214Y-14183800D01*
X10407500Y-14198086D01*
X10421786Y-14226657D01*
X10436071Y-14283800D01*
X10436071Y-14355229D01*
X10421786Y-14412371D01*
X10407500Y-14440943D01*
X10393214Y-14455229D01*
X10364643Y-14469514D01*
X10336071Y-14469514D01*
X10307500Y-14455229D01*
X10293214Y-14440943D01*
X10278928Y-14412371D01*
X10264643Y-14355229D01*
X10264643Y-14283800D01*
X10278928Y-14226657D01*
X10293214Y-14198086D01*
X10307500Y-14183800D01*
X10336071Y-14169514D01*
X10564643Y-14440943D02*
X10578928Y-14455229D01*
X10564643Y-14469514D01*
X10550357Y-14455229D01*
X10564643Y-14440943D01*
X10564643Y-14469514D01*
X10678928Y-14169514D02*
X10878928Y-14169514D01*
X10750357Y-14469514D01*
X11050357Y-14169514D02*
X11078928Y-14169514D01*
X11107500Y-14183800D01*
X11121786Y-14198086D01*
X11136071Y-14226657D01*
X11150357Y-14283800D01*
X11150357Y-14355229D01*
X11136071Y-14412371D01*
X11121786Y-14440943D01*
X11107500Y-14455229D01*
X11078928Y-14469514D01*
X11050357Y-14469514D01*
X11021786Y-14455229D01*
X11007500Y-14440943D01*
X10993214Y-14412371D01*
X10978928Y-14355229D01*
X10978928Y-14283800D01*
X10993214Y-14226657D01*
X11007500Y-14198086D01*
X11021786Y-14183800D01*
X11050357Y-14169514D01*
X11278928Y-14469514D02*
X11278928Y-14269514D01*
X11278928Y-14298086D02*
X11293214Y-14283800D01*
X11321786Y-14269514D01*
X11364643Y-14269514D01*
X11393214Y-14283800D01*
X11407500Y-14312371D01*
X11407500Y-14469514D01*
X11407500Y-14312371D02*
X11421786Y-14283800D01*
X11450357Y-14269514D01*
X11493214Y-14269514D01*
X11521786Y-14283800D01*
X11536071Y-14312371D01*
X11536071Y-14469514D01*
X11678928Y-14469514D02*
X11678928Y-14269514D01*
X11678928Y-14298086D02*
X11693214Y-14283800D01*
X11721786Y-14269514D01*
X11764643Y-14269514D01*
X11793214Y-14283800D01*
X11807500Y-14312371D01*
X11807500Y-14469514D01*
X11807500Y-14312371D02*
X11821786Y-14283800D01*
X11850357Y-14269514D01*
X11893214Y-14269514D01*
X11921786Y-14283800D01*
X11936071Y-14312371D01*
X11936071Y-14469514D01*
X12521786Y-14155229D02*
X12264643Y-14540943D01*
X12907500Y-14169514D02*
X12936071Y-14169514D01*
X12964643Y-14183800D01*
X12978928Y-14198086D01*
X12993214Y-14226657D01*
X13007500Y-14283800D01*
X13007500Y-14355229D01*
X12993214Y-14412371D01*
X12978928Y-14440943D01*
X12964643Y-14455229D01*
X12936071Y-14469514D01*
X12907500Y-14469514D01*
X12878928Y-14455229D01*
X12864643Y-14440943D01*
X12850357Y-14412371D01*
X12836071Y-14355229D01*
X12836071Y-14283800D01*
X12850357Y-14226657D01*
X12864643Y-14198086D01*
X12878928Y-14183800D01*
X12907500Y-14169514D01*
X13136071Y-14440943D02*
X13150357Y-14455229D01*
X13136071Y-14469514D01*
X13121786Y-14455229D01*
X13136071Y-14440943D01*
X13136071Y-14469514D01*
X13336071Y-14169514D02*
X13364643Y-14169514D01*
X13393214Y-14183800D01*
X13407500Y-14198086D01*
X13421786Y-14226657D01*
X13436071Y-14283800D01*
X13436071Y-14355229D01*
X13421786Y-14412371D01*
X13407500Y-14440943D01*
X13393214Y-14455229D01*
X13364643Y-14469514D01*
X13336071Y-14469514D01*
X13307500Y-14455229D01*
X13293214Y-14440943D01*
X13278928Y-14412371D01*
X13264643Y-14355229D01*
X13264643Y-14283800D01*
X13278928Y-14226657D01*
X13293214Y-14198086D01*
X13307500Y-14183800D01*
X13336071Y-14169514D01*
X13550357Y-14198086D02*
X13564643Y-14183800D01*
X13593214Y-14169514D01*
X13664643Y-14169514D01*
X13693214Y-14183800D01*
X13707500Y-14198086D01*
X13721786Y-14226657D01*
X13721786Y-14255229D01*
X13707500Y-14298086D01*
X13536071Y-14469514D01*
X13721786Y-14469514D01*
X13893214Y-14298086D02*
X13864643Y-14283800D01*
X13850357Y-14269514D01*
X13836071Y-14240943D01*
X13836071Y-14226657D01*
X13850357Y-14198086D01*
X13864643Y-14183800D01*
X13893214Y-14169514D01*
X13950357Y-14169514D01*
X13978928Y-14183800D01*
X13993214Y-14198086D01*
X14007500Y-14226657D01*
X14007500Y-14240943D01*
X13993214Y-14269514D01*
X13978928Y-14283800D01*
X13950357Y-14298086D01*
X13893214Y-14298086D01*
X13864643Y-14312371D01*
X13850357Y-14326657D01*
X13836071Y-14355229D01*
X13836071Y-14412371D01*
X13850357Y-14440943D01*
X13864643Y-14455229D01*
X13893214Y-14469514D01*
X13950357Y-14469514D01*
X13978928Y-14455229D01*
X13993214Y-14440943D01*
X14007500Y-14412371D01*
X14007500Y-14355229D01*
X13993214Y-14326657D01*
X13978928Y-14312371D01*
X13950357Y-14298086D01*
X14121786Y-14169514D02*
X14121786Y-14226657D01*
X14236071Y-14169514D02*
X14236071Y-14226657D01*
X14678928Y-14583800D02*
X14664643Y-14569514D01*
X14636071Y-14526657D01*
X14621786Y-14498086D01*
X14607500Y-14455229D01*
X14593214Y-14383800D01*
X14593214Y-14326657D01*
X14607500Y-14255229D01*
X14621786Y-14212371D01*
X14636071Y-14183800D01*
X14664643Y-14140943D01*
X14678928Y-14126657D01*
X14764643Y-14169514D02*
X14950357Y-14169514D01*
X14850357Y-14283800D01*
X14893214Y-14283800D01*
X14921786Y-14298086D01*
X14936071Y-14312371D01*
X14950357Y-14340943D01*
X14950357Y-14412371D01*
X14936071Y-14440943D01*
X14921786Y-14455229D01*
X14893214Y-14469514D01*
X14807500Y-14469514D01*
X14778928Y-14455229D01*
X14764643Y-14440943D01*
X15050357Y-14169514D02*
X15250357Y-14169514D01*
X15121786Y-14469514D01*
X15593214Y-14469514D02*
X15593214Y-14169514D01*
X15721786Y-14469514D02*
X15721786Y-14312371D01*
X15707500Y-14283800D01*
X15678928Y-14269514D01*
X15636071Y-14269514D01*
X15607500Y-14283800D01*
X15593214Y-14298086D01*
X15907500Y-14469514D02*
X15878928Y-14455229D01*
X15864643Y-14440943D01*
X15850357Y-14412371D01*
X15850357Y-14326657D01*
X15864643Y-14298086D01*
X15878928Y-14283800D01*
X15907500Y-14269514D01*
X15950357Y-14269514D01*
X15978928Y-14283800D01*
X15993214Y-14298086D01*
X16007500Y-14326657D01*
X16007500Y-14412371D01*
X15993214Y-14440943D01*
X15978928Y-14455229D01*
X15950357Y-14469514D01*
X15907500Y-14469514D01*
X16178928Y-14469514D02*
X16150357Y-14455229D01*
X16136071Y-14426657D01*
X16136071Y-14169514D01*
X16407500Y-14455229D02*
X16378928Y-14469514D01*
X16321786Y-14469514D01*
X16293214Y-14455229D01*
X16278928Y-14426657D01*
X16278928Y-14312371D01*
X16293214Y-14283800D01*
X16321786Y-14269514D01*
X16378928Y-14269514D01*
X16407500Y-14283800D01*
X16421786Y-14312371D01*
X16421786Y-14340943D01*
X16278928Y-14369514D01*
X16536071Y-14455229D02*
X16564643Y-14469514D01*
X16621786Y-14469514D01*
X16650357Y-14455229D01*
X16664643Y-14426657D01*
X16664643Y-14412371D01*
X16650357Y-14383800D01*
X16621786Y-14369514D01*
X16578928Y-14369514D01*
X16550357Y-14355229D01*
X16536071Y-14326657D01*
X16536071Y-14312371D01*
X16550357Y-14283800D01*
X16578928Y-14269514D01*
X16621786Y-14269514D01*
X16650357Y-14283800D01*
X16764643Y-14583800D02*
X16778928Y-14569514D01*
X16807500Y-14526657D01*
X16821786Y-14498086D01*
X16836071Y-14455229D01*
X16850357Y-14383800D01*
X16850357Y-14326657D01*
X16836071Y-14255229D01*
X16821786Y-14212371D01*
X16807500Y-14183800D01*
X16778928Y-14140943D01*
X16764643Y-14126657D01*
X9977856Y-14765156D02*
X9977856Y-14694444D01*
X9907144Y-14694444D01*
X9907144Y-14765156D01*
X9977856Y-14765156D01*
X10436071Y-14865514D02*
X10264643Y-14865514D01*
X10350357Y-14865514D02*
X10350357Y-14565514D01*
X10321786Y-14608371D01*
X10293214Y-14636943D01*
X10264643Y-14651229D01*
X10564643Y-14836943D02*
X10578928Y-14851229D01*
X10564643Y-14865514D01*
X10550357Y-14851229D01*
X10564643Y-14836943D01*
X10564643Y-14865514D01*
X10764643Y-14565514D02*
X10793214Y-14565514D01*
X10821786Y-14579800D01*
X10836071Y-14594086D01*
X10850357Y-14622657D01*
X10864643Y-14679800D01*
X10864643Y-14751229D01*
X10850357Y-14808371D01*
X10836071Y-14836943D01*
X10821786Y-14851229D01*
X10793214Y-14865514D01*
X10764643Y-14865514D01*
X10736071Y-14851229D01*
X10721786Y-14836943D01*
X10707500Y-14808371D01*
X10693214Y-14751229D01*
X10693214Y-14679800D01*
X10707500Y-14622657D01*
X10721786Y-14594086D01*
X10736071Y-14579800D01*
X10764643Y-14565514D01*
X11050357Y-14565514D02*
X11078928Y-14565514D01*
X11107500Y-14579800D01*
X11121786Y-14594086D01*
X11136071Y-14622657D01*
X11150357Y-14679800D01*
X11150357Y-14751229D01*
X11136071Y-14808371D01*
X11121786Y-14836943D01*
X11107500Y-14851229D01*
X11078928Y-14865514D01*
X11050357Y-14865514D01*
X11021786Y-14851229D01*
X11007500Y-14836943D01*
X10993214Y-14808371D01*
X10978928Y-14751229D01*
X10978928Y-14679800D01*
X10993214Y-14622657D01*
X11007500Y-14594086D01*
X11021786Y-14579800D01*
X11050357Y-14565514D01*
X11278928Y-14865514D02*
X11278928Y-14665514D01*
X11278928Y-14694086D02*
X11293214Y-14679800D01*
X11321786Y-14665514D01*
X11364643Y-14665514D01*
X11393214Y-14679800D01*
X11407500Y-14708371D01*
X11407500Y-14865514D01*
X11407500Y-14708371D02*
X11421786Y-14679800D01*
X11450357Y-14665514D01*
X11493214Y-14665514D01*
X11521786Y-14679800D01*
X11536071Y-14708371D01*
X11536071Y-14865514D01*
X11678928Y-14865514D02*
X11678928Y-14665514D01*
X11678928Y-14694086D02*
X11693214Y-14679800D01*
X11721786Y-14665514D01*
X11764643Y-14665514D01*
X11793214Y-14679800D01*
X11807500Y-14708371D01*
X11807500Y-14865514D01*
X11807500Y-14708371D02*
X11821786Y-14679800D01*
X11850357Y-14665514D01*
X11893214Y-14665514D01*
X11921786Y-14679800D01*
X11936071Y-14708371D01*
X11936071Y-14865514D01*
X12521786Y-14551229D02*
X12264643Y-14936943D01*
X12907500Y-14565514D02*
X12936071Y-14565514D01*
X12964643Y-14579800D01*
X12978928Y-14594086D01*
X12993214Y-14622657D01*
X13007500Y-14679800D01*
X13007500Y-14751229D01*
X12993214Y-14808371D01*
X12978928Y-14836943D01*
X12964643Y-14851229D01*
X12936071Y-14865514D01*
X12907500Y-14865514D01*
X12878928Y-14851229D01*
X12864643Y-14836943D01*
X12850357Y-14808371D01*
X12836071Y-14751229D01*
X12836071Y-14679800D01*
X12850357Y-14622657D01*
X12864643Y-14594086D01*
X12878928Y-14579800D01*
X12907500Y-14565514D01*
X13136071Y-14836943D02*
X13150357Y-14851229D01*
X13136071Y-14865514D01*
X13121786Y-14851229D01*
X13136071Y-14836943D01*
X13136071Y-14865514D01*
X13336071Y-14565514D02*
X13364643Y-14565514D01*
X13393214Y-14579800D01*
X13407500Y-14594086D01*
X13421786Y-14622657D01*
X13436071Y-14679800D01*
X13436071Y-14751229D01*
X13421786Y-14808371D01*
X13407500Y-14836943D01*
X13393214Y-14851229D01*
X13364643Y-14865514D01*
X13336071Y-14865514D01*
X13307500Y-14851229D01*
X13293214Y-14836943D01*
X13278928Y-14808371D01*
X13264643Y-14751229D01*
X13264643Y-14679800D01*
X13278928Y-14622657D01*
X13293214Y-14594086D01*
X13307500Y-14579800D01*
X13336071Y-14565514D01*
X13536071Y-14565514D02*
X13721786Y-14565514D01*
X13621786Y-14679800D01*
X13664643Y-14679800D01*
X13693214Y-14694086D01*
X13707500Y-14708371D01*
X13721786Y-14736943D01*
X13721786Y-14808371D01*
X13707500Y-14836943D01*
X13693214Y-14851229D01*
X13664643Y-14865514D01*
X13578928Y-14865514D01*
X13550357Y-14851229D01*
X13536071Y-14836943D01*
X13864643Y-14865514D02*
X13921786Y-14865514D01*
X13950357Y-14851229D01*
X13964643Y-14836943D01*
X13993214Y-14794086D01*
X14007500Y-14736943D01*
X14007500Y-14622657D01*
X13993214Y-14594086D01*
X13978928Y-14579800D01*
X13950357Y-14565514D01*
X13893214Y-14565514D01*
X13864643Y-14579800D01*
X13850357Y-14594086D01*
X13836071Y-14622657D01*
X13836071Y-14694086D01*
X13850357Y-14722657D01*
X13864643Y-14736943D01*
X13893214Y-14751229D01*
X13950357Y-14751229D01*
X13978928Y-14736943D01*
X13993214Y-14722657D01*
X14007500Y-14694086D01*
X14121786Y-14565514D02*
X14121786Y-14622657D01*
X14236071Y-14565514D02*
X14236071Y-14622657D01*
X14678928Y-14979800D02*
X14664643Y-14965514D01*
X14636071Y-14922657D01*
X14621786Y-14894086D01*
X14607500Y-14851229D01*
X14593214Y-14779800D01*
X14593214Y-14722657D01*
X14607500Y-14651229D01*
X14621786Y-14608371D01*
X14636071Y-14579800D01*
X14664643Y-14536943D01*
X14678928Y-14522657D01*
X14921786Y-14565514D02*
X14864643Y-14565514D01*
X14836071Y-14579800D01*
X14821786Y-14594086D01*
X14793214Y-14636943D01*
X14778928Y-14694086D01*
X14778928Y-14808371D01*
X14793214Y-14836943D01*
X14807500Y-14851229D01*
X14836071Y-14865514D01*
X14893214Y-14865514D01*
X14921786Y-14851229D01*
X14936071Y-14836943D01*
X14950357Y-14808371D01*
X14950357Y-14736943D01*
X14936071Y-14708371D01*
X14921786Y-14694086D01*
X14893214Y-14679800D01*
X14836071Y-14679800D01*
X14807500Y-14694086D01*
X14793214Y-14708371D01*
X14778928Y-14736943D01*
X15050357Y-14565514D02*
X15250357Y-14565514D01*
X15121786Y-14865514D01*
X15593214Y-14865514D02*
X15593214Y-14565514D01*
X15721786Y-14865514D02*
X15721786Y-14708371D01*
X15707500Y-14679800D01*
X15678928Y-14665514D01*
X15636071Y-14665514D01*
X15607500Y-14679800D01*
X15593214Y-14694086D01*
X15907500Y-14865514D02*
X15878928Y-14851229D01*
X15864643Y-14836943D01*
X15850357Y-14808371D01*
X15850357Y-14722657D01*
X15864643Y-14694086D01*
X15878928Y-14679800D01*
X15907500Y-14665514D01*
X15950357Y-14665514D01*
X15978928Y-14679800D01*
X15993214Y-14694086D01*
X16007500Y-14722657D01*
X16007500Y-14808371D01*
X15993214Y-14836943D01*
X15978928Y-14851229D01*
X15950357Y-14865514D01*
X15907500Y-14865514D01*
X16178928Y-14865514D02*
X16150357Y-14851229D01*
X16136071Y-14822657D01*
X16136071Y-14565514D01*
X16407500Y-14851229D02*
X16378928Y-14865514D01*
X16321786Y-14865514D01*
X16293214Y-14851229D01*
X16278928Y-14822657D01*
X16278928Y-14708371D01*
X16293214Y-14679800D01*
X16321786Y-14665514D01*
X16378928Y-14665514D01*
X16407500Y-14679800D01*
X16421786Y-14708371D01*
X16421786Y-14736943D01*
X16278928Y-14765514D01*
X16536071Y-14851229D02*
X16564643Y-14865514D01*
X16621786Y-14865514D01*
X16650357Y-14851229D01*
X16664643Y-14822657D01*
X16664643Y-14808371D01*
X16650357Y-14779800D01*
X16621786Y-14765514D01*
X16578928Y-14765514D01*
X16550357Y-14751229D01*
X16536071Y-14722657D01*
X16536071Y-14708371D01*
X16550357Y-14679800D01*
X16578928Y-14665514D01*
X16621786Y-14665514D01*
X16650357Y-14679800D01*
X16764643Y-14979800D02*
X16778928Y-14965514D01*
X16807500Y-14922657D01*
X16821786Y-14894086D01*
X16836071Y-14851229D01*
X16850357Y-14779800D01*
X16850357Y-14722657D01*
X16836071Y-14651229D01*
X16821786Y-14608371D01*
X16807500Y-14579800D01*
X16778928Y-14536943D01*
X16764643Y-14522657D01*
X9937500Y-15180800D02*
X9992500Y-15125800D01*
X9937500Y-15070800D01*
X9882500Y-15125800D01*
X9937500Y-15180800D01*
X10436071Y-15261514D02*
X10264643Y-15261514D01*
X10350357Y-15261514D02*
X10350357Y-14961514D01*
X10321786Y-15004371D01*
X10293214Y-15032943D01*
X10264643Y-15047229D01*
X10564643Y-15232943D02*
X10578928Y-15247229D01*
X10564643Y-15261514D01*
X10550357Y-15247229D01*
X10564643Y-15232943D01*
X10564643Y-15261514D01*
X10864643Y-15261514D02*
X10693214Y-15261514D01*
X10778928Y-15261514D02*
X10778928Y-14961514D01*
X10750357Y-15004371D01*
X10721786Y-15032943D01*
X10693214Y-15047229D01*
X11050357Y-14961514D02*
X11078928Y-14961514D01*
X11107500Y-14975800D01*
X11121786Y-14990086D01*
X11136071Y-15018657D01*
X11150357Y-15075800D01*
X11150357Y-15147229D01*
X11136071Y-15204371D01*
X11121786Y-15232943D01*
X11107500Y-15247229D01*
X11078928Y-15261514D01*
X11050357Y-15261514D01*
X11021786Y-15247229D01*
X11007500Y-15232943D01*
X10993214Y-15204371D01*
X10978928Y-15147229D01*
X10978928Y-15075800D01*
X10993214Y-15018657D01*
X11007500Y-14990086D01*
X11021786Y-14975800D01*
X11050357Y-14961514D01*
X11278928Y-15261514D02*
X11278928Y-15061514D01*
X11278928Y-15090086D02*
X11293214Y-15075800D01*
X11321786Y-15061514D01*
X11364643Y-15061514D01*
X11393214Y-15075800D01*
X11407500Y-15104371D01*
X11407500Y-15261514D01*
X11407500Y-15104371D02*
X11421786Y-15075800D01*
X11450357Y-15061514D01*
X11493214Y-15061514D01*
X11521786Y-15075800D01*
X11536071Y-15104371D01*
X11536071Y-15261514D01*
X11678928Y-15261514D02*
X11678928Y-15061514D01*
X11678928Y-15090086D02*
X11693214Y-15075800D01*
X11721786Y-15061514D01*
X11764643Y-15061514D01*
X11793214Y-15075800D01*
X11807500Y-15104371D01*
X11807500Y-15261514D01*
X11807500Y-15104371D02*
X11821786Y-15075800D01*
X11850357Y-15061514D01*
X11893214Y-15061514D01*
X11921786Y-15075800D01*
X11936071Y-15104371D01*
X11936071Y-15261514D01*
X12521786Y-14947229D02*
X12264643Y-15332943D01*
X12907500Y-14961514D02*
X12936071Y-14961514D01*
X12964643Y-14975800D01*
X12978928Y-14990086D01*
X12993214Y-15018657D01*
X13007500Y-15075800D01*
X13007500Y-15147229D01*
X12993214Y-15204371D01*
X12978928Y-15232943D01*
X12964643Y-15247229D01*
X12936071Y-15261514D01*
X12907500Y-15261514D01*
X12878928Y-15247229D01*
X12864643Y-15232943D01*
X12850357Y-15204371D01*
X12836071Y-15147229D01*
X12836071Y-15075800D01*
X12850357Y-15018657D01*
X12864643Y-14990086D01*
X12878928Y-14975800D01*
X12907500Y-14961514D01*
X13136071Y-15232943D02*
X13150357Y-15247229D01*
X13136071Y-15261514D01*
X13121786Y-15247229D01*
X13136071Y-15232943D01*
X13136071Y-15261514D01*
X13336071Y-14961514D02*
X13364643Y-14961514D01*
X13393214Y-14975800D01*
X13407500Y-14990086D01*
X13421786Y-15018657D01*
X13436071Y-15075800D01*
X13436071Y-15147229D01*
X13421786Y-15204371D01*
X13407500Y-15232943D01*
X13393214Y-15247229D01*
X13364643Y-15261514D01*
X13336071Y-15261514D01*
X13307500Y-15247229D01*
X13293214Y-15232943D01*
X13278928Y-15204371D01*
X13264643Y-15147229D01*
X13264643Y-15075800D01*
X13278928Y-15018657D01*
X13293214Y-14990086D01*
X13307500Y-14975800D01*
X13336071Y-14961514D01*
X13693214Y-15061514D02*
X13693214Y-15261514D01*
X13621786Y-14947229D02*
X13550357Y-15161514D01*
X13736071Y-15161514D01*
X13821786Y-14961514D02*
X14007500Y-14961514D01*
X13907500Y-15075800D01*
X13950357Y-15075800D01*
X13978928Y-15090086D01*
X13993214Y-15104371D01*
X14007500Y-15132943D01*
X14007500Y-15204371D01*
X13993214Y-15232943D01*
X13978928Y-15247229D01*
X13950357Y-15261514D01*
X13864643Y-15261514D01*
X13836071Y-15247229D01*
X13821786Y-15232943D01*
X14121786Y-14961514D02*
X14121786Y-15018657D01*
X14236071Y-14961514D02*
X14236071Y-15018657D01*
X14678928Y-15375800D02*
X14664643Y-15361514D01*
X14636071Y-15318657D01*
X14621786Y-15290086D01*
X14607500Y-15247229D01*
X14593214Y-15175800D01*
X14593214Y-15118657D01*
X14607500Y-15047229D01*
X14621786Y-15004371D01*
X14636071Y-14975800D01*
X14664643Y-14932943D01*
X14678928Y-14918657D01*
X14778928Y-14990086D02*
X14793214Y-14975800D01*
X14821786Y-14961514D01*
X14893214Y-14961514D01*
X14921786Y-14975800D01*
X14936071Y-14990086D01*
X14950357Y-15018657D01*
X14950357Y-15047229D01*
X14936071Y-15090086D01*
X14764643Y-15261514D01*
X14950357Y-15261514D01*
X15207500Y-14961514D02*
X15150357Y-14961514D01*
X15121786Y-14975800D01*
X15107500Y-14990086D01*
X15078928Y-15032943D01*
X15064643Y-15090086D01*
X15064643Y-15204371D01*
X15078928Y-15232943D01*
X15093214Y-15247229D01*
X15121786Y-15261514D01*
X15178928Y-15261514D01*
X15207500Y-15247229D01*
X15221786Y-15232943D01*
X15236071Y-15204371D01*
X15236071Y-15132943D01*
X15221786Y-15104371D01*
X15207500Y-15090086D01*
X15178928Y-15075800D01*
X15121786Y-15075800D01*
X15093214Y-15090086D01*
X15078928Y-15104371D01*
X15064643Y-15132943D01*
X15593214Y-15261514D02*
X15593214Y-14961514D01*
X15721786Y-15261514D02*
X15721786Y-15104371D01*
X15707500Y-15075800D01*
X15678928Y-15061514D01*
X15636071Y-15061514D01*
X15607500Y-15075800D01*
X15593214Y-15090086D01*
X15907500Y-15261514D02*
X15878928Y-15247229D01*
X15864643Y-15232943D01*
X15850357Y-15204371D01*
X15850357Y-15118657D01*
X15864643Y-15090086D01*
X15878928Y-15075800D01*
X15907500Y-15061514D01*
X15950357Y-15061514D01*
X15978928Y-15075800D01*
X15993214Y-15090086D01*
X16007500Y-15118657D01*
X16007500Y-15204371D01*
X15993214Y-15232943D01*
X15978928Y-15247229D01*
X15950357Y-15261514D01*
X15907500Y-15261514D01*
X16178928Y-15261514D02*
X16150357Y-15247229D01*
X16136071Y-15218657D01*
X16136071Y-14961514D01*
X16407500Y-15247229D02*
X16378928Y-15261514D01*
X16321786Y-15261514D01*
X16293214Y-15247229D01*
X16278928Y-15218657D01*
X16278928Y-15104371D01*
X16293214Y-15075800D01*
X16321786Y-15061514D01*
X16378928Y-15061514D01*
X16407500Y-15075800D01*
X16421786Y-15104371D01*
X16421786Y-15132943D01*
X16278928Y-15161514D01*
X16536071Y-15247229D02*
X16564643Y-15261514D01*
X16621786Y-15261514D01*
X16650357Y-15247229D01*
X16664643Y-15218657D01*
X16664643Y-15204371D01*
X16650357Y-15175800D01*
X16621786Y-15161514D01*
X16578928Y-15161514D01*
X16550357Y-15147229D01*
X16536071Y-15118657D01*
X16536071Y-15104371D01*
X16550357Y-15075800D01*
X16578928Y-15061514D01*
X16621786Y-15061514D01*
X16650357Y-15075800D01*
X16764643Y-15375800D02*
X16778928Y-15361514D01*
X16807500Y-15318657D01*
X16821786Y-15290086D01*
X16836071Y-15247229D01*
X16850357Y-15175800D01*
X16850357Y-15118657D01*
X16836071Y-15047229D01*
X16821786Y-15004371D01*
X16807500Y-14975800D01*
X16778928Y-14932943D01*
X16764643Y-14918657D01*
X9852500Y-15451800D02*
X9992500Y-15591800D01*
X9992500Y-15451800D02*
X9852500Y-15591800D01*
X9992500Y-15521800D02*
G75*
G03X9992500Y-15521800I-70000J0D01*
G01*
X10436071Y-15657514D02*
X10264643Y-15657514D01*
X10350357Y-15657514D02*
X10350357Y-15357514D01*
X10321786Y-15400371D01*
X10293214Y-15428943D01*
X10264643Y-15443229D01*
X10564643Y-15628943D02*
X10578928Y-15643229D01*
X10564643Y-15657514D01*
X10550357Y-15643229D01*
X10564643Y-15628943D01*
X10564643Y-15657514D01*
X10836071Y-15457514D02*
X10836071Y-15657514D01*
X10764643Y-15343229D02*
X10693214Y-15557514D01*
X10878928Y-15557514D01*
X11050357Y-15357514D02*
X11078928Y-15357514D01*
X11107500Y-15371800D01*
X11121786Y-15386086D01*
X11136071Y-15414657D01*
X11150357Y-15471800D01*
X11150357Y-15543229D01*
X11136071Y-15600371D01*
X11121786Y-15628943D01*
X11107500Y-15643229D01*
X11078928Y-15657514D01*
X11050357Y-15657514D01*
X11021786Y-15643229D01*
X11007500Y-15628943D01*
X10993214Y-15600371D01*
X10978928Y-15543229D01*
X10978928Y-15471800D01*
X10993214Y-15414657D01*
X11007500Y-15386086D01*
X11021786Y-15371800D01*
X11050357Y-15357514D01*
X11278928Y-15657514D02*
X11278928Y-15457514D01*
X11278928Y-15486086D02*
X11293214Y-15471800D01*
X11321786Y-15457514D01*
X11364643Y-15457514D01*
X11393214Y-15471800D01*
X11407500Y-15500371D01*
X11407500Y-15657514D01*
X11407500Y-15500371D02*
X11421786Y-15471800D01*
X11450357Y-15457514D01*
X11493214Y-15457514D01*
X11521786Y-15471800D01*
X11536071Y-15500371D01*
X11536071Y-15657514D01*
X11678928Y-15657514D02*
X11678928Y-15457514D01*
X11678928Y-15486086D02*
X11693214Y-15471800D01*
X11721786Y-15457514D01*
X11764643Y-15457514D01*
X11793214Y-15471800D01*
X11807500Y-15500371D01*
X11807500Y-15657514D01*
X11807500Y-15500371D02*
X11821786Y-15471800D01*
X11850357Y-15457514D01*
X11893214Y-15457514D01*
X11921786Y-15471800D01*
X11936071Y-15500371D01*
X11936071Y-15657514D01*
X12521786Y-15343229D02*
X12264643Y-15728943D01*
X12907500Y-15357514D02*
X12936071Y-15357514D01*
X12964643Y-15371800D01*
X12978928Y-15386086D01*
X12993214Y-15414657D01*
X13007500Y-15471800D01*
X13007500Y-15543229D01*
X12993214Y-15600371D01*
X12978928Y-15628943D01*
X12964643Y-15643229D01*
X12936071Y-15657514D01*
X12907500Y-15657514D01*
X12878928Y-15643229D01*
X12864643Y-15628943D01*
X12850357Y-15600371D01*
X12836071Y-15543229D01*
X12836071Y-15471800D01*
X12850357Y-15414657D01*
X12864643Y-15386086D01*
X12878928Y-15371800D01*
X12907500Y-15357514D01*
X13136071Y-15628943D02*
X13150357Y-15643229D01*
X13136071Y-15657514D01*
X13121786Y-15643229D01*
X13136071Y-15628943D01*
X13136071Y-15657514D01*
X13336071Y-15357514D02*
X13364643Y-15357514D01*
X13393214Y-15371800D01*
X13407500Y-15386086D01*
X13421786Y-15414657D01*
X13436071Y-15471800D01*
X13436071Y-15543229D01*
X13421786Y-15600371D01*
X13407500Y-15628943D01*
X13393214Y-15643229D01*
X13364643Y-15657514D01*
X13336071Y-15657514D01*
X13307500Y-15643229D01*
X13293214Y-15628943D01*
X13278928Y-15600371D01*
X13264643Y-15543229D01*
X13264643Y-15471800D01*
X13278928Y-15414657D01*
X13293214Y-15386086D01*
X13307500Y-15371800D01*
X13336071Y-15357514D01*
X13707500Y-15357514D02*
X13564643Y-15357514D01*
X13550357Y-15500371D01*
X13564643Y-15486086D01*
X13593214Y-15471800D01*
X13664643Y-15471800D01*
X13693214Y-15486086D01*
X13707500Y-15500371D01*
X13721786Y-15528943D01*
X13721786Y-15600371D01*
X13707500Y-15628943D01*
X13693214Y-15643229D01*
X13664643Y-15657514D01*
X13593214Y-15657514D01*
X13564643Y-15643229D01*
X13550357Y-15628943D01*
X13993214Y-15357514D02*
X13850357Y-15357514D01*
X13836071Y-15500371D01*
X13850357Y-15486086D01*
X13878928Y-15471800D01*
X13950357Y-15471800D01*
X13978928Y-15486086D01*
X13993214Y-15500371D01*
X14007500Y-15528943D01*
X14007500Y-15600371D01*
X13993214Y-15628943D01*
X13978928Y-15643229D01*
X13950357Y-15657514D01*
X13878928Y-15657514D01*
X13850357Y-15643229D01*
X13836071Y-15628943D01*
X14121786Y-15357514D02*
X14121786Y-15414657D01*
X14236071Y-15357514D02*
X14236071Y-15414657D01*
X14678928Y-15771800D02*
X14664643Y-15757514D01*
X14636071Y-15714657D01*
X14621786Y-15686086D01*
X14607500Y-15643229D01*
X14593214Y-15571800D01*
X14593214Y-15514657D01*
X14607500Y-15443229D01*
X14621786Y-15400371D01*
X14636071Y-15371800D01*
X14664643Y-15328943D01*
X14678928Y-15314657D01*
X14950357Y-15657514D02*
X14778928Y-15657514D01*
X14864643Y-15657514D02*
X14864643Y-15357514D01*
X14836071Y-15400371D01*
X14807500Y-15428943D01*
X14778928Y-15443229D01*
X15136071Y-15357514D02*
X15164643Y-15357514D01*
X15193214Y-15371800D01*
X15207500Y-15386086D01*
X15221786Y-15414657D01*
X15236071Y-15471800D01*
X15236071Y-15543229D01*
X15221786Y-15600371D01*
X15207500Y-15628943D01*
X15193214Y-15643229D01*
X15164643Y-15657514D01*
X15136071Y-15657514D01*
X15107500Y-15643229D01*
X15093214Y-15628943D01*
X15078928Y-15600371D01*
X15064643Y-15543229D01*
X15064643Y-15471800D01*
X15078928Y-15414657D01*
X15093214Y-15386086D01*
X15107500Y-15371800D01*
X15136071Y-15357514D01*
X15593214Y-15657514D02*
X15593214Y-15357514D01*
X15721786Y-15657514D02*
X15721786Y-15500371D01*
X15707500Y-15471800D01*
X15678928Y-15457514D01*
X15636071Y-15457514D01*
X15607500Y-15471800D01*
X15593214Y-15486086D01*
X15907500Y-15657514D02*
X15878928Y-15643229D01*
X15864643Y-15628943D01*
X15850357Y-15600371D01*
X15850357Y-15514657D01*
X15864643Y-15486086D01*
X15878928Y-15471800D01*
X15907500Y-15457514D01*
X15950357Y-15457514D01*
X15978928Y-15471800D01*
X15993214Y-15486086D01*
X16007500Y-15514657D01*
X16007500Y-15600371D01*
X15993214Y-15628943D01*
X15978928Y-15643229D01*
X15950357Y-15657514D01*
X15907500Y-15657514D01*
X16178928Y-15657514D02*
X16150357Y-15643229D01*
X16136071Y-15614657D01*
X16136071Y-15357514D01*
X16407500Y-15643229D02*
X16378928Y-15657514D01*
X16321786Y-15657514D01*
X16293214Y-15643229D01*
X16278928Y-15614657D01*
X16278928Y-15500371D01*
X16293214Y-15471800D01*
X16321786Y-15457514D01*
X16378928Y-15457514D01*
X16407500Y-15471800D01*
X16421786Y-15500371D01*
X16421786Y-15528943D01*
X16278928Y-15557514D01*
X16536071Y-15643229D02*
X16564643Y-15657514D01*
X16621786Y-15657514D01*
X16650357Y-15643229D01*
X16664643Y-15614657D01*
X16664643Y-15600371D01*
X16650357Y-15571800D01*
X16621786Y-15557514D01*
X16578928Y-15557514D01*
X16550357Y-15543229D01*
X16536071Y-15514657D01*
X16536071Y-15500371D01*
X16550357Y-15471800D01*
X16578928Y-15457514D01*
X16621786Y-15457514D01*
X16650357Y-15471800D01*
X16764643Y-15771800D02*
X16778928Y-15757514D01*
X16807500Y-15714657D01*
X16821786Y-15686086D01*
X16836071Y-15643229D01*
X16850357Y-15571800D01*
X16850357Y-15514657D01*
X16836071Y-15443229D01*
X16821786Y-15400371D01*
X16807500Y-15371800D01*
X16778928Y-15328943D01*
X16764643Y-15314657D01*
M02*
