G04 #@! TF.GenerationSoftware,KiCad,Pcbnew,(5.0.2)-1*
G04 #@! TF.CreationDate,2019-08-09T14:56:26+08:00*
G04 #@! TF.ProjectId,Version 4,56657273-696f-46e2-9034-2e6b69636164,rev?*
G04 #@! TF.SameCoordinates,Original*
G04 #@! TF.FileFunction,Legend,Top*
G04 #@! TF.FilePolarity,Positive*
%FSLAX46Y46*%
G04 Gerber Fmt 4.6, Leading zero omitted, Abs format (unit mm)*
G04 Created by KiCad (PCBNEW (5.0.2)-1) date 08/09/19 14:56:26*
%MOMM*%
%LPD*%
G01*
G04 APERTURE LIST*
%ADD10C,0.200000*%
%ADD11C,0.150000*%
%ADD12C,0.300000*%
%ADD13C,0.120000*%
G04 APERTURE END LIST*
D10*
X144022000Y-122160000D02*
X144022000Y-124700000D01*
X147832000Y-124700000D02*
X147832000Y-122160000D01*
X140212000Y-124700000D02*
X147832000Y-124700000D01*
X140212000Y-122160000D02*
X140212000Y-124700000D01*
X133735000Y-122160000D02*
X133735000Y-124700000D01*
X137672000Y-124700000D02*
X137672000Y-122160000D01*
X130052000Y-124700000D02*
X137672000Y-124700000D01*
X130052000Y-122160000D02*
X130052000Y-124700000D01*
D11*
X141990000Y-123882380D02*
X141990000Y-122882380D01*
X145704761Y-122882380D02*
X145895238Y-122882380D01*
X145990476Y-122930000D01*
X146085714Y-123025238D01*
X146133333Y-123215714D01*
X146133333Y-123549047D01*
X146085714Y-123739523D01*
X145990476Y-123834761D01*
X145895238Y-123882380D01*
X145704761Y-123882380D01*
X145609523Y-123834761D01*
X145514285Y-123739523D01*
X145466666Y-123549047D01*
X145466666Y-123215714D01*
X145514285Y-123025238D01*
X145609523Y-122930000D01*
X145704761Y-122882380D01*
X135544761Y-122882380D02*
X135735238Y-122882380D01*
X135830476Y-122930000D01*
X135925714Y-123025238D01*
X135973333Y-123215714D01*
X135973333Y-123549047D01*
X135925714Y-123739523D01*
X135830476Y-123834761D01*
X135735238Y-123882380D01*
X135544761Y-123882380D01*
X135449523Y-123834761D01*
X135354285Y-123739523D01*
X135306666Y-123549047D01*
X135306666Y-123215714D01*
X135354285Y-123025238D01*
X135449523Y-122930000D01*
X135544761Y-122882380D01*
X131830000Y-123882380D02*
X131830000Y-122882380D01*
X143847571Y-119437380D02*
X143371380Y-119437380D01*
X143371380Y-118437380D01*
X144180904Y-119437380D02*
X144180904Y-118770714D01*
X144180904Y-118437380D02*
X144133285Y-118485000D01*
X144180904Y-118532619D01*
X144228523Y-118485000D01*
X144180904Y-118437380D01*
X144180904Y-118532619D01*
X144657095Y-118770714D02*
X144657095Y-119437380D01*
X144657095Y-118865952D02*
X144704714Y-118818333D01*
X144799952Y-118770714D01*
X144942809Y-118770714D01*
X145038047Y-118818333D01*
X145085666Y-118913571D01*
X145085666Y-119437380D01*
X145942809Y-119389761D02*
X145847571Y-119437380D01*
X145657095Y-119437380D01*
X145561857Y-119389761D01*
X145514238Y-119294523D01*
X145514238Y-118913571D01*
X145561857Y-118818333D01*
X145657095Y-118770714D01*
X145847571Y-118770714D01*
X145942809Y-118818333D01*
X145990428Y-118913571D01*
X145990428Y-119008809D01*
X145514238Y-119104047D01*
X146847571Y-119437380D02*
X146847571Y-118913571D01*
X146799952Y-118818333D01*
X146704714Y-118770714D01*
X146514238Y-118770714D01*
X146419000Y-118818333D01*
X146847571Y-119389761D02*
X146752333Y-119437380D01*
X146514238Y-119437380D01*
X146419000Y-119389761D01*
X146371380Y-119294523D01*
X146371380Y-119199285D01*
X146419000Y-119104047D01*
X146514238Y-119056428D01*
X146752333Y-119056428D01*
X146847571Y-119008809D01*
X147323761Y-119437380D02*
X147323761Y-118770714D01*
X147323761Y-118961190D02*
X147371380Y-118865952D01*
X147419000Y-118818333D01*
X147514238Y-118770714D01*
X147609476Y-118770714D01*
X130615714Y-118786571D02*
X130758571Y-118834190D01*
X130806190Y-118881809D01*
X130853809Y-118977047D01*
X130853809Y-119119904D01*
X130806190Y-119215142D01*
X130758571Y-119262761D01*
X130663333Y-119310380D01*
X130282380Y-119310380D01*
X130282380Y-118310380D01*
X130615714Y-118310380D01*
X130710952Y-118358000D01*
X130758571Y-118405619D01*
X130806190Y-118500857D01*
X130806190Y-118596095D01*
X130758571Y-118691333D01*
X130710952Y-118738952D01*
X130615714Y-118786571D01*
X130282380Y-118786571D01*
X131710952Y-118643714D02*
X131710952Y-119310380D01*
X131282380Y-118643714D02*
X131282380Y-119167523D01*
X131330000Y-119262761D01*
X131425238Y-119310380D01*
X131568095Y-119310380D01*
X131663333Y-119262761D01*
X131710952Y-119215142D01*
X132615714Y-119262761D02*
X132520476Y-119310380D01*
X132330000Y-119310380D01*
X132234761Y-119262761D01*
X132187142Y-119215142D01*
X132139523Y-119119904D01*
X132139523Y-118834190D01*
X132187142Y-118738952D01*
X132234761Y-118691333D01*
X132330000Y-118643714D01*
X132520476Y-118643714D01*
X132615714Y-118691333D01*
X133044285Y-119310380D02*
X133044285Y-118310380D01*
X133139523Y-118929428D02*
X133425238Y-119310380D01*
X133425238Y-118643714D02*
X133044285Y-119024666D01*
D10*
X121416000Y-101205000D02*
X117606000Y-101205000D01*
X121416000Y-98665000D02*
X121416000Y-101205000D01*
X117606000Y-98665000D02*
X121416000Y-98665000D01*
X117606000Y-103745000D02*
X117606000Y-98665000D01*
X121416000Y-103745000D02*
X117606000Y-103745000D01*
X116336000Y-111365000D02*
X121416000Y-111365000D01*
X121416000Y-108825000D02*
X116336000Y-108825000D01*
X121416000Y-106285000D02*
X121416000Y-108825000D01*
X116336000Y-106285000D02*
X121416000Y-106285000D01*
X116336000Y-113905000D02*
X116336000Y-106285000D01*
X121416000Y-113905000D02*
X116336000Y-113905000D01*
D11*
X117114095Y-112706428D02*
X117876000Y-112706428D01*
X117495047Y-113087380D02*
X117495047Y-112325476D01*
X118876000Y-113087380D02*
X118304571Y-113087380D01*
X118590285Y-113087380D02*
X118590285Y-112087380D01*
X118495047Y-112230238D01*
X118399809Y-112325476D01*
X118304571Y-112373095D01*
X119256952Y-112182619D02*
X119304571Y-112135000D01*
X119399809Y-112087380D01*
X119637904Y-112087380D01*
X119733142Y-112135000D01*
X119780761Y-112182619D01*
X119828380Y-112277857D01*
X119828380Y-112373095D01*
X119780761Y-112515952D01*
X119209333Y-113087380D01*
X119828380Y-113087380D01*
X120114095Y-112087380D02*
X120447428Y-113087380D01*
X120780761Y-112087380D01*
X117590285Y-110166428D02*
X118352190Y-110166428D01*
X117971238Y-110547380D02*
X117971238Y-109785476D01*
X119304571Y-109547380D02*
X118828380Y-109547380D01*
X118780761Y-110023571D01*
X118828380Y-109975952D01*
X118923619Y-109928333D01*
X119161714Y-109928333D01*
X119256952Y-109975952D01*
X119304571Y-110023571D01*
X119352190Y-110118809D01*
X119352190Y-110356904D01*
X119304571Y-110452142D01*
X119256952Y-110499761D01*
X119161714Y-110547380D01*
X118923619Y-110547380D01*
X118828380Y-110499761D01*
X118780761Y-110452142D01*
X119637904Y-109547380D02*
X119971238Y-110547380D01*
X120304571Y-109547380D01*
X117114095Y-107626428D02*
X117876000Y-107626428D01*
X118876000Y-108007380D02*
X118304571Y-108007380D01*
X118590285Y-108007380D02*
X118590285Y-107007380D01*
X118495047Y-107150238D01*
X118399809Y-107245476D01*
X118304571Y-107293095D01*
X119256952Y-107102619D02*
X119304571Y-107055000D01*
X119399809Y-107007380D01*
X119637904Y-107007380D01*
X119733142Y-107055000D01*
X119780761Y-107102619D01*
X119828380Y-107197857D01*
X119828380Y-107293095D01*
X119780761Y-107435952D01*
X119209333Y-108007380D01*
X119828380Y-108007380D01*
X120114095Y-107007380D02*
X120447428Y-108007380D01*
X120780761Y-107007380D01*
X118320523Y-102879761D02*
X118463380Y-102927380D01*
X118701476Y-102927380D01*
X118796714Y-102879761D01*
X118844333Y-102832142D01*
X118891952Y-102736904D01*
X118891952Y-102641666D01*
X118844333Y-102546428D01*
X118796714Y-102498809D01*
X118701476Y-102451190D01*
X118511000Y-102403571D01*
X118415761Y-102355952D01*
X118368142Y-102308333D01*
X118320523Y-102213095D01*
X118320523Y-102117857D01*
X118368142Y-102022619D01*
X118415761Y-101975000D01*
X118511000Y-101927380D01*
X118749095Y-101927380D01*
X118891952Y-101975000D01*
X119891952Y-102832142D02*
X119844333Y-102879761D01*
X119701476Y-102927380D01*
X119606238Y-102927380D01*
X119463380Y-102879761D01*
X119368142Y-102784523D01*
X119320523Y-102689285D01*
X119272904Y-102498809D01*
X119272904Y-102355952D01*
X119320523Y-102165476D01*
X119368142Y-102070238D01*
X119463380Y-101975000D01*
X119606238Y-101927380D01*
X119701476Y-101927380D01*
X119844333Y-101975000D01*
X119891952Y-102022619D01*
X120796714Y-102927380D02*
X120320523Y-102927380D01*
X120320523Y-101927380D01*
X118296714Y-100339761D02*
X118439571Y-100387380D01*
X118677666Y-100387380D01*
X118772904Y-100339761D01*
X118820523Y-100292142D01*
X118868142Y-100196904D01*
X118868142Y-100101666D01*
X118820523Y-100006428D01*
X118772904Y-99958809D01*
X118677666Y-99911190D01*
X118487190Y-99863571D01*
X118391952Y-99815952D01*
X118344333Y-99768333D01*
X118296714Y-99673095D01*
X118296714Y-99577857D01*
X118344333Y-99482619D01*
X118391952Y-99435000D01*
X118487190Y-99387380D01*
X118725285Y-99387380D01*
X118868142Y-99435000D01*
X119296714Y-100387380D02*
X119296714Y-99387380D01*
X119534809Y-99387380D01*
X119677666Y-99435000D01*
X119772904Y-99530238D01*
X119820523Y-99625476D01*
X119868142Y-99815952D01*
X119868142Y-99958809D01*
X119820523Y-100149285D01*
X119772904Y-100244523D01*
X119677666Y-100339761D01*
X119534809Y-100387380D01*
X119296714Y-100387380D01*
X120249095Y-100101666D02*
X120725285Y-100101666D01*
X120153857Y-100387380D02*
X120487190Y-99387380D01*
X120820523Y-100387380D01*
D10*
X103890000Y-31736000D02*
X101350000Y-31736000D01*
X101350000Y-34276000D02*
X103890000Y-34276000D01*
X101350000Y-29196000D02*
X101350000Y-34276000D01*
X103890000Y-29196000D02*
X101350000Y-29196000D01*
X155198000Y-29450000D02*
X155833000Y-29450000D01*
X155198000Y-30847000D02*
X155198000Y-29450000D01*
X158373000Y-30847000D02*
X155198000Y-30847000D01*
X161548000Y-29450000D02*
X160913000Y-29450000D01*
X161548000Y-30847000D02*
X161548000Y-29450000D01*
X158373000Y-30847000D02*
X161548000Y-30847000D01*
X158373000Y-29577000D02*
X158373000Y-30847000D01*
X192790000Y-105904000D02*
X196600000Y-105904000D01*
X196600000Y-108444000D02*
X192790000Y-108444000D01*
X192790000Y-110984000D02*
X196600000Y-110984000D01*
X192790000Y-103364000D02*
X192790000Y-110984000D01*
X196600000Y-103364000D02*
X192790000Y-103364000D01*
X103763000Y-83806000D02*
X101223000Y-83806000D01*
X101223000Y-86346000D02*
X103763000Y-86346000D01*
X101223000Y-81266000D02*
X101223000Y-86346000D01*
X103763000Y-81266000D02*
X101223000Y-81266000D01*
D11*
X101850142Y-80289714D02*
X102231095Y-80289714D01*
X101993000Y-80956380D02*
X101993000Y-80099238D01*
X102040619Y-80004000D01*
X102135857Y-79956380D01*
X102231095Y-79956380D01*
X102564428Y-80956380D02*
X102564428Y-79956380D01*
X102564428Y-80337333D02*
X102659666Y-80289714D01*
X102850142Y-80289714D01*
X102945380Y-80337333D01*
X102993000Y-80384952D01*
X103040619Y-80480190D01*
X103040619Y-80765904D01*
X102993000Y-80861142D01*
X102945380Y-80908761D01*
X102850142Y-80956380D01*
X102659666Y-80956380D01*
X102564428Y-80908761D01*
X102112047Y-85147428D02*
X102873952Y-85147428D01*
X102112047Y-82607428D02*
X102873952Y-82607428D01*
X102493000Y-82988380D02*
X102493000Y-82226476D01*
D10*
X103763000Y-96506000D02*
X110113000Y-96506000D01*
X106303000Y-93966000D02*
X103763000Y-93966000D01*
X110113000Y-93966000D02*
X106303000Y-93966000D01*
X110113000Y-99046000D02*
X110113000Y-93966000D01*
X103763000Y-99046000D02*
X110113000Y-99046000D01*
X103763000Y-93966000D02*
X103763000Y-99046000D01*
D11*
X104890380Y-98228380D02*
X104890380Y-97228380D01*
X105366571Y-97847428D02*
X106128476Y-97847428D01*
X106557047Y-97942666D02*
X107033238Y-97942666D01*
X106461809Y-98228380D02*
X106795142Y-97228380D01*
X107128476Y-98228380D01*
X107461809Y-98228380D02*
X107461809Y-97228380D01*
X107699904Y-97228380D01*
X107842761Y-97276000D01*
X107938000Y-97371238D01*
X107985619Y-97466476D01*
X108033238Y-97656952D01*
X108033238Y-97799809D01*
X107985619Y-97990285D01*
X107938000Y-98085523D01*
X107842761Y-98180761D01*
X107699904Y-98228380D01*
X107461809Y-98228380D01*
X109033238Y-98133142D02*
X108985619Y-98180761D01*
X108842761Y-98228380D01*
X108747523Y-98228380D01*
X108604666Y-98180761D01*
X108509428Y-98085523D01*
X108461809Y-97990285D01*
X108414190Y-97799809D01*
X108414190Y-97656952D01*
X108461809Y-97466476D01*
X108509428Y-97371238D01*
X108604666Y-97276000D01*
X108747523Y-97228380D01*
X108842761Y-97228380D01*
X108985619Y-97276000D01*
X109033238Y-97323619D01*
X104557047Y-94688380D02*
X104890380Y-95688380D01*
X105223714Y-94688380D01*
X105557047Y-95307428D02*
X106318952Y-95307428D01*
X106747523Y-95402666D02*
X107223714Y-95402666D01*
X106652285Y-95688380D02*
X106985619Y-94688380D01*
X107318952Y-95688380D01*
X107652285Y-95688380D02*
X107652285Y-94688380D01*
X107890380Y-94688380D01*
X108033238Y-94736000D01*
X108128476Y-94831238D01*
X108176095Y-94926476D01*
X108223714Y-95116952D01*
X108223714Y-95259809D01*
X108176095Y-95450285D01*
X108128476Y-95545523D01*
X108033238Y-95640761D01*
X107890380Y-95688380D01*
X107652285Y-95688380D01*
X109223714Y-95593142D02*
X109176095Y-95640761D01*
X109033238Y-95688380D01*
X108938000Y-95688380D01*
X108795142Y-95640761D01*
X108699904Y-95545523D01*
X108652285Y-95450285D01*
X108604666Y-95259809D01*
X108604666Y-95116952D01*
X108652285Y-94926476D01*
X108699904Y-94831238D01*
X108795142Y-94736000D01*
X108938000Y-94688380D01*
X109033238Y-94688380D01*
X109176095Y-94736000D01*
X109223714Y-94783619D01*
X107572285Y-90345428D02*
X108334190Y-90345428D01*
X109286571Y-89726380D02*
X108810380Y-89726380D01*
X108762761Y-90202571D01*
X108810380Y-90154952D01*
X108905619Y-90107333D01*
X109143714Y-90107333D01*
X109238952Y-90154952D01*
X109286571Y-90202571D01*
X109334190Y-90297809D01*
X109334190Y-90535904D01*
X109286571Y-90631142D01*
X109238952Y-90678761D01*
X109143714Y-90726380D01*
X108905619Y-90726380D01*
X108810380Y-90678761D01*
X108762761Y-90631142D01*
X109619904Y-89726380D02*
X109953238Y-90726380D01*
X110286571Y-89726380D01*
D10*
X110748000Y-91426000D02*
X106938000Y-91426000D01*
X106938000Y-88886000D02*
X110748000Y-88886000D01*
X110113000Y-86346000D02*
X106938000Y-86346000D01*
X110748000Y-86346000D02*
X110113000Y-86346000D01*
D11*
X107557285Y-87814428D02*
X108319190Y-87814428D01*
X107938238Y-88195380D02*
X107938238Y-87433476D01*
X109271571Y-87195380D02*
X108795380Y-87195380D01*
X108747761Y-87671571D01*
X108795380Y-87623952D01*
X108890619Y-87576333D01*
X109128714Y-87576333D01*
X109223952Y-87623952D01*
X109271571Y-87671571D01*
X109319190Y-87766809D01*
X109319190Y-88004904D01*
X109271571Y-88100142D01*
X109223952Y-88147761D01*
X109128714Y-88195380D01*
X108890619Y-88195380D01*
X108795380Y-88147761D01*
X108747761Y-88100142D01*
X109604904Y-87195380D02*
X109938238Y-88195380D01*
X110271571Y-87195380D01*
D10*
X110113000Y-88886000D02*
X107573000Y-88886000D01*
X110748000Y-91426000D02*
X110748000Y-86346000D01*
X107573000Y-91426000D02*
X110113000Y-91426000D01*
X106938000Y-86346000D02*
X106938000Y-91426000D01*
D12*
X110927142Y-116102571D02*
X110927142Y-114602571D01*
X111284285Y-114602571D01*
X111498571Y-114674000D01*
X111641428Y-114816857D01*
X111712857Y-114959714D01*
X111784285Y-115245428D01*
X111784285Y-115459714D01*
X111712857Y-115745428D01*
X111641428Y-115888285D01*
X111498571Y-116031142D01*
X111284285Y-116102571D01*
X110927142Y-116102571D01*
X112355714Y-115674000D02*
X113070000Y-115674000D01*
X112212857Y-116102571D02*
X112712857Y-114602571D01*
X113212857Y-116102571D01*
X114570000Y-115959714D02*
X114498571Y-116031142D01*
X114284285Y-116102571D01*
X114141428Y-116102571D01*
X113927142Y-116031142D01*
X113784285Y-115888285D01*
X113712857Y-115745428D01*
X113641428Y-115459714D01*
X113641428Y-115245428D01*
X113712857Y-114959714D01*
X113784285Y-114816857D01*
X113927142Y-114674000D01*
X114141428Y-114602571D01*
X114284285Y-114602571D01*
X114498571Y-114674000D01*
X114570000Y-114745428D01*
X116998571Y-116102571D02*
X116998571Y-115316857D01*
X116927142Y-115174000D01*
X116784285Y-115102571D01*
X116498571Y-115102571D01*
X116355714Y-115174000D01*
X116998571Y-116031142D02*
X116855714Y-116102571D01*
X116498571Y-116102571D01*
X116355714Y-116031142D01*
X116284285Y-115888285D01*
X116284285Y-115745428D01*
X116355714Y-115602571D01*
X116498571Y-115531142D01*
X116855714Y-115531142D01*
X116998571Y-115459714D01*
X117712857Y-115102571D02*
X117712857Y-116102571D01*
X117712857Y-115245428D02*
X117784285Y-115174000D01*
X117927142Y-115102571D01*
X118141428Y-115102571D01*
X118284285Y-115174000D01*
X118355714Y-115316857D01*
X118355714Y-116102571D01*
X119712857Y-116102571D02*
X119712857Y-114602571D01*
X119712857Y-116031142D02*
X119570000Y-116102571D01*
X119284285Y-116102571D01*
X119141428Y-116031142D01*
X119070000Y-115959714D01*
X118998571Y-115816857D01*
X118998571Y-115388285D01*
X119070000Y-115245428D01*
X119141428Y-115174000D01*
X119284285Y-115102571D01*
X119570000Y-115102571D01*
X119712857Y-115174000D01*
X103070000Y-118509714D02*
X102998571Y-118581142D01*
X102784285Y-118652571D01*
X102641428Y-118652571D01*
X102427142Y-118581142D01*
X102284285Y-118438285D01*
X102212857Y-118295428D01*
X102141428Y-118009714D01*
X102141428Y-117795428D01*
X102212857Y-117509714D01*
X102284285Y-117366857D01*
X102427142Y-117224000D01*
X102641428Y-117152571D01*
X102784285Y-117152571D01*
X102998571Y-117224000D01*
X103070000Y-117295428D01*
X104355714Y-117652571D02*
X104355714Y-118652571D01*
X103712857Y-117652571D02*
X103712857Y-118438285D01*
X103784285Y-118581142D01*
X103927142Y-118652571D01*
X104141428Y-118652571D01*
X104284285Y-118581142D01*
X104355714Y-118509714D01*
X105070000Y-118652571D02*
X105070000Y-117652571D01*
X105070000Y-117938285D02*
X105141428Y-117795428D01*
X105212857Y-117724000D01*
X105355714Y-117652571D01*
X105498571Y-117652571D01*
X105998571Y-118652571D02*
X105998571Y-117652571D01*
X105998571Y-117938285D02*
X106070000Y-117795428D01*
X106141428Y-117724000D01*
X106284285Y-117652571D01*
X106427142Y-117652571D01*
X107498571Y-118581142D02*
X107355714Y-118652571D01*
X107070000Y-118652571D01*
X106927142Y-118581142D01*
X106855714Y-118438285D01*
X106855714Y-117866857D01*
X106927142Y-117724000D01*
X107070000Y-117652571D01*
X107355714Y-117652571D01*
X107498571Y-117724000D01*
X107570000Y-117866857D01*
X107570000Y-118009714D01*
X106855714Y-118152571D01*
X108212857Y-117652571D02*
X108212857Y-118652571D01*
X108212857Y-117795428D02*
X108284285Y-117724000D01*
X108427142Y-117652571D01*
X108641428Y-117652571D01*
X108784285Y-117724000D01*
X108855714Y-117866857D01*
X108855714Y-118652571D01*
X109355714Y-117652571D02*
X109927142Y-117652571D01*
X109570000Y-117152571D02*
X109570000Y-118438285D01*
X109641428Y-118581142D01*
X109784285Y-118652571D01*
X109927142Y-118652571D01*
X112427142Y-118509714D02*
X112355714Y-118581142D01*
X112141428Y-118652571D01*
X111998571Y-118652571D01*
X111784285Y-118581142D01*
X111641428Y-118438285D01*
X111570000Y-118295428D01*
X111498571Y-118009714D01*
X111498571Y-117795428D01*
X111570000Y-117509714D01*
X111641428Y-117366857D01*
X111784285Y-117224000D01*
X111998571Y-117152571D01*
X112141428Y-117152571D01*
X112355714Y-117224000D01*
X112427142Y-117295428D01*
X113284285Y-118652571D02*
X113141428Y-118581142D01*
X113070000Y-118509714D01*
X112998571Y-118366857D01*
X112998571Y-117938285D01*
X113070000Y-117795428D01*
X113141428Y-117724000D01*
X113284285Y-117652571D01*
X113498571Y-117652571D01*
X113641428Y-117724000D01*
X113712857Y-117795428D01*
X113784285Y-117938285D01*
X113784285Y-118366857D01*
X113712857Y-118509714D01*
X113641428Y-118581142D01*
X113498571Y-118652571D01*
X113284285Y-118652571D01*
X114427142Y-117652571D02*
X114427142Y-118652571D01*
X114427142Y-117795428D02*
X114498571Y-117724000D01*
X114641428Y-117652571D01*
X114855714Y-117652571D01*
X114998571Y-117724000D01*
X115070000Y-117866857D01*
X115070000Y-118652571D01*
X115570000Y-117652571D02*
X116141428Y-117652571D01*
X115784285Y-117152571D02*
X115784285Y-118438285D01*
X115855714Y-118581142D01*
X115998571Y-118652571D01*
X116141428Y-118652571D01*
X116641428Y-118652571D02*
X116641428Y-117652571D01*
X116641428Y-117938285D02*
X116712857Y-117795428D01*
X116784285Y-117724000D01*
X116927142Y-117652571D01*
X117070000Y-117652571D01*
X117784285Y-118652571D02*
X117641428Y-118581142D01*
X117570000Y-118509714D01*
X117498571Y-118366857D01*
X117498571Y-117938285D01*
X117570000Y-117795428D01*
X117641428Y-117724000D01*
X117784285Y-117652571D01*
X117998571Y-117652571D01*
X118141428Y-117724000D01*
X118212857Y-117795428D01*
X118284285Y-117938285D01*
X118284285Y-118366857D01*
X118212857Y-118509714D01*
X118141428Y-118581142D01*
X117998571Y-118652571D01*
X117784285Y-118652571D01*
X119141428Y-118652571D02*
X118998571Y-118581142D01*
X118927142Y-118438285D01*
X118927142Y-117152571D01*
X120784285Y-118581142D02*
X120998571Y-118652571D01*
X121355714Y-118652571D01*
X121498571Y-118581142D01*
X121570000Y-118509714D01*
X121641428Y-118366857D01*
X121641428Y-118224000D01*
X121570000Y-118081142D01*
X121498571Y-118009714D01*
X121355714Y-117938285D01*
X121070000Y-117866857D01*
X120927142Y-117795428D01*
X120855714Y-117724000D01*
X120784285Y-117581142D01*
X120784285Y-117438285D01*
X120855714Y-117295428D01*
X120927142Y-117224000D01*
X121070000Y-117152571D01*
X121427142Y-117152571D01*
X121641428Y-117224000D01*
X122855714Y-118581142D02*
X122712857Y-118652571D01*
X122427142Y-118652571D01*
X122284285Y-118581142D01*
X122212857Y-118438285D01*
X122212857Y-117866857D01*
X122284285Y-117724000D01*
X122427142Y-117652571D01*
X122712857Y-117652571D01*
X122855714Y-117724000D01*
X122927142Y-117866857D01*
X122927142Y-118009714D01*
X122212857Y-118152571D01*
X124212857Y-118581142D02*
X124070000Y-118652571D01*
X123784285Y-118652571D01*
X123641428Y-118581142D01*
X123570000Y-118509714D01*
X123498571Y-118366857D01*
X123498571Y-117938285D01*
X123570000Y-117795428D01*
X123641428Y-117724000D01*
X123784285Y-117652571D01*
X124070000Y-117652571D01*
X124212857Y-117724000D01*
X124641428Y-117652571D02*
X125212857Y-117652571D01*
X124855714Y-117152571D02*
X124855714Y-118438285D01*
X124927142Y-118581142D01*
X125070000Y-118652571D01*
X125212857Y-118652571D01*
X125712857Y-118652571D02*
X125712857Y-117652571D01*
X125712857Y-117152571D02*
X125641428Y-117224000D01*
X125712857Y-117295428D01*
X125784285Y-117224000D01*
X125712857Y-117152571D01*
X125712857Y-117295428D01*
X126641428Y-118652571D02*
X126498571Y-118581142D01*
X126427142Y-118509714D01*
X126355714Y-118366857D01*
X126355714Y-117938285D01*
X126427142Y-117795428D01*
X126498571Y-117724000D01*
X126641428Y-117652571D01*
X126855714Y-117652571D01*
X126998571Y-117724000D01*
X127070000Y-117795428D01*
X127141428Y-117938285D01*
X127141428Y-118366857D01*
X127070000Y-118509714D01*
X126998571Y-118581142D01*
X126855714Y-118652571D01*
X126641428Y-118652571D01*
X127784285Y-117652571D02*
X127784285Y-118652571D01*
X127784285Y-117795428D02*
X127855714Y-117724000D01*
X127998571Y-117652571D01*
X128212857Y-117652571D01*
X128355714Y-117724000D01*
X128427142Y-117866857D01*
X128427142Y-118652571D01*
X122389428Y-67866571D02*
X122889428Y-69366571D01*
X123389428Y-67866571D01*
X124103714Y-69366571D02*
X123960857Y-69295142D01*
X123889428Y-69223714D01*
X123818000Y-69080857D01*
X123818000Y-68652285D01*
X123889428Y-68509428D01*
X123960857Y-68438000D01*
X124103714Y-68366571D01*
X124318000Y-68366571D01*
X124460857Y-68438000D01*
X124532285Y-68509428D01*
X124603714Y-68652285D01*
X124603714Y-69080857D01*
X124532285Y-69223714D01*
X124460857Y-69295142D01*
X124318000Y-69366571D01*
X124103714Y-69366571D01*
X125460857Y-69366571D02*
X125318000Y-69295142D01*
X125246571Y-69152285D01*
X125246571Y-67866571D01*
X125818000Y-68366571D02*
X126389428Y-68366571D01*
X126032285Y-67866571D02*
X126032285Y-69152285D01*
X126103714Y-69295142D01*
X126246571Y-69366571D01*
X126389428Y-69366571D01*
X127532285Y-69366571D02*
X127532285Y-68580857D01*
X127460857Y-68438000D01*
X127318000Y-68366571D01*
X127032285Y-68366571D01*
X126889428Y-68438000D01*
X127532285Y-69295142D02*
X127389428Y-69366571D01*
X127032285Y-69366571D01*
X126889428Y-69295142D01*
X126818000Y-69152285D01*
X126818000Y-69009428D01*
X126889428Y-68866571D01*
X127032285Y-68795142D01*
X127389428Y-68795142D01*
X127532285Y-68723714D01*
X128889428Y-68366571D02*
X128889428Y-69580857D01*
X128818000Y-69723714D01*
X128746571Y-69795142D01*
X128603714Y-69866571D01*
X128389428Y-69866571D01*
X128246571Y-69795142D01*
X128889428Y-69295142D02*
X128746571Y-69366571D01*
X128460857Y-69366571D01*
X128318000Y-69295142D01*
X128246571Y-69223714D01*
X128175142Y-69080857D01*
X128175142Y-68652285D01*
X128246571Y-68509428D01*
X128318000Y-68438000D01*
X128460857Y-68366571D01*
X128746571Y-68366571D01*
X128889428Y-68438000D01*
X130175142Y-69295142D02*
X130032285Y-69366571D01*
X129746571Y-69366571D01*
X129603714Y-69295142D01*
X129532285Y-69152285D01*
X129532285Y-68580857D01*
X129603714Y-68438000D01*
X129746571Y-68366571D01*
X130032285Y-68366571D01*
X130175142Y-68438000D01*
X130246571Y-68580857D01*
X130246571Y-68723714D01*
X129532285Y-68866571D01*
X132889428Y-69223714D02*
X132818000Y-69295142D01*
X132603714Y-69366571D01*
X132460857Y-69366571D01*
X132246571Y-69295142D01*
X132103714Y-69152285D01*
X132032285Y-69009428D01*
X131960857Y-68723714D01*
X131960857Y-68509428D01*
X132032285Y-68223714D01*
X132103714Y-68080857D01*
X132246571Y-67938000D01*
X132460857Y-67866571D01*
X132603714Y-67866571D01*
X132818000Y-67938000D01*
X132889428Y-68009428D01*
X134175142Y-68366571D02*
X134175142Y-69366571D01*
X133532285Y-68366571D02*
X133532285Y-69152285D01*
X133603714Y-69295142D01*
X133746571Y-69366571D01*
X133960857Y-69366571D01*
X134103714Y-69295142D01*
X134175142Y-69223714D01*
X134889428Y-69366571D02*
X134889428Y-68366571D01*
X134889428Y-68652285D02*
X134960857Y-68509428D01*
X135032285Y-68438000D01*
X135175142Y-68366571D01*
X135318000Y-68366571D01*
X135818000Y-69366571D02*
X135818000Y-68366571D01*
X135818000Y-68652285D02*
X135889428Y-68509428D01*
X135960857Y-68438000D01*
X136103714Y-68366571D01*
X136246571Y-68366571D01*
X137318000Y-69295142D02*
X137175142Y-69366571D01*
X136889428Y-69366571D01*
X136746571Y-69295142D01*
X136675142Y-69152285D01*
X136675142Y-68580857D01*
X136746571Y-68438000D01*
X136889428Y-68366571D01*
X137175142Y-68366571D01*
X137318000Y-68438000D01*
X137389428Y-68580857D01*
X137389428Y-68723714D01*
X136675142Y-68866571D01*
X138032285Y-68366571D02*
X138032285Y-69366571D01*
X138032285Y-68509428D02*
X138103714Y-68438000D01*
X138246571Y-68366571D01*
X138460857Y-68366571D01*
X138603714Y-68438000D01*
X138675142Y-68580857D01*
X138675142Y-69366571D01*
X139175142Y-68366571D02*
X139746571Y-68366571D01*
X139389428Y-67866571D02*
X139389428Y-69152285D01*
X139460857Y-69295142D01*
X139603714Y-69366571D01*
X139746571Y-69366571D01*
X122246571Y-71916571D02*
X122246571Y-70416571D01*
X122746571Y-71488000D01*
X123246571Y-70416571D01*
X123246571Y-71916571D01*
X124175142Y-71916571D02*
X124032285Y-71845142D01*
X123960857Y-71773714D01*
X123889428Y-71630857D01*
X123889428Y-71202285D01*
X123960857Y-71059428D01*
X124032285Y-70988000D01*
X124175142Y-70916571D01*
X124389428Y-70916571D01*
X124532285Y-70988000D01*
X124603714Y-71059428D01*
X124675142Y-71202285D01*
X124675142Y-71630857D01*
X124603714Y-71773714D01*
X124532285Y-71845142D01*
X124389428Y-71916571D01*
X124175142Y-71916571D01*
X125960857Y-71916571D02*
X125960857Y-70416571D01*
X125960857Y-71845142D02*
X125818000Y-71916571D01*
X125532285Y-71916571D01*
X125389428Y-71845142D01*
X125318000Y-71773714D01*
X125246571Y-71630857D01*
X125246571Y-71202285D01*
X125318000Y-71059428D01*
X125389428Y-70988000D01*
X125532285Y-70916571D01*
X125818000Y-70916571D01*
X125960857Y-70988000D01*
X126675142Y-71916571D02*
X126675142Y-70916571D01*
X126675142Y-70416571D02*
X126603714Y-70488000D01*
X126675142Y-70559428D01*
X126746571Y-70488000D01*
X126675142Y-70416571D01*
X126675142Y-70559428D01*
X127175142Y-70916571D02*
X127746571Y-70916571D01*
X127389428Y-71916571D02*
X127389428Y-70630857D01*
X127460857Y-70488000D01*
X127603714Y-70416571D01*
X127746571Y-70416571D01*
X128246571Y-71916571D02*
X128246571Y-70916571D01*
X128246571Y-70416571D02*
X128175142Y-70488000D01*
X128246571Y-70559428D01*
X128318000Y-70488000D01*
X128246571Y-70416571D01*
X128246571Y-70559428D01*
X129532285Y-71845142D02*
X129389428Y-71916571D01*
X129103714Y-71916571D01*
X128960857Y-71845142D01*
X128889428Y-71702285D01*
X128889428Y-71130857D01*
X128960857Y-70988000D01*
X129103714Y-70916571D01*
X129389428Y-70916571D01*
X129532285Y-70988000D01*
X129603714Y-71130857D01*
X129603714Y-71273714D01*
X128889428Y-71416571D01*
X130246571Y-71916571D02*
X130246571Y-70916571D01*
X130246571Y-71202285D02*
X130318000Y-71059428D01*
X130389428Y-70988000D01*
X130532285Y-70916571D01*
X130675142Y-70916571D01*
X132246571Y-71845142D02*
X132460857Y-71916571D01*
X132818000Y-71916571D01*
X132960857Y-71845142D01*
X133032285Y-71773714D01*
X133103714Y-71630857D01*
X133103714Y-71488000D01*
X133032285Y-71345142D01*
X132960857Y-71273714D01*
X132818000Y-71202285D01*
X132532285Y-71130857D01*
X132389428Y-71059428D01*
X132318000Y-70988000D01*
X132246571Y-70845142D01*
X132246571Y-70702285D01*
X132318000Y-70559428D01*
X132389428Y-70488000D01*
X132532285Y-70416571D01*
X132889428Y-70416571D01*
X133103714Y-70488000D01*
X134318000Y-71845142D02*
X134175142Y-71916571D01*
X133889428Y-71916571D01*
X133746571Y-71845142D01*
X133675142Y-71702285D01*
X133675142Y-71130857D01*
X133746571Y-70988000D01*
X133889428Y-70916571D01*
X134175142Y-70916571D01*
X134318000Y-70988000D01*
X134389428Y-71130857D01*
X134389428Y-71273714D01*
X133675142Y-71416571D01*
X135675142Y-71845142D02*
X135532285Y-71916571D01*
X135246571Y-71916571D01*
X135103714Y-71845142D01*
X135032285Y-71773714D01*
X134960857Y-71630857D01*
X134960857Y-71202285D01*
X135032285Y-71059428D01*
X135103714Y-70988000D01*
X135246571Y-70916571D01*
X135532285Y-70916571D01*
X135675142Y-70988000D01*
X136103714Y-70916571D02*
X136675142Y-70916571D01*
X136318000Y-70416571D02*
X136318000Y-71702285D01*
X136389428Y-71845142D01*
X136532285Y-71916571D01*
X136675142Y-71916571D01*
X137175142Y-71916571D02*
X137175142Y-70916571D01*
X137175142Y-70416571D02*
X137103714Y-70488000D01*
X137175142Y-70559428D01*
X137246571Y-70488000D01*
X137175142Y-70416571D01*
X137175142Y-70559428D01*
X138103714Y-71916571D02*
X137960857Y-71845142D01*
X137889428Y-71773714D01*
X137818000Y-71630857D01*
X137818000Y-71202285D01*
X137889428Y-71059428D01*
X137960857Y-70988000D01*
X138103714Y-70916571D01*
X138318000Y-70916571D01*
X138460857Y-70988000D01*
X138532285Y-71059428D01*
X138603714Y-71202285D01*
X138603714Y-71630857D01*
X138532285Y-71773714D01*
X138460857Y-71845142D01*
X138318000Y-71916571D01*
X138103714Y-71916571D01*
X139246571Y-70916571D02*
X139246571Y-71916571D01*
X139246571Y-71059428D02*
X139318000Y-70988000D01*
X139460857Y-70916571D01*
X139675142Y-70916571D01*
X139818000Y-70988000D01*
X139889428Y-71130857D01*
X139889428Y-71916571D01*
D11*
X104151190Y-26290380D02*
X104484523Y-27290380D01*
X104817857Y-26290380D01*
X105151190Y-27290380D02*
X105151190Y-26623714D01*
X105151190Y-26290380D02*
X105103571Y-26338000D01*
X105151190Y-26385619D01*
X105198809Y-26338000D01*
X105151190Y-26290380D01*
X105151190Y-26385619D01*
X105627380Y-26623714D02*
X105627380Y-27290380D01*
X105627380Y-26718952D02*
X105675000Y-26671333D01*
X105770238Y-26623714D01*
X105913095Y-26623714D01*
X106008333Y-26671333D01*
X106055952Y-26766571D01*
X106055952Y-27290380D01*
X102555952Y-28940380D02*
X101984523Y-28940380D01*
X102270238Y-28940380D02*
X102270238Y-27940380D01*
X102175000Y-28083238D01*
X102079761Y-28178476D01*
X101984523Y-28226095D01*
X103413095Y-28273714D02*
X103413095Y-28940380D01*
X103175000Y-27892761D02*
X102936904Y-28607047D01*
X103555952Y-28607047D01*
X103794047Y-27940380D02*
X104127380Y-28940380D01*
X104460714Y-27940380D01*
X104794047Y-28559428D02*
X105555952Y-28559428D01*
X106555952Y-28940380D02*
X105984523Y-28940380D01*
X106270238Y-28940380D02*
X106270238Y-27940380D01*
X106175000Y-28083238D01*
X106079761Y-28178476D01*
X105984523Y-28226095D01*
X107127380Y-28368952D02*
X107032142Y-28321333D01*
X106984523Y-28273714D01*
X106936904Y-28178476D01*
X106936904Y-28130857D01*
X106984523Y-28035619D01*
X107032142Y-27988000D01*
X107127380Y-27940380D01*
X107317857Y-27940380D01*
X107413095Y-27988000D01*
X107460714Y-28035619D01*
X107508333Y-28130857D01*
X107508333Y-28178476D01*
X107460714Y-28273714D01*
X107413095Y-28321333D01*
X107317857Y-28368952D01*
X107127380Y-28368952D01*
X107032142Y-28416571D01*
X106984523Y-28464190D01*
X106936904Y-28559428D01*
X106936904Y-28749904D01*
X106984523Y-28845142D01*
X107032142Y-28892761D01*
X107127380Y-28940380D01*
X107317857Y-28940380D01*
X107413095Y-28892761D01*
X107460714Y-28845142D01*
X107508333Y-28749904D01*
X107508333Y-28559428D01*
X107460714Y-28464190D01*
X107413095Y-28416571D01*
X107317857Y-28368952D01*
X107794047Y-27940380D02*
X108127380Y-28940380D01*
X108460714Y-27940380D01*
X193678285Y-109776428D02*
X194440190Y-109776428D01*
X195392571Y-109157380D02*
X194916380Y-109157380D01*
X194868761Y-109633571D01*
X194916380Y-109585952D01*
X195011619Y-109538333D01*
X195249714Y-109538333D01*
X195344952Y-109585952D01*
X195392571Y-109633571D01*
X195440190Y-109728809D01*
X195440190Y-109966904D01*
X195392571Y-110062142D01*
X195344952Y-110109761D01*
X195249714Y-110157380D01*
X195011619Y-110157380D01*
X194916380Y-110109761D01*
X194868761Y-110062142D01*
X195725904Y-109157380D02*
X196059238Y-110157380D01*
X196392571Y-109157380D01*
X192821095Y-107236428D02*
X193583000Y-107236428D01*
X193963952Y-106617380D02*
X194583000Y-106617380D01*
X194249666Y-106998333D01*
X194392523Y-106998333D01*
X194487761Y-107045952D01*
X194535380Y-107093571D01*
X194583000Y-107188809D01*
X194583000Y-107426904D01*
X194535380Y-107522142D01*
X194487761Y-107569761D01*
X194392523Y-107617380D01*
X194106809Y-107617380D01*
X194011571Y-107569761D01*
X193963952Y-107522142D01*
X194868714Y-106617380D02*
X195202047Y-107617380D01*
X195535380Y-106617380D01*
X195773476Y-106617380D02*
X196392523Y-106617380D01*
X196059190Y-106998333D01*
X196202047Y-106998333D01*
X196297285Y-107045952D01*
X196344904Y-107093571D01*
X196392523Y-107188809D01*
X196392523Y-107426904D01*
X196344904Y-107522142D01*
X196297285Y-107569761D01*
X196202047Y-107617380D01*
X195916333Y-107617380D01*
X195821095Y-107569761D01*
X195773476Y-107522142D01*
X193678285Y-104696428D02*
X194440190Y-104696428D01*
X194059238Y-105077380D02*
X194059238Y-104315476D01*
X195392571Y-104077380D02*
X194916380Y-104077380D01*
X194868761Y-104553571D01*
X194916380Y-104505952D01*
X195011619Y-104458333D01*
X195249714Y-104458333D01*
X195344952Y-104505952D01*
X195392571Y-104553571D01*
X195440190Y-104648809D01*
X195440190Y-104886904D01*
X195392571Y-104982142D01*
X195344952Y-105029761D01*
X195249714Y-105077380D01*
X195011619Y-105077380D01*
X194916380Y-105029761D01*
X194868761Y-104982142D01*
X195725904Y-104077380D02*
X196059238Y-105077380D01*
X196392571Y-104077380D01*
X158626285Y-30274428D02*
X159388190Y-30274428D01*
X160340571Y-29655380D02*
X159864380Y-29655380D01*
X159816761Y-30131571D01*
X159864380Y-30083952D01*
X159959619Y-30036333D01*
X160197714Y-30036333D01*
X160292952Y-30083952D01*
X160340571Y-30131571D01*
X160388190Y-30226809D01*
X160388190Y-30464904D01*
X160340571Y-30560142D01*
X160292952Y-30607761D01*
X160197714Y-30655380D01*
X159959619Y-30655380D01*
X159864380Y-30607761D01*
X159816761Y-30560142D01*
X160673904Y-29655380D02*
X161007238Y-30655380D01*
X161340571Y-29655380D01*
X155324285Y-30274428D02*
X156086190Y-30274428D01*
X155705238Y-30655380D02*
X155705238Y-29893476D01*
X157038571Y-29655380D02*
X156562380Y-29655380D01*
X156514761Y-30131571D01*
X156562380Y-30083952D01*
X156657619Y-30036333D01*
X156895714Y-30036333D01*
X156990952Y-30083952D01*
X157038571Y-30131571D01*
X157086190Y-30226809D01*
X157086190Y-30464904D01*
X157038571Y-30560142D01*
X156990952Y-30607761D01*
X156895714Y-30655380D01*
X156657619Y-30655380D01*
X156562380Y-30607761D01*
X156514761Y-30560142D01*
X157371904Y-29655380D02*
X157705238Y-30655380D01*
X158038571Y-29655380D01*
X147007785Y-49960380D02*
X146531595Y-49960380D01*
X146531595Y-48960380D01*
X147341119Y-49960380D02*
X147341119Y-49293714D01*
X147341119Y-48960380D02*
X147293500Y-49008000D01*
X147341119Y-49055619D01*
X147388738Y-49008000D01*
X147341119Y-48960380D01*
X147341119Y-49055619D01*
X147817309Y-49293714D02*
X147817309Y-49960380D01*
X147817309Y-49388952D02*
X147864928Y-49341333D01*
X147960166Y-49293714D01*
X148103023Y-49293714D01*
X148198261Y-49341333D01*
X148245880Y-49436571D01*
X148245880Y-49960380D01*
X149103023Y-49912761D02*
X149007785Y-49960380D01*
X148817309Y-49960380D01*
X148722071Y-49912761D01*
X148674452Y-49817523D01*
X148674452Y-49436571D01*
X148722071Y-49341333D01*
X148817309Y-49293714D01*
X149007785Y-49293714D01*
X149103023Y-49341333D01*
X149150642Y-49436571D01*
X149150642Y-49531809D01*
X148674452Y-49627047D01*
X150007785Y-49960380D02*
X150007785Y-49436571D01*
X149960166Y-49341333D01*
X149864928Y-49293714D01*
X149674452Y-49293714D01*
X149579214Y-49341333D01*
X150007785Y-49912761D02*
X149912547Y-49960380D01*
X149674452Y-49960380D01*
X149579214Y-49912761D01*
X149531595Y-49817523D01*
X149531595Y-49722285D01*
X149579214Y-49627047D01*
X149674452Y-49579428D01*
X149912547Y-49579428D01*
X150007785Y-49531809D01*
X150483976Y-49960380D02*
X150483976Y-49293714D01*
X150483976Y-49484190D02*
X150531595Y-49388952D01*
X150579214Y-49341333D01*
X150674452Y-49293714D01*
X150769690Y-49293714D01*
X146722071Y-50610380D02*
X146912547Y-50610380D01*
X147007785Y-50658000D01*
X147103023Y-50753238D01*
X147150642Y-50943714D01*
X147150642Y-51277047D01*
X147103023Y-51467523D01*
X147007785Y-51562761D01*
X146912547Y-51610380D01*
X146722071Y-51610380D01*
X146626833Y-51562761D01*
X146531595Y-51467523D01*
X146483976Y-51277047D01*
X146483976Y-50943714D01*
X146531595Y-50753238D01*
X146626833Y-50658000D01*
X146722071Y-50610380D01*
X147436357Y-50943714D02*
X147817309Y-50943714D01*
X147579214Y-51610380D02*
X147579214Y-50753238D01*
X147626833Y-50658000D01*
X147722071Y-50610380D01*
X147817309Y-50610380D01*
X148007785Y-50943714D02*
X148388738Y-50943714D01*
X148150642Y-51610380D02*
X148150642Y-50753238D01*
X148198261Y-50658000D01*
X148293500Y-50610380D01*
X148388738Y-50610380D01*
X148674452Y-51562761D02*
X148769690Y-51610380D01*
X148960166Y-51610380D01*
X149055404Y-51562761D01*
X149103023Y-51467523D01*
X149103023Y-51419904D01*
X149055404Y-51324666D01*
X148960166Y-51277047D01*
X148817309Y-51277047D01*
X148722071Y-51229428D01*
X148674452Y-51134190D01*
X148674452Y-51086571D01*
X148722071Y-50991333D01*
X148817309Y-50943714D01*
X148960166Y-50943714D01*
X149055404Y-50991333D01*
X149912547Y-51562761D02*
X149817309Y-51610380D01*
X149626833Y-51610380D01*
X149531595Y-51562761D01*
X149483976Y-51467523D01*
X149483976Y-51086571D01*
X149531595Y-50991333D01*
X149626833Y-50943714D01*
X149817309Y-50943714D01*
X149912547Y-50991333D01*
X149960166Y-51086571D01*
X149960166Y-51181809D01*
X149483976Y-51277047D01*
X150245880Y-50943714D02*
X150626833Y-50943714D01*
X150388738Y-50610380D02*
X150388738Y-51467523D01*
X150436357Y-51562761D01*
X150531595Y-51610380D01*
X150626833Y-51610380D01*
X146531595Y-53260380D02*
X146531595Y-52260380D01*
X146912547Y-52260380D01*
X147007785Y-52308000D01*
X147055404Y-52355619D01*
X147103023Y-52450857D01*
X147103023Y-52593714D01*
X147055404Y-52688952D01*
X147007785Y-52736571D01*
X146912547Y-52784190D01*
X146531595Y-52784190D01*
X147674452Y-53260380D02*
X147579214Y-53212761D01*
X147531595Y-53165142D01*
X147483976Y-53069904D01*
X147483976Y-52784190D01*
X147531595Y-52688952D01*
X147579214Y-52641333D01*
X147674452Y-52593714D01*
X147817309Y-52593714D01*
X147912547Y-52641333D01*
X147960166Y-52688952D01*
X148007785Y-52784190D01*
X148007785Y-53069904D01*
X147960166Y-53165142D01*
X147912547Y-53212761D01*
X147817309Y-53260380D01*
X147674452Y-53260380D01*
X148293500Y-52593714D02*
X148674452Y-52593714D01*
X148436357Y-52260380D02*
X148436357Y-53117523D01*
X148483976Y-53212761D01*
X148579214Y-53260380D01*
X148674452Y-53260380D01*
X146737928Y-32418571D02*
X146880785Y-32466190D01*
X146928404Y-32513809D01*
X146976023Y-32609047D01*
X146976023Y-32751904D01*
X146928404Y-32847142D01*
X146880785Y-32894761D01*
X146785547Y-32942380D01*
X146404595Y-32942380D01*
X146404595Y-31942380D01*
X146737928Y-31942380D01*
X146833166Y-31990000D01*
X146880785Y-32037619D01*
X146928404Y-32132857D01*
X146928404Y-32228095D01*
X146880785Y-32323333D01*
X146833166Y-32370952D01*
X146737928Y-32418571D01*
X146404595Y-32418571D01*
X147833166Y-32275714D02*
X147833166Y-32942380D01*
X147404595Y-32275714D02*
X147404595Y-32799523D01*
X147452214Y-32894761D01*
X147547452Y-32942380D01*
X147690309Y-32942380D01*
X147785547Y-32894761D01*
X147833166Y-32847142D01*
X148737928Y-32894761D02*
X148642690Y-32942380D01*
X148452214Y-32942380D01*
X148356976Y-32894761D01*
X148309357Y-32847142D01*
X148261738Y-32751904D01*
X148261738Y-32466190D01*
X148309357Y-32370952D01*
X148356976Y-32323333D01*
X148452214Y-32275714D01*
X148642690Y-32275714D01*
X148737928Y-32323333D01*
X149166500Y-32942380D02*
X149166500Y-31942380D01*
X149261738Y-32561428D02*
X149547452Y-32942380D01*
X149547452Y-32275714D02*
X149166500Y-32656666D01*
X146595071Y-33592380D02*
X146785547Y-33592380D01*
X146880785Y-33640000D01*
X146976023Y-33735238D01*
X147023642Y-33925714D01*
X147023642Y-34259047D01*
X146976023Y-34449523D01*
X146880785Y-34544761D01*
X146785547Y-34592380D01*
X146595071Y-34592380D01*
X146499833Y-34544761D01*
X146404595Y-34449523D01*
X146356976Y-34259047D01*
X146356976Y-33925714D01*
X146404595Y-33735238D01*
X146499833Y-33640000D01*
X146595071Y-33592380D01*
X147309357Y-33925714D02*
X147690309Y-33925714D01*
X147452214Y-34592380D02*
X147452214Y-33735238D01*
X147499833Y-33640000D01*
X147595071Y-33592380D01*
X147690309Y-33592380D01*
X147880785Y-33925714D02*
X148261738Y-33925714D01*
X148023642Y-34592380D02*
X148023642Y-33735238D01*
X148071261Y-33640000D01*
X148166500Y-33592380D01*
X148261738Y-33592380D01*
X148547452Y-34544761D02*
X148642690Y-34592380D01*
X148833166Y-34592380D01*
X148928404Y-34544761D01*
X148976023Y-34449523D01*
X148976023Y-34401904D01*
X148928404Y-34306666D01*
X148833166Y-34259047D01*
X148690309Y-34259047D01*
X148595071Y-34211428D01*
X148547452Y-34116190D01*
X148547452Y-34068571D01*
X148595071Y-33973333D01*
X148690309Y-33925714D01*
X148833166Y-33925714D01*
X148928404Y-33973333D01*
X149785547Y-34544761D02*
X149690309Y-34592380D01*
X149499833Y-34592380D01*
X149404595Y-34544761D01*
X149356976Y-34449523D01*
X149356976Y-34068571D01*
X149404595Y-33973333D01*
X149499833Y-33925714D01*
X149690309Y-33925714D01*
X149785547Y-33973333D01*
X149833166Y-34068571D01*
X149833166Y-34163809D01*
X149356976Y-34259047D01*
X150118880Y-33925714D02*
X150499833Y-33925714D01*
X150261738Y-33592380D02*
X150261738Y-34449523D01*
X150309357Y-34544761D01*
X150404595Y-34592380D01*
X150499833Y-34592380D01*
X146404595Y-36242380D02*
X146404595Y-35242380D01*
X146785547Y-35242380D01*
X146880785Y-35290000D01*
X146928404Y-35337619D01*
X146976023Y-35432857D01*
X146976023Y-35575714D01*
X146928404Y-35670952D01*
X146880785Y-35718571D01*
X146785547Y-35766190D01*
X146404595Y-35766190D01*
X147547452Y-36242380D02*
X147452214Y-36194761D01*
X147404595Y-36147142D01*
X147356976Y-36051904D01*
X147356976Y-35766190D01*
X147404595Y-35670952D01*
X147452214Y-35623333D01*
X147547452Y-35575714D01*
X147690309Y-35575714D01*
X147785547Y-35623333D01*
X147833166Y-35670952D01*
X147880785Y-35766190D01*
X147880785Y-36051904D01*
X147833166Y-36147142D01*
X147785547Y-36194761D01*
X147690309Y-36242380D01*
X147547452Y-36242380D01*
X148166500Y-35575714D02*
X148547452Y-35575714D01*
X148309357Y-35242380D02*
X148309357Y-36099523D01*
X148356976Y-36194761D01*
X148452214Y-36242380D01*
X148547452Y-36242380D01*
D12*
X164474285Y-106473571D02*
X163760000Y-106473571D01*
X163760000Y-104973571D01*
X164974285Y-106473571D02*
X164974285Y-105473571D01*
X164974285Y-104973571D02*
X164902857Y-105045000D01*
X164974285Y-105116428D01*
X165045714Y-105045000D01*
X164974285Y-104973571D01*
X164974285Y-105116428D01*
X165688571Y-105473571D02*
X165688571Y-106473571D01*
X165688571Y-105616428D02*
X165760000Y-105545000D01*
X165902857Y-105473571D01*
X166117142Y-105473571D01*
X166260000Y-105545000D01*
X166331428Y-105687857D01*
X166331428Y-106473571D01*
X167617142Y-106402142D02*
X167474285Y-106473571D01*
X167188571Y-106473571D01*
X167045714Y-106402142D01*
X166974285Y-106259285D01*
X166974285Y-105687857D01*
X167045714Y-105545000D01*
X167188571Y-105473571D01*
X167474285Y-105473571D01*
X167617142Y-105545000D01*
X167688571Y-105687857D01*
X167688571Y-105830714D01*
X166974285Y-105973571D01*
X168974285Y-106473571D02*
X168974285Y-105687857D01*
X168902857Y-105545000D01*
X168760000Y-105473571D01*
X168474285Y-105473571D01*
X168331428Y-105545000D01*
X168974285Y-106402142D02*
X168831428Y-106473571D01*
X168474285Y-106473571D01*
X168331428Y-106402142D01*
X168260000Y-106259285D01*
X168260000Y-106116428D01*
X168331428Y-105973571D01*
X168474285Y-105902142D01*
X168831428Y-105902142D01*
X168974285Y-105830714D01*
X169688571Y-106473571D02*
X169688571Y-105473571D01*
X169688571Y-105759285D02*
X169760000Y-105616428D01*
X169831428Y-105545000D01*
X169974285Y-105473571D01*
X170117142Y-105473571D01*
X172617142Y-106473571D02*
X172117142Y-105759285D01*
X171760000Y-106473571D02*
X171760000Y-104973571D01*
X172331428Y-104973571D01*
X172474285Y-105045000D01*
X172545714Y-105116428D01*
X172617142Y-105259285D01*
X172617142Y-105473571D01*
X172545714Y-105616428D01*
X172474285Y-105687857D01*
X172331428Y-105759285D01*
X171760000Y-105759285D01*
X173831428Y-106402142D02*
X173688571Y-106473571D01*
X173402857Y-106473571D01*
X173260000Y-106402142D01*
X173188571Y-106259285D01*
X173188571Y-105687857D01*
X173260000Y-105545000D01*
X173402857Y-105473571D01*
X173688571Y-105473571D01*
X173831428Y-105545000D01*
X173902857Y-105687857D01*
X173902857Y-105830714D01*
X173188571Y-105973571D01*
X175188571Y-105473571D02*
X175188571Y-106687857D01*
X175117142Y-106830714D01*
X175045714Y-106902142D01*
X174902857Y-106973571D01*
X174688571Y-106973571D01*
X174545714Y-106902142D01*
X175188571Y-106402142D02*
X175045714Y-106473571D01*
X174760000Y-106473571D01*
X174617142Y-106402142D01*
X174545714Y-106330714D01*
X174474285Y-106187857D01*
X174474285Y-105759285D01*
X174545714Y-105616428D01*
X174617142Y-105545000D01*
X174760000Y-105473571D01*
X175045714Y-105473571D01*
X175188571Y-105545000D01*
X176545714Y-105473571D02*
X176545714Y-106473571D01*
X175902857Y-105473571D02*
X175902857Y-106259285D01*
X175974285Y-106402142D01*
X176117142Y-106473571D01*
X176331428Y-106473571D01*
X176474285Y-106402142D01*
X176545714Y-106330714D01*
X177474285Y-106473571D02*
X177331428Y-106402142D01*
X177260000Y-106259285D01*
X177260000Y-104973571D01*
X178688571Y-106473571D02*
X178688571Y-105687857D01*
X178617142Y-105545000D01*
X178474285Y-105473571D01*
X178188571Y-105473571D01*
X178045714Y-105545000D01*
X178688571Y-106402142D02*
X178545714Y-106473571D01*
X178188571Y-106473571D01*
X178045714Y-106402142D01*
X177974285Y-106259285D01*
X177974285Y-106116428D01*
X178045714Y-105973571D01*
X178188571Y-105902142D01*
X178545714Y-105902142D01*
X178688571Y-105830714D01*
X179188571Y-105473571D02*
X179760000Y-105473571D01*
X179402857Y-104973571D02*
X179402857Y-106259285D01*
X179474285Y-106402142D01*
X179617142Y-106473571D01*
X179760000Y-106473571D01*
X180474285Y-106473571D02*
X180331428Y-106402142D01*
X180260000Y-106330714D01*
X180188571Y-106187857D01*
X180188571Y-105759285D01*
X180260000Y-105616428D01*
X180331428Y-105545000D01*
X180474285Y-105473571D01*
X180688571Y-105473571D01*
X180831428Y-105545000D01*
X180902857Y-105616428D01*
X180974285Y-105759285D01*
X180974285Y-106187857D01*
X180902857Y-106330714D01*
X180831428Y-106402142D01*
X180688571Y-106473571D01*
X180474285Y-106473571D01*
X181617142Y-106473571D02*
X181617142Y-105473571D01*
X181617142Y-105759285D02*
X181688571Y-105616428D01*
X181760000Y-105545000D01*
X181902857Y-105473571D01*
X182045714Y-105473571D01*
X183617142Y-106402142D02*
X183831428Y-106473571D01*
X184188571Y-106473571D01*
X184331428Y-106402142D01*
X184402857Y-106330714D01*
X184474285Y-106187857D01*
X184474285Y-106045000D01*
X184402857Y-105902142D01*
X184331428Y-105830714D01*
X184188571Y-105759285D01*
X183902857Y-105687857D01*
X183760000Y-105616428D01*
X183688571Y-105545000D01*
X183617142Y-105402142D01*
X183617142Y-105259285D01*
X183688571Y-105116428D01*
X183760000Y-105045000D01*
X183902857Y-104973571D01*
X184260000Y-104973571D01*
X184474285Y-105045000D01*
X185688571Y-106402142D02*
X185545714Y-106473571D01*
X185260000Y-106473571D01*
X185117142Y-106402142D01*
X185045714Y-106259285D01*
X185045714Y-105687857D01*
X185117142Y-105545000D01*
X185260000Y-105473571D01*
X185545714Y-105473571D01*
X185688571Y-105545000D01*
X185760000Y-105687857D01*
X185760000Y-105830714D01*
X185045714Y-105973571D01*
X187045714Y-106402142D02*
X186902857Y-106473571D01*
X186617142Y-106473571D01*
X186474285Y-106402142D01*
X186402857Y-106330714D01*
X186331428Y-106187857D01*
X186331428Y-105759285D01*
X186402857Y-105616428D01*
X186474285Y-105545000D01*
X186617142Y-105473571D01*
X186902857Y-105473571D01*
X187045714Y-105545000D01*
X187474285Y-105473571D02*
X188045714Y-105473571D01*
X187688571Y-104973571D02*
X187688571Y-106259285D01*
X187760000Y-106402142D01*
X187902857Y-106473571D01*
X188045714Y-106473571D01*
X188545714Y-106473571D02*
X188545714Y-105473571D01*
X188545714Y-104973571D02*
X188474285Y-105045000D01*
X188545714Y-105116428D01*
X188617142Y-105045000D01*
X188545714Y-104973571D01*
X188545714Y-105116428D01*
X189474285Y-106473571D02*
X189331428Y-106402142D01*
X189260000Y-106330714D01*
X189188571Y-106187857D01*
X189188571Y-105759285D01*
X189260000Y-105616428D01*
X189331428Y-105545000D01*
X189474285Y-105473571D01*
X189688571Y-105473571D01*
X189831428Y-105545000D01*
X189902857Y-105616428D01*
X189974285Y-105759285D01*
X189974285Y-106187857D01*
X189902857Y-106330714D01*
X189831428Y-106402142D01*
X189688571Y-106473571D01*
X189474285Y-106473571D01*
X190617142Y-105473571D02*
X190617142Y-106473571D01*
X190617142Y-105616428D02*
X190688571Y-105545000D01*
X190831428Y-105473571D01*
X191045714Y-105473571D01*
X191188571Y-105545000D01*
X191260000Y-105687857D01*
X191260000Y-106473571D01*
X153562142Y-32137857D02*
X153776428Y-32209285D01*
X153847857Y-32280714D01*
X153919285Y-32423571D01*
X153919285Y-32637857D01*
X153847857Y-32780714D01*
X153776428Y-32852142D01*
X153633571Y-32923571D01*
X153062142Y-32923571D01*
X153062142Y-31423571D01*
X153562142Y-31423571D01*
X153705000Y-31495000D01*
X153776428Y-31566428D01*
X153847857Y-31709285D01*
X153847857Y-31852142D01*
X153776428Y-31995000D01*
X153705000Y-32066428D01*
X153562142Y-32137857D01*
X153062142Y-32137857D01*
X155205000Y-31923571D02*
X155205000Y-32923571D01*
X154562142Y-31923571D02*
X154562142Y-32709285D01*
X154633571Y-32852142D01*
X154776428Y-32923571D01*
X154990714Y-32923571D01*
X155133571Y-32852142D01*
X155205000Y-32780714D01*
X156562142Y-32852142D02*
X156419285Y-32923571D01*
X156133571Y-32923571D01*
X155990714Y-32852142D01*
X155919285Y-32780714D01*
X155847857Y-32637857D01*
X155847857Y-32209285D01*
X155919285Y-32066428D01*
X155990714Y-31995000D01*
X156133571Y-31923571D01*
X156419285Y-31923571D01*
X156562142Y-31995000D01*
X157205000Y-32923571D02*
X157205000Y-31423571D01*
X157347857Y-32352142D02*
X157776428Y-32923571D01*
X157776428Y-31923571D02*
X157205000Y-32495000D01*
X153919285Y-35330714D02*
X153847857Y-35402142D01*
X153633571Y-35473571D01*
X153490714Y-35473571D01*
X153276428Y-35402142D01*
X153133571Y-35259285D01*
X153062142Y-35116428D01*
X152990714Y-34830714D01*
X152990714Y-34616428D01*
X153062142Y-34330714D01*
X153133571Y-34187857D01*
X153276428Y-34045000D01*
X153490714Y-33973571D01*
X153633571Y-33973571D01*
X153847857Y-34045000D01*
X153919285Y-34116428D01*
X154776428Y-35473571D02*
X154633571Y-35402142D01*
X154562142Y-35330714D01*
X154490714Y-35187857D01*
X154490714Y-34759285D01*
X154562142Y-34616428D01*
X154633571Y-34545000D01*
X154776428Y-34473571D01*
X154990714Y-34473571D01*
X155133571Y-34545000D01*
X155205000Y-34616428D01*
X155276428Y-34759285D01*
X155276428Y-35187857D01*
X155205000Y-35330714D01*
X155133571Y-35402142D01*
X154990714Y-35473571D01*
X154776428Y-35473571D01*
X155919285Y-34473571D02*
X155919285Y-35473571D01*
X155919285Y-34616428D02*
X155990714Y-34545000D01*
X156133571Y-34473571D01*
X156347857Y-34473571D01*
X156490714Y-34545000D01*
X156562142Y-34687857D01*
X156562142Y-35473571D01*
X157133571Y-34473571D02*
X157490714Y-35473571D01*
X157847857Y-34473571D01*
X158990714Y-35402142D02*
X158847857Y-35473571D01*
X158562142Y-35473571D01*
X158419285Y-35402142D01*
X158347857Y-35259285D01*
X158347857Y-34687857D01*
X158419285Y-34545000D01*
X158562142Y-34473571D01*
X158847857Y-34473571D01*
X158990714Y-34545000D01*
X159062142Y-34687857D01*
X159062142Y-34830714D01*
X158347857Y-34973571D01*
X159705000Y-35473571D02*
X159705000Y-34473571D01*
X159705000Y-34759285D02*
X159776428Y-34616428D01*
X159847857Y-34545000D01*
X159990714Y-34473571D01*
X160133571Y-34473571D01*
X160419285Y-34473571D02*
X160990714Y-34473571D01*
X160633571Y-33973571D02*
X160633571Y-35259285D01*
X160705000Y-35402142D01*
X160847857Y-35473571D01*
X160990714Y-35473571D01*
X162062142Y-35402142D02*
X161919285Y-35473571D01*
X161633571Y-35473571D01*
X161490714Y-35402142D01*
X161419285Y-35259285D01*
X161419285Y-34687857D01*
X161490714Y-34545000D01*
X161633571Y-34473571D01*
X161919285Y-34473571D01*
X162062142Y-34545000D01*
X162133571Y-34687857D01*
X162133571Y-34830714D01*
X161419285Y-34973571D01*
X162776428Y-35473571D02*
X162776428Y-34473571D01*
X162776428Y-34759285D02*
X162847857Y-34616428D01*
X162919285Y-34545000D01*
X163062142Y-34473571D01*
X163205000Y-34473571D01*
X152990714Y-37952142D02*
X153205000Y-38023571D01*
X153562142Y-38023571D01*
X153705000Y-37952142D01*
X153776428Y-37880714D01*
X153847857Y-37737857D01*
X153847857Y-37595000D01*
X153776428Y-37452142D01*
X153705000Y-37380714D01*
X153562142Y-37309285D01*
X153276428Y-37237857D01*
X153133571Y-37166428D01*
X153062142Y-37095000D01*
X152990714Y-36952142D01*
X152990714Y-36809285D01*
X153062142Y-36666428D01*
X153133571Y-36595000D01*
X153276428Y-36523571D01*
X153633571Y-36523571D01*
X153847857Y-36595000D01*
X155062142Y-37952142D02*
X154919285Y-38023571D01*
X154633571Y-38023571D01*
X154490714Y-37952142D01*
X154419285Y-37809285D01*
X154419285Y-37237857D01*
X154490714Y-37095000D01*
X154633571Y-37023571D01*
X154919285Y-37023571D01*
X155062142Y-37095000D01*
X155133571Y-37237857D01*
X155133571Y-37380714D01*
X154419285Y-37523571D01*
X156419285Y-37952142D02*
X156276428Y-38023571D01*
X155990714Y-38023571D01*
X155847857Y-37952142D01*
X155776428Y-37880714D01*
X155705000Y-37737857D01*
X155705000Y-37309285D01*
X155776428Y-37166428D01*
X155847857Y-37095000D01*
X155990714Y-37023571D01*
X156276428Y-37023571D01*
X156419285Y-37095000D01*
X156847857Y-37023571D02*
X157419285Y-37023571D01*
X157062142Y-36523571D02*
X157062142Y-37809285D01*
X157133571Y-37952142D01*
X157276428Y-38023571D01*
X157419285Y-38023571D01*
X157919285Y-38023571D02*
X157919285Y-37023571D01*
X157919285Y-36523571D02*
X157847857Y-36595000D01*
X157919285Y-36666428D01*
X157990714Y-36595000D01*
X157919285Y-36523571D01*
X157919285Y-36666428D01*
X158847857Y-38023571D02*
X158705000Y-37952142D01*
X158633571Y-37880714D01*
X158562142Y-37737857D01*
X158562142Y-37309285D01*
X158633571Y-37166428D01*
X158705000Y-37095000D01*
X158847857Y-37023571D01*
X159062142Y-37023571D01*
X159205000Y-37095000D01*
X159276428Y-37166428D01*
X159347857Y-37309285D01*
X159347857Y-37737857D01*
X159276428Y-37880714D01*
X159205000Y-37952142D01*
X159062142Y-38023571D01*
X158847857Y-38023571D01*
X159990714Y-37023571D02*
X159990714Y-38023571D01*
X159990714Y-37166428D02*
X160062142Y-37095000D01*
X160205000Y-37023571D01*
X160419285Y-37023571D01*
X160562142Y-37095000D01*
X160633571Y-37237857D01*
X160633571Y-38023571D01*
X113831428Y-64473571D02*
X113831428Y-62973571D01*
X114402857Y-62973571D01*
X114545714Y-63045000D01*
X114617142Y-63116428D01*
X114688571Y-63259285D01*
X114688571Y-63473571D01*
X114617142Y-63616428D01*
X114545714Y-63687857D01*
X114402857Y-63759285D01*
X113831428Y-63759285D01*
X115545714Y-64473571D02*
X115402857Y-64402142D01*
X115331428Y-64330714D01*
X115260000Y-64187857D01*
X115260000Y-63759285D01*
X115331428Y-63616428D01*
X115402857Y-63545000D01*
X115545714Y-63473571D01*
X115760000Y-63473571D01*
X115902857Y-63545000D01*
X115974285Y-63616428D01*
X116045714Y-63759285D01*
X116045714Y-64187857D01*
X115974285Y-64330714D01*
X115902857Y-64402142D01*
X115760000Y-64473571D01*
X115545714Y-64473571D01*
X116545714Y-63473571D02*
X116831428Y-64473571D01*
X117117142Y-63759285D01*
X117402857Y-64473571D01*
X117688571Y-63473571D01*
X118831428Y-64402142D02*
X118688571Y-64473571D01*
X118402857Y-64473571D01*
X118260000Y-64402142D01*
X118188571Y-64259285D01*
X118188571Y-63687857D01*
X118260000Y-63545000D01*
X118402857Y-63473571D01*
X118688571Y-63473571D01*
X118831428Y-63545000D01*
X118902857Y-63687857D01*
X118902857Y-63830714D01*
X118188571Y-63973571D01*
X119545714Y-64473571D02*
X119545714Y-63473571D01*
X119545714Y-63759285D02*
X119617142Y-63616428D01*
X119688571Y-63545000D01*
X119831428Y-63473571D01*
X119974285Y-63473571D01*
X121545714Y-64402142D02*
X121760000Y-64473571D01*
X122117142Y-64473571D01*
X122260000Y-64402142D01*
X122331428Y-64330714D01*
X122402857Y-64187857D01*
X122402857Y-64045000D01*
X122331428Y-63902142D01*
X122260000Y-63830714D01*
X122117142Y-63759285D01*
X121831428Y-63687857D01*
X121688571Y-63616428D01*
X121617142Y-63545000D01*
X121545714Y-63402142D01*
X121545714Y-63259285D01*
X121617142Y-63116428D01*
X121688571Y-63045000D01*
X121831428Y-62973571D01*
X122188571Y-62973571D01*
X122402857Y-63045000D01*
X123617142Y-64402142D02*
X123474285Y-64473571D01*
X123188571Y-64473571D01*
X123045714Y-64402142D01*
X122974285Y-64259285D01*
X122974285Y-63687857D01*
X123045714Y-63545000D01*
X123188571Y-63473571D01*
X123474285Y-63473571D01*
X123617142Y-63545000D01*
X123688571Y-63687857D01*
X123688571Y-63830714D01*
X122974285Y-63973571D01*
X124974285Y-64402142D02*
X124831428Y-64473571D01*
X124545714Y-64473571D01*
X124402857Y-64402142D01*
X124331428Y-64330714D01*
X124260000Y-64187857D01*
X124260000Y-63759285D01*
X124331428Y-63616428D01*
X124402857Y-63545000D01*
X124545714Y-63473571D01*
X124831428Y-63473571D01*
X124974285Y-63545000D01*
X125402857Y-63473571D02*
X125974285Y-63473571D01*
X125617142Y-62973571D02*
X125617142Y-64259285D01*
X125688571Y-64402142D01*
X125831428Y-64473571D01*
X125974285Y-64473571D01*
X126474285Y-64473571D02*
X126474285Y-63473571D01*
X126474285Y-62973571D02*
X126402857Y-63045000D01*
X126474285Y-63116428D01*
X126545714Y-63045000D01*
X126474285Y-62973571D01*
X126474285Y-63116428D01*
X127402857Y-64473571D02*
X127260000Y-64402142D01*
X127188571Y-64330714D01*
X127117142Y-64187857D01*
X127117142Y-63759285D01*
X127188571Y-63616428D01*
X127260000Y-63545000D01*
X127402857Y-63473571D01*
X127617142Y-63473571D01*
X127760000Y-63545000D01*
X127831428Y-63616428D01*
X127902857Y-63759285D01*
X127902857Y-64187857D01*
X127831428Y-64330714D01*
X127760000Y-64402142D01*
X127617142Y-64473571D01*
X127402857Y-64473571D01*
X128545714Y-63473571D02*
X128545714Y-64473571D01*
X128545714Y-63616428D02*
X128617142Y-63545000D01*
X128760000Y-63473571D01*
X128974285Y-63473571D01*
X129117142Y-63545000D01*
X129188571Y-63687857D01*
X129188571Y-64473571D01*
D10*
X151510000Y-65795000D02*
X151510000Y-123795000D01*
X151510000Y-61795000D02*
X198510000Y-61795000D01*
X151510000Y-65795000D02*
X101510000Y-65795000D01*
X151510000Y-26795000D02*
X151510000Y-65795000D01*
D11*
X101492095Y-46848000D02*
X101396857Y-46800380D01*
X101254000Y-46800380D01*
X101111142Y-46848000D01*
X101015904Y-46943238D01*
X100968285Y-47038476D01*
X100920666Y-47228952D01*
X100920666Y-47371809D01*
X100968285Y-47562285D01*
X101015904Y-47657523D01*
X101111142Y-47752761D01*
X101254000Y-47800380D01*
X101349238Y-47800380D01*
X101492095Y-47752761D01*
X101539714Y-47705142D01*
X101539714Y-47371809D01*
X101349238Y-47371809D01*
X101968285Y-47800380D02*
X101968285Y-46800380D01*
X102539714Y-47800380D01*
X102539714Y-46800380D01*
X103015904Y-47800380D02*
X103015904Y-46800380D01*
X103254000Y-46800380D01*
X103396857Y-46848000D01*
X103492095Y-46943238D01*
X103539714Y-47038476D01*
X103587333Y-47228952D01*
X103587333Y-47371809D01*
X103539714Y-47562285D01*
X103492095Y-47657523D01*
X103396857Y-47752761D01*
X103254000Y-47800380D01*
X103015904Y-47800380D01*
X128032095Y-56459428D02*
X128794000Y-56459428D01*
X129794000Y-56840380D02*
X129222571Y-56840380D01*
X129508285Y-56840380D02*
X129508285Y-55840380D01*
X129413047Y-55983238D01*
X129317809Y-56078476D01*
X129222571Y-56126095D01*
X130174952Y-55935619D02*
X130222571Y-55888000D01*
X130317809Y-55840380D01*
X130555904Y-55840380D01*
X130651142Y-55888000D01*
X130698761Y-55935619D01*
X130746380Y-56030857D01*
X130746380Y-56126095D01*
X130698761Y-56268952D01*
X130127333Y-56840380D01*
X130746380Y-56840380D01*
X131032095Y-55840380D02*
X131365428Y-56840380D01*
X131698761Y-55840380D01*
X128508285Y-51379428D02*
X129270190Y-51379428D01*
X130222571Y-50760380D02*
X129746380Y-50760380D01*
X129698761Y-51236571D01*
X129746380Y-51188952D01*
X129841619Y-51141333D01*
X130079714Y-51141333D01*
X130174952Y-51188952D01*
X130222571Y-51236571D01*
X130270190Y-51331809D01*
X130270190Y-51569904D01*
X130222571Y-51665142D01*
X130174952Y-51712761D01*
X130079714Y-51760380D01*
X129841619Y-51760380D01*
X129746380Y-51712761D01*
X129698761Y-51665142D01*
X130555904Y-50760380D02*
X130889238Y-51760380D01*
X131222571Y-50760380D01*
X128032095Y-46299428D02*
X128794000Y-46299428D01*
X129174952Y-45680380D02*
X129794000Y-45680380D01*
X129460666Y-46061333D01*
X129603523Y-46061333D01*
X129698761Y-46108952D01*
X129746380Y-46156571D01*
X129794000Y-46251809D01*
X129794000Y-46489904D01*
X129746380Y-46585142D01*
X129698761Y-46632761D01*
X129603523Y-46680380D01*
X129317809Y-46680380D01*
X129222571Y-46632761D01*
X129174952Y-46585142D01*
X130079714Y-45680380D02*
X130413047Y-46680380D01*
X130746380Y-45680380D01*
X130984476Y-45680380D02*
X131603523Y-45680380D01*
X131270190Y-46061333D01*
X131413047Y-46061333D01*
X131508285Y-46108952D01*
X131555904Y-46156571D01*
X131603523Y-46251809D01*
X131603523Y-46489904D01*
X131555904Y-46585142D01*
X131508285Y-46632761D01*
X131413047Y-46680380D01*
X131127333Y-46680380D01*
X131032095Y-46632761D01*
X130984476Y-46585142D01*
X128032095Y-41219428D02*
X128794000Y-41219428D01*
X128413047Y-41600380D02*
X128413047Y-40838476D01*
X129174952Y-40600380D02*
X129794000Y-40600380D01*
X129460666Y-40981333D01*
X129603523Y-40981333D01*
X129698761Y-41028952D01*
X129746380Y-41076571D01*
X129794000Y-41171809D01*
X129794000Y-41409904D01*
X129746380Y-41505142D01*
X129698761Y-41552761D01*
X129603523Y-41600380D01*
X129317809Y-41600380D01*
X129222571Y-41552761D01*
X129174952Y-41505142D01*
X130079714Y-40600380D02*
X130413047Y-41600380D01*
X130746380Y-40600380D01*
X130984476Y-40600380D02*
X131603523Y-40600380D01*
X131270190Y-40981333D01*
X131413047Y-40981333D01*
X131508285Y-41028952D01*
X131555904Y-41076571D01*
X131603523Y-41171809D01*
X131603523Y-41409904D01*
X131555904Y-41505142D01*
X131508285Y-41552761D01*
X131413047Y-41600380D01*
X131127333Y-41600380D01*
X131032095Y-41552761D01*
X130984476Y-41505142D01*
X128508285Y-33599428D02*
X129270190Y-33599428D01*
X128889238Y-33980380D02*
X128889238Y-33218476D01*
X130222571Y-32980380D02*
X129746380Y-32980380D01*
X129698761Y-33456571D01*
X129746380Y-33408952D01*
X129841619Y-33361333D01*
X130079714Y-33361333D01*
X130174952Y-33408952D01*
X130222571Y-33456571D01*
X130270190Y-33551809D01*
X130270190Y-33789904D01*
X130222571Y-33885142D01*
X130174952Y-33932761D01*
X130079714Y-33980380D01*
X129841619Y-33980380D01*
X129746380Y-33932761D01*
X129698761Y-33885142D01*
X130555904Y-32980380D02*
X130889238Y-33980380D01*
X131222571Y-32980380D01*
X128032095Y-28519428D02*
X128794000Y-28519428D01*
X128413047Y-28900380D02*
X128413047Y-28138476D01*
X129794000Y-28900380D02*
X129222571Y-28900380D01*
X129508285Y-28900380D02*
X129508285Y-27900380D01*
X129413047Y-28043238D01*
X129317809Y-28138476D01*
X129222571Y-28186095D01*
X130174952Y-27995619D02*
X130222571Y-27948000D01*
X130317809Y-27900380D01*
X130555904Y-27900380D01*
X130651142Y-27948000D01*
X130698761Y-27995619D01*
X130746380Y-28090857D01*
X130746380Y-28186095D01*
X130698761Y-28328952D01*
X130127333Y-28900380D01*
X130746380Y-28900380D01*
X131032095Y-27900380D02*
X131365428Y-28900380D01*
X131698761Y-27900380D01*
D10*
X101981000Y-32893000D02*
X103251000Y-32893000D01*
X102616000Y-29718000D02*
X102616000Y-30988000D01*
X103251000Y-30353000D02*
X101981000Y-30353000D01*
D13*
G04 #@! TO.C,R32*
X136670049Y-108728653D02*
X136670049Y-107728653D01*
X138030049Y-107728653D02*
X138030049Y-108728653D01*
D11*
G04 #@! TO.C,U15*
X114463000Y-85297000D02*
X114463000Y-82297000D01*
X110863000Y-82297000D02*
X110863000Y-85297000D01*
D13*
G04 #@! TO.C,C14*
X110074000Y-42388000D02*
X110074000Y-43088000D01*
X108874000Y-43088000D02*
X108874000Y-42388000D01*
G04 #@! TO.C,C15*
X111979000Y-42388000D02*
X111979000Y-43088000D01*
X110779000Y-43088000D02*
X110779000Y-42388000D01*
G04 #@! TO.C,C28*
X146796000Y-40328000D02*
X146796000Y-41028000D01*
X145596000Y-41028000D02*
X145596000Y-40328000D01*
D11*
G04 #@! TO.C,C31*
G36*
X178680000Y-26330000D02*
X178680000Y-34330000D01*
X178280000Y-34330000D01*
X177480000Y-34130000D01*
X176480000Y-33730000D01*
X175680000Y-32930000D01*
X175080000Y-31930000D01*
X174680000Y-30730000D01*
X174680000Y-29930000D01*
X175280000Y-28330000D01*
X176280000Y-27130000D01*
X177680000Y-26530000D01*
X178680000Y-26330000D01*
G37*
X178680000Y-26330000D02*
X178680000Y-34330000D01*
X178280000Y-34330000D01*
X177480000Y-34130000D01*
X176480000Y-33730000D01*
X175680000Y-32930000D01*
X175080000Y-31930000D01*
X174680000Y-30730000D01*
X174680000Y-29930000D01*
X175280000Y-28330000D01*
X176280000Y-27130000D01*
X177680000Y-26530000D01*
X178680000Y-26330000D01*
X178680000Y-26330000D02*
X178680000Y-34330000D01*
X174080000Y-29930000D02*
X174080000Y-30730000D01*
X174480000Y-30330000D02*
X173680000Y-30330000D01*
X182680000Y-30330000D02*
G75*
G03X182680000Y-30330000I-4000000J0D01*
G01*
G04 #@! TO.C,C34*
X190455000Y-51920000D02*
G75*
G03X190455000Y-51920000I-4000000J0D01*
G01*
X190655000Y-51920000D02*
X191455000Y-51920000D01*
X191055000Y-52320000D02*
X191055000Y-51520000D01*
X186455000Y-55920000D02*
X186455000Y-47920000D01*
G36*
X186455000Y-55920000D02*
X186455000Y-47920000D01*
X186855000Y-47920000D01*
X187655000Y-48120000D01*
X188655000Y-48520000D01*
X189455000Y-49320000D01*
X190055000Y-50320000D01*
X190455000Y-51520000D01*
X190455000Y-52320000D01*
X189855000Y-53920000D01*
X188855000Y-55120000D01*
X187455000Y-55720000D01*
X186455000Y-55920000D01*
G37*
X186455000Y-55920000D02*
X186455000Y-47920000D01*
X186855000Y-47920000D01*
X187655000Y-48120000D01*
X188655000Y-48520000D01*
X189455000Y-49320000D01*
X190055000Y-50320000D01*
X190455000Y-51520000D01*
X190455000Y-52320000D01*
X189855000Y-53920000D01*
X188855000Y-55120000D01*
X187455000Y-55720000D01*
X186455000Y-55920000D01*
G04 #@! TO.C,C50*
X190240000Y-91671000D02*
G75*
G03X190240000Y-91671000I-3150000J0D01*
G01*
X187090000Y-88271000D02*
X187090000Y-87471000D01*
X187490000Y-87871000D02*
X186690000Y-87871000D01*
G36*
X190240000Y-91621000D02*
X189940000Y-90271000D01*
X189340000Y-89521000D01*
X188740000Y-89021000D01*
X188040000Y-88671000D01*
X187290000Y-88521000D01*
X186440000Y-88621000D01*
X185340000Y-89071000D01*
X184640000Y-89721000D01*
X184290000Y-90321000D01*
X184040000Y-91121000D01*
X183940000Y-91671000D01*
X190240000Y-91671000D01*
X190240000Y-91621000D01*
G37*
X190240000Y-91621000D02*
X189940000Y-90271000D01*
X189340000Y-89521000D01*
X188740000Y-89021000D01*
X188040000Y-88671000D01*
X187290000Y-88521000D01*
X186440000Y-88621000D01*
X185340000Y-89071000D01*
X184640000Y-89721000D01*
X184290000Y-90321000D01*
X184040000Y-91121000D01*
X183940000Y-91671000D01*
X190240000Y-91671000D01*
X190240000Y-91621000D01*
G04 #@! TO.C,C53*
G36*
X183940000Y-83085000D02*
X184240000Y-84435000D01*
X184840000Y-85185000D01*
X185440000Y-85685000D01*
X186140000Y-86035000D01*
X186890000Y-86185000D01*
X187740000Y-86085000D01*
X188840000Y-85635000D01*
X189540000Y-84985000D01*
X189890000Y-84385000D01*
X190140000Y-83585000D01*
X190240000Y-83035000D01*
X183940000Y-83035000D01*
X183940000Y-83085000D01*
G37*
X183940000Y-83085000D02*
X184240000Y-84435000D01*
X184840000Y-85185000D01*
X185440000Y-85685000D01*
X186140000Y-86035000D01*
X186890000Y-86185000D01*
X187740000Y-86085000D01*
X188840000Y-85635000D01*
X189540000Y-84985000D01*
X189890000Y-84385000D01*
X190140000Y-83585000D01*
X190240000Y-83035000D01*
X183940000Y-83035000D01*
X183940000Y-83085000D01*
X186690000Y-86835000D02*
X187490000Y-86835000D01*
X187090000Y-86435000D02*
X187090000Y-87235000D01*
X190240000Y-83035000D02*
G75*
G03X190240000Y-83035000I-3150000J0D01*
G01*
G04 #@! TO.C,D4*
X139704520Y-96884460D02*
X139704520Y-97646460D01*
X144276520Y-96884460D02*
X139704520Y-96884460D01*
X144276520Y-98408460D02*
X144276520Y-96884460D01*
X139704520Y-98408460D02*
X144276520Y-98408460D01*
X139704520Y-97646460D02*
X139704520Y-98408460D01*
X140466520Y-96884460D02*
X140466520Y-98408460D01*
X139831520Y-97646460D02*
X138307520Y-97646460D01*
X144276520Y-97646460D02*
X145673520Y-97646460D01*
G04 #@! TO.C,J1*
X106426000Y-29083000D02*
X103886000Y-29083000D01*
X106426000Y-34163000D02*
X106426000Y-29083000D01*
X103886000Y-34163000D02*
X106426000Y-34163000D01*
X103886000Y-29083000D02*
X103886000Y-34163000D01*
G04 #@! TO.C,J2*
X106426000Y-48618000D02*
X106426000Y-36172000D01*
X103886000Y-48618000D02*
X106426000Y-48618000D01*
X103886000Y-35918000D02*
X103886000Y-48618000D01*
X106426000Y-35918000D02*
X106426000Y-36172000D01*
X103886000Y-35918000D02*
X106426000Y-35918000D01*
G04 #@! TO.C,J3*
X123444000Y-31623000D02*
X123444000Y-29083000D01*
X123444000Y-29083000D02*
X123698000Y-29083000D01*
X123444000Y-31623000D02*
X136144000Y-31623000D01*
X136144000Y-31623000D02*
X136144000Y-29083000D01*
X136144000Y-29083000D02*
X123698000Y-29083000D01*
D13*
G04 #@! TO.C,J4*
X123384000Y-39303000D02*
X123384000Y-37973000D01*
X124714000Y-39303000D02*
X123384000Y-39303000D01*
X123384000Y-36703000D02*
X123384000Y-34103000D01*
X125984000Y-36703000D02*
X123384000Y-36703000D01*
X125984000Y-39303000D02*
X125984000Y-36703000D01*
X123384000Y-34103000D02*
X136204000Y-34103000D01*
X125984000Y-39303000D02*
X136204000Y-39303000D01*
X136204000Y-39303000D02*
X136204000Y-34103000D01*
D11*
G04 #@! TO.C,J5*
X123444000Y-44323000D02*
X123444000Y-41783000D01*
X123444000Y-41783000D02*
X123698000Y-41783000D01*
X123444000Y-44323000D02*
X136144000Y-44323000D01*
X136144000Y-44323000D02*
X136144000Y-41783000D01*
X136144000Y-41783000D02*
X123698000Y-41783000D01*
G04 #@! TO.C,J6*
X136144000Y-57023000D02*
X123698000Y-57023000D01*
X136144000Y-59563000D02*
X136144000Y-57023000D01*
X123444000Y-59563000D02*
X136144000Y-59563000D01*
X123444000Y-57023000D02*
X123698000Y-57023000D01*
X123444000Y-59563000D02*
X123444000Y-57023000D01*
G04 #@! TO.C,J7*
X123444000Y-54483000D02*
X123444000Y-51943000D01*
X123444000Y-51943000D02*
X123698000Y-51943000D01*
X123444000Y-54483000D02*
X136144000Y-54483000D01*
X136144000Y-54483000D02*
X136144000Y-51943000D01*
X136144000Y-51943000D02*
X123698000Y-51943000D01*
G04 #@! TO.C,J8*
X136144000Y-46863000D02*
X123698000Y-46863000D01*
X136144000Y-49403000D02*
X136144000Y-46863000D01*
X123444000Y-49403000D02*
X136144000Y-49403000D01*
X123444000Y-46863000D02*
X123698000Y-46863000D01*
X123444000Y-49403000D02*
X123444000Y-46863000D01*
G04 #@! TO.C,J9*
X155848000Y-29441000D02*
X160928000Y-29441000D01*
X160928000Y-29441000D02*
X160928000Y-26901000D01*
X160928000Y-26901000D02*
X155848000Y-26901000D01*
X155848000Y-26901000D02*
X155848000Y-29441000D01*
G04 #@! TO.C,J10*
X162960000Y-33505000D02*
X173120000Y-33505000D01*
X162960000Y-25885000D02*
X162960000Y-33505000D01*
X173120000Y-25885000D02*
X162960000Y-25885000D01*
X173120000Y-33505000D02*
X173120000Y-25885000D01*
G04 #@! TO.C,J11*
X199790000Y-46840000D02*
X192170000Y-46840000D01*
X192170000Y-46840000D02*
X192170000Y-57000000D01*
X192170000Y-57000000D02*
X199790000Y-57000000D01*
X199790000Y-57000000D02*
X199790000Y-46840000D01*
G04 #@! TO.C,J12*
X121416000Y-106285000D02*
X121416000Y-113905000D01*
X123956000Y-106285000D02*
X121416000Y-106285000D01*
X123956000Y-113905000D02*
X123956000Y-106285000D01*
X121416000Y-113905000D02*
X123956000Y-113905000D01*
G04 #@! TO.C,J13*
X123956000Y-98665000D02*
X121416000Y-98665000D01*
X123956000Y-103745000D02*
X123956000Y-98665000D01*
X121416000Y-103745000D02*
X123956000Y-103745000D01*
X121416000Y-98665000D02*
X121416000Y-103745000D01*
G04 #@! TO.C,J14*
X129984049Y-119658653D02*
X129984049Y-122198653D01*
X129984049Y-122198653D02*
X137604049Y-122198653D01*
X137604049Y-122198653D02*
X137604049Y-119658653D01*
X137604049Y-119658653D02*
X129984049Y-119658653D01*
G04 #@! TO.C,J15*
X147764049Y-119658653D02*
X140144049Y-119658653D01*
X147764049Y-122198653D02*
X147764049Y-119658653D01*
X140144049Y-122198653D02*
X147764049Y-122198653D01*
X140144049Y-119658653D02*
X140144049Y-122198653D01*
G04 #@! TO.C,J16*
X107588000Y-86337000D02*
X110128000Y-86337000D01*
X107588000Y-81257000D02*
X107588000Y-86337000D01*
X110128000Y-81257000D02*
X107588000Y-81257000D01*
X110128000Y-86337000D02*
X110128000Y-81257000D01*
G04 #@! TO.C,J17*
X103890000Y-70979000D02*
X103890000Y-78599000D01*
X106430000Y-70979000D02*
X103890000Y-70979000D01*
X106430000Y-78599000D02*
X106430000Y-70979000D01*
X103890000Y-78599000D02*
X106430000Y-78599000D01*
G04 #@! TO.C,J18*
X103778000Y-88877000D02*
X103778000Y-93957000D01*
X103778000Y-93957000D02*
X106318000Y-93957000D01*
X106318000Y-93957000D02*
X106318000Y-88877000D01*
X106318000Y-88877000D02*
X103778000Y-88877000D01*
G04 #@! TO.C,J19*
X103778000Y-81257000D02*
X103778000Y-86337000D01*
X103778000Y-86337000D02*
X106318000Y-86337000D01*
X106318000Y-86337000D02*
X106318000Y-81257000D01*
X106318000Y-81257000D02*
X103778000Y-81257000D01*
G04 #@! TO.C,J20*
X199155000Y-103355000D02*
X196615000Y-103355000D01*
X196615000Y-103355000D02*
X196615000Y-110975000D01*
X196615000Y-110975000D02*
X199155000Y-110975000D01*
X199155000Y-110975000D02*
X199155000Y-103355000D01*
G04 #@! TO.C,J21*
X200044000Y-97259000D02*
X200044000Y-87099000D01*
X192424000Y-97259000D02*
X200044000Y-97259000D01*
X192424000Y-87099000D02*
X192424000Y-97259000D01*
X200044000Y-87099000D02*
X192424000Y-87099000D01*
G04 #@! TO.C,J22*
X192424000Y-87099000D02*
X200044000Y-87099000D01*
X200044000Y-87099000D02*
X200044000Y-76939000D01*
X200044000Y-76939000D02*
X192424000Y-76939000D01*
X192424000Y-76939000D02*
X192424000Y-87099000D01*
G04 #@! TO.C,L1*
X183565000Y-32920000D02*
X183565000Y-36220000D01*
X183565000Y-32920000D02*
X196965000Y-32920000D01*
X196965000Y-32920000D02*
X196965000Y-36220000D01*
X196965000Y-42220000D02*
X196965000Y-45520000D01*
X196965000Y-45520000D02*
X190265000Y-45520000D01*
X190265000Y-45520000D02*
X183565000Y-45520000D01*
X183565000Y-45520000D02*
X183565000Y-42220000D01*
G04 #@! TO.C,POT1*
X145180000Y-29441000D02*
X145815000Y-29441000D01*
X145815000Y-29441000D02*
X145815000Y-38458000D01*
X145815000Y-38458000D02*
X136925000Y-38458000D01*
X136925000Y-38458000D02*
X136925000Y-29441000D01*
X136925000Y-29441000D02*
X137687000Y-29441000D01*
X136925000Y-32108000D02*
X136925000Y-38458000D01*
X145815000Y-32108000D02*
X145815000Y-38458000D01*
X137560000Y-29441000D02*
X145180000Y-29441000D01*
X137306000Y-38458000D02*
X145434000Y-38458000D01*
G04 #@! TO.C,POT2*
X137306000Y-55730000D02*
X145434000Y-55730000D01*
X137560000Y-46713000D02*
X145180000Y-46713000D01*
X145815000Y-49380000D02*
X145815000Y-55730000D01*
X136925000Y-49380000D02*
X136925000Y-55730000D01*
X136925000Y-46713000D02*
X137687000Y-46713000D01*
X136925000Y-55730000D02*
X136925000Y-46713000D01*
X145815000Y-55730000D02*
X136925000Y-55730000D01*
X145815000Y-46713000D02*
X145815000Y-55730000D01*
X145180000Y-46713000D02*
X145815000Y-46713000D01*
G04 #@! TO.C,Q1*
X111916879Y-75827873D02*
G75*
G03X109732000Y-74421000I-2184879J-993127D01*
G01*
X107547121Y-75827873D02*
G75*
G02X109732000Y-74421000I2184879J-993127D01*
G01*
X108032000Y-78521000D02*
X111432000Y-78521000D01*
X111919695Y-77817990D02*
G75*
G02X111432000Y-78521000I-2187695J996990D01*
G01*
X107544305Y-77817990D02*
G75*
G03X108032000Y-78521000I2187695J996990D01*
G01*
G04 #@! TO.C,Q2*
X163318127Y-72773879D02*
G75*
G03X164725000Y-70589000I-993127J2184879D01*
G01*
X163318127Y-68404121D02*
G75*
G02X164725000Y-70589000I-993127J-2184879D01*
G01*
X160625000Y-68889000D02*
X160625000Y-72289000D01*
X161328010Y-72776695D02*
G75*
G02X160625000Y-72289000I996990J2187695D01*
G01*
X161328010Y-68401305D02*
G75*
G03X160625000Y-68889000I996990J-2187695D01*
G01*
G04 #@! TO.C,Q3*
X136181170Y-115825780D02*
G75*
G03X138366049Y-117232653I2184879J993127D01*
G01*
X140550928Y-115825780D02*
G75*
G02X138366049Y-117232653I-2184879J993127D01*
G01*
X140066049Y-113132653D02*
X136666049Y-113132653D01*
X136178354Y-113835663D02*
G75*
G02X136666049Y-113132653I2187695J-996990D01*
G01*
X140553744Y-113835663D02*
G75*
G03X140066049Y-113132653I-2187695J-996990D01*
G01*
G04 #@! TO.C,Q4*
X141903039Y-111686348D02*
G75*
G03X142606049Y-111198653I-996990J2187695D01*
G01*
X141903039Y-107310958D02*
G75*
G02X142606049Y-107798653I-996990J-2187695D01*
G01*
X142606049Y-111198653D02*
X142606049Y-107798653D01*
X139912922Y-111683532D02*
G75*
G02X138506049Y-109498653I993127J2184879D01*
G01*
X139912922Y-107313774D02*
G75*
G03X138506049Y-109498653I993127J-2184879D01*
G01*
G04 #@! TO.C,Q5*
X181524873Y-93550121D02*
G75*
G03X180118000Y-95735000I993127J-2184879D01*
G01*
X181524873Y-97919879D02*
G75*
G02X180118000Y-95735000I993127J2184879D01*
G01*
X184218000Y-97435000D02*
X184218000Y-94035000D01*
X183514990Y-93547305D02*
G75*
G02X184218000Y-94035000I-996990J-2187695D01*
G01*
X183514990Y-97922695D02*
G75*
G03X184218000Y-97435000I-996990J2187695D01*
G01*
D13*
G04 #@! TO.C,Q6*
X176860000Y-85951000D02*
X177960000Y-85951000D01*
X176860000Y-85681000D02*
X176860000Y-85951000D01*
X175360000Y-85681000D02*
X176860000Y-85681000D01*
X176860000Y-92311000D02*
X179690000Y-92311000D01*
X176860000Y-92581000D02*
X176860000Y-92311000D01*
X175360000Y-92581000D02*
X176860000Y-92581000D01*
G04 #@! TO.C,R1*
X164820000Y-70284000D02*
X164820000Y-69284000D01*
X166180000Y-69284000D02*
X166180000Y-70284000D01*
G04 #@! TO.C,R3*
X136880000Y-58813000D02*
X136880000Y-57813000D01*
X138240000Y-57813000D02*
X138240000Y-58813000D01*
G04 #@! TO.C,R4*
X140145000Y-57813000D02*
X140145000Y-58813000D01*
X138785000Y-58813000D02*
X138785000Y-57813000D01*
G04 #@! TO.C,R5*
X145225000Y-40033000D02*
X145225000Y-41033000D01*
X143865000Y-41033000D02*
X143865000Y-40033000D01*
G04 #@! TO.C,R8*
X136880000Y-44503000D02*
X136880000Y-43503000D01*
X138240000Y-43503000D02*
X138240000Y-44503000D01*
G04 #@! TO.C,R11*
X181330000Y-44800000D02*
X181330000Y-43800000D01*
X182690000Y-43800000D02*
X182690000Y-44800000D01*
G04 #@! TO.C,R25*
X133114049Y-96960653D02*
X133114049Y-95960653D01*
X134474049Y-95960653D02*
X134474049Y-96960653D01*
G04 #@! TO.C,R28*
X132278049Y-114152653D02*
X133278049Y-114152653D01*
X133278049Y-115512653D02*
X132278049Y-115512653D01*
G04 #@! TO.C,R29*
X136850049Y-117454653D02*
X137850049Y-117454653D01*
X137850049Y-118814653D02*
X136850049Y-118814653D01*
G04 #@! TO.C,R33*
X143364049Y-113232653D02*
X143364049Y-114232653D01*
X142004049Y-114232653D02*
X142004049Y-113232653D01*
G04 #@! TO.C,R39*
X114550000Y-79533000D02*
X113550000Y-79533000D01*
X113550000Y-78173000D02*
X114550000Y-78173000D01*
G04 #@! TO.C,R58*
X181674000Y-89647000D02*
X181674000Y-90647000D01*
X180314000Y-90647000D02*
X180314000Y-89647000D01*
G04 #@! TO.C,R59*
X195935000Y-100045000D02*
X195935000Y-99045000D01*
X197295000Y-99045000D02*
X197295000Y-100045000D01*
G04 #@! TO.C,R60*
X194030000Y-100045000D02*
X194030000Y-99045000D01*
X195390000Y-99045000D02*
X195390000Y-100045000D01*
D11*
G04 #@! TO.C,RLY1*
X166770000Y-62969000D02*
X166770000Y-75669000D01*
X166770000Y-75669000D02*
X197250000Y-75669000D01*
X197250000Y-75669000D02*
X197250000Y-62969000D01*
X197250000Y-62969000D02*
X166770000Y-62969000D01*
X169310000Y-66779000D02*
X169310000Y-68049000D01*
X169310000Y-71859000D02*
X169310000Y-70589000D01*
X169310000Y-68049000D02*
G75*
G02X169310000Y-68557000I0J-254000D01*
G01*
X169310000Y-68557000D02*
G75*
G02X169310000Y-69065000I0J-254000D01*
G01*
X169310000Y-69065000D02*
G75*
G02X169310000Y-69573000I0J-254000D01*
G01*
X169310000Y-69573000D02*
G75*
G02X169310000Y-70081000I0J-254000D01*
G01*
X169310000Y-70081000D02*
G75*
G02X169310000Y-70589000I0J-254000D01*
G01*
X184550000Y-66779000D02*
X184550000Y-68049000D01*
X184550000Y-68049000D02*
X187090000Y-68049000D01*
X184550000Y-71859000D02*
X184550000Y-70589000D01*
X184550000Y-70589000D02*
X187090000Y-70589000D01*
X194710000Y-71859000D02*
X194710000Y-70589000D01*
X194710000Y-70589000D02*
X192170000Y-70589000D01*
X192170000Y-68049000D02*
X194710000Y-68049000D01*
X194710000Y-68049000D02*
X194710000Y-66779000D01*
X187598000Y-70589000D02*
G75*
G03X187598000Y-70589000I-254000J0D01*
G01*
X187598000Y-68049000D02*
G75*
G03X187598000Y-68049000I-254000J0D01*
G01*
X192170000Y-68049000D02*
G75*
G03X192170000Y-68049000I-254000J0D01*
G01*
X192170000Y-70589000D02*
G75*
G03X192170000Y-70589000I-254000J0D01*
G01*
X189884000Y-67033000D02*
G75*
G03X189884000Y-67033000I-254000J0D01*
G01*
X189884000Y-71605000D02*
G75*
G03X189884000Y-71605000I-254000J0D01*
G01*
X189630000Y-71351000D02*
X187598000Y-70589000D01*
X189630000Y-67287000D02*
X187598000Y-68049000D01*
G04 #@! TO.C,RLY2*
X121162000Y-66407000D02*
X108462000Y-66407000D01*
X108462000Y-66407000D02*
X108462000Y-74027000D01*
X108462000Y-74027000D02*
X121162000Y-74027000D01*
X121162000Y-74027000D02*
X121162000Y-66407000D01*
G04 #@! TO.C,U1*
X102934798Y-59805528D02*
X109538798Y-59805528D01*
X109538798Y-52058528D02*
X109538798Y-52312528D01*
X109538798Y-54598528D02*
X109538798Y-54852528D01*
X109538798Y-57138528D02*
X109538798Y-57392528D01*
X109538798Y-59805528D02*
X109538798Y-59678528D01*
X109538798Y-49645528D02*
X109538798Y-49772528D01*
X102934798Y-49645528D02*
X102934798Y-49772528D01*
X102934798Y-52058528D02*
X102934798Y-52312528D01*
X102934798Y-54598528D02*
X102934798Y-54852528D01*
X102934798Y-57138528D02*
X102934798Y-57392528D01*
X102934798Y-59805528D02*
X102934798Y-59678528D01*
X106236798Y-50534528D02*
G75*
G03X107125798Y-49645528I0J889000D01*
G01*
X105347798Y-49645528D02*
G75*
G03X106236798Y-50534528I889000J0D01*
G01*
X107125798Y-49645528D02*
X109538798Y-49645528D01*
X105347798Y-49645528D02*
X102934798Y-49645528D01*
G04 #@! TO.C,U2*
X117094000Y-33655000D02*
X122428000Y-33655000D01*
X117094000Y-33655000D02*
X111760000Y-33655000D01*
X111760000Y-34798000D02*
X111760000Y-33655000D01*
X122428000Y-34798000D02*
X111760000Y-34798000D01*
X122428000Y-33655000D02*
X122428000Y-34798000D01*
X111760000Y-38481000D02*
X111760000Y-34798000D01*
X122428000Y-38481000D02*
X111760000Y-38481000D01*
X122428000Y-34798000D02*
X122428000Y-38481000D01*
X118618000Y-33655000D02*
X118618000Y-34798000D01*
X115570000Y-33655000D02*
X115570000Y-34798000D01*
G04 #@! TO.C,U3*
X115570000Y-50165000D02*
X115570000Y-51308000D01*
X118618000Y-50165000D02*
X118618000Y-51308000D01*
X122428000Y-51308000D02*
X122428000Y-54991000D01*
X122428000Y-54991000D02*
X111760000Y-54991000D01*
X111760000Y-54991000D02*
X111760000Y-51308000D01*
X122428000Y-50165000D02*
X122428000Y-51308000D01*
X122428000Y-51308000D02*
X111760000Y-51308000D01*
X111760000Y-51308000D02*
X111760000Y-50165000D01*
X117094000Y-50165000D02*
X111760000Y-50165000D01*
X117094000Y-50165000D02*
X122428000Y-50165000D01*
D13*
G04 #@! TO.C,U4*
X115064000Y-46233000D02*
X113964000Y-46233000D01*
X115064000Y-46503000D02*
X115064000Y-46233000D01*
X116564000Y-46503000D02*
X115064000Y-46503000D01*
X115064000Y-39873000D02*
X112234000Y-39873000D01*
X115064000Y-39603000D02*
X115064000Y-39873000D01*
X116564000Y-39603000D02*
X115064000Y-39603000D01*
D11*
G04 #@! TO.C,U5*
X142200001Y-56068001D02*
X142200001Y-56093001D01*
X146350001Y-56068001D02*
X146350001Y-56183001D01*
X146350001Y-64968001D02*
X146350001Y-64853001D01*
X142200001Y-64968001D02*
X142200001Y-64853001D01*
X142200001Y-56068001D02*
X146350001Y-56068001D01*
X142200001Y-64968001D02*
X146350001Y-64968001D01*
X142200001Y-56093001D02*
X140825001Y-56093001D01*
G04 #@! TO.C,U6*
X117094000Y-27305000D02*
X122428000Y-27305000D01*
X117094000Y-27305000D02*
X111760000Y-27305000D01*
X111760000Y-28448000D02*
X111760000Y-27305000D01*
X122428000Y-28448000D02*
X111760000Y-28448000D01*
X122428000Y-27305000D02*
X122428000Y-28448000D01*
X111760000Y-32131000D02*
X111760000Y-28448000D01*
X122428000Y-32131000D02*
X111760000Y-32131000D01*
X122428000Y-28448000D02*
X122428000Y-32131000D01*
X118618000Y-27305000D02*
X118618000Y-28448000D01*
X115570000Y-27305000D02*
X115570000Y-28448000D01*
G04 #@! TO.C,U7*
X115570000Y-55245000D02*
X115570000Y-56388000D01*
X118618000Y-55245000D02*
X118618000Y-56388000D01*
X122428000Y-56388000D02*
X122428000Y-60071000D01*
X122428000Y-60071000D02*
X111760000Y-60071000D01*
X111760000Y-60071000D02*
X111760000Y-56388000D01*
X122428000Y-55245000D02*
X122428000Y-56388000D01*
X122428000Y-56388000D02*
X111760000Y-56388000D01*
X111760000Y-56388000D02*
X111760000Y-55245000D01*
X117094000Y-55245000D02*
X111760000Y-55245000D01*
X117094000Y-55245000D02*
X122428000Y-55245000D01*
D13*
G04 #@! TO.C,U8*
X163530000Y-41350000D02*
X163530000Y-40250000D01*
X162840000Y-41350000D02*
X163530000Y-41350000D01*
X162840000Y-42850000D02*
X162840000Y-41350000D01*
X172550000Y-41350000D02*
X172550000Y-36225000D01*
X173240000Y-41350000D02*
X172550000Y-41350000D01*
X173240000Y-42850000D02*
X173240000Y-41350000D01*
D11*
G04 #@! TO.C,U10*
X125772049Y-106644653D02*
X125772049Y-100669653D01*
X132672049Y-105119653D02*
X132672049Y-100669653D01*
G04 #@! TO.C,U11*
X127001049Y-109522653D02*
X127001049Y-112522653D01*
X130001049Y-112522653D02*
X130001049Y-109522653D01*
G04 #@! TO.C,U12*
X134573049Y-112522653D02*
X134573049Y-109522653D01*
X131573049Y-109522653D02*
X131573049Y-112522653D01*
G04 #@! TO.C,U13*
X128951049Y-93520653D02*
X128951049Y-96520653D01*
X131951049Y-96520653D02*
X131951049Y-93520653D01*
G04 #@! TO.C,U14*
X133179049Y-104461653D02*
X133179049Y-105836653D01*
X142054049Y-104461653D02*
X142054049Y-100311653D01*
X133154049Y-104461653D02*
X133154049Y-100311653D01*
X142054049Y-104461653D02*
X141939049Y-104461653D01*
X142054049Y-100311653D02*
X141939049Y-100311653D01*
X133154049Y-100311653D02*
X133269049Y-100311653D01*
X133154049Y-104461653D02*
X133179049Y-104461653D01*
G04 #@! TO.C,U16*
X123951000Y-81722000D02*
X123951000Y-80347000D01*
X115076000Y-81722000D02*
X115076000Y-85872000D01*
X123976000Y-81722000D02*
X123976000Y-85872000D01*
X115076000Y-81722000D02*
X115191000Y-81722000D01*
X115076000Y-85872000D02*
X115191000Y-85872000D01*
X123976000Y-85872000D02*
X123861000Y-85872000D01*
X123976000Y-81722000D02*
X123951000Y-81722000D01*
D13*
G04 #@! TO.C,Vref1*
X149496000Y-42324000D02*
X148036000Y-42324000D01*
X149496000Y-39164000D02*
X147336000Y-39164000D01*
X149496000Y-39164000D02*
X149496000Y-40094000D01*
X149496000Y-42324000D02*
X149496000Y-41394000D01*
D11*
G04 #@! TO.C,Vref2*
X142287695Y-39366010D02*
G75*
G03X141800000Y-38663000I-2187695J-996990D01*
G01*
X137912305Y-39366010D02*
G75*
G02X138400000Y-38663000I2187695J-996990D01*
G01*
X141800000Y-38663000D02*
X138400000Y-38663000D01*
X142284879Y-41356127D02*
G75*
G02X140100000Y-42763000I-2184879J993127D01*
G01*
X137915121Y-41356127D02*
G75*
G03X140100000Y-42763000I2184879J993127D01*
G01*
G04 #@! TO.C,Vref3*
X140452305Y-45804990D02*
G75*
G03X140940000Y-46508000I2187695J996990D01*
G01*
X144827695Y-45804990D02*
G75*
G02X144340000Y-46508000I-2187695J996990D01*
G01*
X140940000Y-46508000D02*
X144340000Y-46508000D01*
X140455121Y-43814873D02*
G75*
G02X142640000Y-42408000I2184879J-993127D01*
G01*
X144824879Y-43814873D02*
G75*
G03X142640000Y-42408000I-2184879J-993127D01*
G01*
G04 #@! TO.C,HS1*
X180740000Y-60810000D02*
X176930000Y-60810000D01*
X180740000Y-40490000D02*
X180740000Y-60810000D01*
X176930000Y-40490000D02*
X180740000Y-40490000D01*
X155340000Y-40490000D02*
X159150000Y-40490000D01*
X155340000Y-60810000D02*
X155340000Y-40490000D01*
X159150000Y-60810000D02*
X155340000Y-60810000D01*
G04 #@! TO.C,HS2*
X157880000Y-80241000D02*
X157880000Y-76431000D01*
X157880000Y-76431000D02*
X178200000Y-76431000D01*
X178200000Y-76431000D02*
X178200000Y-80241000D01*
X178200000Y-98021000D02*
X178200000Y-101831000D01*
X178200000Y-101831000D02*
X157880000Y-101831000D01*
X157880000Y-101831000D02*
X157880000Y-98021000D01*
G04 #@! TO.C,R32*
X134489142Y-107372380D02*
X134155809Y-106896190D01*
X133917714Y-107372380D02*
X133917714Y-106372380D01*
X134298666Y-106372380D01*
X134393904Y-106420000D01*
X134441523Y-106467619D01*
X134489142Y-106562857D01*
X134489142Y-106705714D01*
X134441523Y-106800952D01*
X134393904Y-106848571D01*
X134298666Y-106896190D01*
X133917714Y-106896190D01*
X134822476Y-106372380D02*
X135441523Y-106372380D01*
X135108190Y-106753333D01*
X135251047Y-106753333D01*
X135346285Y-106800952D01*
X135393904Y-106848571D01*
X135441523Y-106943809D01*
X135441523Y-107181904D01*
X135393904Y-107277142D01*
X135346285Y-107324761D01*
X135251047Y-107372380D01*
X134965333Y-107372380D01*
X134870095Y-107324761D01*
X134822476Y-107277142D01*
X135822476Y-106467619D02*
X135870095Y-106420000D01*
X135965333Y-106372380D01*
X136203428Y-106372380D01*
X136298666Y-106420000D01*
X136346285Y-106467619D01*
X136393904Y-106562857D01*
X136393904Y-106658095D01*
X136346285Y-106800952D01*
X135774857Y-107372380D01*
X136393904Y-107372380D01*
G04 #@! TO.C,U15*
X111414904Y-87576380D02*
X111414904Y-88385904D01*
X111462523Y-88481142D01*
X111510142Y-88528761D01*
X111605380Y-88576380D01*
X111795857Y-88576380D01*
X111891095Y-88528761D01*
X111938714Y-88481142D01*
X111986333Y-88385904D01*
X111986333Y-87576380D01*
X112986333Y-88576380D02*
X112414904Y-88576380D01*
X112700619Y-88576380D02*
X112700619Y-87576380D01*
X112605380Y-87719238D01*
X112510142Y-87814476D01*
X112414904Y-87862095D01*
X113891095Y-87576380D02*
X113414904Y-87576380D01*
X113367285Y-88052571D01*
X113414904Y-88004952D01*
X113510142Y-87957333D01*
X113748238Y-87957333D01*
X113843476Y-88004952D01*
X113891095Y-88052571D01*
X113938714Y-88147809D01*
X113938714Y-88385904D01*
X113891095Y-88481142D01*
X113843476Y-88528761D01*
X113748238Y-88576380D01*
X113510142Y-88576380D01*
X113414904Y-88528761D01*
X113367285Y-88481142D01*
G04 #@! TO.C,C14*
X108850142Y-40593142D02*
X108802523Y-40640761D01*
X108659666Y-40688380D01*
X108564428Y-40688380D01*
X108421571Y-40640761D01*
X108326333Y-40545523D01*
X108278714Y-40450285D01*
X108231095Y-40259809D01*
X108231095Y-40116952D01*
X108278714Y-39926476D01*
X108326333Y-39831238D01*
X108421571Y-39736000D01*
X108564428Y-39688380D01*
X108659666Y-39688380D01*
X108802523Y-39736000D01*
X108850142Y-39783619D01*
X109802523Y-40688380D02*
X109231095Y-40688380D01*
X109516809Y-40688380D02*
X109516809Y-39688380D01*
X109421571Y-39831238D01*
X109326333Y-39926476D01*
X109231095Y-39974095D01*
X110659666Y-40021714D02*
X110659666Y-40688380D01*
X110421571Y-39640761D02*
X110183476Y-40355047D01*
X110802523Y-40355047D01*
G04 #@! TO.C,C15*
X110120142Y-45673142D02*
X110072523Y-45720761D01*
X109929666Y-45768380D01*
X109834428Y-45768380D01*
X109691571Y-45720761D01*
X109596333Y-45625523D01*
X109548714Y-45530285D01*
X109501095Y-45339809D01*
X109501095Y-45196952D01*
X109548714Y-45006476D01*
X109596333Y-44911238D01*
X109691571Y-44816000D01*
X109834428Y-44768380D01*
X109929666Y-44768380D01*
X110072523Y-44816000D01*
X110120142Y-44863619D01*
X111072523Y-45768380D02*
X110501095Y-45768380D01*
X110786809Y-45768380D02*
X110786809Y-44768380D01*
X110691571Y-44911238D01*
X110596333Y-45006476D01*
X110501095Y-45054095D01*
X111977285Y-44768380D02*
X111501095Y-44768380D01*
X111453476Y-45244571D01*
X111501095Y-45196952D01*
X111596333Y-45149333D01*
X111834428Y-45149333D01*
X111929666Y-45196952D01*
X111977285Y-45244571D01*
X112024904Y-45339809D01*
X112024904Y-45577904D01*
X111977285Y-45673142D01*
X111929666Y-45720761D01*
X111834428Y-45768380D01*
X111596333Y-45768380D01*
X111501095Y-45720761D01*
X111453476Y-45673142D01*
G04 #@! TO.C,C28*
X146569142Y-38561142D02*
X146521523Y-38608761D01*
X146378666Y-38656380D01*
X146283428Y-38656380D01*
X146140571Y-38608761D01*
X146045333Y-38513523D01*
X145997714Y-38418285D01*
X145950095Y-38227809D01*
X145950095Y-38084952D01*
X145997714Y-37894476D01*
X146045333Y-37799238D01*
X146140571Y-37704000D01*
X146283428Y-37656380D01*
X146378666Y-37656380D01*
X146521523Y-37704000D01*
X146569142Y-37751619D01*
X146950095Y-37751619D02*
X146997714Y-37704000D01*
X147092952Y-37656380D01*
X147331047Y-37656380D01*
X147426285Y-37704000D01*
X147473904Y-37751619D01*
X147521523Y-37846857D01*
X147521523Y-37942095D01*
X147473904Y-38084952D01*
X146902476Y-38656380D01*
X147521523Y-38656380D01*
X148092952Y-38084952D02*
X147997714Y-38037333D01*
X147950095Y-37989714D01*
X147902476Y-37894476D01*
X147902476Y-37846857D01*
X147950095Y-37751619D01*
X147997714Y-37704000D01*
X148092952Y-37656380D01*
X148283428Y-37656380D01*
X148378666Y-37704000D01*
X148426285Y-37751619D01*
X148473904Y-37846857D01*
X148473904Y-37894476D01*
X148426285Y-37989714D01*
X148378666Y-38037333D01*
X148283428Y-38084952D01*
X148092952Y-38084952D01*
X147997714Y-38132571D01*
X147950095Y-38180190D01*
X147902476Y-38275428D01*
X147902476Y-38465904D01*
X147950095Y-38561142D01*
X147997714Y-38608761D01*
X148092952Y-38656380D01*
X148283428Y-38656380D01*
X148378666Y-38608761D01*
X148426285Y-38561142D01*
X148473904Y-38465904D01*
X148473904Y-38275428D01*
X148426285Y-38180190D01*
X148378666Y-38132571D01*
X148283428Y-38084952D01*
G04 #@! TO.C,C31*
X182891142Y-28147142D02*
X182843523Y-28194761D01*
X182700666Y-28242380D01*
X182605428Y-28242380D01*
X182462571Y-28194761D01*
X182367333Y-28099523D01*
X182319714Y-28004285D01*
X182272095Y-27813809D01*
X182272095Y-27670952D01*
X182319714Y-27480476D01*
X182367333Y-27385238D01*
X182462571Y-27290000D01*
X182605428Y-27242380D01*
X182700666Y-27242380D01*
X182843523Y-27290000D01*
X182891142Y-27337619D01*
X183224476Y-27242380D02*
X183843523Y-27242380D01*
X183510190Y-27623333D01*
X183653047Y-27623333D01*
X183748285Y-27670952D01*
X183795904Y-27718571D01*
X183843523Y-27813809D01*
X183843523Y-28051904D01*
X183795904Y-28147142D01*
X183748285Y-28194761D01*
X183653047Y-28242380D01*
X183367333Y-28242380D01*
X183272095Y-28194761D01*
X183224476Y-28147142D01*
X184795904Y-28242380D02*
X184224476Y-28242380D01*
X184510190Y-28242380D02*
X184510190Y-27242380D01*
X184414952Y-27385238D01*
X184319714Y-27480476D01*
X184224476Y-27528095D01*
G04 #@! TO.C,C34*
X189734142Y-55969142D02*
X189686523Y-56016761D01*
X189543666Y-56064380D01*
X189448428Y-56064380D01*
X189305571Y-56016761D01*
X189210333Y-55921523D01*
X189162714Y-55826285D01*
X189115095Y-55635809D01*
X189115095Y-55492952D01*
X189162714Y-55302476D01*
X189210333Y-55207238D01*
X189305571Y-55112000D01*
X189448428Y-55064380D01*
X189543666Y-55064380D01*
X189686523Y-55112000D01*
X189734142Y-55159619D01*
X190067476Y-55064380D02*
X190686523Y-55064380D01*
X190353190Y-55445333D01*
X190496047Y-55445333D01*
X190591285Y-55492952D01*
X190638904Y-55540571D01*
X190686523Y-55635809D01*
X190686523Y-55873904D01*
X190638904Y-55969142D01*
X190591285Y-56016761D01*
X190496047Y-56064380D01*
X190210333Y-56064380D01*
X190115095Y-56016761D01*
X190067476Y-55969142D01*
X191543666Y-55397714D02*
X191543666Y-56064380D01*
X191305571Y-55016761D02*
X191067476Y-55731047D01*
X191686523Y-55731047D01*
G04 #@! TO.C,C50*
X186447142Y-96092142D02*
X186399523Y-96139761D01*
X186256666Y-96187380D01*
X186161428Y-96187380D01*
X186018571Y-96139761D01*
X185923333Y-96044523D01*
X185875714Y-95949285D01*
X185828095Y-95758809D01*
X185828095Y-95615952D01*
X185875714Y-95425476D01*
X185923333Y-95330238D01*
X186018571Y-95235000D01*
X186161428Y-95187380D01*
X186256666Y-95187380D01*
X186399523Y-95235000D01*
X186447142Y-95282619D01*
X187351904Y-95187380D02*
X186875714Y-95187380D01*
X186828095Y-95663571D01*
X186875714Y-95615952D01*
X186970952Y-95568333D01*
X187209047Y-95568333D01*
X187304285Y-95615952D01*
X187351904Y-95663571D01*
X187399523Y-95758809D01*
X187399523Y-95996904D01*
X187351904Y-96092142D01*
X187304285Y-96139761D01*
X187209047Y-96187380D01*
X186970952Y-96187380D01*
X186875714Y-96139761D01*
X186828095Y-96092142D01*
X188018571Y-95187380D02*
X188113809Y-95187380D01*
X188209047Y-95235000D01*
X188256666Y-95282619D01*
X188304285Y-95377857D01*
X188351904Y-95568333D01*
X188351904Y-95806428D01*
X188304285Y-95996904D01*
X188256666Y-96092142D01*
X188209047Y-96139761D01*
X188113809Y-96187380D01*
X188018571Y-96187380D01*
X187923333Y-96139761D01*
X187875714Y-96092142D01*
X187828095Y-95996904D01*
X187780476Y-95806428D01*
X187780476Y-95568333D01*
X187828095Y-95377857D01*
X187875714Y-95282619D01*
X187923333Y-95235000D01*
X188018571Y-95187380D01*
G04 #@! TO.C,C53*
X186447142Y-79328142D02*
X186399523Y-79375761D01*
X186256666Y-79423380D01*
X186161428Y-79423380D01*
X186018571Y-79375761D01*
X185923333Y-79280523D01*
X185875714Y-79185285D01*
X185828095Y-78994809D01*
X185828095Y-78851952D01*
X185875714Y-78661476D01*
X185923333Y-78566238D01*
X186018571Y-78471000D01*
X186161428Y-78423380D01*
X186256666Y-78423380D01*
X186399523Y-78471000D01*
X186447142Y-78518619D01*
X187351904Y-78423380D02*
X186875714Y-78423380D01*
X186828095Y-78899571D01*
X186875714Y-78851952D01*
X186970952Y-78804333D01*
X187209047Y-78804333D01*
X187304285Y-78851952D01*
X187351904Y-78899571D01*
X187399523Y-78994809D01*
X187399523Y-79232904D01*
X187351904Y-79328142D01*
X187304285Y-79375761D01*
X187209047Y-79423380D01*
X186970952Y-79423380D01*
X186875714Y-79375761D01*
X186828095Y-79328142D01*
X187732857Y-78423380D02*
X188351904Y-78423380D01*
X188018571Y-78804333D01*
X188161428Y-78804333D01*
X188256666Y-78851952D01*
X188304285Y-78899571D01*
X188351904Y-78994809D01*
X188351904Y-79232904D01*
X188304285Y-79328142D01*
X188256666Y-79375761D01*
X188161428Y-79423380D01*
X187875714Y-79423380D01*
X187780476Y-79375761D01*
X187732857Y-79328142D01*
G04 #@! TO.C,D4*
X141505904Y-96704380D02*
X141505904Y-95704380D01*
X141744000Y-95704380D01*
X141886857Y-95752000D01*
X141982095Y-95847238D01*
X142029714Y-95942476D01*
X142077333Y-96132952D01*
X142077333Y-96275809D01*
X142029714Y-96466285D01*
X141982095Y-96561523D01*
X141886857Y-96656761D01*
X141744000Y-96704380D01*
X141505904Y-96704380D01*
X142934476Y-96037714D02*
X142934476Y-96704380D01*
X142696380Y-95656761D02*
X142458285Y-96371047D01*
X143077333Y-96371047D01*
G04 #@! TO.C,J1*
X107112666Y-29791380D02*
X107112666Y-30505666D01*
X107065047Y-30648523D01*
X106969809Y-30743761D01*
X106826952Y-30791380D01*
X106731714Y-30791380D01*
X108112666Y-30791380D02*
X107541238Y-30791380D01*
X107826952Y-30791380D02*
X107826952Y-29791380D01*
X107731714Y-29934238D01*
X107636476Y-30029476D01*
X107541238Y-30077095D01*
G04 #@! TO.C,J2*
X107000666Y-36640380D02*
X107000666Y-37354666D01*
X106953047Y-37497523D01*
X106857809Y-37592761D01*
X106714952Y-37640380D01*
X106619714Y-37640380D01*
X107429238Y-36735619D02*
X107476857Y-36688000D01*
X107572095Y-36640380D01*
X107810190Y-36640380D01*
X107905428Y-36688000D01*
X107953047Y-36735619D01*
X108000666Y-36830857D01*
X108000666Y-36926095D01*
X107953047Y-37068952D01*
X107381619Y-37640380D01*
X108000666Y-37640380D01*
G04 #@! TO.C,J3*
X124380666Y-27900380D02*
X124380666Y-28614666D01*
X124333047Y-28757523D01*
X124237809Y-28852761D01*
X124094952Y-28900380D01*
X123999714Y-28900380D01*
X124761619Y-27900380D02*
X125380666Y-27900380D01*
X125047333Y-28281333D01*
X125190190Y-28281333D01*
X125285428Y-28328952D01*
X125333047Y-28376571D01*
X125380666Y-28471809D01*
X125380666Y-28709904D01*
X125333047Y-28805142D01*
X125285428Y-28852761D01*
X125190190Y-28900380D01*
X124904476Y-28900380D01*
X124809238Y-28852761D01*
X124761619Y-28805142D01*
G04 #@! TO.C,J4*
X124380666Y-32980380D02*
X124380666Y-33694666D01*
X124333047Y-33837523D01*
X124237809Y-33932761D01*
X124094952Y-33980380D01*
X123999714Y-33980380D01*
X125285428Y-33313714D02*
X125285428Y-33980380D01*
X125047333Y-32932761D02*
X124809238Y-33647047D01*
X125428285Y-33647047D01*
G04 #@! TO.C,J5*
X124380666Y-40600380D02*
X124380666Y-41314666D01*
X124333047Y-41457523D01*
X124237809Y-41552761D01*
X124094952Y-41600380D01*
X123999714Y-41600380D01*
X125333047Y-40600380D02*
X124856857Y-40600380D01*
X124809238Y-41076571D01*
X124856857Y-41028952D01*
X124952095Y-40981333D01*
X125190190Y-40981333D01*
X125285428Y-41028952D01*
X125333047Y-41076571D01*
X125380666Y-41171809D01*
X125380666Y-41409904D01*
X125333047Y-41505142D01*
X125285428Y-41552761D01*
X125190190Y-41600380D01*
X124952095Y-41600380D01*
X124856857Y-41552761D01*
X124809238Y-41505142D01*
G04 #@! TO.C,J6*
X124380666Y-55840380D02*
X124380666Y-56554666D01*
X124333047Y-56697523D01*
X124237809Y-56792761D01*
X124094952Y-56840380D01*
X123999714Y-56840380D01*
X125285428Y-55840380D02*
X125094952Y-55840380D01*
X124999714Y-55888000D01*
X124952095Y-55935619D01*
X124856857Y-56078476D01*
X124809238Y-56268952D01*
X124809238Y-56649904D01*
X124856857Y-56745142D01*
X124904476Y-56792761D01*
X124999714Y-56840380D01*
X125190190Y-56840380D01*
X125285428Y-56792761D01*
X125333047Y-56745142D01*
X125380666Y-56649904D01*
X125380666Y-56411809D01*
X125333047Y-56316571D01*
X125285428Y-56268952D01*
X125190190Y-56221333D01*
X124999714Y-56221333D01*
X124904476Y-56268952D01*
X124856857Y-56316571D01*
X124809238Y-56411809D01*
G04 #@! TO.C,J7*
X124380666Y-50760380D02*
X124380666Y-51474666D01*
X124333047Y-51617523D01*
X124237809Y-51712761D01*
X124094952Y-51760380D01*
X123999714Y-51760380D01*
X124761619Y-50760380D02*
X125428285Y-50760380D01*
X124999714Y-51760380D01*
G04 #@! TO.C,J8*
X124380666Y-45680380D02*
X124380666Y-46394666D01*
X124333047Y-46537523D01*
X124237809Y-46632761D01*
X124094952Y-46680380D01*
X123999714Y-46680380D01*
X124999714Y-46108952D02*
X124904476Y-46061333D01*
X124856857Y-46013714D01*
X124809238Y-45918476D01*
X124809238Y-45870857D01*
X124856857Y-45775619D01*
X124904476Y-45728000D01*
X124999714Y-45680380D01*
X125190190Y-45680380D01*
X125285428Y-45728000D01*
X125333047Y-45775619D01*
X125380666Y-45870857D01*
X125380666Y-45918476D01*
X125333047Y-46013714D01*
X125285428Y-46061333D01*
X125190190Y-46108952D01*
X124999714Y-46108952D01*
X124904476Y-46156571D01*
X124856857Y-46204190D01*
X124809238Y-46299428D01*
X124809238Y-46489904D01*
X124856857Y-46585142D01*
X124904476Y-46632761D01*
X124999714Y-46680380D01*
X125190190Y-46680380D01*
X125285428Y-46632761D01*
X125333047Y-46585142D01*
X125380666Y-46489904D01*
X125380666Y-46299428D01*
X125333047Y-46204190D01*
X125285428Y-46156571D01*
X125190190Y-46108952D01*
G04 #@! TO.C,J9*
X154625666Y-27623380D02*
X154625666Y-28337666D01*
X154578047Y-28480523D01*
X154482809Y-28575761D01*
X154339952Y-28623380D01*
X154244714Y-28623380D01*
X155149476Y-28623380D02*
X155339952Y-28623380D01*
X155435190Y-28575761D01*
X155482809Y-28528142D01*
X155578047Y-28385285D01*
X155625666Y-28194809D01*
X155625666Y-27813857D01*
X155578047Y-27718619D01*
X155530428Y-27671000D01*
X155435190Y-27623380D01*
X155244714Y-27623380D01*
X155149476Y-27671000D01*
X155101857Y-27718619D01*
X155054238Y-27813857D01*
X155054238Y-28051952D01*
X155101857Y-28147190D01*
X155149476Y-28194809D01*
X155244714Y-28242428D01*
X155435190Y-28242428D01*
X155530428Y-28194809D01*
X155578047Y-28147190D01*
X155625666Y-28051952D01*
G04 #@! TO.C,J10*
X167230476Y-33719380D02*
X167230476Y-34433666D01*
X167182857Y-34576523D01*
X167087619Y-34671761D01*
X166944761Y-34719380D01*
X166849523Y-34719380D01*
X168230476Y-34719380D02*
X167659047Y-34719380D01*
X167944761Y-34719380D02*
X167944761Y-33719380D01*
X167849523Y-33862238D01*
X167754285Y-33957476D01*
X167659047Y-34005095D01*
X168849523Y-33719380D02*
X168944761Y-33719380D01*
X169040000Y-33767000D01*
X169087619Y-33814619D01*
X169135238Y-33909857D01*
X169182857Y-34100333D01*
X169182857Y-34338428D01*
X169135238Y-34528904D01*
X169087619Y-34624142D01*
X169040000Y-34671761D01*
X168944761Y-34719380D01*
X168849523Y-34719380D01*
X168754285Y-34671761D01*
X168706666Y-34624142D01*
X168659047Y-34528904D01*
X168611428Y-34338428D01*
X168611428Y-34100333D01*
X168659047Y-33909857D01*
X168706666Y-33814619D01*
X168754285Y-33767000D01*
X168849523Y-33719380D01*
G04 #@! TO.C,J11*
X197710476Y-57087380D02*
X197710476Y-57801666D01*
X197662857Y-57944523D01*
X197567619Y-58039761D01*
X197424761Y-58087380D01*
X197329523Y-58087380D01*
X198710476Y-58087380D02*
X198139047Y-58087380D01*
X198424761Y-58087380D02*
X198424761Y-57087380D01*
X198329523Y-57230238D01*
X198234285Y-57325476D01*
X198139047Y-57373095D01*
X199662857Y-58087380D02*
X199091428Y-58087380D01*
X199377142Y-58087380D02*
X199377142Y-57087380D01*
X199281904Y-57230238D01*
X199186666Y-57325476D01*
X199091428Y-57373095D01*
G04 #@! TO.C,J12*
X121876476Y-105102380D02*
X121876476Y-105816666D01*
X121828857Y-105959523D01*
X121733619Y-106054761D01*
X121590761Y-106102380D01*
X121495523Y-106102380D01*
X122876476Y-106102380D02*
X122305047Y-106102380D01*
X122590761Y-106102380D02*
X122590761Y-105102380D01*
X122495523Y-105245238D01*
X122400285Y-105340476D01*
X122305047Y-105388095D01*
X123257428Y-105197619D02*
X123305047Y-105150000D01*
X123400285Y-105102380D01*
X123638380Y-105102380D01*
X123733619Y-105150000D01*
X123781238Y-105197619D01*
X123828857Y-105292857D01*
X123828857Y-105388095D01*
X123781238Y-105530952D01*
X123209809Y-106102380D01*
X123828857Y-106102380D01*
G04 #@! TO.C,J13*
X121876476Y-97355380D02*
X121876476Y-98069666D01*
X121828857Y-98212523D01*
X121733619Y-98307761D01*
X121590761Y-98355380D01*
X121495523Y-98355380D01*
X122876476Y-98355380D02*
X122305047Y-98355380D01*
X122590761Y-98355380D02*
X122590761Y-97355380D01*
X122495523Y-97498238D01*
X122400285Y-97593476D01*
X122305047Y-97641095D01*
X123209809Y-97355380D02*
X123828857Y-97355380D01*
X123495523Y-97736333D01*
X123638380Y-97736333D01*
X123733619Y-97783952D01*
X123781238Y-97831571D01*
X123828857Y-97926809D01*
X123828857Y-98164904D01*
X123781238Y-98260142D01*
X123733619Y-98307761D01*
X123638380Y-98355380D01*
X123352666Y-98355380D01*
X123257428Y-98307761D01*
X123209809Y-98260142D01*
G04 #@! TO.C,J14*
X127718476Y-120381033D02*
X127718476Y-121095319D01*
X127670857Y-121238176D01*
X127575619Y-121333414D01*
X127432761Y-121381033D01*
X127337523Y-121381033D01*
X128718476Y-121381033D02*
X128147047Y-121381033D01*
X128432761Y-121381033D02*
X128432761Y-120381033D01*
X128337523Y-120523891D01*
X128242285Y-120619129D01*
X128147047Y-120666748D01*
X129575619Y-120714367D02*
X129575619Y-121381033D01*
X129337523Y-120333414D02*
X129099428Y-121047700D01*
X129718476Y-121047700D01*
G04 #@! TO.C,J15*
X148419476Y-120381033D02*
X148419476Y-121095319D01*
X148371857Y-121238176D01*
X148276619Y-121333414D01*
X148133761Y-121381033D01*
X148038523Y-121381033D01*
X149419476Y-121381033D02*
X148848047Y-121381033D01*
X149133761Y-121381033D02*
X149133761Y-120381033D01*
X149038523Y-120523891D01*
X148943285Y-120619129D01*
X148848047Y-120666748D01*
X150324238Y-120381033D02*
X149848047Y-120381033D01*
X149800428Y-120857224D01*
X149848047Y-120809605D01*
X149943285Y-120761986D01*
X150181380Y-120761986D01*
X150276619Y-120809605D01*
X150324238Y-120857224D01*
X150371857Y-120952462D01*
X150371857Y-121190557D01*
X150324238Y-121285795D01*
X150276619Y-121333414D01*
X150181380Y-121381033D01*
X149943285Y-121381033D01*
X149848047Y-121333414D01*
X149800428Y-121285795D01*
G04 #@! TO.C,J16*
X108048476Y-80083380D02*
X108048476Y-80797666D01*
X108000857Y-80940523D01*
X107905619Y-81035761D01*
X107762761Y-81083380D01*
X107667523Y-81083380D01*
X109048476Y-81083380D02*
X108477047Y-81083380D01*
X108762761Y-81083380D02*
X108762761Y-80083380D01*
X108667523Y-80226238D01*
X108572285Y-80321476D01*
X108477047Y-80369095D01*
X109905619Y-80083380D02*
X109715142Y-80083380D01*
X109619904Y-80131000D01*
X109572285Y-80178619D01*
X109477047Y-80321476D01*
X109429428Y-80511952D01*
X109429428Y-80892904D01*
X109477047Y-80988142D01*
X109524666Y-81035761D01*
X109619904Y-81083380D01*
X109810380Y-81083380D01*
X109905619Y-81035761D01*
X109953238Y-80988142D01*
X110000857Y-80892904D01*
X110000857Y-80654809D01*
X109953238Y-80559571D01*
X109905619Y-80511952D01*
X109810380Y-80464333D01*
X109619904Y-80464333D01*
X109524666Y-80511952D01*
X109477047Y-80559571D01*
X109429428Y-80654809D01*
G04 #@! TO.C,J17*
X104350476Y-69669380D02*
X104350476Y-70383666D01*
X104302857Y-70526523D01*
X104207619Y-70621761D01*
X104064761Y-70669380D01*
X103969523Y-70669380D01*
X105350476Y-70669380D02*
X104779047Y-70669380D01*
X105064761Y-70669380D02*
X105064761Y-69669380D01*
X104969523Y-69812238D01*
X104874285Y-69907476D01*
X104779047Y-69955095D01*
X105683809Y-69669380D02*
X106350476Y-69669380D01*
X105921904Y-70669380D01*
G04 #@! TO.C,J18*
X104238476Y-87567380D02*
X104238476Y-88281666D01*
X104190857Y-88424523D01*
X104095619Y-88519761D01*
X103952761Y-88567380D01*
X103857523Y-88567380D01*
X105238476Y-88567380D02*
X104667047Y-88567380D01*
X104952761Y-88567380D02*
X104952761Y-87567380D01*
X104857523Y-87710238D01*
X104762285Y-87805476D01*
X104667047Y-87853095D01*
X105809904Y-87995952D02*
X105714666Y-87948333D01*
X105667047Y-87900714D01*
X105619428Y-87805476D01*
X105619428Y-87757857D01*
X105667047Y-87662619D01*
X105714666Y-87615000D01*
X105809904Y-87567380D01*
X106000380Y-87567380D01*
X106095619Y-87615000D01*
X106143238Y-87662619D01*
X106190857Y-87757857D01*
X106190857Y-87805476D01*
X106143238Y-87900714D01*
X106095619Y-87948333D01*
X106000380Y-87995952D01*
X105809904Y-87995952D01*
X105714666Y-88043571D01*
X105667047Y-88091190D01*
X105619428Y-88186428D01*
X105619428Y-88376904D01*
X105667047Y-88472142D01*
X105714666Y-88519761D01*
X105809904Y-88567380D01*
X106000380Y-88567380D01*
X106095619Y-88519761D01*
X106143238Y-88472142D01*
X106190857Y-88376904D01*
X106190857Y-88186428D01*
X106143238Y-88091190D01*
X106095619Y-88043571D01*
X106000380Y-87995952D01*
G04 #@! TO.C,J19*
X104238476Y-79947380D02*
X104238476Y-80661666D01*
X104190857Y-80804523D01*
X104095619Y-80899761D01*
X103952761Y-80947380D01*
X103857523Y-80947380D01*
X105238476Y-80947380D02*
X104667047Y-80947380D01*
X104952761Y-80947380D02*
X104952761Y-79947380D01*
X104857523Y-80090238D01*
X104762285Y-80185476D01*
X104667047Y-80233095D01*
X105714666Y-80947380D02*
X105905142Y-80947380D01*
X106000380Y-80899761D01*
X106048000Y-80852142D01*
X106143238Y-80709285D01*
X106190857Y-80518809D01*
X106190857Y-80137857D01*
X106143238Y-80042619D01*
X106095619Y-79995000D01*
X106000380Y-79947380D01*
X105809904Y-79947380D01*
X105714666Y-79995000D01*
X105667047Y-80042619D01*
X105619428Y-80137857D01*
X105619428Y-80375952D01*
X105667047Y-80471190D01*
X105714666Y-80518809D01*
X105809904Y-80566428D01*
X106000380Y-80566428D01*
X106095619Y-80518809D01*
X106143238Y-80471190D01*
X106190857Y-80375952D01*
G04 #@! TO.C,J20*
X197075476Y-111189380D02*
X197075476Y-111903666D01*
X197027857Y-112046523D01*
X196932619Y-112141761D01*
X196789761Y-112189380D01*
X196694523Y-112189380D01*
X197504047Y-111284619D02*
X197551666Y-111237000D01*
X197646904Y-111189380D01*
X197885000Y-111189380D01*
X197980238Y-111237000D01*
X198027857Y-111284619D01*
X198075476Y-111379857D01*
X198075476Y-111475095D01*
X198027857Y-111617952D01*
X197456428Y-112189380D01*
X198075476Y-112189380D01*
X198694523Y-111189380D02*
X198789761Y-111189380D01*
X198885000Y-111237000D01*
X198932619Y-111284619D01*
X198980238Y-111379857D01*
X199027857Y-111570333D01*
X199027857Y-111808428D01*
X198980238Y-111998904D01*
X198932619Y-112094142D01*
X198885000Y-112141761D01*
X198789761Y-112189380D01*
X198694523Y-112189380D01*
X198599285Y-112141761D01*
X198551666Y-112094142D01*
X198504047Y-111998904D01*
X198456428Y-111808428D01*
X198456428Y-111570333D01*
X198504047Y-111379857D01*
X198551666Y-111284619D01*
X198599285Y-111237000D01*
X198694523Y-111189380D01*
G04 #@! TO.C,J21*
X190217476Y-96203380D02*
X190217476Y-96917666D01*
X190169857Y-97060523D01*
X190074619Y-97155761D01*
X189931761Y-97203380D01*
X189836523Y-97203380D01*
X190646047Y-96298619D02*
X190693666Y-96251000D01*
X190788904Y-96203380D01*
X191027000Y-96203380D01*
X191122238Y-96251000D01*
X191169857Y-96298619D01*
X191217476Y-96393857D01*
X191217476Y-96489095D01*
X191169857Y-96631952D01*
X190598428Y-97203380D01*
X191217476Y-97203380D01*
X192169857Y-97203380D02*
X191598428Y-97203380D01*
X191884142Y-97203380D02*
X191884142Y-96203380D01*
X191788904Y-96346238D01*
X191693666Y-96441476D01*
X191598428Y-96489095D01*
G04 #@! TO.C,J22*
X190217476Y-76899380D02*
X190217476Y-77613666D01*
X190169857Y-77756523D01*
X190074619Y-77851761D01*
X189931761Y-77899380D01*
X189836523Y-77899380D01*
X190646047Y-76994619D02*
X190693666Y-76947000D01*
X190788904Y-76899380D01*
X191027000Y-76899380D01*
X191122238Y-76947000D01*
X191169857Y-76994619D01*
X191217476Y-77089857D01*
X191217476Y-77185095D01*
X191169857Y-77327952D01*
X190598428Y-77899380D01*
X191217476Y-77899380D01*
X191598428Y-76994619D02*
X191646047Y-76947000D01*
X191741285Y-76899380D01*
X191979380Y-76899380D01*
X192074619Y-76947000D01*
X192122238Y-76994619D01*
X192169857Y-77089857D01*
X192169857Y-77185095D01*
X192122238Y-77327952D01*
X191550809Y-77899380D01*
X192169857Y-77899380D01*
G04 #@! TO.C,L1*
X190225333Y-32560380D02*
X189749142Y-32560380D01*
X189749142Y-31560380D01*
X191082476Y-32560380D02*
X190511047Y-32560380D01*
X190796761Y-32560380D02*
X190796761Y-31560380D01*
X190701523Y-31703238D01*
X190606285Y-31798476D01*
X190511047Y-31846095D01*
G04 #@! TO.C,POT1*
X139727142Y-29385380D02*
X139727142Y-28385380D01*
X140108095Y-28385380D01*
X140203333Y-28433000D01*
X140250952Y-28480619D01*
X140298571Y-28575857D01*
X140298571Y-28718714D01*
X140250952Y-28813952D01*
X140203333Y-28861571D01*
X140108095Y-28909190D01*
X139727142Y-28909190D01*
X140917619Y-28385380D02*
X141108095Y-28385380D01*
X141203333Y-28433000D01*
X141298571Y-28528238D01*
X141346190Y-28718714D01*
X141346190Y-29052047D01*
X141298571Y-29242523D01*
X141203333Y-29337761D01*
X141108095Y-29385380D01*
X140917619Y-29385380D01*
X140822380Y-29337761D01*
X140727142Y-29242523D01*
X140679523Y-29052047D01*
X140679523Y-28718714D01*
X140727142Y-28528238D01*
X140822380Y-28433000D01*
X140917619Y-28385380D01*
X141631904Y-28385380D02*
X142203333Y-28385380D01*
X141917619Y-29385380D02*
X141917619Y-28385380D01*
X143060476Y-29385380D02*
X142489047Y-29385380D01*
X142774761Y-29385380D02*
X142774761Y-28385380D01*
X142679523Y-28528238D01*
X142584285Y-28623476D01*
X142489047Y-28671095D01*
G04 #@! TO.C,POT2*
X146077142Y-47800380D02*
X146077142Y-46800380D01*
X146458095Y-46800380D01*
X146553333Y-46848000D01*
X146600952Y-46895619D01*
X146648571Y-46990857D01*
X146648571Y-47133714D01*
X146600952Y-47228952D01*
X146553333Y-47276571D01*
X146458095Y-47324190D01*
X146077142Y-47324190D01*
X147267619Y-46800380D02*
X147458095Y-46800380D01*
X147553333Y-46848000D01*
X147648571Y-46943238D01*
X147696190Y-47133714D01*
X147696190Y-47467047D01*
X147648571Y-47657523D01*
X147553333Y-47752761D01*
X147458095Y-47800380D01*
X147267619Y-47800380D01*
X147172380Y-47752761D01*
X147077142Y-47657523D01*
X147029523Y-47467047D01*
X147029523Y-47133714D01*
X147077142Y-46943238D01*
X147172380Y-46848000D01*
X147267619Y-46800380D01*
X147981904Y-46800380D02*
X148553333Y-46800380D01*
X148267619Y-47800380D02*
X148267619Y-46800380D01*
X148839047Y-46895619D02*
X148886666Y-46848000D01*
X148981904Y-46800380D01*
X149220000Y-46800380D01*
X149315238Y-46848000D01*
X149362857Y-46895619D01*
X149410476Y-46990857D01*
X149410476Y-47086095D01*
X149362857Y-47228952D01*
X148791428Y-47800380D01*
X149410476Y-47800380D01*
G04 #@! TO.C,Q1*
X114208761Y-77368619D02*
X114113523Y-77321000D01*
X114018285Y-77225761D01*
X113875428Y-77082904D01*
X113780190Y-77035285D01*
X113684952Y-77035285D01*
X113732571Y-77273380D02*
X113637333Y-77225761D01*
X113542095Y-77130523D01*
X113494476Y-76940047D01*
X113494476Y-76606714D01*
X113542095Y-76416238D01*
X113637333Y-76321000D01*
X113732571Y-76273380D01*
X113923047Y-76273380D01*
X114018285Y-76321000D01*
X114113523Y-76416238D01*
X114161142Y-76606714D01*
X114161142Y-76940047D01*
X114113523Y-77130523D01*
X114018285Y-77225761D01*
X113923047Y-77273380D01*
X113732571Y-77273380D01*
X115113523Y-77273380D02*
X114542095Y-77273380D01*
X114827809Y-77273380D02*
X114827809Y-76273380D01*
X114732571Y-76416238D01*
X114637333Y-76511476D01*
X114542095Y-76559095D01*
G04 #@! TO.C,Q2*
X164769761Y-73676619D02*
X164674523Y-73629000D01*
X164579285Y-73533761D01*
X164436428Y-73390904D01*
X164341190Y-73343285D01*
X164245952Y-73343285D01*
X164293571Y-73581380D02*
X164198333Y-73533761D01*
X164103095Y-73438523D01*
X164055476Y-73248047D01*
X164055476Y-72914714D01*
X164103095Y-72724238D01*
X164198333Y-72629000D01*
X164293571Y-72581380D01*
X164484047Y-72581380D01*
X164579285Y-72629000D01*
X164674523Y-72724238D01*
X164722142Y-72914714D01*
X164722142Y-73248047D01*
X164674523Y-73438523D01*
X164579285Y-73533761D01*
X164484047Y-73581380D01*
X164293571Y-73581380D01*
X165103095Y-72676619D02*
X165150714Y-72629000D01*
X165245952Y-72581380D01*
X165484047Y-72581380D01*
X165579285Y-72629000D01*
X165626904Y-72676619D01*
X165674523Y-72771857D01*
X165674523Y-72867095D01*
X165626904Y-73009952D01*
X165055476Y-73581380D01*
X165674523Y-73581380D01*
G04 #@! TO.C,Q3*
X141259761Y-117246619D02*
X141164523Y-117199000D01*
X141069285Y-117103761D01*
X140926428Y-116960904D01*
X140831190Y-116913285D01*
X140735952Y-116913285D01*
X140783571Y-117151380D02*
X140688333Y-117103761D01*
X140593095Y-117008523D01*
X140545476Y-116818047D01*
X140545476Y-116484714D01*
X140593095Y-116294238D01*
X140688333Y-116199000D01*
X140783571Y-116151380D01*
X140974047Y-116151380D01*
X141069285Y-116199000D01*
X141164523Y-116294238D01*
X141212142Y-116484714D01*
X141212142Y-116818047D01*
X141164523Y-117008523D01*
X141069285Y-117103761D01*
X140974047Y-117151380D01*
X140783571Y-117151380D01*
X141545476Y-116151380D02*
X142164523Y-116151380D01*
X141831190Y-116532333D01*
X141974047Y-116532333D01*
X142069285Y-116579952D01*
X142116904Y-116627571D01*
X142164523Y-116722809D01*
X142164523Y-116960904D01*
X142116904Y-117056142D01*
X142069285Y-117103761D01*
X141974047Y-117151380D01*
X141688333Y-117151380D01*
X141593095Y-117103761D01*
X141545476Y-117056142D01*
G04 #@! TO.C,Q4*
X143799761Y-110007619D02*
X143704523Y-109960000D01*
X143609285Y-109864761D01*
X143466428Y-109721904D01*
X143371190Y-109674285D01*
X143275952Y-109674285D01*
X143323571Y-109912380D02*
X143228333Y-109864761D01*
X143133095Y-109769523D01*
X143085476Y-109579047D01*
X143085476Y-109245714D01*
X143133095Y-109055238D01*
X143228333Y-108960000D01*
X143323571Y-108912380D01*
X143514047Y-108912380D01*
X143609285Y-108960000D01*
X143704523Y-109055238D01*
X143752142Y-109245714D01*
X143752142Y-109579047D01*
X143704523Y-109769523D01*
X143609285Y-109864761D01*
X143514047Y-109912380D01*
X143323571Y-109912380D01*
X144609285Y-109245714D02*
X144609285Y-109912380D01*
X144371190Y-108864761D02*
X144133095Y-109579047D01*
X144752142Y-109579047D01*
G04 #@! TO.C,Q5*
X180248761Y-99212619D02*
X180153523Y-99165000D01*
X180058285Y-99069761D01*
X179915428Y-98926904D01*
X179820190Y-98879285D01*
X179724952Y-98879285D01*
X179772571Y-99117380D02*
X179677333Y-99069761D01*
X179582095Y-98974523D01*
X179534476Y-98784047D01*
X179534476Y-98450714D01*
X179582095Y-98260238D01*
X179677333Y-98165000D01*
X179772571Y-98117380D01*
X179963047Y-98117380D01*
X180058285Y-98165000D01*
X180153523Y-98260238D01*
X180201142Y-98450714D01*
X180201142Y-98784047D01*
X180153523Y-98974523D01*
X180058285Y-99069761D01*
X179963047Y-99117380D01*
X179772571Y-99117380D01*
X181105904Y-98117380D02*
X180629714Y-98117380D01*
X180582095Y-98593571D01*
X180629714Y-98545952D01*
X180724952Y-98498333D01*
X180963047Y-98498333D01*
X181058285Y-98545952D01*
X181105904Y-98593571D01*
X181153523Y-98688809D01*
X181153523Y-98926904D01*
X181105904Y-99022142D01*
X181058285Y-99069761D01*
X180963047Y-99117380D01*
X180724952Y-99117380D01*
X180629714Y-99069761D01*
X180582095Y-99022142D01*
G04 #@! TO.C,Q6*
X177850761Y-85614619D02*
X177755523Y-85567000D01*
X177660285Y-85471761D01*
X177517428Y-85328904D01*
X177422190Y-85281285D01*
X177326952Y-85281285D01*
X177374571Y-85519380D02*
X177279333Y-85471761D01*
X177184095Y-85376523D01*
X177136476Y-85186047D01*
X177136476Y-84852714D01*
X177184095Y-84662238D01*
X177279333Y-84567000D01*
X177374571Y-84519380D01*
X177565047Y-84519380D01*
X177660285Y-84567000D01*
X177755523Y-84662238D01*
X177803142Y-84852714D01*
X177803142Y-85186047D01*
X177755523Y-85376523D01*
X177660285Y-85471761D01*
X177565047Y-85519380D01*
X177374571Y-85519380D01*
X178660285Y-84519380D02*
X178469809Y-84519380D01*
X178374571Y-84567000D01*
X178326952Y-84614619D01*
X178231714Y-84757476D01*
X178184095Y-84947952D01*
X178184095Y-85328904D01*
X178231714Y-85424142D01*
X178279333Y-85471761D01*
X178374571Y-85519380D01*
X178565047Y-85519380D01*
X178660285Y-85471761D01*
X178707904Y-85424142D01*
X178755523Y-85328904D01*
X178755523Y-85090809D01*
X178707904Y-84995571D01*
X178660285Y-84947952D01*
X178565047Y-84900333D01*
X178374571Y-84900333D01*
X178279333Y-84947952D01*
X178231714Y-84995571D01*
X178184095Y-85090809D01*
G04 #@! TO.C,R1*
X165333333Y-67739380D02*
X165000000Y-67263190D01*
X164761904Y-67739380D02*
X164761904Y-66739380D01*
X165142857Y-66739380D01*
X165238095Y-66787000D01*
X165285714Y-66834619D01*
X165333333Y-66929857D01*
X165333333Y-67072714D01*
X165285714Y-67167952D01*
X165238095Y-67215571D01*
X165142857Y-67263190D01*
X164761904Y-67263190D01*
X166285714Y-67739380D02*
X165714285Y-67739380D01*
X166000000Y-67739380D02*
X166000000Y-66739380D01*
X165904761Y-66882238D01*
X165809523Y-66977476D01*
X165714285Y-67025095D01*
G04 #@! TO.C,R3*
X137393333Y-61389380D02*
X137060000Y-60913190D01*
X136821904Y-61389380D02*
X136821904Y-60389380D01*
X137202857Y-60389380D01*
X137298095Y-60437000D01*
X137345714Y-60484619D01*
X137393333Y-60579857D01*
X137393333Y-60722714D01*
X137345714Y-60817952D01*
X137298095Y-60865571D01*
X137202857Y-60913190D01*
X136821904Y-60913190D01*
X137726666Y-60389380D02*
X138345714Y-60389380D01*
X138012380Y-60770333D01*
X138155238Y-60770333D01*
X138250476Y-60817952D01*
X138298095Y-60865571D01*
X138345714Y-60960809D01*
X138345714Y-61198904D01*
X138298095Y-61294142D01*
X138250476Y-61341761D01*
X138155238Y-61389380D01*
X137869523Y-61389380D01*
X137774285Y-61341761D01*
X137726666Y-61294142D01*
G04 #@! TO.C,R4*
X139298333Y-61389380D02*
X138965000Y-60913190D01*
X138726904Y-61389380D02*
X138726904Y-60389380D01*
X139107857Y-60389380D01*
X139203095Y-60437000D01*
X139250714Y-60484619D01*
X139298333Y-60579857D01*
X139298333Y-60722714D01*
X139250714Y-60817952D01*
X139203095Y-60865571D01*
X139107857Y-60913190D01*
X138726904Y-60913190D01*
X140155476Y-60722714D02*
X140155476Y-61389380D01*
X139917380Y-60341761D02*
X139679285Y-61056047D01*
X140298333Y-61056047D01*
G04 #@! TO.C,R5*
X145521333Y-43482380D02*
X145188000Y-43006190D01*
X144949904Y-43482380D02*
X144949904Y-42482380D01*
X145330857Y-42482380D01*
X145426095Y-42530000D01*
X145473714Y-42577619D01*
X145521333Y-42672857D01*
X145521333Y-42815714D01*
X145473714Y-42910952D01*
X145426095Y-42958571D01*
X145330857Y-43006190D01*
X144949904Y-43006190D01*
X146426095Y-42482380D02*
X145949904Y-42482380D01*
X145902285Y-42958571D01*
X145949904Y-42910952D01*
X146045142Y-42863333D01*
X146283238Y-42863333D01*
X146378476Y-42910952D01*
X146426095Y-42958571D01*
X146473714Y-43053809D01*
X146473714Y-43291904D01*
X146426095Y-43387142D01*
X146378476Y-43434761D01*
X146283238Y-43482380D01*
X146045142Y-43482380D01*
X145949904Y-43434761D01*
X145902285Y-43387142D01*
G04 #@! TO.C,R8*
X135488333Y-45895380D02*
X135155000Y-45419190D01*
X134916904Y-45895380D02*
X134916904Y-44895380D01*
X135297857Y-44895380D01*
X135393095Y-44943000D01*
X135440714Y-44990619D01*
X135488333Y-45085857D01*
X135488333Y-45228714D01*
X135440714Y-45323952D01*
X135393095Y-45371571D01*
X135297857Y-45419190D01*
X134916904Y-45419190D01*
X136059761Y-45323952D02*
X135964523Y-45276333D01*
X135916904Y-45228714D01*
X135869285Y-45133476D01*
X135869285Y-45085857D01*
X135916904Y-44990619D01*
X135964523Y-44943000D01*
X136059761Y-44895380D01*
X136250238Y-44895380D01*
X136345476Y-44943000D01*
X136393095Y-44990619D01*
X136440714Y-45085857D01*
X136440714Y-45133476D01*
X136393095Y-45228714D01*
X136345476Y-45276333D01*
X136250238Y-45323952D01*
X136059761Y-45323952D01*
X135964523Y-45371571D01*
X135916904Y-45419190D01*
X135869285Y-45514428D01*
X135869285Y-45704904D01*
X135916904Y-45800142D01*
X135964523Y-45847761D01*
X136059761Y-45895380D01*
X136250238Y-45895380D01*
X136345476Y-45847761D01*
X136393095Y-45800142D01*
X136440714Y-45704904D01*
X136440714Y-45514428D01*
X136393095Y-45419190D01*
X136345476Y-45371571D01*
X136250238Y-45323952D01*
G04 #@! TO.C,R11*
X181621142Y-47419380D02*
X181287809Y-46943190D01*
X181049714Y-47419380D02*
X181049714Y-46419380D01*
X181430666Y-46419380D01*
X181525904Y-46467000D01*
X181573523Y-46514619D01*
X181621142Y-46609857D01*
X181621142Y-46752714D01*
X181573523Y-46847952D01*
X181525904Y-46895571D01*
X181430666Y-46943190D01*
X181049714Y-46943190D01*
X182573523Y-47419380D02*
X182002095Y-47419380D01*
X182287809Y-47419380D02*
X182287809Y-46419380D01*
X182192571Y-46562238D01*
X182097333Y-46657476D01*
X182002095Y-46705095D01*
X183525904Y-47419380D02*
X182954476Y-47419380D01*
X183240190Y-47419380D02*
X183240190Y-46419380D01*
X183144952Y-46562238D01*
X183049714Y-46657476D01*
X182954476Y-46705095D01*
G04 #@! TO.C,R25*
X133092142Y-94418380D02*
X132758809Y-93942190D01*
X132520714Y-94418380D02*
X132520714Y-93418380D01*
X132901666Y-93418380D01*
X132996904Y-93466000D01*
X133044523Y-93513619D01*
X133092142Y-93608857D01*
X133092142Y-93751714D01*
X133044523Y-93846952D01*
X132996904Y-93894571D01*
X132901666Y-93942190D01*
X132520714Y-93942190D01*
X133473095Y-93513619D02*
X133520714Y-93466000D01*
X133615952Y-93418380D01*
X133854047Y-93418380D01*
X133949285Y-93466000D01*
X133996904Y-93513619D01*
X134044523Y-93608857D01*
X134044523Y-93704095D01*
X133996904Y-93846952D01*
X133425476Y-94418380D01*
X134044523Y-94418380D01*
X134949285Y-93418380D02*
X134473095Y-93418380D01*
X134425476Y-93894571D01*
X134473095Y-93846952D01*
X134568333Y-93799333D01*
X134806428Y-93799333D01*
X134901666Y-93846952D01*
X134949285Y-93894571D01*
X134996904Y-93989809D01*
X134996904Y-94227904D01*
X134949285Y-94323142D01*
X134901666Y-94370761D01*
X134806428Y-94418380D01*
X134568333Y-94418380D01*
X134473095Y-94370761D01*
X134425476Y-94323142D01*
G04 #@! TO.C,R28*
X132135191Y-116735033D02*
X131801858Y-116258843D01*
X131563763Y-116735033D02*
X131563763Y-115735033D01*
X131944715Y-115735033D01*
X132039953Y-115782653D01*
X132087572Y-115830272D01*
X132135191Y-115925510D01*
X132135191Y-116068367D01*
X132087572Y-116163605D01*
X132039953Y-116211224D01*
X131944715Y-116258843D01*
X131563763Y-116258843D01*
X132516144Y-115830272D02*
X132563763Y-115782653D01*
X132659001Y-115735033D01*
X132897096Y-115735033D01*
X132992334Y-115782653D01*
X133039953Y-115830272D01*
X133087572Y-115925510D01*
X133087572Y-116020748D01*
X133039953Y-116163605D01*
X132468525Y-116735033D01*
X133087572Y-116735033D01*
X133659001Y-116163605D02*
X133563763Y-116115986D01*
X133516144Y-116068367D01*
X133468525Y-115973129D01*
X133468525Y-115925510D01*
X133516144Y-115830272D01*
X133563763Y-115782653D01*
X133659001Y-115735033D01*
X133849477Y-115735033D01*
X133944715Y-115782653D01*
X133992334Y-115830272D01*
X134039953Y-115925510D01*
X134039953Y-115973129D01*
X133992334Y-116068367D01*
X133944715Y-116115986D01*
X133849477Y-116163605D01*
X133659001Y-116163605D01*
X133563763Y-116211224D01*
X133516144Y-116258843D01*
X133468525Y-116354081D01*
X133468525Y-116544557D01*
X133516144Y-116639795D01*
X133563763Y-116687414D01*
X133659001Y-116735033D01*
X133849477Y-116735033D01*
X133944715Y-116687414D01*
X133992334Y-116639795D01*
X134039953Y-116544557D01*
X134039953Y-116354081D01*
X133992334Y-116258843D01*
X133944715Y-116211224D01*
X133849477Y-116163605D01*
G04 #@! TO.C,R29*
X140077142Y-118587033D02*
X139743809Y-118110843D01*
X139505714Y-118587033D02*
X139505714Y-117587033D01*
X139886666Y-117587033D01*
X139981904Y-117634653D01*
X140029523Y-117682272D01*
X140077142Y-117777510D01*
X140077142Y-117920367D01*
X140029523Y-118015605D01*
X139981904Y-118063224D01*
X139886666Y-118110843D01*
X139505714Y-118110843D01*
X140458095Y-117682272D02*
X140505714Y-117634653D01*
X140600952Y-117587033D01*
X140839047Y-117587033D01*
X140934285Y-117634653D01*
X140981904Y-117682272D01*
X141029523Y-117777510D01*
X141029523Y-117872748D01*
X140981904Y-118015605D01*
X140410476Y-118587033D01*
X141029523Y-118587033D01*
X141505714Y-118587033D02*
X141696190Y-118587033D01*
X141791428Y-118539414D01*
X141839047Y-118491795D01*
X141934285Y-118348938D01*
X141981904Y-118158462D01*
X141981904Y-117777510D01*
X141934285Y-117682272D01*
X141886666Y-117634653D01*
X141791428Y-117587033D01*
X141600952Y-117587033D01*
X141505714Y-117634653D01*
X141458095Y-117682272D01*
X141410476Y-117777510D01*
X141410476Y-118015605D01*
X141458095Y-118110843D01*
X141505714Y-118158462D01*
X141600952Y-118206081D01*
X141791428Y-118206081D01*
X141886666Y-118158462D01*
X141934285Y-118110843D01*
X141981904Y-118015605D01*
G04 #@! TO.C,R33*
X144141142Y-114230380D02*
X143807809Y-113754190D01*
X143569714Y-114230380D02*
X143569714Y-113230380D01*
X143950666Y-113230380D01*
X144045904Y-113278000D01*
X144093523Y-113325619D01*
X144141142Y-113420857D01*
X144141142Y-113563714D01*
X144093523Y-113658952D01*
X144045904Y-113706571D01*
X143950666Y-113754190D01*
X143569714Y-113754190D01*
X144474476Y-113230380D02*
X145093523Y-113230380D01*
X144760190Y-113611333D01*
X144903047Y-113611333D01*
X144998285Y-113658952D01*
X145045904Y-113706571D01*
X145093523Y-113801809D01*
X145093523Y-114039904D01*
X145045904Y-114135142D01*
X144998285Y-114182761D01*
X144903047Y-114230380D01*
X144617333Y-114230380D01*
X144522095Y-114182761D01*
X144474476Y-114135142D01*
X145426857Y-113230380D02*
X146045904Y-113230380D01*
X145712571Y-113611333D01*
X145855428Y-113611333D01*
X145950666Y-113658952D01*
X145998285Y-113706571D01*
X146045904Y-113801809D01*
X146045904Y-114039904D01*
X145998285Y-114135142D01*
X145950666Y-114182761D01*
X145855428Y-114230380D01*
X145569714Y-114230380D01*
X145474476Y-114182761D01*
X145426857Y-114135142D01*
G04 #@! TO.C,R39*
X116709142Y-79305380D02*
X116375809Y-78829190D01*
X116137714Y-79305380D02*
X116137714Y-78305380D01*
X116518666Y-78305380D01*
X116613904Y-78353000D01*
X116661523Y-78400619D01*
X116709142Y-78495857D01*
X116709142Y-78638714D01*
X116661523Y-78733952D01*
X116613904Y-78781571D01*
X116518666Y-78829190D01*
X116137714Y-78829190D01*
X117042476Y-78305380D02*
X117661523Y-78305380D01*
X117328190Y-78686333D01*
X117471047Y-78686333D01*
X117566285Y-78733952D01*
X117613904Y-78781571D01*
X117661523Y-78876809D01*
X117661523Y-79114904D01*
X117613904Y-79210142D01*
X117566285Y-79257761D01*
X117471047Y-79305380D01*
X117185333Y-79305380D01*
X117090095Y-79257761D01*
X117042476Y-79210142D01*
X118137714Y-79305380D02*
X118328190Y-79305380D01*
X118423428Y-79257761D01*
X118471047Y-79210142D01*
X118566285Y-79067285D01*
X118613904Y-78876809D01*
X118613904Y-78495857D01*
X118566285Y-78400619D01*
X118518666Y-78353000D01*
X118423428Y-78305380D01*
X118232952Y-78305380D01*
X118137714Y-78353000D01*
X118090095Y-78400619D01*
X118042476Y-78495857D01*
X118042476Y-78733952D01*
X118090095Y-78829190D01*
X118137714Y-78876809D01*
X118232952Y-78924428D01*
X118423428Y-78924428D01*
X118518666Y-78876809D01*
X118566285Y-78829190D01*
X118613904Y-78733952D01*
G04 #@! TO.C,R58*
X180986142Y-87932380D02*
X180652809Y-87456190D01*
X180414714Y-87932380D02*
X180414714Y-86932380D01*
X180795666Y-86932380D01*
X180890904Y-86980000D01*
X180938523Y-87027619D01*
X180986142Y-87122857D01*
X180986142Y-87265714D01*
X180938523Y-87360952D01*
X180890904Y-87408571D01*
X180795666Y-87456190D01*
X180414714Y-87456190D01*
X181890904Y-86932380D02*
X181414714Y-86932380D01*
X181367095Y-87408571D01*
X181414714Y-87360952D01*
X181509952Y-87313333D01*
X181748047Y-87313333D01*
X181843285Y-87360952D01*
X181890904Y-87408571D01*
X181938523Y-87503809D01*
X181938523Y-87741904D01*
X181890904Y-87837142D01*
X181843285Y-87884761D01*
X181748047Y-87932380D01*
X181509952Y-87932380D01*
X181414714Y-87884761D01*
X181367095Y-87837142D01*
X182509952Y-87360952D02*
X182414714Y-87313333D01*
X182367095Y-87265714D01*
X182319476Y-87170476D01*
X182319476Y-87122857D01*
X182367095Y-87027619D01*
X182414714Y-86980000D01*
X182509952Y-86932380D01*
X182700428Y-86932380D01*
X182795666Y-86980000D01*
X182843285Y-87027619D01*
X182890904Y-87122857D01*
X182890904Y-87170476D01*
X182843285Y-87265714D01*
X182795666Y-87313333D01*
X182700428Y-87360952D01*
X182509952Y-87360952D01*
X182414714Y-87408571D01*
X182367095Y-87456190D01*
X182319476Y-87551428D01*
X182319476Y-87741904D01*
X182367095Y-87837142D01*
X182414714Y-87884761D01*
X182509952Y-87932380D01*
X182700428Y-87932380D01*
X182795666Y-87884761D01*
X182843285Y-87837142D01*
X182890904Y-87741904D01*
X182890904Y-87551428D01*
X182843285Y-87456190D01*
X182795666Y-87408571D01*
X182700428Y-87360952D01*
G04 #@! TO.C,R59*
X196607142Y-102537380D02*
X196273809Y-102061190D01*
X196035714Y-102537380D02*
X196035714Y-101537380D01*
X196416666Y-101537380D01*
X196511904Y-101585000D01*
X196559523Y-101632619D01*
X196607142Y-101727857D01*
X196607142Y-101870714D01*
X196559523Y-101965952D01*
X196511904Y-102013571D01*
X196416666Y-102061190D01*
X196035714Y-102061190D01*
X197511904Y-101537380D02*
X197035714Y-101537380D01*
X196988095Y-102013571D01*
X197035714Y-101965952D01*
X197130952Y-101918333D01*
X197369047Y-101918333D01*
X197464285Y-101965952D01*
X197511904Y-102013571D01*
X197559523Y-102108809D01*
X197559523Y-102346904D01*
X197511904Y-102442142D01*
X197464285Y-102489761D01*
X197369047Y-102537380D01*
X197130952Y-102537380D01*
X197035714Y-102489761D01*
X196988095Y-102442142D01*
X198035714Y-102537380D02*
X198226190Y-102537380D01*
X198321428Y-102489761D01*
X198369047Y-102442142D01*
X198464285Y-102299285D01*
X198511904Y-102108809D01*
X198511904Y-101727857D01*
X198464285Y-101632619D01*
X198416666Y-101585000D01*
X198321428Y-101537380D01*
X198130952Y-101537380D01*
X198035714Y-101585000D01*
X197988095Y-101632619D01*
X197940476Y-101727857D01*
X197940476Y-101965952D01*
X197988095Y-102061190D01*
X198035714Y-102108809D01*
X198130952Y-102156428D01*
X198321428Y-102156428D01*
X198416666Y-102108809D01*
X198464285Y-102061190D01*
X198511904Y-101965952D01*
G04 #@! TO.C,R60*
X193559142Y-102537380D02*
X193225809Y-102061190D01*
X192987714Y-102537380D02*
X192987714Y-101537380D01*
X193368666Y-101537380D01*
X193463904Y-101585000D01*
X193511523Y-101632619D01*
X193559142Y-101727857D01*
X193559142Y-101870714D01*
X193511523Y-101965952D01*
X193463904Y-102013571D01*
X193368666Y-102061190D01*
X192987714Y-102061190D01*
X194416285Y-101537380D02*
X194225809Y-101537380D01*
X194130571Y-101585000D01*
X194082952Y-101632619D01*
X193987714Y-101775476D01*
X193940095Y-101965952D01*
X193940095Y-102346904D01*
X193987714Y-102442142D01*
X194035333Y-102489761D01*
X194130571Y-102537380D01*
X194321047Y-102537380D01*
X194416285Y-102489761D01*
X194463904Y-102442142D01*
X194511523Y-102346904D01*
X194511523Y-102108809D01*
X194463904Y-102013571D01*
X194416285Y-101965952D01*
X194321047Y-101918333D01*
X194130571Y-101918333D01*
X194035333Y-101965952D01*
X193987714Y-102013571D01*
X193940095Y-102108809D01*
X195130571Y-101537380D02*
X195225809Y-101537380D01*
X195321047Y-101585000D01*
X195368666Y-101632619D01*
X195416285Y-101727857D01*
X195463904Y-101918333D01*
X195463904Y-102156428D01*
X195416285Y-102346904D01*
X195368666Y-102442142D01*
X195321047Y-102489761D01*
X195225809Y-102537380D01*
X195130571Y-102537380D01*
X195035333Y-102489761D01*
X194987714Y-102442142D01*
X194940095Y-102346904D01*
X194892476Y-102156428D01*
X194892476Y-101918333D01*
X194940095Y-101727857D01*
X194987714Y-101632619D01*
X195035333Y-101585000D01*
X195130571Y-101537380D01*
G04 #@! TO.C,RLY1*
X163850000Y-64247380D02*
X163516666Y-63771190D01*
X163278571Y-64247380D02*
X163278571Y-63247380D01*
X163659523Y-63247380D01*
X163754761Y-63295000D01*
X163802380Y-63342619D01*
X163850000Y-63437857D01*
X163850000Y-63580714D01*
X163802380Y-63675952D01*
X163754761Y-63723571D01*
X163659523Y-63771190D01*
X163278571Y-63771190D01*
X164754761Y-64247380D02*
X164278571Y-64247380D01*
X164278571Y-63247380D01*
X165278571Y-63771190D02*
X165278571Y-64247380D01*
X164945238Y-63247380D02*
X165278571Y-63771190D01*
X165611904Y-63247380D01*
X166469047Y-64247380D02*
X165897619Y-64247380D01*
X166183333Y-64247380D02*
X166183333Y-63247380D01*
X166088095Y-63390238D01*
X165992857Y-63485476D01*
X165897619Y-63533095D01*
G04 #@! TO.C,RLY2*
X118511000Y-75368380D02*
X118177666Y-74892190D01*
X117939571Y-75368380D02*
X117939571Y-74368380D01*
X118320523Y-74368380D01*
X118415761Y-74416000D01*
X118463380Y-74463619D01*
X118511000Y-74558857D01*
X118511000Y-74701714D01*
X118463380Y-74796952D01*
X118415761Y-74844571D01*
X118320523Y-74892190D01*
X117939571Y-74892190D01*
X119415761Y-75368380D02*
X118939571Y-75368380D01*
X118939571Y-74368380D01*
X119939571Y-74892190D02*
X119939571Y-75368380D01*
X119606238Y-74368380D02*
X119939571Y-74892190D01*
X120272904Y-74368380D01*
X120558619Y-74463619D02*
X120606238Y-74416000D01*
X120701476Y-74368380D01*
X120939571Y-74368380D01*
X121034809Y-74416000D01*
X121082428Y-74463619D01*
X121130047Y-74558857D01*
X121130047Y-74654095D01*
X121082428Y-74796952D01*
X120511000Y-75368380D01*
X121130047Y-75368380D01*
G04 #@! TO.C,U1*
X107842095Y-48324380D02*
X107842095Y-49133904D01*
X107889714Y-49229142D01*
X107937333Y-49276761D01*
X108032571Y-49324380D01*
X108223047Y-49324380D01*
X108318285Y-49276761D01*
X108365904Y-49229142D01*
X108413523Y-49133904D01*
X108413523Y-48324380D01*
X109413523Y-49324380D02*
X108842095Y-49324380D01*
X109127809Y-49324380D02*
X109127809Y-48324380D01*
X109032571Y-48467238D01*
X108937333Y-48562476D01*
X108842095Y-48610095D01*
G04 #@! TO.C,U2*
X109982095Y-33615380D02*
X109982095Y-34424904D01*
X110029714Y-34520142D01*
X110077333Y-34567761D01*
X110172571Y-34615380D01*
X110363047Y-34615380D01*
X110458285Y-34567761D01*
X110505904Y-34520142D01*
X110553523Y-34424904D01*
X110553523Y-33615380D01*
X110982095Y-33710619D02*
X111029714Y-33663000D01*
X111124952Y-33615380D01*
X111363047Y-33615380D01*
X111458285Y-33663000D01*
X111505904Y-33710619D01*
X111553523Y-33805857D01*
X111553523Y-33901095D01*
X111505904Y-34043952D01*
X110934476Y-34615380D01*
X111553523Y-34615380D01*
G04 #@! TO.C,U3*
X116336095Y-48968380D02*
X116336095Y-49777904D01*
X116383714Y-49873142D01*
X116431333Y-49920761D01*
X116526571Y-49968380D01*
X116717047Y-49968380D01*
X116812285Y-49920761D01*
X116859904Y-49873142D01*
X116907523Y-49777904D01*
X116907523Y-48968380D01*
X117288476Y-48968380D02*
X117907523Y-48968380D01*
X117574190Y-49349333D01*
X117717047Y-49349333D01*
X117812285Y-49396952D01*
X117859904Y-49444571D01*
X117907523Y-49539809D01*
X117907523Y-49777904D01*
X117859904Y-49873142D01*
X117812285Y-49920761D01*
X117717047Y-49968380D01*
X117431333Y-49968380D01*
X117336095Y-49920761D01*
X117288476Y-49873142D01*
G04 #@! TO.C,U4*
X116844095Y-46428380D02*
X116844095Y-47237904D01*
X116891714Y-47333142D01*
X116939333Y-47380761D01*
X117034571Y-47428380D01*
X117225047Y-47428380D01*
X117320285Y-47380761D01*
X117367904Y-47333142D01*
X117415523Y-47237904D01*
X117415523Y-46428380D01*
X118320285Y-46761714D02*
X118320285Y-47428380D01*
X118082190Y-46380761D02*
X117844095Y-47095047D01*
X118463142Y-47095047D01*
G04 #@! TO.C,U6*
X109982095Y-27265380D02*
X109982095Y-28074904D01*
X110029714Y-28170142D01*
X110077333Y-28217761D01*
X110172571Y-28265380D01*
X110363047Y-28265380D01*
X110458285Y-28217761D01*
X110505904Y-28170142D01*
X110553523Y-28074904D01*
X110553523Y-27265380D01*
X111458285Y-27265380D02*
X111267809Y-27265380D01*
X111172571Y-27313000D01*
X111124952Y-27360619D01*
X111029714Y-27503476D01*
X110982095Y-27693952D01*
X110982095Y-28074904D01*
X111029714Y-28170142D01*
X111077333Y-28217761D01*
X111172571Y-28265380D01*
X111363047Y-28265380D01*
X111458285Y-28217761D01*
X111505904Y-28170142D01*
X111553523Y-28074904D01*
X111553523Y-27836809D01*
X111505904Y-27741571D01*
X111458285Y-27693952D01*
X111363047Y-27646333D01*
X111172571Y-27646333D01*
X111077333Y-27693952D01*
X111029714Y-27741571D01*
X110982095Y-27836809D01*
G04 #@! TO.C,U7*
X116336095Y-60271380D02*
X116336095Y-61080904D01*
X116383714Y-61176142D01*
X116431333Y-61223761D01*
X116526571Y-61271380D01*
X116717047Y-61271380D01*
X116812285Y-61223761D01*
X116859904Y-61176142D01*
X116907523Y-61080904D01*
X116907523Y-60271380D01*
X117288476Y-60271380D02*
X117955142Y-60271380D01*
X117526571Y-61271380D01*
G04 #@! TO.C,U8*
X172993095Y-36132380D02*
X172993095Y-36941904D01*
X173040714Y-37037142D01*
X173088333Y-37084761D01*
X173183571Y-37132380D01*
X173374047Y-37132380D01*
X173469285Y-37084761D01*
X173516904Y-37037142D01*
X173564523Y-36941904D01*
X173564523Y-36132380D01*
X174183571Y-36560952D02*
X174088333Y-36513333D01*
X174040714Y-36465714D01*
X173993095Y-36370476D01*
X173993095Y-36322857D01*
X174040714Y-36227619D01*
X174088333Y-36180000D01*
X174183571Y-36132380D01*
X174374047Y-36132380D01*
X174469285Y-36180000D01*
X174516904Y-36227619D01*
X174564523Y-36322857D01*
X174564523Y-36370476D01*
X174516904Y-36465714D01*
X174469285Y-36513333D01*
X174374047Y-36560952D01*
X174183571Y-36560952D01*
X174088333Y-36608571D01*
X174040714Y-36656190D01*
X173993095Y-36751428D01*
X173993095Y-36941904D01*
X174040714Y-37037142D01*
X174088333Y-37084761D01*
X174183571Y-37132380D01*
X174374047Y-37132380D01*
X174469285Y-37084761D01*
X174516904Y-37037142D01*
X174564523Y-36941904D01*
X174564523Y-36751428D01*
X174516904Y-36656190D01*
X174469285Y-36608571D01*
X174374047Y-36560952D01*
G04 #@! TO.C,U10*
X125765904Y-106880380D02*
X125765904Y-107689904D01*
X125813523Y-107785142D01*
X125861142Y-107832761D01*
X125956380Y-107880380D01*
X126146857Y-107880380D01*
X126242095Y-107832761D01*
X126289714Y-107785142D01*
X126337333Y-107689904D01*
X126337333Y-106880380D01*
X127337333Y-107880380D02*
X126765904Y-107880380D01*
X127051619Y-107880380D02*
X127051619Y-106880380D01*
X126956380Y-107023238D01*
X126861142Y-107118476D01*
X126765904Y-107166095D01*
X127956380Y-106880380D02*
X128051619Y-106880380D01*
X128146857Y-106928000D01*
X128194476Y-106975619D01*
X128242095Y-107070857D01*
X128289714Y-107261333D01*
X128289714Y-107499428D01*
X128242095Y-107689904D01*
X128194476Y-107785142D01*
X128146857Y-107832761D01*
X128051619Y-107880380D01*
X127956380Y-107880380D01*
X127861142Y-107832761D01*
X127813523Y-107785142D01*
X127765904Y-107689904D01*
X127718285Y-107499428D01*
X127718285Y-107261333D01*
X127765904Y-107070857D01*
X127813523Y-106975619D01*
X127861142Y-106928000D01*
X127956380Y-106880380D01*
G04 #@! TO.C,U11*
X124241904Y-110475033D02*
X124241904Y-111284557D01*
X124289523Y-111379795D01*
X124337142Y-111427414D01*
X124432380Y-111475033D01*
X124622857Y-111475033D01*
X124718095Y-111427414D01*
X124765714Y-111379795D01*
X124813333Y-111284557D01*
X124813333Y-110475033D01*
X125813333Y-111475033D02*
X125241904Y-111475033D01*
X125527619Y-111475033D02*
X125527619Y-110475033D01*
X125432380Y-110617891D01*
X125337142Y-110713129D01*
X125241904Y-110760748D01*
X126765714Y-111475033D02*
X126194285Y-111475033D01*
X126480000Y-111475033D02*
X126480000Y-110475033D01*
X126384761Y-110617891D01*
X126289523Y-110713129D01*
X126194285Y-110760748D01*
G04 #@! TO.C,U12*
X134909904Y-110475033D02*
X134909904Y-111284557D01*
X134957523Y-111379795D01*
X135005142Y-111427414D01*
X135100380Y-111475033D01*
X135290857Y-111475033D01*
X135386095Y-111427414D01*
X135433714Y-111379795D01*
X135481333Y-111284557D01*
X135481333Y-110475033D01*
X136481333Y-111475033D02*
X135909904Y-111475033D01*
X136195619Y-111475033D02*
X136195619Y-110475033D01*
X136100380Y-110617891D01*
X136005142Y-110713129D01*
X135909904Y-110760748D01*
X136862285Y-110570272D02*
X136909904Y-110522653D01*
X137005142Y-110475033D01*
X137243238Y-110475033D01*
X137338476Y-110522653D01*
X137386095Y-110570272D01*
X137433714Y-110665510D01*
X137433714Y-110760748D01*
X137386095Y-110903605D01*
X136814666Y-111475033D01*
X137433714Y-111475033D01*
G04 #@! TO.C,U13*
X126146904Y-94434380D02*
X126146904Y-95243904D01*
X126194523Y-95339142D01*
X126242142Y-95386761D01*
X126337380Y-95434380D01*
X126527857Y-95434380D01*
X126623095Y-95386761D01*
X126670714Y-95339142D01*
X126718333Y-95243904D01*
X126718333Y-94434380D01*
X127718333Y-95434380D02*
X127146904Y-95434380D01*
X127432619Y-95434380D02*
X127432619Y-94434380D01*
X127337380Y-94577238D01*
X127242142Y-94672476D01*
X127146904Y-94720095D01*
X128051666Y-94434380D02*
X128670714Y-94434380D01*
X128337380Y-94815333D01*
X128480238Y-94815333D01*
X128575476Y-94862952D01*
X128623095Y-94910571D01*
X128670714Y-95005809D01*
X128670714Y-95243904D01*
X128623095Y-95339142D01*
X128575476Y-95386761D01*
X128480238Y-95434380D01*
X128194523Y-95434380D01*
X128099285Y-95386761D01*
X128051666Y-95339142D01*
G04 #@! TO.C,U14*
X142529904Y-101839033D02*
X142529904Y-102648557D01*
X142577523Y-102743795D01*
X142625142Y-102791414D01*
X142720380Y-102839033D01*
X142910857Y-102839033D01*
X143006095Y-102791414D01*
X143053714Y-102743795D01*
X143101333Y-102648557D01*
X143101333Y-101839033D01*
X144101333Y-102839033D02*
X143529904Y-102839033D01*
X143815619Y-102839033D02*
X143815619Y-101839033D01*
X143720380Y-101981891D01*
X143625142Y-102077129D01*
X143529904Y-102124748D01*
X144958476Y-102172367D02*
X144958476Y-102839033D01*
X144720380Y-101791414D02*
X144482285Y-102505700D01*
X145101333Y-102505700D01*
G04 #@! TO.C,U16*
X121447904Y-87576380D02*
X121447904Y-88385904D01*
X121495523Y-88481142D01*
X121543142Y-88528761D01*
X121638380Y-88576380D01*
X121828857Y-88576380D01*
X121924095Y-88528761D01*
X121971714Y-88481142D01*
X122019333Y-88385904D01*
X122019333Y-87576380D01*
X123019333Y-88576380D02*
X122447904Y-88576380D01*
X122733619Y-88576380D02*
X122733619Y-87576380D01*
X122638380Y-87719238D01*
X122543142Y-87814476D01*
X122447904Y-87862095D01*
X123876476Y-87576380D02*
X123686000Y-87576380D01*
X123590761Y-87624000D01*
X123543142Y-87671619D01*
X123447904Y-87814476D01*
X123400285Y-88004952D01*
X123400285Y-88385904D01*
X123447904Y-88481142D01*
X123495523Y-88528761D01*
X123590761Y-88576380D01*
X123781238Y-88576380D01*
X123876476Y-88528761D01*
X123924095Y-88481142D01*
X123971714Y-88385904D01*
X123971714Y-88147809D01*
X123924095Y-88052571D01*
X123876476Y-88004952D01*
X123781238Y-87957333D01*
X123590761Y-87957333D01*
X123495523Y-88004952D01*
X123447904Y-88052571D01*
X123400285Y-88147809D01*
G04 #@! TO.C,Vref1*
X146902666Y-42736380D02*
X147236000Y-43736380D01*
X147569333Y-42736380D01*
X147902666Y-43736380D02*
X147902666Y-43069714D01*
X147902666Y-43260190D02*
X147950285Y-43164952D01*
X147997904Y-43117333D01*
X148093142Y-43069714D01*
X148188380Y-43069714D01*
X148902666Y-43688761D02*
X148807428Y-43736380D01*
X148616952Y-43736380D01*
X148521714Y-43688761D01*
X148474095Y-43593523D01*
X148474095Y-43212571D01*
X148521714Y-43117333D01*
X148616952Y-43069714D01*
X148807428Y-43069714D01*
X148902666Y-43117333D01*
X148950285Y-43212571D01*
X148950285Y-43307809D01*
X148474095Y-43403047D01*
X149236000Y-43069714D02*
X149616952Y-43069714D01*
X149378857Y-43736380D02*
X149378857Y-42879238D01*
X149426476Y-42784000D01*
X149521714Y-42736380D01*
X149616952Y-42736380D01*
X150474095Y-43736380D02*
X149902666Y-43736380D01*
X150188380Y-43736380D02*
X150188380Y-42736380D01*
X150093142Y-42879238D01*
X149997904Y-42974476D01*
X149902666Y-43022095D01*
G04 #@! TO.C,Vref2*
X132551666Y-39815380D02*
X132885000Y-40815380D01*
X133218333Y-39815380D01*
X133551666Y-40815380D02*
X133551666Y-40148714D01*
X133551666Y-40339190D02*
X133599285Y-40243952D01*
X133646904Y-40196333D01*
X133742142Y-40148714D01*
X133837380Y-40148714D01*
X134551666Y-40767761D02*
X134456428Y-40815380D01*
X134265952Y-40815380D01*
X134170714Y-40767761D01*
X134123095Y-40672523D01*
X134123095Y-40291571D01*
X134170714Y-40196333D01*
X134265952Y-40148714D01*
X134456428Y-40148714D01*
X134551666Y-40196333D01*
X134599285Y-40291571D01*
X134599285Y-40386809D01*
X134123095Y-40482047D01*
X134885000Y-40148714D02*
X135265952Y-40148714D01*
X135027857Y-40815380D02*
X135027857Y-39958238D01*
X135075476Y-39863000D01*
X135170714Y-39815380D01*
X135265952Y-39815380D01*
X135551666Y-39910619D02*
X135599285Y-39863000D01*
X135694523Y-39815380D01*
X135932619Y-39815380D01*
X136027857Y-39863000D01*
X136075476Y-39910619D01*
X136123095Y-40005857D01*
X136123095Y-40101095D01*
X136075476Y-40243952D01*
X135504047Y-40815380D01*
X136123095Y-40815380D01*
G04 #@! TO.C,Vref3*
X146521666Y-44260380D02*
X146855000Y-45260380D01*
X147188333Y-44260380D01*
X147521666Y-45260380D02*
X147521666Y-44593714D01*
X147521666Y-44784190D02*
X147569285Y-44688952D01*
X147616904Y-44641333D01*
X147712142Y-44593714D01*
X147807380Y-44593714D01*
X148521666Y-45212761D02*
X148426428Y-45260380D01*
X148235952Y-45260380D01*
X148140714Y-45212761D01*
X148093095Y-45117523D01*
X148093095Y-44736571D01*
X148140714Y-44641333D01*
X148235952Y-44593714D01*
X148426428Y-44593714D01*
X148521666Y-44641333D01*
X148569285Y-44736571D01*
X148569285Y-44831809D01*
X148093095Y-44927047D01*
X148855000Y-44593714D02*
X149235952Y-44593714D01*
X148997857Y-45260380D02*
X148997857Y-44403238D01*
X149045476Y-44308000D01*
X149140714Y-44260380D01*
X149235952Y-44260380D01*
X149474047Y-44260380D02*
X150093095Y-44260380D01*
X149759761Y-44641333D01*
X149902619Y-44641333D01*
X149997857Y-44688952D01*
X150045476Y-44736571D01*
X150093095Y-44831809D01*
X150093095Y-45069904D01*
X150045476Y-45165142D01*
X149997857Y-45212761D01*
X149902619Y-45260380D01*
X149616904Y-45260380D01*
X149521666Y-45212761D01*
X149474047Y-45165142D01*
G04 #@! TO.C,HS1*
X156006904Y-40307380D02*
X156006904Y-39307380D01*
X156006904Y-39783571D02*
X156578333Y-39783571D01*
X156578333Y-40307380D02*
X156578333Y-39307380D01*
X157006904Y-40259761D02*
X157149761Y-40307380D01*
X157387857Y-40307380D01*
X157483095Y-40259761D01*
X157530714Y-40212142D01*
X157578333Y-40116904D01*
X157578333Y-40021666D01*
X157530714Y-39926428D01*
X157483095Y-39878809D01*
X157387857Y-39831190D01*
X157197380Y-39783571D01*
X157102142Y-39735952D01*
X157054523Y-39688333D01*
X157006904Y-39593095D01*
X157006904Y-39497857D01*
X157054523Y-39402619D01*
X157102142Y-39355000D01*
X157197380Y-39307380D01*
X157435476Y-39307380D01*
X157578333Y-39355000D01*
X158530714Y-40307380D02*
X157959285Y-40307380D01*
X158245000Y-40307380D02*
X158245000Y-39307380D01*
X158149761Y-39450238D01*
X158054523Y-39545476D01*
X157959285Y-39593095D01*
G04 #@! TO.C,HS2*
X178739904Y-77391380D02*
X178739904Y-76391380D01*
X178739904Y-76867571D02*
X179311333Y-76867571D01*
X179311333Y-77391380D02*
X179311333Y-76391380D01*
X179739904Y-77343761D02*
X179882761Y-77391380D01*
X180120857Y-77391380D01*
X180216095Y-77343761D01*
X180263714Y-77296142D01*
X180311333Y-77200904D01*
X180311333Y-77105666D01*
X180263714Y-77010428D01*
X180216095Y-76962809D01*
X180120857Y-76915190D01*
X179930380Y-76867571D01*
X179835142Y-76819952D01*
X179787523Y-76772333D01*
X179739904Y-76677095D01*
X179739904Y-76581857D01*
X179787523Y-76486619D01*
X179835142Y-76439000D01*
X179930380Y-76391380D01*
X180168476Y-76391380D01*
X180311333Y-76439000D01*
X180692285Y-76486619D02*
X180739904Y-76439000D01*
X180835142Y-76391380D01*
X181073238Y-76391380D01*
X181168476Y-76439000D01*
X181216095Y-76486619D01*
X181263714Y-76581857D01*
X181263714Y-76677095D01*
X181216095Y-76819952D01*
X180644666Y-77391380D01*
X181263714Y-77391380D01*
G04 #@! TD*
M02*
