%FSLAX45Y45*%
G04 Gerber Fmt 4.5, Leading zero omitted, Abs format (unit mm)*
G04 Created by KiCad (PCBNEW (5.0.2)-1) date 08/09/19 14:56:22*
%MOMM*%
%LPD*%
G01*
G04 APERTURE LIST*
%ADD10C,0.150000*%
%ADD11C,0.200000*%
%ADD12C,0.300000*%
G04 APERTURE END LIST*
D10*
X20000000Y-2574300D02*
X20000000Y-12574300D01*
X10000000Y-2574300D02*
X20000000Y-2574300D01*
X10000000Y-12574300D02*
X10000000Y-2574300D01*
X20000000Y-12574300D02*
X10000000Y-12574300D01*
D11*
D12*
X10278928Y-13047514D02*
X10278928Y-12747514D01*
X10350357Y-12747514D01*
X10393214Y-12761800D01*
X10421786Y-12790371D01*
X10436071Y-12818943D01*
X10450357Y-12876086D01*
X10450357Y-12918943D01*
X10436071Y-12976086D01*
X10421786Y-13004657D01*
X10393214Y-13033229D01*
X10350357Y-13047514D01*
X10278928Y-13047514D01*
X10578928Y-13047514D02*
X10578928Y-12847514D01*
X10578928Y-12904657D02*
X10593214Y-12876086D01*
X10607500Y-12861800D01*
X10636071Y-12847514D01*
X10664643Y-12847514D01*
X10764643Y-13047514D02*
X10764643Y-12847514D01*
X10764643Y-12747514D02*
X10750357Y-12761800D01*
X10764643Y-12776086D01*
X10778928Y-12761800D01*
X10764643Y-12747514D01*
X10764643Y-12776086D01*
X10950357Y-13047514D02*
X10921786Y-13033229D01*
X10907500Y-13004657D01*
X10907500Y-12747514D01*
X11107500Y-13047514D02*
X11078928Y-13033229D01*
X11064643Y-13004657D01*
X11064643Y-12747514D01*
X11450357Y-13047514D02*
X11450357Y-12747514D01*
X11550357Y-12961800D01*
X11650357Y-12747514D01*
X11650357Y-13047514D01*
X11921786Y-13047514D02*
X11921786Y-12890371D01*
X11907500Y-12861800D01*
X11878928Y-12847514D01*
X11821786Y-12847514D01*
X11793214Y-12861800D01*
X11921786Y-13033229D02*
X11893214Y-13047514D01*
X11821786Y-13047514D01*
X11793214Y-13033229D01*
X11778928Y-13004657D01*
X11778928Y-12976086D01*
X11793214Y-12947514D01*
X11821786Y-12933229D01*
X11893214Y-12933229D01*
X11921786Y-12918943D01*
X12064643Y-12847514D02*
X12064643Y-13147514D01*
X12064643Y-12861800D02*
X12093214Y-12847514D01*
X12150357Y-12847514D01*
X12178928Y-12861800D01*
X12193214Y-12876086D01*
X12207500Y-12904657D01*
X12207500Y-12990371D01*
X12193214Y-13018943D01*
X12178928Y-13033229D01*
X12150357Y-13047514D01*
X12093214Y-13047514D01*
X12064643Y-13033229D01*
X12336071Y-13018943D02*
X12350357Y-13033229D01*
X12336071Y-13047514D01*
X12321786Y-13033229D01*
X12336071Y-13018943D01*
X12336071Y-13047514D01*
X12336071Y-12861800D02*
X12350357Y-12876086D01*
X12336071Y-12890371D01*
X12321786Y-12876086D01*
X12336071Y-12861800D01*
X12336071Y-12890371D01*
M02*
