G04 #@! TF.GenerationSoftware,KiCad,Pcbnew,(5.0.2)-1*
G04 #@! TF.CreationDate,2019-08-09T14:56:26+08:00*
G04 #@! TF.ProjectId,Version 4,56657273-696f-46e2-9034-2e6b69636164,rev?*
G04 #@! TF.SameCoordinates,Original*
G04 #@! TF.FileFunction,Soldermask,Bot*
G04 #@! TF.FilePolarity,Negative*
%FSLAX46Y46*%
G04 Gerber Fmt 4.6, Leading zero omitted, Abs format (unit mm)*
G04 Created by KiCad (PCBNEW (5.0.2)-1) date 08/09/19 14:56:26*
%MOMM*%
%LPD*%
G01*
G04 APERTURE LIST*
%ADD10C,0.100000*%
G04 APERTURE END LIST*
D10*
G36*
X146802945Y-119910349D02*
X146802947Y-119910350D01*
X146802948Y-119910350D01*
X146995674Y-119990179D01*
X147168340Y-120105551D01*
X147169125Y-120106076D01*
X147316626Y-120253577D01*
X147316628Y-120253580D01*
X147432523Y-120427028D01*
X147512352Y-120619754D01*
X147553049Y-120824351D01*
X147553049Y-121032955D01*
X147512352Y-121237552D01*
X147432523Y-121430278D01*
X147317151Y-121602944D01*
X147316626Y-121603729D01*
X147169125Y-121751230D01*
X147169122Y-121751232D01*
X146995674Y-121867127D01*
X146802948Y-121946956D01*
X146802947Y-121946956D01*
X146802945Y-121946957D01*
X146598353Y-121987653D01*
X146389745Y-121987653D01*
X146185153Y-121946957D01*
X146185151Y-121946956D01*
X146185150Y-121946956D01*
X145992424Y-121867127D01*
X145818976Y-121751232D01*
X145818973Y-121751230D01*
X145671472Y-121603729D01*
X145670947Y-121602944D01*
X145555575Y-121430278D01*
X145475746Y-121237552D01*
X145435049Y-121032955D01*
X145435049Y-120824351D01*
X145475746Y-120619754D01*
X145555575Y-120427028D01*
X145671470Y-120253580D01*
X145671472Y-120253577D01*
X145818973Y-120106076D01*
X145819758Y-120105551D01*
X145992424Y-119990179D01*
X146185150Y-119910350D01*
X146185151Y-119910350D01*
X146185153Y-119910349D01*
X146389745Y-119869653D01*
X146598353Y-119869653D01*
X146802945Y-119910349D01*
X146802945Y-119910349D01*
G37*
G36*
X144262945Y-119910349D02*
X144262947Y-119910350D01*
X144262948Y-119910350D01*
X144455674Y-119990179D01*
X144628340Y-120105551D01*
X144629125Y-120106076D01*
X144776626Y-120253577D01*
X144776628Y-120253580D01*
X144892523Y-120427028D01*
X144972352Y-120619754D01*
X145013049Y-120824351D01*
X145013049Y-121032955D01*
X144972352Y-121237552D01*
X144892523Y-121430278D01*
X144777151Y-121602944D01*
X144776626Y-121603729D01*
X144629125Y-121751230D01*
X144629122Y-121751232D01*
X144455674Y-121867127D01*
X144262948Y-121946956D01*
X144262947Y-121946956D01*
X144262945Y-121946957D01*
X144058353Y-121987653D01*
X143849745Y-121987653D01*
X143645153Y-121946957D01*
X143645151Y-121946956D01*
X143645150Y-121946956D01*
X143452424Y-121867127D01*
X143278976Y-121751232D01*
X143278973Y-121751230D01*
X143131472Y-121603729D01*
X143130947Y-121602944D01*
X143015575Y-121430278D01*
X142935746Y-121237552D01*
X142895049Y-121032955D01*
X142895049Y-120824351D01*
X142935746Y-120619754D01*
X143015575Y-120427028D01*
X143131470Y-120253580D01*
X143131472Y-120253577D01*
X143278973Y-120106076D01*
X143279758Y-120105551D01*
X143452424Y-119990179D01*
X143645150Y-119910350D01*
X143645151Y-119910350D01*
X143645153Y-119910349D01*
X143849745Y-119869653D01*
X144058353Y-119869653D01*
X144262945Y-119910349D01*
X144262945Y-119910349D01*
G37*
G36*
X142473049Y-121987653D02*
X140355049Y-121987653D01*
X140355049Y-119869653D01*
X142473049Y-119869653D01*
X142473049Y-121987653D01*
X142473049Y-121987653D01*
G37*
G36*
X136642945Y-119910349D02*
X136642947Y-119910350D01*
X136642948Y-119910350D01*
X136835674Y-119990179D01*
X137008340Y-120105551D01*
X137009125Y-120106076D01*
X137156626Y-120253577D01*
X137156628Y-120253580D01*
X137272523Y-120427028D01*
X137352352Y-120619754D01*
X137393049Y-120824351D01*
X137393049Y-121032955D01*
X137352352Y-121237552D01*
X137272523Y-121430278D01*
X137157151Y-121602944D01*
X137156626Y-121603729D01*
X137009125Y-121751230D01*
X137009122Y-121751232D01*
X136835674Y-121867127D01*
X136642948Y-121946956D01*
X136642947Y-121946956D01*
X136642945Y-121946957D01*
X136438353Y-121987653D01*
X136229745Y-121987653D01*
X136025153Y-121946957D01*
X136025151Y-121946956D01*
X136025150Y-121946956D01*
X135832424Y-121867127D01*
X135658976Y-121751232D01*
X135658973Y-121751230D01*
X135511472Y-121603729D01*
X135510947Y-121602944D01*
X135395575Y-121430278D01*
X135315746Y-121237552D01*
X135275049Y-121032955D01*
X135275049Y-120824351D01*
X135315746Y-120619754D01*
X135395575Y-120427028D01*
X135511470Y-120253580D01*
X135511472Y-120253577D01*
X135658973Y-120106076D01*
X135659758Y-120105551D01*
X135832424Y-119990179D01*
X136025150Y-119910350D01*
X136025151Y-119910350D01*
X136025153Y-119910349D01*
X136229745Y-119869653D01*
X136438353Y-119869653D01*
X136642945Y-119910349D01*
X136642945Y-119910349D01*
G37*
G36*
X132313049Y-121987653D02*
X130195049Y-121987653D01*
X130195049Y-119869653D01*
X132313049Y-119869653D01*
X132313049Y-121987653D01*
X132313049Y-121987653D01*
G37*
G36*
X134102945Y-119910349D02*
X134102947Y-119910350D01*
X134102948Y-119910350D01*
X134295674Y-119990179D01*
X134468340Y-120105551D01*
X134469125Y-120106076D01*
X134616626Y-120253577D01*
X134616628Y-120253580D01*
X134732523Y-120427028D01*
X134812352Y-120619754D01*
X134853049Y-120824351D01*
X134853049Y-121032955D01*
X134812352Y-121237552D01*
X134732523Y-121430278D01*
X134617151Y-121602944D01*
X134616626Y-121603729D01*
X134469125Y-121751230D01*
X134469122Y-121751232D01*
X134295674Y-121867127D01*
X134102948Y-121946956D01*
X134102947Y-121946956D01*
X134102945Y-121946957D01*
X133898353Y-121987653D01*
X133689745Y-121987653D01*
X133485153Y-121946957D01*
X133485151Y-121946956D01*
X133485150Y-121946956D01*
X133292424Y-121867127D01*
X133118976Y-121751232D01*
X133118973Y-121751230D01*
X132971472Y-121603729D01*
X132970947Y-121602944D01*
X132855575Y-121430278D01*
X132775746Y-121237552D01*
X132735049Y-121032955D01*
X132735049Y-120824351D01*
X132775746Y-120619754D01*
X132855575Y-120427028D01*
X132971470Y-120253580D01*
X132971472Y-120253577D01*
X133118973Y-120106076D01*
X133119758Y-120105551D01*
X133292424Y-119990179D01*
X133485150Y-119910350D01*
X133485151Y-119910350D01*
X133485153Y-119910349D01*
X133689745Y-119869653D01*
X133898353Y-119869653D01*
X134102945Y-119910349D01*
X134102945Y-119910349D01*
G37*
G36*
X138631194Y-113958585D02*
X138796621Y-114027107D01*
X138945506Y-114126589D01*
X139072113Y-114253196D01*
X139171595Y-114402081D01*
X139240117Y-114567508D01*
X139275049Y-114743123D01*
X139275049Y-114922183D01*
X139240117Y-115097798D01*
X139171595Y-115263225D01*
X139072113Y-115412110D01*
X138945506Y-115538717D01*
X138796621Y-115638199D01*
X138631194Y-115706721D01*
X138455579Y-115741653D01*
X138276519Y-115741653D01*
X138100904Y-115706721D01*
X137935477Y-115638199D01*
X137786592Y-115538717D01*
X137659985Y-115412110D01*
X137560503Y-115263225D01*
X137491981Y-115097798D01*
X137457049Y-114922183D01*
X137457049Y-114743123D01*
X137491981Y-114567508D01*
X137560503Y-114402081D01*
X137659985Y-114253196D01*
X137786592Y-114126589D01*
X137935477Y-114027107D01*
X138100904Y-113958585D01*
X138276519Y-113923653D01*
X138455579Y-113923653D01*
X138631194Y-113958585D01*
X138631194Y-113958585D01*
G37*
G36*
X136091194Y-113958585D02*
X136256621Y-114027107D01*
X136405506Y-114126589D01*
X136532113Y-114253196D01*
X136631595Y-114402081D01*
X136700117Y-114567508D01*
X136735049Y-114743123D01*
X136735049Y-114922183D01*
X136700117Y-115097798D01*
X136631595Y-115263225D01*
X136532113Y-115412110D01*
X136405506Y-115538717D01*
X136256621Y-115638199D01*
X136091194Y-115706721D01*
X135915579Y-115741653D01*
X135736519Y-115741653D01*
X135560904Y-115706721D01*
X135395477Y-115638199D01*
X135246592Y-115538717D01*
X135119985Y-115412110D01*
X135020503Y-115263225D01*
X134951981Y-115097798D01*
X134917049Y-114922183D01*
X134917049Y-114743123D01*
X134951981Y-114567508D01*
X135020503Y-114402081D01*
X135119985Y-114253196D01*
X135246592Y-114126589D01*
X135395477Y-114027107D01*
X135560904Y-113958585D01*
X135736519Y-113923653D01*
X135915579Y-113923653D01*
X136091194Y-113958585D01*
X136091194Y-113958585D01*
G37*
G36*
X141171194Y-113958585D02*
X141336621Y-114027107D01*
X141485506Y-114126589D01*
X141612113Y-114253196D01*
X141711595Y-114402081D01*
X141780117Y-114567508D01*
X141815049Y-114743123D01*
X141815049Y-114922183D01*
X141780117Y-115097798D01*
X141711595Y-115263225D01*
X141612113Y-115412110D01*
X141485506Y-115538717D01*
X141336621Y-115638199D01*
X141171194Y-115706721D01*
X140995579Y-115741653D01*
X140816519Y-115741653D01*
X140640904Y-115706721D01*
X140475477Y-115638199D01*
X140326592Y-115538717D01*
X140199985Y-115412110D01*
X140100503Y-115263225D01*
X140031981Y-115097798D01*
X139997049Y-114922183D01*
X139997049Y-114743123D01*
X140031981Y-114567508D01*
X140100503Y-114402081D01*
X140199985Y-114253196D01*
X140326592Y-114126589D01*
X140475477Y-114027107D01*
X140640904Y-113958585D01*
X140816519Y-113923653D01*
X140995579Y-113923653D01*
X141171194Y-113958585D01*
X141171194Y-113958585D01*
G37*
G36*
X123745000Y-113694000D02*
X121627000Y-113694000D01*
X121627000Y-111576000D01*
X123745000Y-111576000D01*
X123745000Y-113694000D01*
X123745000Y-113694000D01*
G37*
G36*
X130061049Y-113480653D02*
X128759049Y-113480653D01*
X128759049Y-112628653D01*
X130061049Y-112628653D01*
X130061049Y-113480653D01*
X130061049Y-113480653D01*
G37*
G36*
X132733049Y-113480653D02*
X131431049Y-113480653D01*
X131431049Y-112628653D01*
X132733049Y-112628653D01*
X132733049Y-113480653D01*
X132733049Y-113480653D01*
G37*
G36*
X134633049Y-113480653D02*
X133331049Y-113480653D01*
X133331049Y-112628653D01*
X134633049Y-112628653D01*
X134633049Y-113480653D01*
X134633049Y-113480653D01*
G37*
G36*
X128161049Y-113480653D02*
X126859049Y-113480653D01*
X126859049Y-112628653D01*
X128161049Y-112628653D01*
X128161049Y-113480653D01*
X128161049Y-113480653D01*
G37*
G36*
X141171194Y-111164585D02*
X141336621Y-111233107D01*
X141485506Y-111332589D01*
X141612113Y-111459196D01*
X141711595Y-111608081D01*
X141780117Y-111773508D01*
X141815049Y-111949123D01*
X141815049Y-112128183D01*
X141780117Y-112303798D01*
X141711595Y-112469225D01*
X141612113Y-112618110D01*
X141485506Y-112744717D01*
X141336621Y-112844199D01*
X141171194Y-112912721D01*
X140995579Y-112947653D01*
X140816519Y-112947653D01*
X140640904Y-112912721D01*
X140475477Y-112844199D01*
X140326592Y-112744717D01*
X140199985Y-112618110D01*
X140100503Y-112469225D01*
X140031981Y-112303798D01*
X139997049Y-112128183D01*
X139997049Y-111949123D01*
X140031981Y-111773508D01*
X140100503Y-111608081D01*
X140199985Y-111459196D01*
X140326592Y-111332589D01*
X140475477Y-111233107D01*
X140640904Y-111164585D01*
X140816519Y-111129653D01*
X140995579Y-111129653D01*
X141171194Y-111164585D01*
X141171194Y-111164585D01*
G37*
G36*
X127945049Y-111757653D02*
X126943049Y-111757653D01*
X126943049Y-110455653D01*
X127945049Y-110455653D01*
X127945049Y-111757653D01*
X127945049Y-111757653D01*
G37*
G36*
X134041049Y-111757653D02*
X133039049Y-111757653D01*
X133039049Y-110455653D01*
X134041049Y-110455653D01*
X134041049Y-111757653D01*
X134041049Y-111757653D01*
G37*
G36*
X132517049Y-111757653D02*
X131515049Y-111757653D01*
X131515049Y-110455653D01*
X132517049Y-110455653D01*
X132517049Y-111757653D01*
X132517049Y-111757653D01*
G37*
G36*
X129469049Y-111757653D02*
X128467049Y-111757653D01*
X128467049Y-110455653D01*
X129469049Y-110455653D01*
X129469049Y-111757653D01*
X129469049Y-111757653D01*
G37*
G36*
X122994896Y-109076696D02*
X122994898Y-109076697D01*
X122994899Y-109076697D01*
X123187625Y-109156526D01*
X123360291Y-109271898D01*
X123361076Y-109272423D01*
X123508577Y-109419924D01*
X123508579Y-109419927D01*
X123624474Y-109593375D01*
X123695065Y-109763798D01*
X123704304Y-109786104D01*
X123745000Y-109990696D01*
X123745000Y-110199304D01*
X123709043Y-110380073D01*
X123704303Y-110403899D01*
X123624474Y-110596625D01*
X123593170Y-110643474D01*
X123508577Y-110770076D01*
X123361076Y-110917577D01*
X123361073Y-110917579D01*
X123187625Y-111033474D01*
X122994899Y-111113303D01*
X122994898Y-111113303D01*
X122994896Y-111113304D01*
X122790304Y-111154000D01*
X122581696Y-111154000D01*
X122377104Y-111113304D01*
X122377102Y-111113303D01*
X122377101Y-111113303D01*
X122184375Y-111033474D01*
X122010927Y-110917579D01*
X122010924Y-110917577D01*
X121863423Y-110770076D01*
X121778830Y-110643474D01*
X121747526Y-110596625D01*
X121667697Y-110403899D01*
X121662958Y-110380073D01*
X121627000Y-110199304D01*
X121627000Y-109990696D01*
X121667696Y-109786104D01*
X121676935Y-109763798D01*
X121747526Y-109593375D01*
X121863421Y-109419927D01*
X121863423Y-109419924D01*
X122010924Y-109272423D01*
X122011709Y-109271898D01*
X122184375Y-109156526D01*
X122377101Y-109076697D01*
X122377102Y-109076697D01*
X122377104Y-109076696D01*
X122581696Y-109036000D01*
X122790304Y-109036000D01*
X122994896Y-109076696D01*
X122994896Y-109076696D01*
G37*
G36*
X198193896Y-108686696D02*
X198193898Y-108686697D01*
X198193899Y-108686697D01*
X198386625Y-108766526D01*
X198559291Y-108881898D01*
X198560076Y-108882423D01*
X198707577Y-109029924D01*
X198707579Y-109029927D01*
X198823474Y-109203375D01*
X198852074Y-109272423D01*
X198903304Y-109396104D01*
X198944000Y-109600696D01*
X198944000Y-109809304D01*
X198907919Y-109990696D01*
X198903303Y-110013899D01*
X198823474Y-110206625D01*
X198712492Y-110372720D01*
X198707577Y-110380076D01*
X198560076Y-110527577D01*
X198560073Y-110527579D01*
X198386625Y-110643474D01*
X198193899Y-110723303D01*
X198193898Y-110723303D01*
X198193896Y-110723304D01*
X197989304Y-110764000D01*
X197780696Y-110764000D01*
X197576104Y-110723304D01*
X197576102Y-110723303D01*
X197576101Y-110723303D01*
X197383375Y-110643474D01*
X197209927Y-110527579D01*
X197209924Y-110527577D01*
X197062423Y-110380076D01*
X197057508Y-110372720D01*
X196946526Y-110206625D01*
X196866697Y-110013899D01*
X196862082Y-109990696D01*
X196826000Y-109809304D01*
X196826000Y-109600696D01*
X196866696Y-109396104D01*
X196917926Y-109272423D01*
X196946526Y-109203375D01*
X197062421Y-109029927D01*
X197062423Y-109029924D01*
X197209924Y-108882423D01*
X197210709Y-108881898D01*
X197383375Y-108766526D01*
X197576101Y-108686697D01*
X197576102Y-108686697D01*
X197576104Y-108686696D01*
X197780696Y-108646000D01*
X197989304Y-108646000D01*
X198193896Y-108686696D01*
X198193896Y-108686696D01*
G37*
G36*
X141171194Y-108624585D02*
X141336621Y-108693107D01*
X141485506Y-108792589D01*
X141612113Y-108919196D01*
X141711595Y-109068081D01*
X141780117Y-109233508D01*
X141815049Y-109409123D01*
X141815049Y-109588183D01*
X141780117Y-109763798D01*
X141711595Y-109929225D01*
X141612113Y-110078110D01*
X141485506Y-110204717D01*
X141336621Y-110304199D01*
X141171194Y-110372721D01*
X140995579Y-110407653D01*
X140816519Y-110407653D01*
X140640904Y-110372721D01*
X140475477Y-110304199D01*
X140326592Y-110204717D01*
X140199985Y-110078110D01*
X140100503Y-109929225D01*
X140031981Y-109763798D01*
X139997049Y-109588183D01*
X139997049Y-109409123D01*
X140031981Y-109233508D01*
X140100503Y-109068081D01*
X140199985Y-108919196D01*
X140326592Y-108792589D01*
X140475477Y-108693107D01*
X140640904Y-108624585D01*
X140816519Y-108589653D01*
X140995579Y-108589653D01*
X141171194Y-108624585D01*
X141171194Y-108624585D01*
G37*
G36*
X127945049Y-109557653D02*
X126943049Y-109557653D01*
X126943049Y-108255653D01*
X127945049Y-108255653D01*
X127945049Y-109557653D01*
X127945049Y-109557653D01*
G37*
G36*
X134041049Y-109557653D02*
X133039049Y-109557653D01*
X133039049Y-108255653D01*
X134041049Y-108255653D01*
X134041049Y-109557653D01*
X134041049Y-109557653D01*
G37*
G36*
X132517049Y-109557653D02*
X131515049Y-109557653D01*
X131515049Y-108255653D01*
X132517049Y-108255653D01*
X132517049Y-109557653D01*
X132517049Y-109557653D01*
G37*
G36*
X129469049Y-109557653D02*
X128467049Y-109557653D01*
X128467049Y-108255653D01*
X129469049Y-108255653D01*
X129469049Y-109557653D01*
X129469049Y-109557653D01*
G37*
G36*
X122994896Y-106536696D02*
X122994898Y-106536697D01*
X122994899Y-106536697D01*
X123187625Y-106616526D01*
X123360291Y-106731898D01*
X123361076Y-106732423D01*
X123508577Y-106879924D01*
X123508579Y-106879927D01*
X123624474Y-107053375D01*
X123695065Y-107223798D01*
X123704304Y-107246104D01*
X123745000Y-107450696D01*
X123745000Y-107659304D01*
X123709043Y-107840073D01*
X123704303Y-107863899D01*
X123624474Y-108056625D01*
X123593170Y-108103474D01*
X123508577Y-108230076D01*
X123361076Y-108377577D01*
X123361073Y-108377579D01*
X123187625Y-108493474D01*
X122994899Y-108573303D01*
X122994898Y-108573303D01*
X122994896Y-108573304D01*
X122790304Y-108614000D01*
X122581696Y-108614000D01*
X122377104Y-108573304D01*
X122377102Y-108573303D01*
X122377101Y-108573303D01*
X122184375Y-108493474D01*
X122010927Y-108377579D01*
X122010924Y-108377577D01*
X121863423Y-108230076D01*
X121778830Y-108103474D01*
X121747526Y-108056625D01*
X121667697Y-107863899D01*
X121662958Y-107840073D01*
X121627000Y-107659304D01*
X121627000Y-107450696D01*
X121667696Y-107246104D01*
X121676935Y-107223798D01*
X121747526Y-107053375D01*
X121863421Y-106879927D01*
X121863423Y-106879924D01*
X122010924Y-106732423D01*
X122011709Y-106731898D01*
X122184375Y-106616526D01*
X122377101Y-106536697D01*
X122377102Y-106536697D01*
X122377104Y-106536696D01*
X122581696Y-106496000D01*
X122790304Y-106496000D01*
X122994896Y-106536696D01*
X122994896Y-106536696D01*
G37*
G36*
X189181000Y-108555000D02*
X187879000Y-108555000D01*
X187879000Y-107553000D01*
X189181000Y-107553000D01*
X189181000Y-108555000D01*
X189181000Y-108555000D01*
G37*
G36*
X191381000Y-108555000D02*
X190079000Y-108555000D01*
X190079000Y-107553000D01*
X191381000Y-107553000D01*
X191381000Y-108555000D01*
X191381000Y-108555000D01*
G37*
G36*
X196481000Y-108281000D02*
X195479000Y-108281000D01*
X195479000Y-106979000D01*
X196481000Y-106979000D01*
X196481000Y-108281000D01*
X196481000Y-108281000D01*
G37*
G36*
X194576000Y-108281000D02*
X193574000Y-108281000D01*
X193574000Y-106979000D01*
X194576000Y-106979000D01*
X194576000Y-108281000D01*
X194576000Y-108281000D01*
G37*
G36*
X198193896Y-106146696D02*
X198193898Y-106146697D01*
X198193899Y-106146697D01*
X198386625Y-106226526D01*
X198559291Y-106341898D01*
X198560076Y-106342423D01*
X198707577Y-106489924D01*
X198707579Y-106489927D01*
X198823474Y-106663375D01*
X198852074Y-106732423D01*
X198903304Y-106856104D01*
X198944000Y-107060696D01*
X198944000Y-107269304D01*
X198907919Y-107450696D01*
X198903303Y-107473899D01*
X198823474Y-107666625D01*
X198712492Y-107832720D01*
X198707577Y-107840076D01*
X198560076Y-107987577D01*
X198560073Y-107987579D01*
X198386625Y-108103474D01*
X198193899Y-108183303D01*
X198193898Y-108183303D01*
X198193896Y-108183304D01*
X197989304Y-108224000D01*
X197780696Y-108224000D01*
X197576104Y-108183304D01*
X197576102Y-108183303D01*
X197576101Y-108183303D01*
X197383375Y-108103474D01*
X197209927Y-107987579D01*
X197209924Y-107987577D01*
X197062423Y-107840076D01*
X197057508Y-107832720D01*
X196946526Y-107666625D01*
X196866697Y-107473899D01*
X196862082Y-107450696D01*
X196826000Y-107269304D01*
X196826000Y-107060696D01*
X196866696Y-106856104D01*
X196917926Y-106732423D01*
X196946526Y-106663375D01*
X197062421Y-106489927D01*
X197062423Y-106489924D01*
X197209924Y-106342423D01*
X197210709Y-106341898D01*
X197383375Y-106226526D01*
X197576101Y-106146697D01*
X197576102Y-106146697D01*
X197576104Y-106146696D01*
X197780696Y-106106000D01*
X197989304Y-106106000D01*
X198193896Y-106146696D01*
X198193896Y-106146696D01*
G37*
G36*
X141171194Y-106084585D02*
X141336621Y-106153107D01*
X141485506Y-106252589D01*
X141612113Y-106379196D01*
X141711595Y-106528081D01*
X141780117Y-106693508D01*
X141815049Y-106869123D01*
X141815049Y-107048183D01*
X141780117Y-107223798D01*
X141711595Y-107389225D01*
X141612113Y-107538110D01*
X141485506Y-107664717D01*
X141336621Y-107764199D01*
X141171194Y-107832721D01*
X140995579Y-107867653D01*
X140816519Y-107867653D01*
X140640904Y-107832721D01*
X140475477Y-107764199D01*
X140326592Y-107664717D01*
X140199985Y-107538110D01*
X140100503Y-107389225D01*
X140031981Y-107223798D01*
X139997049Y-107048183D01*
X139997049Y-106869123D01*
X140031981Y-106693508D01*
X140100503Y-106528081D01*
X140199985Y-106379196D01*
X140326592Y-106252589D01*
X140475477Y-106153107D01*
X140640904Y-106084585D01*
X140816519Y-106049653D01*
X140995579Y-106049653D01*
X141171194Y-106084585D01*
X141171194Y-106084585D01*
G37*
G36*
X185686000Y-107011000D02*
X184684000Y-107011000D01*
X184684000Y-105709000D01*
X185686000Y-105709000D01*
X185686000Y-107011000D01*
X185686000Y-107011000D01*
G37*
G36*
X194576000Y-106081000D02*
X193574000Y-106081000D01*
X193574000Y-104779000D01*
X194576000Y-104779000D01*
X194576000Y-106081000D01*
X194576000Y-106081000D01*
G37*
G36*
X196481000Y-106081000D02*
X195479000Y-106081000D01*
X195479000Y-104779000D01*
X196481000Y-104779000D01*
X196481000Y-106081000D01*
X196481000Y-106081000D01*
G37*
G36*
X198944000Y-105684000D02*
X196826000Y-105684000D01*
X196826000Y-103566000D01*
X198944000Y-103566000D01*
X198944000Y-105684000D01*
X198944000Y-105684000D01*
G37*
G36*
X193131000Y-105611000D02*
X191529000Y-105611000D01*
X191529000Y-104909000D01*
X193131000Y-104909000D01*
X193131000Y-105611000D01*
X193131000Y-105611000D01*
G37*
G36*
X187731000Y-105611000D02*
X186129000Y-105611000D01*
X186129000Y-104909000D01*
X187731000Y-104909000D01*
X187731000Y-105611000D01*
X187731000Y-105611000D01*
G37*
G36*
X138189049Y-105098653D02*
X136887049Y-105098653D01*
X136887049Y-104246653D01*
X138189049Y-104246653D01*
X138189049Y-105098653D01*
X138189049Y-105098653D01*
G37*
G36*
X136289049Y-105098653D02*
X134987049Y-105098653D01*
X134987049Y-104246653D01*
X136289049Y-104246653D01*
X136289049Y-105098653D01*
X136289049Y-105098653D01*
G37*
G36*
X185686000Y-104811000D02*
X184684000Y-104811000D01*
X184684000Y-103509000D01*
X185686000Y-103509000D01*
X185686000Y-104811000D01*
X185686000Y-104811000D01*
G37*
G36*
X187731000Y-104341000D02*
X186129000Y-104341000D01*
X186129000Y-103639000D01*
X187731000Y-103639000D01*
X187731000Y-104341000D01*
X187731000Y-104341000D01*
G37*
G36*
X193131000Y-104341000D02*
X191529000Y-104341000D01*
X191529000Y-103639000D01*
X193131000Y-103639000D01*
X193131000Y-104341000D01*
X193131000Y-104341000D01*
G37*
G36*
X126891049Y-104082653D02*
X125589049Y-104082653D01*
X125589049Y-103230653D01*
X126891049Y-103230653D01*
X126891049Y-104082653D01*
X126891049Y-104082653D01*
G37*
G36*
X128791049Y-104082653D02*
X127489049Y-104082653D01*
X127489049Y-103230653D01*
X128791049Y-103230653D01*
X128791049Y-104082653D01*
X128791049Y-104082653D01*
G37*
G36*
X122994896Y-101456696D02*
X122994898Y-101456697D01*
X122994899Y-101456697D01*
X123187625Y-101536526D01*
X123356930Y-101649653D01*
X123361076Y-101652423D01*
X123508577Y-101799924D01*
X123508579Y-101799927D01*
X123624474Y-101973375D01*
X123704303Y-102166101D01*
X123704304Y-102166104D01*
X123745000Y-102370696D01*
X123745000Y-102579302D01*
X123704303Y-102783899D01*
X123624474Y-102976625D01*
X123561414Y-103071000D01*
X123508577Y-103150076D01*
X123361076Y-103297577D01*
X123361073Y-103297579D01*
X123187625Y-103413474D01*
X122994899Y-103493303D01*
X122994898Y-103493303D01*
X122994896Y-103493304D01*
X122790304Y-103534000D01*
X122581696Y-103534000D01*
X122377104Y-103493304D01*
X122377102Y-103493303D01*
X122377101Y-103493303D01*
X122184375Y-103413474D01*
X122010927Y-103297579D01*
X122010924Y-103297577D01*
X121863423Y-103150076D01*
X121810586Y-103071000D01*
X121747526Y-102976625D01*
X121667697Y-102783899D01*
X121627000Y-102579302D01*
X121627000Y-102370696D01*
X121667696Y-102166104D01*
X121667697Y-102166101D01*
X121747526Y-101973375D01*
X121863421Y-101799927D01*
X121863423Y-101799924D01*
X122010924Y-101652423D01*
X122015070Y-101649653D01*
X122184375Y-101536526D01*
X122377101Y-101456697D01*
X122377102Y-101456697D01*
X122377104Y-101456696D01*
X122581696Y-101416000D01*
X122790304Y-101416000D01*
X122994896Y-101456696D01*
X122994896Y-101456696D01*
G37*
G36*
X187731000Y-103071000D02*
X186129000Y-103071000D01*
X186129000Y-102369000D01*
X187731000Y-102369000D01*
X187731000Y-103071000D01*
X187731000Y-103071000D01*
G37*
G36*
X193131000Y-103071000D02*
X191529000Y-103071000D01*
X191529000Y-102369000D01*
X193131000Y-102369000D01*
X193131000Y-103071000D01*
X193131000Y-103071000D01*
G37*
G36*
X128707049Y-102951653D02*
X127705049Y-102951653D01*
X127705049Y-101649653D01*
X128707049Y-101649653D01*
X128707049Y-102951653D01*
X128707049Y-102951653D01*
G37*
G36*
X126929049Y-102951653D02*
X125927049Y-102951653D01*
X125927049Y-101649653D01*
X126929049Y-101649653D01*
X126929049Y-102951653D01*
X126929049Y-102951653D01*
G37*
G36*
X195046000Y-101876000D02*
X193744000Y-101876000D01*
X193744000Y-101024000D01*
X195046000Y-101024000D01*
X195046000Y-101876000D01*
X195046000Y-101876000D01*
G37*
G36*
X185516000Y-101876000D02*
X184214000Y-101876000D01*
X184214000Y-101024000D01*
X185516000Y-101024000D01*
X185516000Y-101876000D01*
X185516000Y-101876000D01*
G37*
G36*
X196946000Y-101876000D02*
X195644000Y-101876000D01*
X195644000Y-101024000D01*
X196946000Y-101024000D01*
X196946000Y-101876000D01*
X196946000Y-101876000D01*
G37*
G36*
X183616000Y-101876000D02*
X182314000Y-101876000D01*
X182314000Y-101024000D01*
X183616000Y-101024000D01*
X183616000Y-101876000D01*
X183616000Y-101876000D01*
G37*
G36*
X187731000Y-101801000D02*
X186129000Y-101801000D01*
X186129000Y-101099000D01*
X187731000Y-101099000D01*
X187731000Y-101801000D01*
X187731000Y-101801000D01*
G37*
G36*
X193131000Y-101801000D02*
X191529000Y-101801000D01*
X191529000Y-101099000D01*
X193131000Y-101099000D01*
X193131000Y-101801000D01*
X193131000Y-101801000D01*
G37*
G36*
X123745000Y-100994000D02*
X121627000Y-100994000D01*
X121627000Y-98876000D01*
X123745000Y-98876000D01*
X123745000Y-100994000D01*
X123745000Y-100994000D01*
G37*
G36*
X126929049Y-100751653D02*
X125927049Y-100751653D01*
X125927049Y-99449653D01*
X126929049Y-99449653D01*
X126929049Y-100751653D01*
X126929049Y-100751653D01*
G37*
G36*
X128707049Y-100751653D02*
X127705049Y-100751653D01*
X127705049Y-99449653D01*
X128707049Y-99449653D01*
X128707049Y-100751653D01*
X128707049Y-100751653D01*
G37*
G36*
X194576000Y-100661000D02*
X193574000Y-100661000D01*
X193574000Y-99359000D01*
X194576000Y-99359000D01*
X194576000Y-100661000D01*
X194576000Y-100661000D01*
G37*
G36*
X193131000Y-100531000D02*
X191529000Y-100531000D01*
X191529000Y-99829000D01*
X193131000Y-99829000D01*
X193131000Y-100531000D01*
X193131000Y-100531000D01*
G37*
G36*
X187731000Y-100531000D02*
X186129000Y-100531000D01*
X186129000Y-99829000D01*
X187731000Y-99829000D01*
X187731000Y-100531000D01*
X187731000Y-100531000D01*
G37*
G36*
X136289049Y-100526653D02*
X134987049Y-100526653D01*
X134987049Y-99674653D01*
X136289049Y-99674653D01*
X136289049Y-100526653D01*
X136289049Y-100526653D01*
G37*
G36*
X138189049Y-100526653D02*
X136887049Y-100526653D01*
X136887049Y-99674653D01*
X138189049Y-99674653D01*
X138189049Y-100526653D01*
X138189049Y-100526653D01*
G37*
G36*
X196481000Y-100026000D02*
X195479000Y-100026000D01*
X195479000Y-98724000D01*
X196481000Y-98724000D01*
X196481000Y-100026000D01*
X196481000Y-100026000D01*
G37*
G36*
X187731000Y-99261000D02*
X186129000Y-99261000D01*
X186129000Y-98559000D01*
X187731000Y-98559000D01*
X187731000Y-99261000D01*
X187731000Y-99261000D01*
G37*
G36*
X193131000Y-99261000D02*
X191529000Y-99261000D01*
X191529000Y-98559000D01*
X193131000Y-98559000D01*
X193131000Y-99261000D01*
X193131000Y-99261000D01*
G37*
G36*
X182783145Y-97400932D02*
X182948572Y-97469454D01*
X183097457Y-97568936D01*
X183224064Y-97695543D01*
X183323546Y-97844428D01*
X183392068Y-98009855D01*
X183427000Y-98185470D01*
X183427000Y-98364530D01*
X183392068Y-98540145D01*
X183323546Y-98705572D01*
X183224064Y-98854457D01*
X183097457Y-98981064D01*
X182948572Y-99080546D01*
X182783145Y-99149068D01*
X182607530Y-99184000D01*
X182428470Y-99184000D01*
X182252855Y-99149068D01*
X182087428Y-99080546D01*
X181938543Y-98981064D01*
X181811936Y-98854457D01*
X181712454Y-98705572D01*
X181643932Y-98540145D01*
X181609000Y-98364530D01*
X181609000Y-98185470D01*
X181643932Y-98009855D01*
X181712454Y-97844428D01*
X181811936Y-97695543D01*
X181938543Y-97568936D01*
X182087428Y-97469454D01*
X182252855Y-97400932D01*
X182428470Y-97366000D01*
X182607530Y-97366000D01*
X182783145Y-97400932D01*
X182783145Y-97400932D01*
G37*
G36*
X147335145Y-96774932D02*
X147500572Y-96843454D01*
X147649457Y-96942936D01*
X147776064Y-97069543D01*
X147875546Y-97218428D01*
X147944068Y-97383855D01*
X147979000Y-97559470D01*
X147979000Y-97738530D01*
X147944068Y-97914145D01*
X147875546Y-98079572D01*
X147776064Y-98228457D01*
X147649457Y-98355064D01*
X147500572Y-98454546D01*
X147335145Y-98523068D01*
X147159530Y-98558000D01*
X146980470Y-98558000D01*
X146804855Y-98523068D01*
X146639428Y-98454546D01*
X146490543Y-98355064D01*
X146363936Y-98228457D01*
X146264454Y-98079572D01*
X146195932Y-97914145D01*
X146161000Y-97738530D01*
X146161000Y-97559470D01*
X146195932Y-97383855D01*
X146264454Y-97218428D01*
X146363936Y-97069543D01*
X146490543Y-96942936D01*
X146639428Y-96843454D01*
X146804855Y-96774932D01*
X146980470Y-96740000D01*
X147159530Y-96740000D01*
X147335145Y-96774932D01*
X147335145Y-96774932D01*
G37*
G36*
X137819520Y-98555460D02*
X136001520Y-98555460D01*
X136001520Y-96737460D01*
X137819520Y-96737460D01*
X137819520Y-98555460D01*
X137819520Y-98555460D01*
G37*
G36*
X194576000Y-98461000D02*
X193574000Y-98461000D01*
X193574000Y-97159000D01*
X194576000Y-97159000D01*
X194576000Y-98461000D01*
X194576000Y-98461000D01*
G37*
G36*
X187731000Y-97991000D02*
X186129000Y-97991000D01*
X186129000Y-97289000D01*
X187731000Y-97289000D01*
X187731000Y-97991000D01*
X187731000Y-97991000D01*
G37*
G36*
X193131000Y-97991000D02*
X191529000Y-97991000D01*
X191529000Y-97289000D01*
X193131000Y-97289000D01*
X193131000Y-97991000D01*
X193131000Y-97991000D01*
G37*
G36*
X196481000Y-97826000D02*
X195479000Y-97826000D01*
X195479000Y-96524000D01*
X196481000Y-96524000D01*
X196481000Y-97826000D01*
X196481000Y-97826000D01*
G37*
G36*
X132517049Y-97533653D02*
X131515049Y-97533653D01*
X131515049Y-96231653D01*
X132517049Y-96231653D01*
X132517049Y-97533653D01*
X132517049Y-97533653D01*
G37*
G36*
X130739049Y-97533653D02*
X129737049Y-97533653D01*
X129737049Y-96231653D01*
X130739049Y-96231653D01*
X130739049Y-97533653D01*
X130739049Y-97533653D01*
G37*
G36*
X182783145Y-94860932D02*
X182948572Y-94929454D01*
X183097457Y-95028936D01*
X183224064Y-95155543D01*
X183323546Y-95304428D01*
X183392068Y-95469855D01*
X183427000Y-95645470D01*
X183427000Y-95824530D01*
X183392068Y-96000145D01*
X183323546Y-96165572D01*
X183224064Y-96314457D01*
X183097457Y-96441064D01*
X182948572Y-96540546D01*
X182783145Y-96609068D01*
X182607530Y-96644000D01*
X182428470Y-96644000D01*
X182252855Y-96609068D01*
X182087428Y-96540546D01*
X181938543Y-96441064D01*
X181811936Y-96314457D01*
X181712454Y-96165572D01*
X181643932Y-96000145D01*
X181609000Y-95824530D01*
X181609000Y-95645470D01*
X181643932Y-95469855D01*
X181712454Y-95304428D01*
X181811936Y-95155543D01*
X181938543Y-95028936D01*
X182087428Y-94929454D01*
X182252855Y-94860932D01*
X182428470Y-94826000D01*
X182607530Y-94826000D01*
X182783145Y-94860932D01*
X182783145Y-94860932D01*
G37*
G36*
X187401000Y-96236000D02*
X186099000Y-96236000D01*
X186099000Y-95234000D01*
X187401000Y-95234000D01*
X187401000Y-96236000D01*
X187401000Y-96236000D01*
G37*
G36*
X185201000Y-96236000D02*
X183899000Y-96236000D01*
X183899000Y-95234000D01*
X185201000Y-95234000D01*
X185201000Y-96236000D01*
X185201000Y-96236000D01*
G37*
G36*
X191381000Y-96236000D02*
X190079000Y-96236000D01*
X190079000Y-95234000D01*
X191381000Y-95234000D01*
X191381000Y-96236000D01*
X191381000Y-96236000D01*
G37*
G36*
X189181000Y-96236000D02*
X187879000Y-96236000D01*
X187879000Y-95234000D01*
X189181000Y-95234000D01*
X189181000Y-96236000D01*
X189181000Y-96236000D01*
G37*
G36*
X196572065Y-93604539D02*
X196572067Y-93604540D01*
X196572068Y-93604540D01*
X196782992Y-93691907D01*
X196863947Y-93746000D01*
X196972822Y-93818748D01*
X197134252Y-93980178D01*
X197134254Y-93980181D01*
X197261093Y-94170008D01*
X197348460Y-94380932D01*
X197348461Y-94380935D01*
X197393000Y-94604847D01*
X197393000Y-94833153D01*
X197354057Y-95028934D01*
X197348460Y-95057068D01*
X197261093Y-95267992D01*
X197261092Y-95267993D01*
X197134252Y-95457822D01*
X196972822Y-95619252D01*
X196972819Y-95619254D01*
X196782992Y-95746093D01*
X196572068Y-95833460D01*
X196572067Y-95833460D01*
X196572065Y-95833461D01*
X196348153Y-95878000D01*
X196119847Y-95878000D01*
X195895935Y-95833461D01*
X195895933Y-95833460D01*
X195895932Y-95833460D01*
X195685008Y-95746093D01*
X195495181Y-95619254D01*
X195495178Y-95619252D01*
X195333748Y-95457822D01*
X195206908Y-95267993D01*
X195206907Y-95267992D01*
X195119540Y-95057068D01*
X195113944Y-95028934D01*
X195075000Y-94833153D01*
X195075000Y-94604847D01*
X195119539Y-94380935D01*
X195119540Y-94380932D01*
X195206907Y-94170008D01*
X195333746Y-93980181D01*
X195333748Y-93980178D01*
X195495178Y-93818748D01*
X195604053Y-93746000D01*
X195685008Y-93691907D01*
X195895932Y-93604540D01*
X195895933Y-93604540D01*
X195895935Y-93604539D01*
X196119847Y-93560000D01*
X196348153Y-93560000D01*
X196572065Y-93604539D01*
X196572065Y-93604539D01*
G37*
G36*
X132517049Y-95333653D02*
X131515049Y-95333653D01*
X131515049Y-94031653D01*
X132517049Y-94031653D01*
X132517049Y-95333653D01*
X132517049Y-95333653D01*
G37*
G36*
X130739049Y-95333653D02*
X129737049Y-95333653D01*
X129737049Y-94031653D01*
X130739049Y-94031653D01*
X130739049Y-95333653D01*
X130739049Y-95333653D01*
G37*
G36*
X182783145Y-92320932D02*
X182948572Y-92389454D01*
X183097457Y-92488936D01*
X183224064Y-92615543D01*
X183323546Y-92764428D01*
X183392068Y-92929855D01*
X183427000Y-93105470D01*
X183427000Y-93284530D01*
X183392068Y-93460145D01*
X183323546Y-93625572D01*
X183224064Y-93774457D01*
X183097457Y-93901064D01*
X182948572Y-94000546D01*
X182783145Y-94069068D01*
X182607530Y-94104000D01*
X182428470Y-94104000D01*
X182252855Y-94069068D01*
X182087428Y-94000546D01*
X181938543Y-93901064D01*
X181811936Y-93774457D01*
X181712454Y-93625572D01*
X181643932Y-93460145D01*
X181609000Y-93284530D01*
X181609000Y-93105470D01*
X181643932Y-92929855D01*
X181712454Y-92764428D01*
X181811936Y-92615543D01*
X181938543Y-92488936D01*
X182087428Y-92389454D01*
X182252855Y-92320932D01*
X182428470Y-92286000D01*
X182607530Y-92286000D01*
X182783145Y-92320932D01*
X182783145Y-92320932D01*
G37*
G36*
X105356896Y-91668696D02*
X105356898Y-91668697D01*
X105356899Y-91668697D01*
X105549625Y-91748526D01*
X105722291Y-91863898D01*
X105723076Y-91864423D01*
X105870577Y-92011924D01*
X105870579Y-92011927D01*
X105986474Y-92185375D01*
X106042623Y-92320932D01*
X106066304Y-92378104D01*
X106107000Y-92582696D01*
X106107000Y-92791304D01*
X106091565Y-92868903D01*
X106066303Y-92995899D01*
X105986474Y-93188625D01*
X105920252Y-93287732D01*
X105870577Y-93362076D01*
X105723076Y-93509577D01*
X105723073Y-93509579D01*
X105549625Y-93625474D01*
X105356899Y-93705303D01*
X105356898Y-93705303D01*
X105356896Y-93705304D01*
X105152304Y-93746000D01*
X104943696Y-93746000D01*
X104739104Y-93705304D01*
X104739102Y-93705303D01*
X104739101Y-93705303D01*
X104546375Y-93625474D01*
X104372927Y-93509579D01*
X104372924Y-93509577D01*
X104225423Y-93362076D01*
X104175748Y-93287732D01*
X104109526Y-93188625D01*
X104029697Y-92995899D01*
X104004436Y-92868903D01*
X103989000Y-92791304D01*
X103989000Y-92582696D01*
X104029696Y-92378104D01*
X104053377Y-92320932D01*
X104109526Y-92185375D01*
X104225421Y-92011927D01*
X104225423Y-92011924D01*
X104372924Y-91864423D01*
X104373709Y-91863898D01*
X104546375Y-91748526D01*
X104739101Y-91668697D01*
X104739102Y-91668697D01*
X104739104Y-91668696D01*
X104943696Y-91628000D01*
X105152304Y-91628000D01*
X105356896Y-91668696D01*
X105356896Y-91668696D01*
G37*
G36*
X191367517Y-92237130D02*
X191500732Y-92292309D01*
X191620626Y-92372420D01*
X191722580Y-92474374D01*
X191802691Y-92594268D01*
X191857870Y-92727483D01*
X191886000Y-92868903D01*
X191886000Y-93013097D01*
X191857870Y-93154517D01*
X191802691Y-93287732D01*
X191722580Y-93407626D01*
X191620626Y-93509580D01*
X191500732Y-93589691D01*
X191367517Y-93644870D01*
X191226097Y-93673000D01*
X191081903Y-93673000D01*
X190940483Y-93644870D01*
X190807268Y-93589691D01*
X190687374Y-93509580D01*
X190585420Y-93407626D01*
X190505309Y-93287732D01*
X190450130Y-93154517D01*
X190422000Y-93013097D01*
X190422000Y-92868903D01*
X190450130Y-92727483D01*
X190505309Y-92594268D01*
X190585420Y-92474374D01*
X190687374Y-92372420D01*
X190807268Y-92292309D01*
X190940483Y-92237130D01*
X191081903Y-92209000D01*
X191226097Y-92209000D01*
X191367517Y-92237130D01*
X191367517Y-92237130D01*
G37*
G36*
X187303517Y-92237130D02*
X187436732Y-92292309D01*
X187556626Y-92372420D01*
X187658580Y-92474374D01*
X187738691Y-92594268D01*
X187793870Y-92727483D01*
X187822000Y-92868903D01*
X187822000Y-93013097D01*
X187793870Y-93154517D01*
X187738691Y-93287732D01*
X187658580Y-93407626D01*
X187556626Y-93509580D01*
X187436732Y-93589691D01*
X187303517Y-93644870D01*
X187162097Y-93673000D01*
X187017903Y-93673000D01*
X186876483Y-93644870D01*
X186743268Y-93589691D01*
X186623374Y-93509580D01*
X186521420Y-93407626D01*
X186441309Y-93287732D01*
X186386130Y-93154517D01*
X186358000Y-93013097D01*
X186358000Y-92868903D01*
X186386130Y-92727483D01*
X186441309Y-92594268D01*
X186521420Y-92474374D01*
X186623374Y-92372420D01*
X186743268Y-92292309D01*
X186876483Y-92237130D01*
X187017903Y-92209000D01*
X187162097Y-92209000D01*
X187303517Y-92237130D01*
X187303517Y-92237130D01*
G37*
G36*
X132601049Y-93414653D02*
X131299049Y-93414653D01*
X131299049Y-92562653D01*
X132601049Y-92562653D01*
X132601049Y-93414653D01*
X132601049Y-93414653D01*
G37*
G36*
X130701049Y-93414653D02*
X129399049Y-93414653D01*
X129399049Y-92562653D01*
X130701049Y-92562653D01*
X130701049Y-93414653D01*
X130701049Y-93414653D01*
G37*
G36*
X106107000Y-91206000D02*
X103989000Y-91206000D01*
X103989000Y-89088000D01*
X106107000Y-89088000D01*
X106107000Y-91206000D01*
X106107000Y-91206000D01*
G37*
G36*
X187303517Y-89697130D02*
X187436732Y-89752309D01*
X187556626Y-89832420D01*
X187658580Y-89934374D01*
X187738691Y-90054268D01*
X187793870Y-90187483D01*
X187822000Y-90328903D01*
X187822000Y-90473097D01*
X187793870Y-90614517D01*
X187738691Y-90747732D01*
X187658580Y-90867626D01*
X187556626Y-90969580D01*
X187436732Y-91049691D01*
X187303517Y-91104870D01*
X187162097Y-91133000D01*
X187017903Y-91133000D01*
X186876483Y-91104870D01*
X186743268Y-91049691D01*
X186623374Y-90969580D01*
X186521420Y-90867626D01*
X186441309Y-90747732D01*
X186386130Y-90614517D01*
X186358000Y-90473097D01*
X186358000Y-90328903D01*
X186386130Y-90187483D01*
X186441309Y-90054268D01*
X186521420Y-89934374D01*
X186623374Y-89832420D01*
X186743268Y-89752309D01*
X186876483Y-89697130D01*
X187017903Y-89669000D01*
X187162097Y-89669000D01*
X187303517Y-89697130D01*
X187303517Y-89697130D01*
G37*
G36*
X191367517Y-89697130D02*
X191500732Y-89752309D01*
X191620626Y-89832420D01*
X191722580Y-89934374D01*
X191802691Y-90054268D01*
X191857870Y-90187483D01*
X191886000Y-90328903D01*
X191886000Y-90473097D01*
X191857870Y-90614517D01*
X191802691Y-90747732D01*
X191722580Y-90867626D01*
X191620626Y-90969580D01*
X191500732Y-91049691D01*
X191367517Y-91104870D01*
X191226097Y-91133000D01*
X191081903Y-91133000D01*
X190940483Y-91104870D01*
X190807268Y-91049691D01*
X190687374Y-90969580D01*
X190585420Y-90867626D01*
X190505309Y-90747732D01*
X190450130Y-90614517D01*
X190422000Y-90473097D01*
X190422000Y-90328903D01*
X190450130Y-90187483D01*
X190505309Y-90054268D01*
X190585420Y-89934374D01*
X190687374Y-89832420D01*
X190807268Y-89752309D01*
X190940483Y-89697130D01*
X191081903Y-89669000D01*
X191226097Y-89669000D01*
X191367517Y-89697130D01*
X191367517Y-89697130D01*
G37*
G36*
X197393000Y-90798000D02*
X195075000Y-90798000D01*
X195075000Y-88480000D01*
X197393000Y-88480000D01*
X197393000Y-90798000D01*
X197393000Y-90798000D01*
G37*
G36*
X107901000Y-88362000D02*
X106599000Y-88362000D01*
X106599000Y-87360000D01*
X107901000Y-87360000D01*
X107901000Y-88362000D01*
X107901000Y-88362000D01*
G37*
G36*
X110101000Y-88362000D02*
X108799000Y-88362000D01*
X108799000Y-87360000D01*
X110101000Y-87360000D01*
X110101000Y-88362000D01*
X110101000Y-88362000D01*
G37*
G36*
X107581000Y-83883000D02*
X107583402Y-83907386D01*
X107590515Y-83930835D01*
X107602066Y-83952446D01*
X107617612Y-83971388D01*
X107636554Y-83986934D01*
X107658165Y-83998485D01*
X107681614Y-84005598D01*
X107706000Y-84008000D01*
X109917000Y-84008000D01*
X109917000Y-86126000D01*
X107706000Y-86126000D01*
X107681614Y-86128402D01*
X107658165Y-86135515D01*
X107636554Y-86147066D01*
X107617612Y-86162612D01*
X107602066Y-86181554D01*
X107590515Y-86203165D01*
X107583402Y-86226614D01*
X107581000Y-86251000D01*
X107581000Y-87072000D01*
X106579000Y-87072000D01*
X106579000Y-85770000D01*
X107674000Y-85770000D01*
X107698386Y-85767598D01*
X107721835Y-85760485D01*
X107743446Y-85748934D01*
X107762388Y-85733388D01*
X107777934Y-85714446D01*
X107789485Y-85692835D01*
X107796598Y-85669386D01*
X107799000Y-85645000D01*
X107799000Y-84997000D01*
X107796598Y-84972614D01*
X107789485Y-84949165D01*
X107777934Y-84927554D01*
X107762388Y-84908612D01*
X107743446Y-84893066D01*
X107721835Y-84881515D01*
X107698386Y-84874402D01*
X107674000Y-84872000D01*
X106579000Y-84872000D01*
X106579000Y-83570000D01*
X107581000Y-83570000D01*
X107581000Y-83883000D01*
X107581000Y-83883000D01*
G37*
G36*
X123507000Y-86974000D02*
X122205000Y-86974000D01*
X122205000Y-85972000D01*
X123507000Y-85972000D01*
X123507000Y-86974000D01*
X123507000Y-86974000D01*
G37*
G36*
X125707000Y-86974000D02*
X124405000Y-86974000D01*
X124405000Y-85972000D01*
X125707000Y-85972000D01*
X125707000Y-86974000D01*
X125707000Y-86974000D01*
G37*
G36*
X121389000Y-86974000D02*
X120087000Y-86974000D01*
X120087000Y-85972000D01*
X121389000Y-85972000D01*
X121389000Y-86974000D01*
X121389000Y-86974000D01*
G37*
G36*
X119189000Y-86974000D02*
X117887000Y-86974000D01*
X117887000Y-85972000D01*
X119189000Y-85972000D01*
X119189000Y-86974000D01*
X119189000Y-86974000D01*
G37*
G36*
X111391000Y-86902000D02*
X110389000Y-86902000D01*
X110389000Y-85600000D01*
X111391000Y-85600000D01*
X111391000Y-86902000D01*
X111391000Y-86902000D01*
G37*
G36*
X113131000Y-86509000D02*
X111829000Y-86509000D01*
X111829000Y-85657000D01*
X113131000Y-85657000D01*
X113131000Y-86509000D01*
X113131000Y-86509000D01*
G37*
G36*
X115031000Y-86509000D02*
X113729000Y-86509000D01*
X113729000Y-85657000D01*
X115031000Y-85657000D01*
X115031000Y-86509000D01*
X115031000Y-86509000D01*
G37*
G36*
X105356896Y-84048696D02*
X105356898Y-84048697D01*
X105356899Y-84048697D01*
X105549625Y-84128526D01*
X105705835Y-84232903D01*
X105723076Y-84244423D01*
X105870577Y-84391924D01*
X105870579Y-84391927D01*
X105986474Y-84565375D01*
X106043065Y-84702000D01*
X106066304Y-84758104D01*
X106107000Y-84962696D01*
X106107000Y-85171302D01*
X106066303Y-85375899D01*
X105986474Y-85568625D01*
X105927423Y-85657000D01*
X105870577Y-85742076D01*
X105723076Y-85889577D01*
X105723073Y-85889579D01*
X105549625Y-86005474D01*
X105356899Y-86085303D01*
X105356898Y-86085303D01*
X105356896Y-86085304D01*
X105152304Y-86126000D01*
X104943696Y-86126000D01*
X104739104Y-86085304D01*
X104739102Y-86085303D01*
X104739101Y-86085303D01*
X104546375Y-86005474D01*
X104372927Y-85889579D01*
X104372924Y-85889577D01*
X104225423Y-85742076D01*
X104168577Y-85657000D01*
X104109526Y-85568625D01*
X104029697Y-85375899D01*
X103989000Y-85171302D01*
X103989000Y-84962696D01*
X104029696Y-84758104D01*
X104052935Y-84702000D01*
X104109526Y-84565375D01*
X104225421Y-84391927D01*
X104225423Y-84391924D01*
X104372924Y-84244423D01*
X104390165Y-84232903D01*
X104546375Y-84128526D01*
X104739101Y-84048697D01*
X104739102Y-84048697D01*
X104739104Y-84048696D01*
X104943696Y-84008000D01*
X105152304Y-84008000D01*
X105356896Y-84048696D01*
X105356896Y-84048696D01*
G37*
G36*
X197393000Y-85718000D02*
X195075000Y-85718000D01*
X195075000Y-83400000D01*
X197393000Y-83400000D01*
X197393000Y-85718000D01*
X197393000Y-85718000D01*
G37*
G36*
X191367517Y-83601130D02*
X191500732Y-83656309D01*
X191620626Y-83736420D01*
X191722580Y-83838374D01*
X191802691Y-83958268D01*
X191857870Y-84091483D01*
X191886000Y-84232903D01*
X191886000Y-84377097D01*
X191857870Y-84518517D01*
X191802691Y-84651732D01*
X191722580Y-84771626D01*
X191620626Y-84873580D01*
X191500732Y-84953691D01*
X191367517Y-85008870D01*
X191226097Y-85037000D01*
X191081903Y-85037000D01*
X190940483Y-85008870D01*
X190807268Y-84953691D01*
X190687374Y-84873580D01*
X190585420Y-84771626D01*
X190505309Y-84651732D01*
X190450130Y-84518517D01*
X190422000Y-84377097D01*
X190422000Y-84232903D01*
X190450130Y-84091483D01*
X190505309Y-83958268D01*
X190585420Y-83838374D01*
X190687374Y-83736420D01*
X190807268Y-83656309D01*
X190940483Y-83601130D01*
X191081903Y-83573000D01*
X191226097Y-83573000D01*
X191367517Y-83601130D01*
X191367517Y-83601130D01*
G37*
G36*
X187303517Y-83601130D02*
X187436732Y-83656309D01*
X187556626Y-83736420D01*
X187658580Y-83838374D01*
X187738691Y-83958268D01*
X187793870Y-84091483D01*
X187822000Y-84232903D01*
X187822000Y-84377097D01*
X187793870Y-84518517D01*
X187738691Y-84651732D01*
X187658580Y-84771626D01*
X187556626Y-84873580D01*
X187436732Y-84953691D01*
X187303517Y-85008870D01*
X187162097Y-85037000D01*
X187017903Y-85037000D01*
X186876483Y-85008870D01*
X186743268Y-84953691D01*
X186623374Y-84873580D01*
X186521420Y-84771626D01*
X186441309Y-84651732D01*
X186386130Y-84518517D01*
X186358000Y-84377097D01*
X186358000Y-84232903D01*
X186386130Y-84091483D01*
X186441309Y-83958268D01*
X186521420Y-83838374D01*
X186623374Y-83736420D01*
X186743268Y-83656309D01*
X186876483Y-83601130D01*
X187017903Y-83573000D01*
X187162097Y-83573000D01*
X187303517Y-83601130D01*
X187303517Y-83601130D01*
G37*
G36*
X123335000Y-84942000D02*
X122033000Y-84942000D01*
X122033000Y-83940000D01*
X123335000Y-83940000D01*
X123335000Y-84942000D01*
X123335000Y-84942000D01*
G37*
G36*
X121135000Y-84942000D02*
X119833000Y-84942000D01*
X119833000Y-83940000D01*
X121135000Y-83940000D01*
X121135000Y-84942000D01*
X121135000Y-84942000D01*
G37*
G36*
X111391000Y-84702000D02*
X110389000Y-84702000D01*
X110389000Y-83400000D01*
X111391000Y-83400000D01*
X111391000Y-84702000D01*
X111391000Y-84702000D01*
G37*
G36*
X119207000Y-84613000D02*
X117905000Y-84613000D01*
X117905000Y-83761000D01*
X119207000Y-83761000D01*
X119207000Y-84613000D01*
X119207000Y-84613000D01*
G37*
G36*
X117307000Y-84613000D02*
X116005000Y-84613000D01*
X116005000Y-83761000D01*
X117307000Y-83761000D01*
X117307000Y-84613000D01*
X117307000Y-84613000D01*
G37*
G36*
X106107000Y-83586000D02*
X103989000Y-83586000D01*
X103989000Y-81468000D01*
X106107000Y-81468000D01*
X106107000Y-83586000D01*
X106107000Y-83586000D01*
G37*
G36*
X109166896Y-81508696D02*
X109166898Y-81508697D01*
X109166899Y-81508697D01*
X109359625Y-81588526D01*
X109515835Y-81692903D01*
X109533076Y-81704423D01*
X109680577Y-81851924D01*
X109680579Y-81851927D01*
X109796474Y-82025375D01*
X109853065Y-82162000D01*
X109876304Y-82218104D01*
X109917000Y-82422696D01*
X109917000Y-82631304D01*
X109887402Y-82780104D01*
X109876303Y-82835899D01*
X109796474Y-83028625D01*
X109706019Y-83164000D01*
X109680577Y-83202076D01*
X109533076Y-83349577D01*
X109533073Y-83349579D01*
X109359625Y-83465474D01*
X109166899Y-83545303D01*
X109166898Y-83545303D01*
X109166896Y-83545304D01*
X108962304Y-83586000D01*
X108753696Y-83586000D01*
X108549104Y-83545304D01*
X108549102Y-83545303D01*
X108549101Y-83545303D01*
X108356375Y-83465474D01*
X108182927Y-83349579D01*
X108182924Y-83349577D01*
X108035423Y-83202076D01*
X108009981Y-83164000D01*
X107919526Y-83028625D01*
X107839697Y-82835899D01*
X107833449Y-82804490D01*
X107828598Y-82780104D01*
X107821485Y-82756655D01*
X107809934Y-82735044D01*
X107794389Y-82716102D01*
X107775447Y-82700556D01*
X107753836Y-82689005D01*
X107730387Y-82681892D01*
X107706000Y-82679490D01*
X107681614Y-82681892D01*
X107658165Y-82689005D01*
X107636554Y-82700556D01*
X107617612Y-82716101D01*
X107602066Y-82735043D01*
X107590515Y-82756654D01*
X107583402Y-82780103D01*
X107581000Y-82804490D01*
X107581000Y-83008000D01*
X106579000Y-83008000D01*
X106579000Y-81706000D01*
X107581000Y-81706000D01*
X107581000Y-82249510D01*
X107583402Y-82273896D01*
X107590515Y-82297345D01*
X107602066Y-82318956D01*
X107617612Y-82337898D01*
X107636554Y-82353444D01*
X107658165Y-82364995D01*
X107681614Y-82372108D01*
X107706000Y-82374510D01*
X107730386Y-82372108D01*
X107753835Y-82364995D01*
X107775446Y-82353444D01*
X107794388Y-82337898D01*
X107809934Y-82318956D01*
X107821485Y-82297345D01*
X107828598Y-82273896D01*
X107839696Y-82218104D01*
X107862935Y-82162000D01*
X107919526Y-82025375D01*
X108035421Y-81851927D01*
X108035423Y-81851924D01*
X108182924Y-81704423D01*
X108200165Y-81692903D01*
X108356375Y-81588526D01*
X108549101Y-81508697D01*
X108549102Y-81508697D01*
X108549104Y-81508696D01*
X108753696Y-81468000D01*
X108962304Y-81468000D01*
X109166896Y-81508696D01*
X109166896Y-81508696D01*
G37*
G36*
X122999000Y-83164000D02*
X121697000Y-83164000D01*
X121697000Y-82162000D01*
X122999000Y-82162000D01*
X122999000Y-83164000D01*
X122999000Y-83164000D01*
G37*
G36*
X121135000Y-83164000D02*
X119833000Y-83164000D01*
X119833000Y-82162000D01*
X121135000Y-82162000D01*
X121135000Y-83164000D01*
X121135000Y-83164000D01*
G37*
G36*
X118935000Y-83164000D02*
X117633000Y-83164000D01*
X117633000Y-82162000D01*
X118935000Y-82162000D01*
X118935000Y-83164000D01*
X118935000Y-83164000D01*
G37*
G36*
X125199000Y-83164000D02*
X123897000Y-83164000D01*
X123897000Y-82162000D01*
X125199000Y-82162000D01*
X125199000Y-83164000D01*
X125199000Y-83164000D01*
G37*
G36*
X113169000Y-82838000D02*
X112167000Y-82838000D01*
X112167000Y-81536000D01*
X113169000Y-81536000D01*
X113169000Y-82838000D01*
X113169000Y-82838000D01*
G37*
G36*
X111316000Y-82670000D02*
X110464000Y-82670000D01*
X110464000Y-81368000D01*
X111316000Y-81368000D01*
X111316000Y-82670000D01*
X111316000Y-82670000D01*
G37*
G36*
X187303517Y-81061130D02*
X187436732Y-81116309D01*
X187556626Y-81196420D01*
X187658580Y-81298374D01*
X187738691Y-81418268D01*
X187793870Y-81551483D01*
X187822000Y-81692903D01*
X187822000Y-81837097D01*
X187793870Y-81978517D01*
X187738691Y-82111732D01*
X187658580Y-82231626D01*
X187556626Y-82333580D01*
X187436732Y-82413691D01*
X187303517Y-82468870D01*
X187162097Y-82497000D01*
X187017903Y-82497000D01*
X186876483Y-82468870D01*
X186743268Y-82413691D01*
X186623374Y-82333580D01*
X186521420Y-82231626D01*
X186441309Y-82111732D01*
X186386130Y-81978517D01*
X186358000Y-81837097D01*
X186358000Y-81692903D01*
X186386130Y-81551483D01*
X186441309Y-81418268D01*
X186521420Y-81298374D01*
X186623374Y-81196420D01*
X186743268Y-81116309D01*
X186876483Y-81061130D01*
X187017903Y-81033000D01*
X187162097Y-81033000D01*
X187303517Y-81061130D01*
X187303517Y-81061130D01*
G37*
G36*
X191367517Y-81061130D02*
X191500732Y-81116309D01*
X191620626Y-81196420D01*
X191722580Y-81298374D01*
X191802691Y-81418268D01*
X191857870Y-81551483D01*
X191886000Y-81692903D01*
X191886000Y-81837097D01*
X191857870Y-81978517D01*
X191802691Y-82111732D01*
X191722580Y-82231626D01*
X191620626Y-82333580D01*
X191500732Y-82413691D01*
X191367517Y-82468870D01*
X191226097Y-82497000D01*
X191081903Y-82497000D01*
X190940483Y-82468870D01*
X190807268Y-82413691D01*
X190687374Y-82333580D01*
X190585420Y-82231626D01*
X190505309Y-82111732D01*
X190450130Y-81978517D01*
X190422000Y-81837097D01*
X190422000Y-81692903D01*
X190450130Y-81551483D01*
X190505309Y-81418268D01*
X190585420Y-81298374D01*
X190687374Y-81196420D01*
X190807268Y-81116309D01*
X190940483Y-81061130D01*
X191081903Y-81033000D01*
X191226097Y-81033000D01*
X191367517Y-81061130D01*
X191367517Y-81061130D01*
G37*
G36*
X118323000Y-81565000D02*
X117021000Y-81565000D01*
X117021000Y-80713000D01*
X118323000Y-80713000D01*
X118323000Y-81565000D01*
X118323000Y-81565000D01*
G37*
G36*
X120223000Y-81565000D02*
X118921000Y-81565000D01*
X118921000Y-80713000D01*
X120223000Y-80713000D01*
X120223000Y-81565000D01*
X120223000Y-81565000D01*
G37*
G36*
X124437000Y-81386000D02*
X123135000Y-81386000D01*
X123135000Y-80384000D01*
X124437000Y-80384000D01*
X124437000Y-81386000D01*
X124437000Y-81386000D01*
G37*
G36*
X122237000Y-81386000D02*
X120935000Y-81386000D01*
X120935000Y-80384000D01*
X122237000Y-80384000D01*
X122237000Y-81386000D01*
X122237000Y-81386000D01*
G37*
G36*
X107581000Y-80808000D02*
X106579000Y-80808000D01*
X106579000Y-79506000D01*
X107581000Y-79506000D01*
X107581000Y-80808000D01*
X107581000Y-80808000D01*
G37*
G36*
X111316000Y-80770000D02*
X110464000Y-80770000D01*
X110464000Y-79468000D01*
X111316000Y-79468000D01*
X111316000Y-80770000D01*
X111316000Y-80770000D01*
G37*
G36*
X196572065Y-78364539D02*
X196572067Y-78364540D01*
X196572068Y-78364540D01*
X196782992Y-78451907D01*
X196782993Y-78451908D01*
X196972822Y-78578748D01*
X197134252Y-78740178D01*
X197134254Y-78740181D01*
X197261093Y-78930008D01*
X197348460Y-79140932D01*
X197393000Y-79364848D01*
X197393000Y-79593152D01*
X197348460Y-79817068D01*
X197261093Y-80027992D01*
X197261092Y-80027993D01*
X197134252Y-80217822D01*
X196972822Y-80379252D01*
X196972819Y-80379254D01*
X196782992Y-80506093D01*
X196572068Y-80593460D01*
X196572067Y-80593460D01*
X196572065Y-80593461D01*
X196348153Y-80638000D01*
X196119847Y-80638000D01*
X195895935Y-80593461D01*
X195895933Y-80593460D01*
X195895932Y-80593460D01*
X195685008Y-80506093D01*
X195495181Y-80379254D01*
X195495178Y-80379252D01*
X195333748Y-80217822D01*
X195206908Y-80027993D01*
X195206907Y-80027992D01*
X195119540Y-79817068D01*
X195075000Y-79593152D01*
X195075000Y-79364848D01*
X195119540Y-79140932D01*
X195206907Y-78930008D01*
X195333746Y-78740181D01*
X195333748Y-78740178D01*
X195495178Y-78578748D01*
X195685007Y-78451908D01*
X195685008Y-78451907D01*
X195895932Y-78364540D01*
X195895933Y-78364540D01*
X195895935Y-78364539D01*
X196119847Y-78320000D01*
X196348153Y-78320000D01*
X196572065Y-78364539D01*
X196572065Y-78364539D01*
G37*
G36*
X113169000Y-80638000D02*
X112167000Y-80638000D01*
X112167000Y-79336000D01*
X113169000Y-79336000D01*
X113169000Y-80638000D01*
X113169000Y-80638000D01*
G37*
G36*
X107457145Y-75946932D02*
X107622572Y-76015454D01*
X107771457Y-76114936D01*
X107898064Y-76241543D01*
X107997546Y-76390428D01*
X108066068Y-76555855D01*
X108101000Y-76731470D01*
X108101000Y-76910530D01*
X108066068Y-77086145D01*
X107997546Y-77251572D01*
X107898064Y-77400457D01*
X107771457Y-77527064D01*
X107622572Y-77626546D01*
X107457145Y-77695068D01*
X107281530Y-77730000D01*
X107102470Y-77730000D01*
X106926855Y-77695068D01*
X106761428Y-77626546D01*
X106612543Y-77527064D01*
X106485936Y-77400457D01*
X106447934Y-77343583D01*
X106432388Y-77324641D01*
X106413446Y-77309095D01*
X106391836Y-77297544D01*
X106368386Y-77290431D01*
X106344000Y-77288029D01*
X106319614Y-77290431D01*
X106296165Y-77297544D01*
X106274554Y-77309095D01*
X106255612Y-77324641D01*
X106240066Y-77343583D01*
X106228515Y-77365193D01*
X106221402Y-77388643D01*
X106219000Y-77413029D01*
X106219000Y-78388000D01*
X104101000Y-78388000D01*
X104101000Y-76270000D01*
X106226450Y-76270000D01*
X106228515Y-76276806D01*
X106240066Y-76298417D01*
X106255612Y-76317359D01*
X106274554Y-76332905D01*
X106296165Y-76344456D01*
X106319614Y-76351569D01*
X106344000Y-76353971D01*
X106368386Y-76351569D01*
X106391835Y-76344456D01*
X106413446Y-76332905D01*
X106432388Y-76317359D01*
X106447934Y-76298417D01*
X106485936Y-76241543D01*
X106612543Y-76114936D01*
X106761428Y-76015454D01*
X106926855Y-75946932D01*
X107102470Y-75912000D01*
X107281530Y-75912000D01*
X107457145Y-75946932D01*
X107457145Y-75946932D01*
G37*
G36*
X112537145Y-75946932D02*
X112702572Y-76015454D01*
X112851457Y-76114936D01*
X112978064Y-76241543D01*
X113077546Y-76390428D01*
X113146068Y-76555855D01*
X113181000Y-76731470D01*
X113181000Y-76910530D01*
X113146068Y-77086145D01*
X113077546Y-77251572D01*
X112978064Y-77400457D01*
X112851457Y-77527064D01*
X112702572Y-77626546D01*
X112537145Y-77695068D01*
X112361530Y-77730000D01*
X112182470Y-77730000D01*
X112006855Y-77695068D01*
X111841428Y-77626546D01*
X111692543Y-77527064D01*
X111565936Y-77400457D01*
X111466454Y-77251572D01*
X111397932Y-77086145D01*
X111363000Y-76910530D01*
X111363000Y-76731470D01*
X111397932Y-76555855D01*
X111466454Y-76390428D01*
X111565936Y-76241543D01*
X111692543Y-76114936D01*
X111841428Y-76015454D01*
X112006855Y-75946932D01*
X112182470Y-75912000D01*
X112361530Y-75912000D01*
X112537145Y-75946932D01*
X112537145Y-75946932D01*
G37*
G36*
X109997145Y-75946932D02*
X110162572Y-76015454D01*
X110311457Y-76114936D01*
X110438064Y-76241543D01*
X110537546Y-76390428D01*
X110606068Y-76555855D01*
X110641000Y-76731470D01*
X110641000Y-76910530D01*
X110606068Y-77086145D01*
X110537546Y-77251572D01*
X110438064Y-77400457D01*
X110311457Y-77527064D01*
X110162572Y-77626546D01*
X109997145Y-77695068D01*
X109821530Y-77730000D01*
X109642470Y-77730000D01*
X109466855Y-77695068D01*
X109301428Y-77626546D01*
X109152543Y-77527064D01*
X109025936Y-77400457D01*
X108926454Y-77251572D01*
X108857932Y-77086145D01*
X108823000Y-76910530D01*
X108823000Y-76731470D01*
X108857932Y-76555855D01*
X108926454Y-76390428D01*
X109025936Y-76241543D01*
X109152543Y-76114936D01*
X109301428Y-76015454D01*
X109466855Y-75946932D01*
X109642470Y-75912000D01*
X109821530Y-75912000D01*
X109997145Y-75946932D01*
X109997145Y-75946932D01*
G37*
G36*
X105468896Y-73770696D02*
X105468898Y-73770697D01*
X105468899Y-73770697D01*
X105661625Y-73850526D01*
X105787369Y-73934546D01*
X105835076Y-73966423D01*
X105982577Y-74113924D01*
X105982579Y-74113927D01*
X106098474Y-74287375D01*
X106178303Y-74480101D01*
X106219000Y-74684698D01*
X106219000Y-74893302D01*
X106178303Y-75097899D01*
X106098474Y-75290625D01*
X105983102Y-75463291D01*
X105982577Y-75464076D01*
X105835076Y-75611577D01*
X105835073Y-75611579D01*
X105661625Y-75727474D01*
X105468899Y-75807303D01*
X105468898Y-75807303D01*
X105468896Y-75807304D01*
X105264304Y-75848000D01*
X105055696Y-75848000D01*
X104851104Y-75807304D01*
X104851102Y-75807303D01*
X104851101Y-75807303D01*
X104658375Y-75727474D01*
X104484927Y-75611579D01*
X104484924Y-75611577D01*
X104337423Y-75464076D01*
X104336898Y-75463291D01*
X104221526Y-75290625D01*
X104141697Y-75097899D01*
X104101000Y-74893302D01*
X104101000Y-74684698D01*
X104141697Y-74480101D01*
X104221526Y-74287375D01*
X104337421Y-74113927D01*
X104337423Y-74113924D01*
X104484924Y-73966423D01*
X104532631Y-73934546D01*
X104658375Y-73850526D01*
X104851101Y-73770697D01*
X104851102Y-73770697D01*
X104851104Y-73770696D01*
X105055696Y-73730000D01*
X105264304Y-73730000D01*
X105468896Y-73770696D01*
X105468896Y-73770696D01*
G37*
G36*
X110383000Y-75290000D02*
X109081000Y-75290000D01*
X109081000Y-74288000D01*
X110383000Y-74288000D01*
X110383000Y-75290000D01*
X110383000Y-75290000D01*
G37*
G36*
X108183000Y-75290000D02*
X106881000Y-75290000D01*
X106881000Y-74288000D01*
X108183000Y-74288000D01*
X108183000Y-75290000D01*
X108183000Y-75290000D01*
G37*
G36*
X116775000Y-74718000D02*
X114373000Y-74718000D01*
X114373000Y-71116000D01*
X116775000Y-71116000D01*
X116775000Y-74718000D01*
X116775000Y-74718000D01*
G37*
G36*
X169567292Y-72026001D02*
X169640192Y-72040502D01*
X169700531Y-72065495D01*
X169846203Y-72125834D01*
X170031611Y-72249720D01*
X170189280Y-72407389D01*
X170313166Y-72592797D01*
X170398498Y-72798809D01*
X170442000Y-73017506D01*
X170442000Y-73240494D01*
X170398498Y-73459191D01*
X170313166Y-73665203D01*
X170189280Y-73850611D01*
X170031611Y-74008280D01*
X169846203Y-74132166D01*
X169700531Y-74192505D01*
X169640192Y-74217498D01*
X169567292Y-74231999D01*
X169421494Y-74261000D01*
X169198506Y-74261000D01*
X169052708Y-74231999D01*
X168979808Y-74217498D01*
X168919469Y-74192505D01*
X168773797Y-74132166D01*
X168588389Y-74008280D01*
X168430720Y-73850611D01*
X168306834Y-73665203D01*
X168221502Y-73459191D01*
X168178000Y-73240494D01*
X168178000Y-73017506D01*
X168221502Y-72798809D01*
X168306834Y-72592797D01*
X168430720Y-72407389D01*
X168588389Y-72249720D01*
X168773797Y-72125834D01*
X168919469Y-72065495D01*
X168979808Y-72040502D01*
X169052708Y-72026001D01*
X169198506Y-71997000D01*
X169421494Y-71997000D01*
X169567292Y-72026001D01*
X169567292Y-72026001D01*
G37*
G36*
X194967292Y-72026001D02*
X195040192Y-72040502D01*
X195100531Y-72065495D01*
X195246203Y-72125834D01*
X195431611Y-72249720D01*
X195589280Y-72407389D01*
X195713166Y-72592797D01*
X195798498Y-72798809D01*
X195842000Y-73017506D01*
X195842000Y-73240494D01*
X195798498Y-73459191D01*
X195713166Y-73665203D01*
X195589280Y-73850611D01*
X195431611Y-74008280D01*
X195246203Y-74132166D01*
X195100531Y-74192505D01*
X195040192Y-74217498D01*
X194967292Y-74231999D01*
X194821494Y-74261000D01*
X194598506Y-74261000D01*
X194452708Y-74231999D01*
X194379808Y-74217498D01*
X194319469Y-74192505D01*
X194173797Y-74132166D01*
X193988389Y-74008280D01*
X193830720Y-73850611D01*
X193706834Y-73665203D01*
X193621502Y-73459191D01*
X193578000Y-73240494D01*
X193578000Y-73017506D01*
X193621502Y-72798809D01*
X193706834Y-72592797D01*
X193830720Y-72407389D01*
X193988389Y-72249720D01*
X194173797Y-72125834D01*
X194319469Y-72065495D01*
X194379808Y-72040502D01*
X194452708Y-72026001D01*
X194598506Y-71997000D01*
X194821494Y-71997000D01*
X194967292Y-72026001D01*
X194967292Y-72026001D01*
G37*
G36*
X184807292Y-72026001D02*
X184880192Y-72040502D01*
X184940531Y-72065495D01*
X185086203Y-72125834D01*
X185271611Y-72249720D01*
X185429280Y-72407389D01*
X185553166Y-72592797D01*
X185638498Y-72798809D01*
X185682000Y-73017506D01*
X185682000Y-73240494D01*
X185638498Y-73459191D01*
X185553166Y-73665203D01*
X185429280Y-73850611D01*
X185271611Y-74008280D01*
X185086203Y-74132166D01*
X184940531Y-74192505D01*
X184880192Y-74217498D01*
X184807292Y-74231999D01*
X184661494Y-74261000D01*
X184438506Y-74261000D01*
X184292708Y-74231999D01*
X184219808Y-74217498D01*
X184159469Y-74192505D01*
X184013797Y-74132166D01*
X183828389Y-74008280D01*
X183670720Y-73850611D01*
X183546834Y-73665203D01*
X183461502Y-73459191D01*
X183418000Y-73240494D01*
X183418000Y-73017506D01*
X183461502Y-72798809D01*
X183546834Y-72592797D01*
X183670720Y-72407389D01*
X183828389Y-72249720D01*
X184013797Y-72125834D01*
X184159469Y-72065495D01*
X184219808Y-72040502D01*
X184292708Y-72026001D01*
X184438506Y-71997000D01*
X184661494Y-71997000D01*
X184807292Y-72026001D01*
X184807292Y-72026001D01*
G37*
G36*
X189887292Y-72026001D02*
X189960192Y-72040502D01*
X190020531Y-72065495D01*
X190166203Y-72125834D01*
X190351611Y-72249720D01*
X190509280Y-72407389D01*
X190633166Y-72592797D01*
X190718498Y-72798809D01*
X190762000Y-73017506D01*
X190762000Y-73240494D01*
X190718498Y-73459191D01*
X190633166Y-73665203D01*
X190509280Y-73850611D01*
X190351611Y-74008280D01*
X190166203Y-74132166D01*
X190020531Y-74192505D01*
X189960192Y-74217498D01*
X189887292Y-74231999D01*
X189741494Y-74261000D01*
X189518506Y-74261000D01*
X189372708Y-74231999D01*
X189299808Y-74217498D01*
X189239469Y-74192505D01*
X189093797Y-74132166D01*
X188908389Y-74008280D01*
X188750720Y-73850611D01*
X188626834Y-73665203D01*
X188541502Y-73459191D01*
X188498000Y-73240494D01*
X188498000Y-73017506D01*
X188541502Y-72798809D01*
X188626834Y-72592797D01*
X188750720Y-72407389D01*
X188908389Y-72249720D01*
X189093797Y-72125834D01*
X189239469Y-72065495D01*
X189299808Y-72040502D01*
X189372708Y-72026001D01*
X189518506Y-71997000D01*
X189741494Y-71997000D01*
X189887292Y-72026001D01*
X189887292Y-72026001D01*
G37*
G36*
X162590145Y-72254932D02*
X162755572Y-72323454D01*
X162904457Y-72422936D01*
X163031064Y-72549543D01*
X163130546Y-72698428D01*
X163199068Y-72863855D01*
X163234000Y-73039470D01*
X163234000Y-73218530D01*
X163199068Y-73394145D01*
X163130546Y-73559572D01*
X163031064Y-73708457D01*
X162904457Y-73835064D01*
X162755572Y-73934546D01*
X162590145Y-74003068D01*
X162414530Y-74038000D01*
X162235470Y-74038000D01*
X162059855Y-74003068D01*
X161894428Y-73934546D01*
X161745543Y-73835064D01*
X161618936Y-73708457D01*
X161519454Y-73559572D01*
X161450932Y-73394145D01*
X161416000Y-73218530D01*
X161416000Y-73039470D01*
X161450932Y-72863855D01*
X161519454Y-72698428D01*
X161618936Y-72549543D01*
X161745543Y-72422936D01*
X161894428Y-72323454D01*
X162059855Y-72254932D01*
X162235470Y-72220000D01*
X162414530Y-72220000D01*
X162590145Y-72254932D01*
X162590145Y-72254932D01*
G37*
G36*
X174321000Y-73820000D02*
X171919000Y-73820000D01*
X171919000Y-70218000D01*
X174321000Y-70218000D01*
X174321000Y-73820000D01*
X174321000Y-73820000D01*
G37*
G36*
X112558439Y-71812738D02*
X112737151Y-71886763D01*
X112816981Y-71940104D01*
X112897991Y-71994233D01*
X113034767Y-72131009D01*
X113034769Y-72131012D01*
X113142237Y-72291849D01*
X113216262Y-72470561D01*
X113254000Y-72660281D01*
X113254000Y-72853719D01*
X113216262Y-73043439D01*
X113142237Y-73222151D01*
X113084874Y-73308000D01*
X113034767Y-73382991D01*
X112897991Y-73519767D01*
X112897988Y-73519769D01*
X112737151Y-73627237D01*
X112558439Y-73701262D01*
X112368719Y-73739000D01*
X112175281Y-73739000D01*
X111985561Y-73701262D01*
X111806849Y-73627237D01*
X111646012Y-73519769D01*
X111646009Y-73519767D01*
X111509233Y-73382991D01*
X111459126Y-73308000D01*
X111401763Y-73222151D01*
X111327738Y-73043439D01*
X111290000Y-72853719D01*
X111290000Y-72660281D01*
X111327738Y-72470561D01*
X111401763Y-72291849D01*
X111509231Y-72131012D01*
X111509233Y-72131009D01*
X111646009Y-71994233D01*
X111727019Y-71940104D01*
X111806849Y-71886763D01*
X111985561Y-71812738D01*
X112175281Y-71775000D01*
X112368719Y-71775000D01*
X112558439Y-71812738D01*
X112558439Y-71812738D01*
G37*
G36*
X110018439Y-71812738D02*
X110197151Y-71886763D01*
X110276981Y-71940104D01*
X110357991Y-71994233D01*
X110494767Y-72131009D01*
X110494769Y-72131012D01*
X110602237Y-72291849D01*
X110676262Y-72470561D01*
X110714000Y-72660281D01*
X110714000Y-72853719D01*
X110676262Y-73043439D01*
X110602237Y-73222151D01*
X110544874Y-73308000D01*
X110494767Y-73382991D01*
X110357991Y-73519767D01*
X110357988Y-73519769D01*
X110197151Y-73627237D01*
X110018439Y-73701262D01*
X109828719Y-73739000D01*
X109635281Y-73739000D01*
X109445561Y-73701262D01*
X109266849Y-73627237D01*
X109106012Y-73519769D01*
X109106009Y-73519767D01*
X108969233Y-73382991D01*
X108919126Y-73308000D01*
X108861763Y-73222151D01*
X108787738Y-73043439D01*
X108750000Y-72853719D01*
X108750000Y-72660281D01*
X108787738Y-72470561D01*
X108861763Y-72291849D01*
X108969231Y-72131012D01*
X108969233Y-72131009D01*
X109106009Y-71994233D01*
X109187019Y-71940104D01*
X109266849Y-71886763D01*
X109445561Y-71812738D01*
X109635281Y-71775000D01*
X109828719Y-71775000D01*
X110018439Y-71812738D01*
X110018439Y-71812738D01*
G37*
G36*
X120178439Y-71812738D02*
X120357151Y-71886763D01*
X120436981Y-71940104D01*
X120517991Y-71994233D01*
X120654767Y-72131009D01*
X120654769Y-72131012D01*
X120762237Y-72291849D01*
X120836262Y-72470561D01*
X120874000Y-72660281D01*
X120874000Y-72853719D01*
X120836262Y-73043439D01*
X120762237Y-73222151D01*
X120704874Y-73308000D01*
X120654767Y-73382991D01*
X120517991Y-73519767D01*
X120517988Y-73519769D01*
X120357151Y-73627237D01*
X120178439Y-73701262D01*
X119988719Y-73739000D01*
X119795281Y-73739000D01*
X119605561Y-73701262D01*
X119426849Y-73627237D01*
X119266012Y-73519769D01*
X119266009Y-73519767D01*
X119129233Y-73382991D01*
X119079126Y-73308000D01*
X119021763Y-73222151D01*
X118947738Y-73043439D01*
X118910000Y-72853719D01*
X118910000Y-72660281D01*
X118947738Y-72470561D01*
X119021763Y-72291849D01*
X119129231Y-72131012D01*
X119129233Y-72131009D01*
X119266009Y-71994233D01*
X119347019Y-71940104D01*
X119426849Y-71886763D01*
X119605561Y-71812738D01*
X119795281Y-71775000D01*
X119988719Y-71775000D01*
X120178439Y-71812738D01*
X120178439Y-71812738D01*
G37*
G36*
X105468896Y-71230696D02*
X105468898Y-71230697D01*
X105468899Y-71230697D01*
X105661625Y-71310526D01*
X105787369Y-71394546D01*
X105835076Y-71426423D01*
X105982577Y-71573924D01*
X105982579Y-71573927D01*
X106098474Y-71747375D01*
X106178303Y-71940101D01*
X106178304Y-71940104D01*
X106219000Y-72144696D01*
X106219000Y-72353304D01*
X106179966Y-72549543D01*
X106178303Y-72557899D01*
X106098474Y-72750625D01*
X105983102Y-72923291D01*
X105982577Y-72924076D01*
X105835076Y-73071577D01*
X105835073Y-73071579D01*
X105661625Y-73187474D01*
X105468899Y-73267303D01*
X105468898Y-73267303D01*
X105468896Y-73267304D01*
X105264304Y-73308000D01*
X105055696Y-73308000D01*
X104851104Y-73267304D01*
X104851102Y-73267303D01*
X104851101Y-73267303D01*
X104658375Y-73187474D01*
X104484927Y-73071579D01*
X104484924Y-73071577D01*
X104337423Y-72924076D01*
X104336898Y-72923291D01*
X104221526Y-72750625D01*
X104141697Y-72557899D01*
X104140035Y-72549543D01*
X104101000Y-72353304D01*
X104101000Y-72144696D01*
X104141696Y-71940104D01*
X104141697Y-71940101D01*
X104221526Y-71747375D01*
X104337421Y-71573927D01*
X104337423Y-71573924D01*
X104484924Y-71426423D01*
X104532631Y-71394546D01*
X104658375Y-71310526D01*
X104851101Y-71230697D01*
X104851102Y-71230697D01*
X104851104Y-71230696D01*
X105055696Y-71190000D01*
X105264304Y-71190000D01*
X105468896Y-71230696D01*
X105468896Y-71230696D01*
G37*
G36*
X162590145Y-69714932D02*
X162755572Y-69783454D01*
X162904457Y-69882936D01*
X163031064Y-70009543D01*
X163130546Y-70158428D01*
X163199068Y-70323855D01*
X163234000Y-70499470D01*
X163234000Y-70678530D01*
X163199068Y-70854145D01*
X163130546Y-71019572D01*
X163031064Y-71168457D01*
X162904457Y-71295064D01*
X162755572Y-71394546D01*
X162590145Y-71463068D01*
X162414530Y-71498000D01*
X162235470Y-71498000D01*
X162059855Y-71463068D01*
X161894428Y-71394546D01*
X161745543Y-71295064D01*
X161618936Y-71168457D01*
X161519454Y-71019572D01*
X161450932Y-70854145D01*
X161416000Y-70678530D01*
X161416000Y-70499470D01*
X161450932Y-70323855D01*
X161519454Y-70158428D01*
X161618936Y-70009543D01*
X161745543Y-69882936D01*
X161894428Y-69783454D01*
X162059855Y-69714932D01*
X162235470Y-69680000D01*
X162414530Y-69680000D01*
X162590145Y-69714932D01*
X162590145Y-69714932D01*
G37*
G36*
X192871000Y-69612000D02*
X191469000Y-69612000D01*
X191469000Y-68010000D01*
X192871000Y-68010000D01*
X192871000Y-69612000D01*
X192871000Y-69612000D01*
G37*
G36*
X187791000Y-69438000D02*
X186389000Y-69438000D01*
X186389000Y-67836000D01*
X187791000Y-67836000D01*
X187791000Y-69438000D01*
X187791000Y-69438000D01*
G37*
G36*
X116775000Y-69318000D02*
X114373000Y-69318000D01*
X114373000Y-65716000D01*
X116775000Y-65716000D01*
X116775000Y-69318000D01*
X116775000Y-69318000D01*
G37*
G36*
X162590145Y-67174932D02*
X162755572Y-67243454D01*
X162904457Y-67342936D01*
X163031064Y-67469543D01*
X163130546Y-67618428D01*
X163199068Y-67783855D01*
X163234000Y-67959470D01*
X163234000Y-68138530D01*
X163199068Y-68314145D01*
X163130546Y-68479572D01*
X163031064Y-68628457D01*
X162904457Y-68755064D01*
X162755572Y-68854546D01*
X162590145Y-68923068D01*
X162414530Y-68958000D01*
X162235470Y-68958000D01*
X162059855Y-68923068D01*
X161894428Y-68854546D01*
X161745543Y-68755064D01*
X161618936Y-68628457D01*
X161519454Y-68479572D01*
X161450932Y-68314145D01*
X161416000Y-68138530D01*
X161416000Y-67959470D01*
X161450932Y-67783855D01*
X161519454Y-67618428D01*
X161618936Y-67469543D01*
X161745543Y-67342936D01*
X161894428Y-67243454D01*
X162059855Y-67174932D01*
X162235470Y-67140000D01*
X162414530Y-67140000D01*
X162590145Y-67174932D01*
X162590145Y-67174932D01*
G37*
G36*
X120178439Y-66732738D02*
X120357151Y-66806763D01*
X120514649Y-66912000D01*
X120517991Y-66914233D01*
X120654767Y-67051009D01*
X120654769Y-67051012D01*
X120762237Y-67211849D01*
X120836262Y-67390561D01*
X120874000Y-67580281D01*
X120874000Y-67773719D01*
X120836262Y-67963439D01*
X120762237Y-68142151D01*
X120655492Y-68301906D01*
X120654767Y-68302991D01*
X120517991Y-68439767D01*
X120517988Y-68439769D01*
X120357151Y-68547237D01*
X120178439Y-68621262D01*
X119988719Y-68659000D01*
X119795281Y-68659000D01*
X119605561Y-68621262D01*
X119426849Y-68547237D01*
X119266012Y-68439769D01*
X119266009Y-68439767D01*
X119129233Y-68302991D01*
X119128508Y-68301906D01*
X119021763Y-68142151D01*
X118947738Y-67963439D01*
X118910000Y-67773719D01*
X118910000Y-67580281D01*
X118947738Y-67390561D01*
X119021763Y-67211849D01*
X119129231Y-67051012D01*
X119129233Y-67051009D01*
X119266009Y-66914233D01*
X119269351Y-66912000D01*
X119426849Y-66806763D01*
X119605561Y-66732738D01*
X119795281Y-66695000D01*
X119988719Y-66695000D01*
X120178439Y-66732738D01*
X120178439Y-66732738D01*
G37*
G36*
X110018439Y-66732738D02*
X110197151Y-66806763D01*
X110354649Y-66912000D01*
X110357991Y-66914233D01*
X110494767Y-67051009D01*
X110494769Y-67051012D01*
X110602237Y-67211849D01*
X110676262Y-67390561D01*
X110714000Y-67580281D01*
X110714000Y-67773719D01*
X110676262Y-67963439D01*
X110602237Y-68142151D01*
X110495492Y-68301906D01*
X110494767Y-68302991D01*
X110357991Y-68439767D01*
X110357988Y-68439769D01*
X110197151Y-68547237D01*
X110018439Y-68621262D01*
X109828719Y-68659000D01*
X109635281Y-68659000D01*
X109445561Y-68621262D01*
X109266849Y-68547237D01*
X109106012Y-68439769D01*
X109106009Y-68439767D01*
X108969233Y-68302991D01*
X108968508Y-68301906D01*
X108861763Y-68142151D01*
X108787738Y-67963439D01*
X108750000Y-67773719D01*
X108750000Y-67580281D01*
X108787738Y-67390561D01*
X108861763Y-67211849D01*
X108969231Y-67051012D01*
X108969233Y-67051009D01*
X109106009Y-66914233D01*
X109109351Y-66912000D01*
X109266849Y-66806763D01*
X109445561Y-66732738D01*
X109635281Y-66695000D01*
X109828719Y-66695000D01*
X110018439Y-66732738D01*
X110018439Y-66732738D01*
G37*
G36*
X112558439Y-66732738D02*
X112737151Y-66806763D01*
X112894649Y-66912000D01*
X112897991Y-66914233D01*
X113034767Y-67051009D01*
X113034769Y-67051012D01*
X113142237Y-67211849D01*
X113216262Y-67390561D01*
X113254000Y-67580281D01*
X113254000Y-67773719D01*
X113216262Y-67963439D01*
X113142237Y-68142151D01*
X113035492Y-68301906D01*
X113034767Y-68302991D01*
X112897991Y-68439767D01*
X112897988Y-68439769D01*
X112737151Y-68547237D01*
X112558439Y-68621262D01*
X112368719Y-68659000D01*
X112175281Y-68659000D01*
X111985561Y-68621262D01*
X111806849Y-68547237D01*
X111646012Y-68439769D01*
X111646009Y-68439767D01*
X111509233Y-68302991D01*
X111508508Y-68301906D01*
X111401763Y-68142151D01*
X111327738Y-67963439D01*
X111290000Y-67773719D01*
X111290000Y-67580281D01*
X111327738Y-67390561D01*
X111401763Y-67211849D01*
X111509231Y-67051012D01*
X111509233Y-67051009D01*
X111646009Y-66914233D01*
X111649351Y-66912000D01*
X111806849Y-66806763D01*
X111985561Y-66732738D01*
X112175281Y-66695000D01*
X112368719Y-66695000D01*
X112558439Y-66732738D01*
X112558439Y-66732738D01*
G37*
G36*
X174321000Y-68420000D02*
X171919000Y-68420000D01*
X171919000Y-64818000D01*
X174321000Y-64818000D01*
X174321000Y-68420000D01*
X174321000Y-68420000D01*
G37*
G36*
X192871000Y-66912000D02*
X191469000Y-66912000D01*
X191469000Y-65310000D01*
X192871000Y-65310000D01*
X192871000Y-66912000D01*
X192871000Y-66912000D01*
G37*
G36*
X187791000Y-66738000D02*
X186389000Y-66738000D01*
X186389000Y-65136000D01*
X187791000Y-65136000D01*
X187791000Y-66738000D01*
X187791000Y-66738000D01*
G37*
G36*
X184807292Y-64406001D02*
X184880192Y-64420502D01*
X184940531Y-64445495D01*
X185086203Y-64505834D01*
X185271611Y-64629720D01*
X185429280Y-64787389D01*
X185553166Y-64972797D01*
X185638498Y-65178809D01*
X185682000Y-65397506D01*
X185682000Y-65620494D01*
X185638498Y-65839191D01*
X185553166Y-66045203D01*
X185429280Y-66230611D01*
X185271611Y-66388280D01*
X185086203Y-66512166D01*
X184940531Y-66572505D01*
X184880192Y-66597498D01*
X184807292Y-66611999D01*
X184661494Y-66641000D01*
X184438506Y-66641000D01*
X184292708Y-66611999D01*
X184219808Y-66597498D01*
X184159469Y-66572505D01*
X184013797Y-66512166D01*
X183828389Y-66388280D01*
X183670720Y-66230611D01*
X183546834Y-66045203D01*
X183461502Y-65839191D01*
X183418000Y-65620494D01*
X183418000Y-65397506D01*
X183461502Y-65178809D01*
X183546834Y-64972797D01*
X183670720Y-64787389D01*
X183828389Y-64629720D01*
X184013797Y-64505834D01*
X184159469Y-64445495D01*
X184219808Y-64420502D01*
X184292708Y-64406001D01*
X184438506Y-64377000D01*
X184661494Y-64377000D01*
X184807292Y-64406001D01*
X184807292Y-64406001D01*
G37*
G36*
X169567292Y-64406001D02*
X169640192Y-64420502D01*
X169700531Y-64445495D01*
X169846203Y-64505834D01*
X170031611Y-64629720D01*
X170189280Y-64787389D01*
X170313166Y-64972797D01*
X170398498Y-65178809D01*
X170442000Y-65397506D01*
X170442000Y-65620494D01*
X170398498Y-65839191D01*
X170313166Y-66045203D01*
X170189280Y-66230611D01*
X170031611Y-66388280D01*
X169846203Y-66512166D01*
X169700531Y-66572505D01*
X169640192Y-66597498D01*
X169567292Y-66611999D01*
X169421494Y-66641000D01*
X169198506Y-66641000D01*
X169052708Y-66611999D01*
X168979808Y-66597498D01*
X168919469Y-66572505D01*
X168773797Y-66512166D01*
X168588389Y-66388280D01*
X168430720Y-66230611D01*
X168306834Y-66045203D01*
X168221502Y-65839191D01*
X168178000Y-65620494D01*
X168178000Y-65397506D01*
X168221502Y-65178809D01*
X168306834Y-64972797D01*
X168430720Y-64787389D01*
X168588389Y-64629720D01*
X168773797Y-64505834D01*
X168919469Y-64445495D01*
X168979808Y-64420502D01*
X169052708Y-64406001D01*
X169198506Y-64377000D01*
X169421494Y-64377000D01*
X169567292Y-64406001D01*
X169567292Y-64406001D01*
G37*
G36*
X194967292Y-64406001D02*
X195040192Y-64420502D01*
X195100531Y-64445495D01*
X195246203Y-64505834D01*
X195431611Y-64629720D01*
X195589280Y-64787389D01*
X195713166Y-64972797D01*
X195798498Y-65178809D01*
X195842000Y-65397506D01*
X195842000Y-65620494D01*
X195798498Y-65839191D01*
X195713166Y-66045203D01*
X195589280Y-66230611D01*
X195431611Y-66388280D01*
X195246203Y-66512166D01*
X195100531Y-66572505D01*
X195040192Y-66597498D01*
X194967292Y-66611999D01*
X194821494Y-66641000D01*
X194598506Y-66641000D01*
X194452708Y-66611999D01*
X194379808Y-66597498D01*
X194319469Y-66572505D01*
X194173797Y-66512166D01*
X193988389Y-66388280D01*
X193830720Y-66230611D01*
X193706834Y-66045203D01*
X193621502Y-65839191D01*
X193578000Y-65620494D01*
X193578000Y-65397506D01*
X193621502Y-65178809D01*
X193706834Y-64972797D01*
X193830720Y-64787389D01*
X193988389Y-64629720D01*
X194173797Y-64505834D01*
X194319469Y-64445495D01*
X194379808Y-64420502D01*
X194452708Y-64406001D01*
X194598506Y-64377000D01*
X194821494Y-64377000D01*
X194967292Y-64406001D01*
X194967292Y-64406001D01*
G37*
G36*
X189887292Y-64406001D02*
X189960192Y-64420502D01*
X190020531Y-64445495D01*
X190166203Y-64505834D01*
X190351611Y-64629720D01*
X190509280Y-64787389D01*
X190633166Y-64972797D01*
X190718498Y-65178809D01*
X190762000Y-65397506D01*
X190762000Y-65620494D01*
X190718498Y-65839191D01*
X190633166Y-66045203D01*
X190509280Y-66230611D01*
X190351611Y-66388280D01*
X190166203Y-66512166D01*
X190020531Y-66572505D01*
X189960192Y-66597498D01*
X189887292Y-66611999D01*
X189741494Y-66641000D01*
X189518506Y-66641000D01*
X189372708Y-66611999D01*
X189299808Y-66597498D01*
X189239469Y-66572505D01*
X189093797Y-66512166D01*
X188908389Y-66388280D01*
X188750720Y-66230611D01*
X188626834Y-66045203D01*
X188541502Y-65839191D01*
X188498000Y-65620494D01*
X188498000Y-65397506D01*
X188541502Y-65178809D01*
X188626834Y-64972797D01*
X188750720Y-64787389D01*
X188908389Y-64629720D01*
X189093797Y-64505834D01*
X189239469Y-64445495D01*
X189299808Y-64420502D01*
X189372708Y-64406001D01*
X189518506Y-64377000D01*
X189741494Y-64377000D01*
X189887292Y-64406001D01*
X189887292Y-64406001D01*
G37*
G36*
X143701000Y-62284000D02*
X142849000Y-62284000D01*
X142849000Y-60982000D01*
X143701000Y-60982000D01*
X143701000Y-62284000D01*
X143701000Y-62284000D01*
G37*
G36*
X145606000Y-62284000D02*
X144754000Y-62284000D01*
X144754000Y-60982000D01*
X145606000Y-60982000D01*
X145606000Y-62284000D01*
X145606000Y-62284000D01*
G37*
G36*
X117110000Y-60624000D02*
X115808000Y-60624000D01*
X115808000Y-59772000D01*
X117110000Y-59772000D01*
X117110000Y-60624000D01*
X117110000Y-60624000D01*
G37*
G36*
X119015000Y-60624000D02*
X117713000Y-60624000D01*
X117713000Y-59772000D01*
X119015000Y-59772000D01*
X119015000Y-60624000D01*
X119015000Y-60624000D01*
G37*
G36*
X120915000Y-60624000D02*
X119613000Y-60624000D01*
X119613000Y-59772000D01*
X120915000Y-59772000D01*
X120915000Y-60624000D01*
X120915000Y-60624000D01*
G37*
G36*
X115210000Y-60624000D02*
X113908000Y-60624000D01*
X113908000Y-59772000D01*
X115210000Y-59772000D01*
X115210000Y-60624000D01*
X115210000Y-60624000D01*
G37*
G36*
X145606000Y-60384000D02*
X144754000Y-60384000D01*
X144754000Y-59082000D01*
X145606000Y-59082000D01*
X145606000Y-60384000D01*
X145606000Y-60384000D01*
G37*
G36*
X143701000Y-60384000D02*
X142849000Y-60384000D01*
X142849000Y-59082000D01*
X143701000Y-59082000D01*
X143701000Y-60384000D01*
X143701000Y-60384000D01*
G37*
G36*
X102691943Y-57661460D02*
X102857370Y-57729982D01*
X103006255Y-57829464D01*
X103132862Y-57956071D01*
X103232344Y-58104956D01*
X103300866Y-58270383D01*
X103335798Y-58445998D01*
X103335798Y-58625058D01*
X103300866Y-58800673D01*
X103232344Y-58966100D01*
X103132862Y-59114985D01*
X103006255Y-59241592D01*
X102857370Y-59341074D01*
X102691943Y-59409596D01*
X102516328Y-59444528D01*
X102337268Y-59444528D01*
X102161653Y-59409596D01*
X101996226Y-59341074D01*
X101847341Y-59241592D01*
X101720734Y-59114985D01*
X101621252Y-58966100D01*
X101552730Y-58800673D01*
X101517798Y-58625058D01*
X101517798Y-58445998D01*
X101552730Y-58270383D01*
X101621252Y-58104956D01*
X101720734Y-57956071D01*
X101847341Y-57829464D01*
X101996226Y-57729982D01*
X102161653Y-57661460D01*
X102337268Y-57626528D01*
X102516328Y-57626528D01*
X102691943Y-57661460D01*
X102691943Y-57661460D01*
G37*
G36*
X110311943Y-57661460D02*
X110477370Y-57729982D01*
X110626255Y-57829464D01*
X110752862Y-57956071D01*
X110852344Y-58104956D01*
X110920866Y-58270383D01*
X110955798Y-58445998D01*
X110955798Y-58625058D01*
X110920866Y-58800673D01*
X110852344Y-58966100D01*
X110752862Y-59114985D01*
X110626255Y-59241592D01*
X110477370Y-59341074D01*
X110311943Y-59409596D01*
X110136328Y-59444528D01*
X109957268Y-59444528D01*
X109781653Y-59409596D01*
X109616226Y-59341074D01*
X109467341Y-59241592D01*
X109340734Y-59114985D01*
X109241252Y-58966100D01*
X109172730Y-58800673D01*
X109137798Y-58625058D01*
X109137798Y-58445998D01*
X109172730Y-58270383D01*
X109241252Y-58104956D01*
X109340734Y-57956071D01*
X109467341Y-57829464D01*
X109616226Y-57729982D01*
X109781653Y-57661460D01*
X109957268Y-57626528D01*
X110136328Y-57626528D01*
X110311943Y-57661460D01*
X110311943Y-57661460D01*
G37*
G36*
X125773000Y-59352000D02*
X123655000Y-59352000D01*
X123655000Y-57234000D01*
X125773000Y-57234000D01*
X125773000Y-59352000D01*
X125773000Y-59352000D01*
G37*
G36*
X135182896Y-57274696D02*
X135182898Y-57274697D01*
X135182899Y-57274697D01*
X135375625Y-57354526D01*
X135548291Y-57469898D01*
X135549076Y-57470423D01*
X135696577Y-57617924D01*
X135696579Y-57617927D01*
X135812474Y-57791375D01*
X135880694Y-57956074D01*
X135892304Y-57984104D01*
X135933000Y-58188696D01*
X135933000Y-58397304D01*
X135893087Y-58597961D01*
X135892303Y-58601899D01*
X135812474Y-58794625D01*
X135702329Y-58959468D01*
X135696577Y-58968076D01*
X135549076Y-59115577D01*
X135549073Y-59115579D01*
X135375625Y-59231474D01*
X135182899Y-59311303D01*
X135182898Y-59311303D01*
X135182896Y-59311304D01*
X134978304Y-59352000D01*
X134769696Y-59352000D01*
X134565104Y-59311304D01*
X134565102Y-59311303D01*
X134565101Y-59311303D01*
X134372375Y-59231474D01*
X134198927Y-59115579D01*
X134198924Y-59115577D01*
X134051423Y-58968076D01*
X134045671Y-58959468D01*
X133935526Y-58794625D01*
X133855697Y-58601899D01*
X133854914Y-58597961D01*
X133815000Y-58397304D01*
X133815000Y-58188696D01*
X133855696Y-57984104D01*
X133867306Y-57956074D01*
X133935526Y-57791375D01*
X134051421Y-57617927D01*
X134051423Y-57617924D01*
X134198924Y-57470423D01*
X134199709Y-57469898D01*
X134372375Y-57354526D01*
X134565101Y-57274697D01*
X134565102Y-57274697D01*
X134565104Y-57274696D01*
X134769696Y-57234000D01*
X134978304Y-57234000D01*
X135182896Y-57274696D01*
X135182896Y-57274696D01*
G37*
G36*
X130102896Y-57274696D02*
X130102898Y-57274697D01*
X130102899Y-57274697D01*
X130295625Y-57354526D01*
X130468291Y-57469898D01*
X130469076Y-57470423D01*
X130616577Y-57617924D01*
X130616579Y-57617927D01*
X130732474Y-57791375D01*
X130800694Y-57956074D01*
X130812304Y-57984104D01*
X130853000Y-58188696D01*
X130853000Y-58397304D01*
X130813087Y-58597961D01*
X130812303Y-58601899D01*
X130732474Y-58794625D01*
X130622329Y-58959468D01*
X130616577Y-58968076D01*
X130469076Y-59115577D01*
X130469073Y-59115579D01*
X130295625Y-59231474D01*
X130102899Y-59311303D01*
X130102898Y-59311303D01*
X130102896Y-59311304D01*
X129898304Y-59352000D01*
X129689696Y-59352000D01*
X129485104Y-59311304D01*
X129485102Y-59311303D01*
X129485101Y-59311303D01*
X129292375Y-59231474D01*
X129118927Y-59115579D01*
X129118924Y-59115577D01*
X128971423Y-58968076D01*
X128965671Y-58959468D01*
X128855526Y-58794625D01*
X128775697Y-58601899D01*
X128774914Y-58597961D01*
X128735000Y-58397304D01*
X128735000Y-58188696D01*
X128775696Y-57984104D01*
X128787306Y-57956074D01*
X128855526Y-57791375D01*
X128971421Y-57617927D01*
X128971423Y-57617924D01*
X129118924Y-57470423D01*
X129119709Y-57469898D01*
X129292375Y-57354526D01*
X129485101Y-57274697D01*
X129485102Y-57274697D01*
X129485104Y-57274696D01*
X129689696Y-57234000D01*
X129898304Y-57234000D01*
X130102896Y-57274696D01*
X130102896Y-57274696D01*
G37*
G36*
X127562896Y-57274696D02*
X127562898Y-57274697D01*
X127562899Y-57274697D01*
X127755625Y-57354526D01*
X127928291Y-57469898D01*
X127929076Y-57470423D01*
X128076577Y-57617924D01*
X128076579Y-57617927D01*
X128192474Y-57791375D01*
X128260694Y-57956074D01*
X128272304Y-57984104D01*
X128313000Y-58188696D01*
X128313000Y-58397304D01*
X128273087Y-58597961D01*
X128272303Y-58601899D01*
X128192474Y-58794625D01*
X128082329Y-58959468D01*
X128076577Y-58968076D01*
X127929076Y-59115577D01*
X127929073Y-59115579D01*
X127755625Y-59231474D01*
X127562899Y-59311303D01*
X127562898Y-59311303D01*
X127562896Y-59311304D01*
X127358304Y-59352000D01*
X127149696Y-59352000D01*
X126945104Y-59311304D01*
X126945102Y-59311303D01*
X126945101Y-59311303D01*
X126752375Y-59231474D01*
X126578927Y-59115579D01*
X126578924Y-59115577D01*
X126431423Y-58968076D01*
X126425671Y-58959468D01*
X126315526Y-58794625D01*
X126235697Y-58601899D01*
X126234914Y-58597961D01*
X126195000Y-58397304D01*
X126195000Y-58188696D01*
X126235696Y-57984104D01*
X126247306Y-57956074D01*
X126315526Y-57791375D01*
X126431421Y-57617927D01*
X126431423Y-57617924D01*
X126578924Y-57470423D01*
X126579709Y-57469898D01*
X126752375Y-57354526D01*
X126945101Y-57274697D01*
X126945102Y-57274697D01*
X126945104Y-57274696D01*
X127149696Y-57234000D01*
X127358304Y-57234000D01*
X127562896Y-57274696D01*
X127562896Y-57274696D01*
G37*
G36*
X132642896Y-57274696D02*
X132642898Y-57274697D01*
X132642899Y-57274697D01*
X132835625Y-57354526D01*
X133008291Y-57469898D01*
X133009076Y-57470423D01*
X133156577Y-57617924D01*
X133156579Y-57617927D01*
X133272474Y-57791375D01*
X133340694Y-57956074D01*
X133352304Y-57984104D01*
X133393000Y-58188696D01*
X133393000Y-58397304D01*
X133353087Y-58597961D01*
X133352303Y-58601899D01*
X133272474Y-58794625D01*
X133162329Y-58959468D01*
X133156577Y-58968076D01*
X133009076Y-59115577D01*
X133009073Y-59115579D01*
X132835625Y-59231474D01*
X132642899Y-59311303D01*
X132642898Y-59311303D01*
X132642896Y-59311304D01*
X132438304Y-59352000D01*
X132229696Y-59352000D01*
X132025104Y-59311304D01*
X132025102Y-59311303D01*
X132025101Y-59311303D01*
X131832375Y-59231474D01*
X131658927Y-59115579D01*
X131658924Y-59115577D01*
X131511423Y-58968076D01*
X131505671Y-58959468D01*
X131395526Y-58794625D01*
X131315697Y-58601899D01*
X131314914Y-58597961D01*
X131275000Y-58397304D01*
X131275000Y-58188696D01*
X131315696Y-57984104D01*
X131327306Y-57956074D01*
X131395526Y-57791375D01*
X131511421Y-57617927D01*
X131511423Y-57617924D01*
X131658924Y-57470423D01*
X131659709Y-57469898D01*
X131832375Y-57354526D01*
X132025101Y-57274697D01*
X132025102Y-57274697D01*
X132025104Y-57274696D01*
X132229696Y-57234000D01*
X132438304Y-57234000D01*
X132642896Y-57274696D01*
X132642896Y-57274696D01*
G37*
G36*
X117398961Y-57287677D02*
X117589229Y-57366489D01*
X117760471Y-57480909D01*
X117906090Y-57626528D01*
X118020511Y-57797771D01*
X118099323Y-57988039D01*
X118139500Y-58190026D01*
X118139500Y-58395974D01*
X118099323Y-58597961D01*
X118020511Y-58788229D01*
X117906091Y-58959471D01*
X117760471Y-59105091D01*
X117589229Y-59219511D01*
X117398961Y-59298323D01*
X117196974Y-59338500D01*
X116991026Y-59338500D01*
X116789039Y-59298323D01*
X116598771Y-59219511D01*
X116427529Y-59105091D01*
X116281909Y-58959471D01*
X116167489Y-58788229D01*
X116088677Y-58597961D01*
X116048500Y-58395974D01*
X116048500Y-58190026D01*
X116088677Y-57988039D01*
X116167489Y-57797771D01*
X116281910Y-57626528D01*
X116427529Y-57480909D01*
X116598771Y-57366489D01*
X116789039Y-57287677D01*
X116991026Y-57247500D01*
X117196974Y-57247500D01*
X117398961Y-57287677D01*
X117398961Y-57287677D01*
G37*
G36*
X119938961Y-57287677D02*
X120129229Y-57366489D01*
X120300471Y-57480909D01*
X120446090Y-57626528D01*
X120560511Y-57797771D01*
X120639323Y-57988039D01*
X120679500Y-58190026D01*
X120679500Y-58395974D01*
X120639323Y-58597961D01*
X120560511Y-58788229D01*
X120446091Y-58959471D01*
X120300471Y-59105091D01*
X120129229Y-59219511D01*
X119938961Y-59298323D01*
X119736974Y-59338500D01*
X119531026Y-59338500D01*
X119329039Y-59298323D01*
X119138771Y-59219511D01*
X118967529Y-59105091D01*
X118821909Y-58959471D01*
X118707489Y-58788229D01*
X118628677Y-58597961D01*
X118588500Y-58395974D01*
X118588500Y-58190026D01*
X118628677Y-57988039D01*
X118707489Y-57797771D01*
X118821910Y-57626528D01*
X118967529Y-57480909D01*
X119138771Y-57366489D01*
X119329039Y-57287677D01*
X119531026Y-57247500D01*
X119736974Y-57247500D01*
X119938961Y-57287677D01*
X119938961Y-57287677D01*
G37*
G36*
X115599500Y-59338500D02*
X113508500Y-59338500D01*
X113508500Y-57247500D01*
X115599500Y-57247500D01*
X115599500Y-59338500D01*
X115599500Y-59338500D01*
G37*
G36*
X176141000Y-59152000D02*
X174839000Y-59152000D01*
X174839000Y-58150000D01*
X176141000Y-58150000D01*
X176141000Y-59152000D01*
X176141000Y-59152000D01*
G37*
G36*
X173941000Y-59152000D02*
X172639000Y-59152000D01*
X172639000Y-58150000D01*
X173941000Y-58150000D01*
X173941000Y-59152000D01*
X173941000Y-59152000D01*
G37*
G36*
X108567798Y-58866528D02*
X107715798Y-58866528D01*
X107715798Y-57564528D01*
X108567798Y-57564528D01*
X108567798Y-58866528D01*
X108567798Y-58866528D01*
G37*
G36*
X176415000Y-57862000D02*
X175413000Y-57862000D01*
X175413000Y-56560000D01*
X176415000Y-56560000D01*
X176415000Y-57862000D01*
X176415000Y-57862000D01*
G37*
G36*
X174891000Y-57862000D02*
X173889000Y-57862000D01*
X173889000Y-56560000D01*
X174891000Y-56560000D01*
X174891000Y-57862000D01*
X174891000Y-57862000D01*
G37*
G36*
X166997000Y-57628000D02*
X165695000Y-57628000D01*
X165695000Y-56626000D01*
X166997000Y-56626000D01*
X166997000Y-57628000D01*
X166997000Y-57628000D01*
G37*
G36*
X164797000Y-57628000D02*
X163495000Y-57628000D01*
X163495000Y-56626000D01*
X164797000Y-56626000D01*
X164797000Y-57628000D01*
X164797000Y-57628000D01*
G37*
G36*
X104757798Y-57596528D02*
X103905798Y-57596528D01*
X103905798Y-56294528D01*
X104757798Y-56294528D01*
X104757798Y-57596528D01*
X104757798Y-57596528D01*
G37*
G36*
X173367000Y-57354000D02*
X172365000Y-57354000D01*
X172365000Y-56052000D01*
X173367000Y-56052000D01*
X173367000Y-57354000D01*
X173367000Y-57354000D01*
G37*
G36*
X108567798Y-56966528D02*
X107715798Y-56966528D01*
X107715798Y-55664528D01*
X108567798Y-55664528D01*
X108567798Y-56966528D01*
X108567798Y-56966528D01*
G37*
G36*
X110311943Y-55121460D02*
X110477370Y-55189982D01*
X110626255Y-55289464D01*
X110752862Y-55416071D01*
X110852344Y-55564956D01*
X110920866Y-55730383D01*
X110955798Y-55905998D01*
X110955798Y-56085058D01*
X110920866Y-56260673D01*
X110852344Y-56426100D01*
X110752862Y-56574985D01*
X110626255Y-56701592D01*
X110477370Y-56801074D01*
X110311943Y-56869596D01*
X110136328Y-56904528D01*
X109957268Y-56904528D01*
X109781653Y-56869596D01*
X109616226Y-56801074D01*
X109467341Y-56701592D01*
X109340734Y-56574985D01*
X109241252Y-56426100D01*
X109172730Y-56260673D01*
X109137798Y-56085058D01*
X109137798Y-55905998D01*
X109172730Y-55730383D01*
X109241252Y-55564956D01*
X109340734Y-55416071D01*
X109467341Y-55289464D01*
X109616226Y-55189982D01*
X109781653Y-55121460D01*
X109957268Y-55086528D01*
X110136328Y-55086528D01*
X110311943Y-55121460D01*
X110311943Y-55121460D01*
G37*
G36*
X102691943Y-55121460D02*
X102857370Y-55189982D01*
X103006255Y-55289464D01*
X103132862Y-55416071D01*
X103232344Y-55564956D01*
X103300866Y-55730383D01*
X103335798Y-55905998D01*
X103335798Y-56085058D01*
X103300866Y-56260673D01*
X103232344Y-56426100D01*
X103132862Y-56574985D01*
X103006255Y-56701592D01*
X102857370Y-56801074D01*
X102691943Y-56869596D01*
X102516328Y-56904528D01*
X102337268Y-56904528D01*
X102161653Y-56869596D01*
X101996226Y-56801074D01*
X101847341Y-56701592D01*
X101720734Y-56574985D01*
X101621252Y-56426100D01*
X101552730Y-56260673D01*
X101517798Y-56085058D01*
X101517798Y-55905998D01*
X101552730Y-55730383D01*
X101621252Y-55564956D01*
X101720734Y-55416071D01*
X101847341Y-55289464D01*
X101996226Y-55189982D01*
X102161653Y-55121460D01*
X102337268Y-55086528D01*
X102516328Y-55086528D01*
X102691943Y-55121460D01*
X102691943Y-55121460D01*
G37*
G36*
X120920000Y-56814000D02*
X119618000Y-56814000D01*
X119618000Y-55962000D01*
X120920000Y-55962000D01*
X120920000Y-56814000D01*
X120920000Y-56814000D01*
G37*
G36*
X117105000Y-56814000D02*
X115803000Y-56814000D01*
X115803000Y-55962000D01*
X117105000Y-55962000D01*
X117105000Y-56814000D01*
X117105000Y-56814000D01*
G37*
G36*
X119020000Y-56814000D02*
X117718000Y-56814000D01*
X117718000Y-55962000D01*
X119020000Y-55962000D01*
X119020000Y-56814000D01*
X119020000Y-56814000D01*
G37*
G36*
X115205000Y-56814000D02*
X113903000Y-56814000D01*
X113903000Y-55962000D01*
X115205000Y-55962000D01*
X115205000Y-56814000D01*
X115205000Y-56814000D01*
G37*
G36*
X164457000Y-56104000D02*
X163155000Y-56104000D01*
X163155000Y-55102000D01*
X164457000Y-55102000D01*
X164457000Y-56104000D01*
X164457000Y-56104000D01*
G37*
G36*
X162257000Y-56104000D02*
X160955000Y-56104000D01*
X160955000Y-55102000D01*
X162257000Y-55102000D01*
X162257000Y-56104000D01*
X162257000Y-56104000D01*
G37*
G36*
X166395000Y-55700000D02*
X164793000Y-55700000D01*
X164793000Y-54998000D01*
X166395000Y-54998000D01*
X166395000Y-55700000D01*
X166395000Y-55700000D01*
G37*
G36*
X171795000Y-55700000D02*
X170193000Y-55700000D01*
X170193000Y-54998000D01*
X171795000Y-54998000D01*
X171795000Y-55700000D01*
X171795000Y-55700000D01*
G37*
G36*
X104757798Y-55696528D02*
X103905798Y-55696528D01*
X103905798Y-54394528D01*
X104757798Y-54394528D01*
X104757798Y-55696528D01*
X104757798Y-55696528D01*
G37*
G36*
X176415000Y-55662000D02*
X175413000Y-55662000D01*
X175413000Y-54360000D01*
X176415000Y-54360000D01*
X176415000Y-55662000D01*
X176415000Y-55662000D01*
G37*
G36*
X174891000Y-55662000D02*
X173889000Y-55662000D01*
X173889000Y-54360000D01*
X174891000Y-54360000D01*
X174891000Y-55662000D01*
X174891000Y-55662000D01*
G37*
G36*
X196318065Y-53345539D02*
X196318067Y-53345540D01*
X196318068Y-53345540D01*
X196528992Y-53432907D01*
X196662173Y-53521896D01*
X196718822Y-53559748D01*
X196880252Y-53721178D01*
X196880254Y-53721181D01*
X197007093Y-53911008D01*
X197081293Y-54090145D01*
X197094461Y-54121935D01*
X197139000Y-54345847D01*
X197139000Y-54574153D01*
X197114153Y-54699068D01*
X197094460Y-54798068D01*
X197007093Y-55008992D01*
X197007092Y-55008993D01*
X196880252Y-55198822D01*
X196718822Y-55360252D01*
X196718819Y-55360254D01*
X196528992Y-55487093D01*
X196318068Y-55574460D01*
X196318067Y-55574460D01*
X196318065Y-55574461D01*
X196094153Y-55619000D01*
X195865847Y-55619000D01*
X195641935Y-55574461D01*
X195641933Y-55574460D01*
X195641932Y-55574460D01*
X195431008Y-55487093D01*
X195241181Y-55360254D01*
X195241178Y-55360252D01*
X195079748Y-55198822D01*
X194952908Y-55008993D01*
X194952907Y-55008992D01*
X194865540Y-54798068D01*
X194845848Y-54699068D01*
X194821000Y-54574153D01*
X194821000Y-54345847D01*
X194865539Y-54121935D01*
X194878707Y-54090145D01*
X194952907Y-53911008D01*
X195079746Y-53721181D01*
X195079748Y-53721178D01*
X195241178Y-53559748D01*
X195297827Y-53521896D01*
X195431008Y-53432907D01*
X195641932Y-53345540D01*
X195641933Y-53345540D01*
X195641935Y-53345539D01*
X195865847Y-53301000D01*
X196094153Y-53301000D01*
X196318065Y-53345539D01*
X196318065Y-53345539D01*
G37*
G36*
X115210000Y-55544000D02*
X113908000Y-55544000D01*
X113908000Y-54692000D01*
X115210000Y-54692000D01*
X115210000Y-55544000D01*
X115210000Y-55544000D01*
G37*
G36*
X117110000Y-55544000D02*
X115808000Y-55544000D01*
X115808000Y-54692000D01*
X117110000Y-54692000D01*
X117110000Y-55544000D01*
X117110000Y-55544000D01*
G37*
G36*
X120920000Y-55544000D02*
X119618000Y-55544000D01*
X119618000Y-54692000D01*
X120920000Y-54692000D01*
X120920000Y-55544000D01*
X120920000Y-55544000D01*
G37*
G36*
X119020000Y-55544000D02*
X117718000Y-55544000D01*
X117718000Y-54692000D01*
X119020000Y-54692000D01*
X119020000Y-55544000D01*
X119020000Y-55544000D01*
G37*
G36*
X173367000Y-55154000D02*
X172365000Y-55154000D01*
X172365000Y-53852000D01*
X173367000Y-53852000D01*
X173367000Y-55154000D01*
X173367000Y-55154000D01*
G37*
G36*
X141635145Y-52950932D02*
X141800572Y-53019454D01*
X141949457Y-53118936D01*
X142076064Y-53245543D01*
X142175546Y-53394428D01*
X142244068Y-53559855D01*
X142279000Y-53735470D01*
X142279000Y-53914530D01*
X142244068Y-54090145D01*
X142175546Y-54255572D01*
X142076064Y-54404457D01*
X141949457Y-54531064D01*
X141800572Y-54630546D01*
X141635145Y-54699068D01*
X141459530Y-54734000D01*
X141280470Y-54734000D01*
X141104855Y-54699068D01*
X140939428Y-54630546D01*
X140790543Y-54531064D01*
X140663936Y-54404457D01*
X140564454Y-54255572D01*
X140495932Y-54090145D01*
X140461000Y-53914530D01*
X140461000Y-53735470D01*
X140495932Y-53559855D01*
X140564454Y-53394428D01*
X140663936Y-53245543D01*
X140790543Y-53118936D01*
X140939428Y-53019454D01*
X141104855Y-52950932D01*
X141280470Y-52916000D01*
X141459530Y-52916000D01*
X141635145Y-52950932D01*
X141635145Y-52950932D01*
G37*
G36*
X162257000Y-54580000D02*
X160955000Y-54580000D01*
X160955000Y-53578000D01*
X162257000Y-53578000D01*
X162257000Y-54580000D01*
X162257000Y-54580000D01*
G37*
G36*
X164457000Y-54580000D02*
X163155000Y-54580000D01*
X163155000Y-53578000D01*
X164457000Y-53578000D01*
X164457000Y-54580000D01*
X164457000Y-54580000D01*
G37*
G36*
X171795000Y-54430000D02*
X170193000Y-54430000D01*
X170193000Y-53728000D01*
X171795000Y-53728000D01*
X171795000Y-54430000D01*
X171795000Y-54430000D01*
G37*
G36*
X166395000Y-54430000D02*
X164793000Y-54430000D01*
X164793000Y-53728000D01*
X166395000Y-53728000D01*
X166395000Y-54430000D01*
X166395000Y-54430000D01*
G37*
G36*
X110311943Y-52581460D02*
X110477370Y-52649982D01*
X110626255Y-52749464D01*
X110752862Y-52876071D01*
X110852344Y-53024956D01*
X110920866Y-53190383D01*
X110955798Y-53365998D01*
X110955798Y-53545058D01*
X110920866Y-53720673D01*
X110852344Y-53886100D01*
X110752862Y-54034985D01*
X110626255Y-54161592D01*
X110477370Y-54261074D01*
X110311943Y-54329596D01*
X110136328Y-54364528D01*
X109957268Y-54364528D01*
X109781653Y-54329596D01*
X109616226Y-54261074D01*
X109467341Y-54161592D01*
X109340734Y-54034985D01*
X109241252Y-53886100D01*
X109172730Y-53720673D01*
X109137798Y-53545058D01*
X109137798Y-53365998D01*
X109172730Y-53190383D01*
X109241252Y-53024956D01*
X109340734Y-52876071D01*
X109467341Y-52749464D01*
X109616226Y-52649982D01*
X109781653Y-52581460D01*
X109957268Y-52546528D01*
X110136328Y-52546528D01*
X110311943Y-52581460D01*
X110311943Y-52581460D01*
G37*
G36*
X102691943Y-52581460D02*
X102857370Y-52649982D01*
X103006255Y-52749464D01*
X103132862Y-52876071D01*
X103232344Y-53024956D01*
X103300866Y-53190383D01*
X103335798Y-53365998D01*
X103335798Y-53545058D01*
X103300866Y-53720673D01*
X103232344Y-53886100D01*
X103132862Y-54034985D01*
X103006255Y-54161592D01*
X102857370Y-54261074D01*
X102691943Y-54329596D01*
X102516328Y-54364528D01*
X102337268Y-54364528D01*
X102161653Y-54329596D01*
X101996226Y-54261074D01*
X101847341Y-54161592D01*
X101720734Y-54034985D01*
X101621252Y-53886100D01*
X101552730Y-53720673D01*
X101517798Y-53545058D01*
X101517798Y-53365998D01*
X101552730Y-53190383D01*
X101621252Y-53024956D01*
X101720734Y-52876071D01*
X101847341Y-52749464D01*
X101996226Y-52649982D01*
X102161653Y-52581460D01*
X102337268Y-52546528D01*
X102516328Y-52546528D01*
X102691943Y-52581460D01*
X102691943Y-52581460D01*
G37*
G36*
X127562896Y-52194696D02*
X127562898Y-52194697D01*
X127562899Y-52194697D01*
X127755625Y-52274526D01*
X127923389Y-52386623D01*
X127929076Y-52390423D01*
X128076577Y-52537924D01*
X128076579Y-52537927D01*
X128192474Y-52711375D01*
X128260694Y-52876074D01*
X128272304Y-52904104D01*
X128313000Y-53108696D01*
X128313000Y-53317304D01*
X128273087Y-53517961D01*
X128272303Y-53521899D01*
X128192474Y-53714625D01*
X128100682Y-53852000D01*
X128076577Y-53888076D01*
X127929076Y-54035577D01*
X127929073Y-54035579D01*
X127755625Y-54151474D01*
X127562899Y-54231303D01*
X127562898Y-54231303D01*
X127562896Y-54231304D01*
X127358304Y-54272000D01*
X127149696Y-54272000D01*
X126945104Y-54231304D01*
X126945102Y-54231303D01*
X126945101Y-54231303D01*
X126752375Y-54151474D01*
X126578927Y-54035579D01*
X126578924Y-54035577D01*
X126431423Y-53888076D01*
X126407318Y-53852000D01*
X126315526Y-53714625D01*
X126235697Y-53521899D01*
X126234914Y-53517961D01*
X126195000Y-53317304D01*
X126195000Y-53108696D01*
X126235696Y-52904104D01*
X126247306Y-52876074D01*
X126315526Y-52711375D01*
X126431421Y-52537927D01*
X126431423Y-52537924D01*
X126578924Y-52390423D01*
X126584611Y-52386623D01*
X126752375Y-52274526D01*
X126945101Y-52194697D01*
X126945102Y-52194697D01*
X126945104Y-52194696D01*
X127149696Y-52154000D01*
X127358304Y-52154000D01*
X127562896Y-52194696D01*
X127562896Y-52194696D01*
G37*
G36*
X135182896Y-52194696D02*
X135182898Y-52194697D01*
X135182899Y-52194697D01*
X135375625Y-52274526D01*
X135543389Y-52386623D01*
X135549076Y-52390423D01*
X135696577Y-52537924D01*
X135696579Y-52537927D01*
X135812474Y-52711375D01*
X135880694Y-52876074D01*
X135892304Y-52904104D01*
X135933000Y-53108696D01*
X135933000Y-53317304D01*
X135893087Y-53517961D01*
X135892303Y-53521899D01*
X135812474Y-53714625D01*
X135720682Y-53852000D01*
X135696577Y-53888076D01*
X135549076Y-54035577D01*
X135549073Y-54035579D01*
X135375625Y-54151474D01*
X135182899Y-54231303D01*
X135182898Y-54231303D01*
X135182896Y-54231304D01*
X134978304Y-54272000D01*
X134769696Y-54272000D01*
X134565104Y-54231304D01*
X134565102Y-54231303D01*
X134565101Y-54231303D01*
X134372375Y-54151474D01*
X134198927Y-54035579D01*
X134198924Y-54035577D01*
X134051423Y-53888076D01*
X134027318Y-53852000D01*
X133935526Y-53714625D01*
X133855697Y-53521899D01*
X133854914Y-53517961D01*
X133815000Y-53317304D01*
X133815000Y-53108696D01*
X133855696Y-52904104D01*
X133867306Y-52876074D01*
X133935526Y-52711375D01*
X134051421Y-52537927D01*
X134051423Y-52537924D01*
X134198924Y-52390423D01*
X134204611Y-52386623D01*
X134372375Y-52274526D01*
X134565101Y-52194697D01*
X134565102Y-52194697D01*
X134565104Y-52194696D01*
X134769696Y-52154000D01*
X134978304Y-52154000D01*
X135182896Y-52194696D01*
X135182896Y-52194696D01*
G37*
G36*
X132642896Y-52194696D02*
X132642898Y-52194697D01*
X132642899Y-52194697D01*
X132835625Y-52274526D01*
X133003389Y-52386623D01*
X133009076Y-52390423D01*
X133156577Y-52537924D01*
X133156579Y-52537927D01*
X133272474Y-52711375D01*
X133340694Y-52876074D01*
X133352304Y-52904104D01*
X133393000Y-53108696D01*
X133393000Y-53317304D01*
X133353087Y-53517961D01*
X133352303Y-53521899D01*
X133272474Y-53714625D01*
X133180682Y-53852000D01*
X133156577Y-53888076D01*
X133009076Y-54035577D01*
X133009073Y-54035579D01*
X132835625Y-54151474D01*
X132642899Y-54231303D01*
X132642898Y-54231303D01*
X132642896Y-54231304D01*
X132438304Y-54272000D01*
X132229696Y-54272000D01*
X132025104Y-54231304D01*
X132025102Y-54231303D01*
X132025101Y-54231303D01*
X131832375Y-54151474D01*
X131658927Y-54035579D01*
X131658924Y-54035577D01*
X131511423Y-53888076D01*
X131487318Y-53852000D01*
X131395526Y-53714625D01*
X131315697Y-53521899D01*
X131314914Y-53517961D01*
X131275000Y-53317304D01*
X131275000Y-53108696D01*
X131315696Y-52904104D01*
X131327306Y-52876074D01*
X131395526Y-52711375D01*
X131511421Y-52537927D01*
X131511423Y-52537924D01*
X131658924Y-52390423D01*
X131664611Y-52386623D01*
X131832375Y-52274526D01*
X132025101Y-52194697D01*
X132025102Y-52194697D01*
X132025104Y-52194696D01*
X132229696Y-52154000D01*
X132438304Y-52154000D01*
X132642896Y-52194696D01*
X132642896Y-52194696D01*
G37*
G36*
X130102896Y-52194696D02*
X130102898Y-52194697D01*
X130102899Y-52194697D01*
X130295625Y-52274526D01*
X130463389Y-52386623D01*
X130469076Y-52390423D01*
X130616577Y-52537924D01*
X130616579Y-52537927D01*
X130732474Y-52711375D01*
X130800694Y-52876074D01*
X130812304Y-52904104D01*
X130853000Y-53108696D01*
X130853000Y-53317304D01*
X130813087Y-53517961D01*
X130812303Y-53521899D01*
X130732474Y-53714625D01*
X130640682Y-53852000D01*
X130616577Y-53888076D01*
X130469076Y-54035577D01*
X130469073Y-54035579D01*
X130295625Y-54151474D01*
X130102899Y-54231303D01*
X130102898Y-54231303D01*
X130102896Y-54231304D01*
X129898304Y-54272000D01*
X129689696Y-54272000D01*
X129485104Y-54231304D01*
X129485102Y-54231303D01*
X129485101Y-54231303D01*
X129292375Y-54151474D01*
X129118927Y-54035579D01*
X129118924Y-54035577D01*
X128971423Y-53888076D01*
X128947318Y-53852000D01*
X128855526Y-53714625D01*
X128775697Y-53521899D01*
X128774914Y-53517961D01*
X128735000Y-53317304D01*
X128735000Y-53108696D01*
X128775696Y-52904104D01*
X128787306Y-52876074D01*
X128855526Y-52711375D01*
X128971421Y-52537927D01*
X128971423Y-52537924D01*
X129118924Y-52390423D01*
X129124611Y-52386623D01*
X129292375Y-52274526D01*
X129485101Y-52194697D01*
X129485102Y-52194697D01*
X129485104Y-52194696D01*
X129689696Y-52154000D01*
X129898304Y-52154000D01*
X130102896Y-52194696D01*
X130102896Y-52194696D01*
G37*
G36*
X125773000Y-54272000D02*
X123655000Y-54272000D01*
X123655000Y-52154000D01*
X125773000Y-52154000D01*
X125773000Y-54272000D01*
X125773000Y-54272000D01*
G37*
G36*
X115599500Y-54258500D02*
X113508500Y-54258500D01*
X113508500Y-52167500D01*
X115599500Y-52167500D01*
X115599500Y-54258500D01*
X115599500Y-54258500D01*
G37*
G36*
X119938961Y-52207677D02*
X120129229Y-52286489D01*
X120300471Y-52400909D01*
X120446090Y-52546528D01*
X120560511Y-52717771D01*
X120639323Y-52908039D01*
X120679500Y-53110026D01*
X120679500Y-53315974D01*
X120639323Y-53517961D01*
X120560511Y-53708229D01*
X120446091Y-53879471D01*
X120300471Y-54025091D01*
X120129229Y-54139511D01*
X119938961Y-54218323D01*
X119736974Y-54258500D01*
X119531026Y-54258500D01*
X119329039Y-54218323D01*
X119138771Y-54139511D01*
X118967529Y-54025091D01*
X118821909Y-53879471D01*
X118707489Y-53708229D01*
X118628677Y-53517961D01*
X118588500Y-53315974D01*
X118588500Y-53110026D01*
X118628677Y-52908039D01*
X118707489Y-52717771D01*
X118821910Y-52546528D01*
X118967529Y-52400909D01*
X119138771Y-52286489D01*
X119329039Y-52207677D01*
X119531026Y-52167500D01*
X119736974Y-52167500D01*
X119938961Y-52207677D01*
X119938961Y-52207677D01*
G37*
G36*
X117398961Y-52207677D02*
X117589229Y-52286489D01*
X117760471Y-52400909D01*
X117906090Y-52546528D01*
X118020511Y-52717771D01*
X118099323Y-52908039D01*
X118139500Y-53110026D01*
X118139500Y-53315974D01*
X118099323Y-53517961D01*
X118020511Y-53708229D01*
X117906091Y-53879471D01*
X117760471Y-54025091D01*
X117589229Y-54139511D01*
X117398961Y-54218323D01*
X117196974Y-54258500D01*
X116991026Y-54258500D01*
X116789039Y-54218323D01*
X116598771Y-54139511D01*
X116427529Y-54025091D01*
X116281909Y-53879471D01*
X116167489Y-53708229D01*
X116088677Y-53517961D01*
X116048500Y-53315974D01*
X116048500Y-53110026D01*
X116088677Y-52908039D01*
X116167489Y-52717771D01*
X116281910Y-52546528D01*
X116427529Y-52400909D01*
X116598771Y-52286489D01*
X116789039Y-52207677D01*
X116991026Y-52167500D01*
X117196974Y-52167500D01*
X117398961Y-52207677D01*
X117398961Y-52207677D01*
G37*
G36*
X108567798Y-53786528D02*
X107715798Y-53786528D01*
X107715798Y-52484528D01*
X108567798Y-52484528D01*
X108567798Y-53786528D01*
X108567798Y-53786528D01*
G37*
G36*
X175633000Y-53564000D02*
X174331000Y-53564000D01*
X174331000Y-52562000D01*
X175633000Y-52562000D01*
X175633000Y-53564000D01*
X175633000Y-53564000D01*
G37*
G36*
X173433000Y-53564000D02*
X172131000Y-53564000D01*
X172131000Y-52562000D01*
X173433000Y-52562000D01*
X173433000Y-53564000D01*
X173433000Y-53564000D01*
G37*
G36*
X166395000Y-53160000D02*
X164793000Y-53160000D01*
X164793000Y-52458000D01*
X166395000Y-52458000D01*
X166395000Y-53160000D01*
X166395000Y-53160000D01*
G37*
G36*
X171795000Y-53160000D02*
X170193000Y-53160000D01*
X170193000Y-52458000D01*
X171795000Y-52458000D01*
X171795000Y-53160000D01*
X171795000Y-53160000D01*
G37*
G36*
X184918517Y-51216130D02*
X185051732Y-51271309D01*
X185171626Y-51351420D01*
X185273580Y-51453374D01*
X185353691Y-51573268D01*
X185408870Y-51706483D01*
X185437000Y-51847903D01*
X185437000Y-51992097D01*
X185408870Y-52133517D01*
X185353691Y-52266732D01*
X185273580Y-52386626D01*
X185171626Y-52488580D01*
X185051732Y-52568691D01*
X184918517Y-52623870D01*
X184777097Y-52652000D01*
X184632903Y-52652000D01*
X184491483Y-52623870D01*
X184358268Y-52568691D01*
X184238374Y-52488580D01*
X184136420Y-52386626D01*
X184056309Y-52266732D01*
X184001130Y-52133517D01*
X183973000Y-51992097D01*
X183973000Y-51847903D01*
X184001130Y-51706483D01*
X184056309Y-51573268D01*
X184136420Y-51453374D01*
X184238374Y-51351420D01*
X184358268Y-51271309D01*
X184491483Y-51216130D01*
X184632903Y-51188000D01*
X184777097Y-51188000D01*
X184918517Y-51216130D01*
X184918517Y-51216130D01*
G37*
G36*
X188418517Y-51216130D02*
X188551732Y-51271309D01*
X188671626Y-51351420D01*
X188773580Y-51453374D01*
X188853691Y-51573268D01*
X188908870Y-51706483D01*
X188937000Y-51847903D01*
X188937000Y-51992097D01*
X188908870Y-52133517D01*
X188853691Y-52266732D01*
X188773580Y-52386626D01*
X188671626Y-52488580D01*
X188551732Y-52568691D01*
X188418517Y-52623870D01*
X188277097Y-52652000D01*
X188132903Y-52652000D01*
X187991483Y-52623870D01*
X187858268Y-52568691D01*
X187738374Y-52488580D01*
X187636420Y-52386626D01*
X187556309Y-52266732D01*
X187501130Y-52133517D01*
X187473000Y-51992097D01*
X187473000Y-51847903D01*
X187501130Y-51706483D01*
X187556309Y-51573268D01*
X187636420Y-51453374D01*
X187738374Y-51351420D01*
X187858268Y-51271309D01*
X187991483Y-51216130D01*
X188132903Y-51188000D01*
X188277097Y-51188000D01*
X188418517Y-51216130D01*
X188418517Y-51216130D01*
G37*
G36*
X144175145Y-50283932D02*
X144340572Y-50352454D01*
X144489457Y-50451936D01*
X144616064Y-50578543D01*
X144715546Y-50727428D01*
X144784068Y-50892855D01*
X144819000Y-51068470D01*
X144819000Y-51247530D01*
X144784068Y-51423145D01*
X144715546Y-51588572D01*
X144616064Y-51737457D01*
X144489457Y-51864064D01*
X144340572Y-51963546D01*
X144175145Y-52032068D01*
X143999530Y-52067000D01*
X143820470Y-52067000D01*
X143644855Y-52032068D01*
X143479428Y-51963546D01*
X143330543Y-51864064D01*
X143203936Y-51737457D01*
X143104454Y-51588572D01*
X143035932Y-51423145D01*
X143001000Y-51247530D01*
X143001000Y-51068470D01*
X143035932Y-50892855D01*
X143104454Y-50727428D01*
X143203936Y-50578543D01*
X143330543Y-50451936D01*
X143479428Y-50352454D01*
X143644855Y-50283932D01*
X143820470Y-50249000D01*
X143999530Y-50249000D01*
X144175145Y-50283932D01*
X144175145Y-50283932D01*
G37*
G36*
X139095145Y-50283932D02*
X139260572Y-50352454D01*
X139409457Y-50451936D01*
X139536064Y-50578543D01*
X139635546Y-50727428D01*
X139704068Y-50892855D01*
X139739000Y-51068470D01*
X139739000Y-51247530D01*
X139704068Y-51423145D01*
X139635546Y-51588572D01*
X139536064Y-51737457D01*
X139409457Y-51864064D01*
X139260572Y-51963546D01*
X139095145Y-52032068D01*
X138919530Y-52067000D01*
X138740470Y-52067000D01*
X138564855Y-52032068D01*
X138399428Y-51963546D01*
X138250543Y-51864064D01*
X138123936Y-51737457D01*
X138024454Y-51588572D01*
X137955932Y-51423145D01*
X137921000Y-51247530D01*
X137921000Y-51068470D01*
X137955932Y-50892855D01*
X138024454Y-50727428D01*
X138123936Y-50578543D01*
X138250543Y-50451936D01*
X138399428Y-50352454D01*
X138564855Y-50283932D01*
X138740470Y-50249000D01*
X138919530Y-50249000D01*
X139095145Y-50283932D01*
X139095145Y-50283932D01*
G37*
G36*
X175483000Y-51965000D02*
X174181000Y-51965000D01*
X174181000Y-51113000D01*
X175483000Y-51113000D01*
X175483000Y-51965000D01*
X175483000Y-51965000D01*
G37*
G36*
X162407000Y-51965000D02*
X161105000Y-51965000D01*
X161105000Y-51113000D01*
X162407000Y-51113000D01*
X162407000Y-51965000D01*
X162407000Y-51965000D01*
G37*
G36*
X164307000Y-51965000D02*
X163005000Y-51965000D01*
X163005000Y-51113000D01*
X164307000Y-51113000D01*
X164307000Y-51965000D01*
X164307000Y-51965000D01*
G37*
G36*
X173583000Y-51965000D02*
X172281000Y-51965000D01*
X172281000Y-51113000D01*
X173583000Y-51113000D01*
X173583000Y-51965000D01*
X173583000Y-51965000D01*
G37*
G36*
X166395000Y-51890000D02*
X164793000Y-51890000D01*
X164793000Y-51188000D01*
X166395000Y-51188000D01*
X166395000Y-51890000D01*
X166395000Y-51890000D01*
G37*
G36*
X171795000Y-51890000D02*
X170193000Y-51890000D01*
X170193000Y-51188000D01*
X171795000Y-51188000D01*
X171795000Y-51890000D01*
X171795000Y-51890000D01*
G37*
G36*
X108567798Y-51886528D02*
X107715798Y-51886528D01*
X107715798Y-50584528D01*
X108567798Y-50584528D01*
X108567798Y-51886528D01*
X108567798Y-51886528D01*
G37*
G36*
X110311943Y-50041460D02*
X110477370Y-50109982D01*
X110626255Y-50209464D01*
X110752862Y-50336071D01*
X110852344Y-50484956D01*
X110920866Y-50650383D01*
X110955798Y-50825998D01*
X110955798Y-51005058D01*
X110920866Y-51180673D01*
X110852344Y-51346100D01*
X110752862Y-51494985D01*
X110626255Y-51621592D01*
X110477370Y-51721074D01*
X110311943Y-51789596D01*
X110136328Y-51824528D01*
X109957268Y-51824528D01*
X109781653Y-51789596D01*
X109616226Y-51721074D01*
X109467341Y-51621592D01*
X109340734Y-51494985D01*
X109241252Y-51346100D01*
X109172730Y-51180673D01*
X109137798Y-51005058D01*
X109137798Y-50825998D01*
X109172730Y-50650383D01*
X109241252Y-50484956D01*
X109340734Y-50336071D01*
X109467341Y-50209464D01*
X109616226Y-50109982D01*
X109781653Y-50041460D01*
X109957268Y-50006528D01*
X110136328Y-50006528D01*
X110311943Y-50041460D01*
X110311943Y-50041460D01*
G37*
G36*
X102691943Y-50041460D02*
X102857370Y-50109982D01*
X103006255Y-50209464D01*
X103132862Y-50336071D01*
X103232344Y-50484956D01*
X103300866Y-50650383D01*
X103335798Y-50825998D01*
X103335798Y-51005058D01*
X103300866Y-51180673D01*
X103232344Y-51346100D01*
X103132862Y-51494985D01*
X103006255Y-51621592D01*
X102857370Y-51721074D01*
X102691943Y-51789596D01*
X102516328Y-51824528D01*
X102337268Y-51824528D01*
X102161653Y-51789596D01*
X101996226Y-51721074D01*
X101847341Y-51621592D01*
X101720734Y-51494985D01*
X101621252Y-51346100D01*
X101552730Y-51180673D01*
X101517798Y-51005058D01*
X101517798Y-50825998D01*
X101552730Y-50650383D01*
X101621252Y-50484956D01*
X101720734Y-50336071D01*
X101847341Y-50209464D01*
X101996226Y-50109982D01*
X102161653Y-50041460D01*
X102337268Y-50006528D01*
X102516328Y-50006528D01*
X102691943Y-50041460D01*
X102691943Y-50041460D01*
G37*
G36*
X119015000Y-51734000D02*
X117713000Y-51734000D01*
X117713000Y-50882000D01*
X119015000Y-50882000D01*
X119015000Y-51734000D01*
X119015000Y-51734000D01*
G37*
G36*
X120915000Y-51734000D02*
X119613000Y-51734000D01*
X119613000Y-50882000D01*
X120915000Y-50882000D01*
X120915000Y-51734000D01*
X120915000Y-51734000D01*
G37*
G36*
X115205000Y-51734000D02*
X113903000Y-51734000D01*
X113903000Y-50882000D01*
X115205000Y-50882000D01*
X115205000Y-51734000D01*
X115205000Y-51734000D01*
G37*
G36*
X117105000Y-51734000D02*
X115803000Y-51734000D01*
X115803000Y-50882000D01*
X117105000Y-50882000D01*
X117105000Y-51734000D01*
X117105000Y-51734000D01*
G37*
G36*
X166395000Y-50620000D02*
X164793000Y-50620000D01*
X164793000Y-49918000D01*
X166395000Y-49918000D01*
X166395000Y-50620000D01*
X166395000Y-50620000D01*
G37*
G36*
X171795000Y-50620000D02*
X170193000Y-50620000D01*
X170193000Y-49918000D01*
X171795000Y-49918000D01*
X171795000Y-50620000D01*
X171795000Y-50620000D01*
G37*
G36*
X197139000Y-50539000D02*
X194821000Y-50539000D01*
X194821000Y-48221000D01*
X197139000Y-48221000D01*
X197139000Y-50539000D01*
X197139000Y-50539000D01*
G37*
G36*
X143141000Y-49904000D02*
X142139000Y-49904000D01*
X142139000Y-48602000D01*
X143141000Y-48602000D01*
X143141000Y-49904000D01*
X143141000Y-49904000D01*
G37*
G36*
X140601000Y-49904000D02*
X139599000Y-49904000D01*
X139599000Y-48602000D01*
X140601000Y-48602000D01*
X140601000Y-49904000D01*
X140601000Y-49904000D01*
G37*
G36*
X164457000Y-49500000D02*
X163155000Y-49500000D01*
X163155000Y-48498000D01*
X164457000Y-48498000D01*
X164457000Y-49500000D01*
X164457000Y-49500000D01*
G37*
G36*
X162257000Y-49500000D02*
X160955000Y-49500000D01*
X160955000Y-48498000D01*
X162257000Y-48498000D01*
X162257000Y-49500000D01*
X162257000Y-49500000D01*
G37*
G36*
X171795000Y-49350000D02*
X170193000Y-49350000D01*
X170193000Y-48648000D01*
X171795000Y-48648000D01*
X171795000Y-49350000D01*
X171795000Y-49350000D01*
G37*
G36*
X166395000Y-49350000D02*
X164793000Y-49350000D01*
X164793000Y-48648000D01*
X166395000Y-48648000D01*
X166395000Y-49350000D01*
X166395000Y-49350000D01*
G37*
G36*
X135182896Y-47114696D02*
X135182898Y-47114697D01*
X135182899Y-47114697D01*
X135375625Y-47194526D01*
X135543389Y-47306623D01*
X135549076Y-47310423D01*
X135696577Y-47457924D01*
X135696579Y-47457927D01*
X135812474Y-47631375D01*
X135892303Y-47824101D01*
X135892304Y-47824104D01*
X135933000Y-48028696D01*
X135933000Y-48237304D01*
X135923220Y-48286473D01*
X135892303Y-48441899D01*
X135812474Y-48634625D01*
X135697102Y-48807291D01*
X135696577Y-48808076D01*
X135549076Y-48955577D01*
X135549073Y-48955579D01*
X135375625Y-49071474D01*
X135182899Y-49151303D01*
X135182898Y-49151303D01*
X135182896Y-49151304D01*
X134978304Y-49192000D01*
X134769696Y-49192000D01*
X134565104Y-49151304D01*
X134565102Y-49151303D01*
X134565101Y-49151303D01*
X134372375Y-49071474D01*
X134198927Y-48955579D01*
X134198924Y-48955577D01*
X134051423Y-48808076D01*
X134050898Y-48807291D01*
X133935526Y-48634625D01*
X133855697Y-48441899D01*
X133824781Y-48286473D01*
X133815000Y-48237304D01*
X133815000Y-48028696D01*
X133855696Y-47824104D01*
X133855697Y-47824101D01*
X133935526Y-47631375D01*
X134051421Y-47457927D01*
X134051423Y-47457924D01*
X134198924Y-47310423D01*
X134204611Y-47306623D01*
X134372375Y-47194526D01*
X134565101Y-47114697D01*
X134565102Y-47114697D01*
X134565104Y-47114696D01*
X134769696Y-47074000D01*
X134978304Y-47074000D01*
X135182896Y-47114696D01*
X135182896Y-47114696D01*
G37*
G36*
X127562896Y-47114696D02*
X127562898Y-47114697D01*
X127562899Y-47114697D01*
X127755625Y-47194526D01*
X127923389Y-47306623D01*
X127929076Y-47310423D01*
X128076577Y-47457924D01*
X128076579Y-47457927D01*
X128192474Y-47631375D01*
X128272303Y-47824101D01*
X128272304Y-47824104D01*
X128313000Y-48028696D01*
X128313000Y-48237304D01*
X128303220Y-48286473D01*
X128272303Y-48441899D01*
X128192474Y-48634625D01*
X128077102Y-48807291D01*
X128076577Y-48808076D01*
X127929076Y-48955577D01*
X127929073Y-48955579D01*
X127755625Y-49071474D01*
X127562899Y-49151303D01*
X127562898Y-49151303D01*
X127562896Y-49151304D01*
X127358304Y-49192000D01*
X127149696Y-49192000D01*
X126945104Y-49151304D01*
X126945102Y-49151303D01*
X126945101Y-49151303D01*
X126752375Y-49071474D01*
X126578927Y-48955579D01*
X126578924Y-48955577D01*
X126431423Y-48808076D01*
X126430898Y-48807291D01*
X126315526Y-48634625D01*
X126235697Y-48441899D01*
X126204781Y-48286473D01*
X126195000Y-48237304D01*
X126195000Y-48028696D01*
X126235696Y-47824104D01*
X126235697Y-47824101D01*
X126315526Y-47631375D01*
X126431421Y-47457927D01*
X126431423Y-47457924D01*
X126578924Y-47310423D01*
X126584611Y-47306623D01*
X126752375Y-47194526D01*
X126945101Y-47114697D01*
X126945102Y-47114697D01*
X126945104Y-47114696D01*
X127149696Y-47074000D01*
X127358304Y-47074000D01*
X127562896Y-47114696D01*
X127562896Y-47114696D01*
G37*
G36*
X125773000Y-49192000D02*
X123655000Y-49192000D01*
X123655000Y-47074000D01*
X125773000Y-47074000D01*
X125773000Y-49192000D01*
X125773000Y-49192000D01*
G37*
G36*
X130102896Y-47114696D02*
X130102898Y-47114697D01*
X130102899Y-47114697D01*
X130295625Y-47194526D01*
X130463389Y-47306623D01*
X130469076Y-47310423D01*
X130616577Y-47457924D01*
X130616579Y-47457927D01*
X130732474Y-47631375D01*
X130812303Y-47824101D01*
X130812304Y-47824104D01*
X130853000Y-48028696D01*
X130853000Y-48237304D01*
X130843220Y-48286473D01*
X130812303Y-48441899D01*
X130732474Y-48634625D01*
X130617102Y-48807291D01*
X130616577Y-48808076D01*
X130469076Y-48955577D01*
X130469073Y-48955579D01*
X130295625Y-49071474D01*
X130102899Y-49151303D01*
X130102898Y-49151303D01*
X130102896Y-49151304D01*
X129898304Y-49192000D01*
X129689696Y-49192000D01*
X129485104Y-49151304D01*
X129485102Y-49151303D01*
X129485101Y-49151303D01*
X129292375Y-49071474D01*
X129118927Y-48955579D01*
X129118924Y-48955577D01*
X128971423Y-48808076D01*
X128970898Y-48807291D01*
X128855526Y-48634625D01*
X128775697Y-48441899D01*
X128744781Y-48286473D01*
X128735000Y-48237304D01*
X128735000Y-48028696D01*
X128775696Y-47824104D01*
X128775697Y-47824101D01*
X128855526Y-47631375D01*
X128971421Y-47457927D01*
X128971423Y-47457924D01*
X129118924Y-47310423D01*
X129124611Y-47306623D01*
X129292375Y-47194526D01*
X129485101Y-47114697D01*
X129485102Y-47114697D01*
X129485104Y-47114696D01*
X129689696Y-47074000D01*
X129898304Y-47074000D01*
X130102896Y-47114696D01*
X130102896Y-47114696D01*
G37*
G36*
X132642896Y-47114696D02*
X132642898Y-47114697D01*
X132642899Y-47114697D01*
X132835625Y-47194526D01*
X133003389Y-47306623D01*
X133009076Y-47310423D01*
X133156577Y-47457924D01*
X133156579Y-47457927D01*
X133272474Y-47631375D01*
X133352303Y-47824101D01*
X133352304Y-47824104D01*
X133393000Y-48028696D01*
X133393000Y-48237304D01*
X133383220Y-48286473D01*
X133352303Y-48441899D01*
X133272474Y-48634625D01*
X133157102Y-48807291D01*
X133156577Y-48808076D01*
X133009076Y-48955577D01*
X133009073Y-48955579D01*
X132835625Y-49071474D01*
X132642899Y-49151303D01*
X132642898Y-49151303D01*
X132642896Y-49151304D01*
X132438304Y-49192000D01*
X132229696Y-49192000D01*
X132025104Y-49151304D01*
X132025102Y-49151303D01*
X132025101Y-49151303D01*
X131832375Y-49071474D01*
X131658927Y-48955579D01*
X131658924Y-48955577D01*
X131511423Y-48808076D01*
X131510898Y-48807291D01*
X131395526Y-48634625D01*
X131315697Y-48441899D01*
X131284781Y-48286473D01*
X131275000Y-48237304D01*
X131275000Y-48028696D01*
X131315696Y-47824104D01*
X131315697Y-47824101D01*
X131395526Y-47631375D01*
X131511421Y-47457927D01*
X131511423Y-47457924D01*
X131658924Y-47310423D01*
X131664611Y-47306623D01*
X131832375Y-47194526D01*
X132025101Y-47114697D01*
X132025102Y-47114697D01*
X132025104Y-47114696D01*
X132229696Y-47074000D01*
X132438304Y-47074000D01*
X132642896Y-47114696D01*
X132642896Y-47114696D01*
G37*
G36*
X105464896Y-46329696D02*
X105464898Y-46329697D01*
X105464899Y-46329697D01*
X105657625Y-46409526D01*
X105782953Y-46493268D01*
X105831076Y-46525423D01*
X105978577Y-46672924D01*
X105978579Y-46672927D01*
X106094474Y-46846375D01*
X106174303Y-47039101D01*
X106174304Y-47039104D01*
X106215000Y-47243696D01*
X106215000Y-47452304D01*
X106213882Y-47457927D01*
X106174303Y-47656899D01*
X106094474Y-47849625D01*
X105979102Y-48022291D01*
X105978577Y-48023076D01*
X105831076Y-48170577D01*
X105831073Y-48170579D01*
X105657625Y-48286474D01*
X105464899Y-48366303D01*
X105464898Y-48366303D01*
X105464896Y-48366304D01*
X105260304Y-48407000D01*
X105051696Y-48407000D01*
X104847104Y-48366304D01*
X104847102Y-48366303D01*
X104847101Y-48366303D01*
X104654375Y-48286474D01*
X104480927Y-48170579D01*
X104480924Y-48170577D01*
X104333423Y-48023076D01*
X104332898Y-48022291D01*
X104217526Y-47849625D01*
X104137697Y-47656899D01*
X104098119Y-47457927D01*
X104097000Y-47452304D01*
X104097000Y-47243696D01*
X104137696Y-47039104D01*
X104137697Y-47039101D01*
X104217526Y-46846375D01*
X104333421Y-46672927D01*
X104333423Y-46672924D01*
X104480924Y-46525423D01*
X104529047Y-46493268D01*
X104654375Y-46409526D01*
X104847101Y-46329697D01*
X104847102Y-46329697D01*
X104847104Y-46329696D01*
X105051696Y-46289000D01*
X105260304Y-46289000D01*
X105464896Y-46329696D01*
X105464896Y-46329696D01*
G37*
G36*
X166395000Y-48080000D02*
X164793000Y-48080000D01*
X164793000Y-47378000D01*
X166395000Y-47378000D01*
X166395000Y-48080000D01*
X166395000Y-48080000D01*
G37*
G36*
X171795000Y-48080000D02*
X170193000Y-48080000D01*
X170193000Y-47378000D01*
X171795000Y-47378000D01*
X171795000Y-48080000D01*
X171795000Y-48080000D01*
G37*
G36*
X140601000Y-47704000D02*
X139599000Y-47704000D01*
X139599000Y-46402000D01*
X140601000Y-46402000D01*
X140601000Y-47704000D01*
X140601000Y-47704000D01*
G37*
G36*
X143141000Y-47704000D02*
X142139000Y-47704000D01*
X142139000Y-46402000D01*
X143141000Y-46402000D01*
X143141000Y-47704000D01*
X143141000Y-47704000D01*
G37*
G36*
X188418517Y-46136130D02*
X188551732Y-46191309D01*
X188671626Y-46271420D01*
X188773580Y-46373374D01*
X188853691Y-46493268D01*
X188908870Y-46626483D01*
X188937000Y-46767903D01*
X188937000Y-46912097D01*
X188908870Y-47053517D01*
X188853691Y-47186732D01*
X188773580Y-47306626D01*
X188671626Y-47408580D01*
X188551732Y-47488691D01*
X188418517Y-47543870D01*
X188277097Y-47572000D01*
X188132903Y-47572000D01*
X187991483Y-47543870D01*
X187858268Y-47488691D01*
X187738374Y-47408580D01*
X187636420Y-47306626D01*
X187556309Y-47186732D01*
X187501130Y-47053517D01*
X187473000Y-46912097D01*
X187473000Y-46767903D01*
X187501130Y-46626483D01*
X187556309Y-46493268D01*
X187636420Y-46373374D01*
X187738374Y-46271420D01*
X187858268Y-46191309D01*
X187991483Y-46136130D01*
X188132903Y-46108000D01*
X188277097Y-46108000D01*
X188418517Y-46136130D01*
X188418517Y-46136130D01*
G37*
G36*
X184918517Y-46136130D02*
X185051732Y-46191309D01*
X185171626Y-46271420D01*
X185273580Y-46373374D01*
X185353691Y-46493268D01*
X185408870Y-46626483D01*
X185437000Y-46767903D01*
X185437000Y-46912097D01*
X185408870Y-47053517D01*
X185353691Y-47186732D01*
X185273580Y-47306626D01*
X185171626Y-47408580D01*
X185051732Y-47488691D01*
X184918517Y-47543870D01*
X184777097Y-47572000D01*
X184632903Y-47572000D01*
X184491483Y-47543870D01*
X184358268Y-47488691D01*
X184238374Y-47408580D01*
X184136420Y-47306626D01*
X184056309Y-47186732D01*
X184001130Y-47053517D01*
X183973000Y-46912097D01*
X183973000Y-46767903D01*
X184001130Y-46626483D01*
X184056309Y-46493268D01*
X184136420Y-46373374D01*
X184238374Y-46271420D01*
X184358268Y-46191309D01*
X184491483Y-46136130D01*
X184632903Y-46108000D01*
X184777097Y-46108000D01*
X184918517Y-46136130D01*
X184918517Y-46136130D01*
G37*
G36*
X165981000Y-46452000D02*
X164679000Y-46452000D01*
X164679000Y-45450000D01*
X165981000Y-45450000D01*
X165981000Y-46452000D01*
X165981000Y-46452000D01*
G37*
G36*
X163781000Y-46452000D02*
X162479000Y-46452000D01*
X162479000Y-45450000D01*
X163781000Y-45450000D01*
X163781000Y-46452000D01*
X163781000Y-46452000D01*
G37*
G36*
X105464896Y-43789696D02*
X105464898Y-43789697D01*
X105464899Y-43789697D01*
X105657625Y-43869526D01*
X105754016Y-43933933D01*
X105831076Y-43985423D01*
X105978577Y-44132924D01*
X105978579Y-44132927D01*
X106094474Y-44306375D01*
X106174303Y-44499101D01*
X106174304Y-44499104D01*
X106215000Y-44703696D01*
X106215000Y-44912304D01*
X106183007Y-45073145D01*
X106174303Y-45116899D01*
X106094474Y-45309625D01*
X106000678Y-45450000D01*
X105978577Y-45483076D01*
X105831076Y-45630577D01*
X105831073Y-45630579D01*
X105657625Y-45746474D01*
X105464899Y-45826303D01*
X105464898Y-45826303D01*
X105464896Y-45826304D01*
X105260304Y-45867000D01*
X105051696Y-45867000D01*
X104847104Y-45826304D01*
X104847102Y-45826303D01*
X104847101Y-45826303D01*
X104654375Y-45746474D01*
X104480927Y-45630579D01*
X104480924Y-45630577D01*
X104333423Y-45483076D01*
X104311322Y-45450000D01*
X104217526Y-45309625D01*
X104137697Y-45116899D01*
X104128994Y-45073145D01*
X104097000Y-44912304D01*
X104097000Y-44703696D01*
X104137696Y-44499104D01*
X104137697Y-44499101D01*
X104217526Y-44306375D01*
X104333421Y-44132927D01*
X104333423Y-44132924D01*
X104480924Y-43985423D01*
X104557984Y-43933933D01*
X104654375Y-43869526D01*
X104847101Y-43789697D01*
X104847102Y-43789697D01*
X104847104Y-43789696D01*
X105051696Y-43749000D01*
X105260304Y-43749000D01*
X105464896Y-43789696D01*
X105464896Y-43789696D01*
G37*
G36*
X140365145Y-43933932D02*
X140530572Y-44002454D01*
X140679457Y-44101936D01*
X140806064Y-44228543D01*
X140905546Y-44377428D01*
X140974068Y-44542855D01*
X141009000Y-44718470D01*
X141009000Y-44897530D01*
X140974068Y-45073145D01*
X140905546Y-45238572D01*
X140806064Y-45387457D01*
X140679457Y-45514064D01*
X140530572Y-45613546D01*
X140365145Y-45682068D01*
X140189530Y-45717000D01*
X140010470Y-45717000D01*
X139834855Y-45682068D01*
X139669428Y-45613546D01*
X139520543Y-45514064D01*
X139393936Y-45387457D01*
X139294454Y-45238572D01*
X139225932Y-45073145D01*
X139191000Y-44897530D01*
X139191000Y-44718470D01*
X139225932Y-44542855D01*
X139294454Y-44377428D01*
X139393936Y-44228543D01*
X139520543Y-44101936D01*
X139669428Y-44002454D01*
X139834855Y-43933932D01*
X140010470Y-43899000D01*
X140189530Y-43899000D01*
X140365145Y-43933932D01*
X140365145Y-43933932D01*
G37*
G36*
X145445145Y-43933932D02*
X145610572Y-44002454D01*
X145759457Y-44101936D01*
X145886064Y-44228543D01*
X145985546Y-44377428D01*
X146054068Y-44542855D01*
X146089000Y-44718470D01*
X146089000Y-44897530D01*
X146054068Y-45073145D01*
X145985546Y-45238572D01*
X145886064Y-45387457D01*
X145759457Y-45514064D01*
X145610572Y-45613546D01*
X145445145Y-45682068D01*
X145269530Y-45717000D01*
X145090470Y-45717000D01*
X144914855Y-45682068D01*
X144749428Y-45613546D01*
X144600543Y-45514064D01*
X144473936Y-45387457D01*
X144374454Y-45238572D01*
X144305932Y-45073145D01*
X144271000Y-44897530D01*
X144271000Y-44718470D01*
X144305932Y-44542855D01*
X144374454Y-44377428D01*
X144473936Y-44228543D01*
X144600543Y-44101936D01*
X144749428Y-44002454D01*
X144914855Y-43933932D01*
X145090470Y-43899000D01*
X145269530Y-43899000D01*
X145445145Y-43933932D01*
X145445145Y-43933932D01*
G37*
G36*
X142905145Y-43933932D02*
X143070572Y-44002454D01*
X143219457Y-44101936D01*
X143346064Y-44228543D01*
X143445546Y-44377428D01*
X143514068Y-44542855D01*
X143549000Y-44718470D01*
X143549000Y-44897530D01*
X143514068Y-45073145D01*
X143445546Y-45238572D01*
X143346064Y-45387457D01*
X143219457Y-45514064D01*
X143070572Y-45613546D01*
X142905145Y-45682068D01*
X142729530Y-45717000D01*
X142550470Y-45717000D01*
X142374855Y-45682068D01*
X142209428Y-45613546D01*
X142060543Y-45514064D01*
X141933936Y-45387457D01*
X141834454Y-45238572D01*
X141765932Y-45073145D01*
X141731000Y-44897530D01*
X141731000Y-44718470D01*
X141765932Y-44542855D01*
X141834454Y-44377428D01*
X141933936Y-44228543D01*
X142060543Y-44101936D01*
X142209428Y-44002454D01*
X142374855Y-43933932D01*
X142550470Y-43899000D01*
X142729530Y-43899000D01*
X142905145Y-43933932D01*
X142905145Y-43933932D01*
G37*
G36*
X130102896Y-42034696D02*
X130102898Y-42034697D01*
X130102899Y-42034697D01*
X130295625Y-42114526D01*
X130468291Y-42229898D01*
X130469076Y-42230423D01*
X130616577Y-42377924D01*
X130616579Y-42377927D01*
X130732474Y-42551375D01*
X130812303Y-42744101D01*
X130812304Y-42744104D01*
X130853000Y-42948696D01*
X130853000Y-43157304D01*
X130843220Y-43206473D01*
X130812303Y-43361899D01*
X130732474Y-43554625D01*
X130617102Y-43727291D01*
X130616577Y-43728076D01*
X130469076Y-43875577D01*
X130469073Y-43875579D01*
X130295625Y-43991474D01*
X130102899Y-44071303D01*
X130102898Y-44071303D01*
X130102896Y-44071304D01*
X129898304Y-44112000D01*
X129689696Y-44112000D01*
X129485104Y-44071304D01*
X129485102Y-44071303D01*
X129485101Y-44071303D01*
X129292375Y-43991474D01*
X129118927Y-43875579D01*
X129118924Y-43875577D01*
X128971423Y-43728076D01*
X128970898Y-43727291D01*
X128855526Y-43554625D01*
X128775697Y-43361899D01*
X128744781Y-43206473D01*
X128735000Y-43157304D01*
X128735000Y-42948696D01*
X128775696Y-42744104D01*
X128775697Y-42744101D01*
X128855526Y-42551375D01*
X128971421Y-42377927D01*
X128971423Y-42377924D01*
X129118924Y-42230423D01*
X129119709Y-42229898D01*
X129292375Y-42114526D01*
X129485101Y-42034697D01*
X129485102Y-42034697D01*
X129485104Y-42034696D01*
X129689696Y-41994000D01*
X129898304Y-41994000D01*
X130102896Y-42034696D01*
X130102896Y-42034696D01*
G37*
G36*
X125773000Y-44112000D02*
X123655000Y-44112000D01*
X123655000Y-41994000D01*
X125773000Y-41994000D01*
X125773000Y-44112000D01*
X125773000Y-44112000D01*
G37*
G36*
X127562896Y-42034696D02*
X127562898Y-42034697D01*
X127562899Y-42034697D01*
X127755625Y-42114526D01*
X127928291Y-42229898D01*
X127929076Y-42230423D01*
X128076577Y-42377924D01*
X128076579Y-42377927D01*
X128192474Y-42551375D01*
X128272303Y-42744101D01*
X128272304Y-42744104D01*
X128313000Y-42948696D01*
X128313000Y-43157304D01*
X128303220Y-43206473D01*
X128272303Y-43361899D01*
X128192474Y-43554625D01*
X128077102Y-43727291D01*
X128076577Y-43728076D01*
X127929076Y-43875577D01*
X127929073Y-43875579D01*
X127755625Y-43991474D01*
X127562899Y-44071303D01*
X127562898Y-44071303D01*
X127562896Y-44071304D01*
X127358304Y-44112000D01*
X127149696Y-44112000D01*
X126945104Y-44071304D01*
X126945102Y-44071303D01*
X126945101Y-44071303D01*
X126752375Y-43991474D01*
X126578927Y-43875579D01*
X126578924Y-43875577D01*
X126431423Y-43728076D01*
X126430898Y-43727291D01*
X126315526Y-43554625D01*
X126235697Y-43361899D01*
X126204781Y-43206473D01*
X126195000Y-43157304D01*
X126195000Y-42948696D01*
X126235696Y-42744104D01*
X126235697Y-42744101D01*
X126315526Y-42551375D01*
X126431421Y-42377927D01*
X126431423Y-42377924D01*
X126578924Y-42230423D01*
X126579709Y-42229898D01*
X126752375Y-42114526D01*
X126945101Y-42034697D01*
X126945102Y-42034697D01*
X126945104Y-42034696D01*
X127149696Y-41994000D01*
X127358304Y-41994000D01*
X127562896Y-42034696D01*
X127562896Y-42034696D01*
G37*
G36*
X132642896Y-42034696D02*
X132642898Y-42034697D01*
X132642899Y-42034697D01*
X132835625Y-42114526D01*
X133008291Y-42229898D01*
X133009076Y-42230423D01*
X133156577Y-42377924D01*
X133156579Y-42377927D01*
X133272474Y-42551375D01*
X133352303Y-42744101D01*
X133352304Y-42744104D01*
X133393000Y-42948696D01*
X133393000Y-43157304D01*
X133383220Y-43206473D01*
X133352303Y-43361899D01*
X133272474Y-43554625D01*
X133157102Y-43727291D01*
X133156577Y-43728076D01*
X133009076Y-43875577D01*
X133009073Y-43875579D01*
X132835625Y-43991474D01*
X132642899Y-44071303D01*
X132642898Y-44071303D01*
X132642896Y-44071304D01*
X132438304Y-44112000D01*
X132229696Y-44112000D01*
X132025104Y-44071304D01*
X132025102Y-44071303D01*
X132025101Y-44071303D01*
X131832375Y-43991474D01*
X131658927Y-43875579D01*
X131658924Y-43875577D01*
X131511423Y-43728076D01*
X131510898Y-43727291D01*
X131395526Y-43554625D01*
X131315697Y-43361899D01*
X131284781Y-43206473D01*
X131275000Y-43157304D01*
X131275000Y-42948696D01*
X131315696Y-42744104D01*
X131315697Y-42744101D01*
X131395526Y-42551375D01*
X131511421Y-42377927D01*
X131511423Y-42377924D01*
X131658924Y-42230423D01*
X131659709Y-42229898D01*
X131832375Y-42114526D01*
X132025101Y-42034697D01*
X132025102Y-42034697D01*
X132025104Y-42034696D01*
X132229696Y-41994000D01*
X132438304Y-41994000D01*
X132642896Y-42034696D01*
X132642896Y-42034696D01*
G37*
G36*
X135182896Y-42034696D02*
X135182898Y-42034697D01*
X135182899Y-42034697D01*
X135375625Y-42114526D01*
X135548291Y-42229898D01*
X135549076Y-42230423D01*
X135696577Y-42377924D01*
X135696579Y-42377927D01*
X135812474Y-42551375D01*
X135892303Y-42744101D01*
X135892304Y-42744104D01*
X135933000Y-42948696D01*
X135933000Y-43157304D01*
X135923220Y-43206473D01*
X135892303Y-43361899D01*
X135812474Y-43554625D01*
X135697102Y-43727291D01*
X135696577Y-43728076D01*
X135549076Y-43875577D01*
X135549073Y-43875579D01*
X135375625Y-43991474D01*
X135182899Y-44071303D01*
X135182898Y-44071303D01*
X135182896Y-44071304D01*
X134978304Y-44112000D01*
X134769696Y-44112000D01*
X134565104Y-44071304D01*
X134565102Y-44071303D01*
X134565101Y-44071303D01*
X134372375Y-43991474D01*
X134198927Y-43875579D01*
X134198924Y-43875577D01*
X134051423Y-43728076D01*
X134050898Y-43727291D01*
X133935526Y-43554625D01*
X133855697Y-43361899D01*
X133824781Y-43206473D01*
X133815000Y-43157304D01*
X133815000Y-42948696D01*
X133855696Y-42744104D01*
X133855697Y-42744101D01*
X133935526Y-42551375D01*
X134051421Y-42377927D01*
X134051423Y-42377924D01*
X134198924Y-42230423D01*
X134199709Y-42229898D01*
X134372375Y-42114526D01*
X134565101Y-42034697D01*
X134565102Y-42034697D01*
X134565104Y-42034696D01*
X134769696Y-41994000D01*
X134978304Y-41994000D01*
X135182896Y-42034696D01*
X135182896Y-42034696D01*
G37*
G36*
X143286000Y-43329000D02*
X141984000Y-43329000D01*
X141984000Y-42477000D01*
X143286000Y-42477000D01*
X143286000Y-43329000D01*
X143286000Y-43329000D01*
G37*
G36*
X141386000Y-43329000D02*
X140084000Y-43329000D01*
X140084000Y-42477000D01*
X141386000Y-42477000D01*
X141386000Y-43329000D01*
X141386000Y-43329000D01*
G37*
G36*
X105464896Y-41249696D02*
X105464898Y-41249697D01*
X105464899Y-41249697D01*
X105657625Y-41329526D01*
X105830291Y-41444898D01*
X105831076Y-41445423D01*
X105978577Y-41592924D01*
X105978579Y-41592927D01*
X106094474Y-41766375D01*
X106174303Y-41959101D01*
X106174304Y-41959104D01*
X106215000Y-42163696D01*
X106215000Y-42372304D01*
X106194175Y-42477000D01*
X106174303Y-42576899D01*
X106094474Y-42769625D01*
X105979102Y-42942291D01*
X105978577Y-42943076D01*
X105831076Y-43090577D01*
X105831073Y-43090579D01*
X105657625Y-43206474D01*
X105464899Y-43286303D01*
X105464898Y-43286303D01*
X105464896Y-43286304D01*
X105260304Y-43327000D01*
X105051696Y-43327000D01*
X104847104Y-43286304D01*
X104847102Y-43286303D01*
X104847101Y-43286303D01*
X104654375Y-43206474D01*
X104480927Y-43090579D01*
X104480924Y-43090577D01*
X104333423Y-42943076D01*
X104332898Y-42942291D01*
X104217526Y-42769625D01*
X104137697Y-42576899D01*
X104117826Y-42477000D01*
X104097000Y-42372304D01*
X104097000Y-42163696D01*
X104137696Y-41959104D01*
X104137697Y-41959101D01*
X104217526Y-41766375D01*
X104333421Y-41592927D01*
X104333423Y-41592924D01*
X104480924Y-41445423D01*
X104481709Y-41444898D01*
X104654375Y-41329526D01*
X104847101Y-41249697D01*
X104847102Y-41249697D01*
X104847104Y-41249696D01*
X105051696Y-41209000D01*
X105260304Y-41209000D01*
X105464896Y-41249696D01*
X105464896Y-41249696D01*
G37*
G36*
X118380000Y-42844000D02*
X117078000Y-42844000D01*
X117078000Y-41992000D01*
X118380000Y-41992000D01*
X118380000Y-42844000D01*
X118380000Y-42844000D01*
G37*
G36*
X116480000Y-42844000D02*
X115178000Y-42844000D01*
X115178000Y-41992000D01*
X116480000Y-41992000D01*
X116480000Y-42844000D01*
X116480000Y-42844000D01*
G37*
G36*
X137825145Y-39488932D02*
X137990572Y-39557454D01*
X138139457Y-39656936D01*
X138266064Y-39783543D01*
X138365546Y-39932428D01*
X138434068Y-40097855D01*
X138469000Y-40273470D01*
X138469000Y-40452530D01*
X138434068Y-40628145D01*
X138365546Y-40793572D01*
X138266064Y-40942457D01*
X138139457Y-41069064D01*
X137990572Y-41168546D01*
X137825145Y-41237068D01*
X137649530Y-41272000D01*
X137470470Y-41272000D01*
X137294855Y-41237068D01*
X137129428Y-41168546D01*
X136980543Y-41069064D01*
X136853936Y-40942457D01*
X136754454Y-40793572D01*
X136685932Y-40628145D01*
X136651000Y-40452530D01*
X136651000Y-40273470D01*
X136685932Y-40097855D01*
X136754454Y-39932428D01*
X136853936Y-39783543D01*
X136980543Y-39656936D01*
X137129428Y-39557454D01*
X137294855Y-39488932D01*
X137470470Y-39454000D01*
X137649530Y-39454000D01*
X137825145Y-39488932D01*
X137825145Y-39488932D01*
G37*
G36*
X142905145Y-39488932D02*
X143070572Y-39557454D01*
X143219457Y-39656936D01*
X143346064Y-39783543D01*
X143445546Y-39932428D01*
X143514068Y-40097855D01*
X143549000Y-40273470D01*
X143549000Y-40452530D01*
X143514068Y-40628145D01*
X143445546Y-40793572D01*
X143346064Y-40942457D01*
X143219457Y-41069064D01*
X143070572Y-41168546D01*
X142905145Y-41237068D01*
X142729530Y-41272000D01*
X142550470Y-41272000D01*
X142374855Y-41237068D01*
X142209428Y-41168546D01*
X142060543Y-41069064D01*
X141933936Y-40942457D01*
X141834454Y-40793572D01*
X141765932Y-40628145D01*
X141731000Y-40452530D01*
X141731000Y-40273470D01*
X141765932Y-40097855D01*
X141834454Y-39932428D01*
X141933936Y-39783543D01*
X142060543Y-39656936D01*
X142209428Y-39557454D01*
X142374855Y-39488932D01*
X142550470Y-39454000D01*
X142729530Y-39454000D01*
X142905145Y-39488932D01*
X142905145Y-39488932D01*
G37*
G36*
X140365145Y-39488932D02*
X140530572Y-39557454D01*
X140679457Y-39656936D01*
X140806064Y-39783543D01*
X140905546Y-39932428D01*
X140974068Y-40097855D01*
X141009000Y-40273470D01*
X141009000Y-40452530D01*
X140974068Y-40628145D01*
X140905546Y-40793572D01*
X140806064Y-40942457D01*
X140679457Y-41069064D01*
X140530572Y-41168546D01*
X140365145Y-41237068D01*
X140189530Y-41272000D01*
X140010470Y-41272000D01*
X139834855Y-41237068D01*
X139669428Y-41168546D01*
X139520543Y-41069064D01*
X139393936Y-40942457D01*
X139294454Y-40793572D01*
X139225932Y-40628145D01*
X139191000Y-40452530D01*
X139191000Y-40273470D01*
X139225932Y-40097855D01*
X139294454Y-39932428D01*
X139393936Y-39783543D01*
X139520543Y-39656936D01*
X139669428Y-39557454D01*
X139834855Y-39488932D01*
X140010470Y-39454000D01*
X140189530Y-39454000D01*
X140365145Y-39488932D01*
X140365145Y-39488932D01*
G37*
G36*
X118380000Y-40939000D02*
X117078000Y-40939000D01*
X117078000Y-40087000D01*
X118380000Y-40087000D01*
X118380000Y-40939000D01*
X118380000Y-40939000D01*
G37*
G36*
X116480000Y-40939000D02*
X115178000Y-40939000D01*
X115178000Y-40087000D01*
X116480000Y-40087000D01*
X116480000Y-40939000D01*
X116480000Y-40939000D01*
G37*
G36*
X105464896Y-38709696D02*
X105464898Y-38709697D01*
X105464899Y-38709697D01*
X105657625Y-38789526D01*
X105764537Y-38860963D01*
X105831076Y-38905423D01*
X105978577Y-39052924D01*
X105978579Y-39052927D01*
X106094474Y-39226375D01*
X106174303Y-39419101D01*
X106174304Y-39419104D01*
X106215000Y-39623696D01*
X106215000Y-39832302D01*
X106174303Y-40036899D01*
X106094474Y-40229625D01*
X105979102Y-40402291D01*
X105978577Y-40403076D01*
X105831076Y-40550577D01*
X105831073Y-40550579D01*
X105657625Y-40666474D01*
X105464899Y-40746303D01*
X105464898Y-40746303D01*
X105464896Y-40746304D01*
X105260304Y-40787000D01*
X105051696Y-40787000D01*
X104847104Y-40746304D01*
X104847102Y-40746303D01*
X104847101Y-40746303D01*
X104654375Y-40666474D01*
X104480927Y-40550579D01*
X104480924Y-40550577D01*
X104333423Y-40403076D01*
X104332898Y-40402291D01*
X104217526Y-40229625D01*
X104137697Y-40036899D01*
X104097000Y-39832302D01*
X104097000Y-39623696D01*
X104137696Y-39419104D01*
X104137697Y-39419101D01*
X104217526Y-39226375D01*
X104333421Y-39052927D01*
X104333423Y-39052924D01*
X104480924Y-38905423D01*
X104547463Y-38860963D01*
X104654375Y-38789526D01*
X104847101Y-38709697D01*
X104847102Y-38709697D01*
X104847104Y-38709696D01*
X105051696Y-38669000D01*
X105260304Y-38669000D01*
X105464896Y-38709696D01*
X105464896Y-38709696D01*
G37*
G36*
X170281000Y-40281000D02*
X168979000Y-40281000D01*
X168979000Y-39429000D01*
X170281000Y-39429000D01*
X170281000Y-40281000D01*
X170281000Y-40281000D01*
G37*
G36*
X172181000Y-40281000D02*
X170879000Y-40281000D01*
X170879000Y-39429000D01*
X172181000Y-39429000D01*
X172181000Y-40281000D01*
X172181000Y-40281000D01*
G37*
G36*
X166321000Y-39086000D02*
X165019000Y-39086000D01*
X165019000Y-38084000D01*
X166321000Y-38084000D01*
X166321000Y-39086000D01*
X166321000Y-39086000D01*
G37*
G36*
X168521000Y-39086000D02*
X167219000Y-39086000D01*
X167219000Y-38084000D01*
X168521000Y-38084000D01*
X168521000Y-39086000D01*
X168521000Y-39086000D01*
G37*
G36*
X114570000Y-39034000D02*
X113268000Y-39034000D01*
X113268000Y-38182000D01*
X114570000Y-38182000D01*
X114570000Y-39034000D01*
X114570000Y-39034000D01*
G37*
G36*
X116470000Y-39034000D02*
X115168000Y-39034000D01*
X115168000Y-38182000D01*
X116470000Y-38182000D01*
X116470000Y-39034000D01*
X116470000Y-39034000D01*
G37*
G36*
X120920000Y-39034000D02*
X119618000Y-39034000D01*
X119618000Y-38182000D01*
X120920000Y-38182000D01*
X120920000Y-39034000D01*
X120920000Y-39034000D01*
G37*
G36*
X119020000Y-39034000D02*
X117718000Y-39034000D01*
X117718000Y-38182000D01*
X119020000Y-38182000D01*
X119020000Y-39034000D01*
X119020000Y-39034000D01*
G37*
G36*
X142656000Y-38884000D02*
X141354000Y-38884000D01*
X141354000Y-38032000D01*
X142656000Y-38032000D01*
X142656000Y-38884000D01*
X142656000Y-38884000D01*
G37*
G36*
X140756000Y-38884000D02*
X139454000Y-38884000D01*
X139454000Y-38032000D01*
X140756000Y-38032000D01*
X140756000Y-38884000D01*
X140756000Y-38884000D01*
G37*
G36*
X127364442Y-37078518D02*
X127430627Y-37085037D01*
X127543853Y-37119384D01*
X127600467Y-37136557D01*
X127715845Y-37198229D01*
X127756991Y-37220222D01*
X127792729Y-37249552D01*
X127894186Y-37332814D01*
X127971536Y-37427067D01*
X128006778Y-37470009D01*
X128006779Y-37470011D01*
X128090443Y-37626533D01*
X128090443Y-37626534D01*
X128141963Y-37796373D01*
X128159359Y-37973000D01*
X128141963Y-38149627D01*
X128112425Y-38247000D01*
X128090443Y-38319467D01*
X128016348Y-38458087D01*
X128006778Y-38475991D01*
X127977448Y-38511729D01*
X127894186Y-38613186D01*
X127826175Y-38669000D01*
X127756991Y-38725778D01*
X127756989Y-38725779D01*
X127600467Y-38809443D01*
X127543853Y-38826616D01*
X127430627Y-38860963D01*
X127364443Y-38867481D01*
X127298260Y-38874000D01*
X127209740Y-38874000D01*
X127143557Y-38867481D01*
X127077373Y-38860963D01*
X126964147Y-38826616D01*
X126907533Y-38809443D01*
X126751011Y-38725779D01*
X126751009Y-38725778D01*
X126681825Y-38669000D01*
X126613814Y-38613186D01*
X126530552Y-38511729D01*
X126501222Y-38475991D01*
X126491652Y-38458087D01*
X126417557Y-38319467D01*
X126395575Y-38247000D01*
X126366037Y-38149627D01*
X126348641Y-37973000D01*
X126366037Y-37796373D01*
X126417557Y-37626534D01*
X126417557Y-37626533D01*
X126501221Y-37470011D01*
X126501222Y-37470009D01*
X126536464Y-37427067D01*
X126613814Y-37332814D01*
X126715271Y-37249552D01*
X126751009Y-37220222D01*
X126792155Y-37198229D01*
X126907533Y-37136557D01*
X126964147Y-37119384D01*
X127077373Y-37085037D01*
X127143558Y-37078518D01*
X127209740Y-37072000D01*
X127298260Y-37072000D01*
X127364442Y-37078518D01*
X127364442Y-37078518D01*
G37*
G36*
X132444442Y-37078518D02*
X132510627Y-37085037D01*
X132623853Y-37119384D01*
X132680467Y-37136557D01*
X132795845Y-37198229D01*
X132836991Y-37220222D01*
X132872729Y-37249552D01*
X132974186Y-37332814D01*
X133051536Y-37427067D01*
X133086778Y-37470009D01*
X133086779Y-37470011D01*
X133170443Y-37626533D01*
X133170443Y-37626534D01*
X133221963Y-37796373D01*
X133239359Y-37973000D01*
X133221963Y-38149627D01*
X133192425Y-38247000D01*
X133170443Y-38319467D01*
X133096348Y-38458087D01*
X133086778Y-38475991D01*
X133057448Y-38511729D01*
X132974186Y-38613186D01*
X132906175Y-38669000D01*
X132836991Y-38725778D01*
X132836989Y-38725779D01*
X132680467Y-38809443D01*
X132623853Y-38826616D01*
X132510627Y-38860963D01*
X132444443Y-38867481D01*
X132378260Y-38874000D01*
X132289740Y-38874000D01*
X132223557Y-38867481D01*
X132157373Y-38860963D01*
X132044147Y-38826616D01*
X131987533Y-38809443D01*
X131831011Y-38725779D01*
X131831009Y-38725778D01*
X131761825Y-38669000D01*
X131693814Y-38613186D01*
X131610552Y-38511729D01*
X131581222Y-38475991D01*
X131571652Y-38458087D01*
X131497557Y-38319467D01*
X131475575Y-38247000D01*
X131446037Y-38149627D01*
X131428641Y-37973000D01*
X131446037Y-37796373D01*
X131497557Y-37626534D01*
X131497557Y-37626533D01*
X131581221Y-37470011D01*
X131581222Y-37470009D01*
X131616464Y-37427067D01*
X131693814Y-37332814D01*
X131795271Y-37249552D01*
X131831009Y-37220222D01*
X131872155Y-37198229D01*
X131987533Y-37136557D01*
X132044147Y-37119384D01*
X132157373Y-37085037D01*
X132223558Y-37078518D01*
X132289740Y-37072000D01*
X132378260Y-37072000D01*
X132444442Y-37078518D01*
X132444442Y-37078518D01*
G37*
G36*
X129904442Y-37078518D02*
X129970627Y-37085037D01*
X130083853Y-37119384D01*
X130140467Y-37136557D01*
X130255845Y-37198229D01*
X130296991Y-37220222D01*
X130332729Y-37249552D01*
X130434186Y-37332814D01*
X130511536Y-37427067D01*
X130546778Y-37470009D01*
X130546779Y-37470011D01*
X130630443Y-37626533D01*
X130630443Y-37626534D01*
X130681963Y-37796373D01*
X130699359Y-37973000D01*
X130681963Y-38149627D01*
X130652425Y-38247000D01*
X130630443Y-38319467D01*
X130556348Y-38458087D01*
X130546778Y-38475991D01*
X130517448Y-38511729D01*
X130434186Y-38613186D01*
X130366175Y-38669000D01*
X130296991Y-38725778D01*
X130296989Y-38725779D01*
X130140467Y-38809443D01*
X130083853Y-38826616D01*
X129970627Y-38860963D01*
X129904443Y-38867481D01*
X129838260Y-38874000D01*
X129749740Y-38874000D01*
X129683557Y-38867481D01*
X129617373Y-38860963D01*
X129504147Y-38826616D01*
X129447533Y-38809443D01*
X129291011Y-38725779D01*
X129291009Y-38725778D01*
X129221825Y-38669000D01*
X129153814Y-38613186D01*
X129070552Y-38511729D01*
X129041222Y-38475991D01*
X129031652Y-38458087D01*
X128957557Y-38319467D01*
X128935575Y-38247000D01*
X128906037Y-38149627D01*
X128888641Y-37973000D01*
X128906037Y-37796373D01*
X128957557Y-37626534D01*
X128957557Y-37626533D01*
X129041221Y-37470011D01*
X129041222Y-37470009D01*
X129076464Y-37427067D01*
X129153814Y-37332814D01*
X129255271Y-37249552D01*
X129291009Y-37220222D01*
X129332155Y-37198229D01*
X129447533Y-37136557D01*
X129504147Y-37119384D01*
X129617373Y-37085037D01*
X129683558Y-37078518D01*
X129749740Y-37072000D01*
X129838260Y-37072000D01*
X129904442Y-37078518D01*
X129904442Y-37078518D01*
G37*
G36*
X134984442Y-37078518D02*
X135050627Y-37085037D01*
X135163853Y-37119384D01*
X135220467Y-37136557D01*
X135335845Y-37198229D01*
X135376991Y-37220222D01*
X135412729Y-37249552D01*
X135514186Y-37332814D01*
X135591536Y-37427067D01*
X135626778Y-37470009D01*
X135626779Y-37470011D01*
X135710443Y-37626533D01*
X135710443Y-37626534D01*
X135761963Y-37796373D01*
X135779359Y-37973000D01*
X135761963Y-38149627D01*
X135732425Y-38247000D01*
X135710443Y-38319467D01*
X135636348Y-38458087D01*
X135626778Y-38475991D01*
X135597448Y-38511729D01*
X135514186Y-38613186D01*
X135446175Y-38669000D01*
X135376991Y-38725778D01*
X135376989Y-38725779D01*
X135220467Y-38809443D01*
X135163853Y-38826616D01*
X135050627Y-38860963D01*
X134984443Y-38867481D01*
X134918260Y-38874000D01*
X134829740Y-38874000D01*
X134763557Y-38867481D01*
X134697373Y-38860963D01*
X134584147Y-38826616D01*
X134527533Y-38809443D01*
X134371011Y-38725779D01*
X134371009Y-38725778D01*
X134301825Y-38669000D01*
X134233814Y-38613186D01*
X134150552Y-38511729D01*
X134121222Y-38475991D01*
X134111652Y-38458087D01*
X134037557Y-38319467D01*
X134015575Y-38247000D01*
X133986037Y-38149627D01*
X133968641Y-37973000D01*
X133986037Y-37796373D01*
X134037557Y-37626534D01*
X134037557Y-37626533D01*
X134121221Y-37470011D01*
X134121222Y-37470009D01*
X134156464Y-37427067D01*
X134233814Y-37332814D01*
X134335271Y-37249552D01*
X134371009Y-37220222D01*
X134412155Y-37198229D01*
X134527533Y-37136557D01*
X134584147Y-37119384D01*
X134697373Y-37085037D01*
X134763558Y-37078518D01*
X134829740Y-37072000D01*
X134918260Y-37072000D01*
X134984442Y-37078518D01*
X134984442Y-37078518D01*
G37*
G36*
X125615000Y-38874000D02*
X123813000Y-38874000D01*
X123813000Y-37072000D01*
X125615000Y-37072000D01*
X125615000Y-38874000D01*
X125615000Y-38874000D01*
G37*
G36*
X106215000Y-38247000D02*
X104097000Y-38247000D01*
X104097000Y-36129000D01*
X106215000Y-36129000D01*
X106215000Y-38247000D01*
X106215000Y-38247000D01*
G37*
G36*
X117398961Y-35697677D02*
X117589229Y-35776489D01*
X117760471Y-35890909D01*
X117906091Y-36036529D01*
X118020511Y-36207771D01*
X118099323Y-36398039D01*
X118139500Y-36600026D01*
X118139500Y-36805974D01*
X118099323Y-37007961D01*
X118020511Y-37198229D01*
X117906091Y-37369471D01*
X117760471Y-37515091D01*
X117589229Y-37629511D01*
X117398961Y-37708323D01*
X117196974Y-37748500D01*
X116991026Y-37748500D01*
X116789039Y-37708323D01*
X116598771Y-37629511D01*
X116427529Y-37515091D01*
X116281909Y-37369471D01*
X116167489Y-37198229D01*
X116088677Y-37007961D01*
X116048500Y-36805974D01*
X116048500Y-36600026D01*
X116088677Y-36398039D01*
X116167489Y-36207771D01*
X116281909Y-36036529D01*
X116427529Y-35890909D01*
X116598771Y-35776489D01*
X116789039Y-35697677D01*
X116991026Y-35657500D01*
X117196974Y-35657500D01*
X117398961Y-35697677D01*
X117398961Y-35697677D01*
G37*
G36*
X115599500Y-37748500D02*
X113508500Y-37748500D01*
X113508500Y-35657500D01*
X115599500Y-35657500D01*
X115599500Y-37748500D01*
X115599500Y-37748500D01*
G37*
G36*
X119938961Y-35697677D02*
X120129229Y-35776489D01*
X120300471Y-35890909D01*
X120446091Y-36036529D01*
X120560511Y-36207771D01*
X120639323Y-36398039D01*
X120679500Y-36600026D01*
X120679500Y-36805974D01*
X120639323Y-37007961D01*
X120560511Y-37198229D01*
X120446091Y-37369471D01*
X120300471Y-37515091D01*
X120129229Y-37629511D01*
X119938961Y-37708323D01*
X119736974Y-37748500D01*
X119531026Y-37748500D01*
X119329039Y-37708323D01*
X119138771Y-37629511D01*
X118967529Y-37515091D01*
X118821909Y-37369471D01*
X118707489Y-37198229D01*
X118628677Y-37007961D01*
X118588500Y-36805974D01*
X118588500Y-36600026D01*
X118628677Y-36398039D01*
X118707489Y-36207771D01*
X118821909Y-36036529D01*
X118967529Y-35890909D01*
X119138771Y-35776489D01*
X119329039Y-35697677D01*
X119531026Y-35657500D01*
X119736974Y-35657500D01*
X119938961Y-35697677D01*
X119938961Y-35697677D01*
G37*
G36*
X141635145Y-35678932D02*
X141800572Y-35747454D01*
X141949457Y-35846936D01*
X142076064Y-35973543D01*
X142175546Y-36122428D01*
X142244068Y-36287855D01*
X142279000Y-36463470D01*
X142279000Y-36642530D01*
X142244068Y-36818145D01*
X142175546Y-36983572D01*
X142076064Y-37132457D01*
X141949457Y-37259064D01*
X141800572Y-37358546D01*
X141635145Y-37427068D01*
X141459530Y-37462000D01*
X141280470Y-37462000D01*
X141104855Y-37427068D01*
X140939428Y-37358546D01*
X140790543Y-37259064D01*
X140663936Y-37132457D01*
X140564454Y-36983572D01*
X140495932Y-36818145D01*
X140461000Y-36642530D01*
X140461000Y-36463470D01*
X140495932Y-36287855D01*
X140564454Y-36122428D01*
X140663936Y-35973543D01*
X140790543Y-35846936D01*
X140939428Y-35747454D01*
X141104855Y-35678932D01*
X141280470Y-35644000D01*
X141459530Y-35644000D01*
X141635145Y-35678932D01*
X141635145Y-35678932D01*
G37*
G36*
X137426000Y-36399000D02*
X136424000Y-36399000D01*
X136424000Y-35097000D01*
X137426000Y-35097000D01*
X137426000Y-36399000D01*
X137426000Y-36399000D01*
G37*
G36*
X129904442Y-34538518D02*
X129970627Y-34545037D01*
X130083853Y-34579384D01*
X130140467Y-34596557D01*
X130279087Y-34670652D01*
X130296991Y-34680222D01*
X130310788Y-34691545D01*
X130434186Y-34792814D01*
X130517448Y-34894271D01*
X130546778Y-34930009D01*
X130546779Y-34930011D01*
X130630443Y-35086533D01*
X130630443Y-35086534D01*
X130681963Y-35256373D01*
X130699359Y-35433000D01*
X130681963Y-35609627D01*
X130660939Y-35678933D01*
X130630443Y-35779467D01*
X130570876Y-35890907D01*
X130546778Y-35935991D01*
X130517448Y-35971729D01*
X130434186Y-36073186D01*
X130332729Y-36156448D01*
X130296991Y-36185778D01*
X130296989Y-36185779D01*
X130140467Y-36269443D01*
X130083853Y-36286616D01*
X129970627Y-36320963D01*
X129904442Y-36327482D01*
X129838260Y-36334000D01*
X129749740Y-36334000D01*
X129683558Y-36327482D01*
X129617373Y-36320963D01*
X129504147Y-36286616D01*
X129447533Y-36269443D01*
X129291011Y-36185779D01*
X129291009Y-36185778D01*
X129255271Y-36156448D01*
X129153814Y-36073186D01*
X129070552Y-35971729D01*
X129041222Y-35935991D01*
X129017124Y-35890907D01*
X128957557Y-35779467D01*
X128927061Y-35678933D01*
X128906037Y-35609627D01*
X128888641Y-35433000D01*
X128906037Y-35256373D01*
X128957557Y-35086534D01*
X128957557Y-35086533D01*
X129041221Y-34930011D01*
X129041222Y-34930009D01*
X129070552Y-34894271D01*
X129153814Y-34792814D01*
X129277212Y-34691545D01*
X129291009Y-34680222D01*
X129308913Y-34670652D01*
X129447533Y-34596557D01*
X129504147Y-34579384D01*
X129617373Y-34545037D01*
X129683558Y-34538518D01*
X129749740Y-34532000D01*
X129838260Y-34532000D01*
X129904442Y-34538518D01*
X129904442Y-34538518D01*
G37*
G36*
X134984442Y-34538518D02*
X135050627Y-34545037D01*
X135163853Y-34579384D01*
X135220467Y-34596557D01*
X135359087Y-34670652D01*
X135376991Y-34680222D01*
X135390788Y-34691545D01*
X135514186Y-34792814D01*
X135597448Y-34894271D01*
X135626778Y-34930009D01*
X135626779Y-34930011D01*
X135710443Y-35086533D01*
X135710443Y-35086534D01*
X135761963Y-35256373D01*
X135779359Y-35433000D01*
X135761963Y-35609627D01*
X135740939Y-35678933D01*
X135710443Y-35779467D01*
X135650876Y-35890907D01*
X135626778Y-35935991D01*
X135597448Y-35971729D01*
X135514186Y-36073186D01*
X135412729Y-36156448D01*
X135376991Y-36185778D01*
X135376989Y-36185779D01*
X135220467Y-36269443D01*
X135163853Y-36286616D01*
X135050627Y-36320963D01*
X134984442Y-36327482D01*
X134918260Y-36334000D01*
X134829740Y-36334000D01*
X134763558Y-36327482D01*
X134697373Y-36320963D01*
X134584147Y-36286616D01*
X134527533Y-36269443D01*
X134371011Y-36185779D01*
X134371009Y-36185778D01*
X134335271Y-36156448D01*
X134233814Y-36073186D01*
X134150552Y-35971729D01*
X134121222Y-35935991D01*
X134097124Y-35890907D01*
X134037557Y-35779467D01*
X134007061Y-35678933D01*
X133986037Y-35609627D01*
X133968641Y-35433000D01*
X133986037Y-35256373D01*
X134037557Y-35086534D01*
X134037557Y-35086533D01*
X134121221Y-34930011D01*
X134121222Y-34930009D01*
X134150552Y-34894271D01*
X134233814Y-34792814D01*
X134357212Y-34691545D01*
X134371009Y-34680222D01*
X134388913Y-34670652D01*
X134527533Y-34596557D01*
X134584147Y-34579384D01*
X134697373Y-34545037D01*
X134763558Y-34538518D01*
X134829740Y-34532000D01*
X134918260Y-34532000D01*
X134984442Y-34538518D01*
X134984442Y-34538518D01*
G37*
G36*
X132444442Y-34538518D02*
X132510627Y-34545037D01*
X132623853Y-34579384D01*
X132680467Y-34596557D01*
X132819087Y-34670652D01*
X132836991Y-34680222D01*
X132850788Y-34691545D01*
X132974186Y-34792814D01*
X133057448Y-34894271D01*
X133086778Y-34930009D01*
X133086779Y-34930011D01*
X133170443Y-35086533D01*
X133170443Y-35086534D01*
X133221963Y-35256373D01*
X133239359Y-35433000D01*
X133221963Y-35609627D01*
X133200939Y-35678933D01*
X133170443Y-35779467D01*
X133110876Y-35890907D01*
X133086778Y-35935991D01*
X133057448Y-35971729D01*
X132974186Y-36073186D01*
X132872729Y-36156448D01*
X132836991Y-36185778D01*
X132836989Y-36185779D01*
X132680467Y-36269443D01*
X132623853Y-36286616D01*
X132510627Y-36320963D01*
X132444442Y-36327482D01*
X132378260Y-36334000D01*
X132289740Y-36334000D01*
X132223558Y-36327482D01*
X132157373Y-36320963D01*
X132044147Y-36286616D01*
X131987533Y-36269443D01*
X131831011Y-36185779D01*
X131831009Y-36185778D01*
X131795271Y-36156448D01*
X131693814Y-36073186D01*
X131610552Y-35971729D01*
X131581222Y-35935991D01*
X131557124Y-35890907D01*
X131497557Y-35779467D01*
X131467061Y-35678933D01*
X131446037Y-35609627D01*
X131428641Y-35433000D01*
X131446037Y-35256373D01*
X131497557Y-35086534D01*
X131497557Y-35086533D01*
X131581221Y-34930011D01*
X131581222Y-34930009D01*
X131610552Y-34894271D01*
X131693814Y-34792814D01*
X131817212Y-34691545D01*
X131831009Y-34680222D01*
X131848913Y-34670652D01*
X131987533Y-34596557D01*
X132044147Y-34579384D01*
X132157373Y-34545037D01*
X132223558Y-34538518D01*
X132289740Y-34532000D01*
X132378260Y-34532000D01*
X132444442Y-34538518D01*
X132444442Y-34538518D01*
G37*
G36*
X124824442Y-34538518D02*
X124890627Y-34545037D01*
X125003853Y-34579384D01*
X125060467Y-34596557D01*
X125199087Y-34670652D01*
X125216991Y-34680222D01*
X125230788Y-34691545D01*
X125354186Y-34792814D01*
X125437448Y-34894271D01*
X125466778Y-34930009D01*
X125466779Y-34930011D01*
X125550443Y-35086533D01*
X125550443Y-35086534D01*
X125601963Y-35256373D01*
X125619359Y-35433000D01*
X125601963Y-35609627D01*
X125580939Y-35678933D01*
X125550443Y-35779467D01*
X125490876Y-35890907D01*
X125466778Y-35935991D01*
X125437448Y-35971729D01*
X125354186Y-36073186D01*
X125252729Y-36156448D01*
X125216991Y-36185778D01*
X125216989Y-36185779D01*
X125060467Y-36269443D01*
X125003853Y-36286616D01*
X124890627Y-36320963D01*
X124824442Y-36327482D01*
X124758260Y-36334000D01*
X124669740Y-36334000D01*
X124603558Y-36327482D01*
X124537373Y-36320963D01*
X124424147Y-36286616D01*
X124367533Y-36269443D01*
X124211011Y-36185779D01*
X124211009Y-36185778D01*
X124175271Y-36156448D01*
X124073814Y-36073186D01*
X123990552Y-35971729D01*
X123961222Y-35935991D01*
X123937124Y-35890907D01*
X123877557Y-35779467D01*
X123847061Y-35678933D01*
X123826037Y-35609627D01*
X123808641Y-35433000D01*
X123826037Y-35256373D01*
X123877557Y-35086534D01*
X123877557Y-35086533D01*
X123961221Y-34930011D01*
X123961222Y-34930009D01*
X123990552Y-34894271D01*
X124073814Y-34792814D01*
X124197212Y-34691545D01*
X124211009Y-34680222D01*
X124228913Y-34670652D01*
X124367533Y-34596557D01*
X124424147Y-34579384D01*
X124537373Y-34545037D01*
X124603558Y-34538518D01*
X124669740Y-34532000D01*
X124758260Y-34532000D01*
X124824442Y-34538518D01*
X124824442Y-34538518D01*
G37*
G36*
X127364442Y-34538518D02*
X127430627Y-34545037D01*
X127543853Y-34579384D01*
X127600467Y-34596557D01*
X127739087Y-34670652D01*
X127756991Y-34680222D01*
X127770788Y-34691545D01*
X127894186Y-34792814D01*
X127977448Y-34894271D01*
X128006778Y-34930009D01*
X128006779Y-34930011D01*
X128090443Y-35086533D01*
X128090443Y-35086534D01*
X128141963Y-35256373D01*
X128159359Y-35433000D01*
X128141963Y-35609627D01*
X128120939Y-35678933D01*
X128090443Y-35779467D01*
X128030876Y-35890907D01*
X128006778Y-35935991D01*
X127977448Y-35971729D01*
X127894186Y-36073186D01*
X127792729Y-36156448D01*
X127756991Y-36185778D01*
X127756989Y-36185779D01*
X127600467Y-36269443D01*
X127543853Y-36286616D01*
X127430627Y-36320963D01*
X127364442Y-36327482D01*
X127298260Y-36334000D01*
X127209740Y-36334000D01*
X127143558Y-36327482D01*
X127077373Y-36320963D01*
X126964147Y-36286616D01*
X126907533Y-36269443D01*
X126751011Y-36185779D01*
X126751009Y-36185778D01*
X126715271Y-36156448D01*
X126613814Y-36073186D01*
X126530552Y-35971729D01*
X126501222Y-35935991D01*
X126477124Y-35890907D01*
X126417557Y-35779467D01*
X126387061Y-35678933D01*
X126366037Y-35609627D01*
X126348641Y-35433000D01*
X126366037Y-35256373D01*
X126417557Y-35086534D01*
X126417557Y-35086533D01*
X126501221Y-34930011D01*
X126501222Y-34930009D01*
X126530552Y-34894271D01*
X126613814Y-34792814D01*
X126737212Y-34691545D01*
X126751009Y-34680222D01*
X126768913Y-34670652D01*
X126907533Y-34596557D01*
X126964147Y-34579384D01*
X127077373Y-34545037D01*
X127143558Y-34538518D01*
X127209740Y-34532000D01*
X127298260Y-34532000D01*
X127364442Y-34538518D01*
X127364442Y-34538518D01*
G37*
G36*
X177143517Y-34706130D02*
X177276732Y-34761309D01*
X177396626Y-34841420D01*
X177498580Y-34943374D01*
X177578691Y-35063268D01*
X177633870Y-35196483D01*
X177662000Y-35337903D01*
X177662000Y-35482097D01*
X177633870Y-35623517D01*
X177578691Y-35756732D01*
X177498580Y-35876626D01*
X177396626Y-35978580D01*
X177276732Y-36058691D01*
X177143517Y-36113870D01*
X177002097Y-36142000D01*
X176857903Y-36142000D01*
X176716483Y-36113870D01*
X176583268Y-36058691D01*
X176463374Y-35978580D01*
X176361420Y-35876626D01*
X176281309Y-35756732D01*
X176226130Y-35623517D01*
X176198000Y-35482097D01*
X176198000Y-35337903D01*
X176226130Y-35196483D01*
X176281309Y-35063268D01*
X176361420Y-34943374D01*
X176463374Y-34841420D01*
X176583268Y-34761309D01*
X176716483Y-34706130D01*
X176857903Y-34678000D01*
X177002097Y-34678000D01*
X177143517Y-34706130D01*
X177143517Y-34706130D01*
G37*
G36*
X180643517Y-34706130D02*
X180776732Y-34761309D01*
X180896626Y-34841420D01*
X180998580Y-34943374D01*
X181078691Y-35063268D01*
X181133870Y-35196483D01*
X181162000Y-35337903D01*
X181162000Y-35482097D01*
X181133870Y-35623517D01*
X181078691Y-35756732D01*
X180998580Y-35876626D01*
X180896626Y-35978580D01*
X180776732Y-36058691D01*
X180643517Y-36113870D01*
X180502097Y-36142000D01*
X180357903Y-36142000D01*
X180216483Y-36113870D01*
X180083268Y-36058691D01*
X179963374Y-35978580D01*
X179861420Y-35876626D01*
X179781309Y-35756732D01*
X179726130Y-35623517D01*
X179698000Y-35482097D01*
X179698000Y-35337903D01*
X179726130Y-35196483D01*
X179781309Y-35063268D01*
X179861420Y-34943374D01*
X179963374Y-34841420D01*
X180083268Y-34761309D01*
X180216483Y-34706130D01*
X180357903Y-34678000D01*
X180502097Y-34678000D01*
X180643517Y-34706130D01*
X180643517Y-34706130D01*
G37*
G36*
X120920000Y-35224000D02*
X119618000Y-35224000D01*
X119618000Y-34372000D01*
X120920000Y-34372000D01*
X120920000Y-35224000D01*
X120920000Y-35224000D01*
G37*
G36*
X119020000Y-35224000D02*
X117718000Y-35224000D01*
X117718000Y-34372000D01*
X119020000Y-34372000D01*
X119020000Y-35224000D01*
X119020000Y-35224000D01*
G37*
G36*
X114570000Y-35224000D02*
X113268000Y-35224000D01*
X113268000Y-34372000D01*
X114570000Y-34372000D01*
X114570000Y-35224000D01*
X114570000Y-35224000D01*
G37*
G36*
X116470000Y-35224000D02*
X115168000Y-35224000D01*
X115168000Y-34372000D01*
X116470000Y-34372000D01*
X116470000Y-35224000D01*
X116470000Y-35224000D01*
G37*
G36*
X139095145Y-33011932D02*
X139260572Y-33080454D01*
X139409457Y-33179936D01*
X139536064Y-33306543D01*
X139635546Y-33455428D01*
X139704068Y-33620855D01*
X139739000Y-33796470D01*
X139739000Y-33975530D01*
X139704068Y-34151145D01*
X139635546Y-34316572D01*
X139536064Y-34465457D01*
X139409457Y-34592064D01*
X139260572Y-34691546D01*
X139095145Y-34760068D01*
X138919530Y-34795000D01*
X138740470Y-34795000D01*
X138564855Y-34760068D01*
X138399428Y-34691546D01*
X138250543Y-34592064D01*
X138123936Y-34465457D01*
X138024454Y-34316572D01*
X137955932Y-34151145D01*
X137921000Y-33975530D01*
X137921000Y-33796470D01*
X137955932Y-33620855D01*
X138024454Y-33455428D01*
X138123936Y-33306543D01*
X138250543Y-33179936D01*
X138399428Y-33080454D01*
X138564855Y-33011932D01*
X138740470Y-32977000D01*
X138919530Y-32977000D01*
X139095145Y-33011932D01*
X139095145Y-33011932D01*
G37*
G36*
X144175145Y-33011932D02*
X144340572Y-33080454D01*
X144489457Y-33179936D01*
X144616064Y-33306543D01*
X144715546Y-33455428D01*
X144784068Y-33620855D01*
X144819000Y-33796470D01*
X144819000Y-33975530D01*
X144784068Y-34151145D01*
X144715546Y-34316572D01*
X144616064Y-34465457D01*
X144489457Y-34592064D01*
X144340572Y-34691546D01*
X144175145Y-34760068D01*
X143999530Y-34795000D01*
X143820470Y-34795000D01*
X143644855Y-34760068D01*
X143479428Y-34691546D01*
X143330543Y-34592064D01*
X143203936Y-34465457D01*
X143104454Y-34316572D01*
X143035932Y-34151145D01*
X143001000Y-33975530D01*
X143001000Y-33796470D01*
X143035932Y-33620855D01*
X143104454Y-33455428D01*
X143203936Y-33306543D01*
X143330543Y-33179936D01*
X143479428Y-33080454D01*
X143644855Y-33011932D01*
X143820470Y-32977000D01*
X143999530Y-32977000D01*
X144175145Y-33011932D01*
X144175145Y-33011932D01*
G37*
G36*
X137426000Y-34199000D02*
X136424000Y-34199000D01*
X136424000Y-32897000D01*
X137426000Y-32897000D01*
X137426000Y-34199000D01*
X137426000Y-34199000D01*
G37*
G36*
X105464896Y-31874696D02*
X105464898Y-31874697D01*
X105464899Y-31874697D01*
X105657625Y-31954526D01*
X105830291Y-32069898D01*
X105831076Y-32070423D01*
X105978577Y-32217924D01*
X105978579Y-32217927D01*
X106094474Y-32391375D01*
X106174303Y-32584101D01*
X106174304Y-32584104D01*
X106215000Y-32788696D01*
X106215000Y-32997304D01*
X106178673Y-33179934D01*
X106174303Y-33201899D01*
X106094474Y-33394625D01*
X106053846Y-33455428D01*
X105978577Y-33568076D01*
X105831076Y-33715577D01*
X105831073Y-33715579D01*
X105657625Y-33831474D01*
X105464899Y-33911303D01*
X105464898Y-33911303D01*
X105464896Y-33911304D01*
X105260304Y-33952000D01*
X105051696Y-33952000D01*
X104847104Y-33911304D01*
X104847102Y-33911303D01*
X104847101Y-33911303D01*
X104654375Y-33831474D01*
X104480927Y-33715579D01*
X104480924Y-33715577D01*
X104333423Y-33568076D01*
X104258154Y-33455428D01*
X104217526Y-33394625D01*
X104137697Y-33201899D01*
X104133328Y-33179934D01*
X104097000Y-32997304D01*
X104097000Y-32788696D01*
X104137696Y-32584104D01*
X104137697Y-32584101D01*
X104217526Y-32391375D01*
X104333421Y-32217927D01*
X104333423Y-32217924D01*
X104480924Y-32070423D01*
X104481709Y-32069898D01*
X104654375Y-31954526D01*
X104847101Y-31874697D01*
X104847102Y-31874697D01*
X104847104Y-31874696D01*
X105051696Y-31834000D01*
X105260304Y-31834000D01*
X105464896Y-31874696D01*
X105464896Y-31874696D01*
G37*
G36*
X107487000Y-33539000D02*
X106635000Y-33539000D01*
X106635000Y-32237000D01*
X107487000Y-32237000D01*
X107487000Y-33539000D01*
X107487000Y-33539000D01*
G37*
G36*
X109392000Y-33539000D02*
X108540000Y-33539000D01*
X108540000Y-32237000D01*
X109392000Y-32237000D01*
X109392000Y-33539000D01*
X109392000Y-33539000D01*
G37*
G36*
X197507292Y-30497001D02*
X197580192Y-30511502D01*
X197640531Y-30536495D01*
X197786203Y-30596834D01*
X197971611Y-30720720D01*
X198129280Y-30878389D01*
X198253166Y-31063797D01*
X198299466Y-31175577D01*
X198338498Y-31269808D01*
X198352999Y-31342708D01*
X198382000Y-31488506D01*
X198382000Y-31711494D01*
X198338498Y-31930191D01*
X198253166Y-32136203D01*
X198129280Y-32321611D01*
X197971611Y-32479280D01*
X197786203Y-32603166D01*
X197640531Y-32663505D01*
X197580192Y-32688498D01*
X197507292Y-32702999D01*
X197361494Y-32732000D01*
X197138506Y-32732000D01*
X196992708Y-32702999D01*
X196919808Y-32688498D01*
X196859469Y-32663505D01*
X196713797Y-32603166D01*
X196528389Y-32479280D01*
X196370720Y-32321611D01*
X196246834Y-32136203D01*
X196161502Y-31930191D01*
X196118000Y-31711494D01*
X196118000Y-31488506D01*
X196147001Y-31342708D01*
X196161502Y-31269808D01*
X196200534Y-31175577D01*
X196246834Y-31063797D01*
X196370720Y-30878389D01*
X196528389Y-30720720D01*
X196713797Y-30596834D01*
X196859469Y-30536495D01*
X196919808Y-30511502D01*
X196992708Y-30497001D01*
X197138506Y-30468000D01*
X197361494Y-30468000D01*
X197507292Y-30497001D01*
X197507292Y-30497001D01*
G37*
G36*
X184907292Y-30497001D02*
X184980192Y-30511502D01*
X185040531Y-30536495D01*
X185186203Y-30596834D01*
X185371611Y-30720720D01*
X185529280Y-30878389D01*
X185653166Y-31063797D01*
X185699466Y-31175577D01*
X185738498Y-31269808D01*
X185752999Y-31342708D01*
X185782000Y-31488506D01*
X185782000Y-31711494D01*
X185738498Y-31930191D01*
X185653166Y-32136203D01*
X185529280Y-32321611D01*
X185371611Y-32479280D01*
X185186203Y-32603166D01*
X185040531Y-32663505D01*
X184980192Y-32688498D01*
X184907292Y-32702999D01*
X184761494Y-32732000D01*
X184538506Y-32732000D01*
X184392708Y-32702999D01*
X184319808Y-32688498D01*
X184259469Y-32663505D01*
X184113797Y-32603166D01*
X183928389Y-32479280D01*
X183770720Y-32321611D01*
X183646834Y-32136203D01*
X183561502Y-31930191D01*
X183518000Y-31711494D01*
X183518000Y-31488506D01*
X183547001Y-31342708D01*
X183561502Y-31269808D01*
X183600534Y-31175577D01*
X183646834Y-31063797D01*
X183770720Y-30878389D01*
X183928389Y-30720720D01*
X184113797Y-30596834D01*
X184259469Y-30536495D01*
X184319808Y-30511502D01*
X184392708Y-30497001D01*
X184538506Y-30468000D01*
X184761494Y-30468000D01*
X184907292Y-30497001D01*
X184907292Y-30497001D01*
G37*
G36*
X119020000Y-32684000D02*
X117718000Y-32684000D01*
X117718000Y-31832000D01*
X119020000Y-31832000D01*
X119020000Y-32684000D01*
X119020000Y-32684000D01*
G37*
G36*
X120920000Y-32684000D02*
X119618000Y-32684000D01*
X119618000Y-31832000D01*
X120920000Y-31832000D01*
X120920000Y-32684000D01*
X120920000Y-32684000D01*
G37*
G36*
X114570000Y-32684000D02*
X113268000Y-32684000D01*
X113268000Y-31832000D01*
X114570000Y-31832000D01*
X114570000Y-32684000D01*
X114570000Y-32684000D01*
G37*
G36*
X116470000Y-32684000D02*
X115168000Y-32684000D01*
X115168000Y-31832000D01*
X116470000Y-31832000D01*
X116470000Y-32684000D01*
X116470000Y-32684000D01*
G37*
G36*
X144221000Y-32609000D02*
X142919000Y-32609000D01*
X142919000Y-31607000D01*
X144221000Y-31607000D01*
X144221000Y-32609000D01*
X144221000Y-32609000D01*
G37*
G36*
X142021000Y-32609000D02*
X140719000Y-32609000D01*
X140719000Y-31607000D01*
X142021000Y-31607000D01*
X142021000Y-32609000D01*
X142021000Y-32609000D01*
G37*
G36*
X107487000Y-31639000D02*
X106635000Y-31639000D01*
X106635000Y-30337000D01*
X107487000Y-30337000D01*
X107487000Y-31639000D01*
X107487000Y-31639000D01*
G37*
G36*
X109392000Y-31639000D02*
X108540000Y-31639000D01*
X108540000Y-30337000D01*
X109392000Y-30337000D01*
X109392000Y-31639000D01*
X109392000Y-31639000D01*
G37*
G36*
X125773000Y-31412000D02*
X123655000Y-31412000D01*
X123655000Y-29294000D01*
X125773000Y-29294000D01*
X125773000Y-31412000D01*
X125773000Y-31412000D01*
G37*
G36*
X127562896Y-29334696D02*
X127562898Y-29334697D01*
X127562899Y-29334697D01*
X127755625Y-29414526D01*
X127928291Y-29529898D01*
X127929076Y-29530423D01*
X128076577Y-29677924D01*
X128076579Y-29677927D01*
X128192474Y-29851375D01*
X128267733Y-30033068D01*
X128272304Y-30044104D01*
X128313000Y-30248696D01*
X128313000Y-30457304D01*
X128273087Y-30657961D01*
X128272303Y-30661899D01*
X128192474Y-30854625D01*
X128109576Y-30978690D01*
X128076577Y-31028076D01*
X127929076Y-31175577D01*
X127929073Y-31175579D01*
X127755625Y-31291474D01*
X127562899Y-31371303D01*
X127562898Y-31371303D01*
X127562896Y-31371304D01*
X127358304Y-31412000D01*
X127149696Y-31412000D01*
X126945104Y-31371304D01*
X126945102Y-31371303D01*
X126945101Y-31371303D01*
X126752375Y-31291474D01*
X126578927Y-31175579D01*
X126578924Y-31175577D01*
X126431423Y-31028076D01*
X126398424Y-30978690D01*
X126315526Y-30854625D01*
X126235697Y-30661899D01*
X126234914Y-30657961D01*
X126195000Y-30457304D01*
X126195000Y-30248696D01*
X126235696Y-30044104D01*
X126240267Y-30033068D01*
X126315526Y-29851375D01*
X126431421Y-29677927D01*
X126431423Y-29677924D01*
X126578924Y-29530423D01*
X126579709Y-29529898D01*
X126752375Y-29414526D01*
X126945101Y-29334697D01*
X126945102Y-29334697D01*
X126945104Y-29334696D01*
X127149696Y-29294000D01*
X127358304Y-29294000D01*
X127562896Y-29334696D01*
X127562896Y-29334696D01*
G37*
G36*
X130102896Y-29334696D02*
X130102898Y-29334697D01*
X130102899Y-29334697D01*
X130295625Y-29414526D01*
X130468291Y-29529898D01*
X130469076Y-29530423D01*
X130616577Y-29677924D01*
X130616579Y-29677927D01*
X130732474Y-29851375D01*
X130807733Y-30033068D01*
X130812304Y-30044104D01*
X130853000Y-30248696D01*
X130853000Y-30457304D01*
X130813087Y-30657961D01*
X130812303Y-30661899D01*
X130732474Y-30854625D01*
X130649576Y-30978690D01*
X130616577Y-31028076D01*
X130469076Y-31175577D01*
X130469073Y-31175579D01*
X130295625Y-31291474D01*
X130102899Y-31371303D01*
X130102898Y-31371303D01*
X130102896Y-31371304D01*
X129898304Y-31412000D01*
X129689696Y-31412000D01*
X129485104Y-31371304D01*
X129485102Y-31371303D01*
X129485101Y-31371303D01*
X129292375Y-31291474D01*
X129118927Y-31175579D01*
X129118924Y-31175577D01*
X128971423Y-31028076D01*
X128938424Y-30978690D01*
X128855526Y-30854625D01*
X128775697Y-30661899D01*
X128774914Y-30657961D01*
X128735000Y-30457304D01*
X128735000Y-30248696D01*
X128775696Y-30044104D01*
X128780267Y-30033068D01*
X128855526Y-29851375D01*
X128971421Y-29677927D01*
X128971423Y-29677924D01*
X129118924Y-29530423D01*
X129119709Y-29529898D01*
X129292375Y-29414526D01*
X129485101Y-29334697D01*
X129485102Y-29334697D01*
X129485104Y-29334696D01*
X129689696Y-29294000D01*
X129898304Y-29294000D01*
X130102896Y-29334696D01*
X130102896Y-29334696D01*
G37*
G36*
X106215000Y-31412000D02*
X104097000Y-31412000D01*
X104097000Y-29294000D01*
X106215000Y-29294000D01*
X106215000Y-31412000D01*
X106215000Y-31412000D01*
G37*
G36*
X132642896Y-29334696D02*
X132642898Y-29334697D01*
X132642899Y-29334697D01*
X132835625Y-29414526D01*
X133008291Y-29529898D01*
X133009076Y-29530423D01*
X133156577Y-29677924D01*
X133156579Y-29677927D01*
X133272474Y-29851375D01*
X133347733Y-30033068D01*
X133352304Y-30044104D01*
X133393000Y-30248696D01*
X133393000Y-30457304D01*
X133353087Y-30657961D01*
X133352303Y-30661899D01*
X133272474Y-30854625D01*
X133189576Y-30978690D01*
X133156577Y-31028076D01*
X133009076Y-31175577D01*
X133009073Y-31175579D01*
X132835625Y-31291474D01*
X132642899Y-31371303D01*
X132642898Y-31371303D01*
X132642896Y-31371304D01*
X132438304Y-31412000D01*
X132229696Y-31412000D01*
X132025104Y-31371304D01*
X132025102Y-31371303D01*
X132025101Y-31371303D01*
X131832375Y-31291474D01*
X131658927Y-31175579D01*
X131658924Y-31175577D01*
X131511423Y-31028076D01*
X131478424Y-30978690D01*
X131395526Y-30854625D01*
X131315697Y-30661899D01*
X131314914Y-30657961D01*
X131275000Y-30457304D01*
X131275000Y-30248696D01*
X131315696Y-30044104D01*
X131320267Y-30033068D01*
X131395526Y-29851375D01*
X131511421Y-29677927D01*
X131511423Y-29677924D01*
X131658924Y-29530423D01*
X131659709Y-29529898D01*
X131832375Y-29414526D01*
X132025101Y-29334697D01*
X132025102Y-29334697D01*
X132025104Y-29334696D01*
X132229696Y-29294000D01*
X132438304Y-29294000D01*
X132642896Y-29334696D01*
X132642896Y-29334696D01*
G37*
G36*
X135182896Y-29334696D02*
X135182898Y-29334697D01*
X135182899Y-29334697D01*
X135375625Y-29414526D01*
X135548291Y-29529898D01*
X135549076Y-29530423D01*
X135696577Y-29677924D01*
X135696579Y-29677927D01*
X135812474Y-29851375D01*
X135887733Y-30033068D01*
X135892304Y-30044104D01*
X135933000Y-30248696D01*
X135933000Y-30457304D01*
X135893087Y-30657961D01*
X135892303Y-30661899D01*
X135812474Y-30854625D01*
X135729576Y-30978690D01*
X135696577Y-31028076D01*
X135549076Y-31175577D01*
X135549073Y-31175579D01*
X135375625Y-31291474D01*
X135182899Y-31371303D01*
X135182898Y-31371303D01*
X135182896Y-31371304D01*
X134978304Y-31412000D01*
X134769696Y-31412000D01*
X134565104Y-31371304D01*
X134565102Y-31371303D01*
X134565101Y-31371303D01*
X134372375Y-31291474D01*
X134198927Y-31175579D01*
X134198924Y-31175577D01*
X134051423Y-31028076D01*
X134018424Y-30978690D01*
X133935526Y-30854625D01*
X133855697Y-30661899D01*
X133854914Y-30657961D01*
X133815000Y-30457304D01*
X133815000Y-30248696D01*
X133855696Y-30044104D01*
X133860267Y-30033068D01*
X133935526Y-29851375D01*
X134051421Y-29677927D01*
X134051423Y-29677924D01*
X134198924Y-29530423D01*
X134199709Y-29529898D01*
X134372375Y-29414526D01*
X134565101Y-29334697D01*
X134565102Y-29334697D01*
X134565104Y-29334696D01*
X134769696Y-29294000D01*
X134978304Y-29294000D01*
X135182896Y-29334696D01*
X135182896Y-29334696D01*
G37*
G36*
X119938961Y-29347677D02*
X120129229Y-29426489D01*
X120300471Y-29540909D01*
X120446091Y-29686529D01*
X120560511Y-29857771D01*
X120639323Y-30048039D01*
X120679500Y-30250026D01*
X120679500Y-30455974D01*
X120639323Y-30657961D01*
X120560511Y-30848229D01*
X120446091Y-31019471D01*
X120300471Y-31165091D01*
X120129229Y-31279511D01*
X119938961Y-31358323D01*
X119736974Y-31398500D01*
X119531026Y-31398500D01*
X119329039Y-31358323D01*
X119138771Y-31279511D01*
X118967529Y-31165091D01*
X118821909Y-31019471D01*
X118707489Y-30848229D01*
X118628677Y-30657961D01*
X118588500Y-30455974D01*
X118588500Y-30250026D01*
X118628677Y-30048039D01*
X118707489Y-29857771D01*
X118821909Y-29686529D01*
X118967529Y-29540909D01*
X119138771Y-29426489D01*
X119329039Y-29347677D01*
X119531026Y-29307500D01*
X119736974Y-29307500D01*
X119938961Y-29347677D01*
X119938961Y-29347677D01*
G37*
G36*
X115599500Y-31398500D02*
X113508500Y-31398500D01*
X113508500Y-29307500D01*
X115599500Y-29307500D01*
X115599500Y-31398500D01*
X115599500Y-31398500D01*
G37*
G36*
X117398961Y-29347677D02*
X117589229Y-29426489D01*
X117760471Y-29540909D01*
X117906091Y-29686529D01*
X118020511Y-29857771D01*
X118099323Y-30048039D01*
X118139500Y-30250026D01*
X118139500Y-30455974D01*
X118099323Y-30657961D01*
X118020511Y-30848229D01*
X117906091Y-31019471D01*
X117760471Y-31165091D01*
X117589229Y-31279511D01*
X117398961Y-31358323D01*
X117196974Y-31398500D01*
X116991026Y-31398500D01*
X116789039Y-31358323D01*
X116598771Y-31279511D01*
X116427529Y-31165091D01*
X116281909Y-31019471D01*
X116167489Y-30848229D01*
X116088677Y-30657961D01*
X116048500Y-30455974D01*
X116048500Y-30250026D01*
X116088677Y-30048039D01*
X116167489Y-29857771D01*
X116281909Y-29686529D01*
X116427529Y-29540909D01*
X116598771Y-29426489D01*
X116789039Y-29347677D01*
X116991026Y-29307500D01*
X117196974Y-29307500D01*
X117398961Y-29347677D01*
X117398961Y-29347677D01*
G37*
G36*
X180643517Y-29626130D02*
X180776732Y-29681309D01*
X180896626Y-29761420D01*
X180998580Y-29863374D01*
X181078691Y-29983268D01*
X181133870Y-30116483D01*
X181162000Y-30257903D01*
X181162000Y-30402097D01*
X181133870Y-30543517D01*
X181078691Y-30676732D01*
X180998580Y-30796626D01*
X180896626Y-30898580D01*
X180776732Y-30978691D01*
X180643517Y-31033870D01*
X180502097Y-31062000D01*
X180357903Y-31062000D01*
X180216483Y-31033870D01*
X180083268Y-30978691D01*
X179963374Y-30898580D01*
X179861420Y-30796626D01*
X179781309Y-30676732D01*
X179726130Y-30543517D01*
X179698000Y-30402097D01*
X179698000Y-30257903D01*
X179726130Y-30116483D01*
X179781309Y-29983268D01*
X179861420Y-29863374D01*
X179963374Y-29761420D01*
X180083268Y-29681309D01*
X180216483Y-29626130D01*
X180357903Y-29598000D01*
X180502097Y-29598000D01*
X180643517Y-29626130D01*
X180643517Y-29626130D01*
G37*
G36*
X177143517Y-29626130D02*
X177276732Y-29681309D01*
X177396626Y-29761420D01*
X177498580Y-29863374D01*
X177578691Y-29983268D01*
X177633870Y-30116483D01*
X177662000Y-30257903D01*
X177662000Y-30402097D01*
X177633870Y-30543517D01*
X177578691Y-30676732D01*
X177498580Y-30796626D01*
X177396626Y-30898580D01*
X177276732Y-30978691D01*
X177143517Y-31033870D01*
X177002097Y-31062000D01*
X176857903Y-31062000D01*
X176716483Y-31033870D01*
X176583268Y-30978691D01*
X176463374Y-30898580D01*
X176361420Y-30796626D01*
X176281309Y-30676732D01*
X176226130Y-30543517D01*
X176198000Y-30402097D01*
X176198000Y-30257903D01*
X176226130Y-30116483D01*
X176281309Y-29983268D01*
X176361420Y-29863374D01*
X176463374Y-29761420D01*
X176583268Y-29681309D01*
X176716483Y-29626130D01*
X176857903Y-29598000D01*
X177002097Y-29598000D01*
X177143517Y-29626130D01*
X177143517Y-29626130D01*
G37*
G36*
X171739000Y-30854000D02*
X169421000Y-30854000D01*
X169421000Y-28536000D01*
X171739000Y-28536000D01*
X171739000Y-30854000D01*
X171739000Y-30854000D01*
G37*
G36*
X165838065Y-28580539D02*
X165838067Y-28580540D01*
X165838068Y-28580540D01*
X166048992Y-28667907D01*
X166236256Y-28793034D01*
X166238822Y-28794748D01*
X166400252Y-28956178D01*
X166400254Y-28956181D01*
X166527093Y-29146008D01*
X166605250Y-29334697D01*
X166614461Y-29356935D01*
X166659000Y-29580847D01*
X166659000Y-29809153D01*
X166648215Y-29863374D01*
X166614460Y-30033068D01*
X166527093Y-30243992D01*
X166517798Y-30257903D01*
X166400252Y-30433822D01*
X166238822Y-30595252D01*
X166238819Y-30595254D01*
X166048992Y-30722093D01*
X165838068Y-30809460D01*
X165838067Y-30809460D01*
X165838065Y-30809461D01*
X165614153Y-30854000D01*
X165385847Y-30854000D01*
X165161935Y-30809461D01*
X165161933Y-30809460D01*
X165161932Y-30809460D01*
X164951008Y-30722093D01*
X164761181Y-30595254D01*
X164761178Y-30595252D01*
X164599748Y-30433822D01*
X164482202Y-30257903D01*
X164472907Y-30243992D01*
X164385540Y-30033068D01*
X164351786Y-29863374D01*
X164341000Y-29809153D01*
X164341000Y-29580847D01*
X164385539Y-29356935D01*
X164394750Y-29334697D01*
X164472907Y-29146008D01*
X164599746Y-28956181D01*
X164599748Y-28956178D01*
X164761178Y-28794748D01*
X164763744Y-28793034D01*
X164951008Y-28667907D01*
X165161932Y-28580540D01*
X165161933Y-28580540D01*
X165161935Y-28580539D01*
X165385847Y-28536000D01*
X165614153Y-28536000D01*
X165838065Y-28580539D01*
X165838065Y-28580539D01*
G37*
G36*
X158177000Y-29230000D02*
X156059000Y-29230000D01*
X156059000Y-27112000D01*
X158177000Y-27112000D01*
X158177000Y-29230000D01*
X158177000Y-29230000D01*
G37*
G36*
X159966896Y-27152696D02*
X159966898Y-27152697D01*
X159966899Y-27152697D01*
X160159625Y-27232526D01*
X160332291Y-27347898D01*
X160333076Y-27348423D01*
X160480577Y-27495924D01*
X160480579Y-27495927D01*
X160596474Y-27669375D01*
X160676303Y-27862101D01*
X160717000Y-28066698D01*
X160717000Y-28275302D01*
X160676303Y-28479899D01*
X160596474Y-28672625D01*
X160514875Y-28794746D01*
X160480577Y-28846076D01*
X160333076Y-28993577D01*
X160333073Y-28993579D01*
X160159625Y-29109474D01*
X159966899Y-29189303D01*
X159966898Y-29189303D01*
X159966896Y-29189304D01*
X159762304Y-29230000D01*
X159553696Y-29230000D01*
X159349104Y-29189304D01*
X159349102Y-29189303D01*
X159349101Y-29189303D01*
X159156375Y-29109474D01*
X158982927Y-28993579D01*
X158982924Y-28993577D01*
X158835423Y-28846076D01*
X158801125Y-28794746D01*
X158719526Y-28672625D01*
X158639697Y-28479899D01*
X158599000Y-28275302D01*
X158599000Y-28066698D01*
X158639697Y-27862101D01*
X158719526Y-27669375D01*
X158835421Y-27495927D01*
X158835423Y-27495924D01*
X158982924Y-27348423D01*
X158983709Y-27347898D01*
X159156375Y-27232526D01*
X159349101Y-27152697D01*
X159349102Y-27152697D01*
X159349104Y-27152696D01*
X159553696Y-27112000D01*
X159762304Y-27112000D01*
X159966896Y-27152696D01*
X159966896Y-27152696D01*
G37*
G36*
X120920000Y-28874000D02*
X119618000Y-28874000D01*
X119618000Y-28022000D01*
X120920000Y-28022000D01*
X120920000Y-28874000D01*
X120920000Y-28874000D01*
G37*
G36*
X119020000Y-28874000D02*
X117718000Y-28874000D01*
X117718000Y-28022000D01*
X119020000Y-28022000D01*
X119020000Y-28874000D01*
X119020000Y-28874000D01*
G37*
G36*
X114570000Y-28874000D02*
X113268000Y-28874000D01*
X113268000Y-28022000D01*
X114570000Y-28022000D01*
X114570000Y-28874000D01*
X114570000Y-28874000D01*
G37*
G36*
X116470000Y-28874000D02*
X115168000Y-28874000D01*
X115168000Y-28022000D01*
X116470000Y-28022000D01*
X116470000Y-28874000D01*
X116470000Y-28874000D01*
G37*
M02*
