M48
;DRILL file {KiCad (5.0.2)-1} date 08/09/19 14:56:21
;FORMAT={-:-/ absolute / metric / decimal}
FMAT,2
METRIC,TZ
T1C0.300
T2C0.600
T3C0.700
T4C1.000
T5C1.100
T6C1.400
%
G90
G05
T1
X111.144Y-82.781
X111.338Y-87.099
X112.085Y-86.905
X112.16Y-82.781
X113.594Y-40.513
X113.938Y-80.749
X113.938Y-84.967
X115.574Y-83.522
X117.098Y-82.312
X117.504Y-86.473
X119.13Y-84.949
X119.638Y-79.869
X120.654Y-85.203
X121.548Y-81.647
X121.548Y-86.473
X122.432Y-82.155
X123.448Y-82.663
X124.21Y-86.473
X126.936Y-98.831
X126.936Y-104.673
X127.444Y-102.301
X127.444Y-110.007
X127.526Y-112.193
X127.698Y-98.577
X128.206Y-110.007
X129.476Y-93.751
X129.476Y-112.293
X129.544Y-98.411
X129.544Y-101.205
X130.56Y-107.809
X130.776Y-98.577
X131.056Y-91.777
X131.254Y-94.513
X131.426Y-98.069
X132.016Y-110.007
X132.098Y-112.193
X132.27Y-104.673
X132.592Y-91.807
X132.778Y-110.007
X133.862Y-107.809
X134.048Y-112.293
X135.035Y-98.411
X135.17Y-92.785
X136.394Y-103.237
X137.604Y-100.863
X137.604Y-103.911
X137.672Y-102.983
X139.626Y-99.173
X140.212Y-64.375
X140.212Y-67.169
X140.212Y-75.297
X140.212Y-76.821
X142.6Y-58.637
X142.64Y-60.048
X145.815Y-60.048
X146.196Y-53.825
X147.085Y-41.694
X159.15Y-41.76
X159.15Y-43.03
X159.15Y-44.3
X159.15Y-45.57
X159.15Y-46.84
X159.15Y-48.11
X159.15Y-49.38
X159.15Y-50.65
X159.15Y-51.92
X159.15Y-53.19
X159.15Y-54.46
X159.15Y-55.73
X159.15Y-57.
X159.15Y-58.27
X159.15Y-59.54
X159.77Y-67.169
X159.77Y-75.297
X159.77Y-76.821
X162.325Y-62.715
X163.214Y-42.395
X164.23Y-42.395
X165.5Y-41.76
X168.287Y-69.574
X169.31Y-41.76
X169.906Y-67.995
X171.85Y-41.76
X174.248Y-76.059
X176.93Y-41.76
X176.93Y-43.03
X176.93Y-44.3
X176.93Y-45.57
X176.93Y-46.84
X176.93Y-48.11
X176.93Y-49.38
X176.93Y-50.65
X176.93Y-51.92
X176.93Y-53.19
X176.93Y-54.46
X176.93Y-55.603
X176.93Y-57.
X176.93Y-58.27
X176.93Y-59.54
X178.058Y-76.059
X182.645Y-81.765
X185.185Y-100.18
X188.36Y-98.91
X190.9Y-101.45
X194.06Y-110.095
T2
X176.93Y-35.41
X180.43Y-35.41
X176.93Y-30.33
X180.43Y-30.33
X184.705Y-46.84
X188.205Y-46.84
X191.154Y-81.765
X191.154Y-84.305
X187.09Y-81.765
X187.09Y-84.305
X184.705Y-51.92
X188.205Y-51.92
X191.154Y-90.401
X191.154Y-92.941
X187.09Y-90.401
X187.09Y-92.941
T3
X182.518Y-93.195
X182.518Y-95.735
X182.518Y-98.275
X162.325Y-68.049
X162.325Y-70.589
X162.325Y-73.129
X140.906Y-106.959
X140.906Y-109.499
X140.906Y-112.039
X140.1Y-44.808
X142.64Y-44.808
X145.18Y-44.808
X136.911Y-97.646
X147.07Y-97.649
X138.83Y-33.886
X141.37Y-36.553
X143.91Y-33.886
X107.192Y-76.821
X109.732Y-76.821
X112.272Y-76.821
X102.427Y-50.916
X102.427Y-53.456
X102.427Y-55.996
X102.427Y-58.536
X110.047Y-50.916
X110.047Y-53.456
X110.047Y-55.996
X110.047Y-58.536
X138.83Y-51.158
X141.37Y-53.825
X143.91Y-51.158
X135.826Y-114.833
X138.366Y-114.833
X140.906Y-114.833
X137.56Y-40.363
X140.1Y-40.363
X142.64Y-40.363
T4
X122.686Y-99.935
X122.686Y-102.475
X131.254Y-120.929
X133.794Y-120.929
X136.334Y-120.929
X124.714Y-30.353
X127.254Y-30.353
X129.794Y-30.353
X132.334Y-30.353
X134.874Y-30.353
X124.714Y-53.213
X127.254Y-53.213
X129.794Y-53.213
X132.334Y-53.213
X134.874Y-53.213
X122.686Y-107.555
X122.686Y-110.095
X122.686Y-112.635
X105.156Y-30.353
X105.156Y-32.893
X124.714Y-35.433
X124.714Y-37.973
X127.254Y-35.433
X127.254Y-37.973
X129.794Y-35.433
X129.794Y-37.973
X132.334Y-35.433
X132.334Y-37.973
X134.874Y-35.433
X134.874Y-37.973
X105.048Y-90.147
X105.048Y-92.687
X105.156Y-37.188
X105.156Y-39.728
X105.156Y-42.268
X105.156Y-44.808
X105.156Y-47.348
X105.16Y-72.249
X105.16Y-74.789
X105.16Y-77.329
X157.118Y-28.171
X159.658Y-28.171
X105.048Y-82.527
X105.048Y-85.067
X108.858Y-82.527
X108.858Y-85.067
X124.714Y-48.133
X127.254Y-48.133
X129.794Y-48.133
X132.334Y-48.133
X134.874Y-48.133
X197.885Y-104.625
X197.885Y-107.165
X197.885Y-109.705
X141.414Y-120.929
X143.954Y-120.929
X146.494Y-120.929
X124.714Y-58.293
X127.254Y-58.293
X129.794Y-58.293
X132.334Y-58.293
X134.874Y-58.293
X124.714Y-43.053
X127.254Y-43.053
X129.794Y-43.053
X132.334Y-43.053
X134.874Y-43.053
T5
X114.554Y-58.293
X117.094Y-58.293
X119.634Y-58.293
X195.98Y-49.38
X195.98Y-54.46
X196.234Y-79.479
X196.234Y-84.559
X109.732Y-67.677
X109.732Y-72.757
X112.272Y-67.677
X112.272Y-72.757
X119.892Y-67.677
X119.892Y-72.757
X165.5Y-29.695
X170.58Y-29.695
X114.554Y-53.213
X117.094Y-53.213
X119.634Y-53.213
X196.234Y-89.639
X196.234Y-94.719
X114.554Y-30.353
X117.094Y-30.353
X119.634Y-30.353
X114.554Y-36.703
X117.094Y-36.703
X119.634Y-36.703
T6
X184.65Y-31.6
X197.25Y-31.6
X169.31Y-65.509
X169.31Y-73.129
X184.55Y-65.509
X184.55Y-73.129
X189.63Y-65.509
X189.63Y-73.129
X194.71Y-65.509
X194.71Y-73.129
T0
M30
