%FSLAX45Y45*%
G04 Gerber Fmt 4.5, Leading zero omitted, Abs format (unit mm)*
G04 Created by KiCad (PCBNEW (5.0.2)-1) date 06/05/19 14:46:51*
%MOMM*%
%LPD*%
G01*
G04 APERTURE LIST*
%ADD10C,0.200000*%
%ADD11C,0.300000*%
G04 APERTURE END LIST*
D10*
X13094600Y-8366000D02*
X13094600Y-3366000D01*
X5594600Y-8366000D02*
X13094600Y-8366000D01*
X5594600Y-3366000D02*
X5594600Y-8366000D01*
X13094600Y-3366000D02*
X5594600Y-3366000D01*
D10*
D11*
X5871028Y-8841714D02*
X5871028Y-8541714D01*
X5942457Y-8541714D01*
X5985314Y-8556000D01*
X6013886Y-8584572D01*
X6028171Y-8613143D01*
X6042457Y-8670286D01*
X6042457Y-8713143D01*
X6028171Y-8770286D01*
X6013886Y-8798857D01*
X5985314Y-8827429D01*
X5942457Y-8841714D01*
X5871028Y-8841714D01*
X6171028Y-8841714D02*
X6171028Y-8641714D01*
X6171028Y-8698857D02*
X6185314Y-8670286D01*
X6199600Y-8656000D01*
X6228171Y-8641714D01*
X6256743Y-8641714D01*
X6356743Y-8841714D02*
X6356743Y-8641714D01*
X6356743Y-8541714D02*
X6342457Y-8556000D01*
X6356743Y-8570286D01*
X6371028Y-8556000D01*
X6356743Y-8541714D01*
X6356743Y-8570286D01*
X6542457Y-8841714D02*
X6513886Y-8827429D01*
X6499600Y-8798857D01*
X6499600Y-8541714D01*
X6699600Y-8841714D02*
X6671028Y-8827429D01*
X6656743Y-8798857D01*
X6656743Y-8541714D01*
X7042457Y-8841714D02*
X7042457Y-8541714D01*
X7142457Y-8756000D01*
X7242457Y-8541714D01*
X7242457Y-8841714D01*
X7513886Y-8841714D02*
X7513886Y-8684572D01*
X7499600Y-8656000D01*
X7471028Y-8641714D01*
X7413886Y-8641714D01*
X7385314Y-8656000D01*
X7513886Y-8827429D02*
X7485314Y-8841714D01*
X7413886Y-8841714D01*
X7385314Y-8827429D01*
X7371028Y-8798857D01*
X7371028Y-8770286D01*
X7385314Y-8741714D01*
X7413886Y-8727429D01*
X7485314Y-8727429D01*
X7513886Y-8713143D01*
X7656743Y-8641714D02*
X7656743Y-8941714D01*
X7656743Y-8656000D02*
X7685314Y-8641714D01*
X7742457Y-8641714D01*
X7771028Y-8656000D01*
X7785314Y-8670286D01*
X7799600Y-8698857D01*
X7799600Y-8784572D01*
X7785314Y-8813143D01*
X7771028Y-8827429D01*
X7742457Y-8841714D01*
X7685314Y-8841714D01*
X7656743Y-8827429D01*
X7928171Y-8813143D02*
X7942457Y-8827429D01*
X7928171Y-8841714D01*
X7913886Y-8827429D01*
X7928171Y-8813143D01*
X7928171Y-8841714D01*
X7928171Y-8656000D02*
X7942457Y-8670286D01*
X7928171Y-8684572D01*
X7913886Y-8670286D01*
X7928171Y-8656000D01*
X7928171Y-8684572D01*
M02*
