M48
;DRILL file {KiCad (5.0.2)-1} date 06/05/19 14:46:51
;FORMAT={-:-/ absolute / metric / decimal}
FMAT,2
METRIC,TZ
T1C0.300
T2C0.700
T3C0.800
T4C0.900
T5C1.000
T6C2.700
T7C3.200
%
G90
G05
T1
X62.978Y-70.662
X63.246Y-67.818
X65.278Y-71.823
X66.294Y-57.658
X73.914Y-53.594
X75.27Y-51.222
X76.962Y-52.288
X77.978Y-52.288
X79.756Y-54.356
X81.026Y-53.594
X82.804Y-53.594
X84.074Y-51.222
X85.852Y-52.288
X86.868Y-52.288
X88.646Y-54.356
X89.916Y-53.594
X90.932Y-50.17
X92.456Y-54.356
X93.218Y-54.356
X93.98Y-54.356
X95.758Y-50.17
X96.774Y-53.594
X98.044Y-51.222
X99.822Y-52.288
X100.838Y-52.288
X102.616Y-54.356
X103.886Y-53.594
X105.664Y-53.594
X106.934Y-51.222
X108.712Y-52.288
X109.728Y-52.288
X111.506Y-54.356
X112.776Y-53.594
X113.792Y-51.054
X118.872Y-62.23
X119.365Y-71.656
X119.38Y-74.028
X120.125Y-78.452
X120.396Y-76.2
X121.849Y-76.041
X122.428Y-72.644
X124.714Y-68.834
X124.968Y-73.66
T2
X105.39Y-40.591
X107.93Y-43.258
X110.47Y-40.591
X61.976Y-56.642
X64.643Y-54.102
X64.643Y-59.182
X75.057Y-77.216
X77.724Y-74.676
X77.724Y-79.756
X118.364Y-51.054
X118.364Y-53.594
X118.364Y-56.134
X118.364Y-58.674
X125.984Y-51.054
X125.984Y-53.594
X125.984Y-56.134
X125.984Y-58.674
X68.306Y-72.39
X68.306Y-77.47
X70.973Y-74.93
X116.312Y-40.337
X116.312Y-50.497
T3
X107.315Y-63.5
X107.315Y-66.04
X84.455Y-68.58
X84.455Y-71.12
X102.235Y-63.5
X102.235Y-66.04
X111.125Y-63.5
X111.125Y-66.04
X111.125Y-68.58
X111.125Y-71.12
X98.425Y-63.5
X98.425Y-66.04
X79.375Y-63.5
X79.375Y-66.04
X102.235Y-68.58
X102.235Y-71.12
X79.375Y-68.58
X79.375Y-71.12
X75.565Y-63.5
X75.565Y-66.04
X84.455Y-63.5
X84.455Y-66.04
X98.425Y-68.58
X98.425Y-71.12
X75.565Y-68.58
X75.565Y-71.12
X107.315Y-68.58
X107.315Y-71.12
X88.265Y-68.58
X88.265Y-71.12
X88.265Y-63.5
X88.265Y-66.04
T4
X115.042Y-53.291
X115.042Y-65.991
T5
X84.074Y-79.756
X86.614Y-79.756
X89.154Y-79.756
X91.694Y-79.756
X94.234Y-79.756
X96.774Y-79.756
X99.314Y-79.756
X101.854Y-79.756
X104.394Y-79.756
X106.934Y-79.756
X109.474Y-79.756
X112.014Y-79.756
X114.554Y-79.756
X117.094Y-79.756
X119.634Y-79.756
X122.174Y-79.756
X76.2Y-55.88
X76.2Y-58.42
X76.2Y-60.96
X110.49Y-55.88
X110.49Y-58.42
X110.49Y-60.96
X99.802Y-38.051
X99.802Y-40.591
X99.802Y-43.131
X71.374Y-49.784
X71.374Y-52.324
X71.374Y-54.864
X127.508Y-66.802
X127.508Y-69.342
X127.508Y-71.882
X127.508Y-74.422
X127.508Y-76.962
X127.508Y-79.502
X87.63Y-55.88
X87.63Y-58.42
X87.63Y-60.96
X66.294Y-47.244
X66.294Y-49.784
X99.06Y-55.88
X99.06Y-58.42
X99.06Y-60.96
X85.09Y-55.88
X85.09Y-58.42
X85.09Y-60.96
X119.126Y-46.99
X121.666Y-46.99
X124.206Y-46.99
X78.74Y-55.88
X78.74Y-58.42
X78.74Y-60.96
X107.95Y-55.88
X107.95Y-58.42
X107.95Y-60.96
X68.453Y-63.451
X68.453Y-65.991
X68.453Y-68.531
X92.202Y-60.96
X92.202Y-63.5
X92.202Y-66.04
X92.202Y-68.58
X94.742Y-60.96
X94.742Y-63.5
X94.742Y-66.04
X94.742Y-68.58
X101.6Y-55.88
X101.6Y-58.42
X101.6Y-60.96
T6
X123.571Y-36.195
X127.381Y-40.64
T7
X121.031Y-40.64
T0
M30
