G04 #@! TF.GenerationSoftware,KiCad,Pcbnew,(5.0.2)-1*
G04 #@! TF.CreationDate,2019-06-05T14:46:48+08:00*
G04 #@! TF.ProjectId,DC Electronic Load Mini,44432045-6c65-4637-9472-6f6e6963204c,rev?*
G04 #@! TF.SameCoordinates,Original*
G04 #@! TF.FileFunction,Copper,L2,Bot*
G04 #@! TF.FilePolarity,Positive*
%FSLAX46Y46*%
G04 Gerber Fmt 4.6, Leading zero omitted, Abs format (unit mm)*
G04 Created by KiCad (PCBNEW (5.0.2)-1) date 06/05/19 14:46:48*
%MOMM*%
%LPD*%
G01*
G04 APERTURE LIST*
G04 #@! TA.AperFunction,ComponentPad*
%ADD10C,1.716000*%
G04 #@! TD*
G04 #@! TA.AperFunction,ComponentPad*
%ADD11O,1.800000X1.800000*%
G04 #@! TD*
G04 #@! TA.AperFunction,ComponentPad*
%ADD12R,1.800000X1.800000*%
G04 #@! TD*
G04 #@! TA.AperFunction,ComponentPad*
%ADD13C,1.600000*%
G04 #@! TD*
G04 #@! TA.AperFunction,ComponentPad*
%ADD14O,1.600000X1.600000*%
G04 #@! TD*
G04 #@! TA.AperFunction,SMDPad,CuDef*
%ADD15R,0.900000X1.200000*%
G04 #@! TD*
G04 #@! TA.AperFunction,SMDPad,CuDef*
%ADD16R,0.750000X1.200000*%
G04 #@! TD*
G04 #@! TA.AperFunction,SMDPad,CuDef*
%ADD17R,1.200000X0.750000*%
G04 #@! TD*
G04 #@! TA.AperFunction,ComponentPad*
%ADD18C,3.716000*%
G04 #@! TD*
G04 #@! TA.AperFunction,ComponentPad*
%ADD19C,4.216000*%
G04 #@! TD*
G04 #@! TA.AperFunction,ComponentPad*
%ADD20O,1.700000X1.700000*%
G04 #@! TD*
G04 #@! TA.AperFunction,ComponentPad*
%ADD21R,1.700000X1.700000*%
G04 #@! TD*
G04 #@! TA.AperFunction,ComponentPad*
%ADD22C,2.016000*%
G04 #@! TD*
G04 #@! TA.AperFunction,ComponentPad*
%ADD23R,2.016000X2.016000*%
G04 #@! TD*
G04 #@! TA.AperFunction,SMDPad,CuDef*
%ADD24R,1.200000X0.900000*%
G04 #@! TD*
G04 #@! TA.AperFunction,SMDPad,CuDef*
%ADD25R,0.450000X1.450000*%
G04 #@! TD*
G04 #@! TA.AperFunction,SMDPad,CuDef*
%ADD26R,1.450000X0.450000*%
G04 #@! TD*
G04 #@! TA.AperFunction,SMDPad,CuDef*
%ADD27R,0.650000X1.560000*%
G04 #@! TD*
G04 #@! TA.AperFunction,SMDPad,CuDef*
%ADD28R,1.560000X0.650000*%
G04 #@! TD*
G04 #@! TA.AperFunction,ViaPad*
%ADD29C,0.600000*%
G04 #@! TD*
G04 #@! TA.AperFunction,Conductor*
%ADD30C,1.270000*%
G04 #@! TD*
G04 #@! TA.AperFunction,Conductor*
%ADD31C,0.203200*%
G04 #@! TD*
G04 #@! TA.AperFunction,Conductor*
%ADD32C,0.304800*%
G04 #@! TD*
G04 #@! TA.AperFunction,Conductor*
%ADD33C,0.508000*%
G04 #@! TD*
G04 #@! TA.AperFunction,Conductor*
%ADD34C,1.524000*%
G04 #@! TD*
G04 #@! TA.AperFunction,Conductor*
%ADD35C,1.778000*%
G04 #@! TD*
G04 #@! TA.AperFunction,Conductor*
%ADD36C,2.032000*%
G04 #@! TD*
G04 #@! TA.AperFunction,Conductor*
%ADD37C,0.254000*%
G04 #@! TD*
G04 APERTURE END LIST*
D10*
G04 #@! TO.P,POT5,3*
G04 #@! TO.N,Net-(POT5-Pad3)*
X105389801Y-40590999D03*
G04 #@! TO.P,POT5,2*
G04 #@! TO.N,-0V5*
X107929801Y-43257999D03*
G04 #@! TO.P,POT5,1*
G04 #@! TO.N,Net-(POT5-Pad1)*
X110469801Y-40590999D03*
G04 #@! TD*
G04 #@! TO.P,R43,2*
G04 #@! TO.N,-5V*
X116311801Y-50496999D03*
G04 #@! TO.P,R43,1*
G04 #@! TO.N,Net-(POT5-Pad3)*
X116311801Y-40336999D03*
G04 #@! TD*
D11*
G04 #@! TO.P,D1,2*
G04 #@! TO.N,GND*
X115041801Y-65990999D03*
D12*
G04 #@! TO.P,D1,1*
G04 #@! TO.N,-0V5*
X115041801Y-53290999D03*
G04 #@! TD*
D13*
G04 #@! TO.P,R15,1*
G04 #@! TO.N,Net-(R14-Pad2)*
X75565000Y-68580000D03*
D14*
G04 #@! TO.P,R15,2*
G04 #@! TO.N,/LoadControl/I_Sense*
X75565000Y-71120000D03*
G04 #@! TD*
D10*
G04 #@! TO.P,POT3,3*
G04 #@! TO.N,GND*
X77724000Y-74676000D03*
G04 #@! TO.P,POT3,2*
G04 #@! TO.N,Net-(LCD1-Pad3)*
X75057000Y-77216000D03*
G04 #@! TO.P,POT3,1*
G04 #@! TO.N,+5V*
X77724000Y-79756000D03*
G04 #@! TD*
D15*
G04 #@! TO.P,R37,1*
G04 #@! TO.N,/LoadControl/I_Sense*
X77470000Y-71120000D03*
G04 #@! TO.P,R37,2*
G04 #@! TO.N,GND*
X77470000Y-68920000D03*
G04 #@! TD*
D16*
G04 #@! TO.P,C1,1*
G04 #@! TO.N,Net-(C1-Pad1)*
X103357801Y-38370999D03*
G04 #@! TO.P,C1,2*
G04 #@! TO.N,GND*
X103357801Y-40270999D03*
G04 #@! TD*
G04 #@! TO.P,C2,1*
G04 #@! TO.N,Net-(C1-Pad1)*
X101833801Y-38370999D03*
G04 #@! TO.P,C2,2*
G04 #@! TO.N,GND*
X101833801Y-40270999D03*
G04 #@! TD*
G04 #@! TO.P,C3,1*
G04 #@! TO.N,+5V*
X97769801Y-43130999D03*
G04 #@! TO.P,C3,2*
G04 #@! TO.N,GND*
X97769801Y-41230999D03*
G04 #@! TD*
G04 #@! TO.P,C8,2*
G04 #@! TO.N,GND*
X62992000Y-71496000D03*
G04 #@! TO.P,C8,1*
G04 #@! TO.N,+5V*
X62992000Y-69596000D03*
G04 #@! TD*
D17*
G04 #@! TO.P,C9,2*
G04 #@! TO.N,GND*
X122616000Y-45085000D03*
G04 #@! TO.P,C9,1*
G04 #@! TO.N,Net-(C1-Pad1)*
X120716000Y-45085000D03*
G04 #@! TD*
G04 #@! TO.P,C10,2*
G04 #@! TO.N,GND*
X122616000Y-43688000D03*
G04 #@! TO.P,C10,1*
G04 #@! TO.N,Net-(C1-Pad1)*
X120716000Y-43688000D03*
G04 #@! TD*
G04 #@! TO.P,C11,2*
G04 #@! TO.N,GND*
X123820000Y-49022000D03*
G04 #@! TO.P,C11,1*
G04 #@! TO.N,+3V3*
X121920000Y-49022000D03*
G04 #@! TD*
G04 #@! TO.P,C12,1*
G04 #@! TO.N,+3V3*
X121666000Y-77724000D03*
G04 #@! TO.P,C12,2*
G04 #@! TO.N,GND*
X119766000Y-77724000D03*
G04 #@! TD*
D16*
G04 #@! TO.P,C13,2*
G04 #@! TO.N,GND*
X116078000Y-70170000D03*
G04 #@! TO.P,C13,1*
G04 #@! TO.N,+3V3*
X116078000Y-72070000D03*
G04 #@! TD*
G04 #@! TO.P,C14,1*
G04 #@! TO.N,+3V3*
X125730000Y-69464000D03*
G04 #@! TO.P,C14,2*
G04 #@! TO.N,GND*
X125730000Y-67564000D03*
G04 #@! TD*
D17*
G04 #@! TO.P,C15,2*
G04 #@! TO.N,GND*
X72258000Y-62738000D03*
G04 #@! TO.P,C15,1*
G04 #@! TO.N,+3V3*
X70358000Y-62738000D03*
G04 #@! TD*
G04 #@! TO.P,C17,2*
G04 #@! TO.N,-5V*
X121036000Y-52324000D03*
G04 #@! TO.P,C17,1*
G04 #@! TO.N,GND*
X122936000Y-52324000D03*
G04 #@! TD*
G04 #@! TO.P,C18,2*
G04 #@! TO.N,-5V*
X121036000Y-51054000D03*
G04 #@! TO.P,C18,1*
G04 #@! TO.N,GND*
X122936000Y-51054000D03*
G04 #@! TD*
D16*
G04 #@! TO.P,C25,2*
G04 #@! TO.N,GND*
X62992000Y-73030000D03*
G04 #@! TO.P,C25,1*
G04 #@! TO.N,-0V5*
X62992000Y-74930000D03*
G04 #@! TD*
G04 #@! TO.P,C26,1*
G04 #@! TO.N,-0V5*
X71882000Y-69850000D03*
G04 #@! TO.P,C26,2*
G04 #@! TO.N,GND*
X71882000Y-67950000D03*
G04 #@! TD*
D17*
G04 #@! TO.P,C36,1*
G04 #@! TO.N,Net-(C36-Pad1)*
X66548000Y-75946000D03*
G04 #@! TO.P,C36,2*
G04 #@! TO.N,GND*
X64648000Y-75946000D03*
G04 #@! TD*
D18*
G04 #@! TO.P,J1,3*
G04 #@! TO.N,N/C*
X123571000Y-36195000D03*
G04 #@! TO.P,J1,2*
G04 #@! TO.N,GND*
X127381000Y-40640000D03*
D19*
G04 #@! TO.P,J1,1*
G04 #@! TO.N,Net-(C1-Pad1)*
X121031000Y-40640000D03*
G04 #@! TD*
D20*
G04 #@! TO.P,J2,8*
G04 #@! TO.N,GND*
X94742000Y-68580000D03*
G04 #@! TO.P,J2,7*
X92202000Y-68580000D03*
G04 #@! TO.P,J2,6*
X94742000Y-66040000D03*
G04 #@! TO.P,J2,5*
X92202000Y-66040000D03*
G04 #@! TO.P,J2,4*
G04 #@! TO.N,/LoadControl/Vin*
X94742000Y-63500000D03*
G04 #@! TO.P,J2,3*
X92202000Y-63500000D03*
G04 #@! TO.P,J2,2*
X94742000Y-60960000D03*
D21*
G04 #@! TO.P,J2,1*
X92202000Y-60960000D03*
G04 #@! TD*
D22*
G04 #@! TO.P,J3,2*
G04 #@! TO.N,GND*
X66294000Y-47244000D03*
D23*
G04 #@! TO.P,J3,1*
G04 #@! TO.N,Net-(J3-Pad1)*
X66294000Y-49784000D03*
G04 #@! TD*
D22*
G04 #@! TO.P,J4,6*
G04 #@! TO.N,Net-(J4-Pad6)*
X127508000Y-66802000D03*
G04 #@! TO.P,J4,5*
G04 #@! TO.N,/NRST*
X127508000Y-69342000D03*
G04 #@! TO.P,J4,4*
G04 #@! TO.N,/LCD_DB5*
X127508000Y-71882000D03*
G04 #@! TO.P,J4,3*
G04 #@! TO.N,GND*
X127508000Y-74422000D03*
G04 #@! TO.P,J4,2*
G04 #@! TO.N,/LCD_DB6*
X127508000Y-76962000D03*
D23*
G04 #@! TO.P,J4,1*
G04 #@! TO.N,+3V3*
X127508000Y-79502000D03*
G04 #@! TD*
G04 #@! TO.P,J5,1*
G04 #@! TO.N,Net-(J5-Pad1)*
X76200000Y-55880000D03*
D22*
G04 #@! TO.P,J5,2*
G04 #@! TO.N,/LoadControl/Vin*
X76200000Y-58420000D03*
G04 #@! TO.P,J5,3*
G04 #@! TO.N,Net-(C28-Pad1)*
X76200000Y-60960000D03*
G04 #@! TD*
G04 #@! TO.P,J6,3*
G04 #@! TO.N,Net-(C29-Pad1)*
X78740000Y-60960000D03*
G04 #@! TO.P,J6,2*
G04 #@! TO.N,/LoadControl/Vin*
X78740000Y-58420000D03*
D23*
G04 #@! TO.P,J6,1*
G04 #@! TO.N,Net-(J6-Pad1)*
X78740000Y-55880000D03*
G04 #@! TD*
D22*
G04 #@! TO.P,J7,3*
G04 #@! TO.N,Net-(C30-Pad1)*
X85090000Y-60960000D03*
G04 #@! TO.P,J7,2*
G04 #@! TO.N,/LoadControl/Vin*
X85090000Y-58420000D03*
D23*
G04 #@! TO.P,J7,1*
G04 #@! TO.N,Net-(J7-Pad1)*
X85090000Y-55880000D03*
G04 #@! TD*
G04 #@! TO.P,J8,1*
G04 #@! TO.N,Net-(J8-Pad1)*
X87630000Y-55880000D03*
D22*
G04 #@! TO.P,J8,2*
G04 #@! TO.N,/LoadControl/Vin*
X87630000Y-58420000D03*
G04 #@! TO.P,J8,3*
G04 #@! TO.N,Net-(C31-Pad1)*
X87630000Y-60960000D03*
G04 #@! TD*
D23*
G04 #@! TO.P,J9,1*
G04 #@! TO.N,Net-(J9-Pad1)*
X99060000Y-55880000D03*
D22*
G04 #@! TO.P,J9,2*
G04 #@! TO.N,/LoadControl/Vin*
X99060000Y-58420000D03*
G04 #@! TO.P,J9,3*
G04 #@! TO.N,Net-(C32-Pad1)*
X99060000Y-60960000D03*
G04 #@! TD*
D23*
G04 #@! TO.P,J10,1*
G04 #@! TO.N,Net-(J10-Pad1)*
X101600000Y-55880000D03*
D22*
G04 #@! TO.P,J10,2*
G04 #@! TO.N,/LoadControl/Vin*
X101600000Y-58420000D03*
G04 #@! TO.P,J10,3*
G04 #@! TO.N,Net-(C33-Pad1)*
X101600000Y-60960000D03*
G04 #@! TD*
G04 #@! TO.P,J11,3*
G04 #@! TO.N,Net-(C34-Pad1)*
X107950000Y-60960000D03*
G04 #@! TO.P,J11,2*
G04 #@! TO.N,/LoadControl/Vin*
X107950000Y-58420000D03*
D23*
G04 #@! TO.P,J11,1*
G04 #@! TO.N,Net-(J11-Pad1)*
X107950000Y-55880000D03*
G04 #@! TD*
G04 #@! TO.P,J12,1*
G04 #@! TO.N,Net-(J12-Pad1)*
X110490000Y-55880000D03*
D22*
G04 #@! TO.P,J12,2*
G04 #@! TO.N,/LoadControl/Vin*
X110490000Y-58420000D03*
G04 #@! TO.P,J12,3*
G04 #@! TO.N,Net-(C35-Pad1)*
X110490000Y-60960000D03*
G04 #@! TD*
D20*
G04 #@! TO.P,LCD1,16*
G04 #@! TO.N,GND*
X122174000Y-79756000D03*
G04 #@! TO.P,LCD1,15*
G04 #@! TO.N,+5V*
X119634000Y-79756000D03*
G04 #@! TO.P,LCD1,14*
G04 #@! TO.N,/LCD_DB7*
X117094000Y-79756000D03*
G04 #@! TO.P,LCD1,13*
G04 #@! TO.N,/LCD_DB6*
X114554000Y-79756000D03*
G04 #@! TO.P,LCD1,12*
G04 #@! TO.N,/LCD_DB5*
X112014000Y-79756000D03*
G04 #@! TO.P,LCD1,11*
G04 #@! TO.N,/LCD_DB4*
X109474000Y-79756000D03*
G04 #@! TO.P,LCD1,10*
G04 #@! TO.N,/LCD_DB3*
X106934000Y-79756000D03*
G04 #@! TO.P,LCD1,9*
G04 #@! TO.N,/LCD_DB2*
X104394000Y-79756000D03*
G04 #@! TO.P,LCD1,8*
G04 #@! TO.N,/LCD_DB1*
X101854000Y-79756000D03*
G04 #@! TO.P,LCD1,7*
G04 #@! TO.N,/LCD_DB0*
X99314000Y-79756000D03*
G04 #@! TO.P,LCD1,6*
G04 #@! TO.N,/LCD_EN*
X96774000Y-79756000D03*
G04 #@! TO.P,LCD1,5*
G04 #@! TO.N,GND*
X94234000Y-79756000D03*
G04 #@! TO.P,LCD1,4*
G04 #@! TO.N,/LCD_RS*
X91694000Y-79756000D03*
G04 #@! TO.P,LCD1,3*
G04 #@! TO.N,Net-(LCD1-Pad3)*
X89154000Y-79756000D03*
G04 #@! TO.P,LCD1,2*
G04 #@! TO.N,+5V*
X86614000Y-79756000D03*
D21*
G04 #@! TO.P,LCD1,1*
G04 #@! TO.N,GND*
X84074000Y-79756000D03*
G04 #@! TD*
D10*
G04 #@! TO.P,POT1,1*
G04 #@! TO.N,Net-(POT1-Pad1)*
X64643000Y-59182000D03*
G04 #@! TO.P,POT1,2*
G04 #@! TO.N,/VoltageADC*
X61976000Y-56642000D03*
G04 #@! TO.P,POT1,3*
G04 #@! TO.N,Net-(POT1-Pad3)*
X64643000Y-54102000D03*
G04 #@! TD*
G04 #@! TO.P,POT4,1*
G04 #@! TO.N,Net-(POT4-Pad1)*
X68305801Y-72390000D03*
G04 #@! TO.P,POT4,2*
G04 #@! TO.N,Net-(C36-Pad1)*
X70972801Y-74930000D03*
G04 #@! TO.P,POT4,3*
G04 #@! TO.N,Net-(POT4-Pad3)*
X68305801Y-77470000D03*
G04 #@! TD*
D24*
G04 #@! TO.P,R1,1*
G04 #@! TO.N,/LoadControl/Vin*
X72474000Y-58420000D03*
G04 #@! TO.P,R1,2*
G04 #@! TO.N,Net-(POT1-Pad1)*
X70274000Y-58420000D03*
G04 #@! TD*
D15*
G04 #@! TO.P,R4,2*
G04 #@! TO.N,-0V5*
X70358000Y-69934000D03*
G04 #@! TO.P,R4,1*
G04 #@! TO.N,Net-(POT2-Pad3)*
X70358000Y-67734000D03*
G04 #@! TD*
D24*
G04 #@! TO.P,R5,1*
G04 #@! TO.N,Net-(C27-Pad1)*
X64686000Y-67260999D03*
G04 #@! TO.P,R5,2*
G04 #@! TO.N,Net-(R5-Pad2)*
X66886000Y-67260999D03*
G04 #@! TD*
G04 #@! TO.P,R6,2*
G04 #@! TO.N,Net-(C27-Pad1)*
X63330000Y-67056000D03*
G04 #@! TO.P,R6,1*
G04 #@! TO.N,Net-(R6-Pad1)*
X61130000Y-67056000D03*
G04 #@! TD*
D15*
G04 #@! TO.P,R7,2*
G04 #@! TO.N,GND*
X61214000Y-71288000D03*
G04 #@! TO.P,R7,1*
G04 #@! TO.N,Net-(R6-Pad1)*
X61214000Y-69088000D03*
G04 #@! TD*
G04 #@! TO.P,R8,2*
G04 #@! TO.N,/NRST*
X123444000Y-72730000D03*
G04 #@! TO.P,R8,1*
G04 #@! TO.N,+3V3*
X123444000Y-74930000D03*
G04 #@! TD*
D24*
G04 #@! TO.P,R9,1*
G04 #@! TO.N,+3V3*
X122004000Y-73660000D03*
G04 #@! TO.P,R9,2*
G04 #@! TO.N,Net-(R9-Pad2)*
X119804000Y-73660000D03*
G04 #@! TD*
G04 #@! TO.P,R10,2*
G04 #@! TO.N,Net-(R10-Pad2)*
X119720000Y-74930000D03*
G04 #@! TO.P,R10,1*
G04 #@! TO.N,+3V3*
X121920000Y-74930000D03*
G04 #@! TD*
D15*
G04 #@! TO.P,R11,2*
G04 #@! TO.N,Net-(R11-Pad2)*
X124968000Y-72814000D03*
G04 #@! TO.P,R11,1*
G04 #@! TO.N,+3V3*
X124968000Y-75014000D03*
G04 #@! TD*
D14*
G04 #@! TO.P,R14,2*
G04 #@! TO.N,Net-(R14-Pad2)*
X75565000Y-66040000D03*
D13*
G04 #@! TO.P,R14,1*
G04 #@! TO.N,Net-(C28-Pad1)*
X75565000Y-63500000D03*
G04 #@! TD*
D14*
G04 #@! TO.P,R17,2*
G04 #@! TO.N,Net-(R17-Pad2)*
X79375000Y-66040000D03*
D13*
G04 #@! TO.P,R17,1*
G04 #@! TO.N,Net-(C29-Pad1)*
X79375000Y-63500000D03*
G04 #@! TD*
G04 #@! TO.P,R18,1*
G04 #@! TO.N,Net-(R17-Pad2)*
X79375000Y-68580000D03*
D14*
G04 #@! TO.P,R18,2*
G04 #@! TO.N,/LoadControl/I_Sense*
X79375000Y-71120000D03*
G04 #@! TD*
D13*
G04 #@! TO.P,R20,1*
G04 #@! TO.N,Net-(C30-Pad1)*
X84455000Y-63500000D03*
D14*
G04 #@! TO.P,R20,2*
G04 #@! TO.N,Net-(R20-Pad2)*
X84455000Y-66040000D03*
G04 #@! TD*
G04 #@! TO.P,R21,2*
G04 #@! TO.N,/LoadControl/I_Sense*
X84455000Y-71120000D03*
D13*
G04 #@! TO.P,R21,1*
G04 #@! TO.N,Net-(R20-Pad2)*
X84455000Y-68580000D03*
G04 #@! TD*
G04 #@! TO.P,R23,1*
G04 #@! TO.N,Net-(C31-Pad1)*
X88265000Y-63500000D03*
D14*
G04 #@! TO.P,R23,2*
G04 #@! TO.N,Net-(R23-Pad2)*
X88265000Y-66040000D03*
G04 #@! TD*
G04 #@! TO.P,R24,2*
G04 #@! TO.N,/LoadControl/I_Sense*
X88265000Y-71120000D03*
D13*
G04 #@! TO.P,R24,1*
G04 #@! TO.N,Net-(R23-Pad2)*
X88265000Y-68580000D03*
G04 #@! TD*
D14*
G04 #@! TO.P,R26,2*
G04 #@! TO.N,Net-(R26-Pad2)*
X98425000Y-66040000D03*
D13*
G04 #@! TO.P,R26,1*
G04 #@! TO.N,Net-(C32-Pad1)*
X98425000Y-63500000D03*
G04 #@! TD*
G04 #@! TO.P,R27,1*
G04 #@! TO.N,Net-(R26-Pad2)*
X98425000Y-68580000D03*
D14*
G04 #@! TO.P,R27,2*
G04 #@! TO.N,/LoadControl/I_Sense*
X98425000Y-71120000D03*
G04 #@! TD*
G04 #@! TO.P,R29,2*
G04 #@! TO.N,Net-(R29-Pad2)*
X102235000Y-66040000D03*
D13*
G04 #@! TO.P,R29,1*
G04 #@! TO.N,Net-(C33-Pad1)*
X102235000Y-63500000D03*
G04 #@! TD*
G04 #@! TO.P,R30,1*
G04 #@! TO.N,Net-(R29-Pad2)*
X102235000Y-68580000D03*
D14*
G04 #@! TO.P,R30,2*
G04 #@! TO.N,/LoadControl/I_Sense*
X102235000Y-71120000D03*
G04 #@! TD*
D13*
G04 #@! TO.P,R32,1*
G04 #@! TO.N,Net-(C34-Pad1)*
X107315000Y-63500000D03*
D14*
G04 #@! TO.P,R32,2*
G04 #@! TO.N,Net-(R32-Pad2)*
X107315000Y-66040000D03*
G04 #@! TD*
G04 #@! TO.P,R33,2*
G04 #@! TO.N,/LoadControl/I_Sense*
X107315000Y-71120000D03*
D13*
G04 #@! TO.P,R33,1*
G04 #@! TO.N,Net-(R32-Pad2)*
X107315000Y-68580000D03*
G04 #@! TD*
G04 #@! TO.P,R35,1*
G04 #@! TO.N,Net-(C35-Pad1)*
X111125000Y-63500000D03*
D14*
G04 #@! TO.P,R35,2*
G04 #@! TO.N,Net-(R35-Pad2)*
X111125000Y-66040000D03*
G04 #@! TD*
G04 #@! TO.P,R36,2*
G04 #@! TO.N,/LoadControl/I_Sense*
X111125000Y-71120000D03*
D13*
G04 #@! TO.P,R36,1*
G04 #@! TO.N,Net-(R35-Pad2)*
X111125000Y-68580000D03*
G04 #@! TD*
D15*
G04 #@! TO.P,R38,1*
G04 #@! TO.N,/LoadControl/I_Sense*
X86360000Y-71120000D03*
G04 #@! TO.P,R38,2*
G04 #@! TO.N,GND*
X86360000Y-68920000D03*
G04 #@! TD*
G04 #@! TO.P,R39,2*
G04 #@! TO.N,GND*
X100330000Y-68920000D03*
G04 #@! TO.P,R39,1*
G04 #@! TO.N,/LoadControl/I_Sense*
X100330000Y-71120000D03*
G04 #@! TD*
G04 #@! TO.P,R40,2*
G04 #@! TO.N,GND*
X109220000Y-68920000D03*
G04 #@! TO.P,R40,1*
G04 #@! TO.N,/LoadControl/I_Sense*
X109220000Y-71120000D03*
G04 #@! TD*
D24*
G04 #@! TO.P,R41,1*
G04 #@! TO.N,/CurrentADC*
X67310000Y-73914000D03*
G04 #@! TO.P,R41,2*
G04 #@! TO.N,Net-(POT4-Pad1)*
X69510000Y-73914000D03*
G04 #@! TD*
G04 #@! TO.P,R42,2*
G04 #@! TO.N,GND*
X64348000Y-77470000D03*
G04 #@! TO.P,R42,1*
G04 #@! TO.N,Net-(POT4-Pad3)*
X66548000Y-77470000D03*
G04 #@! TD*
D22*
G04 #@! TO.P,SW1,3*
G04 #@! TO.N,Net-(R6-Pad1)*
X71374000Y-54864000D03*
G04 #@! TO.P,SW1,2*
G04 #@! TO.N,/Vset*
X71374000Y-52324000D03*
D23*
G04 #@! TO.P,SW1,1*
G04 #@! TO.N,Net-(J3-Pad1)*
X71374000Y-49784000D03*
G04 #@! TD*
D11*
G04 #@! TO.P,U1,3*
G04 #@! TO.N,+5V*
X99801801Y-43130999D03*
G04 #@! TO.P,U1,2*
G04 #@! TO.N,GND*
X99801801Y-40590999D03*
D12*
G04 #@! TO.P,U1,1*
G04 #@! TO.N,Net-(C1-Pad1)*
X99801801Y-38050999D03*
G04 #@! TD*
G04 #@! TO.P,U2,1*
G04 #@! TO.N,GND*
X124206000Y-46990000D03*
D11*
G04 #@! TO.P,U2,2*
G04 #@! TO.N,+3V3*
X121666000Y-46990000D03*
G04 #@! TO.P,U2,3*
G04 #@! TO.N,Net-(C1-Pad1)*
X119126000Y-46990000D03*
G04 #@! TD*
D10*
G04 #@! TO.P,U3,8*
G04 #@! TO.N,+5V*
X118364000Y-58674000D03*
G04 #@! TO.P,U3,7*
G04 #@! TO.N,Net-(U3-Pad7)*
X118364000Y-56134000D03*
G04 #@! TO.P,U3,6*
G04 #@! TO.N,N/C*
X118364000Y-53594000D03*
G04 #@! TO.P,U3,5*
G04 #@! TO.N,-5V*
X118364000Y-51054000D03*
G04 #@! TO.P,U3,4*
G04 #@! TO.N,Net-(C16-Pad2)*
X125984000Y-51054000D03*
G04 #@! TO.P,U3,3*
G04 #@! TO.N,GND*
X125984000Y-53594000D03*
G04 #@! TO.P,U3,2*
G04 #@! TO.N,Net-(C16-Pad1)*
X125984000Y-56134000D03*
G04 #@! TO.P,U3,1*
G04 #@! TO.N,N/C*
X125984000Y-58674000D03*
G04 #@! TD*
D25*
G04 #@! TO.P,U6,8*
G04 #@! TO.N,+5V*
X66253000Y-69428000D03*
G04 #@! TO.P,U6,7*
G04 #@! TO.N,Net-(R5-Pad2)*
X65603000Y-69428000D03*
G04 #@! TO.P,U6,6*
G04 #@! TO.N,Net-(C27-Pad1)*
X64953000Y-69428000D03*
G04 #@! TO.P,U6,5*
G04 #@! TO.N,Net-(POT2-Pad2)*
X64303000Y-69428000D03*
G04 #@! TO.P,U6,4*
G04 #@! TO.N,-0V5*
X64303000Y-73828000D03*
G04 #@! TO.P,U6,3*
G04 #@! TO.N,/LoadControl/I_Sense*
X64953000Y-73828000D03*
G04 #@! TO.P,U6,2*
G04 #@! TO.N,Net-(C36-Pad1)*
X65603000Y-73828000D03*
G04 #@! TO.P,U6,1*
G04 #@! TO.N,/CurrentADC*
X66253000Y-73828000D03*
G04 #@! TD*
D26*
G04 #@! TO.P,U7,8*
G04 #@! TO.N,+5V*
X79670000Y-53680000D03*
G04 #@! TO.P,U7,7*
G04 #@! TO.N,Net-(R16-Pad2)*
X79670000Y-53030000D03*
G04 #@! TO.P,U7,6*
G04 #@! TO.N,Net-(C29-Pad1)*
X79670000Y-52380000D03*
G04 #@! TO.P,U7,5*
G04 #@! TO.N,/Vset*
X79670000Y-51730000D03*
G04 #@! TO.P,U7,4*
G04 #@! TO.N,-0V5*
X75270000Y-51730000D03*
G04 #@! TO.P,U7,3*
G04 #@! TO.N,/Vset*
X75270000Y-52380000D03*
G04 #@! TO.P,U7,2*
G04 #@! TO.N,Net-(C28-Pad1)*
X75270000Y-53030000D03*
G04 #@! TO.P,U7,1*
G04 #@! TO.N,Net-(R13-Pad2)*
X75270000Y-53680000D03*
G04 #@! TD*
G04 #@! TO.P,U8,1*
G04 #@! TO.N,Net-(R19-Pad2)*
X84160000Y-53680000D03*
G04 #@! TO.P,U8,2*
G04 #@! TO.N,Net-(C30-Pad1)*
X84160000Y-53030000D03*
G04 #@! TO.P,U8,3*
G04 #@! TO.N,/Vset*
X84160000Y-52380000D03*
G04 #@! TO.P,U8,4*
G04 #@! TO.N,-0V5*
X84160000Y-51730000D03*
G04 #@! TO.P,U8,5*
G04 #@! TO.N,/Vset*
X88560000Y-51730000D03*
G04 #@! TO.P,U8,6*
G04 #@! TO.N,Net-(C31-Pad1)*
X88560000Y-52380000D03*
G04 #@! TO.P,U8,7*
G04 #@! TO.N,Net-(R22-Pad2)*
X88560000Y-53030000D03*
G04 #@! TO.P,U8,8*
G04 #@! TO.N,+5V*
X88560000Y-53680000D03*
G04 #@! TD*
G04 #@! TO.P,U9,1*
G04 #@! TO.N,Net-(R25-Pad2)*
X98130000Y-53680000D03*
G04 #@! TO.P,U9,2*
G04 #@! TO.N,Net-(C32-Pad1)*
X98130000Y-53030000D03*
G04 #@! TO.P,U9,3*
G04 #@! TO.N,/Vset*
X98130000Y-52380000D03*
G04 #@! TO.P,U9,4*
G04 #@! TO.N,-0V5*
X98130000Y-51730000D03*
G04 #@! TO.P,U9,5*
G04 #@! TO.N,/Vset*
X102530000Y-51730000D03*
G04 #@! TO.P,U9,6*
G04 #@! TO.N,Net-(C33-Pad1)*
X102530000Y-52380000D03*
G04 #@! TO.P,U9,7*
G04 #@! TO.N,Net-(R28-Pad2)*
X102530000Y-53030000D03*
G04 #@! TO.P,U9,8*
G04 #@! TO.N,+5V*
X102530000Y-53680000D03*
G04 #@! TD*
G04 #@! TO.P,U10,8*
G04 #@! TO.N,+5V*
X111420000Y-53680000D03*
G04 #@! TO.P,U10,7*
G04 #@! TO.N,Net-(R34-Pad2)*
X111420000Y-53030000D03*
G04 #@! TO.P,U10,6*
G04 #@! TO.N,Net-(C35-Pad1)*
X111420000Y-52380000D03*
G04 #@! TO.P,U10,5*
G04 #@! TO.N,/Vset*
X111420000Y-51730000D03*
G04 #@! TO.P,U10,4*
G04 #@! TO.N,-0V5*
X107020000Y-51730000D03*
G04 #@! TO.P,U10,3*
G04 #@! TO.N,/Vset*
X107020000Y-52380000D03*
G04 #@! TO.P,U10,2*
G04 #@! TO.N,Net-(C34-Pad1)*
X107020000Y-53030000D03*
G04 #@! TO.P,U10,1*
G04 #@! TO.N,Net-(R31-Pad2)*
X107020000Y-53680000D03*
G04 #@! TD*
D27*
G04 #@! TO.P,U11,5*
G04 #@! TO.N,+3V3*
X123444000Y-70692000D03*
G04 #@! TO.P,U11,6*
G04 #@! TO.N,GND*
X122494000Y-70692000D03*
G04 #@! TO.P,U11,4*
G04 #@! TO.N,Net-(R11-Pad2)*
X124394000Y-70692000D03*
G04 #@! TO.P,U11,3*
G04 #@! TO.N,Net-(R12-Pad2)*
X124394000Y-67992000D03*
G04 #@! TO.P,U11,2*
G04 #@! TO.N,GND*
X123444000Y-67992000D03*
G04 #@! TO.P,U11,1*
G04 #@! TO.N,/VoltageADC*
X122494000Y-67992000D03*
G04 #@! TD*
D28*
G04 #@! TO.P,U12,1*
G04 #@! TO.N,/CurrentADC*
X120730000Y-70170000D03*
G04 #@! TO.P,U12,2*
G04 #@! TO.N,GND*
X120730000Y-71120000D03*
G04 #@! TO.P,U12,3*
G04 #@! TO.N,Net-(R10-Pad2)*
X120730000Y-72070000D03*
G04 #@! TO.P,U12,4*
G04 #@! TO.N,Net-(R9-Pad2)*
X118030000Y-72070000D03*
G04 #@! TO.P,U12,6*
G04 #@! TO.N,GND*
X118030000Y-70170000D03*
G04 #@! TO.P,U12,5*
G04 #@! TO.N,+3V3*
X118030000Y-71120000D03*
G04 #@! TD*
D22*
G04 #@! TO.P,POT2,3*
G04 #@! TO.N,Net-(POT2-Pad3)*
X68453000Y-68530999D03*
G04 #@! TO.P,POT2,2*
G04 #@! TO.N,Net-(POT2-Pad2)*
X68453000Y-65990999D03*
D23*
G04 #@! TO.P,POT2,1*
G04 #@! TO.N,+3V3*
X68453000Y-63450999D03*
G04 #@! TD*
D29*
G04 #@! TO.N,GND*
X62978042Y-70662360D03*
X120124800Y-78451600D03*
X90932000Y-50170000D03*
X95758000Y-50170000D03*
G04 #@! TO.N,+5V*
X79756000Y-54356000D03*
X88646000Y-54356000D03*
X102616000Y-54356000D03*
X111506000Y-54356000D03*
X93218000Y-54356000D03*
X93980000Y-54356000D03*
X92456000Y-54356000D03*
G04 #@! TO.N,+3V3*
X121848805Y-76040853D03*
X119365310Y-71656139D03*
G04 #@! TO.N,-0V5*
X75270000Y-51222402D03*
X84074000Y-51222402D03*
X98044000Y-51222402D03*
X106934000Y-51222402D03*
X65278000Y-71823200D03*
X66294000Y-57658000D03*
X113792000Y-51054000D03*
G04 #@! TO.N,Net-(C27-Pad1)*
X63246000Y-67818000D03*
G04 #@! TO.N,Net-(C28-Pad1)*
X73914000Y-53594000D03*
G04 #@! TO.N,Net-(C29-Pad1)*
X81026000Y-53594000D03*
G04 #@! TO.N,Net-(C30-Pad1)*
X82804000Y-53594000D03*
G04 #@! TO.N,Net-(C31-Pad1)*
X89916000Y-53594000D03*
G04 #@! TO.N,Net-(C32-Pad1)*
X96774000Y-53594000D03*
G04 #@! TO.N,Net-(C33-Pad1)*
X103886000Y-53594000D03*
G04 #@! TO.N,Net-(C34-Pad1)*
X105664000Y-53594000D03*
G04 #@! TO.N,Net-(C35-Pad1)*
X112776000Y-53594000D03*
G04 #@! TO.N,/NRST*
X122428000Y-72644000D03*
G04 #@! TO.N,/VoltageADC*
X118872000Y-62230000D03*
G04 #@! TO.N,Net-(R9-Pad2)*
X119380000Y-74027598D03*
G04 #@! TO.N,Net-(R10-Pad2)*
X120396000Y-76200000D03*
G04 #@! TO.N,Net-(R11-Pad2)*
X124968000Y-73660000D03*
G04 #@! TO.N,Net-(R12-Pad2)*
X124714000Y-68834000D03*
G04 #@! TO.N,Net-(R13-Pad2)*
X76962000Y-52287598D03*
G04 #@! TO.N,Net-(R16-Pad2)*
X77978000Y-52287598D03*
G04 #@! TO.N,Net-(R19-Pad2)*
X85852000Y-52287598D03*
G04 #@! TO.N,Net-(R22-Pad2)*
X86868000Y-52287598D03*
G04 #@! TO.N,Net-(R25-Pad2)*
X99822000Y-52287598D03*
G04 #@! TO.N,Net-(R28-Pad2)*
X100838000Y-52287598D03*
G04 #@! TO.N,Net-(R31-Pad2)*
X108712000Y-52287598D03*
G04 #@! TO.N,Net-(R34-Pad2)*
X109728000Y-52287598D03*
G04 #@! TD*
D30*
G04 #@! TO.N,Net-(C1-Pad1)*
X120716000Y-43688000D02*
X120716000Y-45085000D01*
X119126000Y-46675000D02*
X120716000Y-45085000D01*
X119126000Y-46990000D02*
X119126000Y-46675000D01*
X120716000Y-40955000D02*
X121031000Y-40640000D01*
D31*
X101513801Y-38050999D02*
X101833801Y-38370999D01*
D30*
X99801801Y-38050999D02*
X101513801Y-38050999D01*
X103357801Y-38370999D02*
X101833801Y-38370999D01*
X120716000Y-43688000D02*
X120716000Y-40955000D01*
X118761999Y-38370999D02*
X121031000Y-40640000D01*
X103357801Y-38370999D02*
X118761999Y-38370999D01*
D32*
G04 #@! TO.N,GND*
X62992000Y-73030000D02*
X62992000Y-71496000D01*
X62992000Y-71496000D02*
X62992000Y-70676318D01*
X62992000Y-70676318D02*
X62978042Y-70662360D01*
X121429200Y-79756000D02*
X120124800Y-78451600D01*
X122174000Y-79756000D02*
X121429200Y-79756000D01*
X84074000Y-79756000D02*
X82919200Y-79756000D01*
D33*
X119766000Y-78092800D02*
X120124800Y-78451600D01*
X119766000Y-77724000D02*
X119766000Y-78092800D01*
X90932000Y-50170000D02*
X95758000Y-50170000D01*
D32*
X114554000Y-50878000D02*
X114620000Y-50944000D01*
G04 #@! TO.N,+5V*
X79756000Y-53766000D02*
X79670000Y-53680000D01*
X79756000Y-54356000D02*
X79756000Y-53766000D01*
X79756000Y-54356000D02*
X81534000Y-54356000D01*
X81534000Y-54356000D02*
X86360000Y-54356000D01*
X86360000Y-54356000D02*
X88646000Y-54356000D01*
X88646000Y-53766000D02*
X88560000Y-53680000D01*
X88646000Y-54356000D02*
X88646000Y-53766000D01*
X102530000Y-54270000D02*
X102616000Y-54356000D01*
X102530000Y-53680000D02*
X102530000Y-54270000D01*
X111420000Y-53680000D02*
X111420000Y-54270000D01*
X111420000Y-54270000D02*
X111506000Y-54356000D01*
X111506000Y-54356000D02*
X109220000Y-54356000D01*
X102616000Y-54356000D02*
X109220000Y-54356000D01*
X62992000Y-69821000D02*
X62992000Y-69596000D01*
X63783001Y-70612000D02*
X62992000Y-69821000D01*
X66098800Y-70612000D02*
X63783001Y-70612000D01*
X66253000Y-69428000D02*
X66253000Y-70457800D01*
X66253000Y-70457800D02*
X66098800Y-70612000D01*
X89736000Y-54356000D02*
X88646000Y-54356000D01*
X63783001Y-70612000D02*
X63228560Y-70057559D01*
X77724000Y-79756000D02*
X78994000Y-81026000D01*
X118479199Y-80910801D02*
X118784001Y-80605999D01*
X85459199Y-80910801D02*
X118479199Y-80910801D01*
X85344000Y-81026000D02*
X85459199Y-80910801D01*
X93980000Y-54356000D02*
X93218000Y-54356000D01*
X102616000Y-54356000D02*
X93980000Y-54356000D01*
X92456000Y-54356000D02*
X89736000Y-54356000D01*
X93218000Y-54356000D02*
X92456000Y-54356000D01*
D33*
X118784001Y-80605999D02*
X119634000Y-79756000D01*
X118377599Y-81012401D02*
X118784001Y-80605999D01*
X78980401Y-81012401D02*
X118377599Y-81012401D01*
X77724000Y-79756000D02*
X78980401Y-81012401D01*
X85344000Y-81026000D02*
X84074000Y-81026000D01*
X86614000Y-79756000D02*
X85344000Y-81026000D01*
D32*
X78994000Y-81026000D02*
X84074000Y-81026000D01*
D30*
X76866001Y-80613999D02*
X77724000Y-79756000D01*
X65119999Y-80613999D02*
X76866001Y-80613999D01*
X59690000Y-75184000D02*
X65119999Y-80613999D01*
D33*
X60198000Y-70104000D02*
X59690000Y-69596000D01*
X62484000Y-70104000D02*
X60198000Y-70104000D01*
X62992000Y-69596000D02*
X62484000Y-70104000D01*
D30*
X59690000Y-50800000D02*
X59690000Y-69596000D01*
X59690000Y-69596000D02*
X59690000Y-75184000D01*
D32*
X67359001Y-43130999D02*
X66597001Y-43892999D01*
D30*
X99801801Y-43130999D02*
X67359001Y-43130999D01*
X66597001Y-43892999D02*
X59690000Y-50800000D01*
D32*
G04 #@! TO.N,+3V3*
X121848805Y-77541195D02*
X121666000Y-77724000D01*
X121848805Y-76040853D02*
X121848805Y-77541195D01*
X121848805Y-75001195D02*
X121920000Y-74930000D01*
X121848805Y-76040853D02*
X121848805Y-75001195D01*
X123444000Y-74930000D02*
X121920000Y-74930000D01*
X122004000Y-74846000D02*
X121920000Y-74930000D01*
X122004000Y-73660000D02*
X122004000Y-74846000D01*
X123528000Y-75014000D02*
X123444000Y-74930000D01*
X124968000Y-75014000D02*
X123528000Y-75014000D01*
D30*
X121920000Y-47244000D02*
X121666000Y-46990000D01*
X121920000Y-49022000D02*
X121920000Y-47244000D01*
D32*
X121823199Y-73479199D02*
X122004000Y-73660000D01*
X121823199Y-72353695D02*
X121823199Y-73479199D01*
X122400093Y-71776801D02*
X121823199Y-72353695D01*
X123443999Y-71776801D02*
X122400093Y-71776801D01*
X123444000Y-70692000D02*
X123443999Y-71776801D01*
X118030000Y-71120000D02*
X118829171Y-71120000D01*
X118829171Y-71120000D02*
X119365310Y-71656139D01*
X123444000Y-69988358D02*
X123444000Y-70692000D01*
X123968358Y-69464000D02*
X123444000Y-69988358D01*
X125730000Y-69464000D02*
X123968358Y-69464000D01*
X117028000Y-71120000D02*
X116078000Y-72070000D01*
X118030000Y-71120000D02*
X117028000Y-71120000D01*
D33*
X68961000Y-62738000D02*
X68453000Y-63246000D01*
X70358000Y-62738000D02*
X68961000Y-62738000D01*
D32*
X124968000Y-75918800D02*
X124968000Y-75014000D01*
X124968000Y-78274800D02*
X124968000Y-75918800D01*
X126195200Y-79502000D02*
X124968000Y-78274800D01*
X127508000Y-79502000D02*
X126195200Y-79502000D01*
D33*
G04 #@! TO.N,-5V*
X121036000Y-52324000D02*
X121036000Y-51054000D01*
X121036000Y-51054000D02*
X118364000Y-51054000D01*
D32*
G04 #@! TO.N,-0V5*
X75270000Y-51730000D02*
X75270000Y-51222402D01*
X84160000Y-51730000D02*
X84160000Y-51308402D01*
X84160000Y-51308402D02*
X84074000Y-51222402D01*
X98130000Y-51730000D02*
X98130000Y-51308402D01*
X98130000Y-51308402D02*
X98044000Y-51222402D01*
X107020000Y-51730000D02*
X107020000Y-51308402D01*
X107020000Y-51308402D02*
X106934000Y-51222402D01*
X106634001Y-50922403D02*
X106934000Y-51222402D01*
X75270000Y-51222402D02*
X75569999Y-50922403D01*
X84074000Y-51222402D02*
X84074000Y-50922403D01*
X98044000Y-51222402D02*
X98044000Y-50922403D01*
X89154000Y-50922403D02*
X98044000Y-50922403D01*
X64303000Y-74328000D02*
X63701000Y-74930000D01*
X64303000Y-73828000D02*
X64303000Y-74328000D01*
X63701000Y-74930000D02*
X62992000Y-74930000D01*
X68040589Y-69934000D02*
X70358000Y-69934000D01*
X68040589Y-69934000D02*
X67480000Y-69934000D01*
X75569999Y-50922403D02*
X83566000Y-50922403D01*
X83566000Y-50922403D02*
X84074000Y-50922403D01*
X89154000Y-50922403D02*
X86360000Y-50922403D01*
X86614000Y-50922403D02*
X86360000Y-50922403D01*
X86360000Y-50922403D02*
X83566000Y-50922403D01*
X66344790Y-71069210D02*
X67480000Y-69934000D01*
X66031990Y-71069210D02*
X66344790Y-71069210D01*
X64303000Y-73828000D02*
X64303000Y-72798200D01*
X98044000Y-50922403D02*
X106172000Y-50922403D01*
X71798000Y-69934000D02*
X71882000Y-69850000D01*
X70358000Y-69934000D02*
X71798000Y-69934000D01*
X65278000Y-71823200D02*
X66031990Y-71069210D01*
X64303000Y-72798200D02*
X65278000Y-71823200D01*
X73118795Y-48471199D02*
X75569999Y-50922403D01*
X70122159Y-48471199D02*
X73118795Y-48471199D01*
X66339999Y-52253359D02*
X70122159Y-48471199D01*
X66339999Y-57612001D02*
X66294000Y-57658000D01*
X66339999Y-56896000D02*
X66339999Y-57612001D01*
X66339999Y-56896000D02*
X66339999Y-52253359D01*
X106172000Y-50922403D02*
X112522000Y-50922403D01*
X112653597Y-51054000D02*
X112522000Y-50922403D01*
X113792000Y-51054000D02*
X112653597Y-51054000D01*
X107233999Y-50922403D02*
X106405801Y-50922403D01*
X107929801Y-50226601D02*
X107233999Y-50922403D01*
X107929801Y-43003999D02*
X107929801Y-50226601D01*
X106172000Y-50922403D02*
X106405801Y-50922403D01*
X106405801Y-50922403D02*
X106634001Y-50922403D01*
D31*
G04 #@! TO.N,Net-(C27-Pad1)*
X63754000Y-67056000D02*
X63330000Y-67056000D01*
X64686000Y-67564000D02*
X64262000Y-67564000D01*
X63246000Y-67140000D02*
X63330000Y-67056000D01*
X63246000Y-67818000D02*
X63246000Y-67140000D01*
X64953000Y-67527999D02*
X64686000Y-67260999D01*
X64953000Y-69428000D02*
X64953000Y-67527999D01*
X64481001Y-67056000D02*
X64686000Y-67260999D01*
X63330000Y-67056000D02*
X64481001Y-67056000D01*
G04 #@! TO.N,Net-(C28-Pad1)*
X75270000Y-53030000D02*
X74478000Y-53030000D01*
X74478000Y-53030000D02*
X73914000Y-53594000D01*
D34*
X76200000Y-62865000D02*
X75565000Y-63500000D01*
X76200000Y-60960000D02*
X76200000Y-62865000D01*
D31*
G04 #@! TO.N,Net-(C29-Pad1)*
X81026000Y-52807800D02*
X81026000Y-53594000D01*
X79670000Y-52380000D02*
X80598200Y-52380000D01*
X80598200Y-52380000D02*
X81026000Y-52807800D01*
D34*
X78740000Y-62865000D02*
X79375000Y-63500000D01*
X78740000Y-60960000D02*
X78740000Y-62865000D01*
D31*
G04 #@! TO.N,Net-(C30-Pad1)*
X84160000Y-53030000D02*
X83368000Y-53030000D01*
X83368000Y-53030000D02*
X82804000Y-53594000D01*
D34*
X85090000Y-62865000D02*
X84455000Y-63500000D01*
X85090000Y-60960000D02*
X85090000Y-62865000D01*
D31*
G04 #@! TO.N,Net-(C31-Pad1)*
X89916000Y-52807800D02*
X89916000Y-53594000D01*
X88560000Y-52380000D02*
X89488200Y-52380000D01*
X89488200Y-52380000D02*
X89916000Y-52807800D01*
D34*
X87630000Y-62865000D02*
X88265000Y-63500000D01*
X87630000Y-60960000D02*
X87630000Y-62865000D01*
D31*
G04 #@! TO.N,Net-(C32-Pad1)*
X98130000Y-53030000D02*
X97338000Y-53030000D01*
X97338000Y-53030000D02*
X96774000Y-53594000D01*
D34*
X99060000Y-62865000D02*
X98425000Y-63500000D01*
X99060000Y-60960000D02*
X99060000Y-62865000D01*
D31*
G04 #@! TO.N,Net-(C33-Pad1)*
X103886000Y-52807800D02*
X103886000Y-53594000D01*
X102530000Y-52380000D02*
X103458200Y-52380000D01*
X103458200Y-52380000D02*
X103886000Y-52807800D01*
D34*
X101600000Y-62865000D02*
X102235000Y-63500000D01*
X101600000Y-60960000D02*
X101600000Y-62865000D01*
D31*
G04 #@! TO.N,Net-(C34-Pad1)*
X107020000Y-53030000D02*
X106228000Y-53030000D01*
X106228000Y-53030000D02*
X105664000Y-53594000D01*
D34*
X107950000Y-62865000D02*
X107315000Y-63500000D01*
X107950000Y-60960000D02*
X107950000Y-62865000D01*
D31*
G04 #@! TO.N,Net-(C35-Pad1)*
X112776000Y-52807800D02*
X112776000Y-53594000D01*
X111420000Y-52380000D02*
X112348200Y-52380000D01*
X112348200Y-52380000D02*
X112776000Y-52807800D01*
D34*
X110490000Y-62865000D02*
X111125000Y-63500000D01*
X110490000Y-60960000D02*
X110490000Y-62865000D01*
D31*
G04 #@! TO.N,Net-(C36-Pad1)*
X65603000Y-74756200D02*
X65776800Y-74930000D01*
X65603000Y-73828000D02*
X65603000Y-74756200D01*
X66985800Y-74930000D02*
X67564000Y-74930000D01*
X66548000Y-75367800D02*
X66985800Y-74930000D01*
X66548000Y-75946000D02*
X66548000Y-75367800D01*
X70972801Y-74930000D02*
X67289801Y-74930000D01*
X65776800Y-74930000D02*
X67289801Y-74930000D01*
X67289801Y-74930000D02*
X67564000Y-74930000D01*
D35*
G04 #@! TO.N,/LoadControl/Vin*
X76200000Y-58420000D02*
X78740000Y-58420000D01*
X85090000Y-58420000D02*
X78740000Y-58420000D01*
X87630000Y-58420000D02*
X85090000Y-58420000D01*
X99060000Y-58420000D02*
X101600000Y-58420000D01*
X101600000Y-58420000D02*
X107950000Y-58420000D01*
X110490000Y-58420000D02*
X107950000Y-58420000D01*
D36*
X76200000Y-58420000D02*
X72745610Y-58420000D01*
D31*
G04 #@! TO.N,/NRST*
X123358000Y-72644000D02*
X123444000Y-72730000D01*
X122428000Y-72644000D02*
X123358000Y-72644000D01*
G04 #@! TO.N,Net-(LCD1-Pad3)*
X86614000Y-77216000D02*
X89154000Y-79756000D01*
X75057000Y-77216000D02*
X86614000Y-77216000D01*
G04 #@! TO.N,Net-(POT1-Pad1)*
X65405000Y-58420000D02*
X64643000Y-59182000D01*
X70274000Y-58420000D02*
X65405000Y-58420000D01*
G04 #@! TO.N,/VoltageADC*
X122494000Y-65852000D02*
X122494000Y-67992000D01*
X118872000Y-62230000D02*
X122494000Y-65852000D01*
G04 #@! TO.N,Net-(POT2-Pad3)*
X69249999Y-67734000D02*
X68453000Y-68530999D01*
X70358000Y-67734000D02*
X69249999Y-67734000D01*
G04 #@! TO.N,Net-(POT2-Pad2)*
X64303000Y-68928000D02*
X64303000Y-69428000D01*
X63874800Y-68499800D02*
X64303000Y-68928000D01*
X62911800Y-68499800D02*
X63874800Y-68499800D01*
X62484000Y-68072000D02*
X62911800Y-68499800D01*
X62484000Y-67717202D02*
X62484000Y-68072000D01*
X62475999Y-66402799D02*
X62475999Y-67709201D01*
X62475999Y-67709201D02*
X62484000Y-67717202D01*
X62887799Y-65990999D02*
X62475999Y-66402799D01*
X68453000Y-65990999D02*
X62887799Y-65990999D01*
G04 #@! TO.N,Net-(POT4-Pad1)*
X68305801Y-72859801D02*
X68305801Y-72390000D01*
X69360000Y-73914000D02*
X68305801Y-72859801D01*
X69510000Y-73914000D02*
X69360000Y-73914000D01*
G04 #@! TO.N,Net-(POT4-Pad3)*
X66548000Y-77470000D02*
X68453000Y-77470000D01*
G04 #@! TO.N,Net-(R5-Pad2)*
X65603000Y-68499800D02*
X65603000Y-69428000D01*
X65603000Y-68393999D02*
X65603000Y-68499800D01*
X66736000Y-67260999D02*
X65603000Y-68393999D01*
X66886000Y-67260999D02*
X66736000Y-67260999D01*
G04 #@! TO.N,Net-(R6-Pad1)*
X61046000Y-67140000D02*
X61130000Y-67056000D01*
X61214000Y-69088000D02*
X61046000Y-68920000D01*
X61046000Y-68920000D02*
X61046000Y-67140000D01*
X61280000Y-67056000D02*
X61130000Y-67056000D01*
X63615001Y-64720999D02*
X61280000Y-67056000D01*
X69899001Y-64720999D02*
X63615001Y-64720999D01*
X71374000Y-63246000D02*
X69899001Y-64720999D01*
X71374000Y-54864000D02*
X71374000Y-63246000D01*
G04 #@! TO.N,Net-(R9-Pad2)*
X119436402Y-74027598D02*
X119804000Y-73660000D01*
X119380000Y-74027598D02*
X119436402Y-74027598D01*
X119804000Y-73389000D02*
X119804000Y-73660000D01*
X118485000Y-72070000D02*
X119804000Y-73389000D01*
X118030000Y-72070000D02*
X118485000Y-72070000D01*
G04 #@! TO.N,Net-(R10-Pad2)*
X120396000Y-75606000D02*
X119720000Y-74930000D01*
X120396000Y-76200000D02*
X120396000Y-75606000D01*
X120730000Y-75272000D02*
X120396000Y-75606000D01*
X120730000Y-72070000D02*
X120730000Y-75272000D01*
G04 #@! TO.N,Net-(R11-Pad2)*
X124968000Y-73660000D02*
X124968000Y-72814000D01*
X124394000Y-72240000D02*
X124968000Y-72814000D01*
X124394000Y-70692000D02*
X124394000Y-72240000D01*
G04 #@! TO.N,Net-(R12-Pad2)*
X124394000Y-68514000D02*
X124714000Y-68834000D01*
X124394000Y-67992000D02*
X124394000Y-68514000D01*
G04 #@! TO.N,Net-(R13-Pad2)*
X76962000Y-52916200D02*
X76962000Y-52287598D01*
X75270000Y-53680000D02*
X76198200Y-53680000D01*
X76198200Y-53680000D02*
X76962000Y-52916200D01*
D34*
G04 #@! TO.N,Net-(R14-Pad2)*
X75565000Y-68580000D02*
X75565000Y-66040000D01*
D33*
G04 #@! TO.N,/CurrentADC*
X66339000Y-73914000D02*
X66253000Y-73828000D01*
X67310000Y-73914000D02*
X66339000Y-73914000D01*
D31*
X66253000Y-72615800D02*
X66253000Y-73828000D01*
X67590801Y-71277999D02*
X66253000Y-72615800D01*
X74106539Y-71277999D02*
X67590801Y-71277999D01*
X119746800Y-70170000D02*
X118892799Y-69315999D01*
X120730000Y-70170000D02*
X119746800Y-70170000D01*
X118892799Y-69315999D02*
X115499799Y-69315999D01*
X112552788Y-72263010D02*
X75091550Y-72263010D01*
X115499799Y-69315999D02*
X112552788Y-72263010D01*
X75091550Y-72263010D02*
X74106539Y-71277999D01*
G04 #@! TO.N,Net-(R16-Pad2)*
X79670000Y-53030000D02*
X78720402Y-53030000D01*
X78720402Y-53030000D02*
X77978000Y-52287598D01*
D34*
G04 #@! TO.N,Net-(R17-Pad2)*
X79375000Y-66040000D02*
X79375000Y-68580000D01*
D31*
G04 #@! TO.N,Net-(R19-Pad2)*
X85852000Y-52916200D02*
X85852000Y-52287598D01*
X84160000Y-53680000D02*
X85088200Y-53680000D01*
X85088200Y-53680000D02*
X85852000Y-52916200D01*
D34*
G04 #@! TO.N,Net-(R20-Pad2)*
X84455000Y-68580000D02*
X84455000Y-66040000D01*
D31*
G04 #@! TO.N,Net-(R22-Pad2)*
X88560000Y-53030000D02*
X87610402Y-53030000D01*
X87610402Y-53030000D02*
X86868000Y-52287598D01*
D34*
G04 #@! TO.N,Net-(R23-Pad2)*
X88265000Y-66040000D02*
X88265000Y-68580000D01*
D31*
G04 #@! TO.N,Net-(R25-Pad2)*
X99822000Y-52916200D02*
X99822000Y-52287598D01*
X98130000Y-53680000D02*
X99058200Y-53680000D01*
X99058200Y-53680000D02*
X99822000Y-52916200D01*
D34*
G04 #@! TO.N,Net-(R26-Pad2)*
X98425000Y-68580000D02*
X98425000Y-66040000D01*
D31*
G04 #@! TO.N,Net-(R28-Pad2)*
X102530000Y-53030000D02*
X101580402Y-53030000D01*
X101580402Y-53030000D02*
X100838000Y-52287598D01*
D34*
G04 #@! TO.N,Net-(R29-Pad2)*
X102235000Y-66040000D02*
X102235000Y-68580000D01*
D31*
G04 #@! TO.N,Net-(R31-Pad2)*
X108712000Y-52916200D02*
X108712000Y-52287598D01*
X107020000Y-53680000D02*
X107948200Y-53680000D01*
X107948200Y-53680000D02*
X108712000Y-52916200D01*
D34*
G04 #@! TO.N,Net-(R32-Pad2)*
X107315000Y-68580000D02*
X107315000Y-66040000D01*
D31*
G04 #@! TO.N,Net-(R34-Pad2)*
X111420000Y-53030000D02*
X110470402Y-53030000D01*
X110470402Y-53030000D02*
X109728000Y-52287598D01*
D34*
G04 #@! TO.N,Net-(R35-Pad2)*
X111125000Y-66040000D02*
X111125000Y-68580000D01*
D31*
G04 #@! TO.N,/Vset*
X79670000Y-51730000D02*
X81956000Y-51730000D01*
X82606000Y-52380000D02*
X84160000Y-52380000D01*
X81956000Y-51730000D02*
X82606000Y-52380000D01*
X107020000Y-52380000D02*
X105720000Y-52380000D01*
X105070000Y-51730000D02*
X102530000Y-51730000D01*
X105720000Y-52380000D02*
X105070000Y-51730000D01*
X78741800Y-51730000D02*
X79670000Y-51730000D01*
X76699676Y-51730000D02*
X78741800Y-51730000D01*
X76049676Y-52380000D02*
X76699676Y-51730000D01*
X75270000Y-52380000D02*
X76049676Y-52380000D01*
X87631800Y-51730000D02*
X88560000Y-51730000D01*
X85567202Y-51730000D02*
X87631800Y-51730000D01*
X84917202Y-52380000D02*
X85567202Y-51730000D01*
X84160000Y-52380000D02*
X84917202Y-52380000D01*
X101601800Y-51730000D02*
X102530000Y-51730000D01*
X99559676Y-51730000D02*
X101601800Y-51730000D01*
X98909676Y-52380000D02*
X99559676Y-51730000D01*
X98130000Y-52380000D02*
X98909676Y-52380000D01*
X110491800Y-51730000D02*
X111420000Y-51730000D01*
X108449676Y-51730000D02*
X110491800Y-51730000D01*
X107799676Y-52380000D02*
X108449676Y-51730000D01*
X107020000Y-52380000D02*
X107799676Y-52380000D01*
X96830000Y-52380000D02*
X98130000Y-52380000D01*
X91100000Y-51730000D02*
X96180000Y-51730000D01*
X96180000Y-51730000D02*
X96830000Y-52380000D01*
X91100000Y-51730000D02*
X88560000Y-51730000D01*
X71430000Y-52380000D02*
X71374000Y-52324000D01*
X75270000Y-52380000D02*
X71430000Y-52380000D01*
D35*
G04 #@! TO.N,/LoadControl/I_Sense*
X75565000Y-71120000D02*
X79375000Y-71120000D01*
X84455000Y-71120000D02*
X88265000Y-71120000D01*
X98425000Y-71120000D02*
X102235000Y-71120000D01*
X107315000Y-71120000D02*
X111125000Y-71120000D01*
X79375000Y-71120000D02*
X84455000Y-71120000D01*
X102235000Y-71120000D02*
X107315000Y-71120000D01*
D34*
X88265000Y-71120000D02*
X94234000Y-71120000D01*
X94234000Y-71120000D02*
X98425000Y-71120000D01*
D31*
X64953000Y-72899800D02*
X64953000Y-73828000D01*
X65257801Y-72594999D02*
X64953000Y-72899800D01*
X65511801Y-72594999D02*
X65257801Y-72594999D01*
X67289801Y-70816999D02*
X65511801Y-72594999D01*
X75261999Y-70816999D02*
X67289801Y-70816999D01*
X75565000Y-71120000D02*
X75261999Y-70816999D01*
D33*
G04 #@! TO.N,-5V*
X117806999Y-50496999D02*
X118364000Y-51054000D01*
X116311801Y-50496999D02*
X117806999Y-50496999D01*
G04 #@! TD*
D37*
G04 #@! TO.N,GND*
G36*
X78763569Y-64415071D02*
X79160294Y-64579400D01*
X79589706Y-64579400D01*
X79986431Y-64415071D01*
X80012502Y-64389000D01*
X83817498Y-64389000D01*
X83843569Y-64415071D01*
X84240294Y-64579400D01*
X84669706Y-64579400D01*
X85066431Y-64415071D01*
X85092502Y-64389000D01*
X87627498Y-64389000D01*
X87653569Y-64415071D01*
X88050294Y-64579400D01*
X88479706Y-64579400D01*
X88876431Y-64415071D01*
X88902502Y-64389000D01*
X91316742Y-64389000D01*
X91721688Y-64659576D01*
X92080761Y-64731000D01*
X92323239Y-64731000D01*
X92682312Y-64659576D01*
X93087258Y-64389000D01*
X93856742Y-64389000D01*
X94261688Y-64659576D01*
X94620761Y-64731000D01*
X94863239Y-64731000D01*
X95222312Y-64659576D01*
X95627258Y-64389000D01*
X97787498Y-64389000D01*
X97813569Y-64415071D01*
X98210294Y-64579400D01*
X98639706Y-64579400D01*
X99036431Y-64415071D01*
X99062502Y-64389000D01*
X101597498Y-64389000D01*
X101623569Y-64415071D01*
X102020294Y-64579400D01*
X102449706Y-64579400D01*
X102846431Y-64415071D01*
X102872502Y-64389000D01*
X106677498Y-64389000D01*
X106703569Y-64415071D01*
X107100294Y-64579400D01*
X107529706Y-64579400D01*
X107926431Y-64415071D01*
X107952502Y-64389000D01*
X109979327Y-64389000D01*
X109863440Y-69951600D01*
X98309925Y-69951600D01*
X97969113Y-70019392D01*
X97880502Y-70078600D01*
X88809498Y-70078600D01*
X88720887Y-70019392D01*
X88380075Y-69951600D01*
X76843494Y-69951600D01*
X76924985Y-66040000D01*
X78274454Y-66040000D01*
X78333600Y-66337348D01*
X78333601Y-68273552D01*
X78295600Y-68365294D01*
X78295600Y-68794706D01*
X78459929Y-69191431D01*
X78763569Y-69495071D01*
X79160294Y-69659400D01*
X79589706Y-69659400D01*
X79986431Y-69495071D01*
X80290071Y-69191431D01*
X80454400Y-68794706D01*
X80454400Y-68365294D01*
X80416400Y-68273554D01*
X80416400Y-66337347D01*
X80475546Y-66040000D01*
X83354454Y-66040000D01*
X83413601Y-66337352D01*
X83413600Y-68273554D01*
X83375600Y-68365294D01*
X83375600Y-68794706D01*
X83539929Y-69191431D01*
X83843569Y-69495071D01*
X84240294Y-69659400D01*
X84669706Y-69659400D01*
X85066431Y-69495071D01*
X85370071Y-69191431D01*
X85534400Y-68794706D01*
X85534400Y-68365294D01*
X85496400Y-68273554D01*
X85496400Y-66337347D01*
X85555546Y-66040000D01*
X87164454Y-66040000D01*
X87223600Y-66337348D01*
X87223601Y-68273552D01*
X87185600Y-68365294D01*
X87185600Y-68794706D01*
X87349929Y-69191431D01*
X87653569Y-69495071D01*
X88050294Y-69659400D01*
X88479706Y-69659400D01*
X88876431Y-69495071D01*
X89180071Y-69191431D01*
X89344400Y-68794706D01*
X89344400Y-68365294D01*
X89306400Y-68273554D01*
X89306400Y-66337347D01*
X89365546Y-66040000D01*
X97324454Y-66040000D01*
X97383601Y-66337352D01*
X97383600Y-68273554D01*
X97345600Y-68365294D01*
X97345600Y-68794706D01*
X97509929Y-69191431D01*
X97813569Y-69495071D01*
X98210294Y-69659400D01*
X98639706Y-69659400D01*
X99036431Y-69495071D01*
X99340071Y-69191431D01*
X99504400Y-68794706D01*
X99504400Y-68365294D01*
X99466400Y-68273554D01*
X99466400Y-66337347D01*
X99525546Y-66040000D01*
X101134454Y-66040000D01*
X101193600Y-66337348D01*
X101193601Y-68273552D01*
X101155600Y-68365294D01*
X101155600Y-68794706D01*
X101319929Y-69191431D01*
X101623569Y-69495071D01*
X102020294Y-69659400D01*
X102449706Y-69659400D01*
X102846431Y-69495071D01*
X103150071Y-69191431D01*
X103314400Y-68794706D01*
X103314400Y-68365294D01*
X103276400Y-68273554D01*
X103276400Y-66337347D01*
X103335546Y-66040000D01*
X106214454Y-66040000D01*
X106273601Y-66337352D01*
X106273600Y-68273554D01*
X106235600Y-68365294D01*
X106235600Y-68794706D01*
X106399929Y-69191431D01*
X106703569Y-69495071D01*
X107100294Y-69659400D01*
X107529706Y-69659400D01*
X107926431Y-69495071D01*
X108230071Y-69191431D01*
X108394400Y-68794706D01*
X108394400Y-68365294D01*
X108356400Y-68273554D01*
X108356400Y-66337347D01*
X108415546Y-66040000D01*
X108331772Y-65618839D01*
X108093204Y-65261796D01*
X107736161Y-65023228D01*
X107421308Y-64960600D01*
X107208692Y-64960600D01*
X106893839Y-65023228D01*
X106536796Y-65261796D01*
X106298228Y-65618839D01*
X106214454Y-66040000D01*
X103335546Y-66040000D01*
X103251772Y-65618839D01*
X103013204Y-65261796D01*
X102656161Y-65023228D01*
X102341308Y-64960600D01*
X102128692Y-64960600D01*
X101813839Y-65023228D01*
X101456796Y-65261796D01*
X101218228Y-65618839D01*
X101134454Y-66040000D01*
X99525546Y-66040000D01*
X99441772Y-65618839D01*
X99203204Y-65261796D01*
X98846161Y-65023228D01*
X98531308Y-64960600D01*
X98318692Y-64960600D01*
X98003839Y-65023228D01*
X97646796Y-65261796D01*
X97408228Y-65618839D01*
X97324454Y-66040000D01*
X89365546Y-66040000D01*
X89281772Y-65618839D01*
X89043204Y-65261796D01*
X88686161Y-65023228D01*
X88371308Y-64960600D01*
X88158692Y-64960600D01*
X87843839Y-65023228D01*
X87486796Y-65261796D01*
X87248228Y-65618839D01*
X87164454Y-66040000D01*
X85555546Y-66040000D01*
X85471772Y-65618839D01*
X85233204Y-65261796D01*
X84876161Y-65023228D01*
X84561308Y-64960600D01*
X84348692Y-64960600D01*
X84033839Y-65023228D01*
X83676796Y-65261796D01*
X83438228Y-65618839D01*
X83354454Y-66040000D01*
X80475546Y-66040000D01*
X80391772Y-65618839D01*
X80153204Y-65261796D01*
X79796161Y-65023228D01*
X79481308Y-64960600D01*
X79268692Y-64960600D01*
X78953839Y-65023228D01*
X78596796Y-65261796D01*
X78358228Y-65618839D01*
X78274454Y-66040000D01*
X76924985Y-66040000D01*
X76959381Y-64389000D01*
X78737498Y-64389000D01*
X78763569Y-64415071D01*
X78763569Y-64415071D01*
G37*
X78763569Y-64415071D02*
X79160294Y-64579400D01*
X79589706Y-64579400D01*
X79986431Y-64415071D01*
X80012502Y-64389000D01*
X83817498Y-64389000D01*
X83843569Y-64415071D01*
X84240294Y-64579400D01*
X84669706Y-64579400D01*
X85066431Y-64415071D01*
X85092502Y-64389000D01*
X87627498Y-64389000D01*
X87653569Y-64415071D01*
X88050294Y-64579400D01*
X88479706Y-64579400D01*
X88876431Y-64415071D01*
X88902502Y-64389000D01*
X91316742Y-64389000D01*
X91721688Y-64659576D01*
X92080761Y-64731000D01*
X92323239Y-64731000D01*
X92682312Y-64659576D01*
X93087258Y-64389000D01*
X93856742Y-64389000D01*
X94261688Y-64659576D01*
X94620761Y-64731000D01*
X94863239Y-64731000D01*
X95222312Y-64659576D01*
X95627258Y-64389000D01*
X97787498Y-64389000D01*
X97813569Y-64415071D01*
X98210294Y-64579400D01*
X98639706Y-64579400D01*
X99036431Y-64415071D01*
X99062502Y-64389000D01*
X101597498Y-64389000D01*
X101623569Y-64415071D01*
X102020294Y-64579400D01*
X102449706Y-64579400D01*
X102846431Y-64415071D01*
X102872502Y-64389000D01*
X106677498Y-64389000D01*
X106703569Y-64415071D01*
X107100294Y-64579400D01*
X107529706Y-64579400D01*
X107926431Y-64415071D01*
X107952502Y-64389000D01*
X109979327Y-64389000D01*
X109863440Y-69951600D01*
X98309925Y-69951600D01*
X97969113Y-70019392D01*
X97880502Y-70078600D01*
X88809498Y-70078600D01*
X88720887Y-70019392D01*
X88380075Y-69951600D01*
X76843494Y-69951600D01*
X76924985Y-66040000D01*
X78274454Y-66040000D01*
X78333600Y-66337348D01*
X78333601Y-68273552D01*
X78295600Y-68365294D01*
X78295600Y-68794706D01*
X78459929Y-69191431D01*
X78763569Y-69495071D01*
X79160294Y-69659400D01*
X79589706Y-69659400D01*
X79986431Y-69495071D01*
X80290071Y-69191431D01*
X80454400Y-68794706D01*
X80454400Y-68365294D01*
X80416400Y-68273554D01*
X80416400Y-66337347D01*
X80475546Y-66040000D01*
X83354454Y-66040000D01*
X83413601Y-66337352D01*
X83413600Y-68273554D01*
X83375600Y-68365294D01*
X83375600Y-68794706D01*
X83539929Y-69191431D01*
X83843569Y-69495071D01*
X84240294Y-69659400D01*
X84669706Y-69659400D01*
X85066431Y-69495071D01*
X85370071Y-69191431D01*
X85534400Y-68794706D01*
X85534400Y-68365294D01*
X85496400Y-68273554D01*
X85496400Y-66337347D01*
X85555546Y-66040000D01*
X87164454Y-66040000D01*
X87223600Y-66337348D01*
X87223601Y-68273552D01*
X87185600Y-68365294D01*
X87185600Y-68794706D01*
X87349929Y-69191431D01*
X87653569Y-69495071D01*
X88050294Y-69659400D01*
X88479706Y-69659400D01*
X88876431Y-69495071D01*
X89180071Y-69191431D01*
X89344400Y-68794706D01*
X89344400Y-68365294D01*
X89306400Y-68273554D01*
X89306400Y-66337347D01*
X89365546Y-66040000D01*
X97324454Y-66040000D01*
X97383601Y-66337352D01*
X97383600Y-68273554D01*
X97345600Y-68365294D01*
X97345600Y-68794706D01*
X97509929Y-69191431D01*
X97813569Y-69495071D01*
X98210294Y-69659400D01*
X98639706Y-69659400D01*
X99036431Y-69495071D01*
X99340071Y-69191431D01*
X99504400Y-68794706D01*
X99504400Y-68365294D01*
X99466400Y-68273554D01*
X99466400Y-66337347D01*
X99525546Y-66040000D01*
X101134454Y-66040000D01*
X101193600Y-66337348D01*
X101193601Y-68273552D01*
X101155600Y-68365294D01*
X101155600Y-68794706D01*
X101319929Y-69191431D01*
X101623569Y-69495071D01*
X102020294Y-69659400D01*
X102449706Y-69659400D01*
X102846431Y-69495071D01*
X103150071Y-69191431D01*
X103314400Y-68794706D01*
X103314400Y-68365294D01*
X103276400Y-68273554D01*
X103276400Y-66337347D01*
X103335546Y-66040000D01*
X106214454Y-66040000D01*
X106273601Y-66337352D01*
X106273600Y-68273554D01*
X106235600Y-68365294D01*
X106235600Y-68794706D01*
X106399929Y-69191431D01*
X106703569Y-69495071D01*
X107100294Y-69659400D01*
X107529706Y-69659400D01*
X107926431Y-69495071D01*
X108230071Y-69191431D01*
X108394400Y-68794706D01*
X108394400Y-68365294D01*
X108356400Y-68273554D01*
X108356400Y-66337347D01*
X108415546Y-66040000D01*
X108331772Y-65618839D01*
X108093204Y-65261796D01*
X107736161Y-65023228D01*
X107421308Y-64960600D01*
X107208692Y-64960600D01*
X106893839Y-65023228D01*
X106536796Y-65261796D01*
X106298228Y-65618839D01*
X106214454Y-66040000D01*
X103335546Y-66040000D01*
X103251772Y-65618839D01*
X103013204Y-65261796D01*
X102656161Y-65023228D01*
X102341308Y-64960600D01*
X102128692Y-64960600D01*
X101813839Y-65023228D01*
X101456796Y-65261796D01*
X101218228Y-65618839D01*
X101134454Y-66040000D01*
X99525546Y-66040000D01*
X99441772Y-65618839D01*
X99203204Y-65261796D01*
X98846161Y-65023228D01*
X98531308Y-64960600D01*
X98318692Y-64960600D01*
X98003839Y-65023228D01*
X97646796Y-65261796D01*
X97408228Y-65618839D01*
X97324454Y-66040000D01*
X89365546Y-66040000D01*
X89281772Y-65618839D01*
X89043204Y-65261796D01*
X88686161Y-65023228D01*
X88371308Y-64960600D01*
X88158692Y-64960600D01*
X87843839Y-65023228D01*
X87486796Y-65261796D01*
X87248228Y-65618839D01*
X87164454Y-66040000D01*
X85555546Y-66040000D01*
X85471772Y-65618839D01*
X85233204Y-65261796D01*
X84876161Y-65023228D01*
X84561308Y-64960600D01*
X84348692Y-64960600D01*
X84033839Y-65023228D01*
X83676796Y-65261796D01*
X83438228Y-65618839D01*
X83354454Y-66040000D01*
X80475546Y-66040000D01*
X80391772Y-65618839D01*
X80153204Y-65261796D01*
X79796161Y-65023228D01*
X79481308Y-64960600D01*
X79268692Y-64960600D01*
X78953839Y-65023228D01*
X78596796Y-65261796D01*
X78358228Y-65618839D01*
X78274454Y-66040000D01*
X76924985Y-66040000D01*
X76959381Y-64389000D01*
X78737498Y-64389000D01*
X78763569Y-64415071D01*
G04 #@! TO.N,/LoadControl/Vin*
G36*
X83723106Y-57036659D02*
X83807314Y-57162686D01*
X83933341Y-57246894D01*
X84082000Y-57276464D01*
X86098000Y-57276464D01*
X86246659Y-57246894D01*
X86360000Y-57171162D01*
X86473341Y-57246894D01*
X86622000Y-57276464D01*
X88638000Y-57276464D01*
X88786659Y-57246894D01*
X88912686Y-57162686D01*
X88996894Y-57036659D01*
X88999611Y-57023000D01*
X97690389Y-57023000D01*
X97693106Y-57036659D01*
X97777314Y-57162686D01*
X97903341Y-57246894D01*
X98052000Y-57276464D01*
X100068000Y-57276464D01*
X100216659Y-57246894D01*
X100330000Y-57171162D01*
X100443341Y-57246894D01*
X100592000Y-57276464D01*
X102608000Y-57276464D01*
X102756659Y-57246894D01*
X102882686Y-57162686D01*
X102966894Y-57036659D01*
X102969611Y-57023000D01*
X106580389Y-57023000D01*
X106583106Y-57036659D01*
X106667314Y-57162686D01*
X106793341Y-57246894D01*
X106942000Y-57276464D01*
X108958000Y-57276464D01*
X109106659Y-57246894D01*
X109220000Y-57171162D01*
X109333341Y-57246894D01*
X109482000Y-57276464D01*
X111498000Y-57276464D01*
X111633000Y-57249611D01*
X111633000Y-59817000D01*
X111311342Y-59817000D01*
X111276805Y-59782463D01*
X110766289Y-59571000D01*
X110213711Y-59571000D01*
X109703195Y-59782463D01*
X109668658Y-59817000D01*
X108771342Y-59817000D01*
X108736805Y-59782463D01*
X108226289Y-59571000D01*
X107673711Y-59571000D01*
X107163195Y-59782463D01*
X107128658Y-59817000D01*
X102421342Y-59817000D01*
X102386805Y-59782463D01*
X101876289Y-59571000D01*
X101323711Y-59571000D01*
X100813195Y-59782463D01*
X100778658Y-59817000D01*
X99881342Y-59817000D01*
X99846805Y-59782463D01*
X99336289Y-59571000D01*
X98783711Y-59571000D01*
X98273195Y-59782463D01*
X98238658Y-59817000D01*
X98044000Y-59817000D01*
X97995399Y-59826667D01*
X97954197Y-59854197D01*
X97929088Y-59889924D01*
X96050934Y-63881000D01*
X90873993Y-63881000D01*
X88758241Y-59884578D01*
X88726958Y-59846149D01*
X88683349Y-59822616D01*
X88646000Y-59817000D01*
X88451342Y-59817000D01*
X88416805Y-59782463D01*
X87906289Y-59571000D01*
X87353711Y-59571000D01*
X86843195Y-59782463D01*
X86808658Y-59817000D01*
X85911342Y-59817000D01*
X85876805Y-59782463D01*
X85366289Y-59571000D01*
X84813711Y-59571000D01*
X84303195Y-59782463D01*
X84268658Y-59817000D01*
X79561342Y-59817000D01*
X79526805Y-59782463D01*
X79016289Y-59571000D01*
X78463711Y-59571000D01*
X77953195Y-59782463D01*
X77918658Y-59817000D01*
X77021342Y-59817000D01*
X76986805Y-59782463D01*
X76476289Y-59571000D01*
X75923711Y-59571000D01*
X75413195Y-59782463D01*
X75378658Y-59817000D01*
X75057000Y-59817000D01*
X75057000Y-57249611D01*
X75192000Y-57276464D01*
X77208000Y-57276464D01*
X77356659Y-57246894D01*
X77470000Y-57171162D01*
X77583341Y-57246894D01*
X77732000Y-57276464D01*
X79748000Y-57276464D01*
X79896659Y-57246894D01*
X80022686Y-57162686D01*
X80106894Y-57036659D01*
X80109611Y-57023000D01*
X83720389Y-57023000D01*
X83723106Y-57036659D01*
X83723106Y-57036659D01*
G37*
X83723106Y-57036659D02*
X83807314Y-57162686D01*
X83933341Y-57246894D01*
X84082000Y-57276464D01*
X86098000Y-57276464D01*
X86246659Y-57246894D01*
X86360000Y-57171162D01*
X86473341Y-57246894D01*
X86622000Y-57276464D01*
X88638000Y-57276464D01*
X88786659Y-57246894D01*
X88912686Y-57162686D01*
X88996894Y-57036659D01*
X88999611Y-57023000D01*
X97690389Y-57023000D01*
X97693106Y-57036659D01*
X97777314Y-57162686D01*
X97903341Y-57246894D01*
X98052000Y-57276464D01*
X100068000Y-57276464D01*
X100216659Y-57246894D01*
X100330000Y-57171162D01*
X100443341Y-57246894D01*
X100592000Y-57276464D01*
X102608000Y-57276464D01*
X102756659Y-57246894D01*
X102882686Y-57162686D01*
X102966894Y-57036659D01*
X102969611Y-57023000D01*
X106580389Y-57023000D01*
X106583106Y-57036659D01*
X106667314Y-57162686D01*
X106793341Y-57246894D01*
X106942000Y-57276464D01*
X108958000Y-57276464D01*
X109106659Y-57246894D01*
X109220000Y-57171162D01*
X109333341Y-57246894D01*
X109482000Y-57276464D01*
X111498000Y-57276464D01*
X111633000Y-57249611D01*
X111633000Y-59817000D01*
X111311342Y-59817000D01*
X111276805Y-59782463D01*
X110766289Y-59571000D01*
X110213711Y-59571000D01*
X109703195Y-59782463D01*
X109668658Y-59817000D01*
X108771342Y-59817000D01*
X108736805Y-59782463D01*
X108226289Y-59571000D01*
X107673711Y-59571000D01*
X107163195Y-59782463D01*
X107128658Y-59817000D01*
X102421342Y-59817000D01*
X102386805Y-59782463D01*
X101876289Y-59571000D01*
X101323711Y-59571000D01*
X100813195Y-59782463D01*
X100778658Y-59817000D01*
X99881342Y-59817000D01*
X99846805Y-59782463D01*
X99336289Y-59571000D01*
X98783711Y-59571000D01*
X98273195Y-59782463D01*
X98238658Y-59817000D01*
X98044000Y-59817000D01*
X97995399Y-59826667D01*
X97954197Y-59854197D01*
X97929088Y-59889924D01*
X96050934Y-63881000D01*
X90873993Y-63881000D01*
X88758241Y-59884578D01*
X88726958Y-59846149D01*
X88683349Y-59822616D01*
X88646000Y-59817000D01*
X88451342Y-59817000D01*
X88416805Y-59782463D01*
X87906289Y-59571000D01*
X87353711Y-59571000D01*
X86843195Y-59782463D01*
X86808658Y-59817000D01*
X85911342Y-59817000D01*
X85876805Y-59782463D01*
X85366289Y-59571000D01*
X84813711Y-59571000D01*
X84303195Y-59782463D01*
X84268658Y-59817000D01*
X79561342Y-59817000D01*
X79526805Y-59782463D01*
X79016289Y-59571000D01*
X78463711Y-59571000D01*
X77953195Y-59782463D01*
X77918658Y-59817000D01*
X77021342Y-59817000D01*
X76986805Y-59782463D01*
X76476289Y-59571000D01*
X75923711Y-59571000D01*
X75413195Y-59782463D01*
X75378658Y-59817000D01*
X75057000Y-59817000D01*
X75057000Y-57249611D01*
X75192000Y-57276464D01*
X77208000Y-57276464D01*
X77356659Y-57246894D01*
X77470000Y-57171162D01*
X77583341Y-57246894D01*
X77732000Y-57276464D01*
X79748000Y-57276464D01*
X79896659Y-57246894D01*
X80022686Y-57162686D01*
X80106894Y-57036659D01*
X80109611Y-57023000D01*
X83720389Y-57023000D01*
X83723106Y-57036659D01*
G04 #@! TO.N,GND*
G36*
X121433600Y-35769845D02*
X121433600Y-36620155D01*
X121759000Y-37405740D01*
X122360260Y-38007000D01*
X123145845Y-38332400D01*
X123996155Y-38332400D01*
X124781740Y-38007000D01*
X125383000Y-37405740D01*
X125708400Y-36620155D01*
X125708400Y-35769845D01*
X125674084Y-35687000D01*
X129540998Y-35687000D01*
X129540998Y-81153000D01*
X118991340Y-81153000D01*
X119198316Y-80946025D01*
X119198318Y-80946022D01*
X119302712Y-80841628D01*
X119522765Y-80885400D01*
X119745235Y-80885400D01*
X120074670Y-80819871D01*
X120448252Y-80570252D01*
X120697871Y-80196670D01*
X120785526Y-79756000D01*
X120697871Y-79315330D01*
X120448252Y-78941748D01*
X120074670Y-78692129D01*
X119745235Y-78626600D01*
X119522765Y-78626600D01*
X119193330Y-78692129D01*
X118819748Y-78941748D01*
X118570129Y-79315330D01*
X118482474Y-79756000D01*
X118548372Y-80087288D01*
X118443978Y-80191682D01*
X118443975Y-80191684D01*
X118156659Y-80479001D01*
X117969224Y-80479001D01*
X118157871Y-80196670D01*
X118245526Y-79756000D01*
X118157871Y-79315330D01*
X117908252Y-78941748D01*
X117534670Y-78692129D01*
X117205235Y-78626600D01*
X116982765Y-78626600D01*
X116653330Y-78692129D01*
X116279748Y-78941748D01*
X116030129Y-79315330D01*
X115942474Y-79756000D01*
X116030129Y-80196670D01*
X116218776Y-80479001D01*
X115429224Y-80479001D01*
X115617871Y-80196670D01*
X115705526Y-79756000D01*
X115617871Y-79315330D01*
X115368252Y-78941748D01*
X114994670Y-78692129D01*
X114665235Y-78626600D01*
X114442765Y-78626600D01*
X114113330Y-78692129D01*
X113739748Y-78941748D01*
X113490129Y-79315330D01*
X113402474Y-79756000D01*
X113490129Y-80196670D01*
X113678776Y-80479001D01*
X112889224Y-80479001D01*
X113077871Y-80196670D01*
X113165526Y-79756000D01*
X113077871Y-79315330D01*
X112828252Y-78941748D01*
X112454670Y-78692129D01*
X112125235Y-78626600D01*
X111902765Y-78626600D01*
X111573330Y-78692129D01*
X111199748Y-78941748D01*
X110950129Y-79315330D01*
X110862474Y-79756000D01*
X110950129Y-80196670D01*
X111138776Y-80479001D01*
X110349224Y-80479001D01*
X110537871Y-80196670D01*
X110625526Y-79756000D01*
X110537871Y-79315330D01*
X110288252Y-78941748D01*
X109914670Y-78692129D01*
X109585235Y-78626600D01*
X109362765Y-78626600D01*
X109033330Y-78692129D01*
X108659748Y-78941748D01*
X108410129Y-79315330D01*
X108322474Y-79756000D01*
X108410129Y-80196670D01*
X108598776Y-80479001D01*
X107809224Y-80479001D01*
X107997871Y-80196670D01*
X108085526Y-79756000D01*
X107997871Y-79315330D01*
X107748252Y-78941748D01*
X107374670Y-78692129D01*
X107045235Y-78626600D01*
X106822765Y-78626600D01*
X106493330Y-78692129D01*
X106119748Y-78941748D01*
X105870129Y-79315330D01*
X105782474Y-79756000D01*
X105870129Y-80196670D01*
X106058776Y-80479001D01*
X105269224Y-80479001D01*
X105457871Y-80196670D01*
X105545526Y-79756000D01*
X105457871Y-79315330D01*
X105208252Y-78941748D01*
X104834670Y-78692129D01*
X104505235Y-78626600D01*
X104282765Y-78626600D01*
X103953330Y-78692129D01*
X103579748Y-78941748D01*
X103330129Y-79315330D01*
X103242474Y-79756000D01*
X103330129Y-80196670D01*
X103518776Y-80479001D01*
X102729224Y-80479001D01*
X102917871Y-80196670D01*
X103005526Y-79756000D01*
X102917871Y-79315330D01*
X102668252Y-78941748D01*
X102294670Y-78692129D01*
X101965235Y-78626600D01*
X101742765Y-78626600D01*
X101413330Y-78692129D01*
X101039748Y-78941748D01*
X100790129Y-79315330D01*
X100702474Y-79756000D01*
X100790129Y-80196670D01*
X100978776Y-80479001D01*
X100189224Y-80479001D01*
X100377871Y-80196670D01*
X100465526Y-79756000D01*
X100377871Y-79315330D01*
X100128252Y-78941748D01*
X99754670Y-78692129D01*
X99425235Y-78626600D01*
X99202765Y-78626600D01*
X98873330Y-78692129D01*
X98499748Y-78941748D01*
X98250129Y-79315330D01*
X98162474Y-79756000D01*
X98250129Y-80196670D01*
X98438776Y-80479001D01*
X97649224Y-80479001D01*
X97837871Y-80196670D01*
X97925526Y-79756000D01*
X97837871Y-79315330D01*
X97588252Y-78941748D01*
X97214670Y-78692129D01*
X96885235Y-78626600D01*
X96662765Y-78626600D01*
X96333330Y-78692129D01*
X95959748Y-78941748D01*
X95710129Y-79315330D01*
X95622474Y-79756000D01*
X95710129Y-80196670D01*
X95898776Y-80479001D01*
X92569224Y-80479001D01*
X92757871Y-80196670D01*
X92845526Y-79756000D01*
X92757871Y-79315330D01*
X92508252Y-78941748D01*
X92134670Y-78692129D01*
X91805235Y-78626600D01*
X91582765Y-78626600D01*
X91253330Y-78692129D01*
X90879748Y-78941748D01*
X90630129Y-79315330D01*
X90542474Y-79756000D01*
X90630129Y-80196670D01*
X90818776Y-80479001D01*
X90029224Y-80479001D01*
X90217871Y-80196670D01*
X90305526Y-79756000D01*
X90217871Y-79315330D01*
X89968252Y-78941748D01*
X89594670Y-78692129D01*
X89265235Y-78626600D01*
X89042765Y-78626600D01*
X88713330Y-78692129D01*
X88662744Y-78725929D01*
X86909944Y-76973129D01*
X86888686Y-76941314D01*
X86762659Y-76857106D01*
X86651524Y-76835000D01*
X86614000Y-76827536D01*
X86576476Y-76835000D01*
X76130297Y-76835000D01*
X76021241Y-76571715D01*
X75701285Y-76251759D01*
X75283243Y-76078600D01*
X74830757Y-76078600D01*
X74412715Y-76251759D01*
X74092759Y-76571715D01*
X73919600Y-76989757D01*
X73919600Y-77442243D01*
X74092759Y-77860285D01*
X74412715Y-78180241D01*
X74830757Y-78353400D01*
X75283243Y-78353400D01*
X75701285Y-78180241D01*
X76021241Y-77860285D01*
X76130297Y-77597000D01*
X86456185Y-77597000D01*
X88123929Y-79264744D01*
X88090129Y-79315330D01*
X88002474Y-79756000D01*
X88090129Y-80196670D01*
X88278776Y-80479001D01*
X87489224Y-80479001D01*
X87677871Y-80196670D01*
X87765526Y-79756000D01*
X87677871Y-79315330D01*
X87428252Y-78941748D01*
X87054670Y-78692129D01*
X86725235Y-78626600D01*
X86502765Y-78626600D01*
X86173330Y-78692129D01*
X85799748Y-78941748D01*
X85550129Y-79315330D01*
X85462474Y-79756000D01*
X85528372Y-80087288D01*
X85136659Y-80479001D01*
X79201342Y-80479001D01*
X78815469Y-80093129D01*
X78861400Y-79982243D01*
X78861400Y-79529757D01*
X78688241Y-79111715D01*
X78368285Y-78791759D01*
X77950243Y-78618600D01*
X77497757Y-78618600D01*
X77079715Y-78791759D01*
X76759759Y-79111715D01*
X76586600Y-79529757D01*
X76586600Y-79600244D01*
X76487245Y-79699599D01*
X65498756Y-79699599D01*
X62819157Y-77020000D01*
X65663127Y-77020000D01*
X65663127Y-77920000D01*
X65684812Y-78029016D01*
X65746564Y-78121436D01*
X65838984Y-78183188D01*
X65948000Y-78204873D01*
X67148000Y-78204873D01*
X67257016Y-78183188D01*
X67349001Y-78121726D01*
X67661516Y-78434241D01*
X68079558Y-78607400D01*
X68532044Y-78607400D01*
X68950086Y-78434241D01*
X69270042Y-78114285D01*
X69443201Y-77696243D01*
X69443201Y-77243757D01*
X69270042Y-76825715D01*
X68950086Y-76505759D01*
X68532044Y-76332600D01*
X68079558Y-76332600D01*
X67661516Y-76505759D01*
X67349001Y-76818274D01*
X67257016Y-76756812D01*
X67148000Y-76735127D01*
X65948000Y-76735127D01*
X65838984Y-76756812D01*
X65746564Y-76818564D01*
X65684812Y-76910984D01*
X65663127Y-77020000D01*
X62819157Y-77020000D01*
X60604400Y-74805244D01*
X60604400Y-70637400D01*
X62431474Y-70637400D01*
X62484000Y-70647848D01*
X62536526Y-70637400D01*
X62536531Y-70637400D01*
X62692122Y-70606451D01*
X62868559Y-70488559D01*
X62873695Y-70480873D01*
X63041217Y-70480873D01*
X63447603Y-70887260D01*
X63471691Y-70923310D01*
X63507741Y-70947398D01*
X63507742Y-70947399D01*
X63559615Y-70982059D01*
X63614521Y-71018746D01*
X63740475Y-71043800D01*
X63783001Y-71052259D01*
X63825527Y-71043800D01*
X65446742Y-71043800D01*
X65246743Y-71243800D01*
X65162750Y-71243800D01*
X64949796Y-71332008D01*
X64786808Y-71494996D01*
X64698600Y-71707950D01*
X64698600Y-71791943D01*
X64027741Y-72462802D01*
X63991691Y-72486890D01*
X63967603Y-72522940D01*
X63967601Y-72522942D01*
X63896254Y-72629721D01*
X63862742Y-72798200D01*
X63871201Y-72840727D01*
X63871201Y-72909591D01*
X63814812Y-72993984D01*
X63793127Y-73103000D01*
X63793127Y-74227216D01*
X63651873Y-74368470D01*
X63651873Y-74330000D01*
X63630188Y-74220984D01*
X63568436Y-74128564D01*
X63476016Y-74066812D01*
X63367000Y-74045127D01*
X62617000Y-74045127D01*
X62507984Y-74066812D01*
X62415564Y-74128564D01*
X62353812Y-74220984D01*
X62332127Y-74330000D01*
X62332127Y-75530000D01*
X62353812Y-75639016D01*
X62415564Y-75731436D01*
X62507984Y-75793188D01*
X62617000Y-75814873D01*
X63367000Y-75814873D01*
X63476016Y-75793188D01*
X63568436Y-75731436D01*
X63630188Y-75639016D01*
X63651873Y-75530000D01*
X63651873Y-75361800D01*
X63658478Y-75361800D01*
X63701000Y-75370258D01*
X63743522Y-75361800D01*
X63743526Y-75361800D01*
X63869480Y-75336746D01*
X64012310Y-75241310D01*
X64036400Y-75205257D01*
X64403784Y-74837873D01*
X64528000Y-74837873D01*
X64628000Y-74817981D01*
X64728000Y-74837873D01*
X65178000Y-74837873D01*
X65228773Y-74827773D01*
X65244106Y-74904858D01*
X65280061Y-74958669D01*
X65328315Y-75030886D01*
X65360128Y-75052142D01*
X65480855Y-75172869D01*
X65502114Y-75204686D01*
X65628141Y-75288894D01*
X65739276Y-75311000D01*
X65776799Y-75318464D01*
X65814322Y-75311000D01*
X65834213Y-75311000D01*
X65746564Y-75369564D01*
X65684812Y-75461984D01*
X65663127Y-75571000D01*
X65663127Y-76321000D01*
X65684812Y-76430016D01*
X65746564Y-76522436D01*
X65838984Y-76584188D01*
X65948000Y-76605873D01*
X67148000Y-76605873D01*
X67257016Y-76584188D01*
X67349436Y-76522436D01*
X67411188Y-76430016D01*
X67432873Y-76321000D01*
X67432873Y-75571000D01*
X67411188Y-75461984D01*
X67349436Y-75369564D01*
X67261787Y-75311000D01*
X69899504Y-75311000D01*
X70008560Y-75574285D01*
X70328516Y-75894241D01*
X70746558Y-76067400D01*
X71199044Y-76067400D01*
X71617086Y-75894241D01*
X71937042Y-75574285D01*
X72110201Y-75156243D01*
X72110201Y-74703757D01*
X71937042Y-74285715D01*
X71617086Y-73965759D01*
X71199044Y-73792600D01*
X70746558Y-73792600D01*
X70394873Y-73938273D01*
X70394873Y-73464000D01*
X70373188Y-73354984D01*
X70311436Y-73262564D01*
X70219016Y-73200812D01*
X70110000Y-73179127D01*
X69163942Y-73179127D01*
X69144571Y-73159756D01*
X69270042Y-73034285D01*
X69443201Y-72616243D01*
X69443201Y-72163757D01*
X69270042Y-71745715D01*
X69183326Y-71658999D01*
X73948724Y-71658999D01*
X74795608Y-72505884D01*
X74816864Y-72537696D01*
X74887834Y-72585116D01*
X74942891Y-72621904D01*
X75091550Y-72651474D01*
X75129074Y-72644010D01*
X112515264Y-72644010D01*
X112552788Y-72651474D01*
X112590312Y-72644010D01*
X112701447Y-72621904D01*
X112827474Y-72537696D01*
X112848732Y-72505881D01*
X113884613Y-71470000D01*
X115418127Y-71470000D01*
X115418127Y-72670000D01*
X115439812Y-72779016D01*
X115501564Y-72871436D01*
X115593984Y-72933188D01*
X115703000Y-72954873D01*
X116453000Y-72954873D01*
X116562016Y-72933188D01*
X116654436Y-72871436D01*
X116716188Y-72779016D01*
X116737873Y-72670000D01*
X116737873Y-72020784D01*
X116965127Y-71793531D01*
X116965127Y-72395000D01*
X116986812Y-72504016D01*
X117048564Y-72596436D01*
X117140984Y-72658188D01*
X117250000Y-72679873D01*
X118556058Y-72679873D01*
X118955374Y-73079189D01*
X118940812Y-73100984D01*
X118919127Y-73210000D01*
X118919127Y-73669075D01*
X118888808Y-73699394D01*
X118800600Y-73912348D01*
X118800600Y-74142848D01*
X118880446Y-74335613D01*
X118856812Y-74370984D01*
X118835127Y-74480000D01*
X118835127Y-75380000D01*
X118856812Y-75489016D01*
X118918564Y-75581436D01*
X119010984Y-75643188D01*
X119120000Y-75664873D01*
X119916058Y-75664873D01*
X120013895Y-75762710D01*
X119904808Y-75871796D01*
X119816600Y-76084750D01*
X119816600Y-76315250D01*
X119904808Y-76528204D01*
X120067796Y-76691192D01*
X120280750Y-76779400D01*
X120511250Y-76779400D01*
X120724204Y-76691192D01*
X120887192Y-76528204D01*
X120975400Y-76315250D01*
X120975400Y-76084750D01*
X120887192Y-75871796D01*
X120778106Y-75762710D01*
X120972871Y-75567944D01*
X121004686Y-75546686D01*
X121053694Y-75473340D01*
X121056812Y-75489016D01*
X121118564Y-75581436D01*
X121210984Y-75643188D01*
X121320000Y-75664873D01*
X121405389Y-75664873D01*
X121357613Y-75712649D01*
X121269405Y-75925603D01*
X121269405Y-76156103D01*
X121357613Y-76369057D01*
X121417005Y-76428449D01*
X121417006Y-77064127D01*
X121066000Y-77064127D01*
X120956984Y-77085812D01*
X120864564Y-77147564D01*
X120802812Y-77239984D01*
X120781127Y-77349000D01*
X120781127Y-78099000D01*
X120802812Y-78208016D01*
X120864564Y-78300436D01*
X120956984Y-78362188D01*
X121066000Y-78383873D01*
X122266000Y-78383873D01*
X122375016Y-78362188D01*
X122467436Y-78300436D01*
X122529188Y-78208016D01*
X122550873Y-78099000D01*
X122550873Y-77349000D01*
X122529188Y-77239984D01*
X122467436Y-77147564D01*
X122375016Y-77085812D01*
X122280605Y-77067032D01*
X122280605Y-76428449D01*
X122339997Y-76369057D01*
X122428205Y-76156103D01*
X122428205Y-75925603D01*
X122339997Y-75712649D01*
X122292221Y-75664873D01*
X122520000Y-75664873D01*
X122629016Y-75643188D01*
X122719602Y-75582661D01*
X122730812Y-75639016D01*
X122792564Y-75731436D01*
X122884984Y-75793188D01*
X122994000Y-75814873D01*
X123894000Y-75814873D01*
X124003016Y-75793188D01*
X124095436Y-75731436D01*
X124157188Y-75639016D01*
X124178873Y-75530000D01*
X124178873Y-75445800D01*
X124233127Y-75445800D01*
X124233127Y-75614000D01*
X124254812Y-75723016D01*
X124316564Y-75815436D01*
X124408984Y-75877188D01*
X124518000Y-75898873D01*
X124536200Y-75898873D01*
X124536200Y-75961325D01*
X124536201Y-75961330D01*
X124536200Y-78232278D01*
X124527742Y-78274800D01*
X124536200Y-78317322D01*
X124536200Y-78317325D01*
X124561254Y-78443279D01*
X124656690Y-78586110D01*
X124692742Y-78610199D01*
X125859802Y-79777260D01*
X125883890Y-79813310D01*
X125919940Y-79837398D01*
X125919941Y-79837399D01*
X126020602Y-79904658D01*
X126026720Y-79908746D01*
X126152674Y-79933800D01*
X126152678Y-79933800D01*
X126195200Y-79942258D01*
X126215127Y-79938294D01*
X126215127Y-80510000D01*
X126236812Y-80619016D01*
X126298564Y-80711436D01*
X126390984Y-80773188D01*
X126500000Y-80794873D01*
X128516000Y-80794873D01*
X128625016Y-80773188D01*
X128717436Y-80711436D01*
X128779188Y-80619016D01*
X128800873Y-80510000D01*
X128800873Y-78494000D01*
X128779188Y-78384984D01*
X128717436Y-78292564D01*
X128625016Y-78230812D01*
X128516000Y-78209127D01*
X127861308Y-78209127D01*
X128237254Y-78053405D01*
X128599405Y-77691254D01*
X128795400Y-77218080D01*
X128795400Y-76705920D01*
X128599405Y-76232746D01*
X128237254Y-75870595D01*
X127764080Y-75674600D01*
X127251920Y-75674600D01*
X126778746Y-75870595D01*
X126416595Y-76232746D01*
X126220600Y-76705920D01*
X126220600Y-77218080D01*
X126416595Y-77691254D01*
X126778746Y-78053405D01*
X127154692Y-78209127D01*
X126500000Y-78209127D01*
X126390984Y-78230812D01*
X126298564Y-78292564D01*
X126236812Y-78384984D01*
X126215127Y-78494000D01*
X126215127Y-78911269D01*
X125399800Y-78095943D01*
X125399800Y-75898873D01*
X125418000Y-75898873D01*
X125527016Y-75877188D01*
X125619436Y-75815436D01*
X125681188Y-75723016D01*
X125702873Y-75614000D01*
X125702873Y-74414000D01*
X125681188Y-74304984D01*
X125619436Y-74212564D01*
X125527016Y-74150812D01*
X125418000Y-74129127D01*
X125318269Y-74129127D01*
X125459192Y-73988204D01*
X125547400Y-73775250D01*
X125547400Y-73663568D01*
X125619436Y-73615436D01*
X125681188Y-73523016D01*
X125702873Y-73414000D01*
X125702873Y-72214000D01*
X125681188Y-72104984D01*
X125619436Y-72012564D01*
X125527016Y-71950812D01*
X125418000Y-71929127D01*
X124775000Y-71929127D01*
X124775000Y-71745734D01*
X124828016Y-71735188D01*
X124920436Y-71673436D01*
X124982188Y-71581016D01*
X125003873Y-71472000D01*
X125003873Y-69912000D01*
X125000651Y-69895800D01*
X125070127Y-69895800D01*
X125070127Y-70064000D01*
X125091812Y-70173016D01*
X125153564Y-70265436D01*
X125245984Y-70327188D01*
X125355000Y-70348873D01*
X126105000Y-70348873D01*
X126214016Y-70327188D01*
X126306436Y-70265436D01*
X126368188Y-70173016D01*
X126389873Y-70064000D01*
X126389873Y-70006741D01*
X126416595Y-70071254D01*
X126778746Y-70433405D01*
X127209913Y-70612000D01*
X126778746Y-70790595D01*
X126416595Y-71152746D01*
X126220600Y-71625920D01*
X126220600Y-72138080D01*
X126416595Y-72611254D01*
X126778746Y-72973405D01*
X127251920Y-73169400D01*
X127764080Y-73169400D01*
X128237254Y-72973405D01*
X128599405Y-72611254D01*
X128795400Y-72138080D01*
X128795400Y-71625920D01*
X128599405Y-71152746D01*
X128237254Y-70790595D01*
X127806087Y-70612000D01*
X128237254Y-70433405D01*
X128599405Y-70071254D01*
X128795400Y-69598080D01*
X128795400Y-69085920D01*
X128599405Y-68612746D01*
X128237254Y-68250595D01*
X127806087Y-68072000D01*
X128237254Y-67893405D01*
X128599405Y-67531254D01*
X128795400Y-67058080D01*
X128795400Y-66545920D01*
X128599405Y-66072746D01*
X128237254Y-65710595D01*
X127764080Y-65514600D01*
X127251920Y-65514600D01*
X126778746Y-65710595D01*
X126416595Y-66072746D01*
X126220600Y-66545920D01*
X126220600Y-67058080D01*
X126416595Y-67531254D01*
X126778746Y-67893405D01*
X127209913Y-68072000D01*
X126778746Y-68250595D01*
X126416595Y-68612746D01*
X126361700Y-68745274D01*
X126306436Y-68662564D01*
X126214016Y-68600812D01*
X126105000Y-68579127D01*
X125355000Y-68579127D01*
X125245984Y-68600812D01*
X125244860Y-68601563D01*
X125205192Y-68505796D01*
X125042204Y-68342808D01*
X125003873Y-68326931D01*
X125003873Y-67212000D01*
X124982188Y-67102984D01*
X124920436Y-67010564D01*
X124828016Y-66948812D01*
X124719000Y-66927127D01*
X124069000Y-66927127D01*
X123959984Y-66948812D01*
X123867564Y-67010564D01*
X123805812Y-67102984D01*
X123784127Y-67212000D01*
X123784127Y-68772000D01*
X123805812Y-68881016D01*
X123867564Y-68973436D01*
X123948704Y-69027651D01*
X123925835Y-69032200D01*
X123925832Y-69032200D01*
X123799878Y-69057254D01*
X123657048Y-69152690D01*
X123632958Y-69188743D01*
X123194574Y-69627127D01*
X123119000Y-69627127D01*
X123009984Y-69648812D01*
X122917564Y-69710564D01*
X122855812Y-69802984D01*
X122834127Y-69912000D01*
X122834127Y-71345001D01*
X122442613Y-71345001D01*
X122400092Y-71336543D01*
X122357571Y-71345001D01*
X122357567Y-71345001D01*
X122231613Y-71370055D01*
X122088783Y-71465491D01*
X122064693Y-71501544D01*
X121794873Y-71771364D01*
X121794873Y-71745000D01*
X121773188Y-71635984D01*
X121711436Y-71543564D01*
X121619016Y-71481812D01*
X121510000Y-71460127D01*
X119950000Y-71460127D01*
X119914207Y-71467247D01*
X119856502Y-71327935D01*
X119693514Y-71164947D01*
X119480560Y-71076739D01*
X119396567Y-71076739D01*
X119164570Y-70844742D01*
X119140481Y-70808690D01*
X119091023Y-70775643D01*
X119073188Y-70685984D01*
X119011436Y-70593564D01*
X118919016Y-70531812D01*
X118810000Y-70510127D01*
X117250000Y-70510127D01*
X117140984Y-70531812D01*
X117048564Y-70593564D01*
X116986812Y-70685984D01*
X116986408Y-70688015D01*
X116985478Y-70688200D01*
X116985474Y-70688200D01*
X116859852Y-70713188D01*
X116859520Y-70713254D01*
X116752741Y-70784601D01*
X116752740Y-70784602D01*
X116716690Y-70808690D01*
X116692602Y-70844740D01*
X116352215Y-71185127D01*
X115703000Y-71185127D01*
X115593984Y-71206812D01*
X115501564Y-71268564D01*
X115439812Y-71360984D01*
X115418127Y-71470000D01*
X113884613Y-71470000D01*
X115657615Y-69696999D01*
X118734984Y-69696999D01*
X119450858Y-70412874D01*
X119472114Y-70444686D01*
X119503925Y-70465941D01*
X119598141Y-70528894D01*
X119674906Y-70544164D01*
X119686812Y-70604016D01*
X119748564Y-70696436D01*
X119840984Y-70758188D01*
X119950000Y-70779873D01*
X121510000Y-70779873D01*
X121619016Y-70758188D01*
X121711436Y-70696436D01*
X121773188Y-70604016D01*
X121794873Y-70495000D01*
X121794873Y-69845000D01*
X121773188Y-69735984D01*
X121711436Y-69643564D01*
X121619016Y-69581812D01*
X121510000Y-69560127D01*
X119950000Y-69560127D01*
X119840984Y-69581812D01*
X119754928Y-69639312D01*
X119188743Y-69073128D01*
X119167485Y-69041313D01*
X119041458Y-68957105D01*
X118930323Y-68934999D01*
X118892799Y-68927535D01*
X118855275Y-68934999D01*
X115537323Y-68934999D01*
X115499799Y-68927535D01*
X115462275Y-68934999D01*
X115351140Y-68957105D01*
X115225113Y-69041313D01*
X115203857Y-69073125D01*
X112394973Y-71882010D01*
X112021063Y-71882010D01*
X112225608Y-71575887D01*
X112316290Y-71120000D01*
X112225608Y-70664113D01*
X111967369Y-70277631D01*
X111580887Y-70019392D01*
X111240075Y-69951600D01*
X110117494Y-69951600D01*
X110136999Y-69015362D01*
X110209929Y-69191431D01*
X110513569Y-69495071D01*
X110910294Y-69659400D01*
X111339706Y-69659400D01*
X111736431Y-69495071D01*
X112040071Y-69191431D01*
X112204400Y-68794706D01*
X112204400Y-68365294D01*
X112166400Y-68273554D01*
X112166400Y-66337347D01*
X112225546Y-66040000D01*
X112141772Y-65618839D01*
X111903204Y-65261796D01*
X111546161Y-65023228D01*
X111231308Y-64960600D01*
X111018692Y-64960600D01*
X110703839Y-65023228D01*
X110346796Y-65261796D01*
X110210963Y-65465085D01*
X110235972Y-64264645D01*
X110226333Y-64213399D01*
X110198803Y-64172197D01*
X110157601Y-64144667D01*
X110109000Y-64135000D01*
X108206502Y-64135000D01*
X108230071Y-64111431D01*
X108268072Y-64019689D01*
X108613853Y-63673908D01*
X108700807Y-63615807D01*
X108930977Y-63271334D01*
X108991400Y-62967568D01*
X108991400Y-62967564D01*
X109011801Y-62865000D01*
X108991400Y-62762436D01*
X108991400Y-61739259D01*
X109041405Y-61689254D01*
X109220000Y-61258087D01*
X109398595Y-61689254D01*
X109448600Y-61739259D01*
X109448601Y-62762432D01*
X109428199Y-62865000D01*
X109509023Y-63271333D01*
X109681093Y-63528854D01*
X109681095Y-63528856D01*
X109739194Y-63615807D01*
X109826145Y-63673906D01*
X110171928Y-64019689D01*
X110209929Y-64111431D01*
X110513569Y-64415071D01*
X110910294Y-64579400D01*
X111339706Y-64579400D01*
X111736431Y-64415071D01*
X112040071Y-64111431D01*
X112204400Y-63714706D01*
X112204400Y-63285294D01*
X112040071Y-62888569D01*
X111736431Y-62584929D01*
X111644689Y-62546928D01*
X111531400Y-62433639D01*
X111531400Y-62114750D01*
X118292600Y-62114750D01*
X118292600Y-62345250D01*
X118380808Y-62558204D01*
X118543796Y-62721192D01*
X118756750Y-62809400D01*
X118912585Y-62809400D01*
X122113000Y-66009815D01*
X122113001Y-66938266D01*
X122059984Y-66948812D01*
X121967564Y-67010564D01*
X121905812Y-67102984D01*
X121884127Y-67212000D01*
X121884127Y-68772000D01*
X121905812Y-68881016D01*
X121967564Y-68973436D01*
X122059984Y-69035188D01*
X122169000Y-69056873D01*
X122819000Y-69056873D01*
X122928016Y-69035188D01*
X123020436Y-68973436D01*
X123082188Y-68881016D01*
X123103873Y-68772000D01*
X123103873Y-67212000D01*
X123082188Y-67102984D01*
X123020436Y-67010564D01*
X122928016Y-66948812D01*
X122875000Y-66938266D01*
X122875000Y-65889528D01*
X122882465Y-65852000D01*
X122852894Y-65703341D01*
X122768686Y-65577314D01*
X122736872Y-65556057D01*
X119451400Y-62270585D01*
X119451400Y-62114750D01*
X119363192Y-61901796D01*
X119200204Y-61738808D01*
X118987250Y-61650600D01*
X118756750Y-61650600D01*
X118543796Y-61738808D01*
X118380808Y-61901796D01*
X118292600Y-62114750D01*
X111531400Y-62114750D01*
X111531400Y-61739259D01*
X111581405Y-61689254D01*
X111777400Y-61216080D01*
X111777400Y-60703920D01*
X111620446Y-60325000D01*
X111760000Y-60325000D01*
X111905802Y-60295998D01*
X112029408Y-60213408D01*
X112111998Y-60089802D01*
X112141000Y-59944000D01*
X112141000Y-58447757D01*
X117226600Y-58447757D01*
X117226600Y-58900243D01*
X117399759Y-59318285D01*
X117719715Y-59638241D01*
X118137757Y-59811400D01*
X118590243Y-59811400D01*
X119008285Y-59638241D01*
X119328241Y-59318285D01*
X119501400Y-58900243D01*
X119501400Y-58447757D01*
X124846600Y-58447757D01*
X124846600Y-58900243D01*
X125019759Y-59318285D01*
X125339715Y-59638241D01*
X125757757Y-59811400D01*
X126210243Y-59811400D01*
X126628285Y-59638241D01*
X126948241Y-59318285D01*
X127121400Y-58900243D01*
X127121400Y-58447757D01*
X126948241Y-58029715D01*
X126628285Y-57709759D01*
X126210243Y-57536600D01*
X125757757Y-57536600D01*
X125339715Y-57709759D01*
X125019759Y-58029715D01*
X124846600Y-58447757D01*
X119501400Y-58447757D01*
X119328241Y-58029715D01*
X119008285Y-57709759D01*
X118590243Y-57536600D01*
X118137757Y-57536600D01*
X117719715Y-57709759D01*
X117399759Y-58029715D01*
X117226600Y-58447757D01*
X112141000Y-58447757D01*
X112141000Y-56896000D01*
X112111998Y-56750198D01*
X112029408Y-56626592D01*
X111905802Y-56544002D01*
X111782873Y-56519550D01*
X111782873Y-55907757D01*
X117226600Y-55907757D01*
X117226600Y-56360243D01*
X117399759Y-56778285D01*
X117719715Y-57098241D01*
X118137757Y-57271400D01*
X118590243Y-57271400D01*
X119008285Y-57098241D01*
X119328241Y-56778285D01*
X119501400Y-56360243D01*
X119501400Y-55907757D01*
X124846600Y-55907757D01*
X124846600Y-56360243D01*
X125019759Y-56778285D01*
X125339715Y-57098241D01*
X125757757Y-57271400D01*
X126210243Y-57271400D01*
X126628285Y-57098241D01*
X126948241Y-56778285D01*
X127121400Y-56360243D01*
X127121400Y-55907757D01*
X126948241Y-55489715D01*
X126628285Y-55169759D01*
X126210243Y-54996600D01*
X125757757Y-54996600D01*
X125339715Y-55169759D01*
X125019759Y-55489715D01*
X124846600Y-55907757D01*
X119501400Y-55907757D01*
X119328241Y-55489715D01*
X119008285Y-55169759D01*
X118590243Y-54996600D01*
X118137757Y-54996600D01*
X117719715Y-55169759D01*
X117399759Y-55489715D01*
X117226600Y-55907757D01*
X111782873Y-55907757D01*
X111782873Y-54872000D01*
X111782221Y-54868724D01*
X111834204Y-54847192D01*
X111997192Y-54684204D01*
X112085400Y-54471250D01*
X112085400Y-54240750D01*
X112064326Y-54189873D01*
X112145000Y-54189873D01*
X112254016Y-54168188D01*
X112346436Y-54106436D01*
X112395544Y-54032940D01*
X112447796Y-54085192D01*
X112660750Y-54173400D01*
X112891250Y-54173400D01*
X113104204Y-54085192D01*
X113267192Y-53922204D01*
X113355400Y-53709250D01*
X113355400Y-53478750D01*
X113267192Y-53265796D01*
X113157000Y-53155604D01*
X113157000Y-52845324D01*
X113164464Y-52807800D01*
X113134894Y-52659141D01*
X113123117Y-52641515D01*
X113050686Y-52533114D01*
X113018872Y-52511857D01*
X112898014Y-52390999D01*
X113856928Y-52390999D01*
X113856928Y-54190999D01*
X113878613Y-54300015D01*
X113940365Y-54392435D01*
X114032785Y-54454187D01*
X114141801Y-54475872D01*
X115941801Y-54475872D01*
X116050817Y-54454187D01*
X116143237Y-54392435D01*
X116204989Y-54300015D01*
X116226674Y-54190999D01*
X116226674Y-53367757D01*
X117226600Y-53367757D01*
X117226600Y-53820243D01*
X117399759Y-54238285D01*
X117719715Y-54558241D01*
X118137757Y-54731400D01*
X118590243Y-54731400D01*
X119008285Y-54558241D01*
X119328241Y-54238285D01*
X119501400Y-53820243D01*
X119501400Y-53367757D01*
X119328241Y-52949715D01*
X119008285Y-52629759D01*
X118590243Y-52456600D01*
X118137757Y-52456600D01*
X117719715Y-52629759D01*
X117399759Y-52949715D01*
X117226600Y-53367757D01*
X116226674Y-53367757D01*
X116226674Y-52390999D01*
X116204989Y-52281983D01*
X116143237Y-52189563D01*
X116050817Y-52127811D01*
X115941801Y-52106126D01*
X114141801Y-52106126D01*
X114032785Y-52127811D01*
X113940365Y-52189563D01*
X113878613Y-52281983D01*
X113856928Y-52390999D01*
X112898014Y-52390999D01*
X112644144Y-52137129D01*
X112622886Y-52105314D01*
X112496859Y-52021106D01*
X112419773Y-52005773D01*
X112429873Y-51955000D01*
X112429873Y-51505000D01*
X112411253Y-51411391D01*
X112485117Y-51460746D01*
X112611071Y-51485800D01*
X112611074Y-51485800D01*
X112653596Y-51494258D01*
X112696118Y-51485800D01*
X113404404Y-51485800D01*
X113463796Y-51545192D01*
X113676750Y-51633400D01*
X113907250Y-51633400D01*
X114120204Y-51545192D01*
X114283192Y-51382204D01*
X114371400Y-51169250D01*
X114371400Y-50938750D01*
X114283192Y-50725796D01*
X114120204Y-50562808D01*
X113907250Y-50474600D01*
X113676750Y-50474600D01*
X113463796Y-50562808D01*
X113404404Y-50622200D01*
X112840731Y-50622200D01*
X112833310Y-50611093D01*
X112690480Y-50515657D01*
X112564526Y-50490603D01*
X112564522Y-50490603D01*
X112522000Y-50482145D01*
X112479478Y-50490603D01*
X108272722Y-50490603D01*
X108336547Y-50395081D01*
X108361276Y-50270756D01*
X115174401Y-50270756D01*
X115174401Y-50723242D01*
X115347560Y-51141284D01*
X115667516Y-51461240D01*
X116085558Y-51634399D01*
X116538044Y-51634399D01*
X116956086Y-51461240D01*
X117226600Y-51190726D01*
X117226600Y-51280243D01*
X117399759Y-51698285D01*
X117719715Y-52018241D01*
X118137757Y-52191400D01*
X118590243Y-52191400D01*
X119008285Y-52018241D01*
X119328241Y-51698285D01*
X119374171Y-51587400D01*
X120205809Y-51587400D01*
X120234564Y-51630436D01*
X120322213Y-51689000D01*
X120234564Y-51747564D01*
X120172812Y-51839984D01*
X120151127Y-51949000D01*
X120151127Y-52699000D01*
X120172812Y-52808016D01*
X120234564Y-52900436D01*
X120326984Y-52962188D01*
X120436000Y-52983873D01*
X121636000Y-52983873D01*
X121745016Y-52962188D01*
X121837436Y-52900436D01*
X121899188Y-52808016D01*
X121920873Y-52699000D01*
X121920873Y-51949000D01*
X121899188Y-51839984D01*
X121837436Y-51747564D01*
X121749787Y-51689000D01*
X121837436Y-51630436D01*
X121899188Y-51538016D01*
X121920873Y-51429000D01*
X121920873Y-50827757D01*
X124846600Y-50827757D01*
X124846600Y-51280243D01*
X125019759Y-51698285D01*
X125339715Y-52018241D01*
X125757757Y-52191400D01*
X126210243Y-52191400D01*
X126628285Y-52018241D01*
X126948241Y-51698285D01*
X127121400Y-51280243D01*
X127121400Y-50827757D01*
X126948241Y-50409715D01*
X126628285Y-50089759D01*
X126210243Y-49916600D01*
X125757757Y-49916600D01*
X125339715Y-50089759D01*
X125019759Y-50409715D01*
X124846600Y-50827757D01*
X121920873Y-50827757D01*
X121920873Y-50679000D01*
X121899188Y-50569984D01*
X121837436Y-50477564D01*
X121745016Y-50415812D01*
X121636000Y-50394127D01*
X120436000Y-50394127D01*
X120326984Y-50415812D01*
X120234564Y-50477564D01*
X120205809Y-50520600D01*
X119374171Y-50520600D01*
X119328241Y-50409715D01*
X119008285Y-50089759D01*
X118590243Y-49916600D01*
X118137757Y-49916600D01*
X117970839Y-49985740D01*
X117859530Y-49963599D01*
X117859525Y-49963599D01*
X117806999Y-49953151D01*
X117754473Y-49963599D01*
X117321972Y-49963599D01*
X117276042Y-49852714D01*
X116956086Y-49532758D01*
X116538044Y-49359599D01*
X116085558Y-49359599D01*
X115667516Y-49532758D01*
X115347560Y-49852714D01*
X115174401Y-50270756D01*
X108361276Y-50270756D01*
X108370060Y-50226601D01*
X108361601Y-50184075D01*
X108361601Y-44310254D01*
X108574086Y-44222240D01*
X108894042Y-43902284D01*
X109067201Y-43484242D01*
X109067201Y-43031756D01*
X108894042Y-42613714D01*
X108574086Y-42293758D01*
X108156044Y-42120599D01*
X107703558Y-42120599D01*
X107285516Y-42293758D01*
X106965560Y-42613714D01*
X106792401Y-43031756D01*
X106792401Y-43484242D01*
X106965560Y-43902284D01*
X107285516Y-44222240D01*
X107498001Y-44310254D01*
X107498002Y-50047742D01*
X107055142Y-50490603D01*
X106676523Y-50490603D01*
X106634001Y-50482145D01*
X106591479Y-50490603D01*
X98086526Y-50490603D01*
X98044000Y-50482144D01*
X98001474Y-50490603D01*
X84116526Y-50490603D01*
X84074000Y-50482144D01*
X84031474Y-50490603D01*
X75748857Y-50490603D01*
X73454195Y-48195941D01*
X73430105Y-48159889D01*
X73287275Y-48064453D01*
X73161321Y-48039399D01*
X73161317Y-48039399D01*
X73118795Y-48030941D01*
X73076273Y-48039399D01*
X70164681Y-48039399D01*
X70122159Y-48030941D01*
X70079637Y-48039399D01*
X70079633Y-48039399D01*
X69953679Y-48064453D01*
X69846900Y-48135800D01*
X69846899Y-48135801D01*
X69810849Y-48159889D01*
X69786761Y-48195939D01*
X67586873Y-50395828D01*
X67586873Y-48776000D01*
X67565188Y-48666984D01*
X67503436Y-48574564D01*
X67411016Y-48512812D01*
X67302000Y-48491127D01*
X65286000Y-48491127D01*
X65176984Y-48512812D01*
X65084564Y-48574564D01*
X65022812Y-48666984D01*
X65001127Y-48776000D01*
X65001127Y-50792000D01*
X65022812Y-50901016D01*
X65084564Y-50993436D01*
X65176984Y-51055188D01*
X65286000Y-51076873D01*
X66905828Y-51076873D01*
X66064740Y-51917961D01*
X66028690Y-51942049D01*
X66004602Y-51978099D01*
X66004600Y-51978101D01*
X65933253Y-52084880D01*
X65899741Y-52253359D01*
X65908200Y-52295886D01*
X65908199Y-56853474D01*
X65908199Y-57224405D01*
X65802808Y-57329796D01*
X65714600Y-57542750D01*
X65714600Y-57773250D01*
X65802808Y-57986204D01*
X65855604Y-58039000D01*
X65442524Y-58039000D01*
X65405000Y-58031536D01*
X65367476Y-58039000D01*
X65256341Y-58061106D01*
X65130314Y-58145314D01*
X65126428Y-58151130D01*
X64869243Y-58044600D01*
X64416757Y-58044600D01*
X63998715Y-58217759D01*
X63678759Y-58537715D01*
X63505600Y-58955757D01*
X63505600Y-59408243D01*
X63678759Y-59826285D01*
X63998715Y-60146241D01*
X64416757Y-60319400D01*
X64869243Y-60319400D01*
X65287285Y-60146241D01*
X65607241Y-59826285D01*
X65780400Y-59408243D01*
X65780400Y-58955757D01*
X65716297Y-58801000D01*
X69389127Y-58801000D01*
X69389127Y-58870000D01*
X69410812Y-58979016D01*
X69472564Y-59071436D01*
X69564984Y-59133188D01*
X69674000Y-59154873D01*
X70874000Y-59154873D01*
X70983016Y-59133188D01*
X70993001Y-59126517D01*
X70993001Y-62085089D01*
X70958000Y-62078127D01*
X69758000Y-62078127D01*
X69648984Y-62099812D01*
X69556564Y-62161564D01*
X69547380Y-62175308D01*
X69461000Y-62158126D01*
X67445000Y-62158126D01*
X67335984Y-62179811D01*
X67243564Y-62241563D01*
X67181812Y-62333983D01*
X67160127Y-62442999D01*
X67160127Y-64339999D01*
X63652524Y-64339999D01*
X63615000Y-64332535D01*
X63466342Y-64362105D01*
X63340315Y-64446313D01*
X63319059Y-64478125D01*
X61476058Y-66321127D01*
X60604400Y-66321127D01*
X60604400Y-56415757D01*
X60838600Y-56415757D01*
X60838600Y-56868243D01*
X61011759Y-57286285D01*
X61331715Y-57606241D01*
X61749757Y-57779400D01*
X62202243Y-57779400D01*
X62620285Y-57606241D01*
X62940241Y-57286285D01*
X63113400Y-56868243D01*
X63113400Y-56415757D01*
X62940241Y-55997715D01*
X62620285Y-55677759D01*
X62202243Y-55504600D01*
X61749757Y-55504600D01*
X61331715Y-55677759D01*
X61011759Y-55997715D01*
X60838600Y-56415757D01*
X60604400Y-56415757D01*
X60604400Y-53875757D01*
X63505600Y-53875757D01*
X63505600Y-54328243D01*
X63678759Y-54746285D01*
X63998715Y-55066241D01*
X64416757Y-55239400D01*
X64869243Y-55239400D01*
X65287285Y-55066241D01*
X65607241Y-54746285D01*
X65780400Y-54328243D01*
X65780400Y-53875757D01*
X65607241Y-53457715D01*
X65287285Y-53137759D01*
X64869243Y-52964600D01*
X64416757Y-52964600D01*
X63998715Y-53137759D01*
X63678759Y-53457715D01*
X63505600Y-53875757D01*
X60604400Y-53875757D01*
X60604400Y-51178756D01*
X67307261Y-44475896D01*
X67458346Y-44249781D01*
X67499001Y-44045399D01*
X99047436Y-44045399D01*
X99341622Y-44241969D01*
X99685644Y-44310399D01*
X99917958Y-44310399D01*
X100261980Y-44241969D01*
X100652100Y-43981298D01*
X100912771Y-43591178D01*
X101004306Y-43130999D01*
X100912771Y-42670820D01*
X100652100Y-42280700D01*
X100261980Y-42020029D01*
X99917958Y-41951599D01*
X99685644Y-41951599D01*
X99341622Y-42020029D01*
X99047436Y-42216599D01*
X67268941Y-42216599D01*
X67002220Y-42269653D01*
X66699755Y-42471753D01*
X66497655Y-42774218D01*
X66454944Y-42988942D01*
X66240219Y-43031654D01*
X66014104Y-43182739D01*
X59107108Y-50089736D01*
X59030754Y-50140754D01*
X58828654Y-50443220D01*
X58783656Y-50669441D01*
X58757686Y-50800000D01*
X58775600Y-50890059D01*
X58775601Y-69505936D01*
X58775600Y-69505941D01*
X58775601Y-75093936D01*
X58757686Y-75184000D01*
X58812981Y-75461984D01*
X58828655Y-75540781D01*
X59030755Y-75843246D01*
X59107106Y-75894262D01*
X64365843Y-81153000D01*
X58674998Y-81153000D01*
X58674998Y-40364756D01*
X104252401Y-40364756D01*
X104252401Y-40817242D01*
X104425560Y-41235284D01*
X104745516Y-41555240D01*
X105163558Y-41728399D01*
X105616044Y-41728399D01*
X106034086Y-41555240D01*
X106354042Y-41235284D01*
X106527201Y-40817242D01*
X106527201Y-40364756D01*
X109332401Y-40364756D01*
X109332401Y-40817242D01*
X109505560Y-41235284D01*
X109825516Y-41555240D01*
X110243558Y-41728399D01*
X110696044Y-41728399D01*
X111114086Y-41555240D01*
X111434042Y-41235284D01*
X111607201Y-40817242D01*
X111607201Y-40364756D01*
X111434042Y-39946714D01*
X111114086Y-39626758D01*
X110696044Y-39453599D01*
X110243558Y-39453599D01*
X109825516Y-39626758D01*
X109505560Y-39946714D01*
X109332401Y-40364756D01*
X106527201Y-40364756D01*
X106354042Y-39946714D01*
X106034086Y-39626758D01*
X105616044Y-39453599D01*
X105163558Y-39453599D01*
X104745516Y-39626758D01*
X104425560Y-39946714D01*
X104252401Y-40364756D01*
X58674998Y-40364756D01*
X58674998Y-37150999D01*
X98616928Y-37150999D01*
X98616928Y-38950999D01*
X98638613Y-39060015D01*
X98700365Y-39152435D01*
X98792785Y-39214187D01*
X98901801Y-39235872D01*
X100701801Y-39235872D01*
X100810817Y-39214187D01*
X100903237Y-39152435D01*
X100964989Y-39060015D01*
X100983810Y-38965399D01*
X101131226Y-38965399D01*
X101174555Y-39030245D01*
X101187423Y-39038843D01*
X101195613Y-39080015D01*
X101257365Y-39172435D01*
X101349785Y-39234187D01*
X101458801Y-39255872D01*
X101595298Y-39255872D01*
X101743741Y-39285399D01*
X115878419Y-39285399D01*
X115667516Y-39372758D01*
X115347560Y-39692714D01*
X115174401Y-40110756D01*
X115174401Y-40563242D01*
X115347560Y-40981284D01*
X115667516Y-41301240D01*
X116085558Y-41474399D01*
X116538044Y-41474399D01*
X116956086Y-41301240D01*
X117276042Y-40981284D01*
X117449201Y-40563242D01*
X117449201Y-40110756D01*
X117276042Y-39692714D01*
X116956086Y-39372758D01*
X116745183Y-39285399D01*
X118383243Y-39285399D01*
X118825006Y-39727163D01*
X118643600Y-40165117D01*
X118643600Y-41114883D01*
X119007060Y-41992354D01*
X119678646Y-42663940D01*
X119801600Y-42714869D01*
X119801600Y-43597941D01*
X119801601Y-44706242D01*
X118554293Y-45953551D01*
X118275701Y-46139701D01*
X118015030Y-46529821D01*
X117923495Y-46990000D01*
X118015030Y-47450179D01*
X118275701Y-47840299D01*
X118665821Y-48100970D01*
X119009843Y-48169400D01*
X119242157Y-48169400D01*
X119586179Y-48100970D01*
X119976299Y-47840299D01*
X120236970Y-47450179D01*
X120328505Y-46990000D01*
X120291283Y-46802873D01*
X120552719Y-46541437D01*
X120463495Y-46990000D01*
X120555030Y-47450179D01*
X120815701Y-47840299D01*
X121005601Y-47967186D01*
X121005600Y-49112059D01*
X121035127Y-49260502D01*
X121035127Y-49397000D01*
X121056812Y-49506016D01*
X121118564Y-49598436D01*
X121210984Y-49660188D01*
X121252156Y-49668378D01*
X121260754Y-49681246D01*
X121563219Y-49883346D01*
X121920000Y-49954314D01*
X122276780Y-49883346D01*
X122579246Y-49681246D01*
X122587844Y-49668378D01*
X122629016Y-49660188D01*
X122721436Y-49598436D01*
X122783188Y-49506016D01*
X122804873Y-49397000D01*
X122804873Y-49260503D01*
X122834400Y-49112060D01*
X122834400Y-47334058D01*
X122852314Y-47243999D01*
X122835148Y-47157699D01*
X122868505Y-46990000D01*
X122776970Y-46529821D01*
X122516299Y-46139701D01*
X122126179Y-45879030D01*
X121782157Y-45810600D01*
X121549843Y-45810600D01*
X121217438Y-45876719D01*
X121298895Y-45795262D01*
X121375246Y-45744246D01*
X121383844Y-45731378D01*
X121425016Y-45723188D01*
X121517436Y-45661436D01*
X121579188Y-45569016D01*
X121600873Y-45460000D01*
X121600873Y-45323503D01*
X121648314Y-45085000D01*
X121630400Y-44994940D01*
X121630400Y-42975823D01*
X122383354Y-42663940D01*
X123054940Y-41992354D01*
X123418400Y-41114883D01*
X123418400Y-40165117D01*
X123054940Y-39287646D01*
X122383354Y-38616060D01*
X121505883Y-38252600D01*
X120556117Y-38252600D01*
X120118163Y-38434006D01*
X119472263Y-37788107D01*
X119421245Y-37711753D01*
X119118780Y-37509653D01*
X118852059Y-37456599D01*
X118852058Y-37456599D01*
X118761999Y-37438685D01*
X118671940Y-37456599D01*
X102216376Y-37456599D01*
X102173047Y-37391753D01*
X101870582Y-37189653D01*
X101603861Y-37136599D01*
X100983810Y-37136599D01*
X100964989Y-37041983D01*
X100903237Y-36949563D01*
X100810817Y-36887811D01*
X100701801Y-36866126D01*
X98901801Y-36866126D01*
X98792785Y-36887811D01*
X98700365Y-36949563D01*
X98638613Y-37041983D01*
X98616928Y-37150999D01*
X58674998Y-37150999D01*
X58674998Y-35687000D01*
X121467916Y-35687000D01*
X121433600Y-35769845D01*
X121433600Y-35769845D01*
G37*
X121433600Y-35769845D02*
X121433600Y-36620155D01*
X121759000Y-37405740D01*
X122360260Y-38007000D01*
X123145845Y-38332400D01*
X123996155Y-38332400D01*
X124781740Y-38007000D01*
X125383000Y-37405740D01*
X125708400Y-36620155D01*
X125708400Y-35769845D01*
X125674084Y-35687000D01*
X129540998Y-35687000D01*
X129540998Y-81153000D01*
X118991340Y-81153000D01*
X119198316Y-80946025D01*
X119198318Y-80946022D01*
X119302712Y-80841628D01*
X119522765Y-80885400D01*
X119745235Y-80885400D01*
X120074670Y-80819871D01*
X120448252Y-80570252D01*
X120697871Y-80196670D01*
X120785526Y-79756000D01*
X120697871Y-79315330D01*
X120448252Y-78941748D01*
X120074670Y-78692129D01*
X119745235Y-78626600D01*
X119522765Y-78626600D01*
X119193330Y-78692129D01*
X118819748Y-78941748D01*
X118570129Y-79315330D01*
X118482474Y-79756000D01*
X118548372Y-80087288D01*
X118443978Y-80191682D01*
X118443975Y-80191684D01*
X118156659Y-80479001D01*
X117969224Y-80479001D01*
X118157871Y-80196670D01*
X118245526Y-79756000D01*
X118157871Y-79315330D01*
X117908252Y-78941748D01*
X117534670Y-78692129D01*
X117205235Y-78626600D01*
X116982765Y-78626600D01*
X116653330Y-78692129D01*
X116279748Y-78941748D01*
X116030129Y-79315330D01*
X115942474Y-79756000D01*
X116030129Y-80196670D01*
X116218776Y-80479001D01*
X115429224Y-80479001D01*
X115617871Y-80196670D01*
X115705526Y-79756000D01*
X115617871Y-79315330D01*
X115368252Y-78941748D01*
X114994670Y-78692129D01*
X114665235Y-78626600D01*
X114442765Y-78626600D01*
X114113330Y-78692129D01*
X113739748Y-78941748D01*
X113490129Y-79315330D01*
X113402474Y-79756000D01*
X113490129Y-80196670D01*
X113678776Y-80479001D01*
X112889224Y-80479001D01*
X113077871Y-80196670D01*
X113165526Y-79756000D01*
X113077871Y-79315330D01*
X112828252Y-78941748D01*
X112454670Y-78692129D01*
X112125235Y-78626600D01*
X111902765Y-78626600D01*
X111573330Y-78692129D01*
X111199748Y-78941748D01*
X110950129Y-79315330D01*
X110862474Y-79756000D01*
X110950129Y-80196670D01*
X111138776Y-80479001D01*
X110349224Y-80479001D01*
X110537871Y-80196670D01*
X110625526Y-79756000D01*
X110537871Y-79315330D01*
X110288252Y-78941748D01*
X109914670Y-78692129D01*
X109585235Y-78626600D01*
X109362765Y-78626600D01*
X109033330Y-78692129D01*
X108659748Y-78941748D01*
X108410129Y-79315330D01*
X108322474Y-79756000D01*
X108410129Y-80196670D01*
X108598776Y-80479001D01*
X107809224Y-80479001D01*
X107997871Y-80196670D01*
X108085526Y-79756000D01*
X107997871Y-79315330D01*
X107748252Y-78941748D01*
X107374670Y-78692129D01*
X107045235Y-78626600D01*
X106822765Y-78626600D01*
X106493330Y-78692129D01*
X106119748Y-78941748D01*
X105870129Y-79315330D01*
X105782474Y-79756000D01*
X105870129Y-80196670D01*
X106058776Y-80479001D01*
X105269224Y-80479001D01*
X105457871Y-80196670D01*
X105545526Y-79756000D01*
X105457871Y-79315330D01*
X105208252Y-78941748D01*
X104834670Y-78692129D01*
X104505235Y-78626600D01*
X104282765Y-78626600D01*
X103953330Y-78692129D01*
X103579748Y-78941748D01*
X103330129Y-79315330D01*
X103242474Y-79756000D01*
X103330129Y-80196670D01*
X103518776Y-80479001D01*
X102729224Y-80479001D01*
X102917871Y-80196670D01*
X103005526Y-79756000D01*
X102917871Y-79315330D01*
X102668252Y-78941748D01*
X102294670Y-78692129D01*
X101965235Y-78626600D01*
X101742765Y-78626600D01*
X101413330Y-78692129D01*
X101039748Y-78941748D01*
X100790129Y-79315330D01*
X100702474Y-79756000D01*
X100790129Y-80196670D01*
X100978776Y-80479001D01*
X100189224Y-80479001D01*
X100377871Y-80196670D01*
X100465526Y-79756000D01*
X100377871Y-79315330D01*
X100128252Y-78941748D01*
X99754670Y-78692129D01*
X99425235Y-78626600D01*
X99202765Y-78626600D01*
X98873330Y-78692129D01*
X98499748Y-78941748D01*
X98250129Y-79315330D01*
X98162474Y-79756000D01*
X98250129Y-80196670D01*
X98438776Y-80479001D01*
X97649224Y-80479001D01*
X97837871Y-80196670D01*
X97925526Y-79756000D01*
X97837871Y-79315330D01*
X97588252Y-78941748D01*
X97214670Y-78692129D01*
X96885235Y-78626600D01*
X96662765Y-78626600D01*
X96333330Y-78692129D01*
X95959748Y-78941748D01*
X95710129Y-79315330D01*
X95622474Y-79756000D01*
X95710129Y-80196670D01*
X95898776Y-80479001D01*
X92569224Y-80479001D01*
X92757871Y-80196670D01*
X92845526Y-79756000D01*
X92757871Y-79315330D01*
X92508252Y-78941748D01*
X92134670Y-78692129D01*
X91805235Y-78626600D01*
X91582765Y-78626600D01*
X91253330Y-78692129D01*
X90879748Y-78941748D01*
X90630129Y-79315330D01*
X90542474Y-79756000D01*
X90630129Y-80196670D01*
X90818776Y-80479001D01*
X90029224Y-80479001D01*
X90217871Y-80196670D01*
X90305526Y-79756000D01*
X90217871Y-79315330D01*
X89968252Y-78941748D01*
X89594670Y-78692129D01*
X89265235Y-78626600D01*
X89042765Y-78626600D01*
X88713330Y-78692129D01*
X88662744Y-78725929D01*
X86909944Y-76973129D01*
X86888686Y-76941314D01*
X86762659Y-76857106D01*
X86651524Y-76835000D01*
X86614000Y-76827536D01*
X86576476Y-76835000D01*
X76130297Y-76835000D01*
X76021241Y-76571715D01*
X75701285Y-76251759D01*
X75283243Y-76078600D01*
X74830757Y-76078600D01*
X74412715Y-76251759D01*
X74092759Y-76571715D01*
X73919600Y-76989757D01*
X73919600Y-77442243D01*
X74092759Y-77860285D01*
X74412715Y-78180241D01*
X74830757Y-78353400D01*
X75283243Y-78353400D01*
X75701285Y-78180241D01*
X76021241Y-77860285D01*
X76130297Y-77597000D01*
X86456185Y-77597000D01*
X88123929Y-79264744D01*
X88090129Y-79315330D01*
X88002474Y-79756000D01*
X88090129Y-80196670D01*
X88278776Y-80479001D01*
X87489224Y-80479001D01*
X87677871Y-80196670D01*
X87765526Y-79756000D01*
X87677871Y-79315330D01*
X87428252Y-78941748D01*
X87054670Y-78692129D01*
X86725235Y-78626600D01*
X86502765Y-78626600D01*
X86173330Y-78692129D01*
X85799748Y-78941748D01*
X85550129Y-79315330D01*
X85462474Y-79756000D01*
X85528372Y-80087288D01*
X85136659Y-80479001D01*
X79201342Y-80479001D01*
X78815469Y-80093129D01*
X78861400Y-79982243D01*
X78861400Y-79529757D01*
X78688241Y-79111715D01*
X78368285Y-78791759D01*
X77950243Y-78618600D01*
X77497757Y-78618600D01*
X77079715Y-78791759D01*
X76759759Y-79111715D01*
X76586600Y-79529757D01*
X76586600Y-79600244D01*
X76487245Y-79699599D01*
X65498756Y-79699599D01*
X62819157Y-77020000D01*
X65663127Y-77020000D01*
X65663127Y-77920000D01*
X65684812Y-78029016D01*
X65746564Y-78121436D01*
X65838984Y-78183188D01*
X65948000Y-78204873D01*
X67148000Y-78204873D01*
X67257016Y-78183188D01*
X67349001Y-78121726D01*
X67661516Y-78434241D01*
X68079558Y-78607400D01*
X68532044Y-78607400D01*
X68950086Y-78434241D01*
X69270042Y-78114285D01*
X69443201Y-77696243D01*
X69443201Y-77243757D01*
X69270042Y-76825715D01*
X68950086Y-76505759D01*
X68532044Y-76332600D01*
X68079558Y-76332600D01*
X67661516Y-76505759D01*
X67349001Y-76818274D01*
X67257016Y-76756812D01*
X67148000Y-76735127D01*
X65948000Y-76735127D01*
X65838984Y-76756812D01*
X65746564Y-76818564D01*
X65684812Y-76910984D01*
X65663127Y-77020000D01*
X62819157Y-77020000D01*
X60604400Y-74805244D01*
X60604400Y-70637400D01*
X62431474Y-70637400D01*
X62484000Y-70647848D01*
X62536526Y-70637400D01*
X62536531Y-70637400D01*
X62692122Y-70606451D01*
X62868559Y-70488559D01*
X62873695Y-70480873D01*
X63041217Y-70480873D01*
X63447603Y-70887260D01*
X63471691Y-70923310D01*
X63507741Y-70947398D01*
X63507742Y-70947399D01*
X63559615Y-70982059D01*
X63614521Y-71018746D01*
X63740475Y-71043800D01*
X63783001Y-71052259D01*
X63825527Y-71043800D01*
X65446742Y-71043800D01*
X65246743Y-71243800D01*
X65162750Y-71243800D01*
X64949796Y-71332008D01*
X64786808Y-71494996D01*
X64698600Y-71707950D01*
X64698600Y-71791943D01*
X64027741Y-72462802D01*
X63991691Y-72486890D01*
X63967603Y-72522940D01*
X63967601Y-72522942D01*
X63896254Y-72629721D01*
X63862742Y-72798200D01*
X63871201Y-72840727D01*
X63871201Y-72909591D01*
X63814812Y-72993984D01*
X63793127Y-73103000D01*
X63793127Y-74227216D01*
X63651873Y-74368470D01*
X63651873Y-74330000D01*
X63630188Y-74220984D01*
X63568436Y-74128564D01*
X63476016Y-74066812D01*
X63367000Y-74045127D01*
X62617000Y-74045127D01*
X62507984Y-74066812D01*
X62415564Y-74128564D01*
X62353812Y-74220984D01*
X62332127Y-74330000D01*
X62332127Y-75530000D01*
X62353812Y-75639016D01*
X62415564Y-75731436D01*
X62507984Y-75793188D01*
X62617000Y-75814873D01*
X63367000Y-75814873D01*
X63476016Y-75793188D01*
X63568436Y-75731436D01*
X63630188Y-75639016D01*
X63651873Y-75530000D01*
X63651873Y-75361800D01*
X63658478Y-75361800D01*
X63701000Y-75370258D01*
X63743522Y-75361800D01*
X63743526Y-75361800D01*
X63869480Y-75336746D01*
X64012310Y-75241310D01*
X64036400Y-75205257D01*
X64403784Y-74837873D01*
X64528000Y-74837873D01*
X64628000Y-74817981D01*
X64728000Y-74837873D01*
X65178000Y-74837873D01*
X65228773Y-74827773D01*
X65244106Y-74904858D01*
X65280061Y-74958669D01*
X65328315Y-75030886D01*
X65360128Y-75052142D01*
X65480855Y-75172869D01*
X65502114Y-75204686D01*
X65628141Y-75288894D01*
X65739276Y-75311000D01*
X65776799Y-75318464D01*
X65814322Y-75311000D01*
X65834213Y-75311000D01*
X65746564Y-75369564D01*
X65684812Y-75461984D01*
X65663127Y-75571000D01*
X65663127Y-76321000D01*
X65684812Y-76430016D01*
X65746564Y-76522436D01*
X65838984Y-76584188D01*
X65948000Y-76605873D01*
X67148000Y-76605873D01*
X67257016Y-76584188D01*
X67349436Y-76522436D01*
X67411188Y-76430016D01*
X67432873Y-76321000D01*
X67432873Y-75571000D01*
X67411188Y-75461984D01*
X67349436Y-75369564D01*
X67261787Y-75311000D01*
X69899504Y-75311000D01*
X70008560Y-75574285D01*
X70328516Y-75894241D01*
X70746558Y-76067400D01*
X71199044Y-76067400D01*
X71617086Y-75894241D01*
X71937042Y-75574285D01*
X72110201Y-75156243D01*
X72110201Y-74703757D01*
X71937042Y-74285715D01*
X71617086Y-73965759D01*
X71199044Y-73792600D01*
X70746558Y-73792600D01*
X70394873Y-73938273D01*
X70394873Y-73464000D01*
X70373188Y-73354984D01*
X70311436Y-73262564D01*
X70219016Y-73200812D01*
X70110000Y-73179127D01*
X69163942Y-73179127D01*
X69144571Y-73159756D01*
X69270042Y-73034285D01*
X69443201Y-72616243D01*
X69443201Y-72163757D01*
X69270042Y-71745715D01*
X69183326Y-71658999D01*
X73948724Y-71658999D01*
X74795608Y-72505884D01*
X74816864Y-72537696D01*
X74887834Y-72585116D01*
X74942891Y-72621904D01*
X75091550Y-72651474D01*
X75129074Y-72644010D01*
X112515264Y-72644010D01*
X112552788Y-72651474D01*
X112590312Y-72644010D01*
X112701447Y-72621904D01*
X112827474Y-72537696D01*
X112848732Y-72505881D01*
X113884613Y-71470000D01*
X115418127Y-71470000D01*
X115418127Y-72670000D01*
X115439812Y-72779016D01*
X115501564Y-72871436D01*
X115593984Y-72933188D01*
X115703000Y-72954873D01*
X116453000Y-72954873D01*
X116562016Y-72933188D01*
X116654436Y-72871436D01*
X116716188Y-72779016D01*
X116737873Y-72670000D01*
X116737873Y-72020784D01*
X116965127Y-71793531D01*
X116965127Y-72395000D01*
X116986812Y-72504016D01*
X117048564Y-72596436D01*
X117140984Y-72658188D01*
X117250000Y-72679873D01*
X118556058Y-72679873D01*
X118955374Y-73079189D01*
X118940812Y-73100984D01*
X118919127Y-73210000D01*
X118919127Y-73669075D01*
X118888808Y-73699394D01*
X118800600Y-73912348D01*
X118800600Y-74142848D01*
X118880446Y-74335613D01*
X118856812Y-74370984D01*
X118835127Y-74480000D01*
X118835127Y-75380000D01*
X118856812Y-75489016D01*
X118918564Y-75581436D01*
X119010984Y-75643188D01*
X119120000Y-75664873D01*
X119916058Y-75664873D01*
X120013895Y-75762710D01*
X119904808Y-75871796D01*
X119816600Y-76084750D01*
X119816600Y-76315250D01*
X119904808Y-76528204D01*
X120067796Y-76691192D01*
X120280750Y-76779400D01*
X120511250Y-76779400D01*
X120724204Y-76691192D01*
X120887192Y-76528204D01*
X120975400Y-76315250D01*
X120975400Y-76084750D01*
X120887192Y-75871796D01*
X120778106Y-75762710D01*
X120972871Y-75567944D01*
X121004686Y-75546686D01*
X121053694Y-75473340D01*
X121056812Y-75489016D01*
X121118564Y-75581436D01*
X121210984Y-75643188D01*
X121320000Y-75664873D01*
X121405389Y-75664873D01*
X121357613Y-75712649D01*
X121269405Y-75925603D01*
X121269405Y-76156103D01*
X121357613Y-76369057D01*
X121417005Y-76428449D01*
X121417006Y-77064127D01*
X121066000Y-77064127D01*
X120956984Y-77085812D01*
X120864564Y-77147564D01*
X120802812Y-77239984D01*
X120781127Y-77349000D01*
X120781127Y-78099000D01*
X120802812Y-78208016D01*
X120864564Y-78300436D01*
X120956984Y-78362188D01*
X121066000Y-78383873D01*
X122266000Y-78383873D01*
X122375016Y-78362188D01*
X122467436Y-78300436D01*
X122529188Y-78208016D01*
X122550873Y-78099000D01*
X122550873Y-77349000D01*
X122529188Y-77239984D01*
X122467436Y-77147564D01*
X122375016Y-77085812D01*
X122280605Y-77067032D01*
X122280605Y-76428449D01*
X122339997Y-76369057D01*
X122428205Y-76156103D01*
X122428205Y-75925603D01*
X122339997Y-75712649D01*
X122292221Y-75664873D01*
X122520000Y-75664873D01*
X122629016Y-75643188D01*
X122719602Y-75582661D01*
X122730812Y-75639016D01*
X122792564Y-75731436D01*
X122884984Y-75793188D01*
X122994000Y-75814873D01*
X123894000Y-75814873D01*
X124003016Y-75793188D01*
X124095436Y-75731436D01*
X124157188Y-75639016D01*
X124178873Y-75530000D01*
X124178873Y-75445800D01*
X124233127Y-75445800D01*
X124233127Y-75614000D01*
X124254812Y-75723016D01*
X124316564Y-75815436D01*
X124408984Y-75877188D01*
X124518000Y-75898873D01*
X124536200Y-75898873D01*
X124536200Y-75961325D01*
X124536201Y-75961330D01*
X124536200Y-78232278D01*
X124527742Y-78274800D01*
X124536200Y-78317322D01*
X124536200Y-78317325D01*
X124561254Y-78443279D01*
X124656690Y-78586110D01*
X124692742Y-78610199D01*
X125859802Y-79777260D01*
X125883890Y-79813310D01*
X125919940Y-79837398D01*
X125919941Y-79837399D01*
X126020602Y-79904658D01*
X126026720Y-79908746D01*
X126152674Y-79933800D01*
X126152678Y-79933800D01*
X126195200Y-79942258D01*
X126215127Y-79938294D01*
X126215127Y-80510000D01*
X126236812Y-80619016D01*
X126298564Y-80711436D01*
X126390984Y-80773188D01*
X126500000Y-80794873D01*
X128516000Y-80794873D01*
X128625016Y-80773188D01*
X128717436Y-80711436D01*
X128779188Y-80619016D01*
X128800873Y-80510000D01*
X128800873Y-78494000D01*
X128779188Y-78384984D01*
X128717436Y-78292564D01*
X128625016Y-78230812D01*
X128516000Y-78209127D01*
X127861308Y-78209127D01*
X128237254Y-78053405D01*
X128599405Y-77691254D01*
X128795400Y-77218080D01*
X128795400Y-76705920D01*
X128599405Y-76232746D01*
X128237254Y-75870595D01*
X127764080Y-75674600D01*
X127251920Y-75674600D01*
X126778746Y-75870595D01*
X126416595Y-76232746D01*
X126220600Y-76705920D01*
X126220600Y-77218080D01*
X126416595Y-77691254D01*
X126778746Y-78053405D01*
X127154692Y-78209127D01*
X126500000Y-78209127D01*
X126390984Y-78230812D01*
X126298564Y-78292564D01*
X126236812Y-78384984D01*
X126215127Y-78494000D01*
X126215127Y-78911269D01*
X125399800Y-78095943D01*
X125399800Y-75898873D01*
X125418000Y-75898873D01*
X125527016Y-75877188D01*
X125619436Y-75815436D01*
X125681188Y-75723016D01*
X125702873Y-75614000D01*
X125702873Y-74414000D01*
X125681188Y-74304984D01*
X125619436Y-74212564D01*
X125527016Y-74150812D01*
X125418000Y-74129127D01*
X125318269Y-74129127D01*
X125459192Y-73988204D01*
X125547400Y-73775250D01*
X125547400Y-73663568D01*
X125619436Y-73615436D01*
X125681188Y-73523016D01*
X125702873Y-73414000D01*
X125702873Y-72214000D01*
X125681188Y-72104984D01*
X125619436Y-72012564D01*
X125527016Y-71950812D01*
X125418000Y-71929127D01*
X124775000Y-71929127D01*
X124775000Y-71745734D01*
X124828016Y-71735188D01*
X124920436Y-71673436D01*
X124982188Y-71581016D01*
X125003873Y-71472000D01*
X125003873Y-69912000D01*
X125000651Y-69895800D01*
X125070127Y-69895800D01*
X125070127Y-70064000D01*
X125091812Y-70173016D01*
X125153564Y-70265436D01*
X125245984Y-70327188D01*
X125355000Y-70348873D01*
X126105000Y-70348873D01*
X126214016Y-70327188D01*
X126306436Y-70265436D01*
X126368188Y-70173016D01*
X126389873Y-70064000D01*
X126389873Y-70006741D01*
X126416595Y-70071254D01*
X126778746Y-70433405D01*
X127209913Y-70612000D01*
X126778746Y-70790595D01*
X126416595Y-71152746D01*
X126220600Y-71625920D01*
X126220600Y-72138080D01*
X126416595Y-72611254D01*
X126778746Y-72973405D01*
X127251920Y-73169400D01*
X127764080Y-73169400D01*
X128237254Y-72973405D01*
X128599405Y-72611254D01*
X128795400Y-72138080D01*
X128795400Y-71625920D01*
X128599405Y-71152746D01*
X128237254Y-70790595D01*
X127806087Y-70612000D01*
X128237254Y-70433405D01*
X128599405Y-70071254D01*
X128795400Y-69598080D01*
X128795400Y-69085920D01*
X128599405Y-68612746D01*
X128237254Y-68250595D01*
X127806087Y-68072000D01*
X128237254Y-67893405D01*
X128599405Y-67531254D01*
X128795400Y-67058080D01*
X128795400Y-66545920D01*
X128599405Y-66072746D01*
X128237254Y-65710595D01*
X127764080Y-65514600D01*
X127251920Y-65514600D01*
X126778746Y-65710595D01*
X126416595Y-66072746D01*
X126220600Y-66545920D01*
X126220600Y-67058080D01*
X126416595Y-67531254D01*
X126778746Y-67893405D01*
X127209913Y-68072000D01*
X126778746Y-68250595D01*
X126416595Y-68612746D01*
X126361700Y-68745274D01*
X126306436Y-68662564D01*
X126214016Y-68600812D01*
X126105000Y-68579127D01*
X125355000Y-68579127D01*
X125245984Y-68600812D01*
X125244860Y-68601563D01*
X125205192Y-68505796D01*
X125042204Y-68342808D01*
X125003873Y-68326931D01*
X125003873Y-67212000D01*
X124982188Y-67102984D01*
X124920436Y-67010564D01*
X124828016Y-66948812D01*
X124719000Y-66927127D01*
X124069000Y-66927127D01*
X123959984Y-66948812D01*
X123867564Y-67010564D01*
X123805812Y-67102984D01*
X123784127Y-67212000D01*
X123784127Y-68772000D01*
X123805812Y-68881016D01*
X123867564Y-68973436D01*
X123948704Y-69027651D01*
X123925835Y-69032200D01*
X123925832Y-69032200D01*
X123799878Y-69057254D01*
X123657048Y-69152690D01*
X123632958Y-69188743D01*
X123194574Y-69627127D01*
X123119000Y-69627127D01*
X123009984Y-69648812D01*
X122917564Y-69710564D01*
X122855812Y-69802984D01*
X122834127Y-69912000D01*
X122834127Y-71345001D01*
X122442613Y-71345001D01*
X122400092Y-71336543D01*
X122357571Y-71345001D01*
X122357567Y-71345001D01*
X122231613Y-71370055D01*
X122088783Y-71465491D01*
X122064693Y-71501544D01*
X121794873Y-71771364D01*
X121794873Y-71745000D01*
X121773188Y-71635984D01*
X121711436Y-71543564D01*
X121619016Y-71481812D01*
X121510000Y-71460127D01*
X119950000Y-71460127D01*
X119914207Y-71467247D01*
X119856502Y-71327935D01*
X119693514Y-71164947D01*
X119480560Y-71076739D01*
X119396567Y-71076739D01*
X119164570Y-70844742D01*
X119140481Y-70808690D01*
X119091023Y-70775643D01*
X119073188Y-70685984D01*
X119011436Y-70593564D01*
X118919016Y-70531812D01*
X118810000Y-70510127D01*
X117250000Y-70510127D01*
X117140984Y-70531812D01*
X117048564Y-70593564D01*
X116986812Y-70685984D01*
X116986408Y-70688015D01*
X116985478Y-70688200D01*
X116985474Y-70688200D01*
X116859852Y-70713188D01*
X116859520Y-70713254D01*
X116752741Y-70784601D01*
X116752740Y-70784602D01*
X116716690Y-70808690D01*
X116692602Y-70844740D01*
X116352215Y-71185127D01*
X115703000Y-71185127D01*
X115593984Y-71206812D01*
X115501564Y-71268564D01*
X115439812Y-71360984D01*
X115418127Y-71470000D01*
X113884613Y-71470000D01*
X115657615Y-69696999D01*
X118734984Y-69696999D01*
X119450858Y-70412874D01*
X119472114Y-70444686D01*
X119503925Y-70465941D01*
X119598141Y-70528894D01*
X119674906Y-70544164D01*
X119686812Y-70604016D01*
X119748564Y-70696436D01*
X119840984Y-70758188D01*
X119950000Y-70779873D01*
X121510000Y-70779873D01*
X121619016Y-70758188D01*
X121711436Y-70696436D01*
X121773188Y-70604016D01*
X121794873Y-70495000D01*
X121794873Y-69845000D01*
X121773188Y-69735984D01*
X121711436Y-69643564D01*
X121619016Y-69581812D01*
X121510000Y-69560127D01*
X119950000Y-69560127D01*
X119840984Y-69581812D01*
X119754928Y-69639312D01*
X119188743Y-69073128D01*
X119167485Y-69041313D01*
X119041458Y-68957105D01*
X118930323Y-68934999D01*
X118892799Y-68927535D01*
X118855275Y-68934999D01*
X115537323Y-68934999D01*
X115499799Y-68927535D01*
X115462275Y-68934999D01*
X115351140Y-68957105D01*
X115225113Y-69041313D01*
X115203857Y-69073125D01*
X112394973Y-71882010D01*
X112021063Y-71882010D01*
X112225608Y-71575887D01*
X112316290Y-71120000D01*
X112225608Y-70664113D01*
X111967369Y-70277631D01*
X111580887Y-70019392D01*
X111240075Y-69951600D01*
X110117494Y-69951600D01*
X110136999Y-69015362D01*
X110209929Y-69191431D01*
X110513569Y-69495071D01*
X110910294Y-69659400D01*
X111339706Y-69659400D01*
X111736431Y-69495071D01*
X112040071Y-69191431D01*
X112204400Y-68794706D01*
X112204400Y-68365294D01*
X112166400Y-68273554D01*
X112166400Y-66337347D01*
X112225546Y-66040000D01*
X112141772Y-65618839D01*
X111903204Y-65261796D01*
X111546161Y-65023228D01*
X111231308Y-64960600D01*
X111018692Y-64960600D01*
X110703839Y-65023228D01*
X110346796Y-65261796D01*
X110210963Y-65465085D01*
X110235972Y-64264645D01*
X110226333Y-64213399D01*
X110198803Y-64172197D01*
X110157601Y-64144667D01*
X110109000Y-64135000D01*
X108206502Y-64135000D01*
X108230071Y-64111431D01*
X108268072Y-64019689D01*
X108613853Y-63673908D01*
X108700807Y-63615807D01*
X108930977Y-63271334D01*
X108991400Y-62967568D01*
X108991400Y-62967564D01*
X109011801Y-62865000D01*
X108991400Y-62762436D01*
X108991400Y-61739259D01*
X109041405Y-61689254D01*
X109220000Y-61258087D01*
X109398595Y-61689254D01*
X109448600Y-61739259D01*
X109448601Y-62762432D01*
X109428199Y-62865000D01*
X109509023Y-63271333D01*
X109681093Y-63528854D01*
X109681095Y-63528856D01*
X109739194Y-63615807D01*
X109826145Y-63673906D01*
X110171928Y-64019689D01*
X110209929Y-64111431D01*
X110513569Y-64415071D01*
X110910294Y-64579400D01*
X111339706Y-64579400D01*
X111736431Y-64415071D01*
X112040071Y-64111431D01*
X112204400Y-63714706D01*
X112204400Y-63285294D01*
X112040071Y-62888569D01*
X111736431Y-62584929D01*
X111644689Y-62546928D01*
X111531400Y-62433639D01*
X111531400Y-62114750D01*
X118292600Y-62114750D01*
X118292600Y-62345250D01*
X118380808Y-62558204D01*
X118543796Y-62721192D01*
X118756750Y-62809400D01*
X118912585Y-62809400D01*
X122113000Y-66009815D01*
X122113001Y-66938266D01*
X122059984Y-66948812D01*
X121967564Y-67010564D01*
X121905812Y-67102984D01*
X121884127Y-67212000D01*
X121884127Y-68772000D01*
X121905812Y-68881016D01*
X121967564Y-68973436D01*
X122059984Y-69035188D01*
X122169000Y-69056873D01*
X122819000Y-69056873D01*
X122928016Y-69035188D01*
X123020436Y-68973436D01*
X123082188Y-68881016D01*
X123103873Y-68772000D01*
X123103873Y-67212000D01*
X123082188Y-67102984D01*
X123020436Y-67010564D01*
X122928016Y-66948812D01*
X122875000Y-66938266D01*
X122875000Y-65889528D01*
X122882465Y-65852000D01*
X122852894Y-65703341D01*
X122768686Y-65577314D01*
X122736872Y-65556057D01*
X119451400Y-62270585D01*
X119451400Y-62114750D01*
X119363192Y-61901796D01*
X119200204Y-61738808D01*
X118987250Y-61650600D01*
X118756750Y-61650600D01*
X118543796Y-61738808D01*
X118380808Y-61901796D01*
X118292600Y-62114750D01*
X111531400Y-62114750D01*
X111531400Y-61739259D01*
X111581405Y-61689254D01*
X111777400Y-61216080D01*
X111777400Y-60703920D01*
X111620446Y-60325000D01*
X111760000Y-60325000D01*
X111905802Y-60295998D01*
X112029408Y-60213408D01*
X112111998Y-60089802D01*
X112141000Y-59944000D01*
X112141000Y-58447757D01*
X117226600Y-58447757D01*
X117226600Y-58900243D01*
X117399759Y-59318285D01*
X117719715Y-59638241D01*
X118137757Y-59811400D01*
X118590243Y-59811400D01*
X119008285Y-59638241D01*
X119328241Y-59318285D01*
X119501400Y-58900243D01*
X119501400Y-58447757D01*
X124846600Y-58447757D01*
X124846600Y-58900243D01*
X125019759Y-59318285D01*
X125339715Y-59638241D01*
X125757757Y-59811400D01*
X126210243Y-59811400D01*
X126628285Y-59638241D01*
X126948241Y-59318285D01*
X127121400Y-58900243D01*
X127121400Y-58447757D01*
X126948241Y-58029715D01*
X126628285Y-57709759D01*
X126210243Y-57536600D01*
X125757757Y-57536600D01*
X125339715Y-57709759D01*
X125019759Y-58029715D01*
X124846600Y-58447757D01*
X119501400Y-58447757D01*
X119328241Y-58029715D01*
X119008285Y-57709759D01*
X118590243Y-57536600D01*
X118137757Y-57536600D01*
X117719715Y-57709759D01*
X117399759Y-58029715D01*
X117226600Y-58447757D01*
X112141000Y-58447757D01*
X112141000Y-56896000D01*
X112111998Y-56750198D01*
X112029408Y-56626592D01*
X111905802Y-56544002D01*
X111782873Y-56519550D01*
X111782873Y-55907757D01*
X117226600Y-55907757D01*
X117226600Y-56360243D01*
X117399759Y-56778285D01*
X117719715Y-57098241D01*
X118137757Y-57271400D01*
X118590243Y-57271400D01*
X119008285Y-57098241D01*
X119328241Y-56778285D01*
X119501400Y-56360243D01*
X119501400Y-55907757D01*
X124846600Y-55907757D01*
X124846600Y-56360243D01*
X125019759Y-56778285D01*
X125339715Y-57098241D01*
X125757757Y-57271400D01*
X126210243Y-57271400D01*
X126628285Y-57098241D01*
X126948241Y-56778285D01*
X127121400Y-56360243D01*
X127121400Y-55907757D01*
X126948241Y-55489715D01*
X126628285Y-55169759D01*
X126210243Y-54996600D01*
X125757757Y-54996600D01*
X125339715Y-55169759D01*
X125019759Y-55489715D01*
X124846600Y-55907757D01*
X119501400Y-55907757D01*
X119328241Y-55489715D01*
X119008285Y-55169759D01*
X118590243Y-54996600D01*
X118137757Y-54996600D01*
X117719715Y-55169759D01*
X117399759Y-55489715D01*
X117226600Y-55907757D01*
X111782873Y-55907757D01*
X111782873Y-54872000D01*
X111782221Y-54868724D01*
X111834204Y-54847192D01*
X111997192Y-54684204D01*
X112085400Y-54471250D01*
X112085400Y-54240750D01*
X112064326Y-54189873D01*
X112145000Y-54189873D01*
X112254016Y-54168188D01*
X112346436Y-54106436D01*
X112395544Y-54032940D01*
X112447796Y-54085192D01*
X112660750Y-54173400D01*
X112891250Y-54173400D01*
X113104204Y-54085192D01*
X113267192Y-53922204D01*
X113355400Y-53709250D01*
X113355400Y-53478750D01*
X113267192Y-53265796D01*
X113157000Y-53155604D01*
X113157000Y-52845324D01*
X113164464Y-52807800D01*
X113134894Y-52659141D01*
X113123117Y-52641515D01*
X113050686Y-52533114D01*
X113018872Y-52511857D01*
X112898014Y-52390999D01*
X113856928Y-52390999D01*
X113856928Y-54190999D01*
X113878613Y-54300015D01*
X113940365Y-54392435D01*
X114032785Y-54454187D01*
X114141801Y-54475872D01*
X115941801Y-54475872D01*
X116050817Y-54454187D01*
X116143237Y-54392435D01*
X116204989Y-54300015D01*
X116226674Y-54190999D01*
X116226674Y-53367757D01*
X117226600Y-53367757D01*
X117226600Y-53820243D01*
X117399759Y-54238285D01*
X117719715Y-54558241D01*
X118137757Y-54731400D01*
X118590243Y-54731400D01*
X119008285Y-54558241D01*
X119328241Y-54238285D01*
X119501400Y-53820243D01*
X119501400Y-53367757D01*
X119328241Y-52949715D01*
X119008285Y-52629759D01*
X118590243Y-52456600D01*
X118137757Y-52456600D01*
X117719715Y-52629759D01*
X117399759Y-52949715D01*
X117226600Y-53367757D01*
X116226674Y-53367757D01*
X116226674Y-52390999D01*
X116204989Y-52281983D01*
X116143237Y-52189563D01*
X116050817Y-52127811D01*
X115941801Y-52106126D01*
X114141801Y-52106126D01*
X114032785Y-52127811D01*
X113940365Y-52189563D01*
X113878613Y-52281983D01*
X113856928Y-52390999D01*
X112898014Y-52390999D01*
X112644144Y-52137129D01*
X112622886Y-52105314D01*
X112496859Y-52021106D01*
X112419773Y-52005773D01*
X112429873Y-51955000D01*
X112429873Y-51505000D01*
X112411253Y-51411391D01*
X112485117Y-51460746D01*
X112611071Y-51485800D01*
X112611074Y-51485800D01*
X112653596Y-51494258D01*
X112696118Y-51485800D01*
X113404404Y-51485800D01*
X113463796Y-51545192D01*
X113676750Y-51633400D01*
X113907250Y-51633400D01*
X114120204Y-51545192D01*
X114283192Y-51382204D01*
X114371400Y-51169250D01*
X114371400Y-50938750D01*
X114283192Y-50725796D01*
X114120204Y-50562808D01*
X113907250Y-50474600D01*
X113676750Y-50474600D01*
X113463796Y-50562808D01*
X113404404Y-50622200D01*
X112840731Y-50622200D01*
X112833310Y-50611093D01*
X112690480Y-50515657D01*
X112564526Y-50490603D01*
X112564522Y-50490603D01*
X112522000Y-50482145D01*
X112479478Y-50490603D01*
X108272722Y-50490603D01*
X108336547Y-50395081D01*
X108361276Y-50270756D01*
X115174401Y-50270756D01*
X115174401Y-50723242D01*
X115347560Y-51141284D01*
X115667516Y-51461240D01*
X116085558Y-51634399D01*
X116538044Y-51634399D01*
X116956086Y-51461240D01*
X117226600Y-51190726D01*
X117226600Y-51280243D01*
X117399759Y-51698285D01*
X117719715Y-52018241D01*
X118137757Y-52191400D01*
X118590243Y-52191400D01*
X119008285Y-52018241D01*
X119328241Y-51698285D01*
X119374171Y-51587400D01*
X120205809Y-51587400D01*
X120234564Y-51630436D01*
X120322213Y-51689000D01*
X120234564Y-51747564D01*
X120172812Y-51839984D01*
X120151127Y-51949000D01*
X120151127Y-52699000D01*
X120172812Y-52808016D01*
X120234564Y-52900436D01*
X120326984Y-52962188D01*
X120436000Y-52983873D01*
X121636000Y-52983873D01*
X121745016Y-52962188D01*
X121837436Y-52900436D01*
X121899188Y-52808016D01*
X121920873Y-52699000D01*
X121920873Y-51949000D01*
X121899188Y-51839984D01*
X121837436Y-51747564D01*
X121749787Y-51689000D01*
X121837436Y-51630436D01*
X121899188Y-51538016D01*
X121920873Y-51429000D01*
X121920873Y-50827757D01*
X124846600Y-50827757D01*
X124846600Y-51280243D01*
X125019759Y-51698285D01*
X125339715Y-52018241D01*
X125757757Y-52191400D01*
X126210243Y-52191400D01*
X126628285Y-52018241D01*
X126948241Y-51698285D01*
X127121400Y-51280243D01*
X127121400Y-50827757D01*
X126948241Y-50409715D01*
X126628285Y-50089759D01*
X126210243Y-49916600D01*
X125757757Y-49916600D01*
X125339715Y-50089759D01*
X125019759Y-50409715D01*
X124846600Y-50827757D01*
X121920873Y-50827757D01*
X121920873Y-50679000D01*
X121899188Y-50569984D01*
X121837436Y-50477564D01*
X121745016Y-50415812D01*
X121636000Y-50394127D01*
X120436000Y-50394127D01*
X120326984Y-50415812D01*
X120234564Y-50477564D01*
X120205809Y-50520600D01*
X119374171Y-50520600D01*
X119328241Y-50409715D01*
X119008285Y-50089759D01*
X118590243Y-49916600D01*
X118137757Y-49916600D01*
X117970839Y-49985740D01*
X117859530Y-49963599D01*
X117859525Y-49963599D01*
X117806999Y-49953151D01*
X117754473Y-49963599D01*
X117321972Y-49963599D01*
X117276042Y-49852714D01*
X116956086Y-49532758D01*
X116538044Y-49359599D01*
X116085558Y-49359599D01*
X115667516Y-49532758D01*
X115347560Y-49852714D01*
X115174401Y-50270756D01*
X108361276Y-50270756D01*
X108370060Y-50226601D01*
X108361601Y-50184075D01*
X108361601Y-44310254D01*
X108574086Y-44222240D01*
X108894042Y-43902284D01*
X109067201Y-43484242D01*
X109067201Y-43031756D01*
X108894042Y-42613714D01*
X108574086Y-42293758D01*
X108156044Y-42120599D01*
X107703558Y-42120599D01*
X107285516Y-42293758D01*
X106965560Y-42613714D01*
X106792401Y-43031756D01*
X106792401Y-43484242D01*
X106965560Y-43902284D01*
X107285516Y-44222240D01*
X107498001Y-44310254D01*
X107498002Y-50047742D01*
X107055142Y-50490603D01*
X106676523Y-50490603D01*
X106634001Y-50482145D01*
X106591479Y-50490603D01*
X98086526Y-50490603D01*
X98044000Y-50482144D01*
X98001474Y-50490603D01*
X84116526Y-50490603D01*
X84074000Y-50482144D01*
X84031474Y-50490603D01*
X75748857Y-50490603D01*
X73454195Y-48195941D01*
X73430105Y-48159889D01*
X73287275Y-48064453D01*
X73161321Y-48039399D01*
X73161317Y-48039399D01*
X73118795Y-48030941D01*
X73076273Y-48039399D01*
X70164681Y-48039399D01*
X70122159Y-48030941D01*
X70079637Y-48039399D01*
X70079633Y-48039399D01*
X69953679Y-48064453D01*
X69846900Y-48135800D01*
X69846899Y-48135801D01*
X69810849Y-48159889D01*
X69786761Y-48195939D01*
X67586873Y-50395828D01*
X67586873Y-48776000D01*
X67565188Y-48666984D01*
X67503436Y-48574564D01*
X67411016Y-48512812D01*
X67302000Y-48491127D01*
X65286000Y-48491127D01*
X65176984Y-48512812D01*
X65084564Y-48574564D01*
X65022812Y-48666984D01*
X65001127Y-48776000D01*
X65001127Y-50792000D01*
X65022812Y-50901016D01*
X65084564Y-50993436D01*
X65176984Y-51055188D01*
X65286000Y-51076873D01*
X66905828Y-51076873D01*
X66064740Y-51917961D01*
X66028690Y-51942049D01*
X66004602Y-51978099D01*
X66004600Y-51978101D01*
X65933253Y-52084880D01*
X65899741Y-52253359D01*
X65908200Y-52295886D01*
X65908199Y-56853474D01*
X65908199Y-57224405D01*
X65802808Y-57329796D01*
X65714600Y-57542750D01*
X65714600Y-57773250D01*
X65802808Y-57986204D01*
X65855604Y-58039000D01*
X65442524Y-58039000D01*
X65405000Y-58031536D01*
X65367476Y-58039000D01*
X65256341Y-58061106D01*
X65130314Y-58145314D01*
X65126428Y-58151130D01*
X64869243Y-58044600D01*
X64416757Y-58044600D01*
X63998715Y-58217759D01*
X63678759Y-58537715D01*
X63505600Y-58955757D01*
X63505600Y-59408243D01*
X63678759Y-59826285D01*
X63998715Y-60146241D01*
X64416757Y-60319400D01*
X64869243Y-60319400D01*
X65287285Y-60146241D01*
X65607241Y-59826285D01*
X65780400Y-59408243D01*
X65780400Y-58955757D01*
X65716297Y-58801000D01*
X69389127Y-58801000D01*
X69389127Y-58870000D01*
X69410812Y-58979016D01*
X69472564Y-59071436D01*
X69564984Y-59133188D01*
X69674000Y-59154873D01*
X70874000Y-59154873D01*
X70983016Y-59133188D01*
X70993001Y-59126517D01*
X70993001Y-62085089D01*
X70958000Y-62078127D01*
X69758000Y-62078127D01*
X69648984Y-62099812D01*
X69556564Y-62161564D01*
X69547380Y-62175308D01*
X69461000Y-62158126D01*
X67445000Y-62158126D01*
X67335984Y-62179811D01*
X67243564Y-62241563D01*
X67181812Y-62333983D01*
X67160127Y-62442999D01*
X67160127Y-64339999D01*
X63652524Y-64339999D01*
X63615000Y-64332535D01*
X63466342Y-64362105D01*
X63340315Y-64446313D01*
X63319059Y-64478125D01*
X61476058Y-66321127D01*
X60604400Y-66321127D01*
X60604400Y-56415757D01*
X60838600Y-56415757D01*
X60838600Y-56868243D01*
X61011759Y-57286285D01*
X61331715Y-57606241D01*
X61749757Y-57779400D01*
X62202243Y-57779400D01*
X62620285Y-57606241D01*
X62940241Y-57286285D01*
X63113400Y-56868243D01*
X63113400Y-56415757D01*
X62940241Y-55997715D01*
X62620285Y-55677759D01*
X62202243Y-55504600D01*
X61749757Y-55504600D01*
X61331715Y-55677759D01*
X61011759Y-55997715D01*
X60838600Y-56415757D01*
X60604400Y-56415757D01*
X60604400Y-53875757D01*
X63505600Y-53875757D01*
X63505600Y-54328243D01*
X63678759Y-54746285D01*
X63998715Y-55066241D01*
X64416757Y-55239400D01*
X64869243Y-55239400D01*
X65287285Y-55066241D01*
X65607241Y-54746285D01*
X65780400Y-54328243D01*
X65780400Y-53875757D01*
X65607241Y-53457715D01*
X65287285Y-53137759D01*
X64869243Y-52964600D01*
X64416757Y-52964600D01*
X63998715Y-53137759D01*
X63678759Y-53457715D01*
X63505600Y-53875757D01*
X60604400Y-53875757D01*
X60604400Y-51178756D01*
X67307261Y-44475896D01*
X67458346Y-44249781D01*
X67499001Y-44045399D01*
X99047436Y-44045399D01*
X99341622Y-44241969D01*
X99685644Y-44310399D01*
X99917958Y-44310399D01*
X100261980Y-44241969D01*
X100652100Y-43981298D01*
X100912771Y-43591178D01*
X101004306Y-43130999D01*
X100912771Y-42670820D01*
X100652100Y-42280700D01*
X100261980Y-42020029D01*
X99917958Y-41951599D01*
X99685644Y-41951599D01*
X99341622Y-42020029D01*
X99047436Y-42216599D01*
X67268941Y-42216599D01*
X67002220Y-42269653D01*
X66699755Y-42471753D01*
X66497655Y-42774218D01*
X66454944Y-42988942D01*
X66240219Y-43031654D01*
X66014104Y-43182739D01*
X59107108Y-50089736D01*
X59030754Y-50140754D01*
X58828654Y-50443220D01*
X58783656Y-50669441D01*
X58757686Y-50800000D01*
X58775600Y-50890059D01*
X58775601Y-69505936D01*
X58775600Y-69505941D01*
X58775601Y-75093936D01*
X58757686Y-75184000D01*
X58812981Y-75461984D01*
X58828655Y-75540781D01*
X59030755Y-75843246D01*
X59107106Y-75894262D01*
X64365843Y-81153000D01*
X58674998Y-81153000D01*
X58674998Y-40364756D01*
X104252401Y-40364756D01*
X104252401Y-40817242D01*
X104425560Y-41235284D01*
X104745516Y-41555240D01*
X105163558Y-41728399D01*
X105616044Y-41728399D01*
X106034086Y-41555240D01*
X106354042Y-41235284D01*
X106527201Y-40817242D01*
X106527201Y-40364756D01*
X109332401Y-40364756D01*
X109332401Y-40817242D01*
X109505560Y-41235284D01*
X109825516Y-41555240D01*
X110243558Y-41728399D01*
X110696044Y-41728399D01*
X111114086Y-41555240D01*
X111434042Y-41235284D01*
X111607201Y-40817242D01*
X111607201Y-40364756D01*
X111434042Y-39946714D01*
X111114086Y-39626758D01*
X110696044Y-39453599D01*
X110243558Y-39453599D01*
X109825516Y-39626758D01*
X109505560Y-39946714D01*
X109332401Y-40364756D01*
X106527201Y-40364756D01*
X106354042Y-39946714D01*
X106034086Y-39626758D01*
X105616044Y-39453599D01*
X105163558Y-39453599D01*
X104745516Y-39626758D01*
X104425560Y-39946714D01*
X104252401Y-40364756D01*
X58674998Y-40364756D01*
X58674998Y-37150999D01*
X98616928Y-37150999D01*
X98616928Y-38950999D01*
X98638613Y-39060015D01*
X98700365Y-39152435D01*
X98792785Y-39214187D01*
X98901801Y-39235872D01*
X100701801Y-39235872D01*
X100810817Y-39214187D01*
X100903237Y-39152435D01*
X100964989Y-39060015D01*
X100983810Y-38965399D01*
X101131226Y-38965399D01*
X101174555Y-39030245D01*
X101187423Y-39038843D01*
X101195613Y-39080015D01*
X101257365Y-39172435D01*
X101349785Y-39234187D01*
X101458801Y-39255872D01*
X101595298Y-39255872D01*
X101743741Y-39285399D01*
X115878419Y-39285399D01*
X115667516Y-39372758D01*
X115347560Y-39692714D01*
X115174401Y-40110756D01*
X115174401Y-40563242D01*
X115347560Y-40981284D01*
X115667516Y-41301240D01*
X116085558Y-41474399D01*
X116538044Y-41474399D01*
X116956086Y-41301240D01*
X117276042Y-40981284D01*
X117449201Y-40563242D01*
X117449201Y-40110756D01*
X117276042Y-39692714D01*
X116956086Y-39372758D01*
X116745183Y-39285399D01*
X118383243Y-39285399D01*
X118825006Y-39727163D01*
X118643600Y-40165117D01*
X118643600Y-41114883D01*
X119007060Y-41992354D01*
X119678646Y-42663940D01*
X119801600Y-42714869D01*
X119801600Y-43597941D01*
X119801601Y-44706242D01*
X118554293Y-45953551D01*
X118275701Y-46139701D01*
X118015030Y-46529821D01*
X117923495Y-46990000D01*
X118015030Y-47450179D01*
X118275701Y-47840299D01*
X118665821Y-48100970D01*
X119009843Y-48169400D01*
X119242157Y-48169400D01*
X119586179Y-48100970D01*
X119976299Y-47840299D01*
X120236970Y-47450179D01*
X120328505Y-46990000D01*
X120291283Y-46802873D01*
X120552719Y-46541437D01*
X120463495Y-46990000D01*
X120555030Y-47450179D01*
X120815701Y-47840299D01*
X121005601Y-47967186D01*
X121005600Y-49112059D01*
X121035127Y-49260502D01*
X121035127Y-49397000D01*
X121056812Y-49506016D01*
X121118564Y-49598436D01*
X121210984Y-49660188D01*
X121252156Y-49668378D01*
X121260754Y-49681246D01*
X121563219Y-49883346D01*
X121920000Y-49954314D01*
X122276780Y-49883346D01*
X122579246Y-49681246D01*
X122587844Y-49668378D01*
X122629016Y-49660188D01*
X122721436Y-49598436D01*
X122783188Y-49506016D01*
X122804873Y-49397000D01*
X122804873Y-49260503D01*
X122834400Y-49112060D01*
X122834400Y-47334058D01*
X122852314Y-47243999D01*
X122835148Y-47157699D01*
X122868505Y-46990000D01*
X122776970Y-46529821D01*
X122516299Y-46139701D01*
X122126179Y-45879030D01*
X121782157Y-45810600D01*
X121549843Y-45810600D01*
X121217438Y-45876719D01*
X121298895Y-45795262D01*
X121375246Y-45744246D01*
X121383844Y-45731378D01*
X121425016Y-45723188D01*
X121517436Y-45661436D01*
X121579188Y-45569016D01*
X121600873Y-45460000D01*
X121600873Y-45323503D01*
X121648314Y-45085000D01*
X121630400Y-44994940D01*
X121630400Y-42975823D01*
X122383354Y-42663940D01*
X123054940Y-41992354D01*
X123418400Y-41114883D01*
X123418400Y-40165117D01*
X123054940Y-39287646D01*
X122383354Y-38616060D01*
X121505883Y-38252600D01*
X120556117Y-38252600D01*
X120118163Y-38434006D01*
X119472263Y-37788107D01*
X119421245Y-37711753D01*
X119118780Y-37509653D01*
X118852059Y-37456599D01*
X118852058Y-37456599D01*
X118761999Y-37438685D01*
X118671940Y-37456599D01*
X102216376Y-37456599D01*
X102173047Y-37391753D01*
X101870582Y-37189653D01*
X101603861Y-37136599D01*
X100983810Y-37136599D01*
X100964989Y-37041983D01*
X100903237Y-36949563D01*
X100810817Y-36887811D01*
X100701801Y-36866126D01*
X98901801Y-36866126D01*
X98792785Y-36887811D01*
X98700365Y-36949563D01*
X98638613Y-37041983D01*
X98616928Y-37150999D01*
X58674998Y-37150999D01*
X58674998Y-35687000D01*
X121467916Y-35687000D01*
X121433600Y-35769845D01*
G36*
X72200528Y-59735944D02*
X72608022Y-59817000D01*
X74549000Y-59817000D01*
X74549000Y-59944000D01*
X74578002Y-60089802D01*
X74660592Y-60213408D01*
X74784198Y-60295998D01*
X74930000Y-60325000D01*
X75069554Y-60325000D01*
X74912600Y-60703920D01*
X74912600Y-61216080D01*
X75108595Y-61689254D01*
X75158600Y-61739259D01*
X75158601Y-62433638D01*
X75045311Y-62546928D01*
X74953569Y-62584929D01*
X74649929Y-62888569D01*
X74485600Y-63285294D01*
X74485600Y-63714706D01*
X74649929Y-64111431D01*
X74953569Y-64415071D01*
X75350294Y-64579400D01*
X75779706Y-64579400D01*
X76176431Y-64415071D01*
X76480071Y-64111431D01*
X76518072Y-64019689D01*
X76863853Y-63673908D01*
X76950807Y-63615807D01*
X77180977Y-63271334D01*
X77241400Y-62967568D01*
X77241400Y-62967564D01*
X77261801Y-62865000D01*
X77241400Y-62762436D01*
X77241400Y-61739259D01*
X77291405Y-61689254D01*
X77470000Y-61258087D01*
X77648595Y-61689254D01*
X77698600Y-61739259D01*
X77698601Y-62762432D01*
X77678199Y-62865000D01*
X77759023Y-63271333D01*
X77931093Y-63528854D01*
X77931095Y-63528856D01*
X77989194Y-63615807D01*
X78076145Y-63673906D01*
X78421928Y-64019689D01*
X78459929Y-64111431D01*
X78483498Y-64135000D01*
X76835000Y-64135000D01*
X76788854Y-64143680D01*
X76747087Y-64170346D01*
X76718705Y-64210966D01*
X76708028Y-64259355D01*
X76623537Y-68314926D01*
X76606400Y-68273554D01*
X76606400Y-66337347D01*
X76665546Y-66040000D01*
X76581772Y-65618839D01*
X76343204Y-65261796D01*
X75986161Y-65023228D01*
X75671308Y-64960600D01*
X75458692Y-64960600D01*
X75143839Y-65023228D01*
X74786796Y-65261796D01*
X74548228Y-65618839D01*
X74464454Y-66040000D01*
X74523601Y-66337352D01*
X74523600Y-68273554D01*
X74485600Y-68365294D01*
X74485600Y-68794706D01*
X74649929Y-69191431D01*
X74953569Y-69495071D01*
X75350294Y-69659400D01*
X75779706Y-69659400D01*
X76176431Y-69495071D01*
X76480071Y-69191431D01*
X76611907Y-68873150D01*
X76589440Y-69951600D01*
X75449925Y-69951600D01*
X75109113Y-70019392D01*
X74722631Y-70277631D01*
X74616813Y-70435999D01*
X72541873Y-70435999D01*
X72541873Y-69250000D01*
X72520188Y-69140984D01*
X72458436Y-69048564D01*
X72366016Y-68986812D01*
X72257000Y-68965127D01*
X71507000Y-68965127D01*
X71397984Y-68986812D01*
X71305564Y-69048564D01*
X71243812Y-69140984D01*
X71222127Y-69250000D01*
X71222127Y-69502200D01*
X71092873Y-69502200D01*
X71092873Y-69334000D01*
X71071188Y-69224984D01*
X71009436Y-69132564D01*
X70917016Y-69070812D01*
X70808000Y-69049127D01*
X69908000Y-69049127D01*
X69798984Y-69070812D01*
X69706564Y-69132564D01*
X69644812Y-69224984D01*
X69623127Y-69334000D01*
X69623127Y-69502200D01*
X69302458Y-69502200D01*
X69544405Y-69260253D01*
X69740400Y-68787079D01*
X69740400Y-68558044D01*
X69798984Y-68597188D01*
X69908000Y-68618873D01*
X70808000Y-68618873D01*
X70917016Y-68597188D01*
X71009436Y-68535436D01*
X71071188Y-68443016D01*
X71092873Y-68334000D01*
X71092873Y-67134000D01*
X71071188Y-67024984D01*
X71009436Y-66932564D01*
X70917016Y-66870812D01*
X70808000Y-66849127D01*
X69908000Y-66849127D01*
X69798984Y-66870812D01*
X69706564Y-66932564D01*
X69644812Y-67024984D01*
X69623127Y-67134000D01*
X69623127Y-67353000D01*
X69287523Y-67353000D01*
X69249999Y-67345536D01*
X69212475Y-67353000D01*
X69101340Y-67375106D01*
X69072725Y-67394226D01*
X68751087Y-67260999D01*
X69182254Y-67082404D01*
X69544405Y-66720253D01*
X69740400Y-66247079D01*
X69740400Y-65734919D01*
X69544405Y-65261745D01*
X69384659Y-65101999D01*
X69861477Y-65101999D01*
X69899001Y-65109463D01*
X69936525Y-65101999D01*
X70047660Y-65079893D01*
X70173687Y-64995685D01*
X70194945Y-64963870D01*
X71616871Y-63541944D01*
X71648686Y-63520686D01*
X71732894Y-63394659D01*
X71755000Y-63283524D01*
X71762464Y-63246000D01*
X71755000Y-63208476D01*
X71755000Y-59438252D01*
X72200528Y-59735944D01*
X72200528Y-59735944D01*
G37*
X72200528Y-59735944D02*
X72608022Y-59817000D01*
X74549000Y-59817000D01*
X74549000Y-59944000D01*
X74578002Y-60089802D01*
X74660592Y-60213408D01*
X74784198Y-60295998D01*
X74930000Y-60325000D01*
X75069554Y-60325000D01*
X74912600Y-60703920D01*
X74912600Y-61216080D01*
X75108595Y-61689254D01*
X75158600Y-61739259D01*
X75158601Y-62433638D01*
X75045311Y-62546928D01*
X74953569Y-62584929D01*
X74649929Y-62888569D01*
X74485600Y-63285294D01*
X74485600Y-63714706D01*
X74649929Y-64111431D01*
X74953569Y-64415071D01*
X75350294Y-64579400D01*
X75779706Y-64579400D01*
X76176431Y-64415071D01*
X76480071Y-64111431D01*
X76518072Y-64019689D01*
X76863853Y-63673908D01*
X76950807Y-63615807D01*
X77180977Y-63271334D01*
X77241400Y-62967568D01*
X77241400Y-62967564D01*
X77261801Y-62865000D01*
X77241400Y-62762436D01*
X77241400Y-61739259D01*
X77291405Y-61689254D01*
X77470000Y-61258087D01*
X77648595Y-61689254D01*
X77698600Y-61739259D01*
X77698601Y-62762432D01*
X77678199Y-62865000D01*
X77759023Y-63271333D01*
X77931093Y-63528854D01*
X77931095Y-63528856D01*
X77989194Y-63615807D01*
X78076145Y-63673906D01*
X78421928Y-64019689D01*
X78459929Y-64111431D01*
X78483498Y-64135000D01*
X76835000Y-64135000D01*
X76788854Y-64143680D01*
X76747087Y-64170346D01*
X76718705Y-64210966D01*
X76708028Y-64259355D01*
X76623537Y-68314926D01*
X76606400Y-68273554D01*
X76606400Y-66337347D01*
X76665546Y-66040000D01*
X76581772Y-65618839D01*
X76343204Y-65261796D01*
X75986161Y-65023228D01*
X75671308Y-64960600D01*
X75458692Y-64960600D01*
X75143839Y-65023228D01*
X74786796Y-65261796D01*
X74548228Y-65618839D01*
X74464454Y-66040000D01*
X74523601Y-66337352D01*
X74523600Y-68273554D01*
X74485600Y-68365294D01*
X74485600Y-68794706D01*
X74649929Y-69191431D01*
X74953569Y-69495071D01*
X75350294Y-69659400D01*
X75779706Y-69659400D01*
X76176431Y-69495071D01*
X76480071Y-69191431D01*
X76611907Y-68873150D01*
X76589440Y-69951600D01*
X75449925Y-69951600D01*
X75109113Y-70019392D01*
X74722631Y-70277631D01*
X74616813Y-70435999D01*
X72541873Y-70435999D01*
X72541873Y-69250000D01*
X72520188Y-69140984D01*
X72458436Y-69048564D01*
X72366016Y-68986812D01*
X72257000Y-68965127D01*
X71507000Y-68965127D01*
X71397984Y-68986812D01*
X71305564Y-69048564D01*
X71243812Y-69140984D01*
X71222127Y-69250000D01*
X71222127Y-69502200D01*
X71092873Y-69502200D01*
X71092873Y-69334000D01*
X71071188Y-69224984D01*
X71009436Y-69132564D01*
X70917016Y-69070812D01*
X70808000Y-69049127D01*
X69908000Y-69049127D01*
X69798984Y-69070812D01*
X69706564Y-69132564D01*
X69644812Y-69224984D01*
X69623127Y-69334000D01*
X69623127Y-69502200D01*
X69302458Y-69502200D01*
X69544405Y-69260253D01*
X69740400Y-68787079D01*
X69740400Y-68558044D01*
X69798984Y-68597188D01*
X69908000Y-68618873D01*
X70808000Y-68618873D01*
X70917016Y-68597188D01*
X71009436Y-68535436D01*
X71071188Y-68443016D01*
X71092873Y-68334000D01*
X71092873Y-67134000D01*
X71071188Y-67024984D01*
X71009436Y-66932564D01*
X70917016Y-66870812D01*
X70808000Y-66849127D01*
X69908000Y-66849127D01*
X69798984Y-66870812D01*
X69706564Y-66932564D01*
X69644812Y-67024984D01*
X69623127Y-67134000D01*
X69623127Y-67353000D01*
X69287523Y-67353000D01*
X69249999Y-67345536D01*
X69212475Y-67353000D01*
X69101340Y-67375106D01*
X69072725Y-67394226D01*
X68751087Y-67260999D01*
X69182254Y-67082404D01*
X69544405Y-66720253D01*
X69740400Y-66247079D01*
X69740400Y-65734919D01*
X69544405Y-65261745D01*
X69384659Y-65101999D01*
X69861477Y-65101999D01*
X69899001Y-65109463D01*
X69936525Y-65101999D01*
X70047660Y-65079893D01*
X70173687Y-64995685D01*
X70194945Y-64963870D01*
X71616871Y-63541944D01*
X71648686Y-63520686D01*
X71732894Y-63394659D01*
X71755000Y-63283524D01*
X71762464Y-63246000D01*
X71755000Y-63208476D01*
X71755000Y-59438252D01*
X72200528Y-59735944D01*
G04 #@! TD*
M02*
