G04 #@! TF.GenerationSoftware,KiCad,Pcbnew,(5.0.2)-1*
G04 #@! TF.CreationDate,2019-06-05T14:46:48+08:00*
G04 #@! TF.ProjectId,DC Electronic Load Mini,44432045-6c65-4637-9472-6f6e6963204c,rev?*
G04 #@! TF.SameCoordinates,Original*
G04 #@! TF.FileFunction,Soldermask,Bot*
G04 #@! TF.FilePolarity,Negative*
%FSLAX46Y46*%
G04 Gerber Fmt 4.6, Leading zero omitted, Abs format (unit mm)*
G04 Created by KiCad (PCBNEW (5.0.2)-1) date 06/05/19 14:46:48*
%MOMM*%
%LPD*%
G01*
G04 APERTURE LIST*
%ADD10C,0.100000*%
G04 APERTURE END LIST*
D10*
G36*
X77989145Y-78881932D02*
X78154572Y-78950454D01*
X78303457Y-79049936D01*
X78430064Y-79176543D01*
X78529546Y-79325428D01*
X78598068Y-79490855D01*
X78633000Y-79666470D01*
X78633000Y-79845530D01*
X78598068Y-80021145D01*
X78529546Y-80186572D01*
X78430064Y-80335457D01*
X78303457Y-80462064D01*
X78154572Y-80561546D01*
X77989145Y-80630068D01*
X77813530Y-80665000D01*
X77634470Y-80665000D01*
X77458855Y-80630068D01*
X77293428Y-80561546D01*
X77144543Y-80462064D01*
X77017936Y-80335457D01*
X76918454Y-80186572D01*
X76849932Y-80021145D01*
X76815000Y-79845530D01*
X76815000Y-79666470D01*
X76849932Y-79490855D01*
X76918454Y-79325428D01*
X77017936Y-79176543D01*
X77144543Y-79049936D01*
X77293428Y-78950454D01*
X77458855Y-78881932D01*
X77634470Y-78847000D01*
X77813530Y-78847000D01*
X77989145Y-78881932D01*
X77989145Y-78881932D01*
G37*
G36*
X112124443Y-78861519D02*
X112190627Y-78868037D01*
X112303853Y-78902384D01*
X112360467Y-78919557D01*
X112418270Y-78950454D01*
X112516991Y-79003222D01*
X112552729Y-79032552D01*
X112654186Y-79115814D01*
X112737448Y-79217271D01*
X112766778Y-79253009D01*
X112766779Y-79253011D01*
X112850443Y-79409533D01*
X112850443Y-79409534D01*
X112901963Y-79579373D01*
X112919359Y-79756000D01*
X112901963Y-79932627D01*
X112875111Y-80021145D01*
X112850443Y-80102467D01*
X112805487Y-80186572D01*
X112766778Y-80258991D01*
X112737448Y-80294729D01*
X112654186Y-80396186D01*
X112552729Y-80479448D01*
X112516991Y-80508778D01*
X112516989Y-80508779D01*
X112360467Y-80592443D01*
X112303853Y-80609616D01*
X112190627Y-80643963D01*
X112124443Y-80650481D01*
X112058260Y-80657000D01*
X111969740Y-80657000D01*
X111903557Y-80650481D01*
X111837373Y-80643963D01*
X111724147Y-80609616D01*
X111667533Y-80592443D01*
X111511011Y-80508779D01*
X111511009Y-80508778D01*
X111475271Y-80479448D01*
X111373814Y-80396186D01*
X111290552Y-80294729D01*
X111261222Y-80258991D01*
X111222513Y-80186572D01*
X111177557Y-80102467D01*
X111152889Y-80021145D01*
X111126037Y-79932627D01*
X111108641Y-79756000D01*
X111126037Y-79579373D01*
X111177557Y-79409534D01*
X111177557Y-79409533D01*
X111261221Y-79253011D01*
X111261222Y-79253009D01*
X111290552Y-79217271D01*
X111373814Y-79115814D01*
X111475271Y-79032552D01*
X111511009Y-79003222D01*
X111609730Y-78950454D01*
X111667533Y-78919557D01*
X111724147Y-78902384D01*
X111837373Y-78868037D01*
X111903557Y-78861519D01*
X111969740Y-78855000D01*
X112058260Y-78855000D01*
X112124443Y-78861519D01*
X112124443Y-78861519D01*
G37*
G36*
X114664443Y-78861519D02*
X114730627Y-78868037D01*
X114843853Y-78902384D01*
X114900467Y-78919557D01*
X114958270Y-78950454D01*
X115056991Y-79003222D01*
X115092729Y-79032552D01*
X115194186Y-79115814D01*
X115277448Y-79217271D01*
X115306778Y-79253009D01*
X115306779Y-79253011D01*
X115390443Y-79409533D01*
X115390443Y-79409534D01*
X115441963Y-79579373D01*
X115459359Y-79756000D01*
X115441963Y-79932627D01*
X115415111Y-80021145D01*
X115390443Y-80102467D01*
X115345487Y-80186572D01*
X115306778Y-80258991D01*
X115277448Y-80294729D01*
X115194186Y-80396186D01*
X115092729Y-80479448D01*
X115056991Y-80508778D01*
X115056989Y-80508779D01*
X114900467Y-80592443D01*
X114843853Y-80609616D01*
X114730627Y-80643963D01*
X114664443Y-80650481D01*
X114598260Y-80657000D01*
X114509740Y-80657000D01*
X114443557Y-80650481D01*
X114377373Y-80643963D01*
X114264147Y-80609616D01*
X114207533Y-80592443D01*
X114051011Y-80508779D01*
X114051009Y-80508778D01*
X114015271Y-80479448D01*
X113913814Y-80396186D01*
X113830552Y-80294729D01*
X113801222Y-80258991D01*
X113762513Y-80186572D01*
X113717557Y-80102467D01*
X113692889Y-80021145D01*
X113666037Y-79932627D01*
X113648641Y-79756000D01*
X113666037Y-79579373D01*
X113717557Y-79409534D01*
X113717557Y-79409533D01*
X113801221Y-79253011D01*
X113801222Y-79253009D01*
X113830552Y-79217271D01*
X113913814Y-79115814D01*
X114015271Y-79032552D01*
X114051009Y-79003222D01*
X114149730Y-78950454D01*
X114207533Y-78919557D01*
X114264147Y-78902384D01*
X114377373Y-78868037D01*
X114443557Y-78861519D01*
X114509740Y-78855000D01*
X114598260Y-78855000D01*
X114664443Y-78861519D01*
X114664443Y-78861519D01*
G37*
G36*
X117204443Y-78861519D02*
X117270627Y-78868037D01*
X117383853Y-78902384D01*
X117440467Y-78919557D01*
X117498270Y-78950454D01*
X117596991Y-79003222D01*
X117632729Y-79032552D01*
X117734186Y-79115814D01*
X117817448Y-79217271D01*
X117846778Y-79253009D01*
X117846779Y-79253011D01*
X117930443Y-79409533D01*
X117930443Y-79409534D01*
X117981963Y-79579373D01*
X117999359Y-79756000D01*
X117981963Y-79932627D01*
X117955111Y-80021145D01*
X117930443Y-80102467D01*
X117885487Y-80186572D01*
X117846778Y-80258991D01*
X117817448Y-80294729D01*
X117734186Y-80396186D01*
X117632729Y-80479448D01*
X117596991Y-80508778D01*
X117596989Y-80508779D01*
X117440467Y-80592443D01*
X117383853Y-80609616D01*
X117270627Y-80643963D01*
X117204443Y-80650481D01*
X117138260Y-80657000D01*
X117049740Y-80657000D01*
X116983557Y-80650481D01*
X116917373Y-80643963D01*
X116804147Y-80609616D01*
X116747533Y-80592443D01*
X116591011Y-80508779D01*
X116591009Y-80508778D01*
X116555271Y-80479448D01*
X116453814Y-80396186D01*
X116370552Y-80294729D01*
X116341222Y-80258991D01*
X116302513Y-80186572D01*
X116257557Y-80102467D01*
X116232889Y-80021145D01*
X116206037Y-79932627D01*
X116188641Y-79756000D01*
X116206037Y-79579373D01*
X116257557Y-79409534D01*
X116257557Y-79409533D01*
X116341221Y-79253011D01*
X116341222Y-79253009D01*
X116370552Y-79217271D01*
X116453814Y-79115814D01*
X116555271Y-79032552D01*
X116591009Y-79003222D01*
X116689730Y-78950454D01*
X116747533Y-78919557D01*
X116804147Y-78902384D01*
X116917373Y-78868037D01*
X116983557Y-78861519D01*
X117049740Y-78855000D01*
X117138260Y-78855000D01*
X117204443Y-78861519D01*
X117204443Y-78861519D01*
G37*
G36*
X119744443Y-78861519D02*
X119810627Y-78868037D01*
X119923853Y-78902384D01*
X119980467Y-78919557D01*
X120038270Y-78950454D01*
X120136991Y-79003222D01*
X120172729Y-79032552D01*
X120274186Y-79115814D01*
X120357448Y-79217271D01*
X120386778Y-79253009D01*
X120386779Y-79253011D01*
X120470443Y-79409533D01*
X120470443Y-79409534D01*
X120521963Y-79579373D01*
X120539359Y-79756000D01*
X120521963Y-79932627D01*
X120495111Y-80021145D01*
X120470443Y-80102467D01*
X120425487Y-80186572D01*
X120386778Y-80258991D01*
X120357448Y-80294729D01*
X120274186Y-80396186D01*
X120172729Y-80479448D01*
X120136991Y-80508778D01*
X120136989Y-80508779D01*
X119980467Y-80592443D01*
X119923853Y-80609616D01*
X119810627Y-80643963D01*
X119744443Y-80650481D01*
X119678260Y-80657000D01*
X119589740Y-80657000D01*
X119523557Y-80650481D01*
X119457373Y-80643963D01*
X119344147Y-80609616D01*
X119287533Y-80592443D01*
X119131011Y-80508779D01*
X119131009Y-80508778D01*
X119095271Y-80479448D01*
X118993814Y-80396186D01*
X118910552Y-80294729D01*
X118881222Y-80258991D01*
X118842513Y-80186572D01*
X118797557Y-80102467D01*
X118772889Y-80021145D01*
X118746037Y-79932627D01*
X118728641Y-79756000D01*
X118746037Y-79579373D01*
X118797557Y-79409534D01*
X118797557Y-79409533D01*
X118881221Y-79253011D01*
X118881222Y-79253009D01*
X118910552Y-79217271D01*
X118993814Y-79115814D01*
X119095271Y-79032552D01*
X119131009Y-79003222D01*
X119229730Y-78950454D01*
X119287533Y-78919557D01*
X119344147Y-78902384D01*
X119457373Y-78868037D01*
X119523557Y-78861519D01*
X119589740Y-78855000D01*
X119678260Y-78855000D01*
X119744443Y-78861519D01*
X119744443Y-78861519D01*
G37*
G36*
X109584443Y-78861519D02*
X109650627Y-78868037D01*
X109763853Y-78902384D01*
X109820467Y-78919557D01*
X109878270Y-78950454D01*
X109976991Y-79003222D01*
X110012729Y-79032552D01*
X110114186Y-79115814D01*
X110197448Y-79217271D01*
X110226778Y-79253009D01*
X110226779Y-79253011D01*
X110310443Y-79409533D01*
X110310443Y-79409534D01*
X110361963Y-79579373D01*
X110379359Y-79756000D01*
X110361963Y-79932627D01*
X110335111Y-80021145D01*
X110310443Y-80102467D01*
X110265487Y-80186572D01*
X110226778Y-80258991D01*
X110197448Y-80294729D01*
X110114186Y-80396186D01*
X110012729Y-80479448D01*
X109976991Y-80508778D01*
X109976989Y-80508779D01*
X109820467Y-80592443D01*
X109763853Y-80609616D01*
X109650627Y-80643963D01*
X109584443Y-80650481D01*
X109518260Y-80657000D01*
X109429740Y-80657000D01*
X109363557Y-80650481D01*
X109297373Y-80643963D01*
X109184147Y-80609616D01*
X109127533Y-80592443D01*
X108971011Y-80508779D01*
X108971009Y-80508778D01*
X108935271Y-80479448D01*
X108833814Y-80396186D01*
X108750552Y-80294729D01*
X108721222Y-80258991D01*
X108682513Y-80186572D01*
X108637557Y-80102467D01*
X108612889Y-80021145D01*
X108586037Y-79932627D01*
X108568641Y-79756000D01*
X108586037Y-79579373D01*
X108637557Y-79409534D01*
X108637557Y-79409533D01*
X108721221Y-79253011D01*
X108721222Y-79253009D01*
X108750552Y-79217271D01*
X108833814Y-79115814D01*
X108935271Y-79032552D01*
X108971009Y-79003222D01*
X109069730Y-78950454D01*
X109127533Y-78919557D01*
X109184147Y-78902384D01*
X109297373Y-78868037D01*
X109363557Y-78861519D01*
X109429740Y-78855000D01*
X109518260Y-78855000D01*
X109584443Y-78861519D01*
X109584443Y-78861519D01*
G37*
G36*
X107044443Y-78861519D02*
X107110627Y-78868037D01*
X107223853Y-78902384D01*
X107280467Y-78919557D01*
X107338270Y-78950454D01*
X107436991Y-79003222D01*
X107472729Y-79032552D01*
X107574186Y-79115814D01*
X107657448Y-79217271D01*
X107686778Y-79253009D01*
X107686779Y-79253011D01*
X107770443Y-79409533D01*
X107770443Y-79409534D01*
X107821963Y-79579373D01*
X107839359Y-79756000D01*
X107821963Y-79932627D01*
X107795111Y-80021145D01*
X107770443Y-80102467D01*
X107725487Y-80186572D01*
X107686778Y-80258991D01*
X107657448Y-80294729D01*
X107574186Y-80396186D01*
X107472729Y-80479448D01*
X107436991Y-80508778D01*
X107436989Y-80508779D01*
X107280467Y-80592443D01*
X107223853Y-80609616D01*
X107110627Y-80643963D01*
X107044443Y-80650481D01*
X106978260Y-80657000D01*
X106889740Y-80657000D01*
X106823557Y-80650481D01*
X106757373Y-80643963D01*
X106644147Y-80609616D01*
X106587533Y-80592443D01*
X106431011Y-80508779D01*
X106431009Y-80508778D01*
X106395271Y-80479448D01*
X106293814Y-80396186D01*
X106210552Y-80294729D01*
X106181222Y-80258991D01*
X106142513Y-80186572D01*
X106097557Y-80102467D01*
X106072889Y-80021145D01*
X106046037Y-79932627D01*
X106028641Y-79756000D01*
X106046037Y-79579373D01*
X106097557Y-79409534D01*
X106097557Y-79409533D01*
X106181221Y-79253011D01*
X106181222Y-79253009D01*
X106210552Y-79217271D01*
X106293814Y-79115814D01*
X106395271Y-79032552D01*
X106431009Y-79003222D01*
X106529730Y-78950454D01*
X106587533Y-78919557D01*
X106644147Y-78902384D01*
X106757373Y-78868037D01*
X106823557Y-78861519D01*
X106889740Y-78855000D01*
X106978260Y-78855000D01*
X107044443Y-78861519D01*
X107044443Y-78861519D01*
G37*
G36*
X104504443Y-78861519D02*
X104570627Y-78868037D01*
X104683853Y-78902384D01*
X104740467Y-78919557D01*
X104798270Y-78950454D01*
X104896991Y-79003222D01*
X104932729Y-79032552D01*
X105034186Y-79115814D01*
X105117448Y-79217271D01*
X105146778Y-79253009D01*
X105146779Y-79253011D01*
X105230443Y-79409533D01*
X105230443Y-79409534D01*
X105281963Y-79579373D01*
X105299359Y-79756000D01*
X105281963Y-79932627D01*
X105255111Y-80021145D01*
X105230443Y-80102467D01*
X105185487Y-80186572D01*
X105146778Y-80258991D01*
X105117448Y-80294729D01*
X105034186Y-80396186D01*
X104932729Y-80479448D01*
X104896991Y-80508778D01*
X104896989Y-80508779D01*
X104740467Y-80592443D01*
X104683853Y-80609616D01*
X104570627Y-80643963D01*
X104504443Y-80650481D01*
X104438260Y-80657000D01*
X104349740Y-80657000D01*
X104283557Y-80650481D01*
X104217373Y-80643963D01*
X104104147Y-80609616D01*
X104047533Y-80592443D01*
X103891011Y-80508779D01*
X103891009Y-80508778D01*
X103855271Y-80479448D01*
X103753814Y-80396186D01*
X103670552Y-80294729D01*
X103641222Y-80258991D01*
X103602513Y-80186572D01*
X103557557Y-80102467D01*
X103532889Y-80021145D01*
X103506037Y-79932627D01*
X103488641Y-79756000D01*
X103506037Y-79579373D01*
X103557557Y-79409534D01*
X103557557Y-79409533D01*
X103641221Y-79253011D01*
X103641222Y-79253009D01*
X103670552Y-79217271D01*
X103753814Y-79115814D01*
X103855271Y-79032552D01*
X103891009Y-79003222D01*
X103989730Y-78950454D01*
X104047533Y-78919557D01*
X104104147Y-78902384D01*
X104217373Y-78868037D01*
X104283557Y-78861519D01*
X104349740Y-78855000D01*
X104438260Y-78855000D01*
X104504443Y-78861519D01*
X104504443Y-78861519D01*
G37*
G36*
X101964443Y-78861519D02*
X102030627Y-78868037D01*
X102143853Y-78902384D01*
X102200467Y-78919557D01*
X102258270Y-78950454D01*
X102356991Y-79003222D01*
X102392729Y-79032552D01*
X102494186Y-79115814D01*
X102577448Y-79217271D01*
X102606778Y-79253009D01*
X102606779Y-79253011D01*
X102690443Y-79409533D01*
X102690443Y-79409534D01*
X102741963Y-79579373D01*
X102759359Y-79756000D01*
X102741963Y-79932627D01*
X102715111Y-80021145D01*
X102690443Y-80102467D01*
X102645487Y-80186572D01*
X102606778Y-80258991D01*
X102577448Y-80294729D01*
X102494186Y-80396186D01*
X102392729Y-80479448D01*
X102356991Y-80508778D01*
X102356989Y-80508779D01*
X102200467Y-80592443D01*
X102143853Y-80609616D01*
X102030627Y-80643963D01*
X101964443Y-80650481D01*
X101898260Y-80657000D01*
X101809740Y-80657000D01*
X101743557Y-80650481D01*
X101677373Y-80643963D01*
X101564147Y-80609616D01*
X101507533Y-80592443D01*
X101351011Y-80508779D01*
X101351009Y-80508778D01*
X101315271Y-80479448D01*
X101213814Y-80396186D01*
X101130552Y-80294729D01*
X101101222Y-80258991D01*
X101062513Y-80186572D01*
X101017557Y-80102467D01*
X100992889Y-80021145D01*
X100966037Y-79932627D01*
X100948641Y-79756000D01*
X100966037Y-79579373D01*
X101017557Y-79409534D01*
X101017557Y-79409533D01*
X101101221Y-79253011D01*
X101101222Y-79253009D01*
X101130552Y-79217271D01*
X101213814Y-79115814D01*
X101315271Y-79032552D01*
X101351009Y-79003222D01*
X101449730Y-78950454D01*
X101507533Y-78919557D01*
X101564147Y-78902384D01*
X101677373Y-78868037D01*
X101743557Y-78861519D01*
X101809740Y-78855000D01*
X101898260Y-78855000D01*
X101964443Y-78861519D01*
X101964443Y-78861519D01*
G37*
G36*
X96884443Y-78861519D02*
X96950627Y-78868037D01*
X97063853Y-78902384D01*
X97120467Y-78919557D01*
X97178270Y-78950454D01*
X97276991Y-79003222D01*
X97312729Y-79032552D01*
X97414186Y-79115814D01*
X97497448Y-79217271D01*
X97526778Y-79253009D01*
X97526779Y-79253011D01*
X97610443Y-79409533D01*
X97610443Y-79409534D01*
X97661963Y-79579373D01*
X97679359Y-79756000D01*
X97661963Y-79932627D01*
X97635111Y-80021145D01*
X97610443Y-80102467D01*
X97565487Y-80186572D01*
X97526778Y-80258991D01*
X97497448Y-80294729D01*
X97414186Y-80396186D01*
X97312729Y-80479448D01*
X97276991Y-80508778D01*
X97276989Y-80508779D01*
X97120467Y-80592443D01*
X97063853Y-80609616D01*
X96950627Y-80643963D01*
X96884443Y-80650481D01*
X96818260Y-80657000D01*
X96729740Y-80657000D01*
X96663557Y-80650481D01*
X96597373Y-80643963D01*
X96484147Y-80609616D01*
X96427533Y-80592443D01*
X96271011Y-80508779D01*
X96271009Y-80508778D01*
X96235271Y-80479448D01*
X96133814Y-80396186D01*
X96050552Y-80294729D01*
X96021222Y-80258991D01*
X95982513Y-80186572D01*
X95937557Y-80102467D01*
X95912889Y-80021145D01*
X95886037Y-79932627D01*
X95868641Y-79756000D01*
X95886037Y-79579373D01*
X95937557Y-79409534D01*
X95937557Y-79409533D01*
X96021221Y-79253011D01*
X96021222Y-79253009D01*
X96050552Y-79217271D01*
X96133814Y-79115814D01*
X96235271Y-79032552D01*
X96271009Y-79003222D01*
X96369730Y-78950454D01*
X96427533Y-78919557D01*
X96484147Y-78902384D01*
X96597373Y-78868037D01*
X96663557Y-78861519D01*
X96729740Y-78855000D01*
X96818260Y-78855000D01*
X96884443Y-78861519D01*
X96884443Y-78861519D01*
G37*
G36*
X84975000Y-80657000D02*
X83173000Y-80657000D01*
X83173000Y-78855000D01*
X84975000Y-78855000D01*
X84975000Y-80657000D01*
X84975000Y-80657000D01*
G37*
G36*
X122284443Y-78861519D02*
X122350627Y-78868037D01*
X122463853Y-78902384D01*
X122520467Y-78919557D01*
X122578270Y-78950454D01*
X122676991Y-79003222D01*
X122712729Y-79032552D01*
X122814186Y-79115814D01*
X122897448Y-79217271D01*
X122926778Y-79253009D01*
X122926779Y-79253011D01*
X123010443Y-79409533D01*
X123010443Y-79409534D01*
X123061963Y-79579373D01*
X123079359Y-79756000D01*
X123061963Y-79932627D01*
X123035111Y-80021145D01*
X123010443Y-80102467D01*
X122965487Y-80186572D01*
X122926778Y-80258991D01*
X122897448Y-80294729D01*
X122814186Y-80396186D01*
X122712729Y-80479448D01*
X122676991Y-80508778D01*
X122676989Y-80508779D01*
X122520467Y-80592443D01*
X122463853Y-80609616D01*
X122350627Y-80643963D01*
X122284443Y-80650481D01*
X122218260Y-80657000D01*
X122129740Y-80657000D01*
X122063557Y-80650481D01*
X121997373Y-80643963D01*
X121884147Y-80609616D01*
X121827533Y-80592443D01*
X121671011Y-80508779D01*
X121671009Y-80508778D01*
X121635271Y-80479448D01*
X121533814Y-80396186D01*
X121450552Y-80294729D01*
X121421222Y-80258991D01*
X121382513Y-80186572D01*
X121337557Y-80102467D01*
X121312889Y-80021145D01*
X121286037Y-79932627D01*
X121268641Y-79756000D01*
X121286037Y-79579373D01*
X121337557Y-79409534D01*
X121337557Y-79409533D01*
X121421221Y-79253011D01*
X121421222Y-79253009D01*
X121450552Y-79217271D01*
X121533814Y-79115814D01*
X121635271Y-79032552D01*
X121671009Y-79003222D01*
X121769730Y-78950454D01*
X121827533Y-78919557D01*
X121884147Y-78902384D01*
X121997373Y-78868037D01*
X122063557Y-78861519D01*
X122129740Y-78855000D01*
X122218260Y-78855000D01*
X122284443Y-78861519D01*
X122284443Y-78861519D01*
G37*
G36*
X86724443Y-78861519D02*
X86790627Y-78868037D01*
X86903853Y-78902384D01*
X86960467Y-78919557D01*
X87018270Y-78950454D01*
X87116991Y-79003222D01*
X87152729Y-79032552D01*
X87254186Y-79115814D01*
X87337448Y-79217271D01*
X87366778Y-79253009D01*
X87366779Y-79253011D01*
X87450443Y-79409533D01*
X87450443Y-79409534D01*
X87501963Y-79579373D01*
X87519359Y-79756000D01*
X87501963Y-79932627D01*
X87475111Y-80021145D01*
X87450443Y-80102467D01*
X87405487Y-80186572D01*
X87366778Y-80258991D01*
X87337448Y-80294729D01*
X87254186Y-80396186D01*
X87152729Y-80479448D01*
X87116991Y-80508778D01*
X87116989Y-80508779D01*
X86960467Y-80592443D01*
X86903853Y-80609616D01*
X86790627Y-80643963D01*
X86724443Y-80650481D01*
X86658260Y-80657000D01*
X86569740Y-80657000D01*
X86503557Y-80650481D01*
X86437373Y-80643963D01*
X86324147Y-80609616D01*
X86267533Y-80592443D01*
X86111011Y-80508779D01*
X86111009Y-80508778D01*
X86075271Y-80479448D01*
X85973814Y-80396186D01*
X85890552Y-80294729D01*
X85861222Y-80258991D01*
X85822513Y-80186572D01*
X85777557Y-80102467D01*
X85752889Y-80021145D01*
X85726037Y-79932627D01*
X85708641Y-79756000D01*
X85726037Y-79579373D01*
X85777557Y-79409534D01*
X85777557Y-79409533D01*
X85861221Y-79253011D01*
X85861222Y-79253009D01*
X85890552Y-79217271D01*
X85973814Y-79115814D01*
X86075271Y-79032552D01*
X86111009Y-79003222D01*
X86209730Y-78950454D01*
X86267533Y-78919557D01*
X86324147Y-78902384D01*
X86437373Y-78868037D01*
X86503557Y-78861519D01*
X86569740Y-78855000D01*
X86658260Y-78855000D01*
X86724443Y-78861519D01*
X86724443Y-78861519D01*
G37*
G36*
X89264443Y-78861519D02*
X89330627Y-78868037D01*
X89443853Y-78902384D01*
X89500467Y-78919557D01*
X89558270Y-78950454D01*
X89656991Y-79003222D01*
X89692729Y-79032552D01*
X89794186Y-79115814D01*
X89877448Y-79217271D01*
X89906778Y-79253009D01*
X89906779Y-79253011D01*
X89990443Y-79409533D01*
X89990443Y-79409534D01*
X90041963Y-79579373D01*
X90059359Y-79756000D01*
X90041963Y-79932627D01*
X90015111Y-80021145D01*
X89990443Y-80102467D01*
X89945487Y-80186572D01*
X89906778Y-80258991D01*
X89877448Y-80294729D01*
X89794186Y-80396186D01*
X89692729Y-80479448D01*
X89656991Y-80508778D01*
X89656989Y-80508779D01*
X89500467Y-80592443D01*
X89443853Y-80609616D01*
X89330627Y-80643963D01*
X89264443Y-80650481D01*
X89198260Y-80657000D01*
X89109740Y-80657000D01*
X89043557Y-80650481D01*
X88977373Y-80643963D01*
X88864147Y-80609616D01*
X88807533Y-80592443D01*
X88651011Y-80508779D01*
X88651009Y-80508778D01*
X88615271Y-80479448D01*
X88513814Y-80396186D01*
X88430552Y-80294729D01*
X88401222Y-80258991D01*
X88362513Y-80186572D01*
X88317557Y-80102467D01*
X88292889Y-80021145D01*
X88266037Y-79932627D01*
X88248641Y-79756000D01*
X88266037Y-79579373D01*
X88317557Y-79409534D01*
X88317557Y-79409533D01*
X88401221Y-79253011D01*
X88401222Y-79253009D01*
X88430552Y-79217271D01*
X88513814Y-79115814D01*
X88615271Y-79032552D01*
X88651009Y-79003222D01*
X88749730Y-78950454D01*
X88807533Y-78919557D01*
X88864147Y-78902384D01*
X88977373Y-78868037D01*
X89043557Y-78861519D01*
X89109740Y-78855000D01*
X89198260Y-78855000D01*
X89264443Y-78861519D01*
X89264443Y-78861519D01*
G37*
G36*
X91804443Y-78861519D02*
X91870627Y-78868037D01*
X91983853Y-78902384D01*
X92040467Y-78919557D01*
X92098270Y-78950454D01*
X92196991Y-79003222D01*
X92232729Y-79032552D01*
X92334186Y-79115814D01*
X92417448Y-79217271D01*
X92446778Y-79253009D01*
X92446779Y-79253011D01*
X92530443Y-79409533D01*
X92530443Y-79409534D01*
X92581963Y-79579373D01*
X92599359Y-79756000D01*
X92581963Y-79932627D01*
X92555111Y-80021145D01*
X92530443Y-80102467D01*
X92485487Y-80186572D01*
X92446778Y-80258991D01*
X92417448Y-80294729D01*
X92334186Y-80396186D01*
X92232729Y-80479448D01*
X92196991Y-80508778D01*
X92196989Y-80508779D01*
X92040467Y-80592443D01*
X91983853Y-80609616D01*
X91870627Y-80643963D01*
X91804443Y-80650481D01*
X91738260Y-80657000D01*
X91649740Y-80657000D01*
X91583557Y-80650481D01*
X91517373Y-80643963D01*
X91404147Y-80609616D01*
X91347533Y-80592443D01*
X91191011Y-80508779D01*
X91191009Y-80508778D01*
X91155271Y-80479448D01*
X91053814Y-80396186D01*
X90970552Y-80294729D01*
X90941222Y-80258991D01*
X90902513Y-80186572D01*
X90857557Y-80102467D01*
X90832889Y-80021145D01*
X90806037Y-79932627D01*
X90788641Y-79756000D01*
X90806037Y-79579373D01*
X90857557Y-79409534D01*
X90857557Y-79409533D01*
X90941221Y-79253011D01*
X90941222Y-79253009D01*
X90970552Y-79217271D01*
X91053814Y-79115814D01*
X91155271Y-79032552D01*
X91191009Y-79003222D01*
X91289730Y-78950454D01*
X91347533Y-78919557D01*
X91404147Y-78902384D01*
X91517373Y-78868037D01*
X91583557Y-78861519D01*
X91649740Y-78855000D01*
X91738260Y-78855000D01*
X91804443Y-78861519D01*
X91804443Y-78861519D01*
G37*
G36*
X94344443Y-78861519D02*
X94410627Y-78868037D01*
X94523853Y-78902384D01*
X94580467Y-78919557D01*
X94638270Y-78950454D01*
X94736991Y-79003222D01*
X94772729Y-79032552D01*
X94874186Y-79115814D01*
X94957448Y-79217271D01*
X94986778Y-79253009D01*
X94986779Y-79253011D01*
X95070443Y-79409533D01*
X95070443Y-79409534D01*
X95121963Y-79579373D01*
X95139359Y-79756000D01*
X95121963Y-79932627D01*
X95095111Y-80021145D01*
X95070443Y-80102467D01*
X95025487Y-80186572D01*
X94986778Y-80258991D01*
X94957448Y-80294729D01*
X94874186Y-80396186D01*
X94772729Y-80479448D01*
X94736991Y-80508778D01*
X94736989Y-80508779D01*
X94580467Y-80592443D01*
X94523853Y-80609616D01*
X94410627Y-80643963D01*
X94344443Y-80650481D01*
X94278260Y-80657000D01*
X94189740Y-80657000D01*
X94123557Y-80650481D01*
X94057373Y-80643963D01*
X93944147Y-80609616D01*
X93887533Y-80592443D01*
X93731011Y-80508779D01*
X93731009Y-80508778D01*
X93695271Y-80479448D01*
X93593814Y-80396186D01*
X93510552Y-80294729D01*
X93481222Y-80258991D01*
X93442513Y-80186572D01*
X93397557Y-80102467D01*
X93372889Y-80021145D01*
X93346037Y-79932627D01*
X93328641Y-79756000D01*
X93346037Y-79579373D01*
X93397557Y-79409534D01*
X93397557Y-79409533D01*
X93481221Y-79253011D01*
X93481222Y-79253009D01*
X93510552Y-79217271D01*
X93593814Y-79115814D01*
X93695271Y-79032552D01*
X93731009Y-79003222D01*
X93829730Y-78950454D01*
X93887533Y-78919557D01*
X93944147Y-78902384D01*
X94057373Y-78868037D01*
X94123557Y-78861519D01*
X94189740Y-78855000D01*
X94278260Y-78855000D01*
X94344443Y-78861519D01*
X94344443Y-78861519D01*
G37*
G36*
X99424443Y-78861519D02*
X99490627Y-78868037D01*
X99603853Y-78902384D01*
X99660467Y-78919557D01*
X99718270Y-78950454D01*
X99816991Y-79003222D01*
X99852729Y-79032552D01*
X99954186Y-79115814D01*
X100037448Y-79217271D01*
X100066778Y-79253009D01*
X100066779Y-79253011D01*
X100150443Y-79409533D01*
X100150443Y-79409534D01*
X100201963Y-79579373D01*
X100219359Y-79756000D01*
X100201963Y-79932627D01*
X100175111Y-80021145D01*
X100150443Y-80102467D01*
X100105487Y-80186572D01*
X100066778Y-80258991D01*
X100037448Y-80294729D01*
X99954186Y-80396186D01*
X99852729Y-80479448D01*
X99816991Y-80508778D01*
X99816989Y-80508779D01*
X99660467Y-80592443D01*
X99603853Y-80609616D01*
X99490627Y-80643963D01*
X99424443Y-80650481D01*
X99358260Y-80657000D01*
X99269740Y-80657000D01*
X99203557Y-80650481D01*
X99137373Y-80643963D01*
X99024147Y-80609616D01*
X98967533Y-80592443D01*
X98811011Y-80508779D01*
X98811009Y-80508778D01*
X98775271Y-80479448D01*
X98673814Y-80396186D01*
X98590552Y-80294729D01*
X98561222Y-80258991D01*
X98522513Y-80186572D01*
X98477557Y-80102467D01*
X98452889Y-80021145D01*
X98426037Y-79932627D01*
X98408641Y-79756000D01*
X98426037Y-79579373D01*
X98477557Y-79409534D01*
X98477557Y-79409533D01*
X98561221Y-79253011D01*
X98561222Y-79253009D01*
X98590552Y-79217271D01*
X98673814Y-79115814D01*
X98775271Y-79032552D01*
X98811009Y-79003222D01*
X98909730Y-78950454D01*
X98967533Y-78919557D01*
X99024147Y-78902384D01*
X99137373Y-78868037D01*
X99203557Y-78861519D01*
X99269740Y-78855000D01*
X99358260Y-78855000D01*
X99424443Y-78861519D01*
X99424443Y-78861519D01*
G37*
G36*
X128567000Y-80561000D02*
X126449000Y-80561000D01*
X126449000Y-78443000D01*
X128567000Y-78443000D01*
X128567000Y-80561000D01*
X128567000Y-80561000D01*
G37*
G36*
X68570946Y-76595932D02*
X68736373Y-76664454D01*
X68885258Y-76763936D01*
X69011865Y-76890543D01*
X69111347Y-77039428D01*
X69179869Y-77204855D01*
X69214801Y-77380470D01*
X69214801Y-77559530D01*
X69179869Y-77735145D01*
X69111347Y-77900572D01*
X69011865Y-78049457D01*
X68885258Y-78176064D01*
X68736373Y-78275546D01*
X68570946Y-78344068D01*
X68395331Y-78379000D01*
X68216271Y-78379000D01*
X68040656Y-78344068D01*
X67875229Y-78275546D01*
X67726344Y-78176064D01*
X67599737Y-78049457D01*
X67500255Y-77900572D01*
X67439485Y-77753860D01*
X67427934Y-77732249D01*
X67412388Y-77713307D01*
X67393446Y-77697761D01*
X67371836Y-77686210D01*
X67348386Y-77679097D01*
X67324000Y-77676695D01*
X67299614Y-77679097D01*
X67276165Y-77686210D01*
X67254554Y-77697761D01*
X67235612Y-77713307D01*
X67220066Y-77732249D01*
X67208515Y-77753859D01*
X67201402Y-77777309D01*
X67199000Y-77801695D01*
X67199000Y-77971000D01*
X65897000Y-77971000D01*
X65897000Y-76969000D01*
X67199000Y-76969000D01*
X67199000Y-77138305D01*
X67201402Y-77162691D01*
X67208515Y-77186140D01*
X67220066Y-77207751D01*
X67235612Y-77226693D01*
X67254554Y-77242239D01*
X67276165Y-77253790D01*
X67299614Y-77260903D01*
X67324000Y-77263305D01*
X67348386Y-77260903D01*
X67371835Y-77253790D01*
X67393446Y-77242239D01*
X67412388Y-77226693D01*
X67427934Y-77207751D01*
X67439485Y-77186140D01*
X67500255Y-77039428D01*
X67599737Y-76890543D01*
X67726344Y-76763936D01*
X67875229Y-76664454D01*
X68040656Y-76595932D01*
X68216271Y-76561000D01*
X68395331Y-76561000D01*
X68570946Y-76595932D01*
X68570946Y-76595932D01*
G37*
G36*
X120417000Y-78150000D02*
X119115000Y-78150000D01*
X119115000Y-77298000D01*
X120417000Y-77298000D01*
X120417000Y-78150000D01*
X120417000Y-78150000D01*
G37*
G36*
X122317000Y-78150000D02*
X121015000Y-78150000D01*
X121015000Y-77298000D01*
X122317000Y-77298000D01*
X122317000Y-78150000D01*
X122317000Y-78150000D01*
G37*
G36*
X75322145Y-76341932D02*
X75487572Y-76410454D01*
X75636457Y-76509936D01*
X75763064Y-76636543D01*
X75862546Y-76785428D01*
X75931068Y-76950855D01*
X75966000Y-77126470D01*
X75966000Y-77305530D01*
X75931068Y-77481145D01*
X75862546Y-77646572D01*
X75763064Y-77795457D01*
X75636457Y-77922064D01*
X75487572Y-78021546D01*
X75322145Y-78090068D01*
X75146530Y-78125000D01*
X74967470Y-78125000D01*
X74791855Y-78090068D01*
X74626428Y-78021546D01*
X74477543Y-77922064D01*
X74350936Y-77795457D01*
X74251454Y-77646572D01*
X74182932Y-77481145D01*
X74148000Y-77305530D01*
X74148000Y-77126470D01*
X74182932Y-76950855D01*
X74251454Y-76785428D01*
X74350936Y-76636543D01*
X74477543Y-76509936D01*
X74626428Y-76410454D01*
X74791855Y-76341932D01*
X74967470Y-76307000D01*
X75146530Y-76307000D01*
X75322145Y-76341932D01*
X75322145Y-76341932D01*
G37*
G36*
X127816896Y-75943696D02*
X127816898Y-75943697D01*
X127816899Y-75943697D01*
X128009625Y-76023526D01*
X128182291Y-76138898D01*
X128183076Y-76139423D01*
X128330577Y-76286924D01*
X128330579Y-76286927D01*
X128446474Y-76460375D01*
X128526303Y-76653101D01*
X128526304Y-76653104D01*
X128567000Y-76857696D01*
X128567000Y-77066304D01*
X128528292Y-77260903D01*
X128526303Y-77270899D01*
X128446474Y-77463625D01*
X128331102Y-77636291D01*
X128330577Y-77637076D01*
X128183076Y-77784577D01*
X128183073Y-77784579D01*
X128009625Y-77900474D01*
X127816899Y-77980303D01*
X127816898Y-77980303D01*
X127816896Y-77980304D01*
X127612304Y-78021000D01*
X127403696Y-78021000D01*
X127199104Y-77980304D01*
X127199102Y-77980303D01*
X127199101Y-77980303D01*
X127006375Y-77900474D01*
X126832927Y-77784579D01*
X126832924Y-77784577D01*
X126685423Y-77637076D01*
X126684898Y-77636291D01*
X126569526Y-77463625D01*
X126489697Y-77270899D01*
X126487709Y-77260903D01*
X126449000Y-77066304D01*
X126449000Y-76857696D01*
X126489696Y-76653104D01*
X126489697Y-76653101D01*
X126569526Y-76460375D01*
X126685421Y-76286927D01*
X126685423Y-76286924D01*
X126832924Y-76139423D01*
X126833709Y-76138898D01*
X127006375Y-76023526D01*
X127199101Y-75943697D01*
X127199102Y-75943697D01*
X127199104Y-75943696D01*
X127403696Y-75903000D01*
X127612304Y-75903000D01*
X127816896Y-75943696D01*
X127816896Y-75943696D01*
G37*
G36*
X64999000Y-77971000D02*
X63697000Y-77971000D01*
X63697000Y-76969000D01*
X64999000Y-76969000D01*
X64999000Y-77971000D01*
X64999000Y-77971000D01*
G37*
G36*
X65299000Y-76372000D02*
X63997000Y-76372000D01*
X63997000Y-75520000D01*
X65299000Y-75520000D01*
X65299000Y-76372000D01*
X65299000Y-76372000D01*
G37*
G36*
X67199000Y-76372000D02*
X65897000Y-76372000D01*
X65897000Y-75520000D01*
X67199000Y-75520000D01*
X67199000Y-76372000D01*
X67199000Y-76372000D01*
G37*
G36*
X70161000Y-74154504D02*
X70163402Y-74178890D01*
X70170515Y-74202339D01*
X70182066Y-74223950D01*
X70197612Y-74242892D01*
X70216554Y-74258438D01*
X70238165Y-74269989D01*
X70261614Y-74277102D01*
X70286000Y-74279504D01*
X70310386Y-74277102D01*
X70333835Y-74269989D01*
X70355446Y-74258438D01*
X70374388Y-74242892D01*
X70393344Y-74223936D01*
X70542229Y-74124454D01*
X70707656Y-74055932D01*
X70883271Y-74021000D01*
X71062331Y-74021000D01*
X71237946Y-74055932D01*
X71403373Y-74124454D01*
X71552258Y-74223936D01*
X71678865Y-74350543D01*
X71778347Y-74499428D01*
X71846869Y-74664855D01*
X71881801Y-74840470D01*
X71881801Y-75019530D01*
X71846869Y-75195145D01*
X71778347Y-75360572D01*
X71678865Y-75509457D01*
X71552258Y-75636064D01*
X71403373Y-75735546D01*
X71237946Y-75804068D01*
X71062331Y-75839000D01*
X70883271Y-75839000D01*
X70707656Y-75804068D01*
X70542229Y-75735546D01*
X70393344Y-75636064D01*
X70266737Y-75509457D01*
X70167255Y-75360572D01*
X70098733Y-75195145D01*
X70063801Y-75019530D01*
X70063801Y-74840470D01*
X70098733Y-74664857D01*
X70130636Y-74587836D01*
X70137749Y-74564387D01*
X70140151Y-74540001D01*
X70137749Y-74515614D01*
X70130636Y-74492165D01*
X70119085Y-74470554D01*
X70103540Y-74451612D01*
X70084598Y-74436067D01*
X70062987Y-74424515D01*
X70039538Y-74417402D01*
X70015151Y-74415000D01*
X68859000Y-74415000D01*
X68859000Y-73413000D01*
X70161000Y-73413000D01*
X70161000Y-74154504D01*
X70161000Y-74154504D01*
G37*
G36*
X125469000Y-75665000D02*
X124467000Y-75665000D01*
X124467000Y-74363000D01*
X125469000Y-74363000D01*
X125469000Y-75665000D01*
X125469000Y-75665000D01*
G37*
G36*
X77989145Y-73801932D02*
X78154572Y-73870454D01*
X78303457Y-73969936D01*
X78430064Y-74096543D01*
X78529546Y-74245428D01*
X78598068Y-74410855D01*
X78633000Y-74586470D01*
X78633000Y-74765530D01*
X78598068Y-74941145D01*
X78529546Y-75106572D01*
X78430064Y-75255457D01*
X78303457Y-75382064D01*
X78154572Y-75481546D01*
X77989145Y-75550068D01*
X77813530Y-75585000D01*
X77634470Y-75585000D01*
X77458855Y-75550068D01*
X77293428Y-75481546D01*
X77144543Y-75382064D01*
X77017936Y-75255457D01*
X76918454Y-75106572D01*
X76849932Y-74941145D01*
X76815000Y-74765530D01*
X76815000Y-74586470D01*
X76849932Y-74410855D01*
X76918454Y-74245428D01*
X77017936Y-74096543D01*
X77144543Y-73969936D01*
X77293428Y-73870454D01*
X77458855Y-73801932D01*
X77634470Y-73767000D01*
X77813530Y-73767000D01*
X77989145Y-73801932D01*
X77989145Y-73801932D01*
G37*
G36*
X63418000Y-75581000D02*
X62566000Y-75581000D01*
X62566000Y-74279000D01*
X63418000Y-74279000D01*
X63418000Y-75581000D01*
X63418000Y-75581000D01*
G37*
G36*
X123945000Y-75581000D02*
X122943000Y-75581000D01*
X122943000Y-74279000D01*
X123945000Y-74279000D01*
X123945000Y-75581000D01*
X123945000Y-75581000D01*
G37*
G36*
X127816896Y-73403696D02*
X127816898Y-73403697D01*
X127816899Y-73403697D01*
X128009625Y-73483526D01*
X128182291Y-73598898D01*
X128183076Y-73599423D01*
X128330577Y-73746924D01*
X128330579Y-73746927D01*
X128446474Y-73920375D01*
X128526303Y-74113101D01*
X128526304Y-74113104D01*
X128567000Y-74317696D01*
X128567000Y-74526304D01*
X128559425Y-74564387D01*
X128526303Y-74730899D01*
X128446474Y-74923625D01*
X128331102Y-75096291D01*
X128330577Y-75097076D01*
X128183076Y-75244577D01*
X128183073Y-75244579D01*
X128009625Y-75360474D01*
X127816899Y-75440303D01*
X127816898Y-75440303D01*
X127816896Y-75440304D01*
X127612304Y-75481000D01*
X127403696Y-75481000D01*
X127199104Y-75440304D01*
X127199102Y-75440303D01*
X127199101Y-75440303D01*
X127006375Y-75360474D01*
X126832927Y-75244579D01*
X126832924Y-75244577D01*
X126685423Y-75097076D01*
X126684898Y-75096291D01*
X126569526Y-74923625D01*
X126489697Y-74730899D01*
X126456576Y-74564387D01*
X126449000Y-74526304D01*
X126449000Y-74317696D01*
X126489696Y-74113104D01*
X126489697Y-74113101D01*
X126569526Y-73920375D01*
X126685421Y-73746927D01*
X126685423Y-73746924D01*
X126832924Y-73599423D01*
X126833709Y-73598898D01*
X127006375Y-73483526D01*
X127199101Y-73403697D01*
X127199102Y-73403697D01*
X127199104Y-73403696D01*
X127403696Y-73363000D01*
X127612304Y-73363000D01*
X127816896Y-73403696D01*
X127816896Y-73403696D01*
G37*
G36*
X120371000Y-75431000D02*
X119069000Y-75431000D01*
X119069000Y-74429000D01*
X120371000Y-74429000D01*
X120371000Y-75431000D01*
X120371000Y-75431000D01*
G37*
G36*
X122571000Y-75431000D02*
X121269000Y-75431000D01*
X121269000Y-74429000D01*
X122571000Y-74429000D01*
X122571000Y-75431000D01*
X122571000Y-75431000D01*
G37*
G36*
X68570946Y-71515932D02*
X68736373Y-71584454D01*
X68885258Y-71683936D01*
X69011865Y-71810543D01*
X69111347Y-71959428D01*
X69179869Y-72124855D01*
X69214801Y-72300470D01*
X69214801Y-72479530D01*
X69179869Y-72655145D01*
X69111347Y-72820572D01*
X69011865Y-72969457D01*
X68885258Y-73096064D01*
X68753554Y-73184066D01*
X68734612Y-73199612D01*
X68728223Y-73207397D01*
X68709614Y-73209230D01*
X68686165Y-73216343D01*
X68570946Y-73264068D01*
X68395331Y-73299000D01*
X68216271Y-73299000D01*
X68110386Y-73277938D01*
X68086000Y-73275536D01*
X68061614Y-73277938D01*
X68038165Y-73285051D01*
X68016554Y-73296602D01*
X67997612Y-73312148D01*
X67982066Y-73331090D01*
X67970515Y-73352700D01*
X67963402Y-73376150D01*
X67961000Y-73400536D01*
X67961000Y-74415000D01*
X66654000Y-74415000D01*
X66629614Y-74417402D01*
X66606165Y-74424515D01*
X66584554Y-74436066D01*
X66565612Y-74451612D01*
X66550066Y-74470554D01*
X66538515Y-74492165D01*
X66531402Y-74515614D01*
X66529000Y-74540000D01*
X66529000Y-74604000D01*
X64027000Y-74604000D01*
X64027000Y-73052000D01*
X66529000Y-73052000D01*
X66529000Y-73288000D01*
X66531402Y-73312386D01*
X66538515Y-73335835D01*
X66550066Y-73357446D01*
X66565612Y-73376388D01*
X66584554Y-73391934D01*
X66606165Y-73403485D01*
X66629614Y-73410598D01*
X66654000Y-73413000D01*
X67788602Y-73413000D01*
X67812988Y-73410598D01*
X67836437Y-73403485D01*
X67858048Y-73391934D01*
X67876990Y-73376388D01*
X67892536Y-73357446D01*
X67904087Y-73335835D01*
X67911200Y-73312386D01*
X67913602Y-73288000D01*
X67911200Y-73263614D01*
X67904087Y-73240165D01*
X67892536Y-73218554D01*
X67876990Y-73199612D01*
X67858048Y-73184066D01*
X67726344Y-73096064D01*
X67599737Y-72969457D01*
X67500255Y-72820572D01*
X67431733Y-72655145D01*
X67396801Y-72479530D01*
X67396801Y-72300470D01*
X67431733Y-72124855D01*
X67500255Y-71959428D01*
X67599737Y-71810543D01*
X67726344Y-71683936D01*
X67875229Y-71584454D01*
X68040656Y-71515932D01*
X68216271Y-71481000D01*
X68395331Y-71481000D01*
X68570946Y-71515932D01*
X68570946Y-71515932D01*
G37*
G36*
X120455000Y-74161000D02*
X119153000Y-74161000D01*
X119153000Y-73159000D01*
X120455000Y-73159000D01*
X120455000Y-74161000D01*
X120455000Y-74161000D01*
G37*
G36*
X122655000Y-74161000D02*
X121353000Y-74161000D01*
X121353000Y-73159000D01*
X122655000Y-73159000D01*
X122655000Y-74161000D01*
X122655000Y-74161000D01*
G37*
G36*
X63418000Y-73681000D02*
X62566000Y-73681000D01*
X62566000Y-70845000D01*
X63418000Y-70845000D01*
X63418000Y-73681000D01*
X63418000Y-73681000D01*
G37*
G36*
X125469000Y-73465000D02*
X124467000Y-73465000D01*
X124467000Y-72163000D01*
X125469000Y-72163000D01*
X125469000Y-73465000D01*
X125469000Y-73465000D01*
G37*
G36*
X123945000Y-73381000D02*
X122943000Y-73381000D01*
X122943000Y-72079000D01*
X123945000Y-72079000D01*
X123945000Y-73381000D01*
X123945000Y-73381000D01*
G37*
G36*
X127816896Y-70863696D02*
X127816898Y-70863697D01*
X127816899Y-70863697D01*
X128009625Y-70943526D01*
X128182291Y-71058898D01*
X128183076Y-71059423D01*
X128330577Y-71206924D01*
X128330579Y-71206927D01*
X128446474Y-71380375D01*
X128526303Y-71573101D01*
X128526304Y-71573104D01*
X128567000Y-71777696D01*
X128567000Y-71986304D01*
X128531853Y-72163000D01*
X128526303Y-72190899D01*
X128446474Y-72383625D01*
X128331102Y-72556291D01*
X128330577Y-72557076D01*
X128183076Y-72704577D01*
X128183073Y-72704579D01*
X128009625Y-72820474D01*
X127816899Y-72900303D01*
X127816898Y-72900303D01*
X127816896Y-72900304D01*
X127612304Y-72941000D01*
X127403696Y-72941000D01*
X127199104Y-72900304D01*
X127199102Y-72900303D01*
X127199101Y-72900303D01*
X127006375Y-72820474D01*
X126832927Y-72704579D01*
X126832924Y-72704577D01*
X126685423Y-72557076D01*
X126684898Y-72556291D01*
X126569526Y-72383625D01*
X126489697Y-72190899D01*
X126484148Y-72163000D01*
X126449000Y-71986304D01*
X126449000Y-71777696D01*
X126489696Y-71573104D01*
X126489697Y-71573101D01*
X126569526Y-71380375D01*
X126685421Y-71206927D01*
X126685423Y-71206924D01*
X126832924Y-71059423D01*
X126833709Y-71058898D01*
X127006375Y-70943526D01*
X127199101Y-70863697D01*
X127199102Y-70863697D01*
X127199104Y-70863696D01*
X127403696Y-70823000D01*
X127612304Y-70823000D01*
X127816896Y-70863696D01*
X127816896Y-70863696D01*
G37*
G36*
X116504000Y-72721000D02*
X115652000Y-72721000D01*
X115652000Y-71419000D01*
X116504000Y-71419000D01*
X116504000Y-72721000D01*
X116504000Y-72721000D01*
G37*
G36*
X121561000Y-72446000D02*
X119899000Y-72446000D01*
X119899000Y-69794000D01*
X121561000Y-69794000D01*
X121561000Y-72446000D01*
X121561000Y-72446000D01*
G37*
G36*
X118861000Y-72446000D02*
X117199000Y-72446000D01*
X117199000Y-69794000D01*
X118861000Y-69794000D01*
X118861000Y-72446000D01*
X118861000Y-72446000D01*
G37*
G36*
X75731821Y-70281313D02*
X75731824Y-70281314D01*
X75731825Y-70281314D01*
X75892239Y-70329975D01*
X75892241Y-70329976D01*
X75892244Y-70329977D01*
X76040078Y-70408995D01*
X76169659Y-70515341D01*
X76276005Y-70644922D01*
X76355023Y-70792756D01*
X76355024Y-70792759D01*
X76355025Y-70792761D01*
X76376543Y-70863696D01*
X76403687Y-70953179D01*
X76420117Y-71120000D01*
X76403687Y-71286821D01*
X76355023Y-71447244D01*
X76276005Y-71595078D01*
X76169659Y-71724659D01*
X76040078Y-71831005D01*
X75892244Y-71910023D01*
X75892241Y-71910024D01*
X75892239Y-71910025D01*
X75731825Y-71958686D01*
X75731824Y-71958686D01*
X75731821Y-71958687D01*
X75606804Y-71971000D01*
X75523196Y-71971000D01*
X75398179Y-71958687D01*
X75398176Y-71958686D01*
X75398175Y-71958686D01*
X75237761Y-71910025D01*
X75237759Y-71910024D01*
X75237756Y-71910023D01*
X75089922Y-71831005D01*
X74960341Y-71724659D01*
X74853995Y-71595078D01*
X74774977Y-71447244D01*
X74726313Y-71286821D01*
X74709883Y-71120000D01*
X74726313Y-70953179D01*
X74753457Y-70863696D01*
X74774975Y-70792761D01*
X74774976Y-70792759D01*
X74774977Y-70792756D01*
X74853995Y-70644922D01*
X74960341Y-70515341D01*
X75089922Y-70408995D01*
X75237756Y-70329977D01*
X75237759Y-70329976D01*
X75237761Y-70329975D01*
X75398175Y-70281314D01*
X75398176Y-70281314D01*
X75398179Y-70281313D01*
X75523196Y-70269000D01*
X75606804Y-70269000D01*
X75731821Y-70281313D01*
X75731821Y-70281313D01*
G37*
G36*
X111291821Y-70281313D02*
X111291824Y-70281314D01*
X111291825Y-70281314D01*
X111452239Y-70329975D01*
X111452241Y-70329976D01*
X111452244Y-70329977D01*
X111600078Y-70408995D01*
X111729659Y-70515341D01*
X111836005Y-70644922D01*
X111915023Y-70792756D01*
X111915024Y-70792759D01*
X111915025Y-70792761D01*
X111936543Y-70863696D01*
X111963687Y-70953179D01*
X111980117Y-71120000D01*
X111963687Y-71286821D01*
X111915023Y-71447244D01*
X111836005Y-71595078D01*
X111729659Y-71724659D01*
X111600078Y-71831005D01*
X111452244Y-71910023D01*
X111452241Y-71910024D01*
X111452239Y-71910025D01*
X111291825Y-71958686D01*
X111291824Y-71958686D01*
X111291821Y-71958687D01*
X111166804Y-71971000D01*
X111083196Y-71971000D01*
X110958179Y-71958687D01*
X110958176Y-71958686D01*
X110958175Y-71958686D01*
X110797761Y-71910025D01*
X110797759Y-71910024D01*
X110797756Y-71910023D01*
X110649922Y-71831005D01*
X110520341Y-71724659D01*
X110413995Y-71595078D01*
X110334977Y-71447244D01*
X110286313Y-71286821D01*
X110269883Y-71120000D01*
X110286313Y-70953179D01*
X110313457Y-70863696D01*
X110334975Y-70792761D01*
X110334976Y-70792759D01*
X110334977Y-70792756D01*
X110413995Y-70644922D01*
X110520341Y-70515341D01*
X110649922Y-70408995D01*
X110797756Y-70329977D01*
X110797759Y-70329976D01*
X110797761Y-70329975D01*
X110958175Y-70281314D01*
X110958176Y-70281314D01*
X110958179Y-70281313D01*
X111083196Y-70269000D01*
X111166804Y-70269000D01*
X111291821Y-70281313D01*
X111291821Y-70281313D01*
G37*
G36*
X102401821Y-70281313D02*
X102401824Y-70281314D01*
X102401825Y-70281314D01*
X102562239Y-70329975D01*
X102562241Y-70329976D01*
X102562244Y-70329977D01*
X102710078Y-70408995D01*
X102839659Y-70515341D01*
X102946005Y-70644922D01*
X103025023Y-70792756D01*
X103025024Y-70792759D01*
X103025025Y-70792761D01*
X103046543Y-70863696D01*
X103073687Y-70953179D01*
X103090117Y-71120000D01*
X103073687Y-71286821D01*
X103025023Y-71447244D01*
X102946005Y-71595078D01*
X102839659Y-71724659D01*
X102710078Y-71831005D01*
X102562244Y-71910023D01*
X102562241Y-71910024D01*
X102562239Y-71910025D01*
X102401825Y-71958686D01*
X102401824Y-71958686D01*
X102401821Y-71958687D01*
X102276804Y-71971000D01*
X102193196Y-71971000D01*
X102068179Y-71958687D01*
X102068176Y-71958686D01*
X102068175Y-71958686D01*
X101907761Y-71910025D01*
X101907759Y-71910024D01*
X101907756Y-71910023D01*
X101759922Y-71831005D01*
X101630341Y-71724659D01*
X101523995Y-71595078D01*
X101444977Y-71447244D01*
X101396313Y-71286821D01*
X101379883Y-71120000D01*
X101396313Y-70953179D01*
X101423457Y-70863696D01*
X101444975Y-70792761D01*
X101444976Y-70792759D01*
X101444977Y-70792756D01*
X101523995Y-70644922D01*
X101630341Y-70515341D01*
X101759922Y-70408995D01*
X101907756Y-70329977D01*
X101907759Y-70329976D01*
X101907761Y-70329975D01*
X102068175Y-70281314D01*
X102068176Y-70281314D01*
X102068179Y-70281313D01*
X102193196Y-70269000D01*
X102276804Y-70269000D01*
X102401821Y-70281313D01*
X102401821Y-70281313D01*
G37*
G36*
X98591821Y-70281313D02*
X98591824Y-70281314D01*
X98591825Y-70281314D01*
X98752239Y-70329975D01*
X98752241Y-70329976D01*
X98752244Y-70329977D01*
X98900078Y-70408995D01*
X99029659Y-70515341D01*
X99136005Y-70644922D01*
X99215023Y-70792756D01*
X99215024Y-70792759D01*
X99215025Y-70792761D01*
X99236543Y-70863696D01*
X99263687Y-70953179D01*
X99280117Y-71120000D01*
X99263687Y-71286821D01*
X99215023Y-71447244D01*
X99136005Y-71595078D01*
X99029659Y-71724659D01*
X98900078Y-71831005D01*
X98752244Y-71910023D01*
X98752241Y-71910024D01*
X98752239Y-71910025D01*
X98591825Y-71958686D01*
X98591824Y-71958686D01*
X98591821Y-71958687D01*
X98466804Y-71971000D01*
X98383196Y-71971000D01*
X98258179Y-71958687D01*
X98258176Y-71958686D01*
X98258175Y-71958686D01*
X98097761Y-71910025D01*
X98097759Y-71910024D01*
X98097756Y-71910023D01*
X97949922Y-71831005D01*
X97820341Y-71724659D01*
X97713995Y-71595078D01*
X97634977Y-71447244D01*
X97586313Y-71286821D01*
X97569883Y-71120000D01*
X97586313Y-70953179D01*
X97613457Y-70863696D01*
X97634975Y-70792761D01*
X97634976Y-70792759D01*
X97634977Y-70792756D01*
X97713995Y-70644922D01*
X97820341Y-70515341D01*
X97949922Y-70408995D01*
X98097756Y-70329977D01*
X98097759Y-70329976D01*
X98097761Y-70329975D01*
X98258175Y-70281314D01*
X98258176Y-70281314D01*
X98258179Y-70281313D01*
X98383196Y-70269000D01*
X98466804Y-70269000D01*
X98591821Y-70281313D01*
X98591821Y-70281313D01*
G37*
G36*
X84621821Y-70281313D02*
X84621824Y-70281314D01*
X84621825Y-70281314D01*
X84782239Y-70329975D01*
X84782241Y-70329976D01*
X84782244Y-70329977D01*
X84930078Y-70408995D01*
X85059659Y-70515341D01*
X85166005Y-70644922D01*
X85245023Y-70792756D01*
X85245024Y-70792759D01*
X85245025Y-70792761D01*
X85266543Y-70863696D01*
X85293687Y-70953179D01*
X85310117Y-71120000D01*
X85293687Y-71286821D01*
X85245023Y-71447244D01*
X85166005Y-71595078D01*
X85059659Y-71724659D01*
X84930078Y-71831005D01*
X84782244Y-71910023D01*
X84782241Y-71910024D01*
X84782239Y-71910025D01*
X84621825Y-71958686D01*
X84621824Y-71958686D01*
X84621821Y-71958687D01*
X84496804Y-71971000D01*
X84413196Y-71971000D01*
X84288179Y-71958687D01*
X84288176Y-71958686D01*
X84288175Y-71958686D01*
X84127761Y-71910025D01*
X84127759Y-71910024D01*
X84127756Y-71910023D01*
X83979922Y-71831005D01*
X83850341Y-71724659D01*
X83743995Y-71595078D01*
X83664977Y-71447244D01*
X83616313Y-71286821D01*
X83599883Y-71120000D01*
X83616313Y-70953179D01*
X83643457Y-70863696D01*
X83664975Y-70792761D01*
X83664976Y-70792759D01*
X83664977Y-70792756D01*
X83743995Y-70644922D01*
X83850341Y-70515341D01*
X83979922Y-70408995D01*
X84127756Y-70329977D01*
X84127759Y-70329976D01*
X84127761Y-70329975D01*
X84288175Y-70281314D01*
X84288176Y-70281314D01*
X84288179Y-70281313D01*
X84413196Y-70269000D01*
X84496804Y-70269000D01*
X84621821Y-70281313D01*
X84621821Y-70281313D01*
G37*
G36*
X107481821Y-70281313D02*
X107481824Y-70281314D01*
X107481825Y-70281314D01*
X107642239Y-70329975D01*
X107642241Y-70329976D01*
X107642244Y-70329977D01*
X107790078Y-70408995D01*
X107919659Y-70515341D01*
X108026005Y-70644922D01*
X108105023Y-70792756D01*
X108105024Y-70792759D01*
X108105025Y-70792761D01*
X108126543Y-70863696D01*
X108153687Y-70953179D01*
X108170117Y-71120000D01*
X108153687Y-71286821D01*
X108105023Y-71447244D01*
X108026005Y-71595078D01*
X107919659Y-71724659D01*
X107790078Y-71831005D01*
X107642244Y-71910023D01*
X107642241Y-71910024D01*
X107642239Y-71910025D01*
X107481825Y-71958686D01*
X107481824Y-71958686D01*
X107481821Y-71958687D01*
X107356804Y-71971000D01*
X107273196Y-71971000D01*
X107148179Y-71958687D01*
X107148176Y-71958686D01*
X107148175Y-71958686D01*
X106987761Y-71910025D01*
X106987759Y-71910024D01*
X106987756Y-71910023D01*
X106839922Y-71831005D01*
X106710341Y-71724659D01*
X106603995Y-71595078D01*
X106524977Y-71447244D01*
X106476313Y-71286821D01*
X106459883Y-71120000D01*
X106476313Y-70953179D01*
X106503457Y-70863696D01*
X106524975Y-70792761D01*
X106524976Y-70792759D01*
X106524977Y-70792756D01*
X106603995Y-70644922D01*
X106710341Y-70515341D01*
X106839922Y-70408995D01*
X106987756Y-70329977D01*
X106987759Y-70329976D01*
X106987761Y-70329975D01*
X107148175Y-70281314D01*
X107148176Y-70281314D01*
X107148179Y-70281313D01*
X107273196Y-70269000D01*
X107356804Y-70269000D01*
X107481821Y-70281313D01*
X107481821Y-70281313D01*
G37*
G36*
X79541821Y-70281313D02*
X79541824Y-70281314D01*
X79541825Y-70281314D01*
X79702239Y-70329975D01*
X79702241Y-70329976D01*
X79702244Y-70329977D01*
X79850078Y-70408995D01*
X79979659Y-70515341D01*
X80086005Y-70644922D01*
X80165023Y-70792756D01*
X80165024Y-70792759D01*
X80165025Y-70792761D01*
X80186543Y-70863696D01*
X80213687Y-70953179D01*
X80230117Y-71120000D01*
X80213687Y-71286821D01*
X80165023Y-71447244D01*
X80086005Y-71595078D01*
X79979659Y-71724659D01*
X79850078Y-71831005D01*
X79702244Y-71910023D01*
X79702241Y-71910024D01*
X79702239Y-71910025D01*
X79541825Y-71958686D01*
X79541824Y-71958686D01*
X79541821Y-71958687D01*
X79416804Y-71971000D01*
X79333196Y-71971000D01*
X79208179Y-71958687D01*
X79208176Y-71958686D01*
X79208175Y-71958686D01*
X79047761Y-71910025D01*
X79047759Y-71910024D01*
X79047756Y-71910023D01*
X78899922Y-71831005D01*
X78770341Y-71724659D01*
X78663995Y-71595078D01*
X78584977Y-71447244D01*
X78536313Y-71286821D01*
X78519883Y-71120000D01*
X78536313Y-70953179D01*
X78563457Y-70863696D01*
X78584975Y-70792761D01*
X78584976Y-70792759D01*
X78584977Y-70792756D01*
X78663995Y-70644922D01*
X78770341Y-70515341D01*
X78899922Y-70408995D01*
X79047756Y-70329977D01*
X79047759Y-70329976D01*
X79047761Y-70329975D01*
X79208175Y-70281314D01*
X79208176Y-70281314D01*
X79208179Y-70281313D01*
X79333196Y-70269000D01*
X79416804Y-70269000D01*
X79541821Y-70281313D01*
X79541821Y-70281313D01*
G37*
G36*
X88431821Y-70281313D02*
X88431824Y-70281314D01*
X88431825Y-70281314D01*
X88592239Y-70329975D01*
X88592241Y-70329976D01*
X88592244Y-70329977D01*
X88740078Y-70408995D01*
X88869659Y-70515341D01*
X88976005Y-70644922D01*
X89055023Y-70792756D01*
X89055024Y-70792759D01*
X89055025Y-70792761D01*
X89076543Y-70863696D01*
X89103687Y-70953179D01*
X89120117Y-71120000D01*
X89103687Y-71286821D01*
X89055023Y-71447244D01*
X88976005Y-71595078D01*
X88869659Y-71724659D01*
X88740078Y-71831005D01*
X88592244Y-71910023D01*
X88592241Y-71910024D01*
X88592239Y-71910025D01*
X88431825Y-71958686D01*
X88431824Y-71958686D01*
X88431821Y-71958687D01*
X88306804Y-71971000D01*
X88223196Y-71971000D01*
X88098179Y-71958687D01*
X88098176Y-71958686D01*
X88098175Y-71958686D01*
X87937761Y-71910025D01*
X87937759Y-71910024D01*
X87937756Y-71910023D01*
X87789922Y-71831005D01*
X87660341Y-71724659D01*
X87553995Y-71595078D01*
X87474977Y-71447244D01*
X87426313Y-71286821D01*
X87409883Y-71120000D01*
X87426313Y-70953179D01*
X87453457Y-70863696D01*
X87474975Y-70792761D01*
X87474976Y-70792759D01*
X87474977Y-70792756D01*
X87553995Y-70644922D01*
X87660341Y-70515341D01*
X87789922Y-70408995D01*
X87937756Y-70329977D01*
X87937759Y-70329976D01*
X87937761Y-70329975D01*
X88098175Y-70281314D01*
X88098176Y-70281314D01*
X88098179Y-70281313D01*
X88223196Y-70269000D01*
X88306804Y-70269000D01*
X88431821Y-70281313D01*
X88431821Y-70281313D01*
G37*
G36*
X61715000Y-71939000D02*
X60713000Y-71939000D01*
X60713000Y-70637000D01*
X61715000Y-70637000D01*
X61715000Y-71939000D01*
X61715000Y-71939000D01*
G37*
G36*
X77971000Y-71771000D02*
X76969000Y-71771000D01*
X76969000Y-70469000D01*
X77971000Y-70469000D01*
X77971000Y-71771000D01*
X77971000Y-71771000D01*
G37*
G36*
X86861000Y-71771000D02*
X85859000Y-71771000D01*
X85859000Y-70469000D01*
X86861000Y-70469000D01*
X86861000Y-71771000D01*
X86861000Y-71771000D01*
G37*
G36*
X100831000Y-71771000D02*
X99829000Y-71771000D01*
X99829000Y-70469000D01*
X100831000Y-70469000D01*
X100831000Y-71771000D01*
X100831000Y-71771000D01*
G37*
G36*
X109721000Y-71771000D02*
X108719000Y-71771000D01*
X108719000Y-70469000D01*
X109721000Y-70469000D01*
X109721000Y-71771000D01*
X109721000Y-71771000D01*
G37*
G36*
X124770000Y-71523000D02*
X122118000Y-71523000D01*
X122118000Y-69861000D01*
X124770000Y-69861000D01*
X124770000Y-71523000D01*
X124770000Y-71523000D01*
G37*
G36*
X116504000Y-70821000D02*
X115652000Y-70821000D01*
X115652000Y-69519000D01*
X116504000Y-69519000D01*
X116504000Y-70821000D01*
X116504000Y-70821000D01*
G37*
G36*
X70859000Y-70585000D02*
X69857000Y-70585000D01*
X69857000Y-69283000D01*
X70859000Y-69283000D01*
X70859000Y-70585000D01*
X70859000Y-70585000D01*
G37*
G36*
X72308000Y-70501000D02*
X71456000Y-70501000D01*
X71456000Y-69199000D01*
X72308000Y-69199000D01*
X72308000Y-70501000D01*
X72308000Y-70501000D01*
G37*
G36*
X127816896Y-68323696D02*
X127816898Y-68323697D01*
X127816899Y-68323697D01*
X128009625Y-68403526D01*
X128182291Y-68518898D01*
X128183076Y-68519423D01*
X128330577Y-68666924D01*
X128330579Y-68666927D01*
X128446474Y-68840375D01*
X128505592Y-68983100D01*
X128526304Y-69033104D01*
X128567000Y-69237696D01*
X128567000Y-69446304D01*
X128552540Y-69519000D01*
X128526303Y-69650899D01*
X128446474Y-69843625D01*
X128331102Y-70016291D01*
X128330577Y-70017076D01*
X128183076Y-70164577D01*
X128183073Y-70164579D01*
X128009625Y-70280474D01*
X127816899Y-70360303D01*
X127816898Y-70360303D01*
X127816896Y-70360304D01*
X127612304Y-70401000D01*
X127403696Y-70401000D01*
X127199104Y-70360304D01*
X127199102Y-70360303D01*
X127199101Y-70360303D01*
X127006375Y-70280474D01*
X126832927Y-70164579D01*
X126832924Y-70164577D01*
X126685423Y-70017076D01*
X126684898Y-70016291D01*
X126569526Y-69843625D01*
X126489697Y-69650899D01*
X126463461Y-69519000D01*
X126449000Y-69446304D01*
X126449000Y-69237696D01*
X126489696Y-69033104D01*
X126510408Y-68983100D01*
X126569526Y-68840375D01*
X126685421Y-68666927D01*
X126685423Y-68666924D01*
X126832924Y-68519423D01*
X126833709Y-68518898D01*
X127006375Y-68403526D01*
X127199101Y-68323697D01*
X127199102Y-68323697D01*
X127199104Y-68323696D01*
X127403696Y-68283000D01*
X127612304Y-68283000D01*
X127816896Y-68323696D01*
X127816896Y-68323696D01*
G37*
G36*
X63418000Y-70247000D02*
X62566000Y-70247000D01*
X62566000Y-68945000D01*
X63418000Y-68945000D01*
X63418000Y-70247000D01*
X63418000Y-70247000D01*
G37*
G36*
X66529000Y-70204000D02*
X64027000Y-70204000D01*
X64027000Y-68652000D01*
X66529000Y-68652000D01*
X66529000Y-70204000D01*
X66529000Y-70204000D01*
G37*
G36*
X126156000Y-70115000D02*
X125304000Y-70115000D01*
X125304000Y-68813000D01*
X126156000Y-68813000D01*
X126156000Y-70115000D01*
X126156000Y-70115000D01*
G37*
G36*
X61715000Y-69739000D02*
X60713000Y-69739000D01*
X60713000Y-68437000D01*
X61715000Y-68437000D01*
X61715000Y-69739000D01*
X61715000Y-69739000D01*
G37*
G36*
X68761896Y-64972695D02*
X68761898Y-64972696D01*
X68761899Y-64972696D01*
X68954625Y-65052525D01*
X69084043Y-65139000D01*
X69128076Y-65168422D01*
X69275577Y-65315923D01*
X69275579Y-65315926D01*
X69391474Y-65489374D01*
X69447778Y-65625306D01*
X69471304Y-65682103D01*
X69512000Y-65886695D01*
X69512000Y-66095303D01*
X69489817Y-66206825D01*
X69471303Y-66299898D01*
X69391474Y-66492624D01*
X69296341Y-66634999D01*
X69275577Y-66666075D01*
X69128076Y-66813576D01*
X69128073Y-66813578D01*
X68954625Y-66929473D01*
X68761899Y-67009302D01*
X68761898Y-67009302D01*
X68761896Y-67009303D01*
X68557304Y-67049999D01*
X68348696Y-67049999D01*
X68144104Y-67009303D01*
X68144102Y-67009302D01*
X68144101Y-67009302D01*
X67951375Y-66929473D01*
X67777927Y-66813578D01*
X67777924Y-66813576D01*
X67750388Y-66786040D01*
X67731446Y-66770494D01*
X67709835Y-66758943D01*
X67686386Y-66751830D01*
X67662000Y-66749428D01*
X67637614Y-66751830D01*
X67614165Y-66758943D01*
X67592554Y-66770494D01*
X67573612Y-66786040D01*
X67558066Y-66804982D01*
X67546515Y-66826593D01*
X67539402Y-66850042D01*
X67537000Y-66874428D01*
X67537000Y-67647570D01*
X67539402Y-67671956D01*
X67546515Y-67695405D01*
X67558066Y-67717016D01*
X67573612Y-67735958D01*
X67592554Y-67751504D01*
X67614165Y-67763055D01*
X67637614Y-67770168D01*
X67662000Y-67772570D01*
X67686386Y-67770168D01*
X67709835Y-67763055D01*
X67731446Y-67751504D01*
X67750388Y-67735958D01*
X67777924Y-67708422D01*
X67832499Y-67671956D01*
X67951375Y-67592525D01*
X68144101Y-67512696D01*
X68144102Y-67512696D01*
X68144104Y-67512695D01*
X68348696Y-67471999D01*
X68557304Y-67471999D01*
X68761896Y-67512695D01*
X68761898Y-67512696D01*
X68761899Y-67512696D01*
X68954625Y-67592525D01*
X69073501Y-67671956D01*
X69128076Y-67708422D01*
X69275577Y-67855923D01*
X69275579Y-67855926D01*
X69391474Y-68029374D01*
X69468362Y-68215000D01*
X69471304Y-68222103D01*
X69512000Y-68426695D01*
X69512000Y-68635303D01*
X69473625Y-68828228D01*
X69471303Y-68839898D01*
X69391474Y-69032624D01*
X69331433Y-69122481D01*
X69275577Y-69206075D01*
X69128076Y-69353576D01*
X69128073Y-69353578D01*
X68954625Y-69469473D01*
X68761899Y-69549302D01*
X68761898Y-69549302D01*
X68761896Y-69549303D01*
X68557304Y-69589999D01*
X68348696Y-69589999D01*
X68144104Y-69549303D01*
X68144102Y-69549302D01*
X68144101Y-69549302D01*
X67951375Y-69469473D01*
X67777927Y-69353578D01*
X67777924Y-69353576D01*
X67630423Y-69206075D01*
X67574567Y-69122481D01*
X67514526Y-69032624D01*
X67434697Y-68839898D01*
X67432376Y-68828228D01*
X67394000Y-68635303D01*
X67394000Y-68426695D01*
X67434696Y-68222103D01*
X67437638Y-68215000D01*
X67514526Y-68029374D01*
X67563261Y-67956437D01*
X67574808Y-67934835D01*
X67581921Y-67911386D01*
X67584323Y-67886999D01*
X67581921Y-67862613D01*
X67574808Y-67839164D01*
X67563257Y-67817553D01*
X67547712Y-67798611D01*
X67528769Y-67783065D01*
X67507159Y-67771514D01*
X67483710Y-67764401D01*
X67459323Y-67761999D01*
X66235000Y-67761999D01*
X66235000Y-66759999D01*
X67459323Y-66759999D01*
X67483709Y-66757597D01*
X67507158Y-66750484D01*
X67528769Y-66738933D01*
X67547711Y-66723387D01*
X67563257Y-66704445D01*
X67574808Y-66682834D01*
X67581921Y-66659385D01*
X67584323Y-66634999D01*
X67581921Y-66610613D01*
X67574808Y-66587164D01*
X67563261Y-66565561D01*
X67514526Y-66492624D01*
X67434697Y-66299898D01*
X67416184Y-66206825D01*
X67394000Y-66095303D01*
X67394000Y-65886695D01*
X67434696Y-65682103D01*
X67458222Y-65625306D01*
X67514526Y-65489374D01*
X67630421Y-65315926D01*
X67630423Y-65315923D01*
X67777924Y-65168422D01*
X67821957Y-65139000D01*
X67951375Y-65052525D01*
X68144101Y-64972696D01*
X68144102Y-64972696D01*
X68144104Y-64972695D01*
X68348696Y-64931999D01*
X68557304Y-64931999D01*
X68761896Y-64972695D01*
X68761896Y-64972695D01*
G37*
G36*
X109721000Y-69571000D02*
X108719000Y-69571000D01*
X108719000Y-68269000D01*
X109721000Y-68269000D01*
X109721000Y-69571000D01*
X109721000Y-69571000D01*
G37*
G36*
X100831000Y-69571000D02*
X99829000Y-69571000D01*
X99829000Y-68269000D01*
X100831000Y-68269000D01*
X100831000Y-69571000D01*
X100831000Y-69571000D01*
G37*
G36*
X86861000Y-69571000D02*
X85859000Y-69571000D01*
X85859000Y-68269000D01*
X86861000Y-68269000D01*
X86861000Y-69571000D01*
X86861000Y-69571000D01*
G37*
G36*
X77971000Y-69571000D02*
X76969000Y-69571000D01*
X76969000Y-68269000D01*
X77971000Y-68269000D01*
X77971000Y-69571000D01*
X77971000Y-69571000D01*
G37*
G36*
X94852443Y-67685519D02*
X94918627Y-67692037D01*
X95031853Y-67726384D01*
X95088467Y-67743557D01*
X95162380Y-67783065D01*
X95244991Y-67827222D01*
X95259542Y-67839164D01*
X95382186Y-67939814D01*
X95455685Y-68029374D01*
X95494778Y-68077009D01*
X95494779Y-68077011D01*
X95578443Y-68233533D01*
X95593448Y-68283000D01*
X95629963Y-68403373D01*
X95647359Y-68580000D01*
X95629963Y-68756627D01*
X95612862Y-68813000D01*
X95578443Y-68926467D01*
X95521700Y-69032624D01*
X95494778Y-69082991D01*
X95465448Y-69118729D01*
X95382186Y-69220186D01*
X95280729Y-69303448D01*
X95244991Y-69332778D01*
X95244989Y-69332779D01*
X95088467Y-69416443D01*
X95040478Y-69431000D01*
X94918627Y-69467963D01*
X94852442Y-69474482D01*
X94786260Y-69481000D01*
X94697740Y-69481000D01*
X94631558Y-69474482D01*
X94565373Y-69467963D01*
X94443522Y-69431000D01*
X94395533Y-69416443D01*
X94239011Y-69332779D01*
X94239009Y-69332778D01*
X94203271Y-69303448D01*
X94101814Y-69220186D01*
X94018552Y-69118729D01*
X93989222Y-69082991D01*
X93962300Y-69032624D01*
X93905557Y-68926467D01*
X93871138Y-68813000D01*
X93854037Y-68756627D01*
X93836641Y-68580000D01*
X93854037Y-68403373D01*
X93890552Y-68283000D01*
X93905557Y-68233533D01*
X93989221Y-68077011D01*
X93989222Y-68077009D01*
X94028315Y-68029374D01*
X94101814Y-67939814D01*
X94224458Y-67839164D01*
X94239009Y-67827222D01*
X94321620Y-67783065D01*
X94395533Y-67743557D01*
X94452147Y-67726384D01*
X94565373Y-67692037D01*
X94631557Y-67685519D01*
X94697740Y-67679000D01*
X94786260Y-67679000D01*
X94852443Y-67685519D01*
X94852443Y-67685519D01*
G37*
G36*
X92312443Y-67685519D02*
X92378627Y-67692037D01*
X92491853Y-67726384D01*
X92548467Y-67743557D01*
X92622380Y-67783065D01*
X92704991Y-67827222D01*
X92719542Y-67839164D01*
X92842186Y-67939814D01*
X92915685Y-68029374D01*
X92954778Y-68077009D01*
X92954779Y-68077011D01*
X93038443Y-68233533D01*
X93053448Y-68283000D01*
X93089963Y-68403373D01*
X93107359Y-68580000D01*
X93089963Y-68756627D01*
X93072862Y-68813000D01*
X93038443Y-68926467D01*
X92981700Y-69032624D01*
X92954778Y-69082991D01*
X92925448Y-69118729D01*
X92842186Y-69220186D01*
X92740729Y-69303448D01*
X92704991Y-69332778D01*
X92704989Y-69332779D01*
X92548467Y-69416443D01*
X92500478Y-69431000D01*
X92378627Y-69467963D01*
X92312442Y-69474482D01*
X92246260Y-69481000D01*
X92157740Y-69481000D01*
X92091558Y-69474482D01*
X92025373Y-69467963D01*
X91903522Y-69431000D01*
X91855533Y-69416443D01*
X91699011Y-69332779D01*
X91699009Y-69332778D01*
X91663271Y-69303448D01*
X91561814Y-69220186D01*
X91478552Y-69118729D01*
X91449222Y-69082991D01*
X91422300Y-69032624D01*
X91365557Y-68926467D01*
X91331138Y-68813000D01*
X91314037Y-68756627D01*
X91296641Y-68580000D01*
X91314037Y-68403373D01*
X91350552Y-68283000D01*
X91365557Y-68233533D01*
X91449221Y-68077011D01*
X91449222Y-68077009D01*
X91488315Y-68029374D01*
X91561814Y-67939814D01*
X91684458Y-67839164D01*
X91699009Y-67827222D01*
X91781620Y-67783065D01*
X91855533Y-67743557D01*
X91912147Y-67726384D01*
X92025373Y-67692037D01*
X92091557Y-67685519D01*
X92157740Y-67679000D01*
X92246260Y-67679000D01*
X92312443Y-67685519D01*
X92312443Y-67685519D01*
G37*
G36*
X84703228Y-67761703D02*
X84858100Y-67825853D01*
X84997481Y-67918985D01*
X85116015Y-68037519D01*
X85209147Y-68176900D01*
X85273297Y-68331772D01*
X85306000Y-68496184D01*
X85306000Y-68663816D01*
X85273297Y-68828228D01*
X85209147Y-68983100D01*
X85116015Y-69122481D01*
X84997481Y-69241015D01*
X84858100Y-69334147D01*
X84703228Y-69398297D01*
X84538816Y-69431000D01*
X84371184Y-69431000D01*
X84206772Y-69398297D01*
X84051900Y-69334147D01*
X83912519Y-69241015D01*
X83793985Y-69122481D01*
X83700853Y-68983100D01*
X83636703Y-68828228D01*
X83604000Y-68663816D01*
X83604000Y-68496184D01*
X83636703Y-68331772D01*
X83700853Y-68176900D01*
X83793985Y-68037519D01*
X83912519Y-67918985D01*
X84051900Y-67825853D01*
X84206772Y-67761703D01*
X84371184Y-67729000D01*
X84538816Y-67729000D01*
X84703228Y-67761703D01*
X84703228Y-67761703D01*
G37*
G36*
X75813228Y-67761703D02*
X75968100Y-67825853D01*
X76107481Y-67918985D01*
X76226015Y-68037519D01*
X76319147Y-68176900D01*
X76383297Y-68331772D01*
X76416000Y-68496184D01*
X76416000Y-68663816D01*
X76383297Y-68828228D01*
X76319147Y-68983100D01*
X76226015Y-69122481D01*
X76107481Y-69241015D01*
X75968100Y-69334147D01*
X75813228Y-69398297D01*
X75648816Y-69431000D01*
X75481184Y-69431000D01*
X75316772Y-69398297D01*
X75161900Y-69334147D01*
X75022519Y-69241015D01*
X74903985Y-69122481D01*
X74810853Y-68983100D01*
X74746703Y-68828228D01*
X74714000Y-68663816D01*
X74714000Y-68496184D01*
X74746703Y-68331772D01*
X74810853Y-68176900D01*
X74903985Y-68037519D01*
X75022519Y-67918985D01*
X75161900Y-67825853D01*
X75316772Y-67761703D01*
X75481184Y-67729000D01*
X75648816Y-67729000D01*
X75813228Y-67761703D01*
X75813228Y-67761703D01*
G37*
G36*
X79623228Y-67761703D02*
X79778100Y-67825853D01*
X79917481Y-67918985D01*
X80036015Y-68037519D01*
X80129147Y-68176900D01*
X80193297Y-68331772D01*
X80226000Y-68496184D01*
X80226000Y-68663816D01*
X80193297Y-68828228D01*
X80129147Y-68983100D01*
X80036015Y-69122481D01*
X79917481Y-69241015D01*
X79778100Y-69334147D01*
X79623228Y-69398297D01*
X79458816Y-69431000D01*
X79291184Y-69431000D01*
X79126772Y-69398297D01*
X78971900Y-69334147D01*
X78832519Y-69241015D01*
X78713985Y-69122481D01*
X78620853Y-68983100D01*
X78556703Y-68828228D01*
X78524000Y-68663816D01*
X78524000Y-68496184D01*
X78556703Y-68331772D01*
X78620853Y-68176900D01*
X78713985Y-68037519D01*
X78832519Y-67918985D01*
X78971900Y-67825853D01*
X79126772Y-67761703D01*
X79291184Y-67729000D01*
X79458816Y-67729000D01*
X79623228Y-67761703D01*
X79623228Y-67761703D01*
G37*
G36*
X88513228Y-67761703D02*
X88668100Y-67825853D01*
X88807481Y-67918985D01*
X88926015Y-68037519D01*
X89019147Y-68176900D01*
X89083297Y-68331772D01*
X89116000Y-68496184D01*
X89116000Y-68663816D01*
X89083297Y-68828228D01*
X89019147Y-68983100D01*
X88926015Y-69122481D01*
X88807481Y-69241015D01*
X88668100Y-69334147D01*
X88513228Y-69398297D01*
X88348816Y-69431000D01*
X88181184Y-69431000D01*
X88016772Y-69398297D01*
X87861900Y-69334147D01*
X87722519Y-69241015D01*
X87603985Y-69122481D01*
X87510853Y-68983100D01*
X87446703Y-68828228D01*
X87414000Y-68663816D01*
X87414000Y-68496184D01*
X87446703Y-68331772D01*
X87510853Y-68176900D01*
X87603985Y-68037519D01*
X87722519Y-67918985D01*
X87861900Y-67825853D01*
X88016772Y-67761703D01*
X88181184Y-67729000D01*
X88348816Y-67729000D01*
X88513228Y-67761703D01*
X88513228Y-67761703D01*
G37*
G36*
X98673228Y-67761703D02*
X98828100Y-67825853D01*
X98967481Y-67918985D01*
X99086015Y-68037519D01*
X99179147Y-68176900D01*
X99243297Y-68331772D01*
X99276000Y-68496184D01*
X99276000Y-68663816D01*
X99243297Y-68828228D01*
X99179147Y-68983100D01*
X99086015Y-69122481D01*
X98967481Y-69241015D01*
X98828100Y-69334147D01*
X98673228Y-69398297D01*
X98508816Y-69431000D01*
X98341184Y-69431000D01*
X98176772Y-69398297D01*
X98021900Y-69334147D01*
X97882519Y-69241015D01*
X97763985Y-69122481D01*
X97670853Y-68983100D01*
X97606703Y-68828228D01*
X97574000Y-68663816D01*
X97574000Y-68496184D01*
X97606703Y-68331772D01*
X97670853Y-68176900D01*
X97763985Y-68037519D01*
X97882519Y-67918985D01*
X98021900Y-67825853D01*
X98176772Y-67761703D01*
X98341184Y-67729000D01*
X98508816Y-67729000D01*
X98673228Y-67761703D01*
X98673228Y-67761703D01*
G37*
G36*
X102483228Y-67761703D02*
X102638100Y-67825853D01*
X102777481Y-67918985D01*
X102896015Y-68037519D01*
X102989147Y-68176900D01*
X103053297Y-68331772D01*
X103086000Y-68496184D01*
X103086000Y-68663816D01*
X103053297Y-68828228D01*
X102989147Y-68983100D01*
X102896015Y-69122481D01*
X102777481Y-69241015D01*
X102638100Y-69334147D01*
X102483228Y-69398297D01*
X102318816Y-69431000D01*
X102151184Y-69431000D01*
X101986772Y-69398297D01*
X101831900Y-69334147D01*
X101692519Y-69241015D01*
X101573985Y-69122481D01*
X101480853Y-68983100D01*
X101416703Y-68828228D01*
X101384000Y-68663816D01*
X101384000Y-68496184D01*
X101416703Y-68331772D01*
X101480853Y-68176900D01*
X101573985Y-68037519D01*
X101692519Y-67918985D01*
X101831900Y-67825853D01*
X101986772Y-67761703D01*
X102151184Y-67729000D01*
X102318816Y-67729000D01*
X102483228Y-67761703D01*
X102483228Y-67761703D01*
G37*
G36*
X107563228Y-67761703D02*
X107718100Y-67825853D01*
X107857481Y-67918985D01*
X107976015Y-68037519D01*
X108069147Y-68176900D01*
X108133297Y-68331772D01*
X108166000Y-68496184D01*
X108166000Y-68663816D01*
X108133297Y-68828228D01*
X108069147Y-68983100D01*
X107976015Y-69122481D01*
X107857481Y-69241015D01*
X107718100Y-69334147D01*
X107563228Y-69398297D01*
X107398816Y-69431000D01*
X107231184Y-69431000D01*
X107066772Y-69398297D01*
X106911900Y-69334147D01*
X106772519Y-69241015D01*
X106653985Y-69122481D01*
X106560853Y-68983100D01*
X106496703Y-68828228D01*
X106464000Y-68663816D01*
X106464000Y-68496184D01*
X106496703Y-68331772D01*
X106560853Y-68176900D01*
X106653985Y-68037519D01*
X106772519Y-67918985D01*
X106911900Y-67825853D01*
X107066772Y-67761703D01*
X107231184Y-67729000D01*
X107398816Y-67729000D01*
X107563228Y-67761703D01*
X107563228Y-67761703D01*
G37*
G36*
X111373228Y-67761703D02*
X111528100Y-67825853D01*
X111667481Y-67918985D01*
X111786015Y-68037519D01*
X111879147Y-68176900D01*
X111943297Y-68331772D01*
X111976000Y-68496184D01*
X111976000Y-68663816D01*
X111943297Y-68828228D01*
X111879147Y-68983100D01*
X111786015Y-69122481D01*
X111667481Y-69241015D01*
X111528100Y-69334147D01*
X111373228Y-69398297D01*
X111208816Y-69431000D01*
X111041184Y-69431000D01*
X110876772Y-69398297D01*
X110721900Y-69334147D01*
X110582519Y-69241015D01*
X110463985Y-69122481D01*
X110370853Y-68983100D01*
X110306703Y-68828228D01*
X110274000Y-68663816D01*
X110274000Y-68496184D01*
X110306703Y-68331772D01*
X110370853Y-68176900D01*
X110463985Y-68037519D01*
X110582519Y-67918985D01*
X110721900Y-67825853D01*
X110876772Y-67761703D01*
X111041184Y-67729000D01*
X111208816Y-67729000D01*
X111373228Y-67761703D01*
X111373228Y-67761703D01*
G37*
G36*
X124770000Y-68823000D02*
X122118000Y-68823000D01*
X122118000Y-67161000D01*
X124770000Y-67161000D01*
X124770000Y-68823000D01*
X124770000Y-68823000D01*
G37*
G36*
X72308000Y-68601000D02*
X71456000Y-68601000D01*
X71456000Y-67299000D01*
X72308000Y-67299000D01*
X72308000Y-68601000D01*
X72308000Y-68601000D01*
G37*
G36*
X70859000Y-68385000D02*
X69857000Y-68385000D01*
X69857000Y-67083000D01*
X70859000Y-67083000D01*
X70859000Y-68385000D01*
X70859000Y-68385000D01*
G37*
G36*
X126156000Y-68215000D02*
X125304000Y-68215000D01*
X125304000Y-66913000D01*
X126156000Y-66913000D01*
X126156000Y-68215000D01*
X126156000Y-68215000D01*
G37*
G36*
X127816896Y-65783696D02*
X127816898Y-65783697D01*
X127816899Y-65783697D01*
X128009625Y-65863526D01*
X128182291Y-65978898D01*
X128183076Y-65979423D01*
X128330577Y-66126924D01*
X128330579Y-66126927D01*
X128446474Y-66300375D01*
X128526105Y-66492624D01*
X128526304Y-66493104D01*
X128567000Y-66697696D01*
X128567000Y-66906304D01*
X128531853Y-67083000D01*
X128526303Y-67110899D01*
X128446474Y-67303625D01*
X128333969Y-67471999D01*
X128330577Y-67477076D01*
X128183076Y-67624577D01*
X128183073Y-67624579D01*
X128009625Y-67740474D01*
X127816899Y-67820303D01*
X127816898Y-67820303D01*
X127816896Y-67820304D01*
X127612304Y-67861000D01*
X127403696Y-67861000D01*
X127199104Y-67820304D01*
X127199102Y-67820303D01*
X127199101Y-67820303D01*
X127006375Y-67740474D01*
X126832927Y-67624579D01*
X126832924Y-67624577D01*
X126685423Y-67477076D01*
X126682031Y-67471999D01*
X126569526Y-67303625D01*
X126489697Y-67110899D01*
X126484148Y-67083000D01*
X126449000Y-66906304D01*
X126449000Y-66697696D01*
X126489696Y-66493104D01*
X126489895Y-66492624D01*
X126569526Y-66300375D01*
X126685421Y-66126927D01*
X126685423Y-66126924D01*
X126832924Y-65979423D01*
X126833709Y-65978898D01*
X127006375Y-65863526D01*
X127199101Y-65783697D01*
X127199102Y-65783697D01*
X127199104Y-65783696D01*
X127403696Y-65743000D01*
X127612304Y-65743000D01*
X127816896Y-65783696D01*
X127816896Y-65783696D01*
G37*
G36*
X63981000Y-66634999D02*
X63983402Y-66659385D01*
X63990515Y-66682834D01*
X64002066Y-66704445D01*
X64017612Y-66723387D01*
X64036554Y-66738933D01*
X64058165Y-66750484D01*
X64081614Y-66757597D01*
X64106000Y-66759999D01*
X65337000Y-66759999D01*
X65337000Y-67761999D01*
X64035000Y-67761999D01*
X64035000Y-67682000D01*
X64032598Y-67657614D01*
X64025485Y-67634165D01*
X64013934Y-67612554D01*
X63998388Y-67593612D01*
X63979446Y-67578066D01*
X63957835Y-67566515D01*
X63934386Y-67559402D01*
X63910000Y-67557000D01*
X62679000Y-67557000D01*
X62679000Y-66555000D01*
X63981000Y-66555000D01*
X63981000Y-66634999D01*
X63981000Y-66634999D01*
G37*
G36*
X61781000Y-67557000D02*
X60479000Y-67557000D01*
X60479000Y-66555000D01*
X61781000Y-66555000D01*
X61781000Y-67557000D01*
X61781000Y-67557000D01*
G37*
G36*
X115228226Y-65053759D02*
X115228229Y-65053760D01*
X115228230Y-65053760D01*
X115407494Y-65108139D01*
X115407496Y-65108140D01*
X115572706Y-65196447D01*
X115717513Y-65315287D01*
X115836353Y-65460094D01*
X115877465Y-65537009D01*
X115924661Y-65625306D01*
X115951190Y-65712761D01*
X115979041Y-65804574D01*
X115997402Y-65990999D01*
X115979041Y-66177424D01*
X115979040Y-66177427D01*
X115979040Y-66177428D01*
X115941745Y-66300375D01*
X115924660Y-66356694D01*
X115836353Y-66521904D01*
X115717513Y-66666711D01*
X115572706Y-66785551D01*
X115572704Y-66785552D01*
X115407494Y-66873859D01*
X115228230Y-66928238D01*
X115228229Y-66928238D01*
X115228226Y-66928239D01*
X115088519Y-66941999D01*
X114995083Y-66941999D01*
X114855376Y-66928239D01*
X114855373Y-66928238D01*
X114855372Y-66928238D01*
X114676108Y-66873859D01*
X114510898Y-66785552D01*
X114510896Y-66785551D01*
X114366089Y-66666711D01*
X114247249Y-66521904D01*
X114158942Y-66356694D01*
X114141858Y-66300375D01*
X114104562Y-66177428D01*
X114104562Y-66177427D01*
X114104561Y-66177424D01*
X114086200Y-65990999D01*
X114104561Y-65804574D01*
X114132412Y-65712761D01*
X114158941Y-65625306D01*
X114206137Y-65537009D01*
X114247249Y-65460094D01*
X114366089Y-65315287D01*
X114510896Y-65196447D01*
X114676106Y-65108140D01*
X114676108Y-65108139D01*
X114855372Y-65053760D01*
X114855373Y-65053760D01*
X114855376Y-65053759D01*
X114995083Y-65039999D01*
X115088519Y-65039999D01*
X115228226Y-65053759D01*
X115228226Y-65053759D01*
G37*
G36*
X92312442Y-65145518D02*
X92378627Y-65152037D01*
X92491853Y-65186384D01*
X92548467Y-65203557D01*
X92635311Y-65249977D01*
X92704991Y-65287222D01*
X92739188Y-65315287D01*
X92842186Y-65399814D01*
X92891657Y-65460096D01*
X92954778Y-65537009D01*
X92954779Y-65537011D01*
X93038443Y-65693533D01*
X93053448Y-65743000D01*
X93089963Y-65863373D01*
X93107359Y-66040000D01*
X93089963Y-66216627D01*
X93064704Y-66299895D01*
X93038443Y-66386467D01*
X92981700Y-66492624D01*
X92954778Y-66542991D01*
X92925448Y-66578729D01*
X92842186Y-66680186D01*
X92754886Y-66751830D01*
X92704991Y-66792778D01*
X92704989Y-66792779D01*
X92548467Y-66876443D01*
X92541069Y-66878687D01*
X92378627Y-66927963D01*
X92312442Y-66934482D01*
X92246260Y-66941000D01*
X92157740Y-66941000D01*
X92091558Y-66934482D01*
X92025373Y-66927963D01*
X91862931Y-66878687D01*
X91855533Y-66876443D01*
X91699011Y-66792779D01*
X91699009Y-66792778D01*
X91649114Y-66751830D01*
X91561814Y-66680186D01*
X91478552Y-66578729D01*
X91449222Y-66542991D01*
X91422300Y-66492624D01*
X91365557Y-66386467D01*
X91339296Y-66299895D01*
X91314037Y-66216627D01*
X91296641Y-66040000D01*
X91314037Y-65863373D01*
X91350552Y-65743000D01*
X91365557Y-65693533D01*
X91449221Y-65537011D01*
X91449222Y-65537009D01*
X91512343Y-65460096D01*
X91561814Y-65399814D01*
X91664812Y-65315287D01*
X91699009Y-65287222D01*
X91768689Y-65249977D01*
X91855533Y-65203557D01*
X91912147Y-65186384D01*
X92025373Y-65152037D01*
X92091558Y-65145518D01*
X92157740Y-65139000D01*
X92246260Y-65139000D01*
X92312442Y-65145518D01*
X92312442Y-65145518D01*
G37*
G36*
X94852442Y-65145518D02*
X94918627Y-65152037D01*
X95031853Y-65186384D01*
X95088467Y-65203557D01*
X95175311Y-65249977D01*
X95244991Y-65287222D01*
X95279188Y-65315287D01*
X95382186Y-65399814D01*
X95431657Y-65460096D01*
X95494778Y-65537009D01*
X95494779Y-65537011D01*
X95578443Y-65693533D01*
X95593448Y-65743000D01*
X95629963Y-65863373D01*
X95647359Y-66040000D01*
X95629963Y-66216627D01*
X95604704Y-66299895D01*
X95578443Y-66386467D01*
X95521700Y-66492624D01*
X95494778Y-66542991D01*
X95465448Y-66578729D01*
X95382186Y-66680186D01*
X95294886Y-66751830D01*
X95244991Y-66792778D01*
X95244989Y-66792779D01*
X95088467Y-66876443D01*
X95081069Y-66878687D01*
X94918627Y-66927963D01*
X94852442Y-66934482D01*
X94786260Y-66941000D01*
X94697740Y-66941000D01*
X94631558Y-66934482D01*
X94565373Y-66927963D01*
X94402931Y-66878687D01*
X94395533Y-66876443D01*
X94239011Y-66792779D01*
X94239009Y-66792778D01*
X94189114Y-66751830D01*
X94101814Y-66680186D01*
X94018552Y-66578729D01*
X93989222Y-66542991D01*
X93962300Y-66492624D01*
X93905557Y-66386467D01*
X93879296Y-66299895D01*
X93854037Y-66216627D01*
X93836641Y-66040000D01*
X93854037Y-65863373D01*
X93890552Y-65743000D01*
X93905557Y-65693533D01*
X93989221Y-65537011D01*
X93989222Y-65537009D01*
X94052343Y-65460096D01*
X94101814Y-65399814D01*
X94204812Y-65315287D01*
X94239009Y-65287222D01*
X94308689Y-65249977D01*
X94395533Y-65203557D01*
X94452147Y-65186384D01*
X94565373Y-65152037D01*
X94631558Y-65145518D01*
X94697740Y-65139000D01*
X94786260Y-65139000D01*
X94852442Y-65145518D01*
X94852442Y-65145518D01*
G37*
G36*
X107481821Y-65201313D02*
X107481824Y-65201314D01*
X107481825Y-65201314D01*
X107642239Y-65249975D01*
X107642241Y-65249976D01*
X107642244Y-65249977D01*
X107790078Y-65328995D01*
X107919659Y-65435341D01*
X108026005Y-65564922D01*
X108105023Y-65712756D01*
X108105024Y-65712759D01*
X108105025Y-65712761D01*
X108150713Y-65863375D01*
X108153687Y-65873179D01*
X108170117Y-66040000D01*
X108153687Y-66206821D01*
X108153686Y-66206824D01*
X108153686Y-66206825D01*
X108108224Y-66356694D01*
X108105023Y-66367244D01*
X108026005Y-66515078D01*
X107919659Y-66644659D01*
X107790078Y-66751005D01*
X107642244Y-66830023D01*
X107642241Y-66830024D01*
X107642239Y-66830025D01*
X107481825Y-66878686D01*
X107481824Y-66878686D01*
X107481821Y-66878687D01*
X107356804Y-66891000D01*
X107273196Y-66891000D01*
X107148179Y-66878687D01*
X107148176Y-66878686D01*
X107148175Y-66878686D01*
X106987761Y-66830025D01*
X106987759Y-66830024D01*
X106987756Y-66830023D01*
X106839922Y-66751005D01*
X106710341Y-66644659D01*
X106603995Y-66515078D01*
X106524977Y-66367244D01*
X106521777Y-66356694D01*
X106476314Y-66206825D01*
X106476314Y-66206824D01*
X106476313Y-66206821D01*
X106459883Y-66040000D01*
X106476313Y-65873179D01*
X106479287Y-65863375D01*
X106524975Y-65712761D01*
X106524976Y-65712759D01*
X106524977Y-65712756D01*
X106603995Y-65564922D01*
X106710341Y-65435341D01*
X106839922Y-65328995D01*
X106987756Y-65249977D01*
X106987759Y-65249976D01*
X106987761Y-65249975D01*
X107148175Y-65201314D01*
X107148176Y-65201314D01*
X107148179Y-65201313D01*
X107273196Y-65189000D01*
X107356804Y-65189000D01*
X107481821Y-65201313D01*
X107481821Y-65201313D01*
G37*
G36*
X111291821Y-65201313D02*
X111291824Y-65201314D01*
X111291825Y-65201314D01*
X111452239Y-65249975D01*
X111452241Y-65249976D01*
X111452244Y-65249977D01*
X111600078Y-65328995D01*
X111729659Y-65435341D01*
X111836005Y-65564922D01*
X111915023Y-65712756D01*
X111915024Y-65712759D01*
X111915025Y-65712761D01*
X111960713Y-65863375D01*
X111963687Y-65873179D01*
X111980117Y-66040000D01*
X111963687Y-66206821D01*
X111963686Y-66206824D01*
X111963686Y-66206825D01*
X111918224Y-66356694D01*
X111915023Y-66367244D01*
X111836005Y-66515078D01*
X111729659Y-66644659D01*
X111600078Y-66751005D01*
X111452244Y-66830023D01*
X111452241Y-66830024D01*
X111452239Y-66830025D01*
X111291825Y-66878686D01*
X111291824Y-66878686D01*
X111291821Y-66878687D01*
X111166804Y-66891000D01*
X111083196Y-66891000D01*
X110958179Y-66878687D01*
X110958176Y-66878686D01*
X110958175Y-66878686D01*
X110797761Y-66830025D01*
X110797759Y-66830024D01*
X110797756Y-66830023D01*
X110649922Y-66751005D01*
X110520341Y-66644659D01*
X110413995Y-66515078D01*
X110334977Y-66367244D01*
X110331777Y-66356694D01*
X110286314Y-66206825D01*
X110286314Y-66206824D01*
X110286313Y-66206821D01*
X110269883Y-66040000D01*
X110286313Y-65873179D01*
X110289287Y-65863375D01*
X110334975Y-65712761D01*
X110334976Y-65712759D01*
X110334977Y-65712756D01*
X110413995Y-65564922D01*
X110520341Y-65435341D01*
X110649922Y-65328995D01*
X110797756Y-65249977D01*
X110797759Y-65249976D01*
X110797761Y-65249975D01*
X110958175Y-65201314D01*
X110958176Y-65201314D01*
X110958179Y-65201313D01*
X111083196Y-65189000D01*
X111166804Y-65189000D01*
X111291821Y-65201313D01*
X111291821Y-65201313D01*
G37*
G36*
X84621821Y-65201313D02*
X84621824Y-65201314D01*
X84621825Y-65201314D01*
X84782239Y-65249975D01*
X84782241Y-65249976D01*
X84782244Y-65249977D01*
X84930078Y-65328995D01*
X85059659Y-65435341D01*
X85166005Y-65564922D01*
X85245023Y-65712756D01*
X85245024Y-65712759D01*
X85245025Y-65712761D01*
X85290713Y-65863375D01*
X85293687Y-65873179D01*
X85310117Y-66040000D01*
X85293687Y-66206821D01*
X85293686Y-66206824D01*
X85293686Y-66206825D01*
X85248224Y-66356694D01*
X85245023Y-66367244D01*
X85166005Y-66515078D01*
X85059659Y-66644659D01*
X84930078Y-66751005D01*
X84782244Y-66830023D01*
X84782241Y-66830024D01*
X84782239Y-66830025D01*
X84621825Y-66878686D01*
X84621824Y-66878686D01*
X84621821Y-66878687D01*
X84496804Y-66891000D01*
X84413196Y-66891000D01*
X84288179Y-66878687D01*
X84288176Y-66878686D01*
X84288175Y-66878686D01*
X84127761Y-66830025D01*
X84127759Y-66830024D01*
X84127756Y-66830023D01*
X83979922Y-66751005D01*
X83850341Y-66644659D01*
X83743995Y-66515078D01*
X83664977Y-66367244D01*
X83661777Y-66356694D01*
X83616314Y-66206825D01*
X83616314Y-66206824D01*
X83616313Y-66206821D01*
X83599883Y-66040000D01*
X83616313Y-65873179D01*
X83619287Y-65863375D01*
X83664975Y-65712761D01*
X83664976Y-65712759D01*
X83664977Y-65712756D01*
X83743995Y-65564922D01*
X83850341Y-65435341D01*
X83979922Y-65328995D01*
X84127756Y-65249977D01*
X84127759Y-65249976D01*
X84127761Y-65249975D01*
X84288175Y-65201314D01*
X84288176Y-65201314D01*
X84288179Y-65201313D01*
X84413196Y-65189000D01*
X84496804Y-65189000D01*
X84621821Y-65201313D01*
X84621821Y-65201313D01*
G37*
G36*
X98591821Y-65201313D02*
X98591824Y-65201314D01*
X98591825Y-65201314D01*
X98752239Y-65249975D01*
X98752241Y-65249976D01*
X98752244Y-65249977D01*
X98900078Y-65328995D01*
X99029659Y-65435341D01*
X99136005Y-65564922D01*
X99215023Y-65712756D01*
X99215024Y-65712759D01*
X99215025Y-65712761D01*
X99260713Y-65863375D01*
X99263687Y-65873179D01*
X99280117Y-66040000D01*
X99263687Y-66206821D01*
X99263686Y-66206824D01*
X99263686Y-66206825D01*
X99218224Y-66356694D01*
X99215023Y-66367244D01*
X99136005Y-66515078D01*
X99029659Y-66644659D01*
X98900078Y-66751005D01*
X98752244Y-66830023D01*
X98752241Y-66830024D01*
X98752239Y-66830025D01*
X98591825Y-66878686D01*
X98591824Y-66878686D01*
X98591821Y-66878687D01*
X98466804Y-66891000D01*
X98383196Y-66891000D01*
X98258179Y-66878687D01*
X98258176Y-66878686D01*
X98258175Y-66878686D01*
X98097761Y-66830025D01*
X98097759Y-66830024D01*
X98097756Y-66830023D01*
X97949922Y-66751005D01*
X97820341Y-66644659D01*
X97713995Y-66515078D01*
X97634977Y-66367244D01*
X97631777Y-66356694D01*
X97586314Y-66206825D01*
X97586314Y-66206824D01*
X97586313Y-66206821D01*
X97569883Y-66040000D01*
X97586313Y-65873179D01*
X97589287Y-65863375D01*
X97634975Y-65712761D01*
X97634976Y-65712759D01*
X97634977Y-65712756D01*
X97713995Y-65564922D01*
X97820341Y-65435341D01*
X97949922Y-65328995D01*
X98097756Y-65249977D01*
X98097759Y-65249976D01*
X98097761Y-65249975D01*
X98258175Y-65201314D01*
X98258176Y-65201314D01*
X98258179Y-65201313D01*
X98383196Y-65189000D01*
X98466804Y-65189000D01*
X98591821Y-65201313D01*
X98591821Y-65201313D01*
G37*
G36*
X79541821Y-65201313D02*
X79541824Y-65201314D01*
X79541825Y-65201314D01*
X79702239Y-65249975D01*
X79702241Y-65249976D01*
X79702244Y-65249977D01*
X79850078Y-65328995D01*
X79979659Y-65435341D01*
X80086005Y-65564922D01*
X80165023Y-65712756D01*
X80165024Y-65712759D01*
X80165025Y-65712761D01*
X80210713Y-65863375D01*
X80213687Y-65873179D01*
X80230117Y-66040000D01*
X80213687Y-66206821D01*
X80213686Y-66206824D01*
X80213686Y-66206825D01*
X80168224Y-66356694D01*
X80165023Y-66367244D01*
X80086005Y-66515078D01*
X79979659Y-66644659D01*
X79850078Y-66751005D01*
X79702244Y-66830023D01*
X79702241Y-66830024D01*
X79702239Y-66830025D01*
X79541825Y-66878686D01*
X79541824Y-66878686D01*
X79541821Y-66878687D01*
X79416804Y-66891000D01*
X79333196Y-66891000D01*
X79208179Y-66878687D01*
X79208176Y-66878686D01*
X79208175Y-66878686D01*
X79047761Y-66830025D01*
X79047759Y-66830024D01*
X79047756Y-66830023D01*
X78899922Y-66751005D01*
X78770341Y-66644659D01*
X78663995Y-66515078D01*
X78584977Y-66367244D01*
X78581777Y-66356694D01*
X78536314Y-66206825D01*
X78536314Y-66206824D01*
X78536313Y-66206821D01*
X78519883Y-66040000D01*
X78536313Y-65873179D01*
X78539287Y-65863375D01*
X78584975Y-65712761D01*
X78584976Y-65712759D01*
X78584977Y-65712756D01*
X78663995Y-65564922D01*
X78770341Y-65435341D01*
X78899922Y-65328995D01*
X79047756Y-65249977D01*
X79047759Y-65249976D01*
X79047761Y-65249975D01*
X79208175Y-65201314D01*
X79208176Y-65201314D01*
X79208179Y-65201313D01*
X79333196Y-65189000D01*
X79416804Y-65189000D01*
X79541821Y-65201313D01*
X79541821Y-65201313D01*
G37*
G36*
X88431821Y-65201313D02*
X88431824Y-65201314D01*
X88431825Y-65201314D01*
X88592239Y-65249975D01*
X88592241Y-65249976D01*
X88592244Y-65249977D01*
X88740078Y-65328995D01*
X88869659Y-65435341D01*
X88976005Y-65564922D01*
X89055023Y-65712756D01*
X89055024Y-65712759D01*
X89055025Y-65712761D01*
X89100713Y-65863375D01*
X89103687Y-65873179D01*
X89120117Y-66040000D01*
X89103687Y-66206821D01*
X89103686Y-66206824D01*
X89103686Y-66206825D01*
X89058224Y-66356694D01*
X89055023Y-66367244D01*
X88976005Y-66515078D01*
X88869659Y-66644659D01*
X88740078Y-66751005D01*
X88592244Y-66830023D01*
X88592241Y-66830024D01*
X88592239Y-66830025D01*
X88431825Y-66878686D01*
X88431824Y-66878686D01*
X88431821Y-66878687D01*
X88306804Y-66891000D01*
X88223196Y-66891000D01*
X88098179Y-66878687D01*
X88098176Y-66878686D01*
X88098175Y-66878686D01*
X87937761Y-66830025D01*
X87937759Y-66830024D01*
X87937756Y-66830023D01*
X87789922Y-66751005D01*
X87660341Y-66644659D01*
X87553995Y-66515078D01*
X87474977Y-66367244D01*
X87471777Y-66356694D01*
X87426314Y-66206825D01*
X87426314Y-66206824D01*
X87426313Y-66206821D01*
X87409883Y-66040000D01*
X87426313Y-65873179D01*
X87429287Y-65863375D01*
X87474975Y-65712761D01*
X87474976Y-65712759D01*
X87474977Y-65712756D01*
X87553995Y-65564922D01*
X87660341Y-65435341D01*
X87789922Y-65328995D01*
X87937756Y-65249977D01*
X87937759Y-65249976D01*
X87937761Y-65249975D01*
X88098175Y-65201314D01*
X88098176Y-65201314D01*
X88098179Y-65201313D01*
X88223196Y-65189000D01*
X88306804Y-65189000D01*
X88431821Y-65201313D01*
X88431821Y-65201313D01*
G37*
G36*
X102401821Y-65201313D02*
X102401824Y-65201314D01*
X102401825Y-65201314D01*
X102562239Y-65249975D01*
X102562241Y-65249976D01*
X102562244Y-65249977D01*
X102710078Y-65328995D01*
X102839659Y-65435341D01*
X102946005Y-65564922D01*
X103025023Y-65712756D01*
X103025024Y-65712759D01*
X103025025Y-65712761D01*
X103070713Y-65863375D01*
X103073687Y-65873179D01*
X103090117Y-66040000D01*
X103073687Y-66206821D01*
X103073686Y-66206824D01*
X103073686Y-66206825D01*
X103028224Y-66356694D01*
X103025023Y-66367244D01*
X102946005Y-66515078D01*
X102839659Y-66644659D01*
X102710078Y-66751005D01*
X102562244Y-66830023D01*
X102562241Y-66830024D01*
X102562239Y-66830025D01*
X102401825Y-66878686D01*
X102401824Y-66878686D01*
X102401821Y-66878687D01*
X102276804Y-66891000D01*
X102193196Y-66891000D01*
X102068179Y-66878687D01*
X102068176Y-66878686D01*
X102068175Y-66878686D01*
X101907761Y-66830025D01*
X101907759Y-66830024D01*
X101907756Y-66830023D01*
X101759922Y-66751005D01*
X101630341Y-66644659D01*
X101523995Y-66515078D01*
X101444977Y-66367244D01*
X101441777Y-66356694D01*
X101396314Y-66206825D01*
X101396314Y-66206824D01*
X101396313Y-66206821D01*
X101379883Y-66040000D01*
X101396313Y-65873179D01*
X101399287Y-65863375D01*
X101444975Y-65712761D01*
X101444976Y-65712759D01*
X101444977Y-65712756D01*
X101523995Y-65564922D01*
X101630341Y-65435341D01*
X101759922Y-65328995D01*
X101907756Y-65249977D01*
X101907759Y-65249976D01*
X101907761Y-65249975D01*
X102068175Y-65201314D01*
X102068176Y-65201314D01*
X102068179Y-65201313D01*
X102193196Y-65189000D01*
X102276804Y-65189000D01*
X102401821Y-65201313D01*
X102401821Y-65201313D01*
G37*
G36*
X75731821Y-65201313D02*
X75731824Y-65201314D01*
X75731825Y-65201314D01*
X75892239Y-65249975D01*
X75892241Y-65249976D01*
X75892244Y-65249977D01*
X76040078Y-65328995D01*
X76169659Y-65435341D01*
X76276005Y-65564922D01*
X76355023Y-65712756D01*
X76355024Y-65712759D01*
X76355025Y-65712761D01*
X76400713Y-65863375D01*
X76403687Y-65873179D01*
X76420117Y-66040000D01*
X76403687Y-66206821D01*
X76403686Y-66206824D01*
X76403686Y-66206825D01*
X76358224Y-66356694D01*
X76355023Y-66367244D01*
X76276005Y-66515078D01*
X76169659Y-66644659D01*
X76040078Y-66751005D01*
X75892244Y-66830023D01*
X75892241Y-66830024D01*
X75892239Y-66830025D01*
X75731825Y-66878686D01*
X75731824Y-66878686D01*
X75731821Y-66878687D01*
X75606804Y-66891000D01*
X75523196Y-66891000D01*
X75398179Y-66878687D01*
X75398176Y-66878686D01*
X75398175Y-66878686D01*
X75237761Y-66830025D01*
X75237759Y-66830024D01*
X75237756Y-66830023D01*
X75089922Y-66751005D01*
X74960341Y-66644659D01*
X74853995Y-66515078D01*
X74774977Y-66367244D01*
X74771777Y-66356694D01*
X74726314Y-66206825D01*
X74726314Y-66206824D01*
X74726313Y-66206821D01*
X74709883Y-66040000D01*
X74726313Y-65873179D01*
X74729287Y-65863375D01*
X74774975Y-65712761D01*
X74774976Y-65712759D01*
X74774977Y-65712756D01*
X74853995Y-65564922D01*
X74960341Y-65435341D01*
X75089922Y-65328995D01*
X75237756Y-65249977D01*
X75237759Y-65249976D01*
X75237761Y-65249975D01*
X75398175Y-65201314D01*
X75398176Y-65201314D01*
X75398179Y-65201313D01*
X75523196Y-65189000D01*
X75606804Y-65189000D01*
X75731821Y-65201313D01*
X75731821Y-65201313D01*
G37*
G36*
X71009000Y-63164000D02*
X69637000Y-63164000D01*
X69612614Y-63166402D01*
X69589165Y-63173515D01*
X69567554Y-63185066D01*
X69548612Y-63200612D01*
X69533066Y-63219554D01*
X69521515Y-63241165D01*
X69514402Y-63264614D01*
X69512000Y-63289000D01*
X69512000Y-64509999D01*
X67394000Y-64509999D01*
X67394000Y-62391999D01*
X69582000Y-62391999D01*
X69606386Y-62389597D01*
X69629835Y-62382484D01*
X69651446Y-62370933D01*
X69670388Y-62355387D01*
X69685934Y-62336445D01*
X69697485Y-62314834D01*
X69698345Y-62312000D01*
X71009000Y-62312000D01*
X71009000Y-63164000D01*
X71009000Y-63164000D01*
G37*
G36*
X94852442Y-62605518D02*
X94918627Y-62612037D01*
X95031853Y-62646384D01*
X95088467Y-62663557D01*
X95227087Y-62737652D01*
X95244991Y-62747222D01*
X95280729Y-62776552D01*
X95382186Y-62859814D01*
X95462369Y-62957519D01*
X95494778Y-62997009D01*
X95494779Y-62997011D01*
X95578443Y-63153533D01*
X95584504Y-63173515D01*
X95629963Y-63323373D01*
X95647359Y-63500000D01*
X95629963Y-63676627D01*
X95608243Y-63748228D01*
X95578443Y-63846467D01*
X95504348Y-63985087D01*
X95494778Y-64002991D01*
X95465448Y-64038729D01*
X95382186Y-64140186D01*
X95280729Y-64223448D01*
X95244991Y-64252778D01*
X95244989Y-64252779D01*
X95088467Y-64336443D01*
X95040478Y-64351000D01*
X94918627Y-64387963D01*
X94852442Y-64394482D01*
X94786260Y-64401000D01*
X94697740Y-64401000D01*
X94631558Y-64394482D01*
X94565373Y-64387963D01*
X94443522Y-64351000D01*
X94395533Y-64336443D01*
X94239011Y-64252779D01*
X94239009Y-64252778D01*
X94203271Y-64223448D01*
X94101814Y-64140186D01*
X94018552Y-64038729D01*
X93989222Y-64002991D01*
X93979652Y-63985087D01*
X93905557Y-63846467D01*
X93875757Y-63748228D01*
X93854037Y-63676627D01*
X93836641Y-63500000D01*
X93854037Y-63323373D01*
X93899496Y-63173515D01*
X93905557Y-63153533D01*
X93989221Y-62997011D01*
X93989222Y-62997009D01*
X94021631Y-62957519D01*
X94101814Y-62859814D01*
X94203271Y-62776552D01*
X94239009Y-62747222D01*
X94256913Y-62737652D01*
X94395533Y-62663557D01*
X94452147Y-62646384D01*
X94565373Y-62612037D01*
X94631558Y-62605518D01*
X94697740Y-62599000D01*
X94786260Y-62599000D01*
X94852442Y-62605518D01*
X94852442Y-62605518D01*
G37*
G36*
X92312442Y-62605518D02*
X92378627Y-62612037D01*
X92491853Y-62646384D01*
X92548467Y-62663557D01*
X92687087Y-62737652D01*
X92704991Y-62747222D01*
X92740729Y-62776552D01*
X92842186Y-62859814D01*
X92922369Y-62957519D01*
X92954778Y-62997009D01*
X92954779Y-62997011D01*
X93038443Y-63153533D01*
X93044504Y-63173515D01*
X93089963Y-63323373D01*
X93107359Y-63500000D01*
X93089963Y-63676627D01*
X93068243Y-63748228D01*
X93038443Y-63846467D01*
X92964348Y-63985087D01*
X92954778Y-64002991D01*
X92925448Y-64038729D01*
X92842186Y-64140186D01*
X92740729Y-64223448D01*
X92704991Y-64252778D01*
X92704989Y-64252779D01*
X92548467Y-64336443D01*
X92500478Y-64351000D01*
X92378627Y-64387963D01*
X92312442Y-64394482D01*
X92246260Y-64401000D01*
X92157740Y-64401000D01*
X92091558Y-64394482D01*
X92025373Y-64387963D01*
X91903522Y-64351000D01*
X91855533Y-64336443D01*
X91699011Y-64252779D01*
X91699009Y-64252778D01*
X91663271Y-64223448D01*
X91561814Y-64140186D01*
X91478552Y-64038729D01*
X91449222Y-64002991D01*
X91439652Y-63985087D01*
X91365557Y-63846467D01*
X91335757Y-63748228D01*
X91314037Y-63676627D01*
X91296641Y-63500000D01*
X91314037Y-63323373D01*
X91359496Y-63173515D01*
X91365557Y-63153533D01*
X91449221Y-62997011D01*
X91449222Y-62997009D01*
X91481631Y-62957519D01*
X91561814Y-62859814D01*
X91663271Y-62776552D01*
X91699009Y-62747222D01*
X91716913Y-62737652D01*
X91855533Y-62663557D01*
X91912147Y-62646384D01*
X92025373Y-62612037D01*
X92091558Y-62605518D01*
X92157740Y-62599000D01*
X92246260Y-62599000D01*
X92312442Y-62605518D01*
X92312442Y-62605518D01*
G37*
G36*
X102483228Y-62681703D02*
X102638100Y-62745853D01*
X102777481Y-62838985D01*
X102896015Y-62957519D01*
X102989147Y-63096900D01*
X103053297Y-63251772D01*
X103086000Y-63416184D01*
X103086000Y-63583816D01*
X103053297Y-63748228D01*
X102989147Y-63903100D01*
X102896015Y-64042481D01*
X102777481Y-64161015D01*
X102638100Y-64254147D01*
X102483228Y-64318297D01*
X102318816Y-64351000D01*
X102151184Y-64351000D01*
X101986772Y-64318297D01*
X101831900Y-64254147D01*
X101692519Y-64161015D01*
X101573985Y-64042481D01*
X101480853Y-63903100D01*
X101416703Y-63748228D01*
X101384000Y-63583816D01*
X101384000Y-63416184D01*
X101416703Y-63251772D01*
X101480853Y-63096900D01*
X101573985Y-62957519D01*
X101692519Y-62838985D01*
X101831900Y-62745853D01*
X101986772Y-62681703D01*
X102151184Y-62649000D01*
X102318816Y-62649000D01*
X102483228Y-62681703D01*
X102483228Y-62681703D01*
G37*
G36*
X84703228Y-62681703D02*
X84858100Y-62745853D01*
X84997481Y-62838985D01*
X85116015Y-62957519D01*
X85209147Y-63096900D01*
X85273297Y-63251772D01*
X85306000Y-63416184D01*
X85306000Y-63583816D01*
X85273297Y-63748228D01*
X85209147Y-63903100D01*
X85116015Y-64042481D01*
X84997481Y-64161015D01*
X84858100Y-64254147D01*
X84703228Y-64318297D01*
X84538816Y-64351000D01*
X84371184Y-64351000D01*
X84206772Y-64318297D01*
X84051900Y-64254147D01*
X83912519Y-64161015D01*
X83793985Y-64042481D01*
X83700853Y-63903100D01*
X83636703Y-63748228D01*
X83604000Y-63583816D01*
X83604000Y-63416184D01*
X83636703Y-63251772D01*
X83700853Y-63096900D01*
X83793985Y-62957519D01*
X83912519Y-62838985D01*
X84051900Y-62745853D01*
X84206772Y-62681703D01*
X84371184Y-62649000D01*
X84538816Y-62649000D01*
X84703228Y-62681703D01*
X84703228Y-62681703D01*
G37*
G36*
X88513228Y-62681703D02*
X88668100Y-62745853D01*
X88807481Y-62838985D01*
X88926015Y-62957519D01*
X89019147Y-63096900D01*
X89083297Y-63251772D01*
X89116000Y-63416184D01*
X89116000Y-63583816D01*
X89083297Y-63748228D01*
X89019147Y-63903100D01*
X88926015Y-64042481D01*
X88807481Y-64161015D01*
X88668100Y-64254147D01*
X88513228Y-64318297D01*
X88348816Y-64351000D01*
X88181184Y-64351000D01*
X88016772Y-64318297D01*
X87861900Y-64254147D01*
X87722519Y-64161015D01*
X87603985Y-64042481D01*
X87510853Y-63903100D01*
X87446703Y-63748228D01*
X87414000Y-63583816D01*
X87414000Y-63416184D01*
X87446703Y-63251772D01*
X87510853Y-63096900D01*
X87603985Y-62957519D01*
X87722519Y-62838985D01*
X87861900Y-62745853D01*
X88016772Y-62681703D01*
X88181184Y-62649000D01*
X88348816Y-62649000D01*
X88513228Y-62681703D01*
X88513228Y-62681703D01*
G37*
G36*
X75813228Y-62681703D02*
X75968100Y-62745853D01*
X76107481Y-62838985D01*
X76226015Y-62957519D01*
X76319147Y-63096900D01*
X76383297Y-63251772D01*
X76416000Y-63416184D01*
X76416000Y-63583816D01*
X76383297Y-63748228D01*
X76319147Y-63903100D01*
X76226015Y-64042481D01*
X76107481Y-64161015D01*
X75968100Y-64254147D01*
X75813228Y-64318297D01*
X75648816Y-64351000D01*
X75481184Y-64351000D01*
X75316772Y-64318297D01*
X75161900Y-64254147D01*
X75022519Y-64161015D01*
X74903985Y-64042481D01*
X74810853Y-63903100D01*
X74746703Y-63748228D01*
X74714000Y-63583816D01*
X74714000Y-63416184D01*
X74746703Y-63251772D01*
X74810853Y-63096900D01*
X74903985Y-62957519D01*
X75022519Y-62838985D01*
X75161900Y-62745853D01*
X75316772Y-62681703D01*
X75481184Y-62649000D01*
X75648816Y-62649000D01*
X75813228Y-62681703D01*
X75813228Y-62681703D01*
G37*
G36*
X98673228Y-62681703D02*
X98828100Y-62745853D01*
X98967481Y-62838985D01*
X99086015Y-62957519D01*
X99179147Y-63096900D01*
X99243297Y-63251772D01*
X99276000Y-63416184D01*
X99276000Y-63583816D01*
X99243297Y-63748228D01*
X99179147Y-63903100D01*
X99086015Y-64042481D01*
X98967481Y-64161015D01*
X98828100Y-64254147D01*
X98673228Y-64318297D01*
X98508816Y-64351000D01*
X98341184Y-64351000D01*
X98176772Y-64318297D01*
X98021900Y-64254147D01*
X97882519Y-64161015D01*
X97763985Y-64042481D01*
X97670853Y-63903100D01*
X97606703Y-63748228D01*
X97574000Y-63583816D01*
X97574000Y-63416184D01*
X97606703Y-63251772D01*
X97670853Y-63096900D01*
X97763985Y-62957519D01*
X97882519Y-62838985D01*
X98021900Y-62745853D01*
X98176772Y-62681703D01*
X98341184Y-62649000D01*
X98508816Y-62649000D01*
X98673228Y-62681703D01*
X98673228Y-62681703D01*
G37*
G36*
X107563228Y-62681703D02*
X107718100Y-62745853D01*
X107857481Y-62838985D01*
X107976015Y-62957519D01*
X108069147Y-63096900D01*
X108133297Y-63251772D01*
X108166000Y-63416184D01*
X108166000Y-63583816D01*
X108133297Y-63748228D01*
X108069147Y-63903100D01*
X107976015Y-64042481D01*
X107857481Y-64161015D01*
X107718100Y-64254147D01*
X107563228Y-64318297D01*
X107398816Y-64351000D01*
X107231184Y-64351000D01*
X107066772Y-64318297D01*
X106911900Y-64254147D01*
X106772519Y-64161015D01*
X106653985Y-64042481D01*
X106560853Y-63903100D01*
X106496703Y-63748228D01*
X106464000Y-63583816D01*
X106464000Y-63416184D01*
X106496703Y-63251772D01*
X106560853Y-63096900D01*
X106653985Y-62957519D01*
X106772519Y-62838985D01*
X106911900Y-62745853D01*
X107066772Y-62681703D01*
X107231184Y-62649000D01*
X107398816Y-62649000D01*
X107563228Y-62681703D01*
X107563228Y-62681703D01*
G37*
G36*
X111373228Y-62681703D02*
X111528100Y-62745853D01*
X111667481Y-62838985D01*
X111786015Y-62957519D01*
X111879147Y-63096900D01*
X111943297Y-63251772D01*
X111976000Y-63416184D01*
X111976000Y-63583816D01*
X111943297Y-63748228D01*
X111879147Y-63903100D01*
X111786015Y-64042481D01*
X111667481Y-64161015D01*
X111528100Y-64254147D01*
X111373228Y-64318297D01*
X111208816Y-64351000D01*
X111041184Y-64351000D01*
X110876772Y-64318297D01*
X110721900Y-64254147D01*
X110582519Y-64161015D01*
X110463985Y-64042481D01*
X110370853Y-63903100D01*
X110306703Y-63748228D01*
X110274000Y-63583816D01*
X110274000Y-63416184D01*
X110306703Y-63251772D01*
X110370853Y-63096900D01*
X110463985Y-62957519D01*
X110582519Y-62838985D01*
X110721900Y-62745853D01*
X110876772Y-62681703D01*
X111041184Y-62649000D01*
X111208816Y-62649000D01*
X111373228Y-62681703D01*
X111373228Y-62681703D01*
G37*
G36*
X79623228Y-62681703D02*
X79778100Y-62745853D01*
X79917481Y-62838985D01*
X80036015Y-62957519D01*
X80129147Y-63096900D01*
X80193297Y-63251772D01*
X80226000Y-63416184D01*
X80226000Y-63583816D01*
X80193297Y-63748228D01*
X80129147Y-63903100D01*
X80036015Y-64042481D01*
X79917481Y-64161015D01*
X79778100Y-64254147D01*
X79623228Y-64318297D01*
X79458816Y-64351000D01*
X79291184Y-64351000D01*
X79126772Y-64318297D01*
X78971900Y-64254147D01*
X78832519Y-64161015D01*
X78713985Y-64042481D01*
X78620853Y-63903100D01*
X78556703Y-63748228D01*
X78524000Y-63583816D01*
X78524000Y-63416184D01*
X78556703Y-63251772D01*
X78620853Y-63096900D01*
X78713985Y-62957519D01*
X78832519Y-62838985D01*
X78971900Y-62745853D01*
X79126772Y-62681703D01*
X79291184Y-62649000D01*
X79458816Y-62649000D01*
X79623228Y-62681703D01*
X79623228Y-62681703D01*
G37*
G36*
X72909000Y-63164000D02*
X71607000Y-63164000D01*
X71607000Y-62312000D01*
X72909000Y-62312000D01*
X72909000Y-63164000D01*
X72909000Y-63164000D01*
G37*
G36*
X101908896Y-59941696D02*
X101908898Y-59941697D01*
X101908899Y-59941697D01*
X102101625Y-60021526D01*
X102254324Y-60123557D01*
X102275076Y-60137423D01*
X102422577Y-60284924D01*
X102422579Y-60284927D01*
X102538474Y-60458375D01*
X102618303Y-60651101D01*
X102659000Y-60855698D01*
X102659000Y-61064302D01*
X102618303Y-61268899D01*
X102538474Y-61461625D01*
X102445890Y-61600186D01*
X102422577Y-61635076D01*
X102275076Y-61782577D01*
X102275073Y-61782579D01*
X102101625Y-61898474D01*
X101908899Y-61978303D01*
X101908898Y-61978303D01*
X101908896Y-61978304D01*
X101704304Y-62019000D01*
X101495696Y-62019000D01*
X101291104Y-61978304D01*
X101291102Y-61978303D01*
X101291101Y-61978303D01*
X101098375Y-61898474D01*
X100924927Y-61782579D01*
X100924924Y-61782577D01*
X100777423Y-61635076D01*
X100754110Y-61600186D01*
X100661526Y-61461625D01*
X100581697Y-61268899D01*
X100541000Y-61064302D01*
X100541000Y-60855698D01*
X100581697Y-60651101D01*
X100661526Y-60458375D01*
X100777421Y-60284927D01*
X100777423Y-60284924D01*
X100924924Y-60137423D01*
X100945676Y-60123557D01*
X101098375Y-60021526D01*
X101291101Y-59941697D01*
X101291102Y-59941697D01*
X101291104Y-59941696D01*
X101495696Y-59901000D01*
X101704304Y-59901000D01*
X101908896Y-59941696D01*
X101908896Y-59941696D01*
G37*
G36*
X110798896Y-59941696D02*
X110798898Y-59941697D01*
X110798899Y-59941697D01*
X110991625Y-60021526D01*
X111144324Y-60123557D01*
X111165076Y-60137423D01*
X111312577Y-60284924D01*
X111312579Y-60284927D01*
X111428474Y-60458375D01*
X111508303Y-60651101D01*
X111549000Y-60855698D01*
X111549000Y-61064302D01*
X111508303Y-61268899D01*
X111428474Y-61461625D01*
X111335890Y-61600186D01*
X111312577Y-61635076D01*
X111165076Y-61782577D01*
X111165073Y-61782579D01*
X110991625Y-61898474D01*
X110798899Y-61978303D01*
X110798898Y-61978303D01*
X110798896Y-61978304D01*
X110594304Y-62019000D01*
X110385696Y-62019000D01*
X110181104Y-61978304D01*
X110181102Y-61978303D01*
X110181101Y-61978303D01*
X109988375Y-61898474D01*
X109814927Y-61782579D01*
X109814924Y-61782577D01*
X109667423Y-61635076D01*
X109644110Y-61600186D01*
X109551526Y-61461625D01*
X109471697Y-61268899D01*
X109431000Y-61064302D01*
X109431000Y-60855698D01*
X109471697Y-60651101D01*
X109551526Y-60458375D01*
X109667421Y-60284927D01*
X109667423Y-60284924D01*
X109814924Y-60137423D01*
X109835676Y-60123557D01*
X109988375Y-60021526D01*
X110181101Y-59941697D01*
X110181102Y-59941697D01*
X110181104Y-59941696D01*
X110385696Y-59901000D01*
X110594304Y-59901000D01*
X110798896Y-59941696D01*
X110798896Y-59941696D01*
G37*
G36*
X108258896Y-59941696D02*
X108258898Y-59941697D01*
X108258899Y-59941697D01*
X108451625Y-60021526D01*
X108604324Y-60123557D01*
X108625076Y-60137423D01*
X108772577Y-60284924D01*
X108772579Y-60284927D01*
X108888474Y-60458375D01*
X108968303Y-60651101D01*
X109009000Y-60855698D01*
X109009000Y-61064302D01*
X108968303Y-61268899D01*
X108888474Y-61461625D01*
X108795890Y-61600186D01*
X108772577Y-61635076D01*
X108625076Y-61782577D01*
X108625073Y-61782579D01*
X108451625Y-61898474D01*
X108258899Y-61978303D01*
X108258898Y-61978303D01*
X108258896Y-61978304D01*
X108054304Y-62019000D01*
X107845696Y-62019000D01*
X107641104Y-61978304D01*
X107641102Y-61978303D01*
X107641101Y-61978303D01*
X107448375Y-61898474D01*
X107274927Y-61782579D01*
X107274924Y-61782577D01*
X107127423Y-61635076D01*
X107104110Y-61600186D01*
X107011526Y-61461625D01*
X106931697Y-61268899D01*
X106891000Y-61064302D01*
X106891000Y-60855698D01*
X106931697Y-60651101D01*
X107011526Y-60458375D01*
X107127421Y-60284927D01*
X107127423Y-60284924D01*
X107274924Y-60137423D01*
X107295676Y-60123557D01*
X107448375Y-60021526D01*
X107641101Y-59941697D01*
X107641102Y-59941697D01*
X107641104Y-59941696D01*
X107845696Y-59901000D01*
X108054304Y-59901000D01*
X108258896Y-59941696D01*
X108258896Y-59941696D01*
G37*
G36*
X99368896Y-59941696D02*
X99368898Y-59941697D01*
X99368899Y-59941697D01*
X99561625Y-60021526D01*
X99714324Y-60123557D01*
X99735076Y-60137423D01*
X99882577Y-60284924D01*
X99882579Y-60284927D01*
X99998474Y-60458375D01*
X100078303Y-60651101D01*
X100119000Y-60855698D01*
X100119000Y-61064302D01*
X100078303Y-61268899D01*
X99998474Y-61461625D01*
X99905890Y-61600186D01*
X99882577Y-61635076D01*
X99735076Y-61782577D01*
X99735073Y-61782579D01*
X99561625Y-61898474D01*
X99368899Y-61978303D01*
X99368898Y-61978303D01*
X99368896Y-61978304D01*
X99164304Y-62019000D01*
X98955696Y-62019000D01*
X98751104Y-61978304D01*
X98751102Y-61978303D01*
X98751101Y-61978303D01*
X98558375Y-61898474D01*
X98384927Y-61782579D01*
X98384924Y-61782577D01*
X98237423Y-61635076D01*
X98214110Y-61600186D01*
X98121526Y-61461625D01*
X98041697Y-61268899D01*
X98001000Y-61064302D01*
X98001000Y-60855698D01*
X98041697Y-60651101D01*
X98121526Y-60458375D01*
X98237421Y-60284927D01*
X98237423Y-60284924D01*
X98384924Y-60137423D01*
X98405676Y-60123557D01*
X98558375Y-60021526D01*
X98751101Y-59941697D01*
X98751102Y-59941697D01*
X98751104Y-59941696D01*
X98955696Y-59901000D01*
X99164304Y-59901000D01*
X99368896Y-59941696D01*
X99368896Y-59941696D01*
G37*
G36*
X85398896Y-59941696D02*
X85398898Y-59941697D01*
X85398899Y-59941697D01*
X85591625Y-60021526D01*
X85744324Y-60123557D01*
X85765076Y-60137423D01*
X85912577Y-60284924D01*
X85912579Y-60284927D01*
X86028474Y-60458375D01*
X86108303Y-60651101D01*
X86149000Y-60855698D01*
X86149000Y-61064302D01*
X86108303Y-61268899D01*
X86028474Y-61461625D01*
X85935890Y-61600186D01*
X85912577Y-61635076D01*
X85765076Y-61782577D01*
X85765073Y-61782579D01*
X85591625Y-61898474D01*
X85398899Y-61978303D01*
X85398898Y-61978303D01*
X85398896Y-61978304D01*
X85194304Y-62019000D01*
X84985696Y-62019000D01*
X84781104Y-61978304D01*
X84781102Y-61978303D01*
X84781101Y-61978303D01*
X84588375Y-61898474D01*
X84414927Y-61782579D01*
X84414924Y-61782577D01*
X84267423Y-61635076D01*
X84244110Y-61600186D01*
X84151526Y-61461625D01*
X84071697Y-61268899D01*
X84031000Y-61064302D01*
X84031000Y-60855698D01*
X84071697Y-60651101D01*
X84151526Y-60458375D01*
X84267421Y-60284927D01*
X84267423Y-60284924D01*
X84414924Y-60137423D01*
X84435676Y-60123557D01*
X84588375Y-60021526D01*
X84781101Y-59941697D01*
X84781102Y-59941697D01*
X84781104Y-59941696D01*
X84985696Y-59901000D01*
X85194304Y-59901000D01*
X85398896Y-59941696D01*
X85398896Y-59941696D01*
G37*
G36*
X76508896Y-59941696D02*
X76508898Y-59941697D01*
X76508899Y-59941697D01*
X76701625Y-60021526D01*
X76854324Y-60123557D01*
X76875076Y-60137423D01*
X77022577Y-60284924D01*
X77022579Y-60284927D01*
X77138474Y-60458375D01*
X77218303Y-60651101D01*
X77259000Y-60855698D01*
X77259000Y-61064302D01*
X77218303Y-61268899D01*
X77138474Y-61461625D01*
X77045890Y-61600186D01*
X77022577Y-61635076D01*
X76875076Y-61782577D01*
X76875073Y-61782579D01*
X76701625Y-61898474D01*
X76508899Y-61978303D01*
X76508898Y-61978303D01*
X76508896Y-61978304D01*
X76304304Y-62019000D01*
X76095696Y-62019000D01*
X75891104Y-61978304D01*
X75891102Y-61978303D01*
X75891101Y-61978303D01*
X75698375Y-61898474D01*
X75524927Y-61782579D01*
X75524924Y-61782577D01*
X75377423Y-61635076D01*
X75354110Y-61600186D01*
X75261526Y-61461625D01*
X75181697Y-61268899D01*
X75141000Y-61064302D01*
X75141000Y-60855698D01*
X75181697Y-60651101D01*
X75261526Y-60458375D01*
X75377421Y-60284927D01*
X75377423Y-60284924D01*
X75524924Y-60137423D01*
X75545676Y-60123557D01*
X75698375Y-60021526D01*
X75891101Y-59941697D01*
X75891102Y-59941697D01*
X75891104Y-59941696D01*
X76095696Y-59901000D01*
X76304304Y-59901000D01*
X76508896Y-59941696D01*
X76508896Y-59941696D01*
G37*
G36*
X79048896Y-59941696D02*
X79048898Y-59941697D01*
X79048899Y-59941697D01*
X79241625Y-60021526D01*
X79394324Y-60123557D01*
X79415076Y-60137423D01*
X79562577Y-60284924D01*
X79562579Y-60284927D01*
X79678474Y-60458375D01*
X79758303Y-60651101D01*
X79799000Y-60855698D01*
X79799000Y-61064302D01*
X79758303Y-61268899D01*
X79678474Y-61461625D01*
X79585890Y-61600186D01*
X79562577Y-61635076D01*
X79415076Y-61782577D01*
X79415073Y-61782579D01*
X79241625Y-61898474D01*
X79048899Y-61978303D01*
X79048898Y-61978303D01*
X79048896Y-61978304D01*
X78844304Y-62019000D01*
X78635696Y-62019000D01*
X78431104Y-61978304D01*
X78431102Y-61978303D01*
X78431101Y-61978303D01*
X78238375Y-61898474D01*
X78064927Y-61782579D01*
X78064924Y-61782577D01*
X77917423Y-61635076D01*
X77894110Y-61600186D01*
X77801526Y-61461625D01*
X77721697Y-61268899D01*
X77681000Y-61064302D01*
X77681000Y-60855698D01*
X77721697Y-60651101D01*
X77801526Y-60458375D01*
X77917421Y-60284927D01*
X77917423Y-60284924D01*
X78064924Y-60137423D01*
X78085676Y-60123557D01*
X78238375Y-60021526D01*
X78431101Y-59941697D01*
X78431102Y-59941697D01*
X78431104Y-59941696D01*
X78635696Y-59901000D01*
X78844304Y-59901000D01*
X79048896Y-59941696D01*
X79048896Y-59941696D01*
G37*
G36*
X87938896Y-59941696D02*
X87938898Y-59941697D01*
X87938899Y-59941697D01*
X88131625Y-60021526D01*
X88284324Y-60123557D01*
X88305076Y-60137423D01*
X88452577Y-60284924D01*
X88452579Y-60284927D01*
X88568474Y-60458375D01*
X88648303Y-60651101D01*
X88689000Y-60855698D01*
X88689000Y-61064302D01*
X88648303Y-61268899D01*
X88568474Y-61461625D01*
X88475890Y-61600186D01*
X88452577Y-61635076D01*
X88305076Y-61782577D01*
X88305073Y-61782579D01*
X88131625Y-61898474D01*
X87938899Y-61978303D01*
X87938898Y-61978303D01*
X87938896Y-61978304D01*
X87734304Y-62019000D01*
X87525696Y-62019000D01*
X87321104Y-61978304D01*
X87321102Y-61978303D01*
X87321101Y-61978303D01*
X87128375Y-61898474D01*
X86954927Y-61782579D01*
X86954924Y-61782577D01*
X86807423Y-61635076D01*
X86784110Y-61600186D01*
X86691526Y-61461625D01*
X86611697Y-61268899D01*
X86571000Y-61064302D01*
X86571000Y-60855698D01*
X86611697Y-60651101D01*
X86691526Y-60458375D01*
X86807421Y-60284927D01*
X86807423Y-60284924D01*
X86954924Y-60137423D01*
X86975676Y-60123557D01*
X87128375Y-60021526D01*
X87321101Y-59941697D01*
X87321102Y-59941697D01*
X87321104Y-59941696D01*
X87525696Y-59901000D01*
X87734304Y-59901000D01*
X87938896Y-59941696D01*
X87938896Y-59941696D01*
G37*
G36*
X93103000Y-61861000D02*
X91301000Y-61861000D01*
X91301000Y-60059000D01*
X93103000Y-60059000D01*
X93103000Y-61861000D01*
X93103000Y-61861000D01*
G37*
G36*
X94852442Y-60065518D02*
X94918627Y-60072037D01*
X95031853Y-60106384D01*
X95088467Y-60123557D01*
X95227087Y-60197652D01*
X95244991Y-60207222D01*
X95280729Y-60236552D01*
X95382186Y-60319814D01*
X95465448Y-60421271D01*
X95494778Y-60457009D01*
X95494779Y-60457011D01*
X95578443Y-60613533D01*
X95578443Y-60613534D01*
X95629963Y-60783373D01*
X95647359Y-60960000D01*
X95629963Y-61136627D01*
X95595616Y-61249853D01*
X95578443Y-61306467D01*
X95504348Y-61445087D01*
X95494778Y-61462991D01*
X95465448Y-61498729D01*
X95382186Y-61600186D01*
X95280729Y-61683448D01*
X95244991Y-61712778D01*
X95244989Y-61712779D01*
X95088467Y-61796443D01*
X95031853Y-61813616D01*
X94918627Y-61847963D01*
X94852443Y-61854481D01*
X94786260Y-61861000D01*
X94697740Y-61861000D01*
X94631557Y-61854481D01*
X94565373Y-61847963D01*
X94452147Y-61813616D01*
X94395533Y-61796443D01*
X94239011Y-61712779D01*
X94239009Y-61712778D01*
X94203271Y-61683448D01*
X94101814Y-61600186D01*
X94018552Y-61498729D01*
X93989222Y-61462991D01*
X93979652Y-61445087D01*
X93905557Y-61306467D01*
X93888384Y-61249853D01*
X93854037Y-61136627D01*
X93836641Y-60960000D01*
X93854037Y-60783373D01*
X93905557Y-60613534D01*
X93905557Y-60613533D01*
X93989221Y-60457011D01*
X93989222Y-60457009D01*
X94018552Y-60421271D01*
X94101814Y-60319814D01*
X94203271Y-60236552D01*
X94239009Y-60207222D01*
X94256913Y-60197652D01*
X94395533Y-60123557D01*
X94452147Y-60106384D01*
X94565373Y-60072037D01*
X94631558Y-60065518D01*
X94697740Y-60059000D01*
X94786260Y-60059000D01*
X94852442Y-60065518D01*
X94852442Y-60065518D01*
G37*
G36*
X64908145Y-58307932D02*
X65073572Y-58376454D01*
X65222457Y-58475936D01*
X65349064Y-58602543D01*
X65448546Y-58751428D01*
X65517068Y-58916855D01*
X65552000Y-59092470D01*
X65552000Y-59271530D01*
X65517068Y-59447145D01*
X65448546Y-59612572D01*
X65349064Y-59761457D01*
X65222457Y-59888064D01*
X65073572Y-59987546D01*
X64908145Y-60056068D01*
X64732530Y-60091000D01*
X64553470Y-60091000D01*
X64377855Y-60056068D01*
X64212428Y-59987546D01*
X64063543Y-59888064D01*
X63936936Y-59761457D01*
X63837454Y-59612572D01*
X63768932Y-59447145D01*
X63734000Y-59271530D01*
X63734000Y-59092470D01*
X63768932Y-58916855D01*
X63837454Y-58751428D01*
X63936936Y-58602543D01*
X64063543Y-58475936D01*
X64212428Y-58376454D01*
X64377855Y-58307932D01*
X64553470Y-58273000D01*
X64732530Y-58273000D01*
X64908145Y-58307932D01*
X64908145Y-58307932D01*
G37*
G36*
X126249145Y-57799932D02*
X126414572Y-57868454D01*
X126563457Y-57967936D01*
X126690064Y-58094543D01*
X126789546Y-58243428D01*
X126858068Y-58408855D01*
X126893000Y-58584470D01*
X126893000Y-58763530D01*
X126858068Y-58939145D01*
X126789546Y-59104572D01*
X126690064Y-59253457D01*
X126563457Y-59380064D01*
X126414572Y-59479546D01*
X126249145Y-59548068D01*
X126073530Y-59583000D01*
X125894470Y-59583000D01*
X125718855Y-59548068D01*
X125553428Y-59479546D01*
X125404543Y-59380064D01*
X125277936Y-59253457D01*
X125178454Y-59104572D01*
X125109932Y-58939145D01*
X125075000Y-58763530D01*
X125075000Y-58584470D01*
X125109932Y-58408855D01*
X125178454Y-58243428D01*
X125277936Y-58094543D01*
X125404543Y-57967936D01*
X125553428Y-57868454D01*
X125718855Y-57799932D01*
X125894470Y-57765000D01*
X126073530Y-57765000D01*
X126249145Y-57799932D01*
X126249145Y-57799932D01*
G37*
G36*
X118629145Y-57799932D02*
X118794572Y-57868454D01*
X118943457Y-57967936D01*
X119070064Y-58094543D01*
X119169546Y-58243428D01*
X119238068Y-58408855D01*
X119273000Y-58584470D01*
X119273000Y-58763530D01*
X119238068Y-58939145D01*
X119169546Y-59104572D01*
X119070064Y-59253457D01*
X118943457Y-59380064D01*
X118794572Y-59479546D01*
X118629145Y-59548068D01*
X118453530Y-59583000D01*
X118274470Y-59583000D01*
X118098855Y-59548068D01*
X117933428Y-59479546D01*
X117784543Y-59380064D01*
X117657936Y-59253457D01*
X117558454Y-59104572D01*
X117489932Y-58939145D01*
X117455000Y-58763530D01*
X117455000Y-58584470D01*
X117489932Y-58408855D01*
X117558454Y-58243428D01*
X117657936Y-58094543D01*
X117784543Y-57967936D01*
X117933428Y-57868454D01*
X118098855Y-57799932D01*
X118274470Y-57765000D01*
X118453530Y-57765000D01*
X118629145Y-57799932D01*
X118629145Y-57799932D01*
G37*
G36*
X87938896Y-57401696D02*
X87938898Y-57401697D01*
X87938899Y-57401697D01*
X88131625Y-57481526D01*
X88304291Y-57596898D01*
X88305076Y-57597423D01*
X88452577Y-57744924D01*
X88452579Y-57744927D01*
X88568474Y-57918375D01*
X88648303Y-58111101D01*
X88648304Y-58111104D01*
X88689000Y-58315696D01*
X88689000Y-58524304D01*
X88673437Y-58602546D01*
X88648303Y-58728899D01*
X88568474Y-58921625D01*
X88556767Y-58939145D01*
X88452577Y-59095076D01*
X88305076Y-59242577D01*
X88305073Y-59242579D01*
X88131625Y-59358474D01*
X87938899Y-59438303D01*
X87938898Y-59438303D01*
X87938896Y-59438304D01*
X87734304Y-59479000D01*
X87525696Y-59479000D01*
X87321104Y-59438304D01*
X87321102Y-59438303D01*
X87321101Y-59438303D01*
X87128375Y-59358474D01*
X86954927Y-59242579D01*
X86954924Y-59242577D01*
X86807423Y-59095076D01*
X86703233Y-58939145D01*
X86691526Y-58921625D01*
X86611697Y-58728899D01*
X86586564Y-58602546D01*
X86571000Y-58524304D01*
X86571000Y-58315696D01*
X86611696Y-58111104D01*
X86611697Y-58111101D01*
X86691526Y-57918375D01*
X86807421Y-57744927D01*
X86807423Y-57744924D01*
X86954924Y-57597423D01*
X86955709Y-57596898D01*
X87128375Y-57481526D01*
X87321101Y-57401697D01*
X87321102Y-57401697D01*
X87321104Y-57401696D01*
X87525696Y-57361000D01*
X87734304Y-57361000D01*
X87938896Y-57401696D01*
X87938896Y-57401696D01*
G37*
G36*
X76508896Y-57401696D02*
X76508898Y-57401697D01*
X76508899Y-57401697D01*
X76701625Y-57481526D01*
X76874291Y-57596898D01*
X76875076Y-57597423D01*
X77022577Y-57744924D01*
X77022579Y-57744927D01*
X77138474Y-57918375D01*
X77218303Y-58111101D01*
X77218304Y-58111104D01*
X77259000Y-58315696D01*
X77259000Y-58524304D01*
X77243437Y-58602546D01*
X77218303Y-58728899D01*
X77138474Y-58921625D01*
X77126767Y-58939145D01*
X77022577Y-59095076D01*
X76875076Y-59242577D01*
X76875073Y-59242579D01*
X76701625Y-59358474D01*
X76508899Y-59438303D01*
X76508898Y-59438303D01*
X76508896Y-59438304D01*
X76304304Y-59479000D01*
X76095696Y-59479000D01*
X75891104Y-59438304D01*
X75891102Y-59438303D01*
X75891101Y-59438303D01*
X75698375Y-59358474D01*
X75524927Y-59242579D01*
X75524924Y-59242577D01*
X75377423Y-59095076D01*
X75273233Y-58939145D01*
X75261526Y-58921625D01*
X75181697Y-58728899D01*
X75156564Y-58602546D01*
X75141000Y-58524304D01*
X75141000Y-58315696D01*
X75181696Y-58111104D01*
X75181697Y-58111101D01*
X75261526Y-57918375D01*
X75377421Y-57744927D01*
X75377423Y-57744924D01*
X75524924Y-57597423D01*
X75525709Y-57596898D01*
X75698375Y-57481526D01*
X75891101Y-57401697D01*
X75891102Y-57401697D01*
X75891104Y-57401696D01*
X76095696Y-57361000D01*
X76304304Y-57361000D01*
X76508896Y-57401696D01*
X76508896Y-57401696D01*
G37*
G36*
X79048896Y-57401696D02*
X79048898Y-57401697D01*
X79048899Y-57401697D01*
X79241625Y-57481526D01*
X79414291Y-57596898D01*
X79415076Y-57597423D01*
X79562577Y-57744924D01*
X79562579Y-57744927D01*
X79678474Y-57918375D01*
X79758303Y-58111101D01*
X79758304Y-58111104D01*
X79799000Y-58315696D01*
X79799000Y-58524304D01*
X79783437Y-58602546D01*
X79758303Y-58728899D01*
X79678474Y-58921625D01*
X79666767Y-58939145D01*
X79562577Y-59095076D01*
X79415076Y-59242577D01*
X79415073Y-59242579D01*
X79241625Y-59358474D01*
X79048899Y-59438303D01*
X79048898Y-59438303D01*
X79048896Y-59438304D01*
X78844304Y-59479000D01*
X78635696Y-59479000D01*
X78431104Y-59438304D01*
X78431102Y-59438303D01*
X78431101Y-59438303D01*
X78238375Y-59358474D01*
X78064927Y-59242579D01*
X78064924Y-59242577D01*
X77917423Y-59095076D01*
X77813233Y-58939145D01*
X77801526Y-58921625D01*
X77721697Y-58728899D01*
X77696564Y-58602546D01*
X77681000Y-58524304D01*
X77681000Y-58315696D01*
X77721696Y-58111104D01*
X77721697Y-58111101D01*
X77801526Y-57918375D01*
X77917421Y-57744927D01*
X77917423Y-57744924D01*
X78064924Y-57597423D01*
X78065709Y-57596898D01*
X78238375Y-57481526D01*
X78431101Y-57401697D01*
X78431102Y-57401697D01*
X78431104Y-57401696D01*
X78635696Y-57361000D01*
X78844304Y-57361000D01*
X79048896Y-57401696D01*
X79048896Y-57401696D01*
G37*
G36*
X85398896Y-57401696D02*
X85398898Y-57401697D01*
X85398899Y-57401697D01*
X85591625Y-57481526D01*
X85764291Y-57596898D01*
X85765076Y-57597423D01*
X85912577Y-57744924D01*
X85912579Y-57744927D01*
X86028474Y-57918375D01*
X86108303Y-58111101D01*
X86108304Y-58111104D01*
X86149000Y-58315696D01*
X86149000Y-58524304D01*
X86133437Y-58602546D01*
X86108303Y-58728899D01*
X86028474Y-58921625D01*
X86016767Y-58939145D01*
X85912577Y-59095076D01*
X85765076Y-59242577D01*
X85765073Y-59242579D01*
X85591625Y-59358474D01*
X85398899Y-59438303D01*
X85398898Y-59438303D01*
X85398896Y-59438304D01*
X85194304Y-59479000D01*
X84985696Y-59479000D01*
X84781104Y-59438304D01*
X84781102Y-59438303D01*
X84781101Y-59438303D01*
X84588375Y-59358474D01*
X84414927Y-59242579D01*
X84414924Y-59242577D01*
X84267423Y-59095076D01*
X84163233Y-58939145D01*
X84151526Y-58921625D01*
X84071697Y-58728899D01*
X84046564Y-58602546D01*
X84031000Y-58524304D01*
X84031000Y-58315696D01*
X84071696Y-58111104D01*
X84071697Y-58111101D01*
X84151526Y-57918375D01*
X84267421Y-57744927D01*
X84267423Y-57744924D01*
X84414924Y-57597423D01*
X84415709Y-57596898D01*
X84588375Y-57481526D01*
X84781101Y-57401697D01*
X84781102Y-57401697D01*
X84781104Y-57401696D01*
X84985696Y-57361000D01*
X85194304Y-57361000D01*
X85398896Y-57401696D01*
X85398896Y-57401696D01*
G37*
G36*
X99368896Y-57401696D02*
X99368898Y-57401697D01*
X99368899Y-57401697D01*
X99561625Y-57481526D01*
X99734291Y-57596898D01*
X99735076Y-57597423D01*
X99882577Y-57744924D01*
X99882579Y-57744927D01*
X99998474Y-57918375D01*
X100078303Y-58111101D01*
X100078304Y-58111104D01*
X100119000Y-58315696D01*
X100119000Y-58524304D01*
X100103437Y-58602546D01*
X100078303Y-58728899D01*
X99998474Y-58921625D01*
X99986767Y-58939145D01*
X99882577Y-59095076D01*
X99735076Y-59242577D01*
X99735073Y-59242579D01*
X99561625Y-59358474D01*
X99368899Y-59438303D01*
X99368898Y-59438303D01*
X99368896Y-59438304D01*
X99164304Y-59479000D01*
X98955696Y-59479000D01*
X98751104Y-59438304D01*
X98751102Y-59438303D01*
X98751101Y-59438303D01*
X98558375Y-59358474D01*
X98384927Y-59242579D01*
X98384924Y-59242577D01*
X98237423Y-59095076D01*
X98133233Y-58939145D01*
X98121526Y-58921625D01*
X98041697Y-58728899D01*
X98016564Y-58602546D01*
X98001000Y-58524304D01*
X98001000Y-58315696D01*
X98041696Y-58111104D01*
X98041697Y-58111101D01*
X98121526Y-57918375D01*
X98237421Y-57744927D01*
X98237423Y-57744924D01*
X98384924Y-57597423D01*
X98385709Y-57596898D01*
X98558375Y-57481526D01*
X98751101Y-57401697D01*
X98751102Y-57401697D01*
X98751104Y-57401696D01*
X98955696Y-57361000D01*
X99164304Y-57361000D01*
X99368896Y-57401696D01*
X99368896Y-57401696D01*
G37*
G36*
X101908896Y-57401696D02*
X101908898Y-57401697D01*
X101908899Y-57401697D01*
X102101625Y-57481526D01*
X102274291Y-57596898D01*
X102275076Y-57597423D01*
X102422577Y-57744924D01*
X102422579Y-57744927D01*
X102538474Y-57918375D01*
X102618303Y-58111101D01*
X102618304Y-58111104D01*
X102659000Y-58315696D01*
X102659000Y-58524304D01*
X102643437Y-58602546D01*
X102618303Y-58728899D01*
X102538474Y-58921625D01*
X102526767Y-58939145D01*
X102422577Y-59095076D01*
X102275076Y-59242577D01*
X102275073Y-59242579D01*
X102101625Y-59358474D01*
X101908899Y-59438303D01*
X101908898Y-59438303D01*
X101908896Y-59438304D01*
X101704304Y-59479000D01*
X101495696Y-59479000D01*
X101291104Y-59438304D01*
X101291102Y-59438303D01*
X101291101Y-59438303D01*
X101098375Y-59358474D01*
X100924927Y-59242579D01*
X100924924Y-59242577D01*
X100777423Y-59095076D01*
X100673233Y-58939145D01*
X100661526Y-58921625D01*
X100581697Y-58728899D01*
X100556564Y-58602546D01*
X100541000Y-58524304D01*
X100541000Y-58315696D01*
X100581696Y-58111104D01*
X100581697Y-58111101D01*
X100661526Y-57918375D01*
X100777421Y-57744927D01*
X100777423Y-57744924D01*
X100924924Y-57597423D01*
X100925709Y-57596898D01*
X101098375Y-57481526D01*
X101291101Y-57401697D01*
X101291102Y-57401697D01*
X101291104Y-57401696D01*
X101495696Y-57361000D01*
X101704304Y-57361000D01*
X101908896Y-57401696D01*
X101908896Y-57401696D01*
G37*
G36*
X108258896Y-57401696D02*
X108258898Y-57401697D01*
X108258899Y-57401697D01*
X108451625Y-57481526D01*
X108624291Y-57596898D01*
X108625076Y-57597423D01*
X108772577Y-57744924D01*
X108772579Y-57744927D01*
X108888474Y-57918375D01*
X108968303Y-58111101D01*
X108968304Y-58111104D01*
X109009000Y-58315696D01*
X109009000Y-58524304D01*
X108993437Y-58602546D01*
X108968303Y-58728899D01*
X108888474Y-58921625D01*
X108876767Y-58939145D01*
X108772577Y-59095076D01*
X108625076Y-59242577D01*
X108625073Y-59242579D01*
X108451625Y-59358474D01*
X108258899Y-59438303D01*
X108258898Y-59438303D01*
X108258896Y-59438304D01*
X108054304Y-59479000D01*
X107845696Y-59479000D01*
X107641104Y-59438304D01*
X107641102Y-59438303D01*
X107641101Y-59438303D01*
X107448375Y-59358474D01*
X107274927Y-59242579D01*
X107274924Y-59242577D01*
X107127423Y-59095076D01*
X107023233Y-58939145D01*
X107011526Y-58921625D01*
X106931697Y-58728899D01*
X106906564Y-58602546D01*
X106891000Y-58524304D01*
X106891000Y-58315696D01*
X106931696Y-58111104D01*
X106931697Y-58111101D01*
X107011526Y-57918375D01*
X107127421Y-57744927D01*
X107127423Y-57744924D01*
X107274924Y-57597423D01*
X107275709Y-57596898D01*
X107448375Y-57481526D01*
X107641101Y-57401697D01*
X107641102Y-57401697D01*
X107641104Y-57401696D01*
X107845696Y-57361000D01*
X108054304Y-57361000D01*
X108258896Y-57401696D01*
X108258896Y-57401696D01*
G37*
G36*
X110798896Y-57401696D02*
X110798898Y-57401697D01*
X110798899Y-57401697D01*
X110991625Y-57481526D01*
X111164291Y-57596898D01*
X111165076Y-57597423D01*
X111312577Y-57744924D01*
X111312579Y-57744927D01*
X111428474Y-57918375D01*
X111508303Y-58111101D01*
X111508304Y-58111104D01*
X111549000Y-58315696D01*
X111549000Y-58524304D01*
X111533437Y-58602546D01*
X111508303Y-58728899D01*
X111428474Y-58921625D01*
X111416767Y-58939145D01*
X111312577Y-59095076D01*
X111165076Y-59242577D01*
X111165073Y-59242579D01*
X110991625Y-59358474D01*
X110798899Y-59438303D01*
X110798898Y-59438303D01*
X110798896Y-59438304D01*
X110594304Y-59479000D01*
X110385696Y-59479000D01*
X110181104Y-59438304D01*
X110181102Y-59438303D01*
X110181101Y-59438303D01*
X109988375Y-59358474D01*
X109814927Y-59242579D01*
X109814924Y-59242577D01*
X109667423Y-59095076D01*
X109563233Y-58939145D01*
X109551526Y-58921625D01*
X109471697Y-58728899D01*
X109446564Y-58602546D01*
X109431000Y-58524304D01*
X109431000Y-58315696D01*
X109471696Y-58111104D01*
X109471697Y-58111101D01*
X109551526Y-57918375D01*
X109667421Y-57744927D01*
X109667423Y-57744924D01*
X109814924Y-57597423D01*
X109815709Y-57596898D01*
X109988375Y-57481526D01*
X110181101Y-57401697D01*
X110181102Y-57401697D01*
X110181104Y-57401696D01*
X110385696Y-57361000D01*
X110594304Y-57361000D01*
X110798896Y-57401696D01*
X110798896Y-57401696D01*
G37*
G36*
X70925000Y-58921000D02*
X69623000Y-58921000D01*
X69623000Y-57919000D01*
X70925000Y-57919000D01*
X70925000Y-58921000D01*
X70925000Y-58921000D01*
G37*
G36*
X73125000Y-58921000D02*
X71823000Y-58921000D01*
X71823000Y-57919000D01*
X73125000Y-57919000D01*
X73125000Y-58921000D01*
X73125000Y-58921000D01*
G37*
G36*
X62241145Y-55767932D02*
X62406572Y-55836454D01*
X62555457Y-55935936D01*
X62682064Y-56062543D01*
X62781546Y-56211428D01*
X62850068Y-56376855D01*
X62885000Y-56552470D01*
X62885000Y-56731530D01*
X62850068Y-56907145D01*
X62781546Y-57072572D01*
X62682064Y-57221457D01*
X62555457Y-57348064D01*
X62406572Y-57447546D01*
X62241145Y-57516068D01*
X62065530Y-57551000D01*
X61886470Y-57551000D01*
X61710855Y-57516068D01*
X61545428Y-57447546D01*
X61396543Y-57348064D01*
X61269936Y-57221457D01*
X61170454Y-57072572D01*
X61101932Y-56907145D01*
X61067000Y-56731530D01*
X61067000Y-56552470D01*
X61101932Y-56376855D01*
X61170454Y-56211428D01*
X61269936Y-56062543D01*
X61396543Y-55935936D01*
X61545428Y-55836454D01*
X61710855Y-55767932D01*
X61886470Y-55733000D01*
X62065530Y-55733000D01*
X62241145Y-55767932D01*
X62241145Y-55767932D01*
G37*
G36*
X118629145Y-55259932D02*
X118794572Y-55328454D01*
X118943457Y-55427936D01*
X119070064Y-55554543D01*
X119169546Y-55703428D01*
X119238068Y-55868855D01*
X119273000Y-56044470D01*
X119273000Y-56223530D01*
X119238068Y-56399145D01*
X119169546Y-56564572D01*
X119070064Y-56713457D01*
X118943457Y-56840064D01*
X118794572Y-56939546D01*
X118629145Y-57008068D01*
X118453530Y-57043000D01*
X118274470Y-57043000D01*
X118098855Y-57008068D01*
X117933428Y-56939546D01*
X117784543Y-56840064D01*
X117657936Y-56713457D01*
X117558454Y-56564572D01*
X117489932Y-56399145D01*
X117455000Y-56223530D01*
X117455000Y-56044470D01*
X117489932Y-55868855D01*
X117558454Y-55703428D01*
X117657936Y-55554543D01*
X117784543Y-55427936D01*
X117933428Y-55328454D01*
X118098855Y-55259932D01*
X118274470Y-55225000D01*
X118453530Y-55225000D01*
X118629145Y-55259932D01*
X118629145Y-55259932D01*
G37*
G36*
X126249145Y-55259932D02*
X126414572Y-55328454D01*
X126563457Y-55427936D01*
X126690064Y-55554543D01*
X126789546Y-55703428D01*
X126858068Y-55868855D01*
X126893000Y-56044470D01*
X126893000Y-56223530D01*
X126858068Y-56399145D01*
X126789546Y-56564572D01*
X126690064Y-56713457D01*
X126563457Y-56840064D01*
X126414572Y-56939546D01*
X126249145Y-57008068D01*
X126073530Y-57043000D01*
X125894470Y-57043000D01*
X125718855Y-57008068D01*
X125553428Y-56939546D01*
X125404543Y-56840064D01*
X125277936Y-56713457D01*
X125178454Y-56564572D01*
X125109932Y-56399145D01*
X125075000Y-56223530D01*
X125075000Y-56044470D01*
X125109932Y-55868855D01*
X125178454Y-55703428D01*
X125277936Y-55554543D01*
X125404543Y-55427936D01*
X125553428Y-55328454D01*
X125718855Y-55259932D01*
X125894470Y-55225000D01*
X126073530Y-55225000D01*
X126249145Y-55259932D01*
X126249145Y-55259932D01*
G37*
G36*
X77259000Y-56939000D02*
X75141000Y-56939000D01*
X75141000Y-54821000D01*
X77259000Y-54821000D01*
X77259000Y-56939000D01*
X77259000Y-56939000D01*
G37*
G36*
X79799000Y-56939000D02*
X77681000Y-56939000D01*
X77681000Y-54821000D01*
X79799000Y-54821000D01*
X79799000Y-56939000D01*
X79799000Y-56939000D01*
G37*
G36*
X86149000Y-56939000D02*
X84031000Y-56939000D01*
X84031000Y-54821000D01*
X86149000Y-54821000D01*
X86149000Y-56939000D01*
X86149000Y-56939000D01*
G37*
G36*
X88689000Y-56939000D02*
X86571000Y-56939000D01*
X86571000Y-54821000D01*
X88689000Y-54821000D01*
X88689000Y-56939000D01*
X88689000Y-56939000D01*
G37*
G36*
X102659000Y-56939000D02*
X100541000Y-56939000D01*
X100541000Y-54821000D01*
X102659000Y-54821000D01*
X102659000Y-56939000D01*
X102659000Y-56939000D01*
G37*
G36*
X100119000Y-56939000D02*
X98001000Y-56939000D01*
X98001000Y-54821000D01*
X100119000Y-54821000D01*
X100119000Y-56939000D01*
X100119000Y-56939000D01*
G37*
G36*
X109009000Y-56939000D02*
X106891000Y-56939000D01*
X106891000Y-54821000D01*
X109009000Y-54821000D01*
X109009000Y-56939000D01*
X109009000Y-56939000D01*
G37*
G36*
X111549000Y-56939000D02*
X109431000Y-56939000D01*
X109431000Y-54821000D01*
X111549000Y-54821000D01*
X111549000Y-56939000D01*
X111549000Y-56939000D01*
G37*
G36*
X71682896Y-53845696D02*
X71682898Y-53845697D01*
X71682899Y-53845697D01*
X71875625Y-53925526D01*
X72023857Y-54024572D01*
X72049076Y-54041423D01*
X72196577Y-54188924D01*
X72196579Y-54188927D01*
X72312474Y-54362375D01*
X72392303Y-54555101D01*
X72392304Y-54555104D01*
X72433000Y-54759696D01*
X72433000Y-54968304D01*
X72431456Y-54976068D01*
X72392303Y-55172899D01*
X72312474Y-55365625D01*
X72197102Y-55538291D01*
X72196577Y-55539076D01*
X72049076Y-55686577D01*
X72049073Y-55686579D01*
X71875625Y-55802474D01*
X71682899Y-55882303D01*
X71682898Y-55882303D01*
X71682896Y-55882304D01*
X71478304Y-55923000D01*
X71269696Y-55923000D01*
X71065104Y-55882304D01*
X71065102Y-55882303D01*
X71065101Y-55882303D01*
X70872375Y-55802474D01*
X70698927Y-55686579D01*
X70698924Y-55686577D01*
X70551423Y-55539076D01*
X70550898Y-55538291D01*
X70435526Y-55365625D01*
X70355697Y-55172899D01*
X70316545Y-54976068D01*
X70315000Y-54968304D01*
X70315000Y-54759696D01*
X70355696Y-54555104D01*
X70355697Y-54555101D01*
X70435526Y-54362375D01*
X70551421Y-54188927D01*
X70551423Y-54188924D01*
X70698924Y-54041423D01*
X70724143Y-54024572D01*
X70872375Y-53925526D01*
X71065101Y-53845697D01*
X71065102Y-53845697D01*
X71065104Y-53845696D01*
X71269696Y-53805000D01*
X71478304Y-53805000D01*
X71682896Y-53845696D01*
X71682896Y-53845696D01*
G37*
G36*
X64908145Y-53227932D02*
X65073572Y-53296454D01*
X65222457Y-53395936D01*
X65349064Y-53522543D01*
X65448546Y-53671428D01*
X65517068Y-53836855D01*
X65552000Y-54012470D01*
X65552000Y-54191530D01*
X65517068Y-54367145D01*
X65448546Y-54532572D01*
X65349064Y-54681457D01*
X65222457Y-54808064D01*
X65073572Y-54907546D01*
X64908145Y-54976068D01*
X64732530Y-55011000D01*
X64553470Y-55011000D01*
X64377855Y-54976068D01*
X64212428Y-54907546D01*
X64063543Y-54808064D01*
X63936936Y-54681457D01*
X63837454Y-54532572D01*
X63768932Y-54367145D01*
X63734000Y-54191530D01*
X63734000Y-54012470D01*
X63768932Y-53836855D01*
X63837454Y-53671428D01*
X63936936Y-53522543D01*
X64063543Y-53395936D01*
X64212428Y-53296454D01*
X64377855Y-53227932D01*
X64553470Y-53193000D01*
X64732530Y-53193000D01*
X64908145Y-53227932D01*
X64908145Y-53227932D01*
G37*
G36*
X118629145Y-52719932D02*
X118794572Y-52788454D01*
X118943457Y-52887936D01*
X119070064Y-53014543D01*
X119169546Y-53163428D01*
X119238068Y-53328855D01*
X119273000Y-53504470D01*
X119273000Y-53683530D01*
X119238068Y-53859145D01*
X119169546Y-54024572D01*
X119070064Y-54173457D01*
X118943457Y-54300064D01*
X118794572Y-54399546D01*
X118629145Y-54468068D01*
X118453530Y-54503000D01*
X118274470Y-54503000D01*
X118098855Y-54468068D01*
X117933428Y-54399546D01*
X117784543Y-54300064D01*
X117657936Y-54173457D01*
X117558454Y-54024572D01*
X117489932Y-53859145D01*
X117455000Y-53683530D01*
X117455000Y-53504470D01*
X117489932Y-53328855D01*
X117558454Y-53163428D01*
X117657936Y-53014543D01*
X117784543Y-52887936D01*
X117933428Y-52788454D01*
X118098855Y-52719932D01*
X118274470Y-52685000D01*
X118453530Y-52685000D01*
X118629145Y-52719932D01*
X118629145Y-52719932D01*
G37*
G36*
X126249145Y-52719932D02*
X126414572Y-52788454D01*
X126563457Y-52887936D01*
X126690064Y-53014543D01*
X126789546Y-53163428D01*
X126858068Y-53328855D01*
X126893000Y-53504470D01*
X126893000Y-53683530D01*
X126858068Y-53859145D01*
X126789546Y-54024572D01*
X126690064Y-54173457D01*
X126563457Y-54300064D01*
X126414572Y-54399546D01*
X126249145Y-54468068D01*
X126073530Y-54503000D01*
X125894470Y-54503000D01*
X125718855Y-54468068D01*
X125553428Y-54399546D01*
X125404543Y-54300064D01*
X125277936Y-54173457D01*
X125178454Y-54024572D01*
X125109932Y-53859145D01*
X125075000Y-53683530D01*
X125075000Y-53504470D01*
X125109932Y-53328855D01*
X125178454Y-53163428D01*
X125277936Y-53014543D01*
X125404543Y-52887936D01*
X125553428Y-52788454D01*
X125718855Y-52719932D01*
X125894470Y-52685000D01*
X126073530Y-52685000D01*
X126249145Y-52719932D01*
X126249145Y-52719932D01*
G37*
G36*
X115992801Y-54241999D02*
X114090801Y-54241999D01*
X114090801Y-52339999D01*
X115992801Y-52339999D01*
X115992801Y-54241999D01*
X115992801Y-54241999D01*
G37*
G36*
X76046000Y-53956000D02*
X74494000Y-53956000D01*
X74494000Y-51454000D01*
X76046000Y-51454000D01*
X76046000Y-53956000D01*
X76046000Y-53956000D01*
G37*
G36*
X98906000Y-53956000D02*
X97354000Y-53956000D01*
X97354000Y-51454000D01*
X98906000Y-51454000D01*
X98906000Y-53956000D01*
X98906000Y-53956000D01*
G37*
G36*
X103306000Y-53956000D02*
X101754000Y-53956000D01*
X101754000Y-51454000D01*
X103306000Y-51454000D01*
X103306000Y-53956000D01*
X103306000Y-53956000D01*
G37*
G36*
X89336000Y-53956000D02*
X87784000Y-53956000D01*
X87784000Y-51454000D01*
X89336000Y-51454000D01*
X89336000Y-53956000D01*
X89336000Y-53956000D01*
G37*
G36*
X80446000Y-53956000D02*
X78894000Y-53956000D01*
X78894000Y-51454000D01*
X80446000Y-51454000D01*
X80446000Y-53956000D01*
X80446000Y-53956000D01*
G37*
G36*
X112196000Y-53956000D02*
X110644000Y-53956000D01*
X110644000Y-51454000D01*
X112196000Y-51454000D01*
X112196000Y-53956000D01*
X112196000Y-53956000D01*
G37*
G36*
X84936000Y-53956000D02*
X83384000Y-53956000D01*
X83384000Y-51454000D01*
X84936000Y-51454000D01*
X84936000Y-53956000D01*
X84936000Y-53956000D01*
G37*
G36*
X107796000Y-53956000D02*
X106244000Y-53956000D01*
X106244000Y-51454000D01*
X107796000Y-51454000D01*
X107796000Y-53956000D01*
X107796000Y-53956000D01*
G37*
G36*
X71682896Y-51305696D02*
X71682898Y-51305697D01*
X71682899Y-51305697D01*
X71875625Y-51385526D01*
X72017014Y-51480000D01*
X72049076Y-51501423D01*
X72196577Y-51648924D01*
X72196579Y-51648927D01*
X72312474Y-51822375D01*
X72370722Y-51963000D01*
X72392304Y-52015104D01*
X72433000Y-52219696D01*
X72433000Y-52428302D01*
X72392303Y-52632899D01*
X72312474Y-52825625D01*
X72197102Y-52998291D01*
X72196577Y-52999076D01*
X72049076Y-53146577D01*
X72049073Y-53146579D01*
X71875625Y-53262474D01*
X71682899Y-53342303D01*
X71682898Y-53342303D01*
X71682896Y-53342304D01*
X71478304Y-53383000D01*
X71269696Y-53383000D01*
X71065104Y-53342304D01*
X71065102Y-53342303D01*
X71065101Y-53342303D01*
X70872375Y-53262474D01*
X70698927Y-53146579D01*
X70698924Y-53146577D01*
X70551423Y-52999076D01*
X70550898Y-52998291D01*
X70435526Y-52825625D01*
X70355697Y-52632899D01*
X70315000Y-52428302D01*
X70315000Y-52219696D01*
X70355696Y-52015104D01*
X70377278Y-51963000D01*
X70435526Y-51822375D01*
X70551421Y-51648927D01*
X70551423Y-51648924D01*
X70698924Y-51501423D01*
X70730986Y-51480000D01*
X70872375Y-51385526D01*
X71065101Y-51305697D01*
X71065102Y-51305697D01*
X71065104Y-51305696D01*
X71269696Y-51265000D01*
X71478304Y-51265000D01*
X71682896Y-51305696D01*
X71682896Y-51305696D01*
G37*
G36*
X123587000Y-52750000D02*
X122285000Y-52750000D01*
X122285000Y-51898000D01*
X123587000Y-51898000D01*
X123587000Y-52750000D01*
X123587000Y-52750000D01*
G37*
G36*
X121687000Y-52750000D02*
X120385000Y-52750000D01*
X120385000Y-51898000D01*
X121687000Y-51898000D01*
X121687000Y-52750000D01*
X121687000Y-52750000D01*
G37*
G36*
X126249145Y-50179932D02*
X126414572Y-50248454D01*
X126563457Y-50347936D01*
X126690064Y-50474543D01*
X126789546Y-50623428D01*
X126858068Y-50788855D01*
X126893000Y-50964470D01*
X126893000Y-51143530D01*
X126858068Y-51319145D01*
X126789546Y-51484572D01*
X126690064Y-51633457D01*
X126563457Y-51760064D01*
X126414572Y-51859546D01*
X126249145Y-51928068D01*
X126073530Y-51963000D01*
X125894470Y-51963000D01*
X125718855Y-51928068D01*
X125553428Y-51859546D01*
X125404543Y-51760064D01*
X125277936Y-51633457D01*
X125178454Y-51484572D01*
X125109932Y-51319145D01*
X125075000Y-51143530D01*
X125075000Y-50964470D01*
X125109932Y-50788855D01*
X125178454Y-50623428D01*
X125277936Y-50474543D01*
X125404543Y-50347936D01*
X125553428Y-50248454D01*
X125718855Y-50179932D01*
X125894470Y-50145000D01*
X126073530Y-50145000D01*
X126249145Y-50179932D01*
X126249145Y-50179932D01*
G37*
G36*
X118629145Y-50179932D02*
X118794572Y-50248454D01*
X118943457Y-50347936D01*
X119070064Y-50474543D01*
X119169546Y-50623428D01*
X119238068Y-50788855D01*
X119273000Y-50964470D01*
X119273000Y-51143530D01*
X119238068Y-51319145D01*
X119169546Y-51484572D01*
X119070064Y-51633457D01*
X118943457Y-51760064D01*
X118794572Y-51859546D01*
X118629145Y-51928068D01*
X118453530Y-51963000D01*
X118274470Y-51963000D01*
X118098855Y-51928068D01*
X117933428Y-51859546D01*
X117784543Y-51760064D01*
X117657936Y-51633457D01*
X117558454Y-51484572D01*
X117489932Y-51319145D01*
X117455000Y-51143530D01*
X117455000Y-50964470D01*
X117489932Y-50788855D01*
X117558454Y-50623428D01*
X117657936Y-50474543D01*
X117784543Y-50347936D01*
X117933428Y-50248454D01*
X118098855Y-50179932D01*
X118274470Y-50145000D01*
X118453530Y-50145000D01*
X118629145Y-50179932D01*
X118629145Y-50179932D01*
G37*
G36*
X123587000Y-51480000D02*
X122285000Y-51480000D01*
X122285000Y-50628000D01*
X123587000Y-50628000D01*
X123587000Y-51480000D01*
X123587000Y-51480000D01*
G37*
G36*
X121687000Y-51480000D02*
X120385000Y-51480000D01*
X120385000Y-50628000D01*
X121687000Y-50628000D01*
X121687000Y-51480000D01*
X121687000Y-51480000D01*
G37*
G36*
X116576946Y-49622931D02*
X116742373Y-49691453D01*
X116891258Y-49790935D01*
X117017865Y-49917542D01*
X117117347Y-50066427D01*
X117185869Y-50231854D01*
X117220801Y-50407469D01*
X117220801Y-50586529D01*
X117185869Y-50762144D01*
X117117347Y-50927571D01*
X117017865Y-51076456D01*
X116891258Y-51203063D01*
X116742373Y-51302545D01*
X116576946Y-51371067D01*
X116401331Y-51405999D01*
X116222271Y-51405999D01*
X116046656Y-51371067D01*
X115881229Y-51302545D01*
X115732344Y-51203063D01*
X115605737Y-51076456D01*
X115506255Y-50927571D01*
X115437733Y-50762144D01*
X115402801Y-50586529D01*
X115402801Y-50407469D01*
X115437733Y-50231854D01*
X115506255Y-50066427D01*
X115605737Y-49917542D01*
X115732344Y-49790935D01*
X115881229Y-49691453D01*
X116046656Y-49622931D01*
X116222271Y-49587999D01*
X116401331Y-49587999D01*
X116576946Y-49622931D01*
X116576946Y-49622931D01*
G37*
G36*
X72433000Y-50843000D02*
X70315000Y-50843000D01*
X70315000Y-48725000D01*
X72433000Y-48725000D01*
X72433000Y-50843000D01*
X72433000Y-50843000D01*
G37*
G36*
X67353000Y-50843000D02*
X65235000Y-50843000D01*
X65235000Y-48725000D01*
X67353000Y-48725000D01*
X67353000Y-50843000D01*
X67353000Y-50843000D01*
G37*
G36*
X122571000Y-49448000D02*
X121269000Y-49448000D01*
X121269000Y-48596000D01*
X122571000Y-48596000D01*
X122571000Y-49448000D01*
X122571000Y-49448000D01*
G37*
G36*
X124471000Y-49448000D02*
X123169000Y-49448000D01*
X123169000Y-48596000D01*
X124471000Y-48596000D01*
X124471000Y-49448000D01*
X124471000Y-49448000D01*
G37*
G36*
X66602896Y-46225696D02*
X66602898Y-46225697D01*
X66602899Y-46225697D01*
X66795625Y-46305526D01*
X66968291Y-46420898D01*
X66969076Y-46421423D01*
X67116577Y-46568924D01*
X67116579Y-46568927D01*
X67232474Y-46742375D01*
X67312303Y-46935101D01*
X67312304Y-46935104D01*
X67353000Y-47139696D01*
X67353000Y-47348304D01*
X67318668Y-47520903D01*
X67312303Y-47552899D01*
X67232474Y-47745625D01*
X67117102Y-47918291D01*
X67116577Y-47919076D01*
X66969076Y-48066577D01*
X66969073Y-48066579D01*
X66795625Y-48182474D01*
X66602899Y-48262303D01*
X66602898Y-48262303D01*
X66602896Y-48262304D01*
X66398304Y-48303000D01*
X66189696Y-48303000D01*
X65985104Y-48262304D01*
X65985102Y-48262303D01*
X65985101Y-48262303D01*
X65792375Y-48182474D01*
X65618927Y-48066579D01*
X65618924Y-48066577D01*
X65471423Y-47919076D01*
X65470898Y-47918291D01*
X65355526Y-47745625D01*
X65275697Y-47552899D01*
X65269333Y-47520903D01*
X65235000Y-47348304D01*
X65235000Y-47139696D01*
X65275696Y-46935104D01*
X65275697Y-46935101D01*
X65355526Y-46742375D01*
X65471421Y-46568927D01*
X65471423Y-46568924D01*
X65618924Y-46421423D01*
X65619709Y-46420898D01*
X65792375Y-46305526D01*
X65985101Y-46225697D01*
X65985102Y-46225697D01*
X65985104Y-46225696D01*
X66189696Y-46185000D01*
X66398304Y-46185000D01*
X66602896Y-46225696D01*
X66602896Y-46225696D01*
G37*
G36*
X121852425Y-46052760D02*
X121852428Y-46052761D01*
X121852429Y-46052761D01*
X122031693Y-46107140D01*
X122031695Y-46107141D01*
X122196905Y-46195448D01*
X122341712Y-46314288D01*
X122460552Y-46459095D01*
X122548859Y-46624305D01*
X122603240Y-46803575D01*
X122621601Y-46990000D01*
X122603240Y-47176425D01*
X122548859Y-47355695D01*
X122460552Y-47520905D01*
X122341712Y-47665712D01*
X122196905Y-47784552D01*
X122196903Y-47784553D01*
X122031693Y-47872860D01*
X121852429Y-47927239D01*
X121852428Y-47927239D01*
X121852425Y-47927240D01*
X121712718Y-47941000D01*
X121619282Y-47941000D01*
X121479575Y-47927240D01*
X121479572Y-47927239D01*
X121479571Y-47927239D01*
X121300307Y-47872860D01*
X121135097Y-47784553D01*
X121135095Y-47784552D01*
X120990288Y-47665712D01*
X120871448Y-47520905D01*
X120783141Y-47355695D01*
X120728760Y-47176425D01*
X120710399Y-46990000D01*
X120728760Y-46803575D01*
X120783141Y-46624305D01*
X120871448Y-46459095D01*
X120990288Y-46314288D01*
X121135095Y-46195448D01*
X121300305Y-46107141D01*
X121300307Y-46107140D01*
X121479571Y-46052761D01*
X121479572Y-46052761D01*
X121479575Y-46052760D01*
X121619282Y-46039000D01*
X121712718Y-46039000D01*
X121852425Y-46052760D01*
X121852425Y-46052760D01*
G37*
G36*
X125157000Y-47941000D02*
X123255000Y-47941000D01*
X123255000Y-46039000D01*
X125157000Y-46039000D01*
X125157000Y-47941000D01*
X125157000Y-47941000D01*
G37*
G36*
X119312425Y-46052760D02*
X119312428Y-46052761D01*
X119312429Y-46052761D01*
X119491693Y-46107140D01*
X119491695Y-46107141D01*
X119656905Y-46195448D01*
X119801712Y-46314288D01*
X119920552Y-46459095D01*
X120008859Y-46624305D01*
X120063240Y-46803575D01*
X120081601Y-46990000D01*
X120063240Y-47176425D01*
X120008859Y-47355695D01*
X119920552Y-47520905D01*
X119801712Y-47665712D01*
X119656905Y-47784552D01*
X119656903Y-47784553D01*
X119491693Y-47872860D01*
X119312429Y-47927239D01*
X119312428Y-47927239D01*
X119312425Y-47927240D01*
X119172718Y-47941000D01*
X119079282Y-47941000D01*
X118939575Y-47927240D01*
X118939572Y-47927239D01*
X118939571Y-47927239D01*
X118760307Y-47872860D01*
X118595097Y-47784553D01*
X118595095Y-47784552D01*
X118450288Y-47665712D01*
X118331448Y-47520905D01*
X118243141Y-47355695D01*
X118188760Y-47176425D01*
X118170399Y-46990000D01*
X118188760Y-46803575D01*
X118243141Y-46624305D01*
X118331448Y-46459095D01*
X118450288Y-46314288D01*
X118595095Y-46195448D01*
X118760305Y-46107141D01*
X118760307Y-46107140D01*
X118939571Y-46052761D01*
X118939572Y-46052761D01*
X118939575Y-46052760D01*
X119079282Y-46039000D01*
X119172718Y-46039000D01*
X119312425Y-46052760D01*
X119312425Y-46052760D01*
G37*
G36*
X123267000Y-45511000D02*
X121965000Y-45511000D01*
X121965000Y-44659000D01*
X123267000Y-44659000D01*
X123267000Y-45511000D01*
X123267000Y-45511000D01*
G37*
G36*
X121367000Y-45511000D02*
X120065000Y-45511000D01*
X120065000Y-44659000D01*
X121367000Y-44659000D01*
X121367000Y-45511000D01*
X121367000Y-45511000D01*
G37*
G36*
X108194946Y-42383931D02*
X108360373Y-42452453D01*
X108509258Y-42551935D01*
X108635865Y-42678542D01*
X108735347Y-42827427D01*
X108803869Y-42992854D01*
X108838801Y-43168469D01*
X108838801Y-43347529D01*
X108803869Y-43523144D01*
X108735347Y-43688571D01*
X108635865Y-43837456D01*
X108509258Y-43964063D01*
X108360373Y-44063545D01*
X108194946Y-44132067D01*
X108019331Y-44166999D01*
X107840271Y-44166999D01*
X107664656Y-44132067D01*
X107499229Y-44063545D01*
X107350344Y-43964063D01*
X107223737Y-43837456D01*
X107124255Y-43688571D01*
X107055733Y-43523144D01*
X107020801Y-43347529D01*
X107020801Y-43168469D01*
X107055733Y-42992854D01*
X107124255Y-42827427D01*
X107223737Y-42678542D01*
X107350344Y-42551935D01*
X107499229Y-42452453D01*
X107664656Y-42383931D01*
X107840271Y-42348999D01*
X108019331Y-42348999D01*
X108194946Y-42383931D01*
X108194946Y-42383931D01*
G37*
G36*
X123267000Y-44114000D02*
X121965000Y-44114000D01*
X121965000Y-43262000D01*
X123267000Y-43262000D01*
X123267000Y-44114000D01*
X123267000Y-44114000D01*
G37*
G36*
X121367000Y-44114000D02*
X120065000Y-44114000D01*
X120065000Y-43262000D01*
X121367000Y-43262000D01*
X121367000Y-44114000D01*
X121367000Y-44114000D01*
G37*
G36*
X99988226Y-42193759D02*
X99988229Y-42193760D01*
X99988230Y-42193760D01*
X100167494Y-42248139D01*
X100167496Y-42248140D01*
X100332706Y-42336447D01*
X100477513Y-42455287D01*
X100596353Y-42600094D01*
X100684660Y-42765304D01*
X100739041Y-42944574D01*
X100757402Y-43130999D01*
X100739041Y-43317424D01*
X100684660Y-43496694D01*
X100596353Y-43661904D01*
X100477513Y-43806711D01*
X100332706Y-43925551D01*
X100332704Y-43925552D01*
X100167494Y-44013859D01*
X99988230Y-44068238D01*
X99988229Y-44068238D01*
X99988226Y-44068239D01*
X99848519Y-44081999D01*
X99755083Y-44081999D01*
X99615376Y-44068239D01*
X99615373Y-44068238D01*
X99615372Y-44068238D01*
X99436108Y-44013859D01*
X99270898Y-43925552D01*
X99270896Y-43925551D01*
X99126089Y-43806711D01*
X99007249Y-43661904D01*
X98918942Y-43496694D01*
X98864561Y-43317424D01*
X98846200Y-43130999D01*
X98864561Y-42944574D01*
X98918942Y-42765304D01*
X99007249Y-42600094D01*
X99126089Y-42455287D01*
X99270896Y-42336447D01*
X99436106Y-42248140D01*
X99436108Y-42248139D01*
X99615372Y-42193760D01*
X99615373Y-42193760D01*
X99615376Y-42193759D01*
X99755083Y-42179999D01*
X99848519Y-42179999D01*
X99988226Y-42193759D01*
X99988226Y-42193759D01*
G37*
G36*
X98195801Y-43781999D02*
X97343801Y-43781999D01*
X97343801Y-42479999D01*
X98195801Y-42479999D01*
X98195801Y-43781999D01*
X98195801Y-43781999D01*
G37*
G36*
X121660756Y-38563969D02*
X121890920Y-38659306D01*
X122053670Y-38726719D01*
X122169870Y-38804362D01*
X122407285Y-38962998D01*
X122708002Y-39263715D01*
X122708004Y-39263718D01*
X122944281Y-39617330D01*
X122985537Y-39716931D01*
X123107031Y-40010244D01*
X123190000Y-40427356D01*
X123190000Y-40852644D01*
X123107031Y-41269756D01*
X123054513Y-41396545D01*
X122944281Y-41662670D01*
X122797729Y-41881999D01*
X122708002Y-42016285D01*
X122407285Y-42317002D01*
X122407282Y-42317004D01*
X122053670Y-42553281D01*
X121940648Y-42600096D01*
X121660756Y-42716031D01*
X121243644Y-42799000D01*
X120818356Y-42799000D01*
X120401244Y-42716031D01*
X120121352Y-42600096D01*
X120008330Y-42553281D01*
X119654718Y-42317004D01*
X119654715Y-42317002D01*
X119353998Y-42016285D01*
X119264271Y-41881999D01*
X119117719Y-41662670D01*
X119007487Y-41396545D01*
X118954969Y-41269756D01*
X118872000Y-40852644D01*
X118872000Y-40427356D01*
X118954969Y-40010244D01*
X119076463Y-39716931D01*
X119117719Y-39617330D01*
X119353996Y-39263718D01*
X119353998Y-39263715D01*
X119654715Y-38962998D01*
X119892130Y-38804362D01*
X120008330Y-38726719D01*
X120171080Y-38659306D01*
X120401244Y-38563969D01*
X120818356Y-38481000D01*
X121243644Y-38481000D01*
X121660756Y-38563969D01*
X121660756Y-38563969D01*
G37*
G36*
X127937834Y-38804361D02*
X128285249Y-38948265D01*
X128285251Y-38948266D01*
X128307296Y-38962996D01*
X128597920Y-39157185D01*
X128863815Y-39423080D01*
X128863817Y-39423083D01*
X129054286Y-39708139D01*
X129072735Y-39735751D01*
X129216639Y-40083166D01*
X129290000Y-40451978D01*
X129290000Y-40828022D01*
X129216639Y-41196834D01*
X129073667Y-41541999D01*
X129072734Y-41544251D01*
X128993609Y-41662670D01*
X128863815Y-41856920D01*
X128597920Y-42122815D01*
X128597917Y-42122817D01*
X128285251Y-42331734D01*
X128285250Y-42331735D01*
X128285249Y-42331735D01*
X127937834Y-42475639D01*
X127569022Y-42549000D01*
X127192978Y-42549000D01*
X126824166Y-42475639D01*
X126476751Y-42331735D01*
X126476750Y-42331735D01*
X126476749Y-42331734D01*
X126164083Y-42122817D01*
X126164080Y-42122815D01*
X125898185Y-41856920D01*
X125768391Y-41662670D01*
X125689266Y-41544251D01*
X125688333Y-41541999D01*
X125545361Y-41196834D01*
X125472000Y-40828022D01*
X125472000Y-40451978D01*
X125545361Y-40083166D01*
X125689265Y-39735751D01*
X125707715Y-39708139D01*
X125898183Y-39423083D01*
X125898185Y-39423080D01*
X126164080Y-39157185D01*
X126454704Y-38962996D01*
X126476749Y-38948266D01*
X126476751Y-38948265D01*
X126824166Y-38804361D01*
X127192978Y-38731000D01*
X127569022Y-38731000D01*
X127937834Y-38804361D01*
X127937834Y-38804361D01*
G37*
G36*
X98195801Y-41881999D02*
X97343801Y-41881999D01*
X97343801Y-40579999D01*
X98195801Y-40579999D01*
X98195801Y-41881999D01*
X98195801Y-41881999D01*
G37*
G36*
X99988226Y-39653759D02*
X99988229Y-39653760D01*
X99988230Y-39653760D01*
X100167494Y-39708139D01*
X100167496Y-39708140D01*
X100332706Y-39796447D01*
X100477513Y-39915287D01*
X100596353Y-40060094D01*
X100684660Y-40225304D01*
X100739041Y-40404574D01*
X100757402Y-40590999D01*
X100739041Y-40777424D01*
X100739040Y-40777427D01*
X100739040Y-40777428D01*
X100716224Y-40852644D01*
X100684660Y-40956694D01*
X100596353Y-41121904D01*
X100477513Y-41266711D01*
X100332706Y-41385551D01*
X100183943Y-41465067D01*
X100167494Y-41473859D01*
X99988230Y-41528238D01*
X99988229Y-41528238D01*
X99988226Y-41528239D01*
X99848519Y-41541999D01*
X99755083Y-41541999D01*
X99615376Y-41528239D01*
X99615373Y-41528238D01*
X99615372Y-41528238D01*
X99436108Y-41473859D01*
X99419659Y-41465067D01*
X99270896Y-41385551D01*
X99126089Y-41266711D01*
X99007249Y-41121904D01*
X98918942Y-40956694D01*
X98887379Y-40852644D01*
X98864562Y-40777428D01*
X98864562Y-40777427D01*
X98864561Y-40777424D01*
X98846200Y-40590999D01*
X98864561Y-40404574D01*
X98918942Y-40225304D01*
X99007249Y-40060094D01*
X99126089Y-39915287D01*
X99270896Y-39796447D01*
X99436106Y-39708140D01*
X99436108Y-39708139D01*
X99615372Y-39653760D01*
X99615373Y-39653760D01*
X99615376Y-39653759D01*
X99755083Y-39639999D01*
X99848519Y-39639999D01*
X99988226Y-39653759D01*
X99988226Y-39653759D01*
G37*
G36*
X105654946Y-39716931D02*
X105820373Y-39785453D01*
X105969258Y-39884935D01*
X106095865Y-40011542D01*
X106195347Y-40160427D01*
X106263869Y-40325854D01*
X106298801Y-40501469D01*
X106298801Y-40680529D01*
X106263869Y-40856144D01*
X106195347Y-41021571D01*
X106095865Y-41170456D01*
X105969258Y-41297063D01*
X105820373Y-41396545D01*
X105654946Y-41465067D01*
X105479331Y-41499999D01*
X105300271Y-41499999D01*
X105124656Y-41465067D01*
X104959229Y-41396545D01*
X104810344Y-41297063D01*
X104683737Y-41170456D01*
X104584255Y-41021571D01*
X104515733Y-40856144D01*
X104480801Y-40680529D01*
X104480801Y-40501469D01*
X104515733Y-40325854D01*
X104584255Y-40160427D01*
X104683737Y-40011542D01*
X104810344Y-39884935D01*
X104959229Y-39785453D01*
X105124656Y-39716931D01*
X105300271Y-39681999D01*
X105479331Y-39681999D01*
X105654946Y-39716931D01*
X105654946Y-39716931D01*
G37*
G36*
X110734946Y-39716931D02*
X110900373Y-39785453D01*
X111049258Y-39884935D01*
X111175865Y-40011542D01*
X111275347Y-40160427D01*
X111343869Y-40325854D01*
X111378801Y-40501469D01*
X111378801Y-40680529D01*
X111343869Y-40856144D01*
X111275347Y-41021571D01*
X111175865Y-41170456D01*
X111049258Y-41297063D01*
X110900373Y-41396545D01*
X110734946Y-41465067D01*
X110559331Y-41499999D01*
X110380271Y-41499999D01*
X110204656Y-41465067D01*
X110039229Y-41396545D01*
X109890344Y-41297063D01*
X109763737Y-41170456D01*
X109664255Y-41021571D01*
X109595733Y-40856144D01*
X109560801Y-40680529D01*
X109560801Y-40501469D01*
X109595733Y-40325854D01*
X109664255Y-40160427D01*
X109763737Y-40011542D01*
X109890344Y-39884935D01*
X110039229Y-39785453D01*
X110204656Y-39716931D01*
X110380271Y-39681999D01*
X110559331Y-39681999D01*
X110734946Y-39716931D01*
X110734946Y-39716931D01*
G37*
G36*
X116576946Y-39462931D02*
X116742373Y-39531453D01*
X116891258Y-39630935D01*
X117017865Y-39757542D01*
X117117347Y-39906427D01*
X117185869Y-40071854D01*
X117220801Y-40247469D01*
X117220801Y-40426529D01*
X117185869Y-40602144D01*
X117117347Y-40767571D01*
X117017865Y-40916456D01*
X116891258Y-41043063D01*
X116742373Y-41142545D01*
X116576946Y-41211067D01*
X116401331Y-41245999D01*
X116222271Y-41245999D01*
X116046656Y-41211067D01*
X115881229Y-41142545D01*
X115732344Y-41043063D01*
X115605737Y-40916456D01*
X115506255Y-40767571D01*
X115437733Y-40602144D01*
X115402801Y-40426529D01*
X115402801Y-40247469D01*
X115437733Y-40071854D01*
X115506255Y-39906427D01*
X115605737Y-39757542D01*
X115732344Y-39630935D01*
X115881229Y-39531453D01*
X116046656Y-39462931D01*
X116222271Y-39427999D01*
X116401331Y-39427999D01*
X116576946Y-39462931D01*
X116576946Y-39462931D01*
G37*
G36*
X103783801Y-40921999D02*
X102931801Y-40921999D01*
X102931801Y-39619999D01*
X103783801Y-39619999D01*
X103783801Y-40921999D01*
X103783801Y-40921999D01*
G37*
G36*
X102259801Y-40921999D02*
X101407801Y-40921999D01*
X101407801Y-39619999D01*
X102259801Y-39619999D01*
X102259801Y-40921999D01*
X102259801Y-40921999D01*
G37*
G36*
X103783801Y-39021999D02*
X102931801Y-39021999D01*
X102931801Y-37719999D01*
X103783801Y-37719999D01*
X103783801Y-39021999D01*
X103783801Y-39021999D01*
G37*
G36*
X102259801Y-39021999D02*
X101407801Y-39021999D01*
X101407801Y-37719999D01*
X102259801Y-37719999D01*
X102259801Y-39021999D01*
X102259801Y-39021999D01*
G37*
G36*
X100752801Y-39001999D02*
X98850801Y-39001999D01*
X98850801Y-37099999D01*
X100752801Y-37099999D01*
X100752801Y-39001999D01*
X100752801Y-39001999D01*
G37*
G36*
X124127834Y-34359361D02*
X124475249Y-34503265D01*
X124475251Y-34503266D01*
X124783757Y-34709404D01*
X124787920Y-34712185D01*
X125053815Y-34978080D01*
X125262735Y-35290751D01*
X125406639Y-35638166D01*
X125480000Y-36006978D01*
X125480000Y-36383022D01*
X125406639Y-36751834D01*
X125262735Y-37099249D01*
X125053815Y-37411920D01*
X124787920Y-37677815D01*
X124787917Y-37677817D01*
X124475251Y-37886734D01*
X124475250Y-37886735D01*
X124475249Y-37886735D01*
X124127834Y-38030639D01*
X123759022Y-38104000D01*
X123382978Y-38104000D01*
X123014166Y-38030639D01*
X122666751Y-37886735D01*
X122666750Y-37886735D01*
X122666749Y-37886734D01*
X122354083Y-37677817D01*
X122354080Y-37677815D01*
X122088185Y-37411920D01*
X121879265Y-37099249D01*
X121735361Y-36751834D01*
X121662000Y-36383022D01*
X121662000Y-36006978D01*
X121735361Y-35638166D01*
X121879265Y-35290751D01*
X122088185Y-34978080D01*
X122354080Y-34712185D01*
X122358243Y-34709404D01*
X122666749Y-34503266D01*
X122666751Y-34503265D01*
X123014166Y-34359361D01*
X123382978Y-34286000D01*
X123759022Y-34286000D01*
X124127834Y-34359361D01*
X124127834Y-34359361D01*
G37*
M02*
