G04 #@! TF.GenerationSoftware,KiCad,Pcbnew,(5.0.2)-1*
G04 #@! TF.CreationDate,2019-06-05T14:46:48+08:00*
G04 #@! TF.ProjectId,DC Electronic Load Mini,44432045-6c65-4637-9472-6f6e6963204c,rev?*
G04 #@! TF.SameCoordinates,Original*
G04 #@! TF.FileFunction,Legend,Top*
G04 #@! TF.FilePolarity,Positive*
%FSLAX46Y46*%
G04 Gerber Fmt 4.6, Leading zero omitted, Abs format (unit mm)*
G04 Created by KiCad (PCBNEW (5.0.2)-1) date 06/05/19 14:46:48*
%MOMM*%
%LPD*%
G01*
G04 APERTURE LIST*
%ADD10C,0.300000*%
%ADD11C,0.150000*%
%ADD12C,0.120000*%
G04 APERTURE END LIST*
D10*
X66886658Y-37444570D02*
X66886658Y-35944570D01*
X67243801Y-35944570D01*
X67458086Y-36015999D01*
X67600943Y-36158856D01*
X67672372Y-36301713D01*
X67743801Y-36587427D01*
X67743801Y-36801713D01*
X67672372Y-37087427D01*
X67600943Y-37230284D01*
X67458086Y-37373141D01*
X67243801Y-37444570D01*
X66886658Y-37444570D01*
X69243801Y-37301713D02*
X69172372Y-37373141D01*
X68958086Y-37444570D01*
X68815229Y-37444570D01*
X68600943Y-37373141D01*
X68458086Y-37230284D01*
X68386658Y-37087427D01*
X68315229Y-36801713D01*
X68315229Y-36587427D01*
X68386658Y-36301713D01*
X68458086Y-36158856D01*
X68600943Y-36015999D01*
X68815229Y-35944570D01*
X68958086Y-35944570D01*
X69172372Y-36015999D01*
X69243801Y-36087427D01*
X71029515Y-36658856D02*
X71529515Y-36658856D01*
X71743801Y-37444570D02*
X71029515Y-37444570D01*
X71029515Y-35944570D01*
X71743801Y-35944570D01*
X72600943Y-37444570D02*
X72458086Y-37373141D01*
X72386658Y-37230284D01*
X72386658Y-35944570D01*
X73743801Y-37373141D02*
X73600943Y-37444570D01*
X73315229Y-37444570D01*
X73172372Y-37373141D01*
X73100943Y-37230284D01*
X73100943Y-36658856D01*
X73172372Y-36515999D01*
X73315229Y-36444570D01*
X73600943Y-36444570D01*
X73743801Y-36515999D01*
X73815229Y-36658856D01*
X73815229Y-36801713D01*
X73100943Y-36944570D01*
X75100943Y-37373141D02*
X74958086Y-37444570D01*
X74672372Y-37444570D01*
X74529515Y-37373141D01*
X74458086Y-37301713D01*
X74386658Y-37158856D01*
X74386658Y-36730284D01*
X74458086Y-36587427D01*
X74529515Y-36515999D01*
X74672372Y-36444570D01*
X74958086Y-36444570D01*
X75100943Y-36515999D01*
X75529515Y-36444570D02*
X76100943Y-36444570D01*
X75743801Y-35944570D02*
X75743801Y-37230284D01*
X75815229Y-37373141D01*
X75958086Y-37444570D01*
X76100943Y-37444570D01*
X76600943Y-37444570D02*
X76600943Y-36444570D01*
X76600943Y-36730284D02*
X76672372Y-36587427D01*
X76743801Y-36515999D01*
X76886658Y-36444570D01*
X77029515Y-36444570D01*
X77743801Y-37444570D02*
X77600943Y-37373141D01*
X77529515Y-37301713D01*
X77458086Y-37158856D01*
X77458086Y-36730284D01*
X77529515Y-36587427D01*
X77600943Y-36515999D01*
X77743801Y-36444570D01*
X77958086Y-36444570D01*
X78100943Y-36515999D01*
X78172372Y-36587427D01*
X78243801Y-36730284D01*
X78243801Y-37158856D01*
X78172372Y-37301713D01*
X78100943Y-37373141D01*
X77958086Y-37444570D01*
X77743801Y-37444570D01*
X78886658Y-36444570D02*
X78886658Y-37444570D01*
X78886658Y-36587427D02*
X78958086Y-36515999D01*
X79100943Y-36444570D01*
X79315229Y-36444570D01*
X79458086Y-36515999D01*
X79529515Y-36658856D01*
X79529515Y-37444570D01*
X80243801Y-37444570D02*
X80243801Y-36444570D01*
X80243801Y-35944570D02*
X80172372Y-36015999D01*
X80243801Y-36087427D01*
X80315229Y-36015999D01*
X80243801Y-35944570D01*
X80243801Y-36087427D01*
X81600943Y-37373141D02*
X81458086Y-37444570D01*
X81172372Y-37444570D01*
X81029515Y-37373141D01*
X80958086Y-37301713D01*
X80886658Y-37158856D01*
X80886658Y-36730284D01*
X80958086Y-36587427D01*
X81029515Y-36515999D01*
X81172372Y-36444570D01*
X81458086Y-36444570D01*
X81600943Y-36515999D01*
X84100943Y-37444570D02*
X83386658Y-37444570D01*
X83386658Y-35944570D01*
X84815229Y-37444570D02*
X84672372Y-37373141D01*
X84600943Y-37301713D01*
X84529515Y-37158856D01*
X84529515Y-36730284D01*
X84600943Y-36587427D01*
X84672372Y-36515999D01*
X84815229Y-36444570D01*
X85029515Y-36444570D01*
X85172372Y-36515999D01*
X85243801Y-36587427D01*
X85315229Y-36730284D01*
X85315229Y-37158856D01*
X85243801Y-37301713D01*
X85172372Y-37373141D01*
X85029515Y-37444570D01*
X84815229Y-37444570D01*
X86600943Y-37444570D02*
X86600943Y-36658856D01*
X86529515Y-36515999D01*
X86386658Y-36444570D01*
X86100943Y-36444570D01*
X85958086Y-36515999D01*
X86600943Y-37373141D02*
X86458086Y-37444570D01*
X86100943Y-37444570D01*
X85958086Y-37373141D01*
X85886658Y-37230284D01*
X85886658Y-37087427D01*
X85958086Y-36944570D01*
X86100943Y-36873141D01*
X86458086Y-36873141D01*
X86600943Y-36801713D01*
X87958086Y-37444570D02*
X87958086Y-35944570D01*
X87958086Y-37373141D02*
X87815229Y-37444570D01*
X87529515Y-37444570D01*
X87386658Y-37373141D01*
X87315229Y-37301713D01*
X87243801Y-37158856D01*
X87243801Y-36730284D01*
X87315229Y-36587427D01*
X87386658Y-36515999D01*
X87529515Y-36444570D01*
X87815229Y-36444570D01*
X87958086Y-36515999D01*
X89815229Y-37444570D02*
X89815229Y-35944570D01*
X90315229Y-37015999D01*
X90815229Y-35944570D01*
X90815229Y-37444570D01*
X91529515Y-37444570D02*
X91529515Y-36444570D01*
X91529515Y-35944570D02*
X91458086Y-36015999D01*
X91529515Y-36087427D01*
X91600943Y-36015999D01*
X91529515Y-35944570D01*
X91529515Y-36087427D01*
X92243801Y-36444570D02*
X92243801Y-37444570D01*
X92243801Y-36587427D02*
X92315229Y-36515999D01*
X92458086Y-36444570D01*
X92672372Y-36444570D01*
X92815229Y-36515999D01*
X92886658Y-36658856D01*
X92886658Y-37444570D01*
X93600943Y-37444570D02*
X93600943Y-36444570D01*
X93600943Y-35944570D02*
X93529515Y-36015999D01*
X93600943Y-36087427D01*
X93672372Y-36015999D01*
X93600943Y-35944570D01*
X93600943Y-36087427D01*
X72172372Y-38494570D02*
X73100943Y-38494570D01*
X72600943Y-39065999D01*
X72815229Y-39065999D01*
X72958086Y-39137427D01*
X73029515Y-39208856D01*
X73100943Y-39351713D01*
X73100943Y-39708856D01*
X73029515Y-39851713D01*
X72958086Y-39923141D01*
X72815229Y-39994570D01*
X72386658Y-39994570D01*
X72243801Y-39923141D01*
X72172372Y-39851713D01*
X74029515Y-38494570D02*
X74172372Y-38494570D01*
X74315229Y-38565999D01*
X74386658Y-38637427D01*
X74458086Y-38780284D01*
X74529515Y-39065999D01*
X74529515Y-39423141D01*
X74458086Y-39708856D01*
X74386658Y-39851713D01*
X74315229Y-39923141D01*
X74172372Y-39994570D01*
X74029515Y-39994570D01*
X73886658Y-39923141D01*
X73815229Y-39851713D01*
X73743801Y-39708856D01*
X73672372Y-39423141D01*
X73672372Y-39065999D01*
X73743801Y-38780284D01*
X73815229Y-38637427D01*
X73886658Y-38565999D01*
X74029515Y-38494570D01*
X74958086Y-38494570D02*
X75458086Y-39994570D01*
X75958086Y-38494570D01*
X77529515Y-38637427D02*
X77600943Y-38565999D01*
X77743801Y-38494570D01*
X78100943Y-38494570D01*
X78243801Y-38565999D01*
X78315229Y-38637427D01*
X78386658Y-38780284D01*
X78386658Y-38923141D01*
X78315229Y-39137427D01*
X77458086Y-39994570D01*
X78386658Y-39994570D01*
X79315229Y-38494570D02*
X79458086Y-38494570D01*
X79600943Y-38565999D01*
X79672372Y-38637427D01*
X79743801Y-38780284D01*
X79815229Y-39065999D01*
X79815229Y-39423141D01*
X79743801Y-39708856D01*
X79672372Y-39851713D01*
X79600943Y-39923141D01*
X79458086Y-39994570D01*
X79315229Y-39994570D01*
X79172372Y-39923141D01*
X79100943Y-39851713D01*
X79029515Y-39708856D01*
X78958086Y-39423141D01*
X78958086Y-39065999D01*
X79029515Y-38780284D01*
X79100943Y-38637427D01*
X79172372Y-38565999D01*
X79315229Y-38494570D01*
X80386658Y-39565999D02*
X81100943Y-39565999D01*
X80243801Y-39994570D02*
X80743801Y-38494570D01*
X81243801Y-39994570D01*
X83529515Y-38994570D02*
X83529515Y-39994570D01*
X83172372Y-38423141D02*
X82815229Y-39494570D01*
X83743801Y-39494570D01*
X84600943Y-38494570D02*
X84743801Y-38494570D01*
X84886658Y-38565999D01*
X84958086Y-38637427D01*
X85029515Y-38780284D01*
X85100943Y-39065999D01*
X85100943Y-39423141D01*
X85029515Y-39708856D01*
X84958086Y-39851713D01*
X84886658Y-39923141D01*
X84743801Y-39994570D01*
X84600943Y-39994570D01*
X84458086Y-39923141D01*
X84386658Y-39851713D01*
X84315229Y-39708856D01*
X84243801Y-39423141D01*
X84243801Y-39065999D01*
X84315229Y-38780284D01*
X84386658Y-38637427D01*
X84458086Y-38565999D01*
X84600943Y-38494570D01*
X86029515Y-38494570D02*
X86172372Y-38494570D01*
X86315229Y-38565999D01*
X86386658Y-38637427D01*
X86458086Y-38780284D01*
X86529515Y-39065999D01*
X86529515Y-39423141D01*
X86458086Y-39708856D01*
X86386658Y-39851713D01*
X86315229Y-39923141D01*
X86172372Y-39994570D01*
X86029515Y-39994570D01*
X85886658Y-39923141D01*
X85815229Y-39851713D01*
X85743801Y-39708856D01*
X85672372Y-39423141D01*
X85672372Y-39065999D01*
X85743801Y-38780284D01*
X85815229Y-38637427D01*
X85886658Y-38565999D01*
X86029515Y-38494570D01*
X87029515Y-38494570D02*
X87386658Y-39994570D01*
X87672372Y-38923141D01*
X87958086Y-39994570D01*
X88315229Y-38494570D01*
X65779515Y-42544570D02*
X65779515Y-41044570D01*
X66136658Y-41044570D01*
X66350943Y-41115999D01*
X66493801Y-41258856D01*
X66565229Y-41401713D01*
X66636658Y-41687427D01*
X66636658Y-41901713D01*
X66565229Y-42187427D01*
X66493801Y-42330284D01*
X66350943Y-42473141D01*
X66136658Y-42544570D01*
X65779515Y-42544570D01*
X67850943Y-42473141D02*
X67708086Y-42544570D01*
X67422372Y-42544570D01*
X67279515Y-42473141D01*
X67208086Y-42330284D01*
X67208086Y-41758856D01*
X67279515Y-41615999D01*
X67422372Y-41544570D01*
X67708086Y-41544570D01*
X67850943Y-41615999D01*
X67922372Y-41758856D01*
X67922372Y-41901713D01*
X67208086Y-42044570D01*
X68493801Y-42473141D02*
X68636658Y-42544570D01*
X68922372Y-42544570D01*
X69065229Y-42473141D01*
X69136658Y-42330284D01*
X69136658Y-42258856D01*
X69065229Y-42115999D01*
X68922372Y-42044570D01*
X68708086Y-42044570D01*
X68565229Y-41973141D01*
X68493801Y-41830284D01*
X68493801Y-41758856D01*
X68565229Y-41615999D01*
X68708086Y-41544570D01*
X68922372Y-41544570D01*
X69065229Y-41615999D01*
X69779515Y-42544570D02*
X69779515Y-41544570D01*
X69779515Y-41044570D02*
X69708086Y-41115999D01*
X69779515Y-41187427D01*
X69850943Y-41115999D01*
X69779515Y-41044570D01*
X69779515Y-41187427D01*
X71136658Y-41544570D02*
X71136658Y-42758856D01*
X71065229Y-42901713D01*
X70993801Y-42973141D01*
X70850943Y-43044570D01*
X70636658Y-43044570D01*
X70493801Y-42973141D01*
X71136658Y-42473141D02*
X70993801Y-42544570D01*
X70708086Y-42544570D01*
X70565229Y-42473141D01*
X70493801Y-42401713D01*
X70422372Y-42258856D01*
X70422372Y-41830284D01*
X70493801Y-41687427D01*
X70565229Y-41615999D01*
X70708086Y-41544570D01*
X70993801Y-41544570D01*
X71136658Y-41615999D01*
X71850943Y-41544570D02*
X71850943Y-42544570D01*
X71850943Y-41687427D02*
X71922372Y-41615999D01*
X72065229Y-41544570D01*
X72279515Y-41544570D01*
X72422372Y-41615999D01*
X72493801Y-41758856D01*
X72493801Y-42544570D01*
X73779515Y-42473141D02*
X73636658Y-42544570D01*
X73350943Y-42544570D01*
X73208086Y-42473141D01*
X73136658Y-42330284D01*
X73136658Y-41758856D01*
X73208086Y-41615999D01*
X73350943Y-41544570D01*
X73636658Y-41544570D01*
X73779515Y-41615999D01*
X73850943Y-41758856D01*
X73850943Y-41901713D01*
X73136658Y-42044570D01*
X75136658Y-42544570D02*
X75136658Y-41044570D01*
X75136658Y-42473141D02*
X74993801Y-42544570D01*
X74708086Y-42544570D01*
X74565229Y-42473141D01*
X74493801Y-42401713D01*
X74422372Y-42258856D01*
X74422372Y-41830284D01*
X74493801Y-41687427D01*
X74565229Y-41615999D01*
X74708086Y-41544570D01*
X74993801Y-41544570D01*
X75136658Y-41615999D01*
X77208086Y-42544570D02*
X77065229Y-42473141D01*
X76993801Y-42401713D01*
X76922372Y-42258856D01*
X76922372Y-41830284D01*
X76993801Y-41687427D01*
X77065229Y-41615999D01*
X77208086Y-41544570D01*
X77422372Y-41544570D01*
X77565229Y-41615999D01*
X77636658Y-41687427D01*
X77708086Y-41830284D01*
X77708086Y-42258856D01*
X77636658Y-42401713D01*
X77565229Y-42473141D01*
X77422372Y-42544570D01*
X77208086Y-42544570D01*
X78350943Y-41544570D02*
X78350943Y-42544570D01*
X78350943Y-41687427D02*
X78422372Y-41615999D01*
X78565229Y-41544570D01*
X78779515Y-41544570D01*
X78922372Y-41615999D01*
X78993801Y-41758856D01*
X78993801Y-42544570D01*
X81136658Y-41044570D02*
X81279515Y-41044570D01*
X81422372Y-41115999D01*
X81493801Y-41187427D01*
X81565229Y-41330284D01*
X81636658Y-41615999D01*
X81636658Y-41973141D01*
X81565229Y-42258856D01*
X81493801Y-42401713D01*
X81422372Y-42473141D01*
X81279515Y-42544570D01*
X81136658Y-42544570D01*
X80993801Y-42473141D01*
X80922372Y-42401713D01*
X80850943Y-42258856D01*
X80779515Y-41973141D01*
X80779515Y-41615999D01*
X80850943Y-41330284D01*
X80922372Y-41187427D01*
X80993801Y-41115999D01*
X81136658Y-41044570D01*
X82993801Y-41044570D02*
X82279515Y-41044570D01*
X82208086Y-41758856D01*
X82279515Y-41687427D01*
X82422372Y-41615999D01*
X82779515Y-41615999D01*
X82922372Y-41687427D01*
X82993801Y-41758856D01*
X83065229Y-41901713D01*
X83065229Y-42258856D01*
X82993801Y-42401713D01*
X82922372Y-42473141D01*
X82779515Y-42544570D01*
X82422372Y-42544570D01*
X82279515Y-42473141D01*
X82208086Y-42401713D01*
X84779515Y-40973141D02*
X83493801Y-42901713D01*
X85565229Y-41044570D02*
X85708086Y-41044570D01*
X85850943Y-41115999D01*
X85922372Y-41187427D01*
X85993801Y-41330284D01*
X86065229Y-41615999D01*
X86065229Y-41973141D01*
X85993801Y-42258856D01*
X85922372Y-42401713D01*
X85850943Y-42473141D01*
X85708086Y-42544570D01*
X85565229Y-42544570D01*
X85422372Y-42473141D01*
X85350943Y-42401713D01*
X85279515Y-42258856D01*
X85208086Y-41973141D01*
X85208086Y-41615999D01*
X85279515Y-41330284D01*
X85350943Y-41187427D01*
X85422372Y-41115999D01*
X85565229Y-41044570D01*
X87350943Y-41044570D02*
X87065229Y-41044570D01*
X86922372Y-41115999D01*
X86850943Y-41187427D01*
X86708086Y-41401713D01*
X86636658Y-41687427D01*
X86636658Y-42258856D01*
X86708086Y-42401713D01*
X86779515Y-42473141D01*
X86922372Y-42544570D01*
X87208086Y-42544570D01*
X87350943Y-42473141D01*
X87422372Y-42401713D01*
X87493801Y-42258856D01*
X87493801Y-41901713D01*
X87422372Y-41758856D01*
X87350943Y-41687427D01*
X87208086Y-41615999D01*
X86922372Y-41615999D01*
X86779515Y-41687427D01*
X86708086Y-41758856D01*
X86636658Y-41901713D01*
X89208086Y-40973141D02*
X87922372Y-42901713D01*
X89636658Y-41187427D02*
X89708086Y-41115999D01*
X89850943Y-41044570D01*
X90208086Y-41044570D01*
X90350943Y-41115999D01*
X90422372Y-41187427D01*
X90493801Y-41330284D01*
X90493801Y-41473141D01*
X90422372Y-41687427D01*
X89565229Y-42544570D01*
X90493801Y-42544570D01*
X91422372Y-41044570D02*
X91565229Y-41044570D01*
X91708086Y-41115999D01*
X91779515Y-41187427D01*
X91850943Y-41330284D01*
X91922372Y-41615999D01*
X91922372Y-41973141D01*
X91850943Y-42258856D01*
X91779515Y-42401713D01*
X91708086Y-42473141D01*
X91565229Y-42544570D01*
X91422372Y-42544570D01*
X91279515Y-42473141D01*
X91208086Y-42401713D01*
X91136658Y-42258856D01*
X91065229Y-41973141D01*
X91065229Y-41615999D01*
X91136658Y-41330284D01*
X91208086Y-41187427D01*
X91279515Y-41115999D01*
X91422372Y-41044570D01*
X93350943Y-42544570D02*
X92493801Y-42544570D01*
X92922372Y-42544570D02*
X92922372Y-41044570D01*
X92779515Y-41258856D01*
X92636658Y-41401713D01*
X92493801Y-41473141D01*
X94065229Y-42544570D02*
X94350943Y-42544570D01*
X94493801Y-42473141D01*
X94565229Y-42401713D01*
X94708086Y-42187427D01*
X94779515Y-41901713D01*
X94779515Y-41330284D01*
X94708086Y-41187427D01*
X94636658Y-41115999D01*
X94493801Y-41044570D01*
X94208086Y-41044570D01*
X94065229Y-41115999D01*
X93993801Y-41187427D01*
X93922372Y-41330284D01*
X93922372Y-41687427D01*
X93993801Y-41830284D01*
X94065229Y-41901713D01*
X94208086Y-41973141D01*
X94493801Y-41973141D01*
X94636658Y-41901713D01*
X94708086Y-41830284D01*
X94779515Y-41687427D01*
X75529515Y-45094570D02*
X75029515Y-44380284D01*
X74672372Y-45094570D02*
X74672372Y-43594570D01*
X75243801Y-43594570D01*
X75386658Y-43665999D01*
X75458086Y-43737427D01*
X75529515Y-43880284D01*
X75529515Y-44094570D01*
X75458086Y-44237427D01*
X75386658Y-44308856D01*
X75243801Y-44380284D01*
X74672372Y-44380284D01*
X76743801Y-45023141D02*
X76600943Y-45094570D01*
X76315229Y-45094570D01*
X76172372Y-45023141D01*
X76100943Y-44880284D01*
X76100943Y-44308856D01*
X76172372Y-44165999D01*
X76315229Y-44094570D01*
X76600943Y-44094570D01*
X76743801Y-44165999D01*
X76815229Y-44308856D01*
X76815229Y-44451713D01*
X76100943Y-44594570D01*
X77315229Y-44094570D02*
X77672372Y-45094570D01*
X78029515Y-44094570D01*
X78600943Y-45094570D02*
X78600943Y-44094570D01*
X78600943Y-43594570D02*
X78529515Y-43665999D01*
X78600943Y-43737427D01*
X78672372Y-43665999D01*
X78600943Y-43594570D01*
X78600943Y-43737427D01*
X79243801Y-45023141D02*
X79386658Y-45094570D01*
X79672372Y-45094570D01*
X79815229Y-45023141D01*
X79886658Y-44880284D01*
X79886658Y-44808856D01*
X79815229Y-44665999D01*
X79672372Y-44594570D01*
X79458086Y-44594570D01*
X79315229Y-44523141D01*
X79243801Y-44380284D01*
X79243801Y-44308856D01*
X79315229Y-44165999D01*
X79458086Y-44094570D01*
X79672372Y-44094570D01*
X79815229Y-44165999D01*
X80529515Y-45094570D02*
X80529515Y-44094570D01*
X80529515Y-43594570D02*
X80458086Y-43665999D01*
X80529515Y-43737427D01*
X80600943Y-43665999D01*
X80529515Y-43594570D01*
X80529515Y-43737427D01*
X81458086Y-45094570D02*
X81315229Y-45023141D01*
X81243801Y-44951713D01*
X81172372Y-44808856D01*
X81172372Y-44380284D01*
X81243801Y-44237427D01*
X81315229Y-44165999D01*
X81458086Y-44094570D01*
X81672372Y-44094570D01*
X81815229Y-44165999D01*
X81886658Y-44237427D01*
X81958086Y-44380284D01*
X81958086Y-44808856D01*
X81886658Y-44951713D01*
X81815229Y-45023141D01*
X81672372Y-45094570D01*
X81458086Y-45094570D01*
X82600943Y-44094570D02*
X82600943Y-45094570D01*
X82600943Y-44237427D02*
X82672372Y-44165999D01*
X82815229Y-44094570D01*
X83029515Y-44094570D01*
X83172372Y-44165999D01*
X83243801Y-44308856D01*
X83243801Y-45094570D01*
X85029515Y-43737427D02*
X85100943Y-43665999D01*
X85243801Y-43594570D01*
X85600943Y-43594570D01*
X85743801Y-43665999D01*
X85815229Y-43737427D01*
X85886658Y-43880284D01*
X85886658Y-44023141D01*
X85815229Y-44237427D01*
X84958086Y-45094570D01*
X85886658Y-45094570D01*
D11*
G04 #@! TO.C,POT5*
X103865801Y-45162999D02*
X111993801Y-45162999D01*
X104119801Y-36145999D02*
X111739801Y-36145999D01*
X112374801Y-38812999D02*
X112374801Y-45162999D01*
X103484801Y-38812999D02*
X103484801Y-45162999D01*
X103484801Y-36145999D02*
X104246801Y-36145999D01*
X103484801Y-45162999D02*
X103484801Y-36145999D01*
X112374801Y-45162999D02*
X103484801Y-45162999D01*
X112374801Y-36145999D02*
X112374801Y-45162999D01*
X111739801Y-36145999D02*
X112374801Y-36145999D01*
D12*
G04 #@! TO.C,D1*
X116451801Y-57820999D02*
X113631801Y-57820999D01*
X115041801Y-64910999D02*
X115041801Y-62300999D01*
X115041801Y-54370999D02*
X115041801Y-56980999D01*
X116451801Y-62300999D02*
X116451801Y-56980999D01*
X113631801Y-62300999D02*
X116451801Y-62300999D01*
X113631801Y-56980999D02*
X113631801Y-62300999D01*
X116451801Y-56980999D02*
X113631801Y-56980999D01*
G04 #@! TO.C,R15*
X74765578Y-70034828D02*
G75*
G02X76365000Y-70034510I799422J1454828D01*
G01*
D11*
G04 #@! TO.C,POT3*
X73152000Y-73152000D02*
X73152000Y-81280000D01*
X82169000Y-73406000D02*
X82169000Y-81026000D01*
X79502000Y-81661000D02*
X73152000Y-81661000D01*
X79502000Y-72771000D02*
X73152000Y-72771000D01*
X82169000Y-72771000D02*
X82169000Y-73533000D01*
X73152000Y-72771000D02*
X82169000Y-72771000D01*
X73152000Y-81661000D02*
X73152000Y-72771000D01*
X82169000Y-81661000D02*
X73152000Y-81661000D01*
X82169000Y-81026000D02*
X82169000Y-81661000D01*
D12*
G04 #@! TO.C,C4*
X80356000Y-52040000D02*
X80356000Y-52740000D01*
X79156000Y-52740000D02*
X79156000Y-52040000D01*
G04 #@! TO.C,C5*
X88046000Y-52740000D02*
X88046000Y-52040000D01*
X89246000Y-52040000D02*
X89246000Y-52740000D01*
G04 #@! TO.C,C6*
X103216000Y-52040000D02*
X103216000Y-52740000D01*
X102016000Y-52740000D02*
X102016000Y-52040000D01*
G04 #@! TO.C,C7*
X110906000Y-52740000D02*
X110906000Y-52040000D01*
X112106000Y-52040000D02*
X112106000Y-52740000D01*
G04 #@! TO.C,C16*
X128616000Y-53310000D02*
X128616000Y-54010000D01*
X127416000Y-54010000D02*
X127416000Y-53310000D01*
G04 #@! TO.C,C20*
X113954000Y-50200000D02*
X113954000Y-49500000D01*
X115154000Y-49500000D02*
X115154000Y-50200000D01*
G04 #@! TO.C,C21*
X74584000Y-51470000D02*
X74584000Y-50770000D01*
X75784000Y-50770000D02*
X75784000Y-51470000D01*
G04 #@! TO.C,C22*
X83474000Y-51470000D02*
X83474000Y-50770000D01*
X84674000Y-50770000D02*
X84674000Y-51470000D01*
G04 #@! TO.C,C23*
X98644000Y-50770000D02*
X98644000Y-51470000D01*
X97444000Y-51470000D02*
X97444000Y-50770000D01*
G04 #@! TO.C,C24*
X106334000Y-51470000D02*
X106334000Y-50770000D01*
X107534000Y-50770000D02*
X107534000Y-51470000D01*
G04 #@! TO.C,C27*
X62392000Y-70896000D02*
X62392000Y-70196000D01*
X63592000Y-70196000D02*
X63592000Y-70896000D01*
G04 #@! TO.C,C28*
X73060000Y-51470000D02*
X73060000Y-50770000D01*
X74260000Y-50770000D02*
X74260000Y-51470000D01*
G04 #@! TO.C,C29*
X80680000Y-51470000D02*
X80680000Y-50770000D01*
X81880000Y-50770000D02*
X81880000Y-51470000D01*
G04 #@! TO.C,C30*
X83150000Y-50770000D02*
X83150000Y-51470000D01*
X81950000Y-51470000D02*
X81950000Y-50770000D01*
G04 #@! TO.C,C31*
X90770000Y-50770000D02*
X90770000Y-51470000D01*
X89570000Y-51470000D02*
X89570000Y-50770000D01*
G04 #@! TO.C,C32*
X95920000Y-51470000D02*
X95920000Y-50770000D01*
X97120000Y-50770000D02*
X97120000Y-51470000D01*
G04 #@! TO.C,C33*
X104740000Y-50770000D02*
X104740000Y-51470000D01*
X103540000Y-51470000D02*
X103540000Y-50770000D01*
G04 #@! TO.C,C34*
X106010000Y-50770000D02*
X106010000Y-51470000D01*
X104810000Y-51470000D02*
X104810000Y-50770000D01*
G04 #@! TO.C,C35*
X112430000Y-51470000D02*
X112430000Y-50770000D01*
X113630000Y-50770000D02*
X113630000Y-51470000D01*
D11*
G04 #@! TO.C,J1*
X134366000Y-36830000D02*
X125476000Y-36830000D01*
X134366000Y-44450000D02*
X134366000Y-36830000D01*
X121666000Y-44450000D02*
X134366000Y-44450000D01*
X121666000Y-43180000D02*
X121666000Y-44450000D01*
X121666000Y-36830000D02*
X121666000Y-38735000D01*
X121666000Y-42545000D02*
X121666000Y-43180000D01*
D12*
G04 #@! TO.C,J2*
X90872000Y-59630000D02*
X92202000Y-59630000D01*
X90872000Y-60960000D02*
X90872000Y-59630000D01*
X93472000Y-59630000D02*
X96072000Y-59630000D01*
X93472000Y-62230000D02*
X93472000Y-59630000D01*
X90872000Y-62230000D02*
X93472000Y-62230000D01*
X96072000Y-59630000D02*
X96072000Y-69910000D01*
X90872000Y-62230000D02*
X90872000Y-69910000D01*
X90872000Y-69910000D02*
X96072000Y-69910000D01*
D11*
G04 #@! TO.C,J3*
X65024000Y-51054000D02*
X67564000Y-51054000D01*
X65024000Y-45974000D02*
X65024000Y-51054000D01*
X67564000Y-45974000D02*
X65024000Y-45974000D01*
X67564000Y-51054000D02*
X67564000Y-45974000D01*
G04 #@! TO.C,J4*
X129058000Y-81052000D02*
X125958000Y-81052000D01*
X129058000Y-79502000D02*
X129058000Y-81052000D01*
X126238000Y-78232000D02*
X128778000Y-78232000D01*
X125958000Y-81052000D02*
X125958000Y-79502000D01*
X128778000Y-65532000D02*
X128778000Y-78232000D01*
X126238000Y-65532000D02*
X128778000Y-65532000D01*
X126238000Y-78232000D02*
X126238000Y-65532000D01*
G04 #@! TO.C,J5*
X77470000Y-54610000D02*
X74930000Y-54610000D01*
X74930000Y-54610000D02*
X74930000Y-62230000D01*
X74930000Y-62230000D02*
X77470000Y-62230000D01*
X77470000Y-62230000D02*
X77470000Y-54610000D01*
G04 #@! TO.C,J6*
X80010000Y-62230000D02*
X80010000Y-54610000D01*
X77470000Y-62230000D02*
X80010000Y-62230000D01*
X77470000Y-54610000D02*
X77470000Y-62230000D01*
X80010000Y-54610000D02*
X77470000Y-54610000D01*
G04 #@! TO.C,J7*
X86360000Y-62230000D02*
X86360000Y-54610000D01*
X83820000Y-62230000D02*
X86360000Y-62230000D01*
X83820000Y-54610000D02*
X83820000Y-62230000D01*
X86360000Y-54610000D02*
X83820000Y-54610000D01*
G04 #@! TO.C,J8*
X88900000Y-54610000D02*
X86360000Y-54610000D01*
X86360000Y-54610000D02*
X86360000Y-62230000D01*
X86360000Y-62230000D02*
X88900000Y-62230000D01*
X88900000Y-62230000D02*
X88900000Y-54610000D01*
G04 #@! TO.C,J9*
X100330000Y-54610000D02*
X97790000Y-54610000D01*
X97790000Y-54610000D02*
X97790000Y-62230000D01*
X97790000Y-62230000D02*
X100330000Y-62230000D01*
X100330000Y-62230000D02*
X100330000Y-54610000D01*
G04 #@! TO.C,J10*
X102870000Y-54610000D02*
X100330000Y-54610000D01*
X100330000Y-54610000D02*
X100330000Y-62230000D01*
X100330000Y-62230000D02*
X102870000Y-62230000D01*
X102870000Y-62230000D02*
X102870000Y-54610000D01*
G04 #@! TO.C,J11*
X109220000Y-62230000D02*
X109220000Y-54610000D01*
X106680000Y-62230000D02*
X109220000Y-62230000D01*
X106680000Y-54610000D02*
X106680000Y-62230000D01*
X109220000Y-54610000D02*
X106680000Y-54610000D01*
G04 #@! TO.C,J12*
X111760000Y-54610000D02*
X109220000Y-54610000D01*
X109220000Y-54610000D02*
X109220000Y-62230000D01*
X109220000Y-62230000D02*
X111760000Y-62230000D01*
X111760000Y-62230000D02*
X111760000Y-54610000D01*
D12*
G04 #@! TO.C,LCD1*
X82744000Y-81086000D02*
X82744000Y-79756000D01*
X84074000Y-81086000D02*
X82744000Y-81086000D01*
X85344000Y-81086000D02*
X85344000Y-78426000D01*
X85344000Y-78426000D02*
X123504000Y-78426000D01*
X85344000Y-81086000D02*
X123504000Y-81086000D01*
X123504000Y-81086000D02*
X123504000Y-78426000D01*
D11*
G04 #@! TO.C,POT1*
X69088000Y-60452000D02*
X69088000Y-61087000D01*
X69088000Y-61087000D02*
X60071000Y-61087000D01*
X60071000Y-61087000D02*
X60071000Y-52197000D01*
X60071000Y-52197000D02*
X69088000Y-52197000D01*
X69088000Y-52197000D02*
X69088000Y-52959000D01*
X66421000Y-52197000D02*
X60071000Y-52197000D01*
X66421000Y-61087000D02*
X60071000Y-61087000D01*
X69088000Y-52832000D02*
X69088000Y-60452000D01*
X60071000Y-52578000D02*
X60071000Y-60706000D01*
G04 #@! TO.C,POT4*
X63860801Y-71120000D02*
X63860801Y-70485000D01*
X63860801Y-70485000D02*
X72877801Y-70485000D01*
X72877801Y-70485000D02*
X72877801Y-79375000D01*
X72877801Y-79375000D02*
X63860801Y-79375000D01*
X63860801Y-79375000D02*
X63860801Y-78613000D01*
X66527801Y-79375000D02*
X72877801Y-79375000D01*
X66527801Y-70485000D02*
X72877801Y-70485000D01*
X63860801Y-78740000D02*
X63860801Y-71120000D01*
X72877801Y-78994000D02*
X72877801Y-70866000D01*
D12*
G04 #@! TO.C,R2*
X64688000Y-47844000D02*
X64688000Y-48844000D01*
X63328000Y-48844000D02*
X63328000Y-47844000D01*
G04 #@! TO.C,R3*
X69514000Y-48184000D02*
X69514000Y-49184000D01*
X68154000Y-49184000D02*
X68154000Y-48184000D01*
G04 #@! TO.C,R12*
X125648000Y-73160000D02*
X125648000Y-74160000D01*
X124288000Y-74160000D02*
X124288000Y-73160000D01*
G04 #@! TO.C,R13*
X77388000Y-51740000D02*
X77388000Y-52740000D01*
X76028000Y-52740000D02*
X76028000Y-51740000D01*
G04 #@! TO.C,R14*
X74765578Y-64954828D02*
G75*
G02X76365000Y-64954510I799422J1454828D01*
G01*
G04 #@! TO.C,R16*
X77552000Y-52740000D02*
X77552000Y-51740000D01*
X78912000Y-51740000D02*
X78912000Y-52740000D01*
G04 #@! TO.C,R17*
X78575578Y-64954828D02*
G75*
G02X80175000Y-64954510I799422J1454828D01*
G01*
G04 #@! TO.C,R18*
X78575578Y-70034828D02*
G75*
G02X80175000Y-70034510I799422J1454828D01*
G01*
G04 #@! TO.C,R19*
X84918000Y-52740000D02*
X84918000Y-51740000D01*
X86278000Y-51740000D02*
X86278000Y-52740000D01*
G04 #@! TO.C,R20*
X83655578Y-64954828D02*
G75*
G02X85255000Y-64954510I799422J1454828D01*
G01*
G04 #@! TO.C,R21*
X83655578Y-70034828D02*
G75*
G02X85255000Y-70034510I799422J1454828D01*
G01*
G04 #@! TO.C,R22*
X86442000Y-52740000D02*
X86442000Y-51740000D01*
X87802000Y-51740000D02*
X87802000Y-52740000D01*
G04 #@! TO.C,R23*
X87465578Y-64954828D02*
G75*
G02X89065000Y-64954510I799422J1454828D01*
G01*
G04 #@! TO.C,R24*
X87465578Y-70034828D02*
G75*
G02X89065000Y-70034510I799422J1454828D01*
G01*
G04 #@! TO.C,R25*
X100248000Y-51740000D02*
X100248000Y-52740000D01*
X98888000Y-52740000D02*
X98888000Y-51740000D01*
G04 #@! TO.C,R26*
X97625578Y-64954828D02*
G75*
G02X99225000Y-64954510I799422J1454828D01*
G01*
G04 #@! TO.C,R27*
X97625578Y-70034828D02*
G75*
G02X99225000Y-70034510I799422J1454828D01*
G01*
G04 #@! TO.C,R28*
X101772000Y-51740000D02*
X101772000Y-52740000D01*
X100412000Y-52740000D02*
X100412000Y-51740000D01*
G04 #@! TO.C,R29*
X101435578Y-64954828D02*
G75*
G02X103035000Y-64954510I799422J1454828D01*
G01*
G04 #@! TO.C,R30*
X101435578Y-70034828D02*
G75*
G02X103035000Y-70034510I799422J1454828D01*
G01*
G04 #@! TO.C,R31*
X109138000Y-51740000D02*
X109138000Y-52740000D01*
X107778000Y-52740000D02*
X107778000Y-51740000D01*
G04 #@! TO.C,R32*
X106515578Y-64954828D02*
G75*
G02X108115000Y-64954510I799422J1454828D01*
G01*
G04 #@! TO.C,R33*
X106515578Y-70034828D02*
G75*
G02X108115000Y-70034510I799422J1454828D01*
G01*
G04 #@! TO.C,R34*
X109302000Y-52740000D02*
X109302000Y-51740000D01*
X110662000Y-51740000D02*
X110662000Y-52740000D01*
G04 #@! TO.C,R35*
X110325578Y-64954828D02*
G75*
G02X111925000Y-64954510I799422J1454828D01*
G01*
G04 #@! TO.C,R36*
X110325578Y-70034828D02*
G75*
G02X111925000Y-70034510I799422J1454828D01*
G01*
D11*
G04 #@! TO.C,SW1*
X72644000Y-56134000D02*
X72644000Y-48514000D01*
X70104000Y-56134000D02*
X72644000Y-56134000D01*
X70104000Y-48514000D02*
X70104000Y-56134000D01*
X72644000Y-48514000D02*
X70104000Y-48514000D01*
D12*
G04 #@! TO.C,U1*
X102421801Y-42441999D02*
X100911801Y-42441999D01*
X102421801Y-38740999D02*
X100911801Y-38740999D01*
X100911801Y-35470999D02*
X100911801Y-45710999D01*
X102421801Y-45710999D02*
X97780801Y-45710999D01*
X102421801Y-35470999D02*
X97780801Y-35470999D01*
X97780801Y-35470999D02*
X97780801Y-45710999D01*
X102421801Y-35470999D02*
X102421801Y-45710999D01*
G04 #@! TO.C,U2*
X126786000Y-49610000D02*
X116546000Y-49610000D01*
X126786000Y-44969000D02*
X116546000Y-44969000D01*
X126786000Y-49610000D02*
X126786000Y-44969000D01*
X116546000Y-49610000D02*
X116546000Y-44969000D01*
X126786000Y-48100000D02*
X116546000Y-48100000D01*
X123516000Y-49610000D02*
X123516000Y-48100000D01*
X119815000Y-49610000D02*
X119815000Y-48100000D01*
D11*
G04 #@! TO.C,U3*
X125476000Y-49784000D02*
X118872000Y-49784000D01*
X118872000Y-57531000D02*
X118872000Y-57277000D01*
X118872000Y-54991000D02*
X118872000Y-54737000D01*
X118872000Y-52451000D02*
X118872000Y-52197000D01*
X118872000Y-49784000D02*
X118872000Y-49911000D01*
X118872000Y-59944000D02*
X118872000Y-59817000D01*
X125476000Y-59944000D02*
X125476000Y-59817000D01*
X125476000Y-57531000D02*
X125476000Y-57277000D01*
X125476000Y-54991000D02*
X125476000Y-54737000D01*
X125476000Y-52451000D02*
X125476000Y-52197000D01*
X125476000Y-49784000D02*
X125476000Y-49911000D01*
X122174000Y-59055000D02*
G75*
G03X121285000Y-59944000I0J-889000D01*
G01*
X123063000Y-59944000D02*
G75*
G03X122174000Y-59055000I-889000J0D01*
G01*
X121285000Y-59944000D02*
X118872000Y-59944000D01*
X123063000Y-59944000D02*
X125476000Y-59944000D01*
G04 #@! TO.C,U5*
X122751000Y-76073000D02*
X124126000Y-76073000D01*
X115501000Y-76523000D02*
X116026000Y-76523000D01*
X115501000Y-69273000D02*
X116026000Y-69273000D01*
X122751000Y-69273000D02*
X122226000Y-69273000D01*
X122751000Y-76523000D02*
X122226000Y-76523000D01*
X122751000Y-69273000D02*
X122751000Y-69798000D01*
X115501000Y-69273000D02*
X115501000Y-69798000D01*
X115501000Y-76523000D02*
X115501000Y-75998000D01*
X122751000Y-76523000D02*
X122751000Y-76073000D01*
G04 #@! TO.C,POT2*
X69723000Y-69800999D02*
X69723000Y-62180999D01*
X67183000Y-69800999D02*
X69723000Y-69800999D01*
X67183000Y-62180999D02*
X67183000Y-69800999D01*
X69723000Y-62180999D02*
X67183000Y-62180999D01*
G04 #@! TO.C,POT5*
X112636943Y-37233379D02*
X112636943Y-36233379D01*
X113017896Y-36233379D01*
X113113134Y-36280999D01*
X113160753Y-36328618D01*
X113208372Y-36423856D01*
X113208372Y-36566713D01*
X113160753Y-36661951D01*
X113113134Y-36709570D01*
X113017896Y-36757189D01*
X112636943Y-36757189D01*
X113827420Y-36233379D02*
X114017896Y-36233379D01*
X114113134Y-36280999D01*
X114208372Y-36376237D01*
X114255991Y-36566713D01*
X114255991Y-36900046D01*
X114208372Y-37090522D01*
X114113134Y-37185760D01*
X114017896Y-37233379D01*
X113827420Y-37233379D01*
X113732181Y-37185760D01*
X113636943Y-37090522D01*
X113589324Y-36900046D01*
X113589324Y-36566713D01*
X113636943Y-36376237D01*
X113732181Y-36280999D01*
X113827420Y-36233379D01*
X114541705Y-36233379D02*
X115113134Y-36233379D01*
X114827420Y-37233379D02*
X114827420Y-36233379D01*
X115922658Y-36233379D02*
X115446467Y-36233379D01*
X115398848Y-36709570D01*
X115446467Y-36661951D01*
X115541705Y-36614332D01*
X115779801Y-36614332D01*
X115875039Y-36661951D01*
X115922658Y-36709570D01*
X115970277Y-36804808D01*
X115970277Y-37042903D01*
X115922658Y-37138141D01*
X115875039Y-37185760D01*
X115779801Y-37233379D01*
X115541705Y-37233379D01*
X115446467Y-37185760D01*
X115398848Y-37138141D01*
G04 #@! TO.C,D1*
X117904181Y-60379094D02*
X116904181Y-60379094D01*
X116904181Y-60140999D01*
X116951801Y-59998141D01*
X117047039Y-59902903D01*
X117142277Y-59855284D01*
X117332753Y-59807665D01*
X117475610Y-59807665D01*
X117666086Y-59855284D01*
X117761324Y-59902903D01*
X117856562Y-59998141D01*
X117904181Y-60140999D01*
X117904181Y-60379094D01*
X117904181Y-58855284D02*
X117904181Y-59426713D01*
X117904181Y-59140999D02*
X116904181Y-59140999D01*
X117047039Y-59236237D01*
X117142277Y-59331475D01*
X117189896Y-59426713D01*
G04 #@! TO.C,R15*
X74366380Y-71762857D02*
X73890190Y-72096190D01*
X74366380Y-72334285D02*
X73366380Y-72334285D01*
X73366380Y-71953333D01*
X73414000Y-71858095D01*
X73461619Y-71810476D01*
X73556857Y-71762857D01*
X73699714Y-71762857D01*
X73794952Y-71810476D01*
X73842571Y-71858095D01*
X73890190Y-71953333D01*
X73890190Y-72334285D01*
X74366380Y-70810476D02*
X74366380Y-71381904D01*
X74366380Y-71096190D02*
X73366380Y-71096190D01*
X73509238Y-71191428D01*
X73604476Y-71286666D01*
X73652095Y-71381904D01*
X73366380Y-69905714D02*
X73366380Y-70381904D01*
X73842571Y-70429523D01*
X73794952Y-70381904D01*
X73747333Y-70286666D01*
X73747333Y-70048571D01*
X73794952Y-69953333D01*
X73842571Y-69905714D01*
X73937809Y-69858095D01*
X74175904Y-69858095D01*
X74271142Y-69905714D01*
X74318761Y-69953333D01*
X74366380Y-70048571D01*
X74366380Y-70286666D01*
X74318761Y-70381904D01*
X74271142Y-70429523D01*
G04 #@! TO.C,POT3*
X82431142Y-73858380D02*
X82431142Y-72858380D01*
X82812095Y-72858380D01*
X82907333Y-72906000D01*
X82954952Y-72953619D01*
X83002571Y-73048857D01*
X83002571Y-73191714D01*
X82954952Y-73286952D01*
X82907333Y-73334571D01*
X82812095Y-73382190D01*
X82431142Y-73382190D01*
X83621619Y-72858380D02*
X83812095Y-72858380D01*
X83907333Y-72906000D01*
X84002571Y-73001238D01*
X84050190Y-73191714D01*
X84050190Y-73525047D01*
X84002571Y-73715523D01*
X83907333Y-73810761D01*
X83812095Y-73858380D01*
X83621619Y-73858380D01*
X83526380Y-73810761D01*
X83431142Y-73715523D01*
X83383523Y-73525047D01*
X83383523Y-73191714D01*
X83431142Y-73001238D01*
X83526380Y-72906000D01*
X83621619Y-72858380D01*
X84335904Y-72858380D02*
X84907333Y-72858380D01*
X84621619Y-73858380D02*
X84621619Y-72858380D01*
X85145428Y-72858380D02*
X85764476Y-72858380D01*
X85431142Y-73239333D01*
X85574000Y-73239333D01*
X85669238Y-73286952D01*
X85716857Y-73334571D01*
X85764476Y-73429809D01*
X85764476Y-73667904D01*
X85716857Y-73763142D01*
X85669238Y-73810761D01*
X85574000Y-73858380D01*
X85288285Y-73858380D01*
X85193047Y-73810761D01*
X85145428Y-73763142D01*
G04 #@! TO.C,C4*
X80113142Y-49696666D02*
X80160761Y-49744285D01*
X80208380Y-49887142D01*
X80208380Y-49982380D01*
X80160761Y-50125238D01*
X80065523Y-50220476D01*
X79970285Y-50268095D01*
X79779809Y-50315714D01*
X79636952Y-50315714D01*
X79446476Y-50268095D01*
X79351238Y-50220476D01*
X79256000Y-50125238D01*
X79208380Y-49982380D01*
X79208380Y-49887142D01*
X79256000Y-49744285D01*
X79303619Y-49696666D01*
X79541714Y-48839523D02*
X80208380Y-48839523D01*
X79160761Y-49077619D02*
X79875047Y-49315714D01*
X79875047Y-48696666D01*
G04 #@! TO.C,C5*
X89003142Y-49696666D02*
X89050761Y-49744285D01*
X89098380Y-49887142D01*
X89098380Y-49982380D01*
X89050761Y-50125238D01*
X88955523Y-50220476D01*
X88860285Y-50268095D01*
X88669809Y-50315714D01*
X88526952Y-50315714D01*
X88336476Y-50268095D01*
X88241238Y-50220476D01*
X88146000Y-50125238D01*
X88098380Y-49982380D01*
X88098380Y-49887142D01*
X88146000Y-49744285D01*
X88193619Y-49696666D01*
X88098380Y-48791904D02*
X88098380Y-49268095D01*
X88574571Y-49315714D01*
X88526952Y-49268095D01*
X88479333Y-49172857D01*
X88479333Y-48934761D01*
X88526952Y-48839523D01*
X88574571Y-48791904D01*
X88669809Y-48744285D01*
X88907904Y-48744285D01*
X89003142Y-48791904D01*
X89050761Y-48839523D01*
X89098380Y-48934761D01*
X89098380Y-49172857D01*
X89050761Y-49268095D01*
X89003142Y-49315714D01*
G04 #@! TO.C,C6*
X102973142Y-49696666D02*
X103020761Y-49744285D01*
X103068380Y-49887142D01*
X103068380Y-49982380D01*
X103020761Y-50125238D01*
X102925523Y-50220476D01*
X102830285Y-50268095D01*
X102639809Y-50315714D01*
X102496952Y-50315714D01*
X102306476Y-50268095D01*
X102211238Y-50220476D01*
X102116000Y-50125238D01*
X102068380Y-49982380D01*
X102068380Y-49887142D01*
X102116000Y-49744285D01*
X102163619Y-49696666D01*
X102068380Y-48839523D02*
X102068380Y-49030000D01*
X102116000Y-49125238D01*
X102163619Y-49172857D01*
X102306476Y-49268095D01*
X102496952Y-49315714D01*
X102877904Y-49315714D01*
X102973142Y-49268095D01*
X103020761Y-49220476D01*
X103068380Y-49125238D01*
X103068380Y-48934761D01*
X103020761Y-48839523D01*
X102973142Y-48791904D01*
X102877904Y-48744285D01*
X102639809Y-48744285D01*
X102544571Y-48791904D01*
X102496952Y-48839523D01*
X102449333Y-48934761D01*
X102449333Y-49125238D01*
X102496952Y-49220476D01*
X102544571Y-49268095D01*
X102639809Y-49315714D01*
G04 #@! TO.C,C7*
X111863142Y-49696666D02*
X111910761Y-49744285D01*
X111958380Y-49887142D01*
X111958380Y-49982380D01*
X111910761Y-50125238D01*
X111815523Y-50220476D01*
X111720285Y-50268095D01*
X111529809Y-50315714D01*
X111386952Y-50315714D01*
X111196476Y-50268095D01*
X111101238Y-50220476D01*
X111006000Y-50125238D01*
X110958380Y-49982380D01*
X110958380Y-49887142D01*
X111006000Y-49744285D01*
X111053619Y-49696666D01*
X110958380Y-49363333D02*
X110958380Y-48696666D01*
X111958380Y-49125238D01*
G04 #@! TO.C,C16*
X128373142Y-50934857D02*
X128420761Y-50982476D01*
X128468380Y-51125333D01*
X128468380Y-51220571D01*
X128420761Y-51363428D01*
X128325523Y-51458666D01*
X128230285Y-51506285D01*
X128039809Y-51553904D01*
X127896952Y-51553904D01*
X127706476Y-51506285D01*
X127611238Y-51458666D01*
X127516000Y-51363428D01*
X127468380Y-51220571D01*
X127468380Y-51125333D01*
X127516000Y-50982476D01*
X127563619Y-50934857D01*
X128468380Y-49982476D02*
X128468380Y-50553904D01*
X128468380Y-50268190D02*
X127468380Y-50268190D01*
X127611238Y-50363428D01*
X127706476Y-50458666D01*
X127754095Y-50553904D01*
X127468380Y-49125333D02*
X127468380Y-49315809D01*
X127516000Y-49411047D01*
X127563619Y-49458666D01*
X127706476Y-49553904D01*
X127896952Y-49601523D01*
X128277904Y-49601523D01*
X128373142Y-49553904D01*
X128420761Y-49506285D01*
X128468380Y-49411047D01*
X128468380Y-49220571D01*
X128420761Y-49125333D01*
X128373142Y-49077714D01*
X128277904Y-49030095D01*
X128039809Y-49030095D01*
X127944571Y-49077714D01*
X127896952Y-49125333D01*
X127849333Y-49220571D01*
X127849333Y-49411047D01*
X127896952Y-49506285D01*
X127944571Y-49553904D01*
X128039809Y-49601523D01*
G04 #@! TO.C,C20*
X114911142Y-47378857D02*
X114958761Y-47426476D01*
X115006380Y-47569333D01*
X115006380Y-47664571D01*
X114958761Y-47807428D01*
X114863523Y-47902666D01*
X114768285Y-47950285D01*
X114577809Y-47997904D01*
X114434952Y-47997904D01*
X114244476Y-47950285D01*
X114149238Y-47902666D01*
X114054000Y-47807428D01*
X114006380Y-47664571D01*
X114006380Y-47569333D01*
X114054000Y-47426476D01*
X114101619Y-47378857D01*
X114101619Y-46997904D02*
X114054000Y-46950285D01*
X114006380Y-46855047D01*
X114006380Y-46616952D01*
X114054000Y-46521714D01*
X114101619Y-46474095D01*
X114196857Y-46426476D01*
X114292095Y-46426476D01*
X114434952Y-46474095D01*
X115006380Y-47045523D01*
X115006380Y-46426476D01*
X114006380Y-45807428D02*
X114006380Y-45712190D01*
X114054000Y-45616952D01*
X114101619Y-45569333D01*
X114196857Y-45521714D01*
X114387333Y-45474095D01*
X114625428Y-45474095D01*
X114815904Y-45521714D01*
X114911142Y-45569333D01*
X114958761Y-45616952D01*
X115006380Y-45712190D01*
X115006380Y-45807428D01*
X114958761Y-45902666D01*
X114911142Y-45950285D01*
X114815904Y-45997904D01*
X114625428Y-46045523D01*
X114387333Y-46045523D01*
X114196857Y-45997904D01*
X114101619Y-45950285D01*
X114054000Y-45902666D01*
X114006380Y-45807428D01*
G04 #@! TO.C,C21*
X75541142Y-48648857D02*
X75588761Y-48696476D01*
X75636380Y-48839333D01*
X75636380Y-48934571D01*
X75588761Y-49077428D01*
X75493523Y-49172666D01*
X75398285Y-49220285D01*
X75207809Y-49267904D01*
X75064952Y-49267904D01*
X74874476Y-49220285D01*
X74779238Y-49172666D01*
X74684000Y-49077428D01*
X74636380Y-48934571D01*
X74636380Y-48839333D01*
X74684000Y-48696476D01*
X74731619Y-48648857D01*
X74731619Y-48267904D02*
X74684000Y-48220285D01*
X74636380Y-48125047D01*
X74636380Y-47886952D01*
X74684000Y-47791714D01*
X74731619Y-47744095D01*
X74826857Y-47696476D01*
X74922095Y-47696476D01*
X75064952Y-47744095D01*
X75636380Y-48315523D01*
X75636380Y-47696476D01*
X75636380Y-46744095D02*
X75636380Y-47315523D01*
X75636380Y-47029809D02*
X74636380Y-47029809D01*
X74779238Y-47125047D01*
X74874476Y-47220285D01*
X74922095Y-47315523D01*
G04 #@! TO.C,C22*
X84431142Y-48648857D02*
X84478761Y-48696476D01*
X84526380Y-48839333D01*
X84526380Y-48934571D01*
X84478761Y-49077428D01*
X84383523Y-49172666D01*
X84288285Y-49220285D01*
X84097809Y-49267904D01*
X83954952Y-49267904D01*
X83764476Y-49220285D01*
X83669238Y-49172666D01*
X83574000Y-49077428D01*
X83526380Y-48934571D01*
X83526380Y-48839333D01*
X83574000Y-48696476D01*
X83621619Y-48648857D01*
X83621619Y-48267904D02*
X83574000Y-48220285D01*
X83526380Y-48125047D01*
X83526380Y-47886952D01*
X83574000Y-47791714D01*
X83621619Y-47744095D01*
X83716857Y-47696476D01*
X83812095Y-47696476D01*
X83954952Y-47744095D01*
X84526380Y-48315523D01*
X84526380Y-47696476D01*
X83621619Y-47315523D02*
X83574000Y-47267904D01*
X83526380Y-47172666D01*
X83526380Y-46934571D01*
X83574000Y-46839333D01*
X83621619Y-46791714D01*
X83716857Y-46744095D01*
X83812095Y-46744095D01*
X83954952Y-46791714D01*
X84526380Y-47363142D01*
X84526380Y-46744095D01*
G04 #@! TO.C,C23*
X98401142Y-48714857D02*
X98448761Y-48762476D01*
X98496380Y-48905333D01*
X98496380Y-49000571D01*
X98448761Y-49143428D01*
X98353523Y-49238666D01*
X98258285Y-49286285D01*
X98067809Y-49333904D01*
X97924952Y-49333904D01*
X97734476Y-49286285D01*
X97639238Y-49238666D01*
X97544000Y-49143428D01*
X97496380Y-49000571D01*
X97496380Y-48905333D01*
X97544000Y-48762476D01*
X97591619Y-48714857D01*
X97591619Y-48333904D02*
X97544000Y-48286285D01*
X97496380Y-48191047D01*
X97496380Y-47952952D01*
X97544000Y-47857714D01*
X97591619Y-47810095D01*
X97686857Y-47762476D01*
X97782095Y-47762476D01*
X97924952Y-47810095D01*
X98496380Y-48381523D01*
X98496380Y-47762476D01*
X97496380Y-47429142D02*
X97496380Y-46810095D01*
X97877333Y-47143428D01*
X97877333Y-47000571D01*
X97924952Y-46905333D01*
X97972571Y-46857714D01*
X98067809Y-46810095D01*
X98305904Y-46810095D01*
X98401142Y-46857714D01*
X98448761Y-46905333D01*
X98496380Y-47000571D01*
X98496380Y-47286285D01*
X98448761Y-47381523D01*
X98401142Y-47429142D01*
G04 #@! TO.C,C24*
X107291142Y-48648857D02*
X107338761Y-48696476D01*
X107386380Y-48839333D01*
X107386380Y-48934571D01*
X107338761Y-49077428D01*
X107243523Y-49172666D01*
X107148285Y-49220285D01*
X106957809Y-49267904D01*
X106814952Y-49267904D01*
X106624476Y-49220285D01*
X106529238Y-49172666D01*
X106434000Y-49077428D01*
X106386380Y-48934571D01*
X106386380Y-48839333D01*
X106434000Y-48696476D01*
X106481619Y-48648857D01*
X106481619Y-48267904D02*
X106434000Y-48220285D01*
X106386380Y-48125047D01*
X106386380Y-47886952D01*
X106434000Y-47791714D01*
X106481619Y-47744095D01*
X106576857Y-47696476D01*
X106672095Y-47696476D01*
X106814952Y-47744095D01*
X107386380Y-48315523D01*
X107386380Y-47696476D01*
X106719714Y-46839333D02*
X107386380Y-46839333D01*
X106338761Y-47077428D02*
X107053047Y-47315523D01*
X107053047Y-46696476D01*
G04 #@! TO.C,C27*
X63349142Y-74302857D02*
X63396761Y-74350476D01*
X63444380Y-74493333D01*
X63444380Y-74588571D01*
X63396761Y-74731428D01*
X63301523Y-74826666D01*
X63206285Y-74874285D01*
X63015809Y-74921904D01*
X62872952Y-74921904D01*
X62682476Y-74874285D01*
X62587238Y-74826666D01*
X62492000Y-74731428D01*
X62444380Y-74588571D01*
X62444380Y-74493333D01*
X62492000Y-74350476D01*
X62539619Y-74302857D01*
X62539619Y-73921904D02*
X62492000Y-73874285D01*
X62444380Y-73779047D01*
X62444380Y-73540952D01*
X62492000Y-73445714D01*
X62539619Y-73398095D01*
X62634857Y-73350476D01*
X62730095Y-73350476D01*
X62872952Y-73398095D01*
X63444380Y-73969523D01*
X63444380Y-73350476D01*
X62444380Y-73017142D02*
X62444380Y-72350476D01*
X63444380Y-72779047D01*
G04 #@! TO.C,C28*
X74017142Y-48648857D02*
X74064761Y-48696476D01*
X74112380Y-48839333D01*
X74112380Y-48934571D01*
X74064761Y-49077428D01*
X73969523Y-49172666D01*
X73874285Y-49220285D01*
X73683809Y-49267904D01*
X73540952Y-49267904D01*
X73350476Y-49220285D01*
X73255238Y-49172666D01*
X73160000Y-49077428D01*
X73112380Y-48934571D01*
X73112380Y-48839333D01*
X73160000Y-48696476D01*
X73207619Y-48648857D01*
X73207619Y-48267904D02*
X73160000Y-48220285D01*
X73112380Y-48125047D01*
X73112380Y-47886952D01*
X73160000Y-47791714D01*
X73207619Y-47744095D01*
X73302857Y-47696476D01*
X73398095Y-47696476D01*
X73540952Y-47744095D01*
X74112380Y-48315523D01*
X74112380Y-47696476D01*
X73540952Y-47125047D02*
X73493333Y-47220285D01*
X73445714Y-47267904D01*
X73350476Y-47315523D01*
X73302857Y-47315523D01*
X73207619Y-47267904D01*
X73160000Y-47220285D01*
X73112380Y-47125047D01*
X73112380Y-46934571D01*
X73160000Y-46839333D01*
X73207619Y-46791714D01*
X73302857Y-46744095D01*
X73350476Y-46744095D01*
X73445714Y-46791714D01*
X73493333Y-46839333D01*
X73540952Y-46934571D01*
X73540952Y-47125047D01*
X73588571Y-47220285D01*
X73636190Y-47267904D01*
X73731428Y-47315523D01*
X73921904Y-47315523D01*
X74017142Y-47267904D01*
X74064761Y-47220285D01*
X74112380Y-47125047D01*
X74112380Y-46934571D01*
X74064761Y-46839333D01*
X74017142Y-46791714D01*
X73921904Y-46744095D01*
X73731428Y-46744095D01*
X73636190Y-46791714D01*
X73588571Y-46839333D01*
X73540952Y-46934571D01*
G04 #@! TO.C,C29*
X81637142Y-48648857D02*
X81684761Y-48696476D01*
X81732380Y-48839333D01*
X81732380Y-48934571D01*
X81684761Y-49077428D01*
X81589523Y-49172666D01*
X81494285Y-49220285D01*
X81303809Y-49267904D01*
X81160952Y-49267904D01*
X80970476Y-49220285D01*
X80875238Y-49172666D01*
X80780000Y-49077428D01*
X80732380Y-48934571D01*
X80732380Y-48839333D01*
X80780000Y-48696476D01*
X80827619Y-48648857D01*
X80827619Y-48267904D02*
X80780000Y-48220285D01*
X80732380Y-48125047D01*
X80732380Y-47886952D01*
X80780000Y-47791714D01*
X80827619Y-47744095D01*
X80922857Y-47696476D01*
X81018095Y-47696476D01*
X81160952Y-47744095D01*
X81732380Y-48315523D01*
X81732380Y-47696476D01*
X81732380Y-47220285D02*
X81732380Y-47029809D01*
X81684761Y-46934571D01*
X81637142Y-46886952D01*
X81494285Y-46791714D01*
X81303809Y-46744095D01*
X80922857Y-46744095D01*
X80827619Y-46791714D01*
X80780000Y-46839333D01*
X80732380Y-46934571D01*
X80732380Y-47125047D01*
X80780000Y-47220285D01*
X80827619Y-47267904D01*
X80922857Y-47315523D01*
X81160952Y-47315523D01*
X81256190Y-47267904D01*
X81303809Y-47220285D01*
X81351428Y-47125047D01*
X81351428Y-46934571D01*
X81303809Y-46839333D01*
X81256190Y-46791714D01*
X81160952Y-46744095D01*
G04 #@! TO.C,C30*
X82907142Y-48648857D02*
X82954761Y-48696476D01*
X83002380Y-48839333D01*
X83002380Y-48934571D01*
X82954761Y-49077428D01*
X82859523Y-49172666D01*
X82764285Y-49220285D01*
X82573809Y-49267904D01*
X82430952Y-49267904D01*
X82240476Y-49220285D01*
X82145238Y-49172666D01*
X82050000Y-49077428D01*
X82002380Y-48934571D01*
X82002380Y-48839333D01*
X82050000Y-48696476D01*
X82097619Y-48648857D01*
X82002380Y-48315523D02*
X82002380Y-47696476D01*
X82383333Y-48029809D01*
X82383333Y-47886952D01*
X82430952Y-47791714D01*
X82478571Y-47744095D01*
X82573809Y-47696476D01*
X82811904Y-47696476D01*
X82907142Y-47744095D01*
X82954761Y-47791714D01*
X83002380Y-47886952D01*
X83002380Y-48172666D01*
X82954761Y-48267904D01*
X82907142Y-48315523D01*
X82002380Y-47077428D02*
X82002380Y-46982190D01*
X82050000Y-46886952D01*
X82097619Y-46839333D01*
X82192857Y-46791714D01*
X82383333Y-46744095D01*
X82621428Y-46744095D01*
X82811904Y-46791714D01*
X82907142Y-46839333D01*
X82954761Y-46886952D01*
X83002380Y-46982190D01*
X83002380Y-47077428D01*
X82954761Y-47172666D01*
X82907142Y-47220285D01*
X82811904Y-47267904D01*
X82621428Y-47315523D01*
X82383333Y-47315523D01*
X82192857Y-47267904D01*
X82097619Y-47220285D01*
X82050000Y-47172666D01*
X82002380Y-47077428D01*
G04 #@! TO.C,C31*
X90527142Y-48648857D02*
X90574761Y-48696476D01*
X90622380Y-48839333D01*
X90622380Y-48934571D01*
X90574761Y-49077428D01*
X90479523Y-49172666D01*
X90384285Y-49220285D01*
X90193809Y-49267904D01*
X90050952Y-49267904D01*
X89860476Y-49220285D01*
X89765238Y-49172666D01*
X89670000Y-49077428D01*
X89622380Y-48934571D01*
X89622380Y-48839333D01*
X89670000Y-48696476D01*
X89717619Y-48648857D01*
X89622380Y-48315523D02*
X89622380Y-47696476D01*
X90003333Y-48029809D01*
X90003333Y-47886952D01*
X90050952Y-47791714D01*
X90098571Y-47744095D01*
X90193809Y-47696476D01*
X90431904Y-47696476D01*
X90527142Y-47744095D01*
X90574761Y-47791714D01*
X90622380Y-47886952D01*
X90622380Y-48172666D01*
X90574761Y-48267904D01*
X90527142Y-48315523D01*
X90622380Y-46744095D02*
X90622380Y-47315523D01*
X90622380Y-47029809D02*
X89622380Y-47029809D01*
X89765238Y-47125047D01*
X89860476Y-47220285D01*
X89908095Y-47315523D01*
G04 #@! TO.C,C32*
X96877142Y-48648857D02*
X96924761Y-48696476D01*
X96972380Y-48839333D01*
X96972380Y-48934571D01*
X96924761Y-49077428D01*
X96829523Y-49172666D01*
X96734285Y-49220285D01*
X96543809Y-49267904D01*
X96400952Y-49267904D01*
X96210476Y-49220285D01*
X96115238Y-49172666D01*
X96020000Y-49077428D01*
X95972380Y-48934571D01*
X95972380Y-48839333D01*
X96020000Y-48696476D01*
X96067619Y-48648857D01*
X95972380Y-48315523D02*
X95972380Y-47696476D01*
X96353333Y-48029809D01*
X96353333Y-47886952D01*
X96400952Y-47791714D01*
X96448571Y-47744095D01*
X96543809Y-47696476D01*
X96781904Y-47696476D01*
X96877142Y-47744095D01*
X96924761Y-47791714D01*
X96972380Y-47886952D01*
X96972380Y-48172666D01*
X96924761Y-48267904D01*
X96877142Y-48315523D01*
X96067619Y-47315523D02*
X96020000Y-47267904D01*
X95972380Y-47172666D01*
X95972380Y-46934571D01*
X96020000Y-46839333D01*
X96067619Y-46791714D01*
X96162857Y-46744095D01*
X96258095Y-46744095D01*
X96400952Y-46791714D01*
X96972380Y-47363142D01*
X96972380Y-46744095D01*
G04 #@! TO.C,C33*
X104497142Y-48648857D02*
X104544761Y-48696476D01*
X104592380Y-48839333D01*
X104592380Y-48934571D01*
X104544761Y-49077428D01*
X104449523Y-49172666D01*
X104354285Y-49220285D01*
X104163809Y-49267904D01*
X104020952Y-49267904D01*
X103830476Y-49220285D01*
X103735238Y-49172666D01*
X103640000Y-49077428D01*
X103592380Y-48934571D01*
X103592380Y-48839333D01*
X103640000Y-48696476D01*
X103687619Y-48648857D01*
X103592380Y-48315523D02*
X103592380Y-47696476D01*
X103973333Y-48029809D01*
X103973333Y-47886952D01*
X104020952Y-47791714D01*
X104068571Y-47744095D01*
X104163809Y-47696476D01*
X104401904Y-47696476D01*
X104497142Y-47744095D01*
X104544761Y-47791714D01*
X104592380Y-47886952D01*
X104592380Y-48172666D01*
X104544761Y-48267904D01*
X104497142Y-48315523D01*
X103592380Y-47363142D02*
X103592380Y-46744095D01*
X103973333Y-47077428D01*
X103973333Y-46934571D01*
X104020952Y-46839333D01*
X104068571Y-46791714D01*
X104163809Y-46744095D01*
X104401904Y-46744095D01*
X104497142Y-46791714D01*
X104544761Y-46839333D01*
X104592380Y-46934571D01*
X104592380Y-47220285D01*
X104544761Y-47315523D01*
X104497142Y-47363142D01*
G04 #@! TO.C,C34*
X105767142Y-48648857D02*
X105814761Y-48696476D01*
X105862380Y-48839333D01*
X105862380Y-48934571D01*
X105814761Y-49077428D01*
X105719523Y-49172666D01*
X105624285Y-49220285D01*
X105433809Y-49267904D01*
X105290952Y-49267904D01*
X105100476Y-49220285D01*
X105005238Y-49172666D01*
X104910000Y-49077428D01*
X104862380Y-48934571D01*
X104862380Y-48839333D01*
X104910000Y-48696476D01*
X104957619Y-48648857D01*
X104862380Y-48315523D02*
X104862380Y-47696476D01*
X105243333Y-48029809D01*
X105243333Y-47886952D01*
X105290952Y-47791714D01*
X105338571Y-47744095D01*
X105433809Y-47696476D01*
X105671904Y-47696476D01*
X105767142Y-47744095D01*
X105814761Y-47791714D01*
X105862380Y-47886952D01*
X105862380Y-48172666D01*
X105814761Y-48267904D01*
X105767142Y-48315523D01*
X105195714Y-46839333D02*
X105862380Y-46839333D01*
X104814761Y-47077428D02*
X105529047Y-47315523D01*
X105529047Y-46696476D01*
G04 #@! TO.C,C35*
X113387142Y-48648857D02*
X113434761Y-48696476D01*
X113482380Y-48839333D01*
X113482380Y-48934571D01*
X113434761Y-49077428D01*
X113339523Y-49172666D01*
X113244285Y-49220285D01*
X113053809Y-49267904D01*
X112910952Y-49267904D01*
X112720476Y-49220285D01*
X112625238Y-49172666D01*
X112530000Y-49077428D01*
X112482380Y-48934571D01*
X112482380Y-48839333D01*
X112530000Y-48696476D01*
X112577619Y-48648857D01*
X112482380Y-48315523D02*
X112482380Y-47696476D01*
X112863333Y-48029809D01*
X112863333Y-47886952D01*
X112910952Y-47791714D01*
X112958571Y-47744095D01*
X113053809Y-47696476D01*
X113291904Y-47696476D01*
X113387142Y-47744095D01*
X113434761Y-47791714D01*
X113482380Y-47886952D01*
X113482380Y-48172666D01*
X113434761Y-48267904D01*
X113387142Y-48315523D01*
X112482380Y-46791714D02*
X112482380Y-47267904D01*
X112958571Y-47315523D01*
X112910952Y-47267904D01*
X112863333Y-47172666D01*
X112863333Y-46934571D01*
X112910952Y-46839333D01*
X112958571Y-46791714D01*
X113053809Y-46744095D01*
X113291904Y-46744095D01*
X113387142Y-46791714D01*
X113434761Y-46839333D01*
X113482380Y-46934571D01*
X113482380Y-47172666D01*
X113434761Y-47267904D01*
X113387142Y-47315523D01*
G04 #@! TO.C,J1*
X128190666Y-35520380D02*
X128190666Y-36234666D01*
X128143047Y-36377523D01*
X128047809Y-36472761D01*
X127904952Y-36520380D01*
X127809714Y-36520380D01*
X129190666Y-36520380D02*
X128619238Y-36520380D01*
X128904952Y-36520380D02*
X128904952Y-35520380D01*
X128809714Y-35663238D01*
X128714476Y-35758476D01*
X128619238Y-35806095D01*
G04 #@! TO.C,J2*
X93138666Y-58082380D02*
X93138666Y-58796666D01*
X93091047Y-58939523D01*
X92995809Y-59034761D01*
X92852952Y-59082380D01*
X92757714Y-59082380D01*
X93567238Y-58177619D02*
X93614857Y-58130000D01*
X93710095Y-58082380D01*
X93948190Y-58082380D01*
X94043428Y-58130000D01*
X94091047Y-58177619D01*
X94138666Y-58272857D01*
X94138666Y-58368095D01*
X94091047Y-58510952D01*
X93519619Y-59082380D01*
X94138666Y-59082380D01*
G04 #@! TO.C,J3*
X63674666Y-50506380D02*
X63674666Y-51220666D01*
X63627047Y-51363523D01*
X63531809Y-51458761D01*
X63388952Y-51506380D01*
X63293714Y-51506380D01*
X64055619Y-50506380D02*
X64674666Y-50506380D01*
X64341333Y-50887333D01*
X64484190Y-50887333D01*
X64579428Y-50934952D01*
X64627047Y-50982571D01*
X64674666Y-51077809D01*
X64674666Y-51315904D01*
X64627047Y-51411142D01*
X64579428Y-51458761D01*
X64484190Y-51506380D01*
X64198476Y-51506380D01*
X64103238Y-51458761D01*
X64055619Y-51411142D01*
G04 #@! TO.C,J4*
X127174666Y-81494380D02*
X127174666Y-82208666D01*
X127127047Y-82351523D01*
X127031809Y-82446761D01*
X126888952Y-82494380D01*
X126793714Y-82494380D01*
X128079428Y-81827714D02*
X128079428Y-82494380D01*
X127841333Y-81446761D02*
X127603238Y-82161047D01*
X128222285Y-82161047D01*
G04 #@! TO.C,J5*
X73620380Y-58753333D02*
X74334666Y-58753333D01*
X74477523Y-58800952D01*
X74572761Y-58896190D01*
X74620380Y-59039047D01*
X74620380Y-59134285D01*
X73620380Y-57800952D02*
X73620380Y-58277142D01*
X74096571Y-58324761D01*
X74048952Y-58277142D01*
X74001333Y-58181904D01*
X74001333Y-57943809D01*
X74048952Y-57848571D01*
X74096571Y-57800952D01*
X74191809Y-57753333D01*
X74429904Y-57753333D01*
X74525142Y-57800952D01*
X74572761Y-57848571D01*
X74620380Y-57943809D01*
X74620380Y-58181904D01*
X74572761Y-58277142D01*
X74525142Y-58324761D01*
G04 #@! TO.C,J6*
X80224380Y-58753333D02*
X80938666Y-58753333D01*
X81081523Y-58800952D01*
X81176761Y-58896190D01*
X81224380Y-59039047D01*
X81224380Y-59134285D01*
X80224380Y-57848571D02*
X80224380Y-58039047D01*
X80272000Y-58134285D01*
X80319619Y-58181904D01*
X80462476Y-58277142D01*
X80652952Y-58324761D01*
X81033904Y-58324761D01*
X81129142Y-58277142D01*
X81176761Y-58229523D01*
X81224380Y-58134285D01*
X81224380Y-57943809D01*
X81176761Y-57848571D01*
X81129142Y-57800952D01*
X81033904Y-57753333D01*
X80795809Y-57753333D01*
X80700571Y-57800952D01*
X80652952Y-57848571D01*
X80605333Y-57943809D01*
X80605333Y-58134285D01*
X80652952Y-58229523D01*
X80700571Y-58277142D01*
X80795809Y-58324761D01*
G04 #@! TO.C,J7*
X82510380Y-58753333D02*
X83224666Y-58753333D01*
X83367523Y-58800952D01*
X83462761Y-58896190D01*
X83510380Y-59039047D01*
X83510380Y-59134285D01*
X82510380Y-58372380D02*
X82510380Y-57705714D01*
X83510380Y-58134285D01*
G04 #@! TO.C,J8*
X89114380Y-58753333D02*
X89828666Y-58753333D01*
X89971523Y-58800952D01*
X90066761Y-58896190D01*
X90114380Y-59039047D01*
X90114380Y-59134285D01*
X89542952Y-58134285D02*
X89495333Y-58229523D01*
X89447714Y-58277142D01*
X89352476Y-58324761D01*
X89304857Y-58324761D01*
X89209619Y-58277142D01*
X89162000Y-58229523D01*
X89114380Y-58134285D01*
X89114380Y-57943809D01*
X89162000Y-57848571D01*
X89209619Y-57800952D01*
X89304857Y-57753333D01*
X89352476Y-57753333D01*
X89447714Y-57800952D01*
X89495333Y-57848571D01*
X89542952Y-57943809D01*
X89542952Y-58134285D01*
X89590571Y-58229523D01*
X89638190Y-58277142D01*
X89733428Y-58324761D01*
X89923904Y-58324761D01*
X90019142Y-58277142D01*
X90066761Y-58229523D01*
X90114380Y-58134285D01*
X90114380Y-57943809D01*
X90066761Y-57848571D01*
X90019142Y-57800952D01*
X89923904Y-57753333D01*
X89733428Y-57753333D01*
X89638190Y-57800952D01*
X89590571Y-57848571D01*
X89542952Y-57943809D01*
G04 #@! TO.C,J9*
X96480380Y-58753333D02*
X97194666Y-58753333D01*
X97337523Y-58800952D01*
X97432761Y-58896190D01*
X97480380Y-59039047D01*
X97480380Y-59134285D01*
X97480380Y-58229523D02*
X97480380Y-58039047D01*
X97432761Y-57943809D01*
X97385142Y-57896190D01*
X97242285Y-57800952D01*
X97051809Y-57753333D01*
X96670857Y-57753333D01*
X96575619Y-57800952D01*
X96528000Y-57848571D01*
X96480380Y-57943809D01*
X96480380Y-58134285D01*
X96528000Y-58229523D01*
X96575619Y-58277142D01*
X96670857Y-58324761D01*
X96908952Y-58324761D01*
X97004190Y-58277142D01*
X97051809Y-58229523D01*
X97099428Y-58134285D01*
X97099428Y-57943809D01*
X97051809Y-57848571D01*
X97004190Y-57800952D01*
X96908952Y-57753333D01*
G04 #@! TO.C,J10*
X103084380Y-59229523D02*
X103798666Y-59229523D01*
X103941523Y-59277142D01*
X104036761Y-59372380D01*
X104084380Y-59515238D01*
X104084380Y-59610476D01*
X104084380Y-58229523D02*
X104084380Y-58800952D01*
X104084380Y-58515238D02*
X103084380Y-58515238D01*
X103227238Y-58610476D01*
X103322476Y-58705714D01*
X103370095Y-58800952D01*
X103084380Y-57610476D02*
X103084380Y-57515238D01*
X103132000Y-57420000D01*
X103179619Y-57372380D01*
X103274857Y-57324761D01*
X103465333Y-57277142D01*
X103703428Y-57277142D01*
X103893904Y-57324761D01*
X103989142Y-57372380D01*
X104036761Y-57420000D01*
X104084380Y-57515238D01*
X104084380Y-57610476D01*
X104036761Y-57705714D01*
X103989142Y-57753333D01*
X103893904Y-57800952D01*
X103703428Y-57848571D01*
X103465333Y-57848571D01*
X103274857Y-57800952D01*
X103179619Y-57753333D01*
X103132000Y-57705714D01*
X103084380Y-57610476D01*
G04 #@! TO.C,J11*
X105370380Y-59229523D02*
X106084666Y-59229523D01*
X106227523Y-59277142D01*
X106322761Y-59372380D01*
X106370380Y-59515238D01*
X106370380Y-59610476D01*
X106370380Y-58229523D02*
X106370380Y-58800952D01*
X106370380Y-58515238D02*
X105370380Y-58515238D01*
X105513238Y-58610476D01*
X105608476Y-58705714D01*
X105656095Y-58800952D01*
X106370380Y-57277142D02*
X106370380Y-57848571D01*
X106370380Y-57562857D02*
X105370380Y-57562857D01*
X105513238Y-57658095D01*
X105608476Y-57753333D01*
X105656095Y-57848571D01*
G04 #@! TO.C,J12*
X111974380Y-59229523D02*
X112688666Y-59229523D01*
X112831523Y-59277142D01*
X112926761Y-59372380D01*
X112974380Y-59515238D01*
X112974380Y-59610476D01*
X112974380Y-58229523D02*
X112974380Y-58800952D01*
X112974380Y-58515238D02*
X111974380Y-58515238D01*
X112117238Y-58610476D01*
X112212476Y-58705714D01*
X112260095Y-58800952D01*
X112069619Y-57848571D02*
X112022000Y-57800952D01*
X111974380Y-57705714D01*
X111974380Y-57467619D01*
X112022000Y-57372380D01*
X112069619Y-57324761D01*
X112164857Y-57277142D01*
X112260095Y-57277142D01*
X112402952Y-57324761D01*
X112974380Y-57896190D01*
X112974380Y-57277142D01*
G04 #@! TO.C,LCD1*
X83415333Y-78176380D02*
X82939142Y-78176380D01*
X82939142Y-77176380D01*
X84320095Y-78081142D02*
X84272476Y-78128761D01*
X84129619Y-78176380D01*
X84034380Y-78176380D01*
X83891523Y-78128761D01*
X83796285Y-78033523D01*
X83748666Y-77938285D01*
X83701047Y-77747809D01*
X83701047Y-77604952D01*
X83748666Y-77414476D01*
X83796285Y-77319238D01*
X83891523Y-77224000D01*
X84034380Y-77176380D01*
X84129619Y-77176380D01*
X84272476Y-77224000D01*
X84320095Y-77271619D01*
X84748666Y-78176380D02*
X84748666Y-77176380D01*
X84986761Y-77176380D01*
X85129619Y-77224000D01*
X85224857Y-77319238D01*
X85272476Y-77414476D01*
X85320095Y-77604952D01*
X85320095Y-77747809D01*
X85272476Y-77938285D01*
X85224857Y-78033523D01*
X85129619Y-78128761D01*
X84986761Y-78176380D01*
X84748666Y-78176380D01*
X86272476Y-78176380D02*
X85701047Y-78176380D01*
X85986761Y-78176380D02*
X85986761Y-77176380D01*
X85891523Y-77319238D01*
X85796285Y-77414476D01*
X85701047Y-77462095D01*
G04 #@! TO.C,POT1*
X60079142Y-62428380D02*
X60079142Y-61428380D01*
X60460095Y-61428380D01*
X60555333Y-61476000D01*
X60602952Y-61523619D01*
X60650571Y-61618857D01*
X60650571Y-61761714D01*
X60602952Y-61856952D01*
X60555333Y-61904571D01*
X60460095Y-61952190D01*
X60079142Y-61952190D01*
X61269619Y-61428380D02*
X61460095Y-61428380D01*
X61555333Y-61476000D01*
X61650571Y-61571238D01*
X61698190Y-61761714D01*
X61698190Y-62095047D01*
X61650571Y-62285523D01*
X61555333Y-62380761D01*
X61460095Y-62428380D01*
X61269619Y-62428380D01*
X61174380Y-62380761D01*
X61079142Y-62285523D01*
X61031523Y-62095047D01*
X61031523Y-61761714D01*
X61079142Y-61571238D01*
X61174380Y-61476000D01*
X61269619Y-61428380D01*
X61983904Y-61428380D02*
X62555333Y-61428380D01*
X62269619Y-62428380D02*
X62269619Y-61428380D01*
X63412476Y-62428380D02*
X62841047Y-62428380D01*
X63126761Y-62428380D02*
X63126761Y-61428380D01*
X63031523Y-61571238D01*
X62936285Y-61666476D01*
X62841047Y-61714095D01*
G04 #@! TO.C,POT4*
X66535943Y-80462380D02*
X66535943Y-79462380D01*
X66916896Y-79462380D01*
X67012134Y-79510000D01*
X67059753Y-79557619D01*
X67107372Y-79652857D01*
X67107372Y-79795714D01*
X67059753Y-79890952D01*
X67012134Y-79938571D01*
X66916896Y-79986190D01*
X66535943Y-79986190D01*
X67726420Y-79462380D02*
X67916896Y-79462380D01*
X68012134Y-79510000D01*
X68107372Y-79605238D01*
X68154991Y-79795714D01*
X68154991Y-80129047D01*
X68107372Y-80319523D01*
X68012134Y-80414761D01*
X67916896Y-80462380D01*
X67726420Y-80462380D01*
X67631181Y-80414761D01*
X67535943Y-80319523D01*
X67488324Y-80129047D01*
X67488324Y-79795714D01*
X67535943Y-79605238D01*
X67631181Y-79510000D01*
X67726420Y-79462380D01*
X68440705Y-79462380D02*
X69012134Y-79462380D01*
X68726420Y-80462380D02*
X68726420Y-79462380D01*
X69774039Y-79795714D02*
X69774039Y-80462380D01*
X69535943Y-79414761D02*
X69297848Y-80129047D01*
X69916896Y-80129047D01*
G04 #@! TO.C,R2*
X63841333Y-46426380D02*
X63508000Y-45950190D01*
X63269904Y-46426380D02*
X63269904Y-45426380D01*
X63650857Y-45426380D01*
X63746095Y-45474000D01*
X63793714Y-45521619D01*
X63841333Y-45616857D01*
X63841333Y-45759714D01*
X63793714Y-45854952D01*
X63746095Y-45902571D01*
X63650857Y-45950190D01*
X63269904Y-45950190D01*
X64222285Y-45521619D02*
X64269904Y-45474000D01*
X64365142Y-45426380D01*
X64603238Y-45426380D01*
X64698476Y-45474000D01*
X64746095Y-45521619D01*
X64793714Y-45616857D01*
X64793714Y-45712095D01*
X64746095Y-45854952D01*
X64174666Y-46426380D01*
X64793714Y-46426380D01*
G04 #@! TO.C,R3*
X68667333Y-51760380D02*
X68334000Y-51284190D01*
X68095904Y-51760380D02*
X68095904Y-50760380D01*
X68476857Y-50760380D01*
X68572095Y-50808000D01*
X68619714Y-50855619D01*
X68667333Y-50950857D01*
X68667333Y-51093714D01*
X68619714Y-51188952D01*
X68572095Y-51236571D01*
X68476857Y-51284190D01*
X68095904Y-51284190D01*
X69000666Y-50760380D02*
X69619714Y-50760380D01*
X69286380Y-51141333D01*
X69429238Y-51141333D01*
X69524476Y-51188952D01*
X69572095Y-51236571D01*
X69619714Y-51331809D01*
X69619714Y-51569904D01*
X69572095Y-51665142D01*
X69524476Y-51712761D01*
X69429238Y-51760380D01*
X69143523Y-51760380D01*
X69048285Y-51712761D01*
X69000666Y-51665142D01*
G04 #@! TO.C,R12*
X125420380Y-71254857D02*
X124944190Y-71588190D01*
X125420380Y-71826285D02*
X124420380Y-71826285D01*
X124420380Y-71445333D01*
X124468000Y-71350095D01*
X124515619Y-71302476D01*
X124610857Y-71254857D01*
X124753714Y-71254857D01*
X124848952Y-71302476D01*
X124896571Y-71350095D01*
X124944190Y-71445333D01*
X124944190Y-71826285D01*
X125420380Y-70302476D02*
X125420380Y-70873904D01*
X125420380Y-70588190D02*
X124420380Y-70588190D01*
X124563238Y-70683428D01*
X124658476Y-70778666D01*
X124706095Y-70873904D01*
X124515619Y-69921523D02*
X124468000Y-69873904D01*
X124420380Y-69778666D01*
X124420380Y-69540571D01*
X124468000Y-69445333D01*
X124515619Y-69397714D01*
X124610857Y-69350095D01*
X124706095Y-69350095D01*
X124848952Y-69397714D01*
X125420380Y-69969142D01*
X125420380Y-69350095D01*
G04 #@! TO.C,R13*
X77160380Y-49664857D02*
X76684190Y-49998190D01*
X77160380Y-50236285D02*
X76160380Y-50236285D01*
X76160380Y-49855333D01*
X76208000Y-49760095D01*
X76255619Y-49712476D01*
X76350857Y-49664857D01*
X76493714Y-49664857D01*
X76588952Y-49712476D01*
X76636571Y-49760095D01*
X76684190Y-49855333D01*
X76684190Y-50236285D01*
X77160380Y-48712476D02*
X77160380Y-49283904D01*
X77160380Y-48998190D02*
X76160380Y-48998190D01*
X76303238Y-49093428D01*
X76398476Y-49188666D01*
X76446095Y-49283904D01*
X76160380Y-48379142D02*
X76160380Y-47760095D01*
X76541333Y-48093428D01*
X76541333Y-47950571D01*
X76588952Y-47855333D01*
X76636571Y-47807714D01*
X76731809Y-47760095D01*
X76969904Y-47760095D01*
X77065142Y-47807714D01*
X77112761Y-47855333D01*
X77160380Y-47950571D01*
X77160380Y-48236285D01*
X77112761Y-48331523D01*
X77065142Y-48379142D01*
G04 #@! TO.C,R14*
X74366380Y-66682857D02*
X73890190Y-67016190D01*
X74366380Y-67254285D02*
X73366380Y-67254285D01*
X73366380Y-66873333D01*
X73414000Y-66778095D01*
X73461619Y-66730476D01*
X73556857Y-66682857D01*
X73699714Y-66682857D01*
X73794952Y-66730476D01*
X73842571Y-66778095D01*
X73890190Y-66873333D01*
X73890190Y-67254285D01*
X74366380Y-65730476D02*
X74366380Y-66301904D01*
X74366380Y-66016190D02*
X73366380Y-66016190D01*
X73509238Y-66111428D01*
X73604476Y-66206666D01*
X73652095Y-66301904D01*
X73699714Y-64873333D02*
X74366380Y-64873333D01*
X73318761Y-65111428D02*
X74033047Y-65349523D01*
X74033047Y-64730476D01*
G04 #@! TO.C,R16*
X78684380Y-49664857D02*
X78208190Y-49998190D01*
X78684380Y-50236285D02*
X77684380Y-50236285D01*
X77684380Y-49855333D01*
X77732000Y-49760095D01*
X77779619Y-49712476D01*
X77874857Y-49664857D01*
X78017714Y-49664857D01*
X78112952Y-49712476D01*
X78160571Y-49760095D01*
X78208190Y-49855333D01*
X78208190Y-50236285D01*
X78684380Y-48712476D02*
X78684380Y-49283904D01*
X78684380Y-48998190D02*
X77684380Y-48998190D01*
X77827238Y-49093428D01*
X77922476Y-49188666D01*
X77970095Y-49283904D01*
X77684380Y-47855333D02*
X77684380Y-48045809D01*
X77732000Y-48141047D01*
X77779619Y-48188666D01*
X77922476Y-48283904D01*
X78112952Y-48331523D01*
X78493904Y-48331523D01*
X78589142Y-48283904D01*
X78636761Y-48236285D01*
X78684380Y-48141047D01*
X78684380Y-47950571D01*
X78636761Y-47855333D01*
X78589142Y-47807714D01*
X78493904Y-47760095D01*
X78255809Y-47760095D01*
X78160571Y-47807714D01*
X78112952Y-47855333D01*
X78065333Y-47950571D01*
X78065333Y-48141047D01*
X78112952Y-48236285D01*
X78160571Y-48283904D01*
X78255809Y-48331523D01*
G04 #@! TO.C,R17*
X81732380Y-66682857D02*
X81256190Y-67016190D01*
X81732380Y-67254285D02*
X80732380Y-67254285D01*
X80732380Y-66873333D01*
X80780000Y-66778095D01*
X80827619Y-66730476D01*
X80922857Y-66682857D01*
X81065714Y-66682857D01*
X81160952Y-66730476D01*
X81208571Y-66778095D01*
X81256190Y-66873333D01*
X81256190Y-67254285D01*
X81732380Y-65730476D02*
X81732380Y-66301904D01*
X81732380Y-66016190D02*
X80732380Y-66016190D01*
X80875238Y-66111428D01*
X80970476Y-66206666D01*
X81018095Y-66301904D01*
X80732380Y-65397142D02*
X80732380Y-64730476D01*
X81732380Y-65159047D01*
G04 #@! TO.C,R18*
X81732380Y-71762857D02*
X81256190Y-72096190D01*
X81732380Y-72334285D02*
X80732380Y-72334285D01*
X80732380Y-71953333D01*
X80780000Y-71858095D01*
X80827619Y-71810476D01*
X80922857Y-71762857D01*
X81065714Y-71762857D01*
X81160952Y-71810476D01*
X81208571Y-71858095D01*
X81256190Y-71953333D01*
X81256190Y-72334285D01*
X81732380Y-70810476D02*
X81732380Y-71381904D01*
X81732380Y-71096190D02*
X80732380Y-71096190D01*
X80875238Y-71191428D01*
X80970476Y-71286666D01*
X81018095Y-71381904D01*
X81160952Y-70239047D02*
X81113333Y-70334285D01*
X81065714Y-70381904D01*
X80970476Y-70429523D01*
X80922857Y-70429523D01*
X80827619Y-70381904D01*
X80780000Y-70334285D01*
X80732380Y-70239047D01*
X80732380Y-70048571D01*
X80780000Y-69953333D01*
X80827619Y-69905714D01*
X80922857Y-69858095D01*
X80970476Y-69858095D01*
X81065714Y-69905714D01*
X81113333Y-69953333D01*
X81160952Y-70048571D01*
X81160952Y-70239047D01*
X81208571Y-70334285D01*
X81256190Y-70381904D01*
X81351428Y-70429523D01*
X81541904Y-70429523D01*
X81637142Y-70381904D01*
X81684761Y-70334285D01*
X81732380Y-70239047D01*
X81732380Y-70048571D01*
X81684761Y-69953333D01*
X81637142Y-69905714D01*
X81541904Y-69858095D01*
X81351428Y-69858095D01*
X81256190Y-69905714D01*
X81208571Y-69953333D01*
X81160952Y-70048571D01*
G04 #@! TO.C,R19*
X86050380Y-49664857D02*
X85574190Y-49998190D01*
X86050380Y-50236285D02*
X85050380Y-50236285D01*
X85050380Y-49855333D01*
X85098000Y-49760095D01*
X85145619Y-49712476D01*
X85240857Y-49664857D01*
X85383714Y-49664857D01*
X85478952Y-49712476D01*
X85526571Y-49760095D01*
X85574190Y-49855333D01*
X85574190Y-50236285D01*
X86050380Y-48712476D02*
X86050380Y-49283904D01*
X86050380Y-48998190D02*
X85050380Y-48998190D01*
X85193238Y-49093428D01*
X85288476Y-49188666D01*
X85336095Y-49283904D01*
X86050380Y-48236285D02*
X86050380Y-48045809D01*
X86002761Y-47950571D01*
X85955142Y-47902952D01*
X85812285Y-47807714D01*
X85621809Y-47760095D01*
X85240857Y-47760095D01*
X85145619Y-47807714D01*
X85098000Y-47855333D01*
X85050380Y-47950571D01*
X85050380Y-48141047D01*
X85098000Y-48236285D01*
X85145619Y-48283904D01*
X85240857Y-48331523D01*
X85478952Y-48331523D01*
X85574190Y-48283904D01*
X85621809Y-48236285D01*
X85669428Y-48141047D01*
X85669428Y-47950571D01*
X85621809Y-47855333D01*
X85574190Y-47807714D01*
X85478952Y-47760095D01*
G04 #@! TO.C,R20*
X83256380Y-66682857D02*
X82780190Y-67016190D01*
X83256380Y-67254285D02*
X82256380Y-67254285D01*
X82256380Y-66873333D01*
X82304000Y-66778095D01*
X82351619Y-66730476D01*
X82446857Y-66682857D01*
X82589714Y-66682857D01*
X82684952Y-66730476D01*
X82732571Y-66778095D01*
X82780190Y-66873333D01*
X82780190Y-67254285D01*
X82351619Y-66301904D02*
X82304000Y-66254285D01*
X82256380Y-66159047D01*
X82256380Y-65920952D01*
X82304000Y-65825714D01*
X82351619Y-65778095D01*
X82446857Y-65730476D01*
X82542095Y-65730476D01*
X82684952Y-65778095D01*
X83256380Y-66349523D01*
X83256380Y-65730476D01*
X82256380Y-65111428D02*
X82256380Y-65016190D01*
X82304000Y-64920952D01*
X82351619Y-64873333D01*
X82446857Y-64825714D01*
X82637333Y-64778095D01*
X82875428Y-64778095D01*
X83065904Y-64825714D01*
X83161142Y-64873333D01*
X83208761Y-64920952D01*
X83256380Y-65016190D01*
X83256380Y-65111428D01*
X83208761Y-65206666D01*
X83161142Y-65254285D01*
X83065904Y-65301904D01*
X82875428Y-65349523D01*
X82637333Y-65349523D01*
X82446857Y-65301904D01*
X82351619Y-65254285D01*
X82304000Y-65206666D01*
X82256380Y-65111428D01*
G04 #@! TO.C,R21*
X83256380Y-71762857D02*
X82780190Y-72096190D01*
X83256380Y-72334285D02*
X82256380Y-72334285D01*
X82256380Y-71953333D01*
X82304000Y-71858095D01*
X82351619Y-71810476D01*
X82446857Y-71762857D01*
X82589714Y-71762857D01*
X82684952Y-71810476D01*
X82732571Y-71858095D01*
X82780190Y-71953333D01*
X82780190Y-72334285D01*
X82351619Y-71381904D02*
X82304000Y-71334285D01*
X82256380Y-71239047D01*
X82256380Y-71000952D01*
X82304000Y-70905714D01*
X82351619Y-70858095D01*
X82446857Y-70810476D01*
X82542095Y-70810476D01*
X82684952Y-70858095D01*
X83256380Y-71429523D01*
X83256380Y-70810476D01*
X83256380Y-69858095D02*
X83256380Y-70429523D01*
X83256380Y-70143809D02*
X82256380Y-70143809D01*
X82399238Y-70239047D01*
X82494476Y-70334285D01*
X82542095Y-70429523D01*
G04 #@! TO.C,R22*
X87574380Y-49664857D02*
X87098190Y-49998190D01*
X87574380Y-50236285D02*
X86574380Y-50236285D01*
X86574380Y-49855333D01*
X86622000Y-49760095D01*
X86669619Y-49712476D01*
X86764857Y-49664857D01*
X86907714Y-49664857D01*
X87002952Y-49712476D01*
X87050571Y-49760095D01*
X87098190Y-49855333D01*
X87098190Y-50236285D01*
X86669619Y-49283904D02*
X86622000Y-49236285D01*
X86574380Y-49141047D01*
X86574380Y-48902952D01*
X86622000Y-48807714D01*
X86669619Y-48760095D01*
X86764857Y-48712476D01*
X86860095Y-48712476D01*
X87002952Y-48760095D01*
X87574380Y-49331523D01*
X87574380Y-48712476D01*
X86669619Y-48331523D02*
X86622000Y-48283904D01*
X86574380Y-48188666D01*
X86574380Y-47950571D01*
X86622000Y-47855333D01*
X86669619Y-47807714D01*
X86764857Y-47760095D01*
X86860095Y-47760095D01*
X87002952Y-47807714D01*
X87574380Y-48379142D01*
X87574380Y-47760095D01*
G04 #@! TO.C,R23*
X90622380Y-66682857D02*
X90146190Y-67016190D01*
X90622380Y-67254285D02*
X89622380Y-67254285D01*
X89622380Y-66873333D01*
X89670000Y-66778095D01*
X89717619Y-66730476D01*
X89812857Y-66682857D01*
X89955714Y-66682857D01*
X90050952Y-66730476D01*
X90098571Y-66778095D01*
X90146190Y-66873333D01*
X90146190Y-67254285D01*
X89717619Y-66301904D02*
X89670000Y-66254285D01*
X89622380Y-66159047D01*
X89622380Y-65920952D01*
X89670000Y-65825714D01*
X89717619Y-65778095D01*
X89812857Y-65730476D01*
X89908095Y-65730476D01*
X90050952Y-65778095D01*
X90622380Y-66349523D01*
X90622380Y-65730476D01*
X89622380Y-65397142D02*
X89622380Y-64778095D01*
X90003333Y-65111428D01*
X90003333Y-64968571D01*
X90050952Y-64873333D01*
X90098571Y-64825714D01*
X90193809Y-64778095D01*
X90431904Y-64778095D01*
X90527142Y-64825714D01*
X90574761Y-64873333D01*
X90622380Y-64968571D01*
X90622380Y-65254285D01*
X90574761Y-65349523D01*
X90527142Y-65397142D01*
G04 #@! TO.C,R24*
X90622380Y-71762857D02*
X90146190Y-72096190D01*
X90622380Y-72334285D02*
X89622380Y-72334285D01*
X89622380Y-71953333D01*
X89670000Y-71858095D01*
X89717619Y-71810476D01*
X89812857Y-71762857D01*
X89955714Y-71762857D01*
X90050952Y-71810476D01*
X90098571Y-71858095D01*
X90146190Y-71953333D01*
X90146190Y-72334285D01*
X89717619Y-71381904D02*
X89670000Y-71334285D01*
X89622380Y-71239047D01*
X89622380Y-71000952D01*
X89670000Y-70905714D01*
X89717619Y-70858095D01*
X89812857Y-70810476D01*
X89908095Y-70810476D01*
X90050952Y-70858095D01*
X90622380Y-71429523D01*
X90622380Y-70810476D01*
X89955714Y-69953333D02*
X90622380Y-69953333D01*
X89574761Y-70191428D02*
X90289047Y-70429523D01*
X90289047Y-69810476D01*
G04 #@! TO.C,R25*
X100020380Y-49664857D02*
X99544190Y-49998190D01*
X100020380Y-50236285D02*
X99020380Y-50236285D01*
X99020380Y-49855333D01*
X99068000Y-49760095D01*
X99115619Y-49712476D01*
X99210857Y-49664857D01*
X99353714Y-49664857D01*
X99448952Y-49712476D01*
X99496571Y-49760095D01*
X99544190Y-49855333D01*
X99544190Y-50236285D01*
X99115619Y-49283904D02*
X99068000Y-49236285D01*
X99020380Y-49141047D01*
X99020380Y-48902952D01*
X99068000Y-48807714D01*
X99115619Y-48760095D01*
X99210857Y-48712476D01*
X99306095Y-48712476D01*
X99448952Y-48760095D01*
X100020380Y-49331523D01*
X100020380Y-48712476D01*
X99020380Y-47807714D02*
X99020380Y-48283904D01*
X99496571Y-48331523D01*
X99448952Y-48283904D01*
X99401333Y-48188666D01*
X99401333Y-47950571D01*
X99448952Y-47855333D01*
X99496571Y-47807714D01*
X99591809Y-47760095D01*
X99829904Y-47760095D01*
X99925142Y-47807714D01*
X99972761Y-47855333D01*
X100020380Y-47950571D01*
X100020380Y-48188666D01*
X99972761Y-48283904D01*
X99925142Y-48331523D01*
G04 #@! TO.C,R26*
X97226380Y-66682857D02*
X96750190Y-67016190D01*
X97226380Y-67254285D02*
X96226380Y-67254285D01*
X96226380Y-66873333D01*
X96274000Y-66778095D01*
X96321619Y-66730476D01*
X96416857Y-66682857D01*
X96559714Y-66682857D01*
X96654952Y-66730476D01*
X96702571Y-66778095D01*
X96750190Y-66873333D01*
X96750190Y-67254285D01*
X96321619Y-66301904D02*
X96274000Y-66254285D01*
X96226380Y-66159047D01*
X96226380Y-65920952D01*
X96274000Y-65825714D01*
X96321619Y-65778095D01*
X96416857Y-65730476D01*
X96512095Y-65730476D01*
X96654952Y-65778095D01*
X97226380Y-66349523D01*
X97226380Y-65730476D01*
X96226380Y-64873333D02*
X96226380Y-65063809D01*
X96274000Y-65159047D01*
X96321619Y-65206666D01*
X96464476Y-65301904D01*
X96654952Y-65349523D01*
X97035904Y-65349523D01*
X97131142Y-65301904D01*
X97178761Y-65254285D01*
X97226380Y-65159047D01*
X97226380Y-64968571D01*
X97178761Y-64873333D01*
X97131142Y-64825714D01*
X97035904Y-64778095D01*
X96797809Y-64778095D01*
X96702571Y-64825714D01*
X96654952Y-64873333D01*
X96607333Y-64968571D01*
X96607333Y-65159047D01*
X96654952Y-65254285D01*
X96702571Y-65301904D01*
X96797809Y-65349523D01*
G04 #@! TO.C,R27*
X97226380Y-71762857D02*
X96750190Y-72096190D01*
X97226380Y-72334285D02*
X96226380Y-72334285D01*
X96226380Y-71953333D01*
X96274000Y-71858095D01*
X96321619Y-71810476D01*
X96416857Y-71762857D01*
X96559714Y-71762857D01*
X96654952Y-71810476D01*
X96702571Y-71858095D01*
X96750190Y-71953333D01*
X96750190Y-72334285D01*
X96321619Y-71381904D02*
X96274000Y-71334285D01*
X96226380Y-71239047D01*
X96226380Y-71000952D01*
X96274000Y-70905714D01*
X96321619Y-70858095D01*
X96416857Y-70810476D01*
X96512095Y-70810476D01*
X96654952Y-70858095D01*
X97226380Y-71429523D01*
X97226380Y-70810476D01*
X96226380Y-70477142D02*
X96226380Y-69810476D01*
X97226380Y-70239047D01*
G04 #@! TO.C,R28*
X101544380Y-49664857D02*
X101068190Y-49998190D01*
X101544380Y-50236285D02*
X100544380Y-50236285D01*
X100544380Y-49855333D01*
X100592000Y-49760095D01*
X100639619Y-49712476D01*
X100734857Y-49664857D01*
X100877714Y-49664857D01*
X100972952Y-49712476D01*
X101020571Y-49760095D01*
X101068190Y-49855333D01*
X101068190Y-50236285D01*
X100639619Y-49283904D02*
X100592000Y-49236285D01*
X100544380Y-49141047D01*
X100544380Y-48902952D01*
X100592000Y-48807714D01*
X100639619Y-48760095D01*
X100734857Y-48712476D01*
X100830095Y-48712476D01*
X100972952Y-48760095D01*
X101544380Y-49331523D01*
X101544380Y-48712476D01*
X100972952Y-48141047D02*
X100925333Y-48236285D01*
X100877714Y-48283904D01*
X100782476Y-48331523D01*
X100734857Y-48331523D01*
X100639619Y-48283904D01*
X100592000Y-48236285D01*
X100544380Y-48141047D01*
X100544380Y-47950571D01*
X100592000Y-47855333D01*
X100639619Y-47807714D01*
X100734857Y-47760095D01*
X100782476Y-47760095D01*
X100877714Y-47807714D01*
X100925333Y-47855333D01*
X100972952Y-47950571D01*
X100972952Y-48141047D01*
X101020571Y-48236285D01*
X101068190Y-48283904D01*
X101163428Y-48331523D01*
X101353904Y-48331523D01*
X101449142Y-48283904D01*
X101496761Y-48236285D01*
X101544380Y-48141047D01*
X101544380Y-47950571D01*
X101496761Y-47855333D01*
X101449142Y-47807714D01*
X101353904Y-47760095D01*
X101163428Y-47760095D01*
X101068190Y-47807714D01*
X101020571Y-47855333D01*
X100972952Y-47950571D01*
G04 #@! TO.C,R29*
X104592380Y-66682857D02*
X104116190Y-67016190D01*
X104592380Y-67254285D02*
X103592380Y-67254285D01*
X103592380Y-66873333D01*
X103640000Y-66778095D01*
X103687619Y-66730476D01*
X103782857Y-66682857D01*
X103925714Y-66682857D01*
X104020952Y-66730476D01*
X104068571Y-66778095D01*
X104116190Y-66873333D01*
X104116190Y-67254285D01*
X103687619Y-66301904D02*
X103640000Y-66254285D01*
X103592380Y-66159047D01*
X103592380Y-65920952D01*
X103640000Y-65825714D01*
X103687619Y-65778095D01*
X103782857Y-65730476D01*
X103878095Y-65730476D01*
X104020952Y-65778095D01*
X104592380Y-66349523D01*
X104592380Y-65730476D01*
X104592380Y-65254285D02*
X104592380Y-65063809D01*
X104544761Y-64968571D01*
X104497142Y-64920952D01*
X104354285Y-64825714D01*
X104163809Y-64778095D01*
X103782857Y-64778095D01*
X103687619Y-64825714D01*
X103640000Y-64873333D01*
X103592380Y-64968571D01*
X103592380Y-65159047D01*
X103640000Y-65254285D01*
X103687619Y-65301904D01*
X103782857Y-65349523D01*
X104020952Y-65349523D01*
X104116190Y-65301904D01*
X104163809Y-65254285D01*
X104211428Y-65159047D01*
X104211428Y-64968571D01*
X104163809Y-64873333D01*
X104116190Y-64825714D01*
X104020952Y-64778095D01*
G04 #@! TO.C,R30*
X104592380Y-71762857D02*
X104116190Y-72096190D01*
X104592380Y-72334285D02*
X103592380Y-72334285D01*
X103592380Y-71953333D01*
X103640000Y-71858095D01*
X103687619Y-71810476D01*
X103782857Y-71762857D01*
X103925714Y-71762857D01*
X104020952Y-71810476D01*
X104068571Y-71858095D01*
X104116190Y-71953333D01*
X104116190Y-72334285D01*
X103592380Y-71429523D02*
X103592380Y-70810476D01*
X103973333Y-71143809D01*
X103973333Y-71000952D01*
X104020952Y-70905714D01*
X104068571Y-70858095D01*
X104163809Y-70810476D01*
X104401904Y-70810476D01*
X104497142Y-70858095D01*
X104544761Y-70905714D01*
X104592380Y-71000952D01*
X104592380Y-71286666D01*
X104544761Y-71381904D01*
X104497142Y-71429523D01*
X103592380Y-70191428D02*
X103592380Y-70096190D01*
X103640000Y-70000952D01*
X103687619Y-69953333D01*
X103782857Y-69905714D01*
X103973333Y-69858095D01*
X104211428Y-69858095D01*
X104401904Y-69905714D01*
X104497142Y-69953333D01*
X104544761Y-70000952D01*
X104592380Y-70096190D01*
X104592380Y-70191428D01*
X104544761Y-70286666D01*
X104497142Y-70334285D01*
X104401904Y-70381904D01*
X104211428Y-70429523D01*
X103973333Y-70429523D01*
X103782857Y-70381904D01*
X103687619Y-70334285D01*
X103640000Y-70286666D01*
X103592380Y-70191428D01*
G04 #@! TO.C,R31*
X108910380Y-49664857D02*
X108434190Y-49998190D01*
X108910380Y-50236285D02*
X107910380Y-50236285D01*
X107910380Y-49855333D01*
X107958000Y-49760095D01*
X108005619Y-49712476D01*
X108100857Y-49664857D01*
X108243714Y-49664857D01*
X108338952Y-49712476D01*
X108386571Y-49760095D01*
X108434190Y-49855333D01*
X108434190Y-50236285D01*
X107910380Y-49331523D02*
X107910380Y-48712476D01*
X108291333Y-49045809D01*
X108291333Y-48902952D01*
X108338952Y-48807714D01*
X108386571Y-48760095D01*
X108481809Y-48712476D01*
X108719904Y-48712476D01*
X108815142Y-48760095D01*
X108862761Y-48807714D01*
X108910380Y-48902952D01*
X108910380Y-49188666D01*
X108862761Y-49283904D01*
X108815142Y-49331523D01*
X108910380Y-47760095D02*
X108910380Y-48331523D01*
X108910380Y-48045809D02*
X107910380Y-48045809D01*
X108053238Y-48141047D01*
X108148476Y-48236285D01*
X108196095Y-48331523D01*
G04 #@! TO.C,R32*
X106116380Y-66682857D02*
X105640190Y-67016190D01*
X106116380Y-67254285D02*
X105116380Y-67254285D01*
X105116380Y-66873333D01*
X105164000Y-66778095D01*
X105211619Y-66730476D01*
X105306857Y-66682857D01*
X105449714Y-66682857D01*
X105544952Y-66730476D01*
X105592571Y-66778095D01*
X105640190Y-66873333D01*
X105640190Y-67254285D01*
X105116380Y-66349523D02*
X105116380Y-65730476D01*
X105497333Y-66063809D01*
X105497333Y-65920952D01*
X105544952Y-65825714D01*
X105592571Y-65778095D01*
X105687809Y-65730476D01*
X105925904Y-65730476D01*
X106021142Y-65778095D01*
X106068761Y-65825714D01*
X106116380Y-65920952D01*
X106116380Y-66206666D01*
X106068761Y-66301904D01*
X106021142Y-66349523D01*
X105211619Y-65349523D02*
X105164000Y-65301904D01*
X105116380Y-65206666D01*
X105116380Y-64968571D01*
X105164000Y-64873333D01*
X105211619Y-64825714D01*
X105306857Y-64778095D01*
X105402095Y-64778095D01*
X105544952Y-64825714D01*
X106116380Y-65397142D01*
X106116380Y-64778095D01*
G04 #@! TO.C,R33*
X106116380Y-71762857D02*
X105640190Y-72096190D01*
X106116380Y-72334285D02*
X105116380Y-72334285D01*
X105116380Y-71953333D01*
X105164000Y-71858095D01*
X105211619Y-71810476D01*
X105306857Y-71762857D01*
X105449714Y-71762857D01*
X105544952Y-71810476D01*
X105592571Y-71858095D01*
X105640190Y-71953333D01*
X105640190Y-72334285D01*
X105116380Y-71429523D02*
X105116380Y-70810476D01*
X105497333Y-71143809D01*
X105497333Y-71000952D01*
X105544952Y-70905714D01*
X105592571Y-70858095D01*
X105687809Y-70810476D01*
X105925904Y-70810476D01*
X106021142Y-70858095D01*
X106068761Y-70905714D01*
X106116380Y-71000952D01*
X106116380Y-71286666D01*
X106068761Y-71381904D01*
X106021142Y-71429523D01*
X105116380Y-70477142D02*
X105116380Y-69858095D01*
X105497333Y-70191428D01*
X105497333Y-70048571D01*
X105544952Y-69953333D01*
X105592571Y-69905714D01*
X105687809Y-69858095D01*
X105925904Y-69858095D01*
X106021142Y-69905714D01*
X106068761Y-69953333D01*
X106116380Y-70048571D01*
X106116380Y-70334285D01*
X106068761Y-70429523D01*
X106021142Y-70477142D01*
G04 #@! TO.C,R34*
X110434380Y-49664857D02*
X109958190Y-49998190D01*
X110434380Y-50236285D02*
X109434380Y-50236285D01*
X109434380Y-49855333D01*
X109482000Y-49760095D01*
X109529619Y-49712476D01*
X109624857Y-49664857D01*
X109767714Y-49664857D01*
X109862952Y-49712476D01*
X109910571Y-49760095D01*
X109958190Y-49855333D01*
X109958190Y-50236285D01*
X109434380Y-49331523D02*
X109434380Y-48712476D01*
X109815333Y-49045809D01*
X109815333Y-48902952D01*
X109862952Y-48807714D01*
X109910571Y-48760095D01*
X110005809Y-48712476D01*
X110243904Y-48712476D01*
X110339142Y-48760095D01*
X110386761Y-48807714D01*
X110434380Y-48902952D01*
X110434380Y-49188666D01*
X110386761Y-49283904D01*
X110339142Y-49331523D01*
X109767714Y-47855333D02*
X110434380Y-47855333D01*
X109386761Y-48093428D02*
X110101047Y-48331523D01*
X110101047Y-47712476D01*
G04 #@! TO.C,R35*
X113482380Y-66682857D02*
X113006190Y-67016190D01*
X113482380Y-67254285D02*
X112482380Y-67254285D01*
X112482380Y-66873333D01*
X112530000Y-66778095D01*
X112577619Y-66730476D01*
X112672857Y-66682857D01*
X112815714Y-66682857D01*
X112910952Y-66730476D01*
X112958571Y-66778095D01*
X113006190Y-66873333D01*
X113006190Y-67254285D01*
X112482380Y-66349523D02*
X112482380Y-65730476D01*
X112863333Y-66063809D01*
X112863333Y-65920952D01*
X112910952Y-65825714D01*
X112958571Y-65778095D01*
X113053809Y-65730476D01*
X113291904Y-65730476D01*
X113387142Y-65778095D01*
X113434761Y-65825714D01*
X113482380Y-65920952D01*
X113482380Y-66206666D01*
X113434761Y-66301904D01*
X113387142Y-66349523D01*
X112482380Y-64825714D02*
X112482380Y-65301904D01*
X112958571Y-65349523D01*
X112910952Y-65301904D01*
X112863333Y-65206666D01*
X112863333Y-64968571D01*
X112910952Y-64873333D01*
X112958571Y-64825714D01*
X113053809Y-64778095D01*
X113291904Y-64778095D01*
X113387142Y-64825714D01*
X113434761Y-64873333D01*
X113482380Y-64968571D01*
X113482380Y-65206666D01*
X113434761Y-65301904D01*
X113387142Y-65349523D01*
G04 #@! TO.C,R36*
X113482380Y-71762857D02*
X113006190Y-72096190D01*
X113482380Y-72334285D02*
X112482380Y-72334285D01*
X112482380Y-71953333D01*
X112530000Y-71858095D01*
X112577619Y-71810476D01*
X112672857Y-71762857D01*
X112815714Y-71762857D01*
X112910952Y-71810476D01*
X112958571Y-71858095D01*
X113006190Y-71953333D01*
X113006190Y-72334285D01*
X112482380Y-71429523D02*
X112482380Y-70810476D01*
X112863333Y-71143809D01*
X112863333Y-71000952D01*
X112910952Y-70905714D01*
X112958571Y-70858095D01*
X113053809Y-70810476D01*
X113291904Y-70810476D01*
X113387142Y-70858095D01*
X113434761Y-70905714D01*
X113482380Y-71000952D01*
X113482380Y-71286666D01*
X113434761Y-71381904D01*
X113387142Y-71429523D01*
X112482380Y-69953333D02*
X112482380Y-70143809D01*
X112530000Y-70239047D01*
X112577619Y-70286666D01*
X112720476Y-70381904D01*
X112910952Y-70429523D01*
X113291904Y-70429523D01*
X113387142Y-70381904D01*
X113434761Y-70334285D01*
X113482380Y-70239047D01*
X113482380Y-70048571D01*
X113434761Y-69953333D01*
X113387142Y-69905714D01*
X113291904Y-69858095D01*
X113053809Y-69858095D01*
X112958571Y-69905714D01*
X112910952Y-69953333D01*
X112863333Y-70048571D01*
X112863333Y-70239047D01*
X112910952Y-70334285D01*
X112958571Y-70381904D01*
X113053809Y-70429523D01*
G04 #@! TO.C,SW1*
X70040666Y-48156761D02*
X70183523Y-48204380D01*
X70421619Y-48204380D01*
X70516857Y-48156761D01*
X70564476Y-48109142D01*
X70612095Y-48013904D01*
X70612095Y-47918666D01*
X70564476Y-47823428D01*
X70516857Y-47775809D01*
X70421619Y-47728190D01*
X70231142Y-47680571D01*
X70135904Y-47632952D01*
X70088285Y-47585333D01*
X70040666Y-47490095D01*
X70040666Y-47394857D01*
X70088285Y-47299619D01*
X70135904Y-47252000D01*
X70231142Y-47204380D01*
X70469238Y-47204380D01*
X70612095Y-47252000D01*
X70945428Y-47204380D02*
X71183523Y-48204380D01*
X71374000Y-47490095D01*
X71564476Y-48204380D01*
X71802571Y-47204380D01*
X72707333Y-48204380D02*
X72135904Y-48204380D01*
X72421619Y-48204380D02*
X72421619Y-47204380D01*
X72326380Y-47347238D01*
X72231142Y-47442476D01*
X72135904Y-47490095D01*
G04 #@! TO.C,U1*
X95737896Y-35471379D02*
X95737896Y-36280903D01*
X95785515Y-36376141D01*
X95833134Y-36423760D01*
X95928372Y-36471379D01*
X96118848Y-36471379D01*
X96214086Y-36423760D01*
X96261705Y-36376141D01*
X96309324Y-36280903D01*
X96309324Y-35471379D01*
X97309324Y-36471379D02*
X96737896Y-36471379D01*
X97023610Y-36471379D02*
X97023610Y-35471379D01*
X96928372Y-35614237D01*
X96833134Y-35709475D01*
X96737896Y-35757094D01*
G04 #@! TO.C,U2*
X127254095Y-44918380D02*
X127254095Y-45727904D01*
X127301714Y-45823142D01*
X127349333Y-45870761D01*
X127444571Y-45918380D01*
X127635047Y-45918380D01*
X127730285Y-45870761D01*
X127777904Y-45823142D01*
X127825523Y-45727904D01*
X127825523Y-44918380D01*
X128254095Y-45013619D02*
X128301714Y-44966000D01*
X128396952Y-44918380D01*
X128635047Y-44918380D01*
X128730285Y-44966000D01*
X128777904Y-45013619D01*
X128825523Y-45108857D01*
X128825523Y-45204095D01*
X128777904Y-45346952D01*
X128206476Y-45918380D01*
X128825523Y-45918380D01*
G04 #@! TO.C,U3*
X121626380Y-55625904D02*
X122435904Y-55625904D01*
X122531142Y-55578285D01*
X122578761Y-55530666D01*
X122626380Y-55435428D01*
X122626380Y-55244952D01*
X122578761Y-55149714D01*
X122531142Y-55102095D01*
X122435904Y-55054476D01*
X121626380Y-55054476D01*
X121626380Y-54673523D02*
X121626380Y-54054476D01*
X122007333Y-54387809D01*
X122007333Y-54244952D01*
X122054952Y-54149714D01*
X122102571Y-54102095D01*
X122197809Y-54054476D01*
X122435904Y-54054476D01*
X122531142Y-54102095D01*
X122578761Y-54149714D01*
X122626380Y-54244952D01*
X122626380Y-54530666D01*
X122578761Y-54625904D01*
X122531142Y-54673523D01*
G04 #@! TO.C,U5*
X122896380Y-77977904D02*
X123705904Y-77977904D01*
X123801142Y-77930285D01*
X123848761Y-77882666D01*
X123896380Y-77787428D01*
X123896380Y-77596952D01*
X123848761Y-77501714D01*
X123801142Y-77454095D01*
X123705904Y-77406476D01*
X122896380Y-77406476D01*
X122896380Y-76454095D02*
X122896380Y-76930285D01*
X123372571Y-76977904D01*
X123324952Y-76930285D01*
X123277333Y-76835047D01*
X123277333Y-76596952D01*
X123324952Y-76501714D01*
X123372571Y-76454095D01*
X123467809Y-76406476D01*
X123705904Y-76406476D01*
X123801142Y-76454095D01*
X123848761Y-76501714D01*
X123896380Y-76596952D01*
X123896380Y-76835047D01*
X123848761Y-76930285D01*
X123801142Y-76977904D01*
G04 #@! TO.C,POT2*
X69964943Y-63649379D02*
X69964943Y-62649379D01*
X70345896Y-62649379D01*
X70441134Y-62696999D01*
X70488753Y-62744618D01*
X70536372Y-62839856D01*
X70536372Y-62982713D01*
X70488753Y-63077951D01*
X70441134Y-63125570D01*
X70345896Y-63173189D01*
X69964943Y-63173189D01*
X71155420Y-62649379D02*
X71345896Y-62649379D01*
X71441134Y-62696999D01*
X71536372Y-62792237D01*
X71583991Y-62982713D01*
X71583991Y-63316046D01*
X71536372Y-63506522D01*
X71441134Y-63601760D01*
X71345896Y-63649379D01*
X71155420Y-63649379D01*
X71060181Y-63601760D01*
X70964943Y-63506522D01*
X70917324Y-63316046D01*
X70917324Y-62982713D01*
X70964943Y-62792237D01*
X71060181Y-62696999D01*
X71155420Y-62649379D01*
X71869705Y-62649379D02*
X72441134Y-62649379D01*
X72155420Y-63649379D02*
X72155420Y-62649379D01*
X72726848Y-62744618D02*
X72774467Y-62696999D01*
X72869705Y-62649379D01*
X73107801Y-62649379D01*
X73203039Y-62696999D01*
X73250658Y-62744618D01*
X73298277Y-62839856D01*
X73298277Y-62935094D01*
X73250658Y-63077951D01*
X72679229Y-63649379D01*
X73298277Y-63649379D01*
G04 #@! TD*
M02*
