G04 #@! TF.GenerationSoftware,KiCad,Pcbnew,(5.0.2)-1*
G04 #@! TF.CreationDate,2019-06-05T14:46:48+08:00*
G04 #@! TF.ProjectId,DC Electronic Load Mini,44432045-6c65-4637-9472-6f6e6963204c,rev?*
G04 #@! TF.SameCoordinates,Original*
G04 #@! TF.FileFunction,Legend,Bot*
G04 #@! TF.FilePolarity,Positive*
%FSLAX46Y46*%
G04 Gerber Fmt 4.6, Leading zero omitted, Abs format (unit mm)*
G04 Created by KiCad (PCBNEW (5.0.2)-1) date 06/05/19 14:46:48*
%MOMM*%
%LPD*%
G01*
G04 APERTURE LIST*
%ADD10C,0.150000*%
%ADD11C,0.120000*%
G04 APERTURE END LIST*
D10*
G04 #@! TO.C,R43*
X117327801Y-42241999D02*
X116311801Y-42241999D01*
X115295801Y-48591999D02*
X117327801Y-48591999D01*
X116311801Y-42241999D02*
X115295801Y-42241999D01*
X116311801Y-42241999D02*
X116311801Y-41606999D01*
X116311801Y-48591999D02*
X116311801Y-49226999D01*
X115295801Y-42241999D02*
X115295801Y-48591999D01*
X117327801Y-48591999D02*
X117327801Y-42241999D01*
D11*
G04 #@! TO.C,R37*
X76790000Y-69520000D02*
X76790000Y-70520000D01*
X78150000Y-70520000D02*
X78150000Y-69520000D01*
G04 #@! TO.C,C1*
X102757801Y-38970999D02*
X102757801Y-39670999D01*
X103957801Y-39670999D02*
X103957801Y-38970999D01*
G04 #@! TO.C,C2*
X101233801Y-38970999D02*
X101233801Y-39670999D01*
X102433801Y-39670999D02*
X102433801Y-38970999D01*
G04 #@! TO.C,C3*
X98369801Y-42530999D02*
X98369801Y-41830999D01*
X97169801Y-41830999D02*
X97169801Y-42530999D01*
G04 #@! TO.C,C8*
X63592000Y-70896000D02*
X63592000Y-70196000D01*
X62392000Y-70196000D02*
X62392000Y-70896000D01*
G04 #@! TO.C,C9*
X122016000Y-44485000D02*
X121316000Y-44485000D01*
X121316000Y-45685000D02*
X122016000Y-45685000D01*
G04 #@! TO.C,C10*
X122016000Y-43088000D02*
X121316000Y-43088000D01*
X121316000Y-44288000D02*
X122016000Y-44288000D01*
G04 #@! TO.C,C11*
X123220000Y-48422000D02*
X122520000Y-48422000D01*
X122520000Y-49622000D02*
X123220000Y-49622000D01*
G04 #@! TO.C,C12*
X121066000Y-77124000D02*
X120366000Y-77124000D01*
X120366000Y-78324000D02*
X121066000Y-78324000D01*
G04 #@! TO.C,C13*
X115478000Y-70770000D02*
X115478000Y-71470000D01*
X116678000Y-71470000D02*
X116678000Y-70770000D01*
G04 #@! TO.C,C14*
X126330000Y-68864000D02*
X126330000Y-68164000D01*
X125130000Y-68164000D02*
X125130000Y-68864000D01*
G04 #@! TO.C,C15*
X71658000Y-62138000D02*
X70958000Y-62138000D01*
X70958000Y-63338000D02*
X71658000Y-63338000D01*
G04 #@! TO.C,C17*
X121636000Y-52924000D02*
X122336000Y-52924000D01*
X122336000Y-51724000D02*
X121636000Y-51724000D01*
G04 #@! TO.C,C18*
X121636000Y-51654000D02*
X122336000Y-51654000D01*
X122336000Y-50454000D02*
X121636000Y-50454000D01*
G04 #@! TO.C,C25*
X62392000Y-73630000D02*
X62392000Y-74330000D01*
X63592000Y-74330000D02*
X63592000Y-73630000D01*
G04 #@! TO.C,C26*
X72482000Y-69250000D02*
X72482000Y-68550000D01*
X71282000Y-68550000D02*
X71282000Y-69250000D01*
G04 #@! TO.C,C36*
X65948000Y-75346000D02*
X65248000Y-75346000D01*
X65248000Y-76546000D02*
X65948000Y-76546000D01*
G04 #@! TO.C,R1*
X70874000Y-59100000D02*
X71874000Y-59100000D01*
X71874000Y-57740000D02*
X70874000Y-57740000D01*
G04 #@! TO.C,R4*
X69678000Y-68334000D02*
X69678000Y-69334000D01*
X71038000Y-69334000D02*
X71038000Y-68334000D01*
G04 #@! TO.C,R5*
X66286000Y-66580999D02*
X65286000Y-66580999D01*
X65286000Y-67940999D02*
X66286000Y-67940999D01*
G04 #@! TO.C,R6*
X61730000Y-67736000D02*
X62730000Y-67736000D01*
X62730000Y-66376000D02*
X61730000Y-66376000D01*
G04 #@! TO.C,R7*
X60534000Y-69688000D02*
X60534000Y-70688000D01*
X61894000Y-70688000D02*
X61894000Y-69688000D01*
G04 #@! TO.C,R8*
X124124000Y-74330000D02*
X124124000Y-73330000D01*
X122764000Y-73330000D02*
X122764000Y-74330000D01*
G04 #@! TO.C,R9*
X120404000Y-74340000D02*
X121404000Y-74340000D01*
X121404000Y-72980000D02*
X120404000Y-72980000D01*
G04 #@! TO.C,R10*
X121320000Y-74250000D02*
X120320000Y-74250000D01*
X120320000Y-75610000D02*
X121320000Y-75610000D01*
G04 #@! TO.C,R11*
X125648000Y-74414000D02*
X125648000Y-73414000D01*
X124288000Y-73414000D02*
X124288000Y-74414000D01*
G04 #@! TO.C,R38*
X85680000Y-69520000D02*
X85680000Y-70520000D01*
X87040000Y-70520000D02*
X87040000Y-69520000D01*
G04 #@! TO.C,R39*
X101010000Y-70520000D02*
X101010000Y-69520000D01*
X99650000Y-69520000D02*
X99650000Y-70520000D01*
G04 #@! TO.C,R40*
X109900000Y-70520000D02*
X109900000Y-69520000D01*
X108540000Y-69520000D02*
X108540000Y-70520000D01*
G04 #@! TO.C,R41*
X68910000Y-73234000D02*
X67910000Y-73234000D01*
X67910000Y-74594000D02*
X68910000Y-74594000D01*
G04 #@! TO.C,R42*
X65948000Y-76790000D02*
X64948000Y-76790000D01*
X64948000Y-78150000D02*
X65948000Y-78150000D01*
G04 #@! TO.C,U6*
X66898000Y-71628000D02*
X66898000Y-74628000D01*
X63658000Y-70628000D02*
X63658000Y-72628000D01*
G04 #@! TO.C,U7*
X77470000Y-54325000D02*
X74470000Y-54325000D01*
X78470000Y-51085000D02*
X76470000Y-51085000D01*
G04 #@! TO.C,U8*
X87360000Y-51085000D02*
X85360000Y-51085000D01*
X86360000Y-54325000D02*
X83360000Y-54325000D01*
G04 #@! TO.C,U9*
X101330000Y-51085000D02*
X99330000Y-51085000D01*
X100330000Y-54325000D02*
X97330000Y-54325000D01*
G04 #@! TO.C,U10*
X109220000Y-54325000D02*
X106220000Y-54325000D01*
X110220000Y-51085000D02*
X108220000Y-51085000D01*
G04 #@! TO.C,U11*
X121834000Y-70242000D02*
X121834000Y-67292000D01*
X125054000Y-68442000D02*
X125054000Y-70242000D01*
G04 #@! TO.C,U12*
X120280000Y-72730000D02*
X118480000Y-72730000D01*
X118480000Y-69510000D02*
X121430000Y-69510000D01*
G04 #@! TO.C,R43*
D10*
X116764181Y-44774141D02*
X116287991Y-44440808D01*
X116764181Y-44202713D02*
X115764181Y-44202713D01*
X115764181Y-44583665D01*
X115811801Y-44678903D01*
X115859420Y-44726522D01*
X115954658Y-44774141D01*
X116097515Y-44774141D01*
X116192753Y-44726522D01*
X116240372Y-44678903D01*
X116287991Y-44583665D01*
X116287991Y-44202713D01*
X116097515Y-45631284D02*
X116764181Y-45631284D01*
X115716562Y-45393189D02*
X116430848Y-45155094D01*
X116430848Y-45774141D01*
X115764181Y-46059856D02*
X115764181Y-46678903D01*
X116145134Y-46345570D01*
X116145134Y-46488427D01*
X116192753Y-46583665D01*
X116240372Y-46631284D01*
X116335610Y-46678903D01*
X116573705Y-46678903D01*
X116668943Y-46631284D01*
X116716562Y-46583665D01*
X116764181Y-46488427D01*
X116764181Y-46202713D01*
X116716562Y-46107475D01*
X116668943Y-46059856D01*
G04 #@! TO.C,R37*
X77922380Y-65905142D02*
X77446190Y-65571809D01*
X77922380Y-65333714D02*
X76922380Y-65333714D01*
X76922380Y-65714666D01*
X76970000Y-65809904D01*
X77017619Y-65857523D01*
X77112857Y-65905142D01*
X77255714Y-65905142D01*
X77350952Y-65857523D01*
X77398571Y-65809904D01*
X77446190Y-65714666D01*
X77446190Y-65333714D01*
X76922380Y-66238476D02*
X76922380Y-66857523D01*
X77303333Y-66524190D01*
X77303333Y-66667047D01*
X77350952Y-66762285D01*
X77398571Y-66809904D01*
X77493809Y-66857523D01*
X77731904Y-66857523D01*
X77827142Y-66809904D01*
X77874761Y-66762285D01*
X77922380Y-66667047D01*
X77922380Y-66381333D01*
X77874761Y-66286095D01*
X77827142Y-66238476D01*
X76922380Y-67190857D02*
X76922380Y-67857523D01*
X77922380Y-67428952D01*
G04 #@! TO.C,C1*
X103714943Y-36299332D02*
X103762562Y-36251713D01*
X103810181Y-36108856D01*
X103810181Y-36013618D01*
X103762562Y-35870760D01*
X103667324Y-35775522D01*
X103572086Y-35727903D01*
X103381610Y-35680284D01*
X103238753Y-35680284D01*
X103048277Y-35727903D01*
X102953039Y-35775522D01*
X102857801Y-35870760D01*
X102810181Y-36013618D01*
X102810181Y-36108856D01*
X102857801Y-36251713D01*
X102905420Y-36299332D01*
X103810181Y-37251713D02*
X103810181Y-36680284D01*
X103810181Y-36965999D02*
X102810181Y-36965999D01*
X102953039Y-36870760D01*
X103048277Y-36775522D01*
X103095896Y-36680284D01*
G04 #@! TO.C,C2*
X102190943Y-36299332D02*
X102238562Y-36251713D01*
X102286181Y-36108856D01*
X102286181Y-36013618D01*
X102238562Y-35870760D01*
X102143324Y-35775522D01*
X102048086Y-35727903D01*
X101857610Y-35680284D01*
X101714753Y-35680284D01*
X101524277Y-35727903D01*
X101429039Y-35775522D01*
X101333801Y-35870760D01*
X101286181Y-36013618D01*
X101286181Y-36108856D01*
X101333801Y-36251713D01*
X101381420Y-36299332D01*
X101381420Y-36680284D02*
X101333801Y-36727903D01*
X101286181Y-36823141D01*
X101286181Y-37061237D01*
X101333801Y-37156475D01*
X101381420Y-37204094D01*
X101476658Y-37251713D01*
X101571896Y-37251713D01*
X101714753Y-37204094D01*
X102286181Y-36632665D01*
X102286181Y-37251713D01*
G04 #@! TO.C,C3*
X98126943Y-39154332D02*
X98174562Y-39106713D01*
X98222181Y-38963856D01*
X98222181Y-38868618D01*
X98174562Y-38725760D01*
X98079324Y-38630522D01*
X97984086Y-38582903D01*
X97793610Y-38535284D01*
X97650753Y-38535284D01*
X97460277Y-38582903D01*
X97365039Y-38630522D01*
X97269801Y-38725760D01*
X97222181Y-38868618D01*
X97222181Y-38963856D01*
X97269801Y-39106713D01*
X97317420Y-39154332D01*
X97222181Y-39487665D02*
X97222181Y-40106713D01*
X97603134Y-39773379D01*
X97603134Y-39916237D01*
X97650753Y-40011475D01*
X97698372Y-40059094D01*
X97793610Y-40106713D01*
X98031705Y-40106713D01*
X98126943Y-40059094D01*
X98174562Y-40011475D01*
X98222181Y-39916237D01*
X98222181Y-39630522D01*
X98174562Y-39535284D01*
X98126943Y-39487665D01*
G04 #@! TO.C,C8*
X63158666Y-68683142D02*
X63206285Y-68730761D01*
X63349142Y-68778380D01*
X63444380Y-68778380D01*
X63587238Y-68730761D01*
X63682476Y-68635523D01*
X63730095Y-68540285D01*
X63777714Y-68349809D01*
X63777714Y-68206952D01*
X63730095Y-68016476D01*
X63682476Y-67921238D01*
X63587238Y-67826000D01*
X63444380Y-67778380D01*
X63349142Y-67778380D01*
X63206285Y-67826000D01*
X63158666Y-67873619D01*
X62587238Y-68206952D02*
X62682476Y-68159333D01*
X62730095Y-68111714D01*
X62777714Y-68016476D01*
X62777714Y-67968857D01*
X62730095Y-67873619D01*
X62682476Y-67826000D01*
X62587238Y-67778380D01*
X62396761Y-67778380D01*
X62301523Y-67826000D01*
X62253904Y-67873619D01*
X62206285Y-67968857D01*
X62206285Y-68016476D01*
X62253904Y-68111714D01*
X62301523Y-68159333D01*
X62396761Y-68206952D01*
X62587238Y-68206952D01*
X62682476Y-68254571D01*
X62730095Y-68302190D01*
X62777714Y-68397428D01*
X62777714Y-68587904D01*
X62730095Y-68683142D01*
X62682476Y-68730761D01*
X62587238Y-68778380D01*
X62396761Y-68778380D01*
X62301523Y-68730761D01*
X62253904Y-68683142D01*
X62206285Y-68587904D01*
X62206285Y-68397428D01*
X62253904Y-68302190D01*
X62301523Y-68254571D01*
X62396761Y-68206952D01*
G04 #@! TO.C,C9*
X124626666Y-45569142D02*
X124674285Y-45616761D01*
X124817142Y-45664380D01*
X124912380Y-45664380D01*
X125055238Y-45616761D01*
X125150476Y-45521523D01*
X125198095Y-45426285D01*
X125245714Y-45235809D01*
X125245714Y-45092952D01*
X125198095Y-44902476D01*
X125150476Y-44807238D01*
X125055238Y-44712000D01*
X124912380Y-44664380D01*
X124817142Y-44664380D01*
X124674285Y-44712000D01*
X124626666Y-44759619D01*
X124150476Y-45664380D02*
X123960000Y-45664380D01*
X123864761Y-45616761D01*
X123817142Y-45569142D01*
X123721904Y-45426285D01*
X123674285Y-45235809D01*
X123674285Y-44854857D01*
X123721904Y-44759619D01*
X123769523Y-44712000D01*
X123864761Y-44664380D01*
X124055238Y-44664380D01*
X124150476Y-44712000D01*
X124198095Y-44759619D01*
X124245714Y-44854857D01*
X124245714Y-45092952D01*
X124198095Y-45188190D01*
X124150476Y-45235809D01*
X124055238Y-45283428D01*
X123864761Y-45283428D01*
X123769523Y-45235809D01*
X123721904Y-45188190D01*
X123674285Y-45092952D01*
G04 #@! TO.C,C10*
X125610857Y-44045142D02*
X125658476Y-44092761D01*
X125801333Y-44140380D01*
X125896571Y-44140380D01*
X126039428Y-44092761D01*
X126134666Y-43997523D01*
X126182285Y-43902285D01*
X126229904Y-43711809D01*
X126229904Y-43568952D01*
X126182285Y-43378476D01*
X126134666Y-43283238D01*
X126039428Y-43188000D01*
X125896571Y-43140380D01*
X125801333Y-43140380D01*
X125658476Y-43188000D01*
X125610857Y-43235619D01*
X124658476Y-44140380D02*
X125229904Y-44140380D01*
X124944190Y-44140380D02*
X124944190Y-43140380D01*
X125039428Y-43283238D01*
X125134666Y-43378476D01*
X125229904Y-43426095D01*
X124039428Y-43140380D02*
X123944190Y-43140380D01*
X123848952Y-43188000D01*
X123801333Y-43235619D01*
X123753714Y-43330857D01*
X123706095Y-43521333D01*
X123706095Y-43759428D01*
X123753714Y-43949904D01*
X123801333Y-44045142D01*
X123848952Y-44092761D01*
X123944190Y-44140380D01*
X124039428Y-44140380D01*
X124134666Y-44092761D01*
X124182285Y-44045142D01*
X124229904Y-43949904D01*
X124277523Y-43759428D01*
X124277523Y-43521333D01*
X124229904Y-43330857D01*
X124182285Y-43235619D01*
X124134666Y-43188000D01*
X124039428Y-43140380D01*
G04 #@! TO.C,C11*
X126626857Y-49379142D02*
X126674476Y-49426761D01*
X126817333Y-49474380D01*
X126912571Y-49474380D01*
X127055428Y-49426761D01*
X127150666Y-49331523D01*
X127198285Y-49236285D01*
X127245904Y-49045809D01*
X127245904Y-48902952D01*
X127198285Y-48712476D01*
X127150666Y-48617238D01*
X127055428Y-48522000D01*
X126912571Y-48474380D01*
X126817333Y-48474380D01*
X126674476Y-48522000D01*
X126626857Y-48569619D01*
X125674476Y-49474380D02*
X126245904Y-49474380D01*
X125960190Y-49474380D02*
X125960190Y-48474380D01*
X126055428Y-48617238D01*
X126150666Y-48712476D01*
X126245904Y-48760095D01*
X124722095Y-49474380D02*
X125293523Y-49474380D01*
X125007809Y-49474380D02*
X125007809Y-48474380D01*
X125103047Y-48617238D01*
X125198285Y-48712476D01*
X125293523Y-48760095D01*
G04 #@! TO.C,C12*
X118244857Y-78081142D02*
X118292476Y-78128761D01*
X118435333Y-78176380D01*
X118530571Y-78176380D01*
X118673428Y-78128761D01*
X118768666Y-78033523D01*
X118816285Y-77938285D01*
X118863904Y-77747809D01*
X118863904Y-77604952D01*
X118816285Y-77414476D01*
X118768666Y-77319238D01*
X118673428Y-77224000D01*
X118530571Y-77176380D01*
X118435333Y-77176380D01*
X118292476Y-77224000D01*
X118244857Y-77271619D01*
X117292476Y-78176380D02*
X117863904Y-78176380D01*
X117578190Y-78176380D02*
X117578190Y-77176380D01*
X117673428Y-77319238D01*
X117768666Y-77414476D01*
X117863904Y-77462095D01*
X116911523Y-77271619D02*
X116863904Y-77224000D01*
X116768666Y-77176380D01*
X116530571Y-77176380D01*
X116435333Y-77224000D01*
X116387714Y-77271619D01*
X116340095Y-77366857D01*
X116340095Y-77462095D01*
X116387714Y-77604952D01*
X116959142Y-78176380D01*
X116340095Y-78176380D01*
G04 #@! TO.C,C13*
X115165142Y-70477142D02*
X115212761Y-70429523D01*
X115260380Y-70286666D01*
X115260380Y-70191428D01*
X115212761Y-70048571D01*
X115117523Y-69953333D01*
X115022285Y-69905714D01*
X114831809Y-69858095D01*
X114688952Y-69858095D01*
X114498476Y-69905714D01*
X114403238Y-69953333D01*
X114308000Y-70048571D01*
X114260380Y-70191428D01*
X114260380Y-70286666D01*
X114308000Y-70429523D01*
X114355619Y-70477142D01*
X115260380Y-71429523D02*
X115260380Y-70858095D01*
X115260380Y-71143809D02*
X114260380Y-71143809D01*
X114403238Y-71048571D01*
X114498476Y-70953333D01*
X114546095Y-70858095D01*
X114260380Y-71762857D02*
X114260380Y-72381904D01*
X114641333Y-72048571D01*
X114641333Y-72191428D01*
X114688952Y-72286666D01*
X114736571Y-72334285D01*
X114831809Y-72381904D01*
X115069904Y-72381904D01*
X115165142Y-72334285D01*
X115212761Y-72286666D01*
X115260380Y-72191428D01*
X115260380Y-71905714D01*
X115212761Y-71810476D01*
X115165142Y-71762857D01*
G04 #@! TO.C,C14*
X126087142Y-64635142D02*
X126134761Y-64587523D01*
X126182380Y-64444666D01*
X126182380Y-64349428D01*
X126134761Y-64206571D01*
X126039523Y-64111333D01*
X125944285Y-64063714D01*
X125753809Y-64016095D01*
X125610952Y-64016095D01*
X125420476Y-64063714D01*
X125325238Y-64111333D01*
X125230000Y-64206571D01*
X125182380Y-64349428D01*
X125182380Y-64444666D01*
X125230000Y-64587523D01*
X125277619Y-64635142D01*
X126182380Y-65587523D02*
X126182380Y-65016095D01*
X126182380Y-65301809D02*
X125182380Y-65301809D01*
X125325238Y-65206571D01*
X125420476Y-65111333D01*
X125468095Y-65016095D01*
X125515714Y-66444666D02*
X126182380Y-66444666D01*
X125134761Y-66206571D02*
X125849047Y-65968476D01*
X125849047Y-66587523D01*
G04 #@! TO.C,C15*
X71950857Y-64345142D02*
X71998476Y-64392761D01*
X72141333Y-64440380D01*
X72236571Y-64440380D01*
X72379428Y-64392761D01*
X72474666Y-64297523D01*
X72522285Y-64202285D01*
X72569904Y-64011809D01*
X72569904Y-63868952D01*
X72522285Y-63678476D01*
X72474666Y-63583238D01*
X72379428Y-63488000D01*
X72236571Y-63440380D01*
X72141333Y-63440380D01*
X71998476Y-63488000D01*
X71950857Y-63535619D01*
X70998476Y-64440380D02*
X71569904Y-64440380D01*
X71284190Y-64440380D02*
X71284190Y-63440380D01*
X71379428Y-63583238D01*
X71474666Y-63678476D01*
X71569904Y-63726095D01*
X70093714Y-63440380D02*
X70569904Y-63440380D01*
X70617523Y-63916571D01*
X70569904Y-63868952D01*
X70474666Y-63821333D01*
X70236571Y-63821333D01*
X70141333Y-63868952D01*
X70093714Y-63916571D01*
X70046095Y-64011809D01*
X70046095Y-64249904D01*
X70093714Y-64345142D01*
X70141333Y-64392761D01*
X70236571Y-64440380D01*
X70474666Y-64440380D01*
X70569904Y-64392761D01*
X70617523Y-64345142D01*
G04 #@! TO.C,C17*
X122628857Y-54205142D02*
X122676476Y-54252761D01*
X122819333Y-54300380D01*
X122914571Y-54300380D01*
X123057428Y-54252761D01*
X123152666Y-54157523D01*
X123200285Y-54062285D01*
X123247904Y-53871809D01*
X123247904Y-53728952D01*
X123200285Y-53538476D01*
X123152666Y-53443238D01*
X123057428Y-53348000D01*
X122914571Y-53300380D01*
X122819333Y-53300380D01*
X122676476Y-53348000D01*
X122628857Y-53395619D01*
X121676476Y-54300380D02*
X122247904Y-54300380D01*
X121962190Y-54300380D02*
X121962190Y-53300380D01*
X122057428Y-53443238D01*
X122152666Y-53538476D01*
X122247904Y-53586095D01*
X121343142Y-53300380D02*
X120676476Y-53300380D01*
X121105047Y-54300380D01*
G04 #@! TO.C,C18*
X121038857Y-50395142D02*
X121086476Y-50442761D01*
X121229333Y-50490380D01*
X121324571Y-50490380D01*
X121467428Y-50442761D01*
X121562666Y-50347523D01*
X121610285Y-50252285D01*
X121657904Y-50061809D01*
X121657904Y-49918952D01*
X121610285Y-49728476D01*
X121562666Y-49633238D01*
X121467428Y-49538000D01*
X121324571Y-49490380D01*
X121229333Y-49490380D01*
X121086476Y-49538000D01*
X121038857Y-49585619D01*
X120086476Y-50490380D02*
X120657904Y-50490380D01*
X120372190Y-50490380D02*
X120372190Y-49490380D01*
X120467428Y-49633238D01*
X120562666Y-49728476D01*
X120657904Y-49776095D01*
X119515047Y-49918952D02*
X119610285Y-49871333D01*
X119657904Y-49823714D01*
X119705523Y-49728476D01*
X119705523Y-49680857D01*
X119657904Y-49585619D01*
X119610285Y-49538000D01*
X119515047Y-49490380D01*
X119324571Y-49490380D01*
X119229333Y-49538000D01*
X119181714Y-49585619D01*
X119134095Y-49680857D01*
X119134095Y-49728476D01*
X119181714Y-49823714D01*
X119229333Y-49871333D01*
X119324571Y-49918952D01*
X119515047Y-49918952D01*
X119610285Y-49966571D01*
X119657904Y-50014190D01*
X119705523Y-50109428D01*
X119705523Y-50299904D01*
X119657904Y-50395142D01*
X119610285Y-50442761D01*
X119515047Y-50490380D01*
X119324571Y-50490380D01*
X119229333Y-50442761D01*
X119181714Y-50395142D01*
X119134095Y-50299904D01*
X119134095Y-50109428D01*
X119181714Y-50014190D01*
X119229333Y-49966571D01*
X119324571Y-49918952D01*
G04 #@! TO.C,C25*
X62079142Y-73337142D02*
X62126761Y-73289523D01*
X62174380Y-73146666D01*
X62174380Y-73051428D01*
X62126761Y-72908571D01*
X62031523Y-72813333D01*
X61936285Y-72765714D01*
X61745809Y-72718095D01*
X61602952Y-72718095D01*
X61412476Y-72765714D01*
X61317238Y-72813333D01*
X61222000Y-72908571D01*
X61174380Y-73051428D01*
X61174380Y-73146666D01*
X61222000Y-73289523D01*
X61269619Y-73337142D01*
X61269619Y-73718095D02*
X61222000Y-73765714D01*
X61174380Y-73860952D01*
X61174380Y-74099047D01*
X61222000Y-74194285D01*
X61269619Y-74241904D01*
X61364857Y-74289523D01*
X61460095Y-74289523D01*
X61602952Y-74241904D01*
X62174380Y-73670476D01*
X62174380Y-74289523D01*
X61174380Y-75194285D02*
X61174380Y-74718095D01*
X61650571Y-74670476D01*
X61602952Y-74718095D01*
X61555333Y-74813333D01*
X61555333Y-75051428D01*
X61602952Y-75146666D01*
X61650571Y-75194285D01*
X61745809Y-75241904D01*
X61983904Y-75241904D01*
X62079142Y-75194285D01*
X62126761Y-75146666D01*
X62174380Y-75051428D01*
X62174380Y-74813333D01*
X62126761Y-74718095D01*
X62079142Y-74670476D01*
G04 #@! TO.C,C26*
X73489142Y-68257142D02*
X73536761Y-68209523D01*
X73584380Y-68066666D01*
X73584380Y-67971428D01*
X73536761Y-67828571D01*
X73441523Y-67733333D01*
X73346285Y-67685714D01*
X73155809Y-67638095D01*
X73012952Y-67638095D01*
X72822476Y-67685714D01*
X72727238Y-67733333D01*
X72632000Y-67828571D01*
X72584380Y-67971428D01*
X72584380Y-68066666D01*
X72632000Y-68209523D01*
X72679619Y-68257142D01*
X72679619Y-68638095D02*
X72632000Y-68685714D01*
X72584380Y-68780952D01*
X72584380Y-69019047D01*
X72632000Y-69114285D01*
X72679619Y-69161904D01*
X72774857Y-69209523D01*
X72870095Y-69209523D01*
X73012952Y-69161904D01*
X73584380Y-68590476D01*
X73584380Y-69209523D01*
X72584380Y-70066666D02*
X72584380Y-69876190D01*
X72632000Y-69780952D01*
X72679619Y-69733333D01*
X72822476Y-69638095D01*
X73012952Y-69590476D01*
X73393904Y-69590476D01*
X73489142Y-69638095D01*
X73536761Y-69685714D01*
X73584380Y-69780952D01*
X73584380Y-69971428D01*
X73536761Y-70066666D01*
X73489142Y-70114285D01*
X73393904Y-70161904D01*
X73155809Y-70161904D01*
X73060571Y-70114285D01*
X73012952Y-70066666D01*
X72965333Y-69971428D01*
X72965333Y-69780952D01*
X73012952Y-69685714D01*
X73060571Y-69638095D01*
X73155809Y-69590476D01*
G04 #@! TO.C,C36*
X63126857Y-76303142D02*
X63174476Y-76350761D01*
X63317333Y-76398380D01*
X63412571Y-76398380D01*
X63555428Y-76350761D01*
X63650666Y-76255523D01*
X63698285Y-76160285D01*
X63745904Y-75969809D01*
X63745904Y-75826952D01*
X63698285Y-75636476D01*
X63650666Y-75541238D01*
X63555428Y-75446000D01*
X63412571Y-75398380D01*
X63317333Y-75398380D01*
X63174476Y-75446000D01*
X63126857Y-75493619D01*
X62793523Y-75398380D02*
X62174476Y-75398380D01*
X62507809Y-75779333D01*
X62364952Y-75779333D01*
X62269714Y-75826952D01*
X62222095Y-75874571D01*
X62174476Y-75969809D01*
X62174476Y-76207904D01*
X62222095Y-76303142D01*
X62269714Y-76350761D01*
X62364952Y-76398380D01*
X62650666Y-76398380D01*
X62745904Y-76350761D01*
X62793523Y-76303142D01*
X61317333Y-75398380D02*
X61507809Y-75398380D01*
X61603047Y-75446000D01*
X61650666Y-75493619D01*
X61745904Y-75636476D01*
X61793523Y-75826952D01*
X61793523Y-76207904D01*
X61745904Y-76303142D01*
X61698285Y-76350761D01*
X61603047Y-76398380D01*
X61412571Y-76398380D01*
X61317333Y-76350761D01*
X61269714Y-76303142D01*
X61222095Y-76207904D01*
X61222095Y-75969809D01*
X61269714Y-75874571D01*
X61317333Y-75826952D01*
X61412571Y-75779333D01*
X61603047Y-75779333D01*
X61698285Y-75826952D01*
X61745904Y-75874571D01*
X61793523Y-75969809D01*
G04 #@! TO.C,R1*
X71540666Y-57422380D02*
X71874000Y-56946190D01*
X72112095Y-57422380D02*
X72112095Y-56422380D01*
X71731142Y-56422380D01*
X71635904Y-56470000D01*
X71588285Y-56517619D01*
X71540666Y-56612857D01*
X71540666Y-56755714D01*
X71588285Y-56850952D01*
X71635904Y-56898571D01*
X71731142Y-56946190D01*
X72112095Y-56946190D01*
X70588285Y-57422380D02*
X71159714Y-57422380D01*
X70874000Y-57422380D02*
X70874000Y-56422380D01*
X70969238Y-56565238D01*
X71064476Y-56660476D01*
X71159714Y-56708095D01*
G04 #@! TO.C,R4*
X70810380Y-65957333D02*
X70334190Y-65624000D01*
X70810380Y-65385904D02*
X69810380Y-65385904D01*
X69810380Y-65766857D01*
X69858000Y-65862095D01*
X69905619Y-65909714D01*
X70000857Y-65957333D01*
X70143714Y-65957333D01*
X70238952Y-65909714D01*
X70286571Y-65862095D01*
X70334190Y-65766857D01*
X70334190Y-65385904D01*
X70143714Y-66814476D02*
X70810380Y-66814476D01*
X69762761Y-66576380D02*
X70477047Y-66338285D01*
X70477047Y-66957333D01*
G04 #@! TO.C,R5*
X65952666Y-66189379D02*
X66286000Y-65713189D01*
X66524095Y-66189379D02*
X66524095Y-65189379D01*
X66143142Y-65189379D01*
X66047904Y-65236999D01*
X66000285Y-65284618D01*
X65952666Y-65379856D01*
X65952666Y-65522713D01*
X66000285Y-65617951D01*
X66047904Y-65665570D01*
X66143142Y-65713189D01*
X66524095Y-65713189D01*
X65047904Y-65189379D02*
X65524095Y-65189379D01*
X65571714Y-65665570D01*
X65524095Y-65617951D01*
X65428857Y-65570332D01*
X65190761Y-65570332D01*
X65095523Y-65617951D01*
X65047904Y-65665570D01*
X65000285Y-65760808D01*
X65000285Y-65998903D01*
X65047904Y-66094141D01*
X65095523Y-66141760D01*
X65190761Y-66189379D01*
X65428857Y-66189379D01*
X65524095Y-66141760D01*
X65571714Y-66094141D01*
G04 #@! TO.C,R6*
X62226666Y-65984380D02*
X62560000Y-65508190D01*
X62798095Y-65984380D02*
X62798095Y-64984380D01*
X62417142Y-64984380D01*
X62321904Y-65032000D01*
X62274285Y-65079619D01*
X62226666Y-65174857D01*
X62226666Y-65317714D01*
X62274285Y-65412952D01*
X62321904Y-65460571D01*
X62417142Y-65508190D01*
X62798095Y-65508190D01*
X61369523Y-64984380D02*
X61560000Y-64984380D01*
X61655238Y-65032000D01*
X61702857Y-65079619D01*
X61798095Y-65222476D01*
X61845714Y-65412952D01*
X61845714Y-65793904D01*
X61798095Y-65889142D01*
X61750476Y-65936761D01*
X61655238Y-65984380D01*
X61464761Y-65984380D01*
X61369523Y-65936761D01*
X61321904Y-65889142D01*
X61274285Y-65793904D01*
X61274285Y-65555809D01*
X61321904Y-65460571D01*
X61369523Y-65412952D01*
X61464761Y-65365333D01*
X61655238Y-65365333D01*
X61750476Y-65412952D01*
X61798095Y-65460571D01*
X61845714Y-65555809D01*
G04 #@! TO.C,R7*
X60904380Y-72985333D02*
X60428190Y-72652000D01*
X60904380Y-72413904D02*
X59904380Y-72413904D01*
X59904380Y-72794857D01*
X59952000Y-72890095D01*
X59999619Y-72937714D01*
X60094857Y-72985333D01*
X60237714Y-72985333D01*
X60332952Y-72937714D01*
X60380571Y-72890095D01*
X60428190Y-72794857D01*
X60428190Y-72413904D01*
X59904380Y-73318666D02*
X59904380Y-73985333D01*
X60904380Y-73556761D01*
G04 #@! TO.C,R8*
X123896380Y-76287333D02*
X123420190Y-75954000D01*
X123896380Y-75715904D02*
X122896380Y-75715904D01*
X122896380Y-76096857D01*
X122944000Y-76192095D01*
X122991619Y-76239714D01*
X123086857Y-76287333D01*
X123229714Y-76287333D01*
X123324952Y-76239714D01*
X123372571Y-76192095D01*
X123420190Y-76096857D01*
X123420190Y-75715904D01*
X123324952Y-76858761D02*
X123277333Y-76763523D01*
X123229714Y-76715904D01*
X123134476Y-76668285D01*
X123086857Y-76668285D01*
X122991619Y-76715904D01*
X122944000Y-76763523D01*
X122896380Y-76858761D01*
X122896380Y-77049238D01*
X122944000Y-77144476D01*
X122991619Y-77192095D01*
X123086857Y-77239714D01*
X123134476Y-77239714D01*
X123229714Y-77192095D01*
X123277333Y-77144476D01*
X123324952Y-77049238D01*
X123324952Y-76858761D01*
X123372571Y-76763523D01*
X123420190Y-76715904D01*
X123515428Y-76668285D01*
X123705904Y-76668285D01*
X123801142Y-76715904D01*
X123848761Y-76763523D01*
X123896380Y-76858761D01*
X123896380Y-77049238D01*
X123848761Y-77144476D01*
X123801142Y-77192095D01*
X123705904Y-77239714D01*
X123515428Y-77239714D01*
X123420190Y-77192095D01*
X123372571Y-77144476D01*
X123324952Y-77049238D01*
G04 #@! TO.C,R9*
X118276666Y-74112380D02*
X118610000Y-73636190D01*
X118848095Y-74112380D02*
X118848095Y-73112380D01*
X118467142Y-73112380D01*
X118371904Y-73160000D01*
X118324285Y-73207619D01*
X118276666Y-73302857D01*
X118276666Y-73445714D01*
X118324285Y-73540952D01*
X118371904Y-73588571D01*
X118467142Y-73636190D01*
X118848095Y-73636190D01*
X117800476Y-74112380D02*
X117610000Y-74112380D01*
X117514761Y-74064761D01*
X117467142Y-74017142D01*
X117371904Y-73874285D01*
X117324285Y-73683809D01*
X117324285Y-73302857D01*
X117371904Y-73207619D01*
X117419523Y-73160000D01*
X117514761Y-73112380D01*
X117705238Y-73112380D01*
X117800476Y-73160000D01*
X117848095Y-73207619D01*
X117895714Y-73302857D01*
X117895714Y-73540952D01*
X117848095Y-73636190D01*
X117800476Y-73683809D01*
X117705238Y-73731428D01*
X117514761Y-73731428D01*
X117419523Y-73683809D01*
X117371904Y-73636190D01*
X117324285Y-73540952D01*
G04 #@! TO.C,R10*
X118244857Y-75382380D02*
X118578190Y-74906190D01*
X118816285Y-75382380D02*
X118816285Y-74382380D01*
X118435333Y-74382380D01*
X118340095Y-74430000D01*
X118292476Y-74477619D01*
X118244857Y-74572857D01*
X118244857Y-74715714D01*
X118292476Y-74810952D01*
X118340095Y-74858571D01*
X118435333Y-74906190D01*
X118816285Y-74906190D01*
X117292476Y-75382380D02*
X117863904Y-75382380D01*
X117578190Y-75382380D02*
X117578190Y-74382380D01*
X117673428Y-74525238D01*
X117768666Y-74620476D01*
X117863904Y-74668095D01*
X116673428Y-74382380D02*
X116578190Y-74382380D01*
X116482952Y-74430000D01*
X116435333Y-74477619D01*
X116387714Y-74572857D01*
X116340095Y-74763333D01*
X116340095Y-75001428D01*
X116387714Y-75191904D01*
X116435333Y-75287142D01*
X116482952Y-75334761D01*
X116578190Y-75382380D01*
X116673428Y-75382380D01*
X116768666Y-75334761D01*
X116816285Y-75287142D01*
X116863904Y-75191904D01*
X116911523Y-75001428D01*
X116911523Y-74763333D01*
X116863904Y-74572857D01*
X116816285Y-74477619D01*
X116768666Y-74430000D01*
X116673428Y-74382380D01*
G04 #@! TO.C,R11*
X125420380Y-76573142D02*
X124944190Y-76239809D01*
X125420380Y-76001714D02*
X124420380Y-76001714D01*
X124420380Y-76382666D01*
X124468000Y-76477904D01*
X124515619Y-76525523D01*
X124610857Y-76573142D01*
X124753714Y-76573142D01*
X124848952Y-76525523D01*
X124896571Y-76477904D01*
X124944190Y-76382666D01*
X124944190Y-76001714D01*
X125420380Y-77525523D02*
X125420380Y-76954095D01*
X125420380Y-77239809D02*
X124420380Y-77239809D01*
X124563238Y-77144571D01*
X124658476Y-77049333D01*
X124706095Y-76954095D01*
X125420380Y-78477904D02*
X125420380Y-77906476D01*
X125420380Y-78192190D02*
X124420380Y-78192190D01*
X124563238Y-78096952D01*
X124658476Y-78001714D01*
X124706095Y-77906476D01*
G04 #@! TO.C,R38*
X86812380Y-65905142D02*
X86336190Y-65571809D01*
X86812380Y-65333714D02*
X85812380Y-65333714D01*
X85812380Y-65714666D01*
X85860000Y-65809904D01*
X85907619Y-65857523D01*
X86002857Y-65905142D01*
X86145714Y-65905142D01*
X86240952Y-65857523D01*
X86288571Y-65809904D01*
X86336190Y-65714666D01*
X86336190Y-65333714D01*
X85812380Y-66238476D02*
X85812380Y-66857523D01*
X86193333Y-66524190D01*
X86193333Y-66667047D01*
X86240952Y-66762285D01*
X86288571Y-66809904D01*
X86383809Y-66857523D01*
X86621904Y-66857523D01*
X86717142Y-66809904D01*
X86764761Y-66762285D01*
X86812380Y-66667047D01*
X86812380Y-66381333D01*
X86764761Y-66286095D01*
X86717142Y-66238476D01*
X86240952Y-67428952D02*
X86193333Y-67333714D01*
X86145714Y-67286095D01*
X86050476Y-67238476D01*
X86002857Y-67238476D01*
X85907619Y-67286095D01*
X85860000Y-67333714D01*
X85812380Y-67428952D01*
X85812380Y-67619428D01*
X85860000Y-67714666D01*
X85907619Y-67762285D01*
X86002857Y-67809904D01*
X86050476Y-67809904D01*
X86145714Y-67762285D01*
X86193333Y-67714666D01*
X86240952Y-67619428D01*
X86240952Y-67428952D01*
X86288571Y-67333714D01*
X86336190Y-67286095D01*
X86431428Y-67238476D01*
X86621904Y-67238476D01*
X86717142Y-67286095D01*
X86764761Y-67333714D01*
X86812380Y-67428952D01*
X86812380Y-67619428D01*
X86764761Y-67714666D01*
X86717142Y-67762285D01*
X86621904Y-67809904D01*
X86431428Y-67809904D01*
X86336190Y-67762285D01*
X86288571Y-67714666D01*
X86240952Y-67619428D01*
G04 #@! TO.C,R39*
X100782380Y-65905142D02*
X100306190Y-65571809D01*
X100782380Y-65333714D02*
X99782380Y-65333714D01*
X99782380Y-65714666D01*
X99830000Y-65809904D01*
X99877619Y-65857523D01*
X99972857Y-65905142D01*
X100115714Y-65905142D01*
X100210952Y-65857523D01*
X100258571Y-65809904D01*
X100306190Y-65714666D01*
X100306190Y-65333714D01*
X99782380Y-66238476D02*
X99782380Y-66857523D01*
X100163333Y-66524190D01*
X100163333Y-66667047D01*
X100210952Y-66762285D01*
X100258571Y-66809904D01*
X100353809Y-66857523D01*
X100591904Y-66857523D01*
X100687142Y-66809904D01*
X100734761Y-66762285D01*
X100782380Y-66667047D01*
X100782380Y-66381333D01*
X100734761Y-66286095D01*
X100687142Y-66238476D01*
X100782380Y-67333714D02*
X100782380Y-67524190D01*
X100734761Y-67619428D01*
X100687142Y-67667047D01*
X100544285Y-67762285D01*
X100353809Y-67809904D01*
X99972857Y-67809904D01*
X99877619Y-67762285D01*
X99830000Y-67714666D01*
X99782380Y-67619428D01*
X99782380Y-67428952D01*
X99830000Y-67333714D01*
X99877619Y-67286095D01*
X99972857Y-67238476D01*
X100210952Y-67238476D01*
X100306190Y-67286095D01*
X100353809Y-67333714D01*
X100401428Y-67428952D01*
X100401428Y-67619428D01*
X100353809Y-67714666D01*
X100306190Y-67762285D01*
X100210952Y-67809904D01*
G04 #@! TO.C,R40*
X109672380Y-65905142D02*
X109196190Y-65571809D01*
X109672380Y-65333714D02*
X108672380Y-65333714D01*
X108672380Y-65714666D01*
X108720000Y-65809904D01*
X108767619Y-65857523D01*
X108862857Y-65905142D01*
X109005714Y-65905142D01*
X109100952Y-65857523D01*
X109148571Y-65809904D01*
X109196190Y-65714666D01*
X109196190Y-65333714D01*
X109005714Y-66762285D02*
X109672380Y-66762285D01*
X108624761Y-66524190D02*
X109339047Y-66286095D01*
X109339047Y-66905142D01*
X108672380Y-67476571D02*
X108672380Y-67571809D01*
X108720000Y-67667047D01*
X108767619Y-67714666D01*
X108862857Y-67762285D01*
X109053333Y-67809904D01*
X109291428Y-67809904D01*
X109481904Y-67762285D01*
X109577142Y-67714666D01*
X109624761Y-67667047D01*
X109672380Y-67571809D01*
X109672380Y-67476571D01*
X109624761Y-67381333D01*
X109577142Y-67333714D01*
X109481904Y-67286095D01*
X109291428Y-67238476D01*
X109053333Y-67238476D01*
X108862857Y-67286095D01*
X108767619Y-67333714D01*
X108720000Y-67381333D01*
X108672380Y-67476571D01*
G04 #@! TO.C,R41*
X69222857Y-75816380D02*
X69556190Y-75340190D01*
X69794285Y-75816380D02*
X69794285Y-74816380D01*
X69413333Y-74816380D01*
X69318095Y-74864000D01*
X69270476Y-74911619D01*
X69222857Y-75006857D01*
X69222857Y-75149714D01*
X69270476Y-75244952D01*
X69318095Y-75292571D01*
X69413333Y-75340190D01*
X69794285Y-75340190D01*
X68365714Y-75149714D02*
X68365714Y-75816380D01*
X68603809Y-74768761D02*
X68841904Y-75483047D01*
X68222857Y-75483047D01*
X67318095Y-75816380D02*
X67889523Y-75816380D01*
X67603809Y-75816380D02*
X67603809Y-74816380D01*
X67699047Y-74959238D01*
X67794285Y-75054476D01*
X67889523Y-75102095D01*
G04 #@! TO.C,R42*
X62872857Y-77922380D02*
X63206190Y-77446190D01*
X63444285Y-77922380D02*
X63444285Y-76922380D01*
X63063333Y-76922380D01*
X62968095Y-76970000D01*
X62920476Y-77017619D01*
X62872857Y-77112857D01*
X62872857Y-77255714D01*
X62920476Y-77350952D01*
X62968095Y-77398571D01*
X63063333Y-77446190D01*
X63444285Y-77446190D01*
X62015714Y-77255714D02*
X62015714Y-77922380D01*
X62253809Y-76874761D02*
X62491904Y-77589047D01*
X61872857Y-77589047D01*
X61539523Y-77017619D02*
X61491904Y-76970000D01*
X61396666Y-76922380D01*
X61158571Y-76922380D01*
X61063333Y-76970000D01*
X61015714Y-77017619D01*
X60968095Y-77112857D01*
X60968095Y-77208095D01*
X61015714Y-77350952D01*
X61587142Y-77922380D01*
X60968095Y-77922380D01*
G04 #@! TO.C,U6*
X67270380Y-69342095D02*
X68079904Y-69342095D01*
X68175142Y-69389714D01*
X68222761Y-69437333D01*
X68270380Y-69532571D01*
X68270380Y-69723047D01*
X68222761Y-69818285D01*
X68175142Y-69865904D01*
X68079904Y-69913523D01*
X67270380Y-69913523D01*
X67270380Y-70818285D02*
X67270380Y-70627809D01*
X67318000Y-70532571D01*
X67365619Y-70484952D01*
X67508476Y-70389714D01*
X67698952Y-70342095D01*
X68079904Y-70342095D01*
X68175142Y-70389714D01*
X68222761Y-70437333D01*
X68270380Y-70532571D01*
X68270380Y-70723047D01*
X68222761Y-70818285D01*
X68175142Y-70865904D01*
X68079904Y-70913523D01*
X67841809Y-70913523D01*
X67746571Y-70865904D01*
X67698952Y-70818285D01*
X67651333Y-70723047D01*
X67651333Y-70532571D01*
X67698952Y-70437333D01*
X67746571Y-70389714D01*
X67841809Y-70342095D01*
G04 #@! TO.C,U7*
X78231904Y-49617380D02*
X78231904Y-50426904D01*
X78184285Y-50522142D01*
X78136666Y-50569761D01*
X78041428Y-50617380D01*
X77850952Y-50617380D01*
X77755714Y-50569761D01*
X77708095Y-50522142D01*
X77660476Y-50426904D01*
X77660476Y-49617380D01*
X77279523Y-49617380D02*
X76612857Y-49617380D01*
X77041428Y-50617380D01*
G04 #@! TO.C,U8*
X87121904Y-49617380D02*
X87121904Y-50426904D01*
X87074285Y-50522142D01*
X87026666Y-50569761D01*
X86931428Y-50617380D01*
X86740952Y-50617380D01*
X86645714Y-50569761D01*
X86598095Y-50522142D01*
X86550476Y-50426904D01*
X86550476Y-49617380D01*
X85931428Y-50045952D02*
X86026666Y-49998333D01*
X86074285Y-49950714D01*
X86121904Y-49855476D01*
X86121904Y-49807857D01*
X86074285Y-49712619D01*
X86026666Y-49665000D01*
X85931428Y-49617380D01*
X85740952Y-49617380D01*
X85645714Y-49665000D01*
X85598095Y-49712619D01*
X85550476Y-49807857D01*
X85550476Y-49855476D01*
X85598095Y-49950714D01*
X85645714Y-49998333D01*
X85740952Y-50045952D01*
X85931428Y-50045952D01*
X86026666Y-50093571D01*
X86074285Y-50141190D01*
X86121904Y-50236428D01*
X86121904Y-50426904D01*
X86074285Y-50522142D01*
X86026666Y-50569761D01*
X85931428Y-50617380D01*
X85740952Y-50617380D01*
X85645714Y-50569761D01*
X85598095Y-50522142D01*
X85550476Y-50426904D01*
X85550476Y-50236428D01*
X85598095Y-50141190D01*
X85645714Y-50093571D01*
X85740952Y-50045952D01*
G04 #@! TO.C,U9*
X101091904Y-49617380D02*
X101091904Y-50426904D01*
X101044285Y-50522142D01*
X100996666Y-50569761D01*
X100901428Y-50617380D01*
X100710952Y-50617380D01*
X100615714Y-50569761D01*
X100568095Y-50522142D01*
X100520476Y-50426904D01*
X100520476Y-49617380D01*
X99996666Y-50617380D02*
X99806190Y-50617380D01*
X99710952Y-50569761D01*
X99663333Y-50522142D01*
X99568095Y-50379285D01*
X99520476Y-50188809D01*
X99520476Y-49807857D01*
X99568095Y-49712619D01*
X99615714Y-49665000D01*
X99710952Y-49617380D01*
X99901428Y-49617380D01*
X99996666Y-49665000D01*
X100044285Y-49712619D01*
X100091904Y-49807857D01*
X100091904Y-50045952D01*
X100044285Y-50141190D01*
X99996666Y-50188809D01*
X99901428Y-50236428D01*
X99710952Y-50236428D01*
X99615714Y-50188809D01*
X99568095Y-50141190D01*
X99520476Y-50045952D01*
G04 #@! TO.C,U10*
X110458095Y-49617380D02*
X110458095Y-50426904D01*
X110410476Y-50522142D01*
X110362857Y-50569761D01*
X110267619Y-50617380D01*
X110077142Y-50617380D01*
X109981904Y-50569761D01*
X109934285Y-50522142D01*
X109886666Y-50426904D01*
X109886666Y-49617380D01*
X108886666Y-50617380D02*
X109458095Y-50617380D01*
X109172380Y-50617380D02*
X109172380Y-49617380D01*
X109267619Y-49760238D01*
X109362857Y-49855476D01*
X109458095Y-49903095D01*
X108267619Y-49617380D02*
X108172380Y-49617380D01*
X108077142Y-49665000D01*
X108029523Y-49712619D01*
X107981904Y-49807857D01*
X107934285Y-49998333D01*
X107934285Y-50236428D01*
X107981904Y-50426904D01*
X108029523Y-50522142D01*
X108077142Y-50569761D01*
X108172380Y-50617380D01*
X108267619Y-50617380D01*
X108362857Y-50569761D01*
X108410476Y-50522142D01*
X108458095Y-50426904D01*
X108505714Y-50236428D01*
X108505714Y-49998333D01*
X108458095Y-49807857D01*
X108410476Y-49712619D01*
X108362857Y-49665000D01*
X108267619Y-49617380D01*
G04 #@! TO.C,U11*
X124682095Y-66000380D02*
X124682095Y-66809904D01*
X124634476Y-66905142D01*
X124586857Y-66952761D01*
X124491619Y-67000380D01*
X124301142Y-67000380D01*
X124205904Y-66952761D01*
X124158285Y-66905142D01*
X124110666Y-66809904D01*
X124110666Y-66000380D01*
X123110666Y-67000380D02*
X123682095Y-67000380D01*
X123396380Y-67000380D02*
X123396380Y-66000380D01*
X123491619Y-66143238D01*
X123586857Y-66238476D01*
X123682095Y-66286095D01*
X122158285Y-67000380D02*
X122729714Y-67000380D01*
X122444000Y-67000380D02*
X122444000Y-66000380D01*
X122539238Y-66143238D01*
X122634476Y-66238476D01*
X122729714Y-66286095D01*
G04 #@! TO.C,U12*
X120618095Y-68286380D02*
X120618095Y-69095904D01*
X120570476Y-69191142D01*
X120522857Y-69238761D01*
X120427619Y-69286380D01*
X120237142Y-69286380D01*
X120141904Y-69238761D01*
X120094285Y-69191142D01*
X120046666Y-69095904D01*
X120046666Y-68286380D01*
X119046666Y-69286380D02*
X119618095Y-69286380D01*
X119332380Y-69286380D02*
X119332380Y-68286380D01*
X119427619Y-68429238D01*
X119522857Y-68524476D01*
X119618095Y-68572095D01*
X118665714Y-68381619D02*
X118618095Y-68334000D01*
X118522857Y-68286380D01*
X118284761Y-68286380D01*
X118189523Y-68334000D01*
X118141904Y-68381619D01*
X118094285Y-68476857D01*
X118094285Y-68572095D01*
X118141904Y-68714952D01*
X118713333Y-69286380D01*
X118094285Y-69286380D01*
G04 #@! TD*
M02*
