G04 #@! TF.GenerationSoftware,KiCad,Pcbnew,(5.0.0)*
G04 #@! TF.CreationDate,2018-09-01T15:30:56+08:00*
G04 #@! TF.ProjectId,PAM2423 Boost Converter,50414D3234323320426F6F737420436F,rev?*
G04 #@! TF.SameCoordinates,Original*
G04 #@! TF.FileFunction,Copper,L2,Bot,Signal*
G04 #@! TF.FilePolarity,Positive*
%FSLAX46Y46*%
G04 Gerber Fmt 4.6, Leading zero omitted, Abs format (unit mm)*
G04 Created by KiCad (PCBNEW (5.0.0)) date 09/01/18 15:30:56*
%MOMM*%
%LPD*%
G01*
G04 APERTURE LIST*
G04 #@! TA.AperFunction,ComponentPad*
%ADD10C,1.716000*%
G04 #@! TD*
G04 #@! TA.AperFunction,ComponentPad*
%ADD11R,1.554000X1.716000*%
G04 #@! TD*
G04 #@! TA.AperFunction,SMDPad,CuDef*
%ADD12R,0.750000X1.200000*%
G04 #@! TD*
G04 #@! TA.AperFunction,SMDPad,CuDef*
%ADD13R,1.200000X0.750000*%
G04 #@! TD*
G04 #@! TA.AperFunction,ComponentPad*
%ADD14R,1.716000X1.554000*%
G04 #@! TD*
G04 #@! TA.AperFunction,SMDPad,CuDef*
%ADD15R,3.300000X4.500000*%
G04 #@! TD*
G04 #@! TA.AperFunction,ComponentPad*
%ADD16C,2.016000*%
G04 #@! TD*
G04 #@! TA.AperFunction,ComponentPad*
%ADD17R,2.016000X2.016000*%
G04 #@! TD*
G04 #@! TA.AperFunction,SMDPad,CuDef*
%ADD18R,3.556000X10.160000*%
G04 #@! TD*
G04 #@! TA.AperFunction,SMDPad,CuDef*
%ADD19R,1.200000X0.900000*%
G04 #@! TD*
G04 #@! TA.AperFunction,SMDPad,CuDef*
%ADD20R,1.143000X0.508000*%
G04 #@! TD*
G04 #@! TA.AperFunction,ViaPad*
%ADD21C,1.308000*%
G04 #@! TD*
G04 #@! TA.AperFunction,Conductor*
%ADD22C,0.762000*%
G04 #@! TD*
G04 #@! TA.AperFunction,Conductor*
%ADD23C,0.304800*%
G04 #@! TD*
G04 APERTURE END LIST*
D10*
G04 #@! TO.P,C1,2*
G04 #@! TO.N,GND*
X97155000Y-66595000D03*
D11*
G04 #@! TO.P,C1,1*
G04 #@! TO.N,Net-(C1-Pad1)*
X97155000Y-61595000D03*
G04 #@! TD*
D12*
G04 #@! TO.P,C2,2*
G04 #@! TO.N,GND*
X93980000Y-65085000D03*
G04 #@! TO.P,C2,1*
G04 #@! TO.N,Net-(C1-Pad1)*
X93980000Y-63185000D03*
G04 #@! TD*
G04 #@! TO.P,C3,1*
G04 #@! TO.N,Net-(C1-Pad1)*
X100330000Y-62870000D03*
G04 #@! TO.P,C3,2*
G04 #@! TO.N,GND*
X100330000Y-64770000D03*
G04 #@! TD*
D13*
G04 #@! TO.P,C4,2*
G04 #@! TO.N,GND*
X102870000Y-66675000D03*
G04 #@! TO.P,C4,1*
G04 #@! TO.N,Net-(C4-Pad1)*
X104770000Y-66675000D03*
G04 #@! TD*
G04 #@! TO.P,C5,1*
G04 #@! TO.N,Net-(C5-Pad1)*
X107320000Y-59055000D03*
G04 #@! TO.P,C5,2*
G04 #@! TO.N,GND*
X109220000Y-59055000D03*
G04 #@! TD*
D12*
G04 #@! TO.P,C6,2*
G04 #@! TO.N,GND*
X106680000Y-68895000D03*
G04 #@! TO.P,C6,1*
G04 #@! TO.N,Net-(C6-Pad1)*
X106680000Y-66995000D03*
G04 #@! TD*
D14*
G04 #@! TO.P,C7,1*
G04 #@! TO.N,Net-(C7-Pad1)*
X117475000Y-64770000D03*
D10*
G04 #@! TO.P,C7,2*
G04 #@! TO.N,GND*
X112475000Y-64770000D03*
G04 #@! TD*
D12*
G04 #@! TO.P,C8,1*
G04 #@! TO.N,Net-(C7-Pad1)*
X120015000Y-65410000D03*
G04 #@! TO.P,C8,2*
G04 #@! TO.N,GND*
X120015000Y-67310000D03*
G04 #@! TD*
D15*
G04 #@! TO.P,D1,2*
G04 #@! TO.N,Net-(D1-Pad2)*
X118745000Y-51525000D03*
G04 #@! TO.P,D1,1*
G04 #@! TO.N,Net-(C7-Pad1)*
X118745000Y-60325000D03*
G04 #@! TD*
D16*
G04 #@! TO.P,J1,2*
G04 #@! TO.N,GND*
X88900000Y-65405000D03*
D17*
G04 #@! TO.P,J1,1*
G04 #@! TO.N,Net-(C1-Pad1)*
X88900000Y-62865000D03*
G04 #@! TD*
G04 #@! TO.P,J2,1*
G04 #@! TO.N,Net-(C7-Pad1)*
X122555000Y-65405000D03*
D16*
G04 #@! TO.P,J2,2*
G04 #@! TO.N,GND*
X122555000Y-67945000D03*
G04 #@! TD*
D18*
G04 #@! TO.P,L1,2*
G04 #@! TO.N,Net-(D1-Pad2)*
X109220000Y-51435000D03*
G04 #@! TO.P,L1,1*
G04 #@! TO.N,Net-(C1-Pad1)*
X102616000Y-51435000D03*
G04 #@! TD*
D19*
G04 #@! TO.P,R1,2*
G04 #@! TO.N,Net-(C5-Pad1)*
X105070000Y-59055000D03*
G04 #@! TO.P,R1,1*
G04 #@! TO.N,Net-(C4-Pad1)*
X102870000Y-59055000D03*
G04 #@! TD*
G04 #@! TO.P,R2,1*
G04 #@! TO.N,Net-(C7-Pad1)*
X113665000Y-62230000D03*
G04 #@! TO.P,R2,2*
G04 #@! TO.N,Net-(R2-Pad2)*
X111465000Y-62230000D03*
G04 #@! TD*
G04 #@! TO.P,R3,2*
G04 #@! TO.N,GND*
X113960000Y-59055000D03*
G04 #@! TO.P,R3,1*
G04 #@! TO.N,Net-(R2-Pad2)*
X111760000Y-59055000D03*
G04 #@! TD*
D20*
G04 #@! TO.P,U1,1*
G04 #@! TO.N,GND*
X102870000Y-64770000D03*
G04 #@! TO.P,U1,2*
G04 #@! TO.N,Net-(C1-Pad1)*
X102870000Y-63500000D03*
G04 #@! TO.P,U1,3*
X102870000Y-62230000D03*
G04 #@! TO.P,U1,4*
G04 #@! TO.N,Net-(C4-Pad1)*
X102870000Y-60960000D03*
G04 #@! TO.P,U1,5*
G04 #@! TO.N,GND*
X109220000Y-60960000D03*
G04 #@! TO.P,U1,6*
G04 #@! TO.N,Net-(R2-Pad2)*
X109220000Y-62230000D03*
G04 #@! TO.P,U1,7*
G04 #@! TO.N,Net-(C6-Pad1)*
X109220000Y-63500000D03*
G04 #@! TO.P,U1,8*
G04 #@! TO.N,Net-(D1-Pad2)*
X109220000Y-64770000D03*
G04 #@! TD*
D21*
G04 #@! TO.N,GND*
X113665000Y-57023000D03*
X109220000Y-68895000D03*
G04 #@! TO.N,Net-(D1-Pad2)*
X107950000Y-66675000D03*
X112395000Y-55245000D03*
G04 #@! TD*
D22*
G04 #@! TO.N,GND*
X120650000Y-67945000D02*
X120015000Y-67310000D01*
X122555000Y-67945000D02*
X120650000Y-67945000D01*
X115015000Y-67310000D02*
X112475000Y-64770000D01*
X120015000Y-67310000D02*
X115015000Y-67310000D01*
X113430000Y-68895000D02*
X115015000Y-67310000D01*
X99455000Y-68895000D02*
X97155000Y-66595000D01*
X106680000Y-68895000D02*
X99455000Y-68895000D01*
X102870000Y-66675000D02*
X102870000Y-64770000D01*
X100330000Y-64770000D02*
X102870000Y-64770000D01*
X98980000Y-64770000D02*
X97155000Y-66595000D01*
X100330000Y-64770000D02*
X98980000Y-64770000D01*
X95965000Y-65405000D02*
X97155000Y-66595000D01*
X88900000Y-65405000D02*
X95965000Y-65405000D01*
X109220000Y-60960000D02*
X109220000Y-59055000D01*
X113960000Y-57843000D02*
X113267000Y-57150000D01*
X113960000Y-59055000D02*
X113960000Y-57843000D01*
X113267000Y-57150000D02*
X109855000Y-57150000D01*
X109220000Y-57785000D02*
X109220000Y-59055000D01*
X109855000Y-57150000D02*
X109220000Y-57785000D01*
X109220000Y-68895000D02*
X113430000Y-68895000D01*
X106680000Y-68895000D02*
X109220000Y-68895000D01*
G04 #@! TO.N,Net-(C1-Pad1)*
X95885000Y-62865000D02*
X97155000Y-61595000D01*
X88900000Y-62865000D02*
X95885000Y-62865000D01*
X99055000Y-61595000D02*
X100330000Y-62870000D01*
X97155000Y-61595000D02*
X99055000Y-61595000D01*
X100970000Y-62230000D02*
X100330000Y-62870000D01*
X102870000Y-62230000D02*
X100970000Y-62230000D01*
X100960000Y-63500000D02*
X100330000Y-62870000D01*
X102870000Y-63500000D02*
X100960000Y-63500000D01*
X100076000Y-51435000D02*
X102616000Y-51435000D01*
X99060000Y-52451000D02*
X100076000Y-51435000D01*
X99060000Y-60833000D02*
X99060000Y-52451000D01*
X99055000Y-60838000D02*
X99060000Y-60833000D01*
X99055000Y-61595000D02*
X99055000Y-60838000D01*
D23*
G04 #@! TO.N,Net-(C4-Pad1)*
X102870000Y-59055000D02*
X102870000Y-60960000D01*
X104770000Y-66675000D02*
X104770000Y-61590000D01*
X104140000Y-60960000D02*
X102870000Y-60960000D01*
X104770000Y-61590000D02*
X104140000Y-60960000D01*
G04 #@! TO.N,Net-(C5-Pad1)*
X105070000Y-59055000D02*
X107320000Y-59055000D01*
G04 #@! TO.N,Net-(C6-Pad1)*
X107950000Y-63500000D02*
X109220000Y-63500000D01*
X106680000Y-66995000D02*
X106680000Y-64770000D01*
X106680000Y-64770000D02*
X107950000Y-63500000D01*
D22*
G04 #@! TO.N,Net-(C7-Pad1)*
X118745000Y-60325000D02*
X118745000Y-63500000D01*
X119375000Y-64770000D02*
X120015000Y-65410000D01*
X119375000Y-64770000D02*
X119375000Y-64765000D01*
X118745000Y-64135000D02*
X118745000Y-63500000D01*
X119375000Y-64765000D02*
X118745000Y-64135000D01*
X118745000Y-64135000D02*
X118110000Y-64770000D01*
X117475000Y-64770000D02*
X118110000Y-64770000D01*
X118110000Y-64770000D02*
X119375000Y-64770000D01*
X120020000Y-65405000D02*
X120015000Y-65410000D01*
X122555000Y-65405000D02*
X120020000Y-65405000D01*
X114935000Y-62230000D02*
X117475000Y-64770000D01*
X113665000Y-62230000D02*
X114935000Y-62230000D01*
G04 #@! TO.N,Net-(D1-Pad2)*
X118655000Y-51435000D02*
X118745000Y-51525000D01*
X109220000Y-51435000D02*
X118655000Y-51435000D01*
X112395000Y-54610000D02*
X109220000Y-51435000D01*
X112395000Y-55245000D02*
X112395000Y-54610000D01*
X109220000Y-64770000D02*
X108585000Y-64770000D01*
X107950000Y-65405000D02*
X107950000Y-66675000D01*
X108585000Y-64770000D02*
X107950000Y-65405000D01*
D23*
G04 #@! TO.N,Net-(R2-Pad2)*
X111760000Y-61935000D02*
X111465000Y-62230000D01*
X111760000Y-59055000D02*
X111760000Y-61935000D01*
X109220000Y-62230000D02*
X111465000Y-62230000D01*
G04 #@! TD*
M02*
