%FSLAX45Y45*%
G04 Gerber Fmt 4.5, Leading zero omitted, Abs format (unit mm)*
G04 Created by KiCad (PCBNEW (5.0.0)) date 09/01/18 15:30:58*
%MOMM*%
%LPD*%
G01*
G04 APERTURE LIST*
%ADD10C,0.150000*%
%ADD11C,0.200000*%
%ADD12C,0.300000*%
G04 APERTURE END LIST*
D10*
X12509500Y-4508500D02*
X12509500Y-7048500D01*
X8699500Y-4508500D02*
X12509500Y-4508500D01*
X8699500Y-7048500D02*
X8699500Y-4508500D01*
X12509500Y-7048500D02*
X8699500Y-7048500D01*
D11*
D12*
X8978428Y-7521714D02*
X8978428Y-7221714D01*
X9049857Y-7221714D01*
X9092714Y-7236000D01*
X9121286Y-7264571D01*
X9135571Y-7293143D01*
X9149857Y-7350286D01*
X9149857Y-7393143D01*
X9135571Y-7450286D01*
X9121286Y-7478857D01*
X9092714Y-7507429D01*
X9049857Y-7521714D01*
X8978428Y-7521714D01*
X9278428Y-7521714D02*
X9278428Y-7321714D01*
X9278428Y-7378857D02*
X9292714Y-7350286D01*
X9307000Y-7336000D01*
X9335571Y-7321714D01*
X9364143Y-7321714D01*
X9464143Y-7521714D02*
X9464143Y-7321714D01*
X9464143Y-7221714D02*
X9449857Y-7236000D01*
X9464143Y-7250286D01*
X9478428Y-7236000D01*
X9464143Y-7221714D01*
X9464143Y-7250286D01*
X9649857Y-7521714D02*
X9621286Y-7507429D01*
X9607000Y-7478857D01*
X9607000Y-7221714D01*
X9807000Y-7521714D02*
X9778428Y-7507429D01*
X9764143Y-7478857D01*
X9764143Y-7221714D01*
X10149857Y-7521714D02*
X10149857Y-7221714D01*
X10249857Y-7436000D01*
X10349857Y-7221714D01*
X10349857Y-7521714D01*
X10621286Y-7521714D02*
X10621286Y-7364571D01*
X10607000Y-7336000D01*
X10578428Y-7321714D01*
X10521286Y-7321714D01*
X10492714Y-7336000D01*
X10621286Y-7507429D02*
X10592714Y-7521714D01*
X10521286Y-7521714D01*
X10492714Y-7507429D01*
X10478428Y-7478857D01*
X10478428Y-7450286D01*
X10492714Y-7421714D01*
X10521286Y-7407429D01*
X10592714Y-7407429D01*
X10621286Y-7393143D01*
X10764143Y-7321714D02*
X10764143Y-7621714D01*
X10764143Y-7336000D02*
X10792714Y-7321714D01*
X10849857Y-7321714D01*
X10878428Y-7336000D01*
X10892714Y-7350286D01*
X10907000Y-7378857D01*
X10907000Y-7464571D01*
X10892714Y-7493143D01*
X10878428Y-7507429D01*
X10849857Y-7521714D01*
X10792714Y-7521714D01*
X10764143Y-7507429D01*
X11035571Y-7493143D02*
X11049857Y-7507429D01*
X11035571Y-7521714D01*
X11021286Y-7507429D01*
X11035571Y-7493143D01*
X11035571Y-7521714D01*
X11035571Y-7336000D02*
X11049857Y-7350286D01*
X11035571Y-7364571D01*
X11021286Y-7350286D01*
X11035571Y-7336000D01*
X11035571Y-7364571D01*
M02*
