%FSLAX45Y45*%
G04 Gerber Fmt 4.5, Leading zero omitted, Abs format (unit mm)*
G04 Created by KiCad (PCBNEW (5.0.0)) date 09/01/18 15:30:58*
%MOMM*%
%LPD*%
G01*
G04 APERTURE LIST*
%ADD10C,0.150000*%
%ADD11C,0.200000*%
%ADD12C,0.300000*%
G04 APERTURE END LIST*
D10*
X12509500Y-4508500D02*
X12509500Y-7048500D01*
X8699500Y-4508500D02*
X12509500Y-4508500D01*
X8699500Y-7048500D02*
X8699500Y-4508500D01*
X12509500Y-7048500D02*
X8699500Y-7048500D01*
D11*
X9680500Y-6124500D02*
X9750500Y-6194500D01*
X9750500Y-6124500D02*
X9680500Y-6194500D01*
X9680500Y-6624500D02*
X9750500Y-6694500D01*
X9750500Y-6624500D02*
X9680500Y-6694500D01*
X11212500Y-6442000D02*
X11282500Y-6512000D01*
X11282500Y-6442000D02*
X11212500Y-6512000D01*
X11712500Y-6442000D02*
X11782500Y-6512000D01*
X11782500Y-6442000D02*
X11712500Y-6512000D01*
X10835000Y-6667500D02*
G75*
G03X10835000Y-6667500I-40000J0D01*
G01*
X10962000Y-6889500D02*
G75*
G03X10962000Y-6889500I-40000J0D01*
G01*
X11279500Y-5524500D02*
G75*
G03X11279500Y-5524500I-40000J0D01*
G01*
X11406500Y-5702300D02*
G75*
G03X11406500Y-5702300I-40000J0D01*
G01*
X12255500Y-6490500D02*
X12255500Y-6590500D01*
X12205500Y-6540500D02*
X12305500Y-6540500D01*
X12255500Y-6744500D02*
X12255500Y-6844500D01*
X12205500Y-6794500D02*
X12305500Y-6794500D01*
X8890000Y-6236500D02*
X8890000Y-6336500D01*
X8840000Y-6286500D02*
X8940000Y-6286500D01*
X8890000Y-6490500D02*
X8890000Y-6590500D01*
X8840000Y-6540500D02*
X8940000Y-6540500D01*
D12*
X8978428Y-7521714D02*
X8978428Y-7221714D01*
X9049857Y-7221714D01*
X9092714Y-7236000D01*
X9121286Y-7264571D01*
X9135571Y-7293143D01*
X9149857Y-7350286D01*
X9149857Y-7393143D01*
X9135571Y-7450286D01*
X9121286Y-7478857D01*
X9092714Y-7507429D01*
X9049857Y-7521714D01*
X8978428Y-7521714D01*
X9278428Y-7521714D02*
X9278428Y-7321714D01*
X9278428Y-7378857D02*
X9292714Y-7350286D01*
X9307000Y-7336000D01*
X9335571Y-7321714D01*
X9364143Y-7321714D01*
X9464143Y-7521714D02*
X9464143Y-7321714D01*
X9464143Y-7221714D02*
X9449857Y-7236000D01*
X9464143Y-7250286D01*
X9478428Y-7236000D01*
X9464143Y-7221714D01*
X9464143Y-7250286D01*
X9649857Y-7521714D02*
X9621286Y-7507429D01*
X9607000Y-7478857D01*
X9607000Y-7221714D01*
X9807000Y-7521714D02*
X9778428Y-7507429D01*
X9764143Y-7478857D01*
X9764143Y-7221714D01*
X10149857Y-7521714D02*
X10149857Y-7221714D01*
X10249857Y-7436000D01*
X10349857Y-7221714D01*
X10349857Y-7521714D01*
X10621286Y-7521714D02*
X10621286Y-7364571D01*
X10607000Y-7336000D01*
X10578428Y-7321714D01*
X10521286Y-7321714D01*
X10492714Y-7336000D01*
X10621286Y-7507429D02*
X10592714Y-7521714D01*
X10521286Y-7521714D01*
X10492714Y-7507429D01*
X10478428Y-7478857D01*
X10478428Y-7450286D01*
X10492714Y-7421714D01*
X10521286Y-7407429D01*
X10592714Y-7407429D01*
X10621286Y-7393143D01*
X10764143Y-7321714D02*
X10764143Y-7621714D01*
X10764143Y-7336000D02*
X10792714Y-7321714D01*
X10849857Y-7321714D01*
X10878428Y-7336000D01*
X10892714Y-7350286D01*
X10907000Y-7378857D01*
X10907000Y-7464571D01*
X10892714Y-7493143D01*
X10878428Y-7507429D01*
X10849857Y-7521714D01*
X10792714Y-7521714D01*
X10764143Y-7507429D01*
X11035571Y-7493143D02*
X11049857Y-7507429D01*
X11035571Y-7521714D01*
X11021286Y-7507429D01*
X11035571Y-7493143D01*
X11035571Y-7521714D01*
X11035571Y-7336000D02*
X11049857Y-7350286D01*
X11035571Y-7364571D01*
X11021286Y-7350286D01*
X11035571Y-7336000D01*
X11035571Y-7364571D01*
X8622000Y-7981000D02*
X8692000Y-8051000D01*
X8692000Y-7981000D02*
X8622000Y-8051000D01*
X9035571Y-7851714D02*
X9064143Y-7851714D01*
X9092714Y-7866000D01*
X9107000Y-7880286D01*
X9121286Y-7908857D01*
X9135571Y-7966000D01*
X9135571Y-8037429D01*
X9121286Y-8094571D01*
X9107000Y-8123143D01*
X9092714Y-8137429D01*
X9064143Y-8151714D01*
X9035571Y-8151714D01*
X9007000Y-8137429D01*
X8992714Y-8123143D01*
X8978428Y-8094571D01*
X8964143Y-8037429D01*
X8964143Y-7966000D01*
X8978428Y-7908857D01*
X8992714Y-7880286D01*
X9007000Y-7866000D01*
X9035571Y-7851714D01*
X9264143Y-8123143D02*
X9278428Y-8137429D01*
X9264143Y-8151714D01*
X9249857Y-8137429D01*
X9264143Y-8123143D01*
X9264143Y-8151714D01*
X9378428Y-7851714D02*
X9578428Y-7851714D01*
X9449857Y-8151714D01*
X9749857Y-7851714D02*
X9778428Y-7851714D01*
X9807000Y-7866000D01*
X9821286Y-7880286D01*
X9835571Y-7908857D01*
X9849857Y-7966000D01*
X9849857Y-8037429D01*
X9835571Y-8094571D01*
X9821286Y-8123143D01*
X9807000Y-8137429D01*
X9778428Y-8151714D01*
X9749857Y-8151714D01*
X9721286Y-8137429D01*
X9707000Y-8123143D01*
X9692714Y-8094571D01*
X9678428Y-8037429D01*
X9678428Y-7966000D01*
X9692714Y-7908857D01*
X9707000Y-7880286D01*
X9721286Y-7866000D01*
X9749857Y-7851714D01*
X9978428Y-8151714D02*
X9978428Y-7951714D01*
X9978428Y-7980286D02*
X9992714Y-7966000D01*
X10021286Y-7951714D01*
X10064143Y-7951714D01*
X10092714Y-7966000D01*
X10107000Y-7994571D01*
X10107000Y-8151714D01*
X10107000Y-7994571D02*
X10121286Y-7966000D01*
X10149857Y-7951714D01*
X10192714Y-7951714D01*
X10221286Y-7966000D01*
X10235571Y-7994571D01*
X10235571Y-8151714D01*
X10378428Y-8151714D02*
X10378428Y-7951714D01*
X10378428Y-7980286D02*
X10392714Y-7966000D01*
X10421286Y-7951714D01*
X10464143Y-7951714D01*
X10492714Y-7966000D01*
X10507000Y-7994571D01*
X10507000Y-8151714D01*
X10507000Y-7994571D02*
X10521286Y-7966000D01*
X10549857Y-7951714D01*
X10592714Y-7951714D01*
X10621286Y-7966000D01*
X10635571Y-7994571D01*
X10635571Y-8151714D01*
X11221286Y-7837429D02*
X10964143Y-8223143D01*
X11607000Y-7851714D02*
X11635571Y-7851714D01*
X11664143Y-7866000D01*
X11678428Y-7880286D01*
X11692714Y-7908857D01*
X11707000Y-7966000D01*
X11707000Y-8037429D01*
X11692714Y-8094571D01*
X11678428Y-8123143D01*
X11664143Y-8137429D01*
X11635571Y-8151714D01*
X11607000Y-8151714D01*
X11578428Y-8137429D01*
X11564143Y-8123143D01*
X11549857Y-8094571D01*
X11535571Y-8037429D01*
X11535571Y-7966000D01*
X11549857Y-7908857D01*
X11564143Y-7880286D01*
X11578428Y-7866000D01*
X11607000Y-7851714D01*
X11835571Y-8123143D02*
X11849857Y-8137429D01*
X11835571Y-8151714D01*
X11821286Y-8137429D01*
X11835571Y-8123143D01*
X11835571Y-8151714D01*
X12035571Y-7851714D02*
X12064143Y-7851714D01*
X12092714Y-7866000D01*
X12107000Y-7880286D01*
X12121286Y-7908857D01*
X12135571Y-7966000D01*
X12135571Y-8037429D01*
X12121286Y-8094571D01*
X12107000Y-8123143D01*
X12092714Y-8137429D01*
X12064143Y-8151714D01*
X12035571Y-8151714D01*
X12007000Y-8137429D01*
X11992714Y-8123143D01*
X11978428Y-8094571D01*
X11964143Y-8037429D01*
X11964143Y-7966000D01*
X11978428Y-7908857D01*
X11992714Y-7880286D01*
X12007000Y-7866000D01*
X12035571Y-7851714D01*
X12249857Y-7880286D02*
X12264143Y-7866000D01*
X12292714Y-7851714D01*
X12364143Y-7851714D01*
X12392714Y-7866000D01*
X12407000Y-7880286D01*
X12421286Y-7908857D01*
X12421286Y-7937429D01*
X12407000Y-7980286D01*
X12235571Y-8151714D01*
X12421286Y-8151714D01*
X12592714Y-7980286D02*
X12564143Y-7966000D01*
X12549857Y-7951714D01*
X12535571Y-7923143D01*
X12535571Y-7908857D01*
X12549857Y-7880286D01*
X12564143Y-7866000D01*
X12592714Y-7851714D01*
X12649857Y-7851714D01*
X12678428Y-7866000D01*
X12692714Y-7880286D01*
X12707000Y-7908857D01*
X12707000Y-7923143D01*
X12692714Y-7951714D01*
X12678428Y-7966000D01*
X12649857Y-7980286D01*
X12592714Y-7980286D01*
X12564143Y-7994571D01*
X12549857Y-8008857D01*
X12535571Y-8037429D01*
X12535571Y-8094571D01*
X12549857Y-8123143D01*
X12564143Y-8137429D01*
X12592714Y-8151714D01*
X12649857Y-8151714D01*
X12678428Y-8137429D01*
X12692714Y-8123143D01*
X12707000Y-8094571D01*
X12707000Y-8037429D01*
X12692714Y-8008857D01*
X12678428Y-7994571D01*
X12649857Y-7980286D01*
X12821286Y-7851714D02*
X12821286Y-7908857D01*
X12935571Y-7851714D02*
X12935571Y-7908857D01*
X13378428Y-8266000D02*
X13364143Y-8251714D01*
X13335571Y-8208857D01*
X13321286Y-8180286D01*
X13307000Y-8137429D01*
X13292714Y-8066000D01*
X13292714Y-8008857D01*
X13307000Y-7937429D01*
X13321286Y-7894571D01*
X13335571Y-7866000D01*
X13364143Y-7823143D01*
X13378428Y-7808857D01*
X13621286Y-7951714D02*
X13621286Y-8151714D01*
X13549857Y-7837429D02*
X13478428Y-8051714D01*
X13664143Y-8051714D01*
X14007000Y-8151714D02*
X14007000Y-7851714D01*
X14135571Y-8151714D02*
X14135571Y-7994571D01*
X14121286Y-7966000D01*
X14092714Y-7951714D01*
X14049857Y-7951714D01*
X14021286Y-7966000D01*
X14007000Y-7980286D01*
X14321286Y-8151714D02*
X14292714Y-8137429D01*
X14278428Y-8123143D01*
X14264143Y-8094571D01*
X14264143Y-8008857D01*
X14278428Y-7980286D01*
X14292714Y-7966000D01*
X14321286Y-7951714D01*
X14364143Y-7951714D01*
X14392714Y-7966000D01*
X14407000Y-7980286D01*
X14421286Y-8008857D01*
X14421286Y-8094571D01*
X14407000Y-8123143D01*
X14392714Y-8137429D01*
X14364143Y-8151714D01*
X14321286Y-8151714D01*
X14592714Y-8151714D02*
X14564143Y-8137429D01*
X14549857Y-8108857D01*
X14549857Y-7851714D01*
X14821286Y-8137429D02*
X14792714Y-8151714D01*
X14735571Y-8151714D01*
X14707000Y-8137429D01*
X14692714Y-8108857D01*
X14692714Y-7994571D01*
X14707000Y-7966000D01*
X14735571Y-7951714D01*
X14792714Y-7951714D01*
X14821286Y-7966000D01*
X14835571Y-7994571D01*
X14835571Y-8023143D01*
X14692714Y-8051714D01*
X14949857Y-8137429D02*
X14978428Y-8151714D01*
X15035571Y-8151714D01*
X15064143Y-8137429D01*
X15078428Y-8108857D01*
X15078428Y-8094571D01*
X15064143Y-8066000D01*
X15035571Y-8051714D01*
X14992714Y-8051714D01*
X14964143Y-8037429D01*
X14949857Y-8008857D01*
X14949857Y-7994571D01*
X14964143Y-7966000D01*
X14992714Y-7951714D01*
X15035571Y-7951714D01*
X15064143Y-7966000D01*
X15178428Y-8266000D02*
X15192714Y-8251714D01*
X15221286Y-8208857D01*
X15235571Y-8180286D01*
X15249857Y-8137429D01*
X15264143Y-8066000D01*
X15264143Y-8008857D01*
X15249857Y-7937429D01*
X15235571Y-7894571D01*
X15221286Y-7866000D01*
X15192714Y-7823143D01*
X15178428Y-7808857D01*
X8692000Y-8412000D02*
G75*
G03X8692000Y-8412000I-40000J0D01*
G01*
X9035571Y-8247714D02*
X9064143Y-8247714D01*
X9092714Y-8262000D01*
X9107000Y-8276286D01*
X9121286Y-8304857D01*
X9135571Y-8362000D01*
X9135571Y-8433429D01*
X9121286Y-8490572D01*
X9107000Y-8519143D01*
X9092714Y-8533429D01*
X9064143Y-8547714D01*
X9035571Y-8547714D01*
X9007000Y-8533429D01*
X8992714Y-8519143D01*
X8978428Y-8490572D01*
X8964143Y-8433429D01*
X8964143Y-8362000D01*
X8978428Y-8304857D01*
X8992714Y-8276286D01*
X9007000Y-8262000D01*
X9035571Y-8247714D01*
X9264143Y-8519143D02*
X9278428Y-8533429D01*
X9264143Y-8547714D01*
X9249857Y-8533429D01*
X9264143Y-8519143D01*
X9264143Y-8547714D01*
X9449857Y-8376286D02*
X9421286Y-8362000D01*
X9407000Y-8347714D01*
X9392714Y-8319143D01*
X9392714Y-8304857D01*
X9407000Y-8276286D01*
X9421286Y-8262000D01*
X9449857Y-8247714D01*
X9507000Y-8247714D01*
X9535571Y-8262000D01*
X9549857Y-8276286D01*
X9564143Y-8304857D01*
X9564143Y-8319143D01*
X9549857Y-8347714D01*
X9535571Y-8362000D01*
X9507000Y-8376286D01*
X9449857Y-8376286D01*
X9421286Y-8390572D01*
X9407000Y-8404857D01*
X9392714Y-8433429D01*
X9392714Y-8490572D01*
X9407000Y-8519143D01*
X9421286Y-8533429D01*
X9449857Y-8547714D01*
X9507000Y-8547714D01*
X9535571Y-8533429D01*
X9549857Y-8519143D01*
X9564143Y-8490572D01*
X9564143Y-8433429D01*
X9549857Y-8404857D01*
X9535571Y-8390572D01*
X9507000Y-8376286D01*
X9749857Y-8247714D02*
X9778428Y-8247714D01*
X9807000Y-8262000D01*
X9821286Y-8276286D01*
X9835571Y-8304857D01*
X9849857Y-8362000D01*
X9849857Y-8433429D01*
X9835571Y-8490572D01*
X9821286Y-8519143D01*
X9807000Y-8533429D01*
X9778428Y-8547714D01*
X9749857Y-8547714D01*
X9721286Y-8533429D01*
X9707000Y-8519143D01*
X9692714Y-8490572D01*
X9678428Y-8433429D01*
X9678428Y-8362000D01*
X9692714Y-8304857D01*
X9707000Y-8276286D01*
X9721286Y-8262000D01*
X9749857Y-8247714D01*
X9978428Y-8547714D02*
X9978428Y-8347714D01*
X9978428Y-8376286D02*
X9992714Y-8362000D01*
X10021286Y-8347714D01*
X10064143Y-8347714D01*
X10092714Y-8362000D01*
X10107000Y-8390572D01*
X10107000Y-8547714D01*
X10107000Y-8390572D02*
X10121286Y-8362000D01*
X10149857Y-8347714D01*
X10192714Y-8347714D01*
X10221286Y-8362000D01*
X10235571Y-8390572D01*
X10235571Y-8547714D01*
X10378428Y-8547714D02*
X10378428Y-8347714D01*
X10378428Y-8376286D02*
X10392714Y-8362000D01*
X10421286Y-8347714D01*
X10464143Y-8347714D01*
X10492714Y-8362000D01*
X10507000Y-8390572D01*
X10507000Y-8547714D01*
X10507000Y-8390572D02*
X10521286Y-8362000D01*
X10549857Y-8347714D01*
X10592714Y-8347714D01*
X10621286Y-8362000D01*
X10635571Y-8390572D01*
X10635571Y-8547714D01*
X11221286Y-8233429D02*
X10964143Y-8619143D01*
X11607000Y-8247714D02*
X11635571Y-8247714D01*
X11664143Y-8262000D01*
X11678428Y-8276286D01*
X11692714Y-8304857D01*
X11707000Y-8362000D01*
X11707000Y-8433429D01*
X11692714Y-8490572D01*
X11678428Y-8519143D01*
X11664143Y-8533429D01*
X11635571Y-8547714D01*
X11607000Y-8547714D01*
X11578428Y-8533429D01*
X11564143Y-8519143D01*
X11549857Y-8490572D01*
X11535571Y-8433429D01*
X11535571Y-8362000D01*
X11549857Y-8304857D01*
X11564143Y-8276286D01*
X11578428Y-8262000D01*
X11607000Y-8247714D01*
X11835571Y-8519143D02*
X11849857Y-8533429D01*
X11835571Y-8547714D01*
X11821286Y-8533429D01*
X11835571Y-8519143D01*
X11835571Y-8547714D01*
X12035571Y-8247714D02*
X12064143Y-8247714D01*
X12092714Y-8262000D01*
X12107000Y-8276286D01*
X12121286Y-8304857D01*
X12135571Y-8362000D01*
X12135571Y-8433429D01*
X12121286Y-8490572D01*
X12107000Y-8519143D01*
X12092714Y-8533429D01*
X12064143Y-8547714D01*
X12035571Y-8547714D01*
X12007000Y-8533429D01*
X11992714Y-8519143D01*
X11978428Y-8490572D01*
X11964143Y-8433429D01*
X11964143Y-8362000D01*
X11978428Y-8304857D01*
X11992714Y-8276286D01*
X12007000Y-8262000D01*
X12035571Y-8247714D01*
X12235571Y-8247714D02*
X12421286Y-8247714D01*
X12321286Y-8362000D01*
X12364143Y-8362000D01*
X12392714Y-8376286D01*
X12407000Y-8390572D01*
X12421286Y-8419143D01*
X12421286Y-8490572D01*
X12407000Y-8519143D01*
X12392714Y-8533429D01*
X12364143Y-8547714D01*
X12278428Y-8547714D01*
X12249857Y-8533429D01*
X12235571Y-8519143D01*
X12707000Y-8547714D02*
X12535571Y-8547714D01*
X12621286Y-8547714D02*
X12621286Y-8247714D01*
X12592714Y-8290571D01*
X12564143Y-8319143D01*
X12535571Y-8333429D01*
X12821286Y-8247714D02*
X12821286Y-8304857D01*
X12935571Y-8247714D02*
X12935571Y-8304857D01*
X13378428Y-8662000D02*
X13364143Y-8647714D01*
X13335571Y-8604857D01*
X13321286Y-8576286D01*
X13307000Y-8533429D01*
X13292714Y-8462000D01*
X13292714Y-8404857D01*
X13307000Y-8333429D01*
X13321286Y-8290571D01*
X13335571Y-8262000D01*
X13364143Y-8219143D01*
X13378428Y-8204857D01*
X13621286Y-8347714D02*
X13621286Y-8547714D01*
X13549857Y-8233429D02*
X13478428Y-8447714D01*
X13664143Y-8447714D01*
X14007000Y-8547714D02*
X14007000Y-8247714D01*
X14135571Y-8547714D02*
X14135571Y-8390572D01*
X14121286Y-8362000D01*
X14092714Y-8347714D01*
X14049857Y-8347714D01*
X14021286Y-8362000D01*
X14007000Y-8376286D01*
X14321286Y-8547714D02*
X14292714Y-8533429D01*
X14278428Y-8519143D01*
X14264143Y-8490572D01*
X14264143Y-8404857D01*
X14278428Y-8376286D01*
X14292714Y-8362000D01*
X14321286Y-8347714D01*
X14364143Y-8347714D01*
X14392714Y-8362000D01*
X14407000Y-8376286D01*
X14421286Y-8404857D01*
X14421286Y-8490572D01*
X14407000Y-8519143D01*
X14392714Y-8533429D01*
X14364143Y-8547714D01*
X14321286Y-8547714D01*
X14592714Y-8547714D02*
X14564143Y-8533429D01*
X14549857Y-8504857D01*
X14549857Y-8247714D01*
X14821286Y-8533429D02*
X14792714Y-8547714D01*
X14735571Y-8547714D01*
X14707000Y-8533429D01*
X14692714Y-8504857D01*
X14692714Y-8390572D01*
X14707000Y-8362000D01*
X14735571Y-8347714D01*
X14792714Y-8347714D01*
X14821286Y-8362000D01*
X14835571Y-8390572D01*
X14835571Y-8419143D01*
X14692714Y-8447714D01*
X14949857Y-8533429D02*
X14978428Y-8547714D01*
X15035571Y-8547714D01*
X15064143Y-8533429D01*
X15078428Y-8504857D01*
X15078428Y-8490572D01*
X15064143Y-8462000D01*
X15035571Y-8447714D01*
X14992714Y-8447714D01*
X14964143Y-8433429D01*
X14949857Y-8404857D01*
X14949857Y-8390572D01*
X14964143Y-8362000D01*
X14992714Y-8347714D01*
X15035571Y-8347714D01*
X15064143Y-8362000D01*
X15178428Y-8662000D02*
X15192714Y-8647714D01*
X15221286Y-8604857D01*
X15235571Y-8576286D01*
X15249857Y-8533429D01*
X15264143Y-8462000D01*
X15264143Y-8404857D01*
X15249857Y-8333429D01*
X15235571Y-8290571D01*
X15221286Y-8262000D01*
X15192714Y-8219143D01*
X15178428Y-8204857D01*
X8642000Y-8758000D02*
X8642000Y-8858000D01*
X8592000Y-8808000D02*
X8692000Y-8808000D01*
X9135571Y-8943714D02*
X8964143Y-8943714D01*
X9049857Y-8943714D02*
X9049857Y-8643714D01*
X9021286Y-8686572D01*
X8992714Y-8715143D01*
X8964143Y-8729429D01*
X9264143Y-8915143D02*
X9278428Y-8929429D01*
X9264143Y-8943714D01*
X9249857Y-8929429D01*
X9264143Y-8915143D01*
X9264143Y-8943714D01*
X9464143Y-8643714D02*
X9492714Y-8643714D01*
X9521286Y-8658000D01*
X9535571Y-8672286D01*
X9549857Y-8700857D01*
X9564143Y-8758000D01*
X9564143Y-8829429D01*
X9549857Y-8886572D01*
X9535571Y-8915143D01*
X9521286Y-8929429D01*
X9492714Y-8943714D01*
X9464143Y-8943714D01*
X9435571Y-8929429D01*
X9421286Y-8915143D01*
X9407000Y-8886572D01*
X9392714Y-8829429D01*
X9392714Y-8758000D01*
X9407000Y-8700857D01*
X9421286Y-8672286D01*
X9435571Y-8658000D01*
X9464143Y-8643714D01*
X9749857Y-8643714D02*
X9778428Y-8643714D01*
X9807000Y-8658000D01*
X9821286Y-8672286D01*
X9835571Y-8700857D01*
X9849857Y-8758000D01*
X9849857Y-8829429D01*
X9835571Y-8886572D01*
X9821286Y-8915143D01*
X9807000Y-8929429D01*
X9778428Y-8943714D01*
X9749857Y-8943714D01*
X9721286Y-8929429D01*
X9707000Y-8915143D01*
X9692714Y-8886572D01*
X9678428Y-8829429D01*
X9678428Y-8758000D01*
X9692714Y-8700857D01*
X9707000Y-8672286D01*
X9721286Y-8658000D01*
X9749857Y-8643714D01*
X9978428Y-8943714D02*
X9978428Y-8743714D01*
X9978428Y-8772286D02*
X9992714Y-8758000D01*
X10021286Y-8743714D01*
X10064143Y-8743714D01*
X10092714Y-8758000D01*
X10107000Y-8786572D01*
X10107000Y-8943714D01*
X10107000Y-8786572D02*
X10121286Y-8758000D01*
X10149857Y-8743714D01*
X10192714Y-8743714D01*
X10221286Y-8758000D01*
X10235571Y-8786572D01*
X10235571Y-8943714D01*
X10378428Y-8943714D02*
X10378428Y-8743714D01*
X10378428Y-8772286D02*
X10392714Y-8758000D01*
X10421286Y-8743714D01*
X10464143Y-8743714D01*
X10492714Y-8758000D01*
X10507000Y-8786572D01*
X10507000Y-8943714D01*
X10507000Y-8786572D02*
X10521286Y-8758000D01*
X10549857Y-8743714D01*
X10592714Y-8743714D01*
X10621286Y-8758000D01*
X10635571Y-8786572D01*
X10635571Y-8943714D01*
X11221286Y-8629429D02*
X10964143Y-9015143D01*
X11607000Y-8643714D02*
X11635571Y-8643714D01*
X11664143Y-8658000D01*
X11678428Y-8672286D01*
X11692714Y-8700857D01*
X11707000Y-8758000D01*
X11707000Y-8829429D01*
X11692714Y-8886572D01*
X11678428Y-8915143D01*
X11664143Y-8929429D01*
X11635571Y-8943714D01*
X11607000Y-8943714D01*
X11578428Y-8929429D01*
X11564143Y-8915143D01*
X11549857Y-8886572D01*
X11535571Y-8829429D01*
X11535571Y-8758000D01*
X11549857Y-8700857D01*
X11564143Y-8672286D01*
X11578428Y-8658000D01*
X11607000Y-8643714D01*
X11835571Y-8915143D02*
X11849857Y-8929429D01*
X11835571Y-8943714D01*
X11821286Y-8929429D01*
X11835571Y-8915143D01*
X11835571Y-8943714D01*
X12035571Y-8643714D02*
X12064143Y-8643714D01*
X12092714Y-8658000D01*
X12107000Y-8672286D01*
X12121286Y-8700857D01*
X12135571Y-8758000D01*
X12135571Y-8829429D01*
X12121286Y-8886572D01*
X12107000Y-8915143D01*
X12092714Y-8929429D01*
X12064143Y-8943714D01*
X12035571Y-8943714D01*
X12007000Y-8929429D01*
X11992714Y-8915143D01*
X11978428Y-8886572D01*
X11964143Y-8829429D01*
X11964143Y-8758000D01*
X11978428Y-8700857D01*
X11992714Y-8672286D01*
X12007000Y-8658000D01*
X12035571Y-8643714D01*
X12235571Y-8643714D02*
X12421286Y-8643714D01*
X12321286Y-8758000D01*
X12364143Y-8758000D01*
X12392714Y-8772286D01*
X12407000Y-8786572D01*
X12421286Y-8815143D01*
X12421286Y-8886572D01*
X12407000Y-8915143D01*
X12392714Y-8929429D01*
X12364143Y-8943714D01*
X12278428Y-8943714D01*
X12249857Y-8929429D01*
X12235571Y-8915143D01*
X12564143Y-8943714D02*
X12621286Y-8943714D01*
X12649857Y-8929429D01*
X12664143Y-8915143D01*
X12692714Y-8872286D01*
X12707000Y-8815143D01*
X12707000Y-8700857D01*
X12692714Y-8672286D01*
X12678428Y-8658000D01*
X12649857Y-8643714D01*
X12592714Y-8643714D01*
X12564143Y-8658000D01*
X12549857Y-8672286D01*
X12535571Y-8700857D01*
X12535571Y-8772286D01*
X12549857Y-8800857D01*
X12564143Y-8815143D01*
X12592714Y-8829429D01*
X12649857Y-8829429D01*
X12678428Y-8815143D01*
X12692714Y-8800857D01*
X12707000Y-8772286D01*
X12821286Y-8643714D02*
X12821286Y-8700857D01*
X12935571Y-8643714D02*
X12935571Y-8700857D01*
X13378428Y-9058000D02*
X13364143Y-9043714D01*
X13335571Y-9000857D01*
X13321286Y-8972286D01*
X13307000Y-8929429D01*
X13292714Y-8858000D01*
X13292714Y-8800857D01*
X13307000Y-8729429D01*
X13321286Y-8686572D01*
X13335571Y-8658000D01*
X13364143Y-8615143D01*
X13378428Y-8600857D01*
X13621286Y-8743714D02*
X13621286Y-8943714D01*
X13549857Y-8629429D02*
X13478428Y-8843714D01*
X13664143Y-8843714D01*
X14007000Y-8943714D02*
X14007000Y-8643714D01*
X14135571Y-8943714D02*
X14135571Y-8786572D01*
X14121286Y-8758000D01*
X14092714Y-8743714D01*
X14049857Y-8743714D01*
X14021286Y-8758000D01*
X14007000Y-8772286D01*
X14321286Y-8943714D02*
X14292714Y-8929429D01*
X14278428Y-8915143D01*
X14264143Y-8886572D01*
X14264143Y-8800857D01*
X14278428Y-8772286D01*
X14292714Y-8758000D01*
X14321286Y-8743714D01*
X14364143Y-8743714D01*
X14392714Y-8758000D01*
X14407000Y-8772286D01*
X14421286Y-8800857D01*
X14421286Y-8886572D01*
X14407000Y-8915143D01*
X14392714Y-8929429D01*
X14364143Y-8943714D01*
X14321286Y-8943714D01*
X14592714Y-8943714D02*
X14564143Y-8929429D01*
X14549857Y-8900857D01*
X14549857Y-8643714D01*
X14821286Y-8929429D02*
X14792714Y-8943714D01*
X14735571Y-8943714D01*
X14707000Y-8929429D01*
X14692714Y-8900857D01*
X14692714Y-8786572D01*
X14707000Y-8758000D01*
X14735571Y-8743714D01*
X14792714Y-8743714D01*
X14821286Y-8758000D01*
X14835571Y-8786572D01*
X14835571Y-8815143D01*
X14692714Y-8843714D01*
X14949857Y-8929429D02*
X14978428Y-8943714D01*
X15035571Y-8943714D01*
X15064143Y-8929429D01*
X15078428Y-8900857D01*
X15078428Y-8886572D01*
X15064143Y-8858000D01*
X15035571Y-8843714D01*
X14992714Y-8843714D01*
X14964143Y-8829429D01*
X14949857Y-8800857D01*
X14949857Y-8786572D01*
X14964143Y-8758000D01*
X14992714Y-8743714D01*
X15035571Y-8743714D01*
X15064143Y-8758000D01*
X15178428Y-9058000D02*
X15192714Y-9043714D01*
X15221286Y-9000857D01*
X15235571Y-8972286D01*
X15249857Y-8929429D01*
X15264143Y-8858000D01*
X15264143Y-8800857D01*
X15249857Y-8729429D01*
X15235571Y-8686572D01*
X15221286Y-8658000D01*
X15192714Y-8615143D01*
X15178428Y-8600857D01*
M02*
