G04 #@! TF.GenerationSoftware,KiCad,Pcbnew,(5.0.0)*
G04 #@! TF.CreationDate,2018-10-20T16:06:51+08:00*
G04 #@! TF.ProjectId,PSU 4CH V1,505355203443482056312E6B69636164,rev?*
G04 #@! TF.SameCoordinates,Original*
G04 #@! TF.FileFunction,Legend,Bot*
G04 #@! TF.FilePolarity,Positive*
%FSLAX46Y46*%
G04 Gerber Fmt 4.6, Leading zero omitted, Abs format (unit mm)*
G04 Created by KiCad (PCBNEW (5.0.0)) date 10/20/18 16:06:51*
%MOMM*%
%LPD*%
G01*
G04 APERTURE LIST*
%ADD10C,0.120000*%
G04 APERTURE END LIST*
D10*
G04 #@! TO.C,C1*
X131988000Y-145126000D02*
X131988000Y-145826000D01*
X133188000Y-145826000D02*
X133188000Y-145126000D01*
G04 #@! TO.C,C2*
X139354000Y-150968000D02*
X139354000Y-151668000D01*
X140554000Y-151668000D02*
X140554000Y-150968000D01*
G04 #@! TO.C,C3*
X135290000Y-103790000D02*
X135290000Y-104490000D01*
X136490000Y-104490000D02*
X136490000Y-103790000D01*
G04 #@! TO.C,C4*
X136998000Y-140558000D02*
X136998000Y-139858000D01*
X135798000Y-139858000D02*
X135798000Y-140558000D01*
G04 #@! TO.C,C5*
X147666000Y-144688000D02*
X147666000Y-143988000D01*
X146466000Y-143988000D02*
X146466000Y-144688000D01*
G04 #@! TO.C,C6*
X143094000Y-109820000D02*
X143794000Y-109820000D01*
X143794000Y-108620000D02*
X143094000Y-108620000D01*
G04 #@! TO.C,C7*
X124612000Y-134782000D02*
X123912000Y-134782000D01*
X123912000Y-135982000D02*
X124612000Y-135982000D01*
G04 #@! TO.C,C8*
X126146000Y-96612000D02*
X126146000Y-97312000D01*
X127346000Y-97312000D02*
X127346000Y-96612000D01*
G04 #@! TO.C,C11*
X132500000Y-103898000D02*
X132500000Y-102898000D01*
X134200000Y-102898000D02*
X134200000Y-103898000D01*
G04 #@! TO.C,C14*
X140116000Y-116556000D02*
X140116000Y-117256000D01*
X141316000Y-117256000D02*
X141316000Y-116556000D01*
G04 #@! TO.C,Q1*
X114060000Y-129484000D02*
X112600000Y-129484000D01*
X114060000Y-132644000D02*
X111900000Y-132644000D01*
X114060000Y-132644000D02*
X114060000Y-131714000D01*
X114060000Y-129484000D02*
X114060000Y-130414000D01*
G04 #@! TO.C,R1*
X142486000Y-102190000D02*
X141486000Y-102190000D01*
X141486000Y-103550000D02*
X142486000Y-103550000D01*
G04 #@! TO.C,R2*
X145968000Y-102143000D02*
X145968000Y-101143000D01*
X144608000Y-101143000D02*
X144608000Y-102143000D01*
G04 #@! TO.C,R3*
X116758000Y-130548000D02*
X116758000Y-129548000D01*
X115398000Y-129548000D02*
X115398000Y-130548000D01*
G04 #@! TO.C,R4*
X144180000Y-122510000D02*
X143180000Y-122510000D01*
X143180000Y-123870000D02*
X144180000Y-123870000D01*
G04 #@! TO.C,R5*
X143180000Y-125394000D02*
X144180000Y-125394000D01*
X144180000Y-124034000D02*
X143180000Y-124034000D01*
G04 #@! TO.C,R6*
X143180000Y-126918000D02*
X144180000Y-126918000D01*
X144180000Y-125558000D02*
X143180000Y-125558000D01*
G04 #@! TO.C,R7*
X144180000Y-127082000D02*
X143180000Y-127082000D01*
X143180000Y-128442000D02*
X144180000Y-128442000D01*
G04 #@! TO.C,R8*
X139438000Y-144862000D02*
X138438000Y-144862000D01*
X138438000Y-146222000D02*
X139438000Y-146222000D01*
G04 #@! TO.C,R9*
X146222000Y-149260000D02*
X146222000Y-148260000D01*
X144862000Y-148260000D02*
X144862000Y-149260000D01*
G04 #@! TO.C,R10*
X142164000Y-152064000D02*
X143164000Y-152064000D01*
X143164000Y-150704000D02*
X142164000Y-150704000D01*
G04 #@! TO.C,R11*
X142164000Y-150540000D02*
X143164000Y-150540000D01*
X143164000Y-149180000D02*
X142164000Y-149180000D01*
G04 #@! TO.C,R12*
X143199999Y-136825999D02*
X141999999Y-136825999D01*
X141999999Y-138585999D02*
X143199999Y-138585999D01*
G04 #@! TO.C,R13*
X141999999Y-136705999D02*
X143199999Y-136705999D01*
X143199999Y-134945999D02*
X141999999Y-134945999D01*
G04 #@! TO.C,R14*
X140386000Y-141904000D02*
X141386000Y-141904000D01*
X141386000Y-140544000D02*
X140386000Y-140544000D01*
G04 #@! TO.C,R15*
X140386000Y-140380000D02*
X141386000Y-140380000D01*
X141386000Y-139020000D02*
X140386000Y-139020000D01*
G04 #@! TO.C,R16*
X102026000Y-130718000D02*
X102026000Y-129718000D01*
X100666000Y-129718000D02*
X100666000Y-130718000D01*
G04 #@! TO.C,R17*
X109296000Y-119716000D02*
X108296000Y-119716000D01*
X108296000Y-121076000D02*
X109296000Y-121076000D01*
G04 #@! TO.C,R18*
X107196000Y-122600000D02*
X108196000Y-122600000D01*
X108196000Y-121240000D02*
X107196000Y-121240000D01*
G04 #@! TO.C,U1*
X133508000Y-145542000D02*
X133508000Y-142542000D01*
X136748000Y-146542000D02*
X136748000Y-144542000D01*
G04 #@! TO.C,U2*
X141311000Y-145456000D02*
X141311000Y-142456000D01*
X144551000Y-146456000D02*
X144551000Y-144456000D01*
G04 #@! TO.C,U3*
X137176000Y-109570000D02*
X139176000Y-109570000D01*
X138176000Y-106330000D02*
X141176000Y-106330000D01*
G04 #@! TO.C,U4*
X132940000Y-91248000D02*
X131840000Y-91248000D01*
X132940000Y-90558000D02*
X132940000Y-91248000D01*
X134440000Y-90558000D02*
X132940000Y-90558000D01*
X132940000Y-100268000D02*
X127815000Y-100268000D01*
X132940000Y-100958000D02*
X132940000Y-100268000D01*
X134440000Y-100958000D02*
X132940000Y-100958000D01*
G04 #@! TO.C,U5*
X122526000Y-125388000D02*
X121426000Y-125388000D01*
X122526000Y-123578000D02*
X122526000Y-125388000D01*
X124026000Y-123578000D02*
X122526000Y-123578000D01*
X122526000Y-132168000D02*
X117401000Y-132168000D01*
X122526000Y-133978000D02*
X122526000Y-132168000D01*
X124026000Y-133978000D02*
X122526000Y-133978000D01*
G04 #@! TD*
M02*
