G04 #@! TF.GenerationSoftware,KiCad,Pcbnew,(5.0.0)*
G04 #@! TF.CreationDate,2018-10-20T16:06:51+08:00*
G04 #@! TF.ProjectId,PSU 4CH V1,505355203443482056312E6B69636164,rev?*
G04 #@! TF.SameCoordinates,Original*
G04 #@! TF.FileFunction,Legend,Top*
G04 #@! TF.FilePolarity,Positive*
%FSLAX46Y46*%
G04 Gerber Fmt 4.6, Leading zero omitted, Abs format (unit mm)*
G04 Created by KiCad (PCBNEW (5.0.0)) date 10/20/18 16:06:51*
%MOMM*%
%LPD*%
G01*
G04 APERTURE LIST*
%ADD10C,0.150000*%
%ADD11C,0.120000*%
G04 APERTURE END LIST*
D10*
G04 #@! TO.C,C9*
X117792000Y-94742000D02*
G75*
G03X117792000Y-94742000I-4000000J0D01*
G01*
X114490500Y-90868500D02*
X113220500Y-90868500D01*
X114808000Y-90932000D02*
X114490500Y-90868500D01*
X112712500Y-90932000D02*
X114808000Y-90932000D01*
X112331500Y-91059000D02*
X112712500Y-90932000D01*
X115125500Y-91059000D02*
X112331500Y-91059000D01*
X115506500Y-91186000D02*
X115125500Y-91059000D01*
X112141000Y-91186000D02*
X115506500Y-91186000D01*
X111887000Y-91313000D02*
X112141000Y-91186000D01*
X115697000Y-91313000D02*
X111887000Y-91313000D01*
X115887500Y-91440000D02*
X115697000Y-91313000D01*
X111633000Y-91440000D02*
X115887500Y-91440000D01*
X111379000Y-91567000D02*
X111633000Y-91440000D01*
X116141500Y-91567000D02*
X111379000Y-91567000D01*
X116268500Y-91694000D02*
X116141500Y-91567000D01*
X111315500Y-91694000D02*
X116268500Y-91694000D01*
X111188500Y-91821000D02*
X111315500Y-91694000D01*
X116395500Y-91821000D02*
X111188500Y-91821000D01*
X116522500Y-91948000D02*
X116395500Y-91821000D01*
X110998000Y-91948000D02*
X116522500Y-91948000D01*
X110934500Y-92075000D02*
X110998000Y-91948000D01*
X116649500Y-92075000D02*
X110934500Y-92075000D01*
X116840000Y-92202000D02*
X116649500Y-92075000D01*
X110744000Y-92202000D02*
X116840000Y-92202000D01*
X110617000Y-92329000D02*
X110744000Y-92202000D01*
X117729000Y-94742000D02*
X117729000Y-94615000D01*
X109791500Y-94742000D02*
X117729000Y-94742000D01*
X115062000Y-93472000D02*
G75*
G03X115062000Y-93472000I-1270000J0D01*
G01*
X116014500Y-91567000D02*
X115951000Y-91503500D01*
X116649500Y-92075000D02*
X116522500Y-91948000D01*
X114998500Y-90995500D02*
X114808000Y-90995500D01*
X111823500Y-91376500D02*
X111760000Y-91567000D01*
X111887000Y-91249500D02*
X111823500Y-91376500D01*
X110807500Y-92202000D02*
X111188500Y-91821000D01*
X113157000Y-92329000D02*
X110680500Y-92329000D01*
X112966500Y-92456000D02*
X113157000Y-92329000D01*
X110553500Y-92456000D02*
X112966500Y-92456000D01*
X110490000Y-92583000D02*
X110553500Y-92456000D01*
X112839500Y-92583000D02*
X110490000Y-92583000D01*
X112776000Y-92710000D02*
X112839500Y-92583000D01*
X110363000Y-92710000D02*
X112776000Y-92710000D01*
X110299500Y-92837000D02*
X110363000Y-92710000D01*
X112649000Y-92837000D02*
X110299500Y-92837000D01*
X112585500Y-92964000D02*
X112649000Y-92837000D01*
X110236000Y-92964000D02*
X112585500Y-92964000D01*
X110172500Y-93091000D02*
X110236000Y-92964000D01*
X112522000Y-93091000D02*
X110172500Y-93091000D01*
X112522000Y-93218000D02*
X112522000Y-93091000D01*
X110109000Y-93218000D02*
X112522000Y-93218000D01*
X110045500Y-93345000D02*
X110109000Y-93218000D01*
X112522000Y-93345000D02*
X110045500Y-93345000D01*
X112522000Y-93472000D02*
X112522000Y-93345000D01*
X110045500Y-93472000D02*
X112522000Y-93472000D01*
X109982000Y-93599000D02*
X110045500Y-93472000D01*
X112522000Y-93599000D02*
X109982000Y-93599000D01*
X112522000Y-93726000D02*
X112522000Y-93599000D01*
X109982000Y-93726000D02*
X112522000Y-93726000D01*
X109982000Y-93853000D02*
X109982000Y-93726000D01*
X112522000Y-93853000D02*
X109982000Y-93853000D01*
X112585500Y-93980000D02*
X112522000Y-93853000D01*
X109918500Y-93980000D02*
X112585500Y-93980000D01*
X109855000Y-94107000D02*
X109918500Y-93980000D01*
X112585500Y-94107000D02*
X109855000Y-94107000D01*
X112712500Y-94234000D02*
X112585500Y-94107000D01*
X109918500Y-94234000D02*
X112712500Y-94234000D01*
X109855000Y-94361000D02*
X109918500Y-94234000D01*
X112839500Y-94361000D02*
X109855000Y-94361000D01*
X112966500Y-94488000D02*
X112839500Y-94361000D01*
X109855000Y-94488000D02*
X112966500Y-94488000D01*
X114427000Y-92329000D02*
X116903500Y-92329000D01*
X114617500Y-92456000D02*
X114427000Y-92329000D01*
X116967000Y-92456000D02*
X114617500Y-92456000D01*
X117157500Y-92583000D02*
X116967000Y-92456000D01*
X114744500Y-92583000D02*
X117157500Y-92583000D01*
X114808000Y-92710000D02*
X114744500Y-92583000D01*
X117157500Y-92710000D02*
X114808000Y-92710000D01*
X117284500Y-92837000D02*
X117157500Y-92710000D01*
X114935000Y-92837000D02*
X117284500Y-92837000D01*
X114998500Y-92964000D02*
X114935000Y-92837000D01*
X117284500Y-92964000D02*
X114998500Y-92964000D01*
X117411500Y-93091000D02*
X117284500Y-92964000D01*
X114998500Y-93091000D02*
X117411500Y-93091000D01*
X115062000Y-93218000D02*
X114998500Y-93091000D01*
X117411500Y-93218000D02*
X115062000Y-93218000D01*
X117475000Y-93345000D02*
X117411500Y-93218000D01*
X115125500Y-93345000D02*
X117475000Y-93345000D01*
X115125500Y-93472000D02*
X115125500Y-93345000D01*
X117538500Y-93472000D02*
X115125500Y-93472000D01*
X117602000Y-93599000D02*
X117538500Y-93472000D01*
X115062000Y-93599000D02*
X117602000Y-93599000D01*
X115062000Y-93726000D02*
X115062000Y-93599000D01*
X117602000Y-93726000D02*
X115062000Y-93726000D01*
X117602000Y-93853000D02*
X117602000Y-93726000D01*
X115062000Y-93853000D02*
X117602000Y-93853000D01*
X114998500Y-93980000D02*
X115062000Y-93853000D01*
X117665500Y-93980000D02*
X114998500Y-93980000D01*
X117729000Y-94107000D02*
X117665500Y-93980000D01*
X114935000Y-94107000D02*
X117729000Y-94107000D01*
X114871500Y-94234000D02*
X114935000Y-94107000D01*
X117729000Y-94234000D02*
X114871500Y-94234000D01*
X117729000Y-94361000D02*
X117729000Y-94234000D01*
X114744500Y-94361000D02*
X117729000Y-94361000D01*
X114617500Y-94488000D02*
X114744500Y-94361000D01*
X117729000Y-94488000D02*
X114617500Y-94488000D01*
X117729000Y-94615000D02*
X114427000Y-94615000D01*
X113093500Y-94615000D02*
X109918500Y-94615000D01*
X113220500Y-94742000D02*
X113093500Y-94615000D01*
X113792000Y-97536000D02*
X113792000Y-98044000D01*
X113538000Y-97790000D02*
X114046000Y-97790000D01*
G04 #@! TO.C,C10*
X122174000Y-97790000D02*
X122682000Y-97790000D01*
X122428000Y-97536000D02*
X122428000Y-98044000D01*
X121856500Y-94742000D02*
X121729500Y-94615000D01*
X121729500Y-94615000D02*
X118554500Y-94615000D01*
X126365000Y-94615000D02*
X123063000Y-94615000D01*
X126365000Y-94488000D02*
X123253500Y-94488000D01*
X123253500Y-94488000D02*
X123380500Y-94361000D01*
X123380500Y-94361000D02*
X126365000Y-94361000D01*
X126365000Y-94361000D02*
X126365000Y-94234000D01*
X126365000Y-94234000D02*
X123507500Y-94234000D01*
X123507500Y-94234000D02*
X123571000Y-94107000D01*
X123571000Y-94107000D02*
X126365000Y-94107000D01*
X126365000Y-94107000D02*
X126301500Y-93980000D01*
X126301500Y-93980000D02*
X123634500Y-93980000D01*
X123634500Y-93980000D02*
X123698000Y-93853000D01*
X123698000Y-93853000D02*
X126238000Y-93853000D01*
X126238000Y-93853000D02*
X126238000Y-93726000D01*
X126238000Y-93726000D02*
X123698000Y-93726000D01*
X123698000Y-93726000D02*
X123698000Y-93599000D01*
X123698000Y-93599000D02*
X126238000Y-93599000D01*
X126238000Y-93599000D02*
X126174500Y-93472000D01*
X126174500Y-93472000D02*
X123761500Y-93472000D01*
X123761500Y-93472000D02*
X123761500Y-93345000D01*
X123761500Y-93345000D02*
X126111000Y-93345000D01*
X126111000Y-93345000D02*
X126047500Y-93218000D01*
X126047500Y-93218000D02*
X123698000Y-93218000D01*
X123698000Y-93218000D02*
X123634500Y-93091000D01*
X123634500Y-93091000D02*
X126047500Y-93091000D01*
X126047500Y-93091000D02*
X125920500Y-92964000D01*
X125920500Y-92964000D02*
X123634500Y-92964000D01*
X123634500Y-92964000D02*
X123571000Y-92837000D01*
X123571000Y-92837000D02*
X125920500Y-92837000D01*
X125920500Y-92837000D02*
X125793500Y-92710000D01*
X125793500Y-92710000D02*
X123444000Y-92710000D01*
X123444000Y-92710000D02*
X123380500Y-92583000D01*
X123380500Y-92583000D02*
X125793500Y-92583000D01*
X125793500Y-92583000D02*
X125603000Y-92456000D01*
X125603000Y-92456000D02*
X123253500Y-92456000D01*
X123253500Y-92456000D02*
X123063000Y-92329000D01*
X123063000Y-92329000D02*
X125539500Y-92329000D01*
X118491000Y-94488000D02*
X121602500Y-94488000D01*
X121602500Y-94488000D02*
X121475500Y-94361000D01*
X121475500Y-94361000D02*
X118491000Y-94361000D01*
X118491000Y-94361000D02*
X118554500Y-94234000D01*
X118554500Y-94234000D02*
X121348500Y-94234000D01*
X121348500Y-94234000D02*
X121221500Y-94107000D01*
X121221500Y-94107000D02*
X118491000Y-94107000D01*
X118491000Y-94107000D02*
X118554500Y-93980000D01*
X118554500Y-93980000D02*
X121221500Y-93980000D01*
X121221500Y-93980000D02*
X121158000Y-93853000D01*
X121158000Y-93853000D02*
X118618000Y-93853000D01*
X118618000Y-93853000D02*
X118618000Y-93726000D01*
X118618000Y-93726000D02*
X121158000Y-93726000D01*
X121158000Y-93726000D02*
X121158000Y-93599000D01*
X121158000Y-93599000D02*
X118618000Y-93599000D01*
X118618000Y-93599000D02*
X118681500Y-93472000D01*
X118681500Y-93472000D02*
X121158000Y-93472000D01*
X121158000Y-93472000D02*
X121158000Y-93345000D01*
X121158000Y-93345000D02*
X118681500Y-93345000D01*
X118681500Y-93345000D02*
X118745000Y-93218000D01*
X118745000Y-93218000D02*
X121158000Y-93218000D01*
X121158000Y-93218000D02*
X121158000Y-93091000D01*
X121158000Y-93091000D02*
X118808500Y-93091000D01*
X118808500Y-93091000D02*
X118872000Y-92964000D01*
X118872000Y-92964000D02*
X121221500Y-92964000D01*
X121221500Y-92964000D02*
X121285000Y-92837000D01*
X121285000Y-92837000D02*
X118935500Y-92837000D01*
X118935500Y-92837000D02*
X118999000Y-92710000D01*
X118999000Y-92710000D02*
X121412000Y-92710000D01*
X121412000Y-92710000D02*
X121475500Y-92583000D01*
X121475500Y-92583000D02*
X119126000Y-92583000D01*
X119126000Y-92583000D02*
X119189500Y-92456000D01*
X119189500Y-92456000D02*
X121602500Y-92456000D01*
X121602500Y-92456000D02*
X121793000Y-92329000D01*
X121793000Y-92329000D02*
X119316500Y-92329000D01*
X119443500Y-92202000D02*
X119824500Y-91821000D01*
X120523000Y-91249500D02*
X120459500Y-91376500D01*
X120459500Y-91376500D02*
X120396000Y-91567000D01*
X123634500Y-90995500D02*
X123444000Y-90995500D01*
X125285500Y-92075000D02*
X125158500Y-91948000D01*
X124650500Y-91567000D02*
X124587000Y-91503500D01*
X123698000Y-93472000D02*
G75*
G03X123698000Y-93472000I-1270000J0D01*
G01*
X118427500Y-94742000D02*
X126365000Y-94742000D01*
X126365000Y-94742000D02*
X126365000Y-94615000D01*
X119253000Y-92329000D02*
X119380000Y-92202000D01*
X119380000Y-92202000D02*
X125476000Y-92202000D01*
X125476000Y-92202000D02*
X125285500Y-92075000D01*
X125285500Y-92075000D02*
X119570500Y-92075000D01*
X119570500Y-92075000D02*
X119634000Y-91948000D01*
X119634000Y-91948000D02*
X125158500Y-91948000D01*
X125158500Y-91948000D02*
X125031500Y-91821000D01*
X125031500Y-91821000D02*
X119824500Y-91821000D01*
X119824500Y-91821000D02*
X119951500Y-91694000D01*
X119951500Y-91694000D02*
X124904500Y-91694000D01*
X124904500Y-91694000D02*
X124777500Y-91567000D01*
X124777500Y-91567000D02*
X120015000Y-91567000D01*
X120015000Y-91567000D02*
X120269000Y-91440000D01*
X120269000Y-91440000D02*
X124523500Y-91440000D01*
X124523500Y-91440000D02*
X124333000Y-91313000D01*
X124333000Y-91313000D02*
X120523000Y-91313000D01*
X120523000Y-91313000D02*
X120777000Y-91186000D01*
X120777000Y-91186000D02*
X124142500Y-91186000D01*
X124142500Y-91186000D02*
X123761500Y-91059000D01*
X123761500Y-91059000D02*
X120967500Y-91059000D01*
X120967500Y-91059000D02*
X121348500Y-90932000D01*
X121348500Y-90932000D02*
X123444000Y-90932000D01*
X123444000Y-90932000D02*
X123126500Y-90868500D01*
X123126500Y-90868500D02*
X121856500Y-90868500D01*
X126428000Y-94742000D02*
G75*
G03X126428000Y-94742000I-4000000J0D01*
G01*
G04 #@! TO.C,C12*
X142684000Y-116840000D02*
G75*
G03X142684000Y-116840000I-4000000J0D01*
G01*
X137985500Y-120713500D02*
X139255500Y-120713500D01*
X137668000Y-120650000D02*
X137985500Y-120713500D01*
X139763500Y-120650000D02*
X137668000Y-120650000D01*
X140144500Y-120523000D02*
X139763500Y-120650000D01*
X137350500Y-120523000D02*
X140144500Y-120523000D01*
X136969500Y-120396000D02*
X137350500Y-120523000D01*
X140335000Y-120396000D02*
X136969500Y-120396000D01*
X140589000Y-120269000D02*
X140335000Y-120396000D01*
X136779000Y-120269000D02*
X140589000Y-120269000D01*
X136588500Y-120142000D02*
X136779000Y-120269000D01*
X140843000Y-120142000D02*
X136588500Y-120142000D01*
X141097000Y-120015000D02*
X140843000Y-120142000D01*
X136334500Y-120015000D02*
X141097000Y-120015000D01*
X136207500Y-119888000D02*
X136334500Y-120015000D01*
X141160500Y-119888000D02*
X136207500Y-119888000D01*
X141287500Y-119761000D02*
X141160500Y-119888000D01*
X136080500Y-119761000D02*
X141287500Y-119761000D01*
X135953500Y-119634000D02*
X136080500Y-119761000D01*
X141478000Y-119634000D02*
X135953500Y-119634000D01*
X141541500Y-119507000D02*
X141478000Y-119634000D01*
X135826500Y-119507000D02*
X141541500Y-119507000D01*
X135636000Y-119380000D02*
X135826500Y-119507000D01*
X141732000Y-119380000D02*
X135636000Y-119380000D01*
X141859000Y-119253000D02*
X141732000Y-119380000D01*
X134747000Y-116840000D02*
X134747000Y-116967000D01*
X142684500Y-116840000D02*
X134747000Y-116840000D01*
X139954000Y-118110000D02*
G75*
G03X139954000Y-118110000I-1270000J0D01*
G01*
X136461500Y-120015000D02*
X136525000Y-120078500D01*
X135826500Y-119507000D02*
X135953500Y-119634000D01*
X137477500Y-120586500D02*
X137668000Y-120586500D01*
X140652500Y-120205500D02*
X140716000Y-120015000D01*
X140589000Y-120332500D02*
X140652500Y-120205500D01*
X141668500Y-119380000D02*
X141287500Y-119761000D01*
X139319000Y-119253000D02*
X141795500Y-119253000D01*
X139509500Y-119126000D02*
X139319000Y-119253000D01*
X141922500Y-119126000D02*
X139509500Y-119126000D01*
X141986000Y-118999000D02*
X141922500Y-119126000D01*
X139636500Y-118999000D02*
X141986000Y-118999000D01*
X139700000Y-118872000D02*
X139636500Y-118999000D01*
X142113000Y-118872000D02*
X139700000Y-118872000D01*
X142176500Y-118745000D02*
X142113000Y-118872000D01*
X139827000Y-118745000D02*
X142176500Y-118745000D01*
X139890500Y-118618000D02*
X139827000Y-118745000D01*
X142240000Y-118618000D02*
X139890500Y-118618000D01*
X142303500Y-118491000D02*
X142240000Y-118618000D01*
X139954000Y-118491000D02*
X142303500Y-118491000D01*
X139954000Y-118364000D02*
X139954000Y-118491000D01*
X142367000Y-118364000D02*
X139954000Y-118364000D01*
X142430500Y-118237000D02*
X142367000Y-118364000D01*
X139954000Y-118237000D02*
X142430500Y-118237000D01*
X139954000Y-118110000D02*
X139954000Y-118237000D01*
X142430500Y-118110000D02*
X139954000Y-118110000D01*
X142494000Y-117983000D02*
X142430500Y-118110000D01*
X139954000Y-117983000D02*
X142494000Y-117983000D01*
X139954000Y-117856000D02*
X139954000Y-117983000D01*
X142494000Y-117856000D02*
X139954000Y-117856000D01*
X142494000Y-117729000D02*
X142494000Y-117856000D01*
X139954000Y-117729000D02*
X142494000Y-117729000D01*
X139890500Y-117602000D02*
X139954000Y-117729000D01*
X142557500Y-117602000D02*
X139890500Y-117602000D01*
X142621000Y-117475000D02*
X142557500Y-117602000D01*
X139890500Y-117475000D02*
X142621000Y-117475000D01*
X139763500Y-117348000D02*
X139890500Y-117475000D01*
X142557500Y-117348000D02*
X139763500Y-117348000D01*
X142621000Y-117221000D02*
X142557500Y-117348000D01*
X139636500Y-117221000D02*
X142621000Y-117221000D01*
X139509500Y-117094000D02*
X139636500Y-117221000D01*
X142621000Y-117094000D02*
X139509500Y-117094000D01*
X138049000Y-119253000D02*
X135572500Y-119253000D01*
X137858500Y-119126000D02*
X138049000Y-119253000D01*
X135509000Y-119126000D02*
X137858500Y-119126000D01*
X135318500Y-118999000D02*
X135509000Y-119126000D01*
X137731500Y-118999000D02*
X135318500Y-118999000D01*
X137668000Y-118872000D02*
X137731500Y-118999000D01*
X135318500Y-118872000D02*
X137668000Y-118872000D01*
X135191500Y-118745000D02*
X135318500Y-118872000D01*
X137541000Y-118745000D02*
X135191500Y-118745000D01*
X137477500Y-118618000D02*
X137541000Y-118745000D01*
X135191500Y-118618000D02*
X137477500Y-118618000D01*
X135064500Y-118491000D02*
X135191500Y-118618000D01*
X137477500Y-118491000D02*
X135064500Y-118491000D01*
X137414000Y-118364000D02*
X137477500Y-118491000D01*
X135064500Y-118364000D02*
X137414000Y-118364000D01*
X135001000Y-118237000D02*
X135064500Y-118364000D01*
X137350500Y-118237000D02*
X135001000Y-118237000D01*
X137350500Y-118110000D02*
X137350500Y-118237000D01*
X134937500Y-118110000D02*
X137350500Y-118110000D01*
X134874000Y-117983000D02*
X134937500Y-118110000D01*
X137414000Y-117983000D02*
X134874000Y-117983000D01*
X137414000Y-117856000D02*
X137414000Y-117983000D01*
X134874000Y-117856000D02*
X137414000Y-117856000D01*
X134874000Y-117729000D02*
X134874000Y-117856000D01*
X137414000Y-117729000D02*
X134874000Y-117729000D01*
X137477500Y-117602000D02*
X137414000Y-117729000D01*
X134810500Y-117602000D02*
X137477500Y-117602000D01*
X134747000Y-117475000D02*
X134810500Y-117602000D01*
X137541000Y-117475000D02*
X134747000Y-117475000D01*
X137604500Y-117348000D02*
X137541000Y-117475000D01*
X134747000Y-117348000D02*
X137604500Y-117348000D01*
X134747000Y-117221000D02*
X134747000Y-117348000D01*
X137731500Y-117221000D02*
X134747000Y-117221000D01*
X137858500Y-117094000D02*
X137731500Y-117221000D01*
X134747000Y-117094000D02*
X137858500Y-117094000D01*
X134747000Y-116967000D02*
X138049000Y-116967000D01*
X139382500Y-116967000D02*
X142557500Y-116967000D01*
X139255500Y-116840000D02*
X139382500Y-116967000D01*
X138684000Y-114046000D02*
X138684000Y-113538000D01*
X138938000Y-113792000D02*
X138430000Y-113792000D01*
G04 #@! TO.C,C13*
X134048000Y-116840000D02*
G75*
G03X134048000Y-116840000I-4000000J0D01*
G01*
X129349500Y-120713500D02*
X130619500Y-120713500D01*
X129032000Y-120650000D02*
X129349500Y-120713500D01*
X131127500Y-120650000D02*
X129032000Y-120650000D01*
X131508500Y-120523000D02*
X131127500Y-120650000D01*
X128714500Y-120523000D02*
X131508500Y-120523000D01*
X128333500Y-120396000D02*
X128714500Y-120523000D01*
X131699000Y-120396000D02*
X128333500Y-120396000D01*
X131953000Y-120269000D02*
X131699000Y-120396000D01*
X128143000Y-120269000D02*
X131953000Y-120269000D01*
X127952500Y-120142000D02*
X128143000Y-120269000D01*
X132207000Y-120142000D02*
X127952500Y-120142000D01*
X132461000Y-120015000D02*
X132207000Y-120142000D01*
X127698500Y-120015000D02*
X132461000Y-120015000D01*
X127571500Y-119888000D02*
X127698500Y-120015000D01*
X132524500Y-119888000D02*
X127571500Y-119888000D01*
X132651500Y-119761000D02*
X132524500Y-119888000D01*
X127444500Y-119761000D02*
X132651500Y-119761000D01*
X127317500Y-119634000D02*
X127444500Y-119761000D01*
X132842000Y-119634000D02*
X127317500Y-119634000D01*
X132905500Y-119507000D02*
X132842000Y-119634000D01*
X127190500Y-119507000D02*
X132905500Y-119507000D01*
X127000000Y-119380000D02*
X127190500Y-119507000D01*
X133096000Y-119380000D02*
X127000000Y-119380000D01*
X133223000Y-119253000D02*
X133096000Y-119380000D01*
X126111000Y-116840000D02*
X126111000Y-116967000D01*
X134048500Y-116840000D02*
X126111000Y-116840000D01*
X131318000Y-118110000D02*
G75*
G03X131318000Y-118110000I-1270000J0D01*
G01*
X127825500Y-120015000D02*
X127889000Y-120078500D01*
X127190500Y-119507000D02*
X127317500Y-119634000D01*
X128841500Y-120586500D02*
X129032000Y-120586500D01*
X132016500Y-120205500D02*
X132080000Y-120015000D01*
X131953000Y-120332500D02*
X132016500Y-120205500D01*
X133032500Y-119380000D02*
X132651500Y-119761000D01*
X130683000Y-119253000D02*
X133159500Y-119253000D01*
X130873500Y-119126000D02*
X130683000Y-119253000D01*
X133286500Y-119126000D02*
X130873500Y-119126000D01*
X133350000Y-118999000D02*
X133286500Y-119126000D01*
X131000500Y-118999000D02*
X133350000Y-118999000D01*
X131064000Y-118872000D02*
X131000500Y-118999000D01*
X133477000Y-118872000D02*
X131064000Y-118872000D01*
X133540500Y-118745000D02*
X133477000Y-118872000D01*
X131191000Y-118745000D02*
X133540500Y-118745000D01*
X131254500Y-118618000D02*
X131191000Y-118745000D01*
X133604000Y-118618000D02*
X131254500Y-118618000D01*
X133667500Y-118491000D02*
X133604000Y-118618000D01*
X131318000Y-118491000D02*
X133667500Y-118491000D01*
X131318000Y-118364000D02*
X131318000Y-118491000D01*
X133731000Y-118364000D02*
X131318000Y-118364000D01*
X133794500Y-118237000D02*
X133731000Y-118364000D01*
X131318000Y-118237000D02*
X133794500Y-118237000D01*
X131318000Y-118110000D02*
X131318000Y-118237000D01*
X133794500Y-118110000D02*
X131318000Y-118110000D01*
X133858000Y-117983000D02*
X133794500Y-118110000D01*
X131318000Y-117983000D02*
X133858000Y-117983000D01*
X131318000Y-117856000D02*
X131318000Y-117983000D01*
X133858000Y-117856000D02*
X131318000Y-117856000D01*
X133858000Y-117729000D02*
X133858000Y-117856000D01*
X131318000Y-117729000D02*
X133858000Y-117729000D01*
X131254500Y-117602000D02*
X131318000Y-117729000D01*
X133921500Y-117602000D02*
X131254500Y-117602000D01*
X133985000Y-117475000D02*
X133921500Y-117602000D01*
X131254500Y-117475000D02*
X133985000Y-117475000D01*
X131127500Y-117348000D02*
X131254500Y-117475000D01*
X133921500Y-117348000D02*
X131127500Y-117348000D01*
X133985000Y-117221000D02*
X133921500Y-117348000D01*
X131000500Y-117221000D02*
X133985000Y-117221000D01*
X130873500Y-117094000D02*
X131000500Y-117221000D01*
X133985000Y-117094000D02*
X130873500Y-117094000D01*
X129413000Y-119253000D02*
X126936500Y-119253000D01*
X129222500Y-119126000D02*
X129413000Y-119253000D01*
X126873000Y-119126000D02*
X129222500Y-119126000D01*
X126682500Y-118999000D02*
X126873000Y-119126000D01*
X129095500Y-118999000D02*
X126682500Y-118999000D01*
X129032000Y-118872000D02*
X129095500Y-118999000D01*
X126682500Y-118872000D02*
X129032000Y-118872000D01*
X126555500Y-118745000D02*
X126682500Y-118872000D01*
X128905000Y-118745000D02*
X126555500Y-118745000D01*
X128841500Y-118618000D02*
X128905000Y-118745000D01*
X126555500Y-118618000D02*
X128841500Y-118618000D01*
X126428500Y-118491000D02*
X126555500Y-118618000D01*
X128841500Y-118491000D02*
X126428500Y-118491000D01*
X128778000Y-118364000D02*
X128841500Y-118491000D01*
X126428500Y-118364000D02*
X128778000Y-118364000D01*
X126365000Y-118237000D02*
X126428500Y-118364000D01*
X128714500Y-118237000D02*
X126365000Y-118237000D01*
X128714500Y-118110000D02*
X128714500Y-118237000D01*
X126301500Y-118110000D02*
X128714500Y-118110000D01*
X126238000Y-117983000D02*
X126301500Y-118110000D01*
X128778000Y-117983000D02*
X126238000Y-117983000D01*
X128778000Y-117856000D02*
X128778000Y-117983000D01*
X126238000Y-117856000D02*
X128778000Y-117856000D01*
X126238000Y-117729000D02*
X126238000Y-117856000D01*
X128778000Y-117729000D02*
X126238000Y-117729000D01*
X128841500Y-117602000D02*
X128778000Y-117729000D01*
X126174500Y-117602000D02*
X128841500Y-117602000D01*
X126111000Y-117475000D02*
X126174500Y-117602000D01*
X128905000Y-117475000D02*
X126111000Y-117475000D01*
X128968500Y-117348000D02*
X128905000Y-117475000D01*
X126111000Y-117348000D02*
X128968500Y-117348000D01*
X126111000Y-117221000D02*
X126111000Y-117348000D01*
X129095500Y-117221000D02*
X126111000Y-117221000D01*
X129222500Y-117094000D02*
X129095500Y-117221000D01*
X126111000Y-117094000D02*
X129222500Y-117094000D01*
X126111000Y-116967000D02*
X129413000Y-116967000D01*
X130746500Y-116967000D02*
X133921500Y-116967000D01*
X130619500Y-116840000D02*
X130746500Y-116967000D01*
X130048000Y-114046000D02*
X130048000Y-113538000D01*
X130302000Y-113792000D02*
X129794000Y-113792000D01*
G04 #@! TO.C,C15*
X138684000Y-131572000D02*
X138176000Y-131572000D01*
X138430000Y-131826000D02*
X138430000Y-131318000D01*
X139001500Y-134620000D02*
X139128500Y-134747000D01*
X139128500Y-134747000D02*
X142303500Y-134747000D01*
X134493000Y-134747000D02*
X137795000Y-134747000D01*
X134493000Y-134874000D02*
X137604500Y-134874000D01*
X137604500Y-134874000D02*
X137477500Y-135001000D01*
X137477500Y-135001000D02*
X134493000Y-135001000D01*
X134493000Y-135001000D02*
X134493000Y-135128000D01*
X134493000Y-135128000D02*
X137350500Y-135128000D01*
X137350500Y-135128000D02*
X137287000Y-135255000D01*
X137287000Y-135255000D02*
X134493000Y-135255000D01*
X134493000Y-135255000D02*
X134556500Y-135382000D01*
X134556500Y-135382000D02*
X137223500Y-135382000D01*
X137223500Y-135382000D02*
X137160000Y-135509000D01*
X137160000Y-135509000D02*
X134620000Y-135509000D01*
X134620000Y-135509000D02*
X134620000Y-135636000D01*
X134620000Y-135636000D02*
X137160000Y-135636000D01*
X137160000Y-135636000D02*
X137160000Y-135763000D01*
X137160000Y-135763000D02*
X134620000Y-135763000D01*
X134620000Y-135763000D02*
X134683500Y-135890000D01*
X134683500Y-135890000D02*
X137096500Y-135890000D01*
X137096500Y-135890000D02*
X137096500Y-136017000D01*
X137096500Y-136017000D02*
X134747000Y-136017000D01*
X134747000Y-136017000D02*
X134810500Y-136144000D01*
X134810500Y-136144000D02*
X137160000Y-136144000D01*
X137160000Y-136144000D02*
X137223500Y-136271000D01*
X137223500Y-136271000D02*
X134810500Y-136271000D01*
X134810500Y-136271000D02*
X134937500Y-136398000D01*
X134937500Y-136398000D02*
X137223500Y-136398000D01*
X137223500Y-136398000D02*
X137287000Y-136525000D01*
X137287000Y-136525000D02*
X134937500Y-136525000D01*
X134937500Y-136525000D02*
X135064500Y-136652000D01*
X135064500Y-136652000D02*
X137414000Y-136652000D01*
X137414000Y-136652000D02*
X137477500Y-136779000D01*
X137477500Y-136779000D02*
X135064500Y-136779000D01*
X135064500Y-136779000D02*
X135255000Y-136906000D01*
X135255000Y-136906000D02*
X137604500Y-136906000D01*
X137604500Y-136906000D02*
X137795000Y-137033000D01*
X137795000Y-137033000D02*
X135318500Y-137033000D01*
X142367000Y-134874000D02*
X139255500Y-134874000D01*
X139255500Y-134874000D02*
X139382500Y-135001000D01*
X139382500Y-135001000D02*
X142367000Y-135001000D01*
X142367000Y-135001000D02*
X142303500Y-135128000D01*
X142303500Y-135128000D02*
X139509500Y-135128000D01*
X139509500Y-135128000D02*
X139636500Y-135255000D01*
X139636500Y-135255000D02*
X142367000Y-135255000D01*
X142367000Y-135255000D02*
X142303500Y-135382000D01*
X142303500Y-135382000D02*
X139636500Y-135382000D01*
X139636500Y-135382000D02*
X139700000Y-135509000D01*
X139700000Y-135509000D02*
X142240000Y-135509000D01*
X142240000Y-135509000D02*
X142240000Y-135636000D01*
X142240000Y-135636000D02*
X139700000Y-135636000D01*
X139700000Y-135636000D02*
X139700000Y-135763000D01*
X139700000Y-135763000D02*
X142240000Y-135763000D01*
X142240000Y-135763000D02*
X142176500Y-135890000D01*
X142176500Y-135890000D02*
X139700000Y-135890000D01*
X139700000Y-135890000D02*
X139700000Y-136017000D01*
X139700000Y-136017000D02*
X142176500Y-136017000D01*
X142176500Y-136017000D02*
X142113000Y-136144000D01*
X142113000Y-136144000D02*
X139700000Y-136144000D01*
X139700000Y-136144000D02*
X139700000Y-136271000D01*
X139700000Y-136271000D02*
X142049500Y-136271000D01*
X142049500Y-136271000D02*
X141986000Y-136398000D01*
X141986000Y-136398000D02*
X139636500Y-136398000D01*
X139636500Y-136398000D02*
X139573000Y-136525000D01*
X139573000Y-136525000D02*
X141922500Y-136525000D01*
X141922500Y-136525000D02*
X141859000Y-136652000D01*
X141859000Y-136652000D02*
X139446000Y-136652000D01*
X139446000Y-136652000D02*
X139382500Y-136779000D01*
X139382500Y-136779000D02*
X141732000Y-136779000D01*
X141732000Y-136779000D02*
X141668500Y-136906000D01*
X141668500Y-136906000D02*
X139255500Y-136906000D01*
X139255500Y-136906000D02*
X139065000Y-137033000D01*
X139065000Y-137033000D02*
X141541500Y-137033000D01*
X141414500Y-137160000D02*
X141033500Y-137541000D01*
X140335000Y-138112500D02*
X140398500Y-137985500D01*
X140398500Y-137985500D02*
X140462000Y-137795000D01*
X137223500Y-138366500D02*
X137414000Y-138366500D01*
X135572500Y-137287000D02*
X135699500Y-137414000D01*
X136207500Y-137795000D02*
X136271000Y-137858500D01*
X139700000Y-135890000D02*
G75*
G03X139700000Y-135890000I-1270000J0D01*
G01*
X142430500Y-134620000D02*
X134493000Y-134620000D01*
X134493000Y-134620000D02*
X134493000Y-134747000D01*
X141605000Y-137033000D02*
X141478000Y-137160000D01*
X141478000Y-137160000D02*
X135382000Y-137160000D01*
X135382000Y-137160000D02*
X135572500Y-137287000D01*
X135572500Y-137287000D02*
X141287500Y-137287000D01*
X141287500Y-137287000D02*
X141224000Y-137414000D01*
X141224000Y-137414000D02*
X135699500Y-137414000D01*
X135699500Y-137414000D02*
X135826500Y-137541000D01*
X135826500Y-137541000D02*
X141033500Y-137541000D01*
X141033500Y-137541000D02*
X140906500Y-137668000D01*
X140906500Y-137668000D02*
X135953500Y-137668000D01*
X135953500Y-137668000D02*
X136080500Y-137795000D01*
X136080500Y-137795000D02*
X140843000Y-137795000D01*
X140843000Y-137795000D02*
X140589000Y-137922000D01*
X140589000Y-137922000D02*
X136334500Y-137922000D01*
X136334500Y-137922000D02*
X136525000Y-138049000D01*
X136525000Y-138049000D02*
X140335000Y-138049000D01*
X140335000Y-138049000D02*
X140081000Y-138176000D01*
X140081000Y-138176000D02*
X136715500Y-138176000D01*
X136715500Y-138176000D02*
X137096500Y-138303000D01*
X137096500Y-138303000D02*
X139890500Y-138303000D01*
X139890500Y-138303000D02*
X139509500Y-138430000D01*
X139509500Y-138430000D02*
X137414000Y-138430000D01*
X137414000Y-138430000D02*
X137731500Y-138493500D01*
X137731500Y-138493500D02*
X139001500Y-138493500D01*
X142430000Y-134620000D02*
G75*
G03X142430000Y-134620000I-4000000J0D01*
G01*
G04 #@! TO.C,D1*
X105915460Y-131317480D02*
X106677460Y-131317480D01*
X105915460Y-126745480D02*
X105915460Y-131317480D01*
X107439460Y-126745480D02*
X105915460Y-126745480D01*
X107439460Y-131317480D02*
X107439460Y-126745480D01*
X106677460Y-131317480D02*
X107439460Y-131317480D01*
X105915460Y-130555480D02*
X107439460Y-130555480D01*
X106677460Y-131190480D02*
X106677460Y-132714480D01*
X106677460Y-126745480D02*
X106677460Y-125348480D01*
G04 #@! TO.C,D2*
X109984540Y-126746520D02*
X109222540Y-126746520D01*
X109984540Y-131318520D02*
X109984540Y-126746520D01*
X108460540Y-131318520D02*
X109984540Y-131318520D01*
X108460540Y-126746520D02*
X108460540Y-131318520D01*
X109222540Y-126746520D02*
X108460540Y-126746520D01*
X109984540Y-127508520D02*
X108460540Y-127508520D01*
X109222540Y-126873520D02*
X109222540Y-125349520D01*
X109222540Y-131318520D02*
X109222540Y-132715520D01*
G04 #@! TO.C,D3*
X111757460Y-126745480D02*
X111757460Y-125348480D01*
X111757460Y-131190480D02*
X111757460Y-132714480D01*
X110995460Y-130555480D02*
X112519460Y-130555480D01*
X111757460Y-131317480D02*
X112519460Y-131317480D01*
X112519460Y-131317480D02*
X112519460Y-126745480D01*
X112519460Y-126745480D02*
X110995460Y-126745480D01*
X110995460Y-126745480D02*
X110995460Y-131317480D01*
X110995460Y-131317480D02*
X111757460Y-131317480D01*
G04 #@! TO.C,D4*
X115064540Y-126746520D02*
X114302540Y-126746520D01*
X115064540Y-131318520D02*
X115064540Y-126746520D01*
X113540540Y-131318520D02*
X115064540Y-131318520D01*
X113540540Y-126746520D02*
X113540540Y-131318520D01*
X114302540Y-126746520D02*
X113540540Y-126746520D01*
X115064540Y-127508520D02*
X113540540Y-127508520D01*
X114302540Y-126873520D02*
X114302540Y-125349520D01*
X114302540Y-131318520D02*
X114302540Y-132715520D01*
G04 #@! TO.C,D5*
X116837460Y-126745480D02*
X116837460Y-125348480D01*
X116837460Y-131190480D02*
X116837460Y-132714480D01*
X116075460Y-130555480D02*
X117599460Y-130555480D01*
X116837460Y-131317480D02*
X117599460Y-131317480D01*
X117599460Y-131317480D02*
X117599460Y-126745480D01*
X117599460Y-126745480D02*
X116075460Y-126745480D01*
X116075460Y-126745480D02*
X116075460Y-131317480D01*
X116075460Y-131317480D02*
X116837460Y-131317480D01*
D11*
G04 #@! TO.C,D6*
X123482000Y-107399000D02*
X114262000Y-107399000D01*
X118872000Y-118804000D02*
X118872000Y-115194000D01*
X118872000Y-102364000D02*
X118872000Y-105974000D01*
X123482000Y-115194000D02*
X123482000Y-105974000D01*
X114262000Y-115194000D02*
X123482000Y-115194000D01*
X114262000Y-105974000D02*
X114262000Y-115194000D01*
X123482000Y-105974000D02*
X114262000Y-105974000D01*
D10*
G04 #@! TO.C,J2*
X151130000Y-139700000D02*
X151130000Y-129540000D01*
X143510000Y-139700000D02*
X151130000Y-139700000D01*
X143510000Y-129540000D02*
X143510000Y-139700000D01*
X151130000Y-129540000D02*
X143510000Y-129540000D01*
G04 #@! TO.C,J3*
X148590000Y-123190000D02*
X146050000Y-123190000D01*
X148590000Y-128270000D02*
X148590000Y-123190000D01*
X146050000Y-128270000D02*
X148590000Y-128270000D01*
X146050000Y-123190000D02*
X146050000Y-128270000D01*
G04 #@! TO.C,J4*
X151130000Y-111760000D02*
X143510000Y-111760000D01*
X143510000Y-111760000D02*
X143510000Y-121920000D01*
X143510000Y-121920000D02*
X151130000Y-121920000D01*
X151130000Y-121920000D02*
X151130000Y-111760000D01*
G04 #@! TO.C,J5*
X102362000Y-124968000D02*
X102362000Y-132588000D01*
X104902000Y-124968000D02*
X102362000Y-124968000D01*
X104902000Y-132588000D02*
X104902000Y-124968000D01*
X102362000Y-132588000D02*
X104902000Y-132588000D01*
G04 #@! TO.C,L1*
X144366000Y-103124000D02*
G75*
G03X144366000Y-103124000I-10000000J0D01*
G01*
G04 #@! TO.C,DAC1*
X143459200Y-86106000D02*
X143459200Y-88646000D01*
X143459200Y-88646000D02*
X151079200Y-88646000D01*
X151079200Y-88646000D02*
X151079200Y-86106000D01*
X151079200Y-86106000D02*
X143459200Y-86106000D01*
G04 #@! TO.C,DAC2*
X140970000Y-86106000D02*
X133350000Y-86106000D01*
X140970000Y-88646000D02*
X140970000Y-86106000D01*
X133350000Y-88646000D02*
X140970000Y-88646000D01*
X133350000Y-86106000D02*
X133350000Y-88646000D01*
G04 #@! TO.C,J1*
X103098000Y-101574000D02*
X106198000Y-101574000D01*
X103098000Y-103124000D02*
X103098000Y-101574000D01*
X105918000Y-104394000D02*
X103378000Y-104394000D01*
X106198000Y-101574000D02*
X106198000Y-103124000D01*
X103378000Y-117094000D02*
X103378000Y-104394000D01*
X105918000Y-104394000D02*
X105918000Y-117094000D01*
X103378000Y-117094000D02*
X103378000Y-119634000D01*
X103378000Y-119634000D02*
X105918000Y-119634000D01*
X105918000Y-119634000D02*
X105918000Y-117094000D01*
G04 #@! TO.C,J6*
X100838000Y-90932000D02*
X100838000Y-101092000D01*
X108458000Y-90932000D02*
X100838000Y-90932000D01*
X108458000Y-101092000D02*
X108458000Y-90932000D01*
X100838000Y-101092000D02*
X108458000Y-101092000D01*
G04 #@! TD*
M02*
