M48
;DRILL file {KiCad (5.0.0)} date 10/20/18 16:06:57
;FORMAT={-:-/ absolute / metric / decimal}
FMAT,2
METRIC,TZ
T1C0.300
T2C0.700
T3C1.000
T4C1.100
T5C1.200
T6C1.600
T7C3.400
%
G90
G05
M71
T1
X101.092Y-109.22
X101.346Y-103.124
X101.854Y-110.744
X102.108Y-115.824
X109.22Y-91.186
X109.22Y-104.394
X109.728Y-116.586
X124.46Y-116.586
X134.62Y-141.478
X135.636Y-110.236
X137.414Y-126.238
X137.414Y-148.59
X137.922Y-142.24
X138.176Y-150.368
X138.684Y-143.256
X138.938Y-146.812
X149.606Y-127.
T2
X121.412Y-120.396
X127.Y-120.396
X132.08Y-136.652
X134.366Y-120.65
X113.792Y-93.472
X113.792Y-96.012
X111.757Y-134.111
X111.76Y-123.952
X116.837Y-134.111
X116.84Y-123.952
X130.048Y-115.57
X130.048Y-118.11
X138.43Y-133.35
X138.43Y-135.89
X109.22Y-134.112
X109.223Y-123.953
X122.428Y-93.472
X122.428Y-96.012
X114.3Y-134.112
X114.303Y-123.953
X138.684Y-115.57
X138.684Y-118.11
X106.677Y-134.111
X106.68Y-123.952
T3
X134.62Y-87.376
X137.16Y-87.376
X139.7Y-87.376
X147.32Y-124.46
X147.32Y-127.
X103.632Y-126.238
X103.632Y-128.778
X103.632Y-131.318
X144.729Y-87.376
X147.269Y-87.376
X149.809Y-87.376
X104.648Y-103.124
X104.648Y-105.664
X104.648Y-108.204
X104.648Y-110.744
X104.648Y-113.284
X104.648Y-115.824
X104.648Y-118.364
T4
X147.32Y-114.3
X147.32Y-119.38
X104.648Y-93.472
X104.648Y-98.552
X147.32Y-132.08
X147.32Y-137.16
T5
X130.556Y-103.124
X138.176Y-103.124
T6
X118.872Y-100.584
X118.872Y-120.584
T7
X99.06Y-86.36
X154.94Y-152.4
X154.94Y-86.36
X99.06Y-152.4
T0
M30
