%FSLAX45Y45*%
G04 Gerber Fmt 4.5, Leading zero omitted, Abs format (unit mm)*
G04 Created by KiCad (PCBNEW (5.0.0)) date 10/20/18 16:06:57*
%MOMM*%
%LPD*%
G01*
G04 APERTURE LIST*
%ADD10C,0.150000*%
%ADD11C,0.200000*%
%ADD12C,0.300000*%
G04 APERTURE END LIST*
D10*
X16002000Y-15494000D02*
X16002000Y-8382000D01*
X9652000Y-15748000D02*
X15748000Y-15748000D01*
X9398000Y-8382000D02*
X9398000Y-15494000D01*
X15748000Y-8128000D02*
X9652000Y-8128000D01*
X9652000Y-15748000D02*
G75*
G02X9398000Y-15494000I0J254000D01*
G01*
X9398000Y-8382000D02*
G75*
G02X9652000Y-8128000I254000J0D01*
G01*
X15748000Y-8128000D02*
G75*
G02X16002000Y-8382000I0J-254000D01*
G01*
X16002000Y-15494000D02*
G75*
G02X15748000Y-15748000I-254000J0D01*
G01*
D11*
X10094200Y-10907000D02*
X10124200Y-10937000D01*
X10124200Y-10907000D02*
X10094200Y-10937000D01*
X10119600Y-10297400D02*
X10149600Y-10327400D01*
X10149600Y-10297400D02*
X10119600Y-10327400D01*
X10170400Y-11059400D02*
X10200400Y-11089400D01*
X10200400Y-11059400D02*
X10170400Y-11089400D01*
X10195800Y-11567400D02*
X10225800Y-11597400D01*
X10225800Y-11567400D02*
X10195800Y-11597400D01*
X10907000Y-9103600D02*
X10937000Y-9133600D01*
X10937000Y-9103600D02*
X10907000Y-9133600D01*
X10907000Y-10424400D02*
X10937000Y-10454400D01*
X10937000Y-10424400D02*
X10907000Y-10454400D01*
X10957800Y-11643600D02*
X10987800Y-11673600D01*
X10987800Y-11643600D02*
X10957800Y-11673600D01*
X12431000Y-11643600D02*
X12461000Y-11673600D01*
X12461000Y-11643600D02*
X12431000Y-11673600D01*
X13447000Y-14132800D02*
X13477000Y-14162800D01*
X13477000Y-14132800D02*
X13447000Y-14162800D01*
X13548600Y-11008600D02*
X13578600Y-11038600D01*
X13578600Y-11008600D02*
X13548600Y-11038600D01*
X13726400Y-12608800D02*
X13756400Y-12638800D01*
X13756400Y-12608800D02*
X13726400Y-12638800D01*
X13726400Y-14844000D02*
X13756400Y-14874000D01*
X13756400Y-14844000D02*
X13726400Y-14874000D01*
X13777200Y-14209000D02*
X13807200Y-14239000D01*
X13807200Y-14209000D02*
X13777200Y-14239000D01*
X13802600Y-15021800D02*
X13832600Y-15051800D01*
X13832600Y-15021800D02*
X13802600Y-15051800D01*
X13853400Y-14310600D02*
X13883400Y-14340600D01*
X13883400Y-14310600D02*
X13853400Y-14340600D01*
X13878800Y-14666200D02*
X13908800Y-14696200D01*
X13908800Y-14666200D02*
X13878800Y-14696200D01*
X14945600Y-12685000D02*
X14975600Y-12715000D01*
X14975600Y-12685000D02*
X14945600Y-12715000D01*
X12176200Y-12039600D02*
G75*
G03X12176200Y-12039600I-35000J0D01*
G01*
X12735000Y-12039600D02*
G75*
G03X12735000Y-12039600I-35000J0D01*
G01*
X13243000Y-13665200D02*
G75*
G03X13243000Y-13665200I-35000J0D01*
G01*
X13471600Y-12065000D02*
G75*
G03X13471600Y-12065000I-35000J0D01*
G01*
X11414200Y-9347200D02*
G75*
G03X11414200Y-9347200I-35000J0D01*
G01*
X11414200Y-9601200D02*
G75*
G03X11414200Y-9601200I-35000J0D01*
G01*
X11210746Y-13411148D02*
G75*
G03X11210746Y-13411148I-35000J0D01*
G01*
X11211000Y-12395200D02*
G75*
G03X11211000Y-12395200I-35000J0D01*
G01*
X11718746Y-13411148D02*
G75*
G03X11718746Y-13411148I-35000J0D01*
G01*
X11719000Y-12395200D02*
G75*
G03X11719000Y-12395200I-35000J0D01*
G01*
X13039800Y-11557000D02*
G75*
G03X13039800Y-11557000I-35000J0D01*
G01*
X13039800Y-11811000D02*
G75*
G03X13039800Y-11811000I-35000J0D01*
G01*
X13878000Y-13335000D02*
G75*
G03X13878000Y-13335000I-35000J0D01*
G01*
X13878000Y-13589000D02*
G75*
G03X13878000Y-13589000I-35000J0D01*
G01*
X10957000Y-13411200D02*
G75*
G03X10957000Y-13411200I-35000J0D01*
G01*
X10957254Y-12395252D02*
G75*
G03X10957254Y-12395252I-35000J0D01*
G01*
X12277800Y-9347200D02*
G75*
G03X12277800Y-9347200I-35000J0D01*
G01*
X12277800Y-9601200D02*
G75*
G03X12277800Y-9601200I-35000J0D01*
G01*
X11465000Y-13411200D02*
G75*
G03X11465000Y-13411200I-35000J0D01*
G01*
X11465254Y-12395252D02*
G75*
G03X11465254Y-12395252I-35000J0D01*
G01*
X13903400Y-11557000D02*
G75*
G03X13903400Y-11557000I-35000J0D01*
G01*
X13903400Y-11811000D02*
G75*
G03X13903400Y-11811000I-35000J0D01*
G01*
X10702746Y-13411148D02*
G75*
G03X10702746Y-13411148I-35000J0D01*
G01*
X10703000Y-12395200D02*
G75*
G03X10703000Y-12395200I-35000J0D01*
G01*
X13462000Y-8687600D02*
X13462000Y-8787600D01*
X13412000Y-8737600D02*
X13512000Y-8737600D01*
X13716000Y-8687600D02*
X13716000Y-8787600D01*
X13666000Y-8737600D02*
X13766000Y-8737600D01*
X13970000Y-8687600D02*
X13970000Y-8787600D01*
X13920000Y-8737600D02*
X14020000Y-8737600D01*
X14732000Y-12396000D02*
X14732000Y-12496000D01*
X14682000Y-12446000D02*
X14782000Y-12446000D01*
X14732000Y-12650000D02*
X14732000Y-12750000D01*
X14682000Y-12700000D02*
X14782000Y-12700000D01*
X10363200Y-12573800D02*
X10363200Y-12673800D01*
X10313200Y-12623800D02*
X10413200Y-12623800D01*
X10363200Y-12827800D02*
X10363200Y-12927800D01*
X10313200Y-12877800D02*
X10413200Y-12877800D01*
X10363200Y-13081800D02*
X10363200Y-13181800D01*
X10313200Y-13131800D02*
X10413200Y-13131800D01*
X14472920Y-8687600D02*
X14472920Y-8787600D01*
X14422920Y-8737600D02*
X14522920Y-8737600D01*
X14726920Y-8687600D02*
X14726920Y-8787600D01*
X14676920Y-8737600D02*
X14776920Y-8737600D01*
X14980920Y-8687600D02*
X14980920Y-8787600D01*
X14930920Y-8737600D02*
X15030920Y-8737600D01*
X10464800Y-10262400D02*
X10464800Y-10362400D01*
X10414800Y-10312400D02*
X10514800Y-10312400D01*
X10464800Y-10516400D02*
X10464800Y-10616400D01*
X10414800Y-10566400D02*
X10514800Y-10566400D01*
X10464800Y-10770400D02*
X10464800Y-10870400D01*
X10414800Y-10820400D02*
X10514800Y-10820400D01*
X10464800Y-11024400D02*
X10464800Y-11124400D01*
X10414800Y-11074400D02*
X10514800Y-11074400D01*
X10464800Y-11278400D02*
X10464800Y-11378400D01*
X10414800Y-11328400D02*
X10514800Y-11328400D01*
X10464800Y-11532400D02*
X10464800Y-11632400D01*
X10414800Y-11582400D02*
X10514800Y-11582400D01*
X10464800Y-11786400D02*
X10464800Y-11886400D01*
X10414800Y-11836400D02*
X10514800Y-11836400D01*
X14770891Y-11468891D02*
X14770891Y-11391109D01*
X14693109Y-11391109D01*
X14693109Y-11468891D01*
X14770891Y-11468891D01*
X14770891Y-11976891D02*
X14770891Y-11899109D01*
X14693109Y-11899109D01*
X14693109Y-11976891D01*
X14770891Y-11976891D01*
X10503691Y-9386091D02*
X10503691Y-9308309D01*
X10425909Y-9308309D01*
X10425909Y-9386091D01*
X10503691Y-9386091D01*
X10503691Y-9894091D02*
X10503691Y-9816309D01*
X10425909Y-9816309D01*
X10425909Y-9894091D01*
X10503691Y-9894091D01*
X14770891Y-13246891D02*
X14770891Y-13169109D01*
X14693109Y-13169109D01*
X14693109Y-13246891D01*
X14770891Y-13246891D01*
X14770891Y-13754891D02*
X14770891Y-13677109D01*
X14693109Y-13677109D01*
X14693109Y-13754891D01*
X14770891Y-13754891D01*
X13055600Y-10372400D02*
X13115600Y-10312400D01*
X13055600Y-10252400D01*
X12995600Y-10312400D01*
X13055600Y-10372400D01*
X13817600Y-10372400D02*
X13877600Y-10312400D01*
X13817600Y-10252400D01*
X13757600Y-10312400D01*
X13817600Y-10372400D01*
X11807200Y-9978400D02*
X11967200Y-10138400D01*
X11967200Y-9978400D02*
X11807200Y-10138400D01*
X11967200Y-10058400D02*
G75*
G03X11967200Y-10058400I-80000J0D01*
G01*
X11807200Y-11978400D02*
X11967200Y-12138400D01*
X11967200Y-11978400D02*
X11807200Y-12138400D01*
X11967200Y-12058400D02*
G75*
G03X11967200Y-12058400I-80000J0D01*
G01*
X9736000Y-8466000D02*
X10076000Y-8806000D01*
X10076000Y-8466000D02*
X9736000Y-8806000D01*
X9906000Y-8466000D02*
X9906000Y-8806000D01*
X9736000Y-8636000D02*
X10076000Y-8636000D01*
X15324000Y-15070000D02*
X15664000Y-15410000D01*
X15664000Y-15070000D02*
X15324000Y-15410000D01*
X15494000Y-15070000D02*
X15494000Y-15410000D01*
X15324000Y-15240000D02*
X15664000Y-15240000D01*
X15324000Y-8466000D02*
X15664000Y-8806000D01*
X15664000Y-8466000D02*
X15324000Y-8806000D01*
X15494000Y-8466000D02*
X15494000Y-8806000D01*
X15324000Y-8636000D02*
X15664000Y-8636000D01*
X9736000Y-15070000D02*
X10076000Y-15410000D01*
X10076000Y-15070000D02*
X9736000Y-15410000D01*
X9906000Y-15070000D02*
X9906000Y-15410000D01*
X9736000Y-15240000D02*
X10076000Y-15240000D01*
D12*
X9676928Y-16221214D02*
X9676928Y-15921214D01*
X9748357Y-15921214D01*
X9791214Y-15935500D01*
X9819786Y-15964071D01*
X9834071Y-15992643D01*
X9848357Y-16049786D01*
X9848357Y-16092643D01*
X9834071Y-16149786D01*
X9819786Y-16178357D01*
X9791214Y-16206929D01*
X9748357Y-16221214D01*
X9676928Y-16221214D01*
X9976928Y-16221214D02*
X9976928Y-16021214D01*
X9976928Y-16078357D02*
X9991214Y-16049786D01*
X10005500Y-16035500D01*
X10034071Y-16021214D01*
X10062643Y-16021214D01*
X10162643Y-16221214D02*
X10162643Y-16021214D01*
X10162643Y-15921214D02*
X10148357Y-15935500D01*
X10162643Y-15949786D01*
X10176928Y-15935500D01*
X10162643Y-15921214D01*
X10162643Y-15949786D01*
X10348357Y-16221214D02*
X10319786Y-16206929D01*
X10305500Y-16178357D01*
X10305500Y-15921214D01*
X10505500Y-16221214D02*
X10476928Y-16206929D01*
X10462643Y-16178357D01*
X10462643Y-15921214D01*
X10848357Y-16221214D02*
X10848357Y-15921214D01*
X10948357Y-16135500D01*
X11048357Y-15921214D01*
X11048357Y-16221214D01*
X11319786Y-16221214D02*
X11319786Y-16064071D01*
X11305500Y-16035500D01*
X11276928Y-16021214D01*
X11219786Y-16021214D01*
X11191214Y-16035500D01*
X11319786Y-16206929D02*
X11291214Y-16221214D01*
X11219786Y-16221214D01*
X11191214Y-16206929D01*
X11176928Y-16178357D01*
X11176928Y-16149786D01*
X11191214Y-16121214D01*
X11219786Y-16106929D01*
X11291214Y-16106929D01*
X11319786Y-16092643D01*
X11462643Y-16021214D02*
X11462643Y-16321214D01*
X11462643Y-16035500D02*
X11491214Y-16021214D01*
X11548357Y-16021214D01*
X11576928Y-16035500D01*
X11591214Y-16049786D01*
X11605500Y-16078357D01*
X11605500Y-16164071D01*
X11591214Y-16192643D01*
X11576928Y-16206929D01*
X11548357Y-16221214D01*
X11491214Y-16221214D01*
X11462643Y-16206929D01*
X11734071Y-16192643D02*
X11748357Y-16206929D01*
X11734071Y-16221214D01*
X11719786Y-16206929D01*
X11734071Y-16192643D01*
X11734071Y-16221214D01*
X11734071Y-16035500D02*
X11748357Y-16049786D01*
X11734071Y-16064071D01*
X11719786Y-16049786D01*
X11734071Y-16035500D01*
X11734071Y-16064071D01*
X9360500Y-16700500D02*
X9390500Y-16730500D01*
X9390500Y-16700500D02*
X9360500Y-16730500D01*
X9734071Y-16551214D02*
X9762643Y-16551214D01*
X9791214Y-16565500D01*
X9805500Y-16579786D01*
X9819786Y-16608357D01*
X9834071Y-16665500D01*
X9834071Y-16736929D01*
X9819786Y-16794072D01*
X9805500Y-16822643D01*
X9791214Y-16836929D01*
X9762643Y-16851214D01*
X9734071Y-16851214D01*
X9705500Y-16836929D01*
X9691214Y-16822643D01*
X9676928Y-16794072D01*
X9662643Y-16736929D01*
X9662643Y-16665500D01*
X9676928Y-16608357D01*
X9691214Y-16579786D01*
X9705500Y-16565500D01*
X9734071Y-16551214D01*
X9962643Y-16822643D02*
X9976928Y-16836929D01*
X9962643Y-16851214D01*
X9948357Y-16836929D01*
X9962643Y-16822643D01*
X9962643Y-16851214D01*
X10076928Y-16551214D02*
X10262643Y-16551214D01*
X10162643Y-16665500D01*
X10205500Y-16665500D01*
X10234071Y-16679786D01*
X10248357Y-16694071D01*
X10262643Y-16722643D01*
X10262643Y-16794072D01*
X10248357Y-16822643D01*
X10234071Y-16836929D01*
X10205500Y-16851214D01*
X10119786Y-16851214D01*
X10091214Y-16836929D01*
X10076928Y-16822643D01*
X10448357Y-16551214D02*
X10476928Y-16551214D01*
X10505500Y-16565500D01*
X10519786Y-16579786D01*
X10534071Y-16608357D01*
X10548357Y-16665500D01*
X10548357Y-16736929D01*
X10534071Y-16794072D01*
X10519786Y-16822643D01*
X10505500Y-16836929D01*
X10476928Y-16851214D01*
X10448357Y-16851214D01*
X10419786Y-16836929D01*
X10405500Y-16822643D01*
X10391214Y-16794072D01*
X10376928Y-16736929D01*
X10376928Y-16665500D01*
X10391214Y-16608357D01*
X10405500Y-16579786D01*
X10419786Y-16565500D01*
X10448357Y-16551214D01*
X10676928Y-16851214D02*
X10676928Y-16651214D01*
X10676928Y-16679786D02*
X10691214Y-16665500D01*
X10719786Y-16651214D01*
X10762643Y-16651214D01*
X10791214Y-16665500D01*
X10805500Y-16694071D01*
X10805500Y-16851214D01*
X10805500Y-16694071D02*
X10819786Y-16665500D01*
X10848357Y-16651214D01*
X10891214Y-16651214D01*
X10919786Y-16665500D01*
X10934071Y-16694071D01*
X10934071Y-16851214D01*
X11076928Y-16851214D02*
X11076928Y-16651214D01*
X11076928Y-16679786D02*
X11091214Y-16665500D01*
X11119786Y-16651214D01*
X11162643Y-16651214D01*
X11191214Y-16665500D01*
X11205500Y-16694071D01*
X11205500Y-16851214D01*
X11205500Y-16694071D02*
X11219786Y-16665500D01*
X11248357Y-16651214D01*
X11291214Y-16651214D01*
X11319786Y-16665500D01*
X11334071Y-16694071D01*
X11334071Y-16851214D01*
X11919786Y-16536929D02*
X11662643Y-16922643D01*
X12305500Y-16551214D02*
X12334071Y-16551214D01*
X12362643Y-16565500D01*
X12376928Y-16579786D01*
X12391214Y-16608357D01*
X12405500Y-16665500D01*
X12405500Y-16736929D01*
X12391214Y-16794072D01*
X12376928Y-16822643D01*
X12362643Y-16836929D01*
X12334071Y-16851214D01*
X12305500Y-16851214D01*
X12276928Y-16836929D01*
X12262643Y-16822643D01*
X12248357Y-16794072D01*
X12234071Y-16736929D01*
X12234071Y-16665500D01*
X12248357Y-16608357D01*
X12262643Y-16579786D01*
X12276928Y-16565500D01*
X12305500Y-16551214D01*
X12534071Y-16822643D02*
X12548357Y-16836929D01*
X12534071Y-16851214D01*
X12519786Y-16836929D01*
X12534071Y-16822643D01*
X12534071Y-16851214D01*
X12734071Y-16551214D02*
X12762643Y-16551214D01*
X12791214Y-16565500D01*
X12805500Y-16579786D01*
X12819786Y-16608357D01*
X12834071Y-16665500D01*
X12834071Y-16736929D01*
X12819786Y-16794072D01*
X12805500Y-16822643D01*
X12791214Y-16836929D01*
X12762643Y-16851214D01*
X12734071Y-16851214D01*
X12705500Y-16836929D01*
X12691214Y-16822643D01*
X12676928Y-16794072D01*
X12662643Y-16736929D01*
X12662643Y-16665500D01*
X12676928Y-16608357D01*
X12691214Y-16579786D01*
X12705500Y-16565500D01*
X12734071Y-16551214D01*
X13119786Y-16851214D02*
X12948357Y-16851214D01*
X13034071Y-16851214D02*
X13034071Y-16551214D01*
X13005500Y-16594071D01*
X12976928Y-16622643D01*
X12948357Y-16636929D01*
X13234071Y-16579786D02*
X13248357Y-16565500D01*
X13276928Y-16551214D01*
X13348357Y-16551214D01*
X13376928Y-16565500D01*
X13391214Y-16579786D01*
X13405500Y-16608357D01*
X13405500Y-16636929D01*
X13391214Y-16679786D01*
X13219786Y-16851214D01*
X13405500Y-16851214D01*
X13519786Y-16551214D02*
X13519786Y-16608357D01*
X13634071Y-16551214D02*
X13634071Y-16608357D01*
X14076928Y-16965500D02*
X14062643Y-16951214D01*
X14034071Y-16908357D01*
X14019786Y-16879786D01*
X14005500Y-16836929D01*
X13991214Y-16765500D01*
X13991214Y-16708357D01*
X14005500Y-16636929D01*
X14019786Y-16594071D01*
X14034071Y-16565500D01*
X14062643Y-16522643D01*
X14076928Y-16508357D01*
X14348357Y-16851214D02*
X14176928Y-16851214D01*
X14262643Y-16851214D02*
X14262643Y-16551214D01*
X14234071Y-16594071D01*
X14205500Y-16622643D01*
X14176928Y-16636929D01*
X14448357Y-16551214D02*
X14648357Y-16551214D01*
X14519786Y-16851214D01*
X14991214Y-16851214D02*
X14991214Y-16551214D01*
X15119786Y-16851214D02*
X15119786Y-16694071D01*
X15105500Y-16665500D01*
X15076928Y-16651214D01*
X15034071Y-16651214D01*
X15005500Y-16665500D01*
X14991214Y-16679786D01*
X15305500Y-16851214D02*
X15276928Y-16836929D01*
X15262643Y-16822643D01*
X15248357Y-16794072D01*
X15248357Y-16708357D01*
X15262643Y-16679786D01*
X15276928Y-16665500D01*
X15305500Y-16651214D01*
X15348357Y-16651214D01*
X15376928Y-16665500D01*
X15391214Y-16679786D01*
X15405500Y-16708357D01*
X15405500Y-16794072D01*
X15391214Y-16822643D01*
X15376928Y-16836929D01*
X15348357Y-16851214D01*
X15305500Y-16851214D01*
X15576928Y-16851214D02*
X15548357Y-16836929D01*
X15534071Y-16808357D01*
X15534071Y-16551214D01*
X15805500Y-16836929D02*
X15776928Y-16851214D01*
X15719786Y-16851214D01*
X15691214Y-16836929D01*
X15676928Y-16808357D01*
X15676928Y-16694071D01*
X15691214Y-16665500D01*
X15719786Y-16651214D01*
X15776928Y-16651214D01*
X15805500Y-16665500D01*
X15819786Y-16694071D01*
X15819786Y-16722643D01*
X15676928Y-16751214D01*
X15934071Y-16836929D02*
X15962643Y-16851214D01*
X16019786Y-16851214D01*
X16048357Y-16836929D01*
X16062643Y-16808357D01*
X16062643Y-16794072D01*
X16048357Y-16765500D01*
X16019786Y-16751214D01*
X15976928Y-16751214D01*
X15948357Y-16736929D01*
X15934071Y-16708357D01*
X15934071Y-16694071D01*
X15948357Y-16665500D01*
X15976928Y-16651214D01*
X16019786Y-16651214D01*
X16048357Y-16665500D01*
X16162643Y-16965500D02*
X16176928Y-16951214D01*
X16205500Y-16908357D01*
X16219786Y-16879786D01*
X16234071Y-16836929D01*
X16248357Y-16765500D01*
X16248357Y-16708357D01*
X16234071Y-16636929D01*
X16219786Y-16594071D01*
X16205500Y-16565500D01*
X16176928Y-16522643D01*
X16162643Y-16508357D01*
X9390500Y-17111500D02*
G75*
G03X9390500Y-17111500I-35000J0D01*
G01*
X9734071Y-16947214D02*
X9762643Y-16947214D01*
X9791214Y-16961500D01*
X9805500Y-16975786D01*
X9819786Y-17004357D01*
X9834071Y-17061500D01*
X9834071Y-17132929D01*
X9819786Y-17190072D01*
X9805500Y-17218643D01*
X9791214Y-17232929D01*
X9762643Y-17247214D01*
X9734071Y-17247214D01*
X9705500Y-17232929D01*
X9691214Y-17218643D01*
X9676928Y-17190072D01*
X9662643Y-17132929D01*
X9662643Y-17061500D01*
X9676928Y-17004357D01*
X9691214Y-16975786D01*
X9705500Y-16961500D01*
X9734071Y-16947214D01*
X9962643Y-17218643D02*
X9976928Y-17232929D01*
X9962643Y-17247214D01*
X9948357Y-17232929D01*
X9962643Y-17218643D01*
X9962643Y-17247214D01*
X10076928Y-16947214D02*
X10276928Y-16947214D01*
X10148357Y-17247214D01*
X10448357Y-16947214D02*
X10476928Y-16947214D01*
X10505500Y-16961500D01*
X10519786Y-16975786D01*
X10534071Y-17004357D01*
X10548357Y-17061500D01*
X10548357Y-17132929D01*
X10534071Y-17190072D01*
X10519786Y-17218643D01*
X10505500Y-17232929D01*
X10476928Y-17247214D01*
X10448357Y-17247214D01*
X10419786Y-17232929D01*
X10405500Y-17218643D01*
X10391214Y-17190072D01*
X10376928Y-17132929D01*
X10376928Y-17061500D01*
X10391214Y-17004357D01*
X10405500Y-16975786D01*
X10419786Y-16961500D01*
X10448357Y-16947214D01*
X10676928Y-17247214D02*
X10676928Y-17047214D01*
X10676928Y-17075786D02*
X10691214Y-17061500D01*
X10719786Y-17047214D01*
X10762643Y-17047214D01*
X10791214Y-17061500D01*
X10805500Y-17090072D01*
X10805500Y-17247214D01*
X10805500Y-17090072D02*
X10819786Y-17061500D01*
X10848357Y-17047214D01*
X10891214Y-17047214D01*
X10919786Y-17061500D01*
X10934071Y-17090072D01*
X10934071Y-17247214D01*
X11076928Y-17247214D02*
X11076928Y-17047214D01*
X11076928Y-17075786D02*
X11091214Y-17061500D01*
X11119786Y-17047214D01*
X11162643Y-17047214D01*
X11191214Y-17061500D01*
X11205500Y-17090072D01*
X11205500Y-17247214D01*
X11205500Y-17090072D02*
X11219786Y-17061500D01*
X11248357Y-17047214D01*
X11291214Y-17047214D01*
X11319786Y-17061500D01*
X11334071Y-17090072D01*
X11334071Y-17247214D01*
X11919786Y-16932929D02*
X11662643Y-17318643D01*
X12305500Y-16947214D02*
X12334071Y-16947214D01*
X12362643Y-16961500D01*
X12376928Y-16975786D01*
X12391214Y-17004357D01*
X12405500Y-17061500D01*
X12405500Y-17132929D01*
X12391214Y-17190072D01*
X12376928Y-17218643D01*
X12362643Y-17232929D01*
X12334071Y-17247214D01*
X12305500Y-17247214D01*
X12276928Y-17232929D01*
X12262643Y-17218643D01*
X12248357Y-17190072D01*
X12234071Y-17132929D01*
X12234071Y-17061500D01*
X12248357Y-17004357D01*
X12262643Y-16975786D01*
X12276928Y-16961500D01*
X12305500Y-16947214D01*
X12534071Y-17218643D02*
X12548357Y-17232929D01*
X12534071Y-17247214D01*
X12519786Y-17232929D01*
X12534071Y-17218643D01*
X12534071Y-17247214D01*
X12734071Y-16947214D02*
X12762643Y-16947214D01*
X12791214Y-16961500D01*
X12805500Y-16975786D01*
X12819786Y-17004357D01*
X12834071Y-17061500D01*
X12834071Y-17132929D01*
X12819786Y-17190072D01*
X12805500Y-17218643D01*
X12791214Y-17232929D01*
X12762643Y-17247214D01*
X12734071Y-17247214D01*
X12705500Y-17232929D01*
X12691214Y-17218643D01*
X12676928Y-17190072D01*
X12662643Y-17132929D01*
X12662643Y-17061500D01*
X12676928Y-17004357D01*
X12691214Y-16975786D01*
X12705500Y-16961500D01*
X12734071Y-16947214D01*
X12948357Y-16975786D02*
X12962643Y-16961500D01*
X12991214Y-16947214D01*
X13062643Y-16947214D01*
X13091214Y-16961500D01*
X13105500Y-16975786D01*
X13119786Y-17004357D01*
X13119786Y-17032929D01*
X13105500Y-17075786D01*
X12934071Y-17247214D01*
X13119786Y-17247214D01*
X13291214Y-17075786D02*
X13262643Y-17061500D01*
X13248357Y-17047214D01*
X13234071Y-17018643D01*
X13234071Y-17004357D01*
X13248357Y-16975786D01*
X13262643Y-16961500D01*
X13291214Y-16947214D01*
X13348357Y-16947214D01*
X13376928Y-16961500D01*
X13391214Y-16975786D01*
X13405500Y-17004357D01*
X13405500Y-17018643D01*
X13391214Y-17047214D01*
X13376928Y-17061500D01*
X13348357Y-17075786D01*
X13291214Y-17075786D01*
X13262643Y-17090072D01*
X13248357Y-17104357D01*
X13234071Y-17132929D01*
X13234071Y-17190072D01*
X13248357Y-17218643D01*
X13262643Y-17232929D01*
X13291214Y-17247214D01*
X13348357Y-17247214D01*
X13376928Y-17232929D01*
X13391214Y-17218643D01*
X13405500Y-17190072D01*
X13405500Y-17132929D01*
X13391214Y-17104357D01*
X13376928Y-17090072D01*
X13348357Y-17075786D01*
X13519786Y-16947214D02*
X13519786Y-17004357D01*
X13634071Y-16947214D02*
X13634071Y-17004357D01*
X14076928Y-17361500D02*
X14062643Y-17347214D01*
X14034071Y-17304357D01*
X14019786Y-17275786D01*
X14005500Y-17232929D01*
X13991214Y-17161500D01*
X13991214Y-17104357D01*
X14005500Y-17032929D01*
X14019786Y-16990072D01*
X14034071Y-16961500D01*
X14062643Y-16918643D01*
X14076928Y-16904357D01*
X14176928Y-16975786D02*
X14191214Y-16961500D01*
X14219786Y-16947214D01*
X14291214Y-16947214D01*
X14319786Y-16961500D01*
X14334071Y-16975786D01*
X14348357Y-17004357D01*
X14348357Y-17032929D01*
X14334071Y-17075786D01*
X14162643Y-17247214D01*
X14348357Y-17247214D01*
X14605500Y-17047214D02*
X14605500Y-17247214D01*
X14534071Y-16932929D02*
X14462643Y-17147214D01*
X14648357Y-17147214D01*
X14991214Y-17247214D02*
X14991214Y-16947214D01*
X15119786Y-17247214D02*
X15119786Y-17090072D01*
X15105500Y-17061500D01*
X15076928Y-17047214D01*
X15034071Y-17047214D01*
X15005500Y-17061500D01*
X14991214Y-17075786D01*
X15305500Y-17247214D02*
X15276928Y-17232929D01*
X15262643Y-17218643D01*
X15248357Y-17190072D01*
X15248357Y-17104357D01*
X15262643Y-17075786D01*
X15276928Y-17061500D01*
X15305500Y-17047214D01*
X15348357Y-17047214D01*
X15376928Y-17061500D01*
X15391214Y-17075786D01*
X15405500Y-17104357D01*
X15405500Y-17190072D01*
X15391214Y-17218643D01*
X15376928Y-17232929D01*
X15348357Y-17247214D01*
X15305500Y-17247214D01*
X15576928Y-17247214D02*
X15548357Y-17232929D01*
X15534071Y-17204357D01*
X15534071Y-16947214D01*
X15805500Y-17232929D02*
X15776928Y-17247214D01*
X15719786Y-17247214D01*
X15691214Y-17232929D01*
X15676928Y-17204357D01*
X15676928Y-17090072D01*
X15691214Y-17061500D01*
X15719786Y-17047214D01*
X15776928Y-17047214D01*
X15805500Y-17061500D01*
X15819786Y-17090072D01*
X15819786Y-17118643D01*
X15676928Y-17147214D01*
X15934071Y-17232929D02*
X15962643Y-17247214D01*
X16019786Y-17247214D01*
X16048357Y-17232929D01*
X16062643Y-17204357D01*
X16062643Y-17190072D01*
X16048357Y-17161500D01*
X16019786Y-17147214D01*
X15976928Y-17147214D01*
X15948357Y-17132929D01*
X15934071Y-17104357D01*
X15934071Y-17090072D01*
X15948357Y-17061500D01*
X15976928Y-17047214D01*
X16019786Y-17047214D01*
X16048357Y-17061500D01*
X16162643Y-17361500D02*
X16176928Y-17347214D01*
X16205500Y-17304357D01*
X16219786Y-17275786D01*
X16234071Y-17232929D01*
X16248357Y-17161500D01*
X16248357Y-17104357D01*
X16234071Y-17032929D01*
X16219786Y-16990072D01*
X16205500Y-16961500D01*
X16176928Y-16918643D01*
X16162643Y-16904357D01*
X9340500Y-17457500D02*
X9340500Y-17557500D01*
X9290500Y-17507500D02*
X9390500Y-17507500D01*
X9834071Y-17643214D02*
X9662643Y-17643214D01*
X9748357Y-17643214D02*
X9748357Y-17343214D01*
X9719786Y-17386072D01*
X9691214Y-17414643D01*
X9662643Y-17428929D01*
X9962643Y-17614643D02*
X9976928Y-17628929D01*
X9962643Y-17643214D01*
X9948357Y-17628929D01*
X9962643Y-17614643D01*
X9962643Y-17643214D01*
X10162643Y-17343214D02*
X10191214Y-17343214D01*
X10219786Y-17357500D01*
X10234071Y-17371786D01*
X10248357Y-17400357D01*
X10262643Y-17457500D01*
X10262643Y-17528929D01*
X10248357Y-17586072D01*
X10234071Y-17614643D01*
X10219786Y-17628929D01*
X10191214Y-17643214D01*
X10162643Y-17643214D01*
X10134071Y-17628929D01*
X10119786Y-17614643D01*
X10105500Y-17586072D01*
X10091214Y-17528929D01*
X10091214Y-17457500D01*
X10105500Y-17400357D01*
X10119786Y-17371786D01*
X10134071Y-17357500D01*
X10162643Y-17343214D01*
X10448357Y-17343214D02*
X10476928Y-17343214D01*
X10505500Y-17357500D01*
X10519786Y-17371786D01*
X10534071Y-17400357D01*
X10548357Y-17457500D01*
X10548357Y-17528929D01*
X10534071Y-17586072D01*
X10519786Y-17614643D01*
X10505500Y-17628929D01*
X10476928Y-17643214D01*
X10448357Y-17643214D01*
X10419786Y-17628929D01*
X10405500Y-17614643D01*
X10391214Y-17586072D01*
X10376928Y-17528929D01*
X10376928Y-17457500D01*
X10391214Y-17400357D01*
X10405500Y-17371786D01*
X10419786Y-17357500D01*
X10448357Y-17343214D01*
X10676928Y-17643214D02*
X10676928Y-17443214D01*
X10676928Y-17471786D02*
X10691214Y-17457500D01*
X10719786Y-17443214D01*
X10762643Y-17443214D01*
X10791214Y-17457500D01*
X10805500Y-17486072D01*
X10805500Y-17643214D01*
X10805500Y-17486072D02*
X10819786Y-17457500D01*
X10848357Y-17443214D01*
X10891214Y-17443214D01*
X10919786Y-17457500D01*
X10934071Y-17486072D01*
X10934071Y-17643214D01*
X11076928Y-17643214D02*
X11076928Y-17443214D01*
X11076928Y-17471786D02*
X11091214Y-17457500D01*
X11119786Y-17443214D01*
X11162643Y-17443214D01*
X11191214Y-17457500D01*
X11205500Y-17486072D01*
X11205500Y-17643214D01*
X11205500Y-17486072D02*
X11219786Y-17457500D01*
X11248357Y-17443214D01*
X11291214Y-17443214D01*
X11319786Y-17457500D01*
X11334071Y-17486072D01*
X11334071Y-17643214D01*
X11919786Y-17328929D02*
X11662643Y-17714643D01*
X12305500Y-17343214D02*
X12334071Y-17343214D01*
X12362643Y-17357500D01*
X12376928Y-17371786D01*
X12391214Y-17400357D01*
X12405500Y-17457500D01*
X12405500Y-17528929D01*
X12391214Y-17586072D01*
X12376928Y-17614643D01*
X12362643Y-17628929D01*
X12334071Y-17643214D01*
X12305500Y-17643214D01*
X12276928Y-17628929D01*
X12262643Y-17614643D01*
X12248357Y-17586072D01*
X12234071Y-17528929D01*
X12234071Y-17457500D01*
X12248357Y-17400357D01*
X12262643Y-17371786D01*
X12276928Y-17357500D01*
X12305500Y-17343214D01*
X12534071Y-17614643D02*
X12548357Y-17628929D01*
X12534071Y-17643214D01*
X12519786Y-17628929D01*
X12534071Y-17614643D01*
X12534071Y-17643214D01*
X12734071Y-17343214D02*
X12762643Y-17343214D01*
X12791214Y-17357500D01*
X12805500Y-17371786D01*
X12819786Y-17400357D01*
X12834071Y-17457500D01*
X12834071Y-17528929D01*
X12819786Y-17586072D01*
X12805500Y-17614643D01*
X12791214Y-17628929D01*
X12762643Y-17643214D01*
X12734071Y-17643214D01*
X12705500Y-17628929D01*
X12691214Y-17614643D01*
X12676928Y-17586072D01*
X12662643Y-17528929D01*
X12662643Y-17457500D01*
X12676928Y-17400357D01*
X12691214Y-17371786D01*
X12705500Y-17357500D01*
X12734071Y-17343214D01*
X12934071Y-17343214D02*
X13119786Y-17343214D01*
X13019786Y-17457500D01*
X13062643Y-17457500D01*
X13091214Y-17471786D01*
X13105500Y-17486072D01*
X13119786Y-17514643D01*
X13119786Y-17586072D01*
X13105500Y-17614643D01*
X13091214Y-17628929D01*
X13062643Y-17643214D01*
X12976928Y-17643214D01*
X12948357Y-17628929D01*
X12934071Y-17614643D01*
X13262643Y-17643214D02*
X13319786Y-17643214D01*
X13348357Y-17628929D01*
X13362643Y-17614643D01*
X13391214Y-17571786D01*
X13405500Y-17514643D01*
X13405500Y-17400357D01*
X13391214Y-17371786D01*
X13376928Y-17357500D01*
X13348357Y-17343214D01*
X13291214Y-17343214D01*
X13262643Y-17357500D01*
X13248357Y-17371786D01*
X13234071Y-17400357D01*
X13234071Y-17471786D01*
X13248357Y-17500357D01*
X13262643Y-17514643D01*
X13291214Y-17528929D01*
X13348357Y-17528929D01*
X13376928Y-17514643D01*
X13391214Y-17500357D01*
X13405500Y-17471786D01*
X13519786Y-17343214D02*
X13519786Y-17400357D01*
X13634071Y-17343214D02*
X13634071Y-17400357D01*
X14076928Y-17757500D02*
X14062643Y-17743214D01*
X14034071Y-17700357D01*
X14019786Y-17671786D01*
X14005500Y-17628929D01*
X13991214Y-17557500D01*
X13991214Y-17500357D01*
X14005500Y-17428929D01*
X14019786Y-17386072D01*
X14034071Y-17357500D01*
X14062643Y-17314643D01*
X14076928Y-17300357D01*
X14348357Y-17643214D02*
X14176928Y-17643214D01*
X14262643Y-17643214D02*
X14262643Y-17343214D01*
X14234071Y-17386072D01*
X14205500Y-17414643D01*
X14176928Y-17428929D01*
X14519786Y-17471786D02*
X14491214Y-17457500D01*
X14476928Y-17443214D01*
X14462643Y-17414643D01*
X14462643Y-17400357D01*
X14476928Y-17371786D01*
X14491214Y-17357500D01*
X14519786Y-17343214D01*
X14576928Y-17343214D01*
X14605500Y-17357500D01*
X14619786Y-17371786D01*
X14634071Y-17400357D01*
X14634071Y-17414643D01*
X14619786Y-17443214D01*
X14605500Y-17457500D01*
X14576928Y-17471786D01*
X14519786Y-17471786D01*
X14491214Y-17486072D01*
X14476928Y-17500357D01*
X14462643Y-17528929D01*
X14462643Y-17586072D01*
X14476928Y-17614643D01*
X14491214Y-17628929D01*
X14519786Y-17643214D01*
X14576928Y-17643214D01*
X14605500Y-17628929D01*
X14619786Y-17614643D01*
X14634071Y-17586072D01*
X14634071Y-17528929D01*
X14619786Y-17500357D01*
X14605500Y-17486072D01*
X14576928Y-17471786D01*
X14991214Y-17643214D02*
X14991214Y-17343214D01*
X15119786Y-17643214D02*
X15119786Y-17486072D01*
X15105500Y-17457500D01*
X15076928Y-17443214D01*
X15034071Y-17443214D01*
X15005500Y-17457500D01*
X14991214Y-17471786D01*
X15305500Y-17643214D02*
X15276928Y-17628929D01*
X15262643Y-17614643D01*
X15248357Y-17586072D01*
X15248357Y-17500357D01*
X15262643Y-17471786D01*
X15276928Y-17457500D01*
X15305500Y-17443214D01*
X15348357Y-17443214D01*
X15376928Y-17457500D01*
X15391214Y-17471786D01*
X15405500Y-17500357D01*
X15405500Y-17586072D01*
X15391214Y-17614643D01*
X15376928Y-17628929D01*
X15348357Y-17643214D01*
X15305500Y-17643214D01*
X15576928Y-17643214D02*
X15548357Y-17628929D01*
X15534071Y-17600357D01*
X15534071Y-17343214D01*
X15805500Y-17628929D02*
X15776928Y-17643214D01*
X15719786Y-17643214D01*
X15691214Y-17628929D01*
X15676928Y-17600357D01*
X15676928Y-17486072D01*
X15691214Y-17457500D01*
X15719786Y-17443214D01*
X15776928Y-17443214D01*
X15805500Y-17457500D01*
X15819786Y-17486072D01*
X15819786Y-17514643D01*
X15676928Y-17543214D01*
X15934071Y-17628929D02*
X15962643Y-17643214D01*
X16019786Y-17643214D01*
X16048357Y-17628929D01*
X16062643Y-17600357D01*
X16062643Y-17586072D01*
X16048357Y-17557500D01*
X16019786Y-17543214D01*
X15976928Y-17543214D01*
X15948357Y-17528929D01*
X15934071Y-17500357D01*
X15934071Y-17486072D01*
X15948357Y-17457500D01*
X15976928Y-17443214D01*
X16019786Y-17443214D01*
X16048357Y-17457500D01*
X16162643Y-17757500D02*
X16176928Y-17743214D01*
X16205500Y-17700357D01*
X16219786Y-17671786D01*
X16234071Y-17628929D01*
X16248357Y-17557500D01*
X16248357Y-17500357D01*
X16234071Y-17428929D01*
X16219786Y-17386072D01*
X16205500Y-17357500D01*
X16176928Y-17314643D01*
X16162643Y-17300357D01*
X9374391Y-17942391D02*
X9374391Y-17864609D01*
X9296609Y-17864609D01*
X9296609Y-17942391D01*
X9374391Y-17942391D01*
X9834071Y-18039214D02*
X9662643Y-18039214D01*
X9748357Y-18039214D02*
X9748357Y-17739214D01*
X9719786Y-17782072D01*
X9691214Y-17810643D01*
X9662643Y-17824929D01*
X9962643Y-18010643D02*
X9976928Y-18024929D01*
X9962643Y-18039214D01*
X9948357Y-18024929D01*
X9962643Y-18010643D01*
X9962643Y-18039214D01*
X10262643Y-18039214D02*
X10091214Y-18039214D01*
X10176928Y-18039214D02*
X10176928Y-17739214D01*
X10148357Y-17782072D01*
X10119786Y-17810643D01*
X10091214Y-17824929D01*
X10448357Y-17739214D02*
X10476928Y-17739214D01*
X10505500Y-17753500D01*
X10519786Y-17767786D01*
X10534071Y-17796357D01*
X10548357Y-17853500D01*
X10548357Y-17924929D01*
X10534071Y-17982072D01*
X10519786Y-18010643D01*
X10505500Y-18024929D01*
X10476928Y-18039214D01*
X10448357Y-18039214D01*
X10419786Y-18024929D01*
X10405500Y-18010643D01*
X10391214Y-17982072D01*
X10376928Y-17924929D01*
X10376928Y-17853500D01*
X10391214Y-17796357D01*
X10405500Y-17767786D01*
X10419786Y-17753500D01*
X10448357Y-17739214D01*
X10676928Y-18039214D02*
X10676928Y-17839214D01*
X10676928Y-17867786D02*
X10691214Y-17853500D01*
X10719786Y-17839214D01*
X10762643Y-17839214D01*
X10791214Y-17853500D01*
X10805500Y-17882072D01*
X10805500Y-18039214D01*
X10805500Y-17882072D02*
X10819786Y-17853500D01*
X10848357Y-17839214D01*
X10891214Y-17839214D01*
X10919786Y-17853500D01*
X10934071Y-17882072D01*
X10934071Y-18039214D01*
X11076928Y-18039214D02*
X11076928Y-17839214D01*
X11076928Y-17867786D02*
X11091214Y-17853500D01*
X11119786Y-17839214D01*
X11162643Y-17839214D01*
X11191214Y-17853500D01*
X11205500Y-17882072D01*
X11205500Y-18039214D01*
X11205500Y-17882072D02*
X11219786Y-17853500D01*
X11248357Y-17839214D01*
X11291214Y-17839214D01*
X11319786Y-17853500D01*
X11334071Y-17882072D01*
X11334071Y-18039214D01*
X11919786Y-17724929D02*
X11662643Y-18110643D01*
X12305500Y-17739214D02*
X12334071Y-17739214D01*
X12362643Y-17753500D01*
X12376928Y-17767786D01*
X12391214Y-17796357D01*
X12405500Y-17853500D01*
X12405500Y-17924929D01*
X12391214Y-17982072D01*
X12376928Y-18010643D01*
X12362643Y-18024929D01*
X12334071Y-18039214D01*
X12305500Y-18039214D01*
X12276928Y-18024929D01*
X12262643Y-18010643D01*
X12248357Y-17982072D01*
X12234071Y-17924929D01*
X12234071Y-17853500D01*
X12248357Y-17796357D01*
X12262643Y-17767786D01*
X12276928Y-17753500D01*
X12305500Y-17739214D01*
X12534071Y-18010643D02*
X12548357Y-18024929D01*
X12534071Y-18039214D01*
X12519786Y-18024929D01*
X12534071Y-18010643D01*
X12534071Y-18039214D01*
X12734071Y-17739214D02*
X12762643Y-17739214D01*
X12791214Y-17753500D01*
X12805500Y-17767786D01*
X12819786Y-17796357D01*
X12834071Y-17853500D01*
X12834071Y-17924929D01*
X12819786Y-17982072D01*
X12805500Y-18010643D01*
X12791214Y-18024929D01*
X12762643Y-18039214D01*
X12734071Y-18039214D01*
X12705500Y-18024929D01*
X12691214Y-18010643D01*
X12676928Y-17982072D01*
X12662643Y-17924929D01*
X12662643Y-17853500D01*
X12676928Y-17796357D01*
X12691214Y-17767786D01*
X12705500Y-17753500D01*
X12734071Y-17739214D01*
X13091214Y-17839214D02*
X13091214Y-18039214D01*
X13019786Y-17724929D02*
X12948357Y-17939214D01*
X13134071Y-17939214D01*
X13219786Y-17739214D02*
X13405500Y-17739214D01*
X13305500Y-17853500D01*
X13348357Y-17853500D01*
X13376928Y-17867786D01*
X13391214Y-17882072D01*
X13405500Y-17910643D01*
X13405500Y-17982072D01*
X13391214Y-18010643D01*
X13376928Y-18024929D01*
X13348357Y-18039214D01*
X13262643Y-18039214D01*
X13234071Y-18024929D01*
X13219786Y-18010643D01*
X13519786Y-17739214D02*
X13519786Y-17796357D01*
X13634071Y-17739214D02*
X13634071Y-17796357D01*
X14076928Y-18153500D02*
X14062643Y-18139214D01*
X14034071Y-18096357D01*
X14019786Y-18067786D01*
X14005500Y-18024929D01*
X13991214Y-17953500D01*
X13991214Y-17896357D01*
X14005500Y-17824929D01*
X14019786Y-17782072D01*
X14034071Y-17753500D01*
X14062643Y-17710643D01*
X14076928Y-17696357D01*
X14319786Y-17739214D02*
X14262643Y-17739214D01*
X14234071Y-17753500D01*
X14219786Y-17767786D01*
X14191214Y-17810643D01*
X14176928Y-17867786D01*
X14176928Y-17982072D01*
X14191214Y-18010643D01*
X14205500Y-18024929D01*
X14234071Y-18039214D01*
X14291214Y-18039214D01*
X14319786Y-18024929D01*
X14334071Y-18010643D01*
X14348357Y-17982072D01*
X14348357Y-17910643D01*
X14334071Y-17882072D01*
X14319786Y-17867786D01*
X14291214Y-17853500D01*
X14234071Y-17853500D01*
X14205500Y-17867786D01*
X14191214Y-17882072D01*
X14176928Y-17910643D01*
X14705500Y-18039214D02*
X14705500Y-17739214D01*
X14834071Y-18039214D02*
X14834071Y-17882072D01*
X14819786Y-17853500D01*
X14791214Y-17839214D01*
X14748357Y-17839214D01*
X14719786Y-17853500D01*
X14705500Y-17867786D01*
X15019786Y-18039214D02*
X14991214Y-18024929D01*
X14976928Y-18010643D01*
X14962643Y-17982072D01*
X14962643Y-17896357D01*
X14976928Y-17867786D01*
X14991214Y-17853500D01*
X15019786Y-17839214D01*
X15062643Y-17839214D01*
X15091214Y-17853500D01*
X15105500Y-17867786D01*
X15119786Y-17896357D01*
X15119786Y-17982072D01*
X15105500Y-18010643D01*
X15091214Y-18024929D01*
X15062643Y-18039214D01*
X15019786Y-18039214D01*
X15291214Y-18039214D02*
X15262643Y-18024929D01*
X15248357Y-17996357D01*
X15248357Y-17739214D01*
X15519786Y-18024929D02*
X15491214Y-18039214D01*
X15434071Y-18039214D01*
X15405500Y-18024929D01*
X15391214Y-17996357D01*
X15391214Y-17882072D01*
X15405500Y-17853500D01*
X15434071Y-17839214D01*
X15491214Y-17839214D01*
X15519786Y-17853500D01*
X15534071Y-17882072D01*
X15534071Y-17910643D01*
X15391214Y-17939214D01*
X15648357Y-18024929D02*
X15676928Y-18039214D01*
X15734071Y-18039214D01*
X15762643Y-18024929D01*
X15776928Y-17996357D01*
X15776928Y-17982072D01*
X15762643Y-17953500D01*
X15734071Y-17939214D01*
X15691214Y-17939214D01*
X15662643Y-17924929D01*
X15648357Y-17896357D01*
X15648357Y-17882072D01*
X15662643Y-17853500D01*
X15691214Y-17839214D01*
X15734071Y-17839214D01*
X15762643Y-17853500D01*
X15876928Y-18153500D02*
X15891214Y-18139214D01*
X15919786Y-18096357D01*
X15934071Y-18067786D01*
X15948357Y-18024929D01*
X15962643Y-17953500D01*
X15962643Y-17896357D01*
X15948357Y-17824929D01*
X15934071Y-17782072D01*
X15919786Y-17753500D01*
X15891214Y-17710643D01*
X15876928Y-17696357D01*
X9330500Y-18359500D02*
X9390500Y-18299500D01*
X9330500Y-18239500D01*
X9270500Y-18299500D01*
X9330500Y-18359500D01*
X9834071Y-18435214D02*
X9662643Y-18435214D01*
X9748357Y-18435214D02*
X9748357Y-18135214D01*
X9719786Y-18178072D01*
X9691214Y-18206643D01*
X9662643Y-18220929D01*
X9962643Y-18406643D02*
X9976928Y-18420929D01*
X9962643Y-18435214D01*
X9948357Y-18420929D01*
X9962643Y-18406643D01*
X9962643Y-18435214D01*
X10091214Y-18163786D02*
X10105500Y-18149500D01*
X10134071Y-18135214D01*
X10205500Y-18135214D01*
X10234071Y-18149500D01*
X10248357Y-18163786D01*
X10262643Y-18192357D01*
X10262643Y-18220929D01*
X10248357Y-18263786D01*
X10076928Y-18435214D01*
X10262643Y-18435214D01*
X10448357Y-18135214D02*
X10476928Y-18135214D01*
X10505500Y-18149500D01*
X10519786Y-18163786D01*
X10534071Y-18192357D01*
X10548357Y-18249500D01*
X10548357Y-18320929D01*
X10534071Y-18378072D01*
X10519786Y-18406643D01*
X10505500Y-18420929D01*
X10476928Y-18435214D01*
X10448357Y-18435214D01*
X10419786Y-18420929D01*
X10405500Y-18406643D01*
X10391214Y-18378072D01*
X10376928Y-18320929D01*
X10376928Y-18249500D01*
X10391214Y-18192357D01*
X10405500Y-18163786D01*
X10419786Y-18149500D01*
X10448357Y-18135214D01*
X10676928Y-18435214D02*
X10676928Y-18235214D01*
X10676928Y-18263786D02*
X10691214Y-18249500D01*
X10719786Y-18235214D01*
X10762643Y-18235214D01*
X10791214Y-18249500D01*
X10805500Y-18278072D01*
X10805500Y-18435214D01*
X10805500Y-18278072D02*
X10819786Y-18249500D01*
X10848357Y-18235214D01*
X10891214Y-18235214D01*
X10919786Y-18249500D01*
X10934071Y-18278072D01*
X10934071Y-18435214D01*
X11076928Y-18435214D02*
X11076928Y-18235214D01*
X11076928Y-18263786D02*
X11091214Y-18249500D01*
X11119786Y-18235214D01*
X11162643Y-18235214D01*
X11191214Y-18249500D01*
X11205500Y-18278072D01*
X11205500Y-18435214D01*
X11205500Y-18278072D02*
X11219786Y-18249500D01*
X11248357Y-18235214D01*
X11291214Y-18235214D01*
X11319786Y-18249500D01*
X11334071Y-18278072D01*
X11334071Y-18435214D01*
X11919786Y-18120929D02*
X11662643Y-18506643D01*
X12305500Y-18135214D02*
X12334071Y-18135214D01*
X12362643Y-18149500D01*
X12376928Y-18163786D01*
X12391214Y-18192357D01*
X12405500Y-18249500D01*
X12405500Y-18320929D01*
X12391214Y-18378072D01*
X12376928Y-18406643D01*
X12362643Y-18420929D01*
X12334071Y-18435214D01*
X12305500Y-18435214D01*
X12276928Y-18420929D01*
X12262643Y-18406643D01*
X12248357Y-18378072D01*
X12234071Y-18320929D01*
X12234071Y-18249500D01*
X12248357Y-18192357D01*
X12262643Y-18163786D01*
X12276928Y-18149500D01*
X12305500Y-18135214D01*
X12534071Y-18406643D02*
X12548357Y-18420929D01*
X12534071Y-18435214D01*
X12519786Y-18420929D01*
X12534071Y-18406643D01*
X12534071Y-18435214D01*
X12734071Y-18135214D02*
X12762643Y-18135214D01*
X12791214Y-18149500D01*
X12805500Y-18163786D01*
X12819786Y-18192357D01*
X12834071Y-18249500D01*
X12834071Y-18320929D01*
X12819786Y-18378072D01*
X12805500Y-18406643D01*
X12791214Y-18420929D01*
X12762643Y-18435214D01*
X12734071Y-18435214D01*
X12705500Y-18420929D01*
X12691214Y-18406643D01*
X12676928Y-18378072D01*
X12662643Y-18320929D01*
X12662643Y-18249500D01*
X12676928Y-18192357D01*
X12691214Y-18163786D01*
X12705500Y-18149500D01*
X12734071Y-18135214D01*
X13091214Y-18235214D02*
X13091214Y-18435214D01*
X13019786Y-18120929D02*
X12948357Y-18335214D01*
X13134071Y-18335214D01*
X13219786Y-18135214D02*
X13419786Y-18135214D01*
X13291214Y-18435214D01*
X13519786Y-18135214D02*
X13519786Y-18192357D01*
X13634071Y-18135214D02*
X13634071Y-18192357D01*
X14076928Y-18549500D02*
X14062643Y-18535214D01*
X14034071Y-18492357D01*
X14019786Y-18463786D01*
X14005500Y-18420929D01*
X13991214Y-18349500D01*
X13991214Y-18292357D01*
X14005500Y-18220929D01*
X14019786Y-18178072D01*
X14034071Y-18149500D01*
X14062643Y-18106643D01*
X14076928Y-18092357D01*
X14176928Y-18163786D02*
X14191214Y-18149500D01*
X14219786Y-18135214D01*
X14291214Y-18135214D01*
X14319786Y-18149500D01*
X14334071Y-18163786D01*
X14348357Y-18192357D01*
X14348357Y-18220929D01*
X14334071Y-18263786D01*
X14162643Y-18435214D01*
X14348357Y-18435214D01*
X14705500Y-18435214D02*
X14705500Y-18135214D01*
X14834071Y-18435214D02*
X14834071Y-18278072D01*
X14819786Y-18249500D01*
X14791214Y-18235214D01*
X14748357Y-18235214D01*
X14719786Y-18249500D01*
X14705500Y-18263786D01*
X15019786Y-18435214D02*
X14991214Y-18420929D01*
X14976928Y-18406643D01*
X14962643Y-18378072D01*
X14962643Y-18292357D01*
X14976928Y-18263786D01*
X14991214Y-18249500D01*
X15019786Y-18235214D01*
X15062643Y-18235214D01*
X15091214Y-18249500D01*
X15105500Y-18263786D01*
X15119786Y-18292357D01*
X15119786Y-18378072D01*
X15105500Y-18406643D01*
X15091214Y-18420929D01*
X15062643Y-18435214D01*
X15019786Y-18435214D01*
X15291214Y-18435214D02*
X15262643Y-18420929D01*
X15248357Y-18392357D01*
X15248357Y-18135214D01*
X15519786Y-18420929D02*
X15491214Y-18435214D01*
X15434071Y-18435214D01*
X15405500Y-18420929D01*
X15391214Y-18392357D01*
X15391214Y-18278072D01*
X15405500Y-18249500D01*
X15434071Y-18235214D01*
X15491214Y-18235214D01*
X15519786Y-18249500D01*
X15534071Y-18278072D01*
X15534071Y-18306643D01*
X15391214Y-18335214D01*
X15648357Y-18420929D02*
X15676928Y-18435214D01*
X15734071Y-18435214D01*
X15762643Y-18420929D01*
X15776928Y-18392357D01*
X15776928Y-18378072D01*
X15762643Y-18349500D01*
X15734071Y-18335214D01*
X15691214Y-18335214D01*
X15662643Y-18320929D01*
X15648357Y-18292357D01*
X15648357Y-18278072D01*
X15662643Y-18249500D01*
X15691214Y-18235214D01*
X15734071Y-18235214D01*
X15762643Y-18249500D01*
X15876928Y-18549500D02*
X15891214Y-18535214D01*
X15919786Y-18492357D01*
X15934071Y-18463786D01*
X15948357Y-18420929D01*
X15962643Y-18349500D01*
X15962643Y-18292357D01*
X15948357Y-18220929D01*
X15934071Y-18178072D01*
X15919786Y-18149500D01*
X15891214Y-18106643D01*
X15876928Y-18092357D01*
X9230500Y-18615500D02*
X9390500Y-18775500D01*
X9390500Y-18615500D02*
X9230500Y-18775500D01*
X9390500Y-18695500D02*
G75*
G03X9390500Y-18695500I-80000J0D01*
G01*
X9834071Y-18831214D02*
X9662643Y-18831214D01*
X9748357Y-18831214D02*
X9748357Y-18531214D01*
X9719786Y-18574072D01*
X9691214Y-18602643D01*
X9662643Y-18616929D01*
X9962643Y-18802643D02*
X9976928Y-18816929D01*
X9962643Y-18831214D01*
X9948357Y-18816929D01*
X9962643Y-18802643D01*
X9962643Y-18831214D01*
X10234071Y-18531214D02*
X10176928Y-18531214D01*
X10148357Y-18545500D01*
X10134071Y-18559786D01*
X10105500Y-18602643D01*
X10091214Y-18659786D01*
X10091214Y-18774072D01*
X10105500Y-18802643D01*
X10119786Y-18816929D01*
X10148357Y-18831214D01*
X10205500Y-18831214D01*
X10234071Y-18816929D01*
X10248357Y-18802643D01*
X10262643Y-18774072D01*
X10262643Y-18702643D01*
X10248357Y-18674072D01*
X10234071Y-18659786D01*
X10205500Y-18645500D01*
X10148357Y-18645500D01*
X10119786Y-18659786D01*
X10105500Y-18674072D01*
X10091214Y-18702643D01*
X10448357Y-18531214D02*
X10476928Y-18531214D01*
X10505500Y-18545500D01*
X10519786Y-18559786D01*
X10534071Y-18588357D01*
X10548357Y-18645500D01*
X10548357Y-18716929D01*
X10534071Y-18774072D01*
X10519786Y-18802643D01*
X10505500Y-18816929D01*
X10476928Y-18831214D01*
X10448357Y-18831214D01*
X10419786Y-18816929D01*
X10405500Y-18802643D01*
X10391214Y-18774072D01*
X10376928Y-18716929D01*
X10376928Y-18645500D01*
X10391214Y-18588357D01*
X10405500Y-18559786D01*
X10419786Y-18545500D01*
X10448357Y-18531214D01*
X10676928Y-18831214D02*
X10676928Y-18631214D01*
X10676928Y-18659786D02*
X10691214Y-18645500D01*
X10719786Y-18631214D01*
X10762643Y-18631214D01*
X10791214Y-18645500D01*
X10805500Y-18674072D01*
X10805500Y-18831214D01*
X10805500Y-18674072D02*
X10819786Y-18645500D01*
X10848357Y-18631214D01*
X10891214Y-18631214D01*
X10919786Y-18645500D01*
X10934071Y-18674072D01*
X10934071Y-18831214D01*
X11076928Y-18831214D02*
X11076928Y-18631214D01*
X11076928Y-18659786D02*
X11091214Y-18645500D01*
X11119786Y-18631214D01*
X11162643Y-18631214D01*
X11191214Y-18645500D01*
X11205500Y-18674072D01*
X11205500Y-18831214D01*
X11205500Y-18674072D02*
X11219786Y-18645500D01*
X11248357Y-18631214D01*
X11291214Y-18631214D01*
X11319786Y-18645500D01*
X11334071Y-18674072D01*
X11334071Y-18831214D01*
X11919786Y-18516929D02*
X11662643Y-18902643D01*
X12305500Y-18531214D02*
X12334071Y-18531214D01*
X12362643Y-18545500D01*
X12376928Y-18559786D01*
X12391214Y-18588357D01*
X12405500Y-18645500D01*
X12405500Y-18716929D01*
X12391214Y-18774072D01*
X12376928Y-18802643D01*
X12362643Y-18816929D01*
X12334071Y-18831214D01*
X12305500Y-18831214D01*
X12276928Y-18816929D01*
X12262643Y-18802643D01*
X12248357Y-18774072D01*
X12234071Y-18716929D01*
X12234071Y-18645500D01*
X12248357Y-18588357D01*
X12262643Y-18559786D01*
X12276928Y-18545500D01*
X12305500Y-18531214D01*
X12534071Y-18802643D02*
X12548357Y-18816929D01*
X12534071Y-18831214D01*
X12519786Y-18816929D01*
X12534071Y-18802643D01*
X12534071Y-18831214D01*
X12734071Y-18531214D02*
X12762643Y-18531214D01*
X12791214Y-18545500D01*
X12805500Y-18559786D01*
X12819786Y-18588357D01*
X12834071Y-18645500D01*
X12834071Y-18716929D01*
X12819786Y-18774072D01*
X12805500Y-18802643D01*
X12791214Y-18816929D01*
X12762643Y-18831214D01*
X12734071Y-18831214D01*
X12705500Y-18816929D01*
X12691214Y-18802643D01*
X12676928Y-18774072D01*
X12662643Y-18716929D01*
X12662643Y-18645500D01*
X12676928Y-18588357D01*
X12691214Y-18559786D01*
X12705500Y-18545500D01*
X12734071Y-18531214D01*
X13091214Y-18531214D02*
X13034071Y-18531214D01*
X13005500Y-18545500D01*
X12991214Y-18559786D01*
X12962643Y-18602643D01*
X12948357Y-18659786D01*
X12948357Y-18774072D01*
X12962643Y-18802643D01*
X12976928Y-18816929D01*
X13005500Y-18831214D01*
X13062643Y-18831214D01*
X13091214Y-18816929D01*
X13105500Y-18802643D01*
X13119786Y-18774072D01*
X13119786Y-18702643D01*
X13105500Y-18674072D01*
X13091214Y-18659786D01*
X13062643Y-18645500D01*
X13005500Y-18645500D01*
X12976928Y-18659786D01*
X12962643Y-18674072D01*
X12948357Y-18702643D01*
X13219786Y-18531214D02*
X13405500Y-18531214D01*
X13305500Y-18645500D01*
X13348357Y-18645500D01*
X13376928Y-18659786D01*
X13391214Y-18674072D01*
X13405500Y-18702643D01*
X13405500Y-18774072D01*
X13391214Y-18802643D01*
X13376928Y-18816929D01*
X13348357Y-18831214D01*
X13262643Y-18831214D01*
X13234071Y-18816929D01*
X13219786Y-18802643D01*
X13519786Y-18531214D02*
X13519786Y-18588357D01*
X13634071Y-18531214D02*
X13634071Y-18588357D01*
X14076928Y-18945500D02*
X14062643Y-18931214D01*
X14034071Y-18888357D01*
X14019786Y-18859786D01*
X14005500Y-18816929D01*
X13991214Y-18745500D01*
X13991214Y-18688357D01*
X14005500Y-18616929D01*
X14019786Y-18574072D01*
X14034071Y-18545500D01*
X14062643Y-18502643D01*
X14076928Y-18488357D01*
X14176928Y-18559786D02*
X14191214Y-18545500D01*
X14219786Y-18531214D01*
X14291214Y-18531214D01*
X14319786Y-18545500D01*
X14334071Y-18559786D01*
X14348357Y-18588357D01*
X14348357Y-18616929D01*
X14334071Y-18659786D01*
X14162643Y-18831214D01*
X14348357Y-18831214D01*
X14705500Y-18831214D02*
X14705500Y-18531214D01*
X14834071Y-18831214D02*
X14834071Y-18674072D01*
X14819786Y-18645500D01*
X14791214Y-18631214D01*
X14748357Y-18631214D01*
X14719786Y-18645500D01*
X14705500Y-18659786D01*
X15019786Y-18831214D02*
X14991214Y-18816929D01*
X14976928Y-18802643D01*
X14962643Y-18774072D01*
X14962643Y-18688357D01*
X14976928Y-18659786D01*
X14991214Y-18645500D01*
X15019786Y-18631214D01*
X15062643Y-18631214D01*
X15091214Y-18645500D01*
X15105500Y-18659786D01*
X15119786Y-18688357D01*
X15119786Y-18774072D01*
X15105500Y-18802643D01*
X15091214Y-18816929D01*
X15062643Y-18831214D01*
X15019786Y-18831214D01*
X15291214Y-18831214D02*
X15262643Y-18816929D01*
X15248357Y-18788357D01*
X15248357Y-18531214D01*
X15519786Y-18816929D02*
X15491214Y-18831214D01*
X15434071Y-18831214D01*
X15405500Y-18816929D01*
X15391214Y-18788357D01*
X15391214Y-18674072D01*
X15405500Y-18645500D01*
X15434071Y-18631214D01*
X15491214Y-18631214D01*
X15519786Y-18645500D01*
X15534071Y-18674072D01*
X15534071Y-18702643D01*
X15391214Y-18731214D01*
X15648357Y-18816929D02*
X15676928Y-18831214D01*
X15734071Y-18831214D01*
X15762643Y-18816929D01*
X15776928Y-18788357D01*
X15776928Y-18774072D01*
X15762643Y-18745500D01*
X15734071Y-18731214D01*
X15691214Y-18731214D01*
X15662643Y-18716929D01*
X15648357Y-18688357D01*
X15648357Y-18674072D01*
X15662643Y-18645500D01*
X15691214Y-18631214D01*
X15734071Y-18631214D01*
X15762643Y-18645500D01*
X15876928Y-18945500D02*
X15891214Y-18931214D01*
X15919786Y-18888357D01*
X15934071Y-18859786D01*
X15948357Y-18816929D01*
X15962643Y-18745500D01*
X15962643Y-18688357D01*
X15948357Y-18616929D01*
X15934071Y-18574072D01*
X15919786Y-18545500D01*
X15891214Y-18502643D01*
X15876928Y-18488357D01*
X9050500Y-18921500D02*
X9390500Y-19261500D01*
X9390500Y-18921500D02*
X9050500Y-19261500D01*
X9220500Y-18921500D02*
X9220500Y-19261500D01*
X9050500Y-19091500D02*
X9390500Y-19091500D01*
X9648357Y-18927214D02*
X9834071Y-18927214D01*
X9734071Y-19041500D01*
X9776928Y-19041500D01*
X9805500Y-19055786D01*
X9819786Y-19070072D01*
X9834071Y-19098643D01*
X9834071Y-19170072D01*
X9819786Y-19198643D01*
X9805500Y-19212929D01*
X9776928Y-19227214D01*
X9691214Y-19227214D01*
X9662643Y-19212929D01*
X9648357Y-19198643D01*
X9962643Y-19198643D02*
X9976928Y-19212929D01*
X9962643Y-19227214D01*
X9948357Y-19212929D01*
X9962643Y-19198643D01*
X9962643Y-19227214D01*
X10234071Y-19027214D02*
X10234071Y-19227214D01*
X10162643Y-18912929D02*
X10091214Y-19127214D01*
X10276928Y-19127214D01*
X10448357Y-18927214D02*
X10476928Y-18927214D01*
X10505500Y-18941500D01*
X10519786Y-18955786D01*
X10534071Y-18984357D01*
X10548357Y-19041500D01*
X10548357Y-19112929D01*
X10534071Y-19170072D01*
X10519786Y-19198643D01*
X10505500Y-19212929D01*
X10476928Y-19227214D01*
X10448357Y-19227214D01*
X10419786Y-19212929D01*
X10405500Y-19198643D01*
X10391214Y-19170072D01*
X10376928Y-19112929D01*
X10376928Y-19041500D01*
X10391214Y-18984357D01*
X10405500Y-18955786D01*
X10419786Y-18941500D01*
X10448357Y-18927214D01*
X10676928Y-19227214D02*
X10676928Y-19027214D01*
X10676928Y-19055786D02*
X10691214Y-19041500D01*
X10719786Y-19027214D01*
X10762643Y-19027214D01*
X10791214Y-19041500D01*
X10805500Y-19070072D01*
X10805500Y-19227214D01*
X10805500Y-19070072D02*
X10819786Y-19041500D01*
X10848357Y-19027214D01*
X10891214Y-19027214D01*
X10919786Y-19041500D01*
X10934071Y-19070072D01*
X10934071Y-19227214D01*
X11076928Y-19227214D02*
X11076928Y-19027214D01*
X11076928Y-19055786D02*
X11091214Y-19041500D01*
X11119786Y-19027214D01*
X11162643Y-19027214D01*
X11191214Y-19041500D01*
X11205500Y-19070072D01*
X11205500Y-19227214D01*
X11205500Y-19070072D02*
X11219786Y-19041500D01*
X11248357Y-19027214D01*
X11291214Y-19027214D01*
X11319786Y-19041500D01*
X11334071Y-19070072D01*
X11334071Y-19227214D01*
X11919786Y-18912929D02*
X11662643Y-19298643D01*
X12305500Y-18927214D02*
X12334071Y-18927214D01*
X12362643Y-18941500D01*
X12376928Y-18955786D01*
X12391214Y-18984357D01*
X12405500Y-19041500D01*
X12405500Y-19112929D01*
X12391214Y-19170072D01*
X12376928Y-19198643D01*
X12362643Y-19212929D01*
X12334071Y-19227214D01*
X12305500Y-19227214D01*
X12276928Y-19212929D01*
X12262643Y-19198643D01*
X12248357Y-19170072D01*
X12234071Y-19112929D01*
X12234071Y-19041500D01*
X12248357Y-18984357D01*
X12262643Y-18955786D01*
X12276928Y-18941500D01*
X12305500Y-18927214D01*
X12534071Y-19198643D02*
X12548357Y-19212929D01*
X12534071Y-19227214D01*
X12519786Y-19212929D01*
X12534071Y-19198643D01*
X12534071Y-19227214D01*
X12834071Y-19227214D02*
X12662643Y-19227214D01*
X12748357Y-19227214D02*
X12748357Y-18927214D01*
X12719786Y-18970072D01*
X12691214Y-18998643D01*
X12662643Y-19012929D01*
X12934071Y-18927214D02*
X13119786Y-18927214D01*
X13019786Y-19041500D01*
X13062643Y-19041500D01*
X13091214Y-19055786D01*
X13105500Y-19070072D01*
X13119786Y-19098643D01*
X13119786Y-19170072D01*
X13105500Y-19198643D01*
X13091214Y-19212929D01*
X13062643Y-19227214D01*
X12976928Y-19227214D01*
X12948357Y-19212929D01*
X12934071Y-19198643D01*
X13376928Y-19027214D02*
X13376928Y-19227214D01*
X13305500Y-18912929D02*
X13234071Y-19127214D01*
X13419786Y-19127214D01*
X13519786Y-18927214D02*
X13519786Y-18984357D01*
X13634071Y-18927214D02*
X13634071Y-18984357D01*
X14076928Y-19341500D02*
X14062643Y-19327214D01*
X14034071Y-19284357D01*
X14019786Y-19255786D01*
X14005500Y-19212929D01*
X13991214Y-19141500D01*
X13991214Y-19084357D01*
X14005500Y-19012929D01*
X14019786Y-18970072D01*
X14034071Y-18941500D01*
X14062643Y-18898643D01*
X14076928Y-18884357D01*
X14319786Y-19027214D02*
X14319786Y-19227214D01*
X14248357Y-18912929D02*
X14176928Y-19127214D01*
X14362643Y-19127214D01*
X14705500Y-19227214D02*
X14705500Y-18927214D01*
X14834071Y-19227214D02*
X14834071Y-19070072D01*
X14819786Y-19041500D01*
X14791214Y-19027214D01*
X14748357Y-19027214D01*
X14719786Y-19041500D01*
X14705500Y-19055786D01*
X15019786Y-19227214D02*
X14991214Y-19212929D01*
X14976928Y-19198643D01*
X14962643Y-19170072D01*
X14962643Y-19084357D01*
X14976928Y-19055786D01*
X14991214Y-19041500D01*
X15019786Y-19027214D01*
X15062643Y-19027214D01*
X15091214Y-19041500D01*
X15105500Y-19055786D01*
X15119786Y-19084357D01*
X15119786Y-19170072D01*
X15105500Y-19198643D01*
X15091214Y-19212929D01*
X15062643Y-19227214D01*
X15019786Y-19227214D01*
X15291214Y-19227214D02*
X15262643Y-19212929D01*
X15248357Y-19184357D01*
X15248357Y-18927214D01*
X15519786Y-19212929D02*
X15491214Y-19227214D01*
X15434071Y-19227214D01*
X15405500Y-19212929D01*
X15391214Y-19184357D01*
X15391214Y-19070072D01*
X15405500Y-19041500D01*
X15434071Y-19027214D01*
X15491214Y-19027214D01*
X15519786Y-19041500D01*
X15534071Y-19070072D01*
X15534071Y-19098643D01*
X15391214Y-19127214D01*
X15648357Y-19212929D02*
X15676928Y-19227214D01*
X15734071Y-19227214D01*
X15762643Y-19212929D01*
X15776928Y-19184357D01*
X15776928Y-19170072D01*
X15762643Y-19141500D01*
X15734071Y-19127214D01*
X15691214Y-19127214D01*
X15662643Y-19112929D01*
X15648357Y-19084357D01*
X15648357Y-19070072D01*
X15662643Y-19041500D01*
X15691214Y-19027214D01*
X15734071Y-19027214D01*
X15762643Y-19041500D01*
X15876928Y-19341500D02*
X15891214Y-19327214D01*
X15919786Y-19284357D01*
X15934071Y-19255786D01*
X15948357Y-19212929D01*
X15962643Y-19141500D01*
X15962643Y-19084357D01*
X15948357Y-19012929D01*
X15934071Y-18970072D01*
X15919786Y-18941500D01*
X15891214Y-18898643D01*
X15876928Y-18884357D01*
M02*
