G04 #@! TF.GenerationSoftware,KiCad,Pcbnew,5.0.0-fee4fd1~66~ubuntu18.04.1*
G04 #@! TF.CreationDate,2018-08-14T13:58:44+08:00*
G04 #@! TF.ProjectId,Boost Converter,426F6F737420436F6E7665727465722E,1.0*
G04 #@! TF.SameCoordinates,Original*
G04 #@! TF.FileFunction,Copper,L1,Top,Signal*
G04 #@! TF.FilePolarity,Positive*
%FSLAX45Y45*%
G04 Gerber Fmt 4.5, Leading zero omitted, Abs format (unit mm)*
G04 Created by KiCad (PCBNEW 5.0.0-fee4fd1~66~ubuntu18.04.1) date Tue Aug 14 13:58:44 2018*
%MOMM*%
%LPD*%
G01*
G04 APERTURE LIST*
G04 #@! TA.AperFunction,ComponentPad*
%ADD10R,1.700000X1.700000*%
G04 #@! TD*
G04 #@! TA.AperFunction,ComponentPad*
%ADD11O,1.700000X1.700000*%
G04 #@! TD*
G04 #@! TA.AperFunction,SMDPad,CuDef*
%ADD12R,1.570000X0.410000*%
G04 #@! TD*
G04 #@! TA.AperFunction,SMDPad,CuDef*
%ADD13R,2.460000X2.310000*%
G04 #@! TD*
G04 #@! TA.AperFunction,SMDPad,CuDef*
%ADD14R,3.100000X5.600000*%
G04 #@! TD*
G04 #@! TA.AperFunction,ComponentPad*
%ADD15O,2.200000X2.200000*%
G04 #@! TD*
G04 #@! TA.AperFunction,ComponentPad*
%ADD16R,2.200000X2.200000*%
G04 #@! TD*
G04 #@! TA.AperFunction,Conductor*
%ADD17C,0.100000*%
G04 #@! TD*
G04 #@! TA.AperFunction,SMDPad,CuDef*
%ADD18C,1.150000*%
G04 #@! TD*
G04 #@! TA.AperFunction,ComponentPad*
%ADD19R,1.716000X1.716000*%
G04 #@! TD*
G04 #@! TA.AperFunction,ComponentPad*
%ADD20C,1.716000*%
G04 #@! TD*
G04 #@! TA.AperFunction,SMDPad,CuDef*
%ADD21C,0.975000*%
G04 #@! TD*
G04 #@! TA.AperFunction,ComponentPad*
%ADD22C,3.000000*%
G04 #@! TD*
G04 #@! TA.AperFunction,Conductor*
%ADD23C,0.250000*%
G04 #@! TD*
G04 #@! TA.AperFunction,Conductor*
%ADD24C,2.000000*%
G04 #@! TD*
G04 #@! TA.AperFunction,Conductor*
%ADD25C,0.483000*%
G04 #@! TD*
G04 #@! TA.AperFunction,Conductor*
%ADD26C,1.000000*%
G04 #@! TD*
G04 #@! TA.AperFunction,Conductor*
%ADD27C,0.381000*%
G04 #@! TD*
G04 #@! TA.AperFunction,Conductor*
%ADD28C,0.254000*%
G04 #@! TD*
G04 APERTURE END LIST*
D10*
G04 #@! TO.P,J3,1*
G04 #@! TO.N,Net-(J1-Pad1)*
X9465000Y-9942500D03*
D11*
G04 #@! TO.P,J3,2*
G04 #@! TO.N,Net-(C1-Pad1)*
X9465000Y-9688500D03*
G04 #@! TD*
D12*
G04 #@! TO.P,U1,1*
G04 #@! TO.N,Net-(D1-Pad2)*
X11337564Y-10038126D03*
G04 #@! TO.P,U1,2*
X11337564Y-10103126D03*
G04 #@! TO.P,U1,3*
G04 #@! TO.N,Net-(C1-Pad1)*
X11337564Y-10168126D03*
G04 #@! TO.P,U1,4*
X11337564Y-10233126D03*
G04 #@! TO.P,U1,5*
G04 #@! TO.N,Net-(C2-Pad1)*
X11337564Y-10298126D03*
G04 #@! TO.P,U1,6*
G04 #@! TO.N,GND*
X11337564Y-10363126D03*
G04 #@! TO.P,U1,7*
X11337564Y-10428126D03*
G04 #@! TO.P,U1,8*
G04 #@! TO.N,Net-(C5-Pad1)*
X11911564Y-10428126D03*
G04 #@! TO.P,U1,9*
G04 #@! TO.N,Net-(R3-Pad2)*
X11911564Y-10363126D03*
G04 #@! TO.P,U1,10*
G04 #@! TO.N,Net-(R1-Pad1)*
X11911564Y-10298126D03*
G04 #@! TO.P,U1,11*
G04 #@! TO.N,Net-(U1-Pad11)*
X11911564Y-10233126D03*
G04 #@! TO.P,U1,12*
G04 #@! TO.N,GND*
X11911564Y-10168126D03*
G04 #@! TO.P,U1,13*
X11911564Y-10103126D03*
G04 #@! TO.P,U1,14*
X11911564Y-10038126D03*
D13*
G04 #@! TO.P,U1,15*
G04 #@! TO.N,N/C*
X11624564Y-10233126D03*
G04 #@! TD*
D14*
G04 #@! TO.P,L1,1*
G04 #@! TO.N,Net-(C1-Pad1)*
X10570750Y-9320000D03*
G04 #@! TO.P,L1,2*
G04 #@! TO.N,Net-(D1-Pad2)*
X11574250Y-9320000D03*
G04 #@! TD*
D15*
G04 #@! TO.P,D1,2*
G04 #@! TO.N,Net-(D1-Pad2)*
X11984000Y-9320000D03*
D16*
G04 #@! TO.P,D1,1*
G04 #@! TO.N,Net-(C6-Pad1)*
X13000000Y-9320000D03*
G04 #@! TD*
D17*
G04 #@! TO.N,GND*
G04 #@! TO.C,C7*
G36*
X13507450Y-9665120D02*
X13509877Y-9665480D01*
X13512257Y-9666077D01*
X13514567Y-9666903D01*
X13516785Y-9667952D01*
X13518889Y-9669213D01*
X13520860Y-9670675D01*
X13522678Y-9672322D01*
X13524325Y-9674140D01*
X13525787Y-9676111D01*
X13527048Y-9678215D01*
X13528097Y-9680433D01*
X13528923Y-9682743D01*
X13529520Y-9685123D01*
X13529880Y-9687550D01*
X13530000Y-9690000D01*
X13530000Y-9755000D01*
X13529880Y-9757451D01*
X13529520Y-9759877D01*
X13528923Y-9762257D01*
X13528097Y-9764567D01*
X13527048Y-9766785D01*
X13525787Y-9768889D01*
X13524325Y-9770860D01*
X13522678Y-9772678D01*
X13520860Y-9774325D01*
X13518889Y-9775787D01*
X13516785Y-9777048D01*
X13514567Y-9778097D01*
X13512257Y-9778924D01*
X13509877Y-9779520D01*
X13507450Y-9779880D01*
X13505000Y-9780000D01*
X13415000Y-9780000D01*
X13412549Y-9779880D01*
X13410123Y-9779520D01*
X13407743Y-9778924D01*
X13405433Y-9778097D01*
X13403215Y-9777048D01*
X13401111Y-9775787D01*
X13399140Y-9774325D01*
X13397322Y-9772678D01*
X13395675Y-9770860D01*
X13394213Y-9768889D01*
X13392952Y-9766785D01*
X13391903Y-9764567D01*
X13391076Y-9762257D01*
X13390480Y-9759877D01*
X13390120Y-9757451D01*
X13390000Y-9755000D01*
X13390000Y-9690000D01*
X13390120Y-9687550D01*
X13390480Y-9685123D01*
X13391076Y-9682743D01*
X13391903Y-9680433D01*
X13392952Y-9678215D01*
X13394213Y-9676111D01*
X13395675Y-9674140D01*
X13397322Y-9672322D01*
X13399140Y-9670675D01*
X13401111Y-9669213D01*
X13403215Y-9667952D01*
X13405433Y-9666903D01*
X13407743Y-9666077D01*
X13410123Y-9665480D01*
X13412549Y-9665120D01*
X13415000Y-9665000D01*
X13505000Y-9665000D01*
X13507450Y-9665120D01*
X13507450Y-9665120D01*
G37*
D18*
G04 #@! TD*
G04 #@! TO.P,C7,2*
G04 #@! TO.N,GND*
X13460000Y-9722500D03*
D17*
G04 #@! TO.N,Net-(C6-Pad1)*
G04 #@! TO.C,C7*
G36*
X13507450Y-9460120D02*
X13509877Y-9460480D01*
X13512257Y-9461077D01*
X13514567Y-9461903D01*
X13516785Y-9462952D01*
X13518889Y-9464213D01*
X13520860Y-9465675D01*
X13522678Y-9467322D01*
X13524325Y-9469140D01*
X13525787Y-9471111D01*
X13527048Y-9473215D01*
X13528097Y-9475433D01*
X13528923Y-9477743D01*
X13529520Y-9480123D01*
X13529880Y-9482550D01*
X13530000Y-9485000D01*
X13530000Y-9550000D01*
X13529880Y-9552451D01*
X13529520Y-9554877D01*
X13528923Y-9557257D01*
X13528097Y-9559567D01*
X13527048Y-9561785D01*
X13525787Y-9563889D01*
X13524325Y-9565860D01*
X13522678Y-9567678D01*
X13520860Y-9569325D01*
X13518889Y-9570787D01*
X13516785Y-9572048D01*
X13514567Y-9573097D01*
X13512257Y-9573924D01*
X13509877Y-9574520D01*
X13507450Y-9574880D01*
X13505000Y-9575000D01*
X13415000Y-9575000D01*
X13412549Y-9574880D01*
X13410123Y-9574520D01*
X13407743Y-9573924D01*
X13405433Y-9573097D01*
X13403215Y-9572048D01*
X13401111Y-9570787D01*
X13399140Y-9569325D01*
X13397322Y-9567678D01*
X13395675Y-9565860D01*
X13394213Y-9563889D01*
X13392952Y-9561785D01*
X13391903Y-9559567D01*
X13391076Y-9557257D01*
X13390480Y-9554877D01*
X13390120Y-9552451D01*
X13390000Y-9550000D01*
X13390000Y-9485000D01*
X13390120Y-9482550D01*
X13390480Y-9480123D01*
X13391076Y-9477743D01*
X13391903Y-9475433D01*
X13392952Y-9473215D01*
X13394213Y-9471111D01*
X13395675Y-9469140D01*
X13397322Y-9467322D01*
X13399140Y-9465675D01*
X13401111Y-9464213D01*
X13403215Y-9462952D01*
X13405433Y-9461903D01*
X13407743Y-9461077D01*
X13410123Y-9460480D01*
X13412549Y-9460120D01*
X13415000Y-9460000D01*
X13505000Y-9460000D01*
X13507450Y-9460120D01*
X13507450Y-9460120D01*
G37*
D18*
G04 #@! TD*
G04 #@! TO.P,C7,1*
G04 #@! TO.N,Net-(C6-Pad1)*
X13460000Y-9517500D03*
D17*
G04 #@! TO.N,Net-(C5-Pad1)*
G04 #@! TO.C,C5*
G36*
X11957450Y-10830120D02*
X11959877Y-10830480D01*
X11962257Y-10831077D01*
X11964567Y-10831903D01*
X11966785Y-10832952D01*
X11968889Y-10834213D01*
X11970860Y-10835675D01*
X11972678Y-10837322D01*
X11974325Y-10839140D01*
X11975787Y-10841111D01*
X11977048Y-10843215D01*
X11978097Y-10845433D01*
X11978923Y-10847743D01*
X11979520Y-10850123D01*
X11979880Y-10852550D01*
X11980000Y-10855000D01*
X11980000Y-10945000D01*
X11979880Y-10947451D01*
X11979520Y-10949877D01*
X11978923Y-10952257D01*
X11978097Y-10954567D01*
X11977048Y-10956785D01*
X11975787Y-10958889D01*
X11974325Y-10960860D01*
X11972678Y-10962678D01*
X11970860Y-10964325D01*
X11968889Y-10965787D01*
X11966785Y-10967048D01*
X11964567Y-10968097D01*
X11962257Y-10968924D01*
X11959877Y-10969520D01*
X11957450Y-10969880D01*
X11955000Y-10970000D01*
X11890000Y-10970000D01*
X11887549Y-10969880D01*
X11885123Y-10969520D01*
X11882743Y-10968924D01*
X11880433Y-10968097D01*
X11878215Y-10967048D01*
X11876111Y-10965787D01*
X11874140Y-10964325D01*
X11872322Y-10962678D01*
X11870675Y-10960860D01*
X11869213Y-10958889D01*
X11867952Y-10956785D01*
X11866903Y-10954567D01*
X11866076Y-10952257D01*
X11865480Y-10949877D01*
X11865120Y-10947451D01*
X11865000Y-10945000D01*
X11865000Y-10855000D01*
X11865120Y-10852550D01*
X11865480Y-10850123D01*
X11866076Y-10847743D01*
X11866903Y-10845433D01*
X11867952Y-10843215D01*
X11869213Y-10841111D01*
X11870675Y-10839140D01*
X11872322Y-10837322D01*
X11874140Y-10835675D01*
X11876111Y-10834213D01*
X11878215Y-10832952D01*
X11880433Y-10831903D01*
X11882743Y-10831077D01*
X11885123Y-10830480D01*
X11887549Y-10830120D01*
X11890000Y-10830000D01*
X11955000Y-10830000D01*
X11957450Y-10830120D01*
X11957450Y-10830120D01*
G37*
D18*
G04 #@! TD*
G04 #@! TO.P,C5,1*
G04 #@! TO.N,Net-(C5-Pad1)*
X11922500Y-10900000D03*
D17*
G04 #@! TO.N,GND*
G04 #@! TO.C,C5*
G36*
X12162450Y-10830120D02*
X12164877Y-10830480D01*
X12167257Y-10831077D01*
X12169567Y-10831903D01*
X12171785Y-10832952D01*
X12173889Y-10834213D01*
X12175860Y-10835675D01*
X12177678Y-10837322D01*
X12179325Y-10839140D01*
X12180787Y-10841111D01*
X12182048Y-10843215D01*
X12183097Y-10845433D01*
X12183923Y-10847743D01*
X12184520Y-10850123D01*
X12184880Y-10852550D01*
X12185000Y-10855000D01*
X12185000Y-10945000D01*
X12184880Y-10947451D01*
X12184520Y-10949877D01*
X12183923Y-10952257D01*
X12183097Y-10954567D01*
X12182048Y-10956785D01*
X12180787Y-10958889D01*
X12179325Y-10960860D01*
X12177678Y-10962678D01*
X12175860Y-10964325D01*
X12173889Y-10965787D01*
X12171785Y-10967048D01*
X12169567Y-10968097D01*
X12167257Y-10968924D01*
X12164877Y-10969520D01*
X12162450Y-10969880D01*
X12160000Y-10970000D01*
X12095000Y-10970000D01*
X12092549Y-10969880D01*
X12090123Y-10969520D01*
X12087743Y-10968924D01*
X12085433Y-10968097D01*
X12083215Y-10967048D01*
X12081111Y-10965787D01*
X12079140Y-10964325D01*
X12077322Y-10962678D01*
X12075675Y-10960860D01*
X12074213Y-10958889D01*
X12072952Y-10956785D01*
X12071903Y-10954567D01*
X12071076Y-10952257D01*
X12070480Y-10949877D01*
X12070120Y-10947451D01*
X12070000Y-10945000D01*
X12070000Y-10855000D01*
X12070120Y-10852550D01*
X12070480Y-10850123D01*
X12071076Y-10847743D01*
X12071903Y-10845433D01*
X12072952Y-10843215D01*
X12074213Y-10841111D01*
X12075675Y-10839140D01*
X12077322Y-10837322D01*
X12079140Y-10835675D01*
X12081111Y-10834213D01*
X12083215Y-10832952D01*
X12085433Y-10831903D01*
X12087743Y-10831077D01*
X12090123Y-10830480D01*
X12092549Y-10830120D01*
X12095000Y-10830000D01*
X12160000Y-10830000D01*
X12162450Y-10830120D01*
X12162450Y-10830120D01*
G37*
D18*
G04 #@! TD*
G04 #@! TO.P,C5,2*
G04 #@! TO.N,GND*
X12127500Y-10900000D03*
D17*
G04 #@! TO.N,GND*
G04 #@! TO.C,C4*
G36*
X12562450Y-10605120D02*
X12564877Y-10605480D01*
X12567257Y-10606077D01*
X12569567Y-10606903D01*
X12571785Y-10607952D01*
X12573889Y-10609213D01*
X12575860Y-10610675D01*
X12577678Y-10612322D01*
X12579325Y-10614140D01*
X12580787Y-10616111D01*
X12582048Y-10618215D01*
X12583097Y-10620433D01*
X12583923Y-10622743D01*
X12584520Y-10625123D01*
X12584880Y-10627550D01*
X12585000Y-10630000D01*
X12585000Y-10720000D01*
X12584880Y-10722451D01*
X12584520Y-10724877D01*
X12583923Y-10727257D01*
X12583097Y-10729567D01*
X12582048Y-10731785D01*
X12580787Y-10733889D01*
X12579325Y-10735860D01*
X12577678Y-10737678D01*
X12575860Y-10739325D01*
X12573889Y-10740787D01*
X12571785Y-10742048D01*
X12569567Y-10743097D01*
X12567257Y-10743924D01*
X12564877Y-10744520D01*
X12562450Y-10744880D01*
X12560000Y-10745000D01*
X12495000Y-10745000D01*
X12492549Y-10744880D01*
X12490123Y-10744520D01*
X12487743Y-10743924D01*
X12485433Y-10743097D01*
X12483215Y-10742048D01*
X12481111Y-10740787D01*
X12479140Y-10739325D01*
X12477322Y-10737678D01*
X12475675Y-10735860D01*
X12474213Y-10733889D01*
X12472952Y-10731785D01*
X12471903Y-10729567D01*
X12471076Y-10727257D01*
X12470480Y-10724877D01*
X12470120Y-10722451D01*
X12470000Y-10720000D01*
X12470000Y-10630000D01*
X12470120Y-10627550D01*
X12470480Y-10625123D01*
X12471076Y-10622743D01*
X12471903Y-10620433D01*
X12472952Y-10618215D01*
X12474213Y-10616111D01*
X12475675Y-10614140D01*
X12477322Y-10612322D01*
X12479140Y-10610675D01*
X12481111Y-10609213D01*
X12483215Y-10607952D01*
X12485433Y-10606903D01*
X12487743Y-10606077D01*
X12490123Y-10605480D01*
X12492549Y-10605120D01*
X12495000Y-10605000D01*
X12560000Y-10605000D01*
X12562450Y-10605120D01*
X12562450Y-10605120D01*
G37*
D18*
G04 #@! TD*
G04 #@! TO.P,C4,2*
G04 #@! TO.N,GND*
X12527500Y-10675000D03*
D17*
G04 #@! TO.N,Net-(C4-Pad1)*
G04 #@! TO.C,C4*
G36*
X12357450Y-10605120D02*
X12359877Y-10605480D01*
X12362257Y-10606077D01*
X12364567Y-10606903D01*
X12366785Y-10607952D01*
X12368889Y-10609213D01*
X12370860Y-10610675D01*
X12372678Y-10612322D01*
X12374325Y-10614140D01*
X12375787Y-10616111D01*
X12377048Y-10618215D01*
X12378097Y-10620433D01*
X12378923Y-10622743D01*
X12379520Y-10625123D01*
X12379880Y-10627550D01*
X12380000Y-10630000D01*
X12380000Y-10720000D01*
X12379880Y-10722451D01*
X12379520Y-10724877D01*
X12378923Y-10727257D01*
X12378097Y-10729567D01*
X12377048Y-10731785D01*
X12375787Y-10733889D01*
X12374325Y-10735860D01*
X12372678Y-10737678D01*
X12370860Y-10739325D01*
X12368889Y-10740787D01*
X12366785Y-10742048D01*
X12364567Y-10743097D01*
X12362257Y-10743924D01*
X12359877Y-10744520D01*
X12357450Y-10744880D01*
X12355000Y-10745000D01*
X12290000Y-10745000D01*
X12287549Y-10744880D01*
X12285123Y-10744520D01*
X12282743Y-10743924D01*
X12280433Y-10743097D01*
X12278215Y-10742048D01*
X12276111Y-10740787D01*
X12274140Y-10739325D01*
X12272322Y-10737678D01*
X12270675Y-10735860D01*
X12269213Y-10733889D01*
X12267952Y-10731785D01*
X12266903Y-10729567D01*
X12266076Y-10727257D01*
X12265480Y-10724877D01*
X12265120Y-10722451D01*
X12265000Y-10720000D01*
X12265000Y-10630000D01*
X12265120Y-10627550D01*
X12265480Y-10625123D01*
X12266076Y-10622743D01*
X12266903Y-10620433D01*
X12267952Y-10618215D01*
X12269213Y-10616111D01*
X12270675Y-10614140D01*
X12272322Y-10612322D01*
X12274140Y-10610675D01*
X12276111Y-10609213D01*
X12278215Y-10607952D01*
X12280433Y-10606903D01*
X12282743Y-10606077D01*
X12285123Y-10605480D01*
X12287549Y-10605120D01*
X12290000Y-10605000D01*
X12355000Y-10605000D01*
X12357450Y-10605120D01*
X12357450Y-10605120D01*
G37*
D18*
G04 #@! TD*
G04 #@! TO.P,C4,1*
G04 #@! TO.N,Net-(C4-Pad1)*
X12322500Y-10675000D03*
D17*
G04 #@! TO.N,Net-(C2-Pad1)*
G04 #@! TO.C,C2*
G36*
X11166617Y-10576758D02*
X11169043Y-10577118D01*
X11171423Y-10577715D01*
X11173733Y-10578541D01*
X11175951Y-10579590D01*
X11178055Y-10580851D01*
X11180026Y-10582313D01*
X11181844Y-10583960D01*
X11183491Y-10585778D01*
X11184953Y-10587749D01*
X11186214Y-10589853D01*
X11187263Y-10592071D01*
X11188089Y-10594381D01*
X11188686Y-10596761D01*
X11189046Y-10599188D01*
X11189166Y-10601638D01*
X11189166Y-10691638D01*
X11189046Y-10694089D01*
X11188686Y-10696515D01*
X11188089Y-10698895D01*
X11187263Y-10701205D01*
X11186214Y-10703423D01*
X11184953Y-10705527D01*
X11183491Y-10707498D01*
X11181844Y-10709316D01*
X11180026Y-10710963D01*
X11178055Y-10712425D01*
X11175951Y-10713686D01*
X11173733Y-10714735D01*
X11171423Y-10715562D01*
X11169043Y-10716158D01*
X11166617Y-10716518D01*
X11164166Y-10716638D01*
X11099166Y-10716638D01*
X11096716Y-10716518D01*
X11094289Y-10716158D01*
X11091909Y-10715562D01*
X11089599Y-10714735D01*
X11087381Y-10713686D01*
X11085277Y-10712425D01*
X11083306Y-10710963D01*
X11081488Y-10709316D01*
X11079841Y-10707498D01*
X11078379Y-10705527D01*
X11077118Y-10703423D01*
X11076069Y-10701205D01*
X11075243Y-10698895D01*
X11074646Y-10696515D01*
X11074286Y-10694089D01*
X11074166Y-10691638D01*
X11074166Y-10601638D01*
X11074286Y-10599188D01*
X11074646Y-10596761D01*
X11075243Y-10594381D01*
X11076069Y-10592071D01*
X11077118Y-10589853D01*
X11078379Y-10587749D01*
X11079841Y-10585778D01*
X11081488Y-10583960D01*
X11083306Y-10582313D01*
X11085277Y-10580851D01*
X11087381Y-10579590D01*
X11089599Y-10578541D01*
X11091909Y-10577715D01*
X11094289Y-10577118D01*
X11096716Y-10576758D01*
X11099166Y-10576638D01*
X11164166Y-10576638D01*
X11166617Y-10576758D01*
X11166617Y-10576758D01*
G37*
D18*
G04 #@! TD*
G04 #@! TO.P,C2,1*
G04 #@! TO.N,Net-(C2-Pad1)*
X11131666Y-10646638D03*
D17*
G04 #@! TO.N,GND*
G04 #@! TO.C,C2*
G36*
X11371616Y-10576758D02*
X11374043Y-10577118D01*
X11376423Y-10577715D01*
X11378733Y-10578541D01*
X11380951Y-10579590D01*
X11383055Y-10580851D01*
X11385026Y-10582313D01*
X11386844Y-10583960D01*
X11388491Y-10585778D01*
X11389953Y-10587749D01*
X11391214Y-10589853D01*
X11392263Y-10592071D01*
X11393089Y-10594381D01*
X11393686Y-10596761D01*
X11394046Y-10599188D01*
X11394166Y-10601638D01*
X11394166Y-10691638D01*
X11394046Y-10694089D01*
X11393686Y-10696515D01*
X11393089Y-10698895D01*
X11392263Y-10701205D01*
X11391214Y-10703423D01*
X11389953Y-10705527D01*
X11388491Y-10707498D01*
X11386844Y-10709316D01*
X11385026Y-10710963D01*
X11383055Y-10712425D01*
X11380951Y-10713686D01*
X11378733Y-10714735D01*
X11376423Y-10715562D01*
X11374043Y-10716158D01*
X11371616Y-10716518D01*
X11369166Y-10716638D01*
X11304166Y-10716638D01*
X11301715Y-10716518D01*
X11299289Y-10716158D01*
X11296909Y-10715562D01*
X11294599Y-10714735D01*
X11292381Y-10713686D01*
X11290277Y-10712425D01*
X11288306Y-10710963D01*
X11286488Y-10709316D01*
X11284841Y-10707498D01*
X11283379Y-10705527D01*
X11282118Y-10703423D01*
X11281069Y-10701205D01*
X11280242Y-10698895D01*
X11279646Y-10696515D01*
X11279286Y-10694089D01*
X11279166Y-10691638D01*
X11279166Y-10601638D01*
X11279286Y-10599188D01*
X11279646Y-10596761D01*
X11280242Y-10594381D01*
X11281069Y-10592071D01*
X11282118Y-10589853D01*
X11283379Y-10587749D01*
X11284841Y-10585778D01*
X11286488Y-10583960D01*
X11288306Y-10582313D01*
X11290277Y-10580851D01*
X11292381Y-10579590D01*
X11294599Y-10578541D01*
X11296909Y-10577715D01*
X11299289Y-10577118D01*
X11301715Y-10576758D01*
X11304166Y-10576638D01*
X11369166Y-10576638D01*
X11371616Y-10576758D01*
X11371616Y-10576758D01*
G37*
D18*
G04 #@! TD*
G04 #@! TO.P,C2,2*
G04 #@! TO.N,GND*
X11336666Y-10646638D03*
D17*
G04 #@! TO.N,GND*
G04 #@! TO.C,R4*
G36*
X12512450Y-10320120D02*
X12514877Y-10320480D01*
X12517257Y-10321077D01*
X12519567Y-10321903D01*
X12521785Y-10322952D01*
X12523889Y-10324213D01*
X12525860Y-10325675D01*
X12527678Y-10327322D01*
X12529325Y-10329140D01*
X12530787Y-10331111D01*
X12532048Y-10333215D01*
X12533097Y-10335433D01*
X12533923Y-10337743D01*
X12534520Y-10340123D01*
X12534880Y-10342550D01*
X12535000Y-10345000D01*
X12535000Y-10410000D01*
X12534880Y-10412451D01*
X12534520Y-10414877D01*
X12533923Y-10417257D01*
X12533097Y-10419567D01*
X12532048Y-10421785D01*
X12530787Y-10423889D01*
X12529325Y-10425860D01*
X12527678Y-10427678D01*
X12525860Y-10429325D01*
X12523889Y-10430787D01*
X12521785Y-10432048D01*
X12519567Y-10433097D01*
X12517257Y-10433924D01*
X12514877Y-10434520D01*
X12512450Y-10434880D01*
X12510000Y-10435000D01*
X12420000Y-10435000D01*
X12417549Y-10434880D01*
X12415123Y-10434520D01*
X12412743Y-10433924D01*
X12410433Y-10433097D01*
X12408215Y-10432048D01*
X12406111Y-10430787D01*
X12404140Y-10429325D01*
X12402322Y-10427678D01*
X12400675Y-10425860D01*
X12399213Y-10423889D01*
X12397952Y-10421785D01*
X12396903Y-10419567D01*
X12396076Y-10417257D01*
X12395480Y-10414877D01*
X12395120Y-10412451D01*
X12395000Y-10410000D01*
X12395000Y-10345000D01*
X12395120Y-10342550D01*
X12395480Y-10340123D01*
X12396076Y-10337743D01*
X12396903Y-10335433D01*
X12397952Y-10333215D01*
X12399213Y-10331111D01*
X12400675Y-10329140D01*
X12402322Y-10327322D01*
X12404140Y-10325675D01*
X12406111Y-10324213D01*
X12408215Y-10322952D01*
X12410433Y-10321903D01*
X12412743Y-10321077D01*
X12415123Y-10320480D01*
X12417549Y-10320120D01*
X12420000Y-10320000D01*
X12510000Y-10320000D01*
X12512450Y-10320120D01*
X12512450Y-10320120D01*
G37*
D18*
G04 #@! TD*
G04 #@! TO.P,R4,2*
G04 #@! TO.N,GND*
X12465000Y-10377500D03*
D17*
G04 #@! TO.N,Net-(R3-Pad2)*
G04 #@! TO.C,R4*
G36*
X12512450Y-10115120D02*
X12514877Y-10115480D01*
X12517257Y-10116077D01*
X12519567Y-10116903D01*
X12521785Y-10117952D01*
X12523889Y-10119213D01*
X12525860Y-10120675D01*
X12527678Y-10122322D01*
X12529325Y-10124140D01*
X12530787Y-10126111D01*
X12532048Y-10128215D01*
X12533097Y-10130433D01*
X12533923Y-10132743D01*
X12534520Y-10135123D01*
X12534880Y-10137550D01*
X12535000Y-10140000D01*
X12535000Y-10205000D01*
X12534880Y-10207451D01*
X12534520Y-10209877D01*
X12533923Y-10212257D01*
X12533097Y-10214567D01*
X12532048Y-10216785D01*
X12530787Y-10218889D01*
X12529325Y-10220860D01*
X12527678Y-10222678D01*
X12525860Y-10224325D01*
X12523889Y-10225787D01*
X12521785Y-10227048D01*
X12519567Y-10228097D01*
X12517257Y-10228924D01*
X12514877Y-10229520D01*
X12512450Y-10229880D01*
X12510000Y-10230000D01*
X12420000Y-10230000D01*
X12417549Y-10229880D01*
X12415123Y-10229520D01*
X12412743Y-10228924D01*
X12410433Y-10228097D01*
X12408215Y-10227048D01*
X12406111Y-10225787D01*
X12404140Y-10224325D01*
X12402322Y-10222678D01*
X12400675Y-10220860D01*
X12399213Y-10218889D01*
X12397952Y-10216785D01*
X12396903Y-10214567D01*
X12396076Y-10212257D01*
X12395480Y-10209877D01*
X12395120Y-10207451D01*
X12395000Y-10205000D01*
X12395000Y-10140000D01*
X12395120Y-10137550D01*
X12395480Y-10135123D01*
X12396076Y-10132743D01*
X12396903Y-10130433D01*
X12397952Y-10128215D01*
X12399213Y-10126111D01*
X12400675Y-10124140D01*
X12402322Y-10122322D01*
X12404140Y-10120675D01*
X12406111Y-10119213D01*
X12408215Y-10117952D01*
X12410433Y-10116903D01*
X12412743Y-10116077D01*
X12415123Y-10115480D01*
X12417549Y-10115120D01*
X12420000Y-10115000D01*
X12510000Y-10115000D01*
X12512450Y-10115120D01*
X12512450Y-10115120D01*
G37*
D18*
G04 #@! TD*
G04 #@! TO.P,R4,1*
G04 #@! TO.N,Net-(R3-Pad2)*
X12465000Y-10172500D03*
D17*
G04 #@! TO.N,Net-(C6-Pad1)*
G04 #@! TO.C,R3*
G36*
X12512450Y-9715120D02*
X12514877Y-9715480D01*
X12517257Y-9716077D01*
X12519567Y-9716903D01*
X12521785Y-9717952D01*
X12523889Y-9719213D01*
X12525860Y-9720675D01*
X12527678Y-9722322D01*
X12529325Y-9724140D01*
X12530787Y-9726111D01*
X12532048Y-9728215D01*
X12533097Y-9730433D01*
X12533923Y-9732743D01*
X12534520Y-9735123D01*
X12534880Y-9737550D01*
X12535000Y-9740000D01*
X12535000Y-9805000D01*
X12534880Y-9807451D01*
X12534520Y-9809877D01*
X12533923Y-9812257D01*
X12533097Y-9814567D01*
X12532048Y-9816785D01*
X12530787Y-9818889D01*
X12529325Y-9820860D01*
X12527678Y-9822678D01*
X12525860Y-9824325D01*
X12523889Y-9825787D01*
X12521785Y-9827048D01*
X12519567Y-9828097D01*
X12517257Y-9828924D01*
X12514877Y-9829520D01*
X12512450Y-9829880D01*
X12510000Y-9830000D01*
X12420000Y-9830000D01*
X12417549Y-9829880D01*
X12415123Y-9829520D01*
X12412743Y-9828924D01*
X12410433Y-9828097D01*
X12408215Y-9827048D01*
X12406111Y-9825787D01*
X12404140Y-9824325D01*
X12402322Y-9822678D01*
X12400675Y-9820860D01*
X12399213Y-9818889D01*
X12397952Y-9816785D01*
X12396903Y-9814567D01*
X12396076Y-9812257D01*
X12395480Y-9809877D01*
X12395120Y-9807451D01*
X12395000Y-9805000D01*
X12395000Y-9740000D01*
X12395120Y-9737550D01*
X12395480Y-9735123D01*
X12396076Y-9732743D01*
X12396903Y-9730433D01*
X12397952Y-9728215D01*
X12399213Y-9726111D01*
X12400675Y-9724140D01*
X12402322Y-9722322D01*
X12404140Y-9720675D01*
X12406111Y-9719213D01*
X12408215Y-9717952D01*
X12410433Y-9716903D01*
X12412743Y-9716077D01*
X12415123Y-9715480D01*
X12417549Y-9715120D01*
X12420000Y-9715000D01*
X12510000Y-9715000D01*
X12512450Y-9715120D01*
X12512450Y-9715120D01*
G37*
D18*
G04 #@! TD*
G04 #@! TO.P,R3,1*
G04 #@! TO.N,Net-(C6-Pad1)*
X12465000Y-9772500D03*
D17*
G04 #@! TO.N,Net-(R3-Pad2)*
G04 #@! TO.C,R3*
G36*
X12512450Y-9920120D02*
X12514877Y-9920480D01*
X12517257Y-9921077D01*
X12519567Y-9921903D01*
X12521785Y-9922952D01*
X12523889Y-9924213D01*
X12525860Y-9925675D01*
X12527678Y-9927322D01*
X12529325Y-9929140D01*
X12530787Y-9931111D01*
X12532048Y-9933215D01*
X12533097Y-9935433D01*
X12533923Y-9937743D01*
X12534520Y-9940123D01*
X12534880Y-9942550D01*
X12535000Y-9945000D01*
X12535000Y-10010000D01*
X12534880Y-10012451D01*
X12534520Y-10014877D01*
X12533923Y-10017257D01*
X12533097Y-10019567D01*
X12532048Y-10021785D01*
X12530787Y-10023889D01*
X12529325Y-10025860D01*
X12527678Y-10027678D01*
X12525860Y-10029325D01*
X12523889Y-10030787D01*
X12521785Y-10032048D01*
X12519567Y-10033097D01*
X12517257Y-10033924D01*
X12514877Y-10034520D01*
X12512450Y-10034880D01*
X12510000Y-10035000D01*
X12420000Y-10035000D01*
X12417549Y-10034880D01*
X12415123Y-10034520D01*
X12412743Y-10033924D01*
X12410433Y-10033097D01*
X12408215Y-10032048D01*
X12406111Y-10030787D01*
X12404140Y-10029325D01*
X12402322Y-10027678D01*
X12400675Y-10025860D01*
X12399213Y-10023889D01*
X12397952Y-10021785D01*
X12396903Y-10019567D01*
X12396076Y-10017257D01*
X12395480Y-10014877D01*
X12395120Y-10012451D01*
X12395000Y-10010000D01*
X12395000Y-9945000D01*
X12395120Y-9942550D01*
X12395480Y-9940123D01*
X12396076Y-9937743D01*
X12396903Y-9935433D01*
X12397952Y-9933215D01*
X12399213Y-9931111D01*
X12400675Y-9929140D01*
X12402322Y-9927322D01*
X12404140Y-9925675D01*
X12406111Y-9924213D01*
X12408215Y-9922952D01*
X12410433Y-9921903D01*
X12412743Y-9921077D01*
X12415123Y-9920480D01*
X12417549Y-9920120D01*
X12420000Y-9920000D01*
X12510000Y-9920000D01*
X12512450Y-9920120D01*
X12512450Y-9920120D01*
G37*
D18*
G04 #@! TD*
G04 #@! TO.P,R3,2*
G04 #@! TO.N,Net-(R3-Pad2)*
X12465000Y-9977500D03*
D17*
G04 #@! TO.N,Net-(C4-Pad1)*
G04 #@! TO.C,R2*
G36*
X12159950Y-10605120D02*
X12162377Y-10605480D01*
X12164757Y-10606077D01*
X12167067Y-10606903D01*
X12169285Y-10607952D01*
X12171389Y-10609213D01*
X12173360Y-10610675D01*
X12175178Y-10612322D01*
X12176825Y-10614140D01*
X12178287Y-10616111D01*
X12179548Y-10618215D01*
X12180597Y-10620433D01*
X12181423Y-10622743D01*
X12182020Y-10625123D01*
X12182380Y-10627550D01*
X12182500Y-10630000D01*
X12182500Y-10720000D01*
X12182380Y-10722451D01*
X12182020Y-10724877D01*
X12181423Y-10727257D01*
X12180597Y-10729567D01*
X12179548Y-10731785D01*
X12178287Y-10733889D01*
X12176825Y-10735860D01*
X12175178Y-10737678D01*
X12173360Y-10739325D01*
X12171389Y-10740787D01*
X12169285Y-10742048D01*
X12167067Y-10743097D01*
X12164757Y-10743924D01*
X12162377Y-10744520D01*
X12159950Y-10744880D01*
X12157500Y-10745000D01*
X12092500Y-10745000D01*
X12090049Y-10744880D01*
X12087623Y-10744520D01*
X12085243Y-10743924D01*
X12082933Y-10743097D01*
X12080715Y-10742048D01*
X12078611Y-10740787D01*
X12076640Y-10739325D01*
X12074822Y-10737678D01*
X12073175Y-10735860D01*
X12071713Y-10733889D01*
X12070452Y-10731785D01*
X12069403Y-10729567D01*
X12068576Y-10727257D01*
X12067980Y-10724877D01*
X12067620Y-10722451D01*
X12067500Y-10720000D01*
X12067500Y-10630000D01*
X12067620Y-10627550D01*
X12067980Y-10625123D01*
X12068576Y-10622743D01*
X12069403Y-10620433D01*
X12070452Y-10618215D01*
X12071713Y-10616111D01*
X12073175Y-10614140D01*
X12074822Y-10612322D01*
X12076640Y-10610675D01*
X12078611Y-10609213D01*
X12080715Y-10607952D01*
X12082933Y-10606903D01*
X12085243Y-10606077D01*
X12087623Y-10605480D01*
X12090049Y-10605120D01*
X12092500Y-10605000D01*
X12157500Y-10605000D01*
X12159950Y-10605120D01*
X12159950Y-10605120D01*
G37*
D18*
G04 #@! TD*
G04 #@! TO.P,R2,2*
G04 #@! TO.N,Net-(C4-Pad1)*
X12125000Y-10675000D03*
D17*
G04 #@! TO.N,Net-(C5-Pad1)*
G04 #@! TO.C,R2*
G36*
X11954950Y-10605120D02*
X11957377Y-10605480D01*
X11959757Y-10606077D01*
X11962067Y-10606903D01*
X11964285Y-10607952D01*
X11966389Y-10609213D01*
X11968360Y-10610675D01*
X11970178Y-10612322D01*
X11971825Y-10614140D01*
X11973287Y-10616111D01*
X11974548Y-10618215D01*
X11975597Y-10620433D01*
X11976423Y-10622743D01*
X11977020Y-10625123D01*
X11977380Y-10627550D01*
X11977500Y-10630000D01*
X11977500Y-10720000D01*
X11977380Y-10722451D01*
X11977020Y-10724877D01*
X11976423Y-10727257D01*
X11975597Y-10729567D01*
X11974548Y-10731785D01*
X11973287Y-10733889D01*
X11971825Y-10735860D01*
X11970178Y-10737678D01*
X11968360Y-10739325D01*
X11966389Y-10740787D01*
X11964285Y-10742048D01*
X11962067Y-10743097D01*
X11959757Y-10743924D01*
X11957377Y-10744520D01*
X11954950Y-10744880D01*
X11952500Y-10745000D01*
X11887500Y-10745000D01*
X11885049Y-10744880D01*
X11882623Y-10744520D01*
X11880243Y-10743924D01*
X11877933Y-10743097D01*
X11875715Y-10742048D01*
X11873611Y-10740787D01*
X11871640Y-10739325D01*
X11869822Y-10737678D01*
X11868175Y-10735860D01*
X11866713Y-10733889D01*
X11865452Y-10731785D01*
X11864403Y-10729567D01*
X11863576Y-10727257D01*
X11862980Y-10724877D01*
X11862620Y-10722451D01*
X11862500Y-10720000D01*
X11862500Y-10630000D01*
X11862620Y-10627550D01*
X11862980Y-10625123D01*
X11863576Y-10622743D01*
X11864403Y-10620433D01*
X11865452Y-10618215D01*
X11866713Y-10616111D01*
X11868175Y-10614140D01*
X11869822Y-10612322D01*
X11871640Y-10610675D01*
X11873611Y-10609213D01*
X11875715Y-10607952D01*
X11877933Y-10606903D01*
X11880243Y-10606077D01*
X11882623Y-10605480D01*
X11885049Y-10605120D01*
X11887500Y-10605000D01*
X11952500Y-10605000D01*
X11954950Y-10605120D01*
X11954950Y-10605120D01*
G37*
D18*
G04 #@! TD*
G04 #@! TO.P,R2,1*
G04 #@! TO.N,Net-(C5-Pad1)*
X11920000Y-10675000D03*
D17*
G04 #@! TO.N,Net-(R1-Pad1)*
G04 #@! TO.C,R1*
G36*
X12247450Y-10145120D02*
X12249877Y-10145480D01*
X12252257Y-10146077D01*
X12254567Y-10146903D01*
X12256785Y-10147952D01*
X12258889Y-10149213D01*
X12260860Y-10150675D01*
X12262678Y-10152322D01*
X12264325Y-10154140D01*
X12265787Y-10156111D01*
X12267048Y-10158215D01*
X12268097Y-10160433D01*
X12268923Y-10162743D01*
X12269520Y-10165123D01*
X12269880Y-10167550D01*
X12270000Y-10170000D01*
X12270000Y-10235000D01*
X12269880Y-10237451D01*
X12269520Y-10239877D01*
X12268923Y-10242257D01*
X12268097Y-10244567D01*
X12267048Y-10246785D01*
X12265787Y-10248889D01*
X12264325Y-10250860D01*
X12262678Y-10252678D01*
X12260860Y-10254325D01*
X12258889Y-10255787D01*
X12256785Y-10257048D01*
X12254567Y-10258097D01*
X12252257Y-10258924D01*
X12249877Y-10259520D01*
X12247450Y-10259880D01*
X12245000Y-10260000D01*
X12155000Y-10260000D01*
X12152549Y-10259880D01*
X12150123Y-10259520D01*
X12147743Y-10258924D01*
X12145433Y-10258097D01*
X12143215Y-10257048D01*
X12141111Y-10255787D01*
X12139140Y-10254325D01*
X12137322Y-10252678D01*
X12135675Y-10250860D01*
X12134213Y-10248889D01*
X12132952Y-10246785D01*
X12131903Y-10244567D01*
X12131076Y-10242257D01*
X12130480Y-10239877D01*
X12130120Y-10237451D01*
X12130000Y-10235000D01*
X12130000Y-10170000D01*
X12130120Y-10167550D01*
X12130480Y-10165123D01*
X12131076Y-10162743D01*
X12131903Y-10160433D01*
X12132952Y-10158215D01*
X12134213Y-10156111D01*
X12135675Y-10154140D01*
X12137322Y-10152322D01*
X12139140Y-10150675D01*
X12141111Y-10149213D01*
X12143215Y-10147952D01*
X12145433Y-10146903D01*
X12147743Y-10146077D01*
X12150123Y-10145480D01*
X12152549Y-10145120D01*
X12155000Y-10145000D01*
X12245000Y-10145000D01*
X12247450Y-10145120D01*
X12247450Y-10145120D01*
G37*
D18*
G04 #@! TD*
G04 #@! TO.P,R1,1*
G04 #@! TO.N,Net-(R1-Pad1)*
X12200000Y-10202500D03*
D17*
G04 #@! TO.N,GND*
G04 #@! TO.C,R1*
G36*
X12247450Y-9940120D02*
X12249877Y-9940480D01*
X12252257Y-9941077D01*
X12254567Y-9941903D01*
X12256785Y-9942952D01*
X12258889Y-9944213D01*
X12260860Y-9945675D01*
X12262678Y-9947322D01*
X12264325Y-9949140D01*
X12265787Y-9951111D01*
X12267048Y-9953215D01*
X12268097Y-9955433D01*
X12268923Y-9957743D01*
X12269520Y-9960123D01*
X12269880Y-9962550D01*
X12270000Y-9965000D01*
X12270000Y-10030000D01*
X12269880Y-10032451D01*
X12269520Y-10034877D01*
X12268923Y-10037257D01*
X12268097Y-10039567D01*
X12267048Y-10041785D01*
X12265787Y-10043889D01*
X12264325Y-10045860D01*
X12262678Y-10047678D01*
X12260860Y-10049325D01*
X12258889Y-10050787D01*
X12256785Y-10052048D01*
X12254567Y-10053097D01*
X12252257Y-10053924D01*
X12249877Y-10054520D01*
X12247450Y-10054880D01*
X12245000Y-10055000D01*
X12155000Y-10055000D01*
X12152549Y-10054880D01*
X12150123Y-10054520D01*
X12147743Y-10053924D01*
X12145433Y-10053097D01*
X12143215Y-10052048D01*
X12141111Y-10050787D01*
X12139140Y-10049325D01*
X12137322Y-10047678D01*
X12135675Y-10045860D01*
X12134213Y-10043889D01*
X12132952Y-10041785D01*
X12131903Y-10039567D01*
X12131076Y-10037257D01*
X12130480Y-10034877D01*
X12130120Y-10032451D01*
X12130000Y-10030000D01*
X12130000Y-9965000D01*
X12130120Y-9962550D01*
X12130480Y-9960123D01*
X12131076Y-9957743D01*
X12131903Y-9955433D01*
X12132952Y-9953215D01*
X12134213Y-9951111D01*
X12135675Y-9949140D01*
X12137322Y-9947322D01*
X12139140Y-9945675D01*
X12141111Y-9944213D01*
X12143215Y-9942952D01*
X12145433Y-9941903D01*
X12147743Y-9941077D01*
X12150123Y-9940480D01*
X12152549Y-9940120D01*
X12155000Y-9940000D01*
X12245000Y-9940000D01*
X12247450Y-9940120D01*
X12247450Y-9940120D01*
G37*
D18*
G04 #@! TD*
G04 #@! TO.P,R1,2*
G04 #@! TO.N,GND*
X12200000Y-9997500D03*
D19*
G04 #@! TO.P,C6,1*
G04 #@! TO.N,Net-(C6-Pad1)*
X14415000Y-9455000D03*
D20*
G04 #@! TO.P,C6,2*
G04 #@! TO.N,GND*
X14415000Y-9709000D03*
G04 #@! TD*
G04 #@! TO.P,C1,2*
G04 #@! TO.N,GND*
X9786000Y-9320000D03*
D19*
G04 #@! TO.P,C1,1*
G04 #@! TO.N,Net-(C1-Pad1)*
X10040000Y-9320000D03*
G04 #@! TD*
D17*
G04 #@! TO.N,Net-(C1-Pad1)*
G04 #@! TO.C,C3*
G36*
X11028014Y-10117617D02*
X11030380Y-10117968D01*
X11032701Y-10118550D01*
X11034953Y-10119355D01*
X11037115Y-10120378D01*
X11039167Y-10121608D01*
X11041088Y-10123033D01*
X11042861Y-10124639D01*
X11044467Y-10126412D01*
X11045892Y-10128333D01*
X11047122Y-10130385D01*
X11048145Y-10132547D01*
X11048950Y-10134799D01*
X11049532Y-10137120D01*
X11049883Y-10139486D01*
X11050000Y-10141875D01*
X11050000Y-10190625D01*
X11049883Y-10193014D01*
X11049532Y-10195380D01*
X11048950Y-10197701D01*
X11048145Y-10199953D01*
X11047122Y-10202115D01*
X11045892Y-10204167D01*
X11044467Y-10206088D01*
X11042861Y-10207861D01*
X11041088Y-10209467D01*
X11039167Y-10210892D01*
X11037115Y-10212122D01*
X11034953Y-10213145D01*
X11032701Y-10213950D01*
X11030380Y-10214532D01*
X11028014Y-10214883D01*
X11025625Y-10215000D01*
X10934375Y-10215000D01*
X10931986Y-10214883D01*
X10929620Y-10214532D01*
X10927299Y-10213950D01*
X10925047Y-10213145D01*
X10922885Y-10212122D01*
X10920833Y-10210892D01*
X10918912Y-10209467D01*
X10917139Y-10207861D01*
X10915533Y-10206088D01*
X10914108Y-10204167D01*
X10912878Y-10202115D01*
X10911855Y-10199953D01*
X10911050Y-10197701D01*
X10910468Y-10195380D01*
X10910117Y-10193014D01*
X10910000Y-10190625D01*
X10910000Y-10141875D01*
X10910117Y-10139486D01*
X10910468Y-10137120D01*
X10911050Y-10134799D01*
X10911855Y-10132547D01*
X10912878Y-10130385D01*
X10914108Y-10128333D01*
X10915533Y-10126412D01*
X10917139Y-10124639D01*
X10918912Y-10123033D01*
X10920833Y-10121608D01*
X10922885Y-10120378D01*
X10925047Y-10119355D01*
X10927299Y-10118550D01*
X10929620Y-10117968D01*
X10931986Y-10117617D01*
X10934375Y-10117500D01*
X11025625Y-10117500D01*
X11028014Y-10117617D01*
X11028014Y-10117617D01*
G37*
D21*
G04 #@! TD*
G04 #@! TO.P,C3,1*
G04 #@! TO.N,Net-(C1-Pad1)*
X10980000Y-10166250D03*
D17*
G04 #@! TO.N,GND*
G04 #@! TO.C,C3*
G36*
X11028014Y-10305117D02*
X11030380Y-10305468D01*
X11032701Y-10306050D01*
X11034953Y-10306855D01*
X11037115Y-10307878D01*
X11039167Y-10309108D01*
X11041088Y-10310533D01*
X11042861Y-10312139D01*
X11044467Y-10313912D01*
X11045892Y-10315833D01*
X11047122Y-10317885D01*
X11048145Y-10320047D01*
X11048950Y-10322299D01*
X11049532Y-10324620D01*
X11049883Y-10326986D01*
X11050000Y-10329375D01*
X11050000Y-10378125D01*
X11049883Y-10380514D01*
X11049532Y-10382880D01*
X11048950Y-10385201D01*
X11048145Y-10387453D01*
X11047122Y-10389615D01*
X11045892Y-10391667D01*
X11044467Y-10393588D01*
X11042861Y-10395361D01*
X11041088Y-10396967D01*
X11039167Y-10398392D01*
X11037115Y-10399622D01*
X11034953Y-10400645D01*
X11032701Y-10401450D01*
X11030380Y-10402032D01*
X11028014Y-10402383D01*
X11025625Y-10402500D01*
X10934375Y-10402500D01*
X10931986Y-10402383D01*
X10929620Y-10402032D01*
X10927299Y-10401450D01*
X10925047Y-10400645D01*
X10922885Y-10399622D01*
X10920833Y-10398392D01*
X10918912Y-10396967D01*
X10917139Y-10395361D01*
X10915533Y-10393588D01*
X10914108Y-10391667D01*
X10912878Y-10389615D01*
X10911855Y-10387453D01*
X10911050Y-10385201D01*
X10910468Y-10382880D01*
X10910117Y-10380514D01*
X10910000Y-10378125D01*
X10910000Y-10329375D01*
X10910117Y-10326986D01*
X10910468Y-10324620D01*
X10911050Y-10322299D01*
X10911855Y-10320047D01*
X10912878Y-10317885D01*
X10914108Y-10315833D01*
X10915533Y-10313912D01*
X10917139Y-10312139D01*
X10918912Y-10310533D01*
X10920833Y-10309108D01*
X10922885Y-10307878D01*
X10925047Y-10306855D01*
X10927299Y-10306050D01*
X10929620Y-10305468D01*
X10931986Y-10305117D01*
X10934375Y-10305000D01*
X11025625Y-10305000D01*
X11028014Y-10305117D01*
X11028014Y-10305117D01*
G37*
D21*
G04 #@! TD*
G04 #@! TO.P,C3,2*
G04 #@! TO.N,GND*
X10980000Y-10353750D03*
D10*
G04 #@! TO.P,J1,1*
G04 #@! TO.N,Net-(J1-Pad1)*
X9462500Y-10740000D03*
D11*
G04 #@! TO.P,J1,2*
G04 #@! TO.N,GND*
X9462500Y-10486000D03*
G04 #@! TD*
G04 #@! TO.P,J2,2*
G04 #@! TO.N,GND*
X15352500Y-9709000D03*
D10*
G04 #@! TO.P,J2,1*
G04 #@! TO.N,Net-(C6-Pad1)*
X15352500Y-9455000D03*
G04 #@! TD*
D22*
G04 #@! TO.P,REF\002A\002A,*
G04 #@! TO.N,*
X8650090Y-8100000D03*
X8650090Y-11200070D03*
X16149948Y-11200070D03*
X16150000Y-8100000D03*
G04 #@! TD*
D23*
G04 #@! TO.N,Net-(C1-Pad1)*
X10981876Y-10168126D02*
X10980000Y-10166250D01*
X11337564Y-10168126D02*
X10981876Y-10168126D01*
X11337564Y-10233126D02*
X11337564Y-10168126D01*
D24*
X10040000Y-9320000D02*
X10570750Y-9320000D01*
D25*
X10980000Y-10166250D02*
X10980000Y-10140000D01*
X10570750Y-9730750D02*
X10570750Y-9320000D01*
X10980000Y-10140000D02*
X10570750Y-9730750D01*
D24*
X9465000Y-9688500D02*
X9924000Y-9688500D01*
X10040000Y-9572500D02*
X10040000Y-9320000D01*
X9924000Y-9688500D02*
X10040000Y-9572500D01*
D25*
G04 #@! TO.N,GND*
X11337564Y-10363126D02*
X11337564Y-10428126D01*
X11911564Y-10103126D02*
X11911564Y-10168126D01*
D24*
G04 #@! TO.N,Net-(C6-Pad1)*
X14280000Y-9320000D02*
X14415000Y-9455000D01*
X13460000Y-9450000D02*
X13460000Y-9320000D01*
X13460000Y-9517500D02*
X13460000Y-9450000D01*
X13000000Y-9320000D02*
X13460000Y-9320000D01*
X13460000Y-9320000D02*
X14280000Y-9320000D01*
X14420000Y-9460000D02*
X14415000Y-9455000D01*
D26*
X12527337Y-9710163D02*
X12869837Y-9710163D01*
X12465000Y-9772500D02*
X12527337Y-9710163D01*
X13000000Y-9580000D02*
X13000000Y-9320000D01*
X12869837Y-9710163D02*
X13000000Y-9580000D01*
D24*
X14415000Y-9455000D02*
X15352500Y-9455000D01*
D23*
G04 #@! TO.N,Net-(D1-Pad2)*
X11337564Y-10103126D02*
X11337564Y-10038126D01*
D24*
X11574250Y-9320000D02*
X11984000Y-9320000D01*
D25*
X11337564Y-10038126D02*
X11337564Y-10009936D01*
X11574250Y-9773250D02*
X11574250Y-9320000D01*
X11337564Y-10009936D02*
X11574250Y-9773250D01*
D23*
G04 #@! TO.N,Net-(R3-Pad2)*
X12274374Y-10363126D02*
X11911564Y-10363126D01*
X12465000Y-10172500D02*
X12274374Y-10363126D01*
D26*
X12465000Y-9977500D02*
X12465000Y-10172500D01*
D23*
G04 #@! TO.N,Net-(C2-Pad1)*
X11131666Y-10403856D02*
X11131666Y-10646638D01*
X11131666Y-10388334D02*
X11131666Y-10403856D01*
X11337564Y-10298126D02*
X11221874Y-10298126D01*
X11221874Y-10298126D02*
X11131666Y-10388334D01*
D27*
G04 #@! TO.N,Net-(C5-Pad1)*
X11911564Y-10666564D02*
X11920000Y-10675000D01*
X11911564Y-10428126D02*
X11911564Y-10666564D01*
X11920000Y-10897500D02*
X11922500Y-10900000D01*
X11920000Y-10675000D02*
X11920000Y-10897500D01*
D23*
G04 #@! TO.N,Net-(R1-Pad1)*
X12015064Y-10298126D02*
X11911564Y-10298126D01*
X12171874Y-10298126D02*
X12015064Y-10298126D01*
X12200000Y-10270000D02*
X12171874Y-10298126D01*
X12200000Y-10202500D02*
X12200000Y-10270000D01*
D27*
G04 #@! TO.N,Net-(C4-Pad1)*
X12125000Y-10675000D02*
X12322500Y-10675000D01*
D24*
G04 #@! TO.N,Net-(J1-Pad1)*
X9462500Y-10740000D02*
X9282500Y-10740000D01*
X9180000Y-10227500D02*
X9465000Y-9942500D01*
X9180000Y-10637500D02*
X9180000Y-10227500D01*
X9282500Y-10740000D02*
X9180000Y-10637500D01*
G04 #@! TD*
D28*
G04 #@! TO.N,GND*
G36*
X8959000Y-8416511D02*
X8958657Y-8420000D01*
X8960027Y-8433918D01*
X8964087Y-8447302D01*
X8970680Y-8459636D01*
X8979553Y-8470448D01*
X8990364Y-8479320D01*
X9002698Y-8485913D01*
X9016082Y-8489973D01*
X9026512Y-8491000D01*
X9030000Y-8491344D01*
X9033488Y-8491000D01*
X13251512Y-8491000D01*
X13255000Y-8491344D01*
X13258488Y-8491000D01*
X13268918Y-8489973D01*
X13282302Y-8485913D01*
X13294636Y-8479320D01*
X13305447Y-8470448D01*
X13314320Y-8459636D01*
X13320913Y-8447302D01*
X13324973Y-8433918D01*
X13326343Y-8420000D01*
X13326000Y-8416512D01*
X13326000Y-7906000D01*
X16060455Y-7906000D01*
X16048870Y-7910799D01*
X16013902Y-7934164D01*
X15984164Y-7963902D01*
X15960799Y-7998870D01*
X15944705Y-8037724D01*
X15936500Y-8078972D01*
X15936500Y-8121028D01*
X15944705Y-8162276D01*
X15960799Y-8201130D01*
X15984164Y-8236098D01*
X16013902Y-8265836D01*
X16048870Y-8289201D01*
X16087724Y-8305295D01*
X16128972Y-8313500D01*
X16171028Y-8313500D01*
X16212276Y-8305295D01*
X16251130Y-8289201D01*
X16286098Y-8265836D01*
X16315836Y-8236098D01*
X16339201Y-8201130D01*
X16344000Y-8189545D01*
X16344000Y-11110651D01*
X16339149Y-11098940D01*
X16315784Y-11063972D01*
X16286046Y-11034234D01*
X16251078Y-11010869D01*
X16212224Y-10994775D01*
X16170976Y-10986570D01*
X16128920Y-10986570D01*
X16087672Y-10994775D01*
X16048818Y-11010869D01*
X16013850Y-11034234D01*
X15984112Y-11063972D01*
X15960747Y-11098940D01*
X15944653Y-11137794D01*
X15936448Y-11179042D01*
X15936448Y-11221098D01*
X15944653Y-11262346D01*
X15960747Y-11301200D01*
X15984112Y-11336168D01*
X16013850Y-11365906D01*
X16048818Y-11389271D01*
X16060234Y-11394000D01*
X8739804Y-11394000D01*
X8751220Y-11389271D01*
X8786188Y-11365906D01*
X8815926Y-11336168D01*
X8839291Y-11301200D01*
X8855385Y-11262346D01*
X8863590Y-11221098D01*
X8863590Y-11179042D01*
X8855385Y-11137794D01*
X8839291Y-11098940D01*
X8815926Y-11063972D01*
X8786188Y-11034234D01*
X8751220Y-11010869D01*
X8712366Y-10994775D01*
X8671118Y-10986570D01*
X8629062Y-10986570D01*
X8587814Y-10994775D01*
X8548960Y-11010869D01*
X8513992Y-11034234D01*
X8484254Y-11063972D01*
X8460889Y-11098940D01*
X8456000Y-11110742D01*
X8456000Y-10227500D01*
X9015709Y-10227500D01*
X9016500Y-10235533D01*
X9016500Y-10629468D01*
X9015709Y-10637500D01*
X9016500Y-10645532D01*
X9016500Y-10645532D01*
X9018866Y-10669552D01*
X9028215Y-10700371D01*
X9043397Y-10728775D01*
X9063829Y-10753671D01*
X9070069Y-10758793D01*
X9161208Y-10849931D01*
X9166329Y-10856171D01*
X9191225Y-10876603D01*
X9219629Y-10891785D01*
X9250448Y-10901134D01*
X9274468Y-10903500D01*
X9274468Y-10903500D01*
X9282500Y-10904291D01*
X9290532Y-10903500D01*
X9470532Y-10903500D01*
X9494552Y-10901134D01*
X9525372Y-10891785D01*
X9530943Y-10888807D01*
X9547500Y-10888807D01*
X9559948Y-10887581D01*
X9571918Y-10883950D01*
X9582949Y-10878054D01*
X9592619Y-10870119D01*
X9600554Y-10860449D01*
X9606450Y-10849418D01*
X9610081Y-10837448D01*
X9611307Y-10825000D01*
X9611307Y-10808443D01*
X9614285Y-10802872D01*
X9623634Y-10772052D01*
X9626791Y-10740000D01*
X9623634Y-10707948D01*
X9614285Y-10677129D01*
X9611307Y-10671557D01*
X9611307Y-10655000D01*
X9610081Y-10642552D01*
X9606450Y-10630582D01*
X9600554Y-10619551D01*
X9592619Y-10609882D01*
X9582949Y-10601946D01*
X9571918Y-10596050D01*
X9559948Y-10592419D01*
X9547500Y-10591193D01*
X9530943Y-10591193D01*
X9525372Y-10588215D01*
X9494552Y-10578866D01*
X9470532Y-10576500D01*
X9350224Y-10576500D01*
X9343500Y-10569776D01*
X9343500Y-10295224D01*
X9547417Y-10091307D01*
X9550000Y-10091307D01*
X9562448Y-10090081D01*
X9574418Y-10086450D01*
X9585449Y-10080554D01*
X9595119Y-10072619D01*
X9603054Y-10062949D01*
X9608950Y-10051918D01*
X9612581Y-10039948D01*
X9613807Y-10027500D01*
X9613807Y-10010943D01*
X9616785Y-10005372D01*
X9626134Y-9974552D01*
X9629291Y-9942500D01*
X9626134Y-9910448D01*
X9616785Y-9879629D01*
X9613807Y-9874057D01*
X9613807Y-9857500D01*
X9613266Y-9852000D01*
X9915968Y-9852000D01*
X9924000Y-9852791D01*
X9932032Y-9852000D01*
X9932032Y-9852000D01*
X9956052Y-9849634D01*
X9986872Y-9840285D01*
X10015275Y-9825103D01*
X10040171Y-9804671D01*
X10045292Y-9798431D01*
X10149932Y-9693792D01*
X10156171Y-9688671D01*
X10176603Y-9663775D01*
X10191785Y-9635372D01*
X10196903Y-9618500D01*
X10201134Y-9604552D01*
X10204291Y-9572500D01*
X10203500Y-9564468D01*
X10203500Y-9483500D01*
X10351943Y-9483500D01*
X10351943Y-9600000D01*
X10353169Y-9612448D01*
X10356800Y-9624418D01*
X10362696Y-9635449D01*
X10370632Y-9645119D01*
X10380301Y-9653054D01*
X10391332Y-9658950D01*
X10403302Y-9662581D01*
X10415750Y-9663807D01*
X10483100Y-9663807D01*
X10483100Y-9726444D01*
X10482676Y-9730750D01*
X10483100Y-9735056D01*
X10483100Y-9735056D01*
X10484368Y-9747932D01*
X10489380Y-9764454D01*
X10489380Y-9764455D01*
X10497519Y-9779681D01*
X10505727Y-9789683D01*
X10508472Y-9793028D01*
X10511817Y-9795773D01*
X10847244Y-10131200D01*
X10846193Y-10141875D01*
X10846193Y-10190625D01*
X10847887Y-10207829D01*
X10852905Y-10224371D01*
X10861054Y-10239616D01*
X10872021Y-10252979D01*
X10885384Y-10263946D01*
X10900629Y-10272095D01*
X10917172Y-10277113D01*
X10934375Y-10278807D01*
X11025625Y-10278807D01*
X11042829Y-10277113D01*
X11059371Y-10272095D01*
X11074616Y-10263946D01*
X11087979Y-10252979D01*
X11095245Y-10244126D01*
X11167874Y-10244126D01*
X11165494Y-10247026D01*
X11080566Y-10331954D01*
X11077666Y-10334334D01*
X11072722Y-10340359D01*
X11068169Y-10345906D01*
X11061112Y-10359109D01*
X11061111Y-10359109D01*
X11056766Y-10373436D01*
X11055666Y-10384601D01*
X11055666Y-10384602D01*
X11055298Y-10388334D01*
X11055666Y-10392066D01*
X11055666Y-10524677D01*
X11049827Y-10527798D01*
X11036370Y-10538842D01*
X11025326Y-10552299D01*
X11017119Y-10567653D01*
X11012065Y-10584313D01*
X11010359Y-10601638D01*
X11010359Y-10691638D01*
X11012065Y-10708964D01*
X11017119Y-10725623D01*
X11025326Y-10740977D01*
X11036370Y-10754434D01*
X11049827Y-10765479D01*
X11065181Y-10773685D01*
X11081841Y-10778739D01*
X11099166Y-10780445D01*
X11164166Y-10780445D01*
X11181492Y-10778739D01*
X11198151Y-10773685D01*
X11213505Y-10765479D01*
X11226962Y-10754434D01*
X11238006Y-10740977D01*
X11246213Y-10725623D01*
X11251267Y-10708964D01*
X11252973Y-10691638D01*
X11252973Y-10601638D01*
X11251267Y-10584313D01*
X11246213Y-10567653D01*
X11238006Y-10552299D01*
X11226962Y-10538842D01*
X11213505Y-10527798D01*
X11207666Y-10524677D01*
X11207666Y-10419814D01*
X11246353Y-10381127D01*
X11246616Y-10381207D01*
X11259064Y-10382433D01*
X11416064Y-10382433D01*
X11428512Y-10381207D01*
X11440482Y-10377576D01*
X11444024Y-10375683D01*
X11448510Y-10384075D01*
X11456445Y-10393745D01*
X11466115Y-10401680D01*
X11477146Y-10407576D01*
X11489116Y-10411207D01*
X11501564Y-10412433D01*
X11747564Y-10412433D01*
X11760012Y-10411207D01*
X11769257Y-10408403D01*
X11769257Y-10448626D01*
X11770483Y-10461074D01*
X11774114Y-10473044D01*
X11780010Y-10484075D01*
X11787945Y-10493745D01*
X11797615Y-10501680D01*
X11808646Y-10507576D01*
X11820616Y-10511207D01*
X11829014Y-10512034D01*
X11829014Y-10563667D01*
X11824704Y-10567204D01*
X11813659Y-10580661D01*
X11805453Y-10596015D01*
X11800399Y-10612675D01*
X11798693Y-10630000D01*
X11798693Y-10720000D01*
X11800399Y-10737326D01*
X11805453Y-10753985D01*
X11813659Y-10769339D01*
X11824704Y-10782796D01*
X11831685Y-10788526D01*
X11827204Y-10792204D01*
X11816159Y-10805661D01*
X11807953Y-10821015D01*
X11802899Y-10837675D01*
X11801193Y-10855000D01*
X11801193Y-10945000D01*
X11802899Y-10962326D01*
X11807953Y-10978985D01*
X11816159Y-10994339D01*
X11827204Y-11007796D01*
X11840661Y-11018841D01*
X11856015Y-11027047D01*
X11872674Y-11032101D01*
X11890000Y-11033807D01*
X11955000Y-11033807D01*
X11972325Y-11032101D01*
X11988985Y-11027047D01*
X12004339Y-11018841D01*
X12017796Y-11007796D01*
X12028840Y-10994339D01*
X12037047Y-10978985D01*
X12042101Y-10962326D01*
X12043807Y-10945000D01*
X12043807Y-10855000D01*
X12042101Y-10837675D01*
X12037047Y-10821015D01*
X12028840Y-10805661D01*
X12017796Y-10792204D01*
X12010815Y-10786474D01*
X12015296Y-10782796D01*
X12022500Y-10774018D01*
X12029704Y-10782796D01*
X12043161Y-10793841D01*
X12058515Y-10802047D01*
X12075174Y-10807101D01*
X12092500Y-10808807D01*
X12157500Y-10808807D01*
X12174825Y-10807101D01*
X12191485Y-10802047D01*
X12206839Y-10793841D01*
X12220296Y-10782796D01*
X12223750Y-10778588D01*
X12227204Y-10782796D01*
X12240661Y-10793841D01*
X12256015Y-10802047D01*
X12272674Y-10807101D01*
X12290000Y-10808807D01*
X12355000Y-10808807D01*
X12372325Y-10807101D01*
X12388985Y-10802047D01*
X12404339Y-10793841D01*
X12417796Y-10782796D01*
X12428840Y-10769339D01*
X12437047Y-10753985D01*
X12442101Y-10737326D01*
X12443807Y-10720000D01*
X12443807Y-10630000D01*
X12442101Y-10612675D01*
X12437047Y-10596015D01*
X12428840Y-10580661D01*
X12417796Y-10567204D01*
X12404339Y-10556160D01*
X12388985Y-10547953D01*
X12372325Y-10542899D01*
X12355000Y-10541193D01*
X12290000Y-10541193D01*
X12272674Y-10542899D01*
X12256015Y-10547953D01*
X12240661Y-10556160D01*
X12227204Y-10567204D01*
X12223750Y-10571412D01*
X12220296Y-10567204D01*
X12206839Y-10556160D01*
X12191485Y-10547953D01*
X12174825Y-10542899D01*
X12157500Y-10541193D01*
X12092500Y-10541193D01*
X12075174Y-10542899D01*
X12058515Y-10547953D01*
X12043161Y-10556160D01*
X12029704Y-10567204D01*
X12022500Y-10575982D01*
X12015296Y-10567204D01*
X12001839Y-10556160D01*
X11994114Y-10552031D01*
X11994114Y-10512034D01*
X12002512Y-10511207D01*
X12014482Y-10507576D01*
X12025513Y-10501680D01*
X12035182Y-10493745D01*
X12043118Y-10484075D01*
X12049014Y-10473044D01*
X12052645Y-10461074D01*
X12053871Y-10448626D01*
X12053871Y-10439126D01*
X12270642Y-10439126D01*
X12274374Y-10439494D01*
X12278106Y-10439126D01*
X12278107Y-10439126D01*
X12289273Y-10438026D01*
X12303599Y-10433681D01*
X12316802Y-10426623D01*
X12328374Y-10417126D01*
X12330754Y-10414226D01*
X12451173Y-10293807D01*
X12510000Y-10293807D01*
X12527325Y-10292101D01*
X12543985Y-10287047D01*
X12559339Y-10278841D01*
X12572796Y-10267796D01*
X12583840Y-10254339D01*
X12592047Y-10238985D01*
X12597101Y-10222326D01*
X12598807Y-10205000D01*
X12598807Y-10140000D01*
X12597101Y-10122675D01*
X12592047Y-10106015D01*
X12583840Y-10090661D01*
X12578500Y-10084154D01*
X12578500Y-10065846D01*
X12583840Y-10059339D01*
X12592047Y-10043985D01*
X12597101Y-10027326D01*
X12598807Y-10010000D01*
X12598807Y-9945000D01*
X12597101Y-9927675D01*
X12592047Y-9911015D01*
X12583840Y-9895661D01*
X12572796Y-9882204D01*
X12564018Y-9875000D01*
X12572796Y-9867796D01*
X12583840Y-9854339D01*
X12592047Y-9838985D01*
X12596695Y-9823663D01*
X12864262Y-9823663D01*
X12869837Y-9824212D01*
X12875412Y-9823663D01*
X12875412Y-9823663D01*
X12892087Y-9822021D01*
X12913482Y-9815530D01*
X12933199Y-9804991D01*
X12950482Y-9790808D01*
X12954037Y-9786476D01*
X13076314Y-9664199D01*
X13080645Y-9660645D01*
X13094828Y-9643362D01*
X13105368Y-9623645D01*
X13111858Y-9602250D01*
X13113500Y-9585575D01*
X13113500Y-9585575D01*
X13114049Y-9580000D01*
X13113500Y-9574425D01*
X13113500Y-9493463D01*
X13122448Y-9492581D01*
X13134418Y-9488950D01*
X13144614Y-9483500D01*
X13296500Y-9483500D01*
X13296500Y-9525532D01*
X13298866Y-9549552D01*
X13308215Y-9580371D01*
X13323397Y-9608775D01*
X13343829Y-9633671D01*
X13368725Y-9654103D01*
X13397128Y-9669285D01*
X13427948Y-9678634D01*
X13460000Y-9681791D01*
X13492051Y-9678634D01*
X13522871Y-9669285D01*
X13551275Y-9654103D01*
X13576171Y-9633671D01*
X13596603Y-9608775D01*
X13611785Y-9580372D01*
X13621134Y-9549552D01*
X13623500Y-9525532D01*
X13623500Y-9483500D01*
X14212276Y-9483500D01*
X14265393Y-9536617D01*
X14265393Y-9540800D01*
X14266619Y-9553248D01*
X14270250Y-9565218D01*
X14276146Y-9576249D01*
X14284081Y-9585919D01*
X14293751Y-9593854D01*
X14304782Y-9599750D01*
X14316752Y-9603381D01*
X14329200Y-9604607D01*
X14343700Y-9604607D01*
X14357129Y-9611785D01*
X14387948Y-9621134D01*
X14420000Y-9624291D01*
X14452052Y-9621134D01*
X14460736Y-9618500D01*
X15360532Y-9618500D01*
X15384552Y-9616134D01*
X15415371Y-9606785D01*
X15420943Y-9603807D01*
X15437500Y-9603807D01*
X15449948Y-9602581D01*
X15461918Y-9598950D01*
X15472949Y-9593054D01*
X15482618Y-9585119D01*
X15490554Y-9575449D01*
X15496450Y-9564418D01*
X15500081Y-9552448D01*
X15501307Y-9540000D01*
X15501307Y-9523443D01*
X15504285Y-9517872D01*
X15513634Y-9487052D01*
X15516791Y-9455000D01*
X15513634Y-9422948D01*
X15504285Y-9392129D01*
X15501307Y-9386557D01*
X15501307Y-9370000D01*
X15500081Y-9357552D01*
X15496450Y-9345582D01*
X15490554Y-9334551D01*
X15482618Y-9324882D01*
X15472949Y-9316946D01*
X15461918Y-9311050D01*
X15449948Y-9307419D01*
X15437500Y-9306193D01*
X15420943Y-9306193D01*
X15415371Y-9303215D01*
X15384552Y-9293866D01*
X15360532Y-9291500D01*
X14482724Y-9291500D01*
X14401292Y-9210069D01*
X14396171Y-9203829D01*
X14371275Y-9183397D01*
X14342871Y-9168215D01*
X14312052Y-9158866D01*
X14288032Y-9156500D01*
X14288032Y-9156500D01*
X14280000Y-9155709D01*
X14271968Y-9156500D01*
X13468032Y-9156500D01*
X13460000Y-9155709D01*
X13451968Y-9156500D01*
X13144614Y-9156500D01*
X13134418Y-9151050D01*
X13122448Y-9147419D01*
X13110000Y-9146193D01*
X12890000Y-9146193D01*
X12877552Y-9147419D01*
X12865582Y-9151050D01*
X12854551Y-9156946D01*
X12844881Y-9164882D01*
X12836946Y-9174551D01*
X12831050Y-9185582D01*
X12827419Y-9197552D01*
X12826193Y-9210000D01*
X12826193Y-9430000D01*
X12827419Y-9442448D01*
X12831050Y-9454418D01*
X12836946Y-9465449D01*
X12844881Y-9475119D01*
X12854551Y-9483054D01*
X12865582Y-9488950D01*
X12877552Y-9492581D01*
X12886500Y-9493463D01*
X12886500Y-9532987D01*
X12822824Y-9596663D01*
X12532912Y-9596663D01*
X12527337Y-9596114D01*
X12505087Y-9598305D01*
X12502961Y-9598950D01*
X12483692Y-9604795D01*
X12463975Y-9615334D01*
X12446692Y-9629518D01*
X12443138Y-9633849D01*
X12425794Y-9651193D01*
X12420000Y-9651193D01*
X12402674Y-9652899D01*
X12386015Y-9657953D01*
X12370661Y-9666160D01*
X12357204Y-9677204D01*
X12346159Y-9690661D01*
X12337953Y-9706015D01*
X12332899Y-9722675D01*
X12331193Y-9740000D01*
X12331193Y-9805000D01*
X12332899Y-9822326D01*
X12337953Y-9838985D01*
X12346159Y-9854339D01*
X12357204Y-9867796D01*
X12365982Y-9875000D01*
X12357204Y-9882204D01*
X12346159Y-9895661D01*
X12337953Y-9911015D01*
X12332899Y-9927675D01*
X12331193Y-9945000D01*
X12331193Y-10010000D01*
X12332899Y-10027326D01*
X12337953Y-10043985D01*
X12346159Y-10059339D01*
X12351500Y-10065846D01*
X12351500Y-10084154D01*
X12346159Y-10090661D01*
X12337953Y-10106015D01*
X12332899Y-10122675D01*
X12331193Y-10140000D01*
X12331193Y-10149681D01*
X12327047Y-10136015D01*
X12318840Y-10120661D01*
X12307796Y-10107204D01*
X12294339Y-10096160D01*
X12278985Y-10087953D01*
X12262325Y-10082899D01*
X12245000Y-10081193D01*
X12155000Y-10081193D01*
X12137674Y-10082899D01*
X12121015Y-10087953D01*
X12105661Y-10096160D01*
X12092204Y-10107204D01*
X12081159Y-10120661D01*
X12072953Y-10136015D01*
X12067899Y-10152675D01*
X12066193Y-10170000D01*
X12066193Y-10222126D01*
X12053871Y-10222126D01*
X12053871Y-10212626D01*
X12052645Y-10200178D01*
X12049014Y-10188208D01*
X12043118Y-10177177D01*
X12035182Y-10167508D01*
X12025513Y-10159572D01*
X12014482Y-10153676D01*
X12002512Y-10150045D01*
X11990064Y-10148819D01*
X11833064Y-10148819D01*
X11820616Y-10150045D01*
X11811371Y-10152849D01*
X11811371Y-10117626D01*
X11810145Y-10105178D01*
X11806514Y-10093208D01*
X11800618Y-10082177D01*
X11792682Y-10072508D01*
X11783013Y-10064572D01*
X11771982Y-10058676D01*
X11760012Y-10055045D01*
X11747564Y-10053819D01*
X11501564Y-10053819D01*
X11489116Y-10055045D01*
X11479871Y-10057849D01*
X11479871Y-10017626D01*
X11478645Y-10005178D01*
X11475767Y-9995689D01*
X11633183Y-9838273D01*
X11636528Y-9835528D01*
X11639461Y-9831954D01*
X11647481Y-9822181D01*
X11655620Y-9806955D01*
X11655941Y-9805897D01*
X11660632Y-9790432D01*
X11661900Y-9777556D01*
X11661900Y-9777556D01*
X11662324Y-9773250D01*
X11661900Y-9768944D01*
X11661900Y-9663807D01*
X11729250Y-9663807D01*
X11741698Y-9662581D01*
X11753668Y-9658950D01*
X11764699Y-9653054D01*
X11774368Y-9645119D01*
X11782304Y-9635449D01*
X11788200Y-9624418D01*
X11791831Y-9612448D01*
X11793057Y-9600000D01*
X11793057Y-9483500D01*
X11925298Y-9483500D01*
X11949988Y-9490990D01*
X11975477Y-9493500D01*
X11992522Y-9493500D01*
X12018012Y-9490990D01*
X12050717Y-9481069D01*
X12080858Y-9464958D01*
X12107277Y-9443277D01*
X12128958Y-9416858D01*
X12145069Y-9386717D01*
X12154989Y-9354012D01*
X12158339Y-9320000D01*
X12154989Y-9285988D01*
X12145069Y-9253283D01*
X12128958Y-9223142D01*
X12107277Y-9196723D01*
X12080858Y-9175042D01*
X12050717Y-9158931D01*
X12018012Y-9149011D01*
X11992522Y-9146500D01*
X11975477Y-9146500D01*
X11949988Y-9149011D01*
X11925298Y-9156500D01*
X11793057Y-9156500D01*
X11793057Y-9040000D01*
X11791831Y-9027552D01*
X11788200Y-9015582D01*
X11782304Y-9004551D01*
X11774368Y-8994882D01*
X11764699Y-8986946D01*
X11753668Y-8981050D01*
X11741698Y-8977419D01*
X11729250Y-8976193D01*
X11419250Y-8976193D01*
X11406802Y-8977419D01*
X11394832Y-8981050D01*
X11383801Y-8986946D01*
X11374131Y-8994882D01*
X11366196Y-9004551D01*
X11360300Y-9015582D01*
X11356669Y-9027552D01*
X11355443Y-9040000D01*
X11355443Y-9600000D01*
X11356669Y-9612448D01*
X11360300Y-9624418D01*
X11366196Y-9635449D01*
X11374131Y-9645119D01*
X11383801Y-9653054D01*
X11394832Y-9658950D01*
X11406802Y-9662581D01*
X11419250Y-9663807D01*
X11486600Y-9663807D01*
X11486600Y-9736944D01*
X11278631Y-9944913D01*
X11275286Y-9947658D01*
X11270230Y-9953819D01*
X11259064Y-9953819D01*
X11246616Y-9955045D01*
X11234646Y-9958676D01*
X11223615Y-9964572D01*
X11213945Y-9972508D01*
X11206010Y-9982177D01*
X11200114Y-9993208D01*
X11196483Y-10005178D01*
X11195257Y-10017626D01*
X11195257Y-10058626D01*
X11196439Y-10070626D01*
X11195257Y-10082626D01*
X11195257Y-10092126D01*
X11098324Y-10092126D01*
X11087979Y-10079521D01*
X11074616Y-10068554D01*
X11059371Y-10060405D01*
X11042829Y-10055387D01*
X11025625Y-10053693D01*
X11017649Y-10053693D01*
X10658400Y-9694444D01*
X10658400Y-9663807D01*
X10725750Y-9663807D01*
X10738198Y-9662581D01*
X10750168Y-9658950D01*
X10761199Y-9653054D01*
X10770869Y-9645119D01*
X10778804Y-9635449D01*
X10784700Y-9624418D01*
X10788331Y-9612448D01*
X10789557Y-9600000D01*
X10789557Y-9040000D01*
X10788331Y-9027552D01*
X10784700Y-9015582D01*
X10778804Y-9004551D01*
X10770869Y-8994882D01*
X10761199Y-8986946D01*
X10750168Y-8981050D01*
X10738198Y-8977419D01*
X10725750Y-8976193D01*
X10415750Y-8976193D01*
X10403302Y-8977419D01*
X10391332Y-8981050D01*
X10380301Y-8986946D01*
X10370632Y-8994882D01*
X10362696Y-9004551D01*
X10356800Y-9015582D01*
X10353169Y-9027552D01*
X10351943Y-9040000D01*
X10351943Y-9156500D01*
X10048032Y-9156500D01*
X10040000Y-9155709D01*
X10031968Y-9156500D01*
X10007948Y-9158866D01*
X9977129Y-9168215D01*
X9973054Y-9170393D01*
X9954200Y-9170393D01*
X9941752Y-9171619D01*
X9929782Y-9175250D01*
X9918751Y-9181146D01*
X9909082Y-9189082D01*
X9901146Y-9198751D01*
X9895250Y-9209782D01*
X9891619Y-9221752D01*
X9890393Y-9234200D01*
X9890393Y-9253054D01*
X9888215Y-9257129D01*
X9878866Y-9287948D01*
X9875709Y-9320000D01*
X9876500Y-9328033D01*
X9876500Y-9504776D01*
X9856276Y-9525000D01*
X9456968Y-9525000D01*
X9432948Y-9527366D01*
X9402129Y-9536715D01*
X9373725Y-9551897D01*
X9348829Y-9572329D01*
X9328397Y-9597225D01*
X9313215Y-9625629D01*
X9303866Y-9656448D01*
X9300709Y-9688500D01*
X9303866Y-9720552D01*
X9313215Y-9751372D01*
X9328397Y-9779775D01*
X9347396Y-9802926D01*
X9344551Y-9804446D01*
X9334882Y-9812382D01*
X9326946Y-9822051D01*
X9321050Y-9833082D01*
X9317419Y-9845052D01*
X9316193Y-9857500D01*
X9316193Y-9860083D01*
X9070068Y-10106208D01*
X9063829Y-10111329D01*
X9043833Y-10135694D01*
X9043397Y-10136225D01*
X9028215Y-10164629D01*
X9018866Y-10195448D01*
X9015709Y-10227500D01*
X8456000Y-10227500D01*
X8456000Y-8189328D01*
X8460889Y-8201130D01*
X8484254Y-8236098D01*
X8513992Y-8265836D01*
X8548960Y-8289201D01*
X8587814Y-8305295D01*
X8629062Y-8313500D01*
X8671118Y-8313500D01*
X8712366Y-8305295D01*
X8751220Y-8289201D01*
X8786188Y-8265836D01*
X8815926Y-8236098D01*
X8839291Y-8201130D01*
X8855385Y-8162276D01*
X8863590Y-8121028D01*
X8863590Y-8078972D01*
X8855385Y-8037724D01*
X8839291Y-7998870D01*
X8815926Y-7963902D01*
X8786188Y-7934164D01*
X8751220Y-7910799D01*
X8739635Y-7906000D01*
X8959000Y-7906000D01*
X8959000Y-8416511D01*
X8959000Y-8416511D01*
G37*
X8959000Y-8416511D02*
X8958657Y-8420000D01*
X8960027Y-8433918D01*
X8964087Y-8447302D01*
X8970680Y-8459636D01*
X8979553Y-8470448D01*
X8990364Y-8479320D01*
X9002698Y-8485913D01*
X9016082Y-8489973D01*
X9026512Y-8491000D01*
X9030000Y-8491344D01*
X9033488Y-8491000D01*
X13251512Y-8491000D01*
X13255000Y-8491344D01*
X13258488Y-8491000D01*
X13268918Y-8489973D01*
X13282302Y-8485913D01*
X13294636Y-8479320D01*
X13305447Y-8470448D01*
X13314320Y-8459636D01*
X13320913Y-8447302D01*
X13324973Y-8433918D01*
X13326343Y-8420000D01*
X13326000Y-8416512D01*
X13326000Y-7906000D01*
X16060455Y-7906000D01*
X16048870Y-7910799D01*
X16013902Y-7934164D01*
X15984164Y-7963902D01*
X15960799Y-7998870D01*
X15944705Y-8037724D01*
X15936500Y-8078972D01*
X15936500Y-8121028D01*
X15944705Y-8162276D01*
X15960799Y-8201130D01*
X15984164Y-8236098D01*
X16013902Y-8265836D01*
X16048870Y-8289201D01*
X16087724Y-8305295D01*
X16128972Y-8313500D01*
X16171028Y-8313500D01*
X16212276Y-8305295D01*
X16251130Y-8289201D01*
X16286098Y-8265836D01*
X16315836Y-8236098D01*
X16339201Y-8201130D01*
X16344000Y-8189545D01*
X16344000Y-11110651D01*
X16339149Y-11098940D01*
X16315784Y-11063972D01*
X16286046Y-11034234D01*
X16251078Y-11010869D01*
X16212224Y-10994775D01*
X16170976Y-10986570D01*
X16128920Y-10986570D01*
X16087672Y-10994775D01*
X16048818Y-11010869D01*
X16013850Y-11034234D01*
X15984112Y-11063972D01*
X15960747Y-11098940D01*
X15944653Y-11137794D01*
X15936448Y-11179042D01*
X15936448Y-11221098D01*
X15944653Y-11262346D01*
X15960747Y-11301200D01*
X15984112Y-11336168D01*
X16013850Y-11365906D01*
X16048818Y-11389271D01*
X16060234Y-11394000D01*
X8739804Y-11394000D01*
X8751220Y-11389271D01*
X8786188Y-11365906D01*
X8815926Y-11336168D01*
X8839291Y-11301200D01*
X8855385Y-11262346D01*
X8863590Y-11221098D01*
X8863590Y-11179042D01*
X8855385Y-11137794D01*
X8839291Y-11098940D01*
X8815926Y-11063972D01*
X8786188Y-11034234D01*
X8751220Y-11010869D01*
X8712366Y-10994775D01*
X8671118Y-10986570D01*
X8629062Y-10986570D01*
X8587814Y-10994775D01*
X8548960Y-11010869D01*
X8513992Y-11034234D01*
X8484254Y-11063972D01*
X8460889Y-11098940D01*
X8456000Y-11110742D01*
X8456000Y-10227500D01*
X9015709Y-10227500D01*
X9016500Y-10235533D01*
X9016500Y-10629468D01*
X9015709Y-10637500D01*
X9016500Y-10645532D01*
X9016500Y-10645532D01*
X9018866Y-10669552D01*
X9028215Y-10700371D01*
X9043397Y-10728775D01*
X9063829Y-10753671D01*
X9070069Y-10758793D01*
X9161208Y-10849931D01*
X9166329Y-10856171D01*
X9191225Y-10876603D01*
X9219629Y-10891785D01*
X9250448Y-10901134D01*
X9274468Y-10903500D01*
X9274468Y-10903500D01*
X9282500Y-10904291D01*
X9290532Y-10903500D01*
X9470532Y-10903500D01*
X9494552Y-10901134D01*
X9525372Y-10891785D01*
X9530943Y-10888807D01*
X9547500Y-10888807D01*
X9559948Y-10887581D01*
X9571918Y-10883950D01*
X9582949Y-10878054D01*
X9592619Y-10870119D01*
X9600554Y-10860449D01*
X9606450Y-10849418D01*
X9610081Y-10837448D01*
X9611307Y-10825000D01*
X9611307Y-10808443D01*
X9614285Y-10802872D01*
X9623634Y-10772052D01*
X9626791Y-10740000D01*
X9623634Y-10707948D01*
X9614285Y-10677129D01*
X9611307Y-10671557D01*
X9611307Y-10655000D01*
X9610081Y-10642552D01*
X9606450Y-10630582D01*
X9600554Y-10619551D01*
X9592619Y-10609882D01*
X9582949Y-10601946D01*
X9571918Y-10596050D01*
X9559948Y-10592419D01*
X9547500Y-10591193D01*
X9530943Y-10591193D01*
X9525372Y-10588215D01*
X9494552Y-10578866D01*
X9470532Y-10576500D01*
X9350224Y-10576500D01*
X9343500Y-10569776D01*
X9343500Y-10295224D01*
X9547417Y-10091307D01*
X9550000Y-10091307D01*
X9562448Y-10090081D01*
X9574418Y-10086450D01*
X9585449Y-10080554D01*
X9595119Y-10072619D01*
X9603054Y-10062949D01*
X9608950Y-10051918D01*
X9612581Y-10039948D01*
X9613807Y-10027500D01*
X9613807Y-10010943D01*
X9616785Y-10005372D01*
X9626134Y-9974552D01*
X9629291Y-9942500D01*
X9626134Y-9910448D01*
X9616785Y-9879629D01*
X9613807Y-9874057D01*
X9613807Y-9857500D01*
X9613266Y-9852000D01*
X9915968Y-9852000D01*
X9924000Y-9852791D01*
X9932032Y-9852000D01*
X9932032Y-9852000D01*
X9956052Y-9849634D01*
X9986872Y-9840285D01*
X10015275Y-9825103D01*
X10040171Y-9804671D01*
X10045292Y-9798431D01*
X10149932Y-9693792D01*
X10156171Y-9688671D01*
X10176603Y-9663775D01*
X10191785Y-9635372D01*
X10196903Y-9618500D01*
X10201134Y-9604552D01*
X10204291Y-9572500D01*
X10203500Y-9564468D01*
X10203500Y-9483500D01*
X10351943Y-9483500D01*
X10351943Y-9600000D01*
X10353169Y-9612448D01*
X10356800Y-9624418D01*
X10362696Y-9635449D01*
X10370632Y-9645119D01*
X10380301Y-9653054D01*
X10391332Y-9658950D01*
X10403302Y-9662581D01*
X10415750Y-9663807D01*
X10483100Y-9663807D01*
X10483100Y-9726444D01*
X10482676Y-9730750D01*
X10483100Y-9735056D01*
X10483100Y-9735056D01*
X10484368Y-9747932D01*
X10489380Y-9764454D01*
X10489380Y-9764455D01*
X10497519Y-9779681D01*
X10505727Y-9789683D01*
X10508472Y-9793028D01*
X10511817Y-9795773D01*
X10847244Y-10131200D01*
X10846193Y-10141875D01*
X10846193Y-10190625D01*
X10847887Y-10207829D01*
X10852905Y-10224371D01*
X10861054Y-10239616D01*
X10872021Y-10252979D01*
X10885384Y-10263946D01*
X10900629Y-10272095D01*
X10917172Y-10277113D01*
X10934375Y-10278807D01*
X11025625Y-10278807D01*
X11042829Y-10277113D01*
X11059371Y-10272095D01*
X11074616Y-10263946D01*
X11087979Y-10252979D01*
X11095245Y-10244126D01*
X11167874Y-10244126D01*
X11165494Y-10247026D01*
X11080566Y-10331954D01*
X11077666Y-10334334D01*
X11072722Y-10340359D01*
X11068169Y-10345906D01*
X11061112Y-10359109D01*
X11061111Y-10359109D01*
X11056766Y-10373436D01*
X11055666Y-10384601D01*
X11055666Y-10384602D01*
X11055298Y-10388334D01*
X11055666Y-10392066D01*
X11055666Y-10524677D01*
X11049827Y-10527798D01*
X11036370Y-10538842D01*
X11025326Y-10552299D01*
X11017119Y-10567653D01*
X11012065Y-10584313D01*
X11010359Y-10601638D01*
X11010359Y-10691638D01*
X11012065Y-10708964D01*
X11017119Y-10725623D01*
X11025326Y-10740977D01*
X11036370Y-10754434D01*
X11049827Y-10765479D01*
X11065181Y-10773685D01*
X11081841Y-10778739D01*
X11099166Y-10780445D01*
X11164166Y-10780445D01*
X11181492Y-10778739D01*
X11198151Y-10773685D01*
X11213505Y-10765479D01*
X11226962Y-10754434D01*
X11238006Y-10740977D01*
X11246213Y-10725623D01*
X11251267Y-10708964D01*
X11252973Y-10691638D01*
X11252973Y-10601638D01*
X11251267Y-10584313D01*
X11246213Y-10567653D01*
X11238006Y-10552299D01*
X11226962Y-10538842D01*
X11213505Y-10527798D01*
X11207666Y-10524677D01*
X11207666Y-10419814D01*
X11246353Y-10381127D01*
X11246616Y-10381207D01*
X11259064Y-10382433D01*
X11416064Y-10382433D01*
X11428512Y-10381207D01*
X11440482Y-10377576D01*
X11444024Y-10375683D01*
X11448510Y-10384075D01*
X11456445Y-10393745D01*
X11466115Y-10401680D01*
X11477146Y-10407576D01*
X11489116Y-10411207D01*
X11501564Y-10412433D01*
X11747564Y-10412433D01*
X11760012Y-10411207D01*
X11769257Y-10408403D01*
X11769257Y-10448626D01*
X11770483Y-10461074D01*
X11774114Y-10473044D01*
X11780010Y-10484075D01*
X11787945Y-10493745D01*
X11797615Y-10501680D01*
X11808646Y-10507576D01*
X11820616Y-10511207D01*
X11829014Y-10512034D01*
X11829014Y-10563667D01*
X11824704Y-10567204D01*
X11813659Y-10580661D01*
X11805453Y-10596015D01*
X11800399Y-10612675D01*
X11798693Y-10630000D01*
X11798693Y-10720000D01*
X11800399Y-10737326D01*
X11805453Y-10753985D01*
X11813659Y-10769339D01*
X11824704Y-10782796D01*
X11831685Y-10788526D01*
X11827204Y-10792204D01*
X11816159Y-10805661D01*
X11807953Y-10821015D01*
X11802899Y-10837675D01*
X11801193Y-10855000D01*
X11801193Y-10945000D01*
X11802899Y-10962326D01*
X11807953Y-10978985D01*
X11816159Y-10994339D01*
X11827204Y-11007796D01*
X11840661Y-11018841D01*
X11856015Y-11027047D01*
X11872674Y-11032101D01*
X11890000Y-11033807D01*
X11955000Y-11033807D01*
X11972325Y-11032101D01*
X11988985Y-11027047D01*
X12004339Y-11018841D01*
X12017796Y-11007796D01*
X12028840Y-10994339D01*
X12037047Y-10978985D01*
X12042101Y-10962326D01*
X12043807Y-10945000D01*
X12043807Y-10855000D01*
X12042101Y-10837675D01*
X12037047Y-10821015D01*
X12028840Y-10805661D01*
X12017796Y-10792204D01*
X12010815Y-10786474D01*
X12015296Y-10782796D01*
X12022500Y-10774018D01*
X12029704Y-10782796D01*
X12043161Y-10793841D01*
X12058515Y-10802047D01*
X12075174Y-10807101D01*
X12092500Y-10808807D01*
X12157500Y-10808807D01*
X12174825Y-10807101D01*
X12191485Y-10802047D01*
X12206839Y-10793841D01*
X12220296Y-10782796D01*
X12223750Y-10778588D01*
X12227204Y-10782796D01*
X12240661Y-10793841D01*
X12256015Y-10802047D01*
X12272674Y-10807101D01*
X12290000Y-10808807D01*
X12355000Y-10808807D01*
X12372325Y-10807101D01*
X12388985Y-10802047D01*
X12404339Y-10793841D01*
X12417796Y-10782796D01*
X12428840Y-10769339D01*
X12437047Y-10753985D01*
X12442101Y-10737326D01*
X12443807Y-10720000D01*
X12443807Y-10630000D01*
X12442101Y-10612675D01*
X12437047Y-10596015D01*
X12428840Y-10580661D01*
X12417796Y-10567204D01*
X12404339Y-10556160D01*
X12388985Y-10547953D01*
X12372325Y-10542899D01*
X12355000Y-10541193D01*
X12290000Y-10541193D01*
X12272674Y-10542899D01*
X12256015Y-10547953D01*
X12240661Y-10556160D01*
X12227204Y-10567204D01*
X12223750Y-10571412D01*
X12220296Y-10567204D01*
X12206839Y-10556160D01*
X12191485Y-10547953D01*
X12174825Y-10542899D01*
X12157500Y-10541193D01*
X12092500Y-10541193D01*
X12075174Y-10542899D01*
X12058515Y-10547953D01*
X12043161Y-10556160D01*
X12029704Y-10567204D01*
X12022500Y-10575982D01*
X12015296Y-10567204D01*
X12001839Y-10556160D01*
X11994114Y-10552031D01*
X11994114Y-10512034D01*
X12002512Y-10511207D01*
X12014482Y-10507576D01*
X12025513Y-10501680D01*
X12035182Y-10493745D01*
X12043118Y-10484075D01*
X12049014Y-10473044D01*
X12052645Y-10461074D01*
X12053871Y-10448626D01*
X12053871Y-10439126D01*
X12270642Y-10439126D01*
X12274374Y-10439494D01*
X12278106Y-10439126D01*
X12278107Y-10439126D01*
X12289273Y-10438026D01*
X12303599Y-10433681D01*
X12316802Y-10426623D01*
X12328374Y-10417126D01*
X12330754Y-10414226D01*
X12451173Y-10293807D01*
X12510000Y-10293807D01*
X12527325Y-10292101D01*
X12543985Y-10287047D01*
X12559339Y-10278841D01*
X12572796Y-10267796D01*
X12583840Y-10254339D01*
X12592047Y-10238985D01*
X12597101Y-10222326D01*
X12598807Y-10205000D01*
X12598807Y-10140000D01*
X12597101Y-10122675D01*
X12592047Y-10106015D01*
X12583840Y-10090661D01*
X12578500Y-10084154D01*
X12578500Y-10065846D01*
X12583840Y-10059339D01*
X12592047Y-10043985D01*
X12597101Y-10027326D01*
X12598807Y-10010000D01*
X12598807Y-9945000D01*
X12597101Y-9927675D01*
X12592047Y-9911015D01*
X12583840Y-9895661D01*
X12572796Y-9882204D01*
X12564018Y-9875000D01*
X12572796Y-9867796D01*
X12583840Y-9854339D01*
X12592047Y-9838985D01*
X12596695Y-9823663D01*
X12864262Y-9823663D01*
X12869837Y-9824212D01*
X12875412Y-9823663D01*
X12875412Y-9823663D01*
X12892087Y-9822021D01*
X12913482Y-9815530D01*
X12933199Y-9804991D01*
X12950482Y-9790808D01*
X12954037Y-9786476D01*
X13076314Y-9664199D01*
X13080645Y-9660645D01*
X13094828Y-9643362D01*
X13105368Y-9623645D01*
X13111858Y-9602250D01*
X13113500Y-9585575D01*
X13113500Y-9585575D01*
X13114049Y-9580000D01*
X13113500Y-9574425D01*
X13113500Y-9493463D01*
X13122448Y-9492581D01*
X13134418Y-9488950D01*
X13144614Y-9483500D01*
X13296500Y-9483500D01*
X13296500Y-9525532D01*
X13298866Y-9549552D01*
X13308215Y-9580371D01*
X13323397Y-9608775D01*
X13343829Y-9633671D01*
X13368725Y-9654103D01*
X13397128Y-9669285D01*
X13427948Y-9678634D01*
X13460000Y-9681791D01*
X13492051Y-9678634D01*
X13522871Y-9669285D01*
X13551275Y-9654103D01*
X13576171Y-9633671D01*
X13596603Y-9608775D01*
X13611785Y-9580372D01*
X13621134Y-9549552D01*
X13623500Y-9525532D01*
X13623500Y-9483500D01*
X14212276Y-9483500D01*
X14265393Y-9536617D01*
X14265393Y-9540800D01*
X14266619Y-9553248D01*
X14270250Y-9565218D01*
X14276146Y-9576249D01*
X14284081Y-9585919D01*
X14293751Y-9593854D01*
X14304782Y-9599750D01*
X14316752Y-9603381D01*
X14329200Y-9604607D01*
X14343700Y-9604607D01*
X14357129Y-9611785D01*
X14387948Y-9621134D01*
X14420000Y-9624291D01*
X14452052Y-9621134D01*
X14460736Y-9618500D01*
X15360532Y-9618500D01*
X15384552Y-9616134D01*
X15415371Y-9606785D01*
X15420943Y-9603807D01*
X15437500Y-9603807D01*
X15449948Y-9602581D01*
X15461918Y-9598950D01*
X15472949Y-9593054D01*
X15482618Y-9585119D01*
X15490554Y-9575449D01*
X15496450Y-9564418D01*
X15500081Y-9552448D01*
X15501307Y-9540000D01*
X15501307Y-9523443D01*
X15504285Y-9517872D01*
X15513634Y-9487052D01*
X15516791Y-9455000D01*
X15513634Y-9422948D01*
X15504285Y-9392129D01*
X15501307Y-9386557D01*
X15501307Y-9370000D01*
X15500081Y-9357552D01*
X15496450Y-9345582D01*
X15490554Y-9334551D01*
X15482618Y-9324882D01*
X15472949Y-9316946D01*
X15461918Y-9311050D01*
X15449948Y-9307419D01*
X15437500Y-9306193D01*
X15420943Y-9306193D01*
X15415371Y-9303215D01*
X15384552Y-9293866D01*
X15360532Y-9291500D01*
X14482724Y-9291500D01*
X14401292Y-9210069D01*
X14396171Y-9203829D01*
X14371275Y-9183397D01*
X14342871Y-9168215D01*
X14312052Y-9158866D01*
X14288032Y-9156500D01*
X14288032Y-9156500D01*
X14280000Y-9155709D01*
X14271968Y-9156500D01*
X13468032Y-9156500D01*
X13460000Y-9155709D01*
X13451968Y-9156500D01*
X13144614Y-9156500D01*
X13134418Y-9151050D01*
X13122448Y-9147419D01*
X13110000Y-9146193D01*
X12890000Y-9146193D01*
X12877552Y-9147419D01*
X12865582Y-9151050D01*
X12854551Y-9156946D01*
X12844881Y-9164882D01*
X12836946Y-9174551D01*
X12831050Y-9185582D01*
X12827419Y-9197552D01*
X12826193Y-9210000D01*
X12826193Y-9430000D01*
X12827419Y-9442448D01*
X12831050Y-9454418D01*
X12836946Y-9465449D01*
X12844881Y-9475119D01*
X12854551Y-9483054D01*
X12865582Y-9488950D01*
X12877552Y-9492581D01*
X12886500Y-9493463D01*
X12886500Y-9532987D01*
X12822824Y-9596663D01*
X12532912Y-9596663D01*
X12527337Y-9596114D01*
X12505087Y-9598305D01*
X12502961Y-9598950D01*
X12483692Y-9604795D01*
X12463975Y-9615334D01*
X12446692Y-9629518D01*
X12443138Y-9633849D01*
X12425794Y-9651193D01*
X12420000Y-9651193D01*
X12402674Y-9652899D01*
X12386015Y-9657953D01*
X12370661Y-9666160D01*
X12357204Y-9677204D01*
X12346159Y-9690661D01*
X12337953Y-9706015D01*
X12332899Y-9722675D01*
X12331193Y-9740000D01*
X12331193Y-9805000D01*
X12332899Y-9822326D01*
X12337953Y-9838985D01*
X12346159Y-9854339D01*
X12357204Y-9867796D01*
X12365982Y-9875000D01*
X12357204Y-9882204D01*
X12346159Y-9895661D01*
X12337953Y-9911015D01*
X12332899Y-9927675D01*
X12331193Y-9945000D01*
X12331193Y-10010000D01*
X12332899Y-10027326D01*
X12337953Y-10043985D01*
X12346159Y-10059339D01*
X12351500Y-10065846D01*
X12351500Y-10084154D01*
X12346159Y-10090661D01*
X12337953Y-10106015D01*
X12332899Y-10122675D01*
X12331193Y-10140000D01*
X12331193Y-10149681D01*
X12327047Y-10136015D01*
X12318840Y-10120661D01*
X12307796Y-10107204D01*
X12294339Y-10096160D01*
X12278985Y-10087953D01*
X12262325Y-10082899D01*
X12245000Y-10081193D01*
X12155000Y-10081193D01*
X12137674Y-10082899D01*
X12121015Y-10087953D01*
X12105661Y-10096160D01*
X12092204Y-10107204D01*
X12081159Y-10120661D01*
X12072953Y-10136015D01*
X12067899Y-10152675D01*
X12066193Y-10170000D01*
X12066193Y-10222126D01*
X12053871Y-10222126D01*
X12053871Y-10212626D01*
X12052645Y-10200178D01*
X12049014Y-10188208D01*
X12043118Y-10177177D01*
X12035182Y-10167508D01*
X12025513Y-10159572D01*
X12014482Y-10153676D01*
X12002512Y-10150045D01*
X11990064Y-10148819D01*
X11833064Y-10148819D01*
X11820616Y-10150045D01*
X11811371Y-10152849D01*
X11811371Y-10117626D01*
X11810145Y-10105178D01*
X11806514Y-10093208D01*
X11800618Y-10082177D01*
X11792682Y-10072508D01*
X11783013Y-10064572D01*
X11771982Y-10058676D01*
X11760012Y-10055045D01*
X11747564Y-10053819D01*
X11501564Y-10053819D01*
X11489116Y-10055045D01*
X11479871Y-10057849D01*
X11479871Y-10017626D01*
X11478645Y-10005178D01*
X11475767Y-9995689D01*
X11633183Y-9838273D01*
X11636528Y-9835528D01*
X11639461Y-9831954D01*
X11647481Y-9822181D01*
X11655620Y-9806955D01*
X11655941Y-9805897D01*
X11660632Y-9790432D01*
X11661900Y-9777556D01*
X11661900Y-9777556D01*
X11662324Y-9773250D01*
X11661900Y-9768944D01*
X11661900Y-9663807D01*
X11729250Y-9663807D01*
X11741698Y-9662581D01*
X11753668Y-9658950D01*
X11764699Y-9653054D01*
X11774368Y-9645119D01*
X11782304Y-9635449D01*
X11788200Y-9624418D01*
X11791831Y-9612448D01*
X11793057Y-9600000D01*
X11793057Y-9483500D01*
X11925298Y-9483500D01*
X11949988Y-9490990D01*
X11975477Y-9493500D01*
X11992522Y-9493500D01*
X12018012Y-9490990D01*
X12050717Y-9481069D01*
X12080858Y-9464958D01*
X12107277Y-9443277D01*
X12128958Y-9416858D01*
X12145069Y-9386717D01*
X12154989Y-9354012D01*
X12158339Y-9320000D01*
X12154989Y-9285988D01*
X12145069Y-9253283D01*
X12128958Y-9223142D01*
X12107277Y-9196723D01*
X12080858Y-9175042D01*
X12050717Y-9158931D01*
X12018012Y-9149011D01*
X11992522Y-9146500D01*
X11975477Y-9146500D01*
X11949988Y-9149011D01*
X11925298Y-9156500D01*
X11793057Y-9156500D01*
X11793057Y-9040000D01*
X11791831Y-9027552D01*
X11788200Y-9015582D01*
X11782304Y-9004551D01*
X11774368Y-8994882D01*
X11764699Y-8986946D01*
X11753668Y-8981050D01*
X11741698Y-8977419D01*
X11729250Y-8976193D01*
X11419250Y-8976193D01*
X11406802Y-8977419D01*
X11394832Y-8981050D01*
X11383801Y-8986946D01*
X11374131Y-8994882D01*
X11366196Y-9004551D01*
X11360300Y-9015582D01*
X11356669Y-9027552D01*
X11355443Y-9040000D01*
X11355443Y-9600000D01*
X11356669Y-9612448D01*
X11360300Y-9624418D01*
X11366196Y-9635449D01*
X11374131Y-9645119D01*
X11383801Y-9653054D01*
X11394832Y-9658950D01*
X11406802Y-9662581D01*
X11419250Y-9663807D01*
X11486600Y-9663807D01*
X11486600Y-9736944D01*
X11278631Y-9944913D01*
X11275286Y-9947658D01*
X11270230Y-9953819D01*
X11259064Y-9953819D01*
X11246616Y-9955045D01*
X11234646Y-9958676D01*
X11223615Y-9964572D01*
X11213945Y-9972508D01*
X11206010Y-9982177D01*
X11200114Y-9993208D01*
X11196483Y-10005178D01*
X11195257Y-10017626D01*
X11195257Y-10058626D01*
X11196439Y-10070626D01*
X11195257Y-10082626D01*
X11195257Y-10092126D01*
X11098324Y-10092126D01*
X11087979Y-10079521D01*
X11074616Y-10068554D01*
X11059371Y-10060405D01*
X11042829Y-10055387D01*
X11025625Y-10053693D01*
X11017649Y-10053693D01*
X10658400Y-9694444D01*
X10658400Y-9663807D01*
X10725750Y-9663807D01*
X10738198Y-9662581D01*
X10750168Y-9658950D01*
X10761199Y-9653054D01*
X10770869Y-9645119D01*
X10778804Y-9635449D01*
X10784700Y-9624418D01*
X10788331Y-9612448D01*
X10789557Y-9600000D01*
X10789557Y-9040000D01*
X10788331Y-9027552D01*
X10784700Y-9015582D01*
X10778804Y-9004551D01*
X10770869Y-8994882D01*
X10761199Y-8986946D01*
X10750168Y-8981050D01*
X10738198Y-8977419D01*
X10725750Y-8976193D01*
X10415750Y-8976193D01*
X10403302Y-8977419D01*
X10391332Y-8981050D01*
X10380301Y-8986946D01*
X10370632Y-8994882D01*
X10362696Y-9004551D01*
X10356800Y-9015582D01*
X10353169Y-9027552D01*
X10351943Y-9040000D01*
X10351943Y-9156500D01*
X10048032Y-9156500D01*
X10040000Y-9155709D01*
X10031968Y-9156500D01*
X10007948Y-9158866D01*
X9977129Y-9168215D01*
X9973054Y-9170393D01*
X9954200Y-9170393D01*
X9941752Y-9171619D01*
X9929782Y-9175250D01*
X9918751Y-9181146D01*
X9909082Y-9189082D01*
X9901146Y-9198751D01*
X9895250Y-9209782D01*
X9891619Y-9221752D01*
X9890393Y-9234200D01*
X9890393Y-9253054D01*
X9888215Y-9257129D01*
X9878866Y-9287948D01*
X9875709Y-9320000D01*
X9876500Y-9328033D01*
X9876500Y-9504776D01*
X9856276Y-9525000D01*
X9456968Y-9525000D01*
X9432948Y-9527366D01*
X9402129Y-9536715D01*
X9373725Y-9551897D01*
X9348829Y-9572329D01*
X9328397Y-9597225D01*
X9313215Y-9625629D01*
X9303866Y-9656448D01*
X9300709Y-9688500D01*
X9303866Y-9720552D01*
X9313215Y-9751372D01*
X9328397Y-9779775D01*
X9347396Y-9802926D01*
X9344551Y-9804446D01*
X9334882Y-9812382D01*
X9326946Y-9822051D01*
X9321050Y-9833082D01*
X9317419Y-9845052D01*
X9316193Y-9857500D01*
X9316193Y-9860083D01*
X9070068Y-10106208D01*
X9063829Y-10111329D01*
X9043833Y-10135694D01*
X9043397Y-10136225D01*
X9028215Y-10164629D01*
X9018866Y-10195448D01*
X9015709Y-10227500D01*
X8456000Y-10227500D01*
X8456000Y-8189328D01*
X8460889Y-8201130D01*
X8484254Y-8236098D01*
X8513992Y-8265836D01*
X8548960Y-8289201D01*
X8587814Y-8305295D01*
X8629062Y-8313500D01*
X8671118Y-8313500D01*
X8712366Y-8305295D01*
X8751220Y-8289201D01*
X8786188Y-8265836D01*
X8815926Y-8236098D01*
X8839291Y-8201130D01*
X8855385Y-8162276D01*
X8863590Y-8121028D01*
X8863590Y-8078972D01*
X8855385Y-8037724D01*
X8839291Y-7998870D01*
X8815926Y-7963902D01*
X8786188Y-7934164D01*
X8751220Y-7910799D01*
X8739635Y-7906000D01*
X8959000Y-7906000D01*
X8959000Y-8416511D01*
G04 #@! TD*
M02*
