%FSLAX45Y45*%
G04 Gerber Fmt 4.5, Leading zero omitted, Abs format (unit mm)*
G04 Created by KiCad (PCBNEW 5.0.0-fee4fd1~66~ubuntu18.04.1) date Tue Aug 14 13:58:42 2018*
%MOMM*%
%LPD*%
G01*
G04 APERTURE LIST*
%ADD10C,0.150000*%
%ADD11C,0.200000*%
%ADD12C,0.300000*%
G04 APERTURE END LIST*
D10*
X8385000Y-11465000D02*
X8385000Y-7835000D01*
X16415000Y-11465000D02*
X8385000Y-11465000D01*
X16415000Y-7835000D02*
X16415000Y-11465000D01*
X13255000Y-7835000D02*
X16415000Y-7835000D01*
X13255000Y-8420000D02*
X13255000Y-7835000D01*
X9030000Y-8420000D02*
X13255000Y-8420000D01*
X9030000Y-7835000D02*
X9030000Y-8420000D01*
X8385000Y-7835000D02*
X9030000Y-7835000D01*
D11*
D12*
X8663928Y-11938214D02*
X8663928Y-11638214D01*
X8735357Y-11638214D01*
X8778214Y-11652500D01*
X8806786Y-11681071D01*
X8821071Y-11709643D01*
X8835357Y-11766786D01*
X8835357Y-11809643D01*
X8821071Y-11866786D01*
X8806786Y-11895357D01*
X8778214Y-11923929D01*
X8735357Y-11938214D01*
X8663928Y-11938214D01*
X8963928Y-11938214D02*
X8963928Y-11738214D01*
X8963928Y-11795357D02*
X8978214Y-11766786D01*
X8992500Y-11752500D01*
X9021071Y-11738214D01*
X9049643Y-11738214D01*
X9149643Y-11938214D02*
X9149643Y-11738214D01*
X9149643Y-11638214D02*
X9135357Y-11652500D01*
X9149643Y-11666786D01*
X9163928Y-11652500D01*
X9149643Y-11638214D01*
X9149643Y-11666786D01*
X9335357Y-11938214D02*
X9306786Y-11923929D01*
X9292500Y-11895357D01*
X9292500Y-11638214D01*
X9492500Y-11938214D02*
X9463928Y-11923929D01*
X9449643Y-11895357D01*
X9449643Y-11638214D01*
X9835357Y-11938214D02*
X9835357Y-11638214D01*
X9935357Y-11852500D01*
X10035357Y-11638214D01*
X10035357Y-11938214D01*
X10306786Y-11938214D02*
X10306786Y-11781071D01*
X10292500Y-11752500D01*
X10263928Y-11738214D01*
X10206786Y-11738214D01*
X10178214Y-11752500D01*
X10306786Y-11923929D02*
X10278214Y-11938214D01*
X10206786Y-11938214D01*
X10178214Y-11923929D01*
X10163928Y-11895357D01*
X10163928Y-11866786D01*
X10178214Y-11838214D01*
X10206786Y-11823929D01*
X10278214Y-11823929D01*
X10306786Y-11809643D01*
X10449643Y-11738214D02*
X10449643Y-12038214D01*
X10449643Y-11752500D02*
X10478214Y-11738214D01*
X10535357Y-11738214D01*
X10563928Y-11752500D01*
X10578214Y-11766786D01*
X10592500Y-11795357D01*
X10592500Y-11881071D01*
X10578214Y-11909643D01*
X10563928Y-11923929D01*
X10535357Y-11938214D01*
X10478214Y-11938214D01*
X10449643Y-11923929D01*
X10721071Y-11909643D02*
X10735357Y-11923929D01*
X10721071Y-11938214D01*
X10706786Y-11923929D01*
X10721071Y-11909643D01*
X10721071Y-11938214D01*
X10721071Y-11752500D02*
X10735357Y-11766786D01*
X10721071Y-11781071D01*
X10706786Y-11766786D01*
X10721071Y-11752500D01*
X10721071Y-11781071D01*
M02*
