M48
;DRILL file {KiCad 4.0.1-stable} date 01/16/17 05:03:11
;FORMAT={-:-/ absolute / metric / decimal}
FMAT,2
METRIC,TZ
T1C0.700
T2C0.900
T3C1.000
%
G90
G05
M71
T1
X130.81Y-49.53
X130.81Y-52.07
X130.81Y-54.61
X130.81Y-57.15
X130.81Y-59.69
X130.81Y-62.23
X130.81Y-64.77
X130.81Y-67.31
X130.81Y-69.85
X130.81Y-72.39
X130.81Y-87.63
X130.81Y-97.79
X131.445Y-212.09
X131.445Y-222.25
X132.715Y-76.835
X132.715Y-186.055
X132.715Y-188.595
X133.35Y-87.63
X133.35Y-97.79
X133.985Y-212.09
X133.985Y-222.25
X135.255Y-133.35
X135.255Y-143.51
X135.255Y-173.355
X135.255Y-183.515
X135.89Y-85.09
X135.89Y-95.25
X136.525Y-212.09
X136.525Y-222.25
X137.795Y-133.35
X137.795Y-143.51
X137.795Y-173.355
X137.795Y-183.515
X138.43Y-49.53
X138.43Y-52.07
X138.43Y-54.61
X138.43Y-57.15
X138.43Y-59.69
X138.43Y-62.23
X138.43Y-64.77
X138.43Y-67.31
X138.43Y-69.85
X138.43Y-72.39
X138.43Y-85.09
X138.43Y-95.25
X139.065Y-209.55
X139.065Y-219.71
X140.335Y-120.65
X140.335Y-130.81
X140.335Y-133.35
X140.335Y-143.51
X140.335Y-173.355
X140.335Y-183.515
X140.97Y-85.09
X140.97Y-95.25
X141.605Y-209.55
X141.605Y-219.71
X142.24Y-53.975
X142.24Y-56.515
X142.24Y-59.055
X142.875Y-62.23
X142.875Y-64.77
X142.875Y-67.31
X142.875Y-76.835
X142.875Y-125.73
X142.875Y-135.89
X142.875Y-173.355
X142.875Y-183.515
X142.875Y-186.055
X142.875Y-188.595
X143.51Y-85.09
X143.51Y-95.25
X144.145Y-214.63
X144.145Y-224.79
X145.415Y-125.73
X145.415Y-135.89
X146.05Y-59.055
X146.05Y-69.215
X149.225Y-149.86
X149.225Y-160.02
X153.035Y-62.865
X153.035Y-73.025
X160.655Y-56.515
X160.655Y-59.055
X160.655Y-61.595
X161.29Y-147.32
X161.29Y-149.86
X161.29Y-152.4
X164.465Y-51.435
X164.465Y-141.605
X167.64Y-85.725
X167.64Y-95.885
X170.18Y-85.725
X170.18Y-95.885
X170.815Y-56.515
X170.815Y-59.055
X170.815Y-61.595
X171.45Y-144.145
X171.45Y-147.32
X171.45Y-149.86
X171.45Y-152.4
X173.355Y-53.975
X173.355Y-180.975
X173.355Y-183.515
X174.625Y-51.435
X174.625Y-141.605
X175.895Y-168.275
X175.895Y-178.435
X177.8Y-83.185
X177.8Y-93.345
X178.435Y-168.275
X178.435Y-178.435
X180.34Y-83.185
X180.34Y-93.345
X180.975Y-168.275
X180.975Y-178.435
X181.61Y-144.145
X182.88Y-83.185
X182.88Y-93.345
X183.515Y-53.975
X183.515Y-168.275
X183.515Y-178.435
X183.515Y-180.975
X183.515Y-183.515
X185.42Y-83.185
X185.42Y-93.345
X191.135Y-56.515
X191.135Y-59.055
X191.135Y-61.595
X191.135Y-64.135
X191.135Y-145.415
X191.135Y-147.955
X191.135Y-150.495
X191.135Y-153.035
X201.295Y-56.515
X201.295Y-59.055
X201.295Y-61.595
X201.295Y-64.135
X201.295Y-145.415
X201.295Y-147.955
X201.295Y-150.495
X201.295Y-153.035
T2
X147.32Y-219.71
X147.32Y-222.25
X147.32Y-224.79
X147.955Y-92.71
X147.955Y-95.25
X147.955Y-97.79
X147.955Y-180.975
X147.955Y-183.515
X147.955Y-186.055
X148.59Y-130.81
X148.59Y-133.35
X148.59Y-135.89
X151.765Y-175.26
X151.765Y-188.595
X151.768Y-165.101
X151.768Y-178.436
X153.035Y-85.725
X153.035Y-101.6
X153.038Y-75.566
X153.038Y-91.441
X153.67Y-219.71
X153.67Y-222.25
X153.67Y-224.79
X154.94Y-130.81
X154.94Y-133.35
X154.94Y-135.89
X156.21Y-159.385
X156.21Y-172.085
X156.21Y-178.435
X156.21Y-191.135
X156.842Y-222.249
X156.845Y-212.09
X157.48Y-69.85
X157.48Y-82.55
X157.48Y-88.9
X157.48Y-101.6
X158.112Y-133.349
X158.115Y-123.19
X158.75Y-159.385
X158.75Y-172.085
X158.75Y-178.435
X158.75Y-191.135
X160.02Y-69.85
X160.02Y-82.55
X160.02Y-88.9
X160.02Y-101.6
X161.29Y-159.385
X161.29Y-172.085
X161.29Y-178.435
X161.29Y-191.135
X161.29Y-199.39
X161.29Y-222.25
X162.56Y-69.85
X162.56Y-82.55
X162.56Y-88.9
X162.56Y-101.6
X162.56Y-110.49
X162.56Y-133.35
X168.275Y-199.39
X168.275Y-222.25
X168.91Y-110.49
X168.91Y-133.35
X174.625Y-59.055
X174.625Y-61.595
X174.625Y-64.135
X174.625Y-90.805
X174.625Y-93.345
X174.625Y-95.885
X174.625Y-153.67
X174.625Y-156.21
X174.625Y-158.75
X175.26Y-110.49
X175.26Y-133.35
X175.26Y-199.39
X175.26Y-222.25
X181.61Y-110.49
X181.61Y-133.35
X182.245Y-199.39
X182.245Y-222.25
X183.515Y-59.055
X183.515Y-61.595
X183.515Y-64.135
X185.42Y-153.035
X185.42Y-155.575
X185.42Y-158.115
X187.96Y-86.36
X187.96Y-99.06
X187.96Y-110.49
X187.96Y-133.35
X187.96Y-175.895
X187.96Y-178.435
X187.96Y-180.975
X187.963Y-76.201
X187.963Y-88.901
X188.595Y-199.39
X188.595Y-222.25
X191.135Y-169.545
X191.135Y-185.42
X191.138Y-159.386
X191.138Y-175.261
X196.215Y-70.485
X196.215Y-83.185
X196.215Y-89.535
X196.215Y-102.235
X196.215Y-159.385
X196.215Y-172.085
X196.215Y-178.435
X196.215Y-191.135
X196.85Y-130.81
X196.85Y-133.35
X196.85Y-135.89
X197.485Y-219.71
X197.485Y-222.25
X197.485Y-224.79
X198.755Y-70.485
X198.755Y-83.185
X198.755Y-89.535
X198.755Y-102.235
X198.755Y-159.385
X198.755Y-172.085
X198.755Y-178.435
X198.755Y-191.135
X201.295Y-70.485
X201.295Y-83.185
X201.295Y-89.535
X201.295Y-102.235
X201.295Y-159.385
X201.295Y-172.085
X201.295Y-178.435
X201.295Y-191.135
T3
X139.7Y-43.815
X142.24Y-43.815
X144.78Y-43.815
X147.32Y-43.815
X149.86Y-43.815
X198.755Y-116.205
X198.755Y-118.745
X198.755Y-121.285
X198.755Y-123.825
T0
M30
