G04 #@! TF.FileFunction,Copper,L2,Bot,Signal*
%FSLAX46Y46*%
G04 Gerber Fmt 4.6, Leading zero omitted, Abs format (unit mm)*
G04 Created by KiCad (PCBNEW 4.0.1-stable) date 01/16/17 05:03:06*
%MOMM*%
G01*
G04 APERTURE LIST*
%ADD10C,0.100000*%
%ADD11R,1.916000X1.916000*%
%ADD12C,1.916000*%
%ADD13R,2.016000X2.016000*%
%ADD14C,2.016000*%
%ADD15C,1.716000*%
%ADD16C,0.381000*%
%ADD17C,2.286000*%
G04 APERTURE END LIST*
D10*
D11*
X151767540Y-165100520D03*
D12*
X151765000Y-175260000D03*
D11*
X151767540Y-178435520D03*
D12*
X151765000Y-188595000D03*
D11*
X191137540Y-159385520D03*
D12*
X191135000Y-169545000D03*
D11*
X191137540Y-175260520D03*
D12*
X191135000Y-185420000D03*
D11*
X156842460Y-222249480D03*
D12*
X156845000Y-212090000D03*
D11*
X153037540Y-75565520D03*
D12*
X153035000Y-85725000D03*
D11*
X153037540Y-91440520D03*
D12*
X153035000Y-101600000D03*
D11*
X187962540Y-76200520D03*
D12*
X187960000Y-86360000D03*
D11*
X187962540Y-88900520D03*
D12*
X187960000Y-99060000D03*
D11*
X158112460Y-133349480D03*
D12*
X158115000Y-123190000D03*
D13*
X149860000Y-43815000D03*
D14*
X147320000Y-43815000D03*
X144780000Y-43815000D03*
X142240000Y-43815000D03*
X139700000Y-43815000D03*
D13*
X198755000Y-123825000D03*
D14*
X198755000Y-121285000D03*
X198755000Y-118745000D03*
X198755000Y-116205000D03*
D12*
X174625000Y-156210000D03*
D11*
X174625000Y-153670000D03*
D12*
X174625000Y-158750000D03*
X147955000Y-183515000D03*
D11*
X147955000Y-186055000D03*
D12*
X147955000Y-180975000D03*
X158750000Y-172085000D03*
D11*
X161290000Y-172085000D03*
D12*
X156210000Y-172085000D03*
X158750000Y-159385000D03*
D11*
X161290000Y-159385000D03*
D12*
X156210000Y-159385000D03*
X158750000Y-178435000D03*
D11*
X156210000Y-178435000D03*
D12*
X161290000Y-178435000D03*
X158750000Y-191135000D03*
D11*
X156210000Y-191135000D03*
D12*
X161290000Y-191135000D03*
X185420000Y-155575000D03*
D11*
X185420000Y-153035000D03*
D12*
X185420000Y-158115000D03*
X187960000Y-178435000D03*
D11*
X187960000Y-180975000D03*
D12*
X187960000Y-175895000D03*
X198755000Y-159385000D03*
D11*
X201295000Y-159385000D03*
D12*
X196215000Y-159385000D03*
X198755000Y-172085000D03*
D11*
X201295000Y-172085000D03*
D12*
X196215000Y-172085000D03*
X198755000Y-191135000D03*
D11*
X196215000Y-191135000D03*
D12*
X201295000Y-191135000D03*
X198755000Y-178435000D03*
D11*
X196215000Y-178435000D03*
D12*
X201295000Y-178435000D03*
X147320000Y-222250000D03*
D11*
X147320000Y-219710000D03*
D12*
X147320000Y-224790000D03*
X153670000Y-222250000D03*
D11*
X153670000Y-224790000D03*
D12*
X153670000Y-219710000D03*
X197485000Y-222250000D03*
D11*
X197485000Y-224790000D03*
D12*
X197485000Y-219710000D03*
X174625000Y-61595000D03*
D11*
X174625000Y-59055000D03*
D12*
X174625000Y-64135000D03*
X147955000Y-95250000D03*
D11*
X147955000Y-97790000D03*
D12*
X147955000Y-92710000D03*
X160020000Y-82550000D03*
D11*
X162560000Y-82550000D03*
D12*
X157480000Y-82550000D03*
X160020000Y-69850000D03*
D11*
X162560000Y-69850000D03*
D12*
X157480000Y-69850000D03*
X160020000Y-88900000D03*
D11*
X157480000Y-88900000D03*
D12*
X162560000Y-88900000D03*
X160020000Y-101600000D03*
D11*
X157480000Y-101600000D03*
D12*
X162560000Y-101600000D03*
X183515000Y-61595000D03*
D11*
X183515000Y-59055000D03*
D12*
X183515000Y-64135000D03*
X174625000Y-93345000D03*
D11*
X174625000Y-95885000D03*
D12*
X174625000Y-90805000D03*
X198755000Y-83185000D03*
D11*
X201295000Y-83185000D03*
D12*
X196215000Y-83185000D03*
X198755000Y-70485000D03*
D11*
X201295000Y-70485000D03*
D12*
X196215000Y-70485000D03*
X198755000Y-102235000D03*
D11*
X196215000Y-102235000D03*
D12*
X201295000Y-102235000D03*
X198755000Y-89535000D03*
D11*
X196215000Y-89535000D03*
D12*
X201295000Y-89535000D03*
X148590000Y-133350000D03*
D11*
X148590000Y-130810000D03*
D12*
X148590000Y-135890000D03*
X154940000Y-133350000D03*
D11*
X154940000Y-135890000D03*
D12*
X154940000Y-130810000D03*
X196850000Y-133350000D03*
D11*
X196850000Y-135890000D03*
D12*
X196850000Y-130810000D03*
D15*
X146050000Y-69215000D03*
X146050000Y-59055000D03*
X132715000Y-76835000D03*
X142875000Y-76835000D03*
X174625000Y-141605000D03*
X164465000Y-141605000D03*
X161290000Y-147320000D03*
X171450000Y-147320000D03*
X161290000Y-149860000D03*
X171450000Y-149860000D03*
X161290000Y-152400000D03*
X171450000Y-152400000D03*
X149225000Y-160020000D03*
X149225000Y-149860000D03*
X137795000Y-173355000D03*
X137795000Y-183515000D03*
X142875000Y-173355000D03*
X142875000Y-183515000D03*
X140335000Y-173355000D03*
X140335000Y-183515000D03*
X135255000Y-173355000D03*
X135255000Y-183515000D03*
X142875000Y-188595000D03*
X132715000Y-188595000D03*
X142875000Y-186055000D03*
X132715000Y-186055000D03*
X181610000Y-144145000D03*
X171450000Y-144145000D03*
X201295000Y-147955000D03*
X191135000Y-147955000D03*
X201295000Y-150495000D03*
X191135000Y-150495000D03*
X201295000Y-153035000D03*
X191135000Y-153035000D03*
X191135000Y-145415000D03*
X201295000Y-145415000D03*
X183515000Y-168275000D03*
X183515000Y-178435000D03*
X180975000Y-168275000D03*
X180975000Y-178435000D03*
X178435000Y-168275000D03*
X178435000Y-178435000D03*
X175895000Y-168275000D03*
X175895000Y-178435000D03*
X183515000Y-183515000D03*
X173355000Y-183515000D03*
X183515000Y-180975000D03*
X173355000Y-180975000D03*
X131445000Y-212090000D03*
X131445000Y-222250000D03*
X133985000Y-212090000D03*
X133985000Y-222250000D03*
X136525000Y-212090000D03*
X136525000Y-222250000D03*
X141605000Y-219710000D03*
X141605000Y-209550000D03*
X139065000Y-219710000D03*
X139065000Y-209550000D03*
X144145000Y-224790000D03*
X144145000Y-214630000D03*
D12*
X161290000Y-199390000D03*
X161290000Y-222250000D03*
X168275000Y-199390000D03*
X168275000Y-222250000D03*
X175260000Y-199390000D03*
X175260000Y-222250000D03*
X182245000Y-199390000D03*
X182245000Y-222250000D03*
X188595000Y-199390000D03*
X188595000Y-222250000D03*
D15*
X174625000Y-51435000D03*
X164465000Y-51435000D03*
X160655000Y-59055000D03*
X170815000Y-59055000D03*
X160655000Y-61595000D03*
X170815000Y-61595000D03*
X160655000Y-56515000D03*
X170815000Y-56515000D03*
X153035000Y-73025000D03*
X153035000Y-62865000D03*
X135890000Y-85090000D03*
X135890000Y-95250000D03*
X138430000Y-85090000D03*
X138430000Y-95250000D03*
X140970000Y-85090000D03*
X140970000Y-95250000D03*
X143510000Y-85090000D03*
X143510000Y-95250000D03*
X133350000Y-97790000D03*
X133350000Y-87630000D03*
X130810000Y-97790000D03*
X130810000Y-87630000D03*
X183515000Y-53975000D03*
X173355000Y-53975000D03*
X201295000Y-56515000D03*
X191135000Y-56515000D03*
X201295000Y-59055000D03*
X191135000Y-59055000D03*
X201295000Y-61595000D03*
X191135000Y-61595000D03*
X191135000Y-64135000D03*
X201295000Y-64135000D03*
X177800000Y-83185000D03*
X177800000Y-93345000D03*
X180340000Y-83185000D03*
X180340000Y-93345000D03*
X182880000Y-83185000D03*
X182880000Y-93345000D03*
X185420000Y-83185000D03*
X185420000Y-93345000D03*
X167640000Y-95885000D03*
X167640000Y-85725000D03*
X170180000Y-95885000D03*
X170180000Y-85725000D03*
X135255000Y-143510000D03*
X135255000Y-133350000D03*
X137795000Y-143510000D03*
X137795000Y-133350000D03*
X140335000Y-143510000D03*
X140335000Y-133350000D03*
X140335000Y-130810000D03*
X140335000Y-120650000D03*
X142875000Y-135890000D03*
X142875000Y-125730000D03*
X145415000Y-135890000D03*
X145415000Y-125730000D03*
D12*
X162560000Y-110490000D03*
X162560000Y-133350000D03*
X168910000Y-110490000D03*
X168910000Y-133350000D03*
X175260000Y-110490000D03*
X175260000Y-133350000D03*
X181610000Y-110490000D03*
X181610000Y-133350000D03*
X187960000Y-110490000D03*
X187960000Y-133350000D03*
D15*
X130810000Y-49530000D03*
X130810000Y-52070000D03*
X130810000Y-54610000D03*
X130810000Y-57150000D03*
X130810000Y-59690000D03*
X130810000Y-62230000D03*
X130810000Y-64770000D03*
X130810000Y-67310000D03*
X130810000Y-69850000D03*
X130810000Y-72390000D03*
X138430000Y-72390000D03*
X138430000Y-69850000D03*
X138430000Y-67310000D03*
X138430000Y-64770000D03*
X138430000Y-62230000D03*
X138430000Y-59690000D03*
X138430000Y-57150000D03*
X138430000Y-54610000D03*
X138430000Y-52070000D03*
X138430000Y-49530000D03*
X142875000Y-64770000D03*
X142875000Y-62230000D03*
X142875000Y-67310000D03*
X142240000Y-59055000D03*
X142240000Y-56515000D03*
X142240000Y-53975000D03*
D16*
X138430000Y-59690000D02*
X141605000Y-59690000D01*
X141605000Y-59690000D02*
X142240000Y-59055000D01*
X142240000Y-59055000D02*
X146050000Y-59055000D01*
D17*
X139700000Y-43815000D02*
X139700000Y-41910000D01*
X153670000Y-41275000D02*
X161290000Y-48895000D01*
X140335000Y-41275000D02*
X153670000Y-41275000D01*
X139700000Y-41910000D02*
X140335000Y-41275000D01*
X139700000Y-43815000D02*
X139700000Y-45085000D01*
X139700000Y-45085000D02*
X137795000Y-46990000D01*
X130810000Y-52070000D02*
X132080000Y-52070000D01*
X137160000Y-46990000D02*
X137795000Y-46990000D01*
X132080000Y-52070000D02*
X137160000Y-46990000D01*
X176530000Y-48895000D02*
X198755000Y-48895000D01*
X203835000Y-53975000D02*
X203835000Y-135255000D01*
X198755000Y-48895000D02*
X203835000Y-53975000D01*
X179070000Y-160655000D02*
X179070000Y-142875000D01*
X182880000Y-139065000D02*
X203835000Y-139065000D01*
X179070000Y-142875000D02*
X182880000Y-139065000D01*
X197485000Y-219710000D02*
X197485000Y-200660000D01*
X197485000Y-200660000D02*
X203835000Y-194310000D01*
X203835000Y-194310000D02*
X203835000Y-139065000D01*
X199390000Y-130810000D02*
X196850000Y-130810000D01*
X203835000Y-135255000D02*
X199390000Y-130810000D01*
X203835000Y-139065000D02*
X203835000Y-135255000D01*
X142875000Y-125730000D02*
X142875000Y-104140000D01*
X127898502Y-93081498D02*
X130810000Y-90170000D01*
X127898502Y-99323502D02*
X127898502Y-93081498D01*
X129540000Y-100965000D02*
X127898502Y-99323502D01*
X139700000Y-100965000D02*
X129540000Y-100965000D01*
X142875000Y-104140000D02*
X139700000Y-100965000D01*
X179705000Y-64135000D02*
X179705000Y-52070000D01*
X147320000Y-48895000D02*
X142240000Y-53975000D01*
X161290000Y-48895000D02*
X147320000Y-48895000D01*
X176530000Y-48895000D02*
X161290000Y-48895000D01*
X179705000Y-52070000D02*
X176530000Y-48895000D01*
X139065000Y-209550000D02*
X139065000Y-191135000D01*
X133985000Y-186055000D02*
X132715000Y-186055000D01*
X139065000Y-191135000D02*
X133985000Y-186055000D01*
X142875000Y-64770000D02*
X146685000Y-64770000D01*
X147320000Y-56515000D02*
X142240000Y-56515000D01*
X148590000Y-57785000D02*
X147320000Y-56515000D01*
X148590000Y-62865000D02*
X148590000Y-57785000D01*
X146685000Y-64770000D02*
X148590000Y-62865000D01*
X142240000Y-53975000D02*
X142240000Y-56515000D01*
X170180000Y-85725000D02*
X170180000Y-89535000D01*
X171503998Y-90858998D02*
X174571002Y-90858998D01*
X170180000Y-89535000D02*
X171503998Y-90858998D01*
X174571002Y-90858998D02*
X174625000Y-90805000D01*
X174625000Y-90805000D02*
X174625000Y-64135000D01*
X174625000Y-64135000D02*
X179705000Y-64135000D01*
X179705000Y-64135000D02*
X183515000Y-64135000D01*
X130810000Y-87630000D02*
X130810000Y-90170000D01*
X133403998Y-92763998D02*
X147955000Y-92763998D01*
X130810000Y-90170000D02*
X133403998Y-92763998D01*
X147955000Y-92763998D02*
X147955000Y-92710000D01*
X142875000Y-125730000D02*
X145415000Y-125730000D01*
X145415000Y-125730000D02*
X148590000Y-125730000D01*
X148590000Y-125730000D02*
X149860000Y-125730000D01*
X149860000Y-125730000D02*
X154940000Y-130810000D01*
X158115000Y-123190000D02*
X158115000Y-127688998D01*
X158115000Y-127688998D02*
X154940520Y-130863478D01*
X154940520Y-130863478D02*
X154940000Y-130810000D01*
X154940000Y-130810000D02*
X196796002Y-130810000D01*
X196796002Y-130810000D02*
X196850000Y-130863998D01*
X196850000Y-130863998D02*
X196850000Y-130810000D01*
X139065000Y-209550000D02*
X139065000Y-212090000D01*
X141605000Y-214630000D02*
X144145000Y-214630000D01*
X139065000Y-212090000D02*
X141605000Y-214630000D01*
X144145000Y-214630000D02*
X148590000Y-214630000D01*
X148590000Y-214630000D02*
X153670000Y-219710000D01*
X156845000Y-212090000D02*
X156845000Y-216588998D01*
X156845000Y-216588998D02*
X153670000Y-219763998D01*
X153670000Y-219763998D02*
X153670000Y-219710000D01*
X197485000Y-219710000D02*
X153723998Y-219710000D01*
X153723998Y-219710000D02*
X153670000Y-219710000D01*
X173355000Y-180975000D02*
X173355000Y-173355000D01*
X132715000Y-186055000D02*
X132715000Y-182245000D01*
X132715000Y-182245000D02*
X133985000Y-180975000D01*
X133985000Y-180975000D02*
X147955000Y-180975000D01*
X174625000Y-158750000D02*
X174625000Y-165100000D01*
X185420000Y-158115000D02*
X181610000Y-158115000D01*
X175948998Y-175948998D02*
X187960000Y-175948998D01*
X173355000Y-173355000D02*
X175948998Y-175948998D01*
X173355000Y-166370000D02*
X173355000Y-173355000D01*
X181610000Y-158115000D02*
X179070000Y-160655000D01*
X179070000Y-160655000D02*
X174625000Y-165100000D01*
X174625000Y-165100000D02*
X173355000Y-166370000D01*
X187960000Y-175948998D02*
X187960000Y-175895000D01*
X153035000Y-73025000D02*
X153035000Y-75562980D01*
X153035000Y-75562980D02*
X153037540Y-75565520D01*
X177800000Y-83185000D02*
X180340000Y-83185000D01*
X180340000Y-83185000D02*
X182880000Y-83185000D01*
X182880000Y-83185000D02*
X185420000Y-83185000D01*
X185420000Y-83185000D02*
X187962540Y-80642460D01*
X187962540Y-80642460D02*
X187962540Y-76200520D01*
X153037540Y-75565520D02*
X146685000Y-81918060D01*
X157480000Y-82550000D02*
X146053060Y-82550000D01*
X146053060Y-82550000D02*
X146685000Y-81918060D01*
X146685000Y-81918060D02*
X146685000Y-81915000D01*
X146685000Y-81915000D02*
X146685000Y-81918060D01*
X143510000Y-85090000D02*
X143513060Y-85090000D01*
X143513060Y-85090000D02*
X146685000Y-81918060D01*
X143510000Y-85090000D02*
X140970000Y-85090000D01*
X140970000Y-85090000D02*
X138430000Y-85090000D01*
X138430000Y-85090000D02*
X135890000Y-85090000D01*
X187962540Y-76200520D02*
X190499480Y-76200520D01*
X190499480Y-76200520D02*
X196215000Y-70485000D01*
X157480000Y-82550000D02*
X157480000Y-69850000D01*
X140335000Y-143510000D02*
X140335000Y-151130000D01*
X140335000Y-151130000D02*
X149225000Y-160020000D01*
X135255000Y-143510000D02*
X137795000Y-143510000D01*
X137795000Y-143510000D02*
X140335000Y-143510000D01*
X191135000Y-64135000D02*
X191135000Y-65351002D01*
X191135000Y-65351002D02*
X196268998Y-70485000D01*
X196268998Y-70485000D02*
X196215000Y-70485000D01*
X196215000Y-83185000D02*
X196215000Y-70485000D01*
X196215000Y-70485000D02*
X196268998Y-70485000D01*
X196268998Y-70485000D02*
X196215000Y-70485000D01*
X191135000Y-145415000D02*
X193040000Y-145415000D01*
X196215000Y-148590000D02*
X196215000Y-159385000D01*
X193040000Y-145415000D02*
X196215000Y-148590000D01*
X149225000Y-160020000D02*
X149225000Y-162557980D01*
X149225000Y-162557980D02*
X151767540Y-165100520D01*
X131445000Y-212090000D02*
X133985000Y-212090000D01*
X133985000Y-212090000D02*
X136525000Y-212090000D01*
X151765000Y-165097980D02*
X151767540Y-165100520D01*
X196268998Y-159385000D02*
X196215000Y-159385000D01*
X175895000Y-168275000D02*
X178435000Y-168275000D01*
X178435000Y-168275000D02*
X180975000Y-168275000D01*
X180975000Y-168275000D02*
X183515000Y-168275000D01*
X183515000Y-168275000D02*
X191137540Y-160652460D01*
X191137540Y-160652460D02*
X191137540Y-159385520D01*
X142875000Y-173355000D02*
X146055080Y-173355000D01*
X146055080Y-173355000D02*
X151767540Y-167642540D01*
X135255000Y-173355000D02*
X137795000Y-173355000D01*
X137795000Y-173355000D02*
X140335000Y-173355000D01*
X140335000Y-173355000D02*
X142875000Y-173355000D01*
X191137540Y-159385520D02*
X196214480Y-159385520D01*
X196214480Y-159385520D02*
X196215000Y-159385000D01*
X151767540Y-165100520D02*
X151767540Y-167642540D01*
X151767540Y-167642540D02*
X156210000Y-172085000D01*
X196215000Y-172085000D02*
X196215000Y-159438998D01*
X196215000Y-159438998D02*
X196268998Y-159385000D01*
X196268998Y-159385000D02*
X196215000Y-159385000D01*
X156210000Y-159385000D02*
X156210000Y-172031002D01*
X156210000Y-172031002D02*
X156263998Y-172085000D01*
X156263998Y-172085000D02*
X156210000Y-172085000D01*
X151767540Y-178435520D02*
X151767540Y-175262540D01*
X151767540Y-175262540D02*
X151770080Y-175260000D01*
X151770080Y-175260000D02*
X158750000Y-175260000D01*
X158750000Y-159385000D02*
X158750000Y-172085000D01*
X158750000Y-172085000D02*
X158750000Y-175260000D01*
X158750000Y-175260000D02*
X158750000Y-178435000D01*
X158750000Y-178435000D02*
X158803998Y-178488998D01*
X158803998Y-178488998D02*
X158803998Y-191135000D01*
X158803998Y-191135000D02*
X158750000Y-191135000D01*
X201295000Y-192405000D02*
X201295000Y-193040000D01*
X201295000Y-193040000D02*
X194945000Y-199390000D01*
X188595000Y-199390000D02*
X194945000Y-199390000D01*
X201295000Y-192405000D02*
X201295000Y-191135000D01*
X191135000Y-185420000D02*
X191135000Y-196215000D01*
X191135000Y-196215000D02*
X187960000Y-199390000D01*
X151765000Y-188595000D02*
X151765000Y-193675000D01*
X157480000Y-199390000D02*
X161290000Y-199390000D01*
X151765000Y-193675000D02*
X157480000Y-199390000D01*
X161290000Y-178435000D02*
X161290000Y-191135000D01*
X201295000Y-178435000D02*
X201295000Y-191081002D01*
X201295000Y-191081002D02*
X201241002Y-191135000D01*
X201241002Y-191135000D02*
X201295000Y-191135000D01*
X161290000Y-191135000D02*
X161290000Y-199390000D01*
X161290000Y-199390000D02*
X168275000Y-199390000D01*
X168275000Y-199390000D02*
X175260000Y-199390000D01*
X175260000Y-199390000D02*
X182245000Y-199390000D01*
X182245000Y-199390000D02*
X188595000Y-199390000D01*
X191135000Y-169545000D02*
X191135000Y-175257980D01*
X191135000Y-175257980D02*
X191137540Y-175260520D01*
X191137540Y-175260520D02*
X196849480Y-175260520D01*
X196849480Y-175260520D02*
X198755000Y-173355000D01*
X198755000Y-159385000D02*
X198755000Y-172085000D01*
X198755000Y-172085000D02*
X198755000Y-173355000D01*
X198755000Y-173355000D02*
X198755000Y-178435000D01*
X198755000Y-178435000D02*
X198755000Y-191135000D01*
X197485000Y-222250000D02*
X188595000Y-222250000D01*
X153670000Y-222250000D02*
X156841940Y-222250000D01*
X156841940Y-222250000D02*
X161290000Y-222250000D01*
X161290000Y-222250000D02*
X168275000Y-222250000D01*
X168275000Y-222250000D02*
X175260000Y-222250000D01*
X175260000Y-222250000D02*
X182245000Y-222250000D01*
X182245000Y-222250000D02*
X188595000Y-222250000D01*
X153037540Y-91440520D02*
X153037540Y-85727540D01*
X153037540Y-85727540D02*
X153040080Y-85725000D01*
X153040080Y-85725000D02*
X160020000Y-85725000D01*
X160020000Y-69850000D02*
X160020000Y-82496002D01*
X160020000Y-82496002D02*
X160020000Y-85725000D01*
X160020000Y-85725000D02*
X160020000Y-88900000D01*
X160020000Y-88900000D02*
X160020000Y-101600000D01*
X153035000Y-101600000D02*
X153035000Y-106045000D01*
X157480000Y-110490000D02*
X162560000Y-110490000D01*
X153035000Y-106045000D02*
X157480000Y-110490000D01*
X187960000Y-99060000D02*
X187960000Y-110490000D01*
X162560000Y-101600000D02*
X162560000Y-110490000D01*
X162560000Y-101600000D02*
X162560000Y-88900000D01*
X201295000Y-89535000D02*
X201295000Y-102235000D01*
X201295000Y-102235000D02*
X201295000Y-107315000D01*
X201295000Y-107315000D02*
X198120000Y-110490000D01*
X198120000Y-110490000D02*
X181610000Y-110490000D01*
X181610000Y-110490000D02*
X175260000Y-110490000D01*
X175260000Y-110490000D02*
X168910000Y-110490000D01*
X168910000Y-110490000D02*
X162560000Y-110490000D01*
X187960000Y-86360000D02*
X196850000Y-86360000D01*
X196850000Y-86360000D02*
X198755000Y-84455000D01*
X187960000Y-86360000D02*
X187960000Y-88897980D01*
X187960000Y-88897980D02*
X187962540Y-88900520D01*
X198755000Y-70485000D02*
X198755000Y-83131002D01*
X198755000Y-83131002D02*
X198755000Y-84455000D01*
X198755000Y-84455000D02*
X198755000Y-89535000D01*
X198755000Y-89535000D02*
X198755000Y-102235000D01*
X158112460Y-133349480D02*
X162559480Y-133349480D01*
X162559480Y-133349480D02*
X162560000Y-133350000D01*
X158112460Y-133349480D02*
X154940520Y-133349480D01*
X154940520Y-133349480D02*
X154940000Y-133350000D01*
X196850000Y-133350000D02*
X188013998Y-133350000D01*
X188013998Y-133350000D02*
X187960000Y-133403998D01*
X187960000Y-133403998D02*
X187960000Y-133350000D01*
X187960000Y-133350000D02*
X181610000Y-133350000D01*
X181610000Y-133350000D02*
X175260000Y-133350000D01*
X175260000Y-133350000D02*
X168910000Y-133350000D01*
X168910000Y-133350000D02*
X162560000Y-133350000D01*
D16*
X138430000Y-52070000D02*
X136525000Y-53975000D01*
X137160000Y-69850000D02*
X138430000Y-69850000D01*
X136525000Y-69215000D02*
X137160000Y-69850000D01*
X136525000Y-53975000D02*
X136525000Y-69215000D01*
X132715000Y-76835000D02*
X132715000Y-74295000D01*
X132715000Y-74295000D02*
X130810000Y-72390000D01*
X138430000Y-69850000D02*
X138430000Y-72390000D01*
X138430000Y-72390000D02*
X130810000Y-72390000D01*
X138430000Y-49530000D02*
X138430000Y-52070000D01*
X144780000Y-43815000D02*
X144780000Y-49081660D01*
X140335000Y-55245000D02*
X138430000Y-57150000D01*
X140335000Y-53526660D02*
X140335000Y-55245000D01*
X144780000Y-49081660D02*
X140335000Y-53526660D01*
X142240000Y-43815000D02*
X142240000Y-50800000D01*
X142240000Y-50800000D02*
X138430000Y-54610000D01*
D17*
X171450000Y-152400000D02*
X171450000Y-154940000D01*
X172720000Y-156210000D02*
X174625000Y-156210000D01*
X171450000Y-154940000D02*
X172720000Y-156210000D01*
X171450000Y-147320000D02*
X171450000Y-149860000D01*
X171450000Y-149860000D02*
X171450000Y-152400000D01*
X174625000Y-141605000D02*
X174625000Y-153670000D01*
X135255000Y-183515000D02*
X137795000Y-183515000D01*
X137795000Y-183515000D02*
X140335000Y-183515000D01*
X140335000Y-183515000D02*
X142875000Y-183515000D01*
X142875000Y-183515000D02*
X147955000Y-183515000D01*
X147955000Y-183515000D02*
X151130000Y-183515000D01*
X151130000Y-183515000D02*
X156210000Y-178435000D01*
X156210000Y-178435000D02*
X156210000Y-191135000D01*
X142875000Y-188595000D02*
X142875000Y-186055000D01*
X142875000Y-186055000D02*
X147955000Y-186055000D01*
X149225000Y-149860000D02*
X161290000Y-149860000D01*
X161290000Y-152400000D02*
X161290000Y-159385000D01*
X161290000Y-147320000D02*
X161290000Y-149860000D01*
X161290000Y-149860000D02*
X161290000Y-152400000D01*
X161290000Y-152400000D02*
X161236002Y-152453998D01*
X161236002Y-159385000D02*
X161290000Y-159385000D01*
X161290000Y-172085000D02*
X161290000Y-159438998D01*
X161290000Y-159438998D02*
X161236002Y-159385000D01*
X161236002Y-159385000D02*
X161290000Y-159385000D01*
X191135000Y-153035000D02*
X188595000Y-155575000D01*
X188595000Y-155575000D02*
X185420000Y-155575000D01*
X191135000Y-147955000D02*
X191135000Y-150495000D01*
X191135000Y-150495000D02*
X191135000Y-153035000D01*
X181610000Y-144145000D02*
X183515000Y-144145000D01*
X185420000Y-146050000D02*
X185420000Y-153035000D01*
X183515000Y-144145000D02*
X185420000Y-146050000D01*
X175895000Y-178435000D02*
X178435000Y-178435000D01*
X178435000Y-178435000D02*
X180975000Y-178435000D01*
X180975000Y-178435000D02*
X183515000Y-178435000D01*
X183515000Y-178435000D02*
X187960000Y-178435000D01*
X187960000Y-178435000D02*
X196215000Y-178435000D01*
X196215000Y-191135000D02*
X196215000Y-178435000D01*
X183515000Y-183515000D02*
X183515000Y-180975000D01*
X183515000Y-180975000D02*
X187960000Y-180975000D01*
X201295000Y-153035000D02*
X201295000Y-159385000D01*
X201295000Y-145415000D02*
X201295000Y-147955000D01*
X201295000Y-147955000D02*
X201295000Y-150495000D01*
X201295000Y-150495000D02*
X201295000Y-153035000D01*
X201295000Y-159385000D02*
X201295000Y-172085000D01*
X131445000Y-222250000D02*
X133985000Y-222250000D01*
X133985000Y-222250000D02*
X136525000Y-222250000D01*
X136525000Y-222250000D02*
X147320000Y-222250000D01*
X139065000Y-219710000D02*
X141605000Y-219710000D01*
X141605000Y-219710000D02*
X147320000Y-219710000D01*
X144145000Y-224790000D02*
X147320000Y-224790000D01*
X147320000Y-224790000D02*
X153670000Y-224790000D01*
X153670000Y-224790000D02*
X197485000Y-224790000D01*
X170815000Y-56515000D02*
X170815000Y-59055000D01*
X170815000Y-59055000D02*
X170815000Y-61595000D01*
X170815000Y-61595000D02*
X174625000Y-61595000D01*
X174625000Y-61595000D02*
X174625000Y-61648998D01*
X174625000Y-61648998D02*
X174625000Y-61595000D01*
X174625000Y-59055000D02*
X176530000Y-57150000D01*
X176530000Y-53340000D02*
X174625000Y-51435000D01*
X176530000Y-57150000D02*
X176530000Y-53340000D01*
X135890000Y-95250000D02*
X138430000Y-95250000D01*
X138430000Y-95250000D02*
X140970000Y-95250000D01*
X140970000Y-95250000D02*
X143510000Y-95250000D01*
X143510000Y-95250000D02*
X147955000Y-95250000D01*
X147955000Y-95250000D02*
X157480000Y-95250000D01*
X157480000Y-101600000D02*
X157480000Y-95250000D01*
X157480000Y-95250000D02*
X157480000Y-88900000D01*
X130810000Y-97790000D02*
X133350000Y-97790000D01*
X133350000Y-97790000D02*
X147955000Y-97790000D01*
X153035000Y-62865000D02*
X159385000Y-62865000D01*
X159385000Y-62865000D02*
X160655000Y-61595000D01*
X160655000Y-61595000D02*
X160655000Y-63500000D01*
X162506002Y-65351002D02*
X162506002Y-69850000D01*
X160655000Y-63500000D02*
X162506002Y-65351002D01*
X162506002Y-69850000D02*
X162560000Y-69850000D01*
X160655000Y-61595000D02*
X160655000Y-59055000D01*
X160655000Y-59055000D02*
X160655000Y-56515000D01*
X162560000Y-82550000D02*
X162560000Y-69850000D01*
X183515000Y-61595000D02*
X191135000Y-61595000D01*
X191135000Y-61595000D02*
X191135000Y-59055000D01*
X191135000Y-59055000D02*
X191135000Y-56515000D01*
X183515000Y-53975000D02*
X183515000Y-59055000D01*
X174625000Y-93345000D02*
X177800000Y-93345000D01*
X177800000Y-93345000D02*
X180340000Y-93345000D01*
X180340000Y-93345000D02*
X182880000Y-93345000D01*
X182880000Y-93345000D02*
X185420000Y-93345000D01*
X185420000Y-93345000D02*
X191135000Y-93345000D01*
X191135000Y-93345000D02*
X194945000Y-89535000D01*
X194945000Y-89535000D02*
X196215000Y-89535000D01*
X196215000Y-89535000D02*
X196215000Y-102235000D01*
X167640000Y-95885000D02*
X170180000Y-95885000D01*
X170180000Y-95885000D02*
X174625000Y-95885000D01*
X201295000Y-56515000D02*
X201295000Y-59055000D01*
X201295000Y-59055000D02*
X201295000Y-61595000D01*
X201295000Y-61595000D02*
X201295000Y-64135000D01*
X201295000Y-64135000D02*
X201295000Y-70485000D01*
X201295000Y-70485000D02*
X201295000Y-83185000D01*
X135255000Y-133350000D02*
X137795000Y-133350000D01*
X137795000Y-133350000D02*
X140335000Y-133350000D01*
X140335000Y-133350000D02*
X148590000Y-133350000D01*
X148590000Y-130810000D02*
X140335000Y-130810000D01*
X142875000Y-135890000D02*
X133350000Y-135890000D01*
X133931002Y-130863998D02*
X140335000Y-130863998D01*
X132715000Y-132080000D02*
X133931002Y-130863998D01*
X132715000Y-135255000D02*
X132715000Y-132080000D01*
X133350000Y-135890000D02*
X132715000Y-135255000D01*
X140335000Y-130863998D02*
X140335000Y-130810000D01*
X145415000Y-135890000D02*
X148590000Y-135890000D01*
X148590000Y-135890000D02*
X154940000Y-135890000D01*
X154940000Y-135890000D02*
X196850000Y-135890000D01*
D16*
X142875000Y-67310000D02*
X142875000Y-76835000D01*
X142875000Y-67310000D02*
X140970000Y-65405000D01*
X140970000Y-63500000D02*
X139700000Y-62230000D01*
X140970000Y-65405000D02*
X140970000Y-63500000D01*
X142875000Y-67310000D02*
X142875000Y-66675000D01*
X142875000Y-62230000D02*
X139700000Y-62230000D01*
X139700000Y-62230000D02*
X138430000Y-62230000D01*
X127635000Y-60325000D02*
X126365000Y-61595000D01*
X126365000Y-100965000D02*
X130810000Y-105410000D01*
X126365000Y-61595000D02*
X126365000Y-100965000D01*
X164465000Y-141605000D02*
X135890000Y-141605000D01*
X135890000Y-141605000D02*
X130810000Y-136525000D01*
X132715000Y-188595000D02*
X132080000Y-188595000D01*
X132080000Y-188595000D02*
X130810000Y-187325000D01*
X130810000Y-187325000D02*
X130810000Y-136525000D01*
X130810000Y-136525000D02*
X130810000Y-105410000D01*
X127635000Y-60325000D02*
X130810000Y-57150000D01*
X171450000Y-144145000D02*
X171450000Y-144780000D01*
X171450000Y-144780000D02*
X168910000Y-147320000D01*
X168910000Y-147320000D02*
X168910000Y-179070000D01*
X168910000Y-179070000D02*
X173355000Y-183515000D01*
X130810000Y-64770000D02*
X128905000Y-66675000D01*
X135255000Y-81915000D02*
X135255000Y-83185000D01*
X128905000Y-75565000D02*
X135255000Y-81915000D01*
X128905000Y-66675000D02*
X128905000Y-75565000D01*
X164465000Y-51435000D02*
X160655000Y-51435000D01*
X133350000Y-85090000D02*
X133350000Y-87630000D01*
X135255000Y-83185000D02*
X133350000Y-85090000D01*
X142240000Y-83185000D02*
X135255000Y-83185000D01*
X151130000Y-74295000D02*
X142240000Y-83185000D01*
X151130000Y-60960000D02*
X151130000Y-74295000D01*
X160655000Y-51435000D02*
X151130000Y-60960000D01*
X173355000Y-53975000D02*
X169545000Y-53975000D01*
X167640000Y-55880000D02*
X167640000Y-85725000D01*
X169545000Y-53975000D02*
X167640000Y-55880000D01*
M02*
