G04 #@! TF.FileFunction,Copper,L2,Bot,Signal*
%FSLAX46Y46*%
G04 Gerber Fmt 4.6, Leading zero omitted, Abs format (unit mm)*
G04 Created by KiCad (PCBNEW 4.0.1-stable) date 01/02/17 16:37:31*
%MOMM*%
G01*
G04 APERTURE LIST*
%ADD10C,0.100000*%
%ADD11R,1.554000X1.716000*%
%ADD12C,1.716000*%
%ADD13R,2.016000X2.016000*%
%ADD14C,2.016000*%
%ADD15C,5.000000*%
%ADD16C,0.304800*%
G04 APERTURE END LIST*
D10*
D11*
X151765000Y-56970000D03*
D12*
X151765000Y-61970000D03*
X108585000Y-63320000D03*
X106045000Y-63320000D03*
X103505000Y-63320000D03*
D13*
X200660000Y-60145000D03*
D14*
X200660000Y-62685000D03*
D13*
X200025000Y-112215000D03*
D14*
X200025000Y-114755000D03*
D13*
X200025000Y-89990000D03*
D14*
X200025000Y-92530000D03*
X200025000Y-95070000D03*
X200025000Y-97610000D03*
X200025000Y-100150000D03*
X200025000Y-102690000D03*
D13*
X106045000Y-69670000D03*
D14*
X108585000Y-69670000D03*
X111125000Y-69670000D03*
X113665000Y-69670000D03*
X116205000Y-69670000D03*
X118745000Y-69670000D03*
X121285000Y-69670000D03*
X123825000Y-69670000D03*
X126365000Y-69670000D03*
X128905000Y-69670000D03*
X131445000Y-69670000D03*
X133985000Y-69670000D03*
X136525000Y-69670000D03*
X139065000Y-69670000D03*
X141605000Y-69670000D03*
X144145000Y-69670000D03*
D15*
X100545900Y-69670000D03*
X100545000Y-124670000D03*
X193545000Y-124670000D03*
X193545000Y-69670000D03*
D12*
X111125000Y-77925000D03*
X108585000Y-80592000D03*
X106045000Y-77925000D03*
X86360000Y-122375000D03*
X86360000Y-112215000D03*
X88900000Y-122375000D03*
X88900000Y-112215000D03*
X82550000Y-74750000D03*
X82550000Y-84910000D03*
X87630000Y-74750000D03*
X87630000Y-84910000D03*
X92710000Y-103960000D03*
X92710000Y-93800000D03*
D14*
X82550000Y-103960000D03*
X87630000Y-103960000D03*
X82550000Y-88720000D03*
X85090000Y-88720000D03*
X87630000Y-88720000D03*
D13*
X92710000Y-112215000D03*
D14*
X92710000Y-114755000D03*
X92710000Y-117295000D03*
X92710000Y-119835000D03*
X92710000Y-122375000D03*
D12*
X141605000Y-58240000D03*
X139065000Y-58240000D03*
X136525000Y-58240000D03*
X133985000Y-58240000D03*
X131445000Y-58240000D03*
X128905000Y-58240000D03*
X126365000Y-58240000D03*
X126365000Y-65860000D03*
X128905000Y-65860000D03*
X131445000Y-65860000D03*
X133985000Y-65860000D03*
X136525000Y-65860000D03*
X139065000Y-65860000D03*
X141605000Y-65860000D03*
D16*
X141605000Y-69670000D02*
X141605000Y-70940000D01*
X102235000Y-55065000D02*
X82550000Y-74750000D01*
X200660000Y-55065000D02*
X102235000Y-55065000D01*
X203200000Y-57605000D02*
X200660000Y-55065000D01*
X203200000Y-65860000D02*
X203200000Y-57605000D01*
X195580000Y-73480000D02*
X203200000Y-65860000D01*
X144145000Y-73480000D02*
X195580000Y-73480000D01*
X141605000Y-70940000D02*
X144145000Y-73480000D01*
X82550000Y-103960000D02*
X79375000Y-100785000D01*
X79375000Y-100785000D02*
X79375000Y-77925000D01*
X79375000Y-77925000D02*
X82550000Y-74750000D01*
X108585000Y-69670000D02*
X108585000Y-75385000D01*
X108585000Y-75385000D02*
X111125000Y-77925000D01*
X108585000Y-63320000D02*
X115570000Y-63320000D01*
X133350000Y-56970000D02*
X150495000Y-56970000D01*
X132715000Y-57605000D02*
X133350000Y-56970000D01*
X132715000Y-59510000D02*
X132715000Y-57605000D01*
X132080000Y-60145000D02*
X132715000Y-59510000D01*
X118745000Y-60145000D02*
X132080000Y-60145000D01*
X115570000Y-63320000D02*
X118745000Y-60145000D01*
X82550000Y-103960000D02*
X82550000Y-118565000D01*
X82550000Y-118565000D02*
X86360000Y-122375000D01*
X92710000Y-122375000D02*
X88900000Y-122375000D01*
X88900000Y-122375000D02*
X86360000Y-122375000D01*
X87630000Y-74750000D02*
X82550000Y-74750000D01*
X108585000Y-63320000D02*
X108585000Y-69670000D01*
X128905000Y-65860000D02*
X128905000Y-64590000D01*
X139700000Y-63955000D02*
X141605000Y-65860000D01*
X129540000Y-63955000D02*
X139700000Y-63955000D01*
X128905000Y-64590000D02*
X129540000Y-63955000D01*
X141605000Y-69670000D02*
X141605000Y-65860000D01*
X141605000Y-65860000D02*
X150495000Y-56970000D01*
X150495000Y-56970000D02*
X151765000Y-56970000D01*
X151765000Y-56970000D02*
X197485000Y-56970000D01*
X197485000Y-56970000D02*
X200660000Y-60145000D01*
X103505000Y-63320000D02*
X100965000Y-63320000D01*
X83185000Y-91895000D02*
X85090000Y-91895000D01*
X80010000Y-88720000D02*
X83185000Y-91895000D01*
X80010000Y-79195000D02*
X80010000Y-88720000D01*
X82550000Y-76655000D02*
X80010000Y-79195000D01*
X87630000Y-76655000D02*
X82550000Y-76655000D01*
X100965000Y-63320000D02*
X87630000Y-76655000D01*
X106045000Y-63320000D02*
X108585000Y-60780000D01*
X103505000Y-63320000D02*
X106045000Y-63320000D01*
X106045000Y-77925000D02*
X106045000Y-80465000D01*
X116205000Y-79195000D02*
X116205000Y-69670000D01*
X113030000Y-82370000D02*
X116205000Y-79195000D01*
X107950000Y-82370000D02*
X113030000Y-82370000D01*
X106045000Y-80465000D02*
X107950000Y-82370000D01*
X106045000Y-69670000D02*
X106045000Y-77925000D01*
X200660000Y-62685000D02*
X201295000Y-62685000D01*
X201295000Y-62685000D02*
X202565000Y-61415000D01*
X128905000Y-55700000D02*
X126365000Y-58240000D01*
X200025000Y-55700000D02*
X128905000Y-55700000D01*
X202565000Y-58240000D02*
X200025000Y-55700000D01*
X202565000Y-61415000D02*
X202565000Y-58240000D01*
X126365000Y-58240000D02*
X113665000Y-58240000D01*
X111125000Y-60780000D02*
X108585000Y-60780000D01*
X113665000Y-58240000D02*
X111125000Y-60780000D01*
X92710000Y-119835000D02*
X88900000Y-119835000D01*
X88900000Y-119835000D02*
X85090000Y-116025000D01*
X85090000Y-116025000D02*
X85090000Y-91895000D01*
X85090000Y-88720000D02*
X85090000Y-91895000D01*
X86995000Y-93800000D02*
X92710000Y-93800000D01*
X85090000Y-91895000D02*
X86995000Y-93800000D01*
X106045000Y-69670000D02*
X106045000Y-63320000D01*
X151765000Y-61970000D02*
X151765000Y-64590000D01*
X146685000Y-69670000D02*
X144145000Y-69670000D01*
X151765000Y-64590000D02*
X146685000Y-69670000D01*
X151765000Y-61970000D02*
X199945000Y-61970000D01*
X199945000Y-61970000D02*
X200660000Y-62685000D01*
X92710000Y-112215000D02*
X200025000Y-112215000D01*
X88900000Y-112215000D02*
X92710000Y-112215000D01*
X200025000Y-114755000D02*
X92710000Y-114755000D01*
X86360000Y-112215000D02*
X88265000Y-114120000D01*
X88900000Y-114755000D02*
X92710000Y-114755000D01*
X88265000Y-114120000D02*
X88900000Y-114755000D01*
X200025000Y-89990000D02*
X196215000Y-89990000D01*
X84455000Y-83005000D02*
X82550000Y-84910000D01*
X189230000Y-83005000D02*
X84455000Y-83005000D01*
X196215000Y-89990000D02*
X189230000Y-83005000D01*
X82550000Y-84910000D02*
X82550000Y-88720000D01*
X87630000Y-88720000D02*
X192405000Y-88720000D01*
X196215000Y-92530000D02*
X200025000Y-92530000D01*
X192405000Y-88720000D02*
X196215000Y-92530000D01*
X87630000Y-88720000D02*
X87630000Y-84910000D01*
X92710000Y-103960000D02*
X198120000Y-103960000D01*
X201930000Y-96975000D02*
X200025000Y-95070000D01*
X201930000Y-103325000D02*
X201930000Y-96975000D01*
X200660000Y-104595000D02*
X201930000Y-103325000D01*
X198755000Y-104595000D02*
X200660000Y-104595000D01*
X198120000Y-103960000D02*
X198755000Y-104595000D01*
X92710000Y-103960000D02*
X87630000Y-103960000D01*
X139065000Y-58240000D02*
X141605000Y-58240000D01*
X108585000Y-80592000D02*
X111633000Y-80592000D01*
X111125000Y-72845000D02*
X111125000Y-69670000D01*
X113030000Y-74750000D02*
X111125000Y-72845000D01*
X113030000Y-79195000D02*
X113030000Y-74750000D01*
X111633000Y-80592000D02*
X113030000Y-79195000D01*
X136525000Y-58240000D02*
X133350000Y-61415000D01*
X121920000Y-61415000D02*
X113665000Y-69670000D01*
X133350000Y-61415000D02*
X121920000Y-61415000D01*
X131445000Y-69670000D02*
X131445000Y-65860000D01*
X133985000Y-65860000D02*
X133985000Y-69670000D01*
X136525000Y-69670000D02*
X136525000Y-65860000D01*
X139065000Y-65860000D02*
X139065000Y-69670000D01*
M02*
