%FSLAX45Y45*%
G04 Gerber Fmt 4.5, Leading zero omitted, Abs format (unit mm)*
G04 Created by KiCad (PCBNEW 4.0.1-stable) date 01/02/17 16:37:33*
%MOMM*%
G01*
G04 APERTURE LIST*
%ADD10C,0.127000*%
%ADD11C,0.100000*%
%ADD12C,0.200000*%
%ADD13C,0.300000*%
G04 APERTURE END LIST*
D10*
D11*
X7380000Y-12982000D02*
X7380000Y-4982000D01*
X20880000Y-12982000D02*
X7380000Y-12982000D01*
X20880000Y-4982000D02*
X20880000Y-12982000D01*
X7380000Y-4982000D02*
X20880000Y-4982000D01*
D12*
X8220000Y-7440000D02*
X8290000Y-7510000D01*
X8290000Y-7440000D02*
X8220000Y-7510000D01*
X8220000Y-8456000D02*
X8290000Y-8526000D01*
X8290000Y-8456000D02*
X8220000Y-8526000D01*
X8601000Y-11186500D02*
X8671000Y-11256500D01*
X8671000Y-11186500D02*
X8601000Y-11256500D01*
X8601000Y-12202500D02*
X8671000Y-12272500D01*
X8671000Y-12202500D02*
X8601000Y-12272500D01*
X8728000Y-7440000D02*
X8798000Y-7510000D01*
X8798000Y-7440000D02*
X8728000Y-7510000D01*
X8728000Y-8456000D02*
X8798000Y-8526000D01*
X8798000Y-8456000D02*
X8728000Y-8526000D01*
X8855000Y-11186500D02*
X8925000Y-11256500D01*
X8925000Y-11186500D02*
X8855000Y-11256500D01*
X8855000Y-12202500D02*
X8925000Y-12272500D01*
X8925000Y-12202500D02*
X8855000Y-12272500D01*
X9236000Y-9345000D02*
X9306000Y-9415000D01*
X9306000Y-9345000D02*
X9236000Y-9415000D01*
X9236000Y-10361000D02*
X9306000Y-10431000D01*
X9306000Y-10361000D02*
X9236000Y-10431000D01*
X10315500Y-6297000D02*
X10385500Y-6367000D01*
X10385500Y-6297000D02*
X10315500Y-6367000D01*
X10569500Y-6297000D02*
X10639500Y-6367000D01*
X10639500Y-6297000D02*
X10569500Y-6367000D01*
X10569500Y-7757500D02*
X10639500Y-7827500D01*
X10639500Y-7757500D02*
X10569500Y-7827500D01*
X10823500Y-6297000D02*
X10893500Y-6367000D01*
X10893500Y-6297000D02*
X10823500Y-6367000D01*
X10823500Y-8024200D02*
X10893500Y-8094200D01*
X10893500Y-8024200D02*
X10823500Y-8094200D01*
X11077500Y-7757500D02*
X11147500Y-7827500D01*
X11147500Y-7757500D02*
X11077500Y-7827500D01*
X12601500Y-5789000D02*
X12671500Y-5859000D01*
X12671500Y-5789000D02*
X12601500Y-5859000D01*
X12601500Y-6551000D02*
X12671500Y-6621000D01*
X12671500Y-6551000D02*
X12601500Y-6621000D01*
X12855500Y-5789000D02*
X12925500Y-5859000D01*
X12925500Y-5789000D02*
X12855500Y-5859000D01*
X12855500Y-6551000D02*
X12925500Y-6621000D01*
X12925500Y-6551000D02*
X12855500Y-6621000D01*
X13109500Y-5789000D02*
X13179500Y-5859000D01*
X13179500Y-5789000D02*
X13109500Y-5859000D01*
X13109500Y-6551000D02*
X13179500Y-6621000D01*
X13179500Y-6551000D02*
X13109500Y-6621000D01*
X13363500Y-5789000D02*
X13433500Y-5859000D01*
X13433500Y-5789000D02*
X13363500Y-5859000D01*
X13363500Y-6551000D02*
X13433500Y-6621000D01*
X13433500Y-6551000D02*
X13363500Y-6621000D01*
X13617500Y-5789000D02*
X13687500Y-5859000D01*
X13687500Y-5789000D02*
X13617500Y-5859000D01*
X13617500Y-6551000D02*
X13687500Y-6621000D01*
X13687500Y-6551000D02*
X13617500Y-6621000D01*
X13871500Y-5789000D02*
X13941500Y-5859000D01*
X13941500Y-5789000D02*
X13871500Y-5859000D01*
X13871500Y-6551000D02*
X13941500Y-6621000D01*
X13941500Y-6551000D02*
X13871500Y-6621000D01*
X14125500Y-5789000D02*
X14195500Y-5859000D01*
X14195500Y-5789000D02*
X14125500Y-5859000D01*
X14125500Y-6551000D02*
X14195500Y-6621000D01*
X14195500Y-6551000D02*
X14125500Y-6621000D01*
X15141500Y-5662000D02*
X15211500Y-5732000D01*
X15211500Y-5662000D02*
X15141500Y-5732000D01*
X15141500Y-6162000D02*
X15211500Y-6232000D01*
X15211500Y-6162000D02*
X15141500Y-6232000D01*
X9321000Y-11221500D02*
G75*
G03X9321000Y-11221500I-50000J0D01*
G01*
X9321000Y-11475500D02*
G75*
G03X9321000Y-11475500I-50000J0D01*
G01*
X9321000Y-11729500D02*
G75*
G03X9321000Y-11729500I-50000J0D01*
G01*
X9321000Y-11983500D02*
G75*
G03X9321000Y-11983500I-50000J0D01*
G01*
X9321000Y-12237500D02*
G75*
G03X9321000Y-12237500I-50000J0D01*
G01*
X10654500Y-6967000D02*
G75*
G03X10654500Y-6967000I-50000J0D01*
G01*
X10908500Y-6967000D02*
G75*
G03X10908500Y-6967000I-50000J0D01*
G01*
X11162500Y-6967000D02*
G75*
G03X11162500Y-6967000I-50000J0D01*
G01*
X11416500Y-6967000D02*
G75*
G03X11416500Y-6967000I-50000J0D01*
G01*
X11670500Y-6967000D02*
G75*
G03X11670500Y-6967000I-50000J0D01*
G01*
X11924500Y-6967000D02*
G75*
G03X11924500Y-6967000I-50000J0D01*
G01*
X12178500Y-6967000D02*
G75*
G03X12178500Y-6967000I-50000J0D01*
G01*
X12432500Y-6967000D02*
G75*
G03X12432500Y-6967000I-50000J0D01*
G01*
X12686500Y-6967000D02*
G75*
G03X12686500Y-6967000I-50000J0D01*
G01*
X12940500Y-6967000D02*
G75*
G03X12940500Y-6967000I-50000J0D01*
G01*
X13194500Y-6967000D02*
G75*
G03X13194500Y-6967000I-50000J0D01*
G01*
X13448500Y-6967000D02*
G75*
G03X13448500Y-6967000I-50000J0D01*
G01*
X13702500Y-6967000D02*
G75*
G03X13702500Y-6967000I-50000J0D01*
G01*
X13956500Y-6967000D02*
G75*
G03X13956500Y-6967000I-50000J0D01*
G01*
X14210500Y-6967000D02*
G75*
G03X14210500Y-6967000I-50000J0D01*
G01*
X14464500Y-6967000D02*
G75*
G03X14464500Y-6967000I-50000J0D01*
G01*
X20052500Y-8999000D02*
G75*
G03X20052500Y-8999000I-50000J0D01*
G01*
X20052500Y-9253000D02*
G75*
G03X20052500Y-9253000I-50000J0D01*
G01*
X20052500Y-9507000D02*
G75*
G03X20052500Y-9507000I-50000J0D01*
G01*
X20052500Y-9761000D02*
G75*
G03X20052500Y-9761000I-50000J0D01*
G01*
X20052500Y-10015000D02*
G75*
G03X20052500Y-10015000I-50000J0D01*
G01*
X20052500Y-10269000D02*
G75*
G03X20052500Y-10269000I-50000J0D01*
G01*
X20052500Y-11221500D02*
G75*
G03X20052500Y-11221500I-50000J0D01*
G01*
X20052500Y-11475500D02*
G75*
G03X20052500Y-11475500I-50000J0D01*
G01*
X20116000Y-6014500D02*
G75*
G03X20116000Y-6014500I-50000J0D01*
G01*
X20116000Y-6268500D02*
G75*
G03X20116000Y-6268500I-50000J0D01*
G01*
X8255000Y-8817000D02*
X8255000Y-8927000D01*
X8200000Y-8872000D02*
X8310000Y-8872000D01*
X8255000Y-10341000D02*
X8255000Y-10451000D01*
X8200000Y-10396000D02*
X8310000Y-10396000D01*
X8509000Y-8817000D02*
X8509000Y-8927000D01*
X8454000Y-8872000D02*
X8564000Y-8872000D01*
X8763000Y-8817000D02*
X8763000Y-8927000D01*
X8708000Y-8872000D02*
X8818000Y-8872000D01*
X8763000Y-10341000D02*
X8763000Y-10451000D01*
X8708000Y-10396000D02*
X8818000Y-10396000D01*
X10167638Y-12580138D02*
X10167638Y-12353862D01*
X9941362Y-12353862D01*
X9941362Y-12580138D01*
X10167638Y-12580138D01*
X10167728Y-7080138D02*
X10167728Y-6853862D01*
X9941452Y-6853862D01*
X9941452Y-7080138D01*
X10167728Y-7080138D01*
X19467638Y-7080138D02*
X19467638Y-6853862D01*
X19241362Y-6853862D01*
X19241362Y-7080138D01*
X19467638Y-7080138D01*
X19467638Y-12580138D02*
X19467638Y-12353862D01*
X19241362Y-12353862D01*
X19241362Y-12580138D01*
X19467638Y-12580138D01*
D13*
X7646428Y-13452714D02*
X7646428Y-13152714D01*
X7717857Y-13152714D01*
X7760714Y-13167000D01*
X7789286Y-13195571D01*
X7803571Y-13224143D01*
X7817857Y-13281286D01*
X7817857Y-13324143D01*
X7803571Y-13381286D01*
X7789286Y-13409857D01*
X7760714Y-13438429D01*
X7717857Y-13452714D01*
X7646428Y-13452714D01*
X7946428Y-13452714D02*
X7946428Y-13252714D01*
X7946428Y-13309857D02*
X7960714Y-13281286D01*
X7975000Y-13267000D01*
X8003571Y-13252714D01*
X8032143Y-13252714D01*
X8132143Y-13452714D02*
X8132143Y-13252714D01*
X8132143Y-13152714D02*
X8117857Y-13167000D01*
X8132143Y-13181286D01*
X8146428Y-13167000D01*
X8132143Y-13152714D01*
X8132143Y-13181286D01*
X8317857Y-13452714D02*
X8289286Y-13438429D01*
X8275000Y-13409857D01*
X8275000Y-13152714D01*
X8475000Y-13452714D02*
X8446429Y-13438429D01*
X8432143Y-13409857D01*
X8432143Y-13152714D01*
X8817857Y-13452714D02*
X8817857Y-13152714D01*
X8917857Y-13367000D01*
X9017857Y-13152714D01*
X9017857Y-13452714D01*
X9289286Y-13452714D02*
X9289286Y-13295571D01*
X9275000Y-13267000D01*
X9246429Y-13252714D01*
X9189286Y-13252714D01*
X9160714Y-13267000D01*
X9289286Y-13438429D02*
X9260714Y-13452714D01*
X9189286Y-13452714D01*
X9160714Y-13438429D01*
X9146429Y-13409857D01*
X9146429Y-13381286D01*
X9160714Y-13352714D01*
X9189286Y-13338429D01*
X9260714Y-13338429D01*
X9289286Y-13324143D01*
X9432143Y-13252714D02*
X9432143Y-13552714D01*
X9432143Y-13267000D02*
X9460714Y-13252714D01*
X9517857Y-13252714D01*
X9546429Y-13267000D01*
X9560714Y-13281286D01*
X9575000Y-13309857D01*
X9575000Y-13395571D01*
X9560714Y-13424143D01*
X9546429Y-13438429D01*
X9517857Y-13452714D01*
X9460714Y-13452714D01*
X9432143Y-13438429D01*
X9703571Y-13424143D02*
X9717857Y-13438429D01*
X9703571Y-13452714D01*
X9689286Y-13438429D01*
X9703571Y-13424143D01*
X9703571Y-13452714D01*
X9703571Y-13267000D02*
X9717857Y-13281286D01*
X9703571Y-13295571D01*
X9689286Y-13281286D01*
X9703571Y-13267000D01*
X9703571Y-13295571D01*
X7305000Y-13912000D02*
X7375000Y-13982000D01*
X7375000Y-13912000D02*
X7305000Y-13982000D01*
X7703571Y-13782714D02*
X7732143Y-13782714D01*
X7760714Y-13797000D01*
X7775000Y-13811286D01*
X7789286Y-13839857D01*
X7803571Y-13897000D01*
X7803571Y-13968429D01*
X7789286Y-14025571D01*
X7775000Y-14054143D01*
X7760714Y-14068429D01*
X7732143Y-14082714D01*
X7703571Y-14082714D01*
X7675000Y-14068429D01*
X7660714Y-14054143D01*
X7646428Y-14025571D01*
X7632143Y-13968429D01*
X7632143Y-13897000D01*
X7646428Y-13839857D01*
X7660714Y-13811286D01*
X7675000Y-13797000D01*
X7703571Y-13782714D01*
X7932143Y-14054143D02*
X7946428Y-14068429D01*
X7932143Y-14082714D01*
X7917857Y-14068429D01*
X7932143Y-14054143D01*
X7932143Y-14082714D01*
X8046428Y-13782714D02*
X8246428Y-13782714D01*
X8117857Y-14082714D01*
X8417857Y-13782714D02*
X8446429Y-13782714D01*
X8475000Y-13797000D01*
X8489286Y-13811286D01*
X8503571Y-13839857D01*
X8517857Y-13897000D01*
X8517857Y-13968429D01*
X8503571Y-14025571D01*
X8489286Y-14054143D01*
X8475000Y-14068429D01*
X8446429Y-14082714D01*
X8417857Y-14082714D01*
X8389286Y-14068429D01*
X8375000Y-14054143D01*
X8360714Y-14025571D01*
X8346428Y-13968429D01*
X8346428Y-13897000D01*
X8360714Y-13839857D01*
X8375000Y-13811286D01*
X8389286Y-13797000D01*
X8417857Y-13782714D01*
X8646429Y-14082714D02*
X8646429Y-13882714D01*
X8646429Y-13911286D02*
X8660714Y-13897000D01*
X8689286Y-13882714D01*
X8732143Y-13882714D01*
X8760714Y-13897000D01*
X8775000Y-13925571D01*
X8775000Y-14082714D01*
X8775000Y-13925571D02*
X8789286Y-13897000D01*
X8817857Y-13882714D01*
X8860714Y-13882714D01*
X8889286Y-13897000D01*
X8903571Y-13925571D01*
X8903571Y-14082714D01*
X9046429Y-14082714D02*
X9046429Y-13882714D01*
X9046429Y-13911286D02*
X9060714Y-13897000D01*
X9089286Y-13882714D01*
X9132143Y-13882714D01*
X9160714Y-13897000D01*
X9175000Y-13925571D01*
X9175000Y-14082714D01*
X9175000Y-13925571D02*
X9189286Y-13897000D01*
X9217857Y-13882714D01*
X9260714Y-13882714D01*
X9289286Y-13897000D01*
X9303571Y-13925571D01*
X9303571Y-14082714D01*
X9889286Y-13768429D02*
X9632143Y-14154143D01*
X10275000Y-13782714D02*
X10303571Y-13782714D01*
X10332143Y-13797000D01*
X10346428Y-13811286D01*
X10360714Y-13839857D01*
X10375000Y-13897000D01*
X10375000Y-13968429D01*
X10360714Y-14025571D01*
X10346428Y-14054143D01*
X10332143Y-14068429D01*
X10303571Y-14082714D01*
X10275000Y-14082714D01*
X10246428Y-14068429D01*
X10232143Y-14054143D01*
X10217857Y-14025571D01*
X10203571Y-13968429D01*
X10203571Y-13897000D01*
X10217857Y-13839857D01*
X10232143Y-13811286D01*
X10246428Y-13797000D01*
X10275000Y-13782714D01*
X10503571Y-14054143D02*
X10517857Y-14068429D01*
X10503571Y-14082714D01*
X10489286Y-14068429D01*
X10503571Y-14054143D01*
X10503571Y-14082714D01*
X10703571Y-13782714D02*
X10732143Y-13782714D01*
X10760714Y-13797000D01*
X10775000Y-13811286D01*
X10789286Y-13839857D01*
X10803571Y-13897000D01*
X10803571Y-13968429D01*
X10789286Y-14025571D01*
X10775000Y-14054143D01*
X10760714Y-14068429D01*
X10732143Y-14082714D01*
X10703571Y-14082714D01*
X10675000Y-14068429D01*
X10660714Y-14054143D01*
X10646428Y-14025571D01*
X10632143Y-13968429D01*
X10632143Y-13897000D01*
X10646428Y-13839857D01*
X10660714Y-13811286D01*
X10675000Y-13797000D01*
X10703571Y-13782714D01*
X10917857Y-13811286D02*
X10932143Y-13797000D01*
X10960714Y-13782714D01*
X11032143Y-13782714D01*
X11060714Y-13797000D01*
X11075000Y-13811286D01*
X11089286Y-13839857D01*
X11089286Y-13868429D01*
X11075000Y-13911286D01*
X10903571Y-14082714D01*
X11089286Y-14082714D01*
X11260714Y-13911286D02*
X11232143Y-13897000D01*
X11217857Y-13882714D01*
X11203571Y-13854143D01*
X11203571Y-13839857D01*
X11217857Y-13811286D01*
X11232143Y-13797000D01*
X11260714Y-13782714D01*
X11317857Y-13782714D01*
X11346428Y-13797000D01*
X11360714Y-13811286D01*
X11375000Y-13839857D01*
X11375000Y-13854143D01*
X11360714Y-13882714D01*
X11346428Y-13897000D01*
X11317857Y-13911286D01*
X11260714Y-13911286D01*
X11232143Y-13925571D01*
X11217857Y-13939857D01*
X11203571Y-13968429D01*
X11203571Y-14025571D01*
X11217857Y-14054143D01*
X11232143Y-14068429D01*
X11260714Y-14082714D01*
X11317857Y-14082714D01*
X11346428Y-14068429D01*
X11360714Y-14054143D01*
X11375000Y-14025571D01*
X11375000Y-13968429D01*
X11360714Y-13939857D01*
X11346428Y-13925571D01*
X11317857Y-13911286D01*
X11489286Y-13782714D02*
X11489286Y-13839857D01*
X11603571Y-13782714D02*
X11603571Y-13839857D01*
X12046428Y-14197000D02*
X12032143Y-14182714D01*
X12003571Y-14139857D01*
X11989285Y-14111286D01*
X11975000Y-14068429D01*
X11960714Y-13997000D01*
X11960714Y-13939857D01*
X11975000Y-13868429D01*
X11989285Y-13825571D01*
X12003571Y-13797000D01*
X12032143Y-13754143D01*
X12046428Y-13739857D01*
X12132143Y-13782714D02*
X12317857Y-13782714D01*
X12217857Y-13897000D01*
X12260714Y-13897000D01*
X12289285Y-13911286D01*
X12303571Y-13925571D01*
X12317857Y-13954143D01*
X12317857Y-14025571D01*
X12303571Y-14054143D01*
X12289285Y-14068429D01*
X12260714Y-14082714D01*
X12175000Y-14082714D01*
X12146428Y-14068429D01*
X12132143Y-14054143D01*
X12432143Y-13811286D02*
X12446428Y-13797000D01*
X12475000Y-13782714D01*
X12546428Y-13782714D01*
X12575000Y-13797000D01*
X12589285Y-13811286D01*
X12603571Y-13839857D01*
X12603571Y-13868429D01*
X12589285Y-13911286D01*
X12417857Y-14082714D01*
X12603571Y-14082714D01*
X12960714Y-14082714D02*
X12960714Y-13782714D01*
X13089285Y-14082714D02*
X13089285Y-13925571D01*
X13075000Y-13897000D01*
X13046428Y-13882714D01*
X13003571Y-13882714D01*
X12975000Y-13897000D01*
X12960714Y-13911286D01*
X13275000Y-14082714D02*
X13246428Y-14068429D01*
X13232143Y-14054143D01*
X13217857Y-14025571D01*
X13217857Y-13939857D01*
X13232143Y-13911286D01*
X13246428Y-13897000D01*
X13275000Y-13882714D01*
X13317857Y-13882714D01*
X13346428Y-13897000D01*
X13360714Y-13911286D01*
X13375000Y-13939857D01*
X13375000Y-14025571D01*
X13360714Y-14054143D01*
X13346428Y-14068429D01*
X13317857Y-14082714D01*
X13275000Y-14082714D01*
X13546428Y-14082714D02*
X13517857Y-14068429D01*
X13503571Y-14039857D01*
X13503571Y-13782714D01*
X13775000Y-14068429D02*
X13746428Y-14082714D01*
X13689286Y-14082714D01*
X13660714Y-14068429D01*
X13646428Y-14039857D01*
X13646428Y-13925571D01*
X13660714Y-13897000D01*
X13689286Y-13882714D01*
X13746428Y-13882714D01*
X13775000Y-13897000D01*
X13789286Y-13925571D01*
X13789286Y-13954143D01*
X13646428Y-13982714D01*
X13903571Y-14068429D02*
X13932143Y-14082714D01*
X13989286Y-14082714D01*
X14017857Y-14068429D01*
X14032143Y-14039857D01*
X14032143Y-14025571D01*
X14017857Y-13997000D01*
X13989286Y-13982714D01*
X13946428Y-13982714D01*
X13917857Y-13968429D01*
X13903571Y-13939857D01*
X13903571Y-13925571D01*
X13917857Y-13897000D01*
X13946428Y-13882714D01*
X13989286Y-13882714D01*
X14017857Y-13897000D01*
X14132143Y-14197000D02*
X14146428Y-14182714D01*
X14175000Y-14139857D01*
X14189286Y-14111286D01*
X14203571Y-14068429D01*
X14217857Y-13997000D01*
X14217857Y-13939857D01*
X14203571Y-13868429D01*
X14189286Y-13825571D01*
X14175000Y-13797000D01*
X14146428Y-13754143D01*
X14132143Y-13739857D01*
X7375000Y-14343000D02*
G75*
G03X7375000Y-14343000I-50000J0D01*
G01*
X7803571Y-14478714D02*
X7632143Y-14478714D01*
X7717857Y-14478714D02*
X7717857Y-14178714D01*
X7689286Y-14221571D01*
X7660714Y-14250143D01*
X7632143Y-14264429D01*
X7932143Y-14450143D02*
X7946428Y-14464429D01*
X7932143Y-14478714D01*
X7917857Y-14464429D01*
X7932143Y-14450143D01*
X7932143Y-14478714D01*
X8132143Y-14178714D02*
X8160714Y-14178714D01*
X8189286Y-14193000D01*
X8203571Y-14207286D01*
X8217857Y-14235857D01*
X8232143Y-14293000D01*
X8232143Y-14364429D01*
X8217857Y-14421571D01*
X8203571Y-14450143D01*
X8189286Y-14464429D01*
X8160714Y-14478714D01*
X8132143Y-14478714D01*
X8103571Y-14464429D01*
X8089286Y-14450143D01*
X8075000Y-14421571D01*
X8060714Y-14364429D01*
X8060714Y-14293000D01*
X8075000Y-14235857D01*
X8089286Y-14207286D01*
X8103571Y-14193000D01*
X8132143Y-14178714D01*
X8417857Y-14178714D02*
X8446429Y-14178714D01*
X8475000Y-14193000D01*
X8489286Y-14207286D01*
X8503571Y-14235857D01*
X8517857Y-14293000D01*
X8517857Y-14364429D01*
X8503571Y-14421571D01*
X8489286Y-14450143D01*
X8475000Y-14464429D01*
X8446429Y-14478714D01*
X8417857Y-14478714D01*
X8389286Y-14464429D01*
X8375000Y-14450143D01*
X8360714Y-14421571D01*
X8346428Y-14364429D01*
X8346428Y-14293000D01*
X8360714Y-14235857D01*
X8375000Y-14207286D01*
X8389286Y-14193000D01*
X8417857Y-14178714D01*
X8646429Y-14478714D02*
X8646429Y-14278714D01*
X8646429Y-14307286D02*
X8660714Y-14293000D01*
X8689286Y-14278714D01*
X8732143Y-14278714D01*
X8760714Y-14293000D01*
X8775000Y-14321571D01*
X8775000Y-14478714D01*
X8775000Y-14321571D02*
X8789286Y-14293000D01*
X8817857Y-14278714D01*
X8860714Y-14278714D01*
X8889286Y-14293000D01*
X8903571Y-14321571D01*
X8903571Y-14478714D01*
X9046429Y-14478714D02*
X9046429Y-14278714D01*
X9046429Y-14307286D02*
X9060714Y-14293000D01*
X9089286Y-14278714D01*
X9132143Y-14278714D01*
X9160714Y-14293000D01*
X9175000Y-14321571D01*
X9175000Y-14478714D01*
X9175000Y-14321571D02*
X9189286Y-14293000D01*
X9217857Y-14278714D01*
X9260714Y-14278714D01*
X9289286Y-14293000D01*
X9303571Y-14321571D01*
X9303571Y-14478714D01*
X9889286Y-14164429D02*
X9632143Y-14550143D01*
X10275000Y-14178714D02*
X10303571Y-14178714D01*
X10332143Y-14193000D01*
X10346428Y-14207286D01*
X10360714Y-14235857D01*
X10375000Y-14293000D01*
X10375000Y-14364429D01*
X10360714Y-14421571D01*
X10346428Y-14450143D01*
X10332143Y-14464429D01*
X10303571Y-14478714D01*
X10275000Y-14478714D01*
X10246428Y-14464429D01*
X10232143Y-14450143D01*
X10217857Y-14421571D01*
X10203571Y-14364429D01*
X10203571Y-14293000D01*
X10217857Y-14235857D01*
X10232143Y-14207286D01*
X10246428Y-14193000D01*
X10275000Y-14178714D01*
X10503571Y-14450143D02*
X10517857Y-14464429D01*
X10503571Y-14478714D01*
X10489286Y-14464429D01*
X10503571Y-14450143D01*
X10503571Y-14478714D01*
X10703571Y-14178714D02*
X10732143Y-14178714D01*
X10760714Y-14193000D01*
X10775000Y-14207286D01*
X10789286Y-14235857D01*
X10803571Y-14293000D01*
X10803571Y-14364429D01*
X10789286Y-14421571D01*
X10775000Y-14450143D01*
X10760714Y-14464429D01*
X10732143Y-14478714D01*
X10703571Y-14478714D01*
X10675000Y-14464429D01*
X10660714Y-14450143D01*
X10646428Y-14421571D01*
X10632143Y-14364429D01*
X10632143Y-14293000D01*
X10646428Y-14235857D01*
X10660714Y-14207286D01*
X10675000Y-14193000D01*
X10703571Y-14178714D01*
X10903571Y-14178714D02*
X11089286Y-14178714D01*
X10989286Y-14293000D01*
X11032143Y-14293000D01*
X11060714Y-14307286D01*
X11075000Y-14321571D01*
X11089286Y-14350143D01*
X11089286Y-14421571D01*
X11075000Y-14450143D01*
X11060714Y-14464429D01*
X11032143Y-14478714D01*
X10946428Y-14478714D01*
X10917857Y-14464429D01*
X10903571Y-14450143D01*
X11232143Y-14478714D02*
X11289285Y-14478714D01*
X11317857Y-14464429D01*
X11332143Y-14450143D01*
X11360714Y-14407286D01*
X11375000Y-14350143D01*
X11375000Y-14235857D01*
X11360714Y-14207286D01*
X11346428Y-14193000D01*
X11317857Y-14178714D01*
X11260714Y-14178714D01*
X11232143Y-14193000D01*
X11217857Y-14207286D01*
X11203571Y-14235857D01*
X11203571Y-14307286D01*
X11217857Y-14335857D01*
X11232143Y-14350143D01*
X11260714Y-14364429D01*
X11317857Y-14364429D01*
X11346428Y-14350143D01*
X11360714Y-14335857D01*
X11375000Y-14307286D01*
X11489286Y-14178714D02*
X11489286Y-14235857D01*
X11603571Y-14178714D02*
X11603571Y-14235857D01*
X12046428Y-14593000D02*
X12032143Y-14578714D01*
X12003571Y-14535857D01*
X11989285Y-14507286D01*
X11975000Y-14464429D01*
X11960714Y-14393000D01*
X11960714Y-14335857D01*
X11975000Y-14264429D01*
X11989285Y-14221571D01*
X12003571Y-14193000D01*
X12032143Y-14150143D01*
X12046428Y-14135857D01*
X12132143Y-14178714D02*
X12317857Y-14178714D01*
X12217857Y-14293000D01*
X12260714Y-14293000D01*
X12289285Y-14307286D01*
X12303571Y-14321571D01*
X12317857Y-14350143D01*
X12317857Y-14421571D01*
X12303571Y-14450143D01*
X12289285Y-14464429D01*
X12260714Y-14478714D01*
X12175000Y-14478714D01*
X12146428Y-14464429D01*
X12132143Y-14450143D01*
X12603571Y-14478714D02*
X12432143Y-14478714D01*
X12517857Y-14478714D02*
X12517857Y-14178714D01*
X12489285Y-14221571D01*
X12460714Y-14250143D01*
X12432143Y-14264429D01*
X12960714Y-14478714D02*
X12960714Y-14178714D01*
X13089285Y-14478714D02*
X13089285Y-14321571D01*
X13075000Y-14293000D01*
X13046428Y-14278714D01*
X13003571Y-14278714D01*
X12975000Y-14293000D01*
X12960714Y-14307286D01*
X13275000Y-14478714D02*
X13246428Y-14464429D01*
X13232143Y-14450143D01*
X13217857Y-14421571D01*
X13217857Y-14335857D01*
X13232143Y-14307286D01*
X13246428Y-14293000D01*
X13275000Y-14278714D01*
X13317857Y-14278714D01*
X13346428Y-14293000D01*
X13360714Y-14307286D01*
X13375000Y-14335857D01*
X13375000Y-14421571D01*
X13360714Y-14450143D01*
X13346428Y-14464429D01*
X13317857Y-14478714D01*
X13275000Y-14478714D01*
X13546428Y-14478714D02*
X13517857Y-14464429D01*
X13503571Y-14435857D01*
X13503571Y-14178714D01*
X13775000Y-14464429D02*
X13746428Y-14478714D01*
X13689286Y-14478714D01*
X13660714Y-14464429D01*
X13646428Y-14435857D01*
X13646428Y-14321571D01*
X13660714Y-14293000D01*
X13689286Y-14278714D01*
X13746428Y-14278714D01*
X13775000Y-14293000D01*
X13789286Y-14321571D01*
X13789286Y-14350143D01*
X13646428Y-14378714D01*
X13903571Y-14464429D02*
X13932143Y-14478714D01*
X13989286Y-14478714D01*
X14017857Y-14464429D01*
X14032143Y-14435857D01*
X14032143Y-14421571D01*
X14017857Y-14393000D01*
X13989286Y-14378714D01*
X13946428Y-14378714D01*
X13917857Y-14364429D01*
X13903571Y-14335857D01*
X13903571Y-14321571D01*
X13917857Y-14293000D01*
X13946428Y-14278714D01*
X13989286Y-14278714D01*
X14017857Y-14293000D01*
X14132143Y-14593000D02*
X14146428Y-14578714D01*
X14175000Y-14535857D01*
X14189286Y-14507286D01*
X14203571Y-14464429D01*
X14217857Y-14393000D01*
X14217857Y-14335857D01*
X14203571Y-14264429D01*
X14189286Y-14221571D01*
X14175000Y-14193000D01*
X14146428Y-14150143D01*
X14132143Y-14135857D01*
X7320000Y-14684000D02*
X7320000Y-14794000D01*
X7265000Y-14739000D02*
X7375000Y-14739000D01*
X7803571Y-14874714D02*
X7632143Y-14874714D01*
X7717857Y-14874714D02*
X7717857Y-14574714D01*
X7689286Y-14617571D01*
X7660714Y-14646143D01*
X7632143Y-14660429D01*
X7932143Y-14846143D02*
X7946428Y-14860429D01*
X7932143Y-14874714D01*
X7917857Y-14860429D01*
X7932143Y-14846143D01*
X7932143Y-14874714D01*
X8232143Y-14874714D02*
X8060714Y-14874714D01*
X8146428Y-14874714D02*
X8146428Y-14574714D01*
X8117857Y-14617571D01*
X8089286Y-14646143D01*
X8060714Y-14660429D01*
X8417857Y-14574714D02*
X8446429Y-14574714D01*
X8475000Y-14589000D01*
X8489286Y-14603286D01*
X8503571Y-14631857D01*
X8517857Y-14689000D01*
X8517857Y-14760429D01*
X8503571Y-14817571D01*
X8489286Y-14846143D01*
X8475000Y-14860429D01*
X8446429Y-14874714D01*
X8417857Y-14874714D01*
X8389286Y-14860429D01*
X8375000Y-14846143D01*
X8360714Y-14817571D01*
X8346428Y-14760429D01*
X8346428Y-14689000D01*
X8360714Y-14631857D01*
X8375000Y-14603286D01*
X8389286Y-14589000D01*
X8417857Y-14574714D01*
X8646429Y-14874714D02*
X8646429Y-14674714D01*
X8646429Y-14703286D02*
X8660714Y-14689000D01*
X8689286Y-14674714D01*
X8732143Y-14674714D01*
X8760714Y-14689000D01*
X8775000Y-14717571D01*
X8775000Y-14874714D01*
X8775000Y-14717571D02*
X8789286Y-14689000D01*
X8817857Y-14674714D01*
X8860714Y-14674714D01*
X8889286Y-14689000D01*
X8903571Y-14717571D01*
X8903571Y-14874714D01*
X9046429Y-14874714D02*
X9046429Y-14674714D01*
X9046429Y-14703286D02*
X9060714Y-14689000D01*
X9089286Y-14674714D01*
X9132143Y-14674714D01*
X9160714Y-14689000D01*
X9175000Y-14717571D01*
X9175000Y-14874714D01*
X9175000Y-14717571D02*
X9189286Y-14689000D01*
X9217857Y-14674714D01*
X9260714Y-14674714D01*
X9289286Y-14689000D01*
X9303571Y-14717571D01*
X9303571Y-14874714D01*
X9889286Y-14560429D02*
X9632143Y-14946143D01*
X10275000Y-14574714D02*
X10303571Y-14574714D01*
X10332143Y-14589000D01*
X10346428Y-14603286D01*
X10360714Y-14631857D01*
X10375000Y-14689000D01*
X10375000Y-14760429D01*
X10360714Y-14817571D01*
X10346428Y-14846143D01*
X10332143Y-14860429D01*
X10303571Y-14874714D01*
X10275000Y-14874714D01*
X10246428Y-14860429D01*
X10232143Y-14846143D01*
X10217857Y-14817571D01*
X10203571Y-14760429D01*
X10203571Y-14689000D01*
X10217857Y-14631857D01*
X10232143Y-14603286D01*
X10246428Y-14589000D01*
X10275000Y-14574714D01*
X10503571Y-14846143D02*
X10517857Y-14860429D01*
X10503571Y-14874714D01*
X10489286Y-14860429D01*
X10503571Y-14846143D01*
X10503571Y-14874714D01*
X10703571Y-14574714D02*
X10732143Y-14574714D01*
X10760714Y-14589000D01*
X10775000Y-14603286D01*
X10789286Y-14631857D01*
X10803571Y-14689000D01*
X10803571Y-14760429D01*
X10789286Y-14817571D01*
X10775000Y-14846143D01*
X10760714Y-14860429D01*
X10732143Y-14874714D01*
X10703571Y-14874714D01*
X10675000Y-14860429D01*
X10660714Y-14846143D01*
X10646428Y-14817571D01*
X10632143Y-14760429D01*
X10632143Y-14689000D01*
X10646428Y-14631857D01*
X10660714Y-14603286D01*
X10675000Y-14589000D01*
X10703571Y-14574714D01*
X11060714Y-14674714D02*
X11060714Y-14874714D01*
X10989286Y-14560429D02*
X10917857Y-14774714D01*
X11103571Y-14774714D01*
X11189285Y-14574714D02*
X11375000Y-14574714D01*
X11275000Y-14689000D01*
X11317857Y-14689000D01*
X11346428Y-14703286D01*
X11360714Y-14717571D01*
X11375000Y-14746143D01*
X11375000Y-14817571D01*
X11360714Y-14846143D01*
X11346428Y-14860429D01*
X11317857Y-14874714D01*
X11232143Y-14874714D01*
X11203571Y-14860429D01*
X11189285Y-14846143D01*
X11489286Y-14574714D02*
X11489286Y-14631857D01*
X11603571Y-14574714D02*
X11603571Y-14631857D01*
X12046428Y-14989000D02*
X12032143Y-14974714D01*
X12003571Y-14931857D01*
X11989285Y-14903286D01*
X11975000Y-14860429D01*
X11960714Y-14789000D01*
X11960714Y-14731857D01*
X11975000Y-14660429D01*
X11989285Y-14617571D01*
X12003571Y-14589000D01*
X12032143Y-14546143D01*
X12046428Y-14531857D01*
X12303571Y-14574714D02*
X12160714Y-14574714D01*
X12146428Y-14717571D01*
X12160714Y-14703286D01*
X12189285Y-14689000D01*
X12260714Y-14689000D01*
X12289285Y-14703286D01*
X12303571Y-14717571D01*
X12317857Y-14746143D01*
X12317857Y-14817571D01*
X12303571Y-14846143D01*
X12289285Y-14860429D01*
X12260714Y-14874714D01*
X12189285Y-14874714D01*
X12160714Y-14860429D01*
X12146428Y-14846143D01*
X12675000Y-14874714D02*
X12675000Y-14574714D01*
X12803571Y-14874714D02*
X12803571Y-14717571D01*
X12789285Y-14689000D01*
X12760714Y-14674714D01*
X12717857Y-14674714D01*
X12689285Y-14689000D01*
X12675000Y-14703286D01*
X12989285Y-14874714D02*
X12960714Y-14860429D01*
X12946428Y-14846143D01*
X12932143Y-14817571D01*
X12932143Y-14731857D01*
X12946428Y-14703286D01*
X12960714Y-14689000D01*
X12989285Y-14674714D01*
X13032143Y-14674714D01*
X13060714Y-14689000D01*
X13075000Y-14703286D01*
X13089285Y-14731857D01*
X13089285Y-14817571D01*
X13075000Y-14846143D01*
X13060714Y-14860429D01*
X13032143Y-14874714D01*
X12989285Y-14874714D01*
X13260714Y-14874714D02*
X13232143Y-14860429D01*
X13217857Y-14831857D01*
X13217857Y-14574714D01*
X13489286Y-14860429D02*
X13460714Y-14874714D01*
X13403571Y-14874714D01*
X13375000Y-14860429D01*
X13360714Y-14831857D01*
X13360714Y-14717571D01*
X13375000Y-14689000D01*
X13403571Y-14674714D01*
X13460714Y-14674714D01*
X13489286Y-14689000D01*
X13503571Y-14717571D01*
X13503571Y-14746143D01*
X13360714Y-14774714D01*
X13617857Y-14860429D02*
X13646428Y-14874714D01*
X13703571Y-14874714D01*
X13732143Y-14860429D01*
X13746428Y-14831857D01*
X13746428Y-14817571D01*
X13732143Y-14789000D01*
X13703571Y-14774714D01*
X13660714Y-14774714D01*
X13632143Y-14760429D01*
X13617857Y-14731857D01*
X13617857Y-14717571D01*
X13632143Y-14689000D01*
X13660714Y-14674714D01*
X13703571Y-14674714D01*
X13732143Y-14689000D01*
X13846428Y-14989000D02*
X13860714Y-14974714D01*
X13889286Y-14931857D01*
X13903571Y-14903286D01*
X13917857Y-14860429D01*
X13932143Y-14789000D01*
X13932143Y-14731857D01*
X13917857Y-14660429D01*
X13903571Y-14617571D01*
X13889286Y-14589000D01*
X13860714Y-14546143D01*
X13846428Y-14531857D01*
X7328138Y-15248138D02*
X7328138Y-15021862D01*
X7101862Y-15021862D01*
X7101862Y-15248138D01*
X7328138Y-15248138D01*
X7617857Y-14970714D02*
X7803571Y-14970714D01*
X7703571Y-15085000D01*
X7746428Y-15085000D01*
X7775000Y-15099286D01*
X7789286Y-15113571D01*
X7803571Y-15142143D01*
X7803571Y-15213571D01*
X7789286Y-15242143D01*
X7775000Y-15256429D01*
X7746428Y-15270714D01*
X7660714Y-15270714D01*
X7632143Y-15256429D01*
X7617857Y-15242143D01*
X7932143Y-15242143D02*
X7946428Y-15256429D01*
X7932143Y-15270714D01*
X7917857Y-15256429D01*
X7932143Y-15242143D01*
X7932143Y-15270714D01*
X8060714Y-14999286D02*
X8075000Y-14985000D01*
X8103571Y-14970714D01*
X8175000Y-14970714D01*
X8203571Y-14985000D01*
X8217857Y-14999286D01*
X8232143Y-15027857D01*
X8232143Y-15056429D01*
X8217857Y-15099286D01*
X8046428Y-15270714D01*
X8232143Y-15270714D01*
X8417857Y-14970714D02*
X8446429Y-14970714D01*
X8475000Y-14985000D01*
X8489286Y-14999286D01*
X8503571Y-15027857D01*
X8517857Y-15085000D01*
X8517857Y-15156429D01*
X8503571Y-15213571D01*
X8489286Y-15242143D01*
X8475000Y-15256429D01*
X8446429Y-15270714D01*
X8417857Y-15270714D01*
X8389286Y-15256429D01*
X8375000Y-15242143D01*
X8360714Y-15213571D01*
X8346428Y-15156429D01*
X8346428Y-15085000D01*
X8360714Y-15027857D01*
X8375000Y-14999286D01*
X8389286Y-14985000D01*
X8417857Y-14970714D01*
X8646429Y-15270714D02*
X8646429Y-15070714D01*
X8646429Y-15099286D02*
X8660714Y-15085000D01*
X8689286Y-15070714D01*
X8732143Y-15070714D01*
X8760714Y-15085000D01*
X8775000Y-15113571D01*
X8775000Y-15270714D01*
X8775000Y-15113571D02*
X8789286Y-15085000D01*
X8817857Y-15070714D01*
X8860714Y-15070714D01*
X8889286Y-15085000D01*
X8903571Y-15113571D01*
X8903571Y-15270714D01*
X9046429Y-15270714D02*
X9046429Y-15070714D01*
X9046429Y-15099286D02*
X9060714Y-15085000D01*
X9089286Y-15070714D01*
X9132143Y-15070714D01*
X9160714Y-15085000D01*
X9175000Y-15113571D01*
X9175000Y-15270714D01*
X9175000Y-15113571D02*
X9189286Y-15085000D01*
X9217857Y-15070714D01*
X9260714Y-15070714D01*
X9289286Y-15085000D01*
X9303571Y-15113571D01*
X9303571Y-15270714D01*
X9889286Y-14956429D02*
X9632143Y-15342143D01*
X10275000Y-14970714D02*
X10303571Y-14970714D01*
X10332143Y-14985000D01*
X10346428Y-14999286D01*
X10360714Y-15027857D01*
X10375000Y-15085000D01*
X10375000Y-15156429D01*
X10360714Y-15213571D01*
X10346428Y-15242143D01*
X10332143Y-15256429D01*
X10303571Y-15270714D01*
X10275000Y-15270714D01*
X10246428Y-15256429D01*
X10232143Y-15242143D01*
X10217857Y-15213571D01*
X10203571Y-15156429D01*
X10203571Y-15085000D01*
X10217857Y-15027857D01*
X10232143Y-14999286D01*
X10246428Y-14985000D01*
X10275000Y-14970714D01*
X10503571Y-15242143D02*
X10517857Y-15256429D01*
X10503571Y-15270714D01*
X10489286Y-15256429D01*
X10503571Y-15242143D01*
X10503571Y-15270714D01*
X10803571Y-15270714D02*
X10632143Y-15270714D01*
X10717857Y-15270714D02*
X10717857Y-14970714D01*
X10689286Y-15013571D01*
X10660714Y-15042143D01*
X10632143Y-15056429D01*
X10917857Y-14999286D02*
X10932143Y-14985000D01*
X10960714Y-14970714D01*
X11032143Y-14970714D01*
X11060714Y-14985000D01*
X11075000Y-14999286D01*
X11089286Y-15027857D01*
X11089286Y-15056429D01*
X11075000Y-15099286D01*
X10903571Y-15270714D01*
X11089286Y-15270714D01*
X11346428Y-14970714D02*
X11289285Y-14970714D01*
X11260714Y-14985000D01*
X11246428Y-14999286D01*
X11217857Y-15042143D01*
X11203571Y-15099286D01*
X11203571Y-15213571D01*
X11217857Y-15242143D01*
X11232143Y-15256429D01*
X11260714Y-15270714D01*
X11317857Y-15270714D01*
X11346428Y-15256429D01*
X11360714Y-15242143D01*
X11375000Y-15213571D01*
X11375000Y-15142143D01*
X11360714Y-15113571D01*
X11346428Y-15099286D01*
X11317857Y-15085000D01*
X11260714Y-15085000D01*
X11232143Y-15099286D01*
X11217857Y-15113571D01*
X11203571Y-15142143D01*
X11489286Y-14970714D02*
X11489286Y-15027857D01*
X11603571Y-14970714D02*
X11603571Y-15027857D01*
X12046428Y-15385000D02*
X12032143Y-15370714D01*
X12003571Y-15327857D01*
X11989285Y-15299286D01*
X11975000Y-15256429D01*
X11960714Y-15185000D01*
X11960714Y-15127857D01*
X11975000Y-15056429D01*
X11989285Y-15013571D01*
X12003571Y-14985000D01*
X12032143Y-14942143D01*
X12046428Y-14927857D01*
X12289285Y-15070714D02*
X12289285Y-15270714D01*
X12217857Y-14956429D02*
X12146428Y-15170714D01*
X12332143Y-15170714D01*
X12675000Y-15270714D02*
X12675000Y-14970714D01*
X12803571Y-15270714D02*
X12803571Y-15113571D01*
X12789285Y-15085000D01*
X12760714Y-15070714D01*
X12717857Y-15070714D01*
X12689285Y-15085000D01*
X12675000Y-15099286D01*
X12989285Y-15270714D02*
X12960714Y-15256429D01*
X12946428Y-15242143D01*
X12932143Y-15213571D01*
X12932143Y-15127857D01*
X12946428Y-15099286D01*
X12960714Y-15085000D01*
X12989285Y-15070714D01*
X13032143Y-15070714D01*
X13060714Y-15085000D01*
X13075000Y-15099286D01*
X13089285Y-15127857D01*
X13089285Y-15213571D01*
X13075000Y-15242143D01*
X13060714Y-15256429D01*
X13032143Y-15270714D01*
X12989285Y-15270714D01*
X13260714Y-15270714D02*
X13232143Y-15256429D01*
X13217857Y-15227857D01*
X13217857Y-14970714D01*
X13489286Y-15256429D02*
X13460714Y-15270714D01*
X13403571Y-15270714D01*
X13375000Y-15256429D01*
X13360714Y-15227857D01*
X13360714Y-15113571D01*
X13375000Y-15085000D01*
X13403571Y-15070714D01*
X13460714Y-15070714D01*
X13489286Y-15085000D01*
X13503571Y-15113571D01*
X13503571Y-15142143D01*
X13360714Y-15170714D01*
X13617857Y-15256429D02*
X13646428Y-15270714D01*
X13703571Y-15270714D01*
X13732143Y-15256429D01*
X13746428Y-15227857D01*
X13746428Y-15213571D01*
X13732143Y-15185000D01*
X13703571Y-15170714D01*
X13660714Y-15170714D01*
X13632143Y-15156429D01*
X13617857Y-15127857D01*
X13617857Y-15113571D01*
X13632143Y-15085000D01*
X13660714Y-15070714D01*
X13703571Y-15070714D01*
X13732143Y-15085000D01*
X13846428Y-15385000D02*
X13860714Y-15370714D01*
X13889286Y-15327857D01*
X13903571Y-15299286D01*
X13917857Y-15256429D01*
X13932143Y-15185000D01*
X13932143Y-15127857D01*
X13917857Y-15056429D01*
X13903571Y-15013571D01*
X13889286Y-14985000D01*
X13860714Y-14942143D01*
X13846428Y-14927857D01*
M02*
