M48
;DRILL file {KiCad 4.0.1-stable} date 01/02/17 16:37:33
;FORMAT={-:-/ absolute / metric / decimal}
FMAT,2
METRIC,TZ
T1C0.700
T2C1.000
T3C1.100
T4C3.200
%
G90
G05
M71
T1
X82.55Y-74.75
X82.55Y-84.91
X86.36Y-112.215
X86.36Y-122.375
X87.63Y-74.75
X87.63Y-84.91
X88.9Y-112.215
X88.9Y-122.375
X92.71Y-93.8
X92.71Y-103.96
X103.505Y-63.32
X106.045Y-63.32
X106.045Y-77.925
X108.585Y-63.32
X108.585Y-80.592
X111.125Y-77.925
X126.365Y-58.24
X126.365Y-65.86
X128.905Y-58.24
X128.905Y-65.86
X131.445Y-58.24
X131.445Y-65.86
X133.985Y-58.24
X133.985Y-65.86
X136.525Y-58.24
X136.525Y-65.86
X139.065Y-58.24
X139.065Y-65.86
X141.605Y-58.24
X141.605Y-65.86
X151.765Y-56.97
X151.765Y-61.97
T2
X92.71Y-112.215
X92.71Y-114.755
X92.71Y-117.295
X92.71Y-119.835
X92.71Y-122.375
X106.045Y-69.67
X108.585Y-69.67
X111.125Y-69.67
X113.665Y-69.67
X116.205Y-69.67
X118.745Y-69.67
X121.285Y-69.67
X123.825Y-69.67
X126.365Y-69.67
X128.905Y-69.67
X131.445Y-69.67
X133.985Y-69.67
X136.525Y-69.67
X139.065Y-69.67
X141.605Y-69.67
X144.145Y-69.67
X200.025Y-89.99
X200.025Y-92.53
X200.025Y-95.07
X200.025Y-97.61
X200.025Y-100.15
X200.025Y-102.69
X200.025Y-112.215
X200.025Y-114.755
X200.66Y-60.145
X200.66Y-62.685
T3
X82.55Y-88.72
X82.55Y-103.96
X85.09Y-88.72
X87.63Y-88.72
X87.63Y-103.96
T4
X100.545Y-124.67
X100.546Y-69.67
X193.545Y-69.67
X193.545Y-124.67
T0
M30
