%FSLAX45Y45*%
G04 Gerber Fmt 4.5, Leading zero omitted, Abs format (unit mm)*
G04 Created by KiCad (PCBNEW 4.0.1-stable) date 12/02/16 17:09:35*
%MOMM*%
G01*
G04 APERTURE LIST*
%ADD10C,0.127000*%
%ADD11C,0.150000*%
%ADD12C,0.200000*%
%ADD13C,0.300000*%
G04 APERTURE END LIST*
D10*
D11*
X20701000Y-9652000D02*
X12700000Y-9652000D01*
X12700000Y-16002000D02*
X20701000Y-16002000D01*
X12700000Y-16002000D02*
X12700000Y-9652000D01*
X20701000Y-9652000D02*
X20701000Y-16002000D01*
D12*
X13300000Y-11471200D02*
X13370000Y-11541200D01*
X13370000Y-11471200D02*
X13300000Y-11541200D01*
X13800000Y-11471200D02*
X13870000Y-11541200D01*
X13870000Y-11471200D02*
X13800000Y-11541200D01*
X13808000Y-12220500D02*
X13878000Y-12290500D01*
X13878000Y-12220500D02*
X13808000Y-12290500D01*
X13808000Y-13236500D02*
X13878000Y-13306500D01*
X13878000Y-13236500D02*
X13808000Y-13306500D01*
X14125500Y-11966500D02*
X14195500Y-12036500D01*
X14195500Y-11966500D02*
X14125500Y-12036500D01*
X14125500Y-12982500D02*
X14195500Y-13052500D01*
X14195500Y-12982500D02*
X14125500Y-13052500D01*
X14252500Y-11077500D02*
X14322500Y-11147500D01*
X14322500Y-11077500D02*
X14252500Y-11147500D01*
X14417600Y-12728500D02*
X14487600Y-12798500D01*
X14487600Y-12728500D02*
X14417600Y-12798500D01*
X14417600Y-12982500D02*
X14487600Y-13052500D01*
X14487600Y-12982500D02*
X14417600Y-13052500D01*
X14417600Y-13236500D02*
X14487600Y-13306500D01*
X14487600Y-13236500D02*
X14417600Y-13306500D01*
X14417600Y-13490500D02*
X14487600Y-13560500D01*
X14487600Y-13490500D02*
X14417600Y-13560500D01*
X14531900Y-12411000D02*
X14601900Y-12481000D01*
X14601900Y-12411000D02*
X14531900Y-12481000D01*
X14705000Y-14252500D02*
X14775000Y-14322500D01*
X14775000Y-14252500D02*
X14705000Y-14322500D01*
X15179600Y-12728500D02*
X15249600Y-12798500D01*
X15249600Y-12728500D02*
X15179600Y-12798500D01*
X15179600Y-12982500D02*
X15249600Y-13052500D01*
X15249600Y-12982500D02*
X15179600Y-13052500D01*
X15179600Y-13236500D02*
X15249600Y-13306500D01*
X15249600Y-13236500D02*
X15179600Y-13306500D01*
X15179600Y-13490500D02*
X15249600Y-13560500D01*
X15249600Y-13490500D02*
X15179600Y-13560500D01*
X15205000Y-14252500D02*
X15275000Y-14322500D01*
X15275000Y-14252500D02*
X15205000Y-14322500D01*
X15547900Y-12411000D02*
X15617900Y-12481000D01*
X15617900Y-12411000D02*
X15547900Y-12481000D01*
X15547900Y-12728500D02*
X15617900Y-12798500D01*
X15617900Y-12728500D02*
X15547900Y-12798500D01*
X15547900Y-12982500D02*
X15617900Y-13052500D01*
X15617900Y-12982500D02*
X15547900Y-13052500D01*
X15547900Y-13236500D02*
X15617900Y-13306500D01*
X15617900Y-13236500D02*
X15547900Y-13306500D01*
X15547900Y-13490500D02*
X15617900Y-13560500D01*
X15617900Y-13490500D02*
X15547900Y-13560500D01*
X16309900Y-12728500D02*
X16379900Y-12798500D01*
X16379900Y-12728500D02*
X16309900Y-12798500D01*
X16309900Y-12982500D02*
X16379900Y-13052500D01*
X16379900Y-12982500D02*
X16309900Y-13052500D01*
X16309900Y-13236500D02*
X16379900Y-13306500D01*
X16379900Y-13236500D02*
X16309900Y-13306500D01*
X16309900Y-13490500D02*
X16379900Y-13560500D01*
X16379900Y-13490500D02*
X16309900Y-13560500D01*
X16602000Y-11979200D02*
X16672000Y-12049200D01*
X16672000Y-11979200D02*
X16602000Y-12049200D01*
X16602000Y-12995200D02*
X16672000Y-13065200D01*
X16672000Y-12995200D02*
X16602000Y-13065200D01*
X16602000Y-13249200D02*
X16672000Y-13319200D01*
X16672000Y-13249200D02*
X16602000Y-13319200D01*
X16602000Y-14265200D02*
X16672000Y-14335200D01*
X16672000Y-14265200D02*
X16602000Y-14335200D01*
X16856000Y-12728500D02*
X16926000Y-12798500D01*
X16926000Y-12728500D02*
X16856000Y-12798500D01*
X16856000Y-12982500D02*
X16926000Y-13052500D01*
X16926000Y-12982500D02*
X16856000Y-13052500D01*
X16856000Y-13236500D02*
X16926000Y-13306500D01*
X16926000Y-13236500D02*
X16856000Y-13306500D01*
X16856000Y-13490500D02*
X16926000Y-13560500D01*
X16926000Y-13490500D02*
X16856000Y-13560500D01*
X17554500Y-11077500D02*
X17624500Y-11147500D01*
X17624500Y-11077500D02*
X17554500Y-11147500D01*
X17618000Y-12728500D02*
X17688000Y-12798500D01*
X17688000Y-12728500D02*
X17618000Y-12798500D01*
X17618000Y-12982500D02*
X17688000Y-13052500D01*
X17688000Y-12982500D02*
X17618000Y-13052500D01*
X17618000Y-13236500D02*
X17688000Y-13306500D01*
X17688000Y-13236500D02*
X17618000Y-13306500D01*
X17618000Y-13490500D02*
X17688000Y-13560500D01*
X17688000Y-13490500D02*
X17618000Y-13560500D01*
X17999000Y-12538000D02*
X18069000Y-12608000D01*
X18069000Y-12538000D02*
X17999000Y-12608000D01*
X17999000Y-13554000D02*
X18069000Y-13624000D01*
X18069000Y-13554000D02*
X17999000Y-13624000D01*
X18379746Y-12982448D02*
X18449746Y-13052448D01*
X18449746Y-12982448D02*
X18379746Y-13052448D01*
X18379746Y-14252448D02*
X18449746Y-14322448D01*
X18449746Y-14252448D02*
X18379746Y-14322448D01*
X18380000Y-11966500D02*
X18450000Y-12036500D01*
X18450000Y-11966500D02*
X18380000Y-12036500D01*
X18380000Y-13236500D02*
X18450000Y-13306500D01*
X18450000Y-13236500D02*
X18380000Y-13306500D01*
X18079000Y-11620500D02*
G75*
G03X18079000Y-11620500I-45000J0D01*
G01*
X18079000Y-14795500D02*
G75*
G03X18079000Y-14795500I-45000J0D01*
G01*
X18333000Y-10922000D02*
G75*
G03X18333000Y-10922000I-45000J0D01*
G01*
X18333000Y-11620500D02*
G75*
G03X18333000Y-11620500I-45000J0D01*
G01*
X18333000Y-14795500D02*
G75*
G03X18333000Y-14795500I-45000J0D01*
G01*
X18333000Y-15494000D02*
G75*
G03X18333000Y-15494000I-45000J0D01*
G01*
X18587000Y-10922000D02*
G75*
G03X18587000Y-10922000I-45000J0D01*
G01*
X18587000Y-11620500D02*
G75*
G03X18587000Y-11620500I-45000J0D01*
G01*
X18587000Y-14795500D02*
G75*
G03X18587000Y-14795500I-45000J0D01*
G01*
X18587000Y-15494000D02*
G75*
G03X18587000Y-15494000I-45000J0D01*
G01*
X18841000Y-10922000D02*
G75*
G03X18841000Y-10922000I-45000J0D01*
G01*
X18841000Y-15494000D02*
G75*
G03X18841000Y-15494000I-45000J0D01*
G01*
X19539500Y-10731500D02*
G75*
G03X19539500Y-10731500I-45000J0D01*
G01*
X19539500Y-13017500D02*
G75*
G03X19539500Y-13017500I-45000J0D01*
G01*
X19539500Y-13335000D02*
G75*
G03X19539500Y-13335000I-45000J0D01*
G01*
X19539500Y-15621000D02*
G75*
G03X19539500Y-15621000I-45000J0D01*
G01*
X13335000Y-12459500D02*
X13335000Y-12559500D01*
X13285000Y-12509500D02*
X13385000Y-12509500D01*
X13335000Y-12713500D02*
X13335000Y-12813500D01*
X13285000Y-12763500D02*
X13385000Y-12763500D01*
X13335000Y-12967500D02*
X13335000Y-13067500D01*
X13285000Y-13017500D02*
X13385000Y-13017500D01*
X13906500Y-10237000D02*
X13906500Y-10337000D01*
X13856500Y-10287000D02*
X13956500Y-10287000D01*
X14160500Y-10237000D02*
X14160500Y-10337000D01*
X14110500Y-10287000D02*
X14210500Y-10287000D01*
X17411700Y-13920000D02*
X17411700Y-14020000D01*
X17361700Y-13970000D02*
X17461700Y-13970000D01*
X17411700Y-14174000D02*
X17411700Y-14274000D01*
X17361700Y-14224000D02*
X17461700Y-14224000D01*
X17411700Y-14428000D02*
X17411700Y-14528000D01*
X17361700Y-14478000D02*
X17461700Y-14478000D01*
X20129500Y-13285000D02*
X20129500Y-13385000D01*
X20079500Y-13335000D02*
X20179500Y-13335000D01*
X20129500Y-13539000D02*
X20129500Y-13639000D01*
X20079500Y-13589000D02*
X20179500Y-13589000D01*
X13194138Y-10146138D02*
X13194138Y-9919862D01*
X12967862Y-9919862D01*
X12967862Y-10146138D01*
X13194138Y-10146138D01*
X13194138Y-15734138D02*
X13194138Y-15507862D01*
X12967862Y-15507862D01*
X12967862Y-15734138D01*
X13194138Y-15734138D01*
X20433138Y-10146138D02*
X20433138Y-9919862D01*
X20206862Y-9919862D01*
X20206862Y-10146138D01*
X20433138Y-10146138D01*
X20433138Y-15734138D02*
X20433138Y-15507862D01*
X20206862Y-15507862D01*
X20206862Y-15734138D01*
X20433138Y-15734138D01*
D13*
X12963928Y-16475214D02*
X12963928Y-16175214D01*
X13035357Y-16175214D01*
X13078214Y-16189500D01*
X13106786Y-16218071D01*
X13121071Y-16246643D01*
X13135357Y-16303786D01*
X13135357Y-16346643D01*
X13121071Y-16403786D01*
X13106786Y-16432357D01*
X13078214Y-16460929D01*
X13035357Y-16475214D01*
X12963928Y-16475214D01*
X13263928Y-16475214D02*
X13263928Y-16275214D01*
X13263928Y-16332357D02*
X13278214Y-16303786D01*
X13292500Y-16289500D01*
X13321071Y-16275214D01*
X13349643Y-16275214D01*
X13449643Y-16475214D02*
X13449643Y-16275214D01*
X13449643Y-16175214D02*
X13435357Y-16189500D01*
X13449643Y-16203786D01*
X13463928Y-16189500D01*
X13449643Y-16175214D01*
X13449643Y-16203786D01*
X13635357Y-16475214D02*
X13606786Y-16460929D01*
X13592500Y-16432357D01*
X13592500Y-16175214D01*
X13792500Y-16475214D02*
X13763928Y-16460929D01*
X13749643Y-16432357D01*
X13749643Y-16175214D01*
X14135357Y-16475214D02*
X14135357Y-16175214D01*
X14235357Y-16389500D01*
X14335357Y-16175214D01*
X14335357Y-16475214D01*
X14606786Y-16475214D02*
X14606786Y-16318071D01*
X14592500Y-16289500D01*
X14563928Y-16275214D01*
X14506786Y-16275214D01*
X14478214Y-16289500D01*
X14606786Y-16460929D02*
X14578214Y-16475214D01*
X14506786Y-16475214D01*
X14478214Y-16460929D01*
X14463928Y-16432357D01*
X14463928Y-16403786D01*
X14478214Y-16375214D01*
X14506786Y-16360929D01*
X14578214Y-16360929D01*
X14606786Y-16346643D01*
X14749643Y-16275214D02*
X14749643Y-16575214D01*
X14749643Y-16289500D02*
X14778214Y-16275214D01*
X14835357Y-16275214D01*
X14863928Y-16289500D01*
X14878214Y-16303786D01*
X14892500Y-16332357D01*
X14892500Y-16418071D01*
X14878214Y-16446643D01*
X14863928Y-16460929D01*
X14835357Y-16475214D01*
X14778214Y-16475214D01*
X14749643Y-16460929D01*
X15021071Y-16446643D02*
X15035357Y-16460929D01*
X15021071Y-16475214D01*
X15006786Y-16460929D01*
X15021071Y-16446643D01*
X15021071Y-16475214D01*
X15021071Y-16289500D02*
X15035357Y-16303786D01*
X15021071Y-16318071D01*
X15006786Y-16303786D01*
X15021071Y-16289500D01*
X15021071Y-16318071D01*
X12622500Y-16934500D02*
X12692500Y-17004500D01*
X12692500Y-16934500D02*
X12622500Y-17004500D01*
X13021071Y-16805214D02*
X13049643Y-16805214D01*
X13078214Y-16819500D01*
X13092500Y-16833786D01*
X13106786Y-16862357D01*
X13121071Y-16919500D01*
X13121071Y-16990929D01*
X13106786Y-17048072D01*
X13092500Y-17076643D01*
X13078214Y-17090929D01*
X13049643Y-17105214D01*
X13021071Y-17105214D01*
X12992500Y-17090929D01*
X12978214Y-17076643D01*
X12963928Y-17048072D01*
X12949643Y-16990929D01*
X12949643Y-16919500D01*
X12963928Y-16862357D01*
X12978214Y-16833786D01*
X12992500Y-16819500D01*
X13021071Y-16805214D01*
X13249643Y-17076643D02*
X13263928Y-17090929D01*
X13249643Y-17105214D01*
X13235357Y-17090929D01*
X13249643Y-17076643D01*
X13249643Y-17105214D01*
X13363928Y-16805214D02*
X13563928Y-16805214D01*
X13435357Y-17105214D01*
X13735357Y-16805214D02*
X13763928Y-16805214D01*
X13792500Y-16819500D01*
X13806786Y-16833786D01*
X13821071Y-16862357D01*
X13835357Y-16919500D01*
X13835357Y-16990929D01*
X13821071Y-17048072D01*
X13806786Y-17076643D01*
X13792500Y-17090929D01*
X13763928Y-17105214D01*
X13735357Y-17105214D01*
X13706786Y-17090929D01*
X13692500Y-17076643D01*
X13678214Y-17048072D01*
X13663928Y-16990929D01*
X13663928Y-16919500D01*
X13678214Y-16862357D01*
X13692500Y-16833786D01*
X13706786Y-16819500D01*
X13735357Y-16805214D01*
X13963928Y-17105214D02*
X13963928Y-16905214D01*
X13963928Y-16933786D02*
X13978214Y-16919500D01*
X14006786Y-16905214D01*
X14049643Y-16905214D01*
X14078214Y-16919500D01*
X14092500Y-16948072D01*
X14092500Y-17105214D01*
X14092500Y-16948072D02*
X14106786Y-16919500D01*
X14135357Y-16905214D01*
X14178214Y-16905214D01*
X14206786Y-16919500D01*
X14221071Y-16948072D01*
X14221071Y-17105214D01*
X14363928Y-17105214D02*
X14363928Y-16905214D01*
X14363928Y-16933786D02*
X14378214Y-16919500D01*
X14406786Y-16905214D01*
X14449643Y-16905214D01*
X14478214Y-16919500D01*
X14492500Y-16948072D01*
X14492500Y-17105214D01*
X14492500Y-16948072D02*
X14506786Y-16919500D01*
X14535357Y-16905214D01*
X14578214Y-16905214D01*
X14606786Y-16919500D01*
X14621071Y-16948072D01*
X14621071Y-17105214D01*
X15206786Y-16790929D02*
X14949643Y-17176643D01*
X15592500Y-16805214D02*
X15621071Y-16805214D01*
X15649643Y-16819500D01*
X15663928Y-16833786D01*
X15678214Y-16862357D01*
X15692500Y-16919500D01*
X15692500Y-16990929D01*
X15678214Y-17048072D01*
X15663928Y-17076643D01*
X15649643Y-17090929D01*
X15621071Y-17105214D01*
X15592500Y-17105214D01*
X15563928Y-17090929D01*
X15549643Y-17076643D01*
X15535357Y-17048072D01*
X15521071Y-16990929D01*
X15521071Y-16919500D01*
X15535357Y-16862357D01*
X15549643Y-16833786D01*
X15563928Y-16819500D01*
X15592500Y-16805214D01*
X15821071Y-17076643D02*
X15835357Y-17090929D01*
X15821071Y-17105214D01*
X15806786Y-17090929D01*
X15821071Y-17076643D01*
X15821071Y-17105214D01*
X16021071Y-16805214D02*
X16049643Y-16805214D01*
X16078214Y-16819500D01*
X16092500Y-16833786D01*
X16106785Y-16862357D01*
X16121071Y-16919500D01*
X16121071Y-16990929D01*
X16106785Y-17048072D01*
X16092500Y-17076643D01*
X16078214Y-17090929D01*
X16049643Y-17105214D01*
X16021071Y-17105214D01*
X15992500Y-17090929D01*
X15978214Y-17076643D01*
X15963928Y-17048072D01*
X15949643Y-16990929D01*
X15949643Y-16919500D01*
X15963928Y-16862357D01*
X15978214Y-16833786D01*
X15992500Y-16819500D01*
X16021071Y-16805214D01*
X16235357Y-16833786D02*
X16249643Y-16819500D01*
X16278214Y-16805214D01*
X16349643Y-16805214D01*
X16378214Y-16819500D01*
X16392500Y-16833786D01*
X16406785Y-16862357D01*
X16406785Y-16890929D01*
X16392500Y-16933786D01*
X16221071Y-17105214D01*
X16406785Y-17105214D01*
X16578214Y-16933786D02*
X16549643Y-16919500D01*
X16535357Y-16905214D01*
X16521071Y-16876643D01*
X16521071Y-16862357D01*
X16535357Y-16833786D01*
X16549643Y-16819500D01*
X16578214Y-16805214D01*
X16635357Y-16805214D01*
X16663928Y-16819500D01*
X16678214Y-16833786D01*
X16692500Y-16862357D01*
X16692500Y-16876643D01*
X16678214Y-16905214D01*
X16663928Y-16919500D01*
X16635357Y-16933786D01*
X16578214Y-16933786D01*
X16549643Y-16948072D01*
X16535357Y-16962357D01*
X16521071Y-16990929D01*
X16521071Y-17048072D01*
X16535357Y-17076643D01*
X16549643Y-17090929D01*
X16578214Y-17105214D01*
X16635357Y-17105214D01*
X16663928Y-17090929D01*
X16678214Y-17076643D01*
X16692500Y-17048072D01*
X16692500Y-16990929D01*
X16678214Y-16962357D01*
X16663928Y-16948072D01*
X16635357Y-16933786D01*
X16806786Y-16805214D02*
X16806786Y-16862357D01*
X16921071Y-16805214D02*
X16921071Y-16862357D01*
X17363928Y-17219500D02*
X17349643Y-17205214D01*
X17321071Y-17162357D01*
X17306786Y-17133786D01*
X17292500Y-17090929D01*
X17278214Y-17019500D01*
X17278214Y-16962357D01*
X17292500Y-16890929D01*
X17306786Y-16848072D01*
X17321071Y-16819500D01*
X17349643Y-16776643D01*
X17363928Y-16762357D01*
X17606786Y-16905214D02*
X17606786Y-17105214D01*
X17535357Y-16790929D02*
X17463928Y-17005214D01*
X17649643Y-17005214D01*
X17892500Y-16805214D02*
X17835357Y-16805214D01*
X17806786Y-16819500D01*
X17792500Y-16833786D01*
X17763928Y-16876643D01*
X17749643Y-16933786D01*
X17749643Y-17048072D01*
X17763928Y-17076643D01*
X17778214Y-17090929D01*
X17806786Y-17105214D01*
X17863928Y-17105214D01*
X17892500Y-17090929D01*
X17906786Y-17076643D01*
X17921071Y-17048072D01*
X17921071Y-16976643D01*
X17906786Y-16948072D01*
X17892500Y-16933786D01*
X17863928Y-16919500D01*
X17806786Y-16919500D01*
X17778214Y-16933786D01*
X17763928Y-16948072D01*
X17749643Y-16976643D01*
X18278214Y-17105214D02*
X18278214Y-16805214D01*
X18406786Y-17105214D02*
X18406786Y-16948072D01*
X18392500Y-16919500D01*
X18363928Y-16905214D01*
X18321071Y-16905214D01*
X18292500Y-16919500D01*
X18278214Y-16933786D01*
X18592500Y-17105214D02*
X18563928Y-17090929D01*
X18549643Y-17076643D01*
X18535357Y-17048072D01*
X18535357Y-16962357D01*
X18549643Y-16933786D01*
X18563928Y-16919500D01*
X18592500Y-16905214D01*
X18635357Y-16905214D01*
X18663928Y-16919500D01*
X18678214Y-16933786D01*
X18692500Y-16962357D01*
X18692500Y-17048072D01*
X18678214Y-17076643D01*
X18663928Y-17090929D01*
X18635357Y-17105214D01*
X18592500Y-17105214D01*
X18863928Y-17105214D02*
X18835357Y-17090929D01*
X18821071Y-17062357D01*
X18821071Y-16805214D01*
X19092500Y-17090929D02*
X19063929Y-17105214D01*
X19006786Y-17105214D01*
X18978214Y-17090929D01*
X18963929Y-17062357D01*
X18963929Y-16948072D01*
X18978214Y-16919500D01*
X19006786Y-16905214D01*
X19063929Y-16905214D01*
X19092500Y-16919500D01*
X19106786Y-16948072D01*
X19106786Y-16976643D01*
X18963929Y-17005214D01*
X19221071Y-17090929D02*
X19249643Y-17105214D01*
X19306786Y-17105214D01*
X19335357Y-17090929D01*
X19349643Y-17062357D01*
X19349643Y-17048072D01*
X19335357Y-17019500D01*
X19306786Y-17005214D01*
X19263929Y-17005214D01*
X19235357Y-16990929D01*
X19221071Y-16962357D01*
X19221071Y-16948072D01*
X19235357Y-16919500D01*
X19263929Y-16905214D01*
X19306786Y-16905214D01*
X19335357Y-16919500D01*
X19449643Y-17219500D02*
X19463929Y-17205214D01*
X19492500Y-17162357D01*
X19506786Y-17133786D01*
X19521071Y-17090929D01*
X19535357Y-17019500D01*
X19535357Y-16962357D01*
X19521071Y-16890929D01*
X19506786Y-16848072D01*
X19492500Y-16819500D01*
X19463929Y-16776643D01*
X19449643Y-16762357D01*
X12692500Y-17365500D02*
G75*
G03X12692500Y-17365500I-45000J0D01*
G01*
X13021071Y-17201214D02*
X13049643Y-17201214D01*
X13078214Y-17215500D01*
X13092500Y-17229786D01*
X13106786Y-17258357D01*
X13121071Y-17315500D01*
X13121071Y-17386929D01*
X13106786Y-17444072D01*
X13092500Y-17472643D01*
X13078214Y-17486929D01*
X13049643Y-17501214D01*
X13021071Y-17501214D01*
X12992500Y-17486929D01*
X12978214Y-17472643D01*
X12963928Y-17444072D01*
X12949643Y-17386929D01*
X12949643Y-17315500D01*
X12963928Y-17258357D01*
X12978214Y-17229786D01*
X12992500Y-17215500D01*
X13021071Y-17201214D01*
X13249643Y-17472643D02*
X13263928Y-17486929D01*
X13249643Y-17501214D01*
X13235357Y-17486929D01*
X13249643Y-17472643D01*
X13249643Y-17501214D01*
X13406786Y-17501214D02*
X13463928Y-17501214D01*
X13492500Y-17486929D01*
X13506786Y-17472643D01*
X13535357Y-17429786D01*
X13549643Y-17372643D01*
X13549643Y-17258357D01*
X13535357Y-17229786D01*
X13521071Y-17215500D01*
X13492500Y-17201214D01*
X13435357Y-17201214D01*
X13406786Y-17215500D01*
X13392500Y-17229786D01*
X13378214Y-17258357D01*
X13378214Y-17329786D01*
X13392500Y-17358357D01*
X13406786Y-17372643D01*
X13435357Y-17386929D01*
X13492500Y-17386929D01*
X13521071Y-17372643D01*
X13535357Y-17358357D01*
X13549643Y-17329786D01*
X13735357Y-17201214D02*
X13763928Y-17201214D01*
X13792500Y-17215500D01*
X13806786Y-17229786D01*
X13821071Y-17258357D01*
X13835357Y-17315500D01*
X13835357Y-17386929D01*
X13821071Y-17444072D01*
X13806786Y-17472643D01*
X13792500Y-17486929D01*
X13763928Y-17501214D01*
X13735357Y-17501214D01*
X13706786Y-17486929D01*
X13692500Y-17472643D01*
X13678214Y-17444072D01*
X13663928Y-17386929D01*
X13663928Y-17315500D01*
X13678214Y-17258357D01*
X13692500Y-17229786D01*
X13706786Y-17215500D01*
X13735357Y-17201214D01*
X13963928Y-17501214D02*
X13963928Y-17301214D01*
X13963928Y-17329786D02*
X13978214Y-17315500D01*
X14006786Y-17301214D01*
X14049643Y-17301214D01*
X14078214Y-17315500D01*
X14092500Y-17344072D01*
X14092500Y-17501214D01*
X14092500Y-17344072D02*
X14106786Y-17315500D01*
X14135357Y-17301214D01*
X14178214Y-17301214D01*
X14206786Y-17315500D01*
X14221071Y-17344072D01*
X14221071Y-17501214D01*
X14363928Y-17501214D02*
X14363928Y-17301214D01*
X14363928Y-17329786D02*
X14378214Y-17315500D01*
X14406786Y-17301214D01*
X14449643Y-17301214D01*
X14478214Y-17315500D01*
X14492500Y-17344072D01*
X14492500Y-17501214D01*
X14492500Y-17344072D02*
X14506786Y-17315500D01*
X14535357Y-17301214D01*
X14578214Y-17301214D01*
X14606786Y-17315500D01*
X14621071Y-17344072D01*
X14621071Y-17501214D01*
X15206786Y-17186929D02*
X14949643Y-17572643D01*
X15592500Y-17201214D02*
X15621071Y-17201214D01*
X15649643Y-17215500D01*
X15663928Y-17229786D01*
X15678214Y-17258357D01*
X15692500Y-17315500D01*
X15692500Y-17386929D01*
X15678214Y-17444072D01*
X15663928Y-17472643D01*
X15649643Y-17486929D01*
X15621071Y-17501214D01*
X15592500Y-17501214D01*
X15563928Y-17486929D01*
X15549643Y-17472643D01*
X15535357Y-17444072D01*
X15521071Y-17386929D01*
X15521071Y-17315500D01*
X15535357Y-17258357D01*
X15549643Y-17229786D01*
X15563928Y-17215500D01*
X15592500Y-17201214D01*
X15821071Y-17472643D02*
X15835357Y-17486929D01*
X15821071Y-17501214D01*
X15806786Y-17486929D01*
X15821071Y-17472643D01*
X15821071Y-17501214D01*
X16021071Y-17201214D02*
X16049643Y-17201214D01*
X16078214Y-17215500D01*
X16092500Y-17229786D01*
X16106785Y-17258357D01*
X16121071Y-17315500D01*
X16121071Y-17386929D01*
X16106785Y-17444072D01*
X16092500Y-17472643D01*
X16078214Y-17486929D01*
X16049643Y-17501214D01*
X16021071Y-17501214D01*
X15992500Y-17486929D01*
X15978214Y-17472643D01*
X15963928Y-17444072D01*
X15949643Y-17386929D01*
X15949643Y-17315500D01*
X15963928Y-17258357D01*
X15978214Y-17229786D01*
X15992500Y-17215500D01*
X16021071Y-17201214D01*
X16221071Y-17201214D02*
X16406785Y-17201214D01*
X16306785Y-17315500D01*
X16349643Y-17315500D01*
X16378214Y-17329786D01*
X16392500Y-17344072D01*
X16406785Y-17372643D01*
X16406785Y-17444072D01*
X16392500Y-17472643D01*
X16378214Y-17486929D01*
X16349643Y-17501214D01*
X16263928Y-17501214D01*
X16235357Y-17486929D01*
X16221071Y-17472643D01*
X16678214Y-17201214D02*
X16535357Y-17201214D01*
X16521071Y-17344072D01*
X16535357Y-17329786D01*
X16563928Y-17315500D01*
X16635357Y-17315500D01*
X16663928Y-17329786D01*
X16678214Y-17344072D01*
X16692500Y-17372643D01*
X16692500Y-17444072D01*
X16678214Y-17472643D01*
X16663928Y-17486929D01*
X16635357Y-17501214D01*
X16563928Y-17501214D01*
X16535357Y-17486929D01*
X16521071Y-17472643D01*
X16806786Y-17201214D02*
X16806786Y-17258357D01*
X16921071Y-17201214D02*
X16921071Y-17258357D01*
X17363928Y-17615500D02*
X17349643Y-17601214D01*
X17321071Y-17558357D01*
X17306786Y-17529786D01*
X17292500Y-17486929D01*
X17278214Y-17415500D01*
X17278214Y-17358357D01*
X17292500Y-17286929D01*
X17306786Y-17244072D01*
X17321071Y-17215500D01*
X17349643Y-17172643D01*
X17363928Y-17158357D01*
X17635357Y-17501214D02*
X17463928Y-17501214D01*
X17549643Y-17501214D02*
X17549643Y-17201214D01*
X17521071Y-17244072D01*
X17492500Y-17272643D01*
X17463928Y-17286929D01*
X17892500Y-17201214D02*
X17835357Y-17201214D01*
X17806786Y-17215500D01*
X17792500Y-17229786D01*
X17763928Y-17272643D01*
X17749643Y-17329786D01*
X17749643Y-17444072D01*
X17763928Y-17472643D01*
X17778214Y-17486929D01*
X17806786Y-17501214D01*
X17863928Y-17501214D01*
X17892500Y-17486929D01*
X17906786Y-17472643D01*
X17921071Y-17444072D01*
X17921071Y-17372643D01*
X17906786Y-17344072D01*
X17892500Y-17329786D01*
X17863928Y-17315500D01*
X17806786Y-17315500D01*
X17778214Y-17329786D01*
X17763928Y-17344072D01*
X17749643Y-17372643D01*
X18278214Y-17501214D02*
X18278214Y-17201214D01*
X18406786Y-17501214D02*
X18406786Y-17344072D01*
X18392500Y-17315500D01*
X18363928Y-17301214D01*
X18321071Y-17301214D01*
X18292500Y-17315500D01*
X18278214Y-17329786D01*
X18592500Y-17501214D02*
X18563928Y-17486929D01*
X18549643Y-17472643D01*
X18535357Y-17444072D01*
X18535357Y-17358357D01*
X18549643Y-17329786D01*
X18563928Y-17315500D01*
X18592500Y-17301214D01*
X18635357Y-17301214D01*
X18663928Y-17315500D01*
X18678214Y-17329786D01*
X18692500Y-17358357D01*
X18692500Y-17444072D01*
X18678214Y-17472643D01*
X18663928Y-17486929D01*
X18635357Y-17501214D01*
X18592500Y-17501214D01*
X18863928Y-17501214D02*
X18835357Y-17486929D01*
X18821071Y-17458357D01*
X18821071Y-17201214D01*
X19092500Y-17486929D02*
X19063929Y-17501214D01*
X19006786Y-17501214D01*
X18978214Y-17486929D01*
X18963929Y-17458357D01*
X18963929Y-17344072D01*
X18978214Y-17315500D01*
X19006786Y-17301214D01*
X19063929Y-17301214D01*
X19092500Y-17315500D01*
X19106786Y-17344072D01*
X19106786Y-17372643D01*
X18963929Y-17401214D01*
X19221071Y-17486929D02*
X19249643Y-17501214D01*
X19306786Y-17501214D01*
X19335357Y-17486929D01*
X19349643Y-17458357D01*
X19349643Y-17444072D01*
X19335357Y-17415500D01*
X19306786Y-17401214D01*
X19263929Y-17401214D01*
X19235357Y-17386929D01*
X19221071Y-17358357D01*
X19221071Y-17344072D01*
X19235357Y-17315500D01*
X19263929Y-17301214D01*
X19306786Y-17301214D01*
X19335357Y-17315500D01*
X19449643Y-17615500D02*
X19463929Y-17601214D01*
X19492500Y-17558357D01*
X19506786Y-17529786D01*
X19521071Y-17486929D01*
X19535357Y-17415500D01*
X19535357Y-17358357D01*
X19521071Y-17286929D01*
X19506786Y-17244072D01*
X19492500Y-17215500D01*
X19463929Y-17172643D01*
X19449643Y-17158357D01*
X12642500Y-17711500D02*
X12642500Y-17811500D01*
X12592500Y-17761500D02*
X12692500Y-17761500D01*
X13121071Y-17897214D02*
X12949643Y-17897214D01*
X13035357Y-17897214D02*
X13035357Y-17597214D01*
X13006786Y-17640072D01*
X12978214Y-17668643D01*
X12949643Y-17682929D01*
X13249643Y-17868643D02*
X13263928Y-17882929D01*
X13249643Y-17897214D01*
X13235357Y-17882929D01*
X13249643Y-17868643D01*
X13249643Y-17897214D01*
X13449643Y-17597214D02*
X13478214Y-17597214D01*
X13506786Y-17611500D01*
X13521071Y-17625786D01*
X13535357Y-17654357D01*
X13549643Y-17711500D01*
X13549643Y-17782929D01*
X13535357Y-17840072D01*
X13521071Y-17868643D01*
X13506786Y-17882929D01*
X13478214Y-17897214D01*
X13449643Y-17897214D01*
X13421071Y-17882929D01*
X13406786Y-17868643D01*
X13392500Y-17840072D01*
X13378214Y-17782929D01*
X13378214Y-17711500D01*
X13392500Y-17654357D01*
X13406786Y-17625786D01*
X13421071Y-17611500D01*
X13449643Y-17597214D01*
X13735357Y-17597214D02*
X13763928Y-17597214D01*
X13792500Y-17611500D01*
X13806786Y-17625786D01*
X13821071Y-17654357D01*
X13835357Y-17711500D01*
X13835357Y-17782929D01*
X13821071Y-17840072D01*
X13806786Y-17868643D01*
X13792500Y-17882929D01*
X13763928Y-17897214D01*
X13735357Y-17897214D01*
X13706786Y-17882929D01*
X13692500Y-17868643D01*
X13678214Y-17840072D01*
X13663928Y-17782929D01*
X13663928Y-17711500D01*
X13678214Y-17654357D01*
X13692500Y-17625786D01*
X13706786Y-17611500D01*
X13735357Y-17597214D01*
X13963928Y-17897214D02*
X13963928Y-17697214D01*
X13963928Y-17725786D02*
X13978214Y-17711500D01*
X14006786Y-17697214D01*
X14049643Y-17697214D01*
X14078214Y-17711500D01*
X14092500Y-17740072D01*
X14092500Y-17897214D01*
X14092500Y-17740072D02*
X14106786Y-17711500D01*
X14135357Y-17697214D01*
X14178214Y-17697214D01*
X14206786Y-17711500D01*
X14221071Y-17740072D01*
X14221071Y-17897214D01*
X14363928Y-17897214D02*
X14363928Y-17697214D01*
X14363928Y-17725786D02*
X14378214Y-17711500D01*
X14406786Y-17697214D01*
X14449643Y-17697214D01*
X14478214Y-17711500D01*
X14492500Y-17740072D01*
X14492500Y-17897214D01*
X14492500Y-17740072D02*
X14506786Y-17711500D01*
X14535357Y-17697214D01*
X14578214Y-17697214D01*
X14606786Y-17711500D01*
X14621071Y-17740072D01*
X14621071Y-17897214D01*
X15206786Y-17582929D02*
X14949643Y-17968643D01*
X15592500Y-17597214D02*
X15621071Y-17597214D01*
X15649643Y-17611500D01*
X15663928Y-17625786D01*
X15678214Y-17654357D01*
X15692500Y-17711500D01*
X15692500Y-17782929D01*
X15678214Y-17840072D01*
X15663928Y-17868643D01*
X15649643Y-17882929D01*
X15621071Y-17897214D01*
X15592500Y-17897214D01*
X15563928Y-17882929D01*
X15549643Y-17868643D01*
X15535357Y-17840072D01*
X15521071Y-17782929D01*
X15521071Y-17711500D01*
X15535357Y-17654357D01*
X15549643Y-17625786D01*
X15563928Y-17611500D01*
X15592500Y-17597214D01*
X15821071Y-17868643D02*
X15835357Y-17882929D01*
X15821071Y-17897214D01*
X15806786Y-17882929D01*
X15821071Y-17868643D01*
X15821071Y-17897214D01*
X16021071Y-17597214D02*
X16049643Y-17597214D01*
X16078214Y-17611500D01*
X16092500Y-17625786D01*
X16106785Y-17654357D01*
X16121071Y-17711500D01*
X16121071Y-17782929D01*
X16106785Y-17840072D01*
X16092500Y-17868643D01*
X16078214Y-17882929D01*
X16049643Y-17897214D01*
X16021071Y-17897214D01*
X15992500Y-17882929D01*
X15978214Y-17868643D01*
X15963928Y-17840072D01*
X15949643Y-17782929D01*
X15949643Y-17711500D01*
X15963928Y-17654357D01*
X15978214Y-17625786D01*
X15992500Y-17611500D01*
X16021071Y-17597214D01*
X16221071Y-17597214D02*
X16406785Y-17597214D01*
X16306785Y-17711500D01*
X16349643Y-17711500D01*
X16378214Y-17725786D01*
X16392500Y-17740072D01*
X16406785Y-17768643D01*
X16406785Y-17840072D01*
X16392500Y-17868643D01*
X16378214Y-17882929D01*
X16349643Y-17897214D01*
X16263928Y-17897214D01*
X16235357Y-17882929D01*
X16221071Y-17868643D01*
X16549643Y-17897214D02*
X16606785Y-17897214D01*
X16635357Y-17882929D01*
X16649643Y-17868643D01*
X16678214Y-17825786D01*
X16692500Y-17768643D01*
X16692500Y-17654357D01*
X16678214Y-17625786D01*
X16663928Y-17611500D01*
X16635357Y-17597214D01*
X16578214Y-17597214D01*
X16549643Y-17611500D01*
X16535357Y-17625786D01*
X16521071Y-17654357D01*
X16521071Y-17725786D01*
X16535357Y-17754357D01*
X16549643Y-17768643D01*
X16578214Y-17782929D01*
X16635357Y-17782929D01*
X16663928Y-17768643D01*
X16678214Y-17754357D01*
X16692500Y-17725786D01*
X16806786Y-17597214D02*
X16806786Y-17654357D01*
X16921071Y-17597214D02*
X16921071Y-17654357D01*
X17363928Y-18011500D02*
X17349643Y-17997214D01*
X17321071Y-17954357D01*
X17306786Y-17925786D01*
X17292500Y-17882929D01*
X17278214Y-17811500D01*
X17278214Y-17754357D01*
X17292500Y-17682929D01*
X17306786Y-17640072D01*
X17321071Y-17611500D01*
X17349643Y-17568643D01*
X17363928Y-17554357D01*
X17635357Y-17897214D02*
X17463928Y-17897214D01*
X17549643Y-17897214D02*
X17549643Y-17597214D01*
X17521071Y-17640072D01*
X17492500Y-17668643D01*
X17463928Y-17682929D01*
X17821071Y-17597214D02*
X17849643Y-17597214D01*
X17878214Y-17611500D01*
X17892500Y-17625786D01*
X17906786Y-17654357D01*
X17921071Y-17711500D01*
X17921071Y-17782929D01*
X17906786Y-17840072D01*
X17892500Y-17868643D01*
X17878214Y-17882929D01*
X17849643Y-17897214D01*
X17821071Y-17897214D01*
X17792500Y-17882929D01*
X17778214Y-17868643D01*
X17763928Y-17840072D01*
X17749643Y-17782929D01*
X17749643Y-17711500D01*
X17763928Y-17654357D01*
X17778214Y-17625786D01*
X17792500Y-17611500D01*
X17821071Y-17597214D01*
X18278214Y-17897214D02*
X18278214Y-17597214D01*
X18406786Y-17897214D02*
X18406786Y-17740072D01*
X18392500Y-17711500D01*
X18363928Y-17697214D01*
X18321071Y-17697214D01*
X18292500Y-17711500D01*
X18278214Y-17725786D01*
X18592500Y-17897214D02*
X18563928Y-17882929D01*
X18549643Y-17868643D01*
X18535357Y-17840072D01*
X18535357Y-17754357D01*
X18549643Y-17725786D01*
X18563928Y-17711500D01*
X18592500Y-17697214D01*
X18635357Y-17697214D01*
X18663928Y-17711500D01*
X18678214Y-17725786D01*
X18692500Y-17754357D01*
X18692500Y-17840072D01*
X18678214Y-17868643D01*
X18663928Y-17882929D01*
X18635357Y-17897214D01*
X18592500Y-17897214D01*
X18863928Y-17897214D02*
X18835357Y-17882929D01*
X18821071Y-17854357D01*
X18821071Y-17597214D01*
X19092500Y-17882929D02*
X19063929Y-17897214D01*
X19006786Y-17897214D01*
X18978214Y-17882929D01*
X18963929Y-17854357D01*
X18963929Y-17740072D01*
X18978214Y-17711500D01*
X19006786Y-17697214D01*
X19063929Y-17697214D01*
X19092500Y-17711500D01*
X19106786Y-17740072D01*
X19106786Y-17768643D01*
X18963929Y-17797214D01*
X19221071Y-17882929D02*
X19249643Y-17897214D01*
X19306786Y-17897214D01*
X19335357Y-17882929D01*
X19349643Y-17854357D01*
X19349643Y-17840072D01*
X19335357Y-17811500D01*
X19306786Y-17797214D01*
X19263929Y-17797214D01*
X19235357Y-17782929D01*
X19221071Y-17754357D01*
X19221071Y-17740072D01*
X19235357Y-17711500D01*
X19263929Y-17697214D01*
X19306786Y-17697214D01*
X19335357Y-17711500D01*
X19449643Y-18011500D02*
X19463929Y-17997214D01*
X19492500Y-17954357D01*
X19506786Y-17925786D01*
X19521071Y-17882929D01*
X19535357Y-17811500D01*
X19535357Y-17754357D01*
X19521071Y-17682929D01*
X19506786Y-17640072D01*
X19492500Y-17611500D01*
X19463929Y-17568643D01*
X19449643Y-17554357D01*
X12645638Y-18270638D02*
X12645638Y-18044362D01*
X12419362Y-18044362D01*
X12419362Y-18270638D01*
X12645638Y-18270638D01*
X12935357Y-17993214D02*
X13121071Y-17993214D01*
X13021071Y-18107500D01*
X13063928Y-18107500D01*
X13092500Y-18121786D01*
X13106786Y-18136072D01*
X13121071Y-18164643D01*
X13121071Y-18236072D01*
X13106786Y-18264643D01*
X13092500Y-18278929D01*
X13063928Y-18293214D01*
X12978214Y-18293214D01*
X12949643Y-18278929D01*
X12935357Y-18264643D01*
X13249643Y-18264643D02*
X13263928Y-18278929D01*
X13249643Y-18293214D01*
X13235357Y-18278929D01*
X13249643Y-18264643D01*
X13249643Y-18293214D01*
X13378214Y-18021786D02*
X13392500Y-18007500D01*
X13421071Y-17993214D01*
X13492500Y-17993214D01*
X13521071Y-18007500D01*
X13535357Y-18021786D01*
X13549643Y-18050357D01*
X13549643Y-18078929D01*
X13535357Y-18121786D01*
X13363928Y-18293214D01*
X13549643Y-18293214D01*
X13735357Y-17993214D02*
X13763928Y-17993214D01*
X13792500Y-18007500D01*
X13806786Y-18021786D01*
X13821071Y-18050357D01*
X13835357Y-18107500D01*
X13835357Y-18178929D01*
X13821071Y-18236072D01*
X13806786Y-18264643D01*
X13792500Y-18278929D01*
X13763928Y-18293214D01*
X13735357Y-18293214D01*
X13706786Y-18278929D01*
X13692500Y-18264643D01*
X13678214Y-18236072D01*
X13663928Y-18178929D01*
X13663928Y-18107500D01*
X13678214Y-18050357D01*
X13692500Y-18021786D01*
X13706786Y-18007500D01*
X13735357Y-17993214D01*
X13963928Y-18293214D02*
X13963928Y-18093214D01*
X13963928Y-18121786D02*
X13978214Y-18107500D01*
X14006786Y-18093214D01*
X14049643Y-18093214D01*
X14078214Y-18107500D01*
X14092500Y-18136072D01*
X14092500Y-18293214D01*
X14092500Y-18136072D02*
X14106786Y-18107500D01*
X14135357Y-18093214D01*
X14178214Y-18093214D01*
X14206786Y-18107500D01*
X14221071Y-18136072D01*
X14221071Y-18293214D01*
X14363928Y-18293214D02*
X14363928Y-18093214D01*
X14363928Y-18121786D02*
X14378214Y-18107500D01*
X14406786Y-18093214D01*
X14449643Y-18093214D01*
X14478214Y-18107500D01*
X14492500Y-18136072D01*
X14492500Y-18293214D01*
X14492500Y-18136072D02*
X14506786Y-18107500D01*
X14535357Y-18093214D01*
X14578214Y-18093214D01*
X14606786Y-18107500D01*
X14621071Y-18136072D01*
X14621071Y-18293214D01*
X15206786Y-17978929D02*
X14949643Y-18364643D01*
X15592500Y-17993214D02*
X15621071Y-17993214D01*
X15649643Y-18007500D01*
X15663928Y-18021786D01*
X15678214Y-18050357D01*
X15692500Y-18107500D01*
X15692500Y-18178929D01*
X15678214Y-18236072D01*
X15663928Y-18264643D01*
X15649643Y-18278929D01*
X15621071Y-18293214D01*
X15592500Y-18293214D01*
X15563928Y-18278929D01*
X15549643Y-18264643D01*
X15535357Y-18236072D01*
X15521071Y-18178929D01*
X15521071Y-18107500D01*
X15535357Y-18050357D01*
X15549643Y-18021786D01*
X15563928Y-18007500D01*
X15592500Y-17993214D01*
X15821071Y-18264643D02*
X15835357Y-18278929D01*
X15821071Y-18293214D01*
X15806786Y-18278929D01*
X15821071Y-18264643D01*
X15821071Y-18293214D01*
X16121071Y-18293214D02*
X15949643Y-18293214D01*
X16035357Y-18293214D02*
X16035357Y-17993214D01*
X16006785Y-18036072D01*
X15978214Y-18064643D01*
X15949643Y-18078929D01*
X16235357Y-18021786D02*
X16249643Y-18007500D01*
X16278214Y-17993214D01*
X16349643Y-17993214D01*
X16378214Y-18007500D01*
X16392500Y-18021786D01*
X16406785Y-18050357D01*
X16406785Y-18078929D01*
X16392500Y-18121786D01*
X16221071Y-18293214D01*
X16406785Y-18293214D01*
X16663928Y-17993214D02*
X16606785Y-17993214D01*
X16578214Y-18007500D01*
X16563928Y-18021786D01*
X16535357Y-18064643D01*
X16521071Y-18121786D01*
X16521071Y-18236072D01*
X16535357Y-18264643D01*
X16549643Y-18278929D01*
X16578214Y-18293214D01*
X16635357Y-18293214D01*
X16663928Y-18278929D01*
X16678214Y-18264643D01*
X16692500Y-18236072D01*
X16692500Y-18164643D01*
X16678214Y-18136072D01*
X16663928Y-18121786D01*
X16635357Y-18107500D01*
X16578214Y-18107500D01*
X16549643Y-18121786D01*
X16535357Y-18136072D01*
X16521071Y-18164643D01*
X16806786Y-17993214D02*
X16806786Y-18050357D01*
X16921071Y-17993214D02*
X16921071Y-18050357D01*
X17363928Y-18407500D02*
X17349643Y-18393214D01*
X17321071Y-18350357D01*
X17306786Y-18321786D01*
X17292500Y-18278929D01*
X17278214Y-18207500D01*
X17278214Y-18150357D01*
X17292500Y-18078929D01*
X17306786Y-18036072D01*
X17321071Y-18007500D01*
X17349643Y-17964643D01*
X17363928Y-17950357D01*
X17606786Y-18093214D02*
X17606786Y-18293214D01*
X17535357Y-17978929D02*
X17463928Y-18193214D01*
X17649643Y-18193214D01*
X17992500Y-18293214D02*
X17992500Y-17993214D01*
X18121071Y-18293214D02*
X18121071Y-18136072D01*
X18106786Y-18107500D01*
X18078214Y-18093214D01*
X18035357Y-18093214D01*
X18006786Y-18107500D01*
X17992500Y-18121786D01*
X18306786Y-18293214D02*
X18278214Y-18278929D01*
X18263928Y-18264643D01*
X18249643Y-18236072D01*
X18249643Y-18150357D01*
X18263928Y-18121786D01*
X18278214Y-18107500D01*
X18306786Y-18093214D01*
X18349643Y-18093214D01*
X18378214Y-18107500D01*
X18392500Y-18121786D01*
X18406786Y-18150357D01*
X18406786Y-18236072D01*
X18392500Y-18264643D01*
X18378214Y-18278929D01*
X18349643Y-18293214D01*
X18306786Y-18293214D01*
X18578214Y-18293214D02*
X18549643Y-18278929D01*
X18535357Y-18250357D01*
X18535357Y-17993214D01*
X18806786Y-18278929D02*
X18778214Y-18293214D01*
X18721071Y-18293214D01*
X18692500Y-18278929D01*
X18678214Y-18250357D01*
X18678214Y-18136072D01*
X18692500Y-18107500D01*
X18721071Y-18093214D01*
X18778214Y-18093214D01*
X18806786Y-18107500D01*
X18821071Y-18136072D01*
X18821071Y-18164643D01*
X18678214Y-18193214D01*
X18935357Y-18278929D02*
X18963929Y-18293214D01*
X19021071Y-18293214D01*
X19049643Y-18278929D01*
X19063929Y-18250357D01*
X19063929Y-18236072D01*
X19049643Y-18207500D01*
X19021071Y-18193214D01*
X18978214Y-18193214D01*
X18949643Y-18178929D01*
X18935357Y-18150357D01*
X18935357Y-18136072D01*
X18949643Y-18107500D01*
X18978214Y-18093214D01*
X19021071Y-18093214D01*
X19049643Y-18107500D01*
X19163928Y-18407500D02*
X19178214Y-18393214D01*
X19206786Y-18350357D01*
X19221071Y-18321786D01*
X19235357Y-18278929D01*
X19249643Y-18207500D01*
X19249643Y-18150357D01*
X19235357Y-18078929D01*
X19221071Y-18036072D01*
X19206786Y-18007500D01*
X19178214Y-17964643D01*
X19163928Y-17950357D01*
M02*
