M48
;DRILL file {KiCad 4.0.1-stable} date 12/02/16 17:09:35
;FORMAT={-:-/ absolute / metric / decimal}
FMAT,2
METRIC,TZ
T1C0.700
T2C0.900
T3C1.000
T4C3.200
%
G90
G05
M71
T1
X133.35Y-115.062
X138.35Y-115.062
X138.43Y-122.555
X138.43Y-132.715
X141.605Y-120.015
X141.605Y-130.175
X142.875Y-111.125
X144.526Y-127.635
X144.526Y-130.175
X144.526Y-132.715
X144.526Y-135.255
X145.669Y-124.46
X147.4Y-142.875
X152.146Y-127.635
X152.146Y-130.175
X152.146Y-132.715
X152.146Y-135.255
X152.4Y-142.875
X155.829Y-124.46
X155.829Y-127.635
X155.829Y-130.175
X155.829Y-132.715
X155.829Y-135.255
X163.449Y-127.635
X163.449Y-130.175
X163.449Y-132.715
X163.449Y-135.255
X166.37Y-120.142
X166.37Y-130.302
X166.37Y-132.842
X166.37Y-143.002
X168.91Y-127.635
X168.91Y-130.175
X168.91Y-132.715
X168.91Y-135.255
X175.895Y-111.125
X176.53Y-127.635
X176.53Y-130.175
X176.53Y-132.715
X176.53Y-135.255
X180.34Y-125.73
X180.34Y-135.89
X184.147Y-130.174
X184.147Y-142.874
X184.15Y-120.015
X184.15Y-132.715
T2
X180.34Y-116.205
X180.34Y-147.955
X182.88Y-109.22
X182.88Y-116.205
X182.88Y-147.955
X182.88Y-154.94
X185.42Y-109.22
X185.42Y-116.205
X185.42Y-147.955
X185.42Y-154.94
X187.96Y-109.22
X187.96Y-154.94
X194.945Y-107.315
X194.945Y-130.175
X194.945Y-133.35
X194.945Y-156.21
T3
X133.35Y-125.095
X133.35Y-127.635
X133.35Y-130.175
X139.065Y-102.87
X141.605Y-102.87
X174.117Y-139.7
X174.117Y-142.24
X174.117Y-144.78
X201.295Y-133.35
X201.295Y-135.89
T4
X130.81Y-100.33
X130.81Y-156.21
X203.2Y-100.33
X203.2Y-156.21
T0
M30
