G04 #@! TF.FileFunction,Copper,L2,Bot,Signal*
%FSLAX46Y46*%
G04 Gerber Fmt 4.6, Leading zero omitted, Abs format (unit mm)*
G04 Created by KiCad (PCBNEW 4.0.1-stable) date 12/02/16 17:09:25*
%MOMM*%
G01*
G04 APERTURE LIST*
%ADD10C,0.100000*%
%ADD11C,1.716000*%
%ADD12R,1.716000X1.554000*%
%ADD13R,1.716000X1.716000*%
%ADD14R,2.016000X2.016000*%
%ADD15C,2.016000*%
%ADD16C,1.916000*%
%ADD17R,1.916000X1.916000*%
%ADD18C,3.800000*%
%ADD19C,0.762000*%
%ADD20C,0.304800*%
G04 APERTURE END LIST*
D10*
D11*
X168910000Y-127635000D03*
X168910000Y-130175000D03*
X168910000Y-132715000D03*
X168910000Y-135255000D03*
X176530000Y-135255000D03*
X176530000Y-132715000D03*
X176530000Y-130175000D03*
X176530000Y-127635000D03*
D12*
X133350000Y-115062000D03*
D11*
X138350000Y-115062000D03*
D12*
X152400000Y-142875000D03*
D11*
X147400000Y-142875000D03*
D13*
X175895000Y-111125000D03*
D11*
X142875000Y-111125000D03*
D13*
X184147460Y-130174480D03*
D11*
X184150000Y-120015000D03*
D13*
X184147460Y-142874480D03*
D11*
X184150000Y-132715000D03*
D14*
X133350000Y-125095000D03*
D15*
X133350000Y-127635000D03*
X133350000Y-130175000D03*
D14*
X141605000Y-102870000D03*
D15*
X139065000Y-102870000D03*
D14*
X201295000Y-133350000D03*
D15*
X201295000Y-135890000D03*
D14*
X174117000Y-139700000D03*
D15*
X174117000Y-142240000D03*
X174117000Y-144780000D03*
D16*
X182880000Y-116205000D03*
D17*
X180340000Y-116205000D03*
D16*
X185420000Y-116205000D03*
X182880000Y-147955000D03*
D17*
X180340000Y-147955000D03*
D16*
X185420000Y-147955000D03*
X185420000Y-109220000D03*
D17*
X182880000Y-109220000D03*
D16*
X187960000Y-109220000D03*
X185420000Y-154940000D03*
D17*
X182880000Y-154940000D03*
D16*
X187960000Y-154940000D03*
D11*
X138430000Y-132715000D03*
X138430000Y-122555000D03*
X141605000Y-130175000D03*
X141605000Y-120015000D03*
X155829000Y-124460000D03*
X145669000Y-124460000D03*
X166370000Y-132842000D03*
X166370000Y-143002000D03*
X166370000Y-120142000D03*
X166370000Y-130302000D03*
X180340000Y-125730000D03*
X180340000Y-135890000D03*
D16*
X194945000Y-107315000D03*
X194945000Y-130175000D03*
X194945000Y-133350000D03*
X194945000Y-156210000D03*
D11*
X144526000Y-127635000D03*
X144526000Y-130175000D03*
X144526000Y-132715000D03*
X144526000Y-135255000D03*
X152146000Y-135255000D03*
X152146000Y-132715000D03*
X152146000Y-130175000D03*
X152146000Y-127635000D03*
X155829000Y-127635000D03*
X155829000Y-130175000D03*
X155829000Y-132715000D03*
X155829000Y-135255000D03*
X163449000Y-135255000D03*
X163449000Y-132715000D03*
X163449000Y-130175000D03*
X163449000Y-127635000D03*
D18*
X203200000Y-156210000D03*
X130810000Y-156210000D03*
X130810000Y-100330000D03*
X203200000Y-100330000D03*
D19*
X152146000Y-130175000D02*
X150114000Y-128143000D01*
X150114000Y-128143000D02*
X150114000Y-124587000D01*
X150114000Y-124587000D02*
X152654000Y-122047000D01*
X152654000Y-122047000D02*
X169545000Y-122047000D01*
X133350000Y-107315000D02*
X133350000Y-104775000D01*
X133350000Y-104775000D02*
X139700000Y-98425000D01*
X172720000Y-118999000D02*
X178562000Y-113157000D01*
X178562000Y-113157000D02*
X178562000Y-99187000D01*
X163449000Y-127635000D02*
X163957000Y-127635000D01*
X163957000Y-127635000D02*
X169545000Y-122047000D01*
X169545000Y-122047000D02*
X169672000Y-121920000D01*
X169672000Y-121920000D02*
X169799000Y-121920000D01*
X169799000Y-121920000D02*
X172720000Y-118999000D01*
X176530000Y-130175000D02*
X175387000Y-130175000D01*
X175387000Y-130175000D02*
X172720000Y-127508000D01*
X172720000Y-127508000D02*
X172720000Y-118999000D01*
X185420000Y-109220000D02*
X185420000Y-106045000D01*
X177800000Y-98425000D02*
X167640000Y-98425000D01*
X167640000Y-98425000D02*
X139700000Y-98425000D01*
X185420000Y-106045000D02*
X178562000Y-99187000D01*
X178562000Y-99187000D02*
X177800000Y-98425000D01*
X133350000Y-107315000D02*
X133350000Y-125095000D01*
X185420000Y-109220000D02*
X185420000Y-116205000D01*
X133350000Y-127635000D02*
X132715000Y-127635000D01*
X132715000Y-127635000D02*
X131572000Y-128778000D01*
X131572000Y-128778000D02*
X131572000Y-140589000D01*
X131572000Y-140589000D02*
X149098000Y-158115000D01*
X138350000Y-115062000D02*
X138350000Y-117174000D01*
X138350000Y-117174000D02*
X136398000Y-119126000D01*
X136398000Y-119126000D02*
X136398000Y-127635000D01*
X138430000Y-132715000D02*
X144526000Y-132715000D01*
X138350000Y-115062000D02*
X138350000Y-104982000D01*
X138350000Y-104982000D02*
X139065000Y-104267000D01*
X152400000Y-142875000D02*
X152400000Y-138811000D01*
X152400000Y-138811000D02*
X150749000Y-137160000D01*
X139065000Y-102870000D02*
X139065000Y-104267000D01*
X139065000Y-104267000D02*
X141986000Y-107188000D01*
X141986000Y-107188000D02*
X162052000Y-107188000D01*
X162052000Y-107188000D02*
X166370000Y-111506000D01*
X166370000Y-111506000D02*
X166370000Y-120142000D01*
X144526000Y-132715000D02*
X146304000Y-132715000D01*
X146304000Y-132715000D02*
X150749000Y-137160000D01*
X150749000Y-137160000D02*
X153924000Y-137160000D01*
X153924000Y-137160000D02*
X155829000Y-135255000D01*
X155829000Y-130175000D02*
X160909000Y-130175000D01*
X160909000Y-130175000D02*
X163449000Y-132715000D01*
X155829000Y-135255000D02*
X160909000Y-135255000D01*
X160909000Y-135255000D02*
X163449000Y-132715000D01*
X166370000Y-120142000D02*
X166116000Y-120142000D01*
X201295000Y-152400000D02*
X201295000Y-135890000D01*
X195580000Y-158115000D02*
X201295000Y-152400000D01*
X149098000Y-158115000D02*
X195580000Y-158115000D01*
X133350000Y-127635000D02*
X136398000Y-127635000D01*
X136398000Y-127635000D02*
X136525000Y-127635000D01*
X138430000Y-129540000D02*
X138430000Y-132715000D01*
X136525000Y-127635000D02*
X138430000Y-129540000D01*
X133350000Y-130175000D02*
X133350000Y-140208000D01*
X133350000Y-140208000D02*
X138557000Y-145415000D01*
X138557000Y-145415000D02*
X149940000Y-145415000D01*
X144526000Y-135255000D02*
X144526000Y-140001000D01*
X144526000Y-140001000D02*
X147400000Y-142875000D01*
X158877000Y-145415000D02*
X149940000Y-145415000D01*
X149940000Y-145415000D02*
X147400000Y-142875000D01*
X163449000Y-135255000D02*
X163449000Y-140843000D01*
X168910000Y-135255000D02*
X168910000Y-135382000D01*
X168910000Y-135382000D02*
X163449000Y-140843000D01*
X163449000Y-140843000D02*
X158877000Y-145415000D01*
X185420000Y-154940000D02*
X185420000Y-156845000D01*
X164465000Y-145415000D02*
X158877000Y-145415000D01*
X175895000Y-156845000D02*
X164465000Y-145415000D01*
X185420000Y-156845000D02*
X175895000Y-156845000D01*
X185420000Y-154940000D02*
X185420000Y-147955000D01*
D20*
X141605000Y-102870000D02*
X167640000Y-102870000D01*
X167640000Y-102870000D02*
X175895000Y-111125000D01*
X142875000Y-111125000D02*
X142875000Y-118745000D01*
X142875000Y-118745000D02*
X141605000Y-120015000D01*
X138430000Y-122555000D02*
X139065000Y-122555000D01*
X139065000Y-122555000D02*
X141605000Y-120015000D01*
X176530000Y-132715000D02*
X184150000Y-132715000D01*
X174117000Y-139700000D02*
X174117000Y-135128000D01*
X174117000Y-135128000D02*
X176530000Y-132715000D01*
X184147460Y-130174480D02*
X184147460Y-132712460D01*
X184147460Y-132712460D02*
X184144920Y-132715000D01*
X182880000Y-109220000D02*
X182880000Y-116205000D01*
X182880000Y-116205000D02*
X182880000Y-118110000D01*
X182880000Y-118110000D02*
X184150000Y-119380000D01*
X184150000Y-119380000D02*
X184150000Y-120015000D01*
X182880000Y-154940000D02*
X182880000Y-147955000D01*
X182880000Y-147955000D02*
X182880000Y-144780000D01*
X182880000Y-144780000D02*
X184147460Y-143512540D01*
X184147460Y-143512540D02*
X184147460Y-142874480D01*
D19*
X174117000Y-144780000D02*
X175514000Y-144780000D01*
X175514000Y-144780000D02*
X178308000Y-141986000D01*
X178308000Y-141986000D02*
X178308000Y-134874000D01*
X178308000Y-134874000D02*
X178816000Y-134366000D01*
X178816000Y-134366000D02*
X193929000Y-134366000D01*
X193929000Y-134366000D02*
X194945000Y-133350000D01*
X194945000Y-130175000D02*
X194945000Y-133350000D01*
X194945000Y-133350000D02*
X201295000Y-133350000D01*
D20*
X166370000Y-143002000D02*
X173355000Y-143002000D01*
X173355000Y-143002000D02*
X174117000Y-142240000D01*
X180340000Y-116205000D02*
X180340000Y-125730000D01*
X180340000Y-135890000D02*
X180340000Y-147955000D01*
X187960000Y-109220000D02*
X189865000Y-107315000D01*
X189865000Y-107315000D02*
X194945000Y-107315000D01*
X187960000Y-154940000D02*
X193675000Y-154940000D01*
X193675000Y-154940000D02*
X194945000Y-156210000D01*
X145669000Y-124460000D02*
X143891000Y-124460000D01*
X143891000Y-124460000D02*
X141605000Y-126746000D01*
X141605000Y-126746000D02*
X141605000Y-130175000D01*
X141605000Y-130175000D02*
X144526000Y-130175000D01*
X155829000Y-127635000D02*
X154051000Y-129413000D01*
X154051000Y-129413000D02*
X154051000Y-130810000D01*
X154051000Y-130810000D02*
X152146000Y-132715000D01*
X155829000Y-124460000D02*
X155829000Y-127635000D01*
X152146000Y-132715000D02*
X155829000Y-132715000D01*
X168910000Y-130175000D02*
X166497000Y-130175000D01*
X166497000Y-130175000D02*
X166370000Y-130302000D01*
X166370000Y-130302000D02*
X166370000Y-132842000D01*
X163449000Y-130175000D02*
X163449000Y-129921000D01*
X163449000Y-129921000D02*
X167259000Y-126111000D01*
X167259000Y-126111000D02*
X169672000Y-126111000D01*
X169672000Y-126111000D02*
X170434000Y-126873000D01*
X170434000Y-126873000D02*
X170434000Y-131191000D01*
X170434000Y-131191000D02*
X168910000Y-132715000D01*
M02*
