%FSLAX45Y45*%
G04 Gerber Fmt 4.5, Leading zero omitted, Abs format (unit mm)*
G04 Created by KiCad (PCBNEW 4.0.1-stable) date 11/23/16 13:40:22*
%MOMM*%
G01*
G04 APERTURE LIST*
%ADD10C,0.127000*%
%ADD11C,0.100000*%
%ADD12C,0.200000*%
%ADD13C,0.300000*%
G04 APERTURE END LIST*
D10*
D11*
X9652000Y-5715000D02*
X9652000Y-5651500D01*
X9652000Y-5651500D02*
X9652000Y-5715000D01*
X9652000Y-5588000D02*
X9652000Y-5651500D01*
X15176500Y-5588000D02*
X9652000Y-5588000D01*
X15176500Y-11811000D02*
X15176500Y-5588000D01*
X9652000Y-11811000D02*
X15176500Y-11811000D01*
X9652000Y-5651500D02*
X9652000Y-11811000D01*
D12*
X11293400Y-7153200D02*
X11363400Y-7223200D01*
X11363400Y-7153200D02*
X11293400Y-7223200D01*
X11293400Y-7432600D02*
X11363400Y-7502600D01*
X11363400Y-7432600D02*
X11293400Y-7502600D01*
X11293400Y-7712000D02*
X11363400Y-7782000D01*
X11363400Y-7712000D02*
X11293400Y-7782000D01*
X11293400Y-8474000D02*
X11363400Y-8544000D01*
X11363400Y-8474000D02*
X11293400Y-8544000D01*
X11547400Y-7153200D02*
X11617400Y-7223200D01*
X11617400Y-7153200D02*
X11547400Y-7223200D01*
X11547400Y-7712000D02*
X11617400Y-7782000D01*
X11617400Y-7712000D02*
X11547400Y-7782000D01*
X11547400Y-8474000D02*
X11617400Y-8544000D01*
X11617400Y-8474000D02*
X11547400Y-8544000D01*
X11801400Y-7153200D02*
X11871400Y-7223200D01*
X11871400Y-7153200D02*
X11801400Y-7223200D01*
X11801400Y-7712000D02*
X11871400Y-7782000D01*
X11871400Y-7712000D02*
X11801400Y-7782000D01*
X11801400Y-8474000D02*
X11871400Y-8544000D01*
X11871400Y-8474000D02*
X11801400Y-8544000D01*
X12055400Y-7712000D02*
X12125400Y-7782000D01*
X12125400Y-7712000D02*
X12055400Y-7782000D01*
X12055400Y-8474000D02*
X12125400Y-8544000D01*
X12125400Y-8474000D02*
X12055400Y-8544000D01*
X12309400Y-6797600D02*
X12379400Y-6867600D01*
X12379400Y-6797600D02*
X12309400Y-6867600D01*
X12309400Y-7432600D02*
X12379400Y-7502600D01*
X12379400Y-7432600D02*
X12309400Y-7502600D01*
X12309400Y-7712000D02*
X12379400Y-7782000D01*
X12379400Y-7712000D02*
X12309400Y-7782000D01*
X12309400Y-8474000D02*
X12379400Y-8544000D01*
X12379400Y-8474000D02*
X12309400Y-8544000D01*
X12563400Y-7064300D02*
X12633400Y-7134300D01*
X12633400Y-7064300D02*
X12563400Y-7134300D01*
X12563400Y-7712000D02*
X12633400Y-7782000D01*
X12633400Y-7712000D02*
X12563400Y-7782000D01*
X12563400Y-8474000D02*
X12633400Y-8544000D01*
X12633400Y-8474000D02*
X12563400Y-8544000D01*
X12715800Y-7432600D02*
X12785800Y-7502600D01*
X12785800Y-7432600D02*
X12715800Y-7502600D01*
X12817400Y-6797600D02*
X12887400Y-6867600D01*
X12887400Y-6797600D02*
X12817400Y-6867600D01*
X12817400Y-7712000D02*
X12887400Y-7782000D01*
X12887400Y-7712000D02*
X12817400Y-7782000D01*
X12817400Y-8474000D02*
X12887400Y-8544000D01*
X12887400Y-8474000D02*
X12817400Y-8544000D01*
X13071400Y-7712000D02*
X13141400Y-7782000D01*
X13141400Y-7712000D02*
X13071400Y-7782000D01*
X13071400Y-8474000D02*
X13141400Y-8544000D01*
X13141400Y-8474000D02*
X13071400Y-8544000D01*
X13173000Y-6797600D02*
X13243000Y-6867600D01*
X13243000Y-6797600D02*
X13173000Y-6867600D01*
X13325400Y-7712000D02*
X13395400Y-7782000D01*
X13395400Y-7712000D02*
X13325400Y-7782000D01*
X13325400Y-8474000D02*
X13395400Y-8544000D01*
X13395400Y-8474000D02*
X13325400Y-8544000D01*
X13579400Y-7712000D02*
X13649400Y-7782000D01*
X13649400Y-7712000D02*
X13579400Y-7782000D01*
X13579400Y-8474000D02*
X13649400Y-8544000D01*
X13649400Y-8474000D02*
X13579400Y-8544000D01*
X13681000Y-6442000D02*
X13751000Y-6512000D01*
X13751000Y-6442000D02*
X13681000Y-6512000D01*
X13731800Y-7432600D02*
X13801800Y-7502600D01*
X13801800Y-7432600D02*
X13731800Y-7502600D01*
X13935000Y-6442000D02*
X14005000Y-6512000D01*
X14005000Y-6442000D02*
X13935000Y-6512000D01*
X14189000Y-6442000D02*
X14259000Y-6512000D01*
X14259000Y-6442000D02*
X14189000Y-6512000D01*
X14189000Y-6797600D02*
X14259000Y-6867600D01*
X14259000Y-6797600D02*
X14189000Y-6867600D01*
X10738400Y-7213600D02*
G75*
G03X10738400Y-7213600I-45000J0D01*
G01*
X10738400Y-9499600D02*
G75*
G03X10738400Y-9499600I-45000J0D01*
G01*
X11246452Y-10108946D02*
G75*
G03X11246452Y-10108946I-45000J0D01*
G01*
X11246452Y-10362946D02*
G75*
G03X11246452Y-10362946I-45000J0D01*
G01*
X11246452Y-10616946D02*
G75*
G03X11246452Y-10616946I-45000J0D01*
G01*
X11246452Y-10870946D02*
G75*
G03X11246452Y-10870946I-45000J0D01*
G01*
X11754400Y-9499600D02*
G75*
G03X11754400Y-9499600I-45000J0D01*
G01*
X11881400Y-8991600D02*
G75*
G03X11881400Y-8991600I-45000J0D01*
G01*
X12008400Y-9499600D02*
G75*
G03X12008400Y-9499600I-45000J0D01*
G01*
X12135400Y-8991600D02*
G75*
G03X12135400Y-8991600I-45000J0D01*
G01*
X12262400Y-9499600D02*
G75*
G03X12262400Y-9499600I-45000J0D01*
G01*
X12262400Y-10109200D02*
G75*
G03X12262400Y-10109200I-45000J0D01*
G01*
X12262400Y-10363200D02*
G75*
G03X12262400Y-10363200I-45000J0D01*
G01*
X12262400Y-10617200D02*
G75*
G03X12262400Y-10617200I-45000J0D01*
G01*
X12262400Y-10871200D02*
G75*
G03X12262400Y-10871200I-45000J0D01*
G01*
X12389400Y-8991600D02*
G75*
G03X12389400Y-8991600I-45000J0D01*
G01*
X12516400Y-9499600D02*
G75*
G03X12516400Y-9499600I-45000J0D01*
G01*
X12643400Y-8991600D02*
G75*
G03X12643400Y-8991600I-45000J0D01*
G01*
X12770400Y-9499600D02*
G75*
G03X12770400Y-9499600I-45000J0D01*
G01*
X12897400Y-8991600D02*
G75*
G03X12897400Y-8991600I-45000J0D01*
G01*
X13024400Y-9499600D02*
G75*
G03X13024400Y-9499600I-45000J0D01*
G01*
X13049852Y-10108946D02*
G75*
G03X13049852Y-10108946I-45000J0D01*
G01*
X13049852Y-10362946D02*
G75*
G03X13049852Y-10362946I-45000J0D01*
G01*
X13049852Y-10616946D02*
G75*
G03X13049852Y-10616946I-45000J0D01*
G01*
X13049852Y-10870946D02*
G75*
G03X13049852Y-10870946I-45000J0D01*
G01*
X13151400Y-8991600D02*
G75*
G03X13151400Y-8991600I-45000J0D01*
G01*
X13278400Y-9499600D02*
G75*
G03X13278400Y-9499600I-45000J0D01*
G01*
X13405400Y-8991600D02*
G75*
G03X13405400Y-8991600I-45000J0D01*
G01*
X13532400Y-9499600D02*
G75*
G03X13532400Y-9499600I-45000J0D01*
G01*
X14065800Y-10109200D02*
G75*
G03X14065800Y-10109200I-45000J0D01*
G01*
X14065800Y-10363200D02*
G75*
G03X14065800Y-10363200I-45000J0D01*
G01*
X14065800Y-10617200D02*
G75*
G03X14065800Y-10617200I-45000J0D01*
G01*
X14065800Y-10871200D02*
G75*
G03X14065800Y-10871200I-45000J0D01*
G01*
X14319800Y-7213600D02*
G75*
G03X14319800Y-7213600I-45000J0D01*
G01*
X14319800Y-9499600D02*
G75*
G03X14319800Y-9499600I-45000J0D01*
G01*
X10642600Y-9805200D02*
X10642600Y-9905200D01*
X10592600Y-9855200D02*
X10692600Y-9855200D01*
X10642600Y-10059200D02*
X10642600Y-10159200D01*
X10592600Y-10109200D02*
X10692600Y-10109200D01*
X10642600Y-10313200D02*
X10642600Y-10413200D01*
X10592600Y-10363200D02*
X10692600Y-10363200D01*
X11506200Y-6452400D02*
X11506200Y-6552400D01*
X11456200Y-6502400D02*
X11556200Y-6502400D01*
X11760200Y-6452400D02*
X11760200Y-6552400D01*
X11710200Y-6502400D02*
X11810200Y-6502400D01*
X12598400Y-10059200D02*
X12598400Y-10159200D01*
X12548400Y-10109200D02*
X12648400Y-10109200D01*
X12598400Y-10313200D02*
X12598400Y-10413200D01*
X12548400Y-10363200D02*
X12648400Y-10363200D01*
X12598400Y-10567200D02*
X12598400Y-10667200D01*
X12548400Y-10617200D02*
X12648400Y-10617200D01*
X12598400Y-10821200D02*
X12598400Y-10921200D01*
X12548400Y-10871200D02*
X12648400Y-10871200D01*
X10146138Y-6082138D02*
X10146138Y-5855862D01*
X9919862Y-5855862D01*
X9919862Y-6082138D01*
X10146138Y-6082138D01*
X10146138Y-11543138D02*
X10146138Y-11316862D01*
X9919862Y-11316862D01*
X9919862Y-11543138D01*
X10146138Y-11543138D01*
X14908638Y-6082138D02*
X14908638Y-5855862D01*
X14682362Y-5855862D01*
X14682362Y-6082138D01*
X14908638Y-6082138D01*
X14908638Y-11543138D02*
X14908638Y-11316862D01*
X14682362Y-11316862D01*
X14682362Y-11543138D01*
X14908638Y-11543138D01*
D13*
X9918429Y-12281714D02*
X9918429Y-11981714D01*
X9989857Y-11981714D01*
X10032714Y-11996000D01*
X10061286Y-12024571D01*
X10075571Y-12053143D01*
X10089857Y-12110286D01*
X10089857Y-12153143D01*
X10075571Y-12210286D01*
X10061286Y-12238857D01*
X10032714Y-12267429D01*
X9989857Y-12281714D01*
X9918429Y-12281714D01*
X10218429Y-12281714D02*
X10218429Y-12081714D01*
X10218429Y-12138857D02*
X10232714Y-12110286D01*
X10247000Y-12096000D01*
X10275571Y-12081714D01*
X10304143Y-12081714D01*
X10404143Y-12281714D02*
X10404143Y-12081714D01*
X10404143Y-11981714D02*
X10389857Y-11996000D01*
X10404143Y-12010286D01*
X10418429Y-11996000D01*
X10404143Y-11981714D01*
X10404143Y-12010286D01*
X10589857Y-12281714D02*
X10561286Y-12267429D01*
X10547000Y-12238857D01*
X10547000Y-11981714D01*
X10747000Y-12281714D02*
X10718429Y-12267429D01*
X10704143Y-12238857D01*
X10704143Y-11981714D01*
X11089857Y-12281714D02*
X11089857Y-11981714D01*
X11189857Y-12196000D01*
X11289857Y-11981714D01*
X11289857Y-12281714D01*
X11561286Y-12281714D02*
X11561286Y-12124571D01*
X11547000Y-12096000D01*
X11518428Y-12081714D01*
X11461286Y-12081714D01*
X11432714Y-12096000D01*
X11561286Y-12267429D02*
X11532714Y-12281714D01*
X11461286Y-12281714D01*
X11432714Y-12267429D01*
X11418428Y-12238857D01*
X11418428Y-12210286D01*
X11432714Y-12181714D01*
X11461286Y-12167429D01*
X11532714Y-12167429D01*
X11561286Y-12153143D01*
X11704143Y-12081714D02*
X11704143Y-12381714D01*
X11704143Y-12096000D02*
X11732714Y-12081714D01*
X11789857Y-12081714D01*
X11818428Y-12096000D01*
X11832714Y-12110286D01*
X11847000Y-12138857D01*
X11847000Y-12224571D01*
X11832714Y-12253143D01*
X11818428Y-12267429D01*
X11789857Y-12281714D01*
X11732714Y-12281714D01*
X11704143Y-12267429D01*
X11975571Y-12253143D02*
X11989857Y-12267429D01*
X11975571Y-12281714D01*
X11961286Y-12267429D01*
X11975571Y-12253143D01*
X11975571Y-12281714D01*
X11975571Y-12096000D02*
X11989857Y-12110286D01*
X11975571Y-12124571D01*
X11961286Y-12110286D01*
X11975571Y-12096000D01*
X11975571Y-12124571D01*
X9577000Y-12741000D02*
X9647000Y-12811000D01*
X9647000Y-12741000D02*
X9577000Y-12811000D01*
X9975571Y-12611714D02*
X10004143Y-12611714D01*
X10032714Y-12626000D01*
X10047000Y-12640286D01*
X10061286Y-12668857D01*
X10075571Y-12726000D01*
X10075571Y-12797429D01*
X10061286Y-12854571D01*
X10047000Y-12883143D01*
X10032714Y-12897429D01*
X10004143Y-12911714D01*
X9975571Y-12911714D01*
X9947000Y-12897429D01*
X9932714Y-12883143D01*
X9918429Y-12854571D01*
X9904143Y-12797429D01*
X9904143Y-12726000D01*
X9918429Y-12668857D01*
X9932714Y-12640286D01*
X9947000Y-12626000D01*
X9975571Y-12611714D01*
X10204143Y-12883143D02*
X10218429Y-12897429D01*
X10204143Y-12911714D01*
X10189857Y-12897429D01*
X10204143Y-12883143D01*
X10204143Y-12911714D01*
X10318428Y-12611714D02*
X10518428Y-12611714D01*
X10389857Y-12911714D01*
X10689857Y-12611714D02*
X10718429Y-12611714D01*
X10747000Y-12626000D01*
X10761286Y-12640286D01*
X10775571Y-12668857D01*
X10789857Y-12726000D01*
X10789857Y-12797429D01*
X10775571Y-12854571D01*
X10761286Y-12883143D01*
X10747000Y-12897429D01*
X10718429Y-12911714D01*
X10689857Y-12911714D01*
X10661286Y-12897429D01*
X10647000Y-12883143D01*
X10632714Y-12854571D01*
X10618429Y-12797429D01*
X10618429Y-12726000D01*
X10632714Y-12668857D01*
X10647000Y-12640286D01*
X10661286Y-12626000D01*
X10689857Y-12611714D01*
X10918429Y-12911714D02*
X10918429Y-12711714D01*
X10918429Y-12740286D02*
X10932714Y-12726000D01*
X10961286Y-12711714D01*
X11004143Y-12711714D01*
X11032714Y-12726000D01*
X11047000Y-12754571D01*
X11047000Y-12911714D01*
X11047000Y-12754571D02*
X11061286Y-12726000D01*
X11089857Y-12711714D01*
X11132714Y-12711714D01*
X11161286Y-12726000D01*
X11175571Y-12754571D01*
X11175571Y-12911714D01*
X11318428Y-12911714D02*
X11318428Y-12711714D01*
X11318428Y-12740286D02*
X11332714Y-12726000D01*
X11361286Y-12711714D01*
X11404143Y-12711714D01*
X11432714Y-12726000D01*
X11447000Y-12754571D01*
X11447000Y-12911714D01*
X11447000Y-12754571D02*
X11461286Y-12726000D01*
X11489857Y-12711714D01*
X11532714Y-12711714D01*
X11561286Y-12726000D01*
X11575571Y-12754571D01*
X11575571Y-12911714D01*
X12161286Y-12597429D02*
X11904143Y-12983143D01*
X12547000Y-12611714D02*
X12575571Y-12611714D01*
X12604143Y-12626000D01*
X12618428Y-12640286D01*
X12632714Y-12668857D01*
X12647000Y-12726000D01*
X12647000Y-12797429D01*
X12632714Y-12854571D01*
X12618428Y-12883143D01*
X12604143Y-12897429D01*
X12575571Y-12911714D01*
X12547000Y-12911714D01*
X12518428Y-12897429D01*
X12504143Y-12883143D01*
X12489857Y-12854571D01*
X12475571Y-12797429D01*
X12475571Y-12726000D01*
X12489857Y-12668857D01*
X12504143Y-12640286D01*
X12518428Y-12626000D01*
X12547000Y-12611714D01*
X12775571Y-12883143D02*
X12789857Y-12897429D01*
X12775571Y-12911714D01*
X12761286Y-12897429D01*
X12775571Y-12883143D01*
X12775571Y-12911714D01*
X12975571Y-12611714D02*
X13004143Y-12611714D01*
X13032714Y-12626000D01*
X13047000Y-12640286D01*
X13061285Y-12668857D01*
X13075571Y-12726000D01*
X13075571Y-12797429D01*
X13061285Y-12854571D01*
X13047000Y-12883143D01*
X13032714Y-12897429D01*
X13004143Y-12911714D01*
X12975571Y-12911714D01*
X12947000Y-12897429D01*
X12932714Y-12883143D01*
X12918428Y-12854571D01*
X12904143Y-12797429D01*
X12904143Y-12726000D01*
X12918428Y-12668857D01*
X12932714Y-12640286D01*
X12947000Y-12626000D01*
X12975571Y-12611714D01*
X13189857Y-12640286D02*
X13204143Y-12626000D01*
X13232714Y-12611714D01*
X13304143Y-12611714D01*
X13332714Y-12626000D01*
X13347000Y-12640286D01*
X13361285Y-12668857D01*
X13361285Y-12697429D01*
X13347000Y-12740286D01*
X13175571Y-12911714D01*
X13361285Y-12911714D01*
X13532714Y-12740286D02*
X13504143Y-12726000D01*
X13489857Y-12711714D01*
X13475571Y-12683143D01*
X13475571Y-12668857D01*
X13489857Y-12640286D01*
X13504143Y-12626000D01*
X13532714Y-12611714D01*
X13589857Y-12611714D01*
X13618428Y-12626000D01*
X13632714Y-12640286D01*
X13647000Y-12668857D01*
X13647000Y-12683143D01*
X13632714Y-12711714D01*
X13618428Y-12726000D01*
X13589857Y-12740286D01*
X13532714Y-12740286D01*
X13504143Y-12754571D01*
X13489857Y-12768857D01*
X13475571Y-12797429D01*
X13475571Y-12854571D01*
X13489857Y-12883143D01*
X13504143Y-12897429D01*
X13532714Y-12911714D01*
X13589857Y-12911714D01*
X13618428Y-12897429D01*
X13632714Y-12883143D01*
X13647000Y-12854571D01*
X13647000Y-12797429D01*
X13632714Y-12768857D01*
X13618428Y-12754571D01*
X13589857Y-12740286D01*
X13761286Y-12611714D02*
X13761286Y-12668857D01*
X13875571Y-12611714D02*
X13875571Y-12668857D01*
X14318428Y-13026000D02*
X14304143Y-13011714D01*
X14275571Y-12968857D01*
X14261285Y-12940286D01*
X14247000Y-12897429D01*
X14232714Y-12826000D01*
X14232714Y-12768857D01*
X14247000Y-12697429D01*
X14261285Y-12654571D01*
X14275571Y-12626000D01*
X14304143Y-12583143D01*
X14318428Y-12568857D01*
X14404143Y-12611714D02*
X14589857Y-12611714D01*
X14489857Y-12726000D01*
X14532714Y-12726000D01*
X14561285Y-12740286D01*
X14575571Y-12754571D01*
X14589857Y-12783143D01*
X14589857Y-12854571D01*
X14575571Y-12883143D01*
X14561285Y-12897429D01*
X14532714Y-12911714D01*
X14447000Y-12911714D01*
X14418428Y-12897429D01*
X14404143Y-12883143D01*
X14861285Y-12611714D02*
X14718428Y-12611714D01*
X14704143Y-12754571D01*
X14718428Y-12740286D01*
X14747000Y-12726000D01*
X14818428Y-12726000D01*
X14847000Y-12740286D01*
X14861285Y-12754571D01*
X14875571Y-12783143D01*
X14875571Y-12854571D01*
X14861285Y-12883143D01*
X14847000Y-12897429D01*
X14818428Y-12911714D01*
X14747000Y-12911714D01*
X14718428Y-12897429D01*
X14704143Y-12883143D01*
X15232714Y-12911714D02*
X15232714Y-12611714D01*
X15361285Y-12911714D02*
X15361285Y-12754571D01*
X15347000Y-12726000D01*
X15318428Y-12711714D01*
X15275571Y-12711714D01*
X15247000Y-12726000D01*
X15232714Y-12740286D01*
X15547000Y-12911714D02*
X15518428Y-12897429D01*
X15504143Y-12883143D01*
X15489857Y-12854571D01*
X15489857Y-12768857D01*
X15504143Y-12740286D01*
X15518428Y-12726000D01*
X15547000Y-12711714D01*
X15589857Y-12711714D01*
X15618428Y-12726000D01*
X15632714Y-12740286D01*
X15647000Y-12768857D01*
X15647000Y-12854571D01*
X15632714Y-12883143D01*
X15618428Y-12897429D01*
X15589857Y-12911714D01*
X15547000Y-12911714D01*
X15818428Y-12911714D02*
X15789857Y-12897429D01*
X15775571Y-12868857D01*
X15775571Y-12611714D01*
X16047000Y-12897429D02*
X16018428Y-12911714D01*
X15961286Y-12911714D01*
X15932714Y-12897429D01*
X15918428Y-12868857D01*
X15918428Y-12754571D01*
X15932714Y-12726000D01*
X15961286Y-12711714D01*
X16018428Y-12711714D01*
X16047000Y-12726000D01*
X16061286Y-12754571D01*
X16061286Y-12783143D01*
X15918428Y-12811714D01*
X16175571Y-12897429D02*
X16204143Y-12911714D01*
X16261286Y-12911714D01*
X16289857Y-12897429D01*
X16304143Y-12868857D01*
X16304143Y-12854571D01*
X16289857Y-12826000D01*
X16261286Y-12811714D01*
X16218428Y-12811714D01*
X16189857Y-12797429D01*
X16175571Y-12768857D01*
X16175571Y-12754571D01*
X16189857Y-12726000D01*
X16218428Y-12711714D01*
X16261286Y-12711714D01*
X16289857Y-12726000D01*
X16404143Y-13026000D02*
X16418428Y-13011714D01*
X16447000Y-12968857D01*
X16461286Y-12940286D01*
X16475571Y-12897429D01*
X16489857Y-12826000D01*
X16489857Y-12768857D01*
X16475571Y-12697429D01*
X16461286Y-12654571D01*
X16447000Y-12626000D01*
X16418428Y-12583143D01*
X16404143Y-12568857D01*
X9647000Y-13172000D02*
G75*
G03X9647000Y-13172000I-45000J0D01*
G01*
X9975571Y-13007714D02*
X10004143Y-13007714D01*
X10032714Y-13022000D01*
X10047000Y-13036286D01*
X10061286Y-13064857D01*
X10075571Y-13122000D01*
X10075571Y-13193429D01*
X10061286Y-13250571D01*
X10047000Y-13279143D01*
X10032714Y-13293429D01*
X10004143Y-13307714D01*
X9975571Y-13307714D01*
X9947000Y-13293429D01*
X9932714Y-13279143D01*
X9918429Y-13250571D01*
X9904143Y-13193429D01*
X9904143Y-13122000D01*
X9918429Y-13064857D01*
X9932714Y-13036286D01*
X9947000Y-13022000D01*
X9975571Y-13007714D01*
X10204143Y-13279143D02*
X10218429Y-13293429D01*
X10204143Y-13307714D01*
X10189857Y-13293429D01*
X10204143Y-13279143D01*
X10204143Y-13307714D01*
X10361286Y-13307714D02*
X10418428Y-13307714D01*
X10447000Y-13293429D01*
X10461286Y-13279143D01*
X10489857Y-13236286D01*
X10504143Y-13179143D01*
X10504143Y-13064857D01*
X10489857Y-13036286D01*
X10475571Y-13022000D01*
X10447000Y-13007714D01*
X10389857Y-13007714D01*
X10361286Y-13022000D01*
X10347000Y-13036286D01*
X10332714Y-13064857D01*
X10332714Y-13136286D01*
X10347000Y-13164857D01*
X10361286Y-13179143D01*
X10389857Y-13193429D01*
X10447000Y-13193429D01*
X10475571Y-13179143D01*
X10489857Y-13164857D01*
X10504143Y-13136286D01*
X10689857Y-13007714D02*
X10718429Y-13007714D01*
X10747000Y-13022000D01*
X10761286Y-13036286D01*
X10775571Y-13064857D01*
X10789857Y-13122000D01*
X10789857Y-13193429D01*
X10775571Y-13250571D01*
X10761286Y-13279143D01*
X10747000Y-13293429D01*
X10718429Y-13307714D01*
X10689857Y-13307714D01*
X10661286Y-13293429D01*
X10647000Y-13279143D01*
X10632714Y-13250571D01*
X10618429Y-13193429D01*
X10618429Y-13122000D01*
X10632714Y-13064857D01*
X10647000Y-13036286D01*
X10661286Y-13022000D01*
X10689857Y-13007714D01*
X10918429Y-13307714D02*
X10918429Y-13107714D01*
X10918429Y-13136286D02*
X10932714Y-13122000D01*
X10961286Y-13107714D01*
X11004143Y-13107714D01*
X11032714Y-13122000D01*
X11047000Y-13150571D01*
X11047000Y-13307714D01*
X11047000Y-13150571D02*
X11061286Y-13122000D01*
X11089857Y-13107714D01*
X11132714Y-13107714D01*
X11161286Y-13122000D01*
X11175571Y-13150571D01*
X11175571Y-13307714D01*
X11318428Y-13307714D02*
X11318428Y-13107714D01*
X11318428Y-13136286D02*
X11332714Y-13122000D01*
X11361286Y-13107714D01*
X11404143Y-13107714D01*
X11432714Y-13122000D01*
X11447000Y-13150571D01*
X11447000Y-13307714D01*
X11447000Y-13150571D02*
X11461286Y-13122000D01*
X11489857Y-13107714D01*
X11532714Y-13107714D01*
X11561286Y-13122000D01*
X11575571Y-13150571D01*
X11575571Y-13307714D01*
X12161286Y-12993429D02*
X11904143Y-13379143D01*
X12547000Y-13007714D02*
X12575571Y-13007714D01*
X12604143Y-13022000D01*
X12618428Y-13036286D01*
X12632714Y-13064857D01*
X12647000Y-13122000D01*
X12647000Y-13193429D01*
X12632714Y-13250571D01*
X12618428Y-13279143D01*
X12604143Y-13293429D01*
X12575571Y-13307714D01*
X12547000Y-13307714D01*
X12518428Y-13293429D01*
X12504143Y-13279143D01*
X12489857Y-13250571D01*
X12475571Y-13193429D01*
X12475571Y-13122000D01*
X12489857Y-13064857D01*
X12504143Y-13036286D01*
X12518428Y-13022000D01*
X12547000Y-13007714D01*
X12775571Y-13279143D02*
X12789857Y-13293429D01*
X12775571Y-13307714D01*
X12761286Y-13293429D01*
X12775571Y-13279143D01*
X12775571Y-13307714D01*
X12975571Y-13007714D02*
X13004143Y-13007714D01*
X13032714Y-13022000D01*
X13047000Y-13036286D01*
X13061285Y-13064857D01*
X13075571Y-13122000D01*
X13075571Y-13193429D01*
X13061285Y-13250571D01*
X13047000Y-13279143D01*
X13032714Y-13293429D01*
X13004143Y-13307714D01*
X12975571Y-13307714D01*
X12947000Y-13293429D01*
X12932714Y-13279143D01*
X12918428Y-13250571D01*
X12904143Y-13193429D01*
X12904143Y-13122000D01*
X12918428Y-13064857D01*
X12932714Y-13036286D01*
X12947000Y-13022000D01*
X12975571Y-13007714D01*
X13175571Y-13007714D02*
X13361285Y-13007714D01*
X13261285Y-13122000D01*
X13304143Y-13122000D01*
X13332714Y-13136286D01*
X13347000Y-13150571D01*
X13361285Y-13179143D01*
X13361285Y-13250571D01*
X13347000Y-13279143D01*
X13332714Y-13293429D01*
X13304143Y-13307714D01*
X13218428Y-13307714D01*
X13189857Y-13293429D01*
X13175571Y-13279143D01*
X13632714Y-13007714D02*
X13489857Y-13007714D01*
X13475571Y-13150571D01*
X13489857Y-13136286D01*
X13518428Y-13122000D01*
X13589857Y-13122000D01*
X13618428Y-13136286D01*
X13632714Y-13150571D01*
X13647000Y-13179143D01*
X13647000Y-13250571D01*
X13632714Y-13279143D01*
X13618428Y-13293429D01*
X13589857Y-13307714D01*
X13518428Y-13307714D01*
X13489857Y-13293429D01*
X13475571Y-13279143D01*
X13761286Y-13007714D02*
X13761286Y-13064857D01*
X13875571Y-13007714D02*
X13875571Y-13064857D01*
X14318428Y-13422000D02*
X14304143Y-13407714D01*
X14275571Y-13364857D01*
X14261285Y-13336286D01*
X14247000Y-13293429D01*
X14232714Y-13222000D01*
X14232714Y-13164857D01*
X14247000Y-13093429D01*
X14261285Y-13050571D01*
X14275571Y-13022000D01*
X14304143Y-12979143D01*
X14318428Y-12964857D01*
X14404143Y-13007714D02*
X14589857Y-13007714D01*
X14489857Y-13122000D01*
X14532714Y-13122000D01*
X14561285Y-13136286D01*
X14575571Y-13150571D01*
X14589857Y-13179143D01*
X14589857Y-13250571D01*
X14575571Y-13279143D01*
X14561285Y-13293429D01*
X14532714Y-13307714D01*
X14447000Y-13307714D01*
X14418428Y-13293429D01*
X14404143Y-13279143D01*
X14861285Y-13007714D02*
X14718428Y-13007714D01*
X14704143Y-13150571D01*
X14718428Y-13136286D01*
X14747000Y-13122000D01*
X14818428Y-13122000D01*
X14847000Y-13136286D01*
X14861285Y-13150571D01*
X14875571Y-13179143D01*
X14875571Y-13250571D01*
X14861285Y-13279143D01*
X14847000Y-13293429D01*
X14818428Y-13307714D01*
X14747000Y-13307714D01*
X14718428Y-13293429D01*
X14704143Y-13279143D01*
X15232714Y-13307714D02*
X15232714Y-13007714D01*
X15361285Y-13307714D02*
X15361285Y-13150571D01*
X15347000Y-13122000D01*
X15318428Y-13107714D01*
X15275571Y-13107714D01*
X15247000Y-13122000D01*
X15232714Y-13136286D01*
X15547000Y-13307714D02*
X15518428Y-13293429D01*
X15504143Y-13279143D01*
X15489857Y-13250571D01*
X15489857Y-13164857D01*
X15504143Y-13136286D01*
X15518428Y-13122000D01*
X15547000Y-13107714D01*
X15589857Y-13107714D01*
X15618428Y-13122000D01*
X15632714Y-13136286D01*
X15647000Y-13164857D01*
X15647000Y-13250571D01*
X15632714Y-13279143D01*
X15618428Y-13293429D01*
X15589857Y-13307714D01*
X15547000Y-13307714D01*
X15818428Y-13307714D02*
X15789857Y-13293429D01*
X15775571Y-13264857D01*
X15775571Y-13007714D01*
X16047000Y-13293429D02*
X16018428Y-13307714D01*
X15961286Y-13307714D01*
X15932714Y-13293429D01*
X15918428Y-13264857D01*
X15918428Y-13150571D01*
X15932714Y-13122000D01*
X15961286Y-13107714D01*
X16018428Y-13107714D01*
X16047000Y-13122000D01*
X16061286Y-13150571D01*
X16061286Y-13179143D01*
X15918428Y-13207714D01*
X16175571Y-13293429D02*
X16204143Y-13307714D01*
X16261286Y-13307714D01*
X16289857Y-13293429D01*
X16304143Y-13264857D01*
X16304143Y-13250571D01*
X16289857Y-13222000D01*
X16261286Y-13207714D01*
X16218428Y-13207714D01*
X16189857Y-13193429D01*
X16175571Y-13164857D01*
X16175571Y-13150571D01*
X16189857Y-13122000D01*
X16218428Y-13107714D01*
X16261286Y-13107714D01*
X16289857Y-13122000D01*
X16404143Y-13422000D02*
X16418428Y-13407714D01*
X16447000Y-13364857D01*
X16461286Y-13336286D01*
X16475571Y-13293429D01*
X16489857Y-13222000D01*
X16489857Y-13164857D01*
X16475571Y-13093429D01*
X16461286Y-13050571D01*
X16447000Y-13022000D01*
X16418428Y-12979143D01*
X16404143Y-12964857D01*
X9597000Y-13518000D02*
X9597000Y-13618000D01*
X9547000Y-13568000D02*
X9647000Y-13568000D01*
X10075571Y-13703714D02*
X9904143Y-13703714D01*
X9989857Y-13703714D02*
X9989857Y-13403714D01*
X9961286Y-13446571D01*
X9932714Y-13475143D01*
X9904143Y-13489429D01*
X10204143Y-13675143D02*
X10218429Y-13689429D01*
X10204143Y-13703714D01*
X10189857Y-13689429D01*
X10204143Y-13675143D01*
X10204143Y-13703714D01*
X10404143Y-13403714D02*
X10432714Y-13403714D01*
X10461286Y-13418000D01*
X10475571Y-13432286D01*
X10489857Y-13460857D01*
X10504143Y-13518000D01*
X10504143Y-13589429D01*
X10489857Y-13646571D01*
X10475571Y-13675143D01*
X10461286Y-13689429D01*
X10432714Y-13703714D01*
X10404143Y-13703714D01*
X10375571Y-13689429D01*
X10361286Y-13675143D01*
X10347000Y-13646571D01*
X10332714Y-13589429D01*
X10332714Y-13518000D01*
X10347000Y-13460857D01*
X10361286Y-13432286D01*
X10375571Y-13418000D01*
X10404143Y-13403714D01*
X10689857Y-13403714D02*
X10718429Y-13403714D01*
X10747000Y-13418000D01*
X10761286Y-13432286D01*
X10775571Y-13460857D01*
X10789857Y-13518000D01*
X10789857Y-13589429D01*
X10775571Y-13646571D01*
X10761286Y-13675143D01*
X10747000Y-13689429D01*
X10718429Y-13703714D01*
X10689857Y-13703714D01*
X10661286Y-13689429D01*
X10647000Y-13675143D01*
X10632714Y-13646571D01*
X10618429Y-13589429D01*
X10618429Y-13518000D01*
X10632714Y-13460857D01*
X10647000Y-13432286D01*
X10661286Y-13418000D01*
X10689857Y-13403714D01*
X10918429Y-13703714D02*
X10918429Y-13503714D01*
X10918429Y-13532286D02*
X10932714Y-13518000D01*
X10961286Y-13503714D01*
X11004143Y-13503714D01*
X11032714Y-13518000D01*
X11047000Y-13546571D01*
X11047000Y-13703714D01*
X11047000Y-13546571D02*
X11061286Y-13518000D01*
X11089857Y-13503714D01*
X11132714Y-13503714D01*
X11161286Y-13518000D01*
X11175571Y-13546571D01*
X11175571Y-13703714D01*
X11318428Y-13703714D02*
X11318428Y-13503714D01*
X11318428Y-13532286D02*
X11332714Y-13518000D01*
X11361286Y-13503714D01*
X11404143Y-13503714D01*
X11432714Y-13518000D01*
X11447000Y-13546571D01*
X11447000Y-13703714D01*
X11447000Y-13546571D02*
X11461286Y-13518000D01*
X11489857Y-13503714D01*
X11532714Y-13503714D01*
X11561286Y-13518000D01*
X11575571Y-13546571D01*
X11575571Y-13703714D01*
X12161286Y-13389429D02*
X11904143Y-13775143D01*
X12547000Y-13403714D02*
X12575571Y-13403714D01*
X12604143Y-13418000D01*
X12618428Y-13432286D01*
X12632714Y-13460857D01*
X12647000Y-13518000D01*
X12647000Y-13589429D01*
X12632714Y-13646571D01*
X12618428Y-13675143D01*
X12604143Y-13689429D01*
X12575571Y-13703714D01*
X12547000Y-13703714D01*
X12518428Y-13689429D01*
X12504143Y-13675143D01*
X12489857Y-13646571D01*
X12475571Y-13589429D01*
X12475571Y-13518000D01*
X12489857Y-13460857D01*
X12504143Y-13432286D01*
X12518428Y-13418000D01*
X12547000Y-13403714D01*
X12775571Y-13675143D02*
X12789857Y-13689429D01*
X12775571Y-13703714D01*
X12761286Y-13689429D01*
X12775571Y-13675143D01*
X12775571Y-13703714D01*
X12975571Y-13403714D02*
X13004143Y-13403714D01*
X13032714Y-13418000D01*
X13047000Y-13432286D01*
X13061285Y-13460857D01*
X13075571Y-13518000D01*
X13075571Y-13589429D01*
X13061285Y-13646571D01*
X13047000Y-13675143D01*
X13032714Y-13689429D01*
X13004143Y-13703714D01*
X12975571Y-13703714D01*
X12947000Y-13689429D01*
X12932714Y-13675143D01*
X12918428Y-13646571D01*
X12904143Y-13589429D01*
X12904143Y-13518000D01*
X12918428Y-13460857D01*
X12932714Y-13432286D01*
X12947000Y-13418000D01*
X12975571Y-13403714D01*
X13175571Y-13403714D02*
X13361285Y-13403714D01*
X13261285Y-13518000D01*
X13304143Y-13518000D01*
X13332714Y-13532286D01*
X13347000Y-13546571D01*
X13361285Y-13575143D01*
X13361285Y-13646571D01*
X13347000Y-13675143D01*
X13332714Y-13689429D01*
X13304143Y-13703714D01*
X13218428Y-13703714D01*
X13189857Y-13689429D01*
X13175571Y-13675143D01*
X13504143Y-13703714D02*
X13561285Y-13703714D01*
X13589857Y-13689429D01*
X13604143Y-13675143D01*
X13632714Y-13632286D01*
X13647000Y-13575143D01*
X13647000Y-13460857D01*
X13632714Y-13432286D01*
X13618428Y-13418000D01*
X13589857Y-13403714D01*
X13532714Y-13403714D01*
X13504143Y-13418000D01*
X13489857Y-13432286D01*
X13475571Y-13460857D01*
X13475571Y-13532286D01*
X13489857Y-13560857D01*
X13504143Y-13575143D01*
X13532714Y-13589429D01*
X13589857Y-13589429D01*
X13618428Y-13575143D01*
X13632714Y-13560857D01*
X13647000Y-13532286D01*
X13761286Y-13403714D02*
X13761286Y-13460857D01*
X13875571Y-13403714D02*
X13875571Y-13460857D01*
X14318428Y-13818000D02*
X14304143Y-13803714D01*
X14275571Y-13760857D01*
X14261285Y-13732286D01*
X14247000Y-13689429D01*
X14232714Y-13618000D01*
X14232714Y-13560857D01*
X14247000Y-13489429D01*
X14261285Y-13446571D01*
X14275571Y-13418000D01*
X14304143Y-13375143D01*
X14318428Y-13360857D01*
X14447000Y-13703714D02*
X14504143Y-13703714D01*
X14532714Y-13689429D01*
X14547000Y-13675143D01*
X14575571Y-13632286D01*
X14589857Y-13575143D01*
X14589857Y-13460857D01*
X14575571Y-13432286D01*
X14561285Y-13418000D01*
X14532714Y-13403714D01*
X14475571Y-13403714D01*
X14447000Y-13418000D01*
X14432714Y-13432286D01*
X14418428Y-13460857D01*
X14418428Y-13532286D01*
X14432714Y-13560857D01*
X14447000Y-13575143D01*
X14475571Y-13589429D01*
X14532714Y-13589429D01*
X14561285Y-13575143D01*
X14575571Y-13560857D01*
X14589857Y-13532286D01*
X14947000Y-13703714D02*
X14947000Y-13403714D01*
X15075571Y-13703714D02*
X15075571Y-13546571D01*
X15061285Y-13518000D01*
X15032714Y-13503714D01*
X14989857Y-13503714D01*
X14961285Y-13518000D01*
X14947000Y-13532286D01*
X15261285Y-13703714D02*
X15232714Y-13689429D01*
X15218428Y-13675143D01*
X15204143Y-13646571D01*
X15204143Y-13560857D01*
X15218428Y-13532286D01*
X15232714Y-13518000D01*
X15261285Y-13503714D01*
X15304143Y-13503714D01*
X15332714Y-13518000D01*
X15347000Y-13532286D01*
X15361285Y-13560857D01*
X15361285Y-13646571D01*
X15347000Y-13675143D01*
X15332714Y-13689429D01*
X15304143Y-13703714D01*
X15261285Y-13703714D01*
X15532714Y-13703714D02*
X15504143Y-13689429D01*
X15489857Y-13660857D01*
X15489857Y-13403714D01*
X15761286Y-13689429D02*
X15732714Y-13703714D01*
X15675571Y-13703714D01*
X15647000Y-13689429D01*
X15632714Y-13660857D01*
X15632714Y-13546571D01*
X15647000Y-13518000D01*
X15675571Y-13503714D01*
X15732714Y-13503714D01*
X15761286Y-13518000D01*
X15775571Y-13546571D01*
X15775571Y-13575143D01*
X15632714Y-13603714D01*
X15889857Y-13689429D02*
X15918428Y-13703714D01*
X15975571Y-13703714D01*
X16004143Y-13689429D01*
X16018428Y-13660857D01*
X16018428Y-13646571D01*
X16004143Y-13618000D01*
X15975571Y-13603714D01*
X15932714Y-13603714D01*
X15904143Y-13589429D01*
X15889857Y-13560857D01*
X15889857Y-13546571D01*
X15904143Y-13518000D01*
X15932714Y-13503714D01*
X15975571Y-13503714D01*
X16004143Y-13518000D01*
X16118428Y-13818000D02*
X16132714Y-13803714D01*
X16161286Y-13760857D01*
X16175571Y-13732286D01*
X16189857Y-13689429D01*
X16204143Y-13618000D01*
X16204143Y-13560857D01*
X16189857Y-13489429D01*
X16175571Y-13446571D01*
X16161286Y-13418000D01*
X16132714Y-13375143D01*
X16118428Y-13360857D01*
X9600138Y-14077138D02*
X9600138Y-13850862D01*
X9373862Y-13850862D01*
X9373862Y-14077138D01*
X9600138Y-14077138D01*
X9889857Y-13799714D02*
X10075571Y-13799714D01*
X9975571Y-13914000D01*
X10018429Y-13914000D01*
X10047000Y-13928286D01*
X10061286Y-13942571D01*
X10075571Y-13971143D01*
X10075571Y-14042571D01*
X10061286Y-14071143D01*
X10047000Y-14085429D01*
X10018429Y-14099714D01*
X9932714Y-14099714D01*
X9904143Y-14085429D01*
X9889857Y-14071143D01*
X10204143Y-14071143D02*
X10218429Y-14085429D01*
X10204143Y-14099714D01*
X10189857Y-14085429D01*
X10204143Y-14071143D01*
X10204143Y-14099714D01*
X10332714Y-13828286D02*
X10347000Y-13814000D01*
X10375571Y-13799714D01*
X10447000Y-13799714D01*
X10475571Y-13814000D01*
X10489857Y-13828286D01*
X10504143Y-13856857D01*
X10504143Y-13885429D01*
X10489857Y-13928286D01*
X10318428Y-14099714D01*
X10504143Y-14099714D01*
X10689857Y-13799714D02*
X10718429Y-13799714D01*
X10747000Y-13814000D01*
X10761286Y-13828286D01*
X10775571Y-13856857D01*
X10789857Y-13914000D01*
X10789857Y-13985429D01*
X10775571Y-14042571D01*
X10761286Y-14071143D01*
X10747000Y-14085429D01*
X10718429Y-14099714D01*
X10689857Y-14099714D01*
X10661286Y-14085429D01*
X10647000Y-14071143D01*
X10632714Y-14042571D01*
X10618429Y-13985429D01*
X10618429Y-13914000D01*
X10632714Y-13856857D01*
X10647000Y-13828286D01*
X10661286Y-13814000D01*
X10689857Y-13799714D01*
X10918429Y-14099714D02*
X10918429Y-13899714D01*
X10918429Y-13928286D02*
X10932714Y-13914000D01*
X10961286Y-13899714D01*
X11004143Y-13899714D01*
X11032714Y-13914000D01*
X11047000Y-13942571D01*
X11047000Y-14099714D01*
X11047000Y-13942571D02*
X11061286Y-13914000D01*
X11089857Y-13899714D01*
X11132714Y-13899714D01*
X11161286Y-13914000D01*
X11175571Y-13942571D01*
X11175571Y-14099714D01*
X11318428Y-14099714D02*
X11318428Y-13899714D01*
X11318428Y-13928286D02*
X11332714Y-13914000D01*
X11361286Y-13899714D01*
X11404143Y-13899714D01*
X11432714Y-13914000D01*
X11447000Y-13942571D01*
X11447000Y-14099714D01*
X11447000Y-13942571D02*
X11461286Y-13914000D01*
X11489857Y-13899714D01*
X11532714Y-13899714D01*
X11561286Y-13914000D01*
X11575571Y-13942571D01*
X11575571Y-14099714D01*
X12161286Y-13785429D02*
X11904143Y-14171143D01*
X12547000Y-13799714D02*
X12575571Y-13799714D01*
X12604143Y-13814000D01*
X12618428Y-13828286D01*
X12632714Y-13856857D01*
X12647000Y-13914000D01*
X12647000Y-13985429D01*
X12632714Y-14042571D01*
X12618428Y-14071143D01*
X12604143Y-14085429D01*
X12575571Y-14099714D01*
X12547000Y-14099714D01*
X12518428Y-14085429D01*
X12504143Y-14071143D01*
X12489857Y-14042571D01*
X12475571Y-13985429D01*
X12475571Y-13914000D01*
X12489857Y-13856857D01*
X12504143Y-13828286D01*
X12518428Y-13814000D01*
X12547000Y-13799714D01*
X12775571Y-14071143D02*
X12789857Y-14085429D01*
X12775571Y-14099714D01*
X12761286Y-14085429D01*
X12775571Y-14071143D01*
X12775571Y-14099714D01*
X13075571Y-14099714D02*
X12904143Y-14099714D01*
X12989857Y-14099714D02*
X12989857Y-13799714D01*
X12961285Y-13842571D01*
X12932714Y-13871143D01*
X12904143Y-13885429D01*
X13189857Y-13828286D02*
X13204143Y-13814000D01*
X13232714Y-13799714D01*
X13304143Y-13799714D01*
X13332714Y-13814000D01*
X13347000Y-13828286D01*
X13361285Y-13856857D01*
X13361285Y-13885429D01*
X13347000Y-13928286D01*
X13175571Y-14099714D01*
X13361285Y-14099714D01*
X13618428Y-13799714D02*
X13561285Y-13799714D01*
X13532714Y-13814000D01*
X13518428Y-13828286D01*
X13489857Y-13871143D01*
X13475571Y-13928286D01*
X13475571Y-14042571D01*
X13489857Y-14071143D01*
X13504143Y-14085429D01*
X13532714Y-14099714D01*
X13589857Y-14099714D01*
X13618428Y-14085429D01*
X13632714Y-14071143D01*
X13647000Y-14042571D01*
X13647000Y-13971143D01*
X13632714Y-13942571D01*
X13618428Y-13928286D01*
X13589857Y-13914000D01*
X13532714Y-13914000D01*
X13504143Y-13928286D01*
X13489857Y-13942571D01*
X13475571Y-13971143D01*
X13761286Y-13799714D02*
X13761286Y-13856857D01*
X13875571Y-13799714D02*
X13875571Y-13856857D01*
X14318428Y-14214000D02*
X14304143Y-14199714D01*
X14275571Y-14156857D01*
X14261285Y-14128286D01*
X14247000Y-14085429D01*
X14232714Y-14014000D01*
X14232714Y-13956857D01*
X14247000Y-13885429D01*
X14261285Y-13842571D01*
X14275571Y-13814000D01*
X14304143Y-13771143D01*
X14318428Y-13756857D01*
X14561285Y-13899714D02*
X14561285Y-14099714D01*
X14489857Y-13785429D02*
X14418428Y-13999714D01*
X14604143Y-13999714D01*
X14947000Y-14099714D02*
X14947000Y-13799714D01*
X15075571Y-14099714D02*
X15075571Y-13942571D01*
X15061285Y-13914000D01*
X15032714Y-13899714D01*
X14989857Y-13899714D01*
X14961285Y-13914000D01*
X14947000Y-13928286D01*
X15261285Y-14099714D02*
X15232714Y-14085429D01*
X15218428Y-14071143D01*
X15204143Y-14042571D01*
X15204143Y-13956857D01*
X15218428Y-13928286D01*
X15232714Y-13914000D01*
X15261285Y-13899714D01*
X15304143Y-13899714D01*
X15332714Y-13914000D01*
X15347000Y-13928286D01*
X15361285Y-13956857D01*
X15361285Y-14042571D01*
X15347000Y-14071143D01*
X15332714Y-14085429D01*
X15304143Y-14099714D01*
X15261285Y-14099714D01*
X15532714Y-14099714D02*
X15504143Y-14085429D01*
X15489857Y-14056857D01*
X15489857Y-13799714D01*
X15761286Y-14085429D02*
X15732714Y-14099714D01*
X15675571Y-14099714D01*
X15647000Y-14085429D01*
X15632714Y-14056857D01*
X15632714Y-13942571D01*
X15647000Y-13914000D01*
X15675571Y-13899714D01*
X15732714Y-13899714D01*
X15761286Y-13914000D01*
X15775571Y-13942571D01*
X15775571Y-13971143D01*
X15632714Y-13999714D01*
X15889857Y-14085429D02*
X15918428Y-14099714D01*
X15975571Y-14099714D01*
X16004143Y-14085429D01*
X16018428Y-14056857D01*
X16018428Y-14042571D01*
X16004143Y-14014000D01*
X15975571Y-13999714D01*
X15932714Y-13999714D01*
X15904143Y-13985429D01*
X15889857Y-13956857D01*
X15889857Y-13942571D01*
X15904143Y-13914000D01*
X15932714Y-13899714D01*
X15975571Y-13899714D01*
X16004143Y-13914000D01*
X16118428Y-14214000D02*
X16132714Y-14199714D01*
X16161286Y-14156857D01*
X16175571Y-14128286D01*
X16189857Y-14085429D01*
X16204143Y-14014000D01*
X16204143Y-13956857D01*
X16189857Y-13885429D01*
X16175571Y-13842571D01*
X16161286Y-13814000D01*
X16132714Y-13771143D01*
X16118428Y-13756857D01*
M02*
