G04 #@! TF.FileFunction,Copper,L1,Top,Signal*
%FSLAX46Y46*%
G04 Gerber Fmt 4.6, Leading zero omitted, Abs format (unit mm)*
G04 Created by KiCad (PCBNEW 4.0.1-stable) date 11/23/16 13:41:23*
%MOMM*%
G01*
G04 APERTURE LIST*
%ADD10C,0.100000*%
%ADD11C,1.716000*%
%ADD12R,1.916000X1.916000*%
%ADD13C,1.916000*%
%ADD14R,2.016000X2.016000*%
%ADD15C,2.016000*%
%ADD16C,1.662000*%
%ADD17C,3.800000*%
%ADD18C,0.635000*%
%ADD19C,0.304800*%
G04 APERTURE END LIST*
D10*
X96520000Y-57150000D02*
X96520000Y-56515000D01*
X96520000Y-56515000D02*
X96520000Y-57150000D01*
X96520000Y-55880000D02*
X96520000Y-56515000D01*
X151765000Y-55880000D02*
X96520000Y-55880000D01*
X151765000Y-118110000D02*
X151765000Y-55880000D01*
X96520000Y-118110000D02*
X151765000Y-118110000D01*
X96520000Y-56515000D02*
X96520000Y-118110000D01*
D11*
X113284000Y-71882000D03*
X115824000Y-71882000D03*
X118364000Y-71882000D03*
D12*
X112014520Y-101089460D03*
D13*
X122174000Y-101092000D03*
D12*
X112014520Y-103629460D03*
D13*
X122174000Y-103632000D03*
D12*
X112014520Y-106169460D03*
D13*
X122174000Y-106172000D03*
D12*
X112014520Y-108709460D03*
D13*
X122174000Y-108712000D03*
D12*
X130048520Y-101089460D03*
D13*
X140208000Y-101092000D03*
D12*
X130048520Y-103629460D03*
D13*
X140208000Y-103632000D03*
D12*
X130048520Y-106169460D03*
D13*
X140208000Y-106172000D03*
D12*
X130048520Y-108709460D03*
D13*
X140208000Y-108712000D03*
D14*
X106426000Y-103632000D03*
D15*
X106426000Y-101092000D03*
X106426000Y-98552000D03*
D14*
X117602000Y-65024000D03*
D15*
X115062000Y-65024000D03*
D14*
X125984000Y-101092000D03*
D15*
X125984000Y-103632000D03*
X125984000Y-106172000D03*
X125984000Y-108712000D03*
D11*
X128524000Y-68326000D03*
X125984000Y-70993000D03*
X123444000Y-68326000D03*
X127508000Y-74676000D03*
X137668000Y-74676000D03*
X142240000Y-68326000D03*
X132080000Y-68326000D03*
X113284000Y-74676000D03*
X123444000Y-74676000D03*
D13*
X106934000Y-94996000D03*
X106934000Y-72136000D03*
X142748000Y-94996000D03*
X142748000Y-72136000D03*
D11*
X113284000Y-85090000D03*
X115824000Y-85090000D03*
X118364000Y-85090000D03*
X120904000Y-85090000D03*
X123444000Y-85090000D03*
X125984000Y-85090000D03*
X128524000Y-85090000D03*
X131064000Y-85090000D03*
X133604000Y-85090000D03*
X136144000Y-85090000D03*
X136144000Y-77470000D03*
X133604000Y-77470000D03*
X131064000Y-77470000D03*
X128524000Y-77470000D03*
X125984000Y-77470000D03*
X123444000Y-77470000D03*
X120904000Y-77470000D03*
X118364000Y-77470000D03*
X115824000Y-77470000D03*
X113284000Y-77470000D03*
D13*
X117094000Y-94996000D03*
D16*
X118364000Y-89916000D03*
D13*
X119634000Y-94996000D03*
D16*
X120904000Y-89916000D03*
D13*
X122174000Y-94996000D03*
D16*
X123444000Y-89916000D03*
D13*
X124714000Y-94996000D03*
D16*
X125984000Y-89916000D03*
D13*
X127254000Y-94996000D03*
D16*
X128524000Y-89916000D03*
D13*
X129794000Y-94996000D03*
D16*
X131064000Y-89916000D03*
D13*
X132334000Y-94996000D03*
D16*
X133604000Y-89916000D03*
D13*
X134874000Y-94996000D03*
D11*
X139700000Y-64770000D03*
X142240000Y-64770000D03*
X137160000Y-64770000D03*
D17*
X100330000Y-59690000D03*
X147955000Y-59690000D03*
X147955000Y-114300000D03*
X100330000Y-114300000D03*
D18*
X115824000Y-85090000D02*
X115824000Y-85344000D01*
X115824000Y-85344000D02*
X117475000Y-86995000D01*
X123063000Y-86995000D02*
X125984000Y-89916000D01*
X117475000Y-86995000D02*
X123063000Y-86995000D01*
X120904000Y-89916000D02*
X120904000Y-89789000D01*
X120904000Y-89789000D02*
X119380000Y-88265000D01*
X119380000Y-88265000D02*
X116840000Y-88265000D01*
X116840000Y-88265000D02*
X112014520Y-93090480D01*
X112014520Y-93090480D02*
X112014520Y-101089460D01*
X122174000Y-101092000D02*
X119380000Y-101092000D01*
X119380000Y-101092000D02*
X115062000Y-96774000D01*
X115062000Y-96774000D02*
X115062000Y-93218000D01*
X115062000Y-93218000D02*
X118364000Y-89916000D01*
X113284000Y-77470000D02*
X112776000Y-77470000D01*
X112776000Y-77470000D02*
X109220000Y-81026000D01*
X109220000Y-98298000D02*
X106426000Y-101092000D01*
X109220000Y-81026000D02*
X109220000Y-98298000D01*
X136144000Y-85090000D02*
X136144000Y-90170000D01*
X129794000Y-92456000D02*
X127254000Y-94996000D01*
X133858000Y-92456000D02*
X129794000Y-92456000D01*
X136144000Y-90170000D02*
X133858000Y-92456000D01*
D19*
X117602000Y-65024000D02*
X120904000Y-68326000D01*
X120904000Y-68326000D02*
X120904000Y-77470000D01*
X115062000Y-65024000D02*
X115062000Y-68072000D01*
X117094000Y-76200000D02*
X118364000Y-77470000D01*
X117094000Y-70104000D02*
X117094000Y-76200000D01*
X115062000Y-68072000D02*
X117094000Y-70104000D01*
M02*
