G04 #@! TF.FileFunction,Legend,Top*
%FSLAX46Y46*%
G04 Gerber Fmt 4.6, Leading zero omitted, Abs format (unit mm)*
G04 Created by KiCad (PCBNEW 4.0.1-stable) date 11/23/16 13:41:23*
%MOMM*%
G01*
G04 APERTURE LIST*
%ADD10C,0.100000*%
%ADD11C,0.150000*%
G04 APERTURE END LIST*
D10*
X96520000Y-57150000D02*
X96520000Y-56515000D01*
X96520000Y-56515000D02*
X96520000Y-57150000D01*
X96520000Y-55880000D02*
X96520000Y-56515000D01*
X151765000Y-55880000D02*
X96520000Y-55880000D01*
X151765000Y-118110000D02*
X151765000Y-55880000D01*
X96520000Y-118110000D02*
X151765000Y-118110000D01*
X96520000Y-56515000D02*
X96520000Y-118110000D01*
D11*
X117094000Y-70612000D02*
X119634000Y-70612000D01*
X119634000Y-70612000D02*
X119634000Y-73152000D01*
X119634000Y-73152000D02*
X117094000Y-73152000D01*
X114554000Y-73152000D02*
X112014000Y-73152000D01*
X112014000Y-73152000D02*
X112014000Y-70612000D01*
X112014000Y-70612000D02*
X114554000Y-70612000D01*
X114554000Y-70612000D02*
X117094000Y-70612000D01*
X114554000Y-73152000D02*
X117094000Y-73152000D01*
X119380520Y-101089460D02*
X120777520Y-101089460D01*
X114935520Y-101089460D02*
X113411520Y-101089460D01*
X115570520Y-100327460D02*
X115570520Y-101851460D01*
X114808520Y-101089460D02*
X114808520Y-101851460D01*
X114808520Y-101851460D02*
X119380520Y-101851460D01*
X119380520Y-101851460D02*
X119380520Y-100327460D01*
X119380520Y-100327460D02*
X114808520Y-100327460D01*
X114808520Y-100327460D02*
X114808520Y-101089460D01*
X119380520Y-103629460D02*
X120777520Y-103629460D01*
X114935520Y-103629460D02*
X113411520Y-103629460D01*
X115570520Y-102867460D02*
X115570520Y-104391460D01*
X114808520Y-103629460D02*
X114808520Y-104391460D01*
X114808520Y-104391460D02*
X119380520Y-104391460D01*
X119380520Y-104391460D02*
X119380520Y-102867460D01*
X119380520Y-102867460D02*
X114808520Y-102867460D01*
X114808520Y-102867460D02*
X114808520Y-103629460D01*
X119380520Y-106169460D02*
X120777520Y-106169460D01*
X114935520Y-106169460D02*
X113411520Y-106169460D01*
X115570520Y-105407460D02*
X115570520Y-106931460D01*
X114808520Y-106169460D02*
X114808520Y-106931460D01*
X114808520Y-106931460D02*
X119380520Y-106931460D01*
X119380520Y-106931460D02*
X119380520Y-105407460D01*
X119380520Y-105407460D02*
X114808520Y-105407460D01*
X114808520Y-105407460D02*
X114808520Y-106169460D01*
X119380520Y-108709460D02*
X120777520Y-108709460D01*
X114935520Y-108709460D02*
X113411520Y-108709460D01*
X115570520Y-107947460D02*
X115570520Y-109471460D01*
X114808520Y-108709460D02*
X114808520Y-109471460D01*
X114808520Y-109471460D02*
X119380520Y-109471460D01*
X119380520Y-109471460D02*
X119380520Y-107947460D01*
X119380520Y-107947460D02*
X114808520Y-107947460D01*
X114808520Y-107947460D02*
X114808520Y-108709460D01*
X137414520Y-101089460D02*
X138811520Y-101089460D01*
X132969520Y-101089460D02*
X131445520Y-101089460D01*
X133604520Y-100327460D02*
X133604520Y-101851460D01*
X132842520Y-101089460D02*
X132842520Y-101851460D01*
X132842520Y-101851460D02*
X137414520Y-101851460D01*
X137414520Y-101851460D02*
X137414520Y-100327460D01*
X137414520Y-100327460D02*
X132842520Y-100327460D01*
X132842520Y-100327460D02*
X132842520Y-101089460D01*
X137414520Y-103629460D02*
X138811520Y-103629460D01*
X132969520Y-103629460D02*
X131445520Y-103629460D01*
X133604520Y-102867460D02*
X133604520Y-104391460D01*
X132842520Y-103629460D02*
X132842520Y-104391460D01*
X132842520Y-104391460D02*
X137414520Y-104391460D01*
X137414520Y-104391460D02*
X137414520Y-102867460D01*
X137414520Y-102867460D02*
X132842520Y-102867460D01*
X132842520Y-102867460D02*
X132842520Y-103629460D01*
X137414520Y-106169460D02*
X138811520Y-106169460D01*
X132969520Y-106169460D02*
X131445520Y-106169460D01*
X133604520Y-105407460D02*
X133604520Y-106931460D01*
X132842520Y-106169460D02*
X132842520Y-106931460D01*
X132842520Y-106931460D02*
X137414520Y-106931460D01*
X137414520Y-106931460D02*
X137414520Y-105407460D01*
X137414520Y-105407460D02*
X132842520Y-105407460D01*
X132842520Y-105407460D02*
X132842520Y-106169460D01*
X137414520Y-108709460D02*
X138811520Y-108709460D01*
X132969520Y-108709460D02*
X131445520Y-108709460D01*
X133604520Y-107947460D02*
X133604520Y-109471460D01*
X132842520Y-108709460D02*
X132842520Y-109471460D01*
X132842520Y-109471460D02*
X137414520Y-109471460D01*
X137414520Y-109471460D02*
X137414520Y-107947460D01*
X137414520Y-107947460D02*
X132842520Y-107947460D01*
X132842520Y-107947460D02*
X132842520Y-108709460D01*
X107696000Y-102362000D02*
X107696000Y-97282000D01*
X107696000Y-97282000D02*
X105156000Y-97282000D01*
X105156000Y-97282000D02*
X105156000Y-102362000D01*
X104876000Y-105182000D02*
X104876000Y-103632000D01*
X105156000Y-102362000D02*
X107696000Y-102362000D01*
X107976000Y-103632000D02*
X107976000Y-105182000D01*
X107976000Y-105182000D02*
X104876000Y-105182000D01*
X116332000Y-66294000D02*
X113792000Y-66294000D01*
X119152000Y-66574000D02*
X117602000Y-66574000D01*
X116332000Y-66294000D02*
X116332000Y-63754000D01*
X117602000Y-63474000D02*
X119152000Y-63474000D01*
X119152000Y-63474000D02*
X119152000Y-66574000D01*
X116332000Y-63754000D02*
X113792000Y-63754000D01*
X113792000Y-63754000D02*
X113792000Y-66294000D01*
X124714000Y-109982000D02*
X124714000Y-102362000D01*
X127254000Y-102362000D02*
X127254000Y-109982000D01*
X124714000Y-109982000D02*
X127254000Y-109982000D01*
X127534000Y-99542000D02*
X127534000Y-101092000D01*
X127254000Y-102362000D02*
X124714000Y-102362000D01*
X124434000Y-101092000D02*
X124434000Y-99542000D01*
X124434000Y-99542000D02*
X127534000Y-99542000D01*
X129794000Y-63881000D02*
X130429000Y-63881000D01*
X130429000Y-63881000D02*
X130429000Y-72898000D01*
X130429000Y-72898000D02*
X121539000Y-72898000D01*
X121539000Y-72898000D02*
X121539000Y-63881000D01*
X121539000Y-63881000D02*
X122301000Y-63881000D01*
X121539000Y-66548000D02*
X121539000Y-72898000D01*
X130429000Y-66548000D02*
X130429000Y-72898000D01*
X122174000Y-63881000D02*
X129794000Y-63881000D01*
X121920000Y-72898000D02*
X130048000Y-72898000D01*
X135763000Y-75692000D02*
X129413000Y-75692000D01*
X129413000Y-73660000D02*
X135763000Y-73660000D01*
X135763000Y-74676000D02*
X136398000Y-74676000D01*
X129413000Y-74676000D02*
X128778000Y-74676000D01*
X129413000Y-74676000D02*
X129413000Y-73660000D01*
X135763000Y-73660000D02*
X135763000Y-75692000D01*
X129413000Y-75692000D02*
X129413000Y-74676000D01*
X133985000Y-67310000D02*
X140335000Y-67310000D01*
X140335000Y-69342000D02*
X133985000Y-69342000D01*
X133985000Y-68326000D02*
X133350000Y-68326000D01*
X140335000Y-68326000D02*
X140970000Y-68326000D01*
X140335000Y-68326000D02*
X140335000Y-69342000D01*
X133985000Y-69342000D02*
X133985000Y-67310000D01*
X140335000Y-67310000D02*
X140335000Y-68326000D01*
X121539000Y-75692000D02*
X115189000Y-75692000D01*
X115189000Y-73660000D02*
X121539000Y-73660000D01*
X121539000Y-74676000D02*
X122174000Y-74676000D01*
X115189000Y-74676000D02*
X114554000Y-74676000D01*
X115189000Y-74676000D02*
X115189000Y-73660000D01*
X121539000Y-73660000D02*
X121539000Y-75692000D01*
X115189000Y-75692000D02*
X115189000Y-74676000D01*
X106934000Y-74676000D02*
X109855000Y-74676000D01*
X109855000Y-74676000D02*
X109855000Y-82423000D01*
X106934000Y-73660000D02*
X106934000Y-74676000D01*
X106934000Y-74676000D02*
X104013000Y-74676000D01*
X104013000Y-74676000D02*
X104013000Y-92583000D01*
X104013000Y-92583000D02*
X104394000Y-92583000D01*
X106934000Y-93726000D02*
X106934000Y-92583000D01*
X104267000Y-92583000D02*
X109855000Y-92583000D01*
X109855000Y-92576000D02*
X109855000Y-82416000D01*
X142748000Y-74676000D02*
X145669000Y-74676000D01*
X145669000Y-74676000D02*
X145669000Y-82423000D01*
X142748000Y-73660000D02*
X142748000Y-74676000D01*
X142748000Y-74676000D02*
X139827000Y-74676000D01*
X139827000Y-74676000D02*
X139827000Y-92583000D01*
X139827000Y-92583000D02*
X140208000Y-92583000D01*
X142748000Y-93726000D02*
X142748000Y-92583000D01*
X140081000Y-92583000D02*
X145669000Y-92583000D01*
X145669000Y-92576000D02*
X145669000Y-82416000D01*
X114681000Y-77597000D02*
X114427000Y-77597000D01*
X117221000Y-77597000D02*
X116967000Y-77597000D01*
X122047000Y-77597000D02*
X122301000Y-77597000D01*
X119507000Y-77597000D02*
X119761000Y-77597000D01*
X137541000Y-77597000D02*
X138430000Y-77597000D01*
X117221000Y-84963000D02*
X116967000Y-84963000D01*
X119761000Y-84963000D02*
X119507000Y-84963000D01*
X122301000Y-84963000D02*
X122047000Y-84963000D01*
X124841000Y-84963000D02*
X124587000Y-84963000D01*
X127381000Y-84963000D02*
X127127000Y-84963000D01*
X129921000Y-84963000D02*
X129667000Y-84963000D01*
X137287000Y-84963000D02*
X138430000Y-84963000D01*
X137287000Y-77597000D02*
X137541000Y-77597000D01*
X134747000Y-77597000D02*
X135001000Y-77597000D01*
X132207000Y-77597000D02*
X132461000Y-77597000D01*
X129667000Y-77597000D02*
X129921000Y-77597000D01*
X127127000Y-77597000D02*
X127381000Y-77597000D01*
X114427000Y-84963000D02*
X114681000Y-84963000D01*
X112141000Y-84963000D02*
X110998000Y-84963000D01*
X112141000Y-77597000D02*
X110998000Y-77597000D01*
X124587000Y-77597000D02*
X124841000Y-77597000D01*
X110998000Y-80391000D02*
X110998000Y-77597000D01*
X110998000Y-84963000D02*
X110998000Y-82169000D01*
X110998000Y-82169000D02*
G75*
G03X110998000Y-80391000I0J889000D01*
G01*
X138439000Y-84955000D02*
X138439000Y-77605000D01*
X115824000Y-87376000D02*
X137414000Y-87376000D01*
X137414000Y-87376000D02*
X137414000Y-97536000D01*
X137414000Y-97536000D02*
X114554000Y-97536000D01*
X114554000Y-97536000D02*
X114554000Y-87376000D01*
X114554000Y-87376000D02*
X115824000Y-87376000D01*
X137512305Y-65766990D02*
G75*
G03X138000000Y-66470000I2187695J996990D01*
G01*
X141887695Y-65766990D02*
G75*
G02X141400000Y-66470000I-2187695J996990D01*
G01*
X138000000Y-66470000D02*
X141400000Y-66470000D01*
X137515121Y-63776873D02*
G75*
G02X139700000Y-62370000I2184879J-993127D01*
G01*
X141884879Y-63776873D02*
G75*
G03X139700000Y-62370000I-2184879J-993127D01*
G01*
M02*
