M48
;DRILL file {KiCad 4.0.1-stable} date 11/23/16 13:40:21
;FORMAT={-:-/ absolute / metric / decimal}
FMAT,2
METRIC,TZ
T1C0.700
T2C0.900
T3C1.000
T4C3.200
%
G90
G05
M71
T1
X113.284Y-71.882
X113.284Y-74.676
X113.284Y-77.47
X113.284Y-85.09
X115.824Y-71.882
X115.824Y-77.47
X115.824Y-85.09
X118.364Y-71.882
X118.364Y-77.47
X118.364Y-85.09
X120.904Y-77.47
X120.904Y-85.09
X123.444Y-68.326
X123.444Y-74.676
X123.444Y-77.47
X123.444Y-85.09
X125.984Y-70.993
X125.984Y-77.47
X125.984Y-85.09
X127.508Y-74.676
X128.524Y-68.326
X128.524Y-77.47
X128.524Y-85.09
X131.064Y-77.47
X131.064Y-85.09
X132.08Y-68.326
X133.604Y-77.47
X133.604Y-85.09
X136.144Y-77.47
X136.144Y-85.09
X137.16Y-64.77
X137.668Y-74.676
X139.7Y-64.77
X142.24Y-64.77
X142.24Y-68.326
T2
X106.934Y-72.136
X106.934Y-94.996
X112.015Y-101.089
X112.015Y-103.629
X112.015Y-106.169
X112.015Y-108.709
X117.094Y-94.996
X118.364Y-89.916
X119.634Y-94.996
X120.904Y-89.916
X122.174Y-94.996
X122.174Y-101.092
X122.174Y-103.632
X122.174Y-106.172
X122.174Y-108.712
X123.444Y-89.916
X124.714Y-94.996
X125.984Y-89.916
X127.254Y-94.996
X128.524Y-89.916
X129.794Y-94.996
X130.049Y-101.089
X130.049Y-103.629
X130.049Y-106.169
X130.049Y-108.709
X131.064Y-89.916
X132.334Y-94.996
X133.604Y-89.916
X134.874Y-94.996
X140.208Y-101.092
X140.208Y-103.632
X140.208Y-106.172
X140.208Y-108.712
X142.748Y-72.136
X142.748Y-94.996
T3
X106.426Y-98.552
X106.426Y-101.092
X106.426Y-103.632
X115.062Y-65.024
X117.602Y-65.024
X125.984Y-101.092
X125.984Y-103.632
X125.984Y-106.172
X125.984Y-108.712
T4
X100.33Y-59.69
X100.33Y-114.3
X147.955Y-59.69
X147.955Y-114.3
T0
M30
