G04 #@! TF.FileFunction,Copper,L2,Bot,Signal*
%FSLAX46Y46*%
G04 Gerber Fmt 4.6, Leading zero omitted, Abs format (unit mm)*
G04 Created by KiCad (PCBNEW 4.0.1-stable) date 09/21/16 04:31:25*
%MOMM*%
G01*
G04 APERTURE LIST*
%ADD10C,0.100000*%
%ADD11C,0.150000*%
%ADD12R,1.716000X1.716000*%
%ADD13C,1.716000*%
%ADD14R,2.016000X2.016000*%
%ADD15C,2.016000*%
%ADD16C,1.916000*%
%ADD17R,1.916000X1.916000*%
%ADD18R,1.716000X1.554000*%
%ADD19C,0.508000*%
%ADD20C,1.270000*%
G04 APERTURE END LIST*
D10*
D11*
X115000000Y-145000000D02*
X115000000Y-45000000D01*
X215000000Y-45000000D02*
X115000000Y-45000000D01*
X215000000Y-145000000D02*
X115000000Y-145000000D01*
X215000000Y-45000000D02*
X215000000Y-145000000D01*
D12*
X126957460Y-70251480D03*
D13*
X126960000Y-60092000D03*
D12*
X130137540Y-60092520D03*
D13*
X130135000Y-70252000D03*
D12*
X142197460Y-70251480D03*
D13*
X142200000Y-60092000D03*
D12*
X146012540Y-60092520D03*
D13*
X146010000Y-70252000D03*
D12*
X159342460Y-70886480D03*
D13*
X159345000Y-60727000D03*
D12*
X163157540Y-60727520D03*
D13*
X163155000Y-70887000D03*
D12*
X139954520Y-120393460D03*
D13*
X150114000Y-120396000D03*
D12*
X139956540Y-106680520D03*
D13*
X139954000Y-116840000D03*
D12*
X163573460Y-137159480D03*
D13*
X163576000Y-127000000D03*
D12*
X156974540Y-127000520D03*
D13*
X156972000Y-137160000D03*
D12*
X185165480Y-134114540D03*
D13*
X175006000Y-134112000D03*
D12*
X175006520Y-131061460D03*
D13*
X185166000Y-131064000D03*
D12*
X172720520Y-109725460D03*
D13*
X182880000Y-109728000D03*
D12*
X182879480Y-112524540D03*
D13*
X172720000Y-112522000D03*
D12*
X192277480Y-128018540D03*
D13*
X182118000Y-128016000D03*
D12*
X194272540Y-112670520D03*
D13*
X194270000Y-122830000D03*
D14*
X121666000Y-103124000D03*
D15*
X121666000Y-105664000D03*
D14*
X209550000Y-97790000D03*
D15*
X212090000Y-97790000D03*
D14*
X180173000Y-49932000D03*
D15*
X182713000Y-49932000D03*
X185253000Y-49932000D03*
D13*
X133945000Y-65807000D03*
X133945000Y-63267000D03*
X133945000Y-68347000D03*
X134580000Y-76602000D03*
X134580000Y-79142000D03*
X134580000Y-74062000D03*
X150455000Y-67077000D03*
X150455000Y-64537000D03*
X150455000Y-69617000D03*
X150455000Y-76602000D03*
X150455000Y-79142000D03*
X150455000Y-74062000D03*
X167600000Y-68347000D03*
X167600000Y-65807000D03*
X167600000Y-70887000D03*
X167600000Y-77872000D03*
X167600000Y-80412000D03*
X167600000Y-75332000D03*
X149098000Y-101854000D03*
X149098000Y-104394000D03*
X149098000Y-99314000D03*
X142748000Y-101600000D03*
X142748000Y-99060000D03*
X142748000Y-104140000D03*
X129540000Y-111506000D03*
X129540000Y-108966000D03*
X129540000Y-114046000D03*
X155194000Y-101854000D03*
X155194000Y-99314000D03*
X155194000Y-104394000D03*
X160782000Y-104394000D03*
X160782000Y-101854000D03*
X160782000Y-106934000D03*
X136144000Y-111506000D03*
X136144000Y-114046000D03*
X136144000Y-108966000D03*
X160782000Y-112522000D03*
X160782000Y-109982000D03*
X160782000Y-115062000D03*
X160528000Y-122174000D03*
X163068000Y-122174000D03*
X157988000Y-122174000D03*
X167894000Y-110744000D03*
X167894000Y-113284000D03*
X167894000Y-108204000D03*
X172974000Y-125730000D03*
X172974000Y-128270000D03*
X172974000Y-123190000D03*
X172974000Y-118110000D03*
X172974000Y-120650000D03*
X172974000Y-115570000D03*
X184912000Y-105156000D03*
X184912000Y-102616000D03*
X184912000Y-107696000D03*
X180340000Y-117348000D03*
X177800000Y-117348000D03*
X182880000Y-117348000D03*
X192024000Y-105156000D03*
X192024000Y-107696000D03*
X192024000Y-102616000D03*
X180340000Y-123190000D03*
X182880000Y-123190000D03*
X177800000Y-123190000D03*
X191008000Y-135636000D03*
X191008000Y-138176000D03*
X191008000Y-133096000D03*
X194310000Y-97155000D03*
X194310000Y-99695000D03*
X194310000Y-94615000D03*
D16*
X203454000Y-135636000D03*
D17*
X200914000Y-135636000D03*
D16*
X205994000Y-135636000D03*
X203454000Y-129794000D03*
D17*
X200914000Y-129794000D03*
D16*
X205994000Y-129794000D03*
X203200000Y-66040000D03*
D17*
X200660000Y-66040000D03*
D16*
X205740000Y-66040000D03*
X203200000Y-59055000D03*
D17*
X200660000Y-59055000D03*
D16*
X205740000Y-59055000D03*
D18*
X129540000Y-102870000D03*
D13*
X134540000Y-102870000D03*
D18*
X161798000Y-89408000D03*
D13*
X166798000Y-89408000D03*
D12*
X175728000Y-58822000D03*
D13*
X178268000Y-58822000D03*
D12*
X175728000Y-68982000D03*
D13*
X178268000Y-68982000D03*
D12*
X175728000Y-79142000D03*
D13*
X178268000Y-79142000D03*
D12*
X187158000Y-58822000D03*
D13*
X189698000Y-58822000D03*
D12*
X187158000Y-68982000D03*
D13*
X189698000Y-68982000D03*
D12*
X187158000Y-79142000D03*
D13*
X189698000Y-79142000D03*
D16*
X199390000Y-124206000D03*
X199390000Y-101346000D03*
X207010000Y-124206000D03*
X207010000Y-101346000D03*
X199390000Y-93980000D03*
X199390000Y-71120000D03*
X207010000Y-93980000D03*
X207010000Y-71120000D03*
D13*
X121666000Y-86868000D03*
X121666000Y-97028000D03*
X125222000Y-96520000D03*
X125222000Y-106680000D03*
X119888000Y-71628000D03*
X119888000Y-81788000D03*
X147280000Y-56917000D03*
X137120000Y-56917000D03*
X133945000Y-57552000D03*
X133945000Y-47392000D03*
X138390000Y-70252000D03*
X138390000Y-60092000D03*
X150455000Y-51202000D03*
X150455000Y-61362000D03*
X155535000Y-57552000D03*
X155535000Y-47392000D03*
X155535000Y-70887000D03*
X155535000Y-60727000D03*
X167600000Y-51202000D03*
X167600000Y-61362000D03*
X163155000Y-57552000D03*
X163155000Y-47392000D03*
X146812000Y-116840000D03*
X146812000Y-106680000D03*
X143510000Y-106680000D03*
X143510000Y-116840000D03*
X166878000Y-132334000D03*
X166878000Y-122174000D03*
X160528000Y-131064000D03*
X160528000Y-141224000D03*
X157988000Y-118110000D03*
X168148000Y-118110000D03*
X185166000Y-137160000D03*
X175006000Y-137160000D03*
X170942000Y-131064000D03*
X170942000Y-141224000D03*
X180340000Y-96520000D03*
X180340000Y-106680000D03*
X190246000Y-112776000D03*
X190246000Y-122936000D03*
X186182000Y-122936000D03*
X186182000Y-112776000D03*
X195580000Y-135636000D03*
X195580000Y-125476000D03*
D12*
X124460000Y-89408000D03*
D13*
X157480000Y-89408000D03*
X123785000Y-76602000D03*
X126325000Y-73935000D03*
X128865000Y-76602000D03*
X139660000Y-76602000D03*
X142200000Y-73935000D03*
X144740000Y-76602000D03*
X156805000Y-77872000D03*
X159345000Y-75205000D03*
X161885000Y-77872000D03*
X150368000Y-111506000D03*
X152908000Y-108839000D03*
X155448000Y-111506000D03*
D19*
X119888000Y-81788000D02*
X119888000Y-87884000D01*
X121412000Y-89408000D02*
X124460000Y-89408000D01*
X119888000Y-87884000D02*
X121412000Y-89408000D01*
X125222000Y-96520000D02*
X125222000Y-90170000D01*
X125222000Y-90170000D02*
X124460000Y-89408000D01*
X121666000Y-86868000D02*
X154940000Y-86868000D01*
X154940000Y-86868000D02*
X157480000Y-89408000D01*
X157480000Y-89408000D02*
X161798000Y-89408000D01*
X166798000Y-89408000D02*
X166798000Y-92282000D01*
X164338000Y-94742000D02*
X161464000Y-94742000D01*
X166798000Y-92282000D02*
X164338000Y-94742000D01*
X134540000Y-102870000D02*
X134540000Y-99394000D01*
X139192000Y-94742000D02*
X161464000Y-94742000D01*
X134540000Y-99394000D02*
X139192000Y-94742000D01*
X121666000Y-103124000D02*
X123190000Y-103124000D01*
X123190000Y-103124000D02*
X129286000Y-103124000D01*
X129286000Y-103124000D02*
X129540000Y-102870000D01*
D20*
X175728000Y-79142000D02*
X175728000Y-83018000D01*
X184912000Y-92202000D02*
X184912000Y-102616000D01*
X175728000Y-83018000D02*
X184912000Y-92202000D01*
X126960000Y-60092000D02*
X126960000Y-58822000D01*
X126960000Y-58822000D02*
X134580000Y-51202000D01*
X126960000Y-58822000D02*
X127000000Y-58782000D01*
X175006000Y-134112000D02*
X178054000Y-134112000D01*
X180594000Y-136652000D02*
X180594000Y-139192000D01*
X178054000Y-134112000D02*
X180594000Y-136652000D01*
X150114000Y-120396000D02*
X153670000Y-123952000D01*
X159512000Y-134620000D02*
X166878000Y-134620000D01*
X153670000Y-128778000D02*
X159512000Y-134620000D01*
X153670000Y-123952000D02*
X153670000Y-128778000D01*
X146812000Y-116840000D02*
X146812000Y-117094000D01*
X146812000Y-117094000D02*
X150114000Y-120396000D01*
X185166000Y-137160000D02*
X185166000Y-139192000D01*
X185166000Y-139192000D02*
X185166000Y-138938000D01*
X185166000Y-138938000D02*
X185166000Y-139192000D01*
X166878000Y-132334000D02*
X166878000Y-134620000D01*
X189992000Y-139192000D02*
X191008000Y-138176000D01*
X171450000Y-139192000D02*
X180594000Y-139192000D01*
X180594000Y-139192000D02*
X185166000Y-139192000D01*
X166878000Y-134620000D02*
X171450000Y-139192000D01*
X185166000Y-139192000D02*
X189992000Y-139192000D01*
X163576000Y-127000000D02*
X163576000Y-129032000D01*
X163576000Y-129032000D02*
X166878000Y-132334000D01*
X191008000Y-138176000D02*
X202438000Y-138176000D01*
X202438000Y-138176000D02*
X203454000Y-137160000D01*
X203454000Y-137160000D02*
X203454000Y-135636000D01*
X203454000Y-129794000D02*
X203454000Y-135636000D01*
X184912000Y-102616000D02*
X192024000Y-102616000D01*
X169505000Y-51202000D02*
X175728000Y-51202000D01*
X127000000Y-58782000D02*
X134580000Y-51202000D01*
X134580000Y-51202000D02*
X150455000Y-51202000D01*
X147280000Y-56917000D02*
X148550000Y-56917000D01*
X148550000Y-56917000D02*
X154265000Y-51202000D01*
X142200000Y-60092000D02*
X142200000Y-58822000D01*
X144105000Y-56917000D02*
X147280000Y-56917000D01*
X142200000Y-58822000D02*
X144105000Y-56917000D01*
X150455000Y-51202000D02*
X152360000Y-51202000D01*
X167600000Y-51202000D02*
X169505000Y-51202000D01*
X159345000Y-60727000D02*
X159345000Y-58187000D01*
X159345000Y-58187000D02*
X161250000Y-56282000D01*
X161250000Y-56282000D02*
X166330000Y-51202000D01*
X165695000Y-51837000D02*
X165695000Y-51202000D01*
X166330000Y-51202000D02*
X165695000Y-51837000D01*
X175728000Y-51202000D02*
X175728000Y-58822000D01*
X152360000Y-51202000D02*
X154265000Y-51202000D01*
X154265000Y-51202000D02*
X165695000Y-51202000D01*
X165695000Y-51202000D02*
X169505000Y-51202000D01*
X176998000Y-49932000D02*
X180173000Y-49932000D01*
X175728000Y-51202000D02*
X176998000Y-49932000D01*
X175728000Y-68982000D02*
X175728000Y-58822000D01*
X175728000Y-68982000D02*
X175728000Y-79142000D01*
X133945000Y-47392000D02*
X155535000Y-47392000D01*
X121666000Y-97028000D02*
X117602000Y-97028000D01*
X117602000Y-97028000D02*
X117856000Y-97028000D01*
X117856000Y-97028000D02*
X117602000Y-97028000D01*
X133945000Y-47392000D02*
X133945000Y-47411000D01*
X133945000Y-47411000D02*
X117602000Y-63754000D01*
X119380000Y-105664000D02*
X121666000Y-105664000D01*
X117602000Y-103886000D02*
X119380000Y-105664000D01*
X117602000Y-63754000D02*
X117602000Y-97028000D01*
X117602000Y-97028000D02*
X117602000Y-103886000D01*
X125222000Y-106680000D02*
X125222000Y-114046000D01*
X133858000Y-122682000D02*
X149352000Y-122682000D01*
X125222000Y-114046000D02*
X133858000Y-122682000D01*
X121666000Y-105664000D02*
X124206000Y-105664000D01*
X124206000Y-105664000D02*
X125222000Y-106680000D01*
X143510000Y-116840000D02*
X149352000Y-122682000D01*
X149352000Y-122682000D02*
X150368000Y-123698000D01*
X150368000Y-123698000D02*
X151638000Y-124968000D01*
X151638000Y-124968000D02*
X151638000Y-128524002D01*
X151638000Y-128524002D02*
X151638000Y-135128000D01*
X151638000Y-135128000D02*
X157734000Y-141224000D01*
X157734000Y-141224000D02*
X160528000Y-141224000D01*
X160528000Y-141224000D02*
X162560000Y-141224000D01*
X162560000Y-141224000D02*
X162560000Y-141245000D01*
X170942000Y-141224000D02*
X172466000Y-141224000D01*
X172466000Y-141224000D02*
X172487000Y-141245000D01*
X181102000Y-47392000D02*
X204364000Y-47392000D01*
X212090000Y-55118000D02*
X212090000Y-97790000D01*
X204364000Y-47392000D02*
X212090000Y-55118000D01*
X182713000Y-49932000D02*
X182713000Y-47585000D01*
X182713000Y-47585000D02*
X182520000Y-47392000D01*
X165695000Y-47392000D02*
X181102000Y-47392000D01*
X181102000Y-47392000D02*
X182520000Y-47392000D01*
X182520000Y-47392000D02*
X182626000Y-47498000D01*
X162560000Y-141245000D02*
X172487000Y-141245000D01*
X172487000Y-141245000D02*
X206100000Y-141245000D01*
X206100000Y-141245000D02*
X212090000Y-135255000D01*
X212090000Y-135255000D02*
X212090000Y-97790000D01*
X155535000Y-47392000D02*
X154265000Y-47392000D01*
X154265000Y-47392000D02*
X165695000Y-47392000D01*
X163155000Y-47392000D02*
X165695000Y-47392000D01*
X182713000Y-54377000D02*
X187158000Y-58822000D01*
X182713000Y-49932000D02*
X182713000Y-54377000D01*
X182713000Y-54377000D02*
X178268000Y-58822000D01*
X178268000Y-68982000D02*
X178268000Y-79142000D01*
X178268000Y-79142000D02*
X187158000Y-79142000D01*
X187158000Y-79142000D02*
X187158000Y-68982000D01*
X187158000Y-68982000D02*
X178268000Y-68982000D01*
X178268000Y-68982000D02*
X178268000Y-58822000D01*
X178268000Y-58822000D02*
X187158000Y-58822000D01*
X187158000Y-58822000D02*
X187158000Y-68982000D01*
X167600000Y-80412000D02*
X167660998Y-80412000D01*
X167660998Y-80412000D02*
X169164000Y-81915002D01*
X169164000Y-95758000D02*
X168148000Y-96774000D01*
X169164000Y-81915002D02*
X169164000Y-95758000D01*
X160782000Y-106934000D02*
X159258000Y-106934000D01*
X166116000Y-98806000D02*
X168148000Y-96774000D01*
X160274000Y-98806000D02*
X166116000Y-98806000D01*
X158242000Y-100838000D02*
X160274000Y-98806000D01*
X158242000Y-105918000D02*
X158242000Y-100838000D01*
X159258000Y-106934000D02*
X158242000Y-105918000D01*
X161036000Y-92456000D02*
X162560000Y-92456000D01*
X127254000Y-112522000D02*
X127254000Y-107696000D01*
X127254000Y-107696000D02*
X129286000Y-105664000D01*
X129286000Y-105664000D02*
X131064000Y-105664000D01*
X131064000Y-105664000D02*
X132080000Y-104648000D01*
X132080000Y-104648000D02*
X132080000Y-97028000D01*
X132080000Y-97028000D02*
X136652000Y-92456000D01*
X136652000Y-92456000D02*
X161036000Y-92456000D01*
X128778000Y-114046000D02*
X127254000Y-112522000D01*
X164338000Y-83312000D02*
X161438000Y-80412000D01*
X164338000Y-90678000D02*
X164338000Y-83312000D01*
X162560000Y-92456000D02*
X164338000Y-90678000D01*
X129540000Y-114046000D02*
X128778000Y-114046000D01*
X136144000Y-114046000D02*
X129540000Y-114046000D01*
X134580000Y-79142000D02*
X150455000Y-79142000D01*
X150455000Y-79142000D02*
X151725000Y-80412000D01*
X151725000Y-80412000D02*
X161438000Y-80412000D01*
X161438000Y-80412000D02*
X167600000Y-80412000D01*
X167894000Y-108204000D02*
X167386000Y-108204000D01*
X167386000Y-108204000D02*
X166116000Y-106934000D01*
X160782000Y-106934000D02*
X166116000Y-106934000D01*
X166116000Y-106934000D02*
X166624000Y-106934000D01*
X166624000Y-106934000D02*
X167894000Y-105664000D01*
X160782000Y-109982000D02*
X160782000Y-106934000D01*
X177800000Y-109220000D02*
X177800000Y-117348000D01*
X167894000Y-105664000D02*
X174244000Y-105664000D01*
X174244000Y-105664000D02*
X177800000Y-109220000D01*
X172974000Y-120650000D02*
X174498000Y-120650000D01*
X174498000Y-120650000D02*
X177800000Y-117348000D01*
X177800000Y-123190000D02*
X177800000Y-117348000D01*
X194310000Y-99695000D02*
X191135000Y-99695000D01*
X189698000Y-88178000D02*
X189698000Y-79142000D01*
X189698000Y-98258000D02*
X189698000Y-88178000D01*
X191135000Y-99695000D02*
X189698000Y-98258000D01*
X189698000Y-54377000D02*
X203475000Y-54377000D01*
X205740000Y-56642000D02*
X205740000Y-59055000D01*
X203475000Y-54377000D02*
X205740000Y-56642000D01*
X205740000Y-66040000D02*
X205740000Y-59055000D01*
X189698000Y-58822000D02*
X189698000Y-54377000D01*
X189698000Y-54377000D02*
X185253000Y-49932000D01*
X189698000Y-68982000D02*
X189698000Y-58822000D01*
X189698000Y-68982000D02*
X189698000Y-79142000D01*
D19*
X126322460Y-70251480D02*
X130134480Y-70251480D01*
X130134480Y-70251480D02*
X130135000Y-70252000D01*
X130137540Y-60092520D02*
X131404480Y-60092520D01*
X131404480Y-60092520D02*
X133945000Y-57552000D01*
X133945000Y-65807000D02*
X132040000Y-65807000D01*
X130137540Y-63904540D02*
X130137540Y-60092520D01*
X132040000Y-65807000D02*
X130137540Y-63904540D01*
X146010000Y-70252000D02*
X142197980Y-70252000D01*
X142197980Y-70252000D02*
X142197460Y-70251480D01*
X146012540Y-60092520D02*
X146012540Y-65174540D01*
X147915000Y-67077000D02*
X150455000Y-67077000D01*
X146012540Y-65174540D02*
X147915000Y-67077000D01*
X150455000Y-67077000D02*
X152995000Y-64537000D01*
X152995000Y-60092000D02*
X155535000Y-57552000D01*
X152995000Y-64537000D02*
X152995000Y-60092000D01*
X163155000Y-70887000D02*
X159342980Y-70887000D01*
X159342980Y-70887000D02*
X159342460Y-70886480D01*
X163155000Y-57552000D02*
X163155000Y-60724980D01*
X163155000Y-60724980D02*
X163157540Y-60727520D01*
X163157540Y-60727520D02*
X163157540Y-66444540D01*
X165060000Y-68347000D02*
X167600000Y-68347000D01*
X163157540Y-66444540D02*
X165060000Y-68347000D01*
X139954000Y-116840000D02*
X139954000Y-120392940D01*
X139954000Y-120392940D02*
X139954520Y-120393460D01*
X139956540Y-106680520D02*
X143509480Y-106680520D01*
X143509480Y-106680520D02*
X143510000Y-106680000D01*
X143510000Y-106680000D02*
X148082000Y-102108000D01*
X148082000Y-102108000D02*
X148844000Y-102108000D01*
X148844000Y-102108000D02*
X149098000Y-101854000D01*
X156972000Y-137160000D02*
X163572940Y-137160000D01*
X163572940Y-137160000D02*
X163573460Y-137159480D01*
X156974540Y-127000520D02*
X156974540Y-129542540D01*
X158496000Y-131064000D02*
X160528000Y-131064000D01*
X156974540Y-129542540D02*
X158496000Y-131064000D01*
X160528000Y-122174000D02*
X160528000Y-131064000D01*
X185166000Y-131318000D02*
X185166000Y-134876020D01*
X185166000Y-134876020D02*
X185165480Y-134876540D01*
X170942000Y-131064000D02*
X174755060Y-131064000D01*
X174755060Y-131064000D02*
X175006520Y-131315460D01*
X175006520Y-131315460D02*
X175006520Y-127762520D01*
X175006520Y-127762520D02*
X172974000Y-125730000D01*
X182880000Y-109728000D02*
X184912000Y-107696000D01*
X184912000Y-107696000D02*
X189484000Y-107696000D01*
X189484000Y-107696000D02*
X192024000Y-105156000D01*
X172974000Y-123190000D02*
X171704000Y-123190000D01*
X167894000Y-115570000D02*
X172974000Y-115570000D01*
X166116000Y-117348000D02*
X167894000Y-115570000D01*
X166116000Y-119126000D02*
X166116000Y-117348000D01*
X167132000Y-120142000D02*
X166116000Y-119126000D01*
X168656000Y-120142000D02*
X167132000Y-120142000D01*
X171704000Y-123190000D02*
X168656000Y-120142000D01*
X172720000Y-112522000D02*
X172720000Y-115316000D01*
X172720000Y-115316000D02*
X172974000Y-115570000D01*
X172720520Y-109725460D02*
X172720520Y-112521480D01*
X172720520Y-112521480D02*
X172720000Y-112522000D01*
X182879480Y-112524540D02*
X182879480Y-117347480D01*
X182879480Y-117347480D02*
X182880000Y-117348000D01*
X182879480Y-113286540D02*
X182879480Y-117347480D01*
X182879480Y-117347480D02*
X182880000Y-117348000D01*
X180340000Y-123190000D02*
X180340000Y-122682000D01*
X180340000Y-122682000D02*
X182880000Y-120142000D01*
X182880000Y-120142000D02*
X182880000Y-117348000D01*
X182118000Y-128016000D02*
X185928000Y-128016000D01*
X185928000Y-128016000D02*
X191008000Y-133096000D01*
X191008000Y-133096000D02*
X197612000Y-133096000D01*
X197612000Y-133096000D02*
X200914000Y-129794000D01*
X200914000Y-135636000D02*
X200914000Y-129794000D01*
D20*
X192277480Y-128018540D02*
X192277480Y-124967480D01*
X192277480Y-124967480D02*
X190246000Y-122936000D01*
X186182000Y-122936000D02*
X190246000Y-122936000D01*
X194270000Y-122830000D02*
X190352000Y-122830000D01*
X194269480Y-122830520D02*
X194270000Y-122830000D01*
X194269480Y-122833580D02*
X194272540Y-122830520D01*
D19*
X194272540Y-112670520D02*
X194415480Y-112670520D01*
X194415480Y-112670520D02*
X197358000Y-109728000D01*
X195961000Y-94615000D02*
X194310000Y-94615000D01*
X197358000Y-96012000D02*
X195961000Y-94615000D01*
X197358000Y-109728000D02*
X197358000Y-96012000D01*
X194310000Y-94615000D02*
X194310000Y-72390000D01*
X194310000Y-72390000D02*
X200660000Y-66040000D01*
X200660000Y-66040000D02*
X200660000Y-59055000D01*
X194905000Y-112038060D02*
X194272540Y-112670520D01*
X194905520Y-112670520D02*
X194272540Y-112670520D01*
D20*
X207010000Y-93980000D02*
X199390000Y-93980000D01*
X199390000Y-93980000D02*
X199390000Y-101346000D01*
X207010000Y-93980000D02*
X209550000Y-96520000D01*
X209550000Y-96520000D02*
X209550000Y-97790000D01*
X209550000Y-97790000D02*
X209550000Y-99060000D01*
X209550000Y-99060000D02*
X209510000Y-99100000D01*
X207010000Y-101346000D02*
X207264000Y-101346000D01*
X207264000Y-101346000D02*
X209510000Y-99100000D01*
X199390000Y-101346000D02*
X207010000Y-101346000D01*
X209510000Y-99100000D02*
X209510000Y-98700000D01*
D19*
X119888000Y-71628000D02*
X119888000Y-72705000D01*
X119888000Y-72705000D02*
X123785000Y-76602000D01*
X123785000Y-76602000D02*
X126325000Y-74062000D01*
X126325000Y-74062000D02*
X126325000Y-73935000D01*
X128865000Y-76602000D02*
X134580000Y-76602000D01*
X138390000Y-70252000D02*
X138517000Y-70252000D01*
X138517000Y-70252000D02*
X142200000Y-73935000D01*
X142200000Y-73935000D02*
X142200000Y-74062000D01*
X142200000Y-74062000D02*
X139660000Y-76602000D01*
X144740000Y-76602000D02*
X150455000Y-76602000D01*
X155535000Y-70887000D02*
X155535000Y-76602000D01*
X155535000Y-76602000D02*
X156805000Y-77872000D01*
X159345000Y-75205000D02*
X159345000Y-75332000D01*
X159345000Y-75332000D02*
X156805000Y-77872000D01*
X161885000Y-77872000D02*
X167600000Y-77872000D01*
X161885000Y-77872000D02*
X161885000Y-77237000D01*
X136144000Y-111506000D02*
X150368000Y-111506000D01*
X136144000Y-108966000D02*
X137160000Y-108966000D01*
X137160000Y-108966000D02*
X138176000Y-107950000D01*
X142748000Y-104140000D02*
X141732000Y-104140000D01*
X137160000Y-108966000D02*
X137922000Y-108204000D01*
X141732000Y-104140000D02*
X139700000Y-104140000D01*
X139065000Y-108839000D02*
X152908000Y-108839000D01*
X138176000Y-107950000D02*
X139065000Y-108839000D01*
X138176000Y-105664000D02*
X138176000Y-107950000D01*
X139700000Y-104140000D02*
X138176000Y-105664000D01*
X155448000Y-111506000D02*
X159766000Y-111506000D01*
X159766000Y-111506000D02*
X160782000Y-112522000D01*
X133945000Y-63267000D02*
X134580000Y-63267000D01*
X134580000Y-63267000D02*
X136485000Y-61362000D01*
X136485000Y-57552000D02*
X137120000Y-56917000D01*
X136485000Y-61362000D02*
X136485000Y-57552000D01*
X138390000Y-60092000D02*
X138390000Y-65172000D01*
X138390000Y-65172000D02*
X134580000Y-68982000D01*
X134580000Y-69617000D02*
X134580000Y-68982000D01*
X134580000Y-74062000D02*
X134580000Y-69617000D01*
X134580000Y-68982000D02*
X133945000Y-68347000D01*
X150455000Y-64537000D02*
X150455000Y-61362000D01*
X155535000Y-60727000D02*
X155535000Y-64537000D01*
X155535000Y-64537000D02*
X150455000Y-69617000D01*
X150455000Y-69617000D02*
X150455000Y-74062000D01*
X167600000Y-61362000D02*
X167600000Y-65807000D01*
X165608000Y-104394000D02*
X166878000Y-104394000D01*
X171450000Y-79182000D02*
X169926000Y-77658000D01*
X171450000Y-99822000D02*
X171450000Y-79182000D01*
X166878000Y-104394000D02*
X171450000Y-99822000D01*
X160782000Y-104394000D02*
X165608000Y-104394000D01*
X169926000Y-77658000D02*
X167600000Y-75332000D01*
X167600000Y-75332000D02*
X167600000Y-70887000D01*
X146812000Y-106680000D02*
X149098000Y-104394000D01*
X129032000Y-108966000D02*
X131826000Y-108966000D01*
X139192000Y-101600000D02*
X142748000Y-101600000D01*
X131826000Y-108966000D02*
X139192000Y-101600000D01*
X142240000Y-99314000D02*
X149098000Y-99314000D01*
X149098000Y-99314000D02*
X155194000Y-99314000D01*
X160782000Y-115062000D02*
X156464000Y-115062000D01*
X155194000Y-108966000D02*
X155194000Y-104394000D01*
X153670000Y-110490000D02*
X155194000Y-108966000D01*
X153670000Y-112268000D02*
X153670000Y-110490000D01*
X156464000Y-115062000D02*
X153670000Y-112268000D01*
X160782000Y-115062000D02*
X163576000Y-115062000D01*
X163576000Y-115062000D02*
X167894000Y-110744000D01*
X163068000Y-122174000D02*
X166878000Y-122174000D01*
X167894000Y-113284000D02*
X163322000Y-117856000D01*
X163322000Y-117856000D02*
X158242000Y-117856000D01*
X158242000Y-117856000D02*
X157988000Y-118110000D01*
X157988000Y-118110000D02*
X157988000Y-122174000D01*
X172974000Y-128270000D02*
X171196000Y-128270000D01*
X173228000Y-137160000D02*
X175006000Y-137160000D01*
X169164000Y-133096000D02*
X173228000Y-137160000D01*
X169164000Y-130302000D02*
X169164000Y-133096000D01*
X171196000Y-128270000D02*
X169164000Y-130302000D01*
X168148000Y-118110000D02*
X172974000Y-118110000D01*
X180340000Y-96520000D02*
X180340000Y-102616000D01*
X182880000Y-105156000D02*
X184912000Y-105156000D01*
X180340000Y-102616000D02*
X182880000Y-105156000D01*
X180340000Y-106680000D02*
X180340000Y-117348000D01*
X180848000Y-116840000D02*
X180340000Y-117348000D01*
X190246000Y-112776000D02*
X190246000Y-109474000D01*
X190246000Y-109474000D02*
X192024000Y-107696000D01*
X182880000Y-123190000D02*
X185420000Y-120650000D01*
X186182000Y-119888000D02*
X186182000Y-112776000D01*
X185420000Y-120650000D02*
X186182000Y-119888000D01*
X191008000Y-135636000D02*
X195580000Y-135636000D01*
X195580000Y-125476000D02*
X195580000Y-125222000D01*
X195580000Y-125222000D02*
X196596000Y-124206000D01*
X196596000Y-124206000D02*
X196596000Y-123679000D01*
X194310000Y-97155000D02*
X194945000Y-97155000D01*
X194945000Y-97155000D02*
X196341998Y-98551998D01*
X196341998Y-98551998D02*
X196341998Y-106934002D01*
X196341998Y-106934002D02*
X192532000Y-110744000D01*
X192532000Y-110744000D02*
X192532000Y-115824000D01*
X192532000Y-115824000D02*
X196596000Y-119888000D01*
X196596000Y-119888000D02*
X196596000Y-123679000D01*
D20*
X205994000Y-135636000D02*
X205994000Y-129794000D01*
X205994000Y-129794000D02*
X205994000Y-125984000D01*
X205994000Y-125984000D02*
X207010000Y-124968000D01*
X207010000Y-124968000D02*
X207010000Y-124206000D01*
X199350000Y-124100000D02*
X206970000Y-124100000D01*
X207010000Y-71120000D02*
X205740000Y-71120000D01*
X205740000Y-71120000D02*
X203200000Y-68580000D01*
X199390000Y-71120000D02*
X200660000Y-71120000D01*
X200660000Y-71120000D02*
X203200000Y-68580000D01*
X203200000Y-68580000D02*
X203200000Y-66040000D01*
X203200000Y-59055000D02*
X203200000Y-66040000D01*
M02*
