M48
;DRILL file {KiCad 4.0.1-stable} date 09/21/16 04:31:23
;FORMAT={-:-/ absolute / inch / decimal}
FMAT,2
INCH,TZ
T1C0.028
T2C0.035
T3C0.039
%
G90
G05
M72
T1
X4.72Y-2.82
X4.72Y-3.22
X4.79Y-3.42
X4.79Y-3.82
X4.8734Y-3.0158
X4.9Y-3.52
X4.93Y-3.8
X4.93Y-4.2
X4.9734Y-2.9108
X4.9983Y-2.7658
X4.9984Y-2.3658
X5.0734Y-3.0158
X5.1Y-4.05
X5.1Y-4.29
X5.1Y-4.39
X5.1Y-4.49
X5.1234Y-2.7658
X5.1235Y-2.3658
X5.2734Y-1.8658
X5.2734Y-2.2658
X5.2734Y-2.4908
X5.2734Y-2.5908
X5.2734Y-2.6908
X5.2969Y-4.05
X5.2984Y-2.9158
X5.2984Y-3.0158
X5.2984Y-3.1158
X5.36Y-4.29
X5.36Y-4.39
X5.36Y-4.49
X5.3984Y-2.2408
X5.4484Y-2.3658
X5.4484Y-2.7658
X5.4984Y-3.0158
X5.51Y-4.6
X5.51Y-4.7399
X5.5101Y-4.2
X5.5983Y-2.7658
X5.5984Y-2.3658
X5.5984Y-2.9108
X5.62Y-3.9
X5.62Y-4.
X5.62Y-4.1
X5.65Y-4.2
X5.65Y-4.6
X5.6984Y-3.0158
X5.7484Y-2.7658
X5.7485Y-2.3658
X5.78Y-4.2
X5.78Y-4.6
X5.7984Y-2.2408
X5.87Y-3.91
X5.87Y-4.01
X5.87Y-4.11
X5.91Y-4.74
X5.92Y-4.39
X5.9234Y-2.0158
X5.9234Y-2.4158
X5.9234Y-2.5408
X5.9234Y-2.6408
X5.9234Y-2.7408
X5.9234Y-2.9158
X5.9234Y-3.0158
X5.9234Y-3.1158
X6.02Y-4.285
X6.11Y-3.91
X6.11Y-4.01
X6.11Y-4.11
X6.12Y-4.39
X6.1234Y-1.8658
X6.1234Y-2.2658
X6.1234Y-2.3908
X6.1234Y-2.7908
X6.1734Y-3.0658
X6.18Y-5.4
X6.1801Y-5.
X6.2Y-3.52
X6.22Y-4.65
X6.22Y-4.81
X6.2733Y-2.7908
X6.2734Y-2.3908
X6.2734Y-2.9608
X6.32Y-4.81
X6.32Y-5.16
X6.32Y-5.56
X6.33Y-4.01
X6.33Y-4.11
X6.33Y-4.21
X6.33Y-4.33
X6.33Y-4.43
X6.33Y-4.53
X6.37Y-3.52
X6.3734Y-3.0658
X6.42Y-4.81
X6.4234Y-1.8658
X6.4234Y-2.2658
X6.4234Y-2.7908
X6.4235Y-2.3908
X6.4399Y-5.4
X6.44Y-5.
X6.5669Y-3.52
X6.57Y-4.81
X6.57Y-5.21
X6.5984Y-2.0158
X6.5984Y-2.4158
X6.5984Y-2.5908
X6.5984Y-2.6908
X6.5984Y-2.7908
X6.5984Y-2.9658
X6.5984Y-3.0658
X6.5984Y-3.1658
X6.61Y-4.26
X6.61Y-4.36
X6.61Y-4.46
X6.62Y-4.65
X6.73Y-5.16
X6.73Y-5.56
X6.8Y-4.43
X6.8Y-4.3199
X6.81Y-4.55
X6.81Y-4.65
X6.81Y-4.75
X6.81Y-4.85
X6.81Y-4.95
X6.81Y-5.05
X6.89Y-5.28
X6.89Y-5.4
X6.89Y-5.1599
X6.9184Y-2.3158
X6.9184Y-2.7158
X6.9184Y-3.1158
X7.Y-4.62
X7.Y-4.85
X7.0184Y-2.3158
X7.0184Y-2.7158
X7.0184Y-3.1158
X7.1Y-3.8
X7.1Y-4.2
X7.1Y-4.62
X7.1Y-4.85
X7.17Y-5.04
X7.2Y-4.4301
X7.2Y-4.32
X7.2Y-4.62
X7.2Y-4.85
X7.28Y-4.04
X7.28Y-4.14
X7.28Y-4.24
X7.29Y-5.2801
X7.29Y-5.16
X7.29Y-5.4
X7.33Y-4.44
X7.33Y-4.84
X7.3684Y-2.3158
X7.3684Y-2.7158
X7.3684Y-3.1158
X7.4684Y-2.3158
X7.4684Y-2.7158
X7.4684Y-3.1158
X7.49Y-4.44
X7.49Y-4.84
X7.52Y-5.24
X7.52Y-5.34
X7.52Y-5.44
X7.56Y-4.04
X7.56Y-4.14
X7.56Y-4.24
X7.57Y-5.0401
X7.6484Y-4.8358
X7.6485Y-4.4358
X7.65Y-3.725
X7.65Y-3.825
X7.65Y-3.925
X7.7Y-4.94
X7.7Y-5.34
T2
X7.85Y-2.8
X7.85Y-3.7
X7.85Y-3.99
X7.85Y-4.89
X7.9Y-2.325
X7.9Y-2.6
X7.91Y-5.11
X7.91Y-5.34
X8.Y-2.325
X8.Y-2.6
X8.01Y-5.11
X8.01Y-5.34
X8.1Y-2.325
X8.1Y-2.6
X8.11Y-5.11
X8.11Y-5.34
X8.15Y-2.8
X8.15Y-3.7
X8.15Y-3.99
X8.15Y-4.89
T3
X4.79Y-4.06
X4.79Y-4.16
X7.0934Y-1.9658
X7.1934Y-1.9658
X7.2934Y-1.9658
X8.25Y-3.85
X8.35Y-3.85
T0
M30
