G04 #@! TF.FileFunction,Legend,Top*
%FSLAX46Y46*%
G04 Gerber Fmt 4.6, Leading zero omitted, Abs format (unit mm)*
G04 Created by KiCad (PCBNEW 4.0.1-stable) date 09/21/16 04:31:25*
%MOMM*%
G01*
G04 APERTURE LIST*
%ADD10C,0.100000*%
%ADD11C,0.150000*%
%ADD12C,0.300000*%
G04 APERTURE END LIST*
D10*
D11*
X115000000Y-145000000D02*
X115000000Y-45000000D01*
X215000000Y-45000000D02*
X115000000Y-45000000D01*
X215000000Y-145000000D02*
X115000000Y-145000000D01*
X215000000Y-45000000D02*
X215000000Y-145000000D01*
D12*
X127183429Y-129422000D02*
X127897715Y-129422000D01*
X127040572Y-129850571D02*
X127540572Y-128350571D01*
X128040572Y-129850571D01*
X129183429Y-128850571D02*
X129183429Y-129850571D01*
X128540572Y-128850571D02*
X128540572Y-129636286D01*
X128612000Y-129779143D01*
X128754858Y-129850571D01*
X128969143Y-129850571D01*
X129112000Y-129779143D01*
X129183429Y-129707714D01*
X130540572Y-129850571D02*
X130540572Y-128350571D01*
X130540572Y-129779143D02*
X130397715Y-129850571D01*
X130112001Y-129850571D01*
X129969143Y-129779143D01*
X129897715Y-129707714D01*
X129826286Y-129564857D01*
X129826286Y-129136286D01*
X129897715Y-128993429D01*
X129969143Y-128922000D01*
X130112001Y-128850571D01*
X130397715Y-128850571D01*
X130540572Y-128922000D01*
X131254858Y-129850571D02*
X131254858Y-128850571D01*
X131254858Y-128350571D02*
X131183429Y-128422000D01*
X131254858Y-128493429D01*
X131326286Y-128422000D01*
X131254858Y-128350571D01*
X131254858Y-128493429D01*
X132183430Y-129850571D02*
X132040572Y-129779143D01*
X131969144Y-129707714D01*
X131897715Y-129564857D01*
X131897715Y-129136286D01*
X131969144Y-128993429D01*
X132040572Y-128922000D01*
X132183430Y-128850571D01*
X132397715Y-128850571D01*
X132540572Y-128922000D01*
X132612001Y-128993429D01*
X132683430Y-129136286D01*
X132683430Y-129564857D01*
X132612001Y-129707714D01*
X132540572Y-129779143D01*
X132397715Y-129850571D01*
X132183430Y-129850571D01*
X134397715Y-129422000D02*
X135112001Y-129422000D01*
X134254858Y-129850571D02*
X134754858Y-128350571D01*
X135254858Y-129850571D01*
X135754858Y-129850571D02*
X135754858Y-128850571D01*
X135754858Y-128993429D02*
X135826286Y-128922000D01*
X135969144Y-128850571D01*
X136183429Y-128850571D01*
X136326286Y-128922000D01*
X136397715Y-129064857D01*
X136397715Y-129850571D01*
X136397715Y-129064857D02*
X136469144Y-128922000D01*
X136612001Y-128850571D01*
X136826286Y-128850571D01*
X136969144Y-128922000D01*
X137040572Y-129064857D01*
X137040572Y-129850571D01*
X137754858Y-128850571D02*
X137754858Y-130350571D01*
X137754858Y-128922000D02*
X137897715Y-128850571D01*
X138183429Y-128850571D01*
X138326286Y-128922000D01*
X138397715Y-128993429D01*
X138469144Y-129136286D01*
X138469144Y-129564857D01*
X138397715Y-129707714D01*
X138326286Y-129779143D01*
X138183429Y-129850571D01*
X137897715Y-129850571D01*
X137754858Y-129779143D01*
X140183429Y-128493429D02*
X140254858Y-128422000D01*
X140397715Y-128350571D01*
X140754858Y-128350571D01*
X140897715Y-128422000D01*
X140969144Y-128493429D01*
X141040572Y-128636286D01*
X141040572Y-128779143D01*
X140969144Y-128993429D01*
X140112001Y-129850571D01*
X141040572Y-129850571D01*
X129397715Y-132250571D02*
X128897715Y-131536286D01*
X128540572Y-132250571D02*
X128540572Y-130750571D01*
X129112000Y-130750571D01*
X129254858Y-130822000D01*
X129326286Y-130893429D01*
X129397715Y-131036286D01*
X129397715Y-131250571D01*
X129326286Y-131393429D01*
X129254858Y-131464857D01*
X129112000Y-131536286D01*
X128540572Y-131536286D01*
X130612000Y-132179143D02*
X130469143Y-132250571D01*
X130183429Y-132250571D01*
X130040572Y-132179143D01*
X129969143Y-132036286D01*
X129969143Y-131464857D01*
X130040572Y-131322000D01*
X130183429Y-131250571D01*
X130469143Y-131250571D01*
X130612000Y-131322000D01*
X130683429Y-131464857D01*
X130683429Y-131607714D01*
X129969143Y-131750571D01*
X131183429Y-131250571D02*
X131540572Y-132250571D01*
X131897714Y-131250571D01*
X132469143Y-132250571D02*
X132469143Y-131250571D01*
X132469143Y-130750571D02*
X132397714Y-130822000D01*
X132469143Y-130893429D01*
X132540571Y-130822000D01*
X132469143Y-130750571D01*
X132469143Y-130893429D01*
X133112000Y-132179143D02*
X133254857Y-132250571D01*
X133540572Y-132250571D01*
X133683429Y-132179143D01*
X133754857Y-132036286D01*
X133754857Y-131964857D01*
X133683429Y-131822000D01*
X133540572Y-131750571D01*
X133326286Y-131750571D01*
X133183429Y-131679143D01*
X133112000Y-131536286D01*
X133112000Y-131464857D01*
X133183429Y-131322000D01*
X133326286Y-131250571D01*
X133540572Y-131250571D01*
X133683429Y-131322000D01*
X134397715Y-132250571D02*
X134397715Y-131250571D01*
X134397715Y-130750571D02*
X134326286Y-130822000D01*
X134397715Y-130893429D01*
X134469143Y-130822000D01*
X134397715Y-130750571D01*
X134397715Y-130893429D01*
X135326287Y-132250571D02*
X135183429Y-132179143D01*
X135112001Y-132107714D01*
X135040572Y-131964857D01*
X135040572Y-131536286D01*
X135112001Y-131393429D01*
X135183429Y-131322000D01*
X135326287Y-131250571D01*
X135540572Y-131250571D01*
X135683429Y-131322000D01*
X135754858Y-131393429D01*
X135826287Y-131536286D01*
X135826287Y-131964857D01*
X135754858Y-132107714D01*
X135683429Y-132179143D01*
X135540572Y-132250571D01*
X135326287Y-132250571D01*
X136469144Y-131250571D02*
X136469144Y-132250571D01*
X136469144Y-131393429D02*
X136540572Y-131322000D01*
X136683430Y-131250571D01*
X136897715Y-131250571D01*
X137040572Y-131322000D01*
X137112001Y-131464857D01*
X137112001Y-132250571D01*
X138897715Y-130893429D02*
X138969144Y-130822000D01*
X139112001Y-130750571D01*
X139469144Y-130750571D01*
X139612001Y-130822000D01*
X139683430Y-130893429D01*
X139754858Y-131036286D01*
X139754858Y-131179143D01*
X139683430Y-131393429D01*
X138826287Y-132250571D01*
X139754858Y-132250571D01*
X124326286Y-133150571D02*
X124826286Y-134650571D01*
X125326286Y-133150571D01*
X126040572Y-134650571D02*
X125897714Y-134579143D01*
X125826286Y-134507714D01*
X125754857Y-134364857D01*
X125754857Y-133936286D01*
X125826286Y-133793429D01*
X125897714Y-133722000D01*
X126040572Y-133650571D01*
X126254857Y-133650571D01*
X126397714Y-133722000D01*
X126469143Y-133793429D01*
X126540572Y-133936286D01*
X126540572Y-134364857D01*
X126469143Y-134507714D01*
X126397714Y-134579143D01*
X126254857Y-134650571D01*
X126040572Y-134650571D01*
X127397715Y-134650571D02*
X127254857Y-134579143D01*
X127183429Y-134436286D01*
X127183429Y-133150571D01*
X127754857Y-133650571D02*
X128326286Y-133650571D01*
X127969143Y-133150571D02*
X127969143Y-134436286D01*
X128040571Y-134579143D01*
X128183429Y-134650571D01*
X128326286Y-134650571D01*
X129469143Y-134650571D02*
X129469143Y-133864857D01*
X129397714Y-133722000D01*
X129254857Y-133650571D01*
X128969143Y-133650571D01*
X128826286Y-133722000D01*
X129469143Y-134579143D02*
X129326286Y-134650571D01*
X128969143Y-134650571D01*
X128826286Y-134579143D01*
X128754857Y-134436286D01*
X128754857Y-134293429D01*
X128826286Y-134150571D01*
X128969143Y-134079143D01*
X129326286Y-134079143D01*
X129469143Y-134007714D01*
X130826286Y-133650571D02*
X130826286Y-134864857D01*
X130754857Y-135007714D01*
X130683429Y-135079143D01*
X130540572Y-135150571D01*
X130326286Y-135150571D01*
X130183429Y-135079143D01*
X130826286Y-134579143D02*
X130683429Y-134650571D01*
X130397715Y-134650571D01*
X130254857Y-134579143D01*
X130183429Y-134507714D01*
X130112000Y-134364857D01*
X130112000Y-133936286D01*
X130183429Y-133793429D01*
X130254857Y-133722000D01*
X130397715Y-133650571D01*
X130683429Y-133650571D01*
X130826286Y-133722000D01*
X132112000Y-134579143D02*
X131969143Y-134650571D01*
X131683429Y-134650571D01*
X131540572Y-134579143D01*
X131469143Y-134436286D01*
X131469143Y-133864857D01*
X131540572Y-133722000D01*
X131683429Y-133650571D01*
X131969143Y-133650571D01*
X132112000Y-133722000D01*
X132183429Y-133864857D01*
X132183429Y-134007714D01*
X131469143Y-134150571D01*
X134469143Y-133864857D02*
X133969143Y-133864857D01*
X133969143Y-134650571D02*
X133969143Y-133150571D01*
X134683429Y-133150571D01*
X135826285Y-134579143D02*
X135683428Y-134650571D01*
X135397714Y-134650571D01*
X135254857Y-134579143D01*
X135183428Y-134436286D01*
X135183428Y-133864857D01*
X135254857Y-133722000D01*
X135397714Y-133650571D01*
X135683428Y-133650571D01*
X135826285Y-133722000D01*
X135897714Y-133864857D01*
X135897714Y-134007714D01*
X135183428Y-134150571D01*
X137111999Y-134579143D02*
X136969142Y-134650571D01*
X136683428Y-134650571D01*
X136540571Y-134579143D01*
X136469142Y-134436286D01*
X136469142Y-133864857D01*
X136540571Y-133722000D01*
X136683428Y-133650571D01*
X136969142Y-133650571D01*
X137111999Y-133722000D01*
X137183428Y-133864857D01*
X137183428Y-134007714D01*
X136469142Y-134150571D01*
X138469142Y-134650571D02*
X138469142Y-133150571D01*
X138469142Y-134579143D02*
X138326285Y-134650571D01*
X138040571Y-134650571D01*
X137897713Y-134579143D01*
X137826285Y-134507714D01*
X137754856Y-134364857D01*
X137754856Y-133936286D01*
X137826285Y-133793429D01*
X137897713Y-133722000D01*
X138040571Y-133650571D01*
X138326285Y-133650571D01*
X138469142Y-133722000D01*
X139183428Y-134650571D02*
X139183428Y-133150571D01*
X139183428Y-133722000D02*
X139326285Y-133650571D01*
X139611999Y-133650571D01*
X139754856Y-133722000D01*
X139826285Y-133793429D01*
X139897714Y-133936286D01*
X139897714Y-134364857D01*
X139826285Y-134507714D01*
X139754856Y-134579143D01*
X139611999Y-134650571D01*
X139326285Y-134650571D01*
X139183428Y-134579143D01*
X141183428Y-134650571D02*
X141183428Y-133864857D01*
X141111999Y-133722000D01*
X140969142Y-133650571D01*
X140683428Y-133650571D01*
X140540571Y-133722000D01*
X141183428Y-134579143D02*
X141040571Y-134650571D01*
X140683428Y-134650571D01*
X140540571Y-134579143D01*
X140469142Y-134436286D01*
X140469142Y-134293429D01*
X140540571Y-134150571D01*
X140683428Y-134079143D01*
X141040571Y-134079143D01*
X141183428Y-134007714D01*
X142540571Y-134579143D02*
X142397714Y-134650571D01*
X142112000Y-134650571D01*
X141969142Y-134579143D01*
X141897714Y-134507714D01*
X141826285Y-134364857D01*
X141826285Y-133936286D01*
X141897714Y-133793429D01*
X141969142Y-133722000D01*
X142112000Y-133650571D01*
X142397714Y-133650571D01*
X142540571Y-133722000D01*
X143183428Y-134650571D02*
X143183428Y-133150571D01*
X143326285Y-134079143D02*
X143754856Y-134650571D01*
X143754856Y-133650571D02*
X143183428Y-134222000D01*
D11*
X126957460Y-62885480D02*
X126957460Y-61488480D01*
X126957460Y-67330480D02*
X126957460Y-68854480D01*
X126195460Y-66695480D02*
X127719460Y-66695480D01*
X126957460Y-67457480D02*
X127719460Y-67457480D01*
X127719460Y-67457480D02*
X127719460Y-62885480D01*
X127719460Y-62885480D02*
X126195460Y-62885480D01*
X126195460Y-62885480D02*
X126195460Y-67457480D01*
X126195460Y-67457480D02*
X126957460Y-67457480D01*
X130137540Y-67458520D02*
X130137540Y-68855520D01*
X130137540Y-63013520D02*
X130137540Y-61489520D01*
X130899540Y-63648520D02*
X129375540Y-63648520D01*
X130137540Y-62886520D02*
X129375540Y-62886520D01*
X129375540Y-62886520D02*
X129375540Y-67458520D01*
X129375540Y-67458520D02*
X130899540Y-67458520D01*
X130899540Y-67458520D02*
X130899540Y-62886520D01*
X130899540Y-62886520D02*
X130137540Y-62886520D01*
X142197460Y-62885480D02*
X142197460Y-61488480D01*
X142197460Y-67330480D02*
X142197460Y-68854480D01*
X141435460Y-66695480D02*
X142959460Y-66695480D01*
X142197460Y-67457480D02*
X142959460Y-67457480D01*
X142959460Y-67457480D02*
X142959460Y-62885480D01*
X142959460Y-62885480D02*
X141435460Y-62885480D01*
X141435460Y-62885480D02*
X141435460Y-67457480D01*
X141435460Y-67457480D02*
X142197460Y-67457480D01*
X146012540Y-67458520D02*
X146012540Y-68855520D01*
X146012540Y-63013520D02*
X146012540Y-61489520D01*
X146774540Y-63648520D02*
X145250540Y-63648520D01*
X146012540Y-62886520D02*
X145250540Y-62886520D01*
X145250540Y-62886520D02*
X145250540Y-67458520D01*
X145250540Y-67458520D02*
X146774540Y-67458520D01*
X146774540Y-67458520D02*
X146774540Y-62886520D01*
X146774540Y-62886520D02*
X146012540Y-62886520D01*
X159342460Y-63520480D02*
X159342460Y-62123480D01*
X159342460Y-67965480D02*
X159342460Y-69489480D01*
X158580460Y-67330480D02*
X160104460Y-67330480D01*
X159342460Y-68092480D02*
X160104460Y-68092480D01*
X160104460Y-68092480D02*
X160104460Y-63520480D01*
X160104460Y-63520480D02*
X158580460Y-63520480D01*
X158580460Y-63520480D02*
X158580460Y-68092480D01*
X158580460Y-68092480D02*
X159342460Y-68092480D01*
X163157540Y-68093520D02*
X163157540Y-69490520D01*
X163157540Y-63648520D02*
X163157540Y-62124520D01*
X163919540Y-64283520D02*
X162395540Y-64283520D01*
X163157540Y-63521520D02*
X162395540Y-63521520D01*
X162395540Y-63521520D02*
X162395540Y-68093520D01*
X162395540Y-68093520D02*
X163919540Y-68093520D01*
X163919540Y-68093520D02*
X163919540Y-63521520D01*
X163919540Y-63521520D02*
X163157540Y-63521520D01*
X147320520Y-120393460D02*
X148717520Y-120393460D01*
X142875520Y-120393460D02*
X141351520Y-120393460D01*
X143510520Y-119631460D02*
X143510520Y-121155460D01*
X142748520Y-120393460D02*
X142748520Y-121155460D01*
X142748520Y-121155460D02*
X147320520Y-121155460D01*
X147320520Y-121155460D02*
X147320520Y-119631460D01*
X147320520Y-119631460D02*
X142748520Y-119631460D01*
X142748520Y-119631460D02*
X142748520Y-120393460D01*
X139956540Y-114046520D02*
X139956540Y-115443520D01*
X139956540Y-109601520D02*
X139956540Y-108077520D01*
X140718540Y-110236520D02*
X139194540Y-110236520D01*
X139956540Y-109474520D02*
X139194540Y-109474520D01*
X139194540Y-109474520D02*
X139194540Y-114046520D01*
X139194540Y-114046520D02*
X140718540Y-114046520D01*
X140718540Y-114046520D02*
X140718540Y-109474520D01*
X140718540Y-109474520D02*
X139956540Y-109474520D01*
X163573460Y-129793480D02*
X163573460Y-128396480D01*
X163573460Y-134238480D02*
X163573460Y-135762480D01*
X162811460Y-133603480D02*
X164335460Y-133603480D01*
X163573460Y-134365480D02*
X164335460Y-134365480D01*
X164335460Y-134365480D02*
X164335460Y-129793480D01*
X164335460Y-129793480D02*
X162811460Y-129793480D01*
X162811460Y-129793480D02*
X162811460Y-134365480D01*
X162811460Y-134365480D02*
X163573460Y-134365480D01*
X156974540Y-134366520D02*
X156974540Y-135763520D01*
X156974540Y-129921520D02*
X156974540Y-128397520D01*
X157736540Y-130556520D02*
X156212540Y-130556520D01*
X156974540Y-129794520D02*
X156212540Y-129794520D01*
X156212540Y-129794520D02*
X156212540Y-134366520D01*
X156212540Y-134366520D02*
X157736540Y-134366520D01*
X157736540Y-134366520D02*
X157736540Y-129794520D01*
X157736540Y-129794520D02*
X156974540Y-129794520D01*
X177799480Y-134114540D02*
X176402480Y-134114540D01*
X182244480Y-134114540D02*
X183768480Y-134114540D01*
X181609480Y-134876540D02*
X181609480Y-133352540D01*
X182371480Y-134114540D02*
X182371480Y-133352540D01*
X182371480Y-133352540D02*
X177799480Y-133352540D01*
X177799480Y-133352540D02*
X177799480Y-134876540D01*
X177799480Y-134876540D02*
X182371480Y-134876540D01*
X182371480Y-134876540D02*
X182371480Y-134114540D01*
X182372520Y-131061460D02*
X183769520Y-131061460D01*
X177927520Y-131061460D02*
X176403520Y-131061460D01*
X178562520Y-130299460D02*
X178562520Y-131823460D01*
X177800520Y-131061460D02*
X177800520Y-131823460D01*
X177800520Y-131823460D02*
X182372520Y-131823460D01*
X182372520Y-131823460D02*
X182372520Y-130299460D01*
X182372520Y-130299460D02*
X177800520Y-130299460D01*
X177800520Y-130299460D02*
X177800520Y-131061460D01*
X180086520Y-109725460D02*
X181483520Y-109725460D01*
X175641520Y-109725460D02*
X174117520Y-109725460D01*
X176276520Y-108963460D02*
X176276520Y-110487460D01*
X175514520Y-109725460D02*
X175514520Y-110487460D01*
X175514520Y-110487460D02*
X180086520Y-110487460D01*
X180086520Y-110487460D02*
X180086520Y-108963460D01*
X180086520Y-108963460D02*
X175514520Y-108963460D01*
X175514520Y-108963460D02*
X175514520Y-109725460D01*
X175513480Y-112524540D02*
X174116480Y-112524540D01*
X179958480Y-112524540D02*
X181482480Y-112524540D01*
X179323480Y-113286540D02*
X179323480Y-111762540D01*
X180085480Y-112524540D02*
X180085480Y-111762540D01*
X180085480Y-111762540D02*
X175513480Y-111762540D01*
X175513480Y-111762540D02*
X175513480Y-113286540D01*
X175513480Y-113286540D02*
X180085480Y-113286540D01*
X180085480Y-113286540D02*
X180085480Y-112524540D01*
X184911480Y-128018540D02*
X183514480Y-128018540D01*
X189356480Y-128018540D02*
X190880480Y-128018540D01*
X188721480Y-128780540D02*
X188721480Y-127256540D01*
X189483480Y-128018540D02*
X189483480Y-127256540D01*
X189483480Y-127256540D02*
X184911480Y-127256540D01*
X184911480Y-127256540D02*
X184911480Y-128780540D01*
X184911480Y-128780540D02*
X189483480Y-128780540D01*
X189483480Y-128780540D02*
X189483480Y-128018540D01*
X194272540Y-120036520D02*
X194272540Y-121433520D01*
X194272540Y-115591520D02*
X194272540Y-114067520D01*
X195034540Y-116226520D02*
X193510540Y-116226520D01*
X194272540Y-115464520D02*
X193510540Y-115464520D01*
X193510540Y-115464520D02*
X193510540Y-120036520D01*
X193510540Y-120036520D02*
X195034540Y-120036520D01*
X195034540Y-120036520D02*
X195034540Y-115464520D01*
X195034540Y-115464520D02*
X194272540Y-115464520D01*
X122936000Y-104394000D02*
X122936000Y-106934000D01*
X123216000Y-101574000D02*
X123216000Y-103124000D01*
X122936000Y-104394000D02*
X120396000Y-104394000D01*
X120116000Y-103124000D02*
X120116000Y-101574000D01*
X120116000Y-101574000D02*
X123216000Y-101574000D01*
X120396000Y-104394000D02*
X120396000Y-106934000D01*
X120396000Y-106934000D02*
X122936000Y-106934000D01*
X210820000Y-96520000D02*
X213360000Y-96520000D01*
X208000000Y-96240000D02*
X209550000Y-96240000D01*
X210820000Y-96520000D02*
X210820000Y-99060000D01*
X209550000Y-99340000D02*
X208000000Y-99340000D01*
X208000000Y-99340000D02*
X208000000Y-96240000D01*
X210820000Y-99060000D02*
X213360000Y-99060000D01*
X213360000Y-99060000D02*
X213360000Y-96520000D01*
X181443000Y-51202000D02*
X186523000Y-51202000D01*
X186523000Y-51202000D02*
X186523000Y-48662000D01*
X186523000Y-48662000D02*
X181443000Y-48662000D01*
X178623000Y-48382000D02*
X180173000Y-48382000D01*
X181443000Y-48662000D02*
X181443000Y-51202000D01*
X180173000Y-51482000D02*
X178623000Y-51482000D01*
X178623000Y-51482000D02*
X178623000Y-48382000D01*
X134941990Y-67994695D02*
G75*
G03X135645000Y-67507000I-996990J2187695D01*
G01*
X134941990Y-63619305D02*
G75*
G02X135645000Y-64107000I-996990J-2187695D01*
G01*
X135645000Y-67507000D02*
X135645000Y-64107000D01*
X132951873Y-67991879D02*
G75*
G02X131545000Y-65807000I993127J2184879D01*
G01*
X132951873Y-63622121D02*
G75*
G03X131545000Y-65807000I993127J-2184879D01*
G01*
X133583010Y-74414305D02*
G75*
G03X132880000Y-74902000I996990J-2187695D01*
G01*
X133583010Y-78789695D02*
G75*
G02X132880000Y-78302000I996990J2187695D01*
G01*
X132880000Y-74902000D02*
X132880000Y-78302000D01*
X135573127Y-74417121D02*
G75*
G02X136980000Y-76602000I-993127J-2184879D01*
G01*
X135573127Y-78786879D02*
G75*
G03X136980000Y-76602000I-993127J2184879D01*
G01*
X151451990Y-69264695D02*
G75*
G03X152155000Y-68777000I-996990J2187695D01*
G01*
X151451990Y-64889305D02*
G75*
G02X152155000Y-65377000I-996990J-2187695D01*
G01*
X152155000Y-68777000D02*
X152155000Y-65377000D01*
X149461873Y-69261879D02*
G75*
G02X148055000Y-67077000I993127J2184879D01*
G01*
X149461873Y-64892121D02*
G75*
G03X148055000Y-67077000I993127J-2184879D01*
G01*
X149458010Y-74414305D02*
G75*
G03X148755000Y-74902000I996990J-2187695D01*
G01*
X149458010Y-78789695D02*
G75*
G02X148755000Y-78302000I996990J2187695D01*
G01*
X148755000Y-74902000D02*
X148755000Y-78302000D01*
X151448127Y-74417121D02*
G75*
G02X152855000Y-76602000I-993127J-2184879D01*
G01*
X151448127Y-78786879D02*
G75*
G03X152855000Y-76602000I-993127J2184879D01*
G01*
X168596990Y-70534695D02*
G75*
G03X169300000Y-70047000I-996990J2187695D01*
G01*
X168596990Y-66159305D02*
G75*
G02X169300000Y-66647000I-996990J-2187695D01*
G01*
X169300000Y-70047000D02*
X169300000Y-66647000D01*
X166606873Y-70531879D02*
G75*
G02X165200000Y-68347000I993127J2184879D01*
G01*
X166606873Y-66162121D02*
G75*
G03X165200000Y-68347000I993127J-2184879D01*
G01*
X166603010Y-75684305D02*
G75*
G03X165900000Y-76172000I996990J-2187695D01*
G01*
X166603010Y-80059695D02*
G75*
G02X165900000Y-79572000I996990J2187695D01*
G01*
X165900000Y-76172000D02*
X165900000Y-79572000D01*
X168593127Y-75687121D02*
G75*
G02X170000000Y-77872000I-993127J-2184879D01*
G01*
X168593127Y-80056879D02*
G75*
G03X170000000Y-77872000I-993127J2184879D01*
G01*
X148101010Y-99666305D02*
G75*
G03X147398000Y-100154000I996990J-2187695D01*
G01*
X148101010Y-104041695D02*
G75*
G02X147398000Y-103554000I996990J2187695D01*
G01*
X147398000Y-100154000D02*
X147398000Y-103554000D01*
X150091127Y-99669121D02*
G75*
G02X151498000Y-101854000I-993127J-2184879D01*
G01*
X150091127Y-104038879D02*
G75*
G03X151498000Y-101854000I-993127J2184879D01*
G01*
X143744990Y-103787695D02*
G75*
G03X144448000Y-103300000I-996990J2187695D01*
G01*
X143744990Y-99412305D02*
G75*
G02X144448000Y-99900000I-996990J-2187695D01*
G01*
X144448000Y-103300000D02*
X144448000Y-99900000D01*
X141754873Y-103784879D02*
G75*
G02X140348000Y-101600000I993127J2184879D01*
G01*
X141754873Y-99415121D02*
G75*
G03X140348000Y-101600000I993127J-2184879D01*
G01*
X130536990Y-113693695D02*
G75*
G03X131240000Y-113206000I-996990J2187695D01*
G01*
X130536990Y-109318305D02*
G75*
G02X131240000Y-109806000I-996990J-2187695D01*
G01*
X131240000Y-113206000D02*
X131240000Y-109806000D01*
X128546873Y-113690879D02*
G75*
G02X127140000Y-111506000I993127J2184879D01*
G01*
X128546873Y-109321121D02*
G75*
G03X127140000Y-111506000I993127J-2184879D01*
G01*
X156190990Y-104041695D02*
G75*
G03X156894000Y-103554000I-996990J2187695D01*
G01*
X156190990Y-99666305D02*
G75*
G02X156894000Y-100154000I-996990J-2187695D01*
G01*
X156894000Y-103554000D02*
X156894000Y-100154000D01*
X154200873Y-104038879D02*
G75*
G02X152794000Y-101854000I993127J2184879D01*
G01*
X154200873Y-99669121D02*
G75*
G03X152794000Y-101854000I993127J-2184879D01*
G01*
X161778990Y-106581695D02*
G75*
G03X162482000Y-106094000I-996990J2187695D01*
G01*
X161778990Y-102206305D02*
G75*
G02X162482000Y-102694000I-996990J-2187695D01*
G01*
X162482000Y-106094000D02*
X162482000Y-102694000D01*
X159788873Y-106578879D02*
G75*
G02X158382000Y-104394000I993127J2184879D01*
G01*
X159788873Y-102209121D02*
G75*
G03X158382000Y-104394000I993127J-2184879D01*
G01*
X135147010Y-109318305D02*
G75*
G03X134444000Y-109806000I996990J-2187695D01*
G01*
X135147010Y-113693695D02*
G75*
G02X134444000Y-113206000I996990J2187695D01*
G01*
X134444000Y-109806000D02*
X134444000Y-113206000D01*
X137137127Y-109321121D02*
G75*
G02X138544000Y-111506000I-993127J-2184879D01*
G01*
X137137127Y-113690879D02*
G75*
G03X138544000Y-111506000I-993127J2184879D01*
G01*
X161778990Y-114709695D02*
G75*
G03X162482000Y-114222000I-996990J2187695D01*
G01*
X161778990Y-110334305D02*
G75*
G02X162482000Y-110822000I-996990J-2187695D01*
G01*
X162482000Y-114222000D02*
X162482000Y-110822000D01*
X159788873Y-114706879D02*
G75*
G02X158382000Y-112522000I993127J2184879D01*
G01*
X159788873Y-110337121D02*
G75*
G03X158382000Y-112522000I993127J-2184879D01*
G01*
X158340305Y-123170990D02*
G75*
G03X158828000Y-123874000I2187695J996990D01*
G01*
X162715695Y-123170990D02*
G75*
G02X162228000Y-123874000I-2187695J996990D01*
G01*
X158828000Y-123874000D02*
X162228000Y-123874000D01*
X158343121Y-121180873D02*
G75*
G02X160528000Y-119774000I2184879J-993127D01*
G01*
X162712879Y-121180873D02*
G75*
G03X160528000Y-119774000I-2184879J-993127D01*
G01*
X166897010Y-108556305D02*
G75*
G03X166194000Y-109044000I996990J-2187695D01*
G01*
X166897010Y-112931695D02*
G75*
G02X166194000Y-112444000I996990J2187695D01*
G01*
X166194000Y-109044000D02*
X166194000Y-112444000D01*
X168887127Y-108559121D02*
G75*
G02X170294000Y-110744000I-993127J-2184879D01*
G01*
X168887127Y-112928879D02*
G75*
G03X170294000Y-110744000I-993127J2184879D01*
G01*
X171977010Y-123542305D02*
G75*
G03X171274000Y-124030000I996990J-2187695D01*
G01*
X171977010Y-127917695D02*
G75*
G02X171274000Y-127430000I996990J2187695D01*
G01*
X171274000Y-124030000D02*
X171274000Y-127430000D01*
X173967127Y-123545121D02*
G75*
G02X175374000Y-125730000I-993127J-2184879D01*
G01*
X173967127Y-127914879D02*
G75*
G03X175374000Y-125730000I-993127J2184879D01*
G01*
X171977010Y-115922305D02*
G75*
G03X171274000Y-116410000I996990J-2187695D01*
G01*
X171977010Y-120297695D02*
G75*
G02X171274000Y-119810000I996990J2187695D01*
G01*
X171274000Y-116410000D02*
X171274000Y-119810000D01*
X173967127Y-115925121D02*
G75*
G02X175374000Y-118110000I-993127J-2184879D01*
G01*
X173967127Y-120294879D02*
G75*
G03X175374000Y-118110000I-993127J2184879D01*
G01*
X185908990Y-107343695D02*
G75*
G03X186612000Y-106856000I-996990J2187695D01*
G01*
X185908990Y-102968305D02*
G75*
G02X186612000Y-103456000I-996990J-2187695D01*
G01*
X186612000Y-106856000D02*
X186612000Y-103456000D01*
X183918873Y-107340879D02*
G75*
G02X182512000Y-105156000I993127J2184879D01*
G01*
X183918873Y-102971121D02*
G75*
G03X182512000Y-105156000I993127J-2184879D01*
G01*
X182527695Y-116351010D02*
G75*
G03X182040000Y-115648000I-2187695J-996990D01*
G01*
X178152305Y-116351010D02*
G75*
G02X178640000Y-115648000I2187695J-996990D01*
G01*
X182040000Y-115648000D02*
X178640000Y-115648000D01*
X182524879Y-118341127D02*
G75*
G02X180340000Y-119748000I-2184879J993127D01*
G01*
X178155121Y-118341127D02*
G75*
G03X180340000Y-119748000I2184879J993127D01*
G01*
X191027010Y-102968305D02*
G75*
G03X190324000Y-103456000I996990J-2187695D01*
G01*
X191027010Y-107343695D02*
G75*
G02X190324000Y-106856000I996990J2187695D01*
G01*
X190324000Y-103456000D02*
X190324000Y-106856000D01*
X193017127Y-102971121D02*
G75*
G02X194424000Y-105156000I-993127J-2184879D01*
G01*
X193017127Y-107340879D02*
G75*
G03X194424000Y-105156000I-993127J2184879D01*
G01*
X178152305Y-124186990D02*
G75*
G03X178640000Y-124890000I2187695J996990D01*
G01*
X182527695Y-124186990D02*
G75*
G02X182040000Y-124890000I-2187695J996990D01*
G01*
X178640000Y-124890000D02*
X182040000Y-124890000D01*
X178155121Y-122196873D02*
G75*
G02X180340000Y-120790000I2184879J-993127D01*
G01*
X182524879Y-122196873D02*
G75*
G03X180340000Y-120790000I-2184879J-993127D01*
G01*
X190011010Y-133448305D02*
G75*
G03X189308000Y-133936000I996990J-2187695D01*
G01*
X190011010Y-137823695D02*
G75*
G02X189308000Y-137336000I996990J2187695D01*
G01*
X189308000Y-133936000D02*
X189308000Y-137336000D01*
X192001127Y-133451121D02*
G75*
G02X193408000Y-135636000I-993127J-2184879D01*
G01*
X192001127Y-137820879D02*
G75*
G03X193408000Y-135636000I-993127J2184879D01*
G01*
X193313010Y-94967305D02*
G75*
G03X192610000Y-95455000I996990J-2187695D01*
G01*
X193313010Y-99342695D02*
G75*
G02X192610000Y-98855000I996990J2187695D01*
G01*
X192610000Y-95455000D02*
X192610000Y-98855000D01*
X195303127Y-94970121D02*
G75*
G02X196710000Y-97155000I-993127J-2184879D01*
G01*
X195303127Y-99339879D02*
G75*
G03X196710000Y-97155000I-993127J2184879D01*
G01*
X201930000Y-132588000D02*
X201930000Y-133731000D01*
X204978000Y-132588000D02*
X204978000Y-133731000D01*
X208788000Y-133731000D02*
X208788000Y-137414000D01*
X208788000Y-137414000D02*
X198120000Y-137414000D01*
X198120000Y-137414000D02*
X198120000Y-133731000D01*
X208788000Y-132588000D02*
X208788000Y-133731000D01*
X208788000Y-133731000D02*
X198120000Y-133731000D01*
X198120000Y-133731000D02*
X198120000Y-132588000D01*
X203454000Y-132588000D02*
X198120000Y-132588000D01*
X203454000Y-132588000D02*
X208788000Y-132588000D01*
X201930000Y-126746000D02*
X201930000Y-127889000D01*
X204978000Y-126746000D02*
X204978000Y-127889000D01*
X208788000Y-127889000D02*
X208788000Y-131572000D01*
X208788000Y-131572000D02*
X198120000Y-131572000D01*
X198120000Y-131572000D02*
X198120000Y-127889000D01*
X208788000Y-126746000D02*
X208788000Y-127889000D01*
X208788000Y-127889000D02*
X198120000Y-127889000D01*
X198120000Y-127889000D02*
X198120000Y-126746000D01*
X203454000Y-126746000D02*
X198120000Y-126746000D01*
X203454000Y-126746000D02*
X208788000Y-126746000D01*
X201676000Y-62992000D02*
X201676000Y-64135000D01*
X204724000Y-62992000D02*
X204724000Y-64135000D01*
X208534000Y-64135000D02*
X208534000Y-67818000D01*
X208534000Y-67818000D02*
X197866000Y-67818000D01*
X197866000Y-67818000D02*
X197866000Y-64135000D01*
X208534000Y-62992000D02*
X208534000Y-64135000D01*
X208534000Y-64135000D02*
X197866000Y-64135000D01*
X197866000Y-64135000D02*
X197866000Y-62992000D01*
X203200000Y-62992000D02*
X197866000Y-62992000D01*
X203200000Y-62992000D02*
X208534000Y-62992000D01*
X201676000Y-56007000D02*
X201676000Y-57150000D01*
X204724000Y-56007000D02*
X204724000Y-57150000D01*
X208534000Y-57150000D02*
X208534000Y-60833000D01*
X208534000Y-60833000D02*
X197866000Y-60833000D01*
X197866000Y-60833000D02*
X197866000Y-57150000D01*
X208534000Y-56007000D02*
X208534000Y-57150000D01*
X208534000Y-57150000D02*
X197866000Y-57150000D01*
X197866000Y-57150000D02*
X197866000Y-56007000D01*
X203200000Y-56007000D02*
X197866000Y-56007000D01*
X203200000Y-56007000D02*
X208534000Y-56007000D01*
X125984000Y-102362000D02*
X125984000Y-102870000D01*
X125984000Y-102870000D02*
X126492000Y-102870000D01*
X126492000Y-102870000D02*
X125476000Y-102870000D01*
X125476000Y-102870000D02*
X125984000Y-102870000D01*
X125984000Y-102870000D02*
X125984000Y-103378000D01*
X133477000Y-103378000D02*
X133477000Y-107632500D01*
X133477000Y-107632500D02*
X133604000Y-107632500D01*
X133604000Y-107632500D02*
X133604000Y-103505000D01*
X133604000Y-103505000D02*
X133731000Y-103695500D01*
X133731000Y-103695500D02*
X133731000Y-107569000D01*
X133731000Y-107569000D02*
X133858000Y-107505500D01*
X133858000Y-107505500D02*
X133858000Y-103759000D01*
X133858000Y-103759000D02*
X133985000Y-103886000D01*
X133985000Y-103886000D02*
X133985000Y-107442000D01*
X133985000Y-107442000D02*
X134112000Y-107378500D01*
X134112000Y-107378500D02*
X134112000Y-103949500D01*
X134112000Y-103949500D02*
X134239000Y-104013000D01*
X134239000Y-104013000D02*
X134239000Y-107315000D01*
X134239000Y-107315000D02*
X134366000Y-107251500D01*
X134366000Y-107251500D02*
X134366000Y-104013000D01*
X134366000Y-104013000D02*
X134493000Y-104013000D01*
X134493000Y-104013000D02*
X134493000Y-107188000D01*
X134493000Y-107188000D02*
X134620000Y-107124500D01*
X134620000Y-107124500D02*
X134620000Y-104013000D01*
X134620000Y-104013000D02*
X134747000Y-104013000D01*
X134747000Y-104013000D02*
X134747000Y-107061000D01*
X134747000Y-107061000D02*
X134874000Y-106997500D01*
X134874000Y-106997500D02*
X134874000Y-103949500D01*
X134874000Y-103949500D02*
X135001000Y-103886000D01*
X135001000Y-103886000D02*
X135001000Y-106934000D01*
X135001000Y-106934000D02*
X135128000Y-106807000D01*
X135128000Y-106807000D02*
X135128000Y-103886000D01*
X135128000Y-103886000D02*
X135255000Y-103759000D01*
X135255000Y-103759000D02*
X135255000Y-106680000D01*
X135255000Y-106680000D02*
X135382000Y-106553000D01*
X135382000Y-106553000D02*
X135382000Y-103632000D01*
X135382000Y-103632000D02*
X135509000Y-103505000D01*
X135509000Y-103505000D02*
X135509000Y-106426000D01*
X135509000Y-106426000D02*
X135636000Y-106362500D01*
X135636000Y-106362500D02*
X135636000Y-103251000D01*
X133413500Y-102425500D02*
X133477000Y-102362000D01*
X133477000Y-98107500D02*
X133477000Y-102298500D01*
X133477000Y-102298500D02*
X133604000Y-102171500D01*
X133604000Y-102171500D02*
X133604000Y-98107500D01*
X133604000Y-98107500D02*
X133731000Y-98171000D01*
X133731000Y-98171000D02*
X133731000Y-102044500D01*
X133731000Y-102044500D02*
X133858000Y-101981000D01*
X133858000Y-101981000D02*
X133858000Y-98234500D01*
X133858000Y-98234500D02*
X133985000Y-98298000D01*
X133985000Y-98298000D02*
X133985000Y-101854000D01*
X133985000Y-101854000D02*
X134112000Y-101790500D01*
X134112000Y-101790500D02*
X134112000Y-98298000D01*
X134112000Y-98298000D02*
X134239000Y-98361500D01*
X134239000Y-98361500D02*
X134239000Y-101790500D01*
X134239000Y-101790500D02*
X134366000Y-101727000D01*
X134366000Y-101727000D02*
X134366000Y-98425000D01*
X134366000Y-98425000D02*
X134493000Y-98488500D01*
X134493000Y-98488500D02*
X134493000Y-101663500D01*
X134493000Y-101663500D02*
X134620000Y-101663500D01*
X134620000Y-101663500D02*
X134620000Y-98615500D01*
X134620000Y-98615500D02*
X134747000Y-98679000D01*
X134747000Y-98679000D02*
X134747000Y-101727000D01*
X134747000Y-101727000D02*
X134874000Y-101790500D01*
X134874000Y-101790500D02*
X134874000Y-98742500D01*
X134874000Y-98742500D02*
X135001000Y-98806000D01*
X135001000Y-98806000D02*
X135001000Y-101790500D01*
X135001000Y-101790500D02*
X135128000Y-101854000D01*
X135128000Y-101854000D02*
X135128000Y-98933000D01*
X135128000Y-98933000D02*
X135255000Y-98996500D01*
X135255000Y-98996500D02*
X135255000Y-101981000D01*
X135255000Y-101981000D02*
X135382000Y-102044500D01*
X135382000Y-102044500D02*
X135382000Y-99123500D01*
X135382000Y-99123500D02*
X135509000Y-99250500D01*
X135509000Y-99250500D02*
X135509000Y-102298500D01*
X135509000Y-102298500D02*
X135636000Y-102489000D01*
X135636000Y-102489000D02*
X135636000Y-99377500D01*
X136525000Y-100711000D02*
X136880600Y-101625400D01*
X136982200Y-102438200D02*
X136982200Y-102184200D01*
X136931400Y-103657400D02*
X136956800Y-103378000D01*
X136474200Y-105054400D02*
X136829800Y-104165400D01*
X132115000Y-97871000D02*
X132115000Y-107869000D01*
X132255000Y-97875000D02*
X132255000Y-107865000D01*
X132395000Y-97883000D02*
X132395000Y-107857000D01*
X132535000Y-97895000D02*
X132535000Y-107845000D01*
X132675000Y-97910000D02*
X132675000Y-107830000D01*
X132815000Y-97930000D02*
X132815000Y-107810000D01*
X132955000Y-97954000D02*
X132955000Y-107786000D01*
X133095000Y-97983000D02*
X133095000Y-107757000D01*
X133235000Y-98015000D02*
X133235000Y-107725000D01*
X133375000Y-98052000D02*
X133375000Y-107688000D01*
X135755000Y-99524000D02*
X135755000Y-106216000D01*
X135895000Y-99686000D02*
X135895000Y-106054000D01*
X136035000Y-99863000D02*
X136035000Y-105877000D01*
X136175000Y-100059000D02*
X136175000Y-105681000D01*
X136315000Y-100277000D02*
X136315000Y-105463000D01*
X136455000Y-100523000D02*
X136455000Y-105217000D01*
X136595000Y-100808000D02*
X136595000Y-104932000D01*
X136735000Y-101150000D02*
X136735000Y-104590000D01*
X136875000Y-101596000D02*
X136875000Y-104144000D01*
X137015000Y-102371000D02*
X137015000Y-103369000D01*
X135658034Y-102870000D02*
G75*
G03X135658034Y-102870000I-1118034J0D01*
G01*
X137077500Y-102870000D02*
G75*
G03X137077500Y-102870000I-5037500J0D01*
G01*
X158242000Y-88900000D02*
X158242000Y-89408000D01*
X158242000Y-89408000D02*
X158750000Y-89408000D01*
X158750000Y-89408000D02*
X157734000Y-89408000D01*
X157734000Y-89408000D02*
X158242000Y-89408000D01*
X158242000Y-89408000D02*
X158242000Y-89916000D01*
X165735000Y-89916000D02*
X165735000Y-94170500D01*
X165735000Y-94170500D02*
X165862000Y-94170500D01*
X165862000Y-94170500D02*
X165862000Y-90043000D01*
X165862000Y-90043000D02*
X165989000Y-90233500D01*
X165989000Y-90233500D02*
X165989000Y-94107000D01*
X165989000Y-94107000D02*
X166116000Y-94043500D01*
X166116000Y-94043500D02*
X166116000Y-90297000D01*
X166116000Y-90297000D02*
X166243000Y-90424000D01*
X166243000Y-90424000D02*
X166243000Y-93980000D01*
X166243000Y-93980000D02*
X166370000Y-93916500D01*
X166370000Y-93916500D02*
X166370000Y-90487500D01*
X166370000Y-90487500D02*
X166497000Y-90551000D01*
X166497000Y-90551000D02*
X166497000Y-93853000D01*
X166497000Y-93853000D02*
X166624000Y-93789500D01*
X166624000Y-93789500D02*
X166624000Y-90551000D01*
X166624000Y-90551000D02*
X166751000Y-90551000D01*
X166751000Y-90551000D02*
X166751000Y-93726000D01*
X166751000Y-93726000D02*
X166878000Y-93662500D01*
X166878000Y-93662500D02*
X166878000Y-90551000D01*
X166878000Y-90551000D02*
X167005000Y-90551000D01*
X167005000Y-90551000D02*
X167005000Y-93599000D01*
X167005000Y-93599000D02*
X167132000Y-93535500D01*
X167132000Y-93535500D02*
X167132000Y-90487500D01*
X167132000Y-90487500D02*
X167259000Y-90424000D01*
X167259000Y-90424000D02*
X167259000Y-93472000D01*
X167259000Y-93472000D02*
X167386000Y-93345000D01*
X167386000Y-93345000D02*
X167386000Y-90424000D01*
X167386000Y-90424000D02*
X167513000Y-90297000D01*
X167513000Y-90297000D02*
X167513000Y-93218000D01*
X167513000Y-93218000D02*
X167640000Y-93091000D01*
X167640000Y-93091000D02*
X167640000Y-90170000D01*
X167640000Y-90170000D02*
X167767000Y-90043000D01*
X167767000Y-90043000D02*
X167767000Y-92964000D01*
X167767000Y-92964000D02*
X167894000Y-92900500D01*
X167894000Y-92900500D02*
X167894000Y-89789000D01*
X165671500Y-88963500D02*
X165735000Y-88900000D01*
X165735000Y-84645500D02*
X165735000Y-88836500D01*
X165735000Y-88836500D02*
X165862000Y-88709500D01*
X165862000Y-88709500D02*
X165862000Y-84645500D01*
X165862000Y-84645500D02*
X165989000Y-84709000D01*
X165989000Y-84709000D02*
X165989000Y-88582500D01*
X165989000Y-88582500D02*
X166116000Y-88519000D01*
X166116000Y-88519000D02*
X166116000Y-84772500D01*
X166116000Y-84772500D02*
X166243000Y-84836000D01*
X166243000Y-84836000D02*
X166243000Y-88392000D01*
X166243000Y-88392000D02*
X166370000Y-88328500D01*
X166370000Y-88328500D02*
X166370000Y-84836000D01*
X166370000Y-84836000D02*
X166497000Y-84899500D01*
X166497000Y-84899500D02*
X166497000Y-88328500D01*
X166497000Y-88328500D02*
X166624000Y-88265000D01*
X166624000Y-88265000D02*
X166624000Y-84963000D01*
X166624000Y-84963000D02*
X166751000Y-85026500D01*
X166751000Y-85026500D02*
X166751000Y-88201500D01*
X166751000Y-88201500D02*
X166878000Y-88201500D01*
X166878000Y-88201500D02*
X166878000Y-85153500D01*
X166878000Y-85153500D02*
X167005000Y-85217000D01*
X167005000Y-85217000D02*
X167005000Y-88265000D01*
X167005000Y-88265000D02*
X167132000Y-88328500D01*
X167132000Y-88328500D02*
X167132000Y-85280500D01*
X167132000Y-85280500D02*
X167259000Y-85344000D01*
X167259000Y-85344000D02*
X167259000Y-88328500D01*
X167259000Y-88328500D02*
X167386000Y-88392000D01*
X167386000Y-88392000D02*
X167386000Y-85471000D01*
X167386000Y-85471000D02*
X167513000Y-85534500D01*
X167513000Y-85534500D02*
X167513000Y-88519000D01*
X167513000Y-88519000D02*
X167640000Y-88582500D01*
X167640000Y-88582500D02*
X167640000Y-85661500D01*
X167640000Y-85661500D02*
X167767000Y-85788500D01*
X167767000Y-85788500D02*
X167767000Y-88836500D01*
X167767000Y-88836500D02*
X167894000Y-89027000D01*
X167894000Y-89027000D02*
X167894000Y-85915500D01*
X168783000Y-87249000D02*
X169138600Y-88163400D01*
X169240200Y-88976200D02*
X169240200Y-88722200D01*
X169189400Y-90195400D02*
X169214800Y-89916000D01*
X168732200Y-91592400D02*
X169087800Y-90703400D01*
X164373000Y-84409000D02*
X164373000Y-94407000D01*
X164513000Y-84413000D02*
X164513000Y-94403000D01*
X164653000Y-84421000D02*
X164653000Y-94395000D01*
X164793000Y-84433000D02*
X164793000Y-94383000D01*
X164933000Y-84448000D02*
X164933000Y-94368000D01*
X165073000Y-84468000D02*
X165073000Y-94348000D01*
X165213000Y-84492000D02*
X165213000Y-94324000D01*
X165353000Y-84521000D02*
X165353000Y-94295000D01*
X165493000Y-84553000D02*
X165493000Y-94263000D01*
X165633000Y-84590000D02*
X165633000Y-94226000D01*
X168013000Y-86062000D02*
X168013000Y-92754000D01*
X168153000Y-86224000D02*
X168153000Y-92592000D01*
X168293000Y-86401000D02*
X168293000Y-92415000D01*
X168433000Y-86597000D02*
X168433000Y-92219000D01*
X168573000Y-86815000D02*
X168573000Y-92001000D01*
X168713000Y-87061000D02*
X168713000Y-91755000D01*
X168853000Y-87346000D02*
X168853000Y-91470000D01*
X168993000Y-87688000D02*
X168993000Y-91128000D01*
X169133000Y-88134000D02*
X169133000Y-90682000D01*
X169273000Y-88909000D02*
X169273000Y-89907000D01*
X167916034Y-89408000D02*
G75*
G03X167916034Y-89408000I-1118034J0D01*
G01*
X169335500Y-89408000D02*
G75*
G03X169335500Y-89408000I-5037500J0D01*
G01*
X176998000Y-58250500D02*
X177125000Y-58123500D01*
X177125000Y-58123500D02*
X177125000Y-54948500D01*
X177125000Y-62759000D02*
X177125000Y-59457000D01*
X177252000Y-62759000D02*
X177252000Y-59647500D01*
X177252000Y-59647500D02*
X177379000Y-59774500D01*
X177379000Y-59774500D02*
X177379000Y-62759000D01*
X177379000Y-62759000D02*
X177506000Y-62759000D01*
X177506000Y-62759000D02*
X177506000Y-59901500D01*
X177506000Y-59901500D02*
X177633000Y-59965000D01*
X177633000Y-59965000D02*
X177633000Y-62759000D01*
X177633000Y-62759000D02*
X177760000Y-62695500D01*
X177760000Y-62695500D02*
X177760000Y-60028500D01*
X177760000Y-60028500D02*
X177887000Y-60092000D01*
X177887000Y-60092000D02*
X177887000Y-62632000D01*
X177887000Y-62632000D02*
X178014000Y-62632000D01*
X178014000Y-62632000D02*
X178014000Y-60092000D01*
X178014000Y-60092000D02*
X178141000Y-60092000D01*
X178141000Y-60092000D02*
X178141000Y-62632000D01*
X178141000Y-62632000D02*
X178268000Y-62568500D01*
X178268000Y-62568500D02*
X178268000Y-60155500D01*
X178268000Y-60155500D02*
X178395000Y-60155500D01*
X178395000Y-60155500D02*
X178395000Y-62505000D01*
X178395000Y-62505000D02*
X178522000Y-62441500D01*
X178522000Y-62441500D02*
X178522000Y-60092000D01*
X178522000Y-60092000D02*
X178649000Y-60028500D01*
X178649000Y-60028500D02*
X178649000Y-62441500D01*
X178649000Y-62441500D02*
X178776000Y-62314500D01*
X178776000Y-62314500D02*
X178776000Y-60028500D01*
X178776000Y-60028500D02*
X178903000Y-59965000D01*
X178903000Y-59965000D02*
X178903000Y-62314500D01*
X178903000Y-62314500D02*
X179030000Y-62187500D01*
X179030000Y-62187500D02*
X179030000Y-59838000D01*
X179030000Y-59838000D02*
X179157000Y-59774500D01*
X179157000Y-59774500D02*
X179157000Y-62187500D01*
X179157000Y-62187500D02*
X179284000Y-61997000D01*
X179284000Y-61997000D02*
X179284000Y-59647500D01*
X179284000Y-59647500D02*
X179411000Y-59457000D01*
X179411000Y-59457000D02*
X179411000Y-61933500D01*
X177252000Y-54885000D02*
X177252000Y-57996500D01*
X177252000Y-57996500D02*
X177379000Y-57869500D01*
X177379000Y-57869500D02*
X177379000Y-54885000D01*
X177379000Y-54885000D02*
X177506000Y-54948500D01*
X177506000Y-54948500D02*
X177506000Y-57742500D01*
X177506000Y-57742500D02*
X177633000Y-57615500D01*
X177633000Y-57615500D02*
X177633000Y-54885000D01*
X177633000Y-54885000D02*
X177760000Y-54948500D01*
X177760000Y-54948500D02*
X177760000Y-57615500D01*
X177760000Y-57615500D02*
X177887000Y-57552000D01*
X177887000Y-57552000D02*
X177887000Y-55012000D01*
X177887000Y-55012000D02*
X178014000Y-55012000D01*
X178014000Y-55012000D02*
X178014000Y-57552000D01*
X178014000Y-57552000D02*
X178141000Y-57552000D01*
X178141000Y-57552000D02*
X178141000Y-55012000D01*
X178141000Y-55012000D02*
X178268000Y-55075500D01*
X178268000Y-55075500D02*
X178268000Y-57552000D01*
X178268000Y-57552000D02*
X178395000Y-57552000D01*
X178395000Y-57552000D02*
X178395000Y-55075500D01*
X178395000Y-55075500D02*
X178522000Y-55139000D01*
X178522000Y-55139000D02*
X178522000Y-57552000D01*
X178522000Y-57552000D02*
X178649000Y-57552000D01*
X178649000Y-57552000D02*
X178649000Y-55202500D01*
X178649000Y-55202500D02*
X178776000Y-55266000D01*
X178776000Y-55266000D02*
X178776000Y-57615500D01*
X178776000Y-57615500D02*
X178903000Y-57679000D01*
X178903000Y-57679000D02*
X178903000Y-55329500D01*
X178903000Y-55329500D02*
X179030000Y-55393000D01*
X179030000Y-55393000D02*
X179030000Y-57806000D01*
X179030000Y-57806000D02*
X179157000Y-57869500D01*
X179157000Y-57869500D02*
X179157000Y-55520000D01*
X179157000Y-55520000D02*
X179284000Y-55583500D01*
X179284000Y-55583500D02*
X179284000Y-57996500D01*
X179284000Y-57996500D02*
X179411000Y-58187000D01*
X179411000Y-58187000D02*
X179411000Y-55710500D01*
X172172000Y-58314000D02*
X172172000Y-59330000D01*
X172172000Y-59330000D02*
X172172000Y-58822000D01*
X172172000Y-58822000D02*
X171664000Y-58822000D01*
X171664000Y-58822000D02*
X172680000Y-58822000D01*
X179538000Y-55837500D02*
X179919000Y-56218500D01*
X180490500Y-56917000D02*
X180363500Y-56853500D01*
X180363500Y-56853500D02*
X180173000Y-56790000D01*
X180744500Y-60028500D02*
X180744500Y-59838000D01*
X179665000Y-61679500D02*
X179792000Y-61552500D01*
X180173000Y-61044500D02*
X180236500Y-60981000D01*
X179538000Y-58822000D02*
G75*
G03X179538000Y-58822000I-1270000J0D01*
G01*
X176998000Y-54821500D02*
X176998000Y-62759000D01*
X176998000Y-62759000D02*
X177125000Y-62759000D01*
X179411000Y-55647000D02*
X179538000Y-55774000D01*
X179538000Y-55774000D02*
X179538000Y-61870000D01*
X179538000Y-61870000D02*
X179665000Y-61679500D01*
X179665000Y-61679500D02*
X179665000Y-55964500D01*
X179665000Y-55964500D02*
X179792000Y-56028000D01*
X179792000Y-56028000D02*
X179792000Y-61552500D01*
X179792000Y-61552500D02*
X179919000Y-61425500D01*
X179919000Y-61425500D02*
X179919000Y-56218500D01*
X179919000Y-56218500D02*
X180046000Y-56345500D01*
X180046000Y-56345500D02*
X180046000Y-61298500D01*
X180046000Y-61298500D02*
X180173000Y-61171500D01*
X180173000Y-61171500D02*
X180173000Y-56409000D01*
X180173000Y-56409000D02*
X180300000Y-56663000D01*
X180300000Y-56663000D02*
X180300000Y-60917500D01*
X180300000Y-60917500D02*
X180427000Y-60727000D01*
X180427000Y-60727000D02*
X180427000Y-56917000D01*
X180427000Y-56917000D02*
X180554000Y-57171000D01*
X180554000Y-57171000D02*
X180554000Y-60536500D01*
X180554000Y-60536500D02*
X180681000Y-60155500D01*
X180681000Y-60155500D02*
X180681000Y-57361500D01*
X180681000Y-57361500D02*
X180808000Y-57742500D01*
X180808000Y-57742500D02*
X180808000Y-59838000D01*
X180808000Y-59838000D02*
X180871500Y-59520500D01*
X180871500Y-59520500D02*
X180871500Y-58250500D01*
X180998000Y-58822000D02*
G75*
G03X180998000Y-58822000I-4000000J0D01*
G01*
X176998000Y-68410500D02*
X177125000Y-68283500D01*
X177125000Y-68283500D02*
X177125000Y-65108500D01*
X177125000Y-72919000D02*
X177125000Y-69617000D01*
X177252000Y-72919000D02*
X177252000Y-69807500D01*
X177252000Y-69807500D02*
X177379000Y-69934500D01*
X177379000Y-69934500D02*
X177379000Y-72919000D01*
X177379000Y-72919000D02*
X177506000Y-72919000D01*
X177506000Y-72919000D02*
X177506000Y-70061500D01*
X177506000Y-70061500D02*
X177633000Y-70125000D01*
X177633000Y-70125000D02*
X177633000Y-72919000D01*
X177633000Y-72919000D02*
X177760000Y-72855500D01*
X177760000Y-72855500D02*
X177760000Y-70188500D01*
X177760000Y-70188500D02*
X177887000Y-70252000D01*
X177887000Y-70252000D02*
X177887000Y-72792000D01*
X177887000Y-72792000D02*
X178014000Y-72792000D01*
X178014000Y-72792000D02*
X178014000Y-70252000D01*
X178014000Y-70252000D02*
X178141000Y-70252000D01*
X178141000Y-70252000D02*
X178141000Y-72792000D01*
X178141000Y-72792000D02*
X178268000Y-72728500D01*
X178268000Y-72728500D02*
X178268000Y-70315500D01*
X178268000Y-70315500D02*
X178395000Y-70315500D01*
X178395000Y-70315500D02*
X178395000Y-72665000D01*
X178395000Y-72665000D02*
X178522000Y-72601500D01*
X178522000Y-72601500D02*
X178522000Y-70252000D01*
X178522000Y-70252000D02*
X178649000Y-70188500D01*
X178649000Y-70188500D02*
X178649000Y-72601500D01*
X178649000Y-72601500D02*
X178776000Y-72474500D01*
X178776000Y-72474500D02*
X178776000Y-70188500D01*
X178776000Y-70188500D02*
X178903000Y-70125000D01*
X178903000Y-70125000D02*
X178903000Y-72474500D01*
X178903000Y-72474500D02*
X179030000Y-72347500D01*
X179030000Y-72347500D02*
X179030000Y-69998000D01*
X179030000Y-69998000D02*
X179157000Y-69934500D01*
X179157000Y-69934500D02*
X179157000Y-72347500D01*
X179157000Y-72347500D02*
X179284000Y-72157000D01*
X179284000Y-72157000D02*
X179284000Y-69807500D01*
X179284000Y-69807500D02*
X179411000Y-69617000D01*
X179411000Y-69617000D02*
X179411000Y-72093500D01*
X177252000Y-65045000D02*
X177252000Y-68156500D01*
X177252000Y-68156500D02*
X177379000Y-68029500D01*
X177379000Y-68029500D02*
X177379000Y-65045000D01*
X177379000Y-65045000D02*
X177506000Y-65108500D01*
X177506000Y-65108500D02*
X177506000Y-67902500D01*
X177506000Y-67902500D02*
X177633000Y-67775500D01*
X177633000Y-67775500D02*
X177633000Y-65045000D01*
X177633000Y-65045000D02*
X177760000Y-65108500D01*
X177760000Y-65108500D02*
X177760000Y-67775500D01*
X177760000Y-67775500D02*
X177887000Y-67712000D01*
X177887000Y-67712000D02*
X177887000Y-65172000D01*
X177887000Y-65172000D02*
X178014000Y-65172000D01*
X178014000Y-65172000D02*
X178014000Y-67712000D01*
X178014000Y-67712000D02*
X178141000Y-67712000D01*
X178141000Y-67712000D02*
X178141000Y-65172000D01*
X178141000Y-65172000D02*
X178268000Y-65235500D01*
X178268000Y-65235500D02*
X178268000Y-67712000D01*
X178268000Y-67712000D02*
X178395000Y-67712000D01*
X178395000Y-67712000D02*
X178395000Y-65235500D01*
X178395000Y-65235500D02*
X178522000Y-65299000D01*
X178522000Y-65299000D02*
X178522000Y-67712000D01*
X178522000Y-67712000D02*
X178649000Y-67712000D01*
X178649000Y-67712000D02*
X178649000Y-65362500D01*
X178649000Y-65362500D02*
X178776000Y-65426000D01*
X178776000Y-65426000D02*
X178776000Y-67775500D01*
X178776000Y-67775500D02*
X178903000Y-67839000D01*
X178903000Y-67839000D02*
X178903000Y-65489500D01*
X178903000Y-65489500D02*
X179030000Y-65553000D01*
X179030000Y-65553000D02*
X179030000Y-67966000D01*
X179030000Y-67966000D02*
X179157000Y-68029500D01*
X179157000Y-68029500D02*
X179157000Y-65680000D01*
X179157000Y-65680000D02*
X179284000Y-65743500D01*
X179284000Y-65743500D02*
X179284000Y-68156500D01*
X179284000Y-68156500D02*
X179411000Y-68347000D01*
X179411000Y-68347000D02*
X179411000Y-65870500D01*
X172172000Y-68474000D02*
X172172000Y-69490000D01*
X172172000Y-69490000D02*
X172172000Y-68982000D01*
X172172000Y-68982000D02*
X171664000Y-68982000D01*
X171664000Y-68982000D02*
X172680000Y-68982000D01*
X179538000Y-65997500D02*
X179919000Y-66378500D01*
X180490500Y-67077000D02*
X180363500Y-67013500D01*
X180363500Y-67013500D02*
X180173000Y-66950000D01*
X180744500Y-70188500D02*
X180744500Y-69998000D01*
X179665000Y-71839500D02*
X179792000Y-71712500D01*
X180173000Y-71204500D02*
X180236500Y-71141000D01*
X179538000Y-68982000D02*
G75*
G03X179538000Y-68982000I-1270000J0D01*
G01*
X176998000Y-64981500D02*
X176998000Y-72919000D01*
X176998000Y-72919000D02*
X177125000Y-72919000D01*
X179411000Y-65807000D02*
X179538000Y-65934000D01*
X179538000Y-65934000D02*
X179538000Y-72030000D01*
X179538000Y-72030000D02*
X179665000Y-71839500D01*
X179665000Y-71839500D02*
X179665000Y-66124500D01*
X179665000Y-66124500D02*
X179792000Y-66188000D01*
X179792000Y-66188000D02*
X179792000Y-71712500D01*
X179792000Y-71712500D02*
X179919000Y-71585500D01*
X179919000Y-71585500D02*
X179919000Y-66378500D01*
X179919000Y-66378500D02*
X180046000Y-66505500D01*
X180046000Y-66505500D02*
X180046000Y-71458500D01*
X180046000Y-71458500D02*
X180173000Y-71331500D01*
X180173000Y-71331500D02*
X180173000Y-66569000D01*
X180173000Y-66569000D02*
X180300000Y-66823000D01*
X180300000Y-66823000D02*
X180300000Y-71077500D01*
X180300000Y-71077500D02*
X180427000Y-70887000D01*
X180427000Y-70887000D02*
X180427000Y-67077000D01*
X180427000Y-67077000D02*
X180554000Y-67331000D01*
X180554000Y-67331000D02*
X180554000Y-70696500D01*
X180554000Y-70696500D02*
X180681000Y-70315500D01*
X180681000Y-70315500D02*
X180681000Y-67521500D01*
X180681000Y-67521500D02*
X180808000Y-67902500D01*
X180808000Y-67902500D02*
X180808000Y-69998000D01*
X180808000Y-69998000D02*
X180871500Y-69680500D01*
X180871500Y-69680500D02*
X180871500Y-68410500D01*
X180998000Y-68982000D02*
G75*
G03X180998000Y-68982000I-4000000J0D01*
G01*
X176998000Y-78570500D02*
X177125000Y-78443500D01*
X177125000Y-78443500D02*
X177125000Y-75268500D01*
X177125000Y-83079000D02*
X177125000Y-79777000D01*
X177252000Y-83079000D02*
X177252000Y-79967500D01*
X177252000Y-79967500D02*
X177379000Y-80094500D01*
X177379000Y-80094500D02*
X177379000Y-83079000D01*
X177379000Y-83079000D02*
X177506000Y-83079000D01*
X177506000Y-83079000D02*
X177506000Y-80221500D01*
X177506000Y-80221500D02*
X177633000Y-80285000D01*
X177633000Y-80285000D02*
X177633000Y-83079000D01*
X177633000Y-83079000D02*
X177760000Y-83015500D01*
X177760000Y-83015500D02*
X177760000Y-80348500D01*
X177760000Y-80348500D02*
X177887000Y-80412000D01*
X177887000Y-80412000D02*
X177887000Y-82952000D01*
X177887000Y-82952000D02*
X178014000Y-82952000D01*
X178014000Y-82952000D02*
X178014000Y-80412000D01*
X178014000Y-80412000D02*
X178141000Y-80412000D01*
X178141000Y-80412000D02*
X178141000Y-82952000D01*
X178141000Y-82952000D02*
X178268000Y-82888500D01*
X178268000Y-82888500D02*
X178268000Y-80475500D01*
X178268000Y-80475500D02*
X178395000Y-80475500D01*
X178395000Y-80475500D02*
X178395000Y-82825000D01*
X178395000Y-82825000D02*
X178522000Y-82761500D01*
X178522000Y-82761500D02*
X178522000Y-80412000D01*
X178522000Y-80412000D02*
X178649000Y-80348500D01*
X178649000Y-80348500D02*
X178649000Y-82761500D01*
X178649000Y-82761500D02*
X178776000Y-82634500D01*
X178776000Y-82634500D02*
X178776000Y-80348500D01*
X178776000Y-80348500D02*
X178903000Y-80285000D01*
X178903000Y-80285000D02*
X178903000Y-82634500D01*
X178903000Y-82634500D02*
X179030000Y-82507500D01*
X179030000Y-82507500D02*
X179030000Y-80158000D01*
X179030000Y-80158000D02*
X179157000Y-80094500D01*
X179157000Y-80094500D02*
X179157000Y-82507500D01*
X179157000Y-82507500D02*
X179284000Y-82317000D01*
X179284000Y-82317000D02*
X179284000Y-79967500D01*
X179284000Y-79967500D02*
X179411000Y-79777000D01*
X179411000Y-79777000D02*
X179411000Y-82253500D01*
X177252000Y-75205000D02*
X177252000Y-78316500D01*
X177252000Y-78316500D02*
X177379000Y-78189500D01*
X177379000Y-78189500D02*
X177379000Y-75205000D01*
X177379000Y-75205000D02*
X177506000Y-75268500D01*
X177506000Y-75268500D02*
X177506000Y-78062500D01*
X177506000Y-78062500D02*
X177633000Y-77935500D01*
X177633000Y-77935500D02*
X177633000Y-75205000D01*
X177633000Y-75205000D02*
X177760000Y-75268500D01*
X177760000Y-75268500D02*
X177760000Y-77935500D01*
X177760000Y-77935500D02*
X177887000Y-77872000D01*
X177887000Y-77872000D02*
X177887000Y-75332000D01*
X177887000Y-75332000D02*
X178014000Y-75332000D01*
X178014000Y-75332000D02*
X178014000Y-77872000D01*
X178014000Y-77872000D02*
X178141000Y-77872000D01*
X178141000Y-77872000D02*
X178141000Y-75332000D01*
X178141000Y-75332000D02*
X178268000Y-75395500D01*
X178268000Y-75395500D02*
X178268000Y-77872000D01*
X178268000Y-77872000D02*
X178395000Y-77872000D01*
X178395000Y-77872000D02*
X178395000Y-75395500D01*
X178395000Y-75395500D02*
X178522000Y-75459000D01*
X178522000Y-75459000D02*
X178522000Y-77872000D01*
X178522000Y-77872000D02*
X178649000Y-77872000D01*
X178649000Y-77872000D02*
X178649000Y-75522500D01*
X178649000Y-75522500D02*
X178776000Y-75586000D01*
X178776000Y-75586000D02*
X178776000Y-77935500D01*
X178776000Y-77935500D02*
X178903000Y-77999000D01*
X178903000Y-77999000D02*
X178903000Y-75649500D01*
X178903000Y-75649500D02*
X179030000Y-75713000D01*
X179030000Y-75713000D02*
X179030000Y-78126000D01*
X179030000Y-78126000D02*
X179157000Y-78189500D01*
X179157000Y-78189500D02*
X179157000Y-75840000D01*
X179157000Y-75840000D02*
X179284000Y-75903500D01*
X179284000Y-75903500D02*
X179284000Y-78316500D01*
X179284000Y-78316500D02*
X179411000Y-78507000D01*
X179411000Y-78507000D02*
X179411000Y-76030500D01*
X172172000Y-78634000D02*
X172172000Y-79650000D01*
X172172000Y-79650000D02*
X172172000Y-79142000D01*
X172172000Y-79142000D02*
X171664000Y-79142000D01*
X171664000Y-79142000D02*
X172680000Y-79142000D01*
X179538000Y-76157500D02*
X179919000Y-76538500D01*
X180490500Y-77237000D02*
X180363500Y-77173500D01*
X180363500Y-77173500D02*
X180173000Y-77110000D01*
X180744500Y-80348500D02*
X180744500Y-80158000D01*
X179665000Y-81999500D02*
X179792000Y-81872500D01*
X180173000Y-81364500D02*
X180236500Y-81301000D01*
X179538000Y-79142000D02*
G75*
G03X179538000Y-79142000I-1270000J0D01*
G01*
X176998000Y-75141500D02*
X176998000Y-83079000D01*
X176998000Y-83079000D02*
X177125000Y-83079000D01*
X179411000Y-75967000D02*
X179538000Y-76094000D01*
X179538000Y-76094000D02*
X179538000Y-82190000D01*
X179538000Y-82190000D02*
X179665000Y-81999500D01*
X179665000Y-81999500D02*
X179665000Y-76284500D01*
X179665000Y-76284500D02*
X179792000Y-76348000D01*
X179792000Y-76348000D02*
X179792000Y-81872500D01*
X179792000Y-81872500D02*
X179919000Y-81745500D01*
X179919000Y-81745500D02*
X179919000Y-76538500D01*
X179919000Y-76538500D02*
X180046000Y-76665500D01*
X180046000Y-76665500D02*
X180046000Y-81618500D01*
X180046000Y-81618500D02*
X180173000Y-81491500D01*
X180173000Y-81491500D02*
X180173000Y-76729000D01*
X180173000Y-76729000D02*
X180300000Y-76983000D01*
X180300000Y-76983000D02*
X180300000Y-81237500D01*
X180300000Y-81237500D02*
X180427000Y-81047000D01*
X180427000Y-81047000D02*
X180427000Y-77237000D01*
X180427000Y-77237000D02*
X180554000Y-77491000D01*
X180554000Y-77491000D02*
X180554000Y-80856500D01*
X180554000Y-80856500D02*
X180681000Y-80475500D01*
X180681000Y-80475500D02*
X180681000Y-77681500D01*
X180681000Y-77681500D02*
X180808000Y-78062500D01*
X180808000Y-78062500D02*
X180808000Y-80158000D01*
X180808000Y-80158000D02*
X180871500Y-79840500D01*
X180871500Y-79840500D02*
X180871500Y-78570500D01*
X180998000Y-79142000D02*
G75*
G03X180998000Y-79142000I-4000000J0D01*
G01*
X188428000Y-58250500D02*
X188555000Y-58123500D01*
X188555000Y-58123500D02*
X188555000Y-54948500D01*
X188555000Y-62759000D02*
X188555000Y-59457000D01*
X188682000Y-62759000D02*
X188682000Y-59647500D01*
X188682000Y-59647500D02*
X188809000Y-59774500D01*
X188809000Y-59774500D02*
X188809000Y-62759000D01*
X188809000Y-62759000D02*
X188936000Y-62759000D01*
X188936000Y-62759000D02*
X188936000Y-59901500D01*
X188936000Y-59901500D02*
X189063000Y-59965000D01*
X189063000Y-59965000D02*
X189063000Y-62759000D01*
X189063000Y-62759000D02*
X189190000Y-62695500D01*
X189190000Y-62695500D02*
X189190000Y-60028500D01*
X189190000Y-60028500D02*
X189317000Y-60092000D01*
X189317000Y-60092000D02*
X189317000Y-62632000D01*
X189317000Y-62632000D02*
X189444000Y-62632000D01*
X189444000Y-62632000D02*
X189444000Y-60092000D01*
X189444000Y-60092000D02*
X189571000Y-60092000D01*
X189571000Y-60092000D02*
X189571000Y-62632000D01*
X189571000Y-62632000D02*
X189698000Y-62568500D01*
X189698000Y-62568500D02*
X189698000Y-60155500D01*
X189698000Y-60155500D02*
X189825000Y-60155500D01*
X189825000Y-60155500D02*
X189825000Y-62505000D01*
X189825000Y-62505000D02*
X189952000Y-62441500D01*
X189952000Y-62441500D02*
X189952000Y-60092000D01*
X189952000Y-60092000D02*
X190079000Y-60028500D01*
X190079000Y-60028500D02*
X190079000Y-62441500D01*
X190079000Y-62441500D02*
X190206000Y-62314500D01*
X190206000Y-62314500D02*
X190206000Y-60028500D01*
X190206000Y-60028500D02*
X190333000Y-59965000D01*
X190333000Y-59965000D02*
X190333000Y-62314500D01*
X190333000Y-62314500D02*
X190460000Y-62187500D01*
X190460000Y-62187500D02*
X190460000Y-59838000D01*
X190460000Y-59838000D02*
X190587000Y-59774500D01*
X190587000Y-59774500D02*
X190587000Y-62187500D01*
X190587000Y-62187500D02*
X190714000Y-61997000D01*
X190714000Y-61997000D02*
X190714000Y-59647500D01*
X190714000Y-59647500D02*
X190841000Y-59457000D01*
X190841000Y-59457000D02*
X190841000Y-61933500D01*
X188682000Y-54885000D02*
X188682000Y-57996500D01*
X188682000Y-57996500D02*
X188809000Y-57869500D01*
X188809000Y-57869500D02*
X188809000Y-54885000D01*
X188809000Y-54885000D02*
X188936000Y-54948500D01*
X188936000Y-54948500D02*
X188936000Y-57742500D01*
X188936000Y-57742500D02*
X189063000Y-57615500D01*
X189063000Y-57615500D02*
X189063000Y-54885000D01*
X189063000Y-54885000D02*
X189190000Y-54948500D01*
X189190000Y-54948500D02*
X189190000Y-57615500D01*
X189190000Y-57615500D02*
X189317000Y-57552000D01*
X189317000Y-57552000D02*
X189317000Y-55012000D01*
X189317000Y-55012000D02*
X189444000Y-55012000D01*
X189444000Y-55012000D02*
X189444000Y-57552000D01*
X189444000Y-57552000D02*
X189571000Y-57552000D01*
X189571000Y-57552000D02*
X189571000Y-55012000D01*
X189571000Y-55012000D02*
X189698000Y-55075500D01*
X189698000Y-55075500D02*
X189698000Y-57552000D01*
X189698000Y-57552000D02*
X189825000Y-57552000D01*
X189825000Y-57552000D02*
X189825000Y-55075500D01*
X189825000Y-55075500D02*
X189952000Y-55139000D01*
X189952000Y-55139000D02*
X189952000Y-57552000D01*
X189952000Y-57552000D02*
X190079000Y-57552000D01*
X190079000Y-57552000D02*
X190079000Y-55202500D01*
X190079000Y-55202500D02*
X190206000Y-55266000D01*
X190206000Y-55266000D02*
X190206000Y-57615500D01*
X190206000Y-57615500D02*
X190333000Y-57679000D01*
X190333000Y-57679000D02*
X190333000Y-55329500D01*
X190333000Y-55329500D02*
X190460000Y-55393000D01*
X190460000Y-55393000D02*
X190460000Y-57806000D01*
X190460000Y-57806000D02*
X190587000Y-57869500D01*
X190587000Y-57869500D02*
X190587000Y-55520000D01*
X190587000Y-55520000D02*
X190714000Y-55583500D01*
X190714000Y-55583500D02*
X190714000Y-57996500D01*
X190714000Y-57996500D02*
X190841000Y-58187000D01*
X190841000Y-58187000D02*
X190841000Y-55710500D01*
X183602000Y-58314000D02*
X183602000Y-59330000D01*
X183602000Y-59330000D02*
X183602000Y-58822000D01*
X183602000Y-58822000D02*
X183094000Y-58822000D01*
X183094000Y-58822000D02*
X184110000Y-58822000D01*
X190968000Y-55837500D02*
X191349000Y-56218500D01*
X191920500Y-56917000D02*
X191793500Y-56853500D01*
X191793500Y-56853500D02*
X191603000Y-56790000D01*
X192174500Y-60028500D02*
X192174500Y-59838000D01*
X191095000Y-61679500D02*
X191222000Y-61552500D01*
X191603000Y-61044500D02*
X191666500Y-60981000D01*
X190968000Y-58822000D02*
G75*
G03X190968000Y-58822000I-1270000J0D01*
G01*
X188428000Y-54821500D02*
X188428000Y-62759000D01*
X188428000Y-62759000D02*
X188555000Y-62759000D01*
X190841000Y-55647000D02*
X190968000Y-55774000D01*
X190968000Y-55774000D02*
X190968000Y-61870000D01*
X190968000Y-61870000D02*
X191095000Y-61679500D01*
X191095000Y-61679500D02*
X191095000Y-55964500D01*
X191095000Y-55964500D02*
X191222000Y-56028000D01*
X191222000Y-56028000D02*
X191222000Y-61552500D01*
X191222000Y-61552500D02*
X191349000Y-61425500D01*
X191349000Y-61425500D02*
X191349000Y-56218500D01*
X191349000Y-56218500D02*
X191476000Y-56345500D01*
X191476000Y-56345500D02*
X191476000Y-61298500D01*
X191476000Y-61298500D02*
X191603000Y-61171500D01*
X191603000Y-61171500D02*
X191603000Y-56409000D01*
X191603000Y-56409000D02*
X191730000Y-56663000D01*
X191730000Y-56663000D02*
X191730000Y-60917500D01*
X191730000Y-60917500D02*
X191857000Y-60727000D01*
X191857000Y-60727000D02*
X191857000Y-56917000D01*
X191857000Y-56917000D02*
X191984000Y-57171000D01*
X191984000Y-57171000D02*
X191984000Y-60536500D01*
X191984000Y-60536500D02*
X192111000Y-60155500D01*
X192111000Y-60155500D02*
X192111000Y-57361500D01*
X192111000Y-57361500D02*
X192238000Y-57742500D01*
X192238000Y-57742500D02*
X192238000Y-59838000D01*
X192238000Y-59838000D02*
X192301500Y-59520500D01*
X192301500Y-59520500D02*
X192301500Y-58250500D01*
X192428000Y-58822000D02*
G75*
G03X192428000Y-58822000I-4000000J0D01*
G01*
X188428000Y-68410500D02*
X188555000Y-68283500D01*
X188555000Y-68283500D02*
X188555000Y-65108500D01*
X188555000Y-72919000D02*
X188555000Y-69617000D01*
X188682000Y-72919000D02*
X188682000Y-69807500D01*
X188682000Y-69807500D02*
X188809000Y-69934500D01*
X188809000Y-69934500D02*
X188809000Y-72919000D01*
X188809000Y-72919000D02*
X188936000Y-72919000D01*
X188936000Y-72919000D02*
X188936000Y-70061500D01*
X188936000Y-70061500D02*
X189063000Y-70125000D01*
X189063000Y-70125000D02*
X189063000Y-72919000D01*
X189063000Y-72919000D02*
X189190000Y-72855500D01*
X189190000Y-72855500D02*
X189190000Y-70188500D01*
X189190000Y-70188500D02*
X189317000Y-70252000D01*
X189317000Y-70252000D02*
X189317000Y-72792000D01*
X189317000Y-72792000D02*
X189444000Y-72792000D01*
X189444000Y-72792000D02*
X189444000Y-70252000D01*
X189444000Y-70252000D02*
X189571000Y-70252000D01*
X189571000Y-70252000D02*
X189571000Y-72792000D01*
X189571000Y-72792000D02*
X189698000Y-72728500D01*
X189698000Y-72728500D02*
X189698000Y-70315500D01*
X189698000Y-70315500D02*
X189825000Y-70315500D01*
X189825000Y-70315500D02*
X189825000Y-72665000D01*
X189825000Y-72665000D02*
X189952000Y-72601500D01*
X189952000Y-72601500D02*
X189952000Y-70252000D01*
X189952000Y-70252000D02*
X190079000Y-70188500D01*
X190079000Y-70188500D02*
X190079000Y-72601500D01*
X190079000Y-72601500D02*
X190206000Y-72474500D01*
X190206000Y-72474500D02*
X190206000Y-70188500D01*
X190206000Y-70188500D02*
X190333000Y-70125000D01*
X190333000Y-70125000D02*
X190333000Y-72474500D01*
X190333000Y-72474500D02*
X190460000Y-72347500D01*
X190460000Y-72347500D02*
X190460000Y-69998000D01*
X190460000Y-69998000D02*
X190587000Y-69934500D01*
X190587000Y-69934500D02*
X190587000Y-72347500D01*
X190587000Y-72347500D02*
X190714000Y-72157000D01*
X190714000Y-72157000D02*
X190714000Y-69807500D01*
X190714000Y-69807500D02*
X190841000Y-69617000D01*
X190841000Y-69617000D02*
X190841000Y-72093500D01*
X188682000Y-65045000D02*
X188682000Y-68156500D01*
X188682000Y-68156500D02*
X188809000Y-68029500D01*
X188809000Y-68029500D02*
X188809000Y-65045000D01*
X188809000Y-65045000D02*
X188936000Y-65108500D01*
X188936000Y-65108500D02*
X188936000Y-67902500D01*
X188936000Y-67902500D02*
X189063000Y-67775500D01*
X189063000Y-67775500D02*
X189063000Y-65045000D01*
X189063000Y-65045000D02*
X189190000Y-65108500D01*
X189190000Y-65108500D02*
X189190000Y-67775500D01*
X189190000Y-67775500D02*
X189317000Y-67712000D01*
X189317000Y-67712000D02*
X189317000Y-65172000D01*
X189317000Y-65172000D02*
X189444000Y-65172000D01*
X189444000Y-65172000D02*
X189444000Y-67712000D01*
X189444000Y-67712000D02*
X189571000Y-67712000D01*
X189571000Y-67712000D02*
X189571000Y-65172000D01*
X189571000Y-65172000D02*
X189698000Y-65235500D01*
X189698000Y-65235500D02*
X189698000Y-67712000D01*
X189698000Y-67712000D02*
X189825000Y-67712000D01*
X189825000Y-67712000D02*
X189825000Y-65235500D01*
X189825000Y-65235500D02*
X189952000Y-65299000D01*
X189952000Y-65299000D02*
X189952000Y-67712000D01*
X189952000Y-67712000D02*
X190079000Y-67712000D01*
X190079000Y-67712000D02*
X190079000Y-65362500D01*
X190079000Y-65362500D02*
X190206000Y-65426000D01*
X190206000Y-65426000D02*
X190206000Y-67775500D01*
X190206000Y-67775500D02*
X190333000Y-67839000D01*
X190333000Y-67839000D02*
X190333000Y-65489500D01*
X190333000Y-65489500D02*
X190460000Y-65553000D01*
X190460000Y-65553000D02*
X190460000Y-67966000D01*
X190460000Y-67966000D02*
X190587000Y-68029500D01*
X190587000Y-68029500D02*
X190587000Y-65680000D01*
X190587000Y-65680000D02*
X190714000Y-65743500D01*
X190714000Y-65743500D02*
X190714000Y-68156500D01*
X190714000Y-68156500D02*
X190841000Y-68347000D01*
X190841000Y-68347000D02*
X190841000Y-65870500D01*
X183602000Y-68474000D02*
X183602000Y-69490000D01*
X183602000Y-69490000D02*
X183602000Y-68982000D01*
X183602000Y-68982000D02*
X183094000Y-68982000D01*
X183094000Y-68982000D02*
X184110000Y-68982000D01*
X190968000Y-65997500D02*
X191349000Y-66378500D01*
X191920500Y-67077000D02*
X191793500Y-67013500D01*
X191793500Y-67013500D02*
X191603000Y-66950000D01*
X192174500Y-70188500D02*
X192174500Y-69998000D01*
X191095000Y-71839500D02*
X191222000Y-71712500D01*
X191603000Y-71204500D02*
X191666500Y-71141000D01*
X190968000Y-68982000D02*
G75*
G03X190968000Y-68982000I-1270000J0D01*
G01*
X188428000Y-64981500D02*
X188428000Y-72919000D01*
X188428000Y-72919000D02*
X188555000Y-72919000D01*
X190841000Y-65807000D02*
X190968000Y-65934000D01*
X190968000Y-65934000D02*
X190968000Y-72030000D01*
X190968000Y-72030000D02*
X191095000Y-71839500D01*
X191095000Y-71839500D02*
X191095000Y-66124500D01*
X191095000Y-66124500D02*
X191222000Y-66188000D01*
X191222000Y-66188000D02*
X191222000Y-71712500D01*
X191222000Y-71712500D02*
X191349000Y-71585500D01*
X191349000Y-71585500D02*
X191349000Y-66378500D01*
X191349000Y-66378500D02*
X191476000Y-66505500D01*
X191476000Y-66505500D02*
X191476000Y-71458500D01*
X191476000Y-71458500D02*
X191603000Y-71331500D01*
X191603000Y-71331500D02*
X191603000Y-66569000D01*
X191603000Y-66569000D02*
X191730000Y-66823000D01*
X191730000Y-66823000D02*
X191730000Y-71077500D01*
X191730000Y-71077500D02*
X191857000Y-70887000D01*
X191857000Y-70887000D02*
X191857000Y-67077000D01*
X191857000Y-67077000D02*
X191984000Y-67331000D01*
X191984000Y-67331000D02*
X191984000Y-70696500D01*
X191984000Y-70696500D02*
X192111000Y-70315500D01*
X192111000Y-70315500D02*
X192111000Y-67521500D01*
X192111000Y-67521500D02*
X192238000Y-67902500D01*
X192238000Y-67902500D02*
X192238000Y-69998000D01*
X192238000Y-69998000D02*
X192301500Y-69680500D01*
X192301500Y-69680500D02*
X192301500Y-68410500D01*
X192428000Y-68982000D02*
G75*
G03X192428000Y-68982000I-4000000J0D01*
G01*
X188428000Y-78570500D02*
X188555000Y-78443500D01*
X188555000Y-78443500D02*
X188555000Y-75268500D01*
X188555000Y-83079000D02*
X188555000Y-79777000D01*
X188682000Y-83079000D02*
X188682000Y-79967500D01*
X188682000Y-79967500D02*
X188809000Y-80094500D01*
X188809000Y-80094500D02*
X188809000Y-83079000D01*
X188809000Y-83079000D02*
X188936000Y-83079000D01*
X188936000Y-83079000D02*
X188936000Y-80221500D01*
X188936000Y-80221500D02*
X189063000Y-80285000D01*
X189063000Y-80285000D02*
X189063000Y-83079000D01*
X189063000Y-83079000D02*
X189190000Y-83015500D01*
X189190000Y-83015500D02*
X189190000Y-80348500D01*
X189190000Y-80348500D02*
X189317000Y-80412000D01*
X189317000Y-80412000D02*
X189317000Y-82952000D01*
X189317000Y-82952000D02*
X189444000Y-82952000D01*
X189444000Y-82952000D02*
X189444000Y-80412000D01*
X189444000Y-80412000D02*
X189571000Y-80412000D01*
X189571000Y-80412000D02*
X189571000Y-82952000D01*
X189571000Y-82952000D02*
X189698000Y-82888500D01*
X189698000Y-82888500D02*
X189698000Y-80475500D01*
X189698000Y-80475500D02*
X189825000Y-80475500D01*
X189825000Y-80475500D02*
X189825000Y-82825000D01*
X189825000Y-82825000D02*
X189952000Y-82761500D01*
X189952000Y-82761500D02*
X189952000Y-80412000D01*
X189952000Y-80412000D02*
X190079000Y-80348500D01*
X190079000Y-80348500D02*
X190079000Y-82761500D01*
X190079000Y-82761500D02*
X190206000Y-82634500D01*
X190206000Y-82634500D02*
X190206000Y-80348500D01*
X190206000Y-80348500D02*
X190333000Y-80285000D01*
X190333000Y-80285000D02*
X190333000Y-82634500D01*
X190333000Y-82634500D02*
X190460000Y-82507500D01*
X190460000Y-82507500D02*
X190460000Y-80158000D01*
X190460000Y-80158000D02*
X190587000Y-80094500D01*
X190587000Y-80094500D02*
X190587000Y-82507500D01*
X190587000Y-82507500D02*
X190714000Y-82317000D01*
X190714000Y-82317000D02*
X190714000Y-79967500D01*
X190714000Y-79967500D02*
X190841000Y-79777000D01*
X190841000Y-79777000D02*
X190841000Y-82253500D01*
X188682000Y-75205000D02*
X188682000Y-78316500D01*
X188682000Y-78316500D02*
X188809000Y-78189500D01*
X188809000Y-78189500D02*
X188809000Y-75205000D01*
X188809000Y-75205000D02*
X188936000Y-75268500D01*
X188936000Y-75268500D02*
X188936000Y-78062500D01*
X188936000Y-78062500D02*
X189063000Y-77935500D01*
X189063000Y-77935500D02*
X189063000Y-75205000D01*
X189063000Y-75205000D02*
X189190000Y-75268500D01*
X189190000Y-75268500D02*
X189190000Y-77935500D01*
X189190000Y-77935500D02*
X189317000Y-77872000D01*
X189317000Y-77872000D02*
X189317000Y-75332000D01*
X189317000Y-75332000D02*
X189444000Y-75332000D01*
X189444000Y-75332000D02*
X189444000Y-77872000D01*
X189444000Y-77872000D02*
X189571000Y-77872000D01*
X189571000Y-77872000D02*
X189571000Y-75332000D01*
X189571000Y-75332000D02*
X189698000Y-75395500D01*
X189698000Y-75395500D02*
X189698000Y-77872000D01*
X189698000Y-77872000D02*
X189825000Y-77872000D01*
X189825000Y-77872000D02*
X189825000Y-75395500D01*
X189825000Y-75395500D02*
X189952000Y-75459000D01*
X189952000Y-75459000D02*
X189952000Y-77872000D01*
X189952000Y-77872000D02*
X190079000Y-77872000D01*
X190079000Y-77872000D02*
X190079000Y-75522500D01*
X190079000Y-75522500D02*
X190206000Y-75586000D01*
X190206000Y-75586000D02*
X190206000Y-77935500D01*
X190206000Y-77935500D02*
X190333000Y-77999000D01*
X190333000Y-77999000D02*
X190333000Y-75649500D01*
X190333000Y-75649500D02*
X190460000Y-75713000D01*
X190460000Y-75713000D02*
X190460000Y-78126000D01*
X190460000Y-78126000D02*
X190587000Y-78189500D01*
X190587000Y-78189500D02*
X190587000Y-75840000D01*
X190587000Y-75840000D02*
X190714000Y-75903500D01*
X190714000Y-75903500D02*
X190714000Y-78316500D01*
X190714000Y-78316500D02*
X190841000Y-78507000D01*
X190841000Y-78507000D02*
X190841000Y-76030500D01*
X183602000Y-78634000D02*
X183602000Y-79650000D01*
X183602000Y-79650000D02*
X183602000Y-79142000D01*
X183602000Y-79142000D02*
X183094000Y-79142000D01*
X183094000Y-79142000D02*
X184110000Y-79142000D01*
X190968000Y-76157500D02*
X191349000Y-76538500D01*
X191920500Y-77237000D02*
X191793500Y-77173500D01*
X191793500Y-77173500D02*
X191603000Y-77110000D01*
X192174500Y-80348500D02*
X192174500Y-80158000D01*
X191095000Y-81999500D02*
X191222000Y-81872500D01*
X191603000Y-81364500D02*
X191666500Y-81301000D01*
X190968000Y-79142000D02*
G75*
G03X190968000Y-79142000I-1270000J0D01*
G01*
X188428000Y-75141500D02*
X188428000Y-83079000D01*
X188428000Y-83079000D02*
X188555000Y-83079000D01*
X190841000Y-75967000D02*
X190968000Y-76094000D01*
X190968000Y-76094000D02*
X190968000Y-82190000D01*
X190968000Y-82190000D02*
X191095000Y-81999500D01*
X191095000Y-81999500D02*
X191095000Y-76284500D01*
X191095000Y-76284500D02*
X191222000Y-76348000D01*
X191222000Y-76348000D02*
X191222000Y-81872500D01*
X191222000Y-81872500D02*
X191349000Y-81745500D01*
X191349000Y-81745500D02*
X191349000Y-76538500D01*
X191349000Y-76538500D02*
X191476000Y-76665500D01*
X191476000Y-76665500D02*
X191476000Y-81618500D01*
X191476000Y-81618500D02*
X191603000Y-81491500D01*
X191603000Y-81491500D02*
X191603000Y-76729000D01*
X191603000Y-76729000D02*
X191730000Y-76983000D01*
X191730000Y-76983000D02*
X191730000Y-81237500D01*
X191730000Y-81237500D02*
X191857000Y-81047000D01*
X191857000Y-81047000D02*
X191857000Y-77237000D01*
X191857000Y-77237000D02*
X191984000Y-77491000D01*
X191984000Y-77491000D02*
X191984000Y-80856500D01*
X191984000Y-80856500D02*
X192111000Y-80475500D01*
X192111000Y-80475500D02*
X192111000Y-77681500D01*
X192111000Y-77681500D02*
X192238000Y-78062500D01*
X192238000Y-78062500D02*
X192238000Y-80158000D01*
X192238000Y-80158000D02*
X192301500Y-79840500D01*
X192301500Y-79840500D02*
X192301500Y-78570500D01*
X192428000Y-79142000D02*
G75*
G03X192428000Y-79142000I-4000000J0D01*
G01*
X199390000Y-103886000D02*
X202311000Y-103886000D01*
X202311000Y-103886000D02*
X202311000Y-111633000D01*
X199390000Y-102870000D02*
X199390000Y-103886000D01*
X199390000Y-103886000D02*
X196469000Y-103886000D01*
X196469000Y-103886000D02*
X196469000Y-121793000D01*
X196469000Y-121793000D02*
X196850000Y-121793000D01*
X199390000Y-122936000D02*
X199390000Y-121793000D01*
X196723000Y-121793000D02*
X202311000Y-121793000D01*
X202311000Y-121786000D02*
X202311000Y-111626000D01*
X207010000Y-103886000D02*
X209931000Y-103886000D01*
X209931000Y-103886000D02*
X209931000Y-111633000D01*
X207010000Y-102870000D02*
X207010000Y-103886000D01*
X207010000Y-103886000D02*
X204089000Y-103886000D01*
X204089000Y-103886000D02*
X204089000Y-121793000D01*
X204089000Y-121793000D02*
X204470000Y-121793000D01*
X207010000Y-122936000D02*
X207010000Y-121793000D01*
X204343000Y-121793000D02*
X209931000Y-121793000D01*
X209931000Y-121786000D02*
X209931000Y-111626000D01*
X199390000Y-73660000D02*
X202311000Y-73660000D01*
X202311000Y-73660000D02*
X202311000Y-81407000D01*
X199390000Y-72644000D02*
X199390000Y-73660000D01*
X199390000Y-73660000D02*
X196469000Y-73660000D01*
X196469000Y-73660000D02*
X196469000Y-91567000D01*
X196469000Y-91567000D02*
X196850000Y-91567000D01*
X199390000Y-92710000D02*
X199390000Y-91567000D01*
X196723000Y-91567000D02*
X202311000Y-91567000D01*
X202311000Y-91560000D02*
X202311000Y-81400000D01*
X207010000Y-73660000D02*
X209931000Y-73660000D01*
X209931000Y-73660000D02*
X209931000Y-81407000D01*
X207010000Y-72644000D02*
X207010000Y-73660000D01*
X207010000Y-73660000D02*
X204089000Y-73660000D01*
X204089000Y-73660000D02*
X204089000Y-91567000D01*
X204089000Y-91567000D02*
X204470000Y-91567000D01*
X207010000Y-92710000D02*
X207010000Y-91567000D01*
X204343000Y-91567000D02*
X209931000Y-91567000D01*
X209931000Y-91560000D02*
X209931000Y-81400000D01*
X120650000Y-95123000D02*
X120650000Y-88773000D01*
X122682000Y-88773000D02*
X122682000Y-95123000D01*
X121666000Y-95123000D02*
X121666000Y-95758000D01*
X121666000Y-88773000D02*
X121666000Y-88138000D01*
X121666000Y-88773000D02*
X122682000Y-88773000D01*
X122682000Y-95123000D02*
X120650000Y-95123000D01*
X120650000Y-88773000D02*
X121666000Y-88773000D01*
X124206000Y-104775000D02*
X124206000Y-98425000D01*
X126238000Y-98425000D02*
X126238000Y-104775000D01*
X125222000Y-104775000D02*
X125222000Y-105410000D01*
X125222000Y-98425000D02*
X125222000Y-97790000D01*
X125222000Y-98425000D02*
X126238000Y-98425000D01*
X126238000Y-104775000D02*
X124206000Y-104775000D01*
X124206000Y-98425000D02*
X125222000Y-98425000D01*
X118872000Y-79883000D02*
X118872000Y-73533000D01*
X120904000Y-73533000D02*
X120904000Y-79883000D01*
X119888000Y-79883000D02*
X119888000Y-80518000D01*
X119888000Y-73533000D02*
X119888000Y-72898000D01*
X119888000Y-73533000D02*
X120904000Y-73533000D01*
X120904000Y-79883000D02*
X118872000Y-79883000D01*
X118872000Y-73533000D02*
X119888000Y-73533000D01*
X139025000Y-55901000D02*
X145375000Y-55901000D01*
X145375000Y-57933000D02*
X139025000Y-57933000D01*
X139025000Y-56917000D02*
X138390000Y-56917000D01*
X145375000Y-56917000D02*
X146010000Y-56917000D01*
X145375000Y-56917000D02*
X145375000Y-57933000D01*
X139025000Y-57933000D02*
X139025000Y-55901000D01*
X145375000Y-55901000D02*
X145375000Y-56917000D01*
X134961000Y-49297000D02*
X134961000Y-55647000D01*
X132929000Y-55647000D02*
X132929000Y-49297000D01*
X133945000Y-49297000D02*
X133945000Y-48662000D01*
X133945000Y-55647000D02*
X133945000Y-56282000D01*
X133945000Y-55647000D02*
X132929000Y-55647000D01*
X132929000Y-49297000D02*
X134961000Y-49297000D01*
X134961000Y-55647000D02*
X133945000Y-55647000D01*
X139406000Y-61997000D02*
X139406000Y-68347000D01*
X137374000Y-68347000D02*
X137374000Y-61997000D01*
X138390000Y-61997000D02*
X138390000Y-61362000D01*
X138390000Y-68347000D02*
X138390000Y-68982000D01*
X138390000Y-68347000D02*
X137374000Y-68347000D01*
X137374000Y-61997000D02*
X139406000Y-61997000D01*
X139406000Y-68347000D02*
X138390000Y-68347000D01*
X149439000Y-59457000D02*
X149439000Y-53107000D01*
X151471000Y-53107000D02*
X151471000Y-59457000D01*
X150455000Y-59457000D02*
X150455000Y-60092000D01*
X150455000Y-53107000D02*
X150455000Y-52472000D01*
X150455000Y-53107000D02*
X151471000Y-53107000D01*
X151471000Y-59457000D02*
X149439000Y-59457000D01*
X149439000Y-53107000D02*
X150455000Y-53107000D01*
X156551000Y-49297000D02*
X156551000Y-55647000D01*
X154519000Y-55647000D02*
X154519000Y-49297000D01*
X155535000Y-49297000D02*
X155535000Y-48662000D01*
X155535000Y-55647000D02*
X155535000Y-56282000D01*
X155535000Y-55647000D02*
X154519000Y-55647000D01*
X154519000Y-49297000D02*
X156551000Y-49297000D01*
X156551000Y-55647000D02*
X155535000Y-55647000D01*
X156551000Y-62632000D02*
X156551000Y-68982000D01*
X154519000Y-68982000D02*
X154519000Y-62632000D01*
X155535000Y-62632000D02*
X155535000Y-61997000D01*
X155535000Y-68982000D02*
X155535000Y-69617000D01*
X155535000Y-68982000D02*
X154519000Y-68982000D01*
X154519000Y-62632000D02*
X156551000Y-62632000D01*
X156551000Y-68982000D02*
X155535000Y-68982000D01*
X166584000Y-59457000D02*
X166584000Y-53107000D01*
X168616000Y-53107000D02*
X168616000Y-59457000D01*
X167600000Y-59457000D02*
X167600000Y-60092000D01*
X167600000Y-53107000D02*
X167600000Y-52472000D01*
X167600000Y-53107000D02*
X168616000Y-53107000D01*
X168616000Y-59457000D02*
X166584000Y-59457000D01*
X166584000Y-53107000D02*
X167600000Y-53107000D01*
X164171000Y-49297000D02*
X164171000Y-55647000D01*
X162139000Y-55647000D02*
X162139000Y-49297000D01*
X163155000Y-49297000D02*
X163155000Y-48662000D01*
X163155000Y-55647000D02*
X163155000Y-56282000D01*
X163155000Y-55647000D02*
X162139000Y-55647000D01*
X162139000Y-49297000D02*
X164171000Y-49297000D01*
X164171000Y-55647000D02*
X163155000Y-55647000D01*
X147828000Y-108585000D02*
X147828000Y-114935000D01*
X145796000Y-114935000D02*
X145796000Y-108585000D01*
X146812000Y-108585000D02*
X146812000Y-107950000D01*
X146812000Y-114935000D02*
X146812000Y-115570000D01*
X146812000Y-114935000D02*
X145796000Y-114935000D01*
X145796000Y-108585000D02*
X147828000Y-108585000D01*
X147828000Y-114935000D02*
X146812000Y-114935000D01*
X142494000Y-114935000D02*
X142494000Y-108585000D01*
X144526000Y-108585000D02*
X144526000Y-114935000D01*
X143510000Y-114935000D02*
X143510000Y-115570000D01*
X143510000Y-108585000D02*
X143510000Y-107950000D01*
X143510000Y-108585000D02*
X144526000Y-108585000D01*
X144526000Y-114935000D02*
X142494000Y-114935000D01*
X142494000Y-108585000D02*
X143510000Y-108585000D01*
X167894000Y-124079000D02*
X167894000Y-130429000D01*
X165862000Y-130429000D02*
X165862000Y-124079000D01*
X166878000Y-124079000D02*
X166878000Y-123444000D01*
X166878000Y-130429000D02*
X166878000Y-131064000D01*
X166878000Y-130429000D02*
X165862000Y-130429000D01*
X165862000Y-124079000D02*
X167894000Y-124079000D01*
X167894000Y-130429000D02*
X166878000Y-130429000D01*
X159512000Y-139319000D02*
X159512000Y-132969000D01*
X161544000Y-132969000D02*
X161544000Y-139319000D01*
X160528000Y-139319000D02*
X160528000Y-139954000D01*
X160528000Y-132969000D02*
X160528000Y-132334000D01*
X160528000Y-132969000D02*
X161544000Y-132969000D01*
X161544000Y-139319000D02*
X159512000Y-139319000D01*
X159512000Y-132969000D02*
X160528000Y-132969000D01*
X166243000Y-119126000D02*
X159893000Y-119126000D01*
X159893000Y-117094000D02*
X166243000Y-117094000D01*
X166243000Y-118110000D02*
X166878000Y-118110000D01*
X159893000Y-118110000D02*
X159258000Y-118110000D01*
X159893000Y-118110000D02*
X159893000Y-117094000D01*
X166243000Y-117094000D02*
X166243000Y-119126000D01*
X159893000Y-119126000D02*
X159893000Y-118110000D01*
X176911000Y-136144000D02*
X183261000Y-136144000D01*
X183261000Y-138176000D02*
X176911000Y-138176000D01*
X176911000Y-137160000D02*
X176276000Y-137160000D01*
X183261000Y-137160000D02*
X183896000Y-137160000D01*
X183261000Y-137160000D02*
X183261000Y-138176000D01*
X176911000Y-138176000D02*
X176911000Y-136144000D01*
X183261000Y-136144000D02*
X183261000Y-137160000D01*
X169926000Y-139319000D02*
X169926000Y-132969000D01*
X171958000Y-132969000D02*
X171958000Y-139319000D01*
X170942000Y-139319000D02*
X170942000Y-139954000D01*
X170942000Y-132969000D02*
X170942000Y-132334000D01*
X170942000Y-132969000D02*
X171958000Y-132969000D01*
X171958000Y-139319000D02*
X169926000Y-139319000D01*
X169926000Y-132969000D02*
X170942000Y-132969000D01*
X179324000Y-104775000D02*
X179324000Y-98425000D01*
X181356000Y-98425000D02*
X181356000Y-104775000D01*
X180340000Y-104775000D02*
X180340000Y-105410000D01*
X180340000Y-98425000D02*
X180340000Y-97790000D01*
X180340000Y-98425000D02*
X181356000Y-98425000D01*
X181356000Y-104775000D02*
X179324000Y-104775000D01*
X179324000Y-98425000D02*
X180340000Y-98425000D01*
X189230000Y-121031000D02*
X189230000Y-114681000D01*
X191262000Y-114681000D02*
X191262000Y-121031000D01*
X190246000Y-121031000D02*
X190246000Y-121666000D01*
X190246000Y-114681000D02*
X190246000Y-114046000D01*
X190246000Y-114681000D02*
X191262000Y-114681000D01*
X191262000Y-121031000D02*
X189230000Y-121031000D01*
X189230000Y-114681000D02*
X190246000Y-114681000D01*
X187198000Y-114681000D02*
X187198000Y-121031000D01*
X185166000Y-121031000D02*
X185166000Y-114681000D01*
X186182000Y-114681000D02*
X186182000Y-114046000D01*
X186182000Y-121031000D02*
X186182000Y-121666000D01*
X186182000Y-121031000D02*
X185166000Y-121031000D01*
X185166000Y-114681000D02*
X187198000Y-114681000D01*
X187198000Y-121031000D02*
X186182000Y-121031000D01*
X196596000Y-127381000D02*
X196596000Y-133731000D01*
X194564000Y-133731000D02*
X194564000Y-127381000D01*
X195580000Y-127381000D02*
X195580000Y-126746000D01*
X195580000Y-133731000D02*
X195580000Y-134366000D01*
X195580000Y-133731000D02*
X194564000Y-133731000D01*
X194564000Y-127381000D02*
X196596000Y-127381000D01*
X196596000Y-133731000D02*
X195580000Y-133731000D01*
X128460500Y-95910400D02*
X128460500Y-96926400D01*
X128460500Y-82880200D02*
X128460500Y-81889600D01*
X153377900Y-82892900D02*
X153377900Y-81889600D01*
X153377900Y-95923100D02*
X153377900Y-96926400D01*
X153365200Y-96926400D02*
X134467600Y-96926400D01*
X153162000Y-81889600D02*
X153365200Y-81889600D01*
X134670800Y-81889600D02*
X134467600Y-81889600D01*
X134493000Y-81889600D02*
X153289000Y-81889600D01*
X133460000Y-96924000D02*
X128460000Y-96924000D01*
X133460000Y-81892000D02*
X128460000Y-81892000D01*
X153380000Y-95908000D02*
X153380000Y-82908000D01*
X128460000Y-95908000D02*
X128460000Y-82908000D01*
X134460000Y-96924000D02*
X134460000Y-95924000D01*
X134460000Y-95924000D02*
X133460000Y-95924000D01*
X133460000Y-95924000D02*
X133460000Y-96924000D01*
X133460000Y-81892000D02*
X133460000Y-82892000D01*
X133460000Y-82892000D02*
X134460000Y-82892000D01*
X134460000Y-82892000D02*
X134460000Y-81892000D01*
X149396000Y-89408000D02*
X151396000Y-89408000D01*
X128460000Y-89408000D02*
X125460000Y-89408000D01*
X156380000Y-89408000D02*
X153380000Y-89408000D01*
X130460000Y-89408000D02*
X132460000Y-89408000D01*
X131460000Y-90408000D02*
X131460000Y-88408000D01*
X122515000Y-81047000D02*
X121880000Y-81047000D01*
X121880000Y-81047000D02*
X121880000Y-72030000D01*
X121880000Y-72030000D02*
X130770000Y-72030000D01*
X130770000Y-72030000D02*
X130770000Y-81047000D01*
X130770000Y-81047000D02*
X130008000Y-81047000D01*
X130770000Y-78380000D02*
X130770000Y-72030000D01*
X121880000Y-78380000D02*
X121880000Y-72030000D01*
X130135000Y-81047000D02*
X122515000Y-81047000D01*
X130389000Y-72030000D02*
X122261000Y-72030000D01*
X138390000Y-81047000D02*
X137755000Y-81047000D01*
X137755000Y-81047000D02*
X137755000Y-72030000D01*
X137755000Y-72030000D02*
X146645000Y-72030000D01*
X146645000Y-72030000D02*
X146645000Y-81047000D01*
X146645000Y-81047000D02*
X145883000Y-81047000D01*
X146645000Y-78380000D02*
X146645000Y-72030000D01*
X137755000Y-78380000D02*
X137755000Y-72030000D01*
X146010000Y-81047000D02*
X138390000Y-81047000D01*
X146264000Y-72030000D02*
X138136000Y-72030000D01*
X155535000Y-82317000D02*
X154900000Y-82317000D01*
X154900000Y-82317000D02*
X154900000Y-73300000D01*
X154900000Y-73300000D02*
X163790000Y-73300000D01*
X163790000Y-73300000D02*
X163790000Y-82317000D01*
X163790000Y-82317000D02*
X163028000Y-82317000D01*
X163790000Y-79650000D02*
X163790000Y-73300000D01*
X154900000Y-79650000D02*
X154900000Y-73300000D01*
X163155000Y-82317000D02*
X155535000Y-82317000D01*
X163409000Y-73300000D02*
X155281000Y-73300000D01*
X149098000Y-115951000D02*
X148463000Y-115951000D01*
X148463000Y-115951000D02*
X148463000Y-106934000D01*
X148463000Y-106934000D02*
X157353000Y-106934000D01*
X157353000Y-106934000D02*
X157353000Y-115951000D01*
X157353000Y-115951000D02*
X156591000Y-115951000D01*
X157353000Y-113284000D02*
X157353000Y-106934000D01*
X148463000Y-113284000D02*
X148463000Y-106934000D01*
X156718000Y-115951000D02*
X149098000Y-115951000D01*
X156972000Y-106934000D02*
X148844000Y-106934000D01*
X127475881Y-65656095D02*
X126475881Y-65656095D01*
X126475881Y-65418000D01*
X126523500Y-65275142D01*
X126618738Y-65179904D01*
X126713976Y-65132285D01*
X126904452Y-65084666D01*
X127047310Y-65084666D01*
X127237786Y-65132285D01*
X127333024Y-65179904D01*
X127428262Y-65275142D01*
X127475881Y-65418000D01*
X127475881Y-65656095D01*
X127475881Y-64132285D02*
X127475881Y-64703714D01*
X127475881Y-64418000D02*
X126475881Y-64418000D01*
X126618738Y-64513238D01*
X126713976Y-64608476D01*
X126761595Y-64703714D01*
X130650881Y-66164095D02*
X129650881Y-66164095D01*
X129650881Y-65926000D01*
X129698500Y-65783142D01*
X129793738Y-65687904D01*
X129888976Y-65640285D01*
X130079452Y-65592666D01*
X130222310Y-65592666D01*
X130412786Y-65640285D01*
X130508024Y-65687904D01*
X130603262Y-65783142D01*
X130650881Y-65926000D01*
X130650881Y-66164095D01*
X129746119Y-65211714D02*
X129698500Y-65164095D01*
X129650881Y-65068857D01*
X129650881Y-64830761D01*
X129698500Y-64735523D01*
X129746119Y-64687904D01*
X129841357Y-64640285D01*
X129936595Y-64640285D01*
X130079452Y-64687904D01*
X130650881Y-65259333D01*
X130650881Y-64640285D01*
X142715881Y-65656095D02*
X141715881Y-65656095D01*
X141715881Y-65418000D01*
X141763500Y-65275142D01*
X141858738Y-65179904D01*
X141953976Y-65132285D01*
X142144452Y-65084666D01*
X142287310Y-65084666D01*
X142477786Y-65132285D01*
X142573024Y-65179904D01*
X142668262Y-65275142D01*
X142715881Y-65418000D01*
X142715881Y-65656095D01*
X141715881Y-64751333D02*
X141715881Y-64132285D01*
X142096833Y-64465619D01*
X142096833Y-64322761D01*
X142144452Y-64227523D01*
X142192071Y-64179904D01*
X142287310Y-64132285D01*
X142525405Y-64132285D01*
X142620643Y-64179904D01*
X142668262Y-64227523D01*
X142715881Y-64322761D01*
X142715881Y-64608476D01*
X142668262Y-64703714D01*
X142620643Y-64751333D01*
X146525881Y-66164095D02*
X145525881Y-66164095D01*
X145525881Y-65926000D01*
X145573500Y-65783142D01*
X145668738Y-65687904D01*
X145763976Y-65640285D01*
X145954452Y-65592666D01*
X146097310Y-65592666D01*
X146287786Y-65640285D01*
X146383024Y-65687904D01*
X146478262Y-65783142D01*
X146525881Y-65926000D01*
X146525881Y-66164095D01*
X145859214Y-64735523D02*
X146525881Y-64735523D01*
X145478262Y-64973619D02*
X146192548Y-65211714D01*
X146192548Y-64592666D01*
X159860881Y-66291095D02*
X158860881Y-66291095D01*
X158860881Y-66053000D01*
X158908500Y-65910142D01*
X159003738Y-65814904D01*
X159098976Y-65767285D01*
X159289452Y-65719666D01*
X159432310Y-65719666D01*
X159622786Y-65767285D01*
X159718024Y-65814904D01*
X159813262Y-65910142D01*
X159860881Y-66053000D01*
X159860881Y-66291095D01*
X158860881Y-64814904D02*
X158860881Y-65291095D01*
X159337071Y-65338714D01*
X159289452Y-65291095D01*
X159241833Y-65195857D01*
X159241833Y-64957761D01*
X159289452Y-64862523D01*
X159337071Y-64814904D01*
X159432310Y-64767285D01*
X159670405Y-64767285D01*
X159765643Y-64814904D01*
X159813262Y-64862523D01*
X159860881Y-64957761D01*
X159860881Y-65195857D01*
X159813262Y-65291095D01*
X159765643Y-65338714D01*
X163670881Y-66799095D02*
X162670881Y-66799095D01*
X162670881Y-66561000D01*
X162718500Y-66418142D01*
X162813738Y-66322904D01*
X162908976Y-66275285D01*
X163099452Y-66227666D01*
X163242310Y-66227666D01*
X163432786Y-66275285D01*
X163528024Y-66322904D01*
X163623262Y-66418142D01*
X163670881Y-66561000D01*
X163670881Y-66799095D01*
X162670881Y-65370523D02*
X162670881Y-65561000D01*
X162718500Y-65656238D01*
X162766119Y-65703857D01*
X162908976Y-65799095D01*
X163099452Y-65846714D01*
X163480405Y-65846714D01*
X163575643Y-65799095D01*
X163623262Y-65751476D01*
X163670881Y-65656238D01*
X163670881Y-65465761D01*
X163623262Y-65370523D01*
X163575643Y-65322904D01*
X163480405Y-65275285D01*
X163242310Y-65275285D01*
X163147071Y-65322904D01*
X163099452Y-65370523D01*
X163051833Y-65465761D01*
X163051833Y-65656238D01*
X163099452Y-65751476D01*
X163147071Y-65799095D01*
X163242310Y-65846714D01*
X144549905Y-120975381D02*
X144549905Y-119975381D01*
X144788000Y-119975381D01*
X144930858Y-120023000D01*
X145026096Y-120118238D01*
X145073715Y-120213476D01*
X145121334Y-120403952D01*
X145121334Y-120546810D01*
X145073715Y-120737286D01*
X145026096Y-120832524D01*
X144930858Y-120927762D01*
X144788000Y-120975381D01*
X144549905Y-120975381D01*
X145454667Y-119975381D02*
X146121334Y-119975381D01*
X145692762Y-120975381D01*
X140406381Y-112752095D02*
X139406381Y-112752095D01*
X139406381Y-112514000D01*
X139454000Y-112371142D01*
X139549238Y-112275904D01*
X139644476Y-112228285D01*
X139834952Y-112180666D01*
X139977810Y-112180666D01*
X140168286Y-112228285D01*
X140263524Y-112275904D01*
X140358762Y-112371142D01*
X140406381Y-112514000D01*
X140406381Y-112752095D01*
X139834952Y-111609238D02*
X139787333Y-111704476D01*
X139739714Y-111752095D01*
X139644476Y-111799714D01*
X139596857Y-111799714D01*
X139501619Y-111752095D01*
X139454000Y-111704476D01*
X139406381Y-111609238D01*
X139406381Y-111418761D01*
X139454000Y-111323523D01*
X139501619Y-111275904D01*
X139596857Y-111228285D01*
X139644476Y-111228285D01*
X139739714Y-111275904D01*
X139787333Y-111323523D01*
X139834952Y-111418761D01*
X139834952Y-111609238D01*
X139882571Y-111704476D01*
X139930190Y-111752095D01*
X140025429Y-111799714D01*
X140215905Y-111799714D01*
X140311143Y-111752095D01*
X140358762Y-111704476D01*
X140406381Y-111609238D01*
X140406381Y-111418761D01*
X140358762Y-111323523D01*
X140311143Y-111275904D01*
X140215905Y-111228285D01*
X140025429Y-111228285D01*
X139930190Y-111275904D01*
X139882571Y-111323523D01*
X139834952Y-111418761D01*
X164155381Y-132564095D02*
X163155381Y-132564095D01*
X163155381Y-132326000D01*
X163203000Y-132183142D01*
X163298238Y-132087904D01*
X163393476Y-132040285D01*
X163583952Y-131992666D01*
X163726810Y-131992666D01*
X163917286Y-132040285D01*
X164012524Y-132087904D01*
X164107762Y-132183142D01*
X164155381Y-132326000D01*
X164155381Y-132564095D01*
X164155381Y-131516476D02*
X164155381Y-131326000D01*
X164107762Y-131230761D01*
X164060143Y-131183142D01*
X163917286Y-131087904D01*
X163726810Y-131040285D01*
X163345857Y-131040285D01*
X163250619Y-131087904D01*
X163203000Y-131135523D01*
X163155381Y-131230761D01*
X163155381Y-131421238D01*
X163203000Y-131516476D01*
X163250619Y-131564095D01*
X163345857Y-131611714D01*
X163583952Y-131611714D01*
X163679190Y-131564095D01*
X163726810Y-131516476D01*
X163774429Y-131421238D01*
X163774429Y-131230761D01*
X163726810Y-131135523D01*
X163679190Y-131087904D01*
X163583952Y-131040285D01*
X157424381Y-133548286D02*
X156424381Y-133548286D01*
X156424381Y-133310191D01*
X156472000Y-133167333D01*
X156567238Y-133072095D01*
X156662476Y-133024476D01*
X156852952Y-132976857D01*
X156995810Y-132976857D01*
X157186286Y-133024476D01*
X157281524Y-133072095D01*
X157376762Y-133167333D01*
X157424381Y-133310191D01*
X157424381Y-133548286D01*
X157424381Y-132024476D02*
X157424381Y-132595905D01*
X157424381Y-132310191D02*
X156424381Y-132310191D01*
X156567238Y-132405429D01*
X156662476Y-132500667D01*
X156710095Y-132595905D01*
X156424381Y-131405429D02*
X156424381Y-131310190D01*
X156472000Y-131214952D01*
X156519619Y-131167333D01*
X156614857Y-131119714D01*
X156805333Y-131072095D01*
X157043429Y-131072095D01*
X157233905Y-131119714D01*
X157329143Y-131167333D01*
X157376762Y-131214952D01*
X157424381Y-131310190D01*
X157424381Y-131405429D01*
X157376762Y-131500667D01*
X157329143Y-131548286D01*
X157233905Y-131595905D01*
X157043429Y-131643524D01*
X156805333Y-131643524D01*
X156614857Y-131595905D01*
X156519619Y-131548286D01*
X156472000Y-131500667D01*
X156424381Y-131405429D01*
X178617714Y-134564381D02*
X178617714Y-133564381D01*
X178855809Y-133564381D01*
X178998667Y-133612000D01*
X179093905Y-133707238D01*
X179141524Y-133802476D01*
X179189143Y-133992952D01*
X179189143Y-134135810D01*
X179141524Y-134326286D01*
X179093905Y-134421524D01*
X178998667Y-134516762D01*
X178855809Y-134564381D01*
X178617714Y-134564381D01*
X180141524Y-134564381D02*
X179570095Y-134564381D01*
X179855809Y-134564381D02*
X179855809Y-133564381D01*
X179760571Y-133707238D01*
X179665333Y-133802476D01*
X179570095Y-133850095D01*
X181093905Y-134564381D02*
X180522476Y-134564381D01*
X180808190Y-134564381D02*
X180808190Y-133564381D01*
X180712952Y-133707238D01*
X180617714Y-133802476D01*
X180522476Y-133850095D01*
X179125714Y-131579881D02*
X179125714Y-130579881D01*
X179363809Y-130579881D01*
X179506667Y-130627500D01*
X179601905Y-130722738D01*
X179649524Y-130817976D01*
X179697143Y-131008452D01*
X179697143Y-131151310D01*
X179649524Y-131341786D01*
X179601905Y-131437024D01*
X179506667Y-131532262D01*
X179363809Y-131579881D01*
X179125714Y-131579881D01*
X180649524Y-131579881D02*
X180078095Y-131579881D01*
X180363809Y-131579881D02*
X180363809Y-130579881D01*
X180268571Y-130722738D01*
X180173333Y-130817976D01*
X180078095Y-130865595D01*
X181030476Y-130675119D02*
X181078095Y-130627500D01*
X181173333Y-130579881D01*
X181411429Y-130579881D01*
X181506667Y-130627500D01*
X181554286Y-130675119D01*
X181601905Y-130770357D01*
X181601905Y-130865595D01*
X181554286Y-131008452D01*
X180982857Y-131579881D01*
X181601905Y-131579881D01*
X176839714Y-110180381D02*
X176839714Y-109180381D01*
X177077809Y-109180381D01*
X177220667Y-109228000D01*
X177315905Y-109323238D01*
X177363524Y-109418476D01*
X177411143Y-109608952D01*
X177411143Y-109751810D01*
X177363524Y-109942286D01*
X177315905Y-110037524D01*
X177220667Y-110132762D01*
X177077809Y-110180381D01*
X176839714Y-110180381D01*
X178363524Y-110180381D02*
X177792095Y-110180381D01*
X178077809Y-110180381D02*
X178077809Y-109180381D01*
X177982571Y-109323238D01*
X177887333Y-109418476D01*
X177792095Y-109466095D01*
X178696857Y-109180381D02*
X179315905Y-109180381D01*
X178982571Y-109561333D01*
X179125429Y-109561333D01*
X179220667Y-109608952D01*
X179268286Y-109656571D01*
X179315905Y-109751810D01*
X179315905Y-109989905D01*
X179268286Y-110085143D01*
X179220667Y-110132762D01*
X179125429Y-110180381D01*
X178839714Y-110180381D01*
X178744476Y-110132762D01*
X178696857Y-110085143D01*
X176331714Y-112974381D02*
X176331714Y-111974381D01*
X176569809Y-111974381D01*
X176712667Y-112022000D01*
X176807905Y-112117238D01*
X176855524Y-112212476D01*
X176903143Y-112402952D01*
X176903143Y-112545810D01*
X176855524Y-112736286D01*
X176807905Y-112831524D01*
X176712667Y-112926762D01*
X176569809Y-112974381D01*
X176331714Y-112974381D01*
X177855524Y-112974381D02*
X177284095Y-112974381D01*
X177569809Y-112974381D02*
X177569809Y-111974381D01*
X177474571Y-112117238D01*
X177379333Y-112212476D01*
X177284095Y-112260095D01*
X178712667Y-112307714D02*
X178712667Y-112974381D01*
X178474571Y-111926762D02*
X178236476Y-112641048D01*
X178855524Y-112641048D01*
X185729714Y-128468381D02*
X185729714Y-127468381D01*
X185967809Y-127468381D01*
X186110667Y-127516000D01*
X186205905Y-127611238D01*
X186253524Y-127706476D01*
X186301143Y-127896952D01*
X186301143Y-128039810D01*
X186253524Y-128230286D01*
X186205905Y-128325524D01*
X186110667Y-128420762D01*
X185967809Y-128468381D01*
X185729714Y-128468381D01*
X187253524Y-128468381D02*
X186682095Y-128468381D01*
X186967809Y-128468381D02*
X186967809Y-127468381D01*
X186872571Y-127611238D01*
X186777333Y-127706476D01*
X186682095Y-127754095D01*
X188158286Y-127468381D02*
X187682095Y-127468381D01*
X187634476Y-127944571D01*
X187682095Y-127896952D01*
X187777333Y-127849333D01*
X188015429Y-127849333D01*
X188110667Y-127896952D01*
X188158286Y-127944571D01*
X188205905Y-128039810D01*
X188205905Y-128277905D01*
X188158286Y-128373143D01*
X188110667Y-128420762D01*
X188015429Y-128468381D01*
X187777333Y-128468381D01*
X187682095Y-128420762D01*
X187634476Y-128373143D01*
X194722381Y-119218286D02*
X193722381Y-119218286D01*
X193722381Y-118980191D01*
X193770000Y-118837333D01*
X193865238Y-118742095D01*
X193960476Y-118694476D01*
X194150952Y-118646857D01*
X194293810Y-118646857D01*
X194484286Y-118694476D01*
X194579524Y-118742095D01*
X194674762Y-118837333D01*
X194722381Y-118980191D01*
X194722381Y-119218286D01*
X194722381Y-117694476D02*
X194722381Y-118265905D01*
X194722381Y-117980191D02*
X193722381Y-117980191D01*
X193865238Y-118075429D01*
X193960476Y-118170667D01*
X194008095Y-118265905D01*
X193722381Y-116837333D02*
X193722381Y-117027810D01*
X193770000Y-117123048D01*
X193817619Y-117170667D01*
X193960476Y-117265905D01*
X194150952Y-117313524D01*
X194531905Y-117313524D01*
X194627143Y-117265905D01*
X194674762Y-117218286D01*
X194722381Y-117123048D01*
X194722381Y-116932571D01*
X194674762Y-116837333D01*
X194627143Y-116789714D01*
X194531905Y-116742095D01*
X194293810Y-116742095D01*
X194198571Y-116789714D01*
X194150952Y-116837333D01*
X194103333Y-116932571D01*
X194103333Y-117123048D01*
X194150952Y-117218286D01*
X194198571Y-117265905D01*
X194293810Y-117313524D01*
X120642191Y-100576071D02*
X120308857Y-100576071D01*
X120308857Y-101099881D02*
X120308857Y-100099881D01*
X120785048Y-100099881D01*
X121166000Y-101099881D02*
X121166000Y-100433214D01*
X121166000Y-100099881D02*
X121118381Y-100147500D01*
X121166000Y-100195119D01*
X121213619Y-100147500D01*
X121166000Y-100099881D01*
X121166000Y-100195119D01*
X121642190Y-100433214D02*
X121642190Y-101099881D01*
X121642190Y-100528452D02*
X121689809Y-100480833D01*
X121785047Y-100433214D01*
X121927905Y-100433214D01*
X122023143Y-100480833D01*
X122070762Y-100576071D01*
X122070762Y-101099881D01*
X123070762Y-101099881D02*
X122499333Y-101099881D01*
X122785047Y-101099881D02*
X122785047Y-100099881D01*
X122689809Y-100242738D01*
X122594571Y-100337976D01*
X122499333Y-100385595D01*
X202604999Y-97242381D02*
X202795476Y-97242381D01*
X202890714Y-97290000D01*
X202985952Y-97385238D01*
X203033571Y-97575714D01*
X203033571Y-97909048D01*
X202985952Y-98099524D01*
X202890714Y-98194762D01*
X202795476Y-98242381D01*
X202604999Y-98242381D01*
X202509761Y-98194762D01*
X202414523Y-98099524D01*
X202366904Y-97909048D01*
X202366904Y-97575714D01*
X202414523Y-97385238D01*
X202509761Y-97290000D01*
X202604999Y-97242381D01*
X203890714Y-97575714D02*
X203890714Y-98242381D01*
X203462142Y-97575714D02*
X203462142Y-98099524D01*
X203509761Y-98194762D01*
X203604999Y-98242381D01*
X203747857Y-98242381D01*
X203843095Y-98194762D01*
X203890714Y-98147143D01*
X204224047Y-97575714D02*
X204604999Y-97575714D01*
X204366904Y-97242381D02*
X204366904Y-98099524D01*
X204414523Y-98194762D01*
X204509761Y-98242381D01*
X204604999Y-98242381D01*
X204938333Y-97575714D02*
X204938333Y-98575714D01*
X204938333Y-97623333D02*
X205033571Y-97575714D01*
X205224048Y-97575714D01*
X205319286Y-97623333D01*
X205366905Y-97670952D01*
X205414524Y-97766190D01*
X205414524Y-98051905D01*
X205366905Y-98147143D01*
X205319286Y-98194762D01*
X205224048Y-98242381D01*
X205033571Y-98242381D01*
X204938333Y-98194762D01*
X206271667Y-97575714D02*
X206271667Y-98242381D01*
X205843095Y-97575714D02*
X205843095Y-98099524D01*
X205890714Y-98194762D01*
X205985952Y-98242381D01*
X206128810Y-98242381D01*
X206224048Y-98194762D01*
X206271667Y-98147143D01*
X206605000Y-97575714D02*
X206985952Y-97575714D01*
X206747857Y-97242381D02*
X206747857Y-98099524D01*
X206795476Y-98194762D01*
X206890714Y-98242381D01*
X206985952Y-98242381D01*
X207843096Y-98242381D02*
X207271667Y-98242381D01*
X207557381Y-98242381D02*
X207557381Y-97242381D01*
X207462143Y-97385238D01*
X207366905Y-97480476D01*
X207271667Y-97528095D01*
X180903476Y-48225381D02*
X180903476Y-47225381D01*
X181284429Y-47225381D01*
X181379667Y-47273000D01*
X181427286Y-47320619D01*
X181474905Y-47415857D01*
X181474905Y-47558714D01*
X181427286Y-47653952D01*
X181379667Y-47701571D01*
X181284429Y-47749190D01*
X180903476Y-47749190D01*
X181808238Y-47225381D02*
X182046333Y-48225381D01*
X182236810Y-47511095D01*
X182427286Y-48225381D01*
X182665381Y-47225381D01*
X183617762Y-48225381D02*
X183284428Y-47749190D01*
X183046333Y-48225381D02*
X183046333Y-47225381D01*
X183427286Y-47225381D01*
X183522524Y-47273000D01*
X183570143Y-47320619D01*
X183617762Y-47415857D01*
X183617762Y-47558714D01*
X183570143Y-47653952D01*
X183522524Y-47701571D01*
X183427286Y-47749190D01*
X183046333Y-47749190D01*
X184570143Y-48225381D02*
X183998714Y-48225381D01*
X184284428Y-48225381D02*
X184284428Y-47225381D01*
X184189190Y-47368238D01*
X184093952Y-47463476D01*
X183998714Y-47511095D01*
X136969119Y-65775238D02*
X136921500Y-65870476D01*
X136826262Y-65965714D01*
X136683405Y-66108571D01*
X136635786Y-66203810D01*
X136635786Y-66299048D01*
X136873881Y-66251429D02*
X136826262Y-66346667D01*
X136731024Y-66441905D01*
X136540548Y-66489524D01*
X136207214Y-66489524D01*
X136016738Y-66441905D01*
X135921500Y-66346667D01*
X135873881Y-66251429D01*
X135873881Y-66060952D01*
X135921500Y-65965714D01*
X136016738Y-65870476D01*
X136207214Y-65822857D01*
X136540548Y-65822857D01*
X136731024Y-65870476D01*
X136826262Y-65965714D01*
X136873881Y-66060952D01*
X136873881Y-66251429D01*
X136873881Y-64870476D02*
X136873881Y-65441905D01*
X136873881Y-65156191D02*
X135873881Y-65156191D01*
X136016738Y-65251429D01*
X136111976Y-65346667D01*
X136159595Y-65441905D01*
X132714619Y-76697238D02*
X132667000Y-76792476D01*
X132571762Y-76887714D01*
X132428905Y-77030571D01*
X132381286Y-77125810D01*
X132381286Y-77221048D01*
X132619381Y-77173429D02*
X132571762Y-77268667D01*
X132476524Y-77363905D01*
X132286048Y-77411524D01*
X131952714Y-77411524D01*
X131762238Y-77363905D01*
X131667000Y-77268667D01*
X131619381Y-77173429D01*
X131619381Y-76982952D01*
X131667000Y-76887714D01*
X131762238Y-76792476D01*
X131952714Y-76744857D01*
X132286048Y-76744857D01*
X132476524Y-76792476D01*
X132571762Y-76887714D01*
X132619381Y-76982952D01*
X132619381Y-77173429D01*
X131714619Y-76363905D02*
X131667000Y-76316286D01*
X131619381Y-76221048D01*
X131619381Y-75982952D01*
X131667000Y-75887714D01*
X131714619Y-75840095D01*
X131809857Y-75792476D01*
X131905095Y-75792476D01*
X132047952Y-75840095D01*
X132619381Y-76411524D01*
X132619381Y-75792476D01*
X153479119Y-67235738D02*
X153431500Y-67330976D01*
X153336262Y-67426214D01*
X153193405Y-67569071D01*
X153145786Y-67664310D01*
X153145786Y-67759548D01*
X153383881Y-67711929D02*
X153336262Y-67807167D01*
X153241024Y-67902405D01*
X153050548Y-67950024D01*
X152717214Y-67950024D01*
X152526738Y-67902405D01*
X152431500Y-67807167D01*
X152383881Y-67711929D01*
X152383881Y-67521452D01*
X152431500Y-67426214D01*
X152526738Y-67330976D01*
X152717214Y-67283357D01*
X153050548Y-67283357D01*
X153241024Y-67330976D01*
X153336262Y-67426214D01*
X153383881Y-67521452D01*
X153383881Y-67711929D01*
X152383881Y-66950024D02*
X152383881Y-66330976D01*
X152764833Y-66664310D01*
X152764833Y-66521452D01*
X152812452Y-66426214D01*
X152860071Y-66378595D01*
X152955310Y-66330976D01*
X153193405Y-66330976D01*
X153288643Y-66378595D01*
X153336262Y-66426214D01*
X153383881Y-66521452D01*
X153383881Y-66807167D01*
X153336262Y-66902405D01*
X153288643Y-66950024D01*
X148526119Y-76633738D02*
X148478500Y-76728976D01*
X148383262Y-76824214D01*
X148240405Y-76967071D01*
X148192786Y-77062310D01*
X148192786Y-77157548D01*
X148430881Y-77109929D02*
X148383262Y-77205167D01*
X148288024Y-77300405D01*
X148097548Y-77348024D01*
X147764214Y-77348024D01*
X147573738Y-77300405D01*
X147478500Y-77205167D01*
X147430881Y-77109929D01*
X147430881Y-76919452D01*
X147478500Y-76824214D01*
X147573738Y-76728976D01*
X147764214Y-76681357D01*
X148097548Y-76681357D01*
X148288024Y-76728976D01*
X148383262Y-76824214D01*
X148430881Y-76919452D01*
X148430881Y-77109929D01*
X147764214Y-75824214D02*
X148430881Y-75824214D01*
X147383262Y-76062310D02*
X148097548Y-76300405D01*
X148097548Y-75681357D01*
X170624119Y-68378738D02*
X170576500Y-68473976D01*
X170481262Y-68569214D01*
X170338405Y-68712071D01*
X170290786Y-68807310D01*
X170290786Y-68902548D01*
X170528881Y-68854929D02*
X170481262Y-68950167D01*
X170386024Y-69045405D01*
X170195548Y-69093024D01*
X169862214Y-69093024D01*
X169671738Y-69045405D01*
X169576500Y-68950167D01*
X169528881Y-68854929D01*
X169528881Y-68664452D01*
X169576500Y-68569214D01*
X169671738Y-68473976D01*
X169862214Y-68426357D01*
X170195548Y-68426357D01*
X170386024Y-68473976D01*
X170481262Y-68569214D01*
X170528881Y-68664452D01*
X170528881Y-68854929D01*
X169528881Y-67521595D02*
X169528881Y-67997786D01*
X170005071Y-68045405D01*
X169957452Y-67997786D01*
X169909833Y-67902548D01*
X169909833Y-67664452D01*
X169957452Y-67569214D01*
X170005071Y-67521595D01*
X170100310Y-67473976D01*
X170338405Y-67473976D01*
X170433643Y-67521595D01*
X170481262Y-67569214D01*
X170528881Y-67664452D01*
X170528881Y-67902548D01*
X170481262Y-67997786D01*
X170433643Y-68045405D01*
X165607619Y-77967238D02*
X165560000Y-78062476D01*
X165464762Y-78157714D01*
X165321905Y-78300571D01*
X165274286Y-78395810D01*
X165274286Y-78491048D01*
X165512381Y-78443429D02*
X165464762Y-78538667D01*
X165369524Y-78633905D01*
X165179048Y-78681524D01*
X164845714Y-78681524D01*
X164655238Y-78633905D01*
X164560000Y-78538667D01*
X164512381Y-78443429D01*
X164512381Y-78252952D01*
X164560000Y-78157714D01*
X164655238Y-78062476D01*
X164845714Y-78014857D01*
X165179048Y-78014857D01*
X165369524Y-78062476D01*
X165464762Y-78157714D01*
X165512381Y-78252952D01*
X165512381Y-78443429D01*
X164512381Y-77157714D02*
X164512381Y-77348191D01*
X164560000Y-77443429D01*
X164607619Y-77491048D01*
X164750476Y-77586286D01*
X164940952Y-77633905D01*
X165321905Y-77633905D01*
X165417143Y-77586286D01*
X165464762Y-77538667D01*
X165512381Y-77443429D01*
X165512381Y-77252952D01*
X165464762Y-77157714D01*
X165417143Y-77110095D01*
X165321905Y-77062476D01*
X165083810Y-77062476D01*
X164988571Y-77110095D01*
X164940952Y-77157714D01*
X164893333Y-77252952D01*
X164893333Y-77443429D01*
X164940952Y-77538667D01*
X164988571Y-77586286D01*
X165083810Y-77633905D01*
X147232619Y-101822238D02*
X147185000Y-101917476D01*
X147089762Y-102012714D01*
X146946905Y-102155571D01*
X146899286Y-102250810D01*
X146899286Y-102346048D01*
X147137381Y-102298429D02*
X147089762Y-102393667D01*
X146994524Y-102488905D01*
X146804048Y-102536524D01*
X146470714Y-102536524D01*
X146280238Y-102488905D01*
X146185000Y-102393667D01*
X146137381Y-102298429D01*
X146137381Y-102107952D01*
X146185000Y-102012714D01*
X146280238Y-101917476D01*
X146470714Y-101869857D01*
X146804048Y-101869857D01*
X146994524Y-101917476D01*
X147089762Y-102012714D01*
X147137381Y-102107952D01*
X147137381Y-102298429D01*
X146137381Y-101536524D02*
X146137381Y-100869857D01*
X147137381Y-101298429D01*
X145772119Y-101885738D02*
X145724500Y-101980976D01*
X145629262Y-102076214D01*
X145486405Y-102219071D01*
X145438786Y-102314310D01*
X145438786Y-102409548D01*
X145676881Y-102361929D02*
X145629262Y-102457167D01*
X145534024Y-102552405D01*
X145343548Y-102600024D01*
X145010214Y-102600024D01*
X144819738Y-102552405D01*
X144724500Y-102457167D01*
X144676881Y-102361929D01*
X144676881Y-102171452D01*
X144724500Y-102076214D01*
X144819738Y-101980976D01*
X145010214Y-101933357D01*
X145343548Y-101933357D01*
X145534024Y-101980976D01*
X145629262Y-102076214D01*
X145676881Y-102171452D01*
X145676881Y-102361929D01*
X145105452Y-101361929D02*
X145057833Y-101457167D01*
X145010214Y-101504786D01*
X144914976Y-101552405D01*
X144867357Y-101552405D01*
X144772119Y-101504786D01*
X144724500Y-101457167D01*
X144676881Y-101361929D01*
X144676881Y-101171452D01*
X144724500Y-101076214D01*
X144772119Y-101028595D01*
X144867357Y-100980976D01*
X144914976Y-100980976D01*
X145010214Y-101028595D01*
X145057833Y-101076214D01*
X145105452Y-101171452D01*
X145105452Y-101361929D01*
X145153071Y-101457167D01*
X145200690Y-101504786D01*
X145295929Y-101552405D01*
X145486405Y-101552405D01*
X145581643Y-101504786D01*
X145629262Y-101457167D01*
X145676881Y-101361929D01*
X145676881Y-101171452D01*
X145629262Y-101076214D01*
X145581643Y-101028595D01*
X145486405Y-100980976D01*
X145295929Y-100980976D01*
X145200690Y-101028595D01*
X145153071Y-101076214D01*
X145105452Y-101171452D01*
X132627619Y-111728238D02*
X132580000Y-111823476D01*
X132484762Y-111918714D01*
X132341905Y-112061571D01*
X132294286Y-112156810D01*
X132294286Y-112252048D01*
X132532381Y-112204429D02*
X132484762Y-112299667D01*
X132389524Y-112394905D01*
X132199048Y-112442524D01*
X131865714Y-112442524D01*
X131675238Y-112394905D01*
X131580000Y-112299667D01*
X131532381Y-112204429D01*
X131532381Y-112013952D01*
X131580000Y-111918714D01*
X131675238Y-111823476D01*
X131865714Y-111775857D01*
X132199048Y-111775857D01*
X132389524Y-111823476D01*
X132484762Y-111918714D01*
X132532381Y-112013952D01*
X132532381Y-112204429D01*
X132532381Y-111299667D02*
X132532381Y-111109191D01*
X132484762Y-111013952D01*
X132437143Y-110966333D01*
X132294286Y-110871095D01*
X132103810Y-110823476D01*
X131722857Y-110823476D01*
X131627619Y-110871095D01*
X131580000Y-110918714D01*
X131532381Y-111013952D01*
X131532381Y-111204429D01*
X131580000Y-111299667D01*
X131627619Y-111347286D01*
X131722857Y-111394905D01*
X131960952Y-111394905D01*
X132056190Y-111347286D01*
X132103810Y-111299667D01*
X132151429Y-111204429D01*
X132151429Y-111013952D01*
X132103810Y-110918714D01*
X132056190Y-110871095D01*
X131960952Y-110823476D01*
X158154619Y-102425428D02*
X158107000Y-102520666D01*
X158011762Y-102615904D01*
X157868905Y-102758761D01*
X157821286Y-102854000D01*
X157821286Y-102949238D01*
X158059381Y-102901619D02*
X158011762Y-102996857D01*
X157916524Y-103092095D01*
X157726048Y-103139714D01*
X157392714Y-103139714D01*
X157202238Y-103092095D01*
X157107000Y-102996857D01*
X157059381Y-102901619D01*
X157059381Y-102711142D01*
X157107000Y-102615904D01*
X157202238Y-102520666D01*
X157392714Y-102473047D01*
X157726048Y-102473047D01*
X157916524Y-102520666D01*
X158011762Y-102615904D01*
X158059381Y-102711142D01*
X158059381Y-102901619D01*
X158059381Y-101520666D02*
X158059381Y-102092095D01*
X158059381Y-101806381D02*
X157059381Y-101806381D01*
X157202238Y-101901619D01*
X157297476Y-101996857D01*
X157345095Y-102092095D01*
X157059381Y-100901619D02*
X157059381Y-100806380D01*
X157107000Y-100711142D01*
X157154619Y-100663523D01*
X157249857Y-100615904D01*
X157440333Y-100568285D01*
X157678429Y-100568285D01*
X157868905Y-100615904D01*
X157964143Y-100663523D01*
X158011762Y-100711142D01*
X158059381Y-100806380D01*
X158059381Y-100901619D01*
X158011762Y-100996857D01*
X157964143Y-101044476D01*
X157868905Y-101092095D01*
X157678429Y-101139714D01*
X157440333Y-101139714D01*
X157249857Y-101092095D01*
X157154619Y-101044476D01*
X157107000Y-100996857D01*
X157059381Y-100901619D01*
X163742619Y-105092428D02*
X163695000Y-105187666D01*
X163599762Y-105282904D01*
X163456905Y-105425761D01*
X163409286Y-105521000D01*
X163409286Y-105616238D01*
X163647381Y-105568619D02*
X163599762Y-105663857D01*
X163504524Y-105759095D01*
X163314048Y-105806714D01*
X162980714Y-105806714D01*
X162790238Y-105759095D01*
X162695000Y-105663857D01*
X162647381Y-105568619D01*
X162647381Y-105378142D01*
X162695000Y-105282904D01*
X162790238Y-105187666D01*
X162980714Y-105140047D01*
X163314048Y-105140047D01*
X163504524Y-105187666D01*
X163599762Y-105282904D01*
X163647381Y-105378142D01*
X163647381Y-105568619D01*
X163647381Y-104187666D02*
X163647381Y-104759095D01*
X163647381Y-104473381D02*
X162647381Y-104473381D01*
X162790238Y-104568619D01*
X162885476Y-104663857D01*
X162933095Y-104759095D01*
X163647381Y-103235285D02*
X163647381Y-103806714D01*
X163647381Y-103521000D02*
X162647381Y-103521000D01*
X162790238Y-103616238D01*
X162885476Y-103711476D01*
X162933095Y-103806714D01*
X134215119Y-112013928D02*
X134167500Y-112109166D01*
X134072262Y-112204404D01*
X133929405Y-112347261D01*
X133881786Y-112442500D01*
X133881786Y-112537738D01*
X134119881Y-112490119D02*
X134072262Y-112585357D01*
X133977024Y-112680595D01*
X133786548Y-112728214D01*
X133453214Y-112728214D01*
X133262738Y-112680595D01*
X133167500Y-112585357D01*
X133119881Y-112490119D01*
X133119881Y-112299642D01*
X133167500Y-112204404D01*
X133262738Y-112109166D01*
X133453214Y-112061547D01*
X133786548Y-112061547D01*
X133977024Y-112109166D01*
X134072262Y-112204404D01*
X134119881Y-112299642D01*
X134119881Y-112490119D01*
X134119881Y-111109166D02*
X134119881Y-111680595D01*
X134119881Y-111394881D02*
X133119881Y-111394881D01*
X133262738Y-111490119D01*
X133357976Y-111585357D01*
X133405595Y-111680595D01*
X133215119Y-110728214D02*
X133167500Y-110680595D01*
X133119881Y-110585357D01*
X133119881Y-110347261D01*
X133167500Y-110252023D01*
X133215119Y-110204404D01*
X133310357Y-110156785D01*
X133405595Y-110156785D01*
X133548452Y-110204404D01*
X134119881Y-110775833D01*
X134119881Y-110156785D01*
X163933119Y-113029928D02*
X163885500Y-113125166D01*
X163790262Y-113220404D01*
X163647405Y-113363261D01*
X163599786Y-113458500D01*
X163599786Y-113553738D01*
X163837881Y-113506119D02*
X163790262Y-113601357D01*
X163695024Y-113696595D01*
X163504548Y-113744214D01*
X163171214Y-113744214D01*
X162980738Y-113696595D01*
X162885500Y-113601357D01*
X162837881Y-113506119D01*
X162837881Y-113315642D01*
X162885500Y-113220404D01*
X162980738Y-113125166D01*
X163171214Y-113077547D01*
X163504548Y-113077547D01*
X163695024Y-113125166D01*
X163790262Y-113220404D01*
X163837881Y-113315642D01*
X163837881Y-113506119D01*
X163837881Y-112125166D02*
X163837881Y-112696595D01*
X163837881Y-112410881D02*
X162837881Y-112410881D01*
X162980738Y-112506119D01*
X163075976Y-112601357D01*
X163123595Y-112696595D01*
X162837881Y-111791833D02*
X162837881Y-111172785D01*
X163218833Y-111506119D01*
X163218833Y-111363261D01*
X163266452Y-111268023D01*
X163314071Y-111220404D01*
X163409310Y-111172785D01*
X163647405Y-111172785D01*
X163742643Y-111220404D01*
X163790262Y-111268023D01*
X163837881Y-111363261D01*
X163837881Y-111648976D01*
X163790262Y-111744214D01*
X163742643Y-111791833D01*
X160083572Y-125261619D02*
X159988334Y-125214000D01*
X159893096Y-125118762D01*
X159750239Y-124975905D01*
X159655000Y-124928286D01*
X159559762Y-124928286D01*
X159607381Y-125166381D02*
X159512143Y-125118762D01*
X159416905Y-125023524D01*
X159369286Y-124833048D01*
X159369286Y-124499714D01*
X159416905Y-124309238D01*
X159512143Y-124214000D01*
X159607381Y-124166381D01*
X159797858Y-124166381D01*
X159893096Y-124214000D01*
X159988334Y-124309238D01*
X160035953Y-124499714D01*
X160035953Y-124833048D01*
X159988334Y-125023524D01*
X159893096Y-125118762D01*
X159797858Y-125166381D01*
X159607381Y-125166381D01*
X160988334Y-125166381D02*
X160416905Y-125166381D01*
X160702619Y-125166381D02*
X160702619Y-124166381D01*
X160607381Y-124309238D01*
X160512143Y-124404476D01*
X160416905Y-124452095D01*
X161845477Y-124499714D02*
X161845477Y-125166381D01*
X161607381Y-124118762D02*
X161369286Y-124833048D01*
X161988334Y-124833048D01*
X165965119Y-111251928D02*
X165917500Y-111347166D01*
X165822262Y-111442404D01*
X165679405Y-111585261D01*
X165631786Y-111680500D01*
X165631786Y-111775738D01*
X165869881Y-111728119D02*
X165822262Y-111823357D01*
X165727024Y-111918595D01*
X165536548Y-111966214D01*
X165203214Y-111966214D01*
X165012738Y-111918595D01*
X164917500Y-111823357D01*
X164869881Y-111728119D01*
X164869881Y-111537642D01*
X164917500Y-111442404D01*
X165012738Y-111347166D01*
X165203214Y-111299547D01*
X165536548Y-111299547D01*
X165727024Y-111347166D01*
X165822262Y-111442404D01*
X165869881Y-111537642D01*
X165869881Y-111728119D01*
X165869881Y-110347166D02*
X165869881Y-110918595D01*
X165869881Y-110632881D02*
X164869881Y-110632881D01*
X165012738Y-110728119D01*
X165107976Y-110823357D01*
X165155595Y-110918595D01*
X164869881Y-109442404D02*
X164869881Y-109918595D01*
X165346071Y-109966214D01*
X165298452Y-109918595D01*
X165250833Y-109823357D01*
X165250833Y-109585261D01*
X165298452Y-109490023D01*
X165346071Y-109442404D01*
X165441310Y-109394785D01*
X165679405Y-109394785D01*
X165774643Y-109442404D01*
X165822262Y-109490023D01*
X165869881Y-109585261D01*
X165869881Y-109823357D01*
X165822262Y-109918595D01*
X165774643Y-109966214D01*
X170981619Y-126301428D02*
X170934000Y-126396666D01*
X170838762Y-126491904D01*
X170695905Y-126634761D01*
X170648286Y-126730000D01*
X170648286Y-126825238D01*
X170886381Y-126777619D02*
X170838762Y-126872857D01*
X170743524Y-126968095D01*
X170553048Y-127015714D01*
X170219714Y-127015714D01*
X170029238Y-126968095D01*
X169934000Y-126872857D01*
X169886381Y-126777619D01*
X169886381Y-126587142D01*
X169934000Y-126491904D01*
X170029238Y-126396666D01*
X170219714Y-126349047D01*
X170553048Y-126349047D01*
X170743524Y-126396666D01*
X170838762Y-126491904D01*
X170886381Y-126587142D01*
X170886381Y-126777619D01*
X170886381Y-125396666D02*
X170886381Y-125968095D01*
X170886381Y-125682381D02*
X169886381Y-125682381D01*
X170029238Y-125777619D01*
X170124476Y-125872857D01*
X170172095Y-125968095D01*
X169886381Y-124539523D02*
X169886381Y-124730000D01*
X169934000Y-124825238D01*
X169981619Y-124872857D01*
X170124476Y-124968095D01*
X170314952Y-125015714D01*
X170695905Y-125015714D01*
X170791143Y-124968095D01*
X170838762Y-124920476D01*
X170886381Y-124825238D01*
X170886381Y-124634761D01*
X170838762Y-124539523D01*
X170791143Y-124491904D01*
X170695905Y-124444285D01*
X170457810Y-124444285D01*
X170362571Y-124491904D01*
X170314952Y-124539523D01*
X170267333Y-124634761D01*
X170267333Y-124825238D01*
X170314952Y-124920476D01*
X170362571Y-124968095D01*
X170457810Y-125015714D01*
X170981619Y-118617928D02*
X170934000Y-118713166D01*
X170838762Y-118808404D01*
X170695905Y-118951261D01*
X170648286Y-119046500D01*
X170648286Y-119141738D01*
X170886381Y-119094119D02*
X170838762Y-119189357D01*
X170743524Y-119284595D01*
X170553048Y-119332214D01*
X170219714Y-119332214D01*
X170029238Y-119284595D01*
X169934000Y-119189357D01*
X169886381Y-119094119D01*
X169886381Y-118903642D01*
X169934000Y-118808404D01*
X170029238Y-118713166D01*
X170219714Y-118665547D01*
X170553048Y-118665547D01*
X170743524Y-118713166D01*
X170838762Y-118808404D01*
X170886381Y-118903642D01*
X170886381Y-119094119D01*
X170886381Y-117713166D02*
X170886381Y-118284595D01*
X170886381Y-117998881D02*
X169886381Y-117998881D01*
X170029238Y-118094119D01*
X170124476Y-118189357D01*
X170172095Y-118284595D01*
X169886381Y-117379833D02*
X169886381Y-116713166D01*
X170886381Y-117141738D01*
X188063119Y-105536928D02*
X188015500Y-105632166D01*
X187920262Y-105727404D01*
X187777405Y-105870261D01*
X187729786Y-105965500D01*
X187729786Y-106060738D01*
X187967881Y-106013119D02*
X187920262Y-106108357D01*
X187825024Y-106203595D01*
X187634548Y-106251214D01*
X187301214Y-106251214D01*
X187110738Y-106203595D01*
X187015500Y-106108357D01*
X186967881Y-106013119D01*
X186967881Y-105822642D01*
X187015500Y-105727404D01*
X187110738Y-105632166D01*
X187301214Y-105584547D01*
X187634548Y-105584547D01*
X187825024Y-105632166D01*
X187920262Y-105727404D01*
X187967881Y-105822642D01*
X187967881Y-106013119D01*
X187967881Y-104632166D02*
X187967881Y-105203595D01*
X187967881Y-104917881D02*
X186967881Y-104917881D01*
X187110738Y-105013119D01*
X187205976Y-105108357D01*
X187253595Y-105203595D01*
X187396452Y-104060738D02*
X187348833Y-104155976D01*
X187301214Y-104203595D01*
X187205976Y-104251214D01*
X187158357Y-104251214D01*
X187063119Y-104203595D01*
X187015500Y-104155976D01*
X186967881Y-104060738D01*
X186967881Y-103870261D01*
X187015500Y-103775023D01*
X187063119Y-103727404D01*
X187158357Y-103679785D01*
X187205976Y-103679785D01*
X187301214Y-103727404D01*
X187348833Y-103775023D01*
X187396452Y-103870261D01*
X187396452Y-104060738D01*
X187444071Y-104155976D01*
X187491690Y-104203595D01*
X187586929Y-104251214D01*
X187777405Y-104251214D01*
X187872643Y-104203595D01*
X187920262Y-104155976D01*
X187967881Y-104060738D01*
X187967881Y-103870261D01*
X187920262Y-103775023D01*
X187872643Y-103727404D01*
X187777405Y-103679785D01*
X187586929Y-103679785D01*
X187491690Y-103727404D01*
X187444071Y-103775023D01*
X187396452Y-103870261D01*
X179768572Y-115355619D02*
X179673334Y-115308000D01*
X179578096Y-115212762D01*
X179435239Y-115069905D01*
X179340000Y-115022286D01*
X179244762Y-115022286D01*
X179292381Y-115260381D02*
X179197143Y-115212762D01*
X179101905Y-115117524D01*
X179054286Y-114927048D01*
X179054286Y-114593714D01*
X179101905Y-114403238D01*
X179197143Y-114308000D01*
X179292381Y-114260381D01*
X179482858Y-114260381D01*
X179578096Y-114308000D01*
X179673334Y-114403238D01*
X179720953Y-114593714D01*
X179720953Y-114927048D01*
X179673334Y-115117524D01*
X179578096Y-115212762D01*
X179482858Y-115260381D01*
X179292381Y-115260381D01*
X180673334Y-115260381D02*
X180101905Y-115260381D01*
X180387619Y-115260381D02*
X180387619Y-114260381D01*
X180292381Y-114403238D01*
X180197143Y-114498476D01*
X180101905Y-114546095D01*
X181149524Y-115260381D02*
X181340000Y-115260381D01*
X181435239Y-115212762D01*
X181482858Y-115165143D01*
X181578096Y-115022286D01*
X181625715Y-114831810D01*
X181625715Y-114450857D01*
X181578096Y-114355619D01*
X181530477Y-114308000D01*
X181435239Y-114260381D01*
X181244762Y-114260381D01*
X181149524Y-114308000D01*
X181101905Y-114355619D01*
X181054286Y-114450857D01*
X181054286Y-114688952D01*
X181101905Y-114784190D01*
X181149524Y-114831810D01*
X181244762Y-114879429D01*
X181435239Y-114879429D01*
X181530477Y-114831810D01*
X181578096Y-114784190D01*
X181625715Y-114688952D01*
X190031619Y-105473428D02*
X189984000Y-105568666D01*
X189888762Y-105663904D01*
X189745905Y-105806761D01*
X189698286Y-105902000D01*
X189698286Y-105997238D01*
X189936381Y-105949619D02*
X189888762Y-106044857D01*
X189793524Y-106140095D01*
X189603048Y-106187714D01*
X189269714Y-106187714D01*
X189079238Y-106140095D01*
X188984000Y-106044857D01*
X188936381Y-105949619D01*
X188936381Y-105759142D01*
X188984000Y-105663904D01*
X189079238Y-105568666D01*
X189269714Y-105521047D01*
X189603048Y-105521047D01*
X189793524Y-105568666D01*
X189888762Y-105663904D01*
X189936381Y-105759142D01*
X189936381Y-105949619D01*
X189031619Y-105140095D02*
X188984000Y-105092476D01*
X188936381Y-104997238D01*
X188936381Y-104759142D01*
X188984000Y-104663904D01*
X189031619Y-104616285D01*
X189126857Y-104568666D01*
X189222095Y-104568666D01*
X189364952Y-104616285D01*
X189936381Y-105187714D01*
X189936381Y-104568666D01*
X188936381Y-103949619D02*
X188936381Y-103854380D01*
X188984000Y-103759142D01*
X189031619Y-103711523D01*
X189126857Y-103663904D01*
X189317333Y-103616285D01*
X189555429Y-103616285D01*
X189745905Y-103663904D01*
X189841143Y-103711523D01*
X189888762Y-103759142D01*
X189936381Y-103854380D01*
X189936381Y-103949619D01*
X189888762Y-104044857D01*
X189841143Y-104092476D01*
X189745905Y-104140095D01*
X189555429Y-104187714D01*
X189317333Y-104187714D01*
X189126857Y-104140095D01*
X189031619Y-104092476D01*
X188984000Y-104044857D01*
X188936381Y-103949619D01*
X179768572Y-126277619D02*
X179673334Y-126230000D01*
X179578096Y-126134762D01*
X179435239Y-125991905D01*
X179340000Y-125944286D01*
X179244762Y-125944286D01*
X179292381Y-126182381D02*
X179197143Y-126134762D01*
X179101905Y-126039524D01*
X179054286Y-125849048D01*
X179054286Y-125515714D01*
X179101905Y-125325238D01*
X179197143Y-125230000D01*
X179292381Y-125182381D01*
X179482858Y-125182381D01*
X179578096Y-125230000D01*
X179673334Y-125325238D01*
X179720953Y-125515714D01*
X179720953Y-125849048D01*
X179673334Y-126039524D01*
X179578096Y-126134762D01*
X179482858Y-126182381D01*
X179292381Y-126182381D01*
X180101905Y-125277619D02*
X180149524Y-125230000D01*
X180244762Y-125182381D01*
X180482858Y-125182381D01*
X180578096Y-125230000D01*
X180625715Y-125277619D01*
X180673334Y-125372857D01*
X180673334Y-125468095D01*
X180625715Y-125610952D01*
X180054286Y-126182381D01*
X180673334Y-126182381D01*
X181625715Y-126182381D02*
X181054286Y-126182381D01*
X181340000Y-126182381D02*
X181340000Y-125182381D01*
X181244762Y-125325238D01*
X181149524Y-125420476D01*
X181054286Y-125468095D01*
X189015619Y-136207428D02*
X188968000Y-136302666D01*
X188872762Y-136397904D01*
X188729905Y-136540761D01*
X188682286Y-136636000D01*
X188682286Y-136731238D01*
X188920381Y-136683619D02*
X188872762Y-136778857D01*
X188777524Y-136874095D01*
X188587048Y-136921714D01*
X188253714Y-136921714D01*
X188063238Y-136874095D01*
X187968000Y-136778857D01*
X187920381Y-136683619D01*
X187920381Y-136493142D01*
X187968000Y-136397904D01*
X188063238Y-136302666D01*
X188253714Y-136255047D01*
X188587048Y-136255047D01*
X188777524Y-136302666D01*
X188872762Y-136397904D01*
X188920381Y-136493142D01*
X188920381Y-136683619D01*
X188015619Y-135874095D02*
X187968000Y-135826476D01*
X187920381Y-135731238D01*
X187920381Y-135493142D01*
X187968000Y-135397904D01*
X188015619Y-135350285D01*
X188110857Y-135302666D01*
X188206095Y-135302666D01*
X188348952Y-135350285D01*
X188920381Y-135921714D01*
X188920381Y-135302666D01*
X188015619Y-134921714D02*
X187968000Y-134874095D01*
X187920381Y-134778857D01*
X187920381Y-134540761D01*
X187968000Y-134445523D01*
X188015619Y-134397904D01*
X188110857Y-134350285D01*
X188206095Y-134350285D01*
X188348952Y-134397904D01*
X188920381Y-134969333D01*
X188920381Y-134350285D01*
X192317619Y-97726428D02*
X192270000Y-97821666D01*
X192174762Y-97916904D01*
X192031905Y-98059761D01*
X191984286Y-98155000D01*
X191984286Y-98250238D01*
X192222381Y-98202619D02*
X192174762Y-98297857D01*
X192079524Y-98393095D01*
X191889048Y-98440714D01*
X191555714Y-98440714D01*
X191365238Y-98393095D01*
X191270000Y-98297857D01*
X191222381Y-98202619D01*
X191222381Y-98012142D01*
X191270000Y-97916904D01*
X191365238Y-97821666D01*
X191555714Y-97774047D01*
X191889048Y-97774047D01*
X192079524Y-97821666D01*
X192174762Y-97916904D01*
X192222381Y-98012142D01*
X192222381Y-98202619D01*
X191317619Y-97393095D02*
X191270000Y-97345476D01*
X191222381Y-97250238D01*
X191222381Y-97012142D01*
X191270000Y-96916904D01*
X191317619Y-96869285D01*
X191412857Y-96821666D01*
X191508095Y-96821666D01*
X191650952Y-96869285D01*
X192222381Y-97440714D01*
X192222381Y-96821666D01*
X191222381Y-96488333D02*
X191222381Y-95869285D01*
X191603333Y-96202619D01*
X191603333Y-96059761D01*
X191650952Y-95964523D01*
X191698571Y-95916904D01*
X191793810Y-95869285D01*
X192031905Y-95869285D01*
X192127143Y-95916904D01*
X192174762Y-95964523D01*
X192222381Y-96059761D01*
X192222381Y-96345476D01*
X192174762Y-96440714D01*
X192127143Y-96488333D01*
X210351619Y-135572428D02*
X210304000Y-135667666D01*
X210208762Y-135762904D01*
X210065905Y-135905761D01*
X210018286Y-136001000D01*
X210018286Y-136096238D01*
X210256381Y-136048619D02*
X210208762Y-136143857D01*
X210113524Y-136239095D01*
X209923048Y-136286714D01*
X209589714Y-136286714D01*
X209399238Y-136239095D01*
X209304000Y-136143857D01*
X209256381Y-136048619D01*
X209256381Y-135858142D01*
X209304000Y-135762904D01*
X209399238Y-135667666D01*
X209589714Y-135620047D01*
X209923048Y-135620047D01*
X210113524Y-135667666D01*
X210208762Y-135762904D01*
X210256381Y-135858142D01*
X210256381Y-136048619D01*
X209351619Y-135239095D02*
X209304000Y-135191476D01*
X209256381Y-135096238D01*
X209256381Y-134858142D01*
X209304000Y-134762904D01*
X209351619Y-134715285D01*
X209446857Y-134667666D01*
X209542095Y-134667666D01*
X209684952Y-134715285D01*
X210256381Y-135286714D01*
X210256381Y-134667666D01*
X209589714Y-133810523D02*
X210256381Y-133810523D01*
X209208762Y-134048619D02*
X209923048Y-134286714D01*
X209923048Y-133667666D01*
X210351619Y-130365428D02*
X210304000Y-130460666D01*
X210208762Y-130555904D01*
X210065905Y-130698761D01*
X210018286Y-130794000D01*
X210018286Y-130889238D01*
X210256381Y-130841619D02*
X210208762Y-130936857D01*
X210113524Y-131032095D01*
X209923048Y-131079714D01*
X209589714Y-131079714D01*
X209399238Y-131032095D01*
X209304000Y-130936857D01*
X209256381Y-130841619D01*
X209256381Y-130651142D01*
X209304000Y-130555904D01*
X209399238Y-130460666D01*
X209589714Y-130413047D01*
X209923048Y-130413047D01*
X210113524Y-130460666D01*
X210208762Y-130555904D01*
X210256381Y-130651142D01*
X210256381Y-130841619D01*
X209351619Y-130032095D02*
X209304000Y-129984476D01*
X209256381Y-129889238D01*
X209256381Y-129651142D01*
X209304000Y-129555904D01*
X209351619Y-129508285D01*
X209446857Y-129460666D01*
X209542095Y-129460666D01*
X209684952Y-129508285D01*
X210256381Y-130079714D01*
X210256381Y-129460666D01*
X209256381Y-128555904D02*
X209256381Y-129032095D01*
X209732571Y-129079714D01*
X209684952Y-129032095D01*
X209637333Y-128936857D01*
X209637333Y-128698761D01*
X209684952Y-128603523D01*
X209732571Y-128555904D01*
X209827810Y-128508285D01*
X210065905Y-128508285D01*
X210161143Y-128555904D01*
X210208762Y-128603523D01*
X210256381Y-128698761D01*
X210256381Y-128936857D01*
X210208762Y-129032095D01*
X210161143Y-129079714D01*
X202628572Y-62777619D02*
X202533334Y-62730000D01*
X202438096Y-62634762D01*
X202295239Y-62491905D01*
X202200000Y-62444286D01*
X202104762Y-62444286D01*
X202152381Y-62682381D02*
X202057143Y-62634762D01*
X201961905Y-62539524D01*
X201914286Y-62349048D01*
X201914286Y-62015714D01*
X201961905Y-61825238D01*
X202057143Y-61730000D01*
X202152381Y-61682381D01*
X202342858Y-61682381D01*
X202438096Y-61730000D01*
X202533334Y-61825238D01*
X202580953Y-62015714D01*
X202580953Y-62349048D01*
X202533334Y-62539524D01*
X202438096Y-62634762D01*
X202342858Y-62682381D01*
X202152381Y-62682381D01*
X202961905Y-61777619D02*
X203009524Y-61730000D01*
X203104762Y-61682381D01*
X203342858Y-61682381D01*
X203438096Y-61730000D01*
X203485715Y-61777619D01*
X203533334Y-61872857D01*
X203533334Y-61968095D01*
X203485715Y-62110952D01*
X202914286Y-62682381D01*
X203533334Y-62682381D01*
X204390477Y-61682381D02*
X204200000Y-61682381D01*
X204104762Y-61730000D01*
X204057143Y-61777619D01*
X203961905Y-61920476D01*
X203914286Y-62110952D01*
X203914286Y-62491905D01*
X203961905Y-62587143D01*
X204009524Y-62634762D01*
X204104762Y-62682381D01*
X204295239Y-62682381D01*
X204390477Y-62634762D01*
X204438096Y-62587143D01*
X204485715Y-62491905D01*
X204485715Y-62253810D01*
X204438096Y-62158571D01*
X204390477Y-62110952D01*
X204295239Y-62063333D01*
X204104762Y-62063333D01*
X204009524Y-62110952D01*
X203961905Y-62158571D01*
X203914286Y-62253810D01*
X202628572Y-55538619D02*
X202533334Y-55491000D01*
X202438096Y-55395762D01*
X202295239Y-55252905D01*
X202200000Y-55205286D01*
X202104762Y-55205286D01*
X202152381Y-55443381D02*
X202057143Y-55395762D01*
X201961905Y-55300524D01*
X201914286Y-55110048D01*
X201914286Y-54776714D01*
X201961905Y-54586238D01*
X202057143Y-54491000D01*
X202152381Y-54443381D01*
X202342858Y-54443381D01*
X202438096Y-54491000D01*
X202533334Y-54586238D01*
X202580953Y-54776714D01*
X202580953Y-55110048D01*
X202533334Y-55300524D01*
X202438096Y-55395762D01*
X202342858Y-55443381D01*
X202152381Y-55443381D01*
X202961905Y-54538619D02*
X203009524Y-54491000D01*
X203104762Y-54443381D01*
X203342858Y-54443381D01*
X203438096Y-54491000D01*
X203485715Y-54538619D01*
X203533334Y-54633857D01*
X203533334Y-54729095D01*
X203485715Y-54871952D01*
X202914286Y-55443381D01*
X203533334Y-55443381D01*
X203866667Y-54443381D02*
X204533334Y-54443381D01*
X204104762Y-55443381D01*
X138152143Y-103536666D02*
X138199762Y-103584285D01*
X138247381Y-103727142D01*
X138247381Y-103822380D01*
X138199762Y-103965238D01*
X138104524Y-104060476D01*
X138009286Y-104108095D01*
X137818810Y-104155714D01*
X137675952Y-104155714D01*
X137485476Y-104108095D01*
X137390238Y-104060476D01*
X137295000Y-103965238D01*
X137247381Y-103822380D01*
X137247381Y-103727142D01*
X137295000Y-103584285D01*
X137342619Y-103536666D01*
X138247381Y-103108095D02*
X137247381Y-103108095D01*
X137247381Y-102727142D01*
X137295000Y-102631904D01*
X137342619Y-102584285D01*
X137437857Y-102536666D01*
X137580714Y-102536666D01*
X137675952Y-102584285D01*
X137723571Y-102631904D01*
X137771190Y-102727142D01*
X137771190Y-103108095D01*
X138247381Y-101584285D02*
X138247381Y-102155714D01*
X138247381Y-101870000D02*
X137247381Y-101870000D01*
X137390238Y-101965238D01*
X137485476Y-102060476D01*
X137533095Y-102155714D01*
X170656334Y-89765143D02*
X170608715Y-89812762D01*
X170465858Y-89860381D01*
X170370620Y-89860381D01*
X170227762Y-89812762D01*
X170132524Y-89717524D01*
X170084905Y-89622286D01*
X170037286Y-89431810D01*
X170037286Y-89288952D01*
X170084905Y-89098476D01*
X170132524Y-89003238D01*
X170227762Y-88908000D01*
X170370620Y-88860381D01*
X170465858Y-88860381D01*
X170608715Y-88908000D01*
X170656334Y-88955619D01*
X171084905Y-89860381D02*
X171084905Y-88860381D01*
X171465858Y-88860381D01*
X171561096Y-88908000D01*
X171608715Y-88955619D01*
X171656334Y-89050857D01*
X171656334Y-89193714D01*
X171608715Y-89288952D01*
X171561096Y-89336571D01*
X171465858Y-89384190D01*
X171084905Y-89384190D01*
X172037286Y-88955619D02*
X172084905Y-88908000D01*
X172180143Y-88860381D01*
X172418239Y-88860381D01*
X172513477Y-88908000D01*
X172561096Y-88955619D01*
X172608715Y-89050857D01*
X172608715Y-89146095D01*
X172561096Y-89288952D01*
X171989667Y-89860381D01*
X172608715Y-89860381D01*
X176331334Y-64259143D02*
X176283715Y-64306762D01*
X176140858Y-64354381D01*
X176045620Y-64354381D01*
X175902762Y-64306762D01*
X175807524Y-64211524D01*
X175759905Y-64116286D01*
X175712286Y-63925810D01*
X175712286Y-63782952D01*
X175759905Y-63592476D01*
X175807524Y-63497238D01*
X175902762Y-63402000D01*
X176045620Y-63354381D01*
X176140858Y-63354381D01*
X176283715Y-63402000D01*
X176331334Y-63449619D01*
X176759905Y-64354381D02*
X176759905Y-63354381D01*
X177140858Y-63354381D01*
X177236096Y-63402000D01*
X177283715Y-63449619D01*
X177331334Y-63544857D01*
X177331334Y-63687714D01*
X177283715Y-63782952D01*
X177236096Y-63830571D01*
X177140858Y-63878190D01*
X176759905Y-63878190D01*
X177664667Y-63354381D02*
X178283715Y-63354381D01*
X177950381Y-63735333D01*
X178093239Y-63735333D01*
X178188477Y-63782952D01*
X178236096Y-63830571D01*
X178283715Y-63925810D01*
X178283715Y-64163905D01*
X178236096Y-64259143D01*
X178188477Y-64306762D01*
X178093239Y-64354381D01*
X177807524Y-64354381D01*
X177712286Y-64306762D01*
X177664667Y-64259143D01*
X176331334Y-74419143D02*
X176283715Y-74466762D01*
X176140858Y-74514381D01*
X176045620Y-74514381D01*
X175902762Y-74466762D01*
X175807524Y-74371524D01*
X175759905Y-74276286D01*
X175712286Y-74085810D01*
X175712286Y-73942952D01*
X175759905Y-73752476D01*
X175807524Y-73657238D01*
X175902762Y-73562000D01*
X176045620Y-73514381D01*
X176140858Y-73514381D01*
X176283715Y-73562000D01*
X176331334Y-73609619D01*
X176759905Y-74514381D02*
X176759905Y-73514381D01*
X177140858Y-73514381D01*
X177236096Y-73562000D01*
X177283715Y-73609619D01*
X177331334Y-73704857D01*
X177331334Y-73847714D01*
X177283715Y-73942952D01*
X177236096Y-73990571D01*
X177140858Y-74038190D01*
X176759905Y-74038190D01*
X178188477Y-73847714D02*
X178188477Y-74514381D01*
X177950381Y-73466762D02*
X177712286Y-74181048D01*
X178331334Y-74181048D01*
X176331334Y-84579143D02*
X176283715Y-84626762D01*
X176140858Y-84674381D01*
X176045620Y-84674381D01*
X175902762Y-84626762D01*
X175807524Y-84531524D01*
X175759905Y-84436286D01*
X175712286Y-84245810D01*
X175712286Y-84102952D01*
X175759905Y-83912476D01*
X175807524Y-83817238D01*
X175902762Y-83722000D01*
X176045620Y-83674381D01*
X176140858Y-83674381D01*
X176283715Y-83722000D01*
X176331334Y-83769619D01*
X176759905Y-84674381D02*
X176759905Y-83674381D01*
X177140858Y-83674381D01*
X177236096Y-83722000D01*
X177283715Y-83769619D01*
X177331334Y-83864857D01*
X177331334Y-84007714D01*
X177283715Y-84102952D01*
X177236096Y-84150571D01*
X177140858Y-84198190D01*
X176759905Y-84198190D01*
X178236096Y-83674381D02*
X177759905Y-83674381D01*
X177712286Y-84150571D01*
X177759905Y-84102952D01*
X177855143Y-84055333D01*
X178093239Y-84055333D01*
X178188477Y-84102952D01*
X178236096Y-84150571D01*
X178283715Y-84245810D01*
X178283715Y-84483905D01*
X178236096Y-84579143D01*
X178188477Y-84626762D01*
X178093239Y-84674381D01*
X177855143Y-84674381D01*
X177759905Y-84626762D01*
X177712286Y-84579143D01*
X187761334Y-64259143D02*
X187713715Y-64306762D01*
X187570858Y-64354381D01*
X187475620Y-64354381D01*
X187332762Y-64306762D01*
X187237524Y-64211524D01*
X187189905Y-64116286D01*
X187142286Y-63925810D01*
X187142286Y-63782952D01*
X187189905Y-63592476D01*
X187237524Y-63497238D01*
X187332762Y-63402000D01*
X187475620Y-63354381D01*
X187570858Y-63354381D01*
X187713715Y-63402000D01*
X187761334Y-63449619D01*
X188189905Y-64354381D02*
X188189905Y-63354381D01*
X188570858Y-63354381D01*
X188666096Y-63402000D01*
X188713715Y-63449619D01*
X188761334Y-63544857D01*
X188761334Y-63687714D01*
X188713715Y-63782952D01*
X188666096Y-63830571D01*
X188570858Y-63878190D01*
X188189905Y-63878190D01*
X189618477Y-63354381D02*
X189428000Y-63354381D01*
X189332762Y-63402000D01*
X189285143Y-63449619D01*
X189189905Y-63592476D01*
X189142286Y-63782952D01*
X189142286Y-64163905D01*
X189189905Y-64259143D01*
X189237524Y-64306762D01*
X189332762Y-64354381D01*
X189523239Y-64354381D01*
X189618477Y-64306762D01*
X189666096Y-64259143D01*
X189713715Y-64163905D01*
X189713715Y-63925810D01*
X189666096Y-63830571D01*
X189618477Y-63782952D01*
X189523239Y-63735333D01*
X189332762Y-63735333D01*
X189237524Y-63782952D01*
X189189905Y-63830571D01*
X189142286Y-63925810D01*
X187761334Y-74419143D02*
X187713715Y-74466762D01*
X187570858Y-74514381D01*
X187475620Y-74514381D01*
X187332762Y-74466762D01*
X187237524Y-74371524D01*
X187189905Y-74276286D01*
X187142286Y-74085810D01*
X187142286Y-73942952D01*
X187189905Y-73752476D01*
X187237524Y-73657238D01*
X187332762Y-73562000D01*
X187475620Y-73514381D01*
X187570858Y-73514381D01*
X187713715Y-73562000D01*
X187761334Y-73609619D01*
X188189905Y-74514381D02*
X188189905Y-73514381D01*
X188570858Y-73514381D01*
X188666096Y-73562000D01*
X188713715Y-73609619D01*
X188761334Y-73704857D01*
X188761334Y-73847714D01*
X188713715Y-73942952D01*
X188666096Y-73990571D01*
X188570858Y-74038190D01*
X188189905Y-74038190D01*
X189094667Y-73514381D02*
X189761334Y-73514381D01*
X189332762Y-74514381D01*
X187761334Y-84579143D02*
X187713715Y-84626762D01*
X187570858Y-84674381D01*
X187475620Y-84674381D01*
X187332762Y-84626762D01*
X187237524Y-84531524D01*
X187189905Y-84436286D01*
X187142286Y-84245810D01*
X187142286Y-84102952D01*
X187189905Y-83912476D01*
X187237524Y-83817238D01*
X187332762Y-83722000D01*
X187475620Y-83674381D01*
X187570858Y-83674381D01*
X187713715Y-83722000D01*
X187761334Y-83769619D01*
X188189905Y-84674381D02*
X188189905Y-83674381D01*
X188570858Y-83674381D01*
X188666096Y-83722000D01*
X188713715Y-83769619D01*
X188761334Y-83864857D01*
X188761334Y-84007714D01*
X188713715Y-84102952D01*
X188666096Y-84150571D01*
X188570858Y-84198190D01*
X188189905Y-84198190D01*
X189332762Y-84102952D02*
X189237524Y-84055333D01*
X189189905Y-84007714D01*
X189142286Y-83912476D01*
X189142286Y-83864857D01*
X189189905Y-83769619D01*
X189237524Y-83722000D01*
X189332762Y-83674381D01*
X189523239Y-83674381D01*
X189618477Y-83722000D01*
X189666096Y-83769619D01*
X189713715Y-83864857D01*
X189713715Y-83912476D01*
X189666096Y-84007714D01*
X189618477Y-84055333D01*
X189523239Y-84102952D01*
X189332762Y-84102952D01*
X189237524Y-84150571D01*
X189189905Y-84198190D01*
X189142286Y-84293429D01*
X189142286Y-84483905D01*
X189189905Y-84579143D01*
X189237524Y-84626762D01*
X189332762Y-84674381D01*
X189523239Y-84674381D01*
X189618477Y-84626762D01*
X189666096Y-84579143D01*
X189713715Y-84483905D01*
X189713715Y-84293429D01*
X189666096Y-84198190D01*
X189618477Y-84150571D01*
X189523239Y-84102952D01*
X199715381Y-113037857D02*
X199239190Y-113371191D01*
X199715381Y-113609286D02*
X198715381Y-113609286D01*
X198715381Y-113228333D01*
X198763000Y-113133095D01*
X198810619Y-113085476D01*
X198905857Y-113037857D01*
X199048714Y-113037857D01*
X199143952Y-113085476D01*
X199191571Y-113133095D01*
X199239190Y-113228333D01*
X199239190Y-113609286D01*
X198810619Y-112656905D02*
X198763000Y-112609286D01*
X198715381Y-112514048D01*
X198715381Y-112275952D01*
X198763000Y-112180714D01*
X198810619Y-112133095D01*
X198905857Y-112085476D01*
X199001095Y-112085476D01*
X199143952Y-112133095D01*
X199715381Y-112704524D01*
X199715381Y-112085476D01*
X198715381Y-111752143D02*
X198715381Y-111133095D01*
X199096333Y-111466429D01*
X199096333Y-111323571D01*
X199143952Y-111228333D01*
X199191571Y-111180714D01*
X199286810Y-111133095D01*
X199524905Y-111133095D01*
X199620143Y-111180714D01*
X199667762Y-111228333D01*
X199715381Y-111323571D01*
X199715381Y-111609286D01*
X199667762Y-111704524D01*
X199620143Y-111752143D01*
X207335381Y-113037857D02*
X206859190Y-113371191D01*
X207335381Y-113609286D02*
X206335381Y-113609286D01*
X206335381Y-113228333D01*
X206383000Y-113133095D01*
X206430619Y-113085476D01*
X206525857Y-113037857D01*
X206668714Y-113037857D01*
X206763952Y-113085476D01*
X206811571Y-113133095D01*
X206859190Y-113228333D01*
X206859190Y-113609286D01*
X206430619Y-112656905D02*
X206383000Y-112609286D01*
X206335381Y-112514048D01*
X206335381Y-112275952D01*
X206383000Y-112180714D01*
X206430619Y-112133095D01*
X206525857Y-112085476D01*
X206621095Y-112085476D01*
X206763952Y-112133095D01*
X207335381Y-112704524D01*
X207335381Y-112085476D01*
X206668714Y-111228333D02*
X207335381Y-111228333D01*
X206287762Y-111466429D02*
X207002048Y-111704524D01*
X207002048Y-111085476D01*
X199715381Y-82811857D02*
X199239190Y-83145191D01*
X199715381Y-83383286D02*
X198715381Y-83383286D01*
X198715381Y-83002333D01*
X198763000Y-82907095D01*
X198810619Y-82859476D01*
X198905857Y-82811857D01*
X199048714Y-82811857D01*
X199143952Y-82859476D01*
X199191571Y-82907095D01*
X199239190Y-83002333D01*
X199239190Y-83383286D01*
X198810619Y-82430905D02*
X198763000Y-82383286D01*
X198715381Y-82288048D01*
X198715381Y-82049952D01*
X198763000Y-81954714D01*
X198810619Y-81907095D01*
X198905857Y-81859476D01*
X199001095Y-81859476D01*
X199143952Y-81907095D01*
X199715381Y-82478524D01*
X199715381Y-81859476D01*
X198715381Y-80954714D02*
X198715381Y-81430905D01*
X199191571Y-81478524D01*
X199143952Y-81430905D01*
X199096333Y-81335667D01*
X199096333Y-81097571D01*
X199143952Y-81002333D01*
X199191571Y-80954714D01*
X199286810Y-80907095D01*
X199524905Y-80907095D01*
X199620143Y-80954714D01*
X199667762Y-81002333D01*
X199715381Y-81097571D01*
X199715381Y-81335667D01*
X199667762Y-81430905D01*
X199620143Y-81478524D01*
X207335381Y-82811857D02*
X206859190Y-83145191D01*
X207335381Y-83383286D02*
X206335381Y-83383286D01*
X206335381Y-83002333D01*
X206383000Y-82907095D01*
X206430619Y-82859476D01*
X206525857Y-82811857D01*
X206668714Y-82811857D01*
X206763952Y-82859476D01*
X206811571Y-82907095D01*
X206859190Y-83002333D01*
X206859190Y-83383286D01*
X206430619Y-82430905D02*
X206383000Y-82383286D01*
X206335381Y-82288048D01*
X206335381Y-82049952D01*
X206383000Y-81954714D01*
X206430619Y-81907095D01*
X206525857Y-81859476D01*
X206621095Y-81859476D01*
X206763952Y-81907095D01*
X207335381Y-82478524D01*
X207335381Y-81859476D01*
X206335381Y-81002333D02*
X206335381Y-81192810D01*
X206383000Y-81288048D01*
X206430619Y-81335667D01*
X206573476Y-81430905D01*
X206763952Y-81478524D01*
X207144905Y-81478524D01*
X207240143Y-81430905D01*
X207287762Y-81383286D01*
X207335381Y-81288048D01*
X207335381Y-81097571D01*
X207287762Y-81002333D01*
X207240143Y-80954714D01*
X207144905Y-80907095D01*
X206906810Y-80907095D01*
X206811571Y-80954714D01*
X206763952Y-81002333D01*
X206716333Y-81097571D01*
X206716333Y-81288048D01*
X206763952Y-81383286D01*
X206811571Y-81430905D01*
X206906810Y-81478524D01*
X122118381Y-92114666D02*
X121642190Y-92448000D01*
X122118381Y-92686095D02*
X121118381Y-92686095D01*
X121118381Y-92305142D01*
X121166000Y-92209904D01*
X121213619Y-92162285D01*
X121308857Y-92114666D01*
X121451714Y-92114666D01*
X121546952Y-92162285D01*
X121594571Y-92209904D01*
X121642190Y-92305142D01*
X121642190Y-92686095D01*
X122118381Y-91162285D02*
X122118381Y-91733714D01*
X122118381Y-91448000D02*
X121118381Y-91448000D01*
X121261238Y-91543238D01*
X121356476Y-91638476D01*
X121404095Y-91733714D01*
X125674381Y-101766666D02*
X125198190Y-102100000D01*
X125674381Y-102338095D02*
X124674381Y-102338095D01*
X124674381Y-101957142D01*
X124722000Y-101861904D01*
X124769619Y-101814285D01*
X124864857Y-101766666D01*
X125007714Y-101766666D01*
X125102952Y-101814285D01*
X125150571Y-101861904D01*
X125198190Y-101957142D01*
X125198190Y-102338095D01*
X124769619Y-101385714D02*
X124722000Y-101338095D01*
X124674381Y-101242857D01*
X124674381Y-101004761D01*
X124722000Y-100909523D01*
X124769619Y-100861904D01*
X124864857Y-100814285D01*
X124960095Y-100814285D01*
X125102952Y-100861904D01*
X125674381Y-101433333D01*
X125674381Y-100814285D01*
X120340381Y-76874666D02*
X119864190Y-77208000D01*
X120340381Y-77446095D02*
X119340381Y-77446095D01*
X119340381Y-77065142D01*
X119388000Y-76969904D01*
X119435619Y-76922285D01*
X119530857Y-76874666D01*
X119673714Y-76874666D01*
X119768952Y-76922285D01*
X119816571Y-76969904D01*
X119864190Y-77065142D01*
X119864190Y-77446095D01*
X119340381Y-76541333D02*
X119340381Y-75922285D01*
X119721333Y-76255619D01*
X119721333Y-76112761D01*
X119768952Y-76017523D01*
X119816571Y-75969904D01*
X119911810Y-75922285D01*
X120149905Y-75922285D01*
X120245143Y-75969904D01*
X120292762Y-76017523D01*
X120340381Y-76112761D01*
X120340381Y-76398476D01*
X120292762Y-76493714D01*
X120245143Y-76541333D01*
X142033334Y-57369381D02*
X141700000Y-56893190D01*
X141461905Y-57369381D02*
X141461905Y-56369381D01*
X141842858Y-56369381D01*
X141938096Y-56417000D01*
X141985715Y-56464619D01*
X142033334Y-56559857D01*
X142033334Y-56702714D01*
X141985715Y-56797952D01*
X141938096Y-56845571D01*
X141842858Y-56893190D01*
X141461905Y-56893190D01*
X142890477Y-56702714D02*
X142890477Y-57369381D01*
X142652381Y-56321762D02*
X142414286Y-57036048D01*
X143033334Y-57036048D01*
X134397381Y-52638666D02*
X133921190Y-52972000D01*
X134397381Y-53210095D02*
X133397381Y-53210095D01*
X133397381Y-52829142D01*
X133445000Y-52733904D01*
X133492619Y-52686285D01*
X133587857Y-52638666D01*
X133730714Y-52638666D01*
X133825952Y-52686285D01*
X133873571Y-52733904D01*
X133921190Y-52829142D01*
X133921190Y-53210095D01*
X133397381Y-51733904D02*
X133397381Y-52210095D01*
X133873571Y-52257714D01*
X133825952Y-52210095D01*
X133778333Y-52114857D01*
X133778333Y-51876761D01*
X133825952Y-51781523D01*
X133873571Y-51733904D01*
X133968810Y-51686285D01*
X134206905Y-51686285D01*
X134302143Y-51733904D01*
X134349762Y-51781523D01*
X134397381Y-51876761D01*
X134397381Y-52114857D01*
X134349762Y-52210095D01*
X134302143Y-52257714D01*
X138842381Y-65338666D02*
X138366190Y-65672000D01*
X138842381Y-65910095D02*
X137842381Y-65910095D01*
X137842381Y-65529142D01*
X137890000Y-65433904D01*
X137937619Y-65386285D01*
X138032857Y-65338666D01*
X138175714Y-65338666D01*
X138270952Y-65386285D01*
X138318571Y-65433904D01*
X138366190Y-65529142D01*
X138366190Y-65910095D01*
X137842381Y-64481523D02*
X137842381Y-64672000D01*
X137890000Y-64767238D01*
X137937619Y-64814857D01*
X138080476Y-64910095D01*
X138270952Y-64957714D01*
X138651905Y-64957714D01*
X138747143Y-64910095D01*
X138794762Y-64862476D01*
X138842381Y-64767238D01*
X138842381Y-64576761D01*
X138794762Y-64481523D01*
X138747143Y-64433904D01*
X138651905Y-64386285D01*
X138413810Y-64386285D01*
X138318571Y-64433904D01*
X138270952Y-64481523D01*
X138223333Y-64576761D01*
X138223333Y-64767238D01*
X138270952Y-64862476D01*
X138318571Y-64910095D01*
X138413810Y-64957714D01*
X150907381Y-56448666D02*
X150431190Y-56782000D01*
X150907381Y-57020095D02*
X149907381Y-57020095D01*
X149907381Y-56639142D01*
X149955000Y-56543904D01*
X150002619Y-56496285D01*
X150097857Y-56448666D01*
X150240714Y-56448666D01*
X150335952Y-56496285D01*
X150383571Y-56543904D01*
X150431190Y-56639142D01*
X150431190Y-57020095D01*
X149907381Y-56115333D02*
X149907381Y-55448666D01*
X150907381Y-55877238D01*
X155987381Y-52638666D02*
X155511190Y-52972000D01*
X155987381Y-53210095D02*
X154987381Y-53210095D01*
X154987381Y-52829142D01*
X155035000Y-52733904D01*
X155082619Y-52686285D01*
X155177857Y-52638666D01*
X155320714Y-52638666D01*
X155415952Y-52686285D01*
X155463571Y-52733904D01*
X155511190Y-52829142D01*
X155511190Y-53210095D01*
X155415952Y-52067238D02*
X155368333Y-52162476D01*
X155320714Y-52210095D01*
X155225476Y-52257714D01*
X155177857Y-52257714D01*
X155082619Y-52210095D01*
X155035000Y-52162476D01*
X154987381Y-52067238D01*
X154987381Y-51876761D01*
X155035000Y-51781523D01*
X155082619Y-51733904D01*
X155177857Y-51686285D01*
X155225476Y-51686285D01*
X155320714Y-51733904D01*
X155368333Y-51781523D01*
X155415952Y-51876761D01*
X155415952Y-52067238D01*
X155463571Y-52162476D01*
X155511190Y-52210095D01*
X155606429Y-52257714D01*
X155796905Y-52257714D01*
X155892143Y-52210095D01*
X155939762Y-52162476D01*
X155987381Y-52067238D01*
X155987381Y-51876761D01*
X155939762Y-51781523D01*
X155892143Y-51733904D01*
X155796905Y-51686285D01*
X155606429Y-51686285D01*
X155511190Y-51733904D01*
X155463571Y-51781523D01*
X155415952Y-51876761D01*
X155987381Y-65973666D02*
X155511190Y-66307000D01*
X155987381Y-66545095D02*
X154987381Y-66545095D01*
X154987381Y-66164142D01*
X155035000Y-66068904D01*
X155082619Y-66021285D01*
X155177857Y-65973666D01*
X155320714Y-65973666D01*
X155415952Y-66021285D01*
X155463571Y-66068904D01*
X155511190Y-66164142D01*
X155511190Y-66545095D01*
X155987381Y-65497476D02*
X155987381Y-65307000D01*
X155939762Y-65211761D01*
X155892143Y-65164142D01*
X155749286Y-65068904D01*
X155558810Y-65021285D01*
X155177857Y-65021285D01*
X155082619Y-65068904D01*
X155035000Y-65116523D01*
X154987381Y-65211761D01*
X154987381Y-65402238D01*
X155035000Y-65497476D01*
X155082619Y-65545095D01*
X155177857Y-65592714D01*
X155415952Y-65592714D01*
X155511190Y-65545095D01*
X155558810Y-65497476D01*
X155606429Y-65402238D01*
X155606429Y-65211761D01*
X155558810Y-65116523D01*
X155511190Y-65068904D01*
X155415952Y-65021285D01*
X168052381Y-56924857D02*
X167576190Y-57258191D01*
X168052381Y-57496286D02*
X167052381Y-57496286D01*
X167052381Y-57115333D01*
X167100000Y-57020095D01*
X167147619Y-56972476D01*
X167242857Y-56924857D01*
X167385714Y-56924857D01*
X167480952Y-56972476D01*
X167528571Y-57020095D01*
X167576190Y-57115333D01*
X167576190Y-57496286D01*
X168052381Y-55972476D02*
X168052381Y-56543905D01*
X168052381Y-56258191D02*
X167052381Y-56258191D01*
X167195238Y-56353429D01*
X167290476Y-56448667D01*
X167338095Y-56543905D01*
X167052381Y-55353429D02*
X167052381Y-55258190D01*
X167100000Y-55162952D01*
X167147619Y-55115333D01*
X167242857Y-55067714D01*
X167433333Y-55020095D01*
X167671429Y-55020095D01*
X167861905Y-55067714D01*
X167957143Y-55115333D01*
X168004762Y-55162952D01*
X168052381Y-55258190D01*
X168052381Y-55353429D01*
X168004762Y-55448667D01*
X167957143Y-55496286D01*
X167861905Y-55543905D01*
X167671429Y-55591524D01*
X167433333Y-55591524D01*
X167242857Y-55543905D01*
X167147619Y-55496286D01*
X167100000Y-55448667D01*
X167052381Y-55353429D01*
X163607381Y-53114857D02*
X163131190Y-53448191D01*
X163607381Y-53686286D02*
X162607381Y-53686286D01*
X162607381Y-53305333D01*
X162655000Y-53210095D01*
X162702619Y-53162476D01*
X162797857Y-53114857D01*
X162940714Y-53114857D01*
X163035952Y-53162476D01*
X163083571Y-53210095D01*
X163131190Y-53305333D01*
X163131190Y-53686286D01*
X163607381Y-52162476D02*
X163607381Y-52733905D01*
X163607381Y-52448191D02*
X162607381Y-52448191D01*
X162750238Y-52543429D01*
X162845476Y-52638667D01*
X162893095Y-52733905D01*
X163607381Y-51210095D02*
X163607381Y-51781524D01*
X163607381Y-51495810D02*
X162607381Y-51495810D01*
X162750238Y-51591048D01*
X162845476Y-51686286D01*
X162893095Y-51781524D01*
X147264381Y-112402857D02*
X146788190Y-112736191D01*
X147264381Y-112974286D02*
X146264381Y-112974286D01*
X146264381Y-112593333D01*
X146312000Y-112498095D01*
X146359619Y-112450476D01*
X146454857Y-112402857D01*
X146597714Y-112402857D01*
X146692952Y-112450476D01*
X146740571Y-112498095D01*
X146788190Y-112593333D01*
X146788190Y-112974286D01*
X147264381Y-111450476D02*
X147264381Y-112021905D01*
X147264381Y-111736191D02*
X146264381Y-111736191D01*
X146407238Y-111831429D01*
X146502476Y-111926667D01*
X146550095Y-112021905D01*
X146359619Y-111069524D02*
X146312000Y-111021905D01*
X146264381Y-110926667D01*
X146264381Y-110688571D01*
X146312000Y-110593333D01*
X146359619Y-110545714D01*
X146454857Y-110498095D01*
X146550095Y-110498095D01*
X146692952Y-110545714D01*
X147264381Y-111117143D01*
X147264381Y-110498095D01*
X143962381Y-112402857D02*
X143486190Y-112736191D01*
X143962381Y-112974286D02*
X142962381Y-112974286D01*
X142962381Y-112593333D01*
X143010000Y-112498095D01*
X143057619Y-112450476D01*
X143152857Y-112402857D01*
X143295714Y-112402857D01*
X143390952Y-112450476D01*
X143438571Y-112498095D01*
X143486190Y-112593333D01*
X143486190Y-112974286D01*
X143962381Y-111450476D02*
X143962381Y-112021905D01*
X143962381Y-111736191D02*
X142962381Y-111736191D01*
X143105238Y-111831429D01*
X143200476Y-111926667D01*
X143248095Y-112021905D01*
X142962381Y-111117143D02*
X142962381Y-110498095D01*
X143343333Y-110831429D01*
X143343333Y-110688571D01*
X143390952Y-110593333D01*
X143438571Y-110545714D01*
X143533810Y-110498095D01*
X143771905Y-110498095D01*
X143867143Y-110545714D01*
X143914762Y-110593333D01*
X143962381Y-110688571D01*
X143962381Y-110974286D01*
X143914762Y-111069524D01*
X143867143Y-111117143D01*
X167330381Y-127896857D02*
X166854190Y-128230191D01*
X167330381Y-128468286D02*
X166330381Y-128468286D01*
X166330381Y-128087333D01*
X166378000Y-127992095D01*
X166425619Y-127944476D01*
X166520857Y-127896857D01*
X166663714Y-127896857D01*
X166758952Y-127944476D01*
X166806571Y-127992095D01*
X166854190Y-128087333D01*
X166854190Y-128468286D01*
X167330381Y-126944476D02*
X167330381Y-127515905D01*
X167330381Y-127230191D02*
X166330381Y-127230191D01*
X166473238Y-127325429D01*
X166568476Y-127420667D01*
X166616095Y-127515905D01*
X166663714Y-126087333D02*
X167330381Y-126087333D01*
X166282762Y-126325429D02*
X166997048Y-126563524D01*
X166997048Y-125944476D01*
X160980381Y-136786857D02*
X160504190Y-137120191D01*
X160980381Y-137358286D02*
X159980381Y-137358286D01*
X159980381Y-136977333D01*
X160028000Y-136882095D01*
X160075619Y-136834476D01*
X160170857Y-136786857D01*
X160313714Y-136786857D01*
X160408952Y-136834476D01*
X160456571Y-136882095D01*
X160504190Y-136977333D01*
X160504190Y-137358286D01*
X160980381Y-135834476D02*
X160980381Y-136405905D01*
X160980381Y-136120191D02*
X159980381Y-136120191D01*
X160123238Y-136215429D01*
X160218476Y-136310667D01*
X160266095Y-136405905D01*
X159980381Y-134929714D02*
X159980381Y-135405905D01*
X160456571Y-135453524D01*
X160408952Y-135405905D01*
X160361333Y-135310667D01*
X160361333Y-135072571D01*
X160408952Y-134977333D01*
X160456571Y-134929714D01*
X160551810Y-134882095D01*
X160789905Y-134882095D01*
X160885143Y-134929714D01*
X160932762Y-134977333D01*
X160980381Y-135072571D01*
X160980381Y-135310667D01*
X160932762Y-135405905D01*
X160885143Y-135453524D01*
X162425143Y-118562381D02*
X162091809Y-118086190D01*
X161853714Y-118562381D02*
X161853714Y-117562381D01*
X162234667Y-117562381D01*
X162329905Y-117610000D01*
X162377524Y-117657619D01*
X162425143Y-117752857D01*
X162425143Y-117895714D01*
X162377524Y-117990952D01*
X162329905Y-118038571D01*
X162234667Y-118086190D01*
X161853714Y-118086190D01*
X163377524Y-118562381D02*
X162806095Y-118562381D01*
X163091809Y-118562381D02*
X163091809Y-117562381D01*
X162996571Y-117705238D01*
X162901333Y-117800476D01*
X162806095Y-117848095D01*
X164234667Y-117562381D02*
X164044190Y-117562381D01*
X163948952Y-117610000D01*
X163901333Y-117657619D01*
X163806095Y-117800476D01*
X163758476Y-117990952D01*
X163758476Y-118371905D01*
X163806095Y-118467143D01*
X163853714Y-118514762D01*
X163948952Y-118562381D01*
X164139429Y-118562381D01*
X164234667Y-118514762D01*
X164282286Y-118467143D01*
X164329905Y-118371905D01*
X164329905Y-118133810D01*
X164282286Y-118038571D01*
X164234667Y-117990952D01*
X164139429Y-117943333D01*
X163948952Y-117943333D01*
X163853714Y-117990952D01*
X163806095Y-118038571D01*
X163758476Y-118133810D01*
X179443143Y-137612381D02*
X179109809Y-137136190D01*
X178871714Y-137612381D02*
X178871714Y-136612381D01*
X179252667Y-136612381D01*
X179347905Y-136660000D01*
X179395524Y-136707619D01*
X179443143Y-136802857D01*
X179443143Y-136945714D01*
X179395524Y-137040952D01*
X179347905Y-137088571D01*
X179252667Y-137136190D01*
X178871714Y-137136190D01*
X180395524Y-137612381D02*
X179824095Y-137612381D01*
X180109809Y-137612381D02*
X180109809Y-136612381D01*
X180014571Y-136755238D01*
X179919333Y-136850476D01*
X179824095Y-136898095D01*
X180728857Y-136612381D02*
X181395524Y-136612381D01*
X180966952Y-137612381D01*
X171394381Y-136786857D02*
X170918190Y-137120191D01*
X171394381Y-137358286D02*
X170394381Y-137358286D01*
X170394381Y-136977333D01*
X170442000Y-136882095D01*
X170489619Y-136834476D01*
X170584857Y-136786857D01*
X170727714Y-136786857D01*
X170822952Y-136834476D01*
X170870571Y-136882095D01*
X170918190Y-136977333D01*
X170918190Y-137358286D01*
X171394381Y-135834476D02*
X171394381Y-136405905D01*
X171394381Y-136120191D02*
X170394381Y-136120191D01*
X170537238Y-136215429D01*
X170632476Y-136310667D01*
X170680095Y-136405905D01*
X170822952Y-135263048D02*
X170775333Y-135358286D01*
X170727714Y-135405905D01*
X170632476Y-135453524D01*
X170584857Y-135453524D01*
X170489619Y-135405905D01*
X170442000Y-135358286D01*
X170394381Y-135263048D01*
X170394381Y-135072571D01*
X170442000Y-134977333D01*
X170489619Y-134929714D01*
X170584857Y-134882095D01*
X170632476Y-134882095D01*
X170727714Y-134929714D01*
X170775333Y-134977333D01*
X170822952Y-135072571D01*
X170822952Y-135263048D01*
X170870571Y-135358286D01*
X170918190Y-135405905D01*
X171013429Y-135453524D01*
X171203905Y-135453524D01*
X171299143Y-135405905D01*
X171346762Y-135358286D01*
X171394381Y-135263048D01*
X171394381Y-135072571D01*
X171346762Y-134977333D01*
X171299143Y-134929714D01*
X171203905Y-134882095D01*
X171013429Y-134882095D01*
X170918190Y-134929714D01*
X170870571Y-134977333D01*
X170822952Y-135072571D01*
X180792381Y-102242857D02*
X180316190Y-102576191D01*
X180792381Y-102814286D02*
X179792381Y-102814286D01*
X179792381Y-102433333D01*
X179840000Y-102338095D01*
X179887619Y-102290476D01*
X179982857Y-102242857D01*
X180125714Y-102242857D01*
X180220952Y-102290476D01*
X180268571Y-102338095D01*
X180316190Y-102433333D01*
X180316190Y-102814286D01*
X180792381Y-101290476D02*
X180792381Y-101861905D01*
X180792381Y-101576191D02*
X179792381Y-101576191D01*
X179935238Y-101671429D01*
X180030476Y-101766667D01*
X180078095Y-101861905D01*
X180792381Y-100814286D02*
X180792381Y-100623810D01*
X180744762Y-100528571D01*
X180697143Y-100480952D01*
X180554286Y-100385714D01*
X180363810Y-100338095D01*
X179982857Y-100338095D01*
X179887619Y-100385714D01*
X179840000Y-100433333D01*
X179792381Y-100528571D01*
X179792381Y-100719048D01*
X179840000Y-100814286D01*
X179887619Y-100861905D01*
X179982857Y-100909524D01*
X180220952Y-100909524D01*
X180316190Y-100861905D01*
X180363810Y-100814286D01*
X180411429Y-100719048D01*
X180411429Y-100528571D01*
X180363810Y-100433333D01*
X180316190Y-100385714D01*
X180220952Y-100338095D01*
X190698381Y-118498857D02*
X190222190Y-118832191D01*
X190698381Y-119070286D02*
X189698381Y-119070286D01*
X189698381Y-118689333D01*
X189746000Y-118594095D01*
X189793619Y-118546476D01*
X189888857Y-118498857D01*
X190031714Y-118498857D01*
X190126952Y-118546476D01*
X190174571Y-118594095D01*
X190222190Y-118689333D01*
X190222190Y-119070286D01*
X189793619Y-118117905D02*
X189746000Y-118070286D01*
X189698381Y-117975048D01*
X189698381Y-117736952D01*
X189746000Y-117641714D01*
X189793619Y-117594095D01*
X189888857Y-117546476D01*
X189984095Y-117546476D01*
X190126952Y-117594095D01*
X190698381Y-118165524D01*
X190698381Y-117546476D01*
X189698381Y-116927429D02*
X189698381Y-116832190D01*
X189746000Y-116736952D01*
X189793619Y-116689333D01*
X189888857Y-116641714D01*
X190079333Y-116594095D01*
X190317429Y-116594095D01*
X190507905Y-116641714D01*
X190603143Y-116689333D01*
X190650762Y-116736952D01*
X190698381Y-116832190D01*
X190698381Y-116927429D01*
X190650762Y-117022667D01*
X190603143Y-117070286D01*
X190507905Y-117117905D01*
X190317429Y-117165524D01*
X190079333Y-117165524D01*
X189888857Y-117117905D01*
X189793619Y-117070286D01*
X189746000Y-117022667D01*
X189698381Y-116927429D01*
X186634381Y-118498857D02*
X186158190Y-118832191D01*
X186634381Y-119070286D02*
X185634381Y-119070286D01*
X185634381Y-118689333D01*
X185682000Y-118594095D01*
X185729619Y-118546476D01*
X185824857Y-118498857D01*
X185967714Y-118498857D01*
X186062952Y-118546476D01*
X186110571Y-118594095D01*
X186158190Y-118689333D01*
X186158190Y-119070286D01*
X185729619Y-118117905D02*
X185682000Y-118070286D01*
X185634381Y-117975048D01*
X185634381Y-117736952D01*
X185682000Y-117641714D01*
X185729619Y-117594095D01*
X185824857Y-117546476D01*
X185920095Y-117546476D01*
X186062952Y-117594095D01*
X186634381Y-118165524D01*
X186634381Y-117546476D01*
X186634381Y-116594095D02*
X186634381Y-117165524D01*
X186634381Y-116879810D02*
X185634381Y-116879810D01*
X185777238Y-116975048D01*
X185872476Y-117070286D01*
X185920095Y-117165524D01*
X196032381Y-131198857D02*
X195556190Y-131532191D01*
X196032381Y-131770286D02*
X195032381Y-131770286D01*
X195032381Y-131389333D01*
X195080000Y-131294095D01*
X195127619Y-131246476D01*
X195222857Y-131198857D01*
X195365714Y-131198857D01*
X195460952Y-131246476D01*
X195508571Y-131294095D01*
X195556190Y-131389333D01*
X195556190Y-131770286D01*
X195127619Y-130817905D02*
X195080000Y-130770286D01*
X195032381Y-130675048D01*
X195032381Y-130436952D01*
X195080000Y-130341714D01*
X195127619Y-130294095D01*
X195222857Y-130246476D01*
X195318095Y-130246476D01*
X195460952Y-130294095D01*
X196032381Y-130865524D01*
X196032381Y-130246476D01*
X195127619Y-129865524D02*
X195080000Y-129817905D01*
X195032381Y-129722667D01*
X195032381Y-129484571D01*
X195080000Y-129389333D01*
X195127619Y-129341714D01*
X195222857Y-129294095D01*
X195318095Y-129294095D01*
X195460952Y-129341714D01*
X196032381Y-129913143D01*
X196032381Y-129294095D01*
X141311334Y-89765143D02*
X141263715Y-89812762D01*
X141120858Y-89860381D01*
X141025620Y-89860381D01*
X140882762Y-89812762D01*
X140787524Y-89717524D01*
X140739905Y-89622286D01*
X140692286Y-89431810D01*
X140692286Y-89288952D01*
X140739905Y-89098476D01*
X140787524Y-89003238D01*
X140882762Y-88908000D01*
X141025620Y-88860381D01*
X141120858Y-88860381D01*
X141263715Y-88908000D01*
X141311334Y-88955619D01*
X142263715Y-89860381D02*
X141692286Y-89860381D01*
X141978000Y-89860381D02*
X141978000Y-88860381D01*
X141882762Y-89003238D01*
X141787524Y-89098476D01*
X141692286Y-89146095D01*
X124682143Y-80229381D02*
X124682143Y-79229381D01*
X125063096Y-79229381D01*
X125158334Y-79277000D01*
X125205953Y-79324619D01*
X125253572Y-79419857D01*
X125253572Y-79562714D01*
X125205953Y-79657952D01*
X125158334Y-79705571D01*
X125063096Y-79753190D01*
X124682143Y-79753190D01*
X125872619Y-79229381D02*
X126063096Y-79229381D01*
X126158334Y-79277000D01*
X126253572Y-79372238D01*
X126301191Y-79562714D01*
X126301191Y-79896048D01*
X126253572Y-80086524D01*
X126158334Y-80181762D01*
X126063096Y-80229381D01*
X125872619Y-80229381D01*
X125777381Y-80181762D01*
X125682143Y-80086524D01*
X125634524Y-79896048D01*
X125634524Y-79562714D01*
X125682143Y-79372238D01*
X125777381Y-79277000D01*
X125872619Y-79229381D01*
X126586905Y-79229381D02*
X127158334Y-79229381D01*
X126872619Y-80229381D02*
X126872619Y-79229381D01*
X128015477Y-80229381D02*
X127444048Y-80229381D01*
X127729762Y-80229381D02*
X127729762Y-79229381D01*
X127634524Y-79372238D01*
X127539286Y-79467476D01*
X127444048Y-79515095D01*
X140557143Y-80229381D02*
X140557143Y-79229381D01*
X140938096Y-79229381D01*
X141033334Y-79277000D01*
X141080953Y-79324619D01*
X141128572Y-79419857D01*
X141128572Y-79562714D01*
X141080953Y-79657952D01*
X141033334Y-79705571D01*
X140938096Y-79753190D01*
X140557143Y-79753190D01*
X141747619Y-79229381D02*
X141938096Y-79229381D01*
X142033334Y-79277000D01*
X142128572Y-79372238D01*
X142176191Y-79562714D01*
X142176191Y-79896048D01*
X142128572Y-80086524D01*
X142033334Y-80181762D01*
X141938096Y-80229381D01*
X141747619Y-80229381D01*
X141652381Y-80181762D01*
X141557143Y-80086524D01*
X141509524Y-79896048D01*
X141509524Y-79562714D01*
X141557143Y-79372238D01*
X141652381Y-79277000D01*
X141747619Y-79229381D01*
X142461905Y-79229381D02*
X143033334Y-79229381D01*
X142747619Y-80229381D02*
X142747619Y-79229381D01*
X143319048Y-79324619D02*
X143366667Y-79277000D01*
X143461905Y-79229381D01*
X143700001Y-79229381D01*
X143795239Y-79277000D01*
X143842858Y-79324619D01*
X143890477Y-79419857D01*
X143890477Y-79515095D01*
X143842858Y-79657952D01*
X143271429Y-80229381D01*
X143890477Y-80229381D01*
X157702143Y-81499381D02*
X157702143Y-80499381D01*
X158083096Y-80499381D01*
X158178334Y-80547000D01*
X158225953Y-80594619D01*
X158273572Y-80689857D01*
X158273572Y-80832714D01*
X158225953Y-80927952D01*
X158178334Y-80975571D01*
X158083096Y-81023190D01*
X157702143Y-81023190D01*
X158892619Y-80499381D02*
X159083096Y-80499381D01*
X159178334Y-80547000D01*
X159273572Y-80642238D01*
X159321191Y-80832714D01*
X159321191Y-81166048D01*
X159273572Y-81356524D01*
X159178334Y-81451762D01*
X159083096Y-81499381D01*
X158892619Y-81499381D01*
X158797381Y-81451762D01*
X158702143Y-81356524D01*
X158654524Y-81166048D01*
X158654524Y-80832714D01*
X158702143Y-80642238D01*
X158797381Y-80547000D01*
X158892619Y-80499381D01*
X159606905Y-80499381D02*
X160178334Y-80499381D01*
X159892619Y-81499381D02*
X159892619Y-80499381D01*
X160416429Y-80499381D02*
X161035477Y-80499381D01*
X160702143Y-80880333D01*
X160845001Y-80880333D01*
X160940239Y-80927952D01*
X160987858Y-80975571D01*
X161035477Y-81070810D01*
X161035477Y-81308905D01*
X160987858Y-81404143D01*
X160940239Y-81451762D01*
X160845001Y-81499381D01*
X160559286Y-81499381D01*
X160464048Y-81451762D01*
X160416429Y-81404143D01*
X151265143Y-115133381D02*
X151265143Y-114133381D01*
X151646096Y-114133381D01*
X151741334Y-114181000D01*
X151788953Y-114228619D01*
X151836572Y-114323857D01*
X151836572Y-114466714D01*
X151788953Y-114561952D01*
X151741334Y-114609571D01*
X151646096Y-114657190D01*
X151265143Y-114657190D01*
X152455619Y-114133381D02*
X152646096Y-114133381D01*
X152741334Y-114181000D01*
X152836572Y-114276238D01*
X152884191Y-114466714D01*
X152884191Y-114800048D01*
X152836572Y-114990524D01*
X152741334Y-115085762D01*
X152646096Y-115133381D01*
X152455619Y-115133381D01*
X152360381Y-115085762D01*
X152265143Y-114990524D01*
X152217524Y-114800048D01*
X152217524Y-114466714D01*
X152265143Y-114276238D01*
X152360381Y-114181000D01*
X152455619Y-114133381D01*
X153169905Y-114133381D02*
X153741334Y-114133381D01*
X153455619Y-115133381D02*
X153455619Y-114133381D01*
X154503239Y-114466714D02*
X154503239Y-115133381D01*
X154265143Y-114085762D02*
X154027048Y-114800048D01*
X154646096Y-114800048D01*
M02*
