M48
;DRILL file {KiCad 4.0.1-stable} date 05/03/17 04:52:42
;FORMAT={-:-/ absolute / metric / decimal}
FMAT,2
METRIC,TZ
T1C0.600
T2C0.700
T3C0.900
T4C1.000
T5C1.100
T6C1.600
T7C2.300
T8C2.700
T9C3.200
T10C3.400
T11C9.200
%
G90
G05
M71
T1
X49.53Y-57.15
X53.34Y-127.
X54.61Y-83.82
X59.69Y-62.865
X60.325Y-147.32
X64.135Y-117.475
X64.135Y-140.335
X64.135Y-142.24
X67.945Y-141.605
X68.58Y-70.485
X74.295Y-127.635
X74.295Y-134.62
X79.375Y-137.16
X79.375Y-139.7
X79.375Y-142.24
X79.375Y-144.78
X80.645Y-116.84
X81.28Y-86.995
X83.185Y-111.76
X83.185Y-116.84
X83.185Y-143.51
X86.995Y-86.36
X86.995Y-126.365
X87.63Y-175.26
X88.265Y-134.62
X88.9Y-104.14
X89.535Y-81.28
X90.805Y-142.24
X90.805Y-166.37
X93.345Y-163.83
X93.345Y-166.37
X95.885Y-130.81
X95.885Y-163.83
X96.52Y-99.06
X96.52Y-111.76
X98.425Y-146.05
X99.06Y-73.025
X99.695Y-79.375
X103.505Y-128.27
X103.505Y-130.81
X104.14Y-93.345
X104.775Y-125.095
X106.045Y-89.535
X106.045Y-99.06
X106.045Y-104.14
X106.045Y-120.65
X106.68Y-158.115
X106.68Y-179.07
X107.95Y-57.15
X107.95Y-130.81
X107.95Y-155.575
X108.585Y-93.345
X109.855Y-166.37
X110.49Y-169.545
X112.395Y-163.83
X112.395Y-166.37
X114.935Y-57.15
X114.935Y-71.755
X114.935Y-163.83
X116.205Y-90.17
X116.205Y-111.76
X117.475Y-70.485
X117.475Y-169.545
X118.11Y-111.76
X119.38Y-106.68
X119.38Y-113.03
X119.38Y-115.57
X120.015Y-74.295
X120.015Y-166.37
X121.285Y-50.8
X122.555Y-163.83
X123.825Y-71.755
X123.825Y-73.025
X123.825Y-104.14
X124.46Y-80.645
X125.095Y-120.015
X125.095Y-166.37
X127.635Y-163.83
X128.905Y-75.565
X128.905Y-85.09
X129.54Y-54.61
X129.54Y-82.55
X129.54Y-100.33
X130.81Y-99.06
X132.08Y-54.61
X132.08Y-68.58
X132.08Y-76.2
X133.35Y-95.38
X133.35Y-106.68
X133.985Y-65.405
X134.112Y-90.17
X134.874Y-99.822
X136.525Y-54.61
X137.795Y-74.295
X139.065Y-104.14
X140.335Y-52.705
X142.875Y-50.8
X143.51Y-158.115
X146.685Y-51.435
X146.685Y-54.61
X146.685Y-81.28
X153.035Y-49.53
X154.94Y-139.7
X156.845Y-55.88
X156.845Y-131.445
X160.02Y-120.015
X160.655Y-113.665
X163.195Y-76.835
X165.735Y-66.675
T2
X23.495Y-159.385
X23.495Y-161.925
X23.495Y-164.465
X28.575Y-89.535
X28.575Y-153.035
X28.655Y-161.925
X31.115Y-89.535
X31.115Y-153.035
X33.655Y-161.925
X40.085Y-169.545
X43.815Y-41.275
X45.085Y-169.545
X46.355Y-41.275
X46.355Y-45.085
X48.895Y-41.275
X48.895Y-45.085
X50.165Y-161.925
X50.165Y-164.465
X50.165Y-167.005
X50.165Y-172.085
X50.165Y-174.625
X50.165Y-177.165
X51.435Y-41.275
X51.435Y-45.085
X53.975Y-41.275
X55.245Y-94.615
X55.245Y-104.775
X55.245Y-169.545
X56.515Y-41.275
X56.515Y-89.535
X56.515Y-92.075
X56.515Y-150.495
X56.515Y-153.035
X56.515Y-155.575
X57.785Y-94.615
X57.785Y-104.775
X58.42Y-48.26
X58.42Y-50.8
X58.42Y-53.34
X59.055Y-41.275
X59.055Y-89.535
X59.055Y-92.075
X59.055Y-150.495
X59.055Y-153.035
X60.245Y-169.545
X60.325Y-94.615
X60.325Y-104.775
X61.595Y-41.275
X61.595Y-89.535
X61.595Y-92.075
X61.595Y-150.495
X61.595Y-153.035
X61.595Y-175.26
X62.865Y-46.99
X62.865Y-54.61
X62.865Y-94.615
X62.865Y-104.775
X64.135Y-41.275
X64.135Y-89.535
X64.135Y-92.075
X64.135Y-150.495
X64.135Y-153.035
X65.405Y-46.99
X65.405Y-54.61
X66.675Y-41.275
X66.675Y-89.535
X66.675Y-92.075
X66.675Y-150.495
X66.675Y-153.035
X66.675Y-155.575
X66.675Y-172.085
X67.945Y-46.99
X67.945Y-54.61
X69.215Y-41.275
X69.215Y-89.535
X69.215Y-92.075
X69.215Y-150.495
X69.215Y-153.035
X69.215Y-161.925
X69.215Y-166.925
X69.215Y-172.085
X70.485Y-46.99
X70.485Y-54.61
X71.755Y-41.275
X71.755Y-89.535
X71.755Y-92.075
X71.755Y-150.495
X71.755Y-153.035
X71.755Y-172.085
X71.755Y-175.26
X73.025Y-46.99
X73.025Y-54.61
X74.295Y-41.275
X74.295Y-89.535
X74.295Y-92.075
X74.295Y-150.495
X74.295Y-153.035
X75.565Y-46.99
X75.565Y-54.61
X76.835Y-41.275
X76.835Y-89.535
X76.835Y-92.075
X76.835Y-150.495
X76.835Y-153.035
X78.105Y-46.99
X78.105Y-54.61
X79.375Y-41.275
X79.375Y-89.535
X79.375Y-92.075
X79.375Y-94.615
X79.375Y-104.775
X79.375Y-150.495
X79.375Y-153.035
X79.375Y-158.115
X79.375Y-165.1
X79.375Y-180.34
X81.915Y-41.275
X81.915Y-46.99
X81.915Y-89.535
X81.915Y-92.075
X81.915Y-150.495
X81.915Y-153.035
X81.915Y-158.115
X81.915Y-165.1
X81.915Y-180.34
X84.455Y-46.99
X84.455Y-51.435
X84.455Y-61.595
X84.455Y-89.535
X84.455Y-92.075
X84.455Y-150.495
X84.455Y-153.035
X84.455Y-158.115
X84.455Y-165.1
X84.455Y-180.34
X86.995Y-46.99
X86.995Y-89.535
X86.995Y-92.075
X86.995Y-150.495
X86.995Y-153.035
X86.995Y-165.1
X86.995Y-180.34
X89.535Y-89.535
X89.535Y-92.075
X89.535Y-150.495
X89.535Y-153.035
X89.535Y-165.1
X89.535Y-180.34
X92.075Y-89.535
X92.075Y-92.075
X92.075Y-150.495
X92.075Y-153.035
X92.075Y-158.115
X92.075Y-165.1
X92.075Y-180.34
X94.615Y-89.535
X94.615Y-92.075
X94.615Y-94.615
X94.615Y-104.775
X94.615Y-150.495
X94.615Y-153.035
X94.615Y-158.115
X94.615Y-165.1
X94.615Y-180.34
X97.155Y-89.535
X97.155Y-92.075
X97.155Y-117.475
X97.155Y-122.555
X97.155Y-127.635
X97.155Y-150.495
X97.155Y-153.035
X97.155Y-158.115
X97.155Y-165.1
X97.155Y-180.34
X98.425Y-94.615
X98.425Y-104.775
X99.695Y-89.535
X99.695Y-92.075
X99.695Y-147.955
X99.695Y-150.495
X99.695Y-153.035
X99.695Y-155.575
X99.695Y-165.1
X99.695Y-180.34
X100.33Y-120.015
X100.33Y-122.555
X100.33Y-125.095
X102.235Y-89.535
X102.235Y-92.075
X102.235Y-150.495
X102.235Y-153.035
X102.235Y-165.1
X102.235Y-180.34
X105.41Y-150.495
X105.41Y-153.035
X109.855Y-147.955
X109.855Y-155.575
X111.125Y-158.115
X111.125Y-165.1
X111.125Y-180.34
X113.665Y-43.18
X113.665Y-45.72
X113.665Y-48.26
X113.665Y-50.8
X113.665Y-53.34
X113.665Y-55.88
X113.665Y-58.42
X113.665Y-60.96
X113.665Y-63.5
X113.665Y-158.115
X113.665Y-165.1
X113.665Y-180.34
X114.935Y-67.945
X115.57Y-150.495
X115.57Y-153.035
X116.205Y-158.115
X116.205Y-165.1
X116.205Y-180.34
X117.475Y-67.945
X118.11Y-88.9
X118.11Y-93.9
X118.745Y-165.1
X118.745Y-180.34
X120.015Y-67.945
X121.285Y-43.18
X121.285Y-45.72
X121.285Y-48.26
X121.285Y-53.34
X121.285Y-55.88
X121.285Y-58.42
X121.285Y-60.96
X121.285Y-63.5
X121.285Y-165.1
X121.285Y-180.34
X123.825Y-158.115
X123.825Y-165.1
X123.825Y-180.34
X124.46Y-48.26
X124.46Y-50.8
X124.46Y-58.42
X124.46Y-60.96
X125.095Y-99.06
X125.098Y-88.901
X126.365Y-26.67
X126.365Y-29.21
X126.365Y-31.75
X126.365Y-34.29
X126.365Y-38.735
X126.365Y-43.815
X126.365Y-158.115
X126.365Y-165.1
X126.365Y-180.34
X127.Y-48.26
X127.Y-50.8
X127.Y-58.42
X127.Y-60.96
X127.635Y-65.485
X127.635Y-70.485
X127.635Y-90.17
X127.635Y-100.33
X128.27Y-78.74
X128.27Y-81.28
X128.905Y-38.735
X128.905Y-43.815
X128.905Y-158.115
X128.905Y-165.1
X128.905Y-180.34
X129.54Y-48.26
X129.54Y-50.8
X129.54Y-58.42
X129.54Y-60.96
X130.81Y-101.6
X131.445Y-38.735
X131.445Y-43.815
X131.445Y-165.1
X131.445Y-180.34
X133.35Y-104.14
X133.982Y-69.214
X133.985Y-38.735
X133.985Y-41.275
X133.985Y-43.815
X133.985Y-46.355
X133.985Y-48.895
X133.985Y-56.515
X133.985Y-59.055
X133.985Y-165.1
X133.985Y-180.34
X134.62Y-75.565
X136.525Y-26.67
X136.525Y-29.21
X136.525Y-31.75
X136.525Y-34.29
X136.525Y-48.895
X136.525Y-56.515
X136.525Y-59.055
X136.525Y-69.215
X137.16Y-78.232
X137.16Y-85.09
X139.065Y-48.895
X139.065Y-56.515
X139.065Y-59.055
X139.065Y-69.215
X139.7Y-75.565
X139.7Y-116.205
X139.7Y-118.745
X139.7Y-121.285
X139.7Y-123.825
X139.7Y-155.575
X139.7Y-165.735
X140.97Y-101.6
X140.97Y-127.635
X141.605Y-48.895
X141.605Y-56.515
X141.605Y-59.055
X141.605Y-61.595
X142.875Y-72.39
X142.875Y-82.55
X143.51Y-104.14
X143.51Y-127.635
X144.145Y-38.735
X144.145Y-41.275
X144.145Y-43.815
X144.145Y-46.355
X144.145Y-48.895
X144.145Y-56.515
X144.78Y-66.04
X144.78Y-68.58
X145.415Y-163.195
X145.415Y-165.735
X146.05Y-127.635
X146.685Y-48.895
X146.685Y-56.515
X147.32Y-74.93
X147.32Y-85.09
X147.32Y-116.205
X147.32Y-118.745
X147.32Y-121.285
X147.32Y-123.825
X148.59Y-41.275
X149.225Y-48.895
X149.225Y-56.515
X149.86Y-74.93
X150.495Y-82.55
X150.495Y-85.09
X150.495Y-87.63
X150.495Y-90.17
X150.495Y-92.71
X150.495Y-95.25
X150.495Y-97.79
X150.495Y-100.33
X150.495Y-113.665
X150.495Y-116.205
X150.495Y-118.745
X150.495Y-121.285
X150.495Y-123.825
X150.495Y-126.365
X150.495Y-128.905
X150.495Y-134.62
X150.495Y-137.16
X150.495Y-139.7
X150.495Y-142.24
X150.495Y-144.78
X150.495Y-147.32
X150.495Y-149.86
X150.495Y-152.4
X151.13Y-41.275
X151.765Y-59.055
X151.765Y-61.595
X151.765Y-64.77
X151.765Y-67.31
X151.765Y-69.85
X151.765Y-104.775
X151.765Y-109.22
X151.765Y-156.845
X153.032Y-56.514
X153.035Y-46.355
X154.305Y-104.775
X154.305Y-109.22
X154.305Y-156.845
X154.305Y-163.195
X154.305Y-165.735
X155.575Y-64.77
X155.575Y-67.31
X155.575Y-69.85
X155.575Y-72.39
X156.21Y-52.07
X156.845Y-104.775
X156.845Y-109.22
X156.845Y-156.845
X158.115Y-43.815
X158.115Y-46.355
X158.115Y-58.42
X158.115Y-82.55
X158.115Y-85.09
X158.115Y-87.63
X158.115Y-90.17
X158.115Y-92.71
X158.115Y-95.25
X158.115Y-97.79
X158.115Y-100.33
X158.115Y-113.665
X158.115Y-116.205
X158.115Y-118.745
X158.115Y-121.285
X158.115Y-123.825
X158.115Y-126.365
X158.115Y-128.905
X158.115Y-134.62
X158.115Y-137.16
X158.115Y-139.7
X158.115Y-142.24
X158.115Y-144.78
X158.115Y-147.32
X158.115Y-149.86
X158.115Y-152.4
X158.75Y-52.07
X160.02Y-26.67
X160.02Y-29.21
X160.02Y-35.56
X160.02Y-38.1
X160.655Y-58.42
X160.655Y-95.25
X160.655Y-105.41
X160.655Y-137.16
X160.655Y-147.32
X161.29Y-52.07
X161.925Y-155.575
X161.925Y-165.735
X163.195Y-64.77
X163.195Y-67.31
X163.195Y-69.85
X163.195Y-72.39
X164.465Y-43.815
X164.465Y-53.975
T3
X55.88Y-179.07
X58.42Y-179.07
X105.41Y-168.91
X105.41Y-177.165
X107.95Y-168.91
X107.95Y-177.165
X140.335Y-172.72
X140.335Y-177.8
X145.415Y-172.72
X145.415Y-177.8
X154.305Y-172.72
X154.305Y-177.8
X158.115Y-75.565
X158.115Y-78.105
X159.385Y-172.72
X159.385Y-177.8
X163.195Y-82.55
X163.195Y-88.9
X163.195Y-95.25
X163.195Y-101.6
X163.195Y-107.95
X163.195Y-114.3
X163.195Y-120.65
X163.195Y-127.
X163.195Y-133.35
X163.195Y-139.7
X163.195Y-146.05
X163.195Y-152.4
X165.735Y-82.55
X165.735Y-88.9
X165.735Y-95.25
X165.735Y-101.6
X165.735Y-107.95
X165.735Y-114.3
X165.735Y-120.65
X165.735Y-127.
X165.735Y-133.35
X165.735Y-139.7
X165.735Y-146.05
X165.735Y-152.4
T4
X128.27Y-142.24
X128.27Y-144.78
X128.27Y-147.32
X128.27Y-149.86
X128.27Y-152.4
X147.32Y-100.33
X147.32Y-102.87
X147.32Y-105.41
X147.32Y-107.95
X147.32Y-110.49
X165.735Y-159.385
X165.735Y-161.925
X165.735Y-168.275
X165.735Y-170.815
T5
X40.005Y-161.925
X42.545Y-161.925
X45.085Y-161.925
X55.245Y-161.925
X57.785Y-161.925
X60.325Y-161.925
X97.155Y-34.29
X98.425Y-31.496
X99.695Y-34.29
X100.965Y-31.496
X102.235Y-34.29
X103.505Y-31.496
X104.775Y-34.29
X106.045Y-31.496
X107.315Y-34.29
X130.81Y-90.17
X130.81Y-95.25
X146.05Y-90.17
X146.05Y-92.71
X146.05Y-95.25
T6
X140.97Y-24.13
X140.97Y-29.845
X140.97Y-35.56
X143.51Y-26.67
X143.51Y-31.75
X151.13Y-24.13
X151.13Y-29.845
X151.13Y-35.56
X153.67Y-26.67
X153.67Y-31.75
T7
X138.43Y-87.63
X138.43Y-97.79
T8
X27.305Y-171.45
X31.115Y-175.895
T9
X33.655Y-171.45
X89.916Y-32.893
X114.554Y-32.893
T10
X21.59Y-24.13
X21.59Y-180.34
X37.465Y-41.275
X37.465Y-81.28
X107.315Y-41.275
X107.315Y-81.28
X167.64Y-24.13
X167.64Y-180.34
T11
X117.475Y-122.555
T0
M30
