G04 #@! TF.FileFunction,Legend,Top*
%FSLAX46Y46*%
G04 Gerber Fmt 4.6, Leading zero omitted, Abs format (unit mm)*
G04 Created by KiCad (PCBNEW 4.0.1-stable) date 05/03/17 04:52:38*
%MOMM*%
G01*
G04 APERTURE LIST*
%ADD10C,0.100000*%
%ADD11C,0.300000*%
%ADD12C,0.150000*%
G04 APERTURE END LIST*
D10*
D11*
X40383572Y-24877143D02*
X40597858Y-24948571D01*
X40955001Y-24948571D01*
X41097858Y-24877143D01*
X41169287Y-24805714D01*
X41240715Y-24662857D01*
X41240715Y-24520000D01*
X41169287Y-24377143D01*
X41097858Y-24305714D01*
X40955001Y-24234286D01*
X40669287Y-24162857D01*
X40526429Y-24091429D01*
X40455001Y-24020000D01*
X40383572Y-23877143D01*
X40383572Y-23734286D01*
X40455001Y-23591429D01*
X40526429Y-23520000D01*
X40669287Y-23448571D01*
X41026429Y-23448571D01*
X41240715Y-23520000D01*
X41883572Y-24948571D02*
X41883572Y-23948571D01*
X41883572Y-23448571D02*
X41812143Y-23520000D01*
X41883572Y-23591429D01*
X41955000Y-23520000D01*
X41883572Y-23448571D01*
X41883572Y-23591429D01*
X42597858Y-23948571D02*
X42597858Y-24948571D01*
X42597858Y-24091429D02*
X42669286Y-24020000D01*
X42812144Y-23948571D01*
X43026429Y-23948571D01*
X43169286Y-24020000D01*
X43240715Y-24162857D01*
X43240715Y-24948571D01*
X44597858Y-23948571D02*
X44597858Y-25162857D01*
X44526429Y-25305714D01*
X44455001Y-25377143D01*
X44312144Y-25448571D01*
X44097858Y-25448571D01*
X43955001Y-25377143D01*
X44597858Y-24877143D02*
X44455001Y-24948571D01*
X44169287Y-24948571D01*
X44026429Y-24877143D01*
X43955001Y-24805714D01*
X43883572Y-24662857D01*
X43883572Y-24234286D01*
X43955001Y-24091429D01*
X44026429Y-24020000D01*
X44169287Y-23948571D01*
X44455001Y-23948571D01*
X44597858Y-24020000D01*
X45955001Y-24948571D02*
X45955001Y-24162857D01*
X45883572Y-24020000D01*
X45740715Y-23948571D01*
X45455001Y-23948571D01*
X45312144Y-24020000D01*
X45955001Y-24877143D02*
X45812144Y-24948571D01*
X45455001Y-24948571D01*
X45312144Y-24877143D01*
X45240715Y-24734286D01*
X45240715Y-24591429D01*
X45312144Y-24448571D01*
X45455001Y-24377143D01*
X45812144Y-24377143D01*
X45955001Y-24305714D01*
X46669287Y-23948571D02*
X46669287Y-25448571D01*
X46669287Y-24020000D02*
X46812144Y-23948571D01*
X47097858Y-23948571D01*
X47240715Y-24020000D01*
X47312144Y-24091429D01*
X47383573Y-24234286D01*
X47383573Y-24662857D01*
X47312144Y-24805714D01*
X47240715Y-24877143D01*
X47097858Y-24948571D01*
X46812144Y-24948571D01*
X46669287Y-24877143D01*
X48240716Y-24948571D02*
X48097858Y-24877143D01*
X48026430Y-24805714D01*
X47955001Y-24662857D01*
X47955001Y-24234286D01*
X48026430Y-24091429D01*
X48097858Y-24020000D01*
X48240716Y-23948571D01*
X48455001Y-23948571D01*
X48597858Y-24020000D01*
X48669287Y-24091429D01*
X48740716Y-24234286D01*
X48740716Y-24662857D01*
X48669287Y-24805714D01*
X48597858Y-24877143D01*
X48455001Y-24948571D01*
X48240716Y-24948571D01*
X49383573Y-24948571D02*
X49383573Y-23948571D01*
X49383573Y-24234286D02*
X49455001Y-24091429D01*
X49526430Y-24020000D01*
X49669287Y-23948571D01*
X49812144Y-23948571D01*
X50883572Y-24877143D02*
X50740715Y-24948571D01*
X50455001Y-24948571D01*
X50312144Y-24877143D01*
X50240715Y-24734286D01*
X50240715Y-24162857D01*
X50312144Y-24020000D01*
X50455001Y-23948571D01*
X50740715Y-23948571D01*
X50883572Y-24020000D01*
X50955001Y-24162857D01*
X50955001Y-24305714D01*
X50240715Y-24448571D01*
X52740715Y-24948571D02*
X52740715Y-23448571D01*
X53312143Y-23448571D01*
X53455001Y-23520000D01*
X53526429Y-23591429D01*
X53597858Y-23734286D01*
X53597858Y-23948571D01*
X53526429Y-24091429D01*
X53455001Y-24162857D01*
X53312143Y-24234286D01*
X52740715Y-24234286D01*
X54455001Y-24948571D02*
X54312143Y-24877143D01*
X54240715Y-24805714D01*
X54169286Y-24662857D01*
X54169286Y-24234286D01*
X54240715Y-24091429D01*
X54312143Y-24020000D01*
X54455001Y-23948571D01*
X54669286Y-23948571D01*
X54812143Y-24020000D01*
X54883572Y-24091429D01*
X54955001Y-24234286D01*
X54955001Y-24662857D01*
X54883572Y-24805714D01*
X54812143Y-24877143D01*
X54669286Y-24948571D01*
X54455001Y-24948571D01*
X55812144Y-24948571D02*
X55669286Y-24877143D01*
X55597858Y-24734286D01*
X55597858Y-23448571D01*
X56240715Y-23948571D02*
X56597858Y-24948571D01*
X56955000Y-23948571D02*
X56597858Y-24948571D01*
X56455000Y-25305714D01*
X56383572Y-25377143D01*
X56240715Y-25448571D01*
X57312143Y-23948571D02*
X57883572Y-23948571D01*
X57526429Y-23448571D02*
X57526429Y-24734286D01*
X57597857Y-24877143D01*
X57740715Y-24948571D01*
X57883572Y-24948571D01*
X58955000Y-24877143D02*
X58812143Y-24948571D01*
X58526429Y-24948571D01*
X58383572Y-24877143D01*
X58312143Y-24734286D01*
X58312143Y-24162857D01*
X58383572Y-24020000D01*
X58526429Y-23948571D01*
X58812143Y-23948571D01*
X58955000Y-24020000D01*
X59026429Y-24162857D01*
X59026429Y-24305714D01*
X58312143Y-24448571D01*
X60312143Y-24877143D02*
X60169286Y-24948571D01*
X59883572Y-24948571D01*
X59740714Y-24877143D01*
X59669286Y-24805714D01*
X59597857Y-24662857D01*
X59597857Y-24234286D01*
X59669286Y-24091429D01*
X59740714Y-24020000D01*
X59883572Y-23948571D01*
X60169286Y-23948571D01*
X60312143Y-24020000D01*
X60955000Y-24948571D02*
X60955000Y-23448571D01*
X61597857Y-24948571D02*
X61597857Y-24162857D01*
X61526428Y-24020000D01*
X61383571Y-23948571D01*
X61169286Y-23948571D01*
X61026428Y-24020000D01*
X60955000Y-24091429D01*
X62312143Y-23948571D02*
X62312143Y-24948571D01*
X62312143Y-24091429D02*
X62383571Y-24020000D01*
X62526429Y-23948571D01*
X62740714Y-23948571D01*
X62883571Y-24020000D01*
X62955000Y-24162857D01*
X62955000Y-24948571D01*
X63669286Y-24948571D02*
X63669286Y-23948571D01*
X63669286Y-23448571D02*
X63597857Y-23520000D01*
X63669286Y-23591429D01*
X63740714Y-23520000D01*
X63669286Y-23448571D01*
X63669286Y-23591429D01*
X65026429Y-24877143D02*
X64883572Y-24948571D01*
X64597858Y-24948571D01*
X64455000Y-24877143D01*
X64383572Y-24805714D01*
X64312143Y-24662857D01*
X64312143Y-24234286D01*
X64383572Y-24091429D01*
X64455000Y-24020000D01*
X64597858Y-23948571D01*
X64883572Y-23948571D01*
X65026429Y-24020000D01*
X31740716Y-27277143D02*
X31955002Y-27348571D01*
X32312145Y-27348571D01*
X32455002Y-27277143D01*
X32526431Y-27205714D01*
X32597859Y-27062857D01*
X32597859Y-26920000D01*
X32526431Y-26777143D01*
X32455002Y-26705714D01*
X32312145Y-26634286D01*
X32026431Y-26562857D01*
X31883573Y-26491429D01*
X31812145Y-26420000D01*
X31740716Y-26277143D01*
X31740716Y-26134286D01*
X31812145Y-25991429D01*
X31883573Y-25920000D01*
X32026431Y-25848571D01*
X32383573Y-25848571D01*
X32597859Y-25920000D01*
X33026430Y-25848571D02*
X33883573Y-25848571D01*
X33455002Y-27348571D02*
X33455002Y-25848571D01*
X34383573Y-27348571D02*
X34383573Y-25848571D01*
X34883573Y-26920000D01*
X35383573Y-25848571D01*
X35383573Y-27348571D01*
X35955002Y-25848571D02*
X36883573Y-25848571D01*
X36383573Y-26420000D01*
X36597859Y-26420000D01*
X36740716Y-26491429D01*
X36812145Y-26562857D01*
X36883573Y-26705714D01*
X36883573Y-27062857D01*
X36812145Y-27205714D01*
X36740716Y-27277143D01*
X36597859Y-27348571D01*
X36169287Y-27348571D01*
X36026430Y-27277143D01*
X35955002Y-27205714D01*
X37455001Y-25991429D02*
X37526430Y-25920000D01*
X37669287Y-25848571D01*
X38026430Y-25848571D01*
X38169287Y-25920000D01*
X38240716Y-25991429D01*
X38312144Y-26134286D01*
X38312144Y-26277143D01*
X38240716Y-26491429D01*
X37383573Y-27348571D01*
X38312144Y-27348571D01*
X39669287Y-27348571D02*
X38955001Y-27348571D01*
X38955001Y-25848571D01*
X40455001Y-25848571D02*
X40597858Y-25848571D01*
X40740715Y-25920000D01*
X40812144Y-25991429D01*
X40883573Y-26134286D01*
X40955001Y-26420000D01*
X40955001Y-26777143D01*
X40883573Y-27062857D01*
X40812144Y-27205714D01*
X40740715Y-27277143D01*
X40597858Y-27348571D01*
X40455001Y-27348571D01*
X40312144Y-27277143D01*
X40240715Y-27205714D01*
X40169287Y-27062857D01*
X40097858Y-26777143D01*
X40097858Y-26420000D01*
X40169287Y-26134286D01*
X40240715Y-25991429D01*
X40312144Y-25920000D01*
X40455001Y-25848571D01*
X42312144Y-25848571D02*
X41597858Y-25848571D01*
X41526429Y-26562857D01*
X41597858Y-26491429D01*
X41740715Y-26420000D01*
X42097858Y-26420000D01*
X42240715Y-26491429D01*
X42312144Y-26562857D01*
X42383572Y-26705714D01*
X42383572Y-27062857D01*
X42312144Y-27205714D01*
X42240715Y-27277143D01*
X42097858Y-27348571D01*
X41740715Y-27348571D01*
X41597858Y-27277143D01*
X41526429Y-27205714D01*
X42883572Y-25848571D02*
X43812143Y-25848571D01*
X43312143Y-26420000D01*
X43526429Y-26420000D01*
X43669286Y-26491429D01*
X43740715Y-26562857D01*
X43812143Y-26705714D01*
X43812143Y-27062857D01*
X43740715Y-27205714D01*
X43669286Y-27277143D01*
X43526429Y-27348571D01*
X43097857Y-27348571D01*
X42955000Y-27277143D01*
X42883572Y-27205714D01*
X45312143Y-27348571D02*
X44812143Y-26634286D01*
X44455000Y-27348571D02*
X44455000Y-25848571D01*
X45026428Y-25848571D01*
X45169286Y-25920000D01*
X45240714Y-25991429D01*
X45312143Y-26134286D01*
X45312143Y-26348571D01*
X45240714Y-26491429D01*
X45169286Y-26562857D01*
X45026428Y-26634286D01*
X44455000Y-26634286D01*
X46169286Y-26491429D02*
X46026428Y-26420000D01*
X45955000Y-26348571D01*
X45883571Y-26205714D01*
X45883571Y-26134286D01*
X45955000Y-25991429D01*
X46026428Y-25920000D01*
X46169286Y-25848571D01*
X46455000Y-25848571D01*
X46597857Y-25920000D01*
X46669286Y-25991429D01*
X46740714Y-26134286D01*
X46740714Y-26205714D01*
X46669286Y-26348571D01*
X46597857Y-26420000D01*
X46455000Y-26491429D01*
X46169286Y-26491429D01*
X46026428Y-26562857D01*
X45955000Y-26634286D01*
X45883571Y-26777143D01*
X45883571Y-27062857D01*
X45955000Y-27205714D01*
X46026428Y-27277143D01*
X46169286Y-27348571D01*
X46455000Y-27348571D01*
X46597857Y-27277143D01*
X46669286Y-27205714D01*
X46740714Y-27062857D01*
X46740714Y-26777143D01*
X46669286Y-26634286D01*
X46597857Y-26562857D01*
X46455000Y-26491429D01*
X47169285Y-25848571D02*
X48026428Y-25848571D01*
X47597857Y-27348571D02*
X47597857Y-25848571D01*
X49169285Y-25848571D02*
X48883571Y-25848571D01*
X48740714Y-25920000D01*
X48669285Y-25991429D01*
X48526428Y-26205714D01*
X48454999Y-26491429D01*
X48454999Y-27062857D01*
X48526428Y-27205714D01*
X48597856Y-27277143D01*
X48740714Y-27348571D01*
X49026428Y-27348571D01*
X49169285Y-27277143D01*
X49240714Y-27205714D01*
X49312142Y-27062857D01*
X49312142Y-26705714D01*
X49240714Y-26562857D01*
X49169285Y-26491429D01*
X49026428Y-26420000D01*
X48740714Y-26420000D01*
X48597856Y-26491429D01*
X48526428Y-26562857D01*
X48454999Y-26705714D01*
X51954999Y-27205714D02*
X51883570Y-27277143D01*
X51669284Y-27348571D01*
X51526427Y-27348571D01*
X51312142Y-27277143D01*
X51169284Y-27134286D01*
X51097856Y-26991429D01*
X51026427Y-26705714D01*
X51026427Y-26491429D01*
X51097856Y-26205714D01*
X51169284Y-26062857D01*
X51312142Y-25920000D01*
X51526427Y-25848571D01*
X51669284Y-25848571D01*
X51883570Y-25920000D01*
X51954999Y-25991429D01*
X53240713Y-26348571D02*
X53240713Y-27348571D01*
X52597856Y-26348571D02*
X52597856Y-27134286D01*
X52669284Y-27277143D01*
X52812142Y-27348571D01*
X53026427Y-27348571D01*
X53169284Y-27277143D01*
X53240713Y-27205714D01*
X53883570Y-27277143D02*
X54026427Y-27348571D01*
X54312142Y-27348571D01*
X54454999Y-27277143D01*
X54526427Y-27134286D01*
X54526427Y-27062857D01*
X54454999Y-26920000D01*
X54312142Y-26848571D01*
X54097856Y-26848571D01*
X53954999Y-26777143D01*
X53883570Y-26634286D01*
X53883570Y-26562857D01*
X53954999Y-26420000D01*
X54097856Y-26348571D01*
X54312142Y-26348571D01*
X54454999Y-26420000D01*
X54954999Y-26348571D02*
X55526428Y-26348571D01*
X55169285Y-25848571D02*
X55169285Y-27134286D01*
X55240713Y-27277143D01*
X55383571Y-27348571D01*
X55526428Y-27348571D01*
X56240714Y-27348571D02*
X56097856Y-27277143D01*
X56026428Y-27205714D01*
X55954999Y-27062857D01*
X55954999Y-26634286D01*
X56026428Y-26491429D01*
X56097856Y-26420000D01*
X56240714Y-26348571D01*
X56454999Y-26348571D01*
X56597856Y-26420000D01*
X56669285Y-26491429D01*
X56740714Y-26634286D01*
X56740714Y-27062857D01*
X56669285Y-27205714D01*
X56597856Y-27277143D01*
X56454999Y-27348571D01*
X56240714Y-27348571D01*
X57383571Y-27348571D02*
X57383571Y-26348571D01*
X57383571Y-26491429D02*
X57454999Y-26420000D01*
X57597857Y-26348571D01*
X57812142Y-26348571D01*
X57954999Y-26420000D01*
X58026428Y-26562857D01*
X58026428Y-27348571D01*
X58026428Y-26562857D02*
X58097857Y-26420000D01*
X58240714Y-26348571D01*
X58454999Y-26348571D01*
X58597857Y-26420000D01*
X58669285Y-26562857D01*
X58669285Y-27348571D01*
X60526428Y-27348571D02*
X60526428Y-25848571D01*
X60883571Y-25848571D01*
X61097856Y-25920000D01*
X61240714Y-26062857D01*
X61312142Y-26205714D01*
X61383571Y-26491429D01*
X61383571Y-26705714D01*
X61312142Y-26991429D01*
X61240714Y-27134286D01*
X61097856Y-27277143D01*
X60883571Y-27348571D01*
X60526428Y-27348571D01*
X62597856Y-27277143D02*
X62454999Y-27348571D01*
X62169285Y-27348571D01*
X62026428Y-27277143D01*
X61954999Y-27134286D01*
X61954999Y-26562857D01*
X62026428Y-26420000D01*
X62169285Y-26348571D01*
X62454999Y-26348571D01*
X62597856Y-26420000D01*
X62669285Y-26562857D01*
X62669285Y-26705714D01*
X61954999Y-26848571D01*
X63312142Y-27348571D02*
X63312142Y-26348571D01*
X63312142Y-26491429D02*
X63383570Y-26420000D01*
X63526428Y-26348571D01*
X63740713Y-26348571D01*
X63883570Y-26420000D01*
X63954999Y-26562857D01*
X63954999Y-27348571D01*
X63954999Y-26562857D02*
X64026428Y-26420000D01*
X64169285Y-26348571D01*
X64383570Y-26348571D01*
X64526428Y-26420000D01*
X64597856Y-26562857D01*
X64597856Y-27348571D01*
X65526428Y-27348571D02*
X65383570Y-27277143D01*
X65312142Y-27205714D01*
X65240713Y-27062857D01*
X65240713Y-26634286D01*
X65312142Y-26491429D01*
X65383570Y-26420000D01*
X65526428Y-26348571D01*
X65740713Y-26348571D01*
X65883570Y-26420000D01*
X65954999Y-26491429D01*
X66026428Y-26634286D01*
X66026428Y-27062857D01*
X65954999Y-27205714D01*
X65883570Y-27277143D01*
X65740713Y-27348571D01*
X65526428Y-27348571D01*
X68312142Y-26562857D02*
X68526428Y-26634286D01*
X68597856Y-26705714D01*
X68669285Y-26848571D01*
X68669285Y-27062857D01*
X68597856Y-27205714D01*
X68526428Y-27277143D01*
X68383570Y-27348571D01*
X67812142Y-27348571D01*
X67812142Y-25848571D01*
X68312142Y-25848571D01*
X68454999Y-25920000D01*
X68526428Y-25991429D01*
X68597856Y-26134286D01*
X68597856Y-26277143D01*
X68526428Y-26420000D01*
X68454999Y-26491429D01*
X68312142Y-26562857D01*
X67812142Y-26562857D01*
X69526428Y-27348571D02*
X69383570Y-27277143D01*
X69312142Y-27205714D01*
X69240713Y-27062857D01*
X69240713Y-26634286D01*
X69312142Y-26491429D01*
X69383570Y-26420000D01*
X69526428Y-26348571D01*
X69740713Y-26348571D01*
X69883570Y-26420000D01*
X69954999Y-26491429D01*
X70026428Y-26634286D01*
X70026428Y-27062857D01*
X69954999Y-27205714D01*
X69883570Y-27277143D01*
X69740713Y-27348571D01*
X69526428Y-27348571D01*
X70669285Y-27348571D02*
X70669285Y-26348571D01*
X70669285Y-26634286D02*
X70740713Y-26491429D01*
X70812142Y-26420000D01*
X70954999Y-26348571D01*
X71097856Y-26348571D01*
X72240713Y-27348571D02*
X72240713Y-26562857D01*
X72169284Y-26420000D01*
X72026427Y-26348571D01*
X71740713Y-26348571D01*
X71597856Y-26420000D01*
X72240713Y-27277143D02*
X72097856Y-27348571D01*
X71740713Y-27348571D01*
X71597856Y-27277143D01*
X71526427Y-27134286D01*
X71526427Y-26991429D01*
X71597856Y-26848571D01*
X71740713Y-26777143D01*
X72097856Y-26777143D01*
X72240713Y-26705714D01*
X73597856Y-27348571D02*
X73597856Y-25848571D01*
X73597856Y-27277143D02*
X73454999Y-27348571D01*
X73169285Y-27348571D01*
X73026427Y-27277143D01*
X72954999Y-27205714D01*
X72883570Y-27062857D01*
X72883570Y-26634286D01*
X72954999Y-26491429D01*
X73026427Y-26420000D01*
X73169285Y-26348571D01*
X73454999Y-26348571D01*
X73597856Y-26420000D01*
X28526430Y-29748571D02*
X28526430Y-28248571D01*
X29026430Y-29320000D01*
X29526430Y-28248571D01*
X29526430Y-29748571D01*
X30883573Y-29748571D02*
X30883573Y-28962857D01*
X30812144Y-28820000D01*
X30669287Y-28748571D01*
X30383573Y-28748571D01*
X30240716Y-28820000D01*
X30883573Y-29677143D02*
X30740716Y-29748571D01*
X30383573Y-29748571D01*
X30240716Y-29677143D01*
X30169287Y-29534286D01*
X30169287Y-29391429D01*
X30240716Y-29248571D01*
X30383573Y-29177143D01*
X30740716Y-29177143D01*
X30883573Y-29105714D01*
X32240716Y-29748571D02*
X32240716Y-28248571D01*
X32240716Y-29677143D02*
X32097859Y-29748571D01*
X31812145Y-29748571D01*
X31669287Y-29677143D01*
X31597859Y-29605714D01*
X31526430Y-29462857D01*
X31526430Y-29034286D01*
X31597859Y-28891429D01*
X31669287Y-28820000D01*
X31812145Y-28748571D01*
X32097859Y-28748571D01*
X32240716Y-28820000D01*
X33526430Y-29677143D02*
X33383573Y-29748571D01*
X33097859Y-29748571D01*
X32955002Y-29677143D01*
X32883573Y-29534286D01*
X32883573Y-28962857D01*
X32955002Y-28820000D01*
X33097859Y-28748571D01*
X33383573Y-28748571D01*
X33526430Y-28820000D01*
X33597859Y-28962857D01*
X33597859Y-29105714D01*
X32883573Y-29248571D01*
X35383573Y-29748571D02*
X35383573Y-28248571D01*
X35383573Y-28820000D02*
X35526430Y-28748571D01*
X35812144Y-28748571D01*
X35955001Y-28820000D01*
X36026430Y-28891429D01*
X36097859Y-29034286D01*
X36097859Y-29462857D01*
X36026430Y-29605714D01*
X35955001Y-29677143D01*
X35812144Y-29748571D01*
X35526430Y-29748571D01*
X35383573Y-29677143D01*
X36597859Y-28748571D02*
X36955002Y-29748571D01*
X37312144Y-28748571D02*
X36955002Y-29748571D01*
X36812144Y-30105714D01*
X36740716Y-30177143D01*
X36597859Y-30248571D01*
X37883573Y-29605714D02*
X37955001Y-29677143D01*
X37883573Y-29748571D01*
X37812144Y-29677143D01*
X37883573Y-29605714D01*
X37883573Y-29748571D01*
X37883573Y-28820000D02*
X37955001Y-28891429D01*
X37883573Y-28962857D01*
X37812144Y-28891429D01*
X37883573Y-28820000D01*
X37883573Y-28962857D01*
X40455002Y-29748571D02*
X39740716Y-29748571D01*
X39740716Y-28248571D01*
X40955002Y-29748571D02*
X40955002Y-28748571D01*
X40955002Y-28248571D02*
X40883573Y-28320000D01*
X40955002Y-28391429D01*
X41026430Y-28320000D01*
X40955002Y-28248571D01*
X40955002Y-28391429D01*
X41669288Y-29748571D02*
X41669288Y-28748571D01*
X41669288Y-28891429D02*
X41740716Y-28820000D01*
X41883574Y-28748571D01*
X42097859Y-28748571D01*
X42240716Y-28820000D01*
X42312145Y-28962857D01*
X42312145Y-29748571D01*
X42312145Y-28962857D02*
X42383574Y-28820000D01*
X42526431Y-28748571D01*
X42740716Y-28748571D01*
X42883574Y-28820000D01*
X42955002Y-28962857D01*
X42955002Y-29748571D01*
X44669288Y-28248571D02*
X45026431Y-29748571D01*
X45312145Y-28677143D01*
X45597859Y-29748571D01*
X45955002Y-28248571D01*
X47097859Y-29677143D02*
X46955002Y-29748571D01*
X46669288Y-29748571D01*
X46526431Y-29677143D01*
X46455002Y-29534286D01*
X46455002Y-28962857D01*
X46526431Y-28820000D01*
X46669288Y-28748571D01*
X46955002Y-28748571D01*
X47097859Y-28820000D01*
X47169288Y-28962857D01*
X47169288Y-29105714D01*
X46455002Y-29248571D01*
X47812145Y-29748571D02*
X47812145Y-28748571D01*
X47812145Y-28248571D02*
X47740716Y-28320000D01*
X47812145Y-28391429D01*
X47883573Y-28320000D01*
X47812145Y-28248571D01*
X47812145Y-28391429D01*
X49669288Y-29748571D02*
X49669288Y-28248571D01*
X50526431Y-29748571D02*
X49883574Y-28891429D01*
X50526431Y-28248571D02*
X49669288Y-29105714D01*
X51812145Y-29748571D02*
X51812145Y-28962857D01*
X51740716Y-28820000D01*
X51597859Y-28748571D01*
X51312145Y-28748571D01*
X51169288Y-28820000D01*
X51812145Y-29677143D02*
X51669288Y-29748571D01*
X51312145Y-29748571D01*
X51169288Y-29677143D01*
X51097859Y-29534286D01*
X51097859Y-29391429D01*
X51169288Y-29248571D01*
X51312145Y-29177143D01*
X51669288Y-29177143D01*
X51812145Y-29105714D01*
X52526431Y-28748571D02*
X52526431Y-29748571D01*
X52526431Y-28891429D02*
X52597859Y-28820000D01*
X52740717Y-28748571D01*
X52955002Y-28748571D01*
X53097859Y-28820000D01*
X53169288Y-28962857D01*
X53169288Y-29748571D01*
X54526431Y-28748571D02*
X54526431Y-29962857D01*
X54455002Y-30105714D01*
X54383574Y-30177143D01*
X54240717Y-30248571D01*
X54026431Y-30248571D01*
X53883574Y-30177143D01*
X54526431Y-29677143D02*
X54383574Y-29748571D01*
X54097860Y-29748571D01*
X53955002Y-29677143D01*
X53883574Y-29605714D01*
X53812145Y-29462857D01*
X53812145Y-29034286D01*
X53883574Y-28891429D01*
X53955002Y-28820000D01*
X54097860Y-28748571D01*
X54383574Y-28748571D01*
X54526431Y-28820000D01*
X56383574Y-29748571D02*
X56383574Y-28248571D01*
X56740717Y-28248571D01*
X56955002Y-28320000D01*
X57097860Y-28462857D01*
X57169288Y-28605714D01*
X57240717Y-28891429D01*
X57240717Y-29105714D01*
X57169288Y-29391429D01*
X57097860Y-29534286D01*
X56955002Y-29677143D01*
X56740717Y-29748571D01*
X56383574Y-29748571D01*
X57740717Y-28748571D02*
X58097860Y-29748571D01*
X58455002Y-28748571D02*
X58097860Y-29748571D01*
X57955002Y-30105714D01*
X57883574Y-30177143D01*
X57740717Y-30248571D01*
X59240717Y-29748571D02*
X59097859Y-29677143D01*
X59026431Y-29534286D01*
X59026431Y-28248571D01*
X60455002Y-29748571D02*
X60455002Y-28962857D01*
X60383573Y-28820000D01*
X60240716Y-28748571D01*
X59955002Y-28748571D01*
X59812145Y-28820000D01*
X60455002Y-29677143D02*
X60312145Y-29748571D01*
X59955002Y-29748571D01*
X59812145Y-29677143D01*
X59740716Y-29534286D01*
X59740716Y-29391429D01*
X59812145Y-29248571D01*
X59955002Y-29177143D01*
X60312145Y-29177143D01*
X60455002Y-29105714D01*
X61169288Y-28748571D02*
X61169288Y-29748571D01*
X61169288Y-28891429D02*
X61240716Y-28820000D01*
X61383574Y-28748571D01*
X61597859Y-28748571D01*
X61740716Y-28820000D01*
X61812145Y-28962857D01*
X61812145Y-29748571D01*
X64097859Y-30320000D02*
X64026431Y-30248571D01*
X63883574Y-30034286D01*
X63812145Y-29891429D01*
X63740716Y-29677143D01*
X63669288Y-29320000D01*
X63669288Y-29034286D01*
X63740716Y-28677143D01*
X63812145Y-28462857D01*
X63883574Y-28320000D01*
X64026431Y-28105714D01*
X64097859Y-28034286D01*
X64597859Y-29320000D02*
X65312145Y-29320000D01*
X64455002Y-29748571D02*
X64955002Y-28248571D01*
X65455002Y-29748571D01*
X65955002Y-28748571D02*
X65955002Y-30248571D01*
X65955002Y-28820000D02*
X66097859Y-28748571D01*
X66383573Y-28748571D01*
X66526430Y-28820000D01*
X66597859Y-28891429D01*
X66669288Y-29034286D01*
X66669288Y-29462857D01*
X66597859Y-29605714D01*
X66526430Y-29677143D01*
X66383573Y-29748571D01*
X66097859Y-29748571D01*
X65955002Y-29677143D01*
X67312145Y-29748571D02*
X67312145Y-28748571D01*
X67312145Y-29034286D02*
X67383573Y-28891429D01*
X67455002Y-28820000D01*
X67597859Y-28748571D01*
X67740716Y-28748571D01*
X68240716Y-29748571D02*
X68240716Y-28748571D01*
X68240716Y-28248571D02*
X68169287Y-28320000D01*
X68240716Y-28391429D01*
X68312144Y-28320000D01*
X68240716Y-28248571D01*
X68240716Y-28391429D01*
X69169288Y-29748571D02*
X69026430Y-29677143D01*
X68955002Y-29534286D01*
X68955002Y-28248571D01*
X70812144Y-28391429D02*
X70883573Y-28320000D01*
X71026430Y-28248571D01*
X71383573Y-28248571D01*
X71526430Y-28320000D01*
X71597859Y-28391429D01*
X71669287Y-28534286D01*
X71669287Y-28677143D01*
X71597859Y-28891429D01*
X70740716Y-29748571D01*
X71669287Y-29748571D01*
X72597858Y-28248571D02*
X72740715Y-28248571D01*
X72883572Y-28320000D01*
X72955001Y-28391429D01*
X73026430Y-28534286D01*
X73097858Y-28820000D01*
X73097858Y-29177143D01*
X73026430Y-29462857D01*
X72955001Y-29605714D01*
X72883572Y-29677143D01*
X72740715Y-29748571D01*
X72597858Y-29748571D01*
X72455001Y-29677143D01*
X72383572Y-29605714D01*
X72312144Y-29462857D01*
X72240715Y-29177143D01*
X72240715Y-28820000D01*
X72312144Y-28534286D01*
X72383572Y-28391429D01*
X72455001Y-28320000D01*
X72597858Y-28248571D01*
X74526429Y-29748571D02*
X73669286Y-29748571D01*
X74097858Y-29748571D02*
X74097858Y-28248571D01*
X73955001Y-28462857D01*
X73812143Y-28605714D01*
X73669286Y-28677143D01*
X75026429Y-28248571D02*
X76026429Y-28248571D01*
X75383572Y-29748571D01*
X76455000Y-30320000D02*
X76526428Y-30248571D01*
X76669285Y-30034286D01*
X76740714Y-29891429D01*
X76812143Y-29677143D01*
X76883571Y-29320000D01*
X76883571Y-29034286D01*
X76812143Y-28677143D01*
X76740714Y-28462857D01*
X76669285Y-28320000D01*
X76526428Y-28105714D01*
X76455000Y-28034286D01*
D12*
X111125000Y-37465000D02*
X111125000Y-85090000D01*
X111125000Y-85090000D02*
X33655000Y-85090000D01*
X33655000Y-85090000D02*
X33655000Y-37465000D01*
X33655000Y-37465000D02*
X111125000Y-37465000D01*
X157988000Y-96393000D02*
X157988000Y-96647000D01*
X157988000Y-93853000D02*
X157988000Y-94107000D01*
X157988000Y-91313000D02*
X157988000Y-91567000D01*
X157988000Y-88773000D02*
X157988000Y-89027000D01*
X157988000Y-86233000D02*
X157988000Y-86487000D01*
X157988000Y-83693000D02*
X157988000Y-83947000D01*
X157988000Y-81407000D02*
X157988000Y-80264000D01*
X150622000Y-81407000D02*
X150622000Y-80264000D01*
X150622000Y-83947000D02*
X150622000Y-83693000D01*
X150622000Y-86487000D02*
X150622000Y-86233000D01*
X150622000Y-89027000D02*
X150622000Y-88773000D01*
X150622000Y-91567000D02*
X150622000Y-91313000D01*
X150622000Y-94107000D02*
X150622000Y-93853000D01*
X150622000Y-96647000D02*
X150622000Y-96393000D01*
X157988000Y-99187000D02*
X157988000Y-98933000D01*
X157988000Y-101473000D02*
X157988000Y-102616000D01*
X150622000Y-101473000D02*
X150622000Y-102616000D01*
X150622000Y-99187000D02*
X150622000Y-98933000D01*
X153416000Y-102616000D02*
X150622000Y-102616000D01*
X157988000Y-102616000D02*
X155194000Y-102616000D01*
X155194000Y-102616000D02*
G75*
G03X153416000Y-102616000I-889000J0D01*
G01*
X157980000Y-80255000D02*
X150630000Y-80255000D01*
X157988000Y-148463000D02*
X157988000Y-148717000D01*
X157988000Y-145923000D02*
X157988000Y-146177000D01*
X157988000Y-143383000D02*
X157988000Y-143637000D01*
X157988000Y-140843000D02*
X157988000Y-141097000D01*
X157988000Y-138303000D02*
X157988000Y-138557000D01*
X157988000Y-135763000D02*
X157988000Y-136017000D01*
X157988000Y-133477000D02*
X157988000Y-132334000D01*
X150622000Y-133477000D02*
X150622000Y-132334000D01*
X150622000Y-136017000D02*
X150622000Y-135763000D01*
X150622000Y-138557000D02*
X150622000Y-138303000D01*
X150622000Y-141097000D02*
X150622000Y-140843000D01*
X150622000Y-143637000D02*
X150622000Y-143383000D01*
X150622000Y-146177000D02*
X150622000Y-145923000D01*
X150622000Y-148717000D02*
X150622000Y-148463000D01*
X157988000Y-151257000D02*
X157988000Y-151003000D01*
X157988000Y-153543000D02*
X157988000Y-154686000D01*
X150622000Y-153543000D02*
X150622000Y-154686000D01*
X150622000Y-151257000D02*
X150622000Y-151003000D01*
X153416000Y-154686000D02*
X150622000Y-154686000D01*
X157988000Y-154686000D02*
X155194000Y-154686000D01*
X155194000Y-154686000D02*
G75*
G03X153416000Y-154686000I-889000J0D01*
G01*
X157980000Y-132325000D02*
X150630000Y-132325000D01*
X160274000Y-73660000D02*
X162687000Y-73660000D01*
X158496000Y-73660000D02*
X156083000Y-73660000D01*
X160274000Y-73660000D02*
G75*
G03X159385000Y-72771000I-889000J0D01*
G01*
X159385000Y-72771000D02*
G75*
G03X158496000Y-73660000I0J-889000D01*
G01*
X162687000Y-63500000D02*
X162687000Y-63627000D01*
X162687000Y-66167000D02*
X162687000Y-65913000D01*
X162687000Y-68707000D02*
X162687000Y-68453000D01*
X162687000Y-71247000D02*
X162687000Y-70993000D01*
X162687000Y-73660000D02*
X162687000Y-73533000D01*
X156083000Y-73660000D02*
X156083000Y-73533000D01*
X156083000Y-63500000D02*
X156083000Y-63627000D01*
X156083000Y-66167000D02*
X156083000Y-65913000D01*
X156083000Y-68707000D02*
X156083000Y-68453000D01*
X156083000Y-71247000D02*
X156083000Y-70993000D01*
X162687000Y-63500000D02*
X156083000Y-63500000D01*
X150368000Y-49022000D02*
X151511000Y-49022000D01*
X150368000Y-56388000D02*
X151511000Y-56388000D01*
X132842000Y-56388000D02*
X131699000Y-56388000D01*
X132842000Y-49022000D02*
X131699000Y-49022000D01*
X135128000Y-49022000D02*
X135382000Y-49022000D01*
X137668000Y-49022000D02*
X137922000Y-49022000D01*
X140208000Y-49022000D02*
X140462000Y-49022000D01*
X142748000Y-49022000D02*
X143002000Y-49022000D01*
X145288000Y-49022000D02*
X145542000Y-49022000D01*
X148082000Y-49022000D02*
X147828000Y-49022000D01*
X147828000Y-56388000D02*
X148082000Y-56388000D01*
X145288000Y-56388000D02*
X145542000Y-56388000D01*
X142748000Y-56388000D02*
X143002000Y-56388000D01*
X140208000Y-56388000D02*
X140462000Y-56388000D01*
X137668000Y-56388000D02*
X137922000Y-56388000D01*
X135128000Y-56388000D02*
X135382000Y-56388000D01*
X131699000Y-51816000D02*
X131699000Y-49022000D01*
X131699000Y-56388000D02*
X131699000Y-53594000D01*
X131699000Y-53594000D02*
G75*
G03X131699000Y-51816000I0J889000D01*
G01*
X151520000Y-56380000D02*
X151520000Y-49030000D01*
X61722000Y-54483000D02*
X60579000Y-54483000D01*
X61722000Y-47117000D02*
X60579000Y-47117000D01*
X79248000Y-47117000D02*
X80391000Y-47117000D01*
X79248000Y-54483000D02*
X80391000Y-54483000D01*
X76962000Y-54483000D02*
X76708000Y-54483000D01*
X74422000Y-54483000D02*
X74168000Y-54483000D01*
X71882000Y-54483000D02*
X71628000Y-54483000D01*
X69342000Y-54483000D02*
X69088000Y-54483000D01*
X66802000Y-54483000D02*
X66548000Y-54483000D01*
X64008000Y-54483000D02*
X64262000Y-54483000D01*
X64262000Y-47117000D02*
X64008000Y-47117000D01*
X66802000Y-47117000D02*
X66548000Y-47117000D01*
X69342000Y-47117000D02*
X69088000Y-47117000D01*
X71882000Y-47117000D02*
X71628000Y-47117000D01*
X74422000Y-47117000D02*
X74168000Y-47117000D01*
X76962000Y-47117000D02*
X76708000Y-47117000D01*
X80391000Y-51689000D02*
X80391000Y-54483000D01*
X80391000Y-47117000D02*
X80391000Y-49911000D01*
X80391000Y-49911000D02*
G75*
G03X80391000Y-51689000I0J-889000D01*
G01*
X60570000Y-47125000D02*
X60570000Y-54475000D01*
X113792000Y-59817000D02*
X113792000Y-59563000D01*
X113792000Y-62357000D02*
X113792000Y-62103000D01*
X113792000Y-41783000D02*
X113792000Y-40894000D01*
X121158000Y-59563000D02*
X121158000Y-59817000D01*
X121158000Y-57023000D02*
X121158000Y-57277000D01*
X121158000Y-54483000D02*
X121158000Y-54737000D01*
X121158000Y-51943000D02*
X121158000Y-52197000D01*
X121158000Y-49403000D02*
X121158000Y-49657000D01*
X121158000Y-46863000D02*
X121158000Y-47117000D01*
X121158000Y-42037000D02*
X121158000Y-40894000D01*
X113792000Y-42037000D02*
X113792000Y-41783000D01*
X113792000Y-44577000D02*
X113792000Y-44323000D01*
X113792000Y-47117000D02*
X113792000Y-46863000D01*
X113792000Y-49657000D02*
X113792000Y-49403000D01*
X113792000Y-52197000D02*
X113792000Y-51943000D01*
X113792000Y-54737000D02*
X113792000Y-54483000D01*
X121158000Y-62357000D02*
X121158000Y-62103000D01*
X121158000Y-64643000D02*
X121158000Y-65786000D01*
X113792000Y-64643000D02*
X113792000Y-65786000D01*
X113792000Y-57277000D02*
X113792000Y-57023000D01*
X116586000Y-65786000D02*
X113792000Y-65786000D01*
X121158000Y-65786000D02*
X118364000Y-65786000D01*
X118364000Y-65786000D02*
G75*
G03X116586000Y-65786000I-889000J0D01*
G01*
X121150000Y-40885000D02*
X113800000Y-40885000D01*
X150622000Y-112522000D02*
X150622000Y-111379000D01*
X157988000Y-112522000D02*
X157988000Y-111379000D01*
X157988000Y-130048000D02*
X157988000Y-131191000D01*
X150622000Y-130048000D02*
X150622000Y-131191000D01*
X150622000Y-127762000D02*
X150622000Y-127508000D01*
X150622000Y-125222000D02*
X150622000Y-124968000D01*
X150622000Y-122682000D02*
X150622000Y-122428000D01*
X150622000Y-120142000D02*
X150622000Y-119888000D01*
X150622000Y-117602000D02*
X150622000Y-117348000D01*
X150622000Y-114808000D02*
X150622000Y-115062000D01*
X157988000Y-115062000D02*
X157988000Y-114808000D01*
X157988000Y-117602000D02*
X157988000Y-117348000D01*
X157988000Y-120142000D02*
X157988000Y-119888000D01*
X157988000Y-122682000D02*
X157988000Y-122428000D01*
X157988000Y-125222000D02*
X157988000Y-124968000D01*
X157988000Y-127762000D02*
X157988000Y-127508000D01*
X153416000Y-131191000D02*
X150622000Y-131191000D01*
X157988000Y-131191000D02*
X155194000Y-131191000D01*
X155194000Y-131191000D02*
G75*
G03X153416000Y-131191000I-889000J0D01*
G01*
X157980000Y-111370000D02*
X150630000Y-111370000D01*
X144399000Y-125095000D02*
X146812000Y-125095000D01*
X142621000Y-125095000D02*
X140208000Y-125095000D01*
X144399000Y-125095000D02*
G75*
G03X143510000Y-124206000I-889000J0D01*
G01*
X143510000Y-124206000D02*
G75*
G03X142621000Y-125095000I0J-889000D01*
G01*
X146812000Y-114935000D02*
X146812000Y-115062000D01*
X146812000Y-117602000D02*
X146812000Y-117348000D01*
X146812000Y-120142000D02*
X146812000Y-119888000D01*
X146812000Y-122682000D02*
X146812000Y-122428000D01*
X146812000Y-125095000D02*
X146812000Y-124968000D01*
X140208000Y-125095000D02*
X140208000Y-124968000D01*
X140208000Y-114935000D02*
X140208000Y-115062000D01*
X140208000Y-117602000D02*
X140208000Y-117348000D01*
X140208000Y-120142000D02*
X140208000Y-119888000D01*
X140208000Y-122682000D02*
X140208000Y-122428000D01*
X146812000Y-114935000D02*
X140208000Y-114935000D01*
X135255000Y-163195000D02*
X122555000Y-163195000D01*
X122555000Y-163195000D02*
X122555000Y-182245000D01*
X122555000Y-182245000D02*
X135255000Y-182245000D01*
X135255000Y-182245000D02*
X135255000Y-163195000D01*
X122555000Y-163195000D02*
X109855000Y-163195000D01*
X109855000Y-163195000D02*
X109855000Y-182245000D01*
X109855000Y-182245000D02*
X122555000Y-182245000D01*
X122555000Y-182245000D02*
X122555000Y-163195000D01*
X103505000Y-163195000D02*
X90805000Y-163195000D01*
X90805000Y-163195000D02*
X90805000Y-182245000D01*
X90805000Y-182245000D02*
X103505000Y-182245000D01*
X103505000Y-182245000D02*
X103505000Y-163195000D01*
X90805000Y-163195000D02*
X78105000Y-163195000D01*
X78105000Y-163195000D02*
X78105000Y-182245000D01*
X78105000Y-182245000D02*
X90805000Y-182245000D01*
X90805000Y-182245000D02*
X90805000Y-163195000D01*
X63500000Y-174244000D02*
X69850000Y-174244000D01*
X69850000Y-176276000D02*
X63500000Y-176276000D01*
X63500000Y-175260000D02*
X62865000Y-175260000D01*
X69850000Y-175260000D02*
X70485000Y-175260000D01*
X69850000Y-175260000D02*
X69850000Y-176276000D01*
X63500000Y-176276000D02*
X63500000Y-174244000D01*
X69850000Y-174244000D02*
X69850000Y-175260000D01*
X143510000Y-58039000D02*
X149860000Y-58039000D01*
X149860000Y-60071000D02*
X143510000Y-60071000D01*
X143510000Y-59055000D02*
X142875000Y-59055000D01*
X149860000Y-59055000D02*
X150495000Y-59055000D01*
X149860000Y-59055000D02*
X149860000Y-60071000D01*
X143510000Y-60071000D02*
X143510000Y-58039000D01*
X149860000Y-58039000D02*
X149860000Y-59055000D01*
X143510000Y-60579000D02*
X149860000Y-60579000D01*
X149860000Y-62611000D02*
X143510000Y-62611000D01*
X143510000Y-61595000D02*
X142875000Y-61595000D01*
X149860000Y-61595000D02*
X150495000Y-61595000D01*
X149860000Y-61595000D02*
X149860000Y-62611000D01*
X143510000Y-62611000D02*
X143510000Y-60579000D01*
X149860000Y-60579000D02*
X149860000Y-61595000D01*
X142240000Y-44831000D02*
X135890000Y-44831000D01*
X135890000Y-42799000D02*
X142240000Y-42799000D01*
X142240000Y-43815000D02*
X142875000Y-43815000D01*
X135890000Y-43815000D02*
X135255000Y-43815000D01*
X135890000Y-43815000D02*
X135890000Y-42799000D01*
X142240000Y-42799000D02*
X142240000Y-44831000D01*
X135890000Y-44831000D02*
X135890000Y-43815000D01*
X135890000Y-45339000D02*
X142240000Y-45339000D01*
X142240000Y-47371000D02*
X135890000Y-47371000D01*
X135890000Y-46355000D02*
X135255000Y-46355000D01*
X142240000Y-46355000D02*
X142875000Y-46355000D01*
X142240000Y-46355000D02*
X142240000Y-47371000D01*
X135890000Y-47371000D02*
X135890000Y-45339000D01*
X142240000Y-45339000D02*
X142240000Y-46355000D01*
X165481000Y-45720000D02*
X165481000Y-52070000D01*
X163449000Y-52070000D02*
X163449000Y-45720000D01*
X164465000Y-45720000D02*
X164465000Y-45085000D01*
X164465000Y-52070000D02*
X164465000Y-52705000D01*
X164465000Y-52070000D02*
X163449000Y-52070000D01*
X163449000Y-45720000D02*
X165481000Y-45720000D01*
X165481000Y-52070000D02*
X164465000Y-52070000D01*
X140081000Y-60960000D02*
X140081000Y-67310000D01*
X138049000Y-67310000D02*
X138049000Y-60960000D01*
X139065000Y-60960000D02*
X139065000Y-60325000D01*
X139065000Y-67310000D02*
X139065000Y-67945000D01*
X139065000Y-67310000D02*
X138049000Y-67310000D01*
X138049000Y-60960000D02*
X140081000Y-60960000D01*
X140081000Y-67310000D02*
X139065000Y-67310000D01*
X137541000Y-60960000D02*
X137541000Y-67310000D01*
X135509000Y-67310000D02*
X135509000Y-60960000D01*
X136525000Y-60960000D02*
X136525000Y-60325000D01*
X136525000Y-67310000D02*
X136525000Y-67945000D01*
X136525000Y-67310000D02*
X135509000Y-67310000D01*
X135509000Y-60960000D02*
X137541000Y-60960000D01*
X137541000Y-67310000D02*
X136525000Y-67310000D01*
X142240000Y-39751000D02*
X135890000Y-39751000D01*
X135890000Y-37719000D02*
X142240000Y-37719000D01*
X142240000Y-38735000D02*
X142875000Y-38735000D01*
X135890000Y-38735000D02*
X135255000Y-38735000D01*
X135890000Y-38735000D02*
X135890000Y-37719000D01*
X142240000Y-37719000D02*
X142240000Y-39751000D01*
X135890000Y-39751000D02*
X135890000Y-38735000D01*
X135890000Y-40259000D02*
X142240000Y-40259000D01*
X142240000Y-42291000D02*
X135890000Y-42291000D01*
X135890000Y-41275000D02*
X135255000Y-41275000D01*
X142240000Y-41275000D02*
X142875000Y-41275000D01*
X142240000Y-41275000D02*
X142240000Y-42291000D01*
X135890000Y-42291000D02*
X135890000Y-40259000D01*
X142240000Y-40259000D02*
X142240000Y-41275000D01*
X141859000Y-80645000D02*
X141859000Y-74295000D01*
X143891000Y-74295000D02*
X143891000Y-80645000D01*
X142875000Y-80645000D02*
X142875000Y-81280000D01*
X142875000Y-74295000D02*
X142875000Y-73660000D01*
X142875000Y-74295000D02*
X143891000Y-74295000D01*
X143891000Y-80645000D02*
X141859000Y-80645000D01*
X141859000Y-74295000D02*
X142875000Y-74295000D01*
X95631000Y-96520000D02*
X95631000Y-102870000D01*
X93599000Y-102870000D02*
X93599000Y-96520000D01*
X94615000Y-96520000D02*
X94615000Y-95885000D01*
X94615000Y-102870000D02*
X94615000Y-103505000D01*
X94615000Y-102870000D02*
X93599000Y-102870000D01*
X93599000Y-96520000D02*
X95631000Y-96520000D01*
X95631000Y-102870000D02*
X94615000Y-102870000D01*
X162941000Y-157480000D02*
X162941000Y-163830000D01*
X160909000Y-163830000D02*
X160909000Y-157480000D01*
X161925000Y-157480000D02*
X161925000Y-156845000D01*
X161925000Y-163830000D02*
X161925000Y-164465000D01*
X161925000Y-163830000D02*
X160909000Y-163830000D01*
X160909000Y-157480000D02*
X162941000Y-157480000D01*
X162941000Y-163830000D02*
X161925000Y-163830000D01*
X140716000Y-157480000D02*
X140716000Y-163830000D01*
X138684000Y-163830000D02*
X138684000Y-157480000D01*
X139700000Y-157480000D02*
X139700000Y-156845000D01*
X139700000Y-163830000D02*
X139700000Y-164465000D01*
X139700000Y-163830000D02*
X138684000Y-163830000D01*
X138684000Y-157480000D02*
X140716000Y-157480000D01*
X140716000Y-163830000D02*
X139700000Y-163830000D01*
X64770000Y-156591000D02*
X58420000Y-156591000D01*
X58420000Y-154559000D02*
X64770000Y-154559000D01*
X64770000Y-155575000D02*
X65405000Y-155575000D01*
X58420000Y-155575000D02*
X57785000Y-155575000D01*
X58420000Y-155575000D02*
X58420000Y-154559000D01*
X64770000Y-154559000D02*
X64770000Y-156591000D01*
X58420000Y-156591000D02*
X58420000Y-155575000D01*
X54229000Y-102870000D02*
X54229000Y-96520000D01*
X56261000Y-96520000D02*
X56261000Y-102870000D01*
X55245000Y-102870000D02*
X55245000Y-103505000D01*
X55245000Y-96520000D02*
X55245000Y-95885000D01*
X55245000Y-96520000D02*
X56261000Y-96520000D01*
X56261000Y-102870000D02*
X54229000Y-102870000D01*
X54229000Y-96520000D02*
X55245000Y-96520000D01*
X56769000Y-102870000D02*
X56769000Y-96520000D01*
X58801000Y-96520000D02*
X58801000Y-102870000D01*
X57785000Y-102870000D02*
X57785000Y-103505000D01*
X57785000Y-96520000D02*
X57785000Y-95885000D01*
X57785000Y-96520000D02*
X58801000Y-96520000D01*
X58801000Y-102870000D02*
X56769000Y-102870000D01*
X56769000Y-96520000D02*
X57785000Y-96520000D01*
X78359000Y-102870000D02*
X78359000Y-96520000D01*
X80391000Y-96520000D02*
X80391000Y-102870000D01*
X79375000Y-102870000D02*
X79375000Y-103505000D01*
X79375000Y-96520000D02*
X79375000Y-95885000D01*
X79375000Y-96520000D02*
X80391000Y-96520000D01*
X80391000Y-102870000D02*
X78359000Y-102870000D01*
X78359000Y-96520000D02*
X79375000Y-96520000D01*
X59309000Y-102870000D02*
X59309000Y-96520000D01*
X61341000Y-96520000D02*
X61341000Y-102870000D01*
X60325000Y-102870000D02*
X60325000Y-103505000D01*
X60325000Y-96520000D02*
X60325000Y-95885000D01*
X60325000Y-96520000D02*
X61341000Y-96520000D01*
X61341000Y-102870000D02*
X59309000Y-102870000D01*
X59309000Y-96520000D02*
X60325000Y-96520000D01*
X61849000Y-102870000D02*
X61849000Y-96520000D01*
X63881000Y-96520000D02*
X63881000Y-102870000D01*
X62865000Y-102870000D02*
X62865000Y-103505000D01*
X62865000Y-96520000D02*
X62865000Y-95885000D01*
X62865000Y-96520000D02*
X63881000Y-96520000D01*
X63881000Y-102870000D02*
X61849000Y-102870000D01*
X61849000Y-96520000D02*
X62865000Y-96520000D01*
X97409000Y-102870000D02*
X97409000Y-96520000D01*
X99441000Y-96520000D02*
X99441000Y-102870000D01*
X98425000Y-102870000D02*
X98425000Y-103505000D01*
X98425000Y-96520000D02*
X98425000Y-95885000D01*
X98425000Y-96520000D02*
X99441000Y-96520000D01*
X99441000Y-102870000D02*
X97409000Y-102870000D01*
X97409000Y-96520000D02*
X98425000Y-96520000D01*
X113665000Y-154051000D02*
X107315000Y-154051000D01*
X107315000Y-152019000D02*
X113665000Y-152019000D01*
X113665000Y-153035000D02*
X114300000Y-153035000D01*
X107315000Y-153035000D02*
X106680000Y-153035000D01*
X107315000Y-153035000D02*
X107315000Y-152019000D01*
X113665000Y-152019000D02*
X113665000Y-154051000D01*
X107315000Y-154051000D02*
X107315000Y-153035000D01*
X107950000Y-156591000D02*
X101600000Y-156591000D01*
X101600000Y-154559000D02*
X107950000Y-154559000D01*
X107950000Y-155575000D02*
X108585000Y-155575000D01*
X101600000Y-155575000D02*
X100965000Y-155575000D01*
X101600000Y-155575000D02*
X101600000Y-154559000D01*
X107950000Y-154559000D02*
X107950000Y-156591000D01*
X101600000Y-156591000D02*
X101600000Y-155575000D01*
X107950000Y-148971000D02*
X101600000Y-148971000D01*
X101600000Y-146939000D02*
X107950000Y-146939000D01*
X107950000Y-147955000D02*
X108585000Y-147955000D01*
X101600000Y-147955000D02*
X100965000Y-147955000D01*
X101600000Y-147955000D02*
X101600000Y-146939000D01*
X107950000Y-146939000D02*
X107950000Y-148971000D01*
X101600000Y-148971000D02*
X101600000Y-147955000D01*
X113665000Y-151511000D02*
X107315000Y-151511000D01*
X107315000Y-149479000D02*
X113665000Y-149479000D01*
X113665000Y-150495000D02*
X114300000Y-150495000D01*
X107315000Y-150495000D02*
X106680000Y-150495000D01*
X107315000Y-150495000D02*
X107315000Y-149479000D01*
X113665000Y-149479000D02*
X113665000Y-151511000D01*
X107315000Y-151511000D02*
X107315000Y-150495000D01*
X141605000Y-105156000D02*
X135255000Y-105156000D01*
X135255000Y-103124000D02*
X141605000Y-103124000D01*
X141605000Y-104140000D02*
X142240000Y-104140000D01*
X135255000Y-104140000D02*
X134620000Y-104140000D01*
X135255000Y-104140000D02*
X135255000Y-103124000D01*
X141605000Y-103124000D02*
X141605000Y-105156000D01*
X135255000Y-105156000D02*
X135255000Y-104140000D01*
X128651000Y-92075000D02*
X128651000Y-98425000D01*
X126619000Y-98425000D02*
X126619000Y-92075000D01*
X127635000Y-92075000D02*
X127635000Y-91440000D01*
X127635000Y-98425000D02*
X127635000Y-99060000D01*
X127635000Y-98425000D02*
X126619000Y-98425000D01*
X126619000Y-92075000D02*
X128651000Y-92075000D01*
X128651000Y-98425000D02*
X127635000Y-98425000D01*
X139065000Y-102616000D02*
X132715000Y-102616000D01*
X132715000Y-100584000D02*
X139065000Y-100584000D01*
X139065000Y-101600000D02*
X139700000Y-101600000D01*
X132715000Y-101600000D02*
X132080000Y-101600000D01*
X132715000Y-101600000D02*
X132715000Y-100584000D01*
X139065000Y-100584000D02*
X139065000Y-102616000D01*
X132715000Y-102616000D02*
X132715000Y-101600000D01*
X145415000Y-86106000D02*
X139065000Y-86106000D01*
X139065000Y-84074000D02*
X145415000Y-84074000D01*
X145415000Y-85090000D02*
X146050000Y-85090000D01*
X139065000Y-85090000D02*
X138430000Y-85090000D01*
X139065000Y-85090000D02*
X139065000Y-84074000D01*
X145415000Y-84074000D02*
X145415000Y-86106000D01*
X139065000Y-86106000D02*
X139065000Y-85090000D01*
X85471000Y-53340000D02*
X85471000Y-59690000D01*
X83439000Y-59690000D02*
X83439000Y-53340000D01*
X84455000Y-53340000D02*
X84455000Y-52705000D01*
X84455000Y-59690000D02*
X84455000Y-60325000D01*
X84455000Y-59690000D02*
X83439000Y-59690000D01*
X83439000Y-53340000D02*
X85471000Y-53340000D01*
X85471000Y-59690000D02*
X84455000Y-59690000D01*
X161671000Y-97155000D02*
X161671000Y-103505000D01*
X159639000Y-103505000D02*
X159639000Y-97155000D01*
X160655000Y-97155000D02*
X160655000Y-96520000D01*
X160655000Y-103505000D02*
X160655000Y-104140000D01*
X160655000Y-103505000D02*
X159639000Y-103505000D01*
X159639000Y-97155000D02*
X161671000Y-97155000D01*
X161671000Y-103505000D02*
X160655000Y-103505000D01*
X159639000Y-145415000D02*
X159639000Y-139065000D01*
X161671000Y-139065000D02*
X161671000Y-145415000D01*
X160655000Y-145415000D02*
X160655000Y-146050000D01*
X160655000Y-139065000D02*
X160655000Y-138430000D01*
X160655000Y-139065000D02*
X161671000Y-139065000D01*
X161671000Y-145415000D02*
X159639000Y-145415000D01*
X159639000Y-139065000D02*
X160655000Y-139065000D01*
X140970000Y-71120000D02*
X141605000Y-71120000D01*
X141605000Y-71120000D02*
X141605000Y-80137000D01*
X141605000Y-80137000D02*
X132715000Y-80137000D01*
X132715000Y-80137000D02*
X132715000Y-71120000D01*
X132715000Y-71120000D02*
X133477000Y-71120000D01*
X132715000Y-73787000D02*
X132715000Y-80137000D01*
X141605000Y-73787000D02*
X141605000Y-80137000D01*
X133350000Y-71120000D02*
X140970000Y-71120000D01*
X133096000Y-80137000D02*
X141224000Y-80137000D01*
X117475000Y-136525000D02*
G75*
G03X117475000Y-108585000I0J13970000D01*
G01*
X117475000Y-136525000D02*
X94615000Y-136525000D01*
X94615000Y-136525000D02*
X94615000Y-108585000D01*
X94615000Y-108585000D02*
X117475000Y-108585000D01*
X87376000Y-32893000D02*
X87376000Y-23368000D01*
X87376000Y-23368000D02*
X117094000Y-23368000D01*
X117094000Y-23368000D02*
X117094000Y-33528000D01*
X98425000Y-23368000D02*
X90805000Y-23368000D01*
X87376000Y-32893000D02*
X87376000Y-36322000D01*
X87376000Y-36322000D02*
X97536000Y-36322000D01*
X117094000Y-32893000D02*
X117094000Y-36322000D01*
X117094000Y-36322000D02*
X114935000Y-36322000D01*
X97155000Y-36322000D02*
X114935000Y-36322000D01*
X98425000Y-23368000D02*
X106045000Y-23368000D01*
X153032460Y-49148480D02*
X153032460Y-47751480D01*
X153032460Y-53593480D02*
X153032460Y-55117480D01*
X152270460Y-52958480D02*
X153794460Y-52958480D01*
X153032460Y-53720480D02*
X153794460Y-53720480D01*
X153794460Y-53720480D02*
X153794460Y-49148480D01*
X153794460Y-49148480D02*
X152270460Y-49148480D01*
X152270460Y-49148480D02*
X152270460Y-53720480D01*
X152270460Y-53720480D02*
X153032460Y-53720480D01*
X133982460Y-61848480D02*
X133982460Y-60451480D01*
X133982460Y-66293480D02*
X133982460Y-67817480D01*
X133220460Y-65658480D02*
X134744460Y-65658480D01*
X133982460Y-66420480D02*
X134744460Y-66420480D01*
X134744460Y-66420480D02*
X134744460Y-61848480D01*
X134744460Y-61848480D02*
X133220460Y-61848480D01*
X133220460Y-61848480D02*
X133220460Y-66420480D01*
X133220460Y-66420480D02*
X133982460Y-66420480D01*
X125097540Y-96266520D02*
X125097540Y-97663520D01*
X125097540Y-91821520D02*
X125097540Y-90297520D01*
X125859540Y-92456520D02*
X124335540Y-92456520D01*
X125097540Y-91694520D02*
X124335540Y-91694520D01*
X124335540Y-91694520D02*
X124335540Y-96266520D01*
X124335540Y-96266520D02*
X125859540Y-96266520D01*
X125859540Y-96266520D02*
X125859540Y-91694520D01*
X125859540Y-91694520D02*
X125097540Y-91694520D01*
X144526000Y-70358000D02*
X145034000Y-70358000D01*
X144780000Y-70104000D02*
X144780000Y-70612000D01*
X144208500Y-67310000D02*
X144081500Y-67183000D01*
X144081500Y-67183000D02*
X140906500Y-67183000D01*
X148717000Y-67183000D02*
X145415000Y-67183000D01*
X148717000Y-67056000D02*
X145605500Y-67056000D01*
X145605500Y-67056000D02*
X145732500Y-66929000D01*
X145732500Y-66929000D02*
X148717000Y-66929000D01*
X148717000Y-66929000D02*
X148717000Y-66802000D01*
X148717000Y-66802000D02*
X145859500Y-66802000D01*
X145859500Y-66802000D02*
X145923000Y-66675000D01*
X145923000Y-66675000D02*
X148717000Y-66675000D01*
X148717000Y-66675000D02*
X148653500Y-66548000D01*
X148653500Y-66548000D02*
X145986500Y-66548000D01*
X145986500Y-66548000D02*
X146050000Y-66421000D01*
X146050000Y-66421000D02*
X148590000Y-66421000D01*
X148590000Y-66421000D02*
X148590000Y-66294000D01*
X148590000Y-66294000D02*
X146050000Y-66294000D01*
X146050000Y-66294000D02*
X146050000Y-66167000D01*
X146050000Y-66167000D02*
X148590000Y-66167000D01*
X148590000Y-66167000D02*
X148526500Y-66040000D01*
X148526500Y-66040000D02*
X146113500Y-66040000D01*
X146113500Y-66040000D02*
X146113500Y-65913000D01*
X146113500Y-65913000D02*
X148463000Y-65913000D01*
X148463000Y-65913000D02*
X148399500Y-65786000D01*
X148399500Y-65786000D02*
X146050000Y-65786000D01*
X146050000Y-65786000D02*
X145986500Y-65659000D01*
X145986500Y-65659000D02*
X148399500Y-65659000D01*
X148399500Y-65659000D02*
X148272500Y-65532000D01*
X148272500Y-65532000D02*
X145986500Y-65532000D01*
X145986500Y-65532000D02*
X145923000Y-65405000D01*
X145923000Y-65405000D02*
X148272500Y-65405000D01*
X148272500Y-65405000D02*
X148145500Y-65278000D01*
X148145500Y-65278000D02*
X145796000Y-65278000D01*
X145796000Y-65278000D02*
X145732500Y-65151000D01*
X145732500Y-65151000D02*
X148145500Y-65151000D01*
X148145500Y-65151000D02*
X147955000Y-65024000D01*
X147955000Y-65024000D02*
X145605500Y-65024000D01*
X145605500Y-65024000D02*
X145415000Y-64897000D01*
X145415000Y-64897000D02*
X147891500Y-64897000D01*
X140843000Y-67056000D02*
X143954500Y-67056000D01*
X143954500Y-67056000D02*
X143827500Y-66929000D01*
X143827500Y-66929000D02*
X140843000Y-66929000D01*
X140843000Y-66929000D02*
X140906500Y-66802000D01*
X140906500Y-66802000D02*
X143700500Y-66802000D01*
X143700500Y-66802000D02*
X143573500Y-66675000D01*
X143573500Y-66675000D02*
X140843000Y-66675000D01*
X140843000Y-66675000D02*
X140906500Y-66548000D01*
X140906500Y-66548000D02*
X143573500Y-66548000D01*
X143573500Y-66548000D02*
X143510000Y-66421000D01*
X143510000Y-66421000D02*
X140970000Y-66421000D01*
X140970000Y-66421000D02*
X140970000Y-66294000D01*
X140970000Y-66294000D02*
X143510000Y-66294000D01*
X143510000Y-66294000D02*
X143510000Y-66167000D01*
X143510000Y-66167000D02*
X140970000Y-66167000D01*
X140970000Y-66167000D02*
X141033500Y-66040000D01*
X141033500Y-66040000D02*
X143510000Y-66040000D01*
X143510000Y-66040000D02*
X143510000Y-65913000D01*
X143510000Y-65913000D02*
X141033500Y-65913000D01*
X141033500Y-65913000D02*
X141097000Y-65786000D01*
X141097000Y-65786000D02*
X143510000Y-65786000D01*
X143510000Y-65786000D02*
X143510000Y-65659000D01*
X143510000Y-65659000D02*
X141160500Y-65659000D01*
X141160500Y-65659000D02*
X141224000Y-65532000D01*
X141224000Y-65532000D02*
X143573500Y-65532000D01*
X143573500Y-65532000D02*
X143637000Y-65405000D01*
X143637000Y-65405000D02*
X141287500Y-65405000D01*
X141287500Y-65405000D02*
X141351000Y-65278000D01*
X141351000Y-65278000D02*
X143764000Y-65278000D01*
X143764000Y-65278000D02*
X143827500Y-65151000D01*
X143827500Y-65151000D02*
X141478000Y-65151000D01*
X141478000Y-65151000D02*
X141541500Y-65024000D01*
X141541500Y-65024000D02*
X143954500Y-65024000D01*
X143954500Y-65024000D02*
X144145000Y-64897000D01*
X144145000Y-64897000D02*
X141668500Y-64897000D01*
X141795500Y-64770000D02*
X142176500Y-64389000D01*
X142875000Y-63817500D02*
X142811500Y-63944500D01*
X142811500Y-63944500D02*
X142748000Y-64135000D01*
X145986500Y-63563500D02*
X145796000Y-63563500D01*
X147637500Y-64643000D02*
X147510500Y-64516000D01*
X147002500Y-64135000D02*
X146939000Y-64071500D01*
X146050000Y-66040000D02*
G75*
G03X146050000Y-66040000I-1270000J0D01*
G01*
X140779500Y-67310000D02*
X148717000Y-67310000D01*
X148717000Y-67310000D02*
X148717000Y-67183000D01*
X141605000Y-64897000D02*
X141732000Y-64770000D01*
X141732000Y-64770000D02*
X147828000Y-64770000D01*
X147828000Y-64770000D02*
X147637500Y-64643000D01*
X147637500Y-64643000D02*
X141922500Y-64643000D01*
X141922500Y-64643000D02*
X141986000Y-64516000D01*
X141986000Y-64516000D02*
X147510500Y-64516000D01*
X147510500Y-64516000D02*
X147383500Y-64389000D01*
X147383500Y-64389000D02*
X142176500Y-64389000D01*
X142176500Y-64389000D02*
X142303500Y-64262000D01*
X142303500Y-64262000D02*
X147256500Y-64262000D01*
X147256500Y-64262000D02*
X147129500Y-64135000D01*
X147129500Y-64135000D02*
X142367000Y-64135000D01*
X142367000Y-64135000D02*
X142621000Y-64008000D01*
X142621000Y-64008000D02*
X146875500Y-64008000D01*
X146875500Y-64008000D02*
X146685000Y-63881000D01*
X146685000Y-63881000D02*
X142875000Y-63881000D01*
X142875000Y-63881000D02*
X143129000Y-63754000D01*
X143129000Y-63754000D02*
X146494500Y-63754000D01*
X146494500Y-63754000D02*
X146113500Y-63627000D01*
X146113500Y-63627000D02*
X143319500Y-63627000D01*
X143319500Y-63627000D02*
X143700500Y-63500000D01*
X143700500Y-63500000D02*
X145796000Y-63500000D01*
X145796000Y-63500000D02*
X145478500Y-63436500D01*
X145478500Y-63436500D02*
X144208500Y-63436500D01*
X148780000Y-67310000D02*
G75*
G03X148780000Y-67310000I-4000000J0D01*
G01*
X151638000Y-75184000D02*
X151638000Y-74676000D01*
X151384000Y-74930000D02*
X151892000Y-74930000D01*
X148590000Y-75501500D02*
X148463000Y-75628500D01*
X148463000Y-75628500D02*
X148463000Y-78803500D01*
X148463000Y-70993000D02*
X148463000Y-74295000D01*
X148336000Y-70993000D02*
X148336000Y-74104500D01*
X148336000Y-74104500D02*
X148209000Y-73977500D01*
X148209000Y-73977500D02*
X148209000Y-70993000D01*
X148209000Y-70993000D02*
X148082000Y-70993000D01*
X148082000Y-70993000D02*
X148082000Y-73850500D01*
X148082000Y-73850500D02*
X147955000Y-73787000D01*
X147955000Y-73787000D02*
X147955000Y-70993000D01*
X147955000Y-70993000D02*
X147828000Y-71056500D01*
X147828000Y-71056500D02*
X147828000Y-73723500D01*
X147828000Y-73723500D02*
X147701000Y-73660000D01*
X147701000Y-73660000D02*
X147701000Y-71120000D01*
X147701000Y-71120000D02*
X147574000Y-71120000D01*
X147574000Y-71120000D02*
X147574000Y-73660000D01*
X147574000Y-73660000D02*
X147447000Y-73660000D01*
X147447000Y-73660000D02*
X147447000Y-71120000D01*
X147447000Y-71120000D02*
X147320000Y-71183500D01*
X147320000Y-71183500D02*
X147320000Y-73596500D01*
X147320000Y-73596500D02*
X147193000Y-73596500D01*
X147193000Y-73596500D02*
X147193000Y-71247000D01*
X147193000Y-71247000D02*
X147066000Y-71310500D01*
X147066000Y-71310500D02*
X147066000Y-73660000D01*
X147066000Y-73660000D02*
X146939000Y-73723500D01*
X146939000Y-73723500D02*
X146939000Y-71310500D01*
X146939000Y-71310500D02*
X146812000Y-71437500D01*
X146812000Y-71437500D02*
X146812000Y-73723500D01*
X146812000Y-73723500D02*
X146685000Y-73787000D01*
X146685000Y-73787000D02*
X146685000Y-71437500D01*
X146685000Y-71437500D02*
X146558000Y-71564500D01*
X146558000Y-71564500D02*
X146558000Y-73914000D01*
X146558000Y-73914000D02*
X146431000Y-73977500D01*
X146431000Y-73977500D02*
X146431000Y-71564500D01*
X146431000Y-71564500D02*
X146304000Y-71755000D01*
X146304000Y-71755000D02*
X146304000Y-74104500D01*
X146304000Y-74104500D02*
X146177000Y-74295000D01*
X146177000Y-74295000D02*
X146177000Y-71818500D01*
X148336000Y-78867000D02*
X148336000Y-75755500D01*
X148336000Y-75755500D02*
X148209000Y-75882500D01*
X148209000Y-75882500D02*
X148209000Y-78867000D01*
X148209000Y-78867000D02*
X148082000Y-78803500D01*
X148082000Y-78803500D02*
X148082000Y-76009500D01*
X148082000Y-76009500D02*
X147955000Y-76136500D01*
X147955000Y-76136500D02*
X147955000Y-78867000D01*
X147955000Y-78867000D02*
X147828000Y-78803500D01*
X147828000Y-78803500D02*
X147828000Y-76136500D01*
X147828000Y-76136500D02*
X147701000Y-76200000D01*
X147701000Y-76200000D02*
X147701000Y-78740000D01*
X147701000Y-78740000D02*
X147574000Y-78740000D01*
X147574000Y-78740000D02*
X147574000Y-76200000D01*
X147574000Y-76200000D02*
X147447000Y-76200000D01*
X147447000Y-76200000D02*
X147447000Y-78740000D01*
X147447000Y-78740000D02*
X147320000Y-78676500D01*
X147320000Y-78676500D02*
X147320000Y-76200000D01*
X147320000Y-76200000D02*
X147193000Y-76200000D01*
X147193000Y-76200000D02*
X147193000Y-78676500D01*
X147193000Y-78676500D02*
X147066000Y-78613000D01*
X147066000Y-78613000D02*
X147066000Y-76200000D01*
X147066000Y-76200000D02*
X146939000Y-76200000D01*
X146939000Y-76200000D02*
X146939000Y-78549500D01*
X146939000Y-78549500D02*
X146812000Y-78486000D01*
X146812000Y-78486000D02*
X146812000Y-76136500D01*
X146812000Y-76136500D02*
X146685000Y-76073000D01*
X146685000Y-76073000D02*
X146685000Y-78422500D01*
X146685000Y-78422500D02*
X146558000Y-78359000D01*
X146558000Y-78359000D02*
X146558000Y-75946000D01*
X146558000Y-75946000D02*
X146431000Y-75882500D01*
X146431000Y-75882500D02*
X146431000Y-78232000D01*
X146431000Y-78232000D02*
X146304000Y-78168500D01*
X146304000Y-78168500D02*
X146304000Y-75755500D01*
X146304000Y-75755500D02*
X146177000Y-75565000D01*
X146177000Y-75565000D02*
X146177000Y-78041500D01*
X146050000Y-77914500D02*
X145669000Y-77533500D01*
X145097500Y-76835000D02*
X145224500Y-76898500D01*
X145224500Y-76898500D02*
X145415000Y-76962000D01*
X144843500Y-73723500D02*
X144843500Y-73914000D01*
X145923000Y-72072500D02*
X145796000Y-72199500D01*
X145415000Y-72707500D02*
X145351500Y-72771000D01*
X148590000Y-74930000D02*
G75*
G03X148590000Y-74930000I-1270000J0D01*
G01*
X148590000Y-78930500D02*
X148590000Y-70993000D01*
X148590000Y-70993000D02*
X148463000Y-70993000D01*
X146177000Y-78105000D02*
X146050000Y-77978000D01*
X146050000Y-77978000D02*
X146050000Y-71882000D01*
X146050000Y-71882000D02*
X145923000Y-72072500D01*
X145923000Y-72072500D02*
X145923000Y-77787500D01*
X145923000Y-77787500D02*
X145796000Y-77724000D01*
X145796000Y-77724000D02*
X145796000Y-72199500D01*
X145796000Y-72199500D02*
X145669000Y-72326500D01*
X145669000Y-72326500D02*
X145669000Y-77533500D01*
X145669000Y-77533500D02*
X145542000Y-77406500D01*
X145542000Y-77406500D02*
X145542000Y-72453500D01*
X145542000Y-72453500D02*
X145415000Y-72580500D01*
X145415000Y-72580500D02*
X145415000Y-77343000D01*
X145415000Y-77343000D02*
X145288000Y-77089000D01*
X145288000Y-77089000D02*
X145288000Y-72834500D01*
X145288000Y-72834500D02*
X145161000Y-73025000D01*
X145161000Y-73025000D02*
X145161000Y-76835000D01*
X145161000Y-76835000D02*
X145034000Y-76581000D01*
X145034000Y-76581000D02*
X145034000Y-73215500D01*
X145034000Y-73215500D02*
X144907000Y-73596500D01*
X144907000Y-73596500D02*
X144907000Y-76390500D01*
X144907000Y-76390500D02*
X144780000Y-76009500D01*
X144780000Y-76009500D02*
X144780000Y-73914000D01*
X144780000Y-73914000D02*
X144716500Y-74231500D01*
X144716500Y-74231500D02*
X144716500Y-75501500D01*
X152590000Y-74930000D02*
G75*
G03X152590000Y-74930000I-4000000J0D01*
G01*
X156337000Y-58166000D02*
X156337000Y-58674000D01*
X156591000Y-58420000D02*
X156083000Y-58420000D01*
X159385000Y-57848500D02*
X159512000Y-57721500D01*
X159512000Y-57721500D02*
X159512000Y-54546500D01*
X159512000Y-62357000D02*
X159512000Y-59055000D01*
X159639000Y-62357000D02*
X159639000Y-59245500D01*
X159639000Y-59245500D02*
X159766000Y-59372500D01*
X159766000Y-59372500D02*
X159766000Y-62357000D01*
X159766000Y-62357000D02*
X159893000Y-62357000D01*
X159893000Y-62357000D02*
X159893000Y-59499500D01*
X159893000Y-59499500D02*
X160020000Y-59563000D01*
X160020000Y-59563000D02*
X160020000Y-62357000D01*
X160020000Y-62357000D02*
X160147000Y-62293500D01*
X160147000Y-62293500D02*
X160147000Y-59626500D01*
X160147000Y-59626500D02*
X160274000Y-59690000D01*
X160274000Y-59690000D02*
X160274000Y-62230000D01*
X160274000Y-62230000D02*
X160401000Y-62230000D01*
X160401000Y-62230000D02*
X160401000Y-59690000D01*
X160401000Y-59690000D02*
X160528000Y-59690000D01*
X160528000Y-59690000D02*
X160528000Y-62230000D01*
X160528000Y-62230000D02*
X160655000Y-62166500D01*
X160655000Y-62166500D02*
X160655000Y-59753500D01*
X160655000Y-59753500D02*
X160782000Y-59753500D01*
X160782000Y-59753500D02*
X160782000Y-62103000D01*
X160782000Y-62103000D02*
X160909000Y-62039500D01*
X160909000Y-62039500D02*
X160909000Y-59690000D01*
X160909000Y-59690000D02*
X161036000Y-59626500D01*
X161036000Y-59626500D02*
X161036000Y-62039500D01*
X161036000Y-62039500D02*
X161163000Y-61912500D01*
X161163000Y-61912500D02*
X161163000Y-59626500D01*
X161163000Y-59626500D02*
X161290000Y-59563000D01*
X161290000Y-59563000D02*
X161290000Y-61912500D01*
X161290000Y-61912500D02*
X161417000Y-61785500D01*
X161417000Y-61785500D02*
X161417000Y-59436000D01*
X161417000Y-59436000D02*
X161544000Y-59372500D01*
X161544000Y-59372500D02*
X161544000Y-61785500D01*
X161544000Y-61785500D02*
X161671000Y-61595000D01*
X161671000Y-61595000D02*
X161671000Y-59245500D01*
X161671000Y-59245500D02*
X161798000Y-59055000D01*
X161798000Y-59055000D02*
X161798000Y-61531500D01*
X159639000Y-54483000D02*
X159639000Y-57594500D01*
X159639000Y-57594500D02*
X159766000Y-57467500D01*
X159766000Y-57467500D02*
X159766000Y-54483000D01*
X159766000Y-54483000D02*
X159893000Y-54546500D01*
X159893000Y-54546500D02*
X159893000Y-57340500D01*
X159893000Y-57340500D02*
X160020000Y-57213500D01*
X160020000Y-57213500D02*
X160020000Y-54483000D01*
X160020000Y-54483000D02*
X160147000Y-54546500D01*
X160147000Y-54546500D02*
X160147000Y-57213500D01*
X160147000Y-57213500D02*
X160274000Y-57150000D01*
X160274000Y-57150000D02*
X160274000Y-54610000D01*
X160274000Y-54610000D02*
X160401000Y-54610000D01*
X160401000Y-54610000D02*
X160401000Y-57150000D01*
X160401000Y-57150000D02*
X160528000Y-57150000D01*
X160528000Y-57150000D02*
X160528000Y-54610000D01*
X160528000Y-54610000D02*
X160655000Y-54673500D01*
X160655000Y-54673500D02*
X160655000Y-57150000D01*
X160655000Y-57150000D02*
X160782000Y-57150000D01*
X160782000Y-57150000D02*
X160782000Y-54673500D01*
X160782000Y-54673500D02*
X160909000Y-54737000D01*
X160909000Y-54737000D02*
X160909000Y-57150000D01*
X160909000Y-57150000D02*
X161036000Y-57150000D01*
X161036000Y-57150000D02*
X161036000Y-54800500D01*
X161036000Y-54800500D02*
X161163000Y-54864000D01*
X161163000Y-54864000D02*
X161163000Y-57213500D01*
X161163000Y-57213500D02*
X161290000Y-57277000D01*
X161290000Y-57277000D02*
X161290000Y-54927500D01*
X161290000Y-54927500D02*
X161417000Y-54991000D01*
X161417000Y-54991000D02*
X161417000Y-57404000D01*
X161417000Y-57404000D02*
X161544000Y-57467500D01*
X161544000Y-57467500D02*
X161544000Y-55118000D01*
X161544000Y-55118000D02*
X161671000Y-55181500D01*
X161671000Y-55181500D02*
X161671000Y-57594500D01*
X161671000Y-57594500D02*
X161798000Y-57785000D01*
X161798000Y-57785000D02*
X161798000Y-55308500D01*
X161925000Y-55435500D02*
X162306000Y-55816500D01*
X162877500Y-56515000D02*
X162750500Y-56451500D01*
X162750500Y-56451500D02*
X162560000Y-56388000D01*
X163131500Y-59626500D02*
X163131500Y-59436000D01*
X162052000Y-61277500D02*
X162179000Y-61150500D01*
X162560000Y-60642500D02*
X162623500Y-60579000D01*
X161925000Y-58420000D02*
G75*
G03X161925000Y-58420000I-1270000J0D01*
G01*
X159385000Y-54419500D02*
X159385000Y-62357000D01*
X159385000Y-62357000D02*
X159512000Y-62357000D01*
X161798000Y-55245000D02*
X161925000Y-55372000D01*
X161925000Y-55372000D02*
X161925000Y-61468000D01*
X161925000Y-61468000D02*
X162052000Y-61277500D01*
X162052000Y-61277500D02*
X162052000Y-55562500D01*
X162052000Y-55562500D02*
X162179000Y-55626000D01*
X162179000Y-55626000D02*
X162179000Y-61150500D01*
X162179000Y-61150500D02*
X162306000Y-61023500D01*
X162306000Y-61023500D02*
X162306000Y-55816500D01*
X162306000Y-55816500D02*
X162433000Y-55943500D01*
X162433000Y-55943500D02*
X162433000Y-60896500D01*
X162433000Y-60896500D02*
X162560000Y-60769500D01*
X162560000Y-60769500D02*
X162560000Y-56007000D01*
X162560000Y-56007000D02*
X162687000Y-56261000D01*
X162687000Y-56261000D02*
X162687000Y-60515500D01*
X162687000Y-60515500D02*
X162814000Y-60325000D01*
X162814000Y-60325000D02*
X162814000Y-56515000D01*
X162814000Y-56515000D02*
X162941000Y-56769000D01*
X162941000Y-56769000D02*
X162941000Y-60134500D01*
X162941000Y-60134500D02*
X163068000Y-59753500D01*
X163068000Y-59753500D02*
X163068000Y-56959500D01*
X163068000Y-56959500D02*
X163195000Y-57340500D01*
X163195000Y-57340500D02*
X163195000Y-59436000D01*
X163195000Y-59436000D02*
X163258500Y-59118500D01*
X163258500Y-59118500D02*
X163258500Y-57848500D01*
X163385000Y-58420000D02*
G75*
G03X163385000Y-58420000I-4000000J0D01*
G01*
X160274000Y-24892000D02*
X159766000Y-24892000D01*
X160020000Y-25146000D02*
X160020000Y-24638000D01*
X160591500Y-27940000D02*
X160718500Y-28067000D01*
X160718500Y-28067000D02*
X163893500Y-28067000D01*
X156083000Y-28067000D02*
X159385000Y-28067000D01*
X156083000Y-28194000D02*
X159194500Y-28194000D01*
X159194500Y-28194000D02*
X159067500Y-28321000D01*
X159067500Y-28321000D02*
X156083000Y-28321000D01*
X156083000Y-28321000D02*
X156083000Y-28448000D01*
X156083000Y-28448000D02*
X158940500Y-28448000D01*
X158940500Y-28448000D02*
X158877000Y-28575000D01*
X158877000Y-28575000D02*
X156083000Y-28575000D01*
X156083000Y-28575000D02*
X156146500Y-28702000D01*
X156146500Y-28702000D02*
X158813500Y-28702000D01*
X158813500Y-28702000D02*
X158750000Y-28829000D01*
X158750000Y-28829000D02*
X156210000Y-28829000D01*
X156210000Y-28829000D02*
X156210000Y-28956000D01*
X156210000Y-28956000D02*
X158750000Y-28956000D01*
X158750000Y-28956000D02*
X158750000Y-29083000D01*
X158750000Y-29083000D02*
X156210000Y-29083000D01*
X156210000Y-29083000D02*
X156273500Y-29210000D01*
X156273500Y-29210000D02*
X158686500Y-29210000D01*
X158686500Y-29210000D02*
X158686500Y-29337000D01*
X158686500Y-29337000D02*
X156337000Y-29337000D01*
X156337000Y-29337000D02*
X156400500Y-29464000D01*
X156400500Y-29464000D02*
X158750000Y-29464000D01*
X158750000Y-29464000D02*
X158813500Y-29591000D01*
X158813500Y-29591000D02*
X156400500Y-29591000D01*
X156400500Y-29591000D02*
X156527500Y-29718000D01*
X156527500Y-29718000D02*
X158813500Y-29718000D01*
X158813500Y-29718000D02*
X158877000Y-29845000D01*
X158877000Y-29845000D02*
X156527500Y-29845000D01*
X156527500Y-29845000D02*
X156654500Y-29972000D01*
X156654500Y-29972000D02*
X159004000Y-29972000D01*
X159004000Y-29972000D02*
X159067500Y-30099000D01*
X159067500Y-30099000D02*
X156654500Y-30099000D01*
X156654500Y-30099000D02*
X156845000Y-30226000D01*
X156845000Y-30226000D02*
X159194500Y-30226000D01*
X159194500Y-30226000D02*
X159385000Y-30353000D01*
X159385000Y-30353000D02*
X156908500Y-30353000D01*
X163957000Y-28194000D02*
X160845500Y-28194000D01*
X160845500Y-28194000D02*
X160972500Y-28321000D01*
X160972500Y-28321000D02*
X163957000Y-28321000D01*
X163957000Y-28321000D02*
X163893500Y-28448000D01*
X163893500Y-28448000D02*
X161099500Y-28448000D01*
X161099500Y-28448000D02*
X161226500Y-28575000D01*
X161226500Y-28575000D02*
X163957000Y-28575000D01*
X163957000Y-28575000D02*
X163893500Y-28702000D01*
X163893500Y-28702000D02*
X161226500Y-28702000D01*
X161226500Y-28702000D02*
X161290000Y-28829000D01*
X161290000Y-28829000D02*
X163830000Y-28829000D01*
X163830000Y-28829000D02*
X163830000Y-28956000D01*
X163830000Y-28956000D02*
X161290000Y-28956000D01*
X161290000Y-28956000D02*
X161290000Y-29083000D01*
X161290000Y-29083000D02*
X163830000Y-29083000D01*
X163830000Y-29083000D02*
X163766500Y-29210000D01*
X163766500Y-29210000D02*
X161290000Y-29210000D01*
X161290000Y-29210000D02*
X161290000Y-29337000D01*
X161290000Y-29337000D02*
X163766500Y-29337000D01*
X163766500Y-29337000D02*
X163703000Y-29464000D01*
X163703000Y-29464000D02*
X161290000Y-29464000D01*
X161290000Y-29464000D02*
X161290000Y-29591000D01*
X161290000Y-29591000D02*
X163639500Y-29591000D01*
X163639500Y-29591000D02*
X163576000Y-29718000D01*
X163576000Y-29718000D02*
X161226500Y-29718000D01*
X161226500Y-29718000D02*
X161163000Y-29845000D01*
X161163000Y-29845000D02*
X163512500Y-29845000D01*
X163512500Y-29845000D02*
X163449000Y-29972000D01*
X163449000Y-29972000D02*
X161036000Y-29972000D01*
X161036000Y-29972000D02*
X160972500Y-30099000D01*
X160972500Y-30099000D02*
X163322000Y-30099000D01*
X163322000Y-30099000D02*
X163258500Y-30226000D01*
X163258500Y-30226000D02*
X160845500Y-30226000D01*
X160845500Y-30226000D02*
X160655000Y-30353000D01*
X160655000Y-30353000D02*
X163131500Y-30353000D01*
X163004500Y-30480000D02*
X162623500Y-30861000D01*
X161925000Y-31432500D02*
X161988500Y-31305500D01*
X161988500Y-31305500D02*
X162052000Y-31115000D01*
X158813500Y-31686500D02*
X159004000Y-31686500D01*
X157162500Y-30607000D02*
X157289500Y-30734000D01*
X157797500Y-31115000D02*
X157861000Y-31178500D01*
X161290000Y-29210000D02*
G75*
G03X161290000Y-29210000I-1270000J0D01*
G01*
X164020500Y-27940000D02*
X156083000Y-27940000D01*
X156083000Y-27940000D02*
X156083000Y-28067000D01*
X163195000Y-30353000D02*
X163068000Y-30480000D01*
X163068000Y-30480000D02*
X156972000Y-30480000D01*
X156972000Y-30480000D02*
X157162500Y-30607000D01*
X157162500Y-30607000D02*
X162877500Y-30607000D01*
X162877500Y-30607000D02*
X162814000Y-30734000D01*
X162814000Y-30734000D02*
X157289500Y-30734000D01*
X157289500Y-30734000D02*
X157416500Y-30861000D01*
X157416500Y-30861000D02*
X162623500Y-30861000D01*
X162623500Y-30861000D02*
X162496500Y-30988000D01*
X162496500Y-30988000D02*
X157543500Y-30988000D01*
X157543500Y-30988000D02*
X157670500Y-31115000D01*
X157670500Y-31115000D02*
X162433000Y-31115000D01*
X162433000Y-31115000D02*
X162179000Y-31242000D01*
X162179000Y-31242000D02*
X157924500Y-31242000D01*
X157924500Y-31242000D02*
X158115000Y-31369000D01*
X158115000Y-31369000D02*
X161925000Y-31369000D01*
X161925000Y-31369000D02*
X161671000Y-31496000D01*
X161671000Y-31496000D02*
X158305500Y-31496000D01*
X158305500Y-31496000D02*
X158686500Y-31623000D01*
X158686500Y-31623000D02*
X161480500Y-31623000D01*
X161480500Y-31623000D02*
X161099500Y-31750000D01*
X161099500Y-31750000D02*
X159004000Y-31750000D01*
X159004000Y-31750000D02*
X159321500Y-31813500D01*
X159321500Y-31813500D02*
X160591500Y-31813500D01*
X164020000Y-27940000D02*
G75*
G03X164020000Y-27940000I-4000000J0D01*
G01*
X159766000Y-39878000D02*
X160274000Y-39878000D01*
X160020000Y-39624000D02*
X160020000Y-40132000D01*
X159448500Y-36830000D02*
X159321500Y-36703000D01*
X159321500Y-36703000D02*
X156146500Y-36703000D01*
X163957000Y-36703000D02*
X160655000Y-36703000D01*
X163957000Y-36576000D02*
X160845500Y-36576000D01*
X160845500Y-36576000D02*
X160972500Y-36449000D01*
X160972500Y-36449000D02*
X163957000Y-36449000D01*
X163957000Y-36449000D02*
X163957000Y-36322000D01*
X163957000Y-36322000D02*
X161099500Y-36322000D01*
X161099500Y-36322000D02*
X161163000Y-36195000D01*
X161163000Y-36195000D02*
X163957000Y-36195000D01*
X163957000Y-36195000D02*
X163893500Y-36068000D01*
X163893500Y-36068000D02*
X161226500Y-36068000D01*
X161226500Y-36068000D02*
X161290000Y-35941000D01*
X161290000Y-35941000D02*
X163830000Y-35941000D01*
X163830000Y-35941000D02*
X163830000Y-35814000D01*
X163830000Y-35814000D02*
X161290000Y-35814000D01*
X161290000Y-35814000D02*
X161290000Y-35687000D01*
X161290000Y-35687000D02*
X163830000Y-35687000D01*
X163830000Y-35687000D02*
X163766500Y-35560000D01*
X163766500Y-35560000D02*
X161353500Y-35560000D01*
X161353500Y-35560000D02*
X161353500Y-35433000D01*
X161353500Y-35433000D02*
X163703000Y-35433000D01*
X163703000Y-35433000D02*
X163639500Y-35306000D01*
X163639500Y-35306000D02*
X161290000Y-35306000D01*
X161290000Y-35306000D02*
X161226500Y-35179000D01*
X161226500Y-35179000D02*
X163639500Y-35179000D01*
X163639500Y-35179000D02*
X163512500Y-35052000D01*
X163512500Y-35052000D02*
X161226500Y-35052000D01*
X161226500Y-35052000D02*
X161163000Y-34925000D01*
X161163000Y-34925000D02*
X163512500Y-34925000D01*
X163512500Y-34925000D02*
X163385500Y-34798000D01*
X163385500Y-34798000D02*
X161036000Y-34798000D01*
X161036000Y-34798000D02*
X160972500Y-34671000D01*
X160972500Y-34671000D02*
X163385500Y-34671000D01*
X163385500Y-34671000D02*
X163195000Y-34544000D01*
X163195000Y-34544000D02*
X160845500Y-34544000D01*
X160845500Y-34544000D02*
X160655000Y-34417000D01*
X160655000Y-34417000D02*
X163131500Y-34417000D01*
X156083000Y-36576000D02*
X159194500Y-36576000D01*
X159194500Y-36576000D02*
X159067500Y-36449000D01*
X159067500Y-36449000D02*
X156083000Y-36449000D01*
X156083000Y-36449000D02*
X156146500Y-36322000D01*
X156146500Y-36322000D02*
X158940500Y-36322000D01*
X158940500Y-36322000D02*
X158813500Y-36195000D01*
X158813500Y-36195000D02*
X156083000Y-36195000D01*
X156083000Y-36195000D02*
X156146500Y-36068000D01*
X156146500Y-36068000D02*
X158813500Y-36068000D01*
X158813500Y-36068000D02*
X158750000Y-35941000D01*
X158750000Y-35941000D02*
X156210000Y-35941000D01*
X156210000Y-35941000D02*
X156210000Y-35814000D01*
X156210000Y-35814000D02*
X158750000Y-35814000D01*
X158750000Y-35814000D02*
X158750000Y-35687000D01*
X158750000Y-35687000D02*
X156210000Y-35687000D01*
X156210000Y-35687000D02*
X156273500Y-35560000D01*
X156273500Y-35560000D02*
X158750000Y-35560000D01*
X158750000Y-35560000D02*
X158750000Y-35433000D01*
X158750000Y-35433000D02*
X156273500Y-35433000D01*
X156273500Y-35433000D02*
X156337000Y-35306000D01*
X156337000Y-35306000D02*
X158750000Y-35306000D01*
X158750000Y-35306000D02*
X158750000Y-35179000D01*
X158750000Y-35179000D02*
X156400500Y-35179000D01*
X156400500Y-35179000D02*
X156464000Y-35052000D01*
X156464000Y-35052000D02*
X158813500Y-35052000D01*
X158813500Y-35052000D02*
X158877000Y-34925000D01*
X158877000Y-34925000D02*
X156527500Y-34925000D01*
X156527500Y-34925000D02*
X156591000Y-34798000D01*
X156591000Y-34798000D02*
X159004000Y-34798000D01*
X159004000Y-34798000D02*
X159067500Y-34671000D01*
X159067500Y-34671000D02*
X156718000Y-34671000D01*
X156718000Y-34671000D02*
X156781500Y-34544000D01*
X156781500Y-34544000D02*
X159194500Y-34544000D01*
X159194500Y-34544000D02*
X159385000Y-34417000D01*
X159385000Y-34417000D02*
X156908500Y-34417000D01*
X157035500Y-34290000D02*
X157416500Y-33909000D01*
X158115000Y-33337500D02*
X158051500Y-33464500D01*
X158051500Y-33464500D02*
X157988000Y-33655000D01*
X161226500Y-33083500D02*
X161036000Y-33083500D01*
X162877500Y-34163000D02*
X162750500Y-34036000D01*
X162242500Y-33655000D02*
X162179000Y-33591500D01*
X161290000Y-35560000D02*
G75*
G03X161290000Y-35560000I-1270000J0D01*
G01*
X156019500Y-36830000D02*
X163957000Y-36830000D01*
X163957000Y-36830000D02*
X163957000Y-36703000D01*
X156845000Y-34417000D02*
X156972000Y-34290000D01*
X156972000Y-34290000D02*
X163068000Y-34290000D01*
X163068000Y-34290000D02*
X162877500Y-34163000D01*
X162877500Y-34163000D02*
X157162500Y-34163000D01*
X157162500Y-34163000D02*
X157226000Y-34036000D01*
X157226000Y-34036000D02*
X162750500Y-34036000D01*
X162750500Y-34036000D02*
X162623500Y-33909000D01*
X162623500Y-33909000D02*
X157416500Y-33909000D01*
X157416500Y-33909000D02*
X157543500Y-33782000D01*
X157543500Y-33782000D02*
X162496500Y-33782000D01*
X162496500Y-33782000D02*
X162369500Y-33655000D01*
X162369500Y-33655000D02*
X157607000Y-33655000D01*
X157607000Y-33655000D02*
X157861000Y-33528000D01*
X157861000Y-33528000D02*
X162115500Y-33528000D01*
X162115500Y-33528000D02*
X161925000Y-33401000D01*
X161925000Y-33401000D02*
X158115000Y-33401000D01*
X158115000Y-33401000D02*
X158369000Y-33274000D01*
X158369000Y-33274000D02*
X161734500Y-33274000D01*
X161734500Y-33274000D02*
X161353500Y-33147000D01*
X161353500Y-33147000D02*
X158559500Y-33147000D01*
X158559500Y-33147000D02*
X158940500Y-33020000D01*
X158940500Y-33020000D02*
X161036000Y-33020000D01*
X161036000Y-33020000D02*
X160718500Y-32956500D01*
X160718500Y-32956500D02*
X159448500Y-32956500D01*
X164020000Y-36830000D02*
G75*
G03X164020000Y-36830000I-4000000J0D01*
G01*
X146812000Y-41021000D02*
X146812000Y-41529000D01*
X147066000Y-41275000D02*
X146558000Y-41275000D01*
X149860000Y-40703500D02*
X149987000Y-40576500D01*
X149987000Y-40576500D02*
X149987000Y-37401500D01*
X149987000Y-45212000D02*
X149987000Y-41910000D01*
X150114000Y-45212000D02*
X150114000Y-42100500D01*
X150114000Y-42100500D02*
X150241000Y-42227500D01*
X150241000Y-42227500D02*
X150241000Y-45212000D01*
X150241000Y-45212000D02*
X150368000Y-45212000D01*
X150368000Y-45212000D02*
X150368000Y-42354500D01*
X150368000Y-42354500D02*
X150495000Y-42418000D01*
X150495000Y-42418000D02*
X150495000Y-45212000D01*
X150495000Y-45212000D02*
X150622000Y-45148500D01*
X150622000Y-45148500D02*
X150622000Y-42481500D01*
X150622000Y-42481500D02*
X150749000Y-42545000D01*
X150749000Y-42545000D02*
X150749000Y-45085000D01*
X150749000Y-45085000D02*
X150876000Y-45085000D01*
X150876000Y-45085000D02*
X150876000Y-42545000D01*
X150876000Y-42545000D02*
X151003000Y-42545000D01*
X151003000Y-42545000D02*
X151003000Y-45085000D01*
X151003000Y-45085000D02*
X151130000Y-45021500D01*
X151130000Y-45021500D02*
X151130000Y-42608500D01*
X151130000Y-42608500D02*
X151257000Y-42608500D01*
X151257000Y-42608500D02*
X151257000Y-44958000D01*
X151257000Y-44958000D02*
X151384000Y-44894500D01*
X151384000Y-44894500D02*
X151384000Y-42545000D01*
X151384000Y-42545000D02*
X151511000Y-42481500D01*
X151511000Y-42481500D02*
X151511000Y-44894500D01*
X151511000Y-44894500D02*
X151638000Y-44767500D01*
X151638000Y-44767500D02*
X151638000Y-42481500D01*
X151638000Y-42481500D02*
X151765000Y-42418000D01*
X151765000Y-42418000D02*
X151765000Y-44767500D01*
X151765000Y-44767500D02*
X151892000Y-44640500D01*
X151892000Y-44640500D02*
X151892000Y-42291000D01*
X151892000Y-42291000D02*
X152019000Y-42227500D01*
X152019000Y-42227500D02*
X152019000Y-44640500D01*
X152019000Y-44640500D02*
X152146000Y-44450000D01*
X152146000Y-44450000D02*
X152146000Y-42100500D01*
X152146000Y-42100500D02*
X152273000Y-41910000D01*
X152273000Y-41910000D02*
X152273000Y-44386500D01*
X150114000Y-37338000D02*
X150114000Y-40449500D01*
X150114000Y-40449500D02*
X150241000Y-40322500D01*
X150241000Y-40322500D02*
X150241000Y-37338000D01*
X150241000Y-37338000D02*
X150368000Y-37401500D01*
X150368000Y-37401500D02*
X150368000Y-40195500D01*
X150368000Y-40195500D02*
X150495000Y-40068500D01*
X150495000Y-40068500D02*
X150495000Y-37338000D01*
X150495000Y-37338000D02*
X150622000Y-37401500D01*
X150622000Y-37401500D02*
X150622000Y-40068500D01*
X150622000Y-40068500D02*
X150749000Y-40005000D01*
X150749000Y-40005000D02*
X150749000Y-37465000D01*
X150749000Y-37465000D02*
X150876000Y-37465000D01*
X150876000Y-37465000D02*
X150876000Y-40005000D01*
X150876000Y-40005000D02*
X151003000Y-40005000D01*
X151003000Y-40005000D02*
X151003000Y-37465000D01*
X151003000Y-37465000D02*
X151130000Y-37528500D01*
X151130000Y-37528500D02*
X151130000Y-40005000D01*
X151130000Y-40005000D02*
X151257000Y-40005000D01*
X151257000Y-40005000D02*
X151257000Y-37528500D01*
X151257000Y-37528500D02*
X151384000Y-37592000D01*
X151384000Y-37592000D02*
X151384000Y-40005000D01*
X151384000Y-40005000D02*
X151511000Y-40005000D01*
X151511000Y-40005000D02*
X151511000Y-37655500D01*
X151511000Y-37655500D02*
X151638000Y-37719000D01*
X151638000Y-37719000D02*
X151638000Y-40068500D01*
X151638000Y-40068500D02*
X151765000Y-40132000D01*
X151765000Y-40132000D02*
X151765000Y-37782500D01*
X151765000Y-37782500D02*
X151892000Y-37846000D01*
X151892000Y-37846000D02*
X151892000Y-40259000D01*
X151892000Y-40259000D02*
X152019000Y-40322500D01*
X152019000Y-40322500D02*
X152019000Y-37973000D01*
X152019000Y-37973000D02*
X152146000Y-38036500D01*
X152146000Y-38036500D02*
X152146000Y-40449500D01*
X152146000Y-40449500D02*
X152273000Y-40640000D01*
X152273000Y-40640000D02*
X152273000Y-38163500D01*
X152400000Y-38290500D02*
X152781000Y-38671500D01*
X153352500Y-39370000D02*
X153225500Y-39306500D01*
X153225500Y-39306500D02*
X153035000Y-39243000D01*
X153606500Y-42481500D02*
X153606500Y-42291000D01*
X152527000Y-44132500D02*
X152654000Y-44005500D01*
X153035000Y-43497500D02*
X153098500Y-43434000D01*
X152400000Y-41275000D02*
G75*
G03X152400000Y-41275000I-1270000J0D01*
G01*
X149860000Y-37274500D02*
X149860000Y-45212000D01*
X149860000Y-45212000D02*
X149987000Y-45212000D01*
X152273000Y-38100000D02*
X152400000Y-38227000D01*
X152400000Y-38227000D02*
X152400000Y-44323000D01*
X152400000Y-44323000D02*
X152527000Y-44132500D01*
X152527000Y-44132500D02*
X152527000Y-38417500D01*
X152527000Y-38417500D02*
X152654000Y-38481000D01*
X152654000Y-38481000D02*
X152654000Y-44005500D01*
X152654000Y-44005500D02*
X152781000Y-43878500D01*
X152781000Y-43878500D02*
X152781000Y-38671500D01*
X152781000Y-38671500D02*
X152908000Y-38798500D01*
X152908000Y-38798500D02*
X152908000Y-43751500D01*
X152908000Y-43751500D02*
X153035000Y-43624500D01*
X153035000Y-43624500D02*
X153035000Y-38862000D01*
X153035000Y-38862000D02*
X153162000Y-39116000D01*
X153162000Y-39116000D02*
X153162000Y-43370500D01*
X153162000Y-43370500D02*
X153289000Y-43180000D01*
X153289000Y-43180000D02*
X153289000Y-39370000D01*
X153289000Y-39370000D02*
X153416000Y-39624000D01*
X153416000Y-39624000D02*
X153416000Y-42989500D01*
X153416000Y-42989500D02*
X153543000Y-42608500D01*
X153543000Y-42608500D02*
X153543000Y-39814500D01*
X153543000Y-39814500D02*
X153670000Y-40195500D01*
X153670000Y-40195500D02*
X153670000Y-42291000D01*
X153670000Y-42291000D02*
X153733500Y-41973500D01*
X153733500Y-41973500D02*
X153733500Y-40703500D01*
X153860000Y-41275000D02*
G75*
G03X153860000Y-41275000I-4000000J0D01*
G01*
X157861000Y-48133000D02*
X158369000Y-48133000D01*
X158115000Y-47879000D02*
X158115000Y-48387000D01*
X157543500Y-45085000D02*
X157416500Y-44958000D01*
X157416500Y-44958000D02*
X154241500Y-44958000D01*
X162052000Y-44958000D02*
X158750000Y-44958000D01*
X162052000Y-44831000D02*
X158940500Y-44831000D01*
X158940500Y-44831000D02*
X159067500Y-44704000D01*
X159067500Y-44704000D02*
X162052000Y-44704000D01*
X162052000Y-44704000D02*
X162052000Y-44577000D01*
X162052000Y-44577000D02*
X159194500Y-44577000D01*
X159194500Y-44577000D02*
X159258000Y-44450000D01*
X159258000Y-44450000D02*
X162052000Y-44450000D01*
X162052000Y-44450000D02*
X161988500Y-44323000D01*
X161988500Y-44323000D02*
X159321500Y-44323000D01*
X159321500Y-44323000D02*
X159385000Y-44196000D01*
X159385000Y-44196000D02*
X161925000Y-44196000D01*
X161925000Y-44196000D02*
X161925000Y-44069000D01*
X161925000Y-44069000D02*
X159385000Y-44069000D01*
X159385000Y-44069000D02*
X159385000Y-43942000D01*
X159385000Y-43942000D02*
X161925000Y-43942000D01*
X161925000Y-43942000D02*
X161861500Y-43815000D01*
X161861500Y-43815000D02*
X159448500Y-43815000D01*
X159448500Y-43815000D02*
X159448500Y-43688000D01*
X159448500Y-43688000D02*
X161798000Y-43688000D01*
X161798000Y-43688000D02*
X161734500Y-43561000D01*
X161734500Y-43561000D02*
X159385000Y-43561000D01*
X159385000Y-43561000D02*
X159321500Y-43434000D01*
X159321500Y-43434000D02*
X161734500Y-43434000D01*
X161734500Y-43434000D02*
X161607500Y-43307000D01*
X161607500Y-43307000D02*
X159321500Y-43307000D01*
X159321500Y-43307000D02*
X159258000Y-43180000D01*
X159258000Y-43180000D02*
X161607500Y-43180000D01*
X161607500Y-43180000D02*
X161480500Y-43053000D01*
X161480500Y-43053000D02*
X159131000Y-43053000D01*
X159131000Y-43053000D02*
X159067500Y-42926000D01*
X159067500Y-42926000D02*
X161480500Y-42926000D01*
X161480500Y-42926000D02*
X161290000Y-42799000D01*
X161290000Y-42799000D02*
X158940500Y-42799000D01*
X158940500Y-42799000D02*
X158750000Y-42672000D01*
X158750000Y-42672000D02*
X161226500Y-42672000D01*
X154178000Y-44831000D02*
X157289500Y-44831000D01*
X157289500Y-44831000D02*
X157162500Y-44704000D01*
X157162500Y-44704000D02*
X154178000Y-44704000D01*
X154178000Y-44704000D02*
X154241500Y-44577000D01*
X154241500Y-44577000D02*
X157035500Y-44577000D01*
X157035500Y-44577000D02*
X156908500Y-44450000D01*
X156908500Y-44450000D02*
X154178000Y-44450000D01*
X154178000Y-44450000D02*
X154241500Y-44323000D01*
X154241500Y-44323000D02*
X156908500Y-44323000D01*
X156908500Y-44323000D02*
X156845000Y-44196000D01*
X156845000Y-44196000D02*
X154305000Y-44196000D01*
X154305000Y-44196000D02*
X154305000Y-44069000D01*
X154305000Y-44069000D02*
X156845000Y-44069000D01*
X156845000Y-44069000D02*
X156845000Y-43942000D01*
X156845000Y-43942000D02*
X154305000Y-43942000D01*
X154305000Y-43942000D02*
X154368500Y-43815000D01*
X154368500Y-43815000D02*
X156845000Y-43815000D01*
X156845000Y-43815000D02*
X156845000Y-43688000D01*
X156845000Y-43688000D02*
X154368500Y-43688000D01*
X154368500Y-43688000D02*
X154432000Y-43561000D01*
X154432000Y-43561000D02*
X156845000Y-43561000D01*
X156845000Y-43561000D02*
X156845000Y-43434000D01*
X156845000Y-43434000D02*
X154495500Y-43434000D01*
X154495500Y-43434000D02*
X154559000Y-43307000D01*
X154559000Y-43307000D02*
X156908500Y-43307000D01*
X156908500Y-43307000D02*
X156972000Y-43180000D01*
X156972000Y-43180000D02*
X154622500Y-43180000D01*
X154622500Y-43180000D02*
X154686000Y-43053000D01*
X154686000Y-43053000D02*
X157099000Y-43053000D01*
X157099000Y-43053000D02*
X157162500Y-42926000D01*
X157162500Y-42926000D02*
X154813000Y-42926000D01*
X154813000Y-42926000D02*
X154876500Y-42799000D01*
X154876500Y-42799000D02*
X157289500Y-42799000D01*
X157289500Y-42799000D02*
X157480000Y-42672000D01*
X157480000Y-42672000D02*
X155003500Y-42672000D01*
X155130500Y-42545000D02*
X155511500Y-42164000D01*
X156210000Y-41592500D02*
X156146500Y-41719500D01*
X156146500Y-41719500D02*
X156083000Y-41910000D01*
X159321500Y-41338500D02*
X159131000Y-41338500D01*
X160972500Y-42418000D02*
X160845500Y-42291000D01*
X160337500Y-41910000D02*
X160274000Y-41846500D01*
X159385000Y-43815000D02*
G75*
G03X159385000Y-43815000I-1270000J0D01*
G01*
X154114500Y-45085000D02*
X162052000Y-45085000D01*
X162052000Y-45085000D02*
X162052000Y-44958000D01*
X154940000Y-42672000D02*
X155067000Y-42545000D01*
X155067000Y-42545000D02*
X161163000Y-42545000D01*
X161163000Y-42545000D02*
X160972500Y-42418000D01*
X160972500Y-42418000D02*
X155257500Y-42418000D01*
X155257500Y-42418000D02*
X155321000Y-42291000D01*
X155321000Y-42291000D02*
X160845500Y-42291000D01*
X160845500Y-42291000D02*
X160718500Y-42164000D01*
X160718500Y-42164000D02*
X155511500Y-42164000D01*
X155511500Y-42164000D02*
X155638500Y-42037000D01*
X155638500Y-42037000D02*
X160591500Y-42037000D01*
X160591500Y-42037000D02*
X160464500Y-41910000D01*
X160464500Y-41910000D02*
X155702000Y-41910000D01*
X155702000Y-41910000D02*
X155956000Y-41783000D01*
X155956000Y-41783000D02*
X160210500Y-41783000D01*
X160210500Y-41783000D02*
X160020000Y-41656000D01*
X160020000Y-41656000D02*
X156210000Y-41656000D01*
X156210000Y-41656000D02*
X156464000Y-41529000D01*
X156464000Y-41529000D02*
X159829500Y-41529000D01*
X159829500Y-41529000D02*
X159448500Y-41402000D01*
X159448500Y-41402000D02*
X156654500Y-41402000D01*
X156654500Y-41402000D02*
X157035500Y-41275000D01*
X157035500Y-41275000D02*
X159131000Y-41275000D01*
X159131000Y-41275000D02*
X158813500Y-41211500D01*
X158813500Y-41211500D02*
X157543500Y-41211500D01*
X162115000Y-45085000D02*
G75*
G03X162115000Y-45085000I-4000000J0D01*
G01*
X154051000Y-167513000D02*
X154559000Y-167513000D01*
X154305000Y-167259000D02*
X154305000Y-167767000D01*
X153733500Y-164465000D02*
X153606500Y-164338000D01*
X153606500Y-164338000D02*
X150431500Y-164338000D01*
X158242000Y-164338000D02*
X154940000Y-164338000D01*
X158242000Y-164211000D02*
X155130500Y-164211000D01*
X155130500Y-164211000D02*
X155257500Y-164084000D01*
X155257500Y-164084000D02*
X158242000Y-164084000D01*
X158242000Y-164084000D02*
X158242000Y-163957000D01*
X158242000Y-163957000D02*
X155384500Y-163957000D01*
X155384500Y-163957000D02*
X155448000Y-163830000D01*
X155448000Y-163830000D02*
X158242000Y-163830000D01*
X158242000Y-163830000D02*
X158178500Y-163703000D01*
X158178500Y-163703000D02*
X155511500Y-163703000D01*
X155511500Y-163703000D02*
X155575000Y-163576000D01*
X155575000Y-163576000D02*
X158115000Y-163576000D01*
X158115000Y-163576000D02*
X158115000Y-163449000D01*
X158115000Y-163449000D02*
X155575000Y-163449000D01*
X155575000Y-163449000D02*
X155575000Y-163322000D01*
X155575000Y-163322000D02*
X158115000Y-163322000D01*
X158115000Y-163322000D02*
X158051500Y-163195000D01*
X158051500Y-163195000D02*
X155638500Y-163195000D01*
X155638500Y-163195000D02*
X155638500Y-163068000D01*
X155638500Y-163068000D02*
X157988000Y-163068000D01*
X157988000Y-163068000D02*
X157924500Y-162941000D01*
X157924500Y-162941000D02*
X155575000Y-162941000D01*
X155575000Y-162941000D02*
X155511500Y-162814000D01*
X155511500Y-162814000D02*
X157924500Y-162814000D01*
X157924500Y-162814000D02*
X157797500Y-162687000D01*
X157797500Y-162687000D02*
X155511500Y-162687000D01*
X155511500Y-162687000D02*
X155448000Y-162560000D01*
X155448000Y-162560000D02*
X157797500Y-162560000D01*
X157797500Y-162560000D02*
X157670500Y-162433000D01*
X157670500Y-162433000D02*
X155321000Y-162433000D01*
X155321000Y-162433000D02*
X155257500Y-162306000D01*
X155257500Y-162306000D02*
X157670500Y-162306000D01*
X157670500Y-162306000D02*
X157480000Y-162179000D01*
X157480000Y-162179000D02*
X155130500Y-162179000D01*
X155130500Y-162179000D02*
X154940000Y-162052000D01*
X154940000Y-162052000D02*
X157416500Y-162052000D01*
X150368000Y-164211000D02*
X153479500Y-164211000D01*
X153479500Y-164211000D02*
X153352500Y-164084000D01*
X153352500Y-164084000D02*
X150368000Y-164084000D01*
X150368000Y-164084000D02*
X150431500Y-163957000D01*
X150431500Y-163957000D02*
X153225500Y-163957000D01*
X153225500Y-163957000D02*
X153098500Y-163830000D01*
X153098500Y-163830000D02*
X150368000Y-163830000D01*
X150368000Y-163830000D02*
X150431500Y-163703000D01*
X150431500Y-163703000D02*
X153098500Y-163703000D01*
X153098500Y-163703000D02*
X153035000Y-163576000D01*
X153035000Y-163576000D02*
X150495000Y-163576000D01*
X150495000Y-163576000D02*
X150495000Y-163449000D01*
X150495000Y-163449000D02*
X153035000Y-163449000D01*
X153035000Y-163449000D02*
X153035000Y-163322000D01*
X153035000Y-163322000D02*
X150495000Y-163322000D01*
X150495000Y-163322000D02*
X150558500Y-163195000D01*
X150558500Y-163195000D02*
X153035000Y-163195000D01*
X153035000Y-163195000D02*
X153035000Y-163068000D01*
X153035000Y-163068000D02*
X150558500Y-163068000D01*
X150558500Y-163068000D02*
X150622000Y-162941000D01*
X150622000Y-162941000D02*
X153035000Y-162941000D01*
X153035000Y-162941000D02*
X153035000Y-162814000D01*
X153035000Y-162814000D02*
X150685500Y-162814000D01*
X150685500Y-162814000D02*
X150749000Y-162687000D01*
X150749000Y-162687000D02*
X153098500Y-162687000D01*
X153098500Y-162687000D02*
X153162000Y-162560000D01*
X153162000Y-162560000D02*
X150812500Y-162560000D01*
X150812500Y-162560000D02*
X150876000Y-162433000D01*
X150876000Y-162433000D02*
X153289000Y-162433000D01*
X153289000Y-162433000D02*
X153352500Y-162306000D01*
X153352500Y-162306000D02*
X151003000Y-162306000D01*
X151003000Y-162306000D02*
X151066500Y-162179000D01*
X151066500Y-162179000D02*
X153479500Y-162179000D01*
X153479500Y-162179000D02*
X153670000Y-162052000D01*
X153670000Y-162052000D02*
X151193500Y-162052000D01*
X151320500Y-161925000D02*
X151701500Y-161544000D01*
X152400000Y-160972500D02*
X152336500Y-161099500D01*
X152336500Y-161099500D02*
X152273000Y-161290000D01*
X155511500Y-160718500D02*
X155321000Y-160718500D01*
X157162500Y-161798000D02*
X157035500Y-161671000D01*
X156527500Y-161290000D02*
X156464000Y-161226500D01*
X155575000Y-163195000D02*
G75*
G03X155575000Y-163195000I-1270000J0D01*
G01*
X150304500Y-164465000D02*
X158242000Y-164465000D01*
X158242000Y-164465000D02*
X158242000Y-164338000D01*
X151130000Y-162052000D02*
X151257000Y-161925000D01*
X151257000Y-161925000D02*
X157353000Y-161925000D01*
X157353000Y-161925000D02*
X157162500Y-161798000D01*
X157162500Y-161798000D02*
X151447500Y-161798000D01*
X151447500Y-161798000D02*
X151511000Y-161671000D01*
X151511000Y-161671000D02*
X157035500Y-161671000D01*
X157035500Y-161671000D02*
X156908500Y-161544000D01*
X156908500Y-161544000D02*
X151701500Y-161544000D01*
X151701500Y-161544000D02*
X151828500Y-161417000D01*
X151828500Y-161417000D02*
X156781500Y-161417000D01*
X156781500Y-161417000D02*
X156654500Y-161290000D01*
X156654500Y-161290000D02*
X151892000Y-161290000D01*
X151892000Y-161290000D02*
X152146000Y-161163000D01*
X152146000Y-161163000D02*
X156400500Y-161163000D01*
X156400500Y-161163000D02*
X156210000Y-161036000D01*
X156210000Y-161036000D02*
X152400000Y-161036000D01*
X152400000Y-161036000D02*
X152654000Y-160909000D01*
X152654000Y-160909000D02*
X156019500Y-160909000D01*
X156019500Y-160909000D02*
X155638500Y-160782000D01*
X155638500Y-160782000D02*
X152844500Y-160782000D01*
X152844500Y-160782000D02*
X153225500Y-160655000D01*
X153225500Y-160655000D02*
X155321000Y-160655000D01*
X155321000Y-160655000D02*
X155003500Y-160591500D01*
X155003500Y-160591500D02*
X153733500Y-160591500D01*
X158305000Y-164465000D02*
G75*
G03X158305000Y-164465000I-4000000J0D01*
G01*
X145161000Y-167513000D02*
X145669000Y-167513000D01*
X145415000Y-167259000D02*
X145415000Y-167767000D01*
X144843500Y-164465000D02*
X144716500Y-164338000D01*
X144716500Y-164338000D02*
X141541500Y-164338000D01*
X149352000Y-164338000D02*
X146050000Y-164338000D01*
X149352000Y-164211000D02*
X146240500Y-164211000D01*
X146240500Y-164211000D02*
X146367500Y-164084000D01*
X146367500Y-164084000D02*
X149352000Y-164084000D01*
X149352000Y-164084000D02*
X149352000Y-163957000D01*
X149352000Y-163957000D02*
X146494500Y-163957000D01*
X146494500Y-163957000D02*
X146558000Y-163830000D01*
X146558000Y-163830000D02*
X149352000Y-163830000D01*
X149352000Y-163830000D02*
X149288500Y-163703000D01*
X149288500Y-163703000D02*
X146621500Y-163703000D01*
X146621500Y-163703000D02*
X146685000Y-163576000D01*
X146685000Y-163576000D02*
X149225000Y-163576000D01*
X149225000Y-163576000D02*
X149225000Y-163449000D01*
X149225000Y-163449000D02*
X146685000Y-163449000D01*
X146685000Y-163449000D02*
X146685000Y-163322000D01*
X146685000Y-163322000D02*
X149225000Y-163322000D01*
X149225000Y-163322000D02*
X149161500Y-163195000D01*
X149161500Y-163195000D02*
X146748500Y-163195000D01*
X146748500Y-163195000D02*
X146748500Y-163068000D01*
X146748500Y-163068000D02*
X149098000Y-163068000D01*
X149098000Y-163068000D02*
X149034500Y-162941000D01*
X149034500Y-162941000D02*
X146685000Y-162941000D01*
X146685000Y-162941000D02*
X146621500Y-162814000D01*
X146621500Y-162814000D02*
X149034500Y-162814000D01*
X149034500Y-162814000D02*
X148907500Y-162687000D01*
X148907500Y-162687000D02*
X146621500Y-162687000D01*
X146621500Y-162687000D02*
X146558000Y-162560000D01*
X146558000Y-162560000D02*
X148907500Y-162560000D01*
X148907500Y-162560000D02*
X148780500Y-162433000D01*
X148780500Y-162433000D02*
X146431000Y-162433000D01*
X146431000Y-162433000D02*
X146367500Y-162306000D01*
X146367500Y-162306000D02*
X148780500Y-162306000D01*
X148780500Y-162306000D02*
X148590000Y-162179000D01*
X148590000Y-162179000D02*
X146240500Y-162179000D01*
X146240500Y-162179000D02*
X146050000Y-162052000D01*
X146050000Y-162052000D02*
X148526500Y-162052000D01*
X141478000Y-164211000D02*
X144589500Y-164211000D01*
X144589500Y-164211000D02*
X144462500Y-164084000D01*
X144462500Y-164084000D02*
X141478000Y-164084000D01*
X141478000Y-164084000D02*
X141541500Y-163957000D01*
X141541500Y-163957000D02*
X144335500Y-163957000D01*
X144335500Y-163957000D02*
X144208500Y-163830000D01*
X144208500Y-163830000D02*
X141478000Y-163830000D01*
X141478000Y-163830000D02*
X141541500Y-163703000D01*
X141541500Y-163703000D02*
X144208500Y-163703000D01*
X144208500Y-163703000D02*
X144145000Y-163576000D01*
X144145000Y-163576000D02*
X141605000Y-163576000D01*
X141605000Y-163576000D02*
X141605000Y-163449000D01*
X141605000Y-163449000D02*
X144145000Y-163449000D01*
X144145000Y-163449000D02*
X144145000Y-163322000D01*
X144145000Y-163322000D02*
X141605000Y-163322000D01*
X141605000Y-163322000D02*
X141668500Y-163195000D01*
X141668500Y-163195000D02*
X144145000Y-163195000D01*
X144145000Y-163195000D02*
X144145000Y-163068000D01*
X144145000Y-163068000D02*
X141668500Y-163068000D01*
X141668500Y-163068000D02*
X141732000Y-162941000D01*
X141732000Y-162941000D02*
X144145000Y-162941000D01*
X144145000Y-162941000D02*
X144145000Y-162814000D01*
X144145000Y-162814000D02*
X141795500Y-162814000D01*
X141795500Y-162814000D02*
X141859000Y-162687000D01*
X141859000Y-162687000D02*
X144208500Y-162687000D01*
X144208500Y-162687000D02*
X144272000Y-162560000D01*
X144272000Y-162560000D02*
X141922500Y-162560000D01*
X141922500Y-162560000D02*
X141986000Y-162433000D01*
X141986000Y-162433000D02*
X144399000Y-162433000D01*
X144399000Y-162433000D02*
X144462500Y-162306000D01*
X144462500Y-162306000D02*
X142113000Y-162306000D01*
X142113000Y-162306000D02*
X142176500Y-162179000D01*
X142176500Y-162179000D02*
X144589500Y-162179000D01*
X144589500Y-162179000D02*
X144780000Y-162052000D01*
X144780000Y-162052000D02*
X142303500Y-162052000D01*
X142430500Y-161925000D02*
X142811500Y-161544000D01*
X143510000Y-160972500D02*
X143446500Y-161099500D01*
X143446500Y-161099500D02*
X143383000Y-161290000D01*
X146621500Y-160718500D02*
X146431000Y-160718500D01*
X148272500Y-161798000D02*
X148145500Y-161671000D01*
X147637500Y-161290000D02*
X147574000Y-161226500D01*
X146685000Y-163195000D02*
G75*
G03X146685000Y-163195000I-1270000J0D01*
G01*
X141414500Y-164465000D02*
X149352000Y-164465000D01*
X149352000Y-164465000D02*
X149352000Y-164338000D01*
X142240000Y-162052000D02*
X142367000Y-161925000D01*
X142367000Y-161925000D02*
X148463000Y-161925000D01*
X148463000Y-161925000D02*
X148272500Y-161798000D01*
X148272500Y-161798000D02*
X142557500Y-161798000D01*
X142557500Y-161798000D02*
X142621000Y-161671000D01*
X142621000Y-161671000D02*
X148145500Y-161671000D01*
X148145500Y-161671000D02*
X148018500Y-161544000D01*
X148018500Y-161544000D02*
X142811500Y-161544000D01*
X142811500Y-161544000D02*
X142938500Y-161417000D01*
X142938500Y-161417000D02*
X147891500Y-161417000D01*
X147891500Y-161417000D02*
X147764500Y-161290000D01*
X147764500Y-161290000D02*
X143002000Y-161290000D01*
X143002000Y-161290000D02*
X143256000Y-161163000D01*
X143256000Y-161163000D02*
X147510500Y-161163000D01*
X147510500Y-161163000D02*
X147320000Y-161036000D01*
X147320000Y-161036000D02*
X143510000Y-161036000D01*
X143510000Y-161036000D02*
X143764000Y-160909000D01*
X143764000Y-160909000D02*
X147129500Y-160909000D01*
X147129500Y-160909000D02*
X146748500Y-160782000D01*
X146748500Y-160782000D02*
X143954500Y-160782000D01*
X143954500Y-160782000D02*
X144335500Y-160655000D01*
X144335500Y-160655000D02*
X146431000Y-160655000D01*
X146431000Y-160655000D02*
X146113500Y-160591500D01*
X146113500Y-160591500D02*
X144843500Y-160591500D01*
X149415000Y-164465000D02*
G75*
G03X149415000Y-164465000I-4000000J0D01*
G01*
X128016000Y-83058000D02*
X128524000Y-83058000D01*
X128270000Y-82804000D02*
X128270000Y-83312000D01*
X127698500Y-80010000D02*
X127571500Y-79883000D01*
X127571500Y-79883000D02*
X124396500Y-79883000D01*
X132207000Y-79883000D02*
X128905000Y-79883000D01*
X132207000Y-79756000D02*
X129095500Y-79756000D01*
X129095500Y-79756000D02*
X129222500Y-79629000D01*
X129222500Y-79629000D02*
X132207000Y-79629000D01*
X132207000Y-79629000D02*
X132207000Y-79502000D01*
X132207000Y-79502000D02*
X129349500Y-79502000D01*
X129349500Y-79502000D02*
X129413000Y-79375000D01*
X129413000Y-79375000D02*
X132207000Y-79375000D01*
X132207000Y-79375000D02*
X132143500Y-79248000D01*
X132143500Y-79248000D02*
X129476500Y-79248000D01*
X129476500Y-79248000D02*
X129540000Y-79121000D01*
X129540000Y-79121000D02*
X132080000Y-79121000D01*
X132080000Y-79121000D02*
X132080000Y-78994000D01*
X132080000Y-78994000D02*
X129540000Y-78994000D01*
X129540000Y-78994000D02*
X129540000Y-78867000D01*
X129540000Y-78867000D02*
X132080000Y-78867000D01*
X132080000Y-78867000D02*
X132016500Y-78740000D01*
X132016500Y-78740000D02*
X129603500Y-78740000D01*
X129603500Y-78740000D02*
X129603500Y-78613000D01*
X129603500Y-78613000D02*
X131953000Y-78613000D01*
X131953000Y-78613000D02*
X131889500Y-78486000D01*
X131889500Y-78486000D02*
X129540000Y-78486000D01*
X129540000Y-78486000D02*
X129476500Y-78359000D01*
X129476500Y-78359000D02*
X131889500Y-78359000D01*
X131889500Y-78359000D02*
X131762500Y-78232000D01*
X131762500Y-78232000D02*
X129476500Y-78232000D01*
X129476500Y-78232000D02*
X129413000Y-78105000D01*
X129413000Y-78105000D02*
X131762500Y-78105000D01*
X131762500Y-78105000D02*
X131635500Y-77978000D01*
X131635500Y-77978000D02*
X129286000Y-77978000D01*
X129286000Y-77978000D02*
X129222500Y-77851000D01*
X129222500Y-77851000D02*
X131635500Y-77851000D01*
X131635500Y-77851000D02*
X131445000Y-77724000D01*
X131445000Y-77724000D02*
X129095500Y-77724000D01*
X129095500Y-77724000D02*
X128905000Y-77597000D01*
X128905000Y-77597000D02*
X131381500Y-77597000D01*
X124333000Y-79756000D02*
X127444500Y-79756000D01*
X127444500Y-79756000D02*
X127317500Y-79629000D01*
X127317500Y-79629000D02*
X124333000Y-79629000D01*
X124333000Y-79629000D02*
X124396500Y-79502000D01*
X124396500Y-79502000D02*
X127190500Y-79502000D01*
X127190500Y-79502000D02*
X127063500Y-79375000D01*
X127063500Y-79375000D02*
X124333000Y-79375000D01*
X124333000Y-79375000D02*
X124396500Y-79248000D01*
X124396500Y-79248000D02*
X127063500Y-79248000D01*
X127063500Y-79248000D02*
X127000000Y-79121000D01*
X127000000Y-79121000D02*
X124460000Y-79121000D01*
X124460000Y-79121000D02*
X124460000Y-78994000D01*
X124460000Y-78994000D02*
X127000000Y-78994000D01*
X127000000Y-78994000D02*
X127000000Y-78867000D01*
X127000000Y-78867000D02*
X124460000Y-78867000D01*
X124460000Y-78867000D02*
X124523500Y-78740000D01*
X124523500Y-78740000D02*
X127000000Y-78740000D01*
X127000000Y-78740000D02*
X127000000Y-78613000D01*
X127000000Y-78613000D02*
X124523500Y-78613000D01*
X124523500Y-78613000D02*
X124587000Y-78486000D01*
X124587000Y-78486000D02*
X127000000Y-78486000D01*
X127000000Y-78486000D02*
X127000000Y-78359000D01*
X127000000Y-78359000D02*
X124650500Y-78359000D01*
X124650500Y-78359000D02*
X124714000Y-78232000D01*
X124714000Y-78232000D02*
X127063500Y-78232000D01*
X127063500Y-78232000D02*
X127127000Y-78105000D01*
X127127000Y-78105000D02*
X124777500Y-78105000D01*
X124777500Y-78105000D02*
X124841000Y-77978000D01*
X124841000Y-77978000D02*
X127254000Y-77978000D01*
X127254000Y-77978000D02*
X127317500Y-77851000D01*
X127317500Y-77851000D02*
X124968000Y-77851000D01*
X124968000Y-77851000D02*
X125031500Y-77724000D01*
X125031500Y-77724000D02*
X127444500Y-77724000D01*
X127444500Y-77724000D02*
X127635000Y-77597000D01*
X127635000Y-77597000D02*
X125158500Y-77597000D01*
X125285500Y-77470000D02*
X125666500Y-77089000D01*
X126365000Y-76517500D02*
X126301500Y-76644500D01*
X126301500Y-76644500D02*
X126238000Y-76835000D01*
X129476500Y-76263500D02*
X129286000Y-76263500D01*
X131127500Y-77343000D02*
X131000500Y-77216000D01*
X130492500Y-76835000D02*
X130429000Y-76771500D01*
X129540000Y-78740000D02*
G75*
G03X129540000Y-78740000I-1270000J0D01*
G01*
X124269500Y-80010000D02*
X132207000Y-80010000D01*
X132207000Y-80010000D02*
X132207000Y-79883000D01*
X125095000Y-77597000D02*
X125222000Y-77470000D01*
X125222000Y-77470000D02*
X131318000Y-77470000D01*
X131318000Y-77470000D02*
X131127500Y-77343000D01*
X131127500Y-77343000D02*
X125412500Y-77343000D01*
X125412500Y-77343000D02*
X125476000Y-77216000D01*
X125476000Y-77216000D02*
X131000500Y-77216000D01*
X131000500Y-77216000D02*
X130873500Y-77089000D01*
X130873500Y-77089000D02*
X125666500Y-77089000D01*
X125666500Y-77089000D02*
X125793500Y-76962000D01*
X125793500Y-76962000D02*
X130746500Y-76962000D01*
X130746500Y-76962000D02*
X130619500Y-76835000D01*
X130619500Y-76835000D02*
X125857000Y-76835000D01*
X125857000Y-76835000D02*
X126111000Y-76708000D01*
X126111000Y-76708000D02*
X130365500Y-76708000D01*
X130365500Y-76708000D02*
X130175000Y-76581000D01*
X130175000Y-76581000D02*
X126365000Y-76581000D01*
X126365000Y-76581000D02*
X126619000Y-76454000D01*
X126619000Y-76454000D02*
X129984500Y-76454000D01*
X129984500Y-76454000D02*
X129603500Y-76327000D01*
X129603500Y-76327000D02*
X126809500Y-76327000D01*
X126809500Y-76327000D02*
X127190500Y-76200000D01*
X127190500Y-76200000D02*
X129286000Y-76200000D01*
X129286000Y-76200000D02*
X128968500Y-76136500D01*
X128968500Y-76136500D02*
X127698500Y-76136500D01*
X132270000Y-80010000D02*
G75*
G03X132270000Y-80010000I-4000000J0D01*
G01*
X127127000Y-72263000D02*
X127635000Y-72263000D01*
X127635000Y-72263000D02*
X127635000Y-71755000D01*
X127635000Y-71755000D02*
X127635000Y-72771000D01*
X127635000Y-72771000D02*
X127635000Y-72263000D01*
X127635000Y-72263000D02*
X128143000Y-72263000D01*
X128143000Y-66548000D02*
X132397500Y-66548000D01*
X132397500Y-66548000D02*
X132397500Y-66421000D01*
X132397500Y-66421000D02*
X128270000Y-66421000D01*
X128270000Y-66421000D02*
X128460500Y-66294000D01*
X128460500Y-66294000D02*
X132334000Y-66294000D01*
X132334000Y-66294000D02*
X132270500Y-66167000D01*
X132270500Y-66167000D02*
X128524000Y-66167000D01*
X128524000Y-66167000D02*
X128651000Y-66040000D01*
X128651000Y-66040000D02*
X132207000Y-66040000D01*
X132207000Y-66040000D02*
X132143500Y-65913000D01*
X132143500Y-65913000D02*
X128714500Y-65913000D01*
X128714500Y-65913000D02*
X128778000Y-65786000D01*
X128778000Y-65786000D02*
X132080000Y-65786000D01*
X132080000Y-65786000D02*
X132016500Y-65659000D01*
X132016500Y-65659000D02*
X128778000Y-65659000D01*
X128778000Y-65659000D02*
X128778000Y-65532000D01*
X128778000Y-65532000D02*
X131953000Y-65532000D01*
X131953000Y-65532000D02*
X131889500Y-65405000D01*
X131889500Y-65405000D02*
X128778000Y-65405000D01*
X128778000Y-65405000D02*
X128778000Y-65278000D01*
X128778000Y-65278000D02*
X131826000Y-65278000D01*
X131826000Y-65278000D02*
X131762500Y-65151000D01*
X131762500Y-65151000D02*
X128714500Y-65151000D01*
X128714500Y-65151000D02*
X128651000Y-65024000D01*
X128651000Y-65024000D02*
X131699000Y-65024000D01*
X131699000Y-65024000D02*
X131572000Y-64897000D01*
X131572000Y-64897000D02*
X128651000Y-64897000D01*
X128651000Y-64897000D02*
X128524000Y-64770000D01*
X128524000Y-64770000D02*
X131445000Y-64770000D01*
X131445000Y-64770000D02*
X131318000Y-64643000D01*
X131318000Y-64643000D02*
X128397000Y-64643000D01*
X128397000Y-64643000D02*
X128270000Y-64516000D01*
X128270000Y-64516000D02*
X131191000Y-64516000D01*
X131191000Y-64516000D02*
X131127500Y-64389000D01*
X131127500Y-64389000D02*
X128016000Y-64389000D01*
X127190500Y-66611500D02*
X127127000Y-66548000D01*
X122872500Y-66548000D02*
X127063500Y-66548000D01*
X127063500Y-66548000D02*
X126936500Y-66421000D01*
X126936500Y-66421000D02*
X122872500Y-66421000D01*
X122872500Y-66421000D02*
X122936000Y-66294000D01*
X122936000Y-66294000D02*
X126809500Y-66294000D01*
X126809500Y-66294000D02*
X126746000Y-66167000D01*
X126746000Y-66167000D02*
X122999500Y-66167000D01*
X122999500Y-66167000D02*
X123063000Y-66040000D01*
X123063000Y-66040000D02*
X126619000Y-66040000D01*
X126619000Y-66040000D02*
X126555500Y-65913000D01*
X126555500Y-65913000D02*
X123063000Y-65913000D01*
X123063000Y-65913000D02*
X123126500Y-65786000D01*
X123126500Y-65786000D02*
X126555500Y-65786000D01*
X126555500Y-65786000D02*
X126492000Y-65659000D01*
X126492000Y-65659000D02*
X123190000Y-65659000D01*
X123190000Y-65659000D02*
X123253500Y-65532000D01*
X123253500Y-65532000D02*
X126428500Y-65532000D01*
X126428500Y-65532000D02*
X126428500Y-65405000D01*
X126428500Y-65405000D02*
X123380500Y-65405000D01*
X123380500Y-65405000D02*
X123444000Y-65278000D01*
X123444000Y-65278000D02*
X126492000Y-65278000D01*
X126492000Y-65278000D02*
X126555500Y-65151000D01*
X126555500Y-65151000D02*
X123507500Y-65151000D01*
X123507500Y-65151000D02*
X123571000Y-65024000D01*
X123571000Y-65024000D02*
X126555500Y-65024000D01*
X126555500Y-65024000D02*
X126619000Y-64897000D01*
X126619000Y-64897000D02*
X123698000Y-64897000D01*
X123698000Y-64897000D02*
X123761500Y-64770000D01*
X123761500Y-64770000D02*
X126746000Y-64770000D01*
X126746000Y-64770000D02*
X126809500Y-64643000D01*
X126809500Y-64643000D02*
X123888500Y-64643000D01*
X123888500Y-64643000D02*
X124015500Y-64516000D01*
X124015500Y-64516000D02*
X127063500Y-64516000D01*
X127063500Y-64516000D02*
X127254000Y-64389000D01*
X127254000Y-64389000D02*
X124142500Y-64389000D01*
X125476000Y-63500000D02*
X126390400Y-63144400D01*
X127203200Y-63042800D02*
X126949200Y-63042800D01*
X128422400Y-63093600D02*
X128143000Y-63068200D01*
X129819400Y-63550800D02*
X128930400Y-63195200D01*
X122636000Y-67910000D02*
X132634000Y-67910000D01*
X122640000Y-67770000D02*
X132630000Y-67770000D01*
X122648000Y-67630000D02*
X132622000Y-67630000D01*
X122660000Y-67490000D02*
X132610000Y-67490000D01*
X122675000Y-67350000D02*
X132595000Y-67350000D01*
X122695000Y-67210000D02*
X132575000Y-67210000D01*
X122719000Y-67070000D02*
X132551000Y-67070000D01*
X122748000Y-66930000D02*
X132522000Y-66930000D01*
X122780000Y-66790000D02*
X132490000Y-66790000D01*
X122817000Y-66650000D02*
X132453000Y-66650000D01*
X124289000Y-64270000D02*
X130981000Y-64270000D01*
X124451000Y-64130000D02*
X130819000Y-64130000D01*
X124628000Y-63990000D02*
X130642000Y-63990000D01*
X124824000Y-63850000D02*
X130446000Y-63850000D01*
X125042000Y-63710000D02*
X130228000Y-63710000D01*
X125288000Y-63570000D02*
X129982000Y-63570000D01*
X125573000Y-63430000D02*
X129697000Y-63430000D01*
X125915000Y-63290000D02*
X129355000Y-63290000D01*
X126361000Y-63150000D02*
X128909000Y-63150000D01*
X127136000Y-63010000D02*
X128134000Y-63010000D01*
X128753034Y-65485000D02*
G75*
G03X128753034Y-65485000I-1118034J0D01*
G01*
X132672500Y-67985000D02*
G75*
G03X132672500Y-67985000I-5037500J0D01*
G01*
X35433000Y-162433000D02*
X35433000Y-161925000D01*
X35433000Y-161925000D02*
X34925000Y-161925000D01*
X34925000Y-161925000D02*
X35941000Y-161925000D01*
X35941000Y-161925000D02*
X35433000Y-161925000D01*
X35433000Y-161925000D02*
X35433000Y-161417000D01*
X29718000Y-161417000D02*
X29718000Y-157162500D01*
X29718000Y-157162500D02*
X29591000Y-157162500D01*
X29591000Y-157162500D02*
X29591000Y-161290000D01*
X29591000Y-161290000D02*
X29464000Y-161099500D01*
X29464000Y-161099500D02*
X29464000Y-157226000D01*
X29464000Y-157226000D02*
X29337000Y-157289500D01*
X29337000Y-157289500D02*
X29337000Y-161036000D01*
X29337000Y-161036000D02*
X29210000Y-160909000D01*
X29210000Y-160909000D02*
X29210000Y-157353000D01*
X29210000Y-157353000D02*
X29083000Y-157416500D01*
X29083000Y-157416500D02*
X29083000Y-160845500D01*
X29083000Y-160845500D02*
X28956000Y-160782000D01*
X28956000Y-160782000D02*
X28956000Y-157480000D01*
X28956000Y-157480000D02*
X28829000Y-157543500D01*
X28829000Y-157543500D02*
X28829000Y-160782000D01*
X28829000Y-160782000D02*
X28702000Y-160782000D01*
X28702000Y-160782000D02*
X28702000Y-157607000D01*
X28702000Y-157607000D02*
X28575000Y-157670500D01*
X28575000Y-157670500D02*
X28575000Y-160782000D01*
X28575000Y-160782000D02*
X28448000Y-160782000D01*
X28448000Y-160782000D02*
X28448000Y-157734000D01*
X28448000Y-157734000D02*
X28321000Y-157797500D01*
X28321000Y-157797500D02*
X28321000Y-160845500D01*
X28321000Y-160845500D02*
X28194000Y-160909000D01*
X28194000Y-160909000D02*
X28194000Y-157861000D01*
X28194000Y-157861000D02*
X28067000Y-157988000D01*
X28067000Y-157988000D02*
X28067000Y-160909000D01*
X28067000Y-160909000D02*
X27940000Y-161036000D01*
X27940000Y-161036000D02*
X27940000Y-158115000D01*
X27940000Y-158115000D02*
X27813000Y-158242000D01*
X27813000Y-158242000D02*
X27813000Y-161163000D01*
X27813000Y-161163000D02*
X27686000Y-161290000D01*
X27686000Y-161290000D02*
X27686000Y-158369000D01*
X27686000Y-158369000D02*
X27559000Y-158432500D01*
X27559000Y-158432500D02*
X27559000Y-161544000D01*
X29781500Y-162369500D02*
X29718000Y-162433000D01*
X29718000Y-166687500D02*
X29718000Y-162496500D01*
X29718000Y-162496500D02*
X29591000Y-162623500D01*
X29591000Y-162623500D02*
X29591000Y-166687500D01*
X29591000Y-166687500D02*
X29464000Y-166624000D01*
X29464000Y-166624000D02*
X29464000Y-162750500D01*
X29464000Y-162750500D02*
X29337000Y-162814000D01*
X29337000Y-162814000D02*
X29337000Y-166560500D01*
X29337000Y-166560500D02*
X29210000Y-166497000D01*
X29210000Y-166497000D02*
X29210000Y-162941000D01*
X29210000Y-162941000D02*
X29083000Y-163004500D01*
X29083000Y-163004500D02*
X29083000Y-166497000D01*
X29083000Y-166497000D02*
X28956000Y-166433500D01*
X28956000Y-166433500D02*
X28956000Y-163004500D01*
X28956000Y-163004500D02*
X28829000Y-163068000D01*
X28829000Y-163068000D02*
X28829000Y-166370000D01*
X28829000Y-166370000D02*
X28702000Y-166306500D01*
X28702000Y-166306500D02*
X28702000Y-163131500D01*
X28702000Y-163131500D02*
X28575000Y-163131500D01*
X28575000Y-163131500D02*
X28575000Y-166179500D01*
X28575000Y-166179500D02*
X28448000Y-166116000D01*
X28448000Y-166116000D02*
X28448000Y-163068000D01*
X28448000Y-163068000D02*
X28321000Y-163004500D01*
X28321000Y-163004500D02*
X28321000Y-166052500D01*
X28321000Y-166052500D02*
X28194000Y-165989000D01*
X28194000Y-165989000D02*
X28194000Y-163004500D01*
X28194000Y-163004500D02*
X28067000Y-162941000D01*
X28067000Y-162941000D02*
X28067000Y-165862000D01*
X28067000Y-165862000D02*
X27940000Y-165798500D01*
X27940000Y-165798500D02*
X27940000Y-162814000D01*
X27940000Y-162814000D02*
X27813000Y-162750500D01*
X27813000Y-162750500D02*
X27813000Y-165671500D01*
X27813000Y-165671500D02*
X27686000Y-165544500D01*
X27686000Y-165544500D02*
X27686000Y-162496500D01*
X27686000Y-162496500D02*
X27559000Y-162306000D01*
X27559000Y-162306000D02*
X27559000Y-165417500D01*
X26670000Y-164084000D02*
X26314400Y-163169600D01*
X26212800Y-162356800D02*
X26212800Y-162610800D01*
X26263600Y-161137600D02*
X26238200Y-161417000D01*
X26720800Y-159740600D02*
X26365200Y-160629600D01*
X31080000Y-166924000D02*
X31080000Y-156926000D01*
X30940000Y-166920000D02*
X30940000Y-156930000D01*
X30800000Y-166912000D02*
X30800000Y-156938000D01*
X30660000Y-166900000D02*
X30660000Y-156950000D01*
X30520000Y-166885000D02*
X30520000Y-156965000D01*
X30380000Y-166865000D02*
X30380000Y-156985000D01*
X30240000Y-166841000D02*
X30240000Y-157009000D01*
X30100000Y-166812000D02*
X30100000Y-157038000D01*
X29960000Y-166780000D02*
X29960000Y-157070000D01*
X29820000Y-166743000D02*
X29820000Y-157107000D01*
X27440000Y-165271000D02*
X27440000Y-158579000D01*
X27300000Y-165109000D02*
X27300000Y-158741000D01*
X27160000Y-164932000D02*
X27160000Y-158918000D01*
X27020000Y-164736000D02*
X27020000Y-159114000D01*
X26880000Y-164518000D02*
X26880000Y-159332000D01*
X26740000Y-164272000D02*
X26740000Y-159578000D01*
X26600000Y-163987000D02*
X26600000Y-159863000D01*
X26460000Y-163645000D02*
X26460000Y-160205000D01*
X26320000Y-163199000D02*
X26320000Y-160651000D01*
X26180000Y-162424000D02*
X26180000Y-161426000D01*
X29773034Y-161925000D02*
G75*
G03X29773034Y-161925000I-1118034J0D01*
G01*
X36192500Y-161925000D02*
G75*
G03X36192500Y-161925000I-5037500J0D01*
G01*
X46863000Y-170053000D02*
X46863000Y-169545000D01*
X46863000Y-169545000D02*
X46355000Y-169545000D01*
X46355000Y-169545000D02*
X47371000Y-169545000D01*
X47371000Y-169545000D02*
X46863000Y-169545000D01*
X46863000Y-169545000D02*
X46863000Y-169037000D01*
X41148000Y-169037000D02*
X41148000Y-164782500D01*
X41148000Y-164782500D02*
X41021000Y-164782500D01*
X41021000Y-164782500D02*
X41021000Y-168910000D01*
X41021000Y-168910000D02*
X40894000Y-168719500D01*
X40894000Y-168719500D02*
X40894000Y-164846000D01*
X40894000Y-164846000D02*
X40767000Y-164909500D01*
X40767000Y-164909500D02*
X40767000Y-168656000D01*
X40767000Y-168656000D02*
X40640000Y-168529000D01*
X40640000Y-168529000D02*
X40640000Y-164973000D01*
X40640000Y-164973000D02*
X40513000Y-165036500D01*
X40513000Y-165036500D02*
X40513000Y-168465500D01*
X40513000Y-168465500D02*
X40386000Y-168402000D01*
X40386000Y-168402000D02*
X40386000Y-165100000D01*
X40386000Y-165100000D02*
X40259000Y-165163500D01*
X40259000Y-165163500D02*
X40259000Y-168402000D01*
X40259000Y-168402000D02*
X40132000Y-168402000D01*
X40132000Y-168402000D02*
X40132000Y-165227000D01*
X40132000Y-165227000D02*
X40005000Y-165290500D01*
X40005000Y-165290500D02*
X40005000Y-168402000D01*
X40005000Y-168402000D02*
X39878000Y-168402000D01*
X39878000Y-168402000D02*
X39878000Y-165354000D01*
X39878000Y-165354000D02*
X39751000Y-165417500D01*
X39751000Y-165417500D02*
X39751000Y-168465500D01*
X39751000Y-168465500D02*
X39624000Y-168529000D01*
X39624000Y-168529000D02*
X39624000Y-165481000D01*
X39624000Y-165481000D02*
X39497000Y-165608000D01*
X39497000Y-165608000D02*
X39497000Y-168529000D01*
X39497000Y-168529000D02*
X39370000Y-168656000D01*
X39370000Y-168656000D02*
X39370000Y-165735000D01*
X39370000Y-165735000D02*
X39243000Y-165862000D01*
X39243000Y-165862000D02*
X39243000Y-168783000D01*
X39243000Y-168783000D02*
X39116000Y-168910000D01*
X39116000Y-168910000D02*
X39116000Y-165989000D01*
X39116000Y-165989000D02*
X38989000Y-166052500D01*
X38989000Y-166052500D02*
X38989000Y-169164000D01*
X41211500Y-169989500D02*
X41148000Y-170053000D01*
X41148000Y-174307500D02*
X41148000Y-170116500D01*
X41148000Y-170116500D02*
X41021000Y-170243500D01*
X41021000Y-170243500D02*
X41021000Y-174307500D01*
X41021000Y-174307500D02*
X40894000Y-174244000D01*
X40894000Y-174244000D02*
X40894000Y-170370500D01*
X40894000Y-170370500D02*
X40767000Y-170434000D01*
X40767000Y-170434000D02*
X40767000Y-174180500D01*
X40767000Y-174180500D02*
X40640000Y-174117000D01*
X40640000Y-174117000D02*
X40640000Y-170561000D01*
X40640000Y-170561000D02*
X40513000Y-170624500D01*
X40513000Y-170624500D02*
X40513000Y-174117000D01*
X40513000Y-174117000D02*
X40386000Y-174053500D01*
X40386000Y-174053500D02*
X40386000Y-170624500D01*
X40386000Y-170624500D02*
X40259000Y-170688000D01*
X40259000Y-170688000D02*
X40259000Y-173990000D01*
X40259000Y-173990000D02*
X40132000Y-173926500D01*
X40132000Y-173926500D02*
X40132000Y-170751500D01*
X40132000Y-170751500D02*
X40005000Y-170751500D01*
X40005000Y-170751500D02*
X40005000Y-173799500D01*
X40005000Y-173799500D02*
X39878000Y-173736000D01*
X39878000Y-173736000D02*
X39878000Y-170688000D01*
X39878000Y-170688000D02*
X39751000Y-170624500D01*
X39751000Y-170624500D02*
X39751000Y-173672500D01*
X39751000Y-173672500D02*
X39624000Y-173609000D01*
X39624000Y-173609000D02*
X39624000Y-170624500D01*
X39624000Y-170624500D02*
X39497000Y-170561000D01*
X39497000Y-170561000D02*
X39497000Y-173482000D01*
X39497000Y-173482000D02*
X39370000Y-173418500D01*
X39370000Y-173418500D02*
X39370000Y-170434000D01*
X39370000Y-170434000D02*
X39243000Y-170370500D01*
X39243000Y-170370500D02*
X39243000Y-173291500D01*
X39243000Y-173291500D02*
X39116000Y-173164500D01*
X39116000Y-173164500D02*
X39116000Y-170116500D01*
X39116000Y-170116500D02*
X38989000Y-169926000D01*
X38989000Y-169926000D02*
X38989000Y-173037500D01*
X38100000Y-171704000D02*
X37744400Y-170789600D01*
X37642800Y-169976800D02*
X37642800Y-170230800D01*
X37693600Y-168757600D02*
X37668200Y-169037000D01*
X38150800Y-167360600D02*
X37795200Y-168249600D01*
X42510000Y-174544000D02*
X42510000Y-164546000D01*
X42370000Y-174540000D02*
X42370000Y-164550000D01*
X42230000Y-174532000D02*
X42230000Y-164558000D01*
X42090000Y-174520000D02*
X42090000Y-164570000D01*
X41950000Y-174505000D02*
X41950000Y-164585000D01*
X41810000Y-174485000D02*
X41810000Y-164605000D01*
X41670000Y-174461000D02*
X41670000Y-164629000D01*
X41530000Y-174432000D02*
X41530000Y-164658000D01*
X41390000Y-174400000D02*
X41390000Y-164690000D01*
X41250000Y-174363000D02*
X41250000Y-164727000D01*
X38870000Y-172891000D02*
X38870000Y-166199000D01*
X38730000Y-172729000D02*
X38730000Y-166361000D01*
X38590000Y-172552000D02*
X38590000Y-166538000D01*
X38450000Y-172356000D02*
X38450000Y-166734000D01*
X38310000Y-172138000D02*
X38310000Y-166952000D01*
X38170000Y-171892000D02*
X38170000Y-167198000D01*
X38030000Y-171607000D02*
X38030000Y-167483000D01*
X37890000Y-171265000D02*
X37890000Y-167825000D01*
X37750000Y-170819000D02*
X37750000Y-168271000D01*
X37610000Y-170044000D02*
X37610000Y-169046000D01*
X41203034Y-169545000D02*
G75*
G03X41203034Y-169545000I-1118034J0D01*
G01*
X47622500Y-169545000D02*
G75*
G03X47622500Y-169545000I-5037500J0D01*
G01*
X53467000Y-169037000D02*
X53467000Y-169545000D01*
X53467000Y-169545000D02*
X53975000Y-169545000D01*
X53975000Y-169545000D02*
X52959000Y-169545000D01*
X52959000Y-169545000D02*
X53467000Y-169545000D01*
X53467000Y-169545000D02*
X53467000Y-170053000D01*
X59182000Y-170053000D02*
X59182000Y-174307500D01*
X59182000Y-174307500D02*
X59309000Y-174307500D01*
X59309000Y-174307500D02*
X59309000Y-170180000D01*
X59309000Y-170180000D02*
X59436000Y-170370500D01*
X59436000Y-170370500D02*
X59436000Y-174244000D01*
X59436000Y-174244000D02*
X59563000Y-174180500D01*
X59563000Y-174180500D02*
X59563000Y-170434000D01*
X59563000Y-170434000D02*
X59690000Y-170561000D01*
X59690000Y-170561000D02*
X59690000Y-174117000D01*
X59690000Y-174117000D02*
X59817000Y-174053500D01*
X59817000Y-174053500D02*
X59817000Y-170624500D01*
X59817000Y-170624500D02*
X59944000Y-170688000D01*
X59944000Y-170688000D02*
X59944000Y-173990000D01*
X59944000Y-173990000D02*
X60071000Y-173926500D01*
X60071000Y-173926500D02*
X60071000Y-170688000D01*
X60071000Y-170688000D02*
X60198000Y-170688000D01*
X60198000Y-170688000D02*
X60198000Y-173863000D01*
X60198000Y-173863000D02*
X60325000Y-173799500D01*
X60325000Y-173799500D02*
X60325000Y-170688000D01*
X60325000Y-170688000D02*
X60452000Y-170688000D01*
X60452000Y-170688000D02*
X60452000Y-173736000D01*
X60452000Y-173736000D02*
X60579000Y-173672500D01*
X60579000Y-173672500D02*
X60579000Y-170624500D01*
X60579000Y-170624500D02*
X60706000Y-170561000D01*
X60706000Y-170561000D02*
X60706000Y-173609000D01*
X60706000Y-173609000D02*
X60833000Y-173482000D01*
X60833000Y-173482000D02*
X60833000Y-170561000D01*
X60833000Y-170561000D02*
X60960000Y-170434000D01*
X60960000Y-170434000D02*
X60960000Y-173355000D01*
X60960000Y-173355000D02*
X61087000Y-173228000D01*
X61087000Y-173228000D02*
X61087000Y-170307000D01*
X61087000Y-170307000D02*
X61214000Y-170180000D01*
X61214000Y-170180000D02*
X61214000Y-173101000D01*
X61214000Y-173101000D02*
X61341000Y-173037500D01*
X61341000Y-173037500D02*
X61341000Y-169926000D01*
X59118500Y-169100500D02*
X59182000Y-169037000D01*
X59182000Y-164782500D02*
X59182000Y-168973500D01*
X59182000Y-168973500D02*
X59309000Y-168846500D01*
X59309000Y-168846500D02*
X59309000Y-164782500D01*
X59309000Y-164782500D02*
X59436000Y-164846000D01*
X59436000Y-164846000D02*
X59436000Y-168719500D01*
X59436000Y-168719500D02*
X59563000Y-168656000D01*
X59563000Y-168656000D02*
X59563000Y-164909500D01*
X59563000Y-164909500D02*
X59690000Y-164973000D01*
X59690000Y-164973000D02*
X59690000Y-168529000D01*
X59690000Y-168529000D02*
X59817000Y-168465500D01*
X59817000Y-168465500D02*
X59817000Y-164973000D01*
X59817000Y-164973000D02*
X59944000Y-165036500D01*
X59944000Y-165036500D02*
X59944000Y-168465500D01*
X59944000Y-168465500D02*
X60071000Y-168402000D01*
X60071000Y-168402000D02*
X60071000Y-165100000D01*
X60071000Y-165100000D02*
X60198000Y-165163500D01*
X60198000Y-165163500D02*
X60198000Y-168338500D01*
X60198000Y-168338500D02*
X60325000Y-168338500D01*
X60325000Y-168338500D02*
X60325000Y-165290500D01*
X60325000Y-165290500D02*
X60452000Y-165354000D01*
X60452000Y-165354000D02*
X60452000Y-168402000D01*
X60452000Y-168402000D02*
X60579000Y-168465500D01*
X60579000Y-168465500D02*
X60579000Y-165417500D01*
X60579000Y-165417500D02*
X60706000Y-165481000D01*
X60706000Y-165481000D02*
X60706000Y-168465500D01*
X60706000Y-168465500D02*
X60833000Y-168529000D01*
X60833000Y-168529000D02*
X60833000Y-165608000D01*
X60833000Y-165608000D02*
X60960000Y-165671500D01*
X60960000Y-165671500D02*
X60960000Y-168656000D01*
X60960000Y-168656000D02*
X61087000Y-168719500D01*
X61087000Y-168719500D02*
X61087000Y-165798500D01*
X61087000Y-165798500D02*
X61214000Y-165925500D01*
X61214000Y-165925500D02*
X61214000Y-168973500D01*
X61214000Y-168973500D02*
X61341000Y-169164000D01*
X61341000Y-169164000D02*
X61341000Y-166052500D01*
X62230000Y-167386000D02*
X62585600Y-168300400D01*
X62687200Y-169113200D02*
X62687200Y-168859200D01*
X62636400Y-170332400D02*
X62661800Y-170053000D01*
X62179200Y-171729400D02*
X62534800Y-170840400D01*
X57820000Y-164546000D02*
X57820000Y-174544000D01*
X57960000Y-164550000D02*
X57960000Y-174540000D01*
X58100000Y-164558000D02*
X58100000Y-174532000D01*
X58240000Y-164570000D02*
X58240000Y-174520000D01*
X58380000Y-164585000D02*
X58380000Y-174505000D01*
X58520000Y-164605000D02*
X58520000Y-174485000D01*
X58660000Y-164629000D02*
X58660000Y-174461000D01*
X58800000Y-164658000D02*
X58800000Y-174432000D01*
X58940000Y-164690000D02*
X58940000Y-174400000D01*
X59080000Y-164727000D02*
X59080000Y-174363000D01*
X61460000Y-166199000D02*
X61460000Y-172891000D01*
X61600000Y-166361000D02*
X61600000Y-172729000D01*
X61740000Y-166538000D02*
X61740000Y-172552000D01*
X61880000Y-166734000D02*
X61880000Y-172356000D01*
X62020000Y-166952000D02*
X62020000Y-172138000D01*
X62160000Y-167198000D02*
X62160000Y-171892000D01*
X62300000Y-167483000D02*
X62300000Y-171607000D01*
X62440000Y-167825000D02*
X62440000Y-171265000D01*
X62580000Y-168271000D02*
X62580000Y-170819000D01*
X62720000Y-169046000D02*
X62720000Y-170044000D01*
X61363034Y-169545000D02*
G75*
G03X61363034Y-169545000I-1118034J0D01*
G01*
X62782500Y-169545000D02*
G75*
G03X62782500Y-169545000I-5037500J0D01*
G01*
X69723000Y-160147000D02*
X69215000Y-160147000D01*
X69215000Y-160147000D02*
X69215000Y-160655000D01*
X69215000Y-160655000D02*
X69215000Y-159639000D01*
X69215000Y-159639000D02*
X69215000Y-160147000D01*
X69215000Y-160147000D02*
X68707000Y-160147000D01*
X68707000Y-165862000D02*
X64452500Y-165862000D01*
X64452500Y-165862000D02*
X64452500Y-165989000D01*
X64452500Y-165989000D02*
X68580000Y-165989000D01*
X68580000Y-165989000D02*
X68389500Y-166116000D01*
X68389500Y-166116000D02*
X64516000Y-166116000D01*
X64516000Y-166116000D02*
X64579500Y-166243000D01*
X64579500Y-166243000D02*
X68326000Y-166243000D01*
X68326000Y-166243000D02*
X68199000Y-166370000D01*
X68199000Y-166370000D02*
X64643000Y-166370000D01*
X64643000Y-166370000D02*
X64706500Y-166497000D01*
X64706500Y-166497000D02*
X68135500Y-166497000D01*
X68135500Y-166497000D02*
X68072000Y-166624000D01*
X68072000Y-166624000D02*
X64770000Y-166624000D01*
X64770000Y-166624000D02*
X64833500Y-166751000D01*
X64833500Y-166751000D02*
X68072000Y-166751000D01*
X68072000Y-166751000D02*
X68072000Y-166878000D01*
X68072000Y-166878000D02*
X64897000Y-166878000D01*
X64897000Y-166878000D02*
X64960500Y-167005000D01*
X64960500Y-167005000D02*
X68072000Y-167005000D01*
X68072000Y-167005000D02*
X68072000Y-167132000D01*
X68072000Y-167132000D02*
X65024000Y-167132000D01*
X65024000Y-167132000D02*
X65087500Y-167259000D01*
X65087500Y-167259000D02*
X68135500Y-167259000D01*
X68135500Y-167259000D02*
X68199000Y-167386000D01*
X68199000Y-167386000D02*
X65151000Y-167386000D01*
X65151000Y-167386000D02*
X65278000Y-167513000D01*
X65278000Y-167513000D02*
X68199000Y-167513000D01*
X68199000Y-167513000D02*
X68326000Y-167640000D01*
X68326000Y-167640000D02*
X65405000Y-167640000D01*
X65405000Y-167640000D02*
X65532000Y-167767000D01*
X65532000Y-167767000D02*
X68453000Y-167767000D01*
X68453000Y-167767000D02*
X68580000Y-167894000D01*
X68580000Y-167894000D02*
X65659000Y-167894000D01*
X65659000Y-167894000D02*
X65722500Y-168021000D01*
X65722500Y-168021000D02*
X68834000Y-168021000D01*
X69659500Y-165798500D02*
X69723000Y-165862000D01*
X73977500Y-165862000D02*
X69786500Y-165862000D01*
X69786500Y-165862000D02*
X69913500Y-165989000D01*
X69913500Y-165989000D02*
X73977500Y-165989000D01*
X73977500Y-165989000D02*
X73914000Y-166116000D01*
X73914000Y-166116000D02*
X70040500Y-166116000D01*
X70040500Y-166116000D02*
X70104000Y-166243000D01*
X70104000Y-166243000D02*
X73850500Y-166243000D01*
X73850500Y-166243000D02*
X73787000Y-166370000D01*
X73787000Y-166370000D02*
X70231000Y-166370000D01*
X70231000Y-166370000D02*
X70294500Y-166497000D01*
X70294500Y-166497000D02*
X73787000Y-166497000D01*
X73787000Y-166497000D02*
X73723500Y-166624000D01*
X73723500Y-166624000D02*
X70294500Y-166624000D01*
X70294500Y-166624000D02*
X70358000Y-166751000D01*
X70358000Y-166751000D02*
X73660000Y-166751000D01*
X73660000Y-166751000D02*
X73596500Y-166878000D01*
X73596500Y-166878000D02*
X70421500Y-166878000D01*
X70421500Y-166878000D02*
X70421500Y-167005000D01*
X70421500Y-167005000D02*
X73469500Y-167005000D01*
X73469500Y-167005000D02*
X73406000Y-167132000D01*
X73406000Y-167132000D02*
X70358000Y-167132000D01*
X70358000Y-167132000D02*
X70294500Y-167259000D01*
X70294500Y-167259000D02*
X73342500Y-167259000D01*
X73342500Y-167259000D02*
X73279000Y-167386000D01*
X73279000Y-167386000D02*
X70294500Y-167386000D01*
X70294500Y-167386000D02*
X70231000Y-167513000D01*
X70231000Y-167513000D02*
X73152000Y-167513000D01*
X73152000Y-167513000D02*
X73088500Y-167640000D01*
X73088500Y-167640000D02*
X70104000Y-167640000D01*
X70104000Y-167640000D02*
X70040500Y-167767000D01*
X70040500Y-167767000D02*
X72961500Y-167767000D01*
X72961500Y-167767000D02*
X72834500Y-167894000D01*
X72834500Y-167894000D02*
X69786500Y-167894000D01*
X69786500Y-167894000D02*
X69596000Y-168021000D01*
X69596000Y-168021000D02*
X72707500Y-168021000D01*
X71374000Y-168910000D02*
X70459600Y-169265600D01*
X69646800Y-169367200D02*
X69900800Y-169367200D01*
X68427600Y-169316400D02*
X68707000Y-169341800D01*
X67030600Y-168859200D02*
X67919600Y-169214800D01*
X74214000Y-164500000D02*
X64216000Y-164500000D01*
X74210000Y-164640000D02*
X64220000Y-164640000D01*
X74202000Y-164780000D02*
X64228000Y-164780000D01*
X74190000Y-164920000D02*
X64240000Y-164920000D01*
X74175000Y-165060000D02*
X64255000Y-165060000D01*
X74155000Y-165200000D02*
X64275000Y-165200000D01*
X74131000Y-165340000D02*
X64299000Y-165340000D01*
X74102000Y-165480000D02*
X64328000Y-165480000D01*
X74070000Y-165620000D02*
X64360000Y-165620000D01*
X74033000Y-165760000D02*
X64397000Y-165760000D01*
X72561000Y-168140000D02*
X65869000Y-168140000D01*
X72399000Y-168280000D02*
X66031000Y-168280000D01*
X72222000Y-168420000D02*
X66208000Y-168420000D01*
X72026000Y-168560000D02*
X66404000Y-168560000D01*
X71808000Y-168700000D02*
X66622000Y-168700000D01*
X71562000Y-168840000D02*
X66868000Y-168840000D01*
X71277000Y-168980000D02*
X67153000Y-168980000D01*
X70935000Y-169120000D02*
X67495000Y-169120000D01*
X70489000Y-169260000D02*
X67941000Y-169260000D01*
X69714000Y-169400000D02*
X68716000Y-169400000D01*
X70333034Y-166925000D02*
G75*
G03X70333034Y-166925000I-1118034J0D01*
G01*
X74252500Y-164425000D02*
G75*
G03X74252500Y-164425000I-5037500J0D01*
G01*
X118618000Y-87122000D02*
X118110000Y-87122000D01*
X118110000Y-87122000D02*
X118110000Y-87630000D01*
X118110000Y-87630000D02*
X118110000Y-86614000D01*
X118110000Y-86614000D02*
X118110000Y-87122000D01*
X118110000Y-87122000D02*
X117602000Y-87122000D01*
X117602000Y-92837000D02*
X113347500Y-92837000D01*
X113347500Y-92837000D02*
X113347500Y-92964000D01*
X113347500Y-92964000D02*
X117475000Y-92964000D01*
X117475000Y-92964000D02*
X117284500Y-93091000D01*
X117284500Y-93091000D02*
X113411000Y-93091000D01*
X113411000Y-93091000D02*
X113474500Y-93218000D01*
X113474500Y-93218000D02*
X117221000Y-93218000D01*
X117221000Y-93218000D02*
X117094000Y-93345000D01*
X117094000Y-93345000D02*
X113538000Y-93345000D01*
X113538000Y-93345000D02*
X113601500Y-93472000D01*
X113601500Y-93472000D02*
X117030500Y-93472000D01*
X117030500Y-93472000D02*
X116967000Y-93599000D01*
X116967000Y-93599000D02*
X113665000Y-93599000D01*
X113665000Y-93599000D02*
X113728500Y-93726000D01*
X113728500Y-93726000D02*
X116967000Y-93726000D01*
X116967000Y-93726000D02*
X116967000Y-93853000D01*
X116967000Y-93853000D02*
X113792000Y-93853000D01*
X113792000Y-93853000D02*
X113855500Y-93980000D01*
X113855500Y-93980000D02*
X116967000Y-93980000D01*
X116967000Y-93980000D02*
X116967000Y-94107000D01*
X116967000Y-94107000D02*
X113919000Y-94107000D01*
X113919000Y-94107000D02*
X113982500Y-94234000D01*
X113982500Y-94234000D02*
X117030500Y-94234000D01*
X117030500Y-94234000D02*
X117094000Y-94361000D01*
X117094000Y-94361000D02*
X114046000Y-94361000D01*
X114046000Y-94361000D02*
X114173000Y-94488000D01*
X114173000Y-94488000D02*
X117094000Y-94488000D01*
X117094000Y-94488000D02*
X117221000Y-94615000D01*
X117221000Y-94615000D02*
X114300000Y-94615000D01*
X114300000Y-94615000D02*
X114427000Y-94742000D01*
X114427000Y-94742000D02*
X117348000Y-94742000D01*
X117348000Y-94742000D02*
X117475000Y-94869000D01*
X117475000Y-94869000D02*
X114554000Y-94869000D01*
X114554000Y-94869000D02*
X114617500Y-94996000D01*
X114617500Y-94996000D02*
X117729000Y-94996000D01*
X118554500Y-92773500D02*
X118618000Y-92837000D01*
X122872500Y-92837000D02*
X118681500Y-92837000D01*
X118681500Y-92837000D02*
X118808500Y-92964000D01*
X118808500Y-92964000D02*
X122872500Y-92964000D01*
X122872500Y-92964000D02*
X122809000Y-93091000D01*
X122809000Y-93091000D02*
X118935500Y-93091000D01*
X118935500Y-93091000D02*
X118999000Y-93218000D01*
X118999000Y-93218000D02*
X122745500Y-93218000D01*
X122745500Y-93218000D02*
X122682000Y-93345000D01*
X122682000Y-93345000D02*
X119126000Y-93345000D01*
X119126000Y-93345000D02*
X119189500Y-93472000D01*
X119189500Y-93472000D02*
X122682000Y-93472000D01*
X122682000Y-93472000D02*
X122618500Y-93599000D01*
X122618500Y-93599000D02*
X119189500Y-93599000D01*
X119189500Y-93599000D02*
X119253000Y-93726000D01*
X119253000Y-93726000D02*
X122555000Y-93726000D01*
X122555000Y-93726000D02*
X122491500Y-93853000D01*
X122491500Y-93853000D02*
X119316500Y-93853000D01*
X119316500Y-93853000D02*
X119316500Y-93980000D01*
X119316500Y-93980000D02*
X122364500Y-93980000D01*
X122364500Y-93980000D02*
X122301000Y-94107000D01*
X122301000Y-94107000D02*
X119253000Y-94107000D01*
X119253000Y-94107000D02*
X119189500Y-94234000D01*
X119189500Y-94234000D02*
X122237500Y-94234000D01*
X122237500Y-94234000D02*
X122174000Y-94361000D01*
X122174000Y-94361000D02*
X119189500Y-94361000D01*
X119189500Y-94361000D02*
X119126000Y-94488000D01*
X119126000Y-94488000D02*
X122047000Y-94488000D01*
X122047000Y-94488000D02*
X121983500Y-94615000D01*
X121983500Y-94615000D02*
X118999000Y-94615000D01*
X118999000Y-94615000D02*
X118935500Y-94742000D01*
X118935500Y-94742000D02*
X121856500Y-94742000D01*
X121856500Y-94742000D02*
X121729500Y-94869000D01*
X121729500Y-94869000D02*
X118681500Y-94869000D01*
X118681500Y-94869000D02*
X118491000Y-94996000D01*
X118491000Y-94996000D02*
X121602500Y-94996000D01*
X120269000Y-95885000D02*
X119354600Y-96240600D01*
X118541800Y-96342200D02*
X118795800Y-96342200D01*
X117322600Y-96291400D02*
X117602000Y-96316800D01*
X115925600Y-95834200D02*
X116814600Y-96189800D01*
X123109000Y-91475000D02*
X113111000Y-91475000D01*
X123105000Y-91615000D02*
X113115000Y-91615000D01*
X123097000Y-91755000D02*
X113123000Y-91755000D01*
X123085000Y-91895000D02*
X113135000Y-91895000D01*
X123070000Y-92035000D02*
X113150000Y-92035000D01*
X123050000Y-92175000D02*
X113170000Y-92175000D01*
X123026000Y-92315000D02*
X113194000Y-92315000D01*
X122997000Y-92455000D02*
X113223000Y-92455000D01*
X122965000Y-92595000D02*
X113255000Y-92595000D01*
X122928000Y-92735000D02*
X113292000Y-92735000D01*
X121456000Y-95115000D02*
X114764000Y-95115000D01*
X121294000Y-95255000D02*
X114926000Y-95255000D01*
X121117000Y-95395000D02*
X115103000Y-95395000D01*
X120921000Y-95535000D02*
X115299000Y-95535000D01*
X120703000Y-95675000D02*
X115517000Y-95675000D01*
X120457000Y-95815000D02*
X115763000Y-95815000D01*
X120172000Y-95955000D02*
X116048000Y-95955000D01*
X119830000Y-96095000D02*
X116390000Y-96095000D01*
X119384000Y-96235000D02*
X116836000Y-96235000D01*
X118609000Y-96375000D02*
X117611000Y-96375000D01*
X119228034Y-93900000D02*
G75*
G03X119228034Y-93900000I-1118034J0D01*
G01*
X123147500Y-91400000D02*
G75*
G03X123147500Y-91400000I-5037500J0D01*
G01*
X82267305Y-47986990D02*
G75*
G03X82755000Y-48690000I2187695J996990D01*
G01*
X86642695Y-47986990D02*
G75*
G02X86155000Y-48690000I-2187695J996990D01*
G01*
X82755000Y-48690000D02*
X86155000Y-48690000D01*
X82270121Y-45996873D02*
G75*
G02X84455000Y-44590000I2184879J-993127D01*
G01*
X86639879Y-45996873D02*
G75*
G03X84455000Y-44590000I-2184879J-993127D01*
G01*
X84102695Y-157118010D02*
G75*
G03X83615000Y-156415000I-2187695J-996990D01*
G01*
X79727305Y-157118010D02*
G75*
G02X80215000Y-156415000I2187695J-996990D01*
G01*
X83615000Y-156415000D02*
X80215000Y-156415000D01*
X84099879Y-159108127D02*
G75*
G02X81915000Y-160515000I-2184879J993127D01*
G01*
X79730121Y-159108127D02*
G75*
G03X81915000Y-160515000I2184879J993127D01*
G01*
X96802695Y-157118010D02*
G75*
G03X96315000Y-156415000I-2187695J-996990D01*
G01*
X92427305Y-157118010D02*
G75*
G02X92915000Y-156415000I2187695J-996990D01*
G01*
X96315000Y-156415000D02*
X92915000Y-156415000D01*
X96799879Y-159108127D02*
G75*
G02X94615000Y-160515000I-2184879J993127D01*
G01*
X92430121Y-159108127D02*
G75*
G03X94615000Y-160515000I2184879J993127D01*
G01*
X115852695Y-157118010D02*
G75*
G03X115365000Y-156415000I-2187695J-996990D01*
G01*
X111477305Y-157118010D02*
G75*
G02X111965000Y-156415000I2187695J-996990D01*
G01*
X115365000Y-156415000D02*
X111965000Y-156415000D01*
X115849879Y-159108127D02*
G75*
G02X113665000Y-160515000I-2184879J993127D01*
G01*
X111480121Y-159108127D02*
G75*
G03X113665000Y-160515000I2184879J993127D01*
G01*
X128552695Y-157118010D02*
G75*
G03X128065000Y-156415000I-2187695J-996990D01*
G01*
X124177305Y-157118010D02*
G75*
G02X124665000Y-156415000I2187695J-996990D01*
G01*
X128065000Y-156415000D02*
X124665000Y-156415000D01*
X128549879Y-159108127D02*
G75*
G02X126365000Y-160515000I-2184879J993127D01*
G01*
X124180121Y-159108127D02*
G75*
G03X126365000Y-160515000I2184879J993127D01*
G01*
X126717305Y-39731990D02*
G75*
G03X127205000Y-40435000I2187695J996990D01*
G01*
X131092695Y-39731990D02*
G75*
G02X130605000Y-40435000I-2187695J996990D01*
G01*
X127205000Y-40435000D02*
X130605000Y-40435000D01*
X126720121Y-37741873D02*
G75*
G02X128905000Y-36335000I2184879J-993127D01*
G01*
X131089879Y-37741873D02*
G75*
G03X128905000Y-36335000I-2184879J-993127D01*
G01*
X126717305Y-44811990D02*
G75*
G03X127205000Y-45515000I2187695J996990D01*
G01*
X131092695Y-44811990D02*
G75*
G02X130605000Y-45515000I-2187695J996990D01*
G01*
X127205000Y-45515000D02*
X130605000Y-45515000D01*
X126720121Y-42821873D02*
G75*
G02X128905000Y-41415000I2184879J-993127D01*
G01*
X131089879Y-42821873D02*
G75*
G03X128905000Y-41415000I-2184879J-993127D01*
G01*
X99060000Y-121285000D02*
X99060000Y-118745000D01*
X99060000Y-118745000D02*
X101600000Y-118745000D01*
X101600000Y-118745000D02*
X101600000Y-121285000D01*
X101600000Y-123825000D02*
X101600000Y-126365000D01*
X101600000Y-126365000D02*
X99060000Y-126365000D01*
X99060000Y-126365000D02*
X99060000Y-123825000D01*
X99060000Y-123825000D02*
X99060000Y-121285000D01*
X101600000Y-123825000D02*
X101600000Y-121285000D01*
X144780000Y-126365000D02*
X147320000Y-126365000D01*
X147320000Y-126365000D02*
X147320000Y-128905000D01*
X147320000Y-128905000D02*
X144780000Y-128905000D01*
X142240000Y-128905000D02*
X139700000Y-128905000D01*
X139700000Y-128905000D02*
X139700000Y-126365000D01*
X139700000Y-126365000D02*
X142240000Y-126365000D01*
X142240000Y-126365000D02*
X144780000Y-126365000D01*
X142240000Y-128905000D02*
X144780000Y-128905000D01*
X118745000Y-66675000D02*
X121285000Y-66675000D01*
X121285000Y-66675000D02*
X121285000Y-69215000D01*
X121285000Y-69215000D02*
X118745000Y-69215000D01*
X116205000Y-69215000D02*
X113665000Y-69215000D01*
X113665000Y-69215000D02*
X113665000Y-66675000D01*
X113665000Y-66675000D02*
X116205000Y-66675000D01*
X116205000Y-66675000D02*
X118745000Y-66675000D01*
X116205000Y-69215000D02*
X118745000Y-69215000D01*
X128270000Y-57150000D02*
X130810000Y-57150000D01*
X130810000Y-57150000D02*
X130810000Y-59690000D01*
X130810000Y-59690000D02*
X128270000Y-59690000D01*
X125730000Y-59690000D02*
X123190000Y-59690000D01*
X123190000Y-59690000D02*
X123190000Y-57150000D01*
X123190000Y-57150000D02*
X125730000Y-57150000D01*
X125730000Y-57150000D02*
X128270000Y-57150000D01*
X125730000Y-59690000D02*
X128270000Y-59690000D01*
X125730000Y-49530000D02*
X123190000Y-49530000D01*
X123190000Y-49530000D02*
X123190000Y-46990000D01*
X123190000Y-46990000D02*
X125730000Y-46990000D01*
X128270000Y-46990000D02*
X130810000Y-46990000D01*
X130810000Y-46990000D02*
X130810000Y-49530000D01*
X130810000Y-49530000D02*
X128270000Y-49530000D01*
X128270000Y-49530000D02*
X125730000Y-49530000D01*
X128270000Y-46990000D02*
X125730000Y-46990000D01*
X128270000Y-59690000D02*
X130810000Y-59690000D01*
X130810000Y-59690000D02*
X130810000Y-62230000D01*
X130810000Y-62230000D02*
X128270000Y-62230000D01*
X125730000Y-62230000D02*
X123190000Y-62230000D01*
X123190000Y-62230000D02*
X123190000Y-59690000D01*
X123190000Y-59690000D02*
X125730000Y-59690000D01*
X125730000Y-59690000D02*
X128270000Y-59690000D01*
X125730000Y-62230000D02*
X128270000Y-62230000D01*
X24765000Y-163195000D02*
X24765000Y-165735000D01*
X24765000Y-165735000D02*
X22225000Y-165735000D01*
X22225000Y-165735000D02*
X22225000Y-163195000D01*
X22225000Y-160655000D02*
X22225000Y-158115000D01*
X22225000Y-158115000D02*
X24765000Y-158115000D01*
X24765000Y-158115000D02*
X24765000Y-160655000D01*
X24765000Y-160655000D02*
X24765000Y-163195000D01*
X22225000Y-160655000D02*
X22225000Y-163195000D01*
X160020000Y-50800000D02*
X162560000Y-50800000D01*
X162560000Y-50800000D02*
X162560000Y-53340000D01*
X162560000Y-53340000D02*
X160020000Y-53340000D01*
X157480000Y-53340000D02*
X154940000Y-53340000D01*
X154940000Y-53340000D02*
X154940000Y-50800000D01*
X154940000Y-50800000D02*
X157480000Y-50800000D01*
X157480000Y-50800000D02*
X160020000Y-50800000D01*
X157480000Y-53340000D02*
X160020000Y-53340000D01*
X48895000Y-163195000D02*
X48895000Y-160655000D01*
X48895000Y-160655000D02*
X51435000Y-160655000D01*
X51435000Y-160655000D02*
X51435000Y-163195000D01*
X51435000Y-165735000D02*
X51435000Y-168275000D01*
X51435000Y-168275000D02*
X48895000Y-168275000D01*
X48895000Y-168275000D02*
X48895000Y-165735000D01*
X48895000Y-165735000D02*
X48895000Y-163195000D01*
X51435000Y-165735000D02*
X51435000Y-163195000D01*
X150495000Y-66040000D02*
X150495000Y-63500000D01*
X150495000Y-63500000D02*
X153035000Y-63500000D01*
X153035000Y-63500000D02*
X153035000Y-66040000D01*
X153035000Y-68580000D02*
X153035000Y-71120000D01*
X153035000Y-71120000D02*
X150495000Y-71120000D01*
X150495000Y-71120000D02*
X150495000Y-68580000D01*
X150495000Y-68580000D02*
X150495000Y-66040000D01*
X153035000Y-68580000D02*
X153035000Y-66040000D01*
X51435000Y-175895000D02*
X51435000Y-178435000D01*
X51435000Y-178435000D02*
X48895000Y-178435000D01*
X48895000Y-178435000D02*
X48895000Y-175895000D01*
X48895000Y-173355000D02*
X48895000Y-170815000D01*
X48895000Y-170815000D02*
X51435000Y-170815000D01*
X51435000Y-170815000D02*
X51435000Y-173355000D01*
X51435000Y-173355000D02*
X51435000Y-175895000D01*
X48895000Y-173355000D02*
X48895000Y-175895000D01*
X155575000Y-155575000D02*
X158115000Y-155575000D01*
X158115000Y-155575000D02*
X158115000Y-158115000D01*
X158115000Y-158115000D02*
X155575000Y-158115000D01*
X153035000Y-158115000D02*
X150495000Y-158115000D01*
X150495000Y-158115000D02*
X150495000Y-155575000D01*
X150495000Y-155575000D02*
X153035000Y-155575000D01*
X153035000Y-155575000D02*
X155575000Y-155575000D01*
X153035000Y-158115000D02*
X155575000Y-158115000D01*
X155575000Y-107950000D02*
X158115000Y-107950000D01*
X158115000Y-107950000D02*
X158115000Y-110490000D01*
X158115000Y-110490000D02*
X155575000Y-110490000D01*
X153035000Y-110490000D02*
X150495000Y-110490000D01*
X150495000Y-110490000D02*
X150495000Y-107950000D01*
X150495000Y-107950000D02*
X153035000Y-107950000D01*
X153035000Y-107950000D02*
X155575000Y-107950000D01*
X153035000Y-110490000D02*
X155575000Y-110490000D01*
X155575000Y-103505000D02*
X158115000Y-103505000D01*
X158115000Y-103505000D02*
X158115000Y-106045000D01*
X158115000Y-106045000D02*
X155575000Y-106045000D01*
X153035000Y-106045000D02*
X150495000Y-106045000D01*
X150495000Y-106045000D02*
X150495000Y-103505000D01*
X150495000Y-103505000D02*
X153035000Y-103505000D01*
X153035000Y-103505000D02*
X155575000Y-103505000D01*
X153035000Y-106045000D02*
X155575000Y-106045000D01*
X50165000Y-43815000D02*
X52705000Y-43815000D01*
X52705000Y-43815000D02*
X52705000Y-46355000D01*
X52705000Y-46355000D02*
X50165000Y-46355000D01*
X47625000Y-46355000D02*
X45085000Y-46355000D01*
X45085000Y-46355000D02*
X45085000Y-43815000D01*
X45085000Y-43815000D02*
X47625000Y-43815000D01*
X47625000Y-43815000D02*
X50165000Y-43815000D01*
X47625000Y-46355000D02*
X50165000Y-46355000D01*
X57150000Y-49530000D02*
X57150000Y-46990000D01*
X57150000Y-46990000D02*
X59690000Y-46990000D01*
X59690000Y-46990000D02*
X59690000Y-49530000D01*
X59690000Y-52070000D02*
X59690000Y-54610000D01*
X59690000Y-54610000D02*
X57150000Y-54610000D01*
X57150000Y-54610000D02*
X57150000Y-52070000D01*
X57150000Y-52070000D02*
X57150000Y-49530000D01*
X59690000Y-52070000D02*
X59690000Y-49530000D01*
X67945000Y-173355000D02*
X65405000Y-173355000D01*
X65405000Y-173355000D02*
X65405000Y-170815000D01*
X65405000Y-170815000D02*
X67945000Y-170815000D01*
X70485000Y-170815000D02*
X73025000Y-170815000D01*
X73025000Y-170815000D02*
X73025000Y-173355000D01*
X73025000Y-173355000D02*
X70485000Y-173355000D01*
X70485000Y-173355000D02*
X67945000Y-173355000D01*
X70485000Y-170815000D02*
X67945000Y-170815000D01*
X125730000Y-52070000D02*
X123190000Y-52070000D01*
X123190000Y-52070000D02*
X123190000Y-49530000D01*
X123190000Y-49530000D02*
X125730000Y-49530000D01*
X128270000Y-49530000D02*
X130810000Y-49530000D01*
X130810000Y-49530000D02*
X130810000Y-52070000D01*
X130810000Y-52070000D02*
X128270000Y-52070000D01*
X128270000Y-52070000D02*
X125730000Y-52070000D01*
X128270000Y-49530000D02*
X125730000Y-49530000D01*
X164465000Y-167005000D02*
X164465000Y-172085000D01*
X164465000Y-172085000D02*
X167005000Y-172085000D01*
X167005000Y-172085000D02*
X167005000Y-167005000D01*
X167005000Y-167005000D02*
X164465000Y-167005000D01*
X164465000Y-158115000D02*
X164465000Y-163195000D01*
X164465000Y-163195000D02*
X167005000Y-163195000D01*
X167005000Y-163195000D02*
X167005000Y-158115000D01*
X167005000Y-158115000D02*
X164465000Y-158115000D01*
X148590000Y-111760000D02*
X146050000Y-111760000D01*
X146050000Y-111760000D02*
X146050000Y-111506000D01*
X148590000Y-111760000D02*
X148590000Y-99060000D01*
X148590000Y-99060000D02*
X146050000Y-99060000D01*
X146050000Y-99060000D02*
X146050000Y-111506000D01*
X129540000Y-153670000D02*
X127000000Y-153670000D01*
X127000000Y-153670000D02*
X127000000Y-153416000D01*
X129540000Y-153670000D02*
X129540000Y-140970000D01*
X129540000Y-140970000D02*
X127000000Y-140970000D01*
X127000000Y-140970000D02*
X127000000Y-153416000D01*
X33020000Y-169545000D02*
X33020000Y-168910000D01*
X33020000Y-175260000D02*
X33020000Y-173355000D01*
X33020000Y-168910000D02*
X33020000Y-167640000D01*
X33020000Y-167640000D02*
X20320000Y-167640000D01*
X20320000Y-167640000D02*
X20320000Y-175260000D01*
X20320000Y-175260000D02*
X29210000Y-175260000D01*
X25400000Y-87630000D02*
X25400000Y-86360000D01*
X25400000Y-86360000D02*
X26035000Y-86360000D01*
X25400000Y-146050000D02*
X25400000Y-156210000D01*
X25400000Y-156210000D02*
X26035000Y-156210000D01*
X108585000Y-87630000D02*
X108585000Y-86360000D01*
X108585000Y-86360000D02*
X106045000Y-86360000D01*
X108585000Y-146050000D02*
X108585000Y-156210000D01*
X108585000Y-156210000D02*
X104775000Y-156210000D01*
X26035000Y-156210000D02*
X26670000Y-156210000D01*
X26670000Y-86360000D02*
X27305000Y-86360000D01*
X26670000Y-86360000D02*
X26035000Y-86360000D01*
X108585000Y-87630000D02*
X108585000Y-146050000D01*
X25400000Y-87630000D02*
X25400000Y-146050000D01*
X26289000Y-156210000D02*
X105029000Y-156210000D01*
X27305000Y-86360000D02*
X106045000Y-86360000D01*
X127635000Y-26670000D02*
X128905000Y-26670000D01*
X128905000Y-29210000D02*
X127635000Y-29210000D01*
X135255000Y-26670000D02*
X133985000Y-26670000D01*
X135255000Y-29210000D02*
X133985000Y-29210000D01*
X133985000Y-30480000D02*
X128905000Y-30480000D01*
X128905000Y-30480000D02*
X128905000Y-25400000D01*
X128905000Y-25400000D02*
X133985000Y-25400000D01*
X133985000Y-25400000D02*
X133985000Y-30480000D01*
X127635000Y-31750000D02*
X128905000Y-31750000D01*
X128905000Y-34290000D02*
X127635000Y-34290000D01*
X135255000Y-31750000D02*
X133985000Y-31750000D01*
X135255000Y-34290000D02*
X133985000Y-34290000D01*
X133985000Y-35560000D02*
X128905000Y-35560000D01*
X128905000Y-35560000D02*
X128905000Y-30480000D01*
X128905000Y-30480000D02*
X133985000Y-30480000D01*
X133985000Y-30480000D02*
X133985000Y-35560000D01*
X151831724Y-178439161D02*
G75*
G03X151845000Y-172060000I5013276J3179161D01*
G01*
X151845000Y-178460000D02*
X151845000Y-172060000D01*
X137861724Y-178439161D02*
G75*
G03X137875000Y-172060000I5013276J3179161D01*
G01*
X137875000Y-178460000D02*
X137875000Y-172060000D01*
X159117945Y-79083688D02*
G75*
G03X157115000Y-79085000I-1002945J2248688D01*
G01*
X159115000Y-79085000D02*
X157115000Y-79085000D01*
X108928688Y-176162055D02*
G75*
G03X108930000Y-178165000I-2248688J-1002945D01*
G01*
X108930000Y-176165000D02*
X108930000Y-178165000D01*
X108928688Y-167907055D02*
G75*
G03X108930000Y-169910000I-2248688J-1002945D01*
G01*
X108930000Y-167910000D02*
X108930000Y-169910000D01*
X162216312Y-153402945D02*
G75*
G03X162215000Y-151400000I2248688J1002945D01*
G01*
X162215000Y-153400000D02*
X162215000Y-151400000D01*
X162216312Y-147052945D02*
G75*
G03X162215000Y-145050000I2248688J1002945D01*
G01*
X162215000Y-147050000D02*
X162215000Y-145050000D01*
X162216312Y-140702945D02*
G75*
G03X162215000Y-138700000I2248688J1002945D01*
G01*
X162215000Y-140700000D02*
X162215000Y-138700000D01*
X162216312Y-134352945D02*
G75*
G03X162215000Y-132350000I2248688J1002945D01*
G01*
X162215000Y-134350000D02*
X162215000Y-132350000D01*
X162216312Y-128002945D02*
G75*
G03X162215000Y-126000000I2248688J1002945D01*
G01*
X162215000Y-128000000D02*
X162215000Y-126000000D01*
X162216312Y-121652945D02*
G75*
G03X162215000Y-119650000I2248688J1002945D01*
G01*
X162215000Y-121650000D02*
X162215000Y-119650000D01*
X162216312Y-115302945D02*
G75*
G03X162215000Y-113300000I2248688J1002945D01*
G01*
X162215000Y-115300000D02*
X162215000Y-113300000D01*
X162216312Y-108952945D02*
G75*
G03X162215000Y-106950000I2248688J1002945D01*
G01*
X162215000Y-108950000D02*
X162215000Y-106950000D01*
X162216312Y-102602945D02*
G75*
G03X162215000Y-100600000I2248688J1002945D01*
G01*
X162215000Y-102600000D02*
X162215000Y-100600000D01*
X162216312Y-96252945D02*
G75*
G03X162215000Y-94250000I2248688J1002945D01*
G01*
X162215000Y-96250000D02*
X162215000Y-94250000D01*
X162216312Y-89902945D02*
G75*
G03X162215000Y-87900000I2248688J1002945D01*
G01*
X162215000Y-89900000D02*
X162215000Y-87900000D01*
X162216312Y-83552945D02*
G75*
G03X162215000Y-81550000I2248688J1002945D01*
G01*
X162215000Y-83550000D02*
X162215000Y-81550000D01*
X54901312Y-180072945D02*
G75*
G03X54900000Y-178070000I2248688J1002945D01*
G01*
X54900000Y-180070000D02*
X54900000Y-178070000D01*
X41021000Y-158877000D02*
X41021000Y-160020000D01*
X44069000Y-158877000D02*
X44069000Y-160020000D01*
X47879000Y-160020000D02*
X47879000Y-163703000D01*
X47879000Y-163703000D02*
X37211000Y-163703000D01*
X37211000Y-163703000D02*
X37211000Y-160020000D01*
X47879000Y-158877000D02*
X47879000Y-160020000D01*
X47879000Y-160020000D02*
X37211000Y-160020000D01*
X37211000Y-160020000D02*
X37211000Y-158877000D01*
X42545000Y-158877000D02*
X37211000Y-158877000D01*
X42545000Y-158877000D02*
X47879000Y-158877000D01*
X56261000Y-158877000D02*
X56261000Y-160020000D01*
X59309000Y-158877000D02*
X59309000Y-160020000D01*
X63119000Y-160020000D02*
X63119000Y-163703000D01*
X63119000Y-163703000D02*
X52451000Y-163703000D01*
X52451000Y-163703000D02*
X52451000Y-160020000D01*
X63119000Y-158877000D02*
X63119000Y-160020000D01*
X63119000Y-160020000D02*
X52451000Y-160020000D01*
X52451000Y-160020000D02*
X52451000Y-158877000D01*
X57785000Y-158877000D02*
X52451000Y-158877000D01*
X57785000Y-158877000D02*
X63119000Y-158877000D01*
X152400000Y-22860000D02*
X154940000Y-22860000D01*
X149860000Y-36830000D02*
X147955000Y-36830000D01*
X147955000Y-36830000D02*
X147955000Y-22860000D01*
X147955000Y-22860000D02*
X149860000Y-22860000D01*
X154940000Y-33020000D02*
X154940000Y-36830000D01*
X154940000Y-36830000D02*
X152400000Y-36830000D01*
X154940000Y-27940000D02*
X154940000Y-30480000D01*
X154940000Y-22860000D02*
X154940000Y-25400000D01*
X142240000Y-22860000D02*
X144780000Y-22860000D01*
X139700000Y-36830000D02*
X137795000Y-36830000D01*
X137795000Y-36830000D02*
X137795000Y-22860000D01*
X137795000Y-22860000D02*
X139700000Y-22860000D01*
X144780000Y-33020000D02*
X144780000Y-36830000D01*
X144780000Y-36830000D02*
X142240000Y-36830000D01*
X144780000Y-27940000D02*
X144780000Y-30480000D01*
X144780000Y-22860000D02*
X144780000Y-25400000D01*
X143510000Y-87630000D02*
X143510000Y-97790000D01*
X143510000Y-97790000D02*
X132080000Y-97790000D01*
X132080000Y-97790000D02*
X132080000Y-87630000D01*
X132080000Y-87630000D02*
X143510000Y-87630000D01*
M02*
