%FSLAX45Y45*%
G04 Gerber Fmt 4.5, Leading zero omitted, Abs format (unit mm)*
G04 Created by KiCad (PCBNEW 4.0.1-stable) date 05/03/17 04:52:43*
%MOMM*%
G01*
G04 APERTURE LIST*
%ADD10C,0.127000*%
%ADD11C,0.150000*%
%ADD12C,0.200000*%
%ADD13C,0.300000*%
G04 APERTURE END LIST*
D10*
D11*
X1778000Y-18415000D02*
X2032000Y-18415000D01*
X1778000Y-2032000D02*
X1778000Y-18415000D01*
X17145000Y-2032000D02*
X1778000Y-2032000D01*
X17145000Y-2286000D02*
X17145000Y-2032000D01*
X17145000Y-18161000D02*
X17145000Y-18415000D01*
X2032000Y-18415000D02*
X2540000Y-18415000D01*
X17145000Y-18161000D02*
X17145000Y-2286000D01*
X2540000Y-18415000D02*
X17145000Y-18415000D01*
D12*
X4923000Y-5685000D02*
X4983000Y-5745000D01*
X4983000Y-5685000D02*
X4923000Y-5745000D01*
X5304000Y-12670000D02*
X5364000Y-12730000D01*
X5364000Y-12670000D02*
X5304000Y-12730000D01*
X5431000Y-8352000D02*
X5491000Y-8412000D01*
X5491000Y-8352000D02*
X5431000Y-8412000D01*
X5939000Y-6256500D02*
X5999000Y-6316500D01*
X5999000Y-6256500D02*
X5939000Y-6316500D01*
X6002500Y-14702000D02*
X6062500Y-14762000D01*
X6062500Y-14702000D02*
X6002500Y-14762000D01*
X6383500Y-11717500D02*
X6443500Y-11777500D01*
X6443500Y-11717500D02*
X6383500Y-11777500D01*
X6383500Y-14003500D02*
X6443500Y-14063500D01*
X6443500Y-14003500D02*
X6383500Y-14063500D01*
X6383500Y-14194000D02*
X6443500Y-14254000D01*
X6443500Y-14194000D02*
X6383500Y-14254000D01*
X6764500Y-14130500D02*
X6824500Y-14190500D01*
X6824500Y-14130500D02*
X6764500Y-14190500D01*
X6828000Y-7018500D02*
X6888000Y-7078500D01*
X6888000Y-7018500D02*
X6828000Y-7078500D01*
X7399500Y-12733500D02*
X7459500Y-12793500D01*
X7459500Y-12733500D02*
X7399500Y-12793500D01*
X7399500Y-13432000D02*
X7459500Y-13492000D01*
X7459500Y-13432000D02*
X7399500Y-13492000D01*
X7907500Y-13686000D02*
X7967500Y-13746000D01*
X7967500Y-13686000D02*
X7907500Y-13746000D01*
X7907500Y-13940000D02*
X7967500Y-14000000D01*
X7967500Y-13940000D02*
X7907500Y-14000000D01*
X7907500Y-14194000D02*
X7967500Y-14254000D01*
X7967500Y-14194000D02*
X7907500Y-14254000D01*
X7907500Y-14448000D02*
X7967500Y-14508000D01*
X7967500Y-14448000D02*
X7907500Y-14508000D01*
X8034500Y-11654000D02*
X8094500Y-11714000D01*
X8094500Y-11654000D02*
X8034500Y-11714000D01*
X8098000Y-8669500D02*
X8158000Y-8729500D01*
X8158000Y-8669500D02*
X8098000Y-8729500D01*
X8288500Y-11146000D02*
X8348500Y-11206000D01*
X8348500Y-11146000D02*
X8288500Y-11206000D01*
X8288500Y-11654000D02*
X8348500Y-11714000D01*
X8348500Y-11654000D02*
X8288500Y-11714000D01*
X8288500Y-14321000D02*
X8348500Y-14381000D01*
X8348500Y-14321000D02*
X8288500Y-14381000D01*
X8669500Y-8606000D02*
X8729500Y-8666000D01*
X8729500Y-8606000D02*
X8669500Y-8666000D01*
X8669500Y-12606500D02*
X8729500Y-12666500D01*
X8729500Y-12606500D02*
X8669500Y-12666500D01*
X8733000Y-17496000D02*
X8793000Y-17556000D01*
X8793000Y-17496000D02*
X8733000Y-17556000D01*
X8796500Y-13432000D02*
X8856500Y-13492000D01*
X8856500Y-13432000D02*
X8796500Y-13492000D01*
X8860000Y-10384000D02*
X8920000Y-10444000D01*
X8920000Y-10384000D02*
X8860000Y-10444000D01*
X8923500Y-8098000D02*
X8983500Y-8158000D01*
X8983500Y-8098000D02*
X8923500Y-8158000D01*
X9050500Y-14194000D02*
X9110500Y-14254000D01*
X9110500Y-14194000D02*
X9050500Y-14254000D01*
X9050500Y-16607000D02*
X9110500Y-16667000D01*
X9110500Y-16607000D02*
X9050500Y-16667000D01*
X9304500Y-16353000D02*
X9364500Y-16413000D01*
X9364500Y-16353000D02*
X9304500Y-16413000D01*
X9304500Y-16607000D02*
X9364500Y-16667000D01*
X9364500Y-16607000D02*
X9304500Y-16667000D01*
X9558500Y-13051000D02*
X9618500Y-13111000D01*
X9618500Y-13051000D02*
X9558500Y-13111000D01*
X9558500Y-16353000D02*
X9618500Y-16413000D01*
X9618500Y-16353000D02*
X9558500Y-16413000D01*
X9622000Y-9876000D02*
X9682000Y-9936000D01*
X9682000Y-9876000D02*
X9622000Y-9936000D01*
X9622000Y-11146000D02*
X9682000Y-11206000D01*
X9682000Y-11146000D02*
X9622000Y-11206000D01*
X9812500Y-14575000D02*
X9872500Y-14635000D01*
X9872500Y-14575000D02*
X9812500Y-14635000D01*
X9876000Y-7272500D02*
X9936000Y-7332500D01*
X9936000Y-7272500D02*
X9876000Y-7332500D01*
X9939500Y-7907500D02*
X9999500Y-7967500D01*
X9999500Y-7907500D02*
X9939500Y-7967500D01*
X10320500Y-12797000D02*
X10380500Y-12857000D01*
X10380500Y-12797000D02*
X10320500Y-12857000D01*
X10320500Y-13051000D02*
X10380500Y-13111000D01*
X10380500Y-13051000D02*
X10320500Y-13111000D01*
X10384000Y-9304500D02*
X10444000Y-9364500D01*
X10444000Y-9304500D02*
X10384000Y-9364500D01*
X10447500Y-12479500D02*
X10507500Y-12539500D01*
X10507500Y-12479500D02*
X10447500Y-12539500D01*
X10574500Y-8923500D02*
X10634500Y-8983500D01*
X10634500Y-8923500D02*
X10574500Y-8983500D01*
X10574500Y-9876000D02*
X10634500Y-9936000D01*
X10634500Y-9876000D02*
X10574500Y-9936000D01*
X10574500Y-10384000D02*
X10634500Y-10444000D01*
X10634500Y-10384000D02*
X10574500Y-10444000D01*
X10574500Y-12035000D02*
X10634500Y-12095000D01*
X10634500Y-12035000D02*
X10574500Y-12095000D01*
X10638000Y-15781500D02*
X10698000Y-15841500D01*
X10698000Y-15781500D02*
X10638000Y-15841500D01*
X10638000Y-17877000D02*
X10698000Y-17937000D01*
X10698000Y-17877000D02*
X10638000Y-17937000D01*
X10765000Y-5685000D02*
X10825000Y-5745000D01*
X10825000Y-5685000D02*
X10765000Y-5745000D01*
X10765000Y-13051000D02*
X10825000Y-13111000D01*
X10825000Y-13051000D02*
X10765000Y-13111000D01*
X10765000Y-15527500D02*
X10825000Y-15587500D01*
X10825000Y-15527500D02*
X10765000Y-15587500D01*
X10828500Y-9304500D02*
X10888500Y-9364500D01*
X10888500Y-9304500D02*
X10828500Y-9364500D01*
X10955500Y-16607000D02*
X11015500Y-16667000D01*
X11015500Y-16607000D02*
X10955500Y-16667000D01*
X11019000Y-16924500D02*
X11079000Y-16984500D01*
X11079000Y-16924500D02*
X11019000Y-16984500D01*
X11209500Y-16353000D02*
X11269500Y-16413000D01*
X11269500Y-16353000D02*
X11209500Y-16413000D01*
X11209500Y-16607000D02*
X11269500Y-16667000D01*
X11269500Y-16607000D02*
X11209500Y-16667000D01*
X11463500Y-5685000D02*
X11523500Y-5745000D01*
X11523500Y-5685000D02*
X11463500Y-5745000D01*
X11463500Y-7145500D02*
X11523500Y-7205500D01*
X11523500Y-7145500D02*
X11463500Y-7205500D01*
X11463500Y-16353000D02*
X11523500Y-16413000D01*
X11523500Y-16353000D02*
X11463500Y-16413000D01*
X11590500Y-8987000D02*
X11650500Y-9047000D01*
X11650500Y-8987000D02*
X11590500Y-9047000D01*
X11590500Y-11146000D02*
X11650500Y-11206000D01*
X11650500Y-11146000D02*
X11590500Y-11206000D01*
X11717500Y-7018500D02*
X11777500Y-7078500D01*
X11777500Y-7018500D02*
X11717500Y-7078500D01*
X11717500Y-16924500D02*
X11777500Y-16984500D01*
X11777500Y-16924500D02*
X11717500Y-16984500D01*
X11781000Y-11146000D02*
X11841000Y-11206000D01*
X11841000Y-11146000D02*
X11781000Y-11206000D01*
X11908000Y-10638000D02*
X11968000Y-10698000D01*
X11968000Y-10638000D02*
X11908000Y-10698000D01*
X11908000Y-11273000D02*
X11968000Y-11333000D01*
X11968000Y-11273000D02*
X11908000Y-11333000D01*
X11908000Y-11527000D02*
X11968000Y-11587000D01*
X11968000Y-11527000D02*
X11908000Y-11587000D01*
X11971500Y-7399500D02*
X12031500Y-7459500D01*
X12031500Y-7399500D02*
X11971500Y-7459500D01*
X11971500Y-16607000D02*
X12031500Y-16667000D01*
X12031500Y-16607000D02*
X11971500Y-16667000D01*
X12098500Y-5050000D02*
X12158500Y-5110000D01*
X12158500Y-5050000D02*
X12098500Y-5110000D01*
X12225500Y-16353000D02*
X12285500Y-16413000D01*
X12285500Y-16353000D02*
X12225500Y-16413000D01*
X12352500Y-7145500D02*
X12412500Y-7205500D01*
X12412500Y-7145500D02*
X12352500Y-7205500D01*
X12352500Y-7272500D02*
X12412500Y-7332500D01*
X12412500Y-7272500D02*
X12352500Y-7332500D01*
X12352500Y-10384000D02*
X12412500Y-10444000D01*
X12412500Y-10384000D02*
X12352500Y-10444000D01*
X12416000Y-8034500D02*
X12476000Y-8094500D01*
X12476000Y-8034500D02*
X12416000Y-8094500D01*
X12479500Y-11971500D02*
X12539500Y-12031500D01*
X12539500Y-11971500D02*
X12479500Y-12031500D01*
X12479500Y-16607000D02*
X12539500Y-16667000D01*
X12539500Y-16607000D02*
X12479500Y-16667000D01*
X12733500Y-16353000D02*
X12793500Y-16413000D01*
X12793500Y-16353000D02*
X12733500Y-16413000D01*
X12860500Y-7526500D02*
X12920500Y-7586500D01*
X12920500Y-7526500D02*
X12860500Y-7586500D01*
X12860500Y-8479000D02*
X12920500Y-8539000D01*
X12920500Y-8479000D02*
X12860500Y-8539000D01*
X12924000Y-5431000D02*
X12984000Y-5491000D01*
X12984000Y-5431000D02*
X12924000Y-5491000D01*
X12924000Y-8225000D02*
X12984000Y-8285000D01*
X12984000Y-8225000D02*
X12924000Y-8285000D01*
X12924000Y-10003000D02*
X12984000Y-10063000D01*
X12984000Y-10003000D02*
X12924000Y-10063000D01*
X13051000Y-9876000D02*
X13111000Y-9936000D01*
X13111000Y-9876000D02*
X13051000Y-9936000D01*
X13178000Y-5431000D02*
X13238000Y-5491000D01*
X13238000Y-5431000D02*
X13178000Y-5491000D01*
X13178000Y-6828000D02*
X13238000Y-6888000D01*
X13238000Y-6828000D02*
X13178000Y-6888000D01*
X13178000Y-7590000D02*
X13238000Y-7650000D01*
X13238000Y-7590000D02*
X13178000Y-7650000D01*
X13305000Y-9508020D02*
X13365000Y-9568020D01*
X13365000Y-9508020D02*
X13305000Y-9568020D01*
X13305000Y-10638000D02*
X13365000Y-10698000D01*
X13365000Y-10638000D02*
X13305000Y-10698000D01*
X13368500Y-6510500D02*
X13428500Y-6570500D01*
X13428500Y-6510500D02*
X13368500Y-6570500D01*
X13381200Y-8987000D02*
X13441200Y-9047000D01*
X13441200Y-8987000D02*
X13381200Y-9047000D01*
X13457400Y-9952200D02*
X13517400Y-10012200D01*
X13517400Y-9952200D02*
X13457400Y-10012200D01*
X13622500Y-5431000D02*
X13682500Y-5491000D01*
X13682500Y-5431000D02*
X13622500Y-5491000D01*
X13749500Y-7399500D02*
X13809500Y-7459500D01*
X13809500Y-7399500D02*
X13749500Y-7459500D01*
X13876500Y-10384000D02*
X13936500Y-10444000D01*
X13936500Y-10384000D02*
X13876500Y-10444000D01*
X14003500Y-5240500D02*
X14063500Y-5300500D01*
X14063500Y-5240500D02*
X14003500Y-5300500D01*
X14257500Y-5050000D02*
X14317500Y-5110000D01*
X14317500Y-5050000D02*
X14257500Y-5110000D01*
X14321000Y-15781500D02*
X14381000Y-15841500D01*
X14381000Y-15781500D02*
X14321000Y-15841500D01*
X14638500Y-5113500D02*
X14698500Y-5173500D01*
X14698500Y-5113500D02*
X14638500Y-5173500D01*
X14638500Y-5431000D02*
X14698500Y-5491000D01*
X14698500Y-5431000D02*
X14638500Y-5491000D01*
X14638500Y-8098000D02*
X14698500Y-8158000D01*
X14698500Y-8098000D02*
X14638500Y-8158000D01*
X15273500Y-4923000D02*
X15333500Y-4983000D01*
X15333500Y-4923000D02*
X15273500Y-4983000D01*
X15464000Y-13940000D02*
X15524000Y-14000000D01*
X15524000Y-13940000D02*
X15464000Y-14000000D01*
X15654500Y-5558000D02*
X15714500Y-5618000D01*
X15714500Y-5558000D02*
X15654500Y-5618000D01*
X15654500Y-13114500D02*
X15714500Y-13174500D01*
X15714500Y-13114500D02*
X15654500Y-13174500D01*
X15972000Y-11971500D02*
X16032000Y-12031500D01*
X16032000Y-11971500D02*
X15972000Y-12031500D01*
X16035500Y-11336500D02*
X16095500Y-11396500D01*
X16095500Y-11336500D02*
X16035500Y-11396500D01*
X16289500Y-7653500D02*
X16349500Y-7713500D01*
X16349500Y-7653500D02*
X16289500Y-7713500D01*
X16543500Y-6637500D02*
X16603500Y-6697500D01*
X16603500Y-6637500D02*
X16543500Y-6697500D01*
X2384500Y-15938500D02*
G75*
G03X2384500Y-15938500I-35000J0D01*
G01*
X2384500Y-16192500D02*
G75*
G03X2384500Y-16192500I-35000J0D01*
G01*
X2384500Y-16446500D02*
G75*
G03X2384500Y-16446500I-35000J0D01*
G01*
X2892500Y-8953500D02*
G75*
G03X2892500Y-8953500I-35000J0D01*
G01*
X2892500Y-15303500D02*
G75*
G03X2892500Y-15303500I-35000J0D01*
G01*
X2900500Y-16192500D02*
G75*
G03X2900500Y-16192500I-35000J0D01*
G01*
X3146500Y-8953500D02*
G75*
G03X3146500Y-8953500I-35000J0D01*
G01*
X3146500Y-15303500D02*
G75*
G03X3146500Y-15303500I-35000J0D01*
G01*
X3400500Y-16192500D02*
G75*
G03X3400500Y-16192500I-35000J0D01*
G01*
X4043500Y-16954500D02*
G75*
G03X4043500Y-16954500I-35000J0D01*
G01*
X4416500Y-4127500D02*
G75*
G03X4416500Y-4127500I-35000J0D01*
G01*
X4543500Y-16954500D02*
G75*
G03X4543500Y-16954500I-35000J0D01*
G01*
X4670500Y-4127500D02*
G75*
G03X4670500Y-4127500I-35000J0D01*
G01*
X4670500Y-4508500D02*
G75*
G03X4670500Y-4508500I-35000J0D01*
G01*
X4924500Y-4127500D02*
G75*
G03X4924500Y-4127500I-35000J0D01*
G01*
X4924500Y-4508500D02*
G75*
G03X4924500Y-4508500I-35000J0D01*
G01*
X5051500Y-16192500D02*
G75*
G03X5051500Y-16192500I-35000J0D01*
G01*
X5051500Y-16446500D02*
G75*
G03X5051500Y-16446500I-35000J0D01*
G01*
X5051500Y-16700500D02*
G75*
G03X5051500Y-16700500I-35000J0D01*
G01*
X5051500Y-17208500D02*
G75*
G03X5051500Y-17208500I-35000J0D01*
G01*
X5051500Y-17462500D02*
G75*
G03X5051500Y-17462500I-35000J0D01*
G01*
X5051500Y-17716500D02*
G75*
G03X5051500Y-17716500I-35000J0D01*
G01*
X5178500Y-4127500D02*
G75*
G03X5178500Y-4127500I-35000J0D01*
G01*
X5178500Y-4508500D02*
G75*
G03X5178500Y-4508500I-35000J0D01*
G01*
X5432500Y-4127500D02*
G75*
G03X5432500Y-4127500I-35000J0D01*
G01*
X5559500Y-9461500D02*
G75*
G03X5559500Y-9461500I-35000J0D01*
G01*
X5559500Y-10477500D02*
G75*
G03X5559500Y-10477500I-35000J0D01*
G01*
X5559500Y-16954500D02*
G75*
G03X5559500Y-16954500I-35000J0D01*
G01*
X5686500Y-4127500D02*
G75*
G03X5686500Y-4127500I-35000J0D01*
G01*
X5686500Y-8953500D02*
G75*
G03X5686500Y-8953500I-35000J0D01*
G01*
X5686500Y-9207500D02*
G75*
G03X5686500Y-9207500I-35000J0D01*
G01*
X5686500Y-15049500D02*
G75*
G03X5686500Y-15049500I-35000J0D01*
G01*
X5686500Y-15303500D02*
G75*
G03X5686500Y-15303500I-35000J0D01*
G01*
X5686500Y-15557500D02*
G75*
G03X5686500Y-15557500I-35000J0D01*
G01*
X5813500Y-9461500D02*
G75*
G03X5813500Y-9461500I-35000J0D01*
G01*
X5813500Y-10477500D02*
G75*
G03X5813500Y-10477500I-35000J0D01*
G01*
X5877000Y-4826000D02*
G75*
G03X5877000Y-4826000I-35000J0D01*
G01*
X5877000Y-5080000D02*
G75*
G03X5877000Y-5080000I-35000J0D01*
G01*
X5877000Y-5334000D02*
G75*
G03X5877000Y-5334000I-35000J0D01*
G01*
X5940500Y-4127500D02*
G75*
G03X5940500Y-4127500I-35000J0D01*
G01*
X5940500Y-8953500D02*
G75*
G03X5940500Y-8953500I-35000J0D01*
G01*
X5940500Y-9207500D02*
G75*
G03X5940500Y-9207500I-35000J0D01*
G01*
X5940500Y-15049500D02*
G75*
G03X5940500Y-15049500I-35000J0D01*
G01*
X5940500Y-15303500D02*
G75*
G03X5940500Y-15303500I-35000J0D01*
G01*
X6059500Y-16954500D02*
G75*
G03X6059500Y-16954500I-35000J0D01*
G01*
X6067500Y-9461500D02*
G75*
G03X6067500Y-9461500I-35000J0D01*
G01*
X6067500Y-10477500D02*
G75*
G03X6067500Y-10477500I-35000J0D01*
G01*
X6194500Y-4127500D02*
G75*
G03X6194500Y-4127500I-35000J0D01*
G01*
X6194500Y-8953500D02*
G75*
G03X6194500Y-8953500I-35000J0D01*
G01*
X6194500Y-9207500D02*
G75*
G03X6194500Y-9207500I-35000J0D01*
G01*
X6194500Y-15049500D02*
G75*
G03X6194500Y-15049500I-35000J0D01*
G01*
X6194500Y-15303500D02*
G75*
G03X6194500Y-15303500I-35000J0D01*
G01*
X6194500Y-17526000D02*
G75*
G03X6194500Y-17526000I-35000J0D01*
G01*
X6321500Y-4699000D02*
G75*
G03X6321500Y-4699000I-35000J0D01*
G01*
X6321500Y-5461000D02*
G75*
G03X6321500Y-5461000I-35000J0D01*
G01*
X6321500Y-9461500D02*
G75*
G03X6321500Y-9461500I-35000J0D01*
G01*
X6321500Y-10477500D02*
G75*
G03X6321500Y-10477500I-35000J0D01*
G01*
X6448500Y-4127500D02*
G75*
G03X6448500Y-4127500I-35000J0D01*
G01*
X6448500Y-8953500D02*
G75*
G03X6448500Y-8953500I-35000J0D01*
G01*
X6448500Y-9207500D02*
G75*
G03X6448500Y-9207500I-35000J0D01*
G01*
X6448500Y-15049500D02*
G75*
G03X6448500Y-15049500I-35000J0D01*
G01*
X6448500Y-15303500D02*
G75*
G03X6448500Y-15303500I-35000J0D01*
G01*
X6575500Y-4699000D02*
G75*
G03X6575500Y-4699000I-35000J0D01*
G01*
X6575500Y-5461000D02*
G75*
G03X6575500Y-5461000I-35000J0D01*
G01*
X6702500Y-4127500D02*
G75*
G03X6702500Y-4127500I-35000J0D01*
G01*
X6702500Y-8953500D02*
G75*
G03X6702500Y-8953500I-35000J0D01*
G01*
X6702500Y-9207500D02*
G75*
G03X6702500Y-9207500I-35000J0D01*
G01*
X6702500Y-15049500D02*
G75*
G03X6702500Y-15049500I-35000J0D01*
G01*
X6702500Y-15303500D02*
G75*
G03X6702500Y-15303500I-35000J0D01*
G01*
X6702500Y-15557500D02*
G75*
G03X6702500Y-15557500I-35000J0D01*
G01*
X6702500Y-17208500D02*
G75*
G03X6702500Y-17208500I-35000J0D01*
G01*
X6829500Y-4699000D02*
G75*
G03X6829500Y-4699000I-35000J0D01*
G01*
X6829500Y-5461000D02*
G75*
G03X6829500Y-5461000I-35000J0D01*
G01*
X6956500Y-4127500D02*
G75*
G03X6956500Y-4127500I-35000J0D01*
G01*
X6956500Y-8953500D02*
G75*
G03X6956500Y-8953500I-35000J0D01*
G01*
X6956500Y-9207500D02*
G75*
G03X6956500Y-9207500I-35000J0D01*
G01*
X6956500Y-15049500D02*
G75*
G03X6956500Y-15049500I-35000J0D01*
G01*
X6956500Y-15303500D02*
G75*
G03X6956500Y-15303500I-35000J0D01*
G01*
X6956500Y-16192500D02*
G75*
G03X6956500Y-16192500I-35000J0D01*
G01*
X6956500Y-16692500D02*
G75*
G03X6956500Y-16692500I-35000J0D01*
G01*
X6956500Y-17208500D02*
G75*
G03X6956500Y-17208500I-35000J0D01*
G01*
X7083500Y-4699000D02*
G75*
G03X7083500Y-4699000I-35000J0D01*
G01*
X7083500Y-5461000D02*
G75*
G03X7083500Y-5461000I-35000J0D01*
G01*
X7210500Y-4127500D02*
G75*
G03X7210500Y-4127500I-35000J0D01*
G01*
X7210500Y-8953500D02*
G75*
G03X7210500Y-8953500I-35000J0D01*
G01*
X7210500Y-9207500D02*
G75*
G03X7210500Y-9207500I-35000J0D01*
G01*
X7210500Y-15049500D02*
G75*
G03X7210500Y-15049500I-35000J0D01*
G01*
X7210500Y-15303500D02*
G75*
G03X7210500Y-15303500I-35000J0D01*
G01*
X7210500Y-17208500D02*
G75*
G03X7210500Y-17208500I-35000J0D01*
G01*
X7210500Y-17526000D02*
G75*
G03X7210500Y-17526000I-35000J0D01*
G01*
X7337500Y-4699000D02*
G75*
G03X7337500Y-4699000I-35000J0D01*
G01*
X7337500Y-5461000D02*
G75*
G03X7337500Y-5461000I-35000J0D01*
G01*
X7464500Y-4127500D02*
G75*
G03X7464500Y-4127500I-35000J0D01*
G01*
X7464500Y-8953500D02*
G75*
G03X7464500Y-8953500I-35000J0D01*
G01*
X7464500Y-9207500D02*
G75*
G03X7464500Y-9207500I-35000J0D01*
G01*
X7464500Y-15049500D02*
G75*
G03X7464500Y-15049500I-35000J0D01*
G01*
X7464500Y-15303500D02*
G75*
G03X7464500Y-15303500I-35000J0D01*
G01*
X7591500Y-4699000D02*
G75*
G03X7591500Y-4699000I-35000J0D01*
G01*
X7591500Y-5461000D02*
G75*
G03X7591500Y-5461000I-35000J0D01*
G01*
X7718500Y-4127500D02*
G75*
G03X7718500Y-4127500I-35000J0D01*
G01*
X7718500Y-8953500D02*
G75*
G03X7718500Y-8953500I-35000J0D01*
G01*
X7718500Y-9207500D02*
G75*
G03X7718500Y-9207500I-35000J0D01*
G01*
X7718500Y-15049500D02*
G75*
G03X7718500Y-15049500I-35000J0D01*
G01*
X7718500Y-15303500D02*
G75*
G03X7718500Y-15303500I-35000J0D01*
G01*
X7845500Y-4699000D02*
G75*
G03X7845500Y-4699000I-35000J0D01*
G01*
X7845500Y-5461000D02*
G75*
G03X7845500Y-5461000I-35000J0D01*
G01*
X7972500Y-4127500D02*
G75*
G03X7972500Y-4127500I-35000J0D01*
G01*
X7972500Y-8953500D02*
G75*
G03X7972500Y-8953500I-35000J0D01*
G01*
X7972500Y-9207500D02*
G75*
G03X7972500Y-9207500I-35000J0D01*
G01*
X7972500Y-9461500D02*
G75*
G03X7972500Y-9461500I-35000J0D01*
G01*
X7972500Y-10477500D02*
G75*
G03X7972500Y-10477500I-35000J0D01*
G01*
X7972500Y-15049500D02*
G75*
G03X7972500Y-15049500I-35000J0D01*
G01*
X7972500Y-15303500D02*
G75*
G03X7972500Y-15303500I-35000J0D01*
G01*
X7972500Y-15811500D02*
G75*
G03X7972500Y-15811500I-35000J0D01*
G01*
X7972500Y-16510000D02*
G75*
G03X7972500Y-16510000I-35000J0D01*
G01*
X7972500Y-18034000D02*
G75*
G03X7972500Y-18034000I-35000J0D01*
G01*
X8226500Y-4127500D02*
G75*
G03X8226500Y-4127500I-35000J0D01*
G01*
X8226500Y-4699000D02*
G75*
G03X8226500Y-4699000I-35000J0D01*
G01*
X8226500Y-8953500D02*
G75*
G03X8226500Y-8953500I-35000J0D01*
G01*
X8226500Y-9207500D02*
G75*
G03X8226500Y-9207500I-35000J0D01*
G01*
X8226500Y-15049500D02*
G75*
G03X8226500Y-15049500I-35000J0D01*
G01*
X8226500Y-15303500D02*
G75*
G03X8226500Y-15303500I-35000J0D01*
G01*
X8226500Y-15811500D02*
G75*
G03X8226500Y-15811500I-35000J0D01*
G01*
X8226500Y-16510000D02*
G75*
G03X8226500Y-16510000I-35000J0D01*
G01*
X8226500Y-18034000D02*
G75*
G03X8226500Y-18034000I-35000J0D01*
G01*
X8480500Y-4699000D02*
G75*
G03X8480500Y-4699000I-35000J0D01*
G01*
X8480500Y-5143500D02*
G75*
G03X8480500Y-5143500I-35000J0D01*
G01*
X8480500Y-6159500D02*
G75*
G03X8480500Y-6159500I-35000J0D01*
G01*
X8480500Y-8953500D02*
G75*
G03X8480500Y-8953500I-35000J0D01*
G01*
X8480500Y-9207500D02*
G75*
G03X8480500Y-9207500I-35000J0D01*
G01*
X8480500Y-15049500D02*
G75*
G03X8480500Y-15049500I-35000J0D01*
G01*
X8480500Y-15303500D02*
G75*
G03X8480500Y-15303500I-35000J0D01*
G01*
X8480500Y-15811500D02*
G75*
G03X8480500Y-15811500I-35000J0D01*
G01*
X8480500Y-16510000D02*
G75*
G03X8480500Y-16510000I-35000J0D01*
G01*
X8480500Y-18034000D02*
G75*
G03X8480500Y-18034000I-35000J0D01*
G01*
X8734500Y-4699000D02*
G75*
G03X8734500Y-4699000I-35000J0D01*
G01*
X8734500Y-8953500D02*
G75*
G03X8734500Y-8953500I-35000J0D01*
G01*
X8734500Y-9207500D02*
G75*
G03X8734500Y-9207500I-35000J0D01*
G01*
X8734500Y-15049500D02*
G75*
G03X8734500Y-15049500I-35000J0D01*
G01*
X8734500Y-15303500D02*
G75*
G03X8734500Y-15303500I-35000J0D01*
G01*
X8734500Y-16510000D02*
G75*
G03X8734500Y-16510000I-35000J0D01*
G01*
X8734500Y-18034000D02*
G75*
G03X8734500Y-18034000I-35000J0D01*
G01*
X8988500Y-8953500D02*
G75*
G03X8988500Y-8953500I-35000J0D01*
G01*
X8988500Y-9207500D02*
G75*
G03X8988500Y-9207500I-35000J0D01*
G01*
X8988500Y-15049500D02*
G75*
G03X8988500Y-15049500I-35000J0D01*
G01*
X8988500Y-15303500D02*
G75*
G03X8988500Y-15303500I-35000J0D01*
G01*
X8988500Y-16510000D02*
G75*
G03X8988500Y-16510000I-35000J0D01*
G01*
X8988500Y-18034000D02*
G75*
G03X8988500Y-18034000I-35000J0D01*
G01*
X9242500Y-8953500D02*
G75*
G03X9242500Y-8953500I-35000J0D01*
G01*
X9242500Y-9207500D02*
G75*
G03X9242500Y-9207500I-35000J0D01*
G01*
X9242500Y-15049500D02*
G75*
G03X9242500Y-15049500I-35000J0D01*
G01*
X9242500Y-15303500D02*
G75*
G03X9242500Y-15303500I-35000J0D01*
G01*
X9242500Y-15811500D02*
G75*
G03X9242500Y-15811500I-35000J0D01*
G01*
X9242500Y-16510000D02*
G75*
G03X9242500Y-16510000I-35000J0D01*
G01*
X9242500Y-18034000D02*
G75*
G03X9242500Y-18034000I-35000J0D01*
G01*
X9496500Y-8953500D02*
G75*
G03X9496500Y-8953500I-35000J0D01*
G01*
X9496500Y-9207500D02*
G75*
G03X9496500Y-9207500I-35000J0D01*
G01*
X9496500Y-9461500D02*
G75*
G03X9496500Y-9461500I-35000J0D01*
G01*
X9496500Y-10477500D02*
G75*
G03X9496500Y-10477500I-35000J0D01*
G01*
X9496500Y-15049500D02*
G75*
G03X9496500Y-15049500I-35000J0D01*
G01*
X9496500Y-15303500D02*
G75*
G03X9496500Y-15303500I-35000J0D01*
G01*
X9496500Y-15811500D02*
G75*
G03X9496500Y-15811500I-35000J0D01*
G01*
X9496500Y-16510000D02*
G75*
G03X9496500Y-16510000I-35000J0D01*
G01*
X9496500Y-18034000D02*
G75*
G03X9496500Y-18034000I-35000J0D01*
G01*
X9750500Y-8953500D02*
G75*
G03X9750500Y-8953500I-35000J0D01*
G01*
X9750500Y-9207500D02*
G75*
G03X9750500Y-9207500I-35000J0D01*
G01*
X9750500Y-11747500D02*
G75*
G03X9750500Y-11747500I-35000J0D01*
G01*
X9750500Y-12255500D02*
G75*
G03X9750500Y-12255500I-35000J0D01*
G01*
X9750500Y-12763500D02*
G75*
G03X9750500Y-12763500I-35000J0D01*
G01*
X9750500Y-15049500D02*
G75*
G03X9750500Y-15049500I-35000J0D01*
G01*
X9750500Y-15303500D02*
G75*
G03X9750500Y-15303500I-35000J0D01*
G01*
X9750500Y-15811500D02*
G75*
G03X9750500Y-15811500I-35000J0D01*
G01*
X9750500Y-16510000D02*
G75*
G03X9750500Y-16510000I-35000J0D01*
G01*
X9750500Y-18034000D02*
G75*
G03X9750500Y-18034000I-35000J0D01*
G01*
X9877500Y-9461500D02*
G75*
G03X9877500Y-9461500I-35000J0D01*
G01*
X9877500Y-10477500D02*
G75*
G03X9877500Y-10477500I-35000J0D01*
G01*
X10004500Y-8953500D02*
G75*
G03X10004500Y-8953500I-35000J0D01*
G01*
X10004500Y-9207500D02*
G75*
G03X10004500Y-9207500I-35000J0D01*
G01*
X10004500Y-14795500D02*
G75*
G03X10004500Y-14795500I-35000J0D01*
G01*
X10004500Y-15049500D02*
G75*
G03X10004500Y-15049500I-35000J0D01*
G01*
X10004500Y-15303500D02*
G75*
G03X10004500Y-15303500I-35000J0D01*
G01*
X10004500Y-15557500D02*
G75*
G03X10004500Y-15557500I-35000J0D01*
G01*
X10004500Y-16510000D02*
G75*
G03X10004500Y-16510000I-35000J0D01*
G01*
X10004500Y-18034000D02*
G75*
G03X10004500Y-18034000I-35000J0D01*
G01*
X10068000Y-12001500D02*
G75*
G03X10068000Y-12001500I-35000J0D01*
G01*
X10068000Y-12255500D02*
G75*
G03X10068000Y-12255500I-35000J0D01*
G01*
X10068000Y-12509500D02*
G75*
G03X10068000Y-12509500I-35000J0D01*
G01*
X10258500Y-8953500D02*
G75*
G03X10258500Y-8953500I-35000J0D01*
G01*
X10258500Y-9207500D02*
G75*
G03X10258500Y-9207500I-35000J0D01*
G01*
X10258500Y-15049500D02*
G75*
G03X10258500Y-15049500I-35000J0D01*
G01*
X10258500Y-15303500D02*
G75*
G03X10258500Y-15303500I-35000J0D01*
G01*
X10258500Y-16510000D02*
G75*
G03X10258500Y-16510000I-35000J0D01*
G01*
X10258500Y-18034000D02*
G75*
G03X10258500Y-18034000I-35000J0D01*
G01*
X10576000Y-15049500D02*
G75*
G03X10576000Y-15049500I-35000J0D01*
G01*
X10576000Y-15303500D02*
G75*
G03X10576000Y-15303500I-35000J0D01*
G01*
X11020500Y-14795500D02*
G75*
G03X11020500Y-14795500I-35000J0D01*
G01*
X11020500Y-15557500D02*
G75*
G03X11020500Y-15557500I-35000J0D01*
G01*
X11147500Y-15811500D02*
G75*
G03X11147500Y-15811500I-35000J0D01*
G01*
X11147500Y-16510000D02*
G75*
G03X11147500Y-16510000I-35000J0D01*
G01*
X11147500Y-18034000D02*
G75*
G03X11147500Y-18034000I-35000J0D01*
G01*
X11401500Y-4318000D02*
G75*
G03X11401500Y-4318000I-35000J0D01*
G01*
X11401500Y-4572000D02*
G75*
G03X11401500Y-4572000I-35000J0D01*
G01*
X11401500Y-4826000D02*
G75*
G03X11401500Y-4826000I-35000J0D01*
G01*
X11401500Y-5080000D02*
G75*
G03X11401500Y-5080000I-35000J0D01*
G01*
X11401500Y-5334000D02*
G75*
G03X11401500Y-5334000I-35000J0D01*
G01*
X11401500Y-5588000D02*
G75*
G03X11401500Y-5588000I-35000J0D01*
G01*
X11401500Y-5842000D02*
G75*
G03X11401500Y-5842000I-35000J0D01*
G01*
X11401500Y-6096000D02*
G75*
G03X11401500Y-6096000I-35000J0D01*
G01*
X11401500Y-6350000D02*
G75*
G03X11401500Y-6350000I-35000J0D01*
G01*
X11401500Y-15811500D02*
G75*
G03X11401500Y-15811500I-35000J0D01*
G01*
X11401500Y-16510000D02*
G75*
G03X11401500Y-16510000I-35000J0D01*
G01*
X11401500Y-18034000D02*
G75*
G03X11401500Y-18034000I-35000J0D01*
G01*
X11528500Y-6794500D02*
G75*
G03X11528500Y-6794500I-35000J0D01*
G01*
X11592000Y-15049500D02*
G75*
G03X11592000Y-15049500I-35000J0D01*
G01*
X11592000Y-15303500D02*
G75*
G03X11592000Y-15303500I-35000J0D01*
G01*
X11655500Y-15811500D02*
G75*
G03X11655500Y-15811500I-35000J0D01*
G01*
X11655500Y-16510000D02*
G75*
G03X11655500Y-16510000I-35000J0D01*
G01*
X11655500Y-18034000D02*
G75*
G03X11655500Y-18034000I-35000J0D01*
G01*
X11782500Y-6794500D02*
G75*
G03X11782500Y-6794500I-35000J0D01*
G01*
X11846000Y-8890000D02*
G75*
G03X11846000Y-8890000I-35000J0D01*
G01*
X11846000Y-9390000D02*
G75*
G03X11846000Y-9390000I-35000J0D01*
G01*
X11909500Y-16510000D02*
G75*
G03X11909500Y-16510000I-35000J0D01*
G01*
X11909500Y-18034000D02*
G75*
G03X11909500Y-18034000I-35000J0D01*
G01*
X12036500Y-6794500D02*
G75*
G03X12036500Y-6794500I-35000J0D01*
G01*
X12163500Y-4318000D02*
G75*
G03X12163500Y-4318000I-35000J0D01*
G01*
X12163500Y-4572000D02*
G75*
G03X12163500Y-4572000I-35000J0D01*
G01*
X12163500Y-4826000D02*
G75*
G03X12163500Y-4826000I-35000J0D01*
G01*
X12163500Y-5334000D02*
G75*
G03X12163500Y-5334000I-35000J0D01*
G01*
X12163500Y-5588000D02*
G75*
G03X12163500Y-5588000I-35000J0D01*
G01*
X12163500Y-5842000D02*
G75*
G03X12163500Y-5842000I-35000J0D01*
G01*
X12163500Y-6096000D02*
G75*
G03X12163500Y-6096000I-35000J0D01*
G01*
X12163500Y-6350000D02*
G75*
G03X12163500Y-6350000I-35000J0D01*
G01*
X12163500Y-16510000D02*
G75*
G03X12163500Y-16510000I-35000J0D01*
G01*
X12163500Y-18034000D02*
G75*
G03X12163500Y-18034000I-35000J0D01*
G01*
X12417500Y-15811500D02*
G75*
G03X12417500Y-15811500I-35000J0D01*
G01*
X12417500Y-16510000D02*
G75*
G03X12417500Y-16510000I-35000J0D01*
G01*
X12417500Y-18034000D02*
G75*
G03X12417500Y-18034000I-35000J0D01*
G01*
X12481000Y-4826000D02*
G75*
G03X12481000Y-4826000I-35000J0D01*
G01*
X12481000Y-5080000D02*
G75*
G03X12481000Y-5080000I-35000J0D01*
G01*
X12481000Y-5842000D02*
G75*
G03X12481000Y-5842000I-35000J0D01*
G01*
X12481000Y-6096000D02*
G75*
G03X12481000Y-6096000I-35000J0D01*
G01*
X12544500Y-9906000D02*
G75*
G03X12544500Y-9906000I-35000J0D01*
G01*
X12544754Y-8890052D02*
G75*
G03X12544754Y-8890052I-35000J0D01*
G01*
X12671500Y-2667000D02*
G75*
G03X12671500Y-2667000I-35000J0D01*
G01*
X12671500Y-2921000D02*
G75*
G03X12671500Y-2921000I-35000J0D01*
G01*
X12671500Y-3175000D02*
G75*
G03X12671500Y-3175000I-35000J0D01*
G01*
X12671500Y-3429000D02*
G75*
G03X12671500Y-3429000I-35000J0D01*
G01*
X12671500Y-3873500D02*
G75*
G03X12671500Y-3873500I-35000J0D01*
G01*
X12671500Y-4381500D02*
G75*
G03X12671500Y-4381500I-35000J0D01*
G01*
X12671500Y-15811500D02*
G75*
G03X12671500Y-15811500I-35000J0D01*
G01*
X12671500Y-16510000D02*
G75*
G03X12671500Y-16510000I-35000J0D01*
G01*
X12671500Y-18034000D02*
G75*
G03X12671500Y-18034000I-35000J0D01*
G01*
X12735000Y-4826000D02*
G75*
G03X12735000Y-4826000I-35000J0D01*
G01*
X12735000Y-5080000D02*
G75*
G03X12735000Y-5080000I-35000J0D01*
G01*
X12735000Y-5842000D02*
G75*
G03X12735000Y-5842000I-35000J0D01*
G01*
X12735000Y-6096000D02*
G75*
G03X12735000Y-6096000I-35000J0D01*
G01*
X12798500Y-6548500D02*
G75*
G03X12798500Y-6548500I-35000J0D01*
G01*
X12798500Y-7048500D02*
G75*
G03X12798500Y-7048500I-35000J0D01*
G01*
X12798500Y-9017000D02*
G75*
G03X12798500Y-9017000I-35000J0D01*
G01*
X12798500Y-10033000D02*
G75*
G03X12798500Y-10033000I-35000J0D01*
G01*
X12862000Y-7874000D02*
G75*
G03X12862000Y-7874000I-35000J0D01*
G01*
X12862000Y-8128000D02*
G75*
G03X12862000Y-8128000I-35000J0D01*
G01*
X12925500Y-3873500D02*
G75*
G03X12925500Y-3873500I-35000J0D01*
G01*
X12925500Y-4381500D02*
G75*
G03X12925500Y-4381500I-35000J0D01*
G01*
X12925500Y-15811500D02*
G75*
G03X12925500Y-15811500I-35000J0D01*
G01*
X12925500Y-16510000D02*
G75*
G03X12925500Y-16510000I-35000J0D01*
G01*
X12925500Y-18034000D02*
G75*
G03X12925500Y-18034000I-35000J0D01*
G01*
X12989000Y-4826000D02*
G75*
G03X12989000Y-4826000I-35000J0D01*
G01*
X12989000Y-5080000D02*
G75*
G03X12989000Y-5080000I-35000J0D01*
G01*
X12989000Y-5842000D02*
G75*
G03X12989000Y-5842000I-35000J0D01*
G01*
X12989000Y-6096000D02*
G75*
G03X12989000Y-6096000I-35000J0D01*
G01*
X13116000Y-10160000D02*
G75*
G03X13116000Y-10160000I-35000J0D01*
G01*
X13179500Y-3873500D02*
G75*
G03X13179500Y-3873500I-35000J0D01*
G01*
X13179500Y-4381500D02*
G75*
G03X13179500Y-4381500I-35000J0D01*
G01*
X13179500Y-16510000D02*
G75*
G03X13179500Y-16510000I-35000J0D01*
G01*
X13179500Y-18034000D02*
G75*
G03X13179500Y-18034000I-35000J0D01*
G01*
X13370000Y-10414000D02*
G75*
G03X13370000Y-10414000I-35000J0D01*
G01*
X13433246Y-6921448D02*
G75*
G03X13433246Y-6921448I-35000J0D01*
G01*
X13433500Y-3873500D02*
G75*
G03X13433500Y-3873500I-35000J0D01*
G01*
X13433500Y-4127500D02*
G75*
G03X13433500Y-4127500I-35000J0D01*
G01*
X13433500Y-4381500D02*
G75*
G03X13433500Y-4381500I-35000J0D01*
G01*
X13433500Y-4635500D02*
G75*
G03X13433500Y-4635500I-35000J0D01*
G01*
X13433500Y-4889500D02*
G75*
G03X13433500Y-4889500I-35000J0D01*
G01*
X13433500Y-5651500D02*
G75*
G03X13433500Y-5651500I-35000J0D01*
G01*
X13433500Y-5905500D02*
G75*
G03X13433500Y-5905500I-35000J0D01*
G01*
X13433500Y-16510000D02*
G75*
G03X13433500Y-16510000I-35000J0D01*
G01*
X13433500Y-18034000D02*
G75*
G03X13433500Y-18034000I-35000J0D01*
G01*
X13497000Y-7556500D02*
G75*
G03X13497000Y-7556500I-35000J0D01*
G01*
X13687500Y-2667000D02*
G75*
G03X13687500Y-2667000I-35000J0D01*
G01*
X13687500Y-2921000D02*
G75*
G03X13687500Y-2921000I-35000J0D01*
G01*
X13687500Y-3175000D02*
G75*
G03X13687500Y-3175000I-35000J0D01*
G01*
X13687500Y-3429000D02*
G75*
G03X13687500Y-3429000I-35000J0D01*
G01*
X13687500Y-4889500D02*
G75*
G03X13687500Y-4889500I-35000J0D01*
G01*
X13687500Y-5651500D02*
G75*
G03X13687500Y-5651500I-35000J0D01*
G01*
X13687500Y-5905500D02*
G75*
G03X13687500Y-5905500I-35000J0D01*
G01*
X13687500Y-6921500D02*
G75*
G03X13687500Y-6921500I-35000J0D01*
G01*
X13751000Y-7823200D02*
G75*
G03X13751000Y-7823200I-35000J0D01*
G01*
X13751000Y-8509000D02*
G75*
G03X13751000Y-8509000I-35000J0D01*
G01*
X13941500Y-4889500D02*
G75*
G03X13941500Y-4889500I-35000J0D01*
G01*
X13941500Y-5651500D02*
G75*
G03X13941500Y-5651500I-35000J0D01*
G01*
X13941500Y-5905500D02*
G75*
G03X13941500Y-5905500I-35000J0D01*
G01*
X13941500Y-6921500D02*
G75*
G03X13941500Y-6921500I-35000J0D01*
G01*
X14005000Y-7556500D02*
G75*
G03X14005000Y-7556500I-35000J0D01*
G01*
X14005000Y-11620500D02*
G75*
G03X14005000Y-11620500I-35000J0D01*
G01*
X14005000Y-11874500D02*
G75*
G03X14005000Y-11874500I-35000J0D01*
G01*
X14005000Y-12128500D02*
G75*
G03X14005000Y-12128500I-35000J0D01*
G01*
X14005000Y-12382500D02*
G75*
G03X14005000Y-12382500I-35000J0D01*
G01*
X14005000Y-15557500D02*
G75*
G03X14005000Y-15557500I-35000J0D01*
G01*
X14005000Y-16573500D02*
G75*
G03X14005000Y-16573500I-35000J0D01*
G01*
X14132000Y-10160000D02*
G75*
G03X14132000Y-10160000I-35000J0D01*
G01*
X14132000Y-12763500D02*
G75*
G03X14132000Y-12763500I-35000J0D01*
G01*
X14195500Y-4889500D02*
G75*
G03X14195500Y-4889500I-35000J0D01*
G01*
X14195500Y-5651500D02*
G75*
G03X14195500Y-5651500I-35000J0D01*
G01*
X14195500Y-5905500D02*
G75*
G03X14195500Y-5905500I-35000J0D01*
G01*
X14195500Y-6159500D02*
G75*
G03X14195500Y-6159500I-35000J0D01*
G01*
X14322500Y-7239000D02*
G75*
G03X14322500Y-7239000I-35000J0D01*
G01*
X14322500Y-8255000D02*
G75*
G03X14322500Y-8255000I-35000J0D01*
G01*
X14386000Y-10414000D02*
G75*
G03X14386000Y-10414000I-35000J0D01*
G01*
X14386000Y-12763500D02*
G75*
G03X14386000Y-12763500I-35000J0D01*
G01*
X14449500Y-3873500D02*
G75*
G03X14449500Y-3873500I-35000J0D01*
G01*
X14449500Y-4127500D02*
G75*
G03X14449500Y-4127500I-35000J0D01*
G01*
X14449500Y-4381500D02*
G75*
G03X14449500Y-4381500I-35000J0D01*
G01*
X14449500Y-4635500D02*
G75*
G03X14449500Y-4635500I-35000J0D01*
G01*
X14449500Y-4889500D02*
G75*
G03X14449500Y-4889500I-35000J0D01*
G01*
X14449500Y-5651500D02*
G75*
G03X14449500Y-5651500I-35000J0D01*
G01*
X14513000Y-6604000D02*
G75*
G03X14513000Y-6604000I-35000J0D01*
G01*
X14513000Y-6858000D02*
G75*
G03X14513000Y-6858000I-35000J0D01*
G01*
X14576500Y-16319500D02*
G75*
G03X14576500Y-16319500I-35000J0D01*
G01*
X14576500Y-16573500D02*
G75*
G03X14576500Y-16573500I-35000J0D01*
G01*
X14640000Y-12763500D02*
G75*
G03X14640000Y-12763500I-35000J0D01*
G01*
X14703500Y-4889500D02*
G75*
G03X14703500Y-4889500I-35000J0D01*
G01*
X14703500Y-5651500D02*
G75*
G03X14703500Y-5651500I-35000J0D01*
G01*
X14767000Y-7493000D02*
G75*
G03X14767000Y-7493000I-35000J0D01*
G01*
X14767000Y-8509000D02*
G75*
G03X14767000Y-8509000I-35000J0D01*
G01*
X14767000Y-11620500D02*
G75*
G03X14767000Y-11620500I-35000J0D01*
G01*
X14767000Y-11874500D02*
G75*
G03X14767000Y-11874500I-35000J0D01*
G01*
X14767000Y-12128500D02*
G75*
G03X14767000Y-12128500I-35000J0D01*
G01*
X14767000Y-12382500D02*
G75*
G03X14767000Y-12382500I-35000J0D01*
G01*
X14894000Y-4127500D02*
G75*
G03X14894000Y-4127500I-35000J0D01*
G01*
X14957500Y-4889500D02*
G75*
G03X14957500Y-4889500I-35000J0D01*
G01*
X14957500Y-5651500D02*
G75*
G03X14957500Y-5651500I-35000J0D01*
G01*
X15021000Y-7493000D02*
G75*
G03X15021000Y-7493000I-35000J0D01*
G01*
X15084500Y-8255000D02*
G75*
G03X15084500Y-8255000I-35000J0D01*
G01*
X15084500Y-8509000D02*
G75*
G03X15084500Y-8509000I-35000J0D01*
G01*
X15084500Y-8763000D02*
G75*
G03X15084500Y-8763000I-35000J0D01*
G01*
X15084500Y-9017000D02*
G75*
G03X15084500Y-9017000I-35000J0D01*
G01*
X15084500Y-9271000D02*
G75*
G03X15084500Y-9271000I-35000J0D01*
G01*
X15084500Y-9525000D02*
G75*
G03X15084500Y-9525000I-35000J0D01*
G01*
X15084500Y-9779000D02*
G75*
G03X15084500Y-9779000I-35000J0D01*
G01*
X15084500Y-10033000D02*
G75*
G03X15084500Y-10033000I-35000J0D01*
G01*
X15084500Y-11366500D02*
G75*
G03X15084500Y-11366500I-35000J0D01*
G01*
X15084500Y-11620500D02*
G75*
G03X15084500Y-11620500I-35000J0D01*
G01*
X15084500Y-11874500D02*
G75*
G03X15084500Y-11874500I-35000J0D01*
G01*
X15084500Y-12128500D02*
G75*
G03X15084500Y-12128500I-35000J0D01*
G01*
X15084500Y-12382500D02*
G75*
G03X15084500Y-12382500I-35000J0D01*
G01*
X15084500Y-12636500D02*
G75*
G03X15084500Y-12636500I-35000J0D01*
G01*
X15084500Y-12890500D02*
G75*
G03X15084500Y-12890500I-35000J0D01*
G01*
X15084500Y-13462000D02*
G75*
G03X15084500Y-13462000I-35000J0D01*
G01*
X15084500Y-13716000D02*
G75*
G03X15084500Y-13716000I-35000J0D01*
G01*
X15084500Y-13970000D02*
G75*
G03X15084500Y-13970000I-35000J0D01*
G01*
X15084500Y-14224000D02*
G75*
G03X15084500Y-14224000I-35000J0D01*
G01*
X15084500Y-14478000D02*
G75*
G03X15084500Y-14478000I-35000J0D01*
G01*
X15084500Y-14732000D02*
G75*
G03X15084500Y-14732000I-35000J0D01*
G01*
X15084500Y-14986000D02*
G75*
G03X15084500Y-14986000I-35000J0D01*
G01*
X15084500Y-15240000D02*
G75*
G03X15084500Y-15240000I-35000J0D01*
G01*
X15148000Y-4127500D02*
G75*
G03X15148000Y-4127500I-35000J0D01*
G01*
X15211500Y-5905500D02*
G75*
G03X15211500Y-5905500I-35000J0D01*
G01*
X15211500Y-6159500D02*
G75*
G03X15211500Y-6159500I-35000J0D01*
G01*
X15211500Y-6477000D02*
G75*
G03X15211500Y-6477000I-35000J0D01*
G01*
X15211500Y-6731000D02*
G75*
G03X15211500Y-6731000I-35000J0D01*
G01*
X15211500Y-6985000D02*
G75*
G03X15211500Y-6985000I-35000J0D01*
G01*
X15211500Y-10477500D02*
G75*
G03X15211500Y-10477500I-35000J0D01*
G01*
X15211500Y-10922000D02*
G75*
G03X15211500Y-10922000I-35000J0D01*
G01*
X15211500Y-15684500D02*
G75*
G03X15211500Y-15684500I-35000J0D01*
G01*
X15338246Y-5651448D02*
G75*
G03X15338246Y-5651448I-35000J0D01*
G01*
X15338500Y-4635500D02*
G75*
G03X15338500Y-4635500I-35000J0D01*
G01*
X15465500Y-10477500D02*
G75*
G03X15465500Y-10477500I-35000J0D01*
G01*
X15465500Y-10922000D02*
G75*
G03X15465500Y-10922000I-35000J0D01*
G01*
X15465500Y-15684500D02*
G75*
G03X15465500Y-15684500I-35000J0D01*
G01*
X15465500Y-16319500D02*
G75*
G03X15465500Y-16319500I-35000J0D01*
G01*
X15465500Y-16573500D02*
G75*
G03X15465500Y-16573500I-35000J0D01*
G01*
X15592500Y-6477000D02*
G75*
G03X15592500Y-6477000I-35000J0D01*
G01*
X15592500Y-6731000D02*
G75*
G03X15592500Y-6731000I-35000J0D01*
G01*
X15592500Y-6985000D02*
G75*
G03X15592500Y-6985000I-35000J0D01*
G01*
X15592500Y-7239000D02*
G75*
G03X15592500Y-7239000I-35000J0D01*
G01*
X15656000Y-5207000D02*
G75*
G03X15656000Y-5207000I-35000J0D01*
G01*
X15719500Y-10477500D02*
G75*
G03X15719500Y-10477500I-35000J0D01*
G01*
X15719500Y-10922000D02*
G75*
G03X15719500Y-10922000I-35000J0D01*
G01*
X15719500Y-15684500D02*
G75*
G03X15719500Y-15684500I-35000J0D01*
G01*
X15846500Y-4381500D02*
G75*
G03X15846500Y-4381500I-35000J0D01*
G01*
X15846500Y-4635500D02*
G75*
G03X15846500Y-4635500I-35000J0D01*
G01*
X15846500Y-5842000D02*
G75*
G03X15846500Y-5842000I-35000J0D01*
G01*
X15846500Y-8255000D02*
G75*
G03X15846500Y-8255000I-35000J0D01*
G01*
X15846500Y-8509000D02*
G75*
G03X15846500Y-8509000I-35000J0D01*
G01*
X15846500Y-8763000D02*
G75*
G03X15846500Y-8763000I-35000J0D01*
G01*
X15846500Y-9017000D02*
G75*
G03X15846500Y-9017000I-35000J0D01*
G01*
X15846500Y-9271000D02*
G75*
G03X15846500Y-9271000I-35000J0D01*
G01*
X15846500Y-9525000D02*
G75*
G03X15846500Y-9525000I-35000J0D01*
G01*
X15846500Y-9779000D02*
G75*
G03X15846500Y-9779000I-35000J0D01*
G01*
X15846500Y-10033000D02*
G75*
G03X15846500Y-10033000I-35000J0D01*
G01*
X15846500Y-11366500D02*
G75*
G03X15846500Y-11366500I-35000J0D01*
G01*
X15846500Y-11620500D02*
G75*
G03X15846500Y-11620500I-35000J0D01*
G01*
X15846500Y-11874500D02*
G75*
G03X15846500Y-11874500I-35000J0D01*
G01*
X15846500Y-12128500D02*
G75*
G03X15846500Y-12128500I-35000J0D01*
G01*
X15846500Y-12382500D02*
G75*
G03X15846500Y-12382500I-35000J0D01*
G01*
X15846500Y-12636500D02*
G75*
G03X15846500Y-12636500I-35000J0D01*
G01*
X15846500Y-12890500D02*
G75*
G03X15846500Y-12890500I-35000J0D01*
G01*
X15846500Y-13462000D02*
G75*
G03X15846500Y-13462000I-35000J0D01*
G01*
X15846500Y-13716000D02*
G75*
G03X15846500Y-13716000I-35000J0D01*
G01*
X15846500Y-13970000D02*
G75*
G03X15846500Y-13970000I-35000J0D01*
G01*
X15846500Y-14224000D02*
G75*
G03X15846500Y-14224000I-35000J0D01*
G01*
X15846500Y-14478000D02*
G75*
G03X15846500Y-14478000I-35000J0D01*
G01*
X15846500Y-14732000D02*
G75*
G03X15846500Y-14732000I-35000J0D01*
G01*
X15846500Y-14986000D02*
G75*
G03X15846500Y-14986000I-35000J0D01*
G01*
X15846500Y-15240000D02*
G75*
G03X15846500Y-15240000I-35000J0D01*
G01*
X15910000Y-5207000D02*
G75*
G03X15910000Y-5207000I-35000J0D01*
G01*
X16037000Y-2667000D02*
G75*
G03X16037000Y-2667000I-35000J0D01*
G01*
X16037000Y-2921000D02*
G75*
G03X16037000Y-2921000I-35000J0D01*
G01*
X16037000Y-3556000D02*
G75*
G03X16037000Y-3556000I-35000J0D01*
G01*
X16037000Y-3810000D02*
G75*
G03X16037000Y-3810000I-35000J0D01*
G01*
X16100500Y-5842000D02*
G75*
G03X16100500Y-5842000I-35000J0D01*
G01*
X16100500Y-9525000D02*
G75*
G03X16100500Y-9525000I-35000J0D01*
G01*
X16100500Y-10541000D02*
G75*
G03X16100500Y-10541000I-35000J0D01*
G01*
X16100500Y-13716000D02*
G75*
G03X16100500Y-13716000I-35000J0D01*
G01*
X16100500Y-14732000D02*
G75*
G03X16100500Y-14732000I-35000J0D01*
G01*
X16164000Y-5207000D02*
G75*
G03X16164000Y-5207000I-35000J0D01*
G01*
X16227500Y-15557500D02*
G75*
G03X16227500Y-15557500I-35000J0D01*
G01*
X16227500Y-16573500D02*
G75*
G03X16227500Y-16573500I-35000J0D01*
G01*
X16354500Y-6477000D02*
G75*
G03X16354500Y-6477000I-35000J0D01*
G01*
X16354500Y-6731000D02*
G75*
G03X16354500Y-6731000I-35000J0D01*
G01*
X16354500Y-6985000D02*
G75*
G03X16354500Y-6985000I-35000J0D01*
G01*
X16354500Y-7239000D02*
G75*
G03X16354500Y-7239000I-35000J0D01*
G01*
X16481500Y-4381500D02*
G75*
G03X16481500Y-4381500I-35000J0D01*
G01*
X16481500Y-5397500D02*
G75*
G03X16481500Y-5397500I-35000J0D01*
G01*
X5588000Y-17862000D02*
X5588000Y-17952000D01*
X5543000Y-17907000D02*
X5633000Y-17907000D01*
X5842000Y-17862000D02*
X5842000Y-17952000D01*
X5797000Y-17907000D02*
X5887000Y-17907000D01*
X10541000Y-16846000D02*
X10541000Y-16936000D01*
X10496000Y-16891000D02*
X10586000Y-16891000D01*
X10541000Y-17671500D02*
X10541000Y-17761500D01*
X10496000Y-17716500D02*
X10586000Y-17716500D01*
X10795000Y-16846000D02*
X10795000Y-16936000D01*
X10750000Y-16891000D02*
X10840000Y-16891000D01*
X10795000Y-17671500D02*
X10795000Y-17761500D01*
X10750000Y-17716500D02*
X10840000Y-17716500D01*
X14033500Y-17227000D02*
X14033500Y-17317000D01*
X13988500Y-17272000D02*
X14078500Y-17272000D01*
X14033500Y-17735000D02*
X14033500Y-17825000D01*
X13988500Y-17780000D02*
X14078500Y-17780000D01*
X14541500Y-17227000D02*
X14541500Y-17317000D01*
X14496500Y-17272000D02*
X14586500Y-17272000D01*
X14541500Y-17735000D02*
X14541500Y-17825000D01*
X14496500Y-17780000D02*
X14586500Y-17780000D01*
X15430500Y-17227000D02*
X15430500Y-17317000D01*
X15385500Y-17272000D02*
X15475500Y-17272000D01*
X15430500Y-17735000D02*
X15430500Y-17825000D01*
X15385500Y-17780000D02*
X15475500Y-17780000D01*
X15811500Y-7511500D02*
X15811500Y-7601500D01*
X15766500Y-7556500D02*
X15856500Y-7556500D01*
X15811500Y-7765500D02*
X15811500Y-7855500D01*
X15766500Y-7810500D02*
X15856500Y-7810500D01*
X15938500Y-17227000D02*
X15938500Y-17317000D01*
X15893500Y-17272000D02*
X15983500Y-17272000D01*
X15938500Y-17735000D02*
X15938500Y-17825000D01*
X15893500Y-17780000D02*
X15983500Y-17780000D01*
X16319500Y-8210000D02*
X16319500Y-8300000D01*
X16274500Y-8255000D02*
X16364500Y-8255000D01*
X16319500Y-8845000D02*
X16319500Y-8935000D01*
X16274500Y-8890000D02*
X16364500Y-8890000D01*
X16319500Y-9480000D02*
X16319500Y-9570000D01*
X16274500Y-9525000D02*
X16364500Y-9525000D01*
X16319500Y-10115000D02*
X16319500Y-10205000D01*
X16274500Y-10160000D02*
X16364500Y-10160000D01*
X16319500Y-10750000D02*
X16319500Y-10840000D01*
X16274500Y-10795000D02*
X16364500Y-10795000D01*
X16319500Y-11385000D02*
X16319500Y-11475000D01*
X16274500Y-11430000D02*
X16364500Y-11430000D01*
X16319500Y-12020000D02*
X16319500Y-12110000D01*
X16274500Y-12065000D02*
X16364500Y-12065000D01*
X16319500Y-12655000D02*
X16319500Y-12745000D01*
X16274500Y-12700000D02*
X16364500Y-12700000D01*
X16319500Y-13290000D02*
X16319500Y-13380000D01*
X16274500Y-13335000D02*
X16364500Y-13335000D01*
X16319500Y-13925000D02*
X16319500Y-14015000D01*
X16274500Y-13970000D02*
X16364500Y-13970000D01*
X16319500Y-14560000D02*
X16319500Y-14650000D01*
X16274500Y-14605000D02*
X16364500Y-14605000D01*
X16319500Y-15195000D02*
X16319500Y-15285000D01*
X16274500Y-15240000D02*
X16364500Y-15240000D01*
X16573500Y-8210000D02*
X16573500Y-8300000D01*
X16528500Y-8255000D02*
X16618500Y-8255000D01*
X16573500Y-8845000D02*
X16573500Y-8935000D01*
X16528500Y-8890000D02*
X16618500Y-8890000D01*
X16573500Y-9480000D02*
X16573500Y-9570000D01*
X16528500Y-9525000D02*
X16618500Y-9525000D01*
X16573500Y-10115000D02*
X16573500Y-10205000D01*
X16528500Y-10160000D02*
X16618500Y-10160000D01*
X16573500Y-10750000D02*
X16573500Y-10840000D01*
X16528500Y-10795000D02*
X16618500Y-10795000D01*
X16573500Y-11385000D02*
X16573500Y-11475000D01*
X16528500Y-11430000D02*
X16618500Y-11430000D01*
X16573500Y-12020000D02*
X16573500Y-12110000D01*
X16528500Y-12065000D02*
X16618500Y-12065000D01*
X16573500Y-12655000D02*
X16573500Y-12745000D01*
X16528500Y-12700000D02*
X16618500Y-12700000D01*
X16573500Y-13290000D02*
X16573500Y-13380000D01*
X16528500Y-13335000D02*
X16618500Y-13335000D01*
X16573500Y-13925000D02*
X16573500Y-14015000D01*
X16528500Y-13970000D02*
X16618500Y-13970000D01*
X16573500Y-14560000D02*
X16573500Y-14650000D01*
X16528500Y-14605000D02*
X16618500Y-14605000D01*
X16573500Y-15195000D02*
X16573500Y-15285000D01*
X16528500Y-15240000D02*
X16618500Y-15240000D01*
X12862356Y-14259356D02*
X12862356Y-14188644D01*
X12791644Y-14188644D01*
X12791644Y-14259356D01*
X12862356Y-14259356D01*
X12862356Y-14513356D02*
X12862356Y-14442644D01*
X12791644Y-14442644D01*
X12791644Y-14513356D01*
X12862356Y-14513356D01*
X12862356Y-14767356D02*
X12862356Y-14696644D01*
X12791644Y-14696644D01*
X12791644Y-14767356D01*
X12862356Y-14767356D01*
X12862356Y-15021356D02*
X12862356Y-14950644D01*
X12791644Y-14950644D01*
X12791644Y-15021356D01*
X12862356Y-15021356D01*
X12862356Y-15275356D02*
X12862356Y-15204644D01*
X12791644Y-15204644D01*
X12791644Y-15275356D01*
X12862356Y-15275356D01*
X14767356Y-10068356D02*
X14767356Y-9997644D01*
X14696644Y-9997644D01*
X14696644Y-10068356D01*
X14767356Y-10068356D01*
X14767356Y-10322356D02*
X14767356Y-10251644D01*
X14696644Y-10251644D01*
X14696644Y-10322356D01*
X14767356Y-10322356D01*
X14767356Y-10576356D02*
X14767356Y-10505644D01*
X14696644Y-10505644D01*
X14696644Y-10576356D01*
X14767356Y-10576356D01*
X14767356Y-10830356D02*
X14767356Y-10759644D01*
X14696644Y-10759644D01*
X14696644Y-10830356D01*
X14767356Y-10830356D01*
X14767356Y-11084356D02*
X14767356Y-11013644D01*
X14696644Y-11013644D01*
X14696644Y-11084356D01*
X14767356Y-11084356D01*
X16608856Y-15973856D02*
X16608856Y-15903144D01*
X16538144Y-15903144D01*
X16538144Y-15973856D01*
X16608856Y-15973856D01*
X16608856Y-16227856D02*
X16608856Y-16157144D01*
X16538144Y-16157144D01*
X16538144Y-16227856D01*
X16608856Y-16227856D01*
X16608856Y-16862856D02*
X16608856Y-16792144D01*
X16538144Y-16792144D01*
X16538144Y-16862856D01*
X16608856Y-16862856D01*
X16608856Y-17116856D02*
X16608856Y-17046144D01*
X16538144Y-17046144D01*
X16538144Y-17116856D01*
X16608856Y-17116856D01*
X4000500Y-16247500D02*
X4055500Y-16192500D01*
X4000500Y-16137500D01*
X3945500Y-16192500D01*
X4000500Y-16247500D01*
X4254500Y-16247500D02*
X4309500Y-16192500D01*
X4254500Y-16137500D01*
X4199500Y-16192500D01*
X4254500Y-16247500D01*
X4508500Y-16247500D02*
X4563500Y-16192500D01*
X4508500Y-16137500D01*
X4453500Y-16192500D01*
X4508500Y-16247500D01*
X5524500Y-16247500D02*
X5579500Y-16192500D01*
X5524500Y-16137500D01*
X5469500Y-16192500D01*
X5524500Y-16247500D01*
X5778500Y-16247500D02*
X5833500Y-16192500D01*
X5778500Y-16137500D01*
X5723500Y-16192500D01*
X5778500Y-16247500D01*
X6032500Y-16247500D02*
X6087500Y-16192500D01*
X6032500Y-16137500D01*
X5977500Y-16192500D01*
X6032500Y-16247500D01*
X9715500Y-3484000D02*
X9770500Y-3429000D01*
X9715500Y-3374000D01*
X9660500Y-3429000D01*
X9715500Y-3484000D01*
X9842500Y-3204600D02*
X9897500Y-3149600D01*
X9842500Y-3094600D01*
X9787500Y-3149600D01*
X9842500Y-3204600D01*
X9969500Y-3484000D02*
X10024500Y-3429000D01*
X9969500Y-3374000D01*
X9914500Y-3429000D01*
X9969500Y-3484000D01*
X10096500Y-3204600D02*
X10151500Y-3149600D01*
X10096500Y-3094600D01*
X10041500Y-3149600D01*
X10096500Y-3204600D01*
X10223500Y-3484000D02*
X10278500Y-3429000D01*
X10223500Y-3374000D01*
X10168500Y-3429000D01*
X10223500Y-3484000D01*
X10350500Y-3204600D02*
X10405500Y-3149600D01*
X10350500Y-3094600D01*
X10295500Y-3149600D01*
X10350500Y-3204600D01*
X10477500Y-3484000D02*
X10532500Y-3429000D01*
X10477500Y-3374000D01*
X10422500Y-3429000D01*
X10477500Y-3484000D01*
X10604500Y-3204600D02*
X10659500Y-3149600D01*
X10604500Y-3094600D01*
X10549500Y-3149600D01*
X10604500Y-3204600D01*
X10731500Y-3484000D02*
X10786500Y-3429000D01*
X10731500Y-3374000D01*
X10676500Y-3429000D01*
X10731500Y-3484000D01*
X13081000Y-9072000D02*
X13136000Y-9017000D01*
X13081000Y-8962000D01*
X13026000Y-9017000D01*
X13081000Y-9072000D01*
X13081000Y-9580000D02*
X13136000Y-9525000D01*
X13081000Y-9470000D01*
X13026000Y-9525000D01*
X13081000Y-9580000D01*
X14605000Y-9072000D02*
X14660000Y-9017000D01*
X14605000Y-8962000D01*
X14550000Y-9017000D01*
X14605000Y-9072000D01*
X14605000Y-9326000D02*
X14660000Y-9271000D01*
X14605000Y-9216000D01*
X14550000Y-9271000D01*
X14605000Y-9326000D01*
X14605000Y-9580000D02*
X14660000Y-9525000D01*
X14605000Y-9470000D01*
X14550000Y-9525000D01*
X14605000Y-9580000D01*
X14017000Y-2333000D02*
X14177000Y-2493000D01*
X14177000Y-2333000D02*
X14017000Y-2493000D01*
X14177000Y-2413000D02*
G75*
G03X14177000Y-2413000I-80000J0D01*
G01*
X14017000Y-2904500D02*
X14177000Y-3064500D01*
X14177000Y-2904500D02*
X14017000Y-3064500D01*
X14177000Y-2984500D02*
G75*
G03X14177000Y-2984500I-80000J0D01*
G01*
X14017000Y-3476000D02*
X14177000Y-3636000D01*
X14177000Y-3476000D02*
X14017000Y-3636000D01*
X14177000Y-3556000D02*
G75*
G03X14177000Y-3556000I-80000J0D01*
G01*
X14271000Y-2587000D02*
X14431000Y-2747000D01*
X14431000Y-2587000D02*
X14271000Y-2747000D01*
X14431000Y-2667000D02*
G75*
G03X14431000Y-2667000I-80000J0D01*
G01*
X14271000Y-3095000D02*
X14431000Y-3255000D01*
X14431000Y-3095000D02*
X14271000Y-3255000D01*
X14431000Y-3175000D02*
G75*
G03X14431000Y-3175000I-80000J0D01*
G01*
X15033000Y-2333000D02*
X15193000Y-2493000D01*
X15193000Y-2333000D02*
X15033000Y-2493000D01*
X15193000Y-2413000D02*
G75*
G03X15193000Y-2413000I-80000J0D01*
G01*
X15033000Y-2904500D02*
X15193000Y-3064500D01*
X15193000Y-2904500D02*
X15033000Y-3064500D01*
X15193000Y-2984500D02*
G75*
G03X15193000Y-2984500I-80000J0D01*
G01*
X15033000Y-3476000D02*
X15193000Y-3636000D01*
X15193000Y-3476000D02*
X15033000Y-3636000D01*
X15193000Y-3556000D02*
G75*
G03X15193000Y-3556000I-80000J0D01*
G01*
X15287000Y-2587000D02*
X15447000Y-2747000D01*
X15447000Y-2587000D02*
X15287000Y-2747000D01*
X15447000Y-2667000D02*
G75*
G03X15447000Y-2667000I-80000J0D01*
G01*
X15287000Y-3095000D02*
X15447000Y-3255000D01*
X15447000Y-3095000D02*
X15287000Y-3255000D01*
X15447000Y-3175000D02*
G75*
G03X15447000Y-3175000I-80000J0D01*
G01*
X13728000Y-8648000D02*
X13958000Y-8878000D01*
X13958000Y-8648000D02*
X13728000Y-8878000D01*
X13843000Y-8648000D02*
X13843000Y-8878000D01*
X13728000Y-8763000D02*
X13958000Y-8763000D01*
X13728000Y-9664000D02*
X13958000Y-9894000D01*
X13958000Y-9664000D02*
X13728000Y-9894000D01*
X13843000Y-9664000D02*
X13843000Y-9894000D01*
X13728000Y-9779000D02*
X13958000Y-9779000D01*
X2595500Y-17010000D02*
X2865500Y-17280000D01*
X2865500Y-17010000D02*
X2595500Y-17280000D01*
X2825960Y-17240460D02*
X2825960Y-17049540D01*
X2635040Y-17049540D01*
X2635040Y-17240460D01*
X2825960Y-17240460D01*
X2976500Y-17454500D02*
X3246500Y-17724500D01*
X3246500Y-17454500D02*
X2976500Y-17724500D01*
X3206960Y-17684960D02*
X3206960Y-17494040D01*
X3016040Y-17494040D01*
X3016040Y-17684960D01*
X3206960Y-17684960D01*
X3205500Y-16985000D02*
X3525500Y-17305000D01*
X3525500Y-16985000D02*
X3205500Y-17305000D01*
X3365500Y-17305000D02*
X3525500Y-17145000D01*
X3365500Y-16985000D01*
X3205500Y-17145000D01*
X3365500Y-17305000D01*
X8831600Y-3129300D02*
X9151600Y-3449300D01*
X9151600Y-3129300D02*
X8831600Y-3449300D01*
X8991600Y-3449300D02*
X9151600Y-3289300D01*
X8991600Y-3129300D01*
X8831600Y-3289300D01*
X8991600Y-3449300D01*
X11295400Y-3129300D02*
X11615400Y-3449300D01*
X11615400Y-3129300D02*
X11295400Y-3449300D01*
X11455400Y-3449300D02*
X11615400Y-3289300D01*
X11455400Y-3129300D01*
X11295400Y-3289300D01*
X11455400Y-3449300D01*
X2159000Y-2243000D02*
X2159000Y-2583000D01*
X1989000Y-2413000D02*
X2329000Y-2413000D01*
X2329000Y-2413000D02*
G75*
G03X2329000Y-2413000I-170000J0D01*
G01*
X2159000Y-17864000D02*
X2159000Y-18204000D01*
X1989000Y-18034000D02*
X2329000Y-18034000D01*
X2329000Y-18034000D02*
G75*
G03X2329000Y-18034000I-170000J0D01*
G01*
X3746500Y-3957500D02*
X3746500Y-4297500D01*
X3576500Y-4127500D02*
X3916500Y-4127500D01*
X3916500Y-4127500D02*
G75*
G03X3916500Y-4127500I-170000J0D01*
G01*
X3746500Y-7958000D02*
X3746500Y-8298000D01*
X3576500Y-8128000D02*
X3916500Y-8128000D01*
X3916500Y-8128000D02*
G75*
G03X3916500Y-8128000I-170000J0D01*
G01*
X10731500Y-3957500D02*
X10731500Y-4297500D01*
X10561500Y-4127500D02*
X10901500Y-4127500D01*
X10901500Y-4127500D02*
G75*
G03X10901500Y-4127500I-170000J0D01*
G01*
X10731500Y-7958000D02*
X10731500Y-8298000D01*
X10561500Y-8128000D02*
X10901500Y-8128000D01*
X10901500Y-8128000D02*
G75*
G03X10901500Y-8128000I-170000J0D01*
G01*
X16764000Y-2243000D02*
X16764000Y-2583000D01*
X16594000Y-2413000D02*
X16934000Y-2413000D01*
X16934000Y-2413000D02*
G75*
G03X16934000Y-2413000I-170000J0D01*
G01*
X16764000Y-17864000D02*
X16764000Y-18204000D01*
X16594000Y-18034000D02*
X16934000Y-18034000D01*
X16934000Y-18034000D02*
G75*
G03X16934000Y-18034000I-170000J0D01*
G01*
X12072772Y-12580772D02*
X12072772Y-11930228D01*
X11422228Y-11930228D01*
X11422228Y-12580772D01*
X12072772Y-12580772D01*
X12207500Y-12255500D02*
G75*
G03X12207500Y-12255500I-460000J0D01*
G01*
D13*
X2041928Y-18888214D02*
X2041928Y-18588214D01*
X2113357Y-18588214D01*
X2156214Y-18602500D01*
X2184786Y-18631072D01*
X2199071Y-18659643D01*
X2213357Y-18716786D01*
X2213357Y-18759643D01*
X2199071Y-18816786D01*
X2184786Y-18845357D01*
X2156214Y-18873929D01*
X2113357Y-18888214D01*
X2041928Y-18888214D01*
X2341929Y-18888214D02*
X2341929Y-18688214D01*
X2341929Y-18745357D02*
X2356214Y-18716786D01*
X2370500Y-18702500D01*
X2399071Y-18688214D01*
X2427643Y-18688214D01*
X2527643Y-18888214D02*
X2527643Y-18688214D01*
X2527643Y-18588214D02*
X2513357Y-18602500D01*
X2527643Y-18616786D01*
X2541929Y-18602500D01*
X2527643Y-18588214D01*
X2527643Y-18616786D01*
X2713357Y-18888214D02*
X2684786Y-18873929D01*
X2670500Y-18845357D01*
X2670500Y-18588214D01*
X2870500Y-18888214D02*
X2841928Y-18873929D01*
X2827643Y-18845357D01*
X2827643Y-18588214D01*
X3213357Y-18888214D02*
X3213357Y-18588214D01*
X3313357Y-18802500D01*
X3413357Y-18588214D01*
X3413357Y-18888214D01*
X3684786Y-18888214D02*
X3684786Y-18731072D01*
X3670500Y-18702500D01*
X3641928Y-18688214D01*
X3584786Y-18688214D01*
X3556214Y-18702500D01*
X3684786Y-18873929D02*
X3656214Y-18888214D01*
X3584786Y-18888214D01*
X3556214Y-18873929D01*
X3541928Y-18845357D01*
X3541928Y-18816786D01*
X3556214Y-18788214D01*
X3584786Y-18773929D01*
X3656214Y-18773929D01*
X3684786Y-18759643D01*
X3827643Y-18688214D02*
X3827643Y-18988214D01*
X3827643Y-18702500D02*
X3856214Y-18688214D01*
X3913357Y-18688214D01*
X3941928Y-18702500D01*
X3956214Y-18716786D01*
X3970500Y-18745357D01*
X3970500Y-18831072D01*
X3956214Y-18859643D01*
X3941928Y-18873929D01*
X3913357Y-18888214D01*
X3856214Y-18888214D01*
X3827643Y-18873929D01*
X4099071Y-18859643D02*
X4113357Y-18873929D01*
X4099071Y-18888214D01*
X4084786Y-18873929D01*
X4099071Y-18859643D01*
X4099071Y-18888214D01*
X4099071Y-18702500D02*
X4113357Y-18716786D01*
X4099071Y-18731072D01*
X4084786Y-18716786D01*
X4099071Y-18702500D01*
X4099071Y-18731072D01*
X1710500Y-19352500D02*
X1770500Y-19412500D01*
X1770500Y-19352500D02*
X1710500Y-19412500D01*
X2099071Y-19218214D02*
X2127643Y-19218214D01*
X2156214Y-19232500D01*
X2170500Y-19246786D01*
X2184786Y-19275357D01*
X2199071Y-19332500D01*
X2199071Y-19403929D01*
X2184786Y-19461072D01*
X2170500Y-19489643D01*
X2156214Y-19503929D01*
X2127643Y-19518214D01*
X2099071Y-19518214D01*
X2070500Y-19503929D01*
X2056214Y-19489643D01*
X2041928Y-19461072D01*
X2027643Y-19403929D01*
X2027643Y-19332500D01*
X2041928Y-19275357D01*
X2056214Y-19246786D01*
X2070500Y-19232500D01*
X2099071Y-19218214D01*
X2327643Y-19489643D02*
X2341929Y-19503929D01*
X2327643Y-19518214D01*
X2313357Y-19503929D01*
X2327643Y-19489643D01*
X2327643Y-19518214D01*
X2599071Y-19218214D02*
X2541928Y-19218214D01*
X2513357Y-19232500D01*
X2499071Y-19246786D01*
X2470500Y-19289643D01*
X2456214Y-19346786D01*
X2456214Y-19461072D01*
X2470500Y-19489643D01*
X2484786Y-19503929D01*
X2513357Y-19518214D01*
X2570500Y-19518214D01*
X2599071Y-19503929D01*
X2613357Y-19489643D01*
X2627643Y-19461072D01*
X2627643Y-19389643D01*
X2613357Y-19361072D01*
X2599071Y-19346786D01*
X2570500Y-19332500D01*
X2513357Y-19332500D01*
X2484786Y-19346786D01*
X2470500Y-19361072D01*
X2456214Y-19389643D01*
X2813357Y-19218214D02*
X2841928Y-19218214D01*
X2870500Y-19232500D01*
X2884786Y-19246786D01*
X2899071Y-19275357D01*
X2913357Y-19332500D01*
X2913357Y-19403929D01*
X2899071Y-19461072D01*
X2884786Y-19489643D01*
X2870500Y-19503929D01*
X2841928Y-19518214D01*
X2813357Y-19518214D01*
X2784786Y-19503929D01*
X2770500Y-19489643D01*
X2756214Y-19461072D01*
X2741929Y-19403929D01*
X2741929Y-19332500D01*
X2756214Y-19275357D01*
X2770500Y-19246786D01*
X2784786Y-19232500D01*
X2813357Y-19218214D01*
X3041928Y-19518214D02*
X3041928Y-19318214D01*
X3041928Y-19346786D02*
X3056214Y-19332500D01*
X3084786Y-19318214D01*
X3127643Y-19318214D01*
X3156214Y-19332500D01*
X3170500Y-19361072D01*
X3170500Y-19518214D01*
X3170500Y-19361072D02*
X3184786Y-19332500D01*
X3213357Y-19318214D01*
X3256214Y-19318214D01*
X3284786Y-19332500D01*
X3299071Y-19361072D01*
X3299071Y-19518214D01*
X3441928Y-19518214D02*
X3441928Y-19318214D01*
X3441928Y-19346786D02*
X3456214Y-19332500D01*
X3484786Y-19318214D01*
X3527643Y-19318214D01*
X3556214Y-19332500D01*
X3570500Y-19361072D01*
X3570500Y-19518214D01*
X3570500Y-19361072D02*
X3584786Y-19332500D01*
X3613357Y-19318214D01*
X3656214Y-19318214D01*
X3684786Y-19332500D01*
X3699071Y-19361072D01*
X3699071Y-19518214D01*
X4284786Y-19203929D02*
X4027643Y-19589643D01*
X4670500Y-19218214D02*
X4699071Y-19218214D01*
X4727643Y-19232500D01*
X4741928Y-19246786D01*
X4756214Y-19275357D01*
X4770500Y-19332500D01*
X4770500Y-19403929D01*
X4756214Y-19461072D01*
X4741928Y-19489643D01*
X4727643Y-19503929D01*
X4699071Y-19518214D01*
X4670500Y-19518214D01*
X4641928Y-19503929D01*
X4627643Y-19489643D01*
X4613357Y-19461072D01*
X4599071Y-19403929D01*
X4599071Y-19332500D01*
X4613357Y-19275357D01*
X4627643Y-19246786D01*
X4641928Y-19232500D01*
X4670500Y-19218214D01*
X4899071Y-19489643D02*
X4913357Y-19503929D01*
X4899071Y-19518214D01*
X4884786Y-19503929D01*
X4899071Y-19489643D01*
X4899071Y-19518214D01*
X5099071Y-19218214D02*
X5127643Y-19218214D01*
X5156214Y-19232500D01*
X5170500Y-19246786D01*
X5184786Y-19275357D01*
X5199071Y-19332500D01*
X5199071Y-19403929D01*
X5184786Y-19461072D01*
X5170500Y-19489643D01*
X5156214Y-19503929D01*
X5127643Y-19518214D01*
X5099071Y-19518214D01*
X5070500Y-19503929D01*
X5056214Y-19489643D01*
X5041928Y-19461072D01*
X5027643Y-19403929D01*
X5027643Y-19332500D01*
X5041928Y-19275357D01*
X5056214Y-19246786D01*
X5070500Y-19232500D01*
X5099071Y-19218214D01*
X5313357Y-19246786D02*
X5327643Y-19232500D01*
X5356214Y-19218214D01*
X5427643Y-19218214D01*
X5456214Y-19232500D01*
X5470500Y-19246786D01*
X5484786Y-19275357D01*
X5484786Y-19303929D01*
X5470500Y-19346786D01*
X5299071Y-19518214D01*
X5484786Y-19518214D01*
X5741928Y-19318214D02*
X5741928Y-19518214D01*
X5670500Y-19203929D02*
X5599071Y-19418214D01*
X5784785Y-19418214D01*
X5884786Y-19218214D02*
X5884786Y-19275357D01*
X5999071Y-19218214D02*
X5999071Y-19275357D01*
X6441928Y-19632500D02*
X6427643Y-19618214D01*
X6399071Y-19575357D01*
X6384785Y-19546786D01*
X6370500Y-19503929D01*
X6356214Y-19432500D01*
X6356214Y-19375357D01*
X6370500Y-19303929D01*
X6384785Y-19261072D01*
X6399071Y-19232500D01*
X6427643Y-19189643D01*
X6441928Y-19175357D01*
X6713357Y-19518214D02*
X6541928Y-19518214D01*
X6627643Y-19518214D02*
X6627643Y-19218214D01*
X6599071Y-19261072D01*
X6570500Y-19289643D01*
X6541928Y-19303929D01*
X6899071Y-19218214D02*
X6927643Y-19218214D01*
X6956214Y-19232500D01*
X6970500Y-19246786D01*
X6984785Y-19275357D01*
X6999071Y-19332500D01*
X6999071Y-19403929D01*
X6984785Y-19461072D01*
X6970500Y-19489643D01*
X6956214Y-19503929D01*
X6927643Y-19518214D01*
X6899071Y-19518214D01*
X6870500Y-19503929D01*
X6856214Y-19489643D01*
X6841928Y-19461072D01*
X6827643Y-19403929D01*
X6827643Y-19332500D01*
X6841928Y-19275357D01*
X6856214Y-19246786D01*
X6870500Y-19232500D01*
X6899071Y-19218214D01*
X7141928Y-19518214D02*
X7199071Y-19518214D01*
X7227643Y-19503929D01*
X7241928Y-19489643D01*
X7270500Y-19446786D01*
X7284785Y-19389643D01*
X7284785Y-19275357D01*
X7270500Y-19246786D01*
X7256214Y-19232500D01*
X7227643Y-19218214D01*
X7170500Y-19218214D01*
X7141928Y-19232500D01*
X7127643Y-19246786D01*
X7113357Y-19275357D01*
X7113357Y-19346786D01*
X7127643Y-19375357D01*
X7141928Y-19389643D01*
X7170500Y-19403929D01*
X7227643Y-19403929D01*
X7256214Y-19389643D01*
X7270500Y-19375357D01*
X7284785Y-19346786D01*
X7641928Y-19518214D02*
X7641928Y-19218214D01*
X7770500Y-19518214D02*
X7770500Y-19361072D01*
X7756214Y-19332500D01*
X7727643Y-19318214D01*
X7684785Y-19318214D01*
X7656214Y-19332500D01*
X7641928Y-19346786D01*
X7956214Y-19518214D02*
X7927643Y-19503929D01*
X7913357Y-19489643D01*
X7899071Y-19461072D01*
X7899071Y-19375357D01*
X7913357Y-19346786D01*
X7927643Y-19332500D01*
X7956214Y-19318214D01*
X7999071Y-19318214D01*
X8027643Y-19332500D01*
X8041928Y-19346786D01*
X8056214Y-19375357D01*
X8056214Y-19461072D01*
X8041928Y-19489643D01*
X8027643Y-19503929D01*
X7999071Y-19518214D01*
X7956214Y-19518214D01*
X8227643Y-19518214D02*
X8199071Y-19503929D01*
X8184786Y-19475357D01*
X8184786Y-19218214D01*
X8456214Y-19503929D02*
X8427643Y-19518214D01*
X8370500Y-19518214D01*
X8341928Y-19503929D01*
X8327643Y-19475357D01*
X8327643Y-19361072D01*
X8341928Y-19332500D01*
X8370500Y-19318214D01*
X8427643Y-19318214D01*
X8456214Y-19332500D01*
X8470500Y-19361072D01*
X8470500Y-19389643D01*
X8327643Y-19418214D01*
X8584786Y-19503929D02*
X8613357Y-19518214D01*
X8670500Y-19518214D01*
X8699071Y-19503929D01*
X8713357Y-19475357D01*
X8713357Y-19461072D01*
X8699071Y-19432500D01*
X8670500Y-19418214D01*
X8627643Y-19418214D01*
X8599071Y-19403929D01*
X8584786Y-19375357D01*
X8584786Y-19361072D01*
X8599071Y-19332500D01*
X8627643Y-19318214D01*
X8670500Y-19318214D01*
X8699071Y-19332500D01*
X8813357Y-19632500D02*
X8827643Y-19618214D01*
X8856214Y-19575357D01*
X8870500Y-19546786D01*
X8884786Y-19503929D01*
X8899071Y-19432500D01*
X8899071Y-19375357D01*
X8884786Y-19303929D01*
X8870500Y-19261072D01*
X8856214Y-19232500D01*
X8827643Y-19189643D01*
X8813357Y-19175357D01*
X1770500Y-19778500D02*
G75*
G03X1770500Y-19778500I-35000J0D01*
G01*
X2099071Y-19614214D02*
X2127643Y-19614214D01*
X2156214Y-19628500D01*
X2170500Y-19642786D01*
X2184786Y-19671357D01*
X2199071Y-19728500D01*
X2199071Y-19799929D01*
X2184786Y-19857072D01*
X2170500Y-19885643D01*
X2156214Y-19899929D01*
X2127643Y-19914214D01*
X2099071Y-19914214D01*
X2070500Y-19899929D01*
X2056214Y-19885643D01*
X2041928Y-19857072D01*
X2027643Y-19799929D01*
X2027643Y-19728500D01*
X2041928Y-19671357D01*
X2056214Y-19642786D01*
X2070500Y-19628500D01*
X2099071Y-19614214D01*
X2327643Y-19885643D02*
X2341929Y-19899929D01*
X2327643Y-19914214D01*
X2313357Y-19899929D01*
X2327643Y-19885643D01*
X2327643Y-19914214D01*
X2441928Y-19614214D02*
X2641928Y-19614214D01*
X2513357Y-19914214D01*
X2813357Y-19614214D02*
X2841928Y-19614214D01*
X2870500Y-19628500D01*
X2884786Y-19642786D01*
X2899071Y-19671357D01*
X2913357Y-19728500D01*
X2913357Y-19799929D01*
X2899071Y-19857072D01*
X2884786Y-19885643D01*
X2870500Y-19899929D01*
X2841928Y-19914214D01*
X2813357Y-19914214D01*
X2784786Y-19899929D01*
X2770500Y-19885643D01*
X2756214Y-19857072D01*
X2741929Y-19799929D01*
X2741929Y-19728500D01*
X2756214Y-19671357D01*
X2770500Y-19642786D01*
X2784786Y-19628500D01*
X2813357Y-19614214D01*
X3041928Y-19914214D02*
X3041928Y-19714214D01*
X3041928Y-19742786D02*
X3056214Y-19728500D01*
X3084786Y-19714214D01*
X3127643Y-19714214D01*
X3156214Y-19728500D01*
X3170500Y-19757072D01*
X3170500Y-19914214D01*
X3170500Y-19757072D02*
X3184786Y-19728500D01*
X3213357Y-19714214D01*
X3256214Y-19714214D01*
X3284786Y-19728500D01*
X3299071Y-19757072D01*
X3299071Y-19914214D01*
X3441928Y-19914214D02*
X3441928Y-19714214D01*
X3441928Y-19742786D02*
X3456214Y-19728500D01*
X3484786Y-19714214D01*
X3527643Y-19714214D01*
X3556214Y-19728500D01*
X3570500Y-19757072D01*
X3570500Y-19914214D01*
X3570500Y-19757072D02*
X3584786Y-19728500D01*
X3613357Y-19714214D01*
X3656214Y-19714214D01*
X3684786Y-19728500D01*
X3699071Y-19757072D01*
X3699071Y-19914214D01*
X4284786Y-19599929D02*
X4027643Y-19985643D01*
X4670500Y-19614214D02*
X4699071Y-19614214D01*
X4727643Y-19628500D01*
X4741928Y-19642786D01*
X4756214Y-19671357D01*
X4770500Y-19728500D01*
X4770500Y-19799929D01*
X4756214Y-19857072D01*
X4741928Y-19885643D01*
X4727643Y-19899929D01*
X4699071Y-19914214D01*
X4670500Y-19914214D01*
X4641928Y-19899929D01*
X4627643Y-19885643D01*
X4613357Y-19857072D01*
X4599071Y-19799929D01*
X4599071Y-19728500D01*
X4613357Y-19671357D01*
X4627643Y-19642786D01*
X4641928Y-19628500D01*
X4670500Y-19614214D01*
X4899071Y-19885643D02*
X4913357Y-19899929D01*
X4899071Y-19914214D01*
X4884786Y-19899929D01*
X4899071Y-19885643D01*
X4899071Y-19914214D01*
X5099071Y-19614214D02*
X5127643Y-19614214D01*
X5156214Y-19628500D01*
X5170500Y-19642786D01*
X5184786Y-19671357D01*
X5199071Y-19728500D01*
X5199071Y-19799929D01*
X5184786Y-19857072D01*
X5170500Y-19885643D01*
X5156214Y-19899929D01*
X5127643Y-19914214D01*
X5099071Y-19914214D01*
X5070500Y-19899929D01*
X5056214Y-19885643D01*
X5041928Y-19857072D01*
X5027643Y-19799929D01*
X5027643Y-19728500D01*
X5041928Y-19671357D01*
X5056214Y-19642786D01*
X5070500Y-19628500D01*
X5099071Y-19614214D01*
X5313357Y-19642786D02*
X5327643Y-19628500D01*
X5356214Y-19614214D01*
X5427643Y-19614214D01*
X5456214Y-19628500D01*
X5470500Y-19642786D01*
X5484786Y-19671357D01*
X5484786Y-19699929D01*
X5470500Y-19742786D01*
X5299071Y-19914214D01*
X5484786Y-19914214D01*
X5656214Y-19742786D02*
X5627643Y-19728500D01*
X5613357Y-19714214D01*
X5599071Y-19685643D01*
X5599071Y-19671357D01*
X5613357Y-19642786D01*
X5627643Y-19628500D01*
X5656214Y-19614214D01*
X5713357Y-19614214D01*
X5741928Y-19628500D01*
X5756214Y-19642786D01*
X5770500Y-19671357D01*
X5770500Y-19685643D01*
X5756214Y-19714214D01*
X5741928Y-19728500D01*
X5713357Y-19742786D01*
X5656214Y-19742786D01*
X5627643Y-19757072D01*
X5613357Y-19771357D01*
X5599071Y-19799929D01*
X5599071Y-19857072D01*
X5613357Y-19885643D01*
X5627643Y-19899929D01*
X5656214Y-19914214D01*
X5713357Y-19914214D01*
X5741928Y-19899929D01*
X5756214Y-19885643D01*
X5770500Y-19857072D01*
X5770500Y-19799929D01*
X5756214Y-19771357D01*
X5741928Y-19757072D01*
X5713357Y-19742786D01*
X5884786Y-19614214D02*
X5884786Y-19671357D01*
X5999071Y-19614214D02*
X5999071Y-19671357D01*
X6441928Y-20028500D02*
X6427643Y-20014214D01*
X6399071Y-19971357D01*
X6384785Y-19942786D01*
X6370500Y-19899929D01*
X6356214Y-19828500D01*
X6356214Y-19771357D01*
X6370500Y-19699929D01*
X6384785Y-19657072D01*
X6399071Y-19628500D01*
X6427643Y-19585643D01*
X6441928Y-19571357D01*
X6684785Y-19714214D02*
X6684785Y-19914214D01*
X6613357Y-19599929D02*
X6541928Y-19814214D01*
X6727643Y-19814214D01*
X6813357Y-19614214D02*
X6999071Y-19614214D01*
X6899071Y-19728500D01*
X6941928Y-19728500D01*
X6970500Y-19742786D01*
X6984785Y-19757072D01*
X6999071Y-19785643D01*
X6999071Y-19857072D01*
X6984785Y-19885643D01*
X6970500Y-19899929D01*
X6941928Y-19914214D01*
X6856214Y-19914214D01*
X6827643Y-19899929D01*
X6813357Y-19885643D01*
X7256214Y-19714214D02*
X7256214Y-19914214D01*
X7184785Y-19599929D02*
X7113357Y-19814214D01*
X7299071Y-19814214D01*
X7641928Y-19914214D02*
X7641928Y-19614214D01*
X7770500Y-19914214D02*
X7770500Y-19757072D01*
X7756214Y-19728500D01*
X7727643Y-19714214D01*
X7684785Y-19714214D01*
X7656214Y-19728500D01*
X7641928Y-19742786D01*
X7956214Y-19914214D02*
X7927643Y-19899929D01*
X7913357Y-19885643D01*
X7899071Y-19857072D01*
X7899071Y-19771357D01*
X7913357Y-19742786D01*
X7927643Y-19728500D01*
X7956214Y-19714214D01*
X7999071Y-19714214D01*
X8027643Y-19728500D01*
X8041928Y-19742786D01*
X8056214Y-19771357D01*
X8056214Y-19857072D01*
X8041928Y-19885643D01*
X8027643Y-19899929D01*
X7999071Y-19914214D01*
X7956214Y-19914214D01*
X8227643Y-19914214D02*
X8199071Y-19899929D01*
X8184786Y-19871357D01*
X8184786Y-19614214D01*
X8456214Y-19899929D02*
X8427643Y-19914214D01*
X8370500Y-19914214D01*
X8341928Y-19899929D01*
X8327643Y-19871357D01*
X8327643Y-19757072D01*
X8341928Y-19728500D01*
X8370500Y-19714214D01*
X8427643Y-19714214D01*
X8456214Y-19728500D01*
X8470500Y-19757072D01*
X8470500Y-19785643D01*
X8327643Y-19814214D01*
X8584786Y-19899929D02*
X8613357Y-19914214D01*
X8670500Y-19914214D01*
X8699071Y-19899929D01*
X8713357Y-19871357D01*
X8713357Y-19857072D01*
X8699071Y-19828500D01*
X8670500Y-19814214D01*
X8627643Y-19814214D01*
X8599071Y-19799929D01*
X8584786Y-19771357D01*
X8584786Y-19757072D01*
X8599071Y-19728500D01*
X8627643Y-19714214D01*
X8670500Y-19714214D01*
X8699071Y-19728500D01*
X8813357Y-20028500D02*
X8827643Y-20014214D01*
X8856214Y-19971357D01*
X8870500Y-19942786D01*
X8884786Y-19899929D01*
X8899071Y-19828500D01*
X8899071Y-19771357D01*
X8884786Y-19699929D01*
X8870500Y-19657072D01*
X8856214Y-19628500D01*
X8827643Y-19585643D01*
X8813357Y-19571357D01*
X1725500Y-20129500D02*
X1725500Y-20219500D01*
X1680500Y-20174500D02*
X1770500Y-20174500D01*
X2099071Y-20010214D02*
X2127643Y-20010214D01*
X2156214Y-20024500D01*
X2170500Y-20038786D01*
X2184786Y-20067357D01*
X2199071Y-20124500D01*
X2199071Y-20195929D01*
X2184786Y-20253072D01*
X2170500Y-20281643D01*
X2156214Y-20295929D01*
X2127643Y-20310214D01*
X2099071Y-20310214D01*
X2070500Y-20295929D01*
X2056214Y-20281643D01*
X2041928Y-20253072D01*
X2027643Y-20195929D01*
X2027643Y-20124500D01*
X2041928Y-20067357D01*
X2056214Y-20038786D01*
X2070500Y-20024500D01*
X2099071Y-20010214D01*
X2327643Y-20281643D02*
X2341929Y-20295929D01*
X2327643Y-20310214D01*
X2313357Y-20295929D01*
X2327643Y-20281643D01*
X2327643Y-20310214D01*
X2484786Y-20310214D02*
X2541928Y-20310214D01*
X2570500Y-20295929D01*
X2584786Y-20281643D01*
X2613357Y-20238786D01*
X2627643Y-20181643D01*
X2627643Y-20067357D01*
X2613357Y-20038786D01*
X2599071Y-20024500D01*
X2570500Y-20010214D01*
X2513357Y-20010214D01*
X2484786Y-20024500D01*
X2470500Y-20038786D01*
X2456214Y-20067357D01*
X2456214Y-20138786D01*
X2470500Y-20167357D01*
X2484786Y-20181643D01*
X2513357Y-20195929D01*
X2570500Y-20195929D01*
X2599071Y-20181643D01*
X2613357Y-20167357D01*
X2627643Y-20138786D01*
X2813357Y-20010214D02*
X2841928Y-20010214D01*
X2870500Y-20024500D01*
X2884786Y-20038786D01*
X2899071Y-20067357D01*
X2913357Y-20124500D01*
X2913357Y-20195929D01*
X2899071Y-20253072D01*
X2884786Y-20281643D01*
X2870500Y-20295929D01*
X2841928Y-20310214D01*
X2813357Y-20310214D01*
X2784786Y-20295929D01*
X2770500Y-20281643D01*
X2756214Y-20253072D01*
X2741929Y-20195929D01*
X2741929Y-20124500D01*
X2756214Y-20067357D01*
X2770500Y-20038786D01*
X2784786Y-20024500D01*
X2813357Y-20010214D01*
X3041928Y-20310214D02*
X3041928Y-20110214D01*
X3041928Y-20138786D02*
X3056214Y-20124500D01*
X3084786Y-20110214D01*
X3127643Y-20110214D01*
X3156214Y-20124500D01*
X3170500Y-20153072D01*
X3170500Y-20310214D01*
X3170500Y-20153072D02*
X3184786Y-20124500D01*
X3213357Y-20110214D01*
X3256214Y-20110214D01*
X3284786Y-20124500D01*
X3299071Y-20153072D01*
X3299071Y-20310214D01*
X3441928Y-20310214D02*
X3441928Y-20110214D01*
X3441928Y-20138786D02*
X3456214Y-20124500D01*
X3484786Y-20110214D01*
X3527643Y-20110214D01*
X3556214Y-20124500D01*
X3570500Y-20153072D01*
X3570500Y-20310214D01*
X3570500Y-20153072D02*
X3584786Y-20124500D01*
X3613357Y-20110214D01*
X3656214Y-20110214D01*
X3684786Y-20124500D01*
X3699071Y-20153072D01*
X3699071Y-20310214D01*
X4284786Y-19995929D02*
X4027643Y-20381643D01*
X4670500Y-20010214D02*
X4699071Y-20010214D01*
X4727643Y-20024500D01*
X4741928Y-20038786D01*
X4756214Y-20067357D01*
X4770500Y-20124500D01*
X4770500Y-20195929D01*
X4756214Y-20253072D01*
X4741928Y-20281643D01*
X4727643Y-20295929D01*
X4699071Y-20310214D01*
X4670500Y-20310214D01*
X4641928Y-20295929D01*
X4627643Y-20281643D01*
X4613357Y-20253072D01*
X4599071Y-20195929D01*
X4599071Y-20124500D01*
X4613357Y-20067357D01*
X4627643Y-20038786D01*
X4641928Y-20024500D01*
X4670500Y-20010214D01*
X4899071Y-20281643D02*
X4913357Y-20295929D01*
X4899071Y-20310214D01*
X4884786Y-20295929D01*
X4899071Y-20281643D01*
X4899071Y-20310214D01*
X5099071Y-20010214D02*
X5127643Y-20010214D01*
X5156214Y-20024500D01*
X5170500Y-20038786D01*
X5184786Y-20067357D01*
X5199071Y-20124500D01*
X5199071Y-20195929D01*
X5184786Y-20253072D01*
X5170500Y-20281643D01*
X5156214Y-20295929D01*
X5127643Y-20310214D01*
X5099071Y-20310214D01*
X5070500Y-20295929D01*
X5056214Y-20281643D01*
X5041928Y-20253072D01*
X5027643Y-20195929D01*
X5027643Y-20124500D01*
X5041928Y-20067357D01*
X5056214Y-20038786D01*
X5070500Y-20024500D01*
X5099071Y-20010214D01*
X5299071Y-20010214D02*
X5484786Y-20010214D01*
X5384786Y-20124500D01*
X5427643Y-20124500D01*
X5456214Y-20138786D01*
X5470500Y-20153072D01*
X5484786Y-20181643D01*
X5484786Y-20253072D01*
X5470500Y-20281643D01*
X5456214Y-20295929D01*
X5427643Y-20310214D01*
X5341928Y-20310214D01*
X5313357Y-20295929D01*
X5299071Y-20281643D01*
X5756214Y-20010214D02*
X5613357Y-20010214D01*
X5599071Y-20153072D01*
X5613357Y-20138786D01*
X5641928Y-20124500D01*
X5713357Y-20124500D01*
X5741928Y-20138786D01*
X5756214Y-20153072D01*
X5770500Y-20181643D01*
X5770500Y-20253072D01*
X5756214Y-20281643D01*
X5741928Y-20295929D01*
X5713357Y-20310214D01*
X5641928Y-20310214D01*
X5613357Y-20295929D01*
X5599071Y-20281643D01*
X5884786Y-20010214D02*
X5884786Y-20067357D01*
X5999071Y-20010214D02*
X5999071Y-20067357D01*
X6441928Y-20424500D02*
X6427643Y-20410214D01*
X6399071Y-20367357D01*
X6384785Y-20338786D01*
X6370500Y-20295929D01*
X6356214Y-20224500D01*
X6356214Y-20167357D01*
X6370500Y-20095929D01*
X6384785Y-20053072D01*
X6399071Y-20024500D01*
X6427643Y-19981643D01*
X6441928Y-19967357D01*
X6684785Y-20110214D02*
X6684785Y-20310214D01*
X6613357Y-19995929D02*
X6541928Y-20210214D01*
X6727643Y-20210214D01*
X6899071Y-20010214D02*
X6927643Y-20010214D01*
X6956214Y-20024500D01*
X6970500Y-20038786D01*
X6984785Y-20067357D01*
X6999071Y-20124500D01*
X6999071Y-20195929D01*
X6984785Y-20253072D01*
X6970500Y-20281643D01*
X6956214Y-20295929D01*
X6927643Y-20310214D01*
X6899071Y-20310214D01*
X6870500Y-20295929D01*
X6856214Y-20281643D01*
X6841928Y-20253072D01*
X6827643Y-20195929D01*
X6827643Y-20124500D01*
X6841928Y-20067357D01*
X6856214Y-20038786D01*
X6870500Y-20024500D01*
X6899071Y-20010214D01*
X7356214Y-20310214D02*
X7356214Y-20010214D01*
X7484785Y-20310214D02*
X7484785Y-20153072D01*
X7470500Y-20124500D01*
X7441928Y-20110214D01*
X7399071Y-20110214D01*
X7370500Y-20124500D01*
X7356214Y-20138786D01*
X7670500Y-20310214D02*
X7641928Y-20295929D01*
X7627643Y-20281643D01*
X7613357Y-20253072D01*
X7613357Y-20167357D01*
X7627643Y-20138786D01*
X7641928Y-20124500D01*
X7670500Y-20110214D01*
X7713357Y-20110214D01*
X7741928Y-20124500D01*
X7756214Y-20138786D01*
X7770500Y-20167357D01*
X7770500Y-20253072D01*
X7756214Y-20281643D01*
X7741928Y-20295929D01*
X7713357Y-20310214D01*
X7670500Y-20310214D01*
X7941928Y-20310214D02*
X7913357Y-20295929D01*
X7899071Y-20267357D01*
X7899071Y-20010214D01*
X8170500Y-20295929D02*
X8141928Y-20310214D01*
X8084786Y-20310214D01*
X8056214Y-20295929D01*
X8041928Y-20267357D01*
X8041928Y-20153072D01*
X8056214Y-20124500D01*
X8084786Y-20110214D01*
X8141928Y-20110214D01*
X8170500Y-20124500D01*
X8184786Y-20153072D01*
X8184786Y-20181643D01*
X8041928Y-20210214D01*
X8299071Y-20295929D02*
X8327643Y-20310214D01*
X8384786Y-20310214D01*
X8413357Y-20295929D01*
X8427643Y-20267357D01*
X8427643Y-20253072D01*
X8413357Y-20224500D01*
X8384786Y-20210214D01*
X8341928Y-20210214D01*
X8313357Y-20195929D01*
X8299071Y-20167357D01*
X8299071Y-20153072D01*
X8313357Y-20124500D01*
X8341928Y-20110214D01*
X8384786Y-20110214D01*
X8413357Y-20124500D01*
X8527643Y-20424500D02*
X8541929Y-20410214D01*
X8570500Y-20367357D01*
X8584786Y-20338786D01*
X8599071Y-20295929D01*
X8613357Y-20224500D01*
X8613357Y-20167357D01*
X8599071Y-20095929D01*
X8584786Y-20053072D01*
X8570500Y-20024500D01*
X8541929Y-19981643D01*
X8527643Y-19967357D01*
X1755856Y-20605856D02*
X1755856Y-20535144D01*
X1685144Y-20535144D01*
X1685144Y-20605856D01*
X1755856Y-20605856D01*
X2199071Y-20706214D02*
X2027643Y-20706214D01*
X2113357Y-20706214D02*
X2113357Y-20406214D01*
X2084786Y-20449072D01*
X2056214Y-20477643D01*
X2027643Y-20491929D01*
X2327643Y-20677643D02*
X2341929Y-20691929D01*
X2327643Y-20706214D01*
X2313357Y-20691929D01*
X2327643Y-20677643D01*
X2327643Y-20706214D01*
X2527643Y-20406214D02*
X2556214Y-20406214D01*
X2584786Y-20420500D01*
X2599071Y-20434786D01*
X2613357Y-20463357D01*
X2627643Y-20520500D01*
X2627643Y-20591929D01*
X2613357Y-20649072D01*
X2599071Y-20677643D01*
X2584786Y-20691929D01*
X2556214Y-20706214D01*
X2527643Y-20706214D01*
X2499071Y-20691929D01*
X2484786Y-20677643D01*
X2470500Y-20649072D01*
X2456214Y-20591929D01*
X2456214Y-20520500D01*
X2470500Y-20463357D01*
X2484786Y-20434786D01*
X2499071Y-20420500D01*
X2527643Y-20406214D01*
X2813357Y-20406214D02*
X2841928Y-20406214D01*
X2870500Y-20420500D01*
X2884786Y-20434786D01*
X2899071Y-20463357D01*
X2913357Y-20520500D01*
X2913357Y-20591929D01*
X2899071Y-20649072D01*
X2884786Y-20677643D01*
X2870500Y-20691929D01*
X2841928Y-20706214D01*
X2813357Y-20706214D01*
X2784786Y-20691929D01*
X2770500Y-20677643D01*
X2756214Y-20649072D01*
X2741929Y-20591929D01*
X2741929Y-20520500D01*
X2756214Y-20463357D01*
X2770500Y-20434786D01*
X2784786Y-20420500D01*
X2813357Y-20406214D01*
X3041928Y-20706214D02*
X3041928Y-20506214D01*
X3041928Y-20534786D02*
X3056214Y-20520500D01*
X3084786Y-20506214D01*
X3127643Y-20506214D01*
X3156214Y-20520500D01*
X3170500Y-20549072D01*
X3170500Y-20706214D01*
X3170500Y-20549072D02*
X3184786Y-20520500D01*
X3213357Y-20506214D01*
X3256214Y-20506214D01*
X3284786Y-20520500D01*
X3299071Y-20549072D01*
X3299071Y-20706214D01*
X3441928Y-20706214D02*
X3441928Y-20506214D01*
X3441928Y-20534786D02*
X3456214Y-20520500D01*
X3484786Y-20506214D01*
X3527643Y-20506214D01*
X3556214Y-20520500D01*
X3570500Y-20549072D01*
X3570500Y-20706214D01*
X3570500Y-20549072D02*
X3584786Y-20520500D01*
X3613357Y-20506214D01*
X3656214Y-20506214D01*
X3684786Y-20520500D01*
X3699071Y-20549072D01*
X3699071Y-20706214D01*
X4284786Y-20391929D02*
X4027643Y-20777643D01*
X4670500Y-20406214D02*
X4699071Y-20406214D01*
X4727643Y-20420500D01*
X4741928Y-20434786D01*
X4756214Y-20463357D01*
X4770500Y-20520500D01*
X4770500Y-20591929D01*
X4756214Y-20649072D01*
X4741928Y-20677643D01*
X4727643Y-20691929D01*
X4699071Y-20706214D01*
X4670500Y-20706214D01*
X4641928Y-20691929D01*
X4627643Y-20677643D01*
X4613357Y-20649072D01*
X4599071Y-20591929D01*
X4599071Y-20520500D01*
X4613357Y-20463357D01*
X4627643Y-20434786D01*
X4641928Y-20420500D01*
X4670500Y-20406214D01*
X4899071Y-20677643D02*
X4913357Y-20691929D01*
X4899071Y-20706214D01*
X4884786Y-20691929D01*
X4899071Y-20677643D01*
X4899071Y-20706214D01*
X5099071Y-20406214D02*
X5127643Y-20406214D01*
X5156214Y-20420500D01*
X5170500Y-20434786D01*
X5184786Y-20463357D01*
X5199071Y-20520500D01*
X5199071Y-20591929D01*
X5184786Y-20649072D01*
X5170500Y-20677643D01*
X5156214Y-20691929D01*
X5127643Y-20706214D01*
X5099071Y-20706214D01*
X5070500Y-20691929D01*
X5056214Y-20677643D01*
X5041928Y-20649072D01*
X5027643Y-20591929D01*
X5027643Y-20520500D01*
X5041928Y-20463357D01*
X5056214Y-20434786D01*
X5070500Y-20420500D01*
X5099071Y-20406214D01*
X5299071Y-20406214D02*
X5484786Y-20406214D01*
X5384786Y-20520500D01*
X5427643Y-20520500D01*
X5456214Y-20534786D01*
X5470500Y-20549072D01*
X5484786Y-20577643D01*
X5484786Y-20649072D01*
X5470500Y-20677643D01*
X5456214Y-20691929D01*
X5427643Y-20706214D01*
X5341928Y-20706214D01*
X5313357Y-20691929D01*
X5299071Y-20677643D01*
X5627643Y-20706214D02*
X5684785Y-20706214D01*
X5713357Y-20691929D01*
X5727643Y-20677643D01*
X5756214Y-20634786D01*
X5770500Y-20577643D01*
X5770500Y-20463357D01*
X5756214Y-20434786D01*
X5741928Y-20420500D01*
X5713357Y-20406214D01*
X5656214Y-20406214D01*
X5627643Y-20420500D01*
X5613357Y-20434786D01*
X5599071Y-20463357D01*
X5599071Y-20534786D01*
X5613357Y-20563357D01*
X5627643Y-20577643D01*
X5656214Y-20591929D01*
X5713357Y-20591929D01*
X5741928Y-20577643D01*
X5756214Y-20563357D01*
X5770500Y-20534786D01*
X5884786Y-20406214D02*
X5884786Y-20463357D01*
X5999071Y-20406214D02*
X5999071Y-20463357D01*
X6441928Y-20820500D02*
X6427643Y-20806214D01*
X6399071Y-20763357D01*
X6384785Y-20734786D01*
X6370500Y-20691929D01*
X6356214Y-20620500D01*
X6356214Y-20563357D01*
X6370500Y-20491929D01*
X6384785Y-20449072D01*
X6399071Y-20420500D01*
X6427643Y-20377643D01*
X6441928Y-20363357D01*
X6713357Y-20706214D02*
X6541928Y-20706214D01*
X6627643Y-20706214D02*
X6627643Y-20406214D01*
X6599071Y-20449072D01*
X6570500Y-20477643D01*
X6541928Y-20491929D01*
X6970500Y-20506214D02*
X6970500Y-20706214D01*
X6899071Y-20391929D02*
X6827643Y-20606214D01*
X7013357Y-20606214D01*
X7356214Y-20706214D02*
X7356214Y-20406214D01*
X7484785Y-20706214D02*
X7484785Y-20549072D01*
X7470500Y-20520500D01*
X7441928Y-20506214D01*
X7399071Y-20506214D01*
X7370500Y-20520500D01*
X7356214Y-20534786D01*
X7670500Y-20706214D02*
X7641928Y-20691929D01*
X7627643Y-20677643D01*
X7613357Y-20649072D01*
X7613357Y-20563357D01*
X7627643Y-20534786D01*
X7641928Y-20520500D01*
X7670500Y-20506214D01*
X7713357Y-20506214D01*
X7741928Y-20520500D01*
X7756214Y-20534786D01*
X7770500Y-20563357D01*
X7770500Y-20649072D01*
X7756214Y-20677643D01*
X7741928Y-20691929D01*
X7713357Y-20706214D01*
X7670500Y-20706214D01*
X7941928Y-20706214D02*
X7913357Y-20691929D01*
X7899071Y-20663357D01*
X7899071Y-20406214D01*
X8170500Y-20691929D02*
X8141928Y-20706214D01*
X8084786Y-20706214D01*
X8056214Y-20691929D01*
X8041928Y-20663357D01*
X8041928Y-20549072D01*
X8056214Y-20520500D01*
X8084786Y-20506214D01*
X8141928Y-20506214D01*
X8170500Y-20520500D01*
X8184786Y-20549072D01*
X8184786Y-20577643D01*
X8041928Y-20606214D01*
X8299071Y-20691929D02*
X8327643Y-20706214D01*
X8384786Y-20706214D01*
X8413357Y-20691929D01*
X8427643Y-20663357D01*
X8427643Y-20649072D01*
X8413357Y-20620500D01*
X8384786Y-20606214D01*
X8341928Y-20606214D01*
X8313357Y-20591929D01*
X8299071Y-20563357D01*
X8299071Y-20549072D01*
X8313357Y-20520500D01*
X8341928Y-20506214D01*
X8384786Y-20506214D01*
X8413357Y-20520500D01*
X8527643Y-20820500D02*
X8541929Y-20806214D01*
X8570500Y-20763357D01*
X8584786Y-20734786D01*
X8599071Y-20691929D01*
X8613357Y-20620500D01*
X8613357Y-20563357D01*
X8599071Y-20491929D01*
X8584786Y-20449072D01*
X8570500Y-20420500D01*
X8541929Y-20377643D01*
X8527643Y-20363357D01*
X1715500Y-21021500D02*
X1770500Y-20966500D01*
X1715500Y-20911500D01*
X1660500Y-20966500D01*
X1715500Y-21021500D01*
X2199071Y-21102214D02*
X2027643Y-21102214D01*
X2113357Y-21102214D02*
X2113357Y-20802214D01*
X2084786Y-20845072D01*
X2056214Y-20873643D01*
X2027643Y-20887929D01*
X2327643Y-21073643D02*
X2341929Y-21087929D01*
X2327643Y-21102214D01*
X2313357Y-21087929D01*
X2327643Y-21073643D01*
X2327643Y-21102214D01*
X2627643Y-21102214D02*
X2456214Y-21102214D01*
X2541928Y-21102214D02*
X2541928Y-20802214D01*
X2513357Y-20845072D01*
X2484786Y-20873643D01*
X2456214Y-20887929D01*
X2813357Y-20802214D02*
X2841928Y-20802214D01*
X2870500Y-20816500D01*
X2884786Y-20830786D01*
X2899071Y-20859357D01*
X2913357Y-20916500D01*
X2913357Y-20987929D01*
X2899071Y-21045072D01*
X2884786Y-21073643D01*
X2870500Y-21087929D01*
X2841928Y-21102214D01*
X2813357Y-21102214D01*
X2784786Y-21087929D01*
X2770500Y-21073643D01*
X2756214Y-21045072D01*
X2741929Y-20987929D01*
X2741929Y-20916500D01*
X2756214Y-20859357D01*
X2770500Y-20830786D01*
X2784786Y-20816500D01*
X2813357Y-20802214D01*
X3041928Y-21102214D02*
X3041928Y-20902214D01*
X3041928Y-20930786D02*
X3056214Y-20916500D01*
X3084786Y-20902214D01*
X3127643Y-20902214D01*
X3156214Y-20916500D01*
X3170500Y-20945072D01*
X3170500Y-21102214D01*
X3170500Y-20945072D02*
X3184786Y-20916500D01*
X3213357Y-20902214D01*
X3256214Y-20902214D01*
X3284786Y-20916500D01*
X3299071Y-20945072D01*
X3299071Y-21102214D01*
X3441928Y-21102214D02*
X3441928Y-20902214D01*
X3441928Y-20930786D02*
X3456214Y-20916500D01*
X3484786Y-20902214D01*
X3527643Y-20902214D01*
X3556214Y-20916500D01*
X3570500Y-20945072D01*
X3570500Y-21102214D01*
X3570500Y-20945072D02*
X3584786Y-20916500D01*
X3613357Y-20902214D01*
X3656214Y-20902214D01*
X3684786Y-20916500D01*
X3699071Y-20945072D01*
X3699071Y-21102214D01*
X4284786Y-20787929D02*
X4027643Y-21173643D01*
X4670500Y-20802214D02*
X4699071Y-20802214D01*
X4727643Y-20816500D01*
X4741928Y-20830786D01*
X4756214Y-20859357D01*
X4770500Y-20916500D01*
X4770500Y-20987929D01*
X4756214Y-21045072D01*
X4741928Y-21073643D01*
X4727643Y-21087929D01*
X4699071Y-21102214D01*
X4670500Y-21102214D01*
X4641928Y-21087929D01*
X4627643Y-21073643D01*
X4613357Y-21045072D01*
X4599071Y-20987929D01*
X4599071Y-20916500D01*
X4613357Y-20859357D01*
X4627643Y-20830786D01*
X4641928Y-20816500D01*
X4670500Y-20802214D01*
X4899071Y-21073643D02*
X4913357Y-21087929D01*
X4899071Y-21102214D01*
X4884786Y-21087929D01*
X4899071Y-21073643D01*
X4899071Y-21102214D01*
X5099071Y-20802214D02*
X5127643Y-20802214D01*
X5156214Y-20816500D01*
X5170500Y-20830786D01*
X5184786Y-20859357D01*
X5199071Y-20916500D01*
X5199071Y-20987929D01*
X5184786Y-21045072D01*
X5170500Y-21073643D01*
X5156214Y-21087929D01*
X5127643Y-21102214D01*
X5099071Y-21102214D01*
X5070500Y-21087929D01*
X5056214Y-21073643D01*
X5041928Y-21045072D01*
X5027643Y-20987929D01*
X5027643Y-20916500D01*
X5041928Y-20859357D01*
X5056214Y-20830786D01*
X5070500Y-20816500D01*
X5099071Y-20802214D01*
X5456214Y-20902214D02*
X5456214Y-21102214D01*
X5384786Y-20787929D02*
X5313357Y-21002214D01*
X5499071Y-21002214D01*
X5584786Y-20802214D02*
X5770500Y-20802214D01*
X5670500Y-20916500D01*
X5713357Y-20916500D01*
X5741928Y-20930786D01*
X5756214Y-20945072D01*
X5770500Y-20973643D01*
X5770500Y-21045072D01*
X5756214Y-21073643D01*
X5741928Y-21087929D01*
X5713357Y-21102214D01*
X5627643Y-21102214D01*
X5599071Y-21087929D01*
X5584786Y-21073643D01*
X5884786Y-20802214D02*
X5884786Y-20859357D01*
X5999071Y-20802214D02*
X5999071Y-20859357D01*
X6441928Y-21216500D02*
X6427643Y-21202214D01*
X6399071Y-21159357D01*
X6384785Y-21130786D01*
X6370500Y-21087929D01*
X6356214Y-21016500D01*
X6356214Y-20959357D01*
X6370500Y-20887929D01*
X6384785Y-20845072D01*
X6399071Y-20816500D01*
X6427643Y-20773643D01*
X6441928Y-20759357D01*
X6541928Y-20830786D02*
X6556214Y-20816500D01*
X6584785Y-20802214D01*
X6656214Y-20802214D01*
X6684785Y-20816500D01*
X6699071Y-20830786D01*
X6713357Y-20859357D01*
X6713357Y-20887929D01*
X6699071Y-20930786D01*
X6527643Y-21102214D01*
X6713357Y-21102214D01*
X6899071Y-20802214D02*
X6927643Y-20802214D01*
X6956214Y-20816500D01*
X6970500Y-20830786D01*
X6984785Y-20859357D01*
X6999071Y-20916500D01*
X6999071Y-20987929D01*
X6984785Y-21045072D01*
X6970500Y-21073643D01*
X6956214Y-21087929D01*
X6927643Y-21102214D01*
X6899071Y-21102214D01*
X6870500Y-21087929D01*
X6856214Y-21073643D01*
X6841928Y-21045072D01*
X6827643Y-20987929D01*
X6827643Y-20916500D01*
X6841928Y-20859357D01*
X6856214Y-20830786D01*
X6870500Y-20816500D01*
X6899071Y-20802214D01*
X7356214Y-21102214D02*
X7356214Y-20802214D01*
X7484785Y-21102214D02*
X7484785Y-20945072D01*
X7470500Y-20916500D01*
X7441928Y-20902214D01*
X7399071Y-20902214D01*
X7370500Y-20916500D01*
X7356214Y-20930786D01*
X7670500Y-21102214D02*
X7641928Y-21087929D01*
X7627643Y-21073643D01*
X7613357Y-21045072D01*
X7613357Y-20959357D01*
X7627643Y-20930786D01*
X7641928Y-20916500D01*
X7670500Y-20902214D01*
X7713357Y-20902214D01*
X7741928Y-20916500D01*
X7756214Y-20930786D01*
X7770500Y-20959357D01*
X7770500Y-21045072D01*
X7756214Y-21073643D01*
X7741928Y-21087929D01*
X7713357Y-21102214D01*
X7670500Y-21102214D01*
X7941928Y-21102214D02*
X7913357Y-21087929D01*
X7899071Y-21059357D01*
X7899071Y-20802214D01*
X8170500Y-21087929D02*
X8141928Y-21102214D01*
X8084786Y-21102214D01*
X8056214Y-21087929D01*
X8041928Y-21059357D01*
X8041928Y-20945072D01*
X8056214Y-20916500D01*
X8084786Y-20902214D01*
X8141928Y-20902214D01*
X8170500Y-20916500D01*
X8184786Y-20945072D01*
X8184786Y-20973643D01*
X8041928Y-21002214D01*
X8299071Y-21087929D02*
X8327643Y-21102214D01*
X8384786Y-21102214D01*
X8413357Y-21087929D01*
X8427643Y-21059357D01*
X8427643Y-21045072D01*
X8413357Y-21016500D01*
X8384786Y-21002214D01*
X8341928Y-21002214D01*
X8313357Y-20987929D01*
X8299071Y-20959357D01*
X8299071Y-20945072D01*
X8313357Y-20916500D01*
X8341928Y-20902214D01*
X8384786Y-20902214D01*
X8413357Y-20916500D01*
X8527643Y-21216500D02*
X8541929Y-21202214D01*
X8570500Y-21159357D01*
X8584786Y-21130786D01*
X8599071Y-21087929D01*
X8613357Y-21016500D01*
X8613357Y-20959357D01*
X8599071Y-20887929D01*
X8584786Y-20845072D01*
X8570500Y-20816500D01*
X8541929Y-20773643D01*
X8527643Y-20759357D01*
X1610500Y-21282500D02*
X1770500Y-21442500D01*
X1770500Y-21282500D02*
X1610500Y-21442500D01*
X1770500Y-21362500D02*
G75*
G03X1770500Y-21362500I-80000J0D01*
G01*
X2199071Y-21498214D02*
X2027643Y-21498214D01*
X2113357Y-21498214D02*
X2113357Y-21198214D01*
X2084786Y-21241072D01*
X2056214Y-21269643D01*
X2027643Y-21283929D01*
X2327643Y-21469643D02*
X2341929Y-21483929D01*
X2327643Y-21498214D01*
X2313357Y-21483929D01*
X2327643Y-21469643D01*
X2327643Y-21498214D01*
X2599071Y-21198214D02*
X2541928Y-21198214D01*
X2513357Y-21212500D01*
X2499071Y-21226786D01*
X2470500Y-21269643D01*
X2456214Y-21326786D01*
X2456214Y-21441072D01*
X2470500Y-21469643D01*
X2484786Y-21483929D01*
X2513357Y-21498214D01*
X2570500Y-21498214D01*
X2599071Y-21483929D01*
X2613357Y-21469643D01*
X2627643Y-21441072D01*
X2627643Y-21369643D01*
X2613357Y-21341072D01*
X2599071Y-21326786D01*
X2570500Y-21312500D01*
X2513357Y-21312500D01*
X2484786Y-21326786D01*
X2470500Y-21341072D01*
X2456214Y-21369643D01*
X2813357Y-21198214D02*
X2841928Y-21198214D01*
X2870500Y-21212500D01*
X2884786Y-21226786D01*
X2899071Y-21255357D01*
X2913357Y-21312500D01*
X2913357Y-21383929D01*
X2899071Y-21441072D01*
X2884786Y-21469643D01*
X2870500Y-21483929D01*
X2841928Y-21498214D01*
X2813357Y-21498214D01*
X2784786Y-21483929D01*
X2770500Y-21469643D01*
X2756214Y-21441072D01*
X2741929Y-21383929D01*
X2741929Y-21312500D01*
X2756214Y-21255357D01*
X2770500Y-21226786D01*
X2784786Y-21212500D01*
X2813357Y-21198214D01*
X3041928Y-21498214D02*
X3041928Y-21298214D01*
X3041928Y-21326786D02*
X3056214Y-21312500D01*
X3084786Y-21298214D01*
X3127643Y-21298214D01*
X3156214Y-21312500D01*
X3170500Y-21341072D01*
X3170500Y-21498214D01*
X3170500Y-21341072D02*
X3184786Y-21312500D01*
X3213357Y-21298214D01*
X3256214Y-21298214D01*
X3284786Y-21312500D01*
X3299071Y-21341072D01*
X3299071Y-21498214D01*
X3441928Y-21498214D02*
X3441928Y-21298214D01*
X3441928Y-21326786D02*
X3456214Y-21312500D01*
X3484786Y-21298214D01*
X3527643Y-21298214D01*
X3556214Y-21312500D01*
X3570500Y-21341072D01*
X3570500Y-21498214D01*
X3570500Y-21341072D02*
X3584786Y-21312500D01*
X3613357Y-21298214D01*
X3656214Y-21298214D01*
X3684786Y-21312500D01*
X3699071Y-21341072D01*
X3699071Y-21498214D01*
X4284786Y-21183929D02*
X4027643Y-21569643D01*
X4670500Y-21198214D02*
X4699071Y-21198214D01*
X4727643Y-21212500D01*
X4741928Y-21226786D01*
X4756214Y-21255357D01*
X4770500Y-21312500D01*
X4770500Y-21383929D01*
X4756214Y-21441072D01*
X4741928Y-21469643D01*
X4727643Y-21483929D01*
X4699071Y-21498214D01*
X4670500Y-21498214D01*
X4641928Y-21483929D01*
X4627643Y-21469643D01*
X4613357Y-21441072D01*
X4599071Y-21383929D01*
X4599071Y-21312500D01*
X4613357Y-21255357D01*
X4627643Y-21226786D01*
X4641928Y-21212500D01*
X4670500Y-21198214D01*
X4899071Y-21469643D02*
X4913357Y-21483929D01*
X4899071Y-21498214D01*
X4884786Y-21483929D01*
X4899071Y-21469643D01*
X4899071Y-21498214D01*
X5099071Y-21198214D02*
X5127643Y-21198214D01*
X5156214Y-21212500D01*
X5170500Y-21226786D01*
X5184786Y-21255357D01*
X5199071Y-21312500D01*
X5199071Y-21383929D01*
X5184786Y-21441072D01*
X5170500Y-21469643D01*
X5156214Y-21483929D01*
X5127643Y-21498214D01*
X5099071Y-21498214D01*
X5070500Y-21483929D01*
X5056214Y-21469643D01*
X5041928Y-21441072D01*
X5027643Y-21383929D01*
X5027643Y-21312500D01*
X5041928Y-21255357D01*
X5056214Y-21226786D01*
X5070500Y-21212500D01*
X5099071Y-21198214D01*
X5456214Y-21198214D02*
X5399071Y-21198214D01*
X5370500Y-21212500D01*
X5356214Y-21226786D01*
X5327643Y-21269643D01*
X5313357Y-21326786D01*
X5313357Y-21441072D01*
X5327643Y-21469643D01*
X5341928Y-21483929D01*
X5370500Y-21498214D01*
X5427643Y-21498214D01*
X5456214Y-21483929D01*
X5470500Y-21469643D01*
X5484786Y-21441072D01*
X5484786Y-21369643D01*
X5470500Y-21341072D01*
X5456214Y-21326786D01*
X5427643Y-21312500D01*
X5370500Y-21312500D01*
X5341928Y-21326786D01*
X5327643Y-21341072D01*
X5313357Y-21369643D01*
X5584786Y-21198214D02*
X5770500Y-21198214D01*
X5670500Y-21312500D01*
X5713357Y-21312500D01*
X5741928Y-21326786D01*
X5756214Y-21341072D01*
X5770500Y-21369643D01*
X5770500Y-21441072D01*
X5756214Y-21469643D01*
X5741928Y-21483929D01*
X5713357Y-21498214D01*
X5627643Y-21498214D01*
X5599071Y-21483929D01*
X5584786Y-21469643D01*
X5884786Y-21198214D02*
X5884786Y-21255357D01*
X5999071Y-21198214D02*
X5999071Y-21255357D01*
X6441928Y-21612500D02*
X6427643Y-21598214D01*
X6399071Y-21555357D01*
X6384785Y-21526786D01*
X6370500Y-21483929D01*
X6356214Y-21412500D01*
X6356214Y-21355357D01*
X6370500Y-21283929D01*
X6384785Y-21241072D01*
X6399071Y-21212500D01*
X6427643Y-21169643D01*
X6441928Y-21155357D01*
X6713357Y-21498214D02*
X6541928Y-21498214D01*
X6627643Y-21498214D02*
X6627643Y-21198214D01*
X6599071Y-21241072D01*
X6570500Y-21269643D01*
X6541928Y-21283929D01*
X6899071Y-21198214D02*
X6927643Y-21198214D01*
X6956214Y-21212500D01*
X6970500Y-21226786D01*
X6984785Y-21255357D01*
X6999071Y-21312500D01*
X6999071Y-21383929D01*
X6984785Y-21441072D01*
X6970500Y-21469643D01*
X6956214Y-21483929D01*
X6927643Y-21498214D01*
X6899071Y-21498214D01*
X6870500Y-21483929D01*
X6856214Y-21469643D01*
X6841928Y-21441072D01*
X6827643Y-21383929D01*
X6827643Y-21312500D01*
X6841928Y-21255357D01*
X6856214Y-21226786D01*
X6870500Y-21212500D01*
X6899071Y-21198214D01*
X7356214Y-21498214D02*
X7356214Y-21198214D01*
X7484785Y-21498214D02*
X7484785Y-21341072D01*
X7470500Y-21312500D01*
X7441928Y-21298214D01*
X7399071Y-21298214D01*
X7370500Y-21312500D01*
X7356214Y-21326786D01*
X7670500Y-21498214D02*
X7641928Y-21483929D01*
X7627643Y-21469643D01*
X7613357Y-21441072D01*
X7613357Y-21355357D01*
X7627643Y-21326786D01*
X7641928Y-21312500D01*
X7670500Y-21298214D01*
X7713357Y-21298214D01*
X7741928Y-21312500D01*
X7756214Y-21326786D01*
X7770500Y-21355357D01*
X7770500Y-21441072D01*
X7756214Y-21469643D01*
X7741928Y-21483929D01*
X7713357Y-21498214D01*
X7670500Y-21498214D01*
X7941928Y-21498214D02*
X7913357Y-21483929D01*
X7899071Y-21455357D01*
X7899071Y-21198214D01*
X8170500Y-21483929D02*
X8141928Y-21498214D01*
X8084786Y-21498214D01*
X8056214Y-21483929D01*
X8041928Y-21455357D01*
X8041928Y-21341072D01*
X8056214Y-21312500D01*
X8084786Y-21298214D01*
X8141928Y-21298214D01*
X8170500Y-21312500D01*
X8184786Y-21341072D01*
X8184786Y-21369643D01*
X8041928Y-21398214D01*
X8299071Y-21483929D02*
X8327643Y-21498214D01*
X8384786Y-21498214D01*
X8413357Y-21483929D01*
X8427643Y-21455357D01*
X8427643Y-21441072D01*
X8413357Y-21412500D01*
X8384786Y-21398214D01*
X8341928Y-21398214D01*
X8313357Y-21383929D01*
X8299071Y-21355357D01*
X8299071Y-21341072D01*
X8313357Y-21312500D01*
X8341928Y-21298214D01*
X8384786Y-21298214D01*
X8413357Y-21312500D01*
X8527643Y-21612500D02*
X8541929Y-21598214D01*
X8570500Y-21555357D01*
X8584786Y-21526786D01*
X8599071Y-21483929D01*
X8613357Y-21412500D01*
X8613357Y-21355357D01*
X8599071Y-21283929D01*
X8584786Y-21241072D01*
X8570500Y-21212500D01*
X8541929Y-21169643D01*
X8527643Y-21155357D01*
X1540500Y-21643500D02*
X1770500Y-21873500D01*
X1770500Y-21643500D02*
X1540500Y-21873500D01*
X1655500Y-21643500D02*
X1655500Y-21873500D01*
X1540500Y-21758500D02*
X1770500Y-21758500D01*
X2027643Y-21622786D02*
X2041928Y-21608500D01*
X2070500Y-21594214D01*
X2141929Y-21594214D01*
X2170500Y-21608500D01*
X2184786Y-21622786D01*
X2199071Y-21651357D01*
X2199071Y-21679929D01*
X2184786Y-21722786D01*
X2013357Y-21894214D01*
X2199071Y-21894214D01*
X2327643Y-21865643D02*
X2341929Y-21879929D01*
X2327643Y-21894214D01*
X2313357Y-21879929D01*
X2327643Y-21865643D01*
X2327643Y-21894214D01*
X2441928Y-21594214D02*
X2627643Y-21594214D01*
X2527643Y-21708500D01*
X2570500Y-21708500D01*
X2599071Y-21722786D01*
X2613357Y-21737072D01*
X2627643Y-21765643D01*
X2627643Y-21837072D01*
X2613357Y-21865643D01*
X2599071Y-21879929D01*
X2570500Y-21894214D01*
X2484786Y-21894214D01*
X2456214Y-21879929D01*
X2441928Y-21865643D01*
X2813357Y-21594214D02*
X2841928Y-21594214D01*
X2870500Y-21608500D01*
X2884786Y-21622786D01*
X2899071Y-21651357D01*
X2913357Y-21708500D01*
X2913357Y-21779929D01*
X2899071Y-21837072D01*
X2884786Y-21865643D01*
X2870500Y-21879929D01*
X2841928Y-21894214D01*
X2813357Y-21894214D01*
X2784786Y-21879929D01*
X2770500Y-21865643D01*
X2756214Y-21837072D01*
X2741929Y-21779929D01*
X2741929Y-21708500D01*
X2756214Y-21651357D01*
X2770500Y-21622786D01*
X2784786Y-21608500D01*
X2813357Y-21594214D01*
X3041928Y-21894214D02*
X3041928Y-21694214D01*
X3041928Y-21722786D02*
X3056214Y-21708500D01*
X3084786Y-21694214D01*
X3127643Y-21694214D01*
X3156214Y-21708500D01*
X3170500Y-21737072D01*
X3170500Y-21894214D01*
X3170500Y-21737072D02*
X3184786Y-21708500D01*
X3213357Y-21694214D01*
X3256214Y-21694214D01*
X3284786Y-21708500D01*
X3299071Y-21737072D01*
X3299071Y-21894214D01*
X3441928Y-21894214D02*
X3441928Y-21694214D01*
X3441928Y-21722786D02*
X3456214Y-21708500D01*
X3484786Y-21694214D01*
X3527643Y-21694214D01*
X3556214Y-21708500D01*
X3570500Y-21737072D01*
X3570500Y-21894214D01*
X3570500Y-21737072D02*
X3584786Y-21708500D01*
X3613357Y-21694214D01*
X3656214Y-21694214D01*
X3684786Y-21708500D01*
X3699071Y-21737072D01*
X3699071Y-21894214D01*
X4284786Y-21579929D02*
X4027643Y-21965643D01*
X4670500Y-21594214D02*
X4699071Y-21594214D01*
X4727643Y-21608500D01*
X4741928Y-21622786D01*
X4756214Y-21651357D01*
X4770500Y-21708500D01*
X4770500Y-21779929D01*
X4756214Y-21837072D01*
X4741928Y-21865643D01*
X4727643Y-21879929D01*
X4699071Y-21894214D01*
X4670500Y-21894214D01*
X4641928Y-21879929D01*
X4627643Y-21865643D01*
X4613357Y-21837072D01*
X4599071Y-21779929D01*
X4599071Y-21708500D01*
X4613357Y-21651357D01*
X4627643Y-21622786D01*
X4641928Y-21608500D01*
X4670500Y-21594214D01*
X4899071Y-21865643D02*
X4913357Y-21879929D01*
X4899071Y-21894214D01*
X4884786Y-21879929D01*
X4899071Y-21865643D01*
X4899071Y-21894214D01*
X5099071Y-21594214D02*
X5127643Y-21594214D01*
X5156214Y-21608500D01*
X5170500Y-21622786D01*
X5184786Y-21651357D01*
X5199071Y-21708500D01*
X5199071Y-21779929D01*
X5184786Y-21837072D01*
X5170500Y-21865643D01*
X5156214Y-21879929D01*
X5127643Y-21894214D01*
X5099071Y-21894214D01*
X5070500Y-21879929D01*
X5056214Y-21865643D01*
X5041928Y-21837072D01*
X5027643Y-21779929D01*
X5027643Y-21708500D01*
X5041928Y-21651357D01*
X5056214Y-21622786D01*
X5070500Y-21608500D01*
X5099071Y-21594214D01*
X5341928Y-21894214D02*
X5399071Y-21894214D01*
X5427643Y-21879929D01*
X5441928Y-21865643D01*
X5470500Y-21822786D01*
X5484786Y-21765643D01*
X5484786Y-21651357D01*
X5470500Y-21622786D01*
X5456214Y-21608500D01*
X5427643Y-21594214D01*
X5370500Y-21594214D01*
X5341928Y-21608500D01*
X5327643Y-21622786D01*
X5313357Y-21651357D01*
X5313357Y-21722786D01*
X5327643Y-21751357D01*
X5341928Y-21765643D01*
X5370500Y-21779929D01*
X5427643Y-21779929D01*
X5456214Y-21765643D01*
X5470500Y-21751357D01*
X5484786Y-21722786D01*
X5770500Y-21894214D02*
X5599071Y-21894214D01*
X5684785Y-21894214D02*
X5684785Y-21594214D01*
X5656214Y-21637072D01*
X5627643Y-21665643D01*
X5599071Y-21679929D01*
X5884786Y-21594214D02*
X5884786Y-21651357D01*
X5999071Y-21594214D02*
X5999071Y-21651357D01*
X6441928Y-22008500D02*
X6427643Y-21994214D01*
X6399071Y-21951357D01*
X6384785Y-21922786D01*
X6370500Y-21879929D01*
X6356214Y-21808500D01*
X6356214Y-21751357D01*
X6370500Y-21679929D01*
X6384785Y-21637072D01*
X6399071Y-21608500D01*
X6427643Y-21565643D01*
X6441928Y-21551357D01*
X6541928Y-21622786D02*
X6556214Y-21608500D01*
X6584785Y-21594214D01*
X6656214Y-21594214D01*
X6684785Y-21608500D01*
X6699071Y-21622786D01*
X6713357Y-21651357D01*
X6713357Y-21679929D01*
X6699071Y-21722786D01*
X6527643Y-21894214D01*
X6713357Y-21894214D01*
X7070500Y-21894214D02*
X7070500Y-21594214D01*
X7199071Y-21894214D02*
X7199071Y-21737072D01*
X7184785Y-21708500D01*
X7156214Y-21694214D01*
X7113357Y-21694214D01*
X7084785Y-21708500D01*
X7070500Y-21722786D01*
X7384785Y-21894214D02*
X7356214Y-21879929D01*
X7341928Y-21865643D01*
X7327643Y-21837072D01*
X7327643Y-21751357D01*
X7341928Y-21722786D01*
X7356214Y-21708500D01*
X7384785Y-21694214D01*
X7427643Y-21694214D01*
X7456214Y-21708500D01*
X7470500Y-21722786D01*
X7484785Y-21751357D01*
X7484785Y-21837072D01*
X7470500Y-21865643D01*
X7456214Y-21879929D01*
X7427643Y-21894214D01*
X7384785Y-21894214D01*
X7656214Y-21894214D02*
X7627643Y-21879929D01*
X7613357Y-21851357D01*
X7613357Y-21594214D01*
X7884786Y-21879929D02*
X7856214Y-21894214D01*
X7799071Y-21894214D01*
X7770500Y-21879929D01*
X7756214Y-21851357D01*
X7756214Y-21737072D01*
X7770500Y-21708500D01*
X7799071Y-21694214D01*
X7856214Y-21694214D01*
X7884786Y-21708500D01*
X7899071Y-21737072D01*
X7899071Y-21765643D01*
X7756214Y-21794214D01*
X8013357Y-21879929D02*
X8041928Y-21894214D01*
X8099071Y-21894214D01*
X8127643Y-21879929D01*
X8141928Y-21851357D01*
X8141928Y-21837072D01*
X8127643Y-21808500D01*
X8099071Y-21794214D01*
X8056214Y-21794214D01*
X8027643Y-21779929D01*
X8013357Y-21751357D01*
X8013357Y-21737072D01*
X8027643Y-21708500D01*
X8056214Y-21694214D01*
X8099071Y-21694214D01*
X8127643Y-21708500D01*
X8241928Y-22008500D02*
X8256214Y-21994214D01*
X8284786Y-21951357D01*
X8299071Y-21922786D01*
X8313357Y-21879929D01*
X8327643Y-21808500D01*
X8327643Y-21751357D01*
X8313357Y-21679929D01*
X8299071Y-21637072D01*
X8284786Y-21608500D01*
X8256214Y-21565643D01*
X8241928Y-21551357D01*
X1500500Y-22019500D02*
X1770500Y-22289500D01*
X1770500Y-22019500D02*
X1500500Y-22289500D01*
X1730960Y-22249960D02*
X1730960Y-22059040D01*
X1540040Y-22059040D01*
X1540040Y-22249960D01*
X1730960Y-22249960D01*
X2027643Y-22018786D02*
X2041928Y-22004500D01*
X2070500Y-21990214D01*
X2141929Y-21990214D01*
X2170500Y-22004500D01*
X2184786Y-22018786D01*
X2199071Y-22047357D01*
X2199071Y-22075929D01*
X2184786Y-22118786D01*
X2013357Y-22290214D01*
X2199071Y-22290214D01*
X2327643Y-22261643D02*
X2341929Y-22275929D01*
X2327643Y-22290214D01*
X2313357Y-22275929D01*
X2327643Y-22261643D01*
X2327643Y-22290214D01*
X2441928Y-21990214D02*
X2641928Y-21990214D01*
X2513357Y-22290214D01*
X2813357Y-21990214D02*
X2841928Y-21990214D01*
X2870500Y-22004500D01*
X2884786Y-22018786D01*
X2899071Y-22047357D01*
X2913357Y-22104500D01*
X2913357Y-22175929D01*
X2899071Y-22233072D01*
X2884786Y-22261643D01*
X2870500Y-22275929D01*
X2841928Y-22290214D01*
X2813357Y-22290214D01*
X2784786Y-22275929D01*
X2770500Y-22261643D01*
X2756214Y-22233072D01*
X2741929Y-22175929D01*
X2741929Y-22104500D01*
X2756214Y-22047357D01*
X2770500Y-22018786D01*
X2784786Y-22004500D01*
X2813357Y-21990214D01*
X3041928Y-22290214D02*
X3041928Y-22090214D01*
X3041928Y-22118786D02*
X3056214Y-22104500D01*
X3084786Y-22090214D01*
X3127643Y-22090214D01*
X3156214Y-22104500D01*
X3170500Y-22133072D01*
X3170500Y-22290214D01*
X3170500Y-22133072D02*
X3184786Y-22104500D01*
X3213357Y-22090214D01*
X3256214Y-22090214D01*
X3284786Y-22104500D01*
X3299071Y-22133072D01*
X3299071Y-22290214D01*
X3441928Y-22290214D02*
X3441928Y-22090214D01*
X3441928Y-22118786D02*
X3456214Y-22104500D01*
X3484786Y-22090214D01*
X3527643Y-22090214D01*
X3556214Y-22104500D01*
X3570500Y-22133072D01*
X3570500Y-22290214D01*
X3570500Y-22133072D02*
X3584786Y-22104500D01*
X3613357Y-22090214D01*
X3656214Y-22090214D01*
X3684786Y-22104500D01*
X3699071Y-22133072D01*
X3699071Y-22290214D01*
X4284786Y-21975929D02*
X4027643Y-22361643D01*
X4670500Y-21990214D02*
X4699071Y-21990214D01*
X4727643Y-22004500D01*
X4741928Y-22018786D01*
X4756214Y-22047357D01*
X4770500Y-22104500D01*
X4770500Y-22175929D01*
X4756214Y-22233072D01*
X4741928Y-22261643D01*
X4727643Y-22275929D01*
X4699071Y-22290214D01*
X4670500Y-22290214D01*
X4641928Y-22275929D01*
X4627643Y-22261643D01*
X4613357Y-22233072D01*
X4599071Y-22175929D01*
X4599071Y-22104500D01*
X4613357Y-22047357D01*
X4627643Y-22018786D01*
X4641928Y-22004500D01*
X4670500Y-21990214D01*
X4899071Y-22261643D02*
X4913357Y-22275929D01*
X4899071Y-22290214D01*
X4884786Y-22275929D01*
X4899071Y-22261643D01*
X4899071Y-22290214D01*
X5199071Y-22290214D02*
X5027643Y-22290214D01*
X5113357Y-22290214D02*
X5113357Y-21990214D01*
X5084786Y-22033072D01*
X5056214Y-22061643D01*
X5027643Y-22075929D01*
X5384786Y-21990214D02*
X5413357Y-21990214D01*
X5441928Y-22004500D01*
X5456214Y-22018786D01*
X5470500Y-22047357D01*
X5484786Y-22104500D01*
X5484786Y-22175929D01*
X5470500Y-22233072D01*
X5456214Y-22261643D01*
X5441928Y-22275929D01*
X5413357Y-22290214D01*
X5384786Y-22290214D01*
X5356214Y-22275929D01*
X5341928Y-22261643D01*
X5327643Y-22233072D01*
X5313357Y-22175929D01*
X5313357Y-22104500D01*
X5327643Y-22047357D01*
X5341928Y-22018786D01*
X5356214Y-22004500D01*
X5384786Y-21990214D01*
X5741928Y-21990214D02*
X5684785Y-21990214D01*
X5656214Y-22004500D01*
X5641928Y-22018786D01*
X5613357Y-22061643D01*
X5599071Y-22118786D01*
X5599071Y-22233072D01*
X5613357Y-22261643D01*
X5627643Y-22275929D01*
X5656214Y-22290214D01*
X5713357Y-22290214D01*
X5741928Y-22275929D01*
X5756214Y-22261643D01*
X5770500Y-22233072D01*
X5770500Y-22161643D01*
X5756214Y-22133072D01*
X5741928Y-22118786D01*
X5713357Y-22104500D01*
X5656214Y-22104500D01*
X5627643Y-22118786D01*
X5613357Y-22133072D01*
X5599071Y-22161643D01*
X5884786Y-21990214D02*
X5884786Y-22047357D01*
X5999071Y-21990214D02*
X5999071Y-22047357D01*
X6441928Y-22404500D02*
X6427643Y-22390214D01*
X6399071Y-22347357D01*
X6384785Y-22318786D01*
X6370500Y-22275929D01*
X6356214Y-22204500D01*
X6356214Y-22147357D01*
X6370500Y-22075929D01*
X6384785Y-22033072D01*
X6399071Y-22004500D01*
X6427643Y-21961643D01*
X6441928Y-21947357D01*
X6541928Y-22018786D02*
X6556214Y-22004500D01*
X6584785Y-21990214D01*
X6656214Y-21990214D01*
X6684785Y-22004500D01*
X6699071Y-22018786D01*
X6713357Y-22047357D01*
X6713357Y-22075929D01*
X6699071Y-22118786D01*
X6527643Y-22290214D01*
X6713357Y-22290214D01*
X7070500Y-22290214D02*
X7070500Y-21990214D01*
X7199071Y-22290214D02*
X7199071Y-22133072D01*
X7184785Y-22104500D01*
X7156214Y-22090214D01*
X7113357Y-22090214D01*
X7084785Y-22104500D01*
X7070500Y-22118786D01*
X7384785Y-22290214D02*
X7356214Y-22275929D01*
X7341928Y-22261643D01*
X7327643Y-22233072D01*
X7327643Y-22147357D01*
X7341928Y-22118786D01*
X7356214Y-22104500D01*
X7384785Y-22090214D01*
X7427643Y-22090214D01*
X7456214Y-22104500D01*
X7470500Y-22118786D01*
X7484785Y-22147357D01*
X7484785Y-22233072D01*
X7470500Y-22261643D01*
X7456214Y-22275929D01*
X7427643Y-22290214D01*
X7384785Y-22290214D01*
X7656214Y-22290214D02*
X7627643Y-22275929D01*
X7613357Y-22247357D01*
X7613357Y-21990214D01*
X7884786Y-22275929D02*
X7856214Y-22290214D01*
X7799071Y-22290214D01*
X7770500Y-22275929D01*
X7756214Y-22247357D01*
X7756214Y-22133072D01*
X7770500Y-22104500D01*
X7799071Y-22090214D01*
X7856214Y-22090214D01*
X7884786Y-22104500D01*
X7899071Y-22133072D01*
X7899071Y-22161643D01*
X7756214Y-22190214D01*
X8013357Y-22275929D02*
X8041928Y-22290214D01*
X8099071Y-22290214D01*
X8127643Y-22275929D01*
X8141928Y-22247357D01*
X8141928Y-22233072D01*
X8127643Y-22204500D01*
X8099071Y-22190214D01*
X8056214Y-22190214D01*
X8027643Y-22175929D01*
X8013357Y-22147357D01*
X8013357Y-22133072D01*
X8027643Y-22104500D01*
X8056214Y-22090214D01*
X8099071Y-22090214D01*
X8127643Y-22104500D01*
X8241928Y-22404500D02*
X8256214Y-22390214D01*
X8284786Y-22347357D01*
X8299071Y-22318786D01*
X8313357Y-22275929D01*
X8327643Y-22204500D01*
X8327643Y-22147357D01*
X8313357Y-22075929D01*
X8299071Y-22033072D01*
X8284786Y-22004500D01*
X8256214Y-21961643D01*
X8241928Y-21947357D01*
X1450500Y-22394500D02*
X1770500Y-22714500D01*
X1770500Y-22394500D02*
X1450500Y-22714500D01*
X1610500Y-22714500D02*
X1770500Y-22554500D01*
X1610500Y-22394500D01*
X1450500Y-22554500D01*
X1610500Y-22714500D01*
X2013357Y-22390214D02*
X2199071Y-22390214D01*
X2099071Y-22504500D01*
X2141929Y-22504500D01*
X2170500Y-22518786D01*
X2184786Y-22533071D01*
X2199071Y-22561643D01*
X2199071Y-22633071D01*
X2184786Y-22661643D01*
X2170500Y-22675929D01*
X2141929Y-22690214D01*
X2056214Y-22690214D01*
X2027643Y-22675929D01*
X2013357Y-22661643D01*
X2327643Y-22661643D02*
X2341929Y-22675929D01*
X2327643Y-22690214D01*
X2313357Y-22675929D01*
X2327643Y-22661643D01*
X2327643Y-22690214D01*
X2456214Y-22418786D02*
X2470500Y-22404500D01*
X2499071Y-22390214D01*
X2570500Y-22390214D01*
X2599071Y-22404500D01*
X2613357Y-22418786D01*
X2627643Y-22447357D01*
X2627643Y-22475929D01*
X2613357Y-22518786D01*
X2441928Y-22690214D01*
X2627643Y-22690214D01*
X2813357Y-22390214D02*
X2841928Y-22390214D01*
X2870500Y-22404500D01*
X2884786Y-22418786D01*
X2899071Y-22447357D01*
X2913357Y-22504500D01*
X2913357Y-22575929D01*
X2899071Y-22633071D01*
X2884786Y-22661643D01*
X2870500Y-22675929D01*
X2841928Y-22690214D01*
X2813357Y-22690214D01*
X2784786Y-22675929D01*
X2770500Y-22661643D01*
X2756214Y-22633071D01*
X2741929Y-22575929D01*
X2741929Y-22504500D01*
X2756214Y-22447357D01*
X2770500Y-22418786D01*
X2784786Y-22404500D01*
X2813357Y-22390214D01*
X3041928Y-22690214D02*
X3041928Y-22490214D01*
X3041928Y-22518786D02*
X3056214Y-22504500D01*
X3084786Y-22490214D01*
X3127643Y-22490214D01*
X3156214Y-22504500D01*
X3170500Y-22533071D01*
X3170500Y-22690214D01*
X3170500Y-22533071D02*
X3184786Y-22504500D01*
X3213357Y-22490214D01*
X3256214Y-22490214D01*
X3284786Y-22504500D01*
X3299071Y-22533071D01*
X3299071Y-22690214D01*
X3441928Y-22690214D02*
X3441928Y-22490214D01*
X3441928Y-22518786D02*
X3456214Y-22504500D01*
X3484786Y-22490214D01*
X3527643Y-22490214D01*
X3556214Y-22504500D01*
X3570500Y-22533071D01*
X3570500Y-22690214D01*
X3570500Y-22533071D02*
X3584786Y-22504500D01*
X3613357Y-22490214D01*
X3656214Y-22490214D01*
X3684786Y-22504500D01*
X3699071Y-22533071D01*
X3699071Y-22690214D01*
X4284786Y-22375929D02*
X4027643Y-22761643D01*
X4670500Y-22390214D02*
X4699071Y-22390214D01*
X4727643Y-22404500D01*
X4741928Y-22418786D01*
X4756214Y-22447357D01*
X4770500Y-22504500D01*
X4770500Y-22575929D01*
X4756214Y-22633071D01*
X4741928Y-22661643D01*
X4727643Y-22675929D01*
X4699071Y-22690214D01*
X4670500Y-22690214D01*
X4641928Y-22675929D01*
X4627643Y-22661643D01*
X4613357Y-22633071D01*
X4599071Y-22575929D01*
X4599071Y-22504500D01*
X4613357Y-22447357D01*
X4627643Y-22418786D01*
X4641928Y-22404500D01*
X4670500Y-22390214D01*
X4899071Y-22661643D02*
X4913357Y-22675929D01*
X4899071Y-22690214D01*
X4884786Y-22675929D01*
X4899071Y-22661643D01*
X4899071Y-22690214D01*
X5199071Y-22690214D02*
X5027643Y-22690214D01*
X5113357Y-22690214D02*
X5113357Y-22390214D01*
X5084786Y-22433071D01*
X5056214Y-22461643D01*
X5027643Y-22475929D01*
X5313357Y-22418786D02*
X5327643Y-22404500D01*
X5356214Y-22390214D01*
X5427643Y-22390214D01*
X5456214Y-22404500D01*
X5470500Y-22418786D01*
X5484786Y-22447357D01*
X5484786Y-22475929D01*
X5470500Y-22518786D01*
X5299071Y-22690214D01*
X5484786Y-22690214D01*
X5741928Y-22390214D02*
X5684785Y-22390214D01*
X5656214Y-22404500D01*
X5641928Y-22418786D01*
X5613357Y-22461643D01*
X5599071Y-22518786D01*
X5599071Y-22633071D01*
X5613357Y-22661643D01*
X5627643Y-22675929D01*
X5656214Y-22690214D01*
X5713357Y-22690214D01*
X5741928Y-22675929D01*
X5756214Y-22661643D01*
X5770500Y-22633071D01*
X5770500Y-22561643D01*
X5756214Y-22533071D01*
X5741928Y-22518786D01*
X5713357Y-22504500D01*
X5656214Y-22504500D01*
X5627643Y-22518786D01*
X5613357Y-22533071D01*
X5599071Y-22561643D01*
X5884786Y-22390214D02*
X5884786Y-22447357D01*
X5999071Y-22390214D02*
X5999071Y-22447357D01*
X6441928Y-22804500D02*
X6427643Y-22790214D01*
X6399071Y-22747357D01*
X6384785Y-22718786D01*
X6370500Y-22675929D01*
X6356214Y-22604500D01*
X6356214Y-22547357D01*
X6370500Y-22475929D01*
X6384785Y-22433071D01*
X6399071Y-22404500D01*
X6427643Y-22361643D01*
X6441928Y-22347357D01*
X6527643Y-22390214D02*
X6713357Y-22390214D01*
X6613357Y-22504500D01*
X6656214Y-22504500D01*
X6684785Y-22518786D01*
X6699071Y-22533071D01*
X6713357Y-22561643D01*
X6713357Y-22633071D01*
X6699071Y-22661643D01*
X6684785Y-22675929D01*
X6656214Y-22690214D01*
X6570500Y-22690214D01*
X6541928Y-22675929D01*
X6527643Y-22661643D01*
X7070500Y-22690214D02*
X7070500Y-22390214D01*
X7199071Y-22690214D02*
X7199071Y-22533071D01*
X7184785Y-22504500D01*
X7156214Y-22490214D01*
X7113357Y-22490214D01*
X7084785Y-22504500D01*
X7070500Y-22518786D01*
X7384785Y-22690214D02*
X7356214Y-22675929D01*
X7341928Y-22661643D01*
X7327643Y-22633071D01*
X7327643Y-22547357D01*
X7341928Y-22518786D01*
X7356214Y-22504500D01*
X7384785Y-22490214D01*
X7427643Y-22490214D01*
X7456214Y-22504500D01*
X7470500Y-22518786D01*
X7484785Y-22547357D01*
X7484785Y-22633071D01*
X7470500Y-22661643D01*
X7456214Y-22675929D01*
X7427643Y-22690214D01*
X7384785Y-22690214D01*
X7656214Y-22690214D02*
X7627643Y-22675929D01*
X7613357Y-22647357D01*
X7613357Y-22390214D01*
X7884786Y-22675929D02*
X7856214Y-22690214D01*
X7799071Y-22690214D01*
X7770500Y-22675929D01*
X7756214Y-22647357D01*
X7756214Y-22533071D01*
X7770500Y-22504500D01*
X7799071Y-22490214D01*
X7856214Y-22490214D01*
X7884786Y-22504500D01*
X7899071Y-22533071D01*
X7899071Y-22561643D01*
X7756214Y-22590214D01*
X8013357Y-22675929D02*
X8041928Y-22690214D01*
X8099071Y-22690214D01*
X8127643Y-22675929D01*
X8141928Y-22647357D01*
X8141928Y-22633071D01*
X8127643Y-22604500D01*
X8099071Y-22590214D01*
X8056214Y-22590214D01*
X8027643Y-22575929D01*
X8013357Y-22547357D01*
X8013357Y-22533071D01*
X8027643Y-22504500D01*
X8056214Y-22490214D01*
X8099071Y-22490214D01*
X8127643Y-22504500D01*
X8241928Y-22804500D02*
X8256214Y-22790214D01*
X8284786Y-22747357D01*
X8299071Y-22718786D01*
X8313357Y-22675929D01*
X8327643Y-22604500D01*
X8327643Y-22547357D01*
X8313357Y-22475929D01*
X8299071Y-22433071D01*
X8284786Y-22404500D01*
X8256214Y-22361643D01*
X8241928Y-22347357D01*
X1600500Y-22834500D02*
X1600500Y-23174500D01*
X1430500Y-23004500D02*
X1770500Y-23004500D01*
X1770500Y-23004500D02*
G75*
G03X1770500Y-23004500I-170000J0D01*
G01*
X2013357Y-22840214D02*
X2199071Y-22840214D01*
X2099071Y-22954500D01*
X2141929Y-22954500D01*
X2170500Y-22968786D01*
X2184786Y-22983071D01*
X2199071Y-23011643D01*
X2199071Y-23083071D01*
X2184786Y-23111643D01*
X2170500Y-23125929D01*
X2141929Y-23140214D01*
X2056214Y-23140214D01*
X2027643Y-23125929D01*
X2013357Y-23111643D01*
X2327643Y-23111643D02*
X2341929Y-23125929D01*
X2327643Y-23140214D01*
X2313357Y-23125929D01*
X2327643Y-23111643D01*
X2327643Y-23140214D01*
X2599071Y-22940214D02*
X2599071Y-23140214D01*
X2527643Y-22825929D02*
X2456214Y-23040214D01*
X2641928Y-23040214D01*
X2813357Y-22840214D02*
X2841928Y-22840214D01*
X2870500Y-22854500D01*
X2884786Y-22868786D01*
X2899071Y-22897357D01*
X2913357Y-22954500D01*
X2913357Y-23025929D01*
X2899071Y-23083071D01*
X2884786Y-23111643D01*
X2870500Y-23125929D01*
X2841928Y-23140214D01*
X2813357Y-23140214D01*
X2784786Y-23125929D01*
X2770500Y-23111643D01*
X2756214Y-23083071D01*
X2741929Y-23025929D01*
X2741929Y-22954500D01*
X2756214Y-22897357D01*
X2770500Y-22868786D01*
X2784786Y-22854500D01*
X2813357Y-22840214D01*
X3041928Y-23140214D02*
X3041928Y-22940214D01*
X3041928Y-22968786D02*
X3056214Y-22954500D01*
X3084786Y-22940214D01*
X3127643Y-22940214D01*
X3156214Y-22954500D01*
X3170500Y-22983071D01*
X3170500Y-23140214D01*
X3170500Y-22983071D02*
X3184786Y-22954500D01*
X3213357Y-22940214D01*
X3256214Y-22940214D01*
X3284786Y-22954500D01*
X3299071Y-22983071D01*
X3299071Y-23140214D01*
X3441928Y-23140214D02*
X3441928Y-22940214D01*
X3441928Y-22968786D02*
X3456214Y-22954500D01*
X3484786Y-22940214D01*
X3527643Y-22940214D01*
X3556214Y-22954500D01*
X3570500Y-22983071D01*
X3570500Y-23140214D01*
X3570500Y-22983071D02*
X3584786Y-22954500D01*
X3613357Y-22940214D01*
X3656214Y-22940214D01*
X3684786Y-22954500D01*
X3699071Y-22983071D01*
X3699071Y-23140214D01*
X4284786Y-22825929D02*
X4027643Y-23211643D01*
X4670500Y-22840214D02*
X4699071Y-22840214D01*
X4727643Y-22854500D01*
X4741928Y-22868786D01*
X4756214Y-22897357D01*
X4770500Y-22954500D01*
X4770500Y-23025929D01*
X4756214Y-23083071D01*
X4741928Y-23111643D01*
X4727643Y-23125929D01*
X4699071Y-23140214D01*
X4670500Y-23140214D01*
X4641928Y-23125929D01*
X4627643Y-23111643D01*
X4613357Y-23083071D01*
X4599071Y-23025929D01*
X4599071Y-22954500D01*
X4613357Y-22897357D01*
X4627643Y-22868786D01*
X4641928Y-22854500D01*
X4670500Y-22840214D01*
X4899071Y-23111643D02*
X4913357Y-23125929D01*
X4899071Y-23140214D01*
X4884786Y-23125929D01*
X4899071Y-23111643D01*
X4899071Y-23140214D01*
X5199071Y-23140214D02*
X5027643Y-23140214D01*
X5113357Y-23140214D02*
X5113357Y-22840214D01*
X5084786Y-22883071D01*
X5056214Y-22911643D01*
X5027643Y-22925929D01*
X5299071Y-22840214D02*
X5484786Y-22840214D01*
X5384786Y-22954500D01*
X5427643Y-22954500D01*
X5456214Y-22968786D01*
X5470500Y-22983071D01*
X5484786Y-23011643D01*
X5484786Y-23083071D01*
X5470500Y-23111643D01*
X5456214Y-23125929D01*
X5427643Y-23140214D01*
X5341928Y-23140214D01*
X5313357Y-23125929D01*
X5299071Y-23111643D01*
X5741928Y-22940214D02*
X5741928Y-23140214D01*
X5670500Y-22825929D02*
X5599071Y-23040214D01*
X5784785Y-23040214D01*
X5884786Y-22840214D02*
X5884786Y-22897357D01*
X5999071Y-22840214D02*
X5999071Y-22897357D01*
X6441928Y-23254500D02*
X6427643Y-23240214D01*
X6399071Y-23197357D01*
X6384785Y-23168786D01*
X6370500Y-23125929D01*
X6356214Y-23054500D01*
X6356214Y-22997357D01*
X6370500Y-22925929D01*
X6384785Y-22883071D01*
X6399071Y-22854500D01*
X6427643Y-22811643D01*
X6441928Y-22797357D01*
X6599071Y-22968786D02*
X6570500Y-22954500D01*
X6556214Y-22940214D01*
X6541928Y-22911643D01*
X6541928Y-22897357D01*
X6556214Y-22868786D01*
X6570500Y-22854500D01*
X6599071Y-22840214D01*
X6656214Y-22840214D01*
X6684785Y-22854500D01*
X6699071Y-22868786D01*
X6713357Y-22897357D01*
X6713357Y-22911643D01*
X6699071Y-22940214D01*
X6684785Y-22954500D01*
X6656214Y-22968786D01*
X6599071Y-22968786D01*
X6570500Y-22983071D01*
X6556214Y-22997357D01*
X6541928Y-23025929D01*
X6541928Y-23083071D01*
X6556214Y-23111643D01*
X6570500Y-23125929D01*
X6599071Y-23140214D01*
X6656214Y-23140214D01*
X6684785Y-23125929D01*
X6699071Y-23111643D01*
X6713357Y-23083071D01*
X6713357Y-23025929D01*
X6699071Y-22997357D01*
X6684785Y-22983071D01*
X6656214Y-22968786D01*
X7070500Y-23140214D02*
X7070500Y-22840214D01*
X7199071Y-23140214D02*
X7199071Y-22983071D01*
X7184785Y-22954500D01*
X7156214Y-22940214D01*
X7113357Y-22940214D01*
X7084785Y-22954500D01*
X7070500Y-22968786D01*
X7384785Y-23140214D02*
X7356214Y-23125929D01*
X7341928Y-23111643D01*
X7327643Y-23083071D01*
X7327643Y-22997357D01*
X7341928Y-22968786D01*
X7356214Y-22954500D01*
X7384785Y-22940214D01*
X7427643Y-22940214D01*
X7456214Y-22954500D01*
X7470500Y-22968786D01*
X7484785Y-22997357D01*
X7484785Y-23083071D01*
X7470500Y-23111643D01*
X7456214Y-23125929D01*
X7427643Y-23140214D01*
X7384785Y-23140214D01*
X7656214Y-23140214D02*
X7627643Y-23125929D01*
X7613357Y-23097357D01*
X7613357Y-22840214D01*
X7884786Y-23125929D02*
X7856214Y-23140214D01*
X7799071Y-23140214D01*
X7770500Y-23125929D01*
X7756214Y-23097357D01*
X7756214Y-22983071D01*
X7770500Y-22954500D01*
X7799071Y-22940214D01*
X7856214Y-22940214D01*
X7884786Y-22954500D01*
X7899071Y-22983071D01*
X7899071Y-23011643D01*
X7756214Y-23040214D01*
X8013357Y-23125929D02*
X8041928Y-23140214D01*
X8099071Y-23140214D01*
X8127643Y-23125929D01*
X8141928Y-23097357D01*
X8141928Y-23083071D01*
X8127643Y-23054500D01*
X8099071Y-23040214D01*
X8056214Y-23040214D01*
X8027643Y-23025929D01*
X8013357Y-22997357D01*
X8013357Y-22983071D01*
X8027643Y-22954500D01*
X8056214Y-22940214D01*
X8099071Y-22940214D01*
X8127643Y-22954500D01*
X8241928Y-23254500D02*
X8256214Y-23240214D01*
X8284786Y-23197357D01*
X8299071Y-23168786D01*
X8313357Y-23125929D01*
X8327643Y-23054500D01*
X8327643Y-22997357D01*
X8313357Y-22925929D01*
X8299071Y-22883071D01*
X8284786Y-22854500D01*
X8256214Y-22811643D01*
X8241928Y-22797357D01*
X1635772Y-23799772D02*
X1635772Y-23149228D01*
X985228Y-23149228D01*
X985228Y-23799772D01*
X1635772Y-23799772D01*
X1770500Y-23474500D02*
G75*
G03X1770500Y-23474500I-460000J0D01*
G01*
X2056214Y-23610214D02*
X2113357Y-23610214D01*
X2141929Y-23595929D01*
X2156214Y-23581643D01*
X2184786Y-23538786D01*
X2199071Y-23481643D01*
X2199071Y-23367357D01*
X2184786Y-23338786D01*
X2170500Y-23324500D01*
X2141929Y-23310214D01*
X2084786Y-23310214D01*
X2056214Y-23324500D01*
X2041928Y-23338786D01*
X2027643Y-23367357D01*
X2027643Y-23438786D01*
X2041928Y-23467357D01*
X2056214Y-23481643D01*
X2084786Y-23495929D01*
X2141929Y-23495929D01*
X2170500Y-23481643D01*
X2184786Y-23467357D01*
X2199071Y-23438786D01*
X2327643Y-23581643D02*
X2341929Y-23595929D01*
X2327643Y-23610214D01*
X2313357Y-23595929D01*
X2327643Y-23581643D01*
X2327643Y-23610214D01*
X2456214Y-23338786D02*
X2470500Y-23324500D01*
X2499071Y-23310214D01*
X2570500Y-23310214D01*
X2599071Y-23324500D01*
X2613357Y-23338786D01*
X2627643Y-23367357D01*
X2627643Y-23395929D01*
X2613357Y-23438786D01*
X2441928Y-23610214D01*
X2627643Y-23610214D01*
X2813357Y-23310214D02*
X2841928Y-23310214D01*
X2870500Y-23324500D01*
X2884786Y-23338786D01*
X2899071Y-23367357D01*
X2913357Y-23424500D01*
X2913357Y-23495929D01*
X2899071Y-23553071D01*
X2884786Y-23581643D01*
X2870500Y-23595929D01*
X2841928Y-23610214D01*
X2813357Y-23610214D01*
X2784786Y-23595929D01*
X2770500Y-23581643D01*
X2756214Y-23553071D01*
X2741929Y-23495929D01*
X2741929Y-23424500D01*
X2756214Y-23367357D01*
X2770500Y-23338786D01*
X2784786Y-23324500D01*
X2813357Y-23310214D01*
X3041928Y-23610214D02*
X3041928Y-23410214D01*
X3041928Y-23438786D02*
X3056214Y-23424500D01*
X3084786Y-23410214D01*
X3127643Y-23410214D01*
X3156214Y-23424500D01*
X3170500Y-23453071D01*
X3170500Y-23610214D01*
X3170500Y-23453071D02*
X3184786Y-23424500D01*
X3213357Y-23410214D01*
X3256214Y-23410214D01*
X3284786Y-23424500D01*
X3299071Y-23453071D01*
X3299071Y-23610214D01*
X3441928Y-23610214D02*
X3441928Y-23410214D01*
X3441928Y-23438786D02*
X3456214Y-23424500D01*
X3484786Y-23410214D01*
X3527643Y-23410214D01*
X3556214Y-23424500D01*
X3570500Y-23453071D01*
X3570500Y-23610214D01*
X3570500Y-23453071D02*
X3584786Y-23424500D01*
X3613357Y-23410214D01*
X3656214Y-23410214D01*
X3684786Y-23424500D01*
X3699071Y-23453071D01*
X3699071Y-23610214D01*
X4284786Y-23295929D02*
X4027643Y-23681643D01*
X4670500Y-23310214D02*
X4699071Y-23310214D01*
X4727643Y-23324500D01*
X4741928Y-23338786D01*
X4756214Y-23367357D01*
X4770500Y-23424500D01*
X4770500Y-23495929D01*
X4756214Y-23553071D01*
X4741928Y-23581643D01*
X4727643Y-23595929D01*
X4699071Y-23610214D01*
X4670500Y-23610214D01*
X4641928Y-23595929D01*
X4627643Y-23581643D01*
X4613357Y-23553071D01*
X4599071Y-23495929D01*
X4599071Y-23424500D01*
X4613357Y-23367357D01*
X4627643Y-23338786D01*
X4641928Y-23324500D01*
X4670500Y-23310214D01*
X4899071Y-23581643D02*
X4913357Y-23595929D01*
X4899071Y-23610214D01*
X4884786Y-23595929D01*
X4899071Y-23581643D01*
X4899071Y-23610214D01*
X5013357Y-23310214D02*
X5199071Y-23310214D01*
X5099071Y-23424500D01*
X5141928Y-23424500D01*
X5170500Y-23438786D01*
X5184786Y-23453071D01*
X5199071Y-23481643D01*
X5199071Y-23553071D01*
X5184786Y-23581643D01*
X5170500Y-23595929D01*
X5141928Y-23610214D01*
X5056214Y-23610214D01*
X5027643Y-23595929D01*
X5013357Y-23581643D01*
X5456214Y-23310214D02*
X5399071Y-23310214D01*
X5370500Y-23324500D01*
X5356214Y-23338786D01*
X5327643Y-23381643D01*
X5313357Y-23438786D01*
X5313357Y-23553071D01*
X5327643Y-23581643D01*
X5341928Y-23595929D01*
X5370500Y-23610214D01*
X5427643Y-23610214D01*
X5456214Y-23595929D01*
X5470500Y-23581643D01*
X5484786Y-23553071D01*
X5484786Y-23481643D01*
X5470500Y-23453071D01*
X5456214Y-23438786D01*
X5427643Y-23424500D01*
X5370500Y-23424500D01*
X5341928Y-23438786D01*
X5327643Y-23453071D01*
X5313357Y-23481643D01*
X5599071Y-23338786D02*
X5613357Y-23324500D01*
X5641928Y-23310214D01*
X5713357Y-23310214D01*
X5741928Y-23324500D01*
X5756214Y-23338786D01*
X5770500Y-23367357D01*
X5770500Y-23395929D01*
X5756214Y-23438786D01*
X5584786Y-23610214D01*
X5770500Y-23610214D01*
X5884786Y-23310214D02*
X5884786Y-23367357D01*
X5999071Y-23310214D02*
X5999071Y-23367357D01*
X6441928Y-23724500D02*
X6427643Y-23710214D01*
X6399071Y-23667357D01*
X6384785Y-23638786D01*
X6370500Y-23595929D01*
X6356214Y-23524500D01*
X6356214Y-23467357D01*
X6370500Y-23395929D01*
X6384785Y-23353071D01*
X6399071Y-23324500D01*
X6427643Y-23281643D01*
X6441928Y-23267357D01*
X6713357Y-23610214D02*
X6541928Y-23610214D01*
X6627643Y-23610214D02*
X6627643Y-23310214D01*
X6599071Y-23353071D01*
X6570500Y-23381643D01*
X6541928Y-23395929D01*
X7070500Y-23610214D02*
X7070500Y-23310214D01*
X7199071Y-23610214D02*
X7199071Y-23453071D01*
X7184785Y-23424500D01*
X7156214Y-23410214D01*
X7113357Y-23410214D01*
X7084785Y-23424500D01*
X7070500Y-23438786D01*
X7384785Y-23610214D02*
X7356214Y-23595929D01*
X7341928Y-23581643D01*
X7327643Y-23553071D01*
X7327643Y-23467357D01*
X7341928Y-23438786D01*
X7356214Y-23424500D01*
X7384785Y-23410214D01*
X7427643Y-23410214D01*
X7456214Y-23424500D01*
X7470500Y-23438786D01*
X7484785Y-23467357D01*
X7484785Y-23553071D01*
X7470500Y-23581643D01*
X7456214Y-23595929D01*
X7427643Y-23610214D01*
X7384785Y-23610214D01*
X7656214Y-23610214D02*
X7627643Y-23595929D01*
X7613357Y-23567357D01*
X7613357Y-23310214D01*
X7884786Y-23595929D02*
X7856214Y-23610214D01*
X7799071Y-23610214D01*
X7770500Y-23595929D01*
X7756214Y-23567357D01*
X7756214Y-23453071D01*
X7770500Y-23424500D01*
X7799071Y-23410214D01*
X7856214Y-23410214D01*
X7884786Y-23424500D01*
X7899071Y-23453071D01*
X7899071Y-23481643D01*
X7756214Y-23510214D01*
X7999071Y-23724500D02*
X8013357Y-23710214D01*
X8041928Y-23667357D01*
X8056214Y-23638786D01*
X8070500Y-23595929D01*
X8084786Y-23524500D01*
X8084786Y-23467357D01*
X8070500Y-23395929D01*
X8056214Y-23353071D01*
X8041928Y-23324500D01*
X8013357Y-23281643D01*
X7999071Y-23267357D01*
M02*
