M48
;DRILL file {KiCad 4.0.1-stable} date 12/26/16 02:16:39
;FORMAT={-:-/ absolute / metric / decimal}
FMAT,2
METRIC,TZ
T1C0.700
T2C1.000
T3C3.200
%
G90
G05
M71
T1
X134.62Y-94.615
X134.62Y-104.775
X137.795Y-92.075
X137.795Y-94.615
X137.795Y-97.155
X142.24Y-94.615
X142.24Y-104.775
X145.415Y-92.075
X145.415Y-94.615
X145.415Y-97.155
X147.32Y-111.76
X147.32Y-119.38
X149.86Y-94.615
X149.86Y-104.775
X149.86Y-111.76
X149.86Y-119.38
X152.4Y-111.76
X152.4Y-119.38
X153.035Y-92.075
X153.035Y-94.615
X153.035Y-97.155
X154.94Y-111.76
X154.94Y-119.38
X157.48Y-94.615
X157.48Y-104.775
X157.48Y-111.76
X157.48Y-119.38
X160.02Y-111.76
X160.02Y-119.38
X160.655Y-92.075
X160.655Y-94.615
X160.655Y-97.155
X162.56Y-111.76
X162.56Y-119.38
X165.1Y-94.615
X165.1Y-104.775
X165.1Y-111.76
X165.1Y-119.38
X168.275Y-92.075
X168.275Y-94.615
X168.275Y-97.155
X172.72Y-94.615
X172.72Y-104.775
X175.895Y-92.075
X175.895Y-94.615
X175.895Y-97.155
X180.34Y-94.615
X180.34Y-104.775
X183.515Y-92.075
X183.515Y-94.615
X183.515Y-97.155
X188.595Y-70.485
X188.595Y-73.025
X188.595Y-75.565
X188.595Y-78.105
X188.595Y-80.645
X188.595Y-83.185
X188.595Y-85.725
X198.755Y-70.485
X198.755Y-73.025
X198.755Y-75.565
X198.755Y-78.105
X198.755Y-80.645
X198.755Y-83.185
X198.755Y-85.725
X205.74Y-75.565
X205.74Y-78.105
X205.74Y-80.645
X205.74Y-83.185
X205.74Y-85.725
X205.74Y-88.265
X205.74Y-90.805
X205.74Y-93.345
X209.55Y-99.695
X209.55Y-109.855
X213.36Y-75.565
X213.36Y-78.105
X213.36Y-80.645
X213.36Y-83.185
X213.36Y-85.725
X213.36Y-88.265
X213.36Y-90.805
X213.36Y-93.345
X213.36Y-99.695
X213.36Y-109.855
X217.17Y-75.565
X217.17Y-78.105
X217.17Y-80.645
X217.17Y-83.185
X217.17Y-85.725
X217.17Y-90.805
X217.17Y-93.345
X217.17Y-97.155
X217.17Y-99.695
X217.17Y-102.235
X222.25Y-80.645
X222.25Y-83.185
X222.25Y-85.725
X222.25Y-97.155
X222.25Y-99.695
X222.25Y-102.235
X226.695Y-99.695
X226.695Y-109.855
X227.33Y-75.565
X227.33Y-78.105
X227.33Y-90.805
X227.33Y-93.345
X230.632Y-99.568
X230.632Y-109.728
T2
X137.795Y-70.485
X137.795Y-73.025
X137.795Y-75.565
X137.795Y-78.105
X137.795Y-80.645
X137.795Y-83.185
X137.795Y-85.725
X137.795Y-88.265
X145.415Y-70.485
X145.415Y-73.025
X145.415Y-75.565
X145.415Y-78.105
X145.415Y-80.645
X145.415Y-83.185
X145.415Y-85.725
X145.415Y-88.265
X153.035Y-70.485
X153.035Y-73.025
X153.035Y-75.565
X153.035Y-78.105
X153.035Y-80.645
X153.035Y-83.185
X153.035Y-85.725
X153.035Y-88.265
X160.655Y-70.485
X160.655Y-73.025
X160.655Y-75.565
X160.655Y-78.105
X160.655Y-80.645
X160.655Y-83.185
X160.655Y-85.725
X160.655Y-88.265
X168.275Y-70.485
X168.275Y-73.025
X168.275Y-75.565
X168.275Y-78.105
X168.275Y-80.645
X168.275Y-83.185
X168.275Y-85.725
X168.275Y-88.265
X175.895Y-70.485
X175.895Y-73.025
X175.895Y-75.565
X175.895Y-78.105
X175.895Y-80.645
X175.895Y-83.185
X175.895Y-85.725
X175.895Y-88.265
X183.515Y-70.485
X183.515Y-73.025
X183.515Y-75.565
X183.515Y-78.105
X183.515Y-80.645
X183.515Y-83.185
X183.515Y-85.725
X183.515Y-88.265
X192.786Y-90.17
X192.786Y-92.71
X195.326Y-90.17
X195.326Y-92.71
X197.866Y-90.17
X197.866Y-92.71
X200.406Y-90.17
X200.406Y-92.71
X205.74Y-113.792
X208.28Y-113.792
X210.82Y-113.792
X213.36Y-113.792
X215.9Y-113.792
X218.44Y-113.792
X220.98Y-113.792
X223.52Y-113.792
X226.06Y-113.792
X228.6Y-113.792
X231.14Y-113.792
X233.045Y-85.725
X233.045Y-88.265
X233.045Y-90.805
X233.045Y-93.345
T3
X132.08Y-121.92
X236.22Y-68.58
X236.22Y-121.92
T0
M30
