G04 #@! TF.FileFunction,Legend,Top*
%FSLAX46Y46*%
G04 Gerber Fmt 4.6, Leading zero omitted, Abs format (unit mm)*
G04 Created by KiCad (PCBNEW 4.0.1-stable) date 12/26/16 02:18:00*
%MOMM*%
G01*
G04 APERTURE LIST*
%ADD10C,0.100000*%
%ADD11C,0.150000*%
G04 APERTURE END LIST*
D10*
D11*
X217170000Y-115062000D02*
X204470000Y-115062000D01*
X217170000Y-112522000D02*
X204470000Y-112522000D01*
X204470000Y-112522000D02*
X204470000Y-115062000D01*
X229870000Y-115062000D02*
X217170000Y-115062000D01*
X217170000Y-112522000D02*
X229870000Y-112522000D01*
X232690000Y-115342000D02*
X231140000Y-115342000D01*
X229870000Y-115062000D02*
X229870000Y-112522000D01*
X231140000Y-112242000D02*
X232690000Y-112242000D01*
X232690000Y-112242000D02*
X232690000Y-115342000D01*
X200406000Y-87630000D02*
X202946000Y-87630000D01*
X202946000Y-87630000D02*
X202946000Y-120650000D01*
X202946000Y-120650000D02*
X187706000Y-120650000D01*
X187706000Y-120650000D02*
X187706000Y-87630000D01*
X187706000Y-87630000D02*
X200406000Y-87630000D01*
X221253010Y-80997305D02*
G75*
G03X220550000Y-81485000I996990J-2187695D01*
G01*
X221253010Y-85372695D02*
G75*
G02X220550000Y-84885000I996990J2187695D01*
G01*
X220550000Y-81485000D02*
X220550000Y-84885000D01*
X223243127Y-81000121D02*
G75*
G02X224650000Y-83185000I-993127J-2184879D01*
G01*
X223243127Y-85369879D02*
G75*
G03X224650000Y-83185000I-993127J2184879D01*
G01*
X216173010Y-97507305D02*
G75*
G03X215470000Y-97995000I996990J-2187695D01*
G01*
X216173010Y-101882695D02*
G75*
G02X215470000Y-101395000I996990J2187695D01*
G01*
X215470000Y-97995000D02*
X215470000Y-101395000D01*
X218163127Y-97510121D02*
G75*
G02X219570000Y-99695000I-993127J-2184879D01*
G01*
X218163127Y-101879879D02*
G75*
G03X219570000Y-99695000I-993127J2184879D01*
G01*
X221253010Y-97507305D02*
G75*
G03X220550000Y-97995000I996990J-2187695D01*
G01*
X221253010Y-101882695D02*
G75*
G02X220550000Y-101395000I996990J2187695D01*
G01*
X220550000Y-97995000D02*
X220550000Y-101395000D01*
X223243127Y-97510121D02*
G75*
G02X224650000Y-99695000I-993127J-2184879D01*
G01*
X223243127Y-101879879D02*
G75*
G03X224650000Y-99695000I-993127J2184879D01*
G01*
X216173010Y-80997305D02*
G75*
G03X215470000Y-81485000I996990J-2187695D01*
G01*
X216173010Y-85372695D02*
G75*
G02X215470000Y-84885000I996990J2187695D01*
G01*
X215470000Y-81485000D02*
X215470000Y-84885000D01*
X218163127Y-81000121D02*
G75*
G02X219570000Y-83185000I-993127J-2184879D01*
G01*
X218163127Y-85369879D02*
G75*
G03X219570000Y-83185000I-993127J2184879D01*
G01*
X136798010Y-92427305D02*
G75*
G03X136095000Y-92915000I996990J-2187695D01*
G01*
X136798010Y-96802695D02*
G75*
G02X136095000Y-96315000I996990J2187695D01*
G01*
X136095000Y-92915000D02*
X136095000Y-96315000D01*
X138788127Y-92430121D02*
G75*
G02X140195000Y-94615000I-993127J-2184879D01*
G01*
X138788127Y-96799879D02*
G75*
G03X140195000Y-94615000I-993127J2184879D01*
G01*
X144418010Y-92427305D02*
G75*
G03X143715000Y-92915000I996990J-2187695D01*
G01*
X144418010Y-96802695D02*
G75*
G02X143715000Y-96315000I996990J2187695D01*
G01*
X143715000Y-92915000D02*
X143715000Y-96315000D01*
X146408127Y-92430121D02*
G75*
G02X147815000Y-94615000I-993127J-2184879D01*
G01*
X146408127Y-96799879D02*
G75*
G03X147815000Y-94615000I-993127J2184879D01*
G01*
X152038010Y-92427305D02*
G75*
G03X151335000Y-92915000I996990J-2187695D01*
G01*
X152038010Y-96802695D02*
G75*
G02X151335000Y-96315000I996990J2187695D01*
G01*
X151335000Y-92915000D02*
X151335000Y-96315000D01*
X154028127Y-92430121D02*
G75*
G02X155435000Y-94615000I-993127J-2184879D01*
G01*
X154028127Y-96799879D02*
G75*
G03X155435000Y-94615000I-993127J2184879D01*
G01*
X159658010Y-92427305D02*
G75*
G03X158955000Y-92915000I996990J-2187695D01*
G01*
X159658010Y-96802695D02*
G75*
G02X158955000Y-96315000I996990J2187695D01*
G01*
X158955000Y-92915000D02*
X158955000Y-96315000D01*
X161648127Y-92430121D02*
G75*
G02X163055000Y-94615000I-993127J-2184879D01*
G01*
X161648127Y-96799879D02*
G75*
G03X163055000Y-94615000I-993127J2184879D01*
G01*
X167278010Y-92427305D02*
G75*
G03X166575000Y-92915000I996990J-2187695D01*
G01*
X167278010Y-96802695D02*
G75*
G02X166575000Y-96315000I996990J2187695D01*
G01*
X166575000Y-92915000D02*
X166575000Y-96315000D01*
X169268127Y-92430121D02*
G75*
G02X170675000Y-94615000I-993127J-2184879D01*
G01*
X169268127Y-96799879D02*
G75*
G03X170675000Y-94615000I-993127J2184879D01*
G01*
X174898010Y-92427305D02*
G75*
G03X174195000Y-92915000I996990J-2187695D01*
G01*
X174898010Y-96802695D02*
G75*
G02X174195000Y-96315000I996990J2187695D01*
G01*
X174195000Y-92915000D02*
X174195000Y-96315000D01*
X176888127Y-92430121D02*
G75*
G02X178295000Y-94615000I-993127J-2184879D01*
G01*
X176888127Y-96799879D02*
G75*
G03X178295000Y-94615000I-993127J2184879D01*
G01*
X182518010Y-92427305D02*
G75*
G03X181815000Y-92915000I996990J-2187695D01*
G01*
X182518010Y-96802695D02*
G75*
G02X181815000Y-96315000I996990J2187695D01*
G01*
X181815000Y-92915000D02*
X181815000Y-96315000D01*
X184508127Y-92430121D02*
G75*
G02X185915000Y-94615000I-993127J-2184879D01*
G01*
X184508127Y-96799879D02*
G75*
G03X185915000Y-94615000I-993127J2184879D01*
G01*
X219075000Y-74549000D02*
X225425000Y-74549000D01*
X225425000Y-76581000D02*
X219075000Y-76581000D01*
X219075000Y-75565000D02*
X218440000Y-75565000D01*
X225425000Y-75565000D02*
X226060000Y-75565000D01*
X225425000Y-75565000D02*
X225425000Y-76581000D01*
X219075000Y-76581000D02*
X219075000Y-74549000D01*
X225425000Y-74549000D02*
X225425000Y-75565000D01*
X219075000Y-92329000D02*
X225425000Y-92329000D01*
X225425000Y-94361000D02*
X219075000Y-94361000D01*
X219075000Y-93345000D02*
X218440000Y-93345000D01*
X225425000Y-93345000D02*
X226060000Y-93345000D01*
X225425000Y-93345000D02*
X225425000Y-94361000D01*
X219075000Y-94361000D02*
X219075000Y-92329000D01*
X225425000Y-92329000D02*
X225425000Y-93345000D01*
X219075000Y-89789000D02*
X225425000Y-89789000D01*
X225425000Y-91821000D02*
X219075000Y-91821000D01*
X219075000Y-90805000D02*
X218440000Y-90805000D01*
X225425000Y-90805000D02*
X226060000Y-90805000D01*
X225425000Y-90805000D02*
X225425000Y-91821000D01*
X219075000Y-91821000D02*
X219075000Y-89789000D01*
X225425000Y-89789000D02*
X225425000Y-90805000D01*
X219075000Y-77089000D02*
X225425000Y-77089000D01*
X225425000Y-79121000D02*
X219075000Y-79121000D01*
X219075000Y-78105000D02*
X218440000Y-78105000D01*
X225425000Y-78105000D02*
X226060000Y-78105000D01*
X225425000Y-78105000D02*
X225425000Y-79121000D01*
X219075000Y-79121000D02*
X219075000Y-77089000D01*
X225425000Y-77089000D02*
X225425000Y-78105000D01*
X231648000Y-101473000D02*
X231648000Y-107823000D01*
X229616000Y-107823000D02*
X229616000Y-101473000D01*
X230632000Y-101473000D02*
X230632000Y-100838000D01*
X230632000Y-107823000D02*
X230632000Y-108458000D01*
X230632000Y-107823000D02*
X229616000Y-107823000D01*
X229616000Y-101473000D02*
X231648000Y-101473000D01*
X231648000Y-107823000D02*
X230632000Y-107823000D01*
X214376000Y-101600000D02*
X214376000Y-107950000D01*
X212344000Y-107950000D02*
X212344000Y-101600000D01*
X213360000Y-101600000D02*
X213360000Y-100965000D01*
X213360000Y-107950000D02*
X213360000Y-108585000D01*
X213360000Y-107950000D02*
X212344000Y-107950000D01*
X212344000Y-101600000D02*
X214376000Y-101600000D01*
X214376000Y-107950000D02*
X213360000Y-107950000D01*
X227711000Y-101600000D02*
X227711000Y-107950000D01*
X225679000Y-107950000D02*
X225679000Y-101600000D01*
X226695000Y-101600000D02*
X226695000Y-100965000D01*
X226695000Y-107950000D02*
X226695000Y-108585000D01*
X226695000Y-107950000D02*
X225679000Y-107950000D01*
X225679000Y-101600000D02*
X227711000Y-101600000D01*
X227711000Y-107950000D02*
X226695000Y-107950000D01*
X210566000Y-101600000D02*
X210566000Y-107950000D01*
X208534000Y-107950000D02*
X208534000Y-101600000D01*
X209550000Y-101600000D02*
X209550000Y-100965000D01*
X209550000Y-107950000D02*
X209550000Y-108585000D01*
X209550000Y-107950000D02*
X208534000Y-107950000D01*
X208534000Y-101600000D02*
X210566000Y-101600000D01*
X210566000Y-107950000D02*
X209550000Y-107950000D01*
X190500000Y-84709000D02*
X196850000Y-84709000D01*
X196850000Y-86741000D02*
X190500000Y-86741000D01*
X190500000Y-85725000D02*
X189865000Y-85725000D01*
X196850000Y-85725000D02*
X197485000Y-85725000D01*
X196850000Y-85725000D02*
X196850000Y-86741000D01*
X190500000Y-86741000D02*
X190500000Y-84709000D01*
X196850000Y-84709000D02*
X196850000Y-85725000D01*
X190500000Y-82169000D02*
X196850000Y-82169000D01*
X196850000Y-84201000D02*
X190500000Y-84201000D01*
X190500000Y-83185000D02*
X189865000Y-83185000D01*
X196850000Y-83185000D02*
X197485000Y-83185000D01*
X196850000Y-83185000D02*
X196850000Y-84201000D01*
X190500000Y-84201000D02*
X190500000Y-82169000D01*
X196850000Y-82169000D02*
X196850000Y-83185000D01*
X190500000Y-79629000D02*
X196850000Y-79629000D01*
X196850000Y-81661000D02*
X190500000Y-81661000D01*
X190500000Y-80645000D02*
X189865000Y-80645000D01*
X196850000Y-80645000D02*
X197485000Y-80645000D01*
X196850000Y-80645000D02*
X196850000Y-81661000D01*
X190500000Y-81661000D02*
X190500000Y-79629000D01*
X196850000Y-79629000D02*
X196850000Y-80645000D01*
X190500000Y-77089000D02*
X196850000Y-77089000D01*
X196850000Y-79121000D02*
X190500000Y-79121000D01*
X190500000Y-78105000D02*
X189865000Y-78105000D01*
X196850000Y-78105000D02*
X197485000Y-78105000D01*
X196850000Y-78105000D02*
X196850000Y-79121000D01*
X190500000Y-79121000D02*
X190500000Y-77089000D01*
X196850000Y-77089000D02*
X196850000Y-78105000D01*
X190500000Y-74549000D02*
X196850000Y-74549000D01*
X196850000Y-76581000D02*
X190500000Y-76581000D01*
X190500000Y-75565000D02*
X189865000Y-75565000D01*
X196850000Y-75565000D02*
X197485000Y-75565000D01*
X196850000Y-75565000D02*
X196850000Y-76581000D01*
X190500000Y-76581000D02*
X190500000Y-74549000D01*
X196850000Y-74549000D02*
X196850000Y-75565000D01*
X190500000Y-72009000D02*
X196850000Y-72009000D01*
X196850000Y-74041000D02*
X190500000Y-74041000D01*
X190500000Y-73025000D02*
X189865000Y-73025000D01*
X196850000Y-73025000D02*
X197485000Y-73025000D01*
X196850000Y-73025000D02*
X196850000Y-74041000D01*
X190500000Y-74041000D02*
X190500000Y-72009000D01*
X196850000Y-72009000D02*
X196850000Y-73025000D01*
X190500000Y-69469000D02*
X196850000Y-69469000D01*
X196850000Y-71501000D02*
X190500000Y-71501000D01*
X190500000Y-70485000D02*
X189865000Y-70485000D01*
X196850000Y-70485000D02*
X197485000Y-70485000D01*
X196850000Y-70485000D02*
X196850000Y-71501000D01*
X190500000Y-71501000D02*
X190500000Y-69469000D01*
X196850000Y-69469000D02*
X196850000Y-70485000D01*
X135636000Y-96520000D02*
X135636000Y-102870000D01*
X133604000Y-102870000D02*
X133604000Y-96520000D01*
X134620000Y-96520000D02*
X134620000Y-95885000D01*
X134620000Y-102870000D02*
X134620000Y-103505000D01*
X134620000Y-102870000D02*
X133604000Y-102870000D01*
X133604000Y-96520000D02*
X135636000Y-96520000D01*
X135636000Y-102870000D02*
X134620000Y-102870000D01*
X143256000Y-96520000D02*
X143256000Y-102870000D01*
X141224000Y-102870000D02*
X141224000Y-96520000D01*
X142240000Y-96520000D02*
X142240000Y-95885000D01*
X142240000Y-102870000D02*
X142240000Y-103505000D01*
X142240000Y-102870000D02*
X141224000Y-102870000D01*
X141224000Y-96520000D02*
X143256000Y-96520000D01*
X143256000Y-102870000D02*
X142240000Y-102870000D01*
X150876000Y-96520000D02*
X150876000Y-102870000D01*
X148844000Y-102870000D02*
X148844000Y-96520000D01*
X149860000Y-96520000D02*
X149860000Y-95885000D01*
X149860000Y-102870000D02*
X149860000Y-103505000D01*
X149860000Y-102870000D02*
X148844000Y-102870000D01*
X148844000Y-96520000D02*
X150876000Y-96520000D01*
X150876000Y-102870000D02*
X149860000Y-102870000D01*
X158496000Y-96520000D02*
X158496000Y-102870000D01*
X156464000Y-102870000D02*
X156464000Y-96520000D01*
X157480000Y-96520000D02*
X157480000Y-95885000D01*
X157480000Y-102870000D02*
X157480000Y-103505000D01*
X157480000Y-102870000D02*
X156464000Y-102870000D01*
X156464000Y-96520000D02*
X158496000Y-96520000D01*
X158496000Y-102870000D02*
X157480000Y-102870000D01*
X166116000Y-96520000D02*
X166116000Y-102870000D01*
X164084000Y-102870000D02*
X164084000Y-96520000D01*
X165100000Y-96520000D02*
X165100000Y-95885000D01*
X165100000Y-102870000D02*
X165100000Y-103505000D01*
X165100000Y-102870000D02*
X164084000Y-102870000D01*
X164084000Y-96520000D02*
X166116000Y-96520000D01*
X166116000Y-102870000D02*
X165100000Y-102870000D01*
X173736000Y-96520000D02*
X173736000Y-102870000D01*
X171704000Y-102870000D02*
X171704000Y-96520000D01*
X172720000Y-96520000D02*
X172720000Y-95885000D01*
X172720000Y-102870000D02*
X172720000Y-103505000D01*
X172720000Y-102870000D02*
X171704000Y-102870000D01*
X171704000Y-96520000D02*
X173736000Y-96520000D01*
X173736000Y-102870000D02*
X172720000Y-102870000D01*
X181356000Y-96520000D02*
X181356000Y-102870000D01*
X179324000Y-102870000D02*
X179324000Y-96520000D01*
X180340000Y-96520000D02*
X180340000Y-95885000D01*
X180340000Y-102870000D02*
X180340000Y-103505000D01*
X180340000Y-102870000D02*
X179324000Y-102870000D01*
X179324000Y-96520000D02*
X181356000Y-96520000D01*
X181356000Y-102870000D02*
X180340000Y-102870000D01*
X213233000Y-89408000D02*
X213233000Y-89662000D01*
X213233000Y-86868000D02*
X213233000Y-87122000D01*
X213233000Y-84328000D02*
X213233000Y-84582000D01*
X213233000Y-81788000D02*
X213233000Y-82042000D01*
X213233000Y-79248000D02*
X213233000Y-79502000D01*
X213233000Y-76708000D02*
X213233000Y-76962000D01*
X213233000Y-74422000D02*
X213233000Y-73279000D01*
X205867000Y-74422000D02*
X205867000Y-73279000D01*
X205867000Y-76962000D02*
X205867000Y-76708000D01*
X205867000Y-79502000D02*
X205867000Y-79248000D01*
X205867000Y-82042000D02*
X205867000Y-81788000D01*
X205867000Y-84582000D02*
X205867000Y-84328000D01*
X205867000Y-87122000D02*
X205867000Y-86868000D01*
X205867000Y-89662000D02*
X205867000Y-89408000D01*
X213233000Y-92202000D02*
X213233000Y-91948000D01*
X213233000Y-94488000D02*
X213233000Y-95631000D01*
X205867000Y-94488000D02*
X205867000Y-95631000D01*
X205867000Y-92202000D02*
X205867000Y-91948000D01*
X208661000Y-95631000D02*
X205867000Y-95631000D01*
X213233000Y-95631000D02*
X210439000Y-95631000D01*
X210439000Y-95631000D02*
G75*
G03X208661000Y-95631000I-889000J0D01*
G01*
X213225000Y-73270000D02*
X205875000Y-73270000D01*
X151257000Y-119253000D02*
X151003000Y-119253000D01*
X153797000Y-119253000D02*
X153543000Y-119253000D01*
X156337000Y-119253000D02*
X156083000Y-119253000D01*
X158877000Y-119253000D02*
X158623000Y-119253000D01*
X161417000Y-119253000D02*
X161163000Y-119253000D01*
X163957000Y-119253000D02*
X163703000Y-119253000D01*
X166243000Y-119253000D02*
X167386000Y-119253000D01*
X166243000Y-111887000D02*
X167386000Y-111887000D01*
X163703000Y-111887000D02*
X163957000Y-111887000D01*
X161163000Y-111887000D02*
X161417000Y-111887000D01*
X158623000Y-111887000D02*
X158877000Y-111887000D01*
X156083000Y-111887000D02*
X156337000Y-111887000D01*
X153543000Y-111887000D02*
X153797000Y-111887000D01*
X151003000Y-111887000D02*
X151257000Y-111887000D01*
X148463000Y-119253000D02*
X148717000Y-119253000D01*
X146177000Y-119253000D02*
X145034000Y-119253000D01*
X146177000Y-111887000D02*
X145034000Y-111887000D01*
X148463000Y-111887000D02*
X148717000Y-111887000D01*
X145034000Y-114681000D02*
X145034000Y-111887000D01*
X145034000Y-119253000D02*
X145034000Y-116459000D01*
X145034000Y-116459000D02*
G75*
G03X145034000Y-114681000I0J889000D01*
G01*
X167395000Y-119245000D02*
X167395000Y-111895000D01*
X139700000Y-89535000D02*
X139700000Y-69215000D01*
X140335000Y-89535000D02*
X140335000Y-69215000D01*
X140335000Y-69215000D02*
X134620000Y-69215000D01*
X134620000Y-69215000D02*
X134620000Y-89535000D01*
X134620000Y-89535000D02*
X140335000Y-89535000D01*
X147320000Y-89535000D02*
X147320000Y-69215000D01*
X147955000Y-89535000D02*
X147955000Y-69215000D01*
X147955000Y-69215000D02*
X142240000Y-69215000D01*
X142240000Y-69215000D02*
X142240000Y-89535000D01*
X142240000Y-89535000D02*
X147955000Y-89535000D01*
X154940000Y-89535000D02*
X154940000Y-69215000D01*
X155575000Y-89535000D02*
X155575000Y-69215000D01*
X155575000Y-69215000D02*
X149860000Y-69215000D01*
X149860000Y-69215000D02*
X149860000Y-89535000D01*
X149860000Y-89535000D02*
X155575000Y-89535000D01*
X162560000Y-89535000D02*
X162560000Y-69215000D01*
X163195000Y-89535000D02*
X163195000Y-69215000D01*
X163195000Y-69215000D02*
X157480000Y-69215000D01*
X157480000Y-69215000D02*
X157480000Y-89535000D01*
X157480000Y-89535000D02*
X163195000Y-89535000D01*
X170180000Y-89535000D02*
X170180000Y-69215000D01*
X170815000Y-89535000D02*
X170815000Y-69215000D01*
X170815000Y-69215000D02*
X165100000Y-69215000D01*
X165100000Y-69215000D02*
X165100000Y-89535000D01*
X165100000Y-89535000D02*
X170815000Y-89535000D01*
X177800000Y-89535000D02*
X177800000Y-69215000D01*
X178435000Y-89535000D02*
X178435000Y-69215000D01*
X178435000Y-69215000D02*
X172720000Y-69215000D01*
X172720000Y-69215000D02*
X172720000Y-89535000D01*
X172720000Y-89535000D02*
X178435000Y-89535000D01*
X185420000Y-89535000D02*
X185420000Y-69215000D01*
X186055000Y-89535000D02*
X186055000Y-69215000D01*
X186055000Y-69215000D02*
X180340000Y-69215000D01*
X180340000Y-69215000D02*
X180340000Y-89535000D01*
X180340000Y-89535000D02*
X186055000Y-89535000D01*
X234315000Y-84455000D02*
X234315000Y-92075000D01*
X231775000Y-92075000D02*
X231775000Y-84455000D01*
X234315000Y-84455000D02*
X231775000Y-84455000D01*
X231495000Y-94895000D02*
X231495000Y-93345000D01*
X231775000Y-92075000D02*
X234315000Y-92075000D01*
X234595000Y-93345000D02*
X234595000Y-94895000D01*
X234595000Y-94895000D02*
X231495000Y-94895000D01*
X235692381Y-114125333D02*
X236406667Y-114125333D01*
X236549524Y-114172953D01*
X236644762Y-114268191D01*
X236692381Y-114411048D01*
X236692381Y-114506286D01*
X235787619Y-113696762D02*
X235740000Y-113649143D01*
X235692381Y-113553905D01*
X235692381Y-113315809D01*
X235740000Y-113220571D01*
X235787619Y-113172952D01*
X235882857Y-113125333D01*
X235978095Y-113125333D01*
X236120952Y-113172952D01*
X236692381Y-113744381D01*
X236692381Y-113125333D01*
X205573381Y-91773333D02*
X206287667Y-91773333D01*
X206430524Y-91820953D01*
X206525762Y-91916191D01*
X206573381Y-92059048D01*
X206573381Y-92154286D01*
X205573381Y-91392381D02*
X205573381Y-90773333D01*
X205954333Y-91106667D01*
X205954333Y-90963809D01*
X206001952Y-90868571D01*
X206049571Y-90820952D01*
X206144810Y-90773333D01*
X206382905Y-90773333D01*
X206478143Y-90820952D01*
X206525762Y-90868571D01*
X206573381Y-90963809D01*
X206573381Y-91249524D01*
X206525762Y-91344762D01*
X206478143Y-91392381D01*
X226797619Y-80740238D02*
X226750000Y-80835476D01*
X226654762Y-80930714D01*
X226511905Y-81073571D01*
X226464286Y-81168810D01*
X226464286Y-81264048D01*
X226702381Y-81216429D02*
X226654762Y-81311667D01*
X226559524Y-81406905D01*
X226369048Y-81454524D01*
X226035714Y-81454524D01*
X225845238Y-81406905D01*
X225750000Y-81311667D01*
X225702381Y-81216429D01*
X225702381Y-81025952D01*
X225750000Y-80930714D01*
X225845238Y-80835476D01*
X226035714Y-80787857D01*
X226369048Y-80787857D01*
X226559524Y-80835476D01*
X226654762Y-80930714D01*
X226702381Y-81025952D01*
X226702381Y-81216429D01*
X226702381Y-79835476D02*
X226702381Y-80406905D01*
X226702381Y-80121191D02*
X225702381Y-80121191D01*
X225845238Y-80216429D01*
X225940476Y-80311667D01*
X225988095Y-80406905D01*
X221717619Y-97250238D02*
X221670000Y-97345476D01*
X221574762Y-97440714D01*
X221431905Y-97583571D01*
X221384286Y-97678810D01*
X221384286Y-97774048D01*
X221622381Y-97726429D02*
X221574762Y-97821667D01*
X221479524Y-97916905D01*
X221289048Y-97964524D01*
X220955714Y-97964524D01*
X220765238Y-97916905D01*
X220670000Y-97821667D01*
X220622381Y-97726429D01*
X220622381Y-97535952D01*
X220670000Y-97440714D01*
X220765238Y-97345476D01*
X220955714Y-97297857D01*
X221289048Y-97297857D01*
X221479524Y-97345476D01*
X221574762Y-97440714D01*
X221622381Y-97535952D01*
X221622381Y-97726429D01*
X220717619Y-96916905D02*
X220670000Y-96869286D01*
X220622381Y-96774048D01*
X220622381Y-96535952D01*
X220670000Y-96440714D01*
X220717619Y-96393095D01*
X220812857Y-96345476D01*
X220908095Y-96345476D01*
X221050952Y-96393095D01*
X221622381Y-96964524D01*
X221622381Y-96345476D01*
X226797619Y-97250238D02*
X226750000Y-97345476D01*
X226654762Y-97440714D01*
X226511905Y-97583571D01*
X226464286Y-97678810D01*
X226464286Y-97774048D01*
X226702381Y-97726429D02*
X226654762Y-97821667D01*
X226559524Y-97916905D01*
X226369048Y-97964524D01*
X226035714Y-97964524D01*
X225845238Y-97916905D01*
X225750000Y-97821667D01*
X225702381Y-97726429D01*
X225702381Y-97535952D01*
X225750000Y-97440714D01*
X225845238Y-97345476D01*
X226035714Y-97297857D01*
X226369048Y-97297857D01*
X226559524Y-97345476D01*
X226654762Y-97440714D01*
X226702381Y-97535952D01*
X226702381Y-97726429D01*
X225702381Y-96964524D02*
X225702381Y-96345476D01*
X226083333Y-96678810D01*
X226083333Y-96535952D01*
X226130952Y-96440714D01*
X226178571Y-96393095D01*
X226273810Y-96345476D01*
X226511905Y-96345476D01*
X226607143Y-96393095D01*
X226654762Y-96440714D01*
X226702381Y-96535952D01*
X226702381Y-96821667D01*
X226654762Y-96916905D01*
X226607143Y-96964524D01*
X221717619Y-80740238D02*
X221670000Y-80835476D01*
X221574762Y-80930714D01*
X221431905Y-81073571D01*
X221384286Y-81168810D01*
X221384286Y-81264048D01*
X221622381Y-81216429D02*
X221574762Y-81311667D01*
X221479524Y-81406905D01*
X221289048Y-81454524D01*
X220955714Y-81454524D01*
X220765238Y-81406905D01*
X220670000Y-81311667D01*
X220622381Y-81216429D01*
X220622381Y-81025952D01*
X220670000Y-80930714D01*
X220765238Y-80835476D01*
X220955714Y-80787857D01*
X221289048Y-80787857D01*
X221479524Y-80835476D01*
X221574762Y-80930714D01*
X221622381Y-81025952D01*
X221622381Y-81216429D01*
X220955714Y-79930714D02*
X221622381Y-79930714D01*
X220574762Y-80168810D02*
X221289048Y-80406905D01*
X221289048Y-79787857D01*
X142342619Y-92170238D02*
X142295000Y-92265476D01*
X142199762Y-92360714D01*
X142056905Y-92503571D01*
X142009286Y-92598810D01*
X142009286Y-92694048D01*
X142247381Y-92646429D02*
X142199762Y-92741667D01*
X142104524Y-92836905D01*
X141914048Y-92884524D01*
X141580714Y-92884524D01*
X141390238Y-92836905D01*
X141295000Y-92741667D01*
X141247381Y-92646429D01*
X141247381Y-92455952D01*
X141295000Y-92360714D01*
X141390238Y-92265476D01*
X141580714Y-92217857D01*
X141914048Y-92217857D01*
X142104524Y-92265476D01*
X142199762Y-92360714D01*
X142247381Y-92455952D01*
X142247381Y-92646429D01*
X141247381Y-91313095D02*
X141247381Y-91789286D01*
X141723571Y-91836905D01*
X141675952Y-91789286D01*
X141628333Y-91694048D01*
X141628333Y-91455952D01*
X141675952Y-91360714D01*
X141723571Y-91313095D01*
X141818810Y-91265476D01*
X142056905Y-91265476D01*
X142152143Y-91313095D01*
X142199762Y-91360714D01*
X142247381Y-91455952D01*
X142247381Y-91694048D01*
X142199762Y-91789286D01*
X142152143Y-91836905D01*
X149962619Y-92170238D02*
X149915000Y-92265476D01*
X149819762Y-92360714D01*
X149676905Y-92503571D01*
X149629286Y-92598810D01*
X149629286Y-92694048D01*
X149867381Y-92646429D02*
X149819762Y-92741667D01*
X149724524Y-92836905D01*
X149534048Y-92884524D01*
X149200714Y-92884524D01*
X149010238Y-92836905D01*
X148915000Y-92741667D01*
X148867381Y-92646429D01*
X148867381Y-92455952D01*
X148915000Y-92360714D01*
X149010238Y-92265476D01*
X149200714Y-92217857D01*
X149534048Y-92217857D01*
X149724524Y-92265476D01*
X149819762Y-92360714D01*
X149867381Y-92455952D01*
X149867381Y-92646429D01*
X148867381Y-91360714D02*
X148867381Y-91551191D01*
X148915000Y-91646429D01*
X148962619Y-91694048D01*
X149105476Y-91789286D01*
X149295952Y-91836905D01*
X149676905Y-91836905D01*
X149772143Y-91789286D01*
X149819762Y-91741667D01*
X149867381Y-91646429D01*
X149867381Y-91455952D01*
X149819762Y-91360714D01*
X149772143Y-91313095D01*
X149676905Y-91265476D01*
X149438810Y-91265476D01*
X149343571Y-91313095D01*
X149295952Y-91360714D01*
X149248333Y-91455952D01*
X149248333Y-91646429D01*
X149295952Y-91741667D01*
X149343571Y-91789286D01*
X149438810Y-91836905D01*
X157582619Y-92170238D02*
X157535000Y-92265476D01*
X157439762Y-92360714D01*
X157296905Y-92503571D01*
X157249286Y-92598810D01*
X157249286Y-92694048D01*
X157487381Y-92646429D02*
X157439762Y-92741667D01*
X157344524Y-92836905D01*
X157154048Y-92884524D01*
X156820714Y-92884524D01*
X156630238Y-92836905D01*
X156535000Y-92741667D01*
X156487381Y-92646429D01*
X156487381Y-92455952D01*
X156535000Y-92360714D01*
X156630238Y-92265476D01*
X156820714Y-92217857D01*
X157154048Y-92217857D01*
X157344524Y-92265476D01*
X157439762Y-92360714D01*
X157487381Y-92455952D01*
X157487381Y-92646429D01*
X156487381Y-91884524D02*
X156487381Y-91217857D01*
X157487381Y-91646429D01*
X165202619Y-92170238D02*
X165155000Y-92265476D01*
X165059762Y-92360714D01*
X164916905Y-92503571D01*
X164869286Y-92598810D01*
X164869286Y-92694048D01*
X165107381Y-92646429D02*
X165059762Y-92741667D01*
X164964524Y-92836905D01*
X164774048Y-92884524D01*
X164440714Y-92884524D01*
X164250238Y-92836905D01*
X164155000Y-92741667D01*
X164107381Y-92646429D01*
X164107381Y-92455952D01*
X164155000Y-92360714D01*
X164250238Y-92265476D01*
X164440714Y-92217857D01*
X164774048Y-92217857D01*
X164964524Y-92265476D01*
X165059762Y-92360714D01*
X165107381Y-92455952D01*
X165107381Y-92646429D01*
X164535952Y-91646429D02*
X164488333Y-91741667D01*
X164440714Y-91789286D01*
X164345476Y-91836905D01*
X164297857Y-91836905D01*
X164202619Y-91789286D01*
X164155000Y-91741667D01*
X164107381Y-91646429D01*
X164107381Y-91455952D01*
X164155000Y-91360714D01*
X164202619Y-91313095D01*
X164297857Y-91265476D01*
X164345476Y-91265476D01*
X164440714Y-91313095D01*
X164488333Y-91360714D01*
X164535952Y-91455952D01*
X164535952Y-91646429D01*
X164583571Y-91741667D01*
X164631190Y-91789286D01*
X164726429Y-91836905D01*
X164916905Y-91836905D01*
X165012143Y-91789286D01*
X165059762Y-91741667D01*
X165107381Y-91646429D01*
X165107381Y-91455952D01*
X165059762Y-91360714D01*
X165012143Y-91313095D01*
X164916905Y-91265476D01*
X164726429Y-91265476D01*
X164631190Y-91313095D01*
X164583571Y-91360714D01*
X164535952Y-91455952D01*
X172822619Y-92170238D02*
X172775000Y-92265476D01*
X172679762Y-92360714D01*
X172536905Y-92503571D01*
X172489286Y-92598810D01*
X172489286Y-92694048D01*
X172727381Y-92646429D02*
X172679762Y-92741667D01*
X172584524Y-92836905D01*
X172394048Y-92884524D01*
X172060714Y-92884524D01*
X171870238Y-92836905D01*
X171775000Y-92741667D01*
X171727381Y-92646429D01*
X171727381Y-92455952D01*
X171775000Y-92360714D01*
X171870238Y-92265476D01*
X172060714Y-92217857D01*
X172394048Y-92217857D01*
X172584524Y-92265476D01*
X172679762Y-92360714D01*
X172727381Y-92455952D01*
X172727381Y-92646429D01*
X172727381Y-91741667D02*
X172727381Y-91551191D01*
X172679762Y-91455952D01*
X172632143Y-91408333D01*
X172489286Y-91313095D01*
X172298810Y-91265476D01*
X171917857Y-91265476D01*
X171822619Y-91313095D01*
X171775000Y-91360714D01*
X171727381Y-91455952D01*
X171727381Y-91646429D01*
X171775000Y-91741667D01*
X171822619Y-91789286D01*
X171917857Y-91836905D01*
X172155952Y-91836905D01*
X172251190Y-91789286D01*
X172298810Y-91741667D01*
X172346429Y-91646429D01*
X172346429Y-91455952D01*
X172298810Y-91360714D01*
X172251190Y-91313095D01*
X172155952Y-91265476D01*
X180442619Y-92646428D02*
X180395000Y-92741666D01*
X180299762Y-92836904D01*
X180156905Y-92979761D01*
X180109286Y-93075000D01*
X180109286Y-93170238D01*
X180347381Y-93122619D02*
X180299762Y-93217857D01*
X180204524Y-93313095D01*
X180014048Y-93360714D01*
X179680714Y-93360714D01*
X179490238Y-93313095D01*
X179395000Y-93217857D01*
X179347381Y-93122619D01*
X179347381Y-92932142D01*
X179395000Y-92836904D01*
X179490238Y-92741666D01*
X179680714Y-92694047D01*
X180014048Y-92694047D01*
X180204524Y-92741666D01*
X180299762Y-92836904D01*
X180347381Y-92932142D01*
X180347381Y-93122619D01*
X180347381Y-91741666D02*
X180347381Y-92313095D01*
X180347381Y-92027381D02*
X179347381Y-92027381D01*
X179490238Y-92122619D01*
X179585476Y-92217857D01*
X179633095Y-92313095D01*
X179347381Y-91122619D02*
X179347381Y-91027380D01*
X179395000Y-90932142D01*
X179442619Y-90884523D01*
X179537857Y-90836904D01*
X179728333Y-90789285D01*
X179966429Y-90789285D01*
X180156905Y-90836904D01*
X180252143Y-90884523D01*
X180299762Y-90932142D01*
X180347381Y-91027380D01*
X180347381Y-91122619D01*
X180299762Y-91217857D01*
X180252143Y-91265476D01*
X180156905Y-91313095D01*
X179966429Y-91360714D01*
X179728333Y-91360714D01*
X179537857Y-91313095D01*
X179442619Y-91265476D01*
X179395000Y-91217857D01*
X179347381Y-91122619D01*
X188062619Y-92646428D02*
X188015000Y-92741666D01*
X187919762Y-92836904D01*
X187776905Y-92979761D01*
X187729286Y-93075000D01*
X187729286Y-93170238D01*
X187967381Y-93122619D02*
X187919762Y-93217857D01*
X187824524Y-93313095D01*
X187634048Y-93360714D01*
X187300714Y-93360714D01*
X187110238Y-93313095D01*
X187015000Y-93217857D01*
X186967381Y-93122619D01*
X186967381Y-92932142D01*
X187015000Y-92836904D01*
X187110238Y-92741666D01*
X187300714Y-92694047D01*
X187634048Y-92694047D01*
X187824524Y-92741666D01*
X187919762Y-92836904D01*
X187967381Y-92932142D01*
X187967381Y-93122619D01*
X187967381Y-91741666D02*
X187967381Y-92313095D01*
X187967381Y-92027381D02*
X186967381Y-92027381D01*
X187110238Y-92122619D01*
X187205476Y-92217857D01*
X187253095Y-92313095D01*
X187967381Y-90789285D02*
X187967381Y-91360714D01*
X187967381Y-91075000D02*
X186967381Y-91075000D01*
X187110238Y-91170238D01*
X187205476Y-91265476D01*
X187253095Y-91360714D01*
X222083334Y-76017381D02*
X221750000Y-75541190D01*
X221511905Y-76017381D02*
X221511905Y-75017381D01*
X221892858Y-75017381D01*
X221988096Y-75065000D01*
X222035715Y-75112619D01*
X222083334Y-75207857D01*
X222083334Y-75350714D01*
X222035715Y-75445952D01*
X221988096Y-75493571D01*
X221892858Y-75541190D01*
X221511905Y-75541190D01*
X223035715Y-76017381D02*
X222464286Y-76017381D01*
X222750000Y-76017381D02*
X222750000Y-75017381D01*
X222654762Y-75160238D01*
X222559524Y-75255476D01*
X222464286Y-75303095D01*
X222083334Y-93797381D02*
X221750000Y-93321190D01*
X221511905Y-93797381D02*
X221511905Y-92797381D01*
X221892858Y-92797381D01*
X221988096Y-92845000D01*
X222035715Y-92892619D01*
X222083334Y-92987857D01*
X222083334Y-93130714D01*
X222035715Y-93225952D01*
X221988096Y-93273571D01*
X221892858Y-93321190D01*
X221511905Y-93321190D01*
X222464286Y-92892619D02*
X222511905Y-92845000D01*
X222607143Y-92797381D01*
X222845239Y-92797381D01*
X222940477Y-92845000D01*
X222988096Y-92892619D01*
X223035715Y-92987857D01*
X223035715Y-93083095D01*
X222988096Y-93225952D01*
X222416667Y-93797381D01*
X223035715Y-93797381D01*
X222083334Y-91257381D02*
X221750000Y-90781190D01*
X221511905Y-91257381D02*
X221511905Y-90257381D01*
X221892858Y-90257381D01*
X221988096Y-90305000D01*
X222035715Y-90352619D01*
X222083334Y-90447857D01*
X222083334Y-90590714D01*
X222035715Y-90685952D01*
X221988096Y-90733571D01*
X221892858Y-90781190D01*
X221511905Y-90781190D01*
X222416667Y-90257381D02*
X223035715Y-90257381D01*
X222702381Y-90638333D01*
X222845239Y-90638333D01*
X222940477Y-90685952D01*
X222988096Y-90733571D01*
X223035715Y-90828810D01*
X223035715Y-91066905D01*
X222988096Y-91162143D01*
X222940477Y-91209762D01*
X222845239Y-91257381D01*
X222559524Y-91257381D01*
X222464286Y-91209762D01*
X222416667Y-91162143D01*
X222083334Y-78557381D02*
X221750000Y-78081190D01*
X221511905Y-78557381D02*
X221511905Y-77557381D01*
X221892858Y-77557381D01*
X221988096Y-77605000D01*
X222035715Y-77652619D01*
X222083334Y-77747857D01*
X222083334Y-77890714D01*
X222035715Y-77985952D01*
X221988096Y-78033571D01*
X221892858Y-78081190D01*
X221511905Y-78081190D01*
X222940477Y-77890714D02*
X222940477Y-78557381D01*
X222702381Y-77509762D02*
X222464286Y-78224048D01*
X223083334Y-78224048D01*
X231084381Y-104814666D02*
X230608190Y-105148000D01*
X231084381Y-105386095D02*
X230084381Y-105386095D01*
X230084381Y-105005142D01*
X230132000Y-104909904D01*
X230179619Y-104862285D01*
X230274857Y-104814666D01*
X230417714Y-104814666D01*
X230512952Y-104862285D01*
X230560571Y-104909904D01*
X230608190Y-105005142D01*
X230608190Y-105386095D01*
X230084381Y-103909904D02*
X230084381Y-104386095D01*
X230560571Y-104433714D01*
X230512952Y-104386095D01*
X230465333Y-104290857D01*
X230465333Y-104052761D01*
X230512952Y-103957523D01*
X230560571Y-103909904D01*
X230655810Y-103862285D01*
X230893905Y-103862285D01*
X230989143Y-103909904D01*
X231036762Y-103957523D01*
X231084381Y-104052761D01*
X231084381Y-104290857D01*
X231036762Y-104386095D01*
X230989143Y-104433714D01*
X213812381Y-104941666D02*
X213336190Y-105275000D01*
X213812381Y-105513095D02*
X212812381Y-105513095D01*
X212812381Y-105132142D01*
X212860000Y-105036904D01*
X212907619Y-104989285D01*
X213002857Y-104941666D01*
X213145714Y-104941666D01*
X213240952Y-104989285D01*
X213288571Y-105036904D01*
X213336190Y-105132142D01*
X213336190Y-105513095D01*
X212812381Y-104084523D02*
X212812381Y-104275000D01*
X212860000Y-104370238D01*
X212907619Y-104417857D01*
X213050476Y-104513095D01*
X213240952Y-104560714D01*
X213621905Y-104560714D01*
X213717143Y-104513095D01*
X213764762Y-104465476D01*
X213812381Y-104370238D01*
X213812381Y-104179761D01*
X213764762Y-104084523D01*
X213717143Y-104036904D01*
X213621905Y-103989285D01*
X213383810Y-103989285D01*
X213288571Y-104036904D01*
X213240952Y-104084523D01*
X213193333Y-104179761D01*
X213193333Y-104370238D01*
X213240952Y-104465476D01*
X213288571Y-104513095D01*
X213383810Y-104560714D01*
X227147381Y-104941666D02*
X226671190Y-105275000D01*
X227147381Y-105513095D02*
X226147381Y-105513095D01*
X226147381Y-105132142D01*
X226195000Y-105036904D01*
X226242619Y-104989285D01*
X226337857Y-104941666D01*
X226480714Y-104941666D01*
X226575952Y-104989285D01*
X226623571Y-105036904D01*
X226671190Y-105132142D01*
X226671190Y-105513095D01*
X226147381Y-104608333D02*
X226147381Y-103941666D01*
X227147381Y-104370238D01*
X210002381Y-104941666D02*
X209526190Y-105275000D01*
X210002381Y-105513095D02*
X209002381Y-105513095D01*
X209002381Y-105132142D01*
X209050000Y-105036904D01*
X209097619Y-104989285D01*
X209192857Y-104941666D01*
X209335714Y-104941666D01*
X209430952Y-104989285D01*
X209478571Y-105036904D01*
X209526190Y-105132142D01*
X209526190Y-105513095D01*
X209430952Y-104370238D02*
X209383333Y-104465476D01*
X209335714Y-104513095D01*
X209240476Y-104560714D01*
X209192857Y-104560714D01*
X209097619Y-104513095D01*
X209050000Y-104465476D01*
X209002381Y-104370238D01*
X209002381Y-104179761D01*
X209050000Y-104084523D01*
X209097619Y-104036904D01*
X209192857Y-103989285D01*
X209240476Y-103989285D01*
X209335714Y-104036904D01*
X209383333Y-104084523D01*
X209430952Y-104179761D01*
X209430952Y-104370238D01*
X209478571Y-104465476D01*
X209526190Y-104513095D01*
X209621429Y-104560714D01*
X209811905Y-104560714D01*
X209907143Y-104513095D01*
X209954762Y-104465476D01*
X210002381Y-104370238D01*
X210002381Y-104179761D01*
X209954762Y-104084523D01*
X209907143Y-104036904D01*
X209811905Y-103989285D01*
X209621429Y-103989285D01*
X209526190Y-104036904D01*
X209478571Y-104084523D01*
X209430952Y-104179761D01*
X193508334Y-86177381D02*
X193175000Y-85701190D01*
X192936905Y-86177381D02*
X192936905Y-85177381D01*
X193317858Y-85177381D01*
X193413096Y-85225000D01*
X193460715Y-85272619D01*
X193508334Y-85367857D01*
X193508334Y-85510714D01*
X193460715Y-85605952D01*
X193413096Y-85653571D01*
X193317858Y-85701190D01*
X192936905Y-85701190D01*
X193984524Y-86177381D02*
X194175000Y-86177381D01*
X194270239Y-86129762D01*
X194317858Y-86082143D01*
X194413096Y-85939286D01*
X194460715Y-85748810D01*
X194460715Y-85367857D01*
X194413096Y-85272619D01*
X194365477Y-85225000D01*
X194270239Y-85177381D01*
X194079762Y-85177381D01*
X193984524Y-85225000D01*
X193936905Y-85272619D01*
X193889286Y-85367857D01*
X193889286Y-85605952D01*
X193936905Y-85701190D01*
X193984524Y-85748810D01*
X194079762Y-85796429D01*
X194270239Y-85796429D01*
X194365477Y-85748810D01*
X194413096Y-85701190D01*
X194460715Y-85605952D01*
X193032143Y-83637381D02*
X192698809Y-83161190D01*
X192460714Y-83637381D02*
X192460714Y-82637381D01*
X192841667Y-82637381D01*
X192936905Y-82685000D01*
X192984524Y-82732619D01*
X193032143Y-82827857D01*
X193032143Y-82970714D01*
X192984524Y-83065952D01*
X192936905Y-83113571D01*
X192841667Y-83161190D01*
X192460714Y-83161190D01*
X193984524Y-83637381D02*
X193413095Y-83637381D01*
X193698809Y-83637381D02*
X193698809Y-82637381D01*
X193603571Y-82780238D01*
X193508333Y-82875476D01*
X193413095Y-82923095D01*
X194603571Y-82637381D02*
X194698810Y-82637381D01*
X194794048Y-82685000D01*
X194841667Y-82732619D01*
X194889286Y-82827857D01*
X194936905Y-83018333D01*
X194936905Y-83256429D01*
X194889286Y-83446905D01*
X194841667Y-83542143D01*
X194794048Y-83589762D01*
X194698810Y-83637381D01*
X194603571Y-83637381D01*
X194508333Y-83589762D01*
X194460714Y-83542143D01*
X194413095Y-83446905D01*
X194365476Y-83256429D01*
X194365476Y-83018333D01*
X194413095Y-82827857D01*
X194460714Y-82732619D01*
X194508333Y-82685000D01*
X194603571Y-82637381D01*
X193032143Y-81097381D02*
X192698809Y-80621190D01*
X192460714Y-81097381D02*
X192460714Y-80097381D01*
X192841667Y-80097381D01*
X192936905Y-80145000D01*
X192984524Y-80192619D01*
X193032143Y-80287857D01*
X193032143Y-80430714D01*
X192984524Y-80525952D01*
X192936905Y-80573571D01*
X192841667Y-80621190D01*
X192460714Y-80621190D01*
X193984524Y-81097381D02*
X193413095Y-81097381D01*
X193698809Y-81097381D02*
X193698809Y-80097381D01*
X193603571Y-80240238D01*
X193508333Y-80335476D01*
X193413095Y-80383095D01*
X194936905Y-81097381D02*
X194365476Y-81097381D01*
X194651190Y-81097381D02*
X194651190Y-80097381D01*
X194555952Y-80240238D01*
X194460714Y-80335476D01*
X194365476Y-80383095D01*
X193032143Y-78557381D02*
X192698809Y-78081190D01*
X192460714Y-78557381D02*
X192460714Y-77557381D01*
X192841667Y-77557381D01*
X192936905Y-77605000D01*
X192984524Y-77652619D01*
X193032143Y-77747857D01*
X193032143Y-77890714D01*
X192984524Y-77985952D01*
X192936905Y-78033571D01*
X192841667Y-78081190D01*
X192460714Y-78081190D01*
X193984524Y-78557381D02*
X193413095Y-78557381D01*
X193698809Y-78557381D02*
X193698809Y-77557381D01*
X193603571Y-77700238D01*
X193508333Y-77795476D01*
X193413095Y-77843095D01*
X194365476Y-77652619D02*
X194413095Y-77605000D01*
X194508333Y-77557381D01*
X194746429Y-77557381D01*
X194841667Y-77605000D01*
X194889286Y-77652619D01*
X194936905Y-77747857D01*
X194936905Y-77843095D01*
X194889286Y-77985952D01*
X194317857Y-78557381D01*
X194936905Y-78557381D01*
X193032143Y-76017381D02*
X192698809Y-75541190D01*
X192460714Y-76017381D02*
X192460714Y-75017381D01*
X192841667Y-75017381D01*
X192936905Y-75065000D01*
X192984524Y-75112619D01*
X193032143Y-75207857D01*
X193032143Y-75350714D01*
X192984524Y-75445952D01*
X192936905Y-75493571D01*
X192841667Y-75541190D01*
X192460714Y-75541190D01*
X193984524Y-76017381D02*
X193413095Y-76017381D01*
X193698809Y-76017381D02*
X193698809Y-75017381D01*
X193603571Y-75160238D01*
X193508333Y-75255476D01*
X193413095Y-75303095D01*
X194317857Y-75017381D02*
X194936905Y-75017381D01*
X194603571Y-75398333D01*
X194746429Y-75398333D01*
X194841667Y-75445952D01*
X194889286Y-75493571D01*
X194936905Y-75588810D01*
X194936905Y-75826905D01*
X194889286Y-75922143D01*
X194841667Y-75969762D01*
X194746429Y-76017381D01*
X194460714Y-76017381D01*
X194365476Y-75969762D01*
X194317857Y-75922143D01*
X193032143Y-73477381D02*
X192698809Y-73001190D01*
X192460714Y-73477381D02*
X192460714Y-72477381D01*
X192841667Y-72477381D01*
X192936905Y-72525000D01*
X192984524Y-72572619D01*
X193032143Y-72667857D01*
X193032143Y-72810714D01*
X192984524Y-72905952D01*
X192936905Y-72953571D01*
X192841667Y-73001190D01*
X192460714Y-73001190D01*
X193984524Y-73477381D02*
X193413095Y-73477381D01*
X193698809Y-73477381D02*
X193698809Y-72477381D01*
X193603571Y-72620238D01*
X193508333Y-72715476D01*
X193413095Y-72763095D01*
X194841667Y-72810714D02*
X194841667Y-73477381D01*
X194603571Y-72429762D02*
X194365476Y-73144048D01*
X194984524Y-73144048D01*
X193032143Y-70937381D02*
X192698809Y-70461190D01*
X192460714Y-70937381D02*
X192460714Y-69937381D01*
X192841667Y-69937381D01*
X192936905Y-69985000D01*
X192984524Y-70032619D01*
X193032143Y-70127857D01*
X193032143Y-70270714D01*
X192984524Y-70365952D01*
X192936905Y-70413571D01*
X192841667Y-70461190D01*
X192460714Y-70461190D01*
X193984524Y-70937381D02*
X193413095Y-70937381D01*
X193698809Y-70937381D02*
X193698809Y-69937381D01*
X193603571Y-70080238D01*
X193508333Y-70175476D01*
X193413095Y-70223095D01*
X194889286Y-69937381D02*
X194413095Y-69937381D01*
X194365476Y-70413571D01*
X194413095Y-70365952D01*
X194508333Y-70318333D01*
X194746429Y-70318333D01*
X194841667Y-70365952D01*
X194889286Y-70413571D01*
X194936905Y-70508810D01*
X194936905Y-70746905D01*
X194889286Y-70842143D01*
X194841667Y-70889762D01*
X194746429Y-70937381D01*
X194508333Y-70937381D01*
X194413095Y-70889762D01*
X194365476Y-70842143D01*
X135072381Y-100337857D02*
X134596190Y-100671191D01*
X135072381Y-100909286D02*
X134072381Y-100909286D01*
X134072381Y-100528333D01*
X134120000Y-100433095D01*
X134167619Y-100385476D01*
X134262857Y-100337857D01*
X134405714Y-100337857D01*
X134500952Y-100385476D01*
X134548571Y-100433095D01*
X134596190Y-100528333D01*
X134596190Y-100909286D01*
X135072381Y-99385476D02*
X135072381Y-99956905D01*
X135072381Y-99671191D02*
X134072381Y-99671191D01*
X134215238Y-99766429D01*
X134310476Y-99861667D01*
X134358095Y-99956905D01*
X134072381Y-98528333D02*
X134072381Y-98718810D01*
X134120000Y-98814048D01*
X134167619Y-98861667D01*
X134310476Y-98956905D01*
X134500952Y-99004524D01*
X134881905Y-99004524D01*
X134977143Y-98956905D01*
X135024762Y-98909286D01*
X135072381Y-98814048D01*
X135072381Y-98623571D01*
X135024762Y-98528333D01*
X134977143Y-98480714D01*
X134881905Y-98433095D01*
X134643810Y-98433095D01*
X134548571Y-98480714D01*
X134500952Y-98528333D01*
X134453333Y-98623571D01*
X134453333Y-98814048D01*
X134500952Y-98909286D01*
X134548571Y-98956905D01*
X134643810Y-99004524D01*
X142692381Y-100337857D02*
X142216190Y-100671191D01*
X142692381Y-100909286D02*
X141692381Y-100909286D01*
X141692381Y-100528333D01*
X141740000Y-100433095D01*
X141787619Y-100385476D01*
X141882857Y-100337857D01*
X142025714Y-100337857D01*
X142120952Y-100385476D01*
X142168571Y-100433095D01*
X142216190Y-100528333D01*
X142216190Y-100909286D01*
X142692381Y-99385476D02*
X142692381Y-99956905D01*
X142692381Y-99671191D02*
X141692381Y-99671191D01*
X141835238Y-99766429D01*
X141930476Y-99861667D01*
X141978095Y-99956905D01*
X141692381Y-99052143D02*
X141692381Y-98385476D01*
X142692381Y-98814048D01*
X150312381Y-100337857D02*
X149836190Y-100671191D01*
X150312381Y-100909286D02*
X149312381Y-100909286D01*
X149312381Y-100528333D01*
X149360000Y-100433095D01*
X149407619Y-100385476D01*
X149502857Y-100337857D01*
X149645714Y-100337857D01*
X149740952Y-100385476D01*
X149788571Y-100433095D01*
X149836190Y-100528333D01*
X149836190Y-100909286D01*
X150312381Y-99385476D02*
X150312381Y-99956905D01*
X150312381Y-99671191D02*
X149312381Y-99671191D01*
X149455238Y-99766429D01*
X149550476Y-99861667D01*
X149598095Y-99956905D01*
X149740952Y-98814048D02*
X149693333Y-98909286D01*
X149645714Y-98956905D01*
X149550476Y-99004524D01*
X149502857Y-99004524D01*
X149407619Y-98956905D01*
X149360000Y-98909286D01*
X149312381Y-98814048D01*
X149312381Y-98623571D01*
X149360000Y-98528333D01*
X149407619Y-98480714D01*
X149502857Y-98433095D01*
X149550476Y-98433095D01*
X149645714Y-98480714D01*
X149693333Y-98528333D01*
X149740952Y-98623571D01*
X149740952Y-98814048D01*
X149788571Y-98909286D01*
X149836190Y-98956905D01*
X149931429Y-99004524D01*
X150121905Y-99004524D01*
X150217143Y-98956905D01*
X150264762Y-98909286D01*
X150312381Y-98814048D01*
X150312381Y-98623571D01*
X150264762Y-98528333D01*
X150217143Y-98480714D01*
X150121905Y-98433095D01*
X149931429Y-98433095D01*
X149836190Y-98480714D01*
X149788571Y-98528333D01*
X149740952Y-98623571D01*
X157932381Y-100337857D02*
X157456190Y-100671191D01*
X157932381Y-100909286D02*
X156932381Y-100909286D01*
X156932381Y-100528333D01*
X156980000Y-100433095D01*
X157027619Y-100385476D01*
X157122857Y-100337857D01*
X157265714Y-100337857D01*
X157360952Y-100385476D01*
X157408571Y-100433095D01*
X157456190Y-100528333D01*
X157456190Y-100909286D01*
X157932381Y-99385476D02*
X157932381Y-99956905D01*
X157932381Y-99671191D02*
X156932381Y-99671191D01*
X157075238Y-99766429D01*
X157170476Y-99861667D01*
X157218095Y-99956905D01*
X157932381Y-98909286D02*
X157932381Y-98718810D01*
X157884762Y-98623571D01*
X157837143Y-98575952D01*
X157694286Y-98480714D01*
X157503810Y-98433095D01*
X157122857Y-98433095D01*
X157027619Y-98480714D01*
X156980000Y-98528333D01*
X156932381Y-98623571D01*
X156932381Y-98814048D01*
X156980000Y-98909286D01*
X157027619Y-98956905D01*
X157122857Y-99004524D01*
X157360952Y-99004524D01*
X157456190Y-98956905D01*
X157503810Y-98909286D01*
X157551429Y-98814048D01*
X157551429Y-98623571D01*
X157503810Y-98528333D01*
X157456190Y-98480714D01*
X157360952Y-98433095D01*
X165552381Y-100337857D02*
X165076190Y-100671191D01*
X165552381Y-100909286D02*
X164552381Y-100909286D01*
X164552381Y-100528333D01*
X164600000Y-100433095D01*
X164647619Y-100385476D01*
X164742857Y-100337857D01*
X164885714Y-100337857D01*
X164980952Y-100385476D01*
X165028571Y-100433095D01*
X165076190Y-100528333D01*
X165076190Y-100909286D01*
X164647619Y-99956905D02*
X164600000Y-99909286D01*
X164552381Y-99814048D01*
X164552381Y-99575952D01*
X164600000Y-99480714D01*
X164647619Y-99433095D01*
X164742857Y-99385476D01*
X164838095Y-99385476D01*
X164980952Y-99433095D01*
X165552381Y-100004524D01*
X165552381Y-99385476D01*
X164552381Y-98766429D02*
X164552381Y-98671190D01*
X164600000Y-98575952D01*
X164647619Y-98528333D01*
X164742857Y-98480714D01*
X164933333Y-98433095D01*
X165171429Y-98433095D01*
X165361905Y-98480714D01*
X165457143Y-98528333D01*
X165504762Y-98575952D01*
X165552381Y-98671190D01*
X165552381Y-98766429D01*
X165504762Y-98861667D01*
X165457143Y-98909286D01*
X165361905Y-98956905D01*
X165171429Y-99004524D01*
X164933333Y-99004524D01*
X164742857Y-98956905D01*
X164647619Y-98909286D01*
X164600000Y-98861667D01*
X164552381Y-98766429D01*
X173172381Y-100337857D02*
X172696190Y-100671191D01*
X173172381Y-100909286D02*
X172172381Y-100909286D01*
X172172381Y-100528333D01*
X172220000Y-100433095D01*
X172267619Y-100385476D01*
X172362857Y-100337857D01*
X172505714Y-100337857D01*
X172600952Y-100385476D01*
X172648571Y-100433095D01*
X172696190Y-100528333D01*
X172696190Y-100909286D01*
X172267619Y-99956905D02*
X172220000Y-99909286D01*
X172172381Y-99814048D01*
X172172381Y-99575952D01*
X172220000Y-99480714D01*
X172267619Y-99433095D01*
X172362857Y-99385476D01*
X172458095Y-99385476D01*
X172600952Y-99433095D01*
X173172381Y-100004524D01*
X173172381Y-99385476D01*
X173172381Y-98433095D02*
X173172381Y-99004524D01*
X173172381Y-98718810D02*
X172172381Y-98718810D01*
X172315238Y-98814048D01*
X172410476Y-98909286D01*
X172458095Y-99004524D01*
X180792381Y-100337857D02*
X180316190Y-100671191D01*
X180792381Y-100909286D02*
X179792381Y-100909286D01*
X179792381Y-100528333D01*
X179840000Y-100433095D01*
X179887619Y-100385476D01*
X179982857Y-100337857D01*
X180125714Y-100337857D01*
X180220952Y-100385476D01*
X180268571Y-100433095D01*
X180316190Y-100528333D01*
X180316190Y-100909286D01*
X179887619Y-99956905D02*
X179840000Y-99909286D01*
X179792381Y-99814048D01*
X179792381Y-99575952D01*
X179840000Y-99480714D01*
X179887619Y-99433095D01*
X179982857Y-99385476D01*
X180078095Y-99385476D01*
X180220952Y-99433095D01*
X180792381Y-100004524D01*
X180792381Y-99385476D01*
X179887619Y-99004524D02*
X179840000Y-98956905D01*
X179792381Y-98861667D01*
X179792381Y-98623571D01*
X179840000Y-98528333D01*
X179887619Y-98480714D01*
X179982857Y-98433095D01*
X180078095Y-98433095D01*
X180220952Y-98480714D01*
X180792381Y-99052143D01*
X180792381Y-98433095D01*
X208534095Y-83780381D02*
X208534095Y-84589905D01*
X208581714Y-84685143D01*
X208629333Y-84732762D01*
X208724571Y-84780381D01*
X208915048Y-84780381D01*
X209010286Y-84732762D01*
X209057905Y-84685143D01*
X209105524Y-84589905D01*
X209105524Y-83780381D01*
X210105524Y-84780381D02*
X209534095Y-84780381D01*
X209819809Y-84780381D02*
X209819809Y-83780381D01*
X209724571Y-83923238D01*
X209629333Y-84018476D01*
X209534095Y-84066095D01*
X155789381Y-116077905D02*
X156598905Y-116077905D01*
X156694143Y-116030286D01*
X156741762Y-115982667D01*
X156789381Y-115887429D01*
X156789381Y-115696952D01*
X156741762Y-115601714D01*
X156694143Y-115554095D01*
X156598905Y-115506476D01*
X155789381Y-115506476D01*
X155884619Y-115077905D02*
X155837000Y-115030286D01*
X155789381Y-114935048D01*
X155789381Y-114696952D01*
X155837000Y-114601714D01*
X155884619Y-114554095D01*
X155979857Y-114506476D01*
X156075095Y-114506476D01*
X156217952Y-114554095D01*
X156789381Y-115125524D01*
X156789381Y-114506476D01*
X134389762Y-81089286D02*
X134437381Y-80946429D01*
X134437381Y-80708333D01*
X134389762Y-80613095D01*
X134342143Y-80565476D01*
X134246905Y-80517857D01*
X134151667Y-80517857D01*
X134056429Y-80565476D01*
X134008810Y-80613095D01*
X133961190Y-80708333D01*
X133913571Y-80898810D01*
X133865952Y-80994048D01*
X133818333Y-81041667D01*
X133723095Y-81089286D01*
X133627857Y-81089286D01*
X133532619Y-81041667D01*
X133485000Y-80994048D01*
X133437381Y-80898810D01*
X133437381Y-80660714D01*
X133485000Y-80517857D01*
X133913571Y-80089286D02*
X133913571Y-79755952D01*
X134437381Y-79613095D02*
X134437381Y-80089286D01*
X133437381Y-80089286D01*
X133437381Y-79613095D01*
X133485000Y-78660714D02*
X133437381Y-78755952D01*
X133437381Y-78898809D01*
X133485000Y-79041667D01*
X133580238Y-79136905D01*
X133675476Y-79184524D01*
X133865952Y-79232143D01*
X134008810Y-79232143D01*
X134199286Y-79184524D01*
X134294524Y-79136905D01*
X134389762Y-79041667D01*
X134437381Y-78898809D01*
X134437381Y-78803571D01*
X134389762Y-78660714D01*
X134342143Y-78613095D01*
X134008810Y-78613095D01*
X134008810Y-78803571D01*
X134437381Y-77660714D02*
X134437381Y-78232143D01*
X134437381Y-77946429D02*
X133437381Y-77946429D01*
X133580238Y-78041667D01*
X133675476Y-78136905D01*
X133723095Y-78232143D01*
X142009762Y-81089286D02*
X142057381Y-80946429D01*
X142057381Y-80708333D01*
X142009762Y-80613095D01*
X141962143Y-80565476D01*
X141866905Y-80517857D01*
X141771667Y-80517857D01*
X141676429Y-80565476D01*
X141628810Y-80613095D01*
X141581190Y-80708333D01*
X141533571Y-80898810D01*
X141485952Y-80994048D01*
X141438333Y-81041667D01*
X141343095Y-81089286D01*
X141247857Y-81089286D01*
X141152619Y-81041667D01*
X141105000Y-80994048D01*
X141057381Y-80898810D01*
X141057381Y-80660714D01*
X141105000Y-80517857D01*
X141533571Y-80089286D02*
X141533571Y-79755952D01*
X142057381Y-79613095D02*
X142057381Y-80089286D01*
X141057381Y-80089286D01*
X141057381Y-79613095D01*
X141105000Y-78660714D02*
X141057381Y-78755952D01*
X141057381Y-78898809D01*
X141105000Y-79041667D01*
X141200238Y-79136905D01*
X141295476Y-79184524D01*
X141485952Y-79232143D01*
X141628810Y-79232143D01*
X141819286Y-79184524D01*
X141914524Y-79136905D01*
X142009762Y-79041667D01*
X142057381Y-78898809D01*
X142057381Y-78803571D01*
X142009762Y-78660714D01*
X141962143Y-78613095D01*
X141628810Y-78613095D01*
X141628810Y-78803571D01*
X141152619Y-78232143D02*
X141105000Y-78184524D01*
X141057381Y-78089286D01*
X141057381Y-77851190D01*
X141105000Y-77755952D01*
X141152619Y-77708333D01*
X141247857Y-77660714D01*
X141343095Y-77660714D01*
X141485952Y-77708333D01*
X142057381Y-78279762D01*
X142057381Y-77660714D01*
X149629762Y-81089286D02*
X149677381Y-80946429D01*
X149677381Y-80708333D01*
X149629762Y-80613095D01*
X149582143Y-80565476D01*
X149486905Y-80517857D01*
X149391667Y-80517857D01*
X149296429Y-80565476D01*
X149248810Y-80613095D01*
X149201190Y-80708333D01*
X149153571Y-80898810D01*
X149105952Y-80994048D01*
X149058333Y-81041667D01*
X148963095Y-81089286D01*
X148867857Y-81089286D01*
X148772619Y-81041667D01*
X148725000Y-80994048D01*
X148677381Y-80898810D01*
X148677381Y-80660714D01*
X148725000Y-80517857D01*
X149153571Y-80089286D02*
X149153571Y-79755952D01*
X149677381Y-79613095D02*
X149677381Y-80089286D01*
X148677381Y-80089286D01*
X148677381Y-79613095D01*
X148725000Y-78660714D02*
X148677381Y-78755952D01*
X148677381Y-78898809D01*
X148725000Y-79041667D01*
X148820238Y-79136905D01*
X148915476Y-79184524D01*
X149105952Y-79232143D01*
X149248810Y-79232143D01*
X149439286Y-79184524D01*
X149534524Y-79136905D01*
X149629762Y-79041667D01*
X149677381Y-78898809D01*
X149677381Y-78803571D01*
X149629762Y-78660714D01*
X149582143Y-78613095D01*
X149248810Y-78613095D01*
X149248810Y-78803571D01*
X148677381Y-78279762D02*
X148677381Y-77660714D01*
X149058333Y-77994048D01*
X149058333Y-77851190D01*
X149105952Y-77755952D01*
X149153571Y-77708333D01*
X149248810Y-77660714D01*
X149486905Y-77660714D01*
X149582143Y-77708333D01*
X149629762Y-77755952D01*
X149677381Y-77851190D01*
X149677381Y-78136905D01*
X149629762Y-78232143D01*
X149582143Y-78279762D01*
X157249762Y-81089286D02*
X157297381Y-80946429D01*
X157297381Y-80708333D01*
X157249762Y-80613095D01*
X157202143Y-80565476D01*
X157106905Y-80517857D01*
X157011667Y-80517857D01*
X156916429Y-80565476D01*
X156868810Y-80613095D01*
X156821190Y-80708333D01*
X156773571Y-80898810D01*
X156725952Y-80994048D01*
X156678333Y-81041667D01*
X156583095Y-81089286D01*
X156487857Y-81089286D01*
X156392619Y-81041667D01*
X156345000Y-80994048D01*
X156297381Y-80898810D01*
X156297381Y-80660714D01*
X156345000Y-80517857D01*
X156773571Y-80089286D02*
X156773571Y-79755952D01*
X157297381Y-79613095D02*
X157297381Y-80089286D01*
X156297381Y-80089286D01*
X156297381Y-79613095D01*
X156345000Y-78660714D02*
X156297381Y-78755952D01*
X156297381Y-78898809D01*
X156345000Y-79041667D01*
X156440238Y-79136905D01*
X156535476Y-79184524D01*
X156725952Y-79232143D01*
X156868810Y-79232143D01*
X157059286Y-79184524D01*
X157154524Y-79136905D01*
X157249762Y-79041667D01*
X157297381Y-78898809D01*
X157297381Y-78803571D01*
X157249762Y-78660714D01*
X157202143Y-78613095D01*
X156868810Y-78613095D01*
X156868810Y-78803571D01*
X156630714Y-77755952D02*
X157297381Y-77755952D01*
X156249762Y-77994048D02*
X156964048Y-78232143D01*
X156964048Y-77613095D01*
X164869762Y-81089286D02*
X164917381Y-80946429D01*
X164917381Y-80708333D01*
X164869762Y-80613095D01*
X164822143Y-80565476D01*
X164726905Y-80517857D01*
X164631667Y-80517857D01*
X164536429Y-80565476D01*
X164488810Y-80613095D01*
X164441190Y-80708333D01*
X164393571Y-80898810D01*
X164345952Y-80994048D01*
X164298333Y-81041667D01*
X164203095Y-81089286D01*
X164107857Y-81089286D01*
X164012619Y-81041667D01*
X163965000Y-80994048D01*
X163917381Y-80898810D01*
X163917381Y-80660714D01*
X163965000Y-80517857D01*
X164393571Y-80089286D02*
X164393571Y-79755952D01*
X164917381Y-79613095D02*
X164917381Y-80089286D01*
X163917381Y-80089286D01*
X163917381Y-79613095D01*
X163965000Y-78660714D02*
X163917381Y-78755952D01*
X163917381Y-78898809D01*
X163965000Y-79041667D01*
X164060238Y-79136905D01*
X164155476Y-79184524D01*
X164345952Y-79232143D01*
X164488810Y-79232143D01*
X164679286Y-79184524D01*
X164774524Y-79136905D01*
X164869762Y-79041667D01*
X164917381Y-78898809D01*
X164917381Y-78803571D01*
X164869762Y-78660714D01*
X164822143Y-78613095D01*
X164488810Y-78613095D01*
X164488810Y-78803571D01*
X163917381Y-77708333D02*
X163917381Y-78184524D01*
X164393571Y-78232143D01*
X164345952Y-78184524D01*
X164298333Y-78089286D01*
X164298333Y-77851190D01*
X164345952Y-77755952D01*
X164393571Y-77708333D01*
X164488810Y-77660714D01*
X164726905Y-77660714D01*
X164822143Y-77708333D01*
X164869762Y-77755952D01*
X164917381Y-77851190D01*
X164917381Y-78089286D01*
X164869762Y-78184524D01*
X164822143Y-78232143D01*
X172489762Y-81089286D02*
X172537381Y-80946429D01*
X172537381Y-80708333D01*
X172489762Y-80613095D01*
X172442143Y-80565476D01*
X172346905Y-80517857D01*
X172251667Y-80517857D01*
X172156429Y-80565476D01*
X172108810Y-80613095D01*
X172061190Y-80708333D01*
X172013571Y-80898810D01*
X171965952Y-80994048D01*
X171918333Y-81041667D01*
X171823095Y-81089286D01*
X171727857Y-81089286D01*
X171632619Y-81041667D01*
X171585000Y-80994048D01*
X171537381Y-80898810D01*
X171537381Y-80660714D01*
X171585000Y-80517857D01*
X172013571Y-80089286D02*
X172013571Y-79755952D01*
X172537381Y-79613095D02*
X172537381Y-80089286D01*
X171537381Y-80089286D01*
X171537381Y-79613095D01*
X171585000Y-78660714D02*
X171537381Y-78755952D01*
X171537381Y-78898809D01*
X171585000Y-79041667D01*
X171680238Y-79136905D01*
X171775476Y-79184524D01*
X171965952Y-79232143D01*
X172108810Y-79232143D01*
X172299286Y-79184524D01*
X172394524Y-79136905D01*
X172489762Y-79041667D01*
X172537381Y-78898809D01*
X172537381Y-78803571D01*
X172489762Y-78660714D01*
X172442143Y-78613095D01*
X172108810Y-78613095D01*
X172108810Y-78803571D01*
X171537381Y-77755952D02*
X171537381Y-77946429D01*
X171585000Y-78041667D01*
X171632619Y-78089286D01*
X171775476Y-78184524D01*
X171965952Y-78232143D01*
X172346905Y-78232143D01*
X172442143Y-78184524D01*
X172489762Y-78136905D01*
X172537381Y-78041667D01*
X172537381Y-77851190D01*
X172489762Y-77755952D01*
X172442143Y-77708333D01*
X172346905Y-77660714D01*
X172108810Y-77660714D01*
X172013571Y-77708333D01*
X171965952Y-77755952D01*
X171918333Y-77851190D01*
X171918333Y-78041667D01*
X171965952Y-78136905D01*
X172013571Y-78184524D01*
X172108810Y-78232143D01*
X180109762Y-81089286D02*
X180157381Y-80946429D01*
X180157381Y-80708333D01*
X180109762Y-80613095D01*
X180062143Y-80565476D01*
X179966905Y-80517857D01*
X179871667Y-80517857D01*
X179776429Y-80565476D01*
X179728810Y-80613095D01*
X179681190Y-80708333D01*
X179633571Y-80898810D01*
X179585952Y-80994048D01*
X179538333Y-81041667D01*
X179443095Y-81089286D01*
X179347857Y-81089286D01*
X179252619Y-81041667D01*
X179205000Y-80994048D01*
X179157381Y-80898810D01*
X179157381Y-80660714D01*
X179205000Y-80517857D01*
X179633571Y-80089286D02*
X179633571Y-79755952D01*
X180157381Y-79613095D02*
X180157381Y-80089286D01*
X179157381Y-80089286D01*
X179157381Y-79613095D01*
X179205000Y-78660714D02*
X179157381Y-78755952D01*
X179157381Y-78898809D01*
X179205000Y-79041667D01*
X179300238Y-79136905D01*
X179395476Y-79184524D01*
X179585952Y-79232143D01*
X179728810Y-79232143D01*
X179919286Y-79184524D01*
X180014524Y-79136905D01*
X180109762Y-79041667D01*
X180157381Y-78898809D01*
X180157381Y-78803571D01*
X180109762Y-78660714D01*
X180062143Y-78613095D01*
X179728810Y-78613095D01*
X179728810Y-78803571D01*
X179157381Y-78279762D02*
X179157381Y-77613095D01*
X180157381Y-78041667D01*
X232711667Y-97897381D02*
X232711667Y-98611667D01*
X232664047Y-98754524D01*
X232568809Y-98849762D01*
X232425952Y-98897381D01*
X232330714Y-98897381D01*
X233711667Y-98897381D02*
X233140238Y-98897381D01*
X233425952Y-98897381D02*
X233425952Y-97897381D01*
X233330714Y-98040238D01*
X233235476Y-98135476D01*
X233140238Y-98183095D01*
M02*
