G04 #@! TF.FileFunction,Copper,L2,Bot,Signal*
%FSLAX46Y46*%
G04 Gerber Fmt 4.6, Leading zero omitted, Abs format (unit mm)*
G04 Created by KiCad (PCBNEW 4.0.1-stable) date 12/26/16 02:18:00*
%MOMM*%
G01*
G04 APERTURE LIST*
%ADD10C,0.100000*%
%ADD11R,2.016000X2.016000*%
%ADD12C,2.016000*%
%ADD13C,1.716000*%
%ADD14C,3.800000*%
%ADD15C,0.304800*%
G04 APERTURE END LIST*
D10*
D11*
X231140000Y-113792000D03*
D12*
X228600000Y-113792000D03*
X226060000Y-113792000D03*
X223520000Y-113792000D03*
X220980000Y-113792000D03*
X218440000Y-113792000D03*
X215900000Y-113792000D03*
X213360000Y-113792000D03*
X210820000Y-113792000D03*
X208280000Y-113792000D03*
X205740000Y-113792000D03*
X200406000Y-90170000D03*
X200406000Y-92710000D03*
X197866000Y-90170000D03*
X197866000Y-92710000D03*
X195326000Y-90170000D03*
X195326000Y-92710000D03*
X192786000Y-90170000D03*
X192786000Y-92710000D03*
D13*
X222250000Y-83185000D03*
X222250000Y-85725000D03*
X222250000Y-80645000D03*
X217170000Y-99695000D03*
X217170000Y-102235000D03*
X217170000Y-97155000D03*
X222250000Y-99695000D03*
X222250000Y-102235000D03*
X222250000Y-97155000D03*
X217170000Y-83185000D03*
X217170000Y-85725000D03*
X217170000Y-80645000D03*
X137795000Y-94615000D03*
X137795000Y-97155000D03*
X137795000Y-92075000D03*
X145415000Y-94615000D03*
X145415000Y-97155000D03*
X145415000Y-92075000D03*
X153035000Y-94615000D03*
X153035000Y-97155000D03*
X153035000Y-92075000D03*
X160655000Y-94615000D03*
X160655000Y-97155000D03*
X160655000Y-92075000D03*
X168275000Y-94615000D03*
X168275000Y-97155000D03*
X168275000Y-92075000D03*
X175895000Y-94615000D03*
X175895000Y-97155000D03*
X175895000Y-92075000D03*
X183515000Y-94615000D03*
X183515000Y-97155000D03*
X183515000Y-92075000D03*
X227330000Y-75565000D03*
X217170000Y-75565000D03*
X227330000Y-93345000D03*
X217170000Y-93345000D03*
X227330000Y-90805000D03*
X217170000Y-90805000D03*
X227330000Y-78105000D03*
X217170000Y-78105000D03*
X230632000Y-109728000D03*
X230632000Y-99568000D03*
X213360000Y-109855000D03*
X213360000Y-99695000D03*
X226695000Y-109855000D03*
X226695000Y-99695000D03*
X209550000Y-109855000D03*
X209550000Y-99695000D03*
X198755000Y-85725000D03*
X188595000Y-85725000D03*
X198755000Y-83185000D03*
X188595000Y-83185000D03*
X198755000Y-80645000D03*
X188595000Y-80645000D03*
X198755000Y-78105000D03*
X188595000Y-78105000D03*
X198755000Y-75565000D03*
X188595000Y-75565000D03*
X198755000Y-73025000D03*
X188595000Y-73025000D03*
X198755000Y-70485000D03*
X188595000Y-70485000D03*
X134620000Y-104775000D03*
X134620000Y-94615000D03*
X142240000Y-104775000D03*
X142240000Y-94615000D03*
X149860000Y-104775000D03*
X149860000Y-94615000D03*
X157480000Y-104775000D03*
X157480000Y-94615000D03*
X165100000Y-104775000D03*
X165100000Y-94615000D03*
X172720000Y-104775000D03*
X172720000Y-94615000D03*
X180340000Y-104775000D03*
X180340000Y-94615000D03*
X213360000Y-93345000D03*
X213360000Y-90805000D03*
X213360000Y-88265000D03*
X213360000Y-85725000D03*
X213360000Y-83185000D03*
X213360000Y-80645000D03*
X213360000Y-78105000D03*
X213360000Y-75565000D03*
X205740000Y-75565000D03*
X205740000Y-78105000D03*
X205740000Y-80645000D03*
X205740000Y-83185000D03*
X205740000Y-85725000D03*
X205740000Y-88265000D03*
X205740000Y-90805000D03*
X205740000Y-93345000D03*
X147320000Y-119380000D03*
X149860000Y-119380000D03*
X152400000Y-119380000D03*
X154940000Y-119380000D03*
X157480000Y-119380000D03*
X160020000Y-119380000D03*
X162560000Y-119380000D03*
X165100000Y-119380000D03*
X165100000Y-111760000D03*
X162560000Y-111760000D03*
X160020000Y-111760000D03*
X157480000Y-111760000D03*
X154940000Y-111760000D03*
X152400000Y-111760000D03*
X149860000Y-111760000D03*
X147320000Y-111760000D03*
D12*
X137795000Y-80645000D03*
X137795000Y-83185000D03*
X137795000Y-85725000D03*
D11*
X137795000Y-88265000D03*
D12*
X137795000Y-78105000D03*
X137795000Y-75565000D03*
X137795000Y-73025000D03*
X137795000Y-70485000D03*
X145415000Y-80645000D03*
X145415000Y-83185000D03*
X145415000Y-85725000D03*
D11*
X145415000Y-88265000D03*
D12*
X145415000Y-78105000D03*
X145415000Y-75565000D03*
X145415000Y-73025000D03*
X145415000Y-70485000D03*
X153035000Y-80645000D03*
X153035000Y-83185000D03*
X153035000Y-85725000D03*
D11*
X153035000Y-88265000D03*
D12*
X153035000Y-78105000D03*
X153035000Y-75565000D03*
X153035000Y-73025000D03*
X153035000Y-70485000D03*
X160655000Y-80645000D03*
X160655000Y-83185000D03*
X160655000Y-85725000D03*
D11*
X160655000Y-88265000D03*
D12*
X160655000Y-78105000D03*
X160655000Y-75565000D03*
X160655000Y-73025000D03*
X160655000Y-70485000D03*
X168275000Y-80645000D03*
X168275000Y-83185000D03*
X168275000Y-85725000D03*
D11*
X168275000Y-88265000D03*
D12*
X168275000Y-78105000D03*
X168275000Y-75565000D03*
X168275000Y-73025000D03*
X168275000Y-70485000D03*
X175895000Y-80645000D03*
X175895000Y-83185000D03*
X175895000Y-85725000D03*
D11*
X175895000Y-88265000D03*
D12*
X175895000Y-78105000D03*
X175895000Y-75565000D03*
X175895000Y-73025000D03*
X175895000Y-70485000D03*
X183515000Y-80645000D03*
X183515000Y-83185000D03*
X183515000Y-85725000D03*
D11*
X183515000Y-88265000D03*
D12*
X183515000Y-78105000D03*
X183515000Y-75565000D03*
X183515000Y-73025000D03*
X183515000Y-70485000D03*
D11*
X233045000Y-93345000D03*
D12*
X233045000Y-90805000D03*
X233045000Y-88265000D03*
X233045000Y-85725000D03*
D14*
X236220000Y-68580000D03*
X132080000Y-121920000D03*
X236220000Y-121920000D03*
D15*
X158115000Y-121285000D02*
X231140000Y-121285000D01*
X231775000Y-90805000D02*
X233045000Y-90805000D01*
X230505000Y-89535000D02*
X231775000Y-90805000D01*
X230505000Y-85725000D02*
X230505000Y-89535000D01*
X232410000Y-83820000D02*
X230505000Y-85725000D01*
X234315000Y-83820000D02*
X232410000Y-83820000D01*
X237490000Y-86995000D02*
X234315000Y-83820000D01*
X237490000Y-114935000D02*
X237490000Y-86995000D01*
X231140000Y-121285000D02*
X237490000Y-114935000D01*
X147320000Y-111760000D02*
X145415000Y-111760000D01*
X158115000Y-121285000D02*
X160020000Y-119380000D01*
X146685000Y-121285000D02*
X158115000Y-121285000D01*
X144780000Y-119380000D02*
X146685000Y-121285000D01*
X144780000Y-112395000D02*
X144780000Y-119380000D01*
X145415000Y-111760000D02*
X144780000Y-112395000D01*
X222250000Y-85725000D02*
X217170000Y-85725000D01*
X217170000Y-85725000D02*
X214630000Y-83185000D01*
X214630000Y-83185000D02*
X213360000Y-83185000D01*
X203835000Y-99695000D02*
X203835000Y-97790000D01*
X209550000Y-83947000D02*
X211836000Y-81661000D01*
X209550000Y-92075000D02*
X209550000Y-83947000D01*
X203835000Y-97790000D02*
X209550000Y-92075000D01*
X183515000Y-97155000D02*
X185420000Y-97155000D01*
X198501000Y-88265000D02*
X200406000Y-90170000D01*
X190500000Y-88265000D02*
X198501000Y-88265000D01*
X187960000Y-90805000D02*
X190500000Y-88265000D01*
X187960000Y-94615000D02*
X187960000Y-90805000D01*
X185420000Y-97155000D02*
X187960000Y-94615000D01*
X200406000Y-90170000D02*
X201930000Y-90170000D01*
X201930000Y-90170000D02*
X202565000Y-90805000D01*
X202565000Y-90805000D02*
X202565000Y-98425000D01*
X202565000Y-98425000D02*
X203835000Y-99695000D01*
X203835000Y-99695000D02*
X206375000Y-102235000D01*
X206375000Y-102235000D02*
X217170000Y-102235000D01*
X222250000Y-102235000D02*
X231775000Y-102235000D01*
X231775000Y-102235000D02*
X236220000Y-97790000D01*
X165100000Y-119380000D02*
X231775000Y-119380000D01*
X231775000Y-119380000D02*
X236220000Y-114935000D01*
X236220000Y-114935000D02*
X236220000Y-97790000D01*
X234950000Y-85725000D02*
X233045000Y-85725000D01*
X236220000Y-97790000D02*
X236220000Y-86995000D01*
X236220000Y-86995000D02*
X234950000Y-85725000D01*
X213360000Y-75565000D02*
X212979000Y-75565000D01*
X212979000Y-75565000D02*
X211836000Y-76708000D01*
X211836000Y-76708000D02*
X211836000Y-81661000D01*
X211836000Y-81661000D02*
X213360000Y-83185000D01*
X213360000Y-83185000D02*
X213741000Y-83185000D01*
X154940000Y-119380000D02*
X157480000Y-119380000D01*
X165100000Y-119380000D02*
X165100000Y-118872000D01*
X165100000Y-118872000D02*
X163576000Y-117348000D01*
X163576000Y-117348000D02*
X159512000Y-117348000D01*
X159512000Y-117348000D02*
X157480000Y-119380000D01*
X217170000Y-102235000D02*
X222250000Y-102235000D01*
X137795000Y-97155000D02*
X145415000Y-97155000D01*
X145415000Y-97155000D02*
X153035000Y-97155000D01*
X153035000Y-97155000D02*
X160655000Y-97155000D01*
X160655000Y-97155000D02*
X168275000Y-97155000D01*
X168275000Y-97155000D02*
X175895000Y-97155000D01*
X175895000Y-97155000D02*
X183515000Y-97155000D01*
X231140000Y-113792000D02*
X231140000Y-113157000D01*
X231140000Y-113157000D02*
X233299000Y-110998000D01*
X233299000Y-110998000D02*
X233299000Y-108839000D01*
X233299000Y-108839000D02*
X230505000Y-106045000D01*
X230505000Y-106045000D02*
X202438000Y-106045000D01*
X202438000Y-106045000D02*
X190373000Y-93980000D01*
X190373000Y-93980000D02*
X190373000Y-92583000D01*
X190373000Y-92583000D02*
X192786000Y-90170000D01*
X228600000Y-113792000D02*
X228600000Y-114808000D01*
X195326000Y-97282000D02*
X195326000Y-92710000D01*
X203200000Y-105156000D02*
X195326000Y-97282000D01*
X230886000Y-105156000D02*
X203200000Y-105156000D01*
X234188000Y-108458000D02*
X230886000Y-105156000D01*
X234188000Y-114173000D02*
X234188000Y-108458000D01*
X232664000Y-115697000D02*
X234188000Y-114173000D01*
X229489000Y-115697000D02*
X232664000Y-115697000D01*
X228600000Y-114808000D02*
X229489000Y-115697000D01*
X197866000Y-92710000D02*
X197866000Y-98552000D01*
X226060000Y-115316000D02*
X226060000Y-113792000D01*
X227330000Y-116586000D02*
X226060000Y-115316000D01*
X233172000Y-116586000D02*
X227330000Y-116586000D01*
X235077000Y-114681000D02*
X233172000Y-116586000D01*
X235077000Y-108077000D02*
X235077000Y-114681000D01*
X231267000Y-104267000D02*
X235077000Y-108077000D01*
X203581000Y-104267000D02*
X231267000Y-104267000D01*
X197866000Y-98552000D02*
X203581000Y-104267000D01*
X211772500Y-106997500D02*
X230187500Y-106997500D01*
X230187500Y-106997500D02*
X230759000Y-107569000D01*
X209550000Y-109855000D02*
X209550000Y-109220000D01*
X209550000Y-109220000D02*
X211772500Y-106997500D01*
X230759000Y-107569000D02*
X232410000Y-109220000D01*
X232410000Y-109220000D02*
X232410000Y-110490000D01*
X232410000Y-110490000D02*
X231140000Y-111760000D01*
X231140000Y-111760000D02*
X223012000Y-111760000D01*
X223012000Y-111760000D02*
X220980000Y-113792000D01*
X226695000Y-109855000D02*
X219837000Y-109855000D01*
X218440000Y-111252000D02*
X218440000Y-113792000D01*
X219837000Y-109855000D02*
X218440000Y-111252000D01*
X213360000Y-109855000D02*
X215011000Y-109855000D01*
X215900000Y-110744000D02*
X215900000Y-113792000D01*
X215011000Y-109855000D02*
X215900000Y-110744000D01*
X230632000Y-109728000D02*
X230378000Y-109728000D01*
X230378000Y-109728000D02*
X228600000Y-107950000D01*
X228600000Y-107950000D02*
X212725000Y-107950000D01*
X212725000Y-107950000D02*
X211455000Y-109220000D01*
X211455000Y-109220000D02*
X211455000Y-111887000D01*
X211455000Y-111887000D02*
X213360000Y-113792000D01*
X210820000Y-113792000D02*
X210820000Y-114300000D01*
X210820000Y-114300000D02*
X208661000Y-116459000D01*
X208661000Y-116459000D02*
X153289000Y-116459000D01*
X153289000Y-116459000D02*
X152400000Y-117348000D01*
X152400000Y-117348000D02*
X152400000Y-119380000D01*
X208280000Y-113792000D02*
X208280000Y-114300000D01*
X208280000Y-114300000D02*
X207010000Y-115570000D01*
X207010000Y-115570000D02*
X151130000Y-115570000D01*
X151130000Y-115570000D02*
X149860000Y-116840000D01*
X149860000Y-116840000D02*
X149860000Y-119380000D01*
X205740000Y-113792000D02*
X149733000Y-113792000D01*
X147320000Y-116205000D02*
X147320000Y-119380000D01*
X149733000Y-113792000D02*
X147320000Y-116205000D01*
X230632000Y-99568000D02*
X230378000Y-99568000D01*
X217170000Y-75565000D02*
X222250000Y-80645000D01*
X213360000Y-78105000D02*
X215900000Y-75565000D01*
X215900000Y-75565000D02*
X217170000Y-75565000D01*
X217170000Y-99695000D02*
X213360000Y-99695000D01*
X217170000Y-93345000D02*
X217170000Y-97155000D01*
X217170000Y-93345000D02*
X213360000Y-93345000D01*
X222250000Y-99695000D02*
X226695000Y-99695000D01*
X217170000Y-90805000D02*
X219837000Y-90805000D01*
X222250000Y-93218000D02*
X222250000Y-97155000D01*
X219837000Y-90805000D02*
X222250000Y-93218000D01*
X217170000Y-90805000D02*
X213360000Y-90805000D01*
X217170000Y-78105000D02*
X217170000Y-80645000D01*
X217170000Y-80645000D02*
X213360000Y-80645000D01*
X137795000Y-94615000D02*
X134620000Y-94615000D01*
X137795000Y-88265000D02*
X137795000Y-92075000D01*
X145415000Y-94615000D02*
X142240000Y-94615000D01*
X145415000Y-92075000D02*
X145415000Y-88265000D01*
X153035000Y-94615000D02*
X149860000Y-94615000D01*
X153035000Y-88265000D02*
X153035000Y-92075000D01*
X160655000Y-94615000D02*
X157480000Y-94615000D01*
X160655000Y-92075000D02*
X160655000Y-88265000D01*
X168275000Y-94615000D02*
X165100000Y-94615000D01*
X168275000Y-88265000D02*
X168275000Y-92075000D01*
X175895000Y-94615000D02*
X172720000Y-94615000D01*
X175895000Y-92075000D02*
X175895000Y-88265000D01*
X183515000Y-94615000D02*
X180340000Y-94615000D01*
X183515000Y-88265000D02*
X183515000Y-92075000D01*
X227330000Y-78105000D02*
X227330000Y-90805000D01*
X213360000Y-88265000D02*
X224790000Y-88265000D01*
X224790000Y-88265000D02*
X227330000Y-90805000D01*
X227330000Y-75565000D02*
X227330000Y-78105000D01*
X233045000Y-93345000D02*
X227330000Y-93345000D01*
X213360000Y-85725000D02*
X213360000Y-88265000D01*
X227330000Y-90805000D02*
X227330000Y-93345000D01*
X198755000Y-85725000D02*
X205740000Y-85725000D01*
X188595000Y-85725000D02*
X183515000Y-85725000D01*
X183515000Y-85725000D02*
X175895000Y-85725000D01*
X175895000Y-85725000D02*
X168275000Y-85725000D01*
X168275000Y-85725000D02*
X160655000Y-85725000D01*
X160655000Y-85725000D02*
X153035000Y-85725000D01*
X153035000Y-85725000D02*
X145415000Y-85725000D01*
X145415000Y-85725000D02*
X137795000Y-85725000D01*
X205740000Y-83185000D02*
X198755000Y-83185000D01*
X137795000Y-83185000D02*
X145415000Y-83185000D01*
X145415000Y-83185000D02*
X153035000Y-83185000D01*
X153035000Y-83185000D02*
X160655000Y-83185000D01*
X160655000Y-83185000D02*
X168275000Y-83185000D01*
X168275000Y-83185000D02*
X175895000Y-83185000D01*
X175895000Y-83185000D02*
X183515000Y-83185000D01*
X183515000Y-83185000D02*
X188595000Y-83185000D01*
X198755000Y-80645000D02*
X205740000Y-80645000D01*
X188595000Y-80645000D02*
X183515000Y-80645000D01*
X183515000Y-80645000D02*
X175895000Y-80645000D01*
X175895000Y-80645000D02*
X168275000Y-80645000D01*
X168275000Y-80645000D02*
X160655000Y-80645000D01*
X160655000Y-80645000D02*
X153035000Y-80645000D01*
X153035000Y-80645000D02*
X145415000Y-80645000D01*
X145415000Y-80645000D02*
X137795000Y-80645000D01*
X205740000Y-78105000D02*
X198755000Y-78105000D01*
X137795000Y-78105000D02*
X145415000Y-78105000D01*
X145415000Y-78105000D02*
X153035000Y-78105000D01*
X153035000Y-78105000D02*
X160655000Y-78105000D01*
X160655000Y-78105000D02*
X168275000Y-78105000D01*
X168275000Y-78105000D02*
X175895000Y-78105000D01*
X175895000Y-78105000D02*
X183515000Y-78105000D01*
X183515000Y-78105000D02*
X188595000Y-78105000D01*
X198755000Y-75565000D02*
X205740000Y-75565000D01*
X188595000Y-75565000D02*
X183515000Y-75565000D01*
X183515000Y-75565000D02*
X175895000Y-75565000D01*
X175895000Y-75565000D02*
X168275000Y-75565000D01*
X168275000Y-75565000D02*
X160655000Y-75565000D01*
X160655000Y-75565000D02*
X153035000Y-75565000D01*
X153035000Y-75565000D02*
X145415000Y-75565000D01*
X145415000Y-75565000D02*
X137795000Y-75565000D01*
X205740000Y-90805000D02*
X205867000Y-90805000D01*
X205867000Y-90805000D02*
X207264000Y-89408000D01*
X207264000Y-89408000D02*
X207264000Y-74676000D01*
X207264000Y-74676000D02*
X205613000Y-73025000D01*
X205613000Y-73025000D02*
X198755000Y-73025000D01*
X137795000Y-73025000D02*
X145415000Y-73025000D01*
X145415000Y-73025000D02*
X153035000Y-73025000D01*
X153035000Y-73025000D02*
X160655000Y-73025000D01*
X160655000Y-73025000D02*
X168275000Y-73025000D01*
X168275000Y-73025000D02*
X175895000Y-73025000D01*
X175895000Y-73025000D02*
X183515000Y-73025000D01*
X183515000Y-73025000D02*
X188595000Y-73025000D01*
X198755000Y-70485000D02*
X204597000Y-70485000D01*
X208280000Y-90805000D02*
X205740000Y-93345000D01*
X208280000Y-74168000D02*
X208280000Y-90805000D01*
X204597000Y-70485000D02*
X208280000Y-74168000D01*
X137795000Y-70485000D02*
X145415000Y-70485000D01*
X145415000Y-70485000D02*
X153035000Y-70485000D01*
X153035000Y-70485000D02*
X160655000Y-70485000D01*
X160655000Y-70485000D02*
X168275000Y-70485000D01*
X168275000Y-70485000D02*
X175895000Y-70485000D01*
X175895000Y-70485000D02*
X183515000Y-70485000D01*
X183515000Y-70485000D02*
X188595000Y-70485000D01*
X149860000Y-111760000D02*
X146304000Y-108204000D01*
X138049000Y-108204000D02*
X134620000Y-104775000D01*
X146304000Y-108204000D02*
X138049000Y-108204000D01*
X152400000Y-111760000D02*
X145288000Y-104648000D01*
X145288000Y-104648000D02*
X142367000Y-104648000D01*
X142367000Y-104648000D02*
X142240000Y-104775000D01*
X154940000Y-111760000D02*
X154940000Y-109855000D01*
X154940000Y-109855000D02*
X149860000Y-104775000D01*
X157480000Y-104775000D02*
X157480000Y-111760000D01*
X160020000Y-111760000D02*
X160020000Y-109855000D01*
X160020000Y-109855000D02*
X165100000Y-104775000D01*
X172720000Y-104775000D02*
X169545000Y-104775000D01*
X169545000Y-104775000D02*
X162560000Y-111760000D01*
X165100000Y-111760000D02*
X173355000Y-111760000D01*
X173355000Y-111760000D02*
X180340000Y-104775000D01*
M02*
