%FSLAX45Y45*%
G04 Gerber Fmt 4.5, Leading zero omitted, Abs format (unit mm)*
G04 Created by KiCad (PCBNEW 4.0.1-stable) date 12/26/16 02:16:39*
%MOMM*%
G01*
G04 APERTURE LIST*
%ADD10C,0.127000*%
%ADD11C,0.150000*%
%ADD12C,0.200000*%
%ADD13C,0.300000*%
G04 APERTURE END LIST*
D10*
D11*
X12750000Y-12500000D02*
X24000000Y-12500000D01*
X12750000Y-6500000D02*
X12750000Y-12500000D01*
X24000000Y-6500000D02*
X24000000Y-12500000D01*
X12750000Y-6500000D02*
X24000000Y-6500000D01*
D12*
X13427000Y-9426500D02*
X13497000Y-9496500D01*
X13497000Y-9426500D02*
X13427000Y-9496500D01*
X13427000Y-10442500D02*
X13497000Y-10512500D01*
X13497000Y-10442500D02*
X13427000Y-10512500D01*
X13744500Y-9172500D02*
X13814500Y-9242500D01*
X13814500Y-9172500D02*
X13744500Y-9242500D01*
X13744500Y-9426500D02*
X13814500Y-9496500D01*
X13814500Y-9426500D02*
X13744500Y-9496500D01*
X13744500Y-9680500D02*
X13814500Y-9750500D01*
X13814500Y-9680500D02*
X13744500Y-9750500D01*
X14189000Y-9426500D02*
X14259000Y-9496500D01*
X14259000Y-9426500D02*
X14189000Y-9496500D01*
X14189000Y-10442500D02*
X14259000Y-10512500D01*
X14259000Y-10442500D02*
X14189000Y-10512500D01*
X14506500Y-9172500D02*
X14576500Y-9242500D01*
X14576500Y-9172500D02*
X14506500Y-9242500D01*
X14506500Y-9426500D02*
X14576500Y-9496500D01*
X14576500Y-9426500D02*
X14506500Y-9496500D01*
X14506500Y-9680500D02*
X14576500Y-9750500D01*
X14576500Y-9680500D02*
X14506500Y-9750500D01*
X14697000Y-11141000D02*
X14767000Y-11211000D01*
X14767000Y-11141000D02*
X14697000Y-11211000D01*
X14697000Y-11903000D02*
X14767000Y-11973000D01*
X14767000Y-11903000D02*
X14697000Y-11973000D01*
X14951000Y-9426500D02*
X15021000Y-9496500D01*
X15021000Y-9426500D02*
X14951000Y-9496500D01*
X14951000Y-10442500D02*
X15021000Y-10512500D01*
X15021000Y-10442500D02*
X14951000Y-10512500D01*
X14951000Y-11141000D02*
X15021000Y-11211000D01*
X15021000Y-11141000D02*
X14951000Y-11211000D01*
X14951000Y-11903000D02*
X15021000Y-11973000D01*
X15021000Y-11903000D02*
X14951000Y-11973000D01*
X15205000Y-11141000D02*
X15275000Y-11211000D01*
X15275000Y-11141000D02*
X15205000Y-11211000D01*
X15205000Y-11903000D02*
X15275000Y-11973000D01*
X15275000Y-11903000D02*
X15205000Y-11973000D01*
X15268500Y-9172500D02*
X15338500Y-9242500D01*
X15338500Y-9172500D02*
X15268500Y-9242500D01*
X15268500Y-9426500D02*
X15338500Y-9496500D01*
X15338500Y-9426500D02*
X15268500Y-9496500D01*
X15268500Y-9680500D02*
X15338500Y-9750500D01*
X15338500Y-9680500D02*
X15268500Y-9750500D01*
X15459000Y-11141000D02*
X15529000Y-11211000D01*
X15529000Y-11141000D02*
X15459000Y-11211000D01*
X15459000Y-11903000D02*
X15529000Y-11973000D01*
X15529000Y-11903000D02*
X15459000Y-11973000D01*
X15713000Y-9426500D02*
X15783000Y-9496500D01*
X15783000Y-9426500D02*
X15713000Y-9496500D01*
X15713000Y-10442500D02*
X15783000Y-10512500D01*
X15783000Y-10442500D02*
X15713000Y-10512500D01*
X15713000Y-11141000D02*
X15783000Y-11211000D01*
X15783000Y-11141000D02*
X15713000Y-11211000D01*
X15713000Y-11903000D02*
X15783000Y-11973000D01*
X15783000Y-11903000D02*
X15713000Y-11973000D01*
X15967000Y-11141000D02*
X16037000Y-11211000D01*
X16037000Y-11141000D02*
X15967000Y-11211000D01*
X15967000Y-11903000D02*
X16037000Y-11973000D01*
X16037000Y-11903000D02*
X15967000Y-11973000D01*
X16030500Y-9172500D02*
X16100500Y-9242500D01*
X16100500Y-9172500D02*
X16030500Y-9242500D01*
X16030500Y-9426500D02*
X16100500Y-9496500D01*
X16100500Y-9426500D02*
X16030500Y-9496500D01*
X16030500Y-9680500D02*
X16100500Y-9750500D01*
X16100500Y-9680500D02*
X16030500Y-9750500D01*
X16221000Y-11141000D02*
X16291000Y-11211000D01*
X16291000Y-11141000D02*
X16221000Y-11211000D01*
X16221000Y-11903000D02*
X16291000Y-11973000D01*
X16291000Y-11903000D02*
X16221000Y-11973000D01*
X16475000Y-9426500D02*
X16545000Y-9496500D01*
X16545000Y-9426500D02*
X16475000Y-9496500D01*
X16475000Y-10442500D02*
X16545000Y-10512500D01*
X16545000Y-10442500D02*
X16475000Y-10512500D01*
X16475000Y-11141000D02*
X16545000Y-11211000D01*
X16545000Y-11141000D02*
X16475000Y-11211000D01*
X16475000Y-11903000D02*
X16545000Y-11973000D01*
X16545000Y-11903000D02*
X16475000Y-11973000D01*
X16792500Y-9172500D02*
X16862500Y-9242500D01*
X16862500Y-9172500D02*
X16792500Y-9242500D01*
X16792500Y-9426500D02*
X16862500Y-9496500D01*
X16862500Y-9426500D02*
X16792500Y-9496500D01*
X16792500Y-9680500D02*
X16862500Y-9750500D01*
X16862500Y-9680500D02*
X16792500Y-9750500D01*
X17237000Y-9426500D02*
X17307000Y-9496500D01*
X17307000Y-9426500D02*
X17237000Y-9496500D01*
X17237000Y-10442500D02*
X17307000Y-10512500D01*
X17307000Y-10442500D02*
X17237000Y-10512500D01*
X17554500Y-9172500D02*
X17624500Y-9242500D01*
X17624500Y-9172500D02*
X17554500Y-9242500D01*
X17554500Y-9426500D02*
X17624500Y-9496500D01*
X17624500Y-9426500D02*
X17554500Y-9496500D01*
X17554500Y-9680500D02*
X17624500Y-9750500D01*
X17624500Y-9680500D02*
X17554500Y-9750500D01*
X17999000Y-9426500D02*
X18069000Y-9496500D01*
X18069000Y-9426500D02*
X17999000Y-9496500D01*
X17999000Y-10442500D02*
X18069000Y-10512500D01*
X18069000Y-10442500D02*
X17999000Y-10512500D01*
X18316500Y-9172500D02*
X18386500Y-9242500D01*
X18386500Y-9172500D02*
X18316500Y-9242500D01*
X18316500Y-9426500D02*
X18386500Y-9496500D01*
X18386500Y-9426500D02*
X18316500Y-9496500D01*
X18316500Y-9680500D02*
X18386500Y-9750500D01*
X18386500Y-9680500D02*
X18316500Y-9750500D01*
X18824500Y-7013500D02*
X18894500Y-7083500D01*
X18894500Y-7013500D02*
X18824500Y-7083500D01*
X18824500Y-7267500D02*
X18894500Y-7337500D01*
X18894500Y-7267500D02*
X18824500Y-7337500D01*
X18824500Y-7521500D02*
X18894500Y-7591500D01*
X18894500Y-7521500D02*
X18824500Y-7591500D01*
X18824500Y-7775500D02*
X18894500Y-7845500D01*
X18894500Y-7775500D02*
X18824500Y-7845500D01*
X18824500Y-8029500D02*
X18894500Y-8099500D01*
X18894500Y-8029500D02*
X18824500Y-8099500D01*
X18824500Y-8283500D02*
X18894500Y-8353500D01*
X18894500Y-8283500D02*
X18824500Y-8353500D01*
X18824500Y-8537500D02*
X18894500Y-8607500D01*
X18894500Y-8537500D02*
X18824500Y-8607500D01*
X19840500Y-7013500D02*
X19910500Y-7083500D01*
X19910500Y-7013500D02*
X19840500Y-7083500D01*
X19840500Y-7267500D02*
X19910500Y-7337500D01*
X19910500Y-7267500D02*
X19840500Y-7337500D01*
X19840500Y-7521500D02*
X19910500Y-7591500D01*
X19910500Y-7521500D02*
X19840500Y-7591500D01*
X19840500Y-7775500D02*
X19910500Y-7845500D01*
X19910500Y-7775500D02*
X19840500Y-7845500D01*
X19840500Y-8029500D02*
X19910500Y-8099500D01*
X19910500Y-8029500D02*
X19840500Y-8099500D01*
X19840500Y-8283500D02*
X19910500Y-8353500D01*
X19910500Y-8283500D02*
X19840500Y-8353500D01*
X19840500Y-8537500D02*
X19910500Y-8607500D01*
X19910500Y-8537500D02*
X19840500Y-8607500D01*
X20539000Y-7521500D02*
X20609000Y-7591500D01*
X20609000Y-7521500D02*
X20539000Y-7591500D01*
X20539000Y-7775500D02*
X20609000Y-7845500D01*
X20609000Y-7775500D02*
X20539000Y-7845500D01*
X20539000Y-8029500D02*
X20609000Y-8099500D01*
X20609000Y-8029500D02*
X20539000Y-8099500D01*
X20539000Y-8283500D02*
X20609000Y-8353500D01*
X20609000Y-8283500D02*
X20539000Y-8353500D01*
X20539000Y-8537500D02*
X20609000Y-8607500D01*
X20609000Y-8537500D02*
X20539000Y-8607500D01*
X20539000Y-8791500D02*
X20609000Y-8861500D01*
X20609000Y-8791500D02*
X20539000Y-8861500D01*
X20539000Y-9045500D02*
X20609000Y-9115500D01*
X20609000Y-9045500D02*
X20539000Y-9115500D01*
X20539000Y-9299500D02*
X20609000Y-9369500D01*
X20609000Y-9299500D02*
X20539000Y-9369500D01*
X20920000Y-9934500D02*
X20990000Y-10004500D01*
X20990000Y-9934500D02*
X20920000Y-10004500D01*
X20920000Y-10950500D02*
X20990000Y-11020500D01*
X20990000Y-10950500D02*
X20920000Y-11020500D01*
X21301000Y-7521500D02*
X21371000Y-7591500D01*
X21371000Y-7521500D02*
X21301000Y-7591500D01*
X21301000Y-7775500D02*
X21371000Y-7845500D01*
X21371000Y-7775500D02*
X21301000Y-7845500D01*
X21301000Y-8029500D02*
X21371000Y-8099500D01*
X21371000Y-8029500D02*
X21301000Y-8099500D01*
X21301000Y-8283500D02*
X21371000Y-8353500D01*
X21371000Y-8283500D02*
X21301000Y-8353500D01*
X21301000Y-8537500D02*
X21371000Y-8607500D01*
X21371000Y-8537500D02*
X21301000Y-8607500D01*
X21301000Y-8791500D02*
X21371000Y-8861500D01*
X21371000Y-8791500D02*
X21301000Y-8861500D01*
X21301000Y-9045500D02*
X21371000Y-9115500D01*
X21371000Y-9045500D02*
X21301000Y-9115500D01*
X21301000Y-9299500D02*
X21371000Y-9369500D01*
X21371000Y-9299500D02*
X21301000Y-9369500D01*
X21301000Y-9934500D02*
X21371000Y-10004500D01*
X21371000Y-9934500D02*
X21301000Y-10004500D01*
X21301000Y-10950500D02*
X21371000Y-11020500D01*
X21371000Y-10950500D02*
X21301000Y-11020500D01*
X21682000Y-7521500D02*
X21752000Y-7591500D01*
X21752000Y-7521500D02*
X21682000Y-7591500D01*
X21682000Y-7775500D02*
X21752000Y-7845500D01*
X21752000Y-7775500D02*
X21682000Y-7845500D01*
X21682000Y-8029500D02*
X21752000Y-8099500D01*
X21752000Y-8029500D02*
X21682000Y-8099500D01*
X21682000Y-8283500D02*
X21752000Y-8353500D01*
X21752000Y-8283500D02*
X21682000Y-8353500D01*
X21682000Y-8537500D02*
X21752000Y-8607500D01*
X21752000Y-8537500D02*
X21682000Y-8607500D01*
X21682000Y-9045500D02*
X21752000Y-9115500D01*
X21752000Y-9045500D02*
X21682000Y-9115500D01*
X21682000Y-9299500D02*
X21752000Y-9369500D01*
X21752000Y-9299500D02*
X21682000Y-9369500D01*
X21682000Y-9680500D02*
X21752000Y-9750500D01*
X21752000Y-9680500D02*
X21682000Y-9750500D01*
X21682000Y-9934500D02*
X21752000Y-10004500D01*
X21752000Y-9934500D02*
X21682000Y-10004500D01*
X21682000Y-10188500D02*
X21752000Y-10258500D01*
X21752000Y-10188500D02*
X21682000Y-10258500D01*
X22190000Y-8029500D02*
X22260000Y-8099500D01*
X22260000Y-8029500D02*
X22190000Y-8099500D01*
X22190000Y-8283500D02*
X22260000Y-8353500D01*
X22260000Y-8283500D02*
X22190000Y-8353500D01*
X22190000Y-8537500D02*
X22260000Y-8607500D01*
X22260000Y-8537500D02*
X22190000Y-8607500D01*
X22190000Y-9680500D02*
X22260000Y-9750500D01*
X22260000Y-9680500D02*
X22190000Y-9750500D01*
X22190000Y-9934500D02*
X22260000Y-10004500D01*
X22260000Y-9934500D02*
X22190000Y-10004500D01*
X22190000Y-10188500D02*
X22260000Y-10258500D01*
X22260000Y-10188500D02*
X22190000Y-10258500D01*
X22634500Y-9934500D02*
X22704500Y-10004500D01*
X22704500Y-9934500D02*
X22634500Y-10004500D01*
X22634500Y-10950500D02*
X22704500Y-11020500D01*
X22704500Y-10950500D02*
X22634500Y-11020500D01*
X22698000Y-7521500D02*
X22768000Y-7591500D01*
X22768000Y-7521500D02*
X22698000Y-7591500D01*
X22698000Y-7775500D02*
X22768000Y-7845500D01*
X22768000Y-7775500D02*
X22698000Y-7845500D01*
X22698000Y-9045500D02*
X22768000Y-9115500D01*
X22768000Y-9045500D02*
X22698000Y-9115500D01*
X22698000Y-9299500D02*
X22768000Y-9369500D01*
X22768000Y-9299500D02*
X22698000Y-9369500D01*
X23028200Y-9921800D02*
X23098200Y-9991800D01*
X23098200Y-9921800D02*
X23028200Y-9991800D01*
X23028200Y-10937800D02*
X23098200Y-11007800D01*
X23098200Y-10937800D02*
X23028200Y-11007800D01*
X13829500Y-7048500D02*
G75*
G03X13829500Y-7048500I-50000J0D01*
G01*
X13829500Y-7302500D02*
G75*
G03X13829500Y-7302500I-50000J0D01*
G01*
X13829500Y-7556500D02*
G75*
G03X13829500Y-7556500I-50000J0D01*
G01*
X13829500Y-7810500D02*
G75*
G03X13829500Y-7810500I-50000J0D01*
G01*
X13829500Y-8064500D02*
G75*
G03X13829500Y-8064500I-50000J0D01*
G01*
X13829500Y-8318500D02*
G75*
G03X13829500Y-8318500I-50000J0D01*
G01*
X13829500Y-8572500D02*
G75*
G03X13829500Y-8572500I-50000J0D01*
G01*
X13829500Y-8826500D02*
G75*
G03X13829500Y-8826500I-50000J0D01*
G01*
X14591500Y-7048500D02*
G75*
G03X14591500Y-7048500I-50000J0D01*
G01*
X14591500Y-7302500D02*
G75*
G03X14591500Y-7302500I-50000J0D01*
G01*
X14591500Y-7556500D02*
G75*
G03X14591500Y-7556500I-50000J0D01*
G01*
X14591500Y-7810500D02*
G75*
G03X14591500Y-7810500I-50000J0D01*
G01*
X14591500Y-8064500D02*
G75*
G03X14591500Y-8064500I-50000J0D01*
G01*
X14591500Y-8318500D02*
G75*
G03X14591500Y-8318500I-50000J0D01*
G01*
X14591500Y-8572500D02*
G75*
G03X14591500Y-8572500I-50000J0D01*
G01*
X14591500Y-8826500D02*
G75*
G03X14591500Y-8826500I-50000J0D01*
G01*
X15353500Y-7048500D02*
G75*
G03X15353500Y-7048500I-50000J0D01*
G01*
X15353500Y-7302500D02*
G75*
G03X15353500Y-7302500I-50000J0D01*
G01*
X15353500Y-7556500D02*
G75*
G03X15353500Y-7556500I-50000J0D01*
G01*
X15353500Y-7810500D02*
G75*
G03X15353500Y-7810500I-50000J0D01*
G01*
X15353500Y-8064500D02*
G75*
G03X15353500Y-8064500I-50000J0D01*
G01*
X15353500Y-8318500D02*
G75*
G03X15353500Y-8318500I-50000J0D01*
G01*
X15353500Y-8572500D02*
G75*
G03X15353500Y-8572500I-50000J0D01*
G01*
X15353500Y-8826500D02*
G75*
G03X15353500Y-8826500I-50000J0D01*
G01*
X16115500Y-7048500D02*
G75*
G03X16115500Y-7048500I-50000J0D01*
G01*
X16115500Y-7302500D02*
G75*
G03X16115500Y-7302500I-50000J0D01*
G01*
X16115500Y-7556500D02*
G75*
G03X16115500Y-7556500I-50000J0D01*
G01*
X16115500Y-7810500D02*
G75*
G03X16115500Y-7810500I-50000J0D01*
G01*
X16115500Y-8064500D02*
G75*
G03X16115500Y-8064500I-50000J0D01*
G01*
X16115500Y-8318500D02*
G75*
G03X16115500Y-8318500I-50000J0D01*
G01*
X16115500Y-8572500D02*
G75*
G03X16115500Y-8572500I-50000J0D01*
G01*
X16115500Y-8826500D02*
G75*
G03X16115500Y-8826500I-50000J0D01*
G01*
X16877500Y-7048500D02*
G75*
G03X16877500Y-7048500I-50000J0D01*
G01*
X16877500Y-7302500D02*
G75*
G03X16877500Y-7302500I-50000J0D01*
G01*
X16877500Y-7556500D02*
G75*
G03X16877500Y-7556500I-50000J0D01*
G01*
X16877500Y-7810500D02*
G75*
G03X16877500Y-7810500I-50000J0D01*
G01*
X16877500Y-8064500D02*
G75*
G03X16877500Y-8064500I-50000J0D01*
G01*
X16877500Y-8318500D02*
G75*
G03X16877500Y-8318500I-50000J0D01*
G01*
X16877500Y-8572500D02*
G75*
G03X16877500Y-8572500I-50000J0D01*
G01*
X16877500Y-8826500D02*
G75*
G03X16877500Y-8826500I-50000J0D01*
G01*
X17639500Y-7048500D02*
G75*
G03X17639500Y-7048500I-50000J0D01*
G01*
X17639500Y-7302500D02*
G75*
G03X17639500Y-7302500I-50000J0D01*
G01*
X17639500Y-7556500D02*
G75*
G03X17639500Y-7556500I-50000J0D01*
G01*
X17639500Y-7810500D02*
G75*
G03X17639500Y-7810500I-50000J0D01*
G01*
X17639500Y-8064500D02*
G75*
G03X17639500Y-8064500I-50000J0D01*
G01*
X17639500Y-8318500D02*
G75*
G03X17639500Y-8318500I-50000J0D01*
G01*
X17639500Y-8572500D02*
G75*
G03X17639500Y-8572500I-50000J0D01*
G01*
X17639500Y-8826500D02*
G75*
G03X17639500Y-8826500I-50000J0D01*
G01*
X18401500Y-7048500D02*
G75*
G03X18401500Y-7048500I-50000J0D01*
G01*
X18401500Y-7302500D02*
G75*
G03X18401500Y-7302500I-50000J0D01*
G01*
X18401500Y-7556500D02*
G75*
G03X18401500Y-7556500I-50000J0D01*
G01*
X18401500Y-7810500D02*
G75*
G03X18401500Y-7810500I-50000J0D01*
G01*
X18401500Y-8064500D02*
G75*
G03X18401500Y-8064500I-50000J0D01*
G01*
X18401500Y-8318500D02*
G75*
G03X18401500Y-8318500I-50000J0D01*
G01*
X18401500Y-8572500D02*
G75*
G03X18401500Y-8572500I-50000J0D01*
G01*
X18401500Y-8826500D02*
G75*
G03X18401500Y-8826500I-50000J0D01*
G01*
X19328600Y-9017000D02*
G75*
G03X19328600Y-9017000I-50000J0D01*
G01*
X19328600Y-9271000D02*
G75*
G03X19328600Y-9271000I-50000J0D01*
G01*
X19582600Y-9017000D02*
G75*
G03X19582600Y-9017000I-50000J0D01*
G01*
X19582600Y-9271000D02*
G75*
G03X19582600Y-9271000I-50000J0D01*
G01*
X19836600Y-9017000D02*
G75*
G03X19836600Y-9017000I-50000J0D01*
G01*
X19836600Y-9271000D02*
G75*
G03X19836600Y-9271000I-50000J0D01*
G01*
X20090600Y-9017000D02*
G75*
G03X20090600Y-9017000I-50000J0D01*
G01*
X20090600Y-9271000D02*
G75*
G03X20090600Y-9271000I-50000J0D01*
G01*
X20624000Y-11379200D02*
G75*
G03X20624000Y-11379200I-50000J0D01*
G01*
X20878000Y-11379200D02*
G75*
G03X20878000Y-11379200I-50000J0D01*
G01*
X21132000Y-11379200D02*
G75*
G03X21132000Y-11379200I-50000J0D01*
G01*
X21386000Y-11379200D02*
G75*
G03X21386000Y-11379200I-50000J0D01*
G01*
X21640000Y-11379200D02*
G75*
G03X21640000Y-11379200I-50000J0D01*
G01*
X21894000Y-11379200D02*
G75*
G03X21894000Y-11379200I-50000J0D01*
G01*
X22148000Y-11379200D02*
G75*
G03X22148000Y-11379200I-50000J0D01*
G01*
X22402000Y-11379200D02*
G75*
G03X22402000Y-11379200I-50000J0D01*
G01*
X22656000Y-11379200D02*
G75*
G03X22656000Y-11379200I-50000J0D01*
G01*
X22910000Y-11379200D02*
G75*
G03X22910000Y-11379200I-50000J0D01*
G01*
X23164000Y-11379200D02*
G75*
G03X23164000Y-11379200I-50000J0D01*
G01*
X23354500Y-8572500D02*
G75*
G03X23354500Y-8572500I-50000J0D01*
G01*
X23354500Y-8826500D02*
G75*
G03X23354500Y-8826500I-50000J0D01*
G01*
X23354500Y-9080500D02*
G75*
G03X23354500Y-9080500I-50000J0D01*
G01*
X23354500Y-9334500D02*
G75*
G03X23354500Y-9334500I-50000J0D01*
G01*
X13208000Y-12032000D02*
X13208000Y-12352000D01*
X13048000Y-12192000D02*
X13368000Y-12192000D01*
X23622000Y-6698000D02*
X23622000Y-7018000D01*
X23462000Y-6858000D02*
X23782000Y-6858000D01*
X23622000Y-12032000D02*
X23622000Y-12352000D01*
X23462000Y-12192000D02*
X23782000Y-12192000D01*
D13*
X13013928Y-12973214D02*
X13013928Y-12673214D01*
X13085357Y-12673214D01*
X13128214Y-12687500D01*
X13156786Y-12716071D01*
X13171071Y-12744643D01*
X13185357Y-12801786D01*
X13185357Y-12844643D01*
X13171071Y-12901786D01*
X13156786Y-12930357D01*
X13128214Y-12958929D01*
X13085357Y-12973214D01*
X13013928Y-12973214D01*
X13313928Y-12973214D02*
X13313928Y-12773214D01*
X13313928Y-12830357D02*
X13328214Y-12801786D01*
X13342500Y-12787500D01*
X13371071Y-12773214D01*
X13399643Y-12773214D01*
X13499643Y-12973214D02*
X13499643Y-12773214D01*
X13499643Y-12673214D02*
X13485357Y-12687500D01*
X13499643Y-12701786D01*
X13513928Y-12687500D01*
X13499643Y-12673214D01*
X13499643Y-12701786D01*
X13685357Y-12973214D02*
X13656786Y-12958929D01*
X13642500Y-12930357D01*
X13642500Y-12673214D01*
X13842500Y-12973214D02*
X13813928Y-12958929D01*
X13799643Y-12930357D01*
X13799643Y-12673214D01*
X14185357Y-12973214D02*
X14185357Y-12673214D01*
X14285357Y-12887500D01*
X14385357Y-12673214D01*
X14385357Y-12973214D01*
X14656786Y-12973214D02*
X14656786Y-12816071D01*
X14642500Y-12787500D01*
X14613928Y-12773214D01*
X14556786Y-12773214D01*
X14528214Y-12787500D01*
X14656786Y-12958929D02*
X14628214Y-12973214D01*
X14556786Y-12973214D01*
X14528214Y-12958929D01*
X14513928Y-12930357D01*
X14513928Y-12901786D01*
X14528214Y-12873214D01*
X14556786Y-12858929D01*
X14628214Y-12858929D01*
X14656786Y-12844643D01*
X14799643Y-12773214D02*
X14799643Y-13073214D01*
X14799643Y-12787500D02*
X14828214Y-12773214D01*
X14885357Y-12773214D01*
X14913928Y-12787500D01*
X14928214Y-12801786D01*
X14942500Y-12830357D01*
X14942500Y-12916071D01*
X14928214Y-12944643D01*
X14913928Y-12958929D01*
X14885357Y-12973214D01*
X14828214Y-12973214D01*
X14799643Y-12958929D01*
X15071071Y-12944643D02*
X15085357Y-12958929D01*
X15071071Y-12973214D01*
X15056786Y-12958929D01*
X15071071Y-12944643D01*
X15071071Y-12973214D01*
X15071071Y-12787500D02*
X15085357Y-12801786D01*
X15071071Y-12816071D01*
X15056786Y-12801786D01*
X15071071Y-12787500D01*
X15071071Y-12816071D01*
X12672500Y-13432500D02*
X12742500Y-13502500D01*
X12742500Y-13432500D02*
X12672500Y-13502500D01*
X13071071Y-13303214D02*
X13099643Y-13303214D01*
X13128214Y-13317500D01*
X13142500Y-13331786D01*
X13156786Y-13360357D01*
X13171071Y-13417500D01*
X13171071Y-13488929D01*
X13156786Y-13546071D01*
X13142500Y-13574643D01*
X13128214Y-13588929D01*
X13099643Y-13603214D01*
X13071071Y-13603214D01*
X13042500Y-13588929D01*
X13028214Y-13574643D01*
X13013928Y-13546071D01*
X12999643Y-13488929D01*
X12999643Y-13417500D01*
X13013928Y-13360357D01*
X13028214Y-13331786D01*
X13042500Y-13317500D01*
X13071071Y-13303214D01*
X13299643Y-13574643D02*
X13313928Y-13588929D01*
X13299643Y-13603214D01*
X13285357Y-13588929D01*
X13299643Y-13574643D01*
X13299643Y-13603214D01*
X13413928Y-13303214D02*
X13613928Y-13303214D01*
X13485357Y-13603214D01*
X13785357Y-13303214D02*
X13813928Y-13303214D01*
X13842500Y-13317500D01*
X13856786Y-13331786D01*
X13871071Y-13360357D01*
X13885357Y-13417500D01*
X13885357Y-13488929D01*
X13871071Y-13546071D01*
X13856786Y-13574643D01*
X13842500Y-13588929D01*
X13813928Y-13603214D01*
X13785357Y-13603214D01*
X13756786Y-13588929D01*
X13742500Y-13574643D01*
X13728214Y-13546071D01*
X13713928Y-13488929D01*
X13713928Y-13417500D01*
X13728214Y-13360357D01*
X13742500Y-13331786D01*
X13756786Y-13317500D01*
X13785357Y-13303214D01*
X14013928Y-13603214D02*
X14013928Y-13403214D01*
X14013928Y-13431786D02*
X14028214Y-13417500D01*
X14056786Y-13403214D01*
X14099643Y-13403214D01*
X14128214Y-13417500D01*
X14142500Y-13446071D01*
X14142500Y-13603214D01*
X14142500Y-13446071D02*
X14156786Y-13417500D01*
X14185357Y-13403214D01*
X14228214Y-13403214D01*
X14256786Y-13417500D01*
X14271071Y-13446071D01*
X14271071Y-13603214D01*
X14413928Y-13603214D02*
X14413928Y-13403214D01*
X14413928Y-13431786D02*
X14428214Y-13417500D01*
X14456786Y-13403214D01*
X14499643Y-13403214D01*
X14528214Y-13417500D01*
X14542500Y-13446071D01*
X14542500Y-13603214D01*
X14542500Y-13446071D02*
X14556786Y-13417500D01*
X14585357Y-13403214D01*
X14628214Y-13403214D01*
X14656786Y-13417500D01*
X14671071Y-13446071D01*
X14671071Y-13603214D01*
X15256786Y-13288929D02*
X14999643Y-13674643D01*
X15642500Y-13303214D02*
X15671071Y-13303214D01*
X15699643Y-13317500D01*
X15713928Y-13331786D01*
X15728214Y-13360357D01*
X15742500Y-13417500D01*
X15742500Y-13488929D01*
X15728214Y-13546071D01*
X15713928Y-13574643D01*
X15699643Y-13588929D01*
X15671071Y-13603214D01*
X15642500Y-13603214D01*
X15613928Y-13588929D01*
X15599643Y-13574643D01*
X15585357Y-13546071D01*
X15571071Y-13488929D01*
X15571071Y-13417500D01*
X15585357Y-13360357D01*
X15599643Y-13331786D01*
X15613928Y-13317500D01*
X15642500Y-13303214D01*
X15871071Y-13574643D02*
X15885357Y-13588929D01*
X15871071Y-13603214D01*
X15856786Y-13588929D01*
X15871071Y-13574643D01*
X15871071Y-13603214D01*
X16071071Y-13303214D02*
X16099643Y-13303214D01*
X16128214Y-13317500D01*
X16142500Y-13331786D01*
X16156785Y-13360357D01*
X16171071Y-13417500D01*
X16171071Y-13488929D01*
X16156785Y-13546071D01*
X16142500Y-13574643D01*
X16128214Y-13588929D01*
X16099643Y-13603214D01*
X16071071Y-13603214D01*
X16042500Y-13588929D01*
X16028214Y-13574643D01*
X16013928Y-13546071D01*
X15999643Y-13488929D01*
X15999643Y-13417500D01*
X16013928Y-13360357D01*
X16028214Y-13331786D01*
X16042500Y-13317500D01*
X16071071Y-13303214D01*
X16285357Y-13331786D02*
X16299643Y-13317500D01*
X16328214Y-13303214D01*
X16399643Y-13303214D01*
X16428214Y-13317500D01*
X16442500Y-13331786D01*
X16456785Y-13360357D01*
X16456785Y-13388929D01*
X16442500Y-13431786D01*
X16271071Y-13603214D01*
X16456785Y-13603214D01*
X16628214Y-13431786D02*
X16599643Y-13417500D01*
X16585357Y-13403214D01*
X16571071Y-13374643D01*
X16571071Y-13360357D01*
X16585357Y-13331786D01*
X16599643Y-13317500D01*
X16628214Y-13303214D01*
X16685357Y-13303214D01*
X16713928Y-13317500D01*
X16728214Y-13331786D01*
X16742500Y-13360357D01*
X16742500Y-13374643D01*
X16728214Y-13403214D01*
X16713928Y-13417500D01*
X16685357Y-13431786D01*
X16628214Y-13431786D01*
X16599643Y-13446071D01*
X16585357Y-13460357D01*
X16571071Y-13488929D01*
X16571071Y-13546071D01*
X16585357Y-13574643D01*
X16599643Y-13588929D01*
X16628214Y-13603214D01*
X16685357Y-13603214D01*
X16713928Y-13588929D01*
X16728214Y-13574643D01*
X16742500Y-13546071D01*
X16742500Y-13488929D01*
X16728214Y-13460357D01*
X16713928Y-13446071D01*
X16685357Y-13431786D01*
X16856786Y-13303214D02*
X16856786Y-13360357D01*
X16971071Y-13303214D02*
X16971071Y-13360357D01*
X17413928Y-13717500D02*
X17399643Y-13703214D01*
X17371071Y-13660357D01*
X17356786Y-13631786D01*
X17342500Y-13588929D01*
X17328214Y-13517500D01*
X17328214Y-13460357D01*
X17342500Y-13388929D01*
X17356786Y-13346071D01*
X17371071Y-13317500D01*
X17399643Y-13274643D01*
X17413928Y-13260357D01*
X17685357Y-13603214D02*
X17513928Y-13603214D01*
X17599643Y-13603214D02*
X17599643Y-13303214D01*
X17571071Y-13346071D01*
X17542500Y-13374643D01*
X17513928Y-13388929D01*
X17871071Y-13303214D02*
X17899643Y-13303214D01*
X17928214Y-13317500D01*
X17942500Y-13331786D01*
X17956786Y-13360357D01*
X17971071Y-13417500D01*
X17971071Y-13488929D01*
X17956786Y-13546071D01*
X17942500Y-13574643D01*
X17928214Y-13588929D01*
X17899643Y-13603214D01*
X17871071Y-13603214D01*
X17842500Y-13588929D01*
X17828214Y-13574643D01*
X17813928Y-13546071D01*
X17799643Y-13488929D01*
X17799643Y-13417500D01*
X17813928Y-13360357D01*
X17828214Y-13331786D01*
X17842500Y-13317500D01*
X17871071Y-13303214D01*
X18113928Y-13603214D02*
X18171071Y-13603214D01*
X18199643Y-13588929D01*
X18213928Y-13574643D01*
X18242500Y-13531786D01*
X18256786Y-13474643D01*
X18256786Y-13360357D01*
X18242500Y-13331786D01*
X18228214Y-13317500D01*
X18199643Y-13303214D01*
X18142500Y-13303214D01*
X18113928Y-13317500D01*
X18099643Y-13331786D01*
X18085357Y-13360357D01*
X18085357Y-13431786D01*
X18099643Y-13460357D01*
X18113928Y-13474643D01*
X18142500Y-13488929D01*
X18199643Y-13488929D01*
X18228214Y-13474643D01*
X18242500Y-13460357D01*
X18256786Y-13431786D01*
X18613928Y-13603214D02*
X18613928Y-13303214D01*
X18742500Y-13603214D02*
X18742500Y-13446071D01*
X18728214Y-13417500D01*
X18699643Y-13403214D01*
X18656786Y-13403214D01*
X18628214Y-13417500D01*
X18613928Y-13431786D01*
X18928214Y-13603214D02*
X18899643Y-13588929D01*
X18885357Y-13574643D01*
X18871071Y-13546071D01*
X18871071Y-13460357D01*
X18885357Y-13431786D01*
X18899643Y-13417500D01*
X18928214Y-13403214D01*
X18971071Y-13403214D01*
X18999643Y-13417500D01*
X19013928Y-13431786D01*
X19028214Y-13460357D01*
X19028214Y-13546071D01*
X19013928Y-13574643D01*
X18999643Y-13588929D01*
X18971071Y-13603214D01*
X18928214Y-13603214D01*
X19199643Y-13603214D02*
X19171071Y-13588929D01*
X19156786Y-13560357D01*
X19156786Y-13303214D01*
X19428214Y-13588929D02*
X19399643Y-13603214D01*
X19342500Y-13603214D01*
X19313929Y-13588929D01*
X19299643Y-13560357D01*
X19299643Y-13446071D01*
X19313929Y-13417500D01*
X19342500Y-13403214D01*
X19399643Y-13403214D01*
X19428214Y-13417500D01*
X19442500Y-13446071D01*
X19442500Y-13474643D01*
X19299643Y-13503214D01*
X19556786Y-13588929D02*
X19585357Y-13603214D01*
X19642500Y-13603214D01*
X19671071Y-13588929D01*
X19685357Y-13560357D01*
X19685357Y-13546071D01*
X19671071Y-13517500D01*
X19642500Y-13503214D01*
X19599643Y-13503214D01*
X19571071Y-13488929D01*
X19556786Y-13460357D01*
X19556786Y-13446071D01*
X19571071Y-13417500D01*
X19599643Y-13403214D01*
X19642500Y-13403214D01*
X19671071Y-13417500D01*
X19785357Y-13717500D02*
X19799643Y-13703214D01*
X19828214Y-13660357D01*
X19842500Y-13631786D01*
X19856786Y-13588929D01*
X19871071Y-13517500D01*
X19871071Y-13460357D01*
X19856786Y-13388929D01*
X19842500Y-13346071D01*
X19828214Y-13317500D01*
X19799643Y-13274643D01*
X19785357Y-13260357D01*
X12742500Y-13863500D02*
G75*
G03X12742500Y-13863500I-50000J0D01*
G01*
X13171071Y-13999214D02*
X12999643Y-13999214D01*
X13085357Y-13999214D02*
X13085357Y-13699214D01*
X13056786Y-13742071D01*
X13028214Y-13770643D01*
X12999643Y-13784929D01*
X13299643Y-13970643D02*
X13313928Y-13984929D01*
X13299643Y-13999214D01*
X13285357Y-13984929D01*
X13299643Y-13970643D01*
X13299643Y-13999214D01*
X13499643Y-13699214D02*
X13528214Y-13699214D01*
X13556786Y-13713500D01*
X13571071Y-13727786D01*
X13585357Y-13756357D01*
X13599643Y-13813500D01*
X13599643Y-13884929D01*
X13585357Y-13942071D01*
X13571071Y-13970643D01*
X13556786Y-13984929D01*
X13528214Y-13999214D01*
X13499643Y-13999214D01*
X13471071Y-13984929D01*
X13456786Y-13970643D01*
X13442500Y-13942071D01*
X13428214Y-13884929D01*
X13428214Y-13813500D01*
X13442500Y-13756357D01*
X13456786Y-13727786D01*
X13471071Y-13713500D01*
X13499643Y-13699214D01*
X13785357Y-13699214D02*
X13813928Y-13699214D01*
X13842500Y-13713500D01*
X13856786Y-13727786D01*
X13871071Y-13756357D01*
X13885357Y-13813500D01*
X13885357Y-13884929D01*
X13871071Y-13942071D01*
X13856786Y-13970643D01*
X13842500Y-13984929D01*
X13813928Y-13999214D01*
X13785357Y-13999214D01*
X13756786Y-13984929D01*
X13742500Y-13970643D01*
X13728214Y-13942071D01*
X13713928Y-13884929D01*
X13713928Y-13813500D01*
X13728214Y-13756357D01*
X13742500Y-13727786D01*
X13756786Y-13713500D01*
X13785357Y-13699214D01*
X14013928Y-13999214D02*
X14013928Y-13799214D01*
X14013928Y-13827786D02*
X14028214Y-13813500D01*
X14056786Y-13799214D01*
X14099643Y-13799214D01*
X14128214Y-13813500D01*
X14142500Y-13842071D01*
X14142500Y-13999214D01*
X14142500Y-13842071D02*
X14156786Y-13813500D01*
X14185357Y-13799214D01*
X14228214Y-13799214D01*
X14256786Y-13813500D01*
X14271071Y-13842071D01*
X14271071Y-13999214D01*
X14413928Y-13999214D02*
X14413928Y-13799214D01*
X14413928Y-13827786D02*
X14428214Y-13813500D01*
X14456786Y-13799214D01*
X14499643Y-13799214D01*
X14528214Y-13813500D01*
X14542500Y-13842071D01*
X14542500Y-13999214D01*
X14542500Y-13842071D02*
X14556786Y-13813500D01*
X14585357Y-13799214D01*
X14628214Y-13799214D01*
X14656786Y-13813500D01*
X14671071Y-13842071D01*
X14671071Y-13999214D01*
X15256786Y-13684929D02*
X14999643Y-14070643D01*
X15642500Y-13699214D02*
X15671071Y-13699214D01*
X15699643Y-13713500D01*
X15713928Y-13727786D01*
X15728214Y-13756357D01*
X15742500Y-13813500D01*
X15742500Y-13884929D01*
X15728214Y-13942071D01*
X15713928Y-13970643D01*
X15699643Y-13984929D01*
X15671071Y-13999214D01*
X15642500Y-13999214D01*
X15613928Y-13984929D01*
X15599643Y-13970643D01*
X15585357Y-13942071D01*
X15571071Y-13884929D01*
X15571071Y-13813500D01*
X15585357Y-13756357D01*
X15599643Y-13727786D01*
X15613928Y-13713500D01*
X15642500Y-13699214D01*
X15871071Y-13970643D02*
X15885357Y-13984929D01*
X15871071Y-13999214D01*
X15856786Y-13984929D01*
X15871071Y-13970643D01*
X15871071Y-13999214D01*
X16071071Y-13699214D02*
X16099643Y-13699214D01*
X16128214Y-13713500D01*
X16142500Y-13727786D01*
X16156785Y-13756357D01*
X16171071Y-13813500D01*
X16171071Y-13884929D01*
X16156785Y-13942071D01*
X16142500Y-13970643D01*
X16128214Y-13984929D01*
X16099643Y-13999214D01*
X16071071Y-13999214D01*
X16042500Y-13984929D01*
X16028214Y-13970643D01*
X16013928Y-13942071D01*
X15999643Y-13884929D01*
X15999643Y-13813500D01*
X16013928Y-13756357D01*
X16028214Y-13727786D01*
X16042500Y-13713500D01*
X16071071Y-13699214D01*
X16271071Y-13699214D02*
X16456785Y-13699214D01*
X16356785Y-13813500D01*
X16399643Y-13813500D01*
X16428214Y-13827786D01*
X16442500Y-13842071D01*
X16456785Y-13870643D01*
X16456785Y-13942071D01*
X16442500Y-13970643D01*
X16428214Y-13984929D01*
X16399643Y-13999214D01*
X16313928Y-13999214D01*
X16285357Y-13984929D01*
X16271071Y-13970643D01*
X16599643Y-13999214D02*
X16656785Y-13999214D01*
X16685357Y-13984929D01*
X16699643Y-13970643D01*
X16728214Y-13927786D01*
X16742500Y-13870643D01*
X16742500Y-13756357D01*
X16728214Y-13727786D01*
X16713928Y-13713500D01*
X16685357Y-13699214D01*
X16628214Y-13699214D01*
X16599643Y-13713500D01*
X16585357Y-13727786D01*
X16571071Y-13756357D01*
X16571071Y-13827786D01*
X16585357Y-13856357D01*
X16599643Y-13870643D01*
X16628214Y-13884929D01*
X16685357Y-13884929D01*
X16713928Y-13870643D01*
X16728214Y-13856357D01*
X16742500Y-13827786D01*
X16856786Y-13699214D02*
X16856786Y-13756357D01*
X16971071Y-13699214D02*
X16971071Y-13756357D01*
X17413928Y-14113500D02*
X17399643Y-14099214D01*
X17371071Y-14056357D01*
X17356786Y-14027786D01*
X17342500Y-13984929D01*
X17328214Y-13913500D01*
X17328214Y-13856357D01*
X17342500Y-13784929D01*
X17356786Y-13742071D01*
X17371071Y-13713500D01*
X17399643Y-13670643D01*
X17413928Y-13656357D01*
X17499643Y-13699214D02*
X17699643Y-13699214D01*
X17571071Y-13999214D01*
X17828214Y-13999214D02*
X17885357Y-13999214D01*
X17913928Y-13984929D01*
X17928214Y-13970643D01*
X17956786Y-13927786D01*
X17971071Y-13870643D01*
X17971071Y-13756357D01*
X17956786Y-13727786D01*
X17942500Y-13713500D01*
X17913928Y-13699214D01*
X17856786Y-13699214D01*
X17828214Y-13713500D01*
X17813928Y-13727786D01*
X17799643Y-13756357D01*
X17799643Y-13827786D01*
X17813928Y-13856357D01*
X17828214Y-13870643D01*
X17856786Y-13884929D01*
X17913928Y-13884929D01*
X17942500Y-13870643D01*
X17956786Y-13856357D01*
X17971071Y-13827786D01*
X18328214Y-13999214D02*
X18328214Y-13699214D01*
X18456786Y-13999214D02*
X18456786Y-13842071D01*
X18442500Y-13813500D01*
X18413928Y-13799214D01*
X18371071Y-13799214D01*
X18342500Y-13813500D01*
X18328214Y-13827786D01*
X18642500Y-13999214D02*
X18613928Y-13984929D01*
X18599643Y-13970643D01*
X18585357Y-13942071D01*
X18585357Y-13856357D01*
X18599643Y-13827786D01*
X18613928Y-13813500D01*
X18642500Y-13799214D01*
X18685357Y-13799214D01*
X18713928Y-13813500D01*
X18728214Y-13827786D01*
X18742500Y-13856357D01*
X18742500Y-13942071D01*
X18728214Y-13970643D01*
X18713928Y-13984929D01*
X18685357Y-13999214D01*
X18642500Y-13999214D01*
X18913928Y-13999214D02*
X18885357Y-13984929D01*
X18871071Y-13956357D01*
X18871071Y-13699214D01*
X19142500Y-13984929D02*
X19113929Y-13999214D01*
X19056786Y-13999214D01*
X19028214Y-13984929D01*
X19013929Y-13956357D01*
X19013929Y-13842071D01*
X19028214Y-13813500D01*
X19056786Y-13799214D01*
X19113929Y-13799214D01*
X19142500Y-13813500D01*
X19156786Y-13842071D01*
X19156786Y-13870643D01*
X19013929Y-13899214D01*
X19271071Y-13984929D02*
X19299643Y-13999214D01*
X19356786Y-13999214D01*
X19385357Y-13984929D01*
X19399643Y-13956357D01*
X19399643Y-13942071D01*
X19385357Y-13913500D01*
X19356786Y-13899214D01*
X19313929Y-13899214D01*
X19285357Y-13884929D01*
X19271071Y-13856357D01*
X19271071Y-13842071D01*
X19285357Y-13813500D01*
X19313929Y-13799214D01*
X19356786Y-13799214D01*
X19385357Y-13813500D01*
X19499643Y-14113500D02*
X19513929Y-14099214D01*
X19542500Y-14056357D01*
X19556786Y-14027786D01*
X19571071Y-13984929D01*
X19585357Y-13913500D01*
X19585357Y-13856357D01*
X19571071Y-13784929D01*
X19556786Y-13742071D01*
X19542500Y-13713500D01*
X19513929Y-13670643D01*
X19499643Y-13656357D01*
X12582500Y-14099500D02*
X12582500Y-14419500D01*
X12422500Y-14259500D02*
X12742500Y-14259500D01*
X12985357Y-14095214D02*
X13171071Y-14095214D01*
X13071071Y-14209500D01*
X13113928Y-14209500D01*
X13142500Y-14223786D01*
X13156786Y-14238071D01*
X13171071Y-14266643D01*
X13171071Y-14338071D01*
X13156786Y-14366643D01*
X13142500Y-14380929D01*
X13113928Y-14395214D01*
X13028214Y-14395214D01*
X12999643Y-14380929D01*
X12985357Y-14366643D01*
X13299643Y-14366643D02*
X13313928Y-14380929D01*
X13299643Y-14395214D01*
X13285357Y-14380929D01*
X13299643Y-14366643D01*
X13299643Y-14395214D01*
X13428214Y-14123786D02*
X13442500Y-14109500D01*
X13471071Y-14095214D01*
X13542500Y-14095214D01*
X13571071Y-14109500D01*
X13585357Y-14123786D01*
X13599643Y-14152357D01*
X13599643Y-14180929D01*
X13585357Y-14223786D01*
X13413928Y-14395214D01*
X13599643Y-14395214D01*
X13785357Y-14095214D02*
X13813928Y-14095214D01*
X13842500Y-14109500D01*
X13856786Y-14123786D01*
X13871071Y-14152357D01*
X13885357Y-14209500D01*
X13885357Y-14280929D01*
X13871071Y-14338071D01*
X13856786Y-14366643D01*
X13842500Y-14380929D01*
X13813928Y-14395214D01*
X13785357Y-14395214D01*
X13756786Y-14380929D01*
X13742500Y-14366643D01*
X13728214Y-14338071D01*
X13713928Y-14280929D01*
X13713928Y-14209500D01*
X13728214Y-14152357D01*
X13742500Y-14123786D01*
X13756786Y-14109500D01*
X13785357Y-14095214D01*
X14013928Y-14395214D02*
X14013928Y-14195214D01*
X14013928Y-14223786D02*
X14028214Y-14209500D01*
X14056786Y-14195214D01*
X14099643Y-14195214D01*
X14128214Y-14209500D01*
X14142500Y-14238071D01*
X14142500Y-14395214D01*
X14142500Y-14238071D02*
X14156786Y-14209500D01*
X14185357Y-14195214D01*
X14228214Y-14195214D01*
X14256786Y-14209500D01*
X14271071Y-14238071D01*
X14271071Y-14395214D01*
X14413928Y-14395214D02*
X14413928Y-14195214D01*
X14413928Y-14223786D02*
X14428214Y-14209500D01*
X14456786Y-14195214D01*
X14499643Y-14195214D01*
X14528214Y-14209500D01*
X14542500Y-14238071D01*
X14542500Y-14395214D01*
X14542500Y-14238071D02*
X14556786Y-14209500D01*
X14585357Y-14195214D01*
X14628214Y-14195214D01*
X14656786Y-14209500D01*
X14671071Y-14238071D01*
X14671071Y-14395214D01*
X15256786Y-14080929D02*
X14999643Y-14466643D01*
X15642500Y-14095214D02*
X15671071Y-14095214D01*
X15699643Y-14109500D01*
X15713928Y-14123786D01*
X15728214Y-14152357D01*
X15742500Y-14209500D01*
X15742500Y-14280929D01*
X15728214Y-14338071D01*
X15713928Y-14366643D01*
X15699643Y-14380929D01*
X15671071Y-14395214D01*
X15642500Y-14395214D01*
X15613928Y-14380929D01*
X15599643Y-14366643D01*
X15585357Y-14338071D01*
X15571071Y-14280929D01*
X15571071Y-14209500D01*
X15585357Y-14152357D01*
X15599643Y-14123786D01*
X15613928Y-14109500D01*
X15642500Y-14095214D01*
X15871071Y-14366643D02*
X15885357Y-14380929D01*
X15871071Y-14395214D01*
X15856786Y-14380929D01*
X15871071Y-14366643D01*
X15871071Y-14395214D01*
X16171071Y-14395214D02*
X15999643Y-14395214D01*
X16085357Y-14395214D02*
X16085357Y-14095214D01*
X16056785Y-14138071D01*
X16028214Y-14166643D01*
X15999643Y-14180929D01*
X16285357Y-14123786D02*
X16299643Y-14109500D01*
X16328214Y-14095214D01*
X16399643Y-14095214D01*
X16428214Y-14109500D01*
X16442500Y-14123786D01*
X16456785Y-14152357D01*
X16456785Y-14180929D01*
X16442500Y-14223786D01*
X16271071Y-14395214D01*
X16456785Y-14395214D01*
X16713928Y-14095214D02*
X16656785Y-14095214D01*
X16628214Y-14109500D01*
X16613928Y-14123786D01*
X16585357Y-14166643D01*
X16571071Y-14223786D01*
X16571071Y-14338071D01*
X16585357Y-14366643D01*
X16599643Y-14380929D01*
X16628214Y-14395214D01*
X16685357Y-14395214D01*
X16713928Y-14380929D01*
X16728214Y-14366643D01*
X16742500Y-14338071D01*
X16742500Y-14266643D01*
X16728214Y-14238071D01*
X16713928Y-14223786D01*
X16685357Y-14209500D01*
X16628214Y-14209500D01*
X16599643Y-14223786D01*
X16585357Y-14238071D01*
X16571071Y-14266643D01*
X16856786Y-14095214D02*
X16856786Y-14152357D01*
X16971071Y-14095214D02*
X16971071Y-14152357D01*
X17413928Y-14509500D02*
X17399643Y-14495214D01*
X17371071Y-14452357D01*
X17356786Y-14423786D01*
X17342500Y-14380929D01*
X17328214Y-14309500D01*
X17328214Y-14252357D01*
X17342500Y-14180929D01*
X17356786Y-14138071D01*
X17371071Y-14109500D01*
X17399643Y-14066643D01*
X17413928Y-14052357D01*
X17499643Y-14095214D02*
X17685357Y-14095214D01*
X17585357Y-14209500D01*
X17628214Y-14209500D01*
X17656786Y-14223786D01*
X17671071Y-14238071D01*
X17685357Y-14266643D01*
X17685357Y-14338071D01*
X17671071Y-14366643D01*
X17656786Y-14380929D01*
X17628214Y-14395214D01*
X17542500Y-14395214D01*
X17513928Y-14380929D01*
X17499643Y-14366643D01*
X18042500Y-14395214D02*
X18042500Y-14095214D01*
X18171071Y-14395214D02*
X18171071Y-14238071D01*
X18156786Y-14209500D01*
X18128214Y-14195214D01*
X18085357Y-14195214D01*
X18056786Y-14209500D01*
X18042500Y-14223786D01*
X18356786Y-14395214D02*
X18328214Y-14380929D01*
X18313928Y-14366643D01*
X18299643Y-14338071D01*
X18299643Y-14252357D01*
X18313928Y-14223786D01*
X18328214Y-14209500D01*
X18356786Y-14195214D01*
X18399643Y-14195214D01*
X18428214Y-14209500D01*
X18442500Y-14223786D01*
X18456786Y-14252357D01*
X18456786Y-14338071D01*
X18442500Y-14366643D01*
X18428214Y-14380929D01*
X18399643Y-14395214D01*
X18356786Y-14395214D01*
X18628214Y-14395214D02*
X18599643Y-14380929D01*
X18585357Y-14352357D01*
X18585357Y-14095214D01*
X18856786Y-14380929D02*
X18828214Y-14395214D01*
X18771071Y-14395214D01*
X18742500Y-14380929D01*
X18728214Y-14352357D01*
X18728214Y-14238071D01*
X18742500Y-14209500D01*
X18771071Y-14195214D01*
X18828214Y-14195214D01*
X18856786Y-14209500D01*
X18871071Y-14238071D01*
X18871071Y-14266643D01*
X18728214Y-14295214D01*
X18985357Y-14380929D02*
X19013929Y-14395214D01*
X19071071Y-14395214D01*
X19099643Y-14380929D01*
X19113929Y-14352357D01*
X19113929Y-14338071D01*
X19099643Y-14309500D01*
X19071071Y-14295214D01*
X19028214Y-14295214D01*
X18999643Y-14280929D01*
X18985357Y-14252357D01*
X18985357Y-14238071D01*
X18999643Y-14209500D01*
X19028214Y-14195214D01*
X19071071Y-14195214D01*
X19099643Y-14209500D01*
X19213928Y-14509500D02*
X19228214Y-14495214D01*
X19256786Y-14452357D01*
X19271071Y-14423786D01*
X19285357Y-14380929D01*
X19299643Y-14309500D01*
X19299643Y-14252357D01*
X19285357Y-14180929D01*
X19271071Y-14138071D01*
X19256786Y-14109500D01*
X19228214Y-14066643D01*
X19213928Y-14052357D01*
M02*
