G04 #@! TF.GenerationSoftware,KiCad,Pcbnew,(5.0.0)*
G04 #@! TF.CreationDate,2018-10-21T14:19:47+08:00*
G04 #@! TF.ProjectId,PSU 4CH V1_PCBV2,505355203443482056315F5043425632,rev?*
G04 #@! TF.SameCoordinates,Original*
G04 #@! TF.FileFunction,Soldermask,Bot*
G04 #@! TF.FilePolarity,Negative*
%FSLAX46Y46*%
G04 Gerber Fmt 4.6, Leading zero omitted, Abs format (unit mm)*
G04 Created by KiCad (PCBNEW (5.0.0)) date 10/21/18 14:19:47*
%MOMM*%
%LPD*%
G01*
G04 APERTURE LIST*
%ADD10R,1.600000X1.150000*%
%ADD11R,1.150000X1.600000*%
%ADD12C,2.116000*%
%ADD13R,2.116000X2.116000*%
%ADD14R,1.650000X1.900000*%
%ADD15O,3.600000X3.600000*%
%ADD16R,3.600000X3.600000*%
%ADD17R,2.416000X2.416000*%
%ADD18C,2.416000*%
%ADD19C,2.616000*%
%ADD20R,2.616000X2.616000*%
%ADD21C,2.362000*%
%ADD22R,2.362000X2.362000*%
%ADD23R,1.300000X1.200000*%
%ADD24R,1.300000X1.600000*%
%ADD25R,1.600000X1.300000*%
%ADD26R,1.700000X1.900000*%
%ADD27R,1.850000X0.850000*%
%ADD28C,4.200000*%
G04 APERTURE END LIST*
D10*
G04 #@! TO.C,C1*
X141224000Y-123698000D03*
X143124000Y-123698000D03*
G04 #@! TD*
D11*
G04 #@! TO.C,C3*
X156718000Y-112268000D03*
X156718000Y-114168000D03*
G04 #@! TD*
G04 #@! TO.C,C4*
X145796000Y-122052000D03*
X145796000Y-123952000D03*
G04 #@! TD*
G04 #@! TO.C,C5*
X151892000Y-123068000D03*
X151892000Y-124968000D03*
G04 #@! TD*
G04 #@! TO.C,C6*
X157734000Y-119126000D03*
X157734000Y-121026000D03*
G04 #@! TD*
G04 #@! TO.C,C7*
X118872000Y-93284000D03*
X118872000Y-95184000D03*
G04 #@! TD*
D12*
G04 #@! TO.C,C9*
X173990000Y-95885000D03*
D13*
X176530000Y-95885000D03*
G04 #@! TD*
G04 #@! TO.C,C10*
X173355000Y-86360000D03*
D12*
X173355000Y-88900000D03*
G04 #@! TD*
D14*
G04 #@! TO.C,C11*
X162560000Y-101366000D03*
X162560000Y-103866000D03*
G04 #@! TD*
D12*
G04 #@! TO.C,C12*
X159004000Y-114300000D03*
D13*
X161544000Y-114300000D03*
G04 #@! TD*
G04 #@! TO.C,C13*
X161544000Y-122682000D03*
D12*
X159004000Y-122682000D03*
G04 #@! TD*
D10*
G04 #@! TO.C,C14*
X161158000Y-120650000D03*
X159258000Y-120650000D03*
G04 #@! TD*
D12*
G04 #@! TO.C,C15*
X131572000Y-125730000D03*
D13*
X129032000Y-125730000D03*
G04 #@! TD*
D12*
G04 #@! TO.C,D1*
X146812000Y-116332000D03*
D13*
X136652520Y-116334540D03*
G04 #@! TD*
G04 #@! TO.C,D2*
X123952520Y-116329460D03*
D12*
X134112000Y-116332000D03*
G04 #@! TD*
G04 #@! TO.C,D3*
X123952000Y-118618000D03*
D13*
X134111480Y-118620540D03*
G04 #@! TD*
D12*
G04 #@! TO.C,D4*
X129032000Y-120650000D03*
D13*
X118872520Y-120647460D03*
G04 #@! TD*
G04 #@! TO.C,D5*
X118869460Y-106680520D03*
D12*
X118872000Y-116840000D03*
G04 #@! TD*
D15*
G04 #@! TO.C,D6*
X158562000Y-107950000D03*
D16*
X178562000Y-107950000D03*
G04 #@! TD*
D17*
G04 #@! TO.C,DAC1*
X167132000Y-124206000D03*
D18*
X167132000Y-126746000D03*
X167132000Y-129286000D03*
G04 #@! TD*
G04 #@! TO.C,DAC2*
X174117000Y-130937000D03*
X174117000Y-128397000D03*
D17*
X174117000Y-125857000D03*
G04 #@! TD*
D18*
G04 #@! TO.C,J1*
X186690000Y-132334000D03*
X186690000Y-129794000D03*
X186690000Y-127254000D03*
X186690000Y-124714000D03*
X186690000Y-122174000D03*
X186690000Y-119634000D03*
D17*
X186690000Y-117094000D03*
G04 #@! TD*
D19*
G04 #@! TO.C,J2*
X118364000Y-130810000D03*
D20*
X123444000Y-130810000D03*
G04 #@! TD*
D18*
G04 #@! TO.C,J3*
X139446000Y-124968000D03*
D17*
X136906000Y-124968000D03*
G04 #@! TD*
D20*
G04 #@! TO.C,J4*
X161544000Y-130810000D03*
D19*
X156464000Y-130810000D03*
G04 #@! TD*
D18*
G04 #@! TO.C,J5*
X140716000Y-127762000D03*
X138176000Y-127762000D03*
D17*
X135636000Y-127762000D03*
G04 #@! TD*
D19*
G04 #@! TO.C,J6*
X161290000Y-86360000D03*
D20*
X166370000Y-86360000D03*
G04 #@! TD*
D21*
G04 #@! TO.C,L1*
X170942000Y-114300000D03*
D22*
X178562000Y-114300000D03*
G04 #@! TD*
D23*
G04 #@! TO.C,Q1*
X120888000Y-97790000D03*
X118888000Y-96840000D03*
X118888000Y-98740000D03*
G04 #@! TD*
D24*
G04 #@! TO.C,R1*
X162814000Y-120904000D03*
X162814000Y-118704000D03*
G04 #@! TD*
D25*
G04 #@! TO.C,R2*
X159090000Y-118872000D03*
X161290000Y-118872000D03*
G04 #@! TD*
D24*
G04 #@! TO.C,R3*
X117348000Y-99906000D03*
X117348000Y-97706000D03*
G04 #@! TD*
D26*
G04 #@! TO.C,R12*
X145200799Y-125688799D03*
X145200799Y-128388799D03*
G04 #@! TD*
G04 #@! TO.C,R13*
X143320799Y-128388799D03*
X143320799Y-125688799D03*
G04 #@! TD*
D24*
G04 #@! TO.C,R15*
X149606000Y-123104000D03*
X149606000Y-120904000D03*
G04 #@! TD*
D25*
G04 #@! TO.C,R18*
X154686000Y-116332000D03*
X152486000Y-116332000D03*
G04 #@! TD*
D27*
G04 #@! TO.C,U1*
X144100000Y-120254000D03*
X144100000Y-120904000D03*
X144100000Y-121554000D03*
X144100000Y-122204000D03*
X139700000Y-122204000D03*
X139700000Y-121554000D03*
X139700000Y-120904000D03*
X139700000Y-120254000D03*
G04 #@! TD*
G04 #@! TO.C,U3*
X161204000Y-115865000D03*
X161204000Y-116515000D03*
X161204000Y-117165000D03*
X161204000Y-117815000D03*
X156804000Y-117815000D03*
X156804000Y-117165000D03*
X156804000Y-116515000D03*
X156804000Y-115865000D03*
G04 #@! TD*
D28*
G04 #@! TO.C,REF\002A\002A*
X110000000Y-135000000D03*
G04 #@! TD*
G04 #@! TO.C,REF\002A\002A*
X195000000Y-135000000D03*
G04 #@! TD*
G04 #@! TO.C,REF\002A\002A*
X195000000Y-85000000D03*
G04 #@! TD*
G04 #@! TO.C,REF\002A\002A*
X110000000Y-85000000D03*
G04 #@! TD*
M02*
