G04 #@! TF.GenerationSoftware,KiCad,Pcbnew,(5.0.0)*
G04 #@! TF.CreationDate,2018-10-21T14:19:47+08:00*
G04 #@! TF.ProjectId,PSU 4CH V1_PCBV2,505355203443482056315F5043425632,rev?*
G04 #@! TF.SameCoordinates,Original*
G04 #@! TF.FileFunction,Copper,L1,Top,Signal*
G04 #@! TF.FilePolarity,Positive*
%FSLAX46Y46*%
G04 Gerber Fmt 4.6, Leading zero omitted, Abs format (unit mm)*
G04 Created by KiCad (PCBNEW (5.0.0)) date 10/21/18 14:19:47*
%MOMM*%
%LPD*%
G01*
G04 APERTURE LIST*
G04 #@! TA.AperFunction,SMDPad,CuDef*
%ADD10R,0.750000X1.200000*%
G04 #@! TD*
G04 #@! TA.AperFunction,ComponentPad*
%ADD11C,1.716000*%
G04 #@! TD*
G04 #@! TA.AperFunction,ComponentPad*
%ADD12R,1.716000X1.716000*%
G04 #@! TD*
G04 #@! TA.AperFunction,ComponentPad*
%ADD13O,3.200000X3.200000*%
G04 #@! TD*
G04 #@! TA.AperFunction,ComponentPad*
%ADD14R,3.200000X3.200000*%
G04 #@! TD*
G04 #@! TA.AperFunction,ComponentPad*
%ADD15R,2.016000X2.016000*%
G04 #@! TD*
G04 #@! TA.AperFunction,ComponentPad*
%ADD16C,2.016000*%
G04 #@! TD*
G04 #@! TA.AperFunction,ComponentPad*
%ADD17C,2.216000*%
G04 #@! TD*
G04 #@! TA.AperFunction,ComponentPad*
%ADD18R,2.216000X2.216000*%
G04 #@! TD*
G04 #@! TA.AperFunction,ComponentPad*
%ADD19C,1.962000*%
G04 #@! TD*
G04 #@! TA.AperFunction,ComponentPad*
%ADD20R,1.962000X1.962000*%
G04 #@! TD*
G04 #@! TA.AperFunction,SMDPad,CuDef*
%ADD21R,0.900000X1.200000*%
G04 #@! TD*
G04 #@! TA.AperFunction,SMDPad,CuDef*
%ADD22R,1.450000X0.450000*%
G04 #@! TD*
G04 #@! TA.AperFunction,SMDPad,CuDef*
%ADD23R,4.550000X5.250000*%
G04 #@! TD*
G04 #@! TA.AperFunction,SMDPad,CuDef*
%ADD24R,9.400000X10.800000*%
G04 #@! TD*
G04 #@! TA.AperFunction,SMDPad,CuDef*
%ADD25R,4.600000X0.800000*%
G04 #@! TD*
G04 #@! TA.AperFunction,SMDPad,CuDef*
%ADD26R,4.600000X1.100000*%
G04 #@! TD*
G04 #@! TA.AperFunction,ComponentPad*
%ADD27C,3.800000*%
G04 #@! TD*
G04 #@! TA.AperFunction,ViaPad*
%ADD28C,3.300000*%
G04 #@! TD*
G04 #@! TA.AperFunction,ViaPad*
%ADD29C,2.300000*%
G04 #@! TD*
G04 #@! TA.AperFunction,ViaPad*
%ADD30C,0.600000*%
G04 #@! TD*
G04 #@! TA.AperFunction,Conductor*
%ADD31C,0.736600*%
G04 #@! TD*
G04 #@! TA.AperFunction,Conductor*
%ADD32C,0.863600*%
G04 #@! TD*
G04 #@! TA.AperFunction,Conductor*
%ADD33C,2.032000*%
G04 #@! TD*
G04 #@! TA.AperFunction,Conductor*
%ADD34C,0.304800*%
G04 #@! TD*
G04 #@! TA.AperFunction,Conductor*
%ADD35C,0.431800*%
G04 #@! TD*
G04 #@! TA.AperFunction,Conductor*
%ADD36C,0.200000*%
G04 #@! TD*
G04 APERTURE END LIST*
D10*
G04 #@! TO.P,C2,2*
G04 #@! TO.N,GND*
X153924000Y-119380000D03*
G04 #@! TO.P,C2,1*
G04 #@! TO.N,+5V*
X153924000Y-121280000D03*
G04 #@! TD*
G04 #@! TO.P,C8,2*
G04 #@! TO.N,GND*
X171450000Y-100269000D03*
G04 #@! TO.P,C8,1*
G04 #@! TO.N,/Input-V+*
X171450000Y-102169000D03*
G04 #@! TD*
D11*
G04 #@! TO.P,C9,2*
G04 #@! TO.N,GND*
X173990000Y-95885000D03*
D12*
G04 #@! TO.P,C9,1*
G04 #@! TO.N,/Input-V+*
X176530000Y-95885000D03*
G04 #@! TD*
G04 #@! TO.P,C10,1*
G04 #@! TO.N,/Input-V+*
X173355000Y-86360000D03*
D11*
G04 #@! TO.P,C10,2*
G04 #@! TO.N,GND*
X173355000Y-88900000D03*
G04 #@! TD*
G04 #@! TO.P,C12,2*
G04 #@! TO.N,GND*
X159004000Y-114300000D03*
D12*
G04 #@! TO.P,C12,1*
G04 #@! TO.N,/Output-Buck*
X161544000Y-114300000D03*
G04 #@! TD*
G04 #@! TO.P,C13,1*
G04 #@! TO.N,/Output-Buck*
X161544000Y-122682000D03*
D11*
G04 #@! TO.P,C13,2*
G04 #@! TO.N,GND*
X159004000Y-122682000D03*
G04 #@! TD*
G04 #@! TO.P,C15,2*
G04 #@! TO.N,GND*
X131572000Y-125730000D03*
D12*
G04 #@! TO.P,C15,1*
G04 #@! TO.N,/Output-Linear*
X129032000Y-125730000D03*
G04 #@! TD*
D11*
G04 #@! TO.P,D1,2*
G04 #@! TO.N,Net-(D1-Pad2)*
X146812000Y-116332000D03*
D12*
G04 #@! TO.P,D1,1*
G04 #@! TO.N,Net-(D1-Pad1)*
X136652520Y-116334540D03*
G04 #@! TD*
G04 #@! TO.P,D2,1*
G04 #@! TO.N,Net-(D2-Pad1)*
X123952520Y-116329460D03*
D11*
G04 #@! TO.P,D2,2*
G04 #@! TO.N,Net-(D1-Pad1)*
X134112000Y-116332000D03*
G04 #@! TD*
G04 #@! TO.P,D3,2*
G04 #@! TO.N,Net-(D2-Pad1)*
X123952000Y-118618000D03*
D12*
G04 #@! TO.P,D3,1*
G04 #@! TO.N,Net-(D3-Pad1)*
X134111480Y-118620540D03*
G04 #@! TD*
D11*
G04 #@! TO.P,D4,2*
G04 #@! TO.N,Net-(D3-Pad1)*
X129032000Y-120650000D03*
D12*
G04 #@! TO.P,D4,1*
G04 #@! TO.N,Net-(D4-Pad1)*
X118872520Y-120647460D03*
G04 #@! TD*
G04 #@! TO.P,D5,1*
G04 #@! TO.N,Net-(D5-Pad1)*
X118869460Y-106680520D03*
D11*
G04 #@! TO.P,D5,2*
G04 #@! TO.N,Net-(D4-Pad1)*
X118872000Y-116840000D03*
G04 #@! TD*
D13*
G04 #@! TO.P,D6,2*
G04 #@! TO.N,GND*
X158562000Y-107950000D03*
D14*
G04 #@! TO.P,D6,1*
G04 #@! TO.N,Net-(C11-Pad1)*
X178562000Y-107950000D03*
G04 #@! TD*
D15*
G04 #@! TO.P,DAC1,1*
G04 #@! TO.N,+3V3*
X167132000Y-124206000D03*
D16*
G04 #@! TO.P,DAC1,2*
G04 #@! TO.N,/DAC_BUCK*
X167132000Y-126746000D03*
G04 #@! TO.P,DAC1,3*
G04 #@! TO.N,GND*
X167132000Y-129286000D03*
G04 #@! TD*
G04 #@! TO.P,DAC2,3*
G04 #@! TO.N,GND*
X174117000Y-130937000D03*
G04 #@! TO.P,DAC2,2*
G04 #@! TO.N,/DAC_LINEAR*
X174117000Y-128397000D03*
D15*
G04 #@! TO.P,DAC2,1*
G04 #@! TO.N,+3V3*
X174117000Y-125857000D03*
G04 #@! TD*
D16*
G04 #@! TO.P,J1,7*
G04 #@! TO.N,-2V8*
X186690000Y-132334000D03*
G04 #@! TO.P,J1,6*
G04 #@! TO.N,-0V5*
X186690000Y-129794000D03*
G04 #@! TO.P,J1,5*
G04 #@! TO.N,GND*
X186690000Y-127254000D03*
G04 #@! TO.P,J1,4*
G04 #@! TO.N,/I-ADC*
X186690000Y-124714000D03*
G04 #@! TO.P,J1,3*
G04 #@! TO.N,/V-ADC*
X186690000Y-122174000D03*
G04 #@! TO.P,J1,2*
G04 #@! TO.N,+3V3*
X186690000Y-119634000D03*
D15*
G04 #@! TO.P,J1,1*
G04 #@! TO.N,+5V*
X186690000Y-117094000D03*
G04 #@! TD*
D17*
G04 #@! TO.P,J2,2*
G04 #@! TO.N,/Output-GND*
X118364000Y-130810000D03*
D18*
G04 #@! TO.P,J2,1*
G04 #@! TO.N,/Output-Linear*
X123444000Y-130810000D03*
G04 #@! TD*
D16*
G04 #@! TO.P,J3,2*
G04 #@! TO.N,/Vfb-*
X139446000Y-124968000D03*
D15*
G04 #@! TO.P,J3,1*
G04 #@! TO.N,/Vfb+*
X136906000Y-124968000D03*
G04 #@! TD*
D18*
G04 #@! TO.P,J4,1*
G04 #@! TO.N,/Output-Buck*
X161544000Y-130810000D03*
D17*
G04 #@! TO.P,J4,2*
G04 #@! TO.N,/Output-GND*
X156464000Y-130810000D03*
G04 #@! TD*
D16*
G04 #@! TO.P,J5,3*
G04 #@! TO.N,/Output-Buck*
X140716000Y-127762000D03*
G04 #@! TO.P,J5,2*
G04 #@! TO.N,Net-(J5-Pad2)*
X138176000Y-127762000D03*
D15*
G04 #@! TO.P,J5,1*
G04 #@! TO.N,/Output-Linear*
X135636000Y-127762000D03*
G04 #@! TD*
D17*
G04 #@! TO.P,J6,2*
G04 #@! TO.N,GND*
X161290000Y-86360000D03*
D18*
G04 #@! TO.P,J6,1*
G04 #@! TO.N,/Input-V+*
X166370000Y-86360000D03*
G04 #@! TD*
D19*
G04 #@! TO.P,L1,2*
G04 #@! TO.N,/Output-Buck*
X170942000Y-114300000D03*
D20*
G04 #@! TO.P,L1,1*
G04 #@! TO.N,Net-(C11-Pad1)*
X178562000Y-114300000D03*
G04 #@! TD*
D21*
G04 #@! TO.P,R4,1*
G04 #@! TO.N,Net-(J5-Pad2)*
X137160000Y-120650000D03*
G04 #@! TO.P,R4,2*
G04 #@! TO.N,/Vfb+*
X137160000Y-122850000D03*
G04 #@! TD*
G04 #@! TO.P,R5,1*
G04 #@! TO.N,/Vfb+*
X135636000Y-122682000D03*
G04 #@! TO.P,R5,2*
G04 #@! TO.N,Net-(R5-Pad2)*
X135636000Y-120482000D03*
G04 #@! TD*
G04 #@! TO.P,R6,1*
G04 #@! TO.N,Net-(R5-Pad2)*
X138684000Y-120482000D03*
G04 #@! TO.P,R6,2*
G04 #@! TO.N,/Vfb-*
X138684000Y-122682000D03*
G04 #@! TD*
G04 #@! TO.P,R7,2*
G04 #@! TO.N,/Output-GND*
X140208000Y-120650000D03*
G04 #@! TO.P,R7,1*
G04 #@! TO.N,/Vfb-*
X140208000Y-122850000D03*
G04 #@! TD*
G04 #@! TO.P,R8,1*
G04 #@! TO.N,Net-(R8-Pad1)*
X149352000Y-121412000D03*
G04 #@! TO.P,R8,2*
G04 #@! TO.N,Net-(R8-Pad2)*
X149352000Y-119212000D03*
G04 #@! TD*
G04 #@! TO.P,R9,2*
G04 #@! TO.N,GND*
X150876000Y-119212000D03*
G04 #@! TO.P,R9,1*
G04 #@! TO.N,Net-(R8-Pad1)*
X150876000Y-121412000D03*
G04 #@! TD*
G04 #@! TO.P,R10,2*
G04 #@! TO.N,Net-(R10-Pad2)*
X152400000Y-119126000D03*
G04 #@! TO.P,R10,1*
G04 #@! TO.N,Net-(R10-Pad1)*
X152400000Y-121326000D03*
G04 #@! TD*
G04 #@! TO.P,R11,2*
G04 #@! TO.N,Net-(R10-Pad1)*
X155384500Y-124607500D03*
G04 #@! TO.P,R11,1*
G04 #@! TO.N,/V-ADC*
X155384500Y-122407500D03*
G04 #@! TD*
G04 #@! TO.P,R14,2*
G04 #@! TO.N,Net-(R14-Pad2)*
X147320000Y-123104000D03*
G04 #@! TO.P,R14,1*
G04 #@! TO.N,/I-ADC*
X147320000Y-120904000D03*
G04 #@! TD*
G04 #@! TO.P,R16,2*
G04 #@! TO.N,Net-(R16-Pad2)*
X140208000Y-118364000D03*
G04 #@! TO.P,R16,1*
G04 #@! TO.N,/Output-Linear*
X140208000Y-116164000D03*
G04 #@! TD*
G04 #@! TO.P,R17,1*
G04 #@! TO.N,Net-(R16-Pad2)*
X142748000Y-118278000D03*
G04 #@! TO.P,R17,2*
G04 #@! TO.N,GND*
X142748000Y-116078000D03*
G04 #@! TD*
D22*
G04 #@! TO.P,U2,8*
G04 #@! TO.N,+5V*
X153838000Y-122977000D03*
G04 #@! TO.P,U2,7*
G04 #@! TO.N,/V-ADC*
X153838000Y-123627000D03*
G04 #@! TO.P,U2,6*
G04 #@! TO.N,Net-(R10-Pad1)*
X153838000Y-124277000D03*
G04 #@! TO.P,U2,5*
G04 #@! TO.N,Net-(R8-Pad1)*
X153838000Y-124927000D03*
G04 #@! TO.P,U2,4*
G04 #@! TO.N,-0V5*
X149438000Y-124927000D03*
G04 #@! TO.P,U2,3*
G04 #@! TO.N,/Output-GND*
X149438000Y-124277000D03*
G04 #@! TO.P,U2,2*
G04 #@! TO.N,Net-(R14-Pad2)*
X149438000Y-123627000D03*
G04 #@! TO.P,U2,1*
G04 #@! TO.N,/I-ADC*
X149438000Y-122977000D03*
G04 #@! TD*
D23*
G04 #@! TO.P,U4,4*
G04 #@! TO.N,GND*
X161050000Y-97225000D03*
X156200000Y-102775000D03*
X161050000Y-102775000D03*
X156200000Y-97225000D03*
D24*
X158625000Y-100000000D03*
D25*
G04 #@! TO.P,U4,7*
G04 #@! TO.N,Net-(U4-Pad7)*
X167775000Y-96190000D03*
G04 #@! TO.P,U4,6*
G04 #@! TO.N,/Vfb-Buck*
X167775000Y-97460000D03*
G04 #@! TO.P,U4,5*
G04 #@! TO.N,N/C*
X167775000Y-98730000D03*
G04 #@! TO.P,U4,4*
G04 #@! TO.N,GND*
X167775000Y-100000000D03*
G04 #@! TO.P,U4,3*
G04 #@! TO.N,Net-(C11-Pad2)*
X167775000Y-101270000D03*
G04 #@! TO.P,U4,2*
G04 #@! TO.N,/Input-V+*
X167775000Y-102540000D03*
G04 #@! TO.P,U4,1*
G04 #@! TO.N,Net-(C11-Pad1)*
X167775000Y-103810000D03*
G04 #@! TD*
D23*
G04 #@! TO.P,U5,2*
G04 #@! TO.N,/Output-Linear*
X118950000Y-102775000D03*
X123800000Y-97225000D03*
X118950000Y-97225000D03*
X123800000Y-102775000D03*
D24*
X121375000Y-100000000D03*
D26*
G04 #@! TO.P,U5,3*
G04 #@! TO.N,/Output-Buck*
X112225000Y-102540000D03*
G04 #@! TO.P,U5,2*
G04 #@! TO.N,/Output-Linear*
X112225000Y-100000000D03*
G04 #@! TO.P,U5,1*
G04 #@! TO.N,/Vfb-Linear*
X112225000Y-97460000D03*
G04 #@! TD*
D27*
G04 #@! TO.P,REF\002A\002A,1*
G04 #@! TO.N,N/C*
X110000000Y-135000000D03*
G04 #@! TD*
G04 #@! TO.P,REF\002A\002A,1*
G04 #@! TO.N,N/C*
X195000000Y-135000000D03*
G04 #@! TD*
G04 #@! TO.P,REF\002A\002A,1*
G04 #@! TO.N,N/C*
X195000000Y-85000000D03*
G04 #@! TD*
G04 #@! TO.P,REF\002A\002A,1*
G04 #@! TO.N,N/C*
X110000000Y-85000000D03*
G04 #@! TD*
D28*
G04 #@! TO.N,*
X152000000Y-88000000D03*
X152000000Y-112000000D03*
X128000000Y-112000000D03*
X128000000Y-88000000D03*
D29*
G04 #@! TO.N,GND*
X143000000Y-112000000D03*
X146000000Y-112000000D03*
X149000000Y-109000000D03*
X146000000Y-109000000D03*
X146000000Y-106000000D03*
X149000000Y-106000000D03*
X152000000Y-106000000D03*
X152000000Y-103000000D03*
X152000000Y-100000000D03*
X149000000Y-100000000D03*
X149000000Y-103000000D03*
X149000000Y-97000000D03*
X152000000Y-97000000D03*
X152000000Y-94000000D03*
X149000000Y-94000000D03*
X149000000Y-91000000D03*
X146000000Y-91000000D03*
X146000000Y-88000000D03*
X143000000Y-88000000D03*
X143000000Y-91000000D03*
X143000000Y-109000000D03*
X146000000Y-94000000D03*
D30*
X144272000Y-124206000D03*
X154813000Y-119761000D03*
G04 #@! TO.N,+5V*
X156804000Y-115189000D03*
X142240000Y-122047000D03*
G04 #@! TO.N,-0V5*
X150622000Y-124968000D03*
X156464000Y-121285000D03*
G04 #@! TO.N,Net-(C11-Pad2)*
X164338000Y-101346000D03*
G04 #@! TO.N,Net-(C11-Pad1)*
X164338000Y-103886000D03*
D29*
G04 #@! TO.N,/Output-Linear*
X140000000Y-88000000D03*
X137000000Y-112000000D03*
X140000000Y-112000000D03*
X140000000Y-91000000D03*
X137000000Y-91000000D03*
X134000000Y-91000000D03*
X134000000Y-88000000D03*
X137000000Y-88000000D03*
X131000000Y-91000000D03*
X128000000Y-94000000D03*
X131000000Y-94000000D03*
X134000000Y-94000000D03*
X131000000Y-97000000D03*
X128000000Y-97000000D03*
X128000000Y-100000000D03*
X128000000Y-103000000D03*
X128000000Y-106000000D03*
X131000000Y-106000000D03*
X131000000Y-103000000D03*
X131000000Y-100000000D03*
X131000000Y-109000000D03*
X134000000Y-112000000D03*
X134000000Y-109000000D03*
X134000000Y-106000000D03*
X137000000Y-109000000D03*
X140000000Y-109000000D03*
D30*
X115570000Y-100000000D03*
G04 #@! TO.N,/DAC_BUCK*
X159766000Y-117094000D03*
G04 #@! TO.N,/I-ADC*
X147955000Y-121994000D03*
X183515000Y-126619000D03*
G04 #@! TO.N,/V-ADC*
X155384500Y-123439300D03*
X182245000Y-125349000D03*
G04 #@! TO.N,Net-(J5-Pad2)*
X137160000Y-121666000D03*
G04 #@! TO.N,/Vfb-Linear*
X115570000Y-97536000D03*
G04 #@! TO.N,Net-(R5-Pad2)*
X138176000Y-119126000D03*
G04 #@! TO.N,Net-(R8-Pad2)*
X145202000Y-119212000D03*
G04 #@! TO.N,Net-(R10-Pad2)*
X141478000Y-121539000D03*
G04 #@! TO.N,Net-(R14-Pad2)*
X148259800Y-123621800D03*
G04 #@! TO.N,Net-(R16-Pad2)*
X141478000Y-118364000D03*
G04 #@! TO.N,/Vfb-Buck*
X170942000Y-97536000D03*
G04 #@! TO.N,/Output-GND*
X144272000Y-126974600D03*
G04 #@! TD*
D31*
G04 #@! TO.N,GND*
X164738400Y-100000000D02*
X158625000Y-100000000D01*
X167775000Y-100000000D02*
X164738400Y-100000000D01*
D32*
X142748000Y-112252000D02*
X143000000Y-112000000D01*
X142748000Y-116078000D02*
X142748000Y-112252000D01*
D33*
X173990000Y-89535000D02*
X173355000Y-88900000D01*
X173990000Y-95885000D02*
X173990000Y-89535000D01*
X163830000Y-88900000D02*
X161290000Y-86360000D01*
X173355000Y-88900000D02*
X163830000Y-88900000D01*
D31*
X167775000Y-100000000D02*
X171218001Y-99955599D01*
X171218001Y-99955599D02*
X170800000Y-100000000D01*
D33*
X173132001Y-97667999D02*
X171218001Y-99581999D01*
X173132001Y-96742999D02*
X173132001Y-97667999D01*
X173990000Y-95885000D02*
X173132001Y-96742999D01*
D34*
X151519401Y-120005401D02*
X153073521Y-120005401D01*
X150876000Y-119212000D02*
X150876000Y-119362000D01*
X150876000Y-119362000D02*
X151519401Y-120005401D01*
X153698922Y-119380000D02*
X153924000Y-119380000D01*
X153073521Y-120005401D02*
X153698922Y-119380000D01*
X153924000Y-119380000D02*
X154432000Y-119380000D01*
X154432000Y-119380000D02*
X154813000Y-119761000D01*
D35*
G04 #@! TO.N,+5V*
X153838000Y-121366000D02*
X153924000Y-121280000D01*
X153838000Y-122977000D02*
X153838000Y-121366000D01*
X154730800Y-121280000D02*
X153924000Y-121280000D01*
X156804000Y-119206800D02*
X154730800Y-121280000D01*
X156804000Y-115189000D02*
X156804000Y-119206800D01*
X176911000Y-117094000D02*
X186690000Y-117094000D01*
X171831000Y-112014000D02*
X176911000Y-117094000D01*
X157607000Y-112014000D02*
X171831000Y-112014000D01*
X156804000Y-115189000D02*
X156804000Y-112817000D01*
X156804000Y-112817000D02*
X157607000Y-112014000D01*
D34*
X144262401Y-120024599D02*
X142240000Y-122047000D01*
X147993521Y-120024599D02*
X144262401Y-120024599D01*
X148415521Y-120446599D02*
X147993521Y-120024599D01*
X153090599Y-120446599D02*
X148415521Y-120446599D01*
X153924000Y-121280000D02*
X153090599Y-120446599D01*
D35*
G04 #@! TO.N,-0V5*
X149438000Y-124927000D02*
X150581000Y-124927000D01*
X150581000Y-124927000D02*
X150622000Y-124968000D01*
X150921999Y-125267999D02*
X150622000Y-124968000D01*
X151384000Y-125730000D02*
X150921999Y-125267999D01*
X155929222Y-125730000D02*
X151384000Y-125730000D01*
X156464000Y-121285000D02*
X156464000Y-125195222D01*
X156464000Y-125195222D02*
X155929222Y-125730000D01*
D34*
X186690000Y-129794000D02*
X184259599Y-132224401D01*
D35*
X186690000Y-129794000D02*
X183642000Y-132842000D01*
X183642000Y-132842000D02*
X174022666Y-132842000D01*
X172265901Y-130977433D02*
X172265901Y-113919000D01*
X172265901Y-115369901D02*
X172265901Y-113919000D01*
X172265901Y-113919000D02*
X172265901Y-113664527D01*
X157607000Y-120142000D02*
X156464000Y-121285000D01*
X172265901Y-113664527D02*
X171577473Y-112976099D01*
X171577473Y-112976099D02*
X158550567Y-112976099D01*
X158550567Y-112976099D02*
X157607000Y-113919666D01*
X157607000Y-113919666D02*
X157607000Y-120142000D01*
X172265901Y-131085235D02*
X174022666Y-132842000D01*
X172265901Y-130683000D02*
X172265901Y-131085235D01*
X172265901Y-130683000D02*
X172265901Y-113664527D01*
X172265901Y-130977433D02*
X172265901Y-130683000D01*
D33*
G04 #@! TO.N,/Input-V+*
X166370000Y-86360000D02*
X173355000Y-86360000D01*
X176530000Y-92995000D02*
X176530000Y-95885000D01*
X176530000Y-89021699D02*
X176530000Y-92995000D01*
X173868301Y-86360000D02*
X176530000Y-89021699D01*
X173355000Y-86360000D02*
X173868301Y-86360000D01*
D31*
X171440000Y-102540000D02*
X171450000Y-102550000D01*
X167775000Y-102540000D02*
X171440000Y-102540000D01*
D33*
X176530000Y-98775000D02*
X176530000Y-95885000D01*
X176530000Y-99877000D02*
X176530000Y-98775000D01*
X173857000Y-102550000D02*
X176530000Y-99877000D01*
X171450000Y-102550000D02*
X173857000Y-102550000D01*
D31*
G04 #@! TO.N,Net-(C11-Pad2)*
X164414000Y-101270000D02*
X164338000Y-101346000D01*
X167775000Y-101270000D02*
X164414000Y-101270000D01*
G04 #@! TO.N,Net-(C11-Pad1)*
X167775000Y-103810000D02*
X164414000Y-103810000D01*
X164414000Y-103810000D02*
X164338000Y-103886000D01*
G04 #@! TO.N,/Output-Linear*
X112225000Y-100000000D02*
X115570000Y-100000000D01*
X115570000Y-100000000D02*
X121375000Y-100000000D01*
X140208000Y-112208000D02*
X140000000Y-112000000D01*
X140208000Y-116164000D02*
X140208000Y-112208000D01*
D33*
X132850001Y-113149999D02*
X134000000Y-112000000D01*
X127030999Y-118969001D02*
X132850001Y-113149999D01*
X127030999Y-123728999D02*
X127030999Y-118969001D01*
X129032000Y-125730000D02*
X127030999Y-123728999D01*
D35*
G04 #@! TO.N,/DAC_BUCK*
X160343099Y-117671099D02*
X160343099Y-124021099D01*
X159766000Y-117094000D02*
X160343099Y-117671099D01*
X163068000Y-126746000D02*
X167132000Y-126746000D01*
X160343099Y-124021099D02*
X163068000Y-126746000D01*
G04 #@! TO.N,/I-ADC*
X149438000Y-122977000D02*
X149393000Y-122977000D01*
X147320000Y-121359000D02*
X147320000Y-120904000D01*
X149438000Y-122977000D02*
X148938000Y-122977000D01*
X147955000Y-121994000D02*
X147320000Y-121359000D01*
X148938000Y-122977000D02*
X147955000Y-121994000D01*
D34*
X185420000Y-124714000D02*
X186690000Y-124714000D01*
X183515000Y-126619000D02*
X185420000Y-124714000D01*
D35*
G04 #@! TO.N,/V-ADC*
X155384500Y-123439300D02*
X155384500Y-122407500D01*
X155196800Y-123627000D02*
X155384500Y-123439300D01*
X153838000Y-123627000D02*
X155196800Y-123627000D01*
D34*
X185420000Y-122174000D02*
X186690000Y-122174000D01*
X182245000Y-125349000D02*
X185420000Y-122174000D01*
D31*
G04 #@! TO.N,/Vfb-*
X138684000Y-124206000D02*
X139446000Y-124968000D01*
X138684000Y-122682000D02*
X138684000Y-124206000D01*
X140208000Y-124206000D02*
X139446000Y-124968000D01*
X140208000Y-122850000D02*
X140208000Y-124206000D01*
G04 #@! TO.N,/Vfb+*
X135636000Y-123698000D02*
X136906000Y-124968000D01*
X135636000Y-122682000D02*
X135636000Y-123698000D01*
X137160000Y-124714000D02*
X136906000Y-124968000D01*
X137160000Y-122850000D02*
X137160000Y-124714000D01*
D35*
G04 #@! TO.N,Net-(J5-Pad2)*
X137160000Y-120650000D02*
X137160000Y-121666000D01*
D31*
G04 #@! TO.N,/Vfb-Linear*
X115494000Y-97460000D02*
X115570000Y-97536000D01*
X112225000Y-97460000D02*
X115494000Y-97460000D01*
G04 #@! TO.N,Net-(R5-Pad2)*
X138684000Y-120482000D02*
X138684000Y-119634000D01*
X135636000Y-119634000D02*
X136144000Y-119126000D01*
X135636000Y-120482000D02*
X135636000Y-120332000D01*
X135636000Y-120332000D02*
X135636000Y-119634000D01*
X138176000Y-119126000D02*
X136144000Y-119126000D01*
X138684000Y-119634000D02*
X138176000Y-119126000D01*
D35*
G04 #@! TO.N,Net-(R8-Pad2)*
X149352000Y-119212000D02*
X145202000Y-119212000D01*
G04 #@! TO.N,Net-(R8-Pad1)*
X152681200Y-124927000D02*
X153838000Y-124927000D01*
X152540924Y-124927000D02*
X152681200Y-124927000D01*
X150876000Y-122443800D02*
X150876000Y-123262076D01*
X150876000Y-121412000D02*
X150876000Y-122443800D01*
X150876000Y-123262076D02*
X152540924Y-124927000D01*
D32*
X149352000Y-121412000D02*
X150876000Y-121412000D01*
D35*
G04 #@! TO.N,Net-(R10-Pad1)*
X155054000Y-124277000D02*
X155384500Y-124607500D01*
X153838000Y-124277000D02*
X155054000Y-124277000D01*
X152681200Y-124277000D02*
X153838000Y-124277000D01*
X152400000Y-123995800D02*
X152681200Y-124277000D01*
X152400000Y-121326000D02*
X152400000Y-123995800D01*
G04 #@! TO.N,Net-(R10-Pad2)*
X152400000Y-119126000D02*
X152400000Y-118976000D01*
X152400000Y-118976000D02*
X152400000Y-118872000D01*
X152400000Y-118872000D02*
X151797099Y-118269099D01*
X144874901Y-118269099D02*
X141605000Y-121539000D01*
X145288000Y-118269099D02*
X144874901Y-118269099D01*
X151797099Y-118269099D02*
X145288000Y-118269099D01*
G04 #@! TO.N,Net-(R14-Pad2)*
X147843000Y-123627000D02*
X147320000Y-123104000D01*
X148336000Y-123627000D02*
X147843000Y-123627000D01*
X149438000Y-123627000D02*
X148336000Y-123627000D01*
D31*
G04 #@! TO.N,Net-(R16-Pad2)*
X142662000Y-118364000D02*
X142748000Y-118278000D01*
X141478000Y-118364000D02*
X142662000Y-118364000D01*
X140208000Y-118364000D02*
X141478000Y-118364000D01*
G04 #@! TO.N,/Vfb-Buck*
X170866000Y-97460000D02*
X170942000Y-97536000D01*
X167775000Y-97460000D02*
X170866000Y-97460000D01*
D35*
G04 #@! TO.N,/Output-GND*
X149438000Y-124277000D02*
X146537800Y-124277000D01*
X146537800Y-124277000D02*
X144272000Y-126542800D01*
X144272000Y-126542800D02*
X144272000Y-126974600D01*
X140208000Y-121182778D02*
X141961222Y-122936000D01*
X140208000Y-120650000D02*
X140208000Y-121182778D01*
X145294494Y-124277000D02*
X146537800Y-124277000D01*
X143953494Y-122936000D02*
X145294494Y-124277000D01*
X141961222Y-122936000D02*
X143953494Y-122936000D01*
G04 #@! TO.N,+3V3*
X174117000Y-124417200D02*
X178900200Y-119634000D01*
X174117000Y-125857000D02*
X174117000Y-124417200D01*
X178900200Y-119634000D02*
X186690000Y-119634000D01*
G04 #@! TD*
D36*
G04 #@! TO.N,Net-(C11-Pad1)*
G36*
X170080000Y-104394000D02*
X170087612Y-104432268D01*
X170109289Y-104464711D01*
X171887289Y-106242711D01*
X171919732Y-106264388D01*
X171958000Y-106272000D01*
X180240000Y-106272000D01*
X180240000Y-115216000D01*
X175762593Y-115216000D01*
X172231726Y-111685134D01*
X172202943Y-111642057D01*
X172032294Y-111528033D01*
X171881811Y-111498100D01*
X171881806Y-111498100D01*
X171831000Y-111487994D01*
X171780194Y-111498100D01*
X171583522Y-111498100D01*
X164184000Y-104098578D01*
X164184000Y-103478000D01*
X170080000Y-103478000D01*
X170080000Y-104394000D01*
X170080000Y-104394000D01*
G37*
X170080000Y-104394000D02*
X170087612Y-104432268D01*
X170109289Y-104464711D01*
X171887289Y-106242711D01*
X171919732Y-106264388D01*
X171958000Y-106272000D01*
X180240000Y-106272000D01*
X180240000Y-115216000D01*
X175762593Y-115216000D01*
X172231726Y-111685134D01*
X172202943Y-111642057D01*
X172032294Y-111528033D01*
X171881811Y-111498100D01*
X171881806Y-111498100D01*
X171831000Y-111487994D01*
X171780194Y-111498100D01*
X171583522Y-111498100D01*
X164184000Y-104098578D01*
X164184000Y-103478000D01*
X170080000Y-103478000D01*
X170080000Y-104394000D01*
G04 #@! TO.N,/Output-Buck*
G36*
X171750001Y-113878220D02*
X171750001Y-113969810D01*
X171750002Y-113969815D01*
X171750001Y-115420711D01*
X171750002Y-115420716D01*
X171750001Y-130632189D01*
X171750001Y-131034429D01*
X171739895Y-131085235D01*
X171750001Y-131136041D01*
X171750001Y-131136046D01*
X171779935Y-131286529D01*
X171858000Y-131403362D01*
X171858000Y-131980000D01*
X160628000Y-131980000D01*
X160628000Y-125035592D01*
X162667276Y-127074869D01*
X162696057Y-127117943D01*
X162866706Y-127231967D01*
X163017189Y-127261900D01*
X163017194Y-127261900D01*
X163068000Y-127272006D01*
X163118806Y-127261900D01*
X165929924Y-127261900D01*
X166023131Y-127486922D01*
X166391078Y-127854869D01*
X166780083Y-128016000D01*
X166391078Y-128177131D01*
X166023131Y-128545078D01*
X165824000Y-129025823D01*
X165824000Y-129546177D01*
X166023131Y-130026922D01*
X166391078Y-130394869D01*
X166871823Y-130594000D01*
X167392177Y-130594000D01*
X167872922Y-130394869D01*
X168240869Y-130026922D01*
X168440000Y-129546177D01*
X168440000Y-129025823D01*
X168240869Y-128545078D01*
X167872922Y-128177131D01*
X167483917Y-128016000D01*
X167872922Y-127854869D01*
X168240869Y-127486922D01*
X168440000Y-127006177D01*
X168440000Y-126485823D01*
X168240869Y-126005078D01*
X167872922Y-125637131D01*
X167589846Y-125519877D01*
X168140000Y-125519877D01*
X168257054Y-125496593D01*
X168356288Y-125430288D01*
X168422593Y-125331054D01*
X168445877Y-125214000D01*
X168445877Y-123198000D01*
X168422593Y-123080946D01*
X168356288Y-122981712D01*
X168257054Y-122915407D01*
X168140000Y-122892123D01*
X166124000Y-122892123D01*
X166006946Y-122915407D01*
X165907712Y-122981712D01*
X165841407Y-123080946D01*
X165818123Y-123198000D01*
X165818123Y-125214000D01*
X165841407Y-125331054D01*
X165907712Y-125430288D01*
X166006946Y-125496593D01*
X166124000Y-125519877D01*
X166674154Y-125519877D01*
X166391078Y-125637131D01*
X166023131Y-126005078D01*
X165929924Y-126230100D01*
X163281693Y-126230100D01*
X160858999Y-123807407D01*
X160858999Y-117721904D01*
X160869105Y-117671098D01*
X160858999Y-117620292D01*
X160858999Y-117620288D01*
X160829066Y-117469805D01*
X160715042Y-117299156D01*
X160671968Y-117270375D01*
X160628000Y-117226407D01*
X160628000Y-113491999D01*
X171363781Y-113491999D01*
X171750001Y-113878220D01*
X171750001Y-113878220D01*
G37*
X171750001Y-113878220D02*
X171750001Y-113969810D01*
X171750002Y-113969815D01*
X171750001Y-115420711D01*
X171750002Y-115420716D01*
X171750001Y-130632189D01*
X171750001Y-131034429D01*
X171739895Y-131085235D01*
X171750001Y-131136041D01*
X171750001Y-131136046D01*
X171779935Y-131286529D01*
X171858000Y-131403362D01*
X171858000Y-131980000D01*
X160628000Y-131980000D01*
X160628000Y-125035592D01*
X162667276Y-127074869D01*
X162696057Y-127117943D01*
X162866706Y-127231967D01*
X163017189Y-127261900D01*
X163017194Y-127261900D01*
X163068000Y-127272006D01*
X163118806Y-127261900D01*
X165929924Y-127261900D01*
X166023131Y-127486922D01*
X166391078Y-127854869D01*
X166780083Y-128016000D01*
X166391078Y-128177131D01*
X166023131Y-128545078D01*
X165824000Y-129025823D01*
X165824000Y-129546177D01*
X166023131Y-130026922D01*
X166391078Y-130394869D01*
X166871823Y-130594000D01*
X167392177Y-130594000D01*
X167872922Y-130394869D01*
X168240869Y-130026922D01*
X168440000Y-129546177D01*
X168440000Y-129025823D01*
X168240869Y-128545078D01*
X167872922Y-128177131D01*
X167483917Y-128016000D01*
X167872922Y-127854869D01*
X168240869Y-127486922D01*
X168440000Y-127006177D01*
X168440000Y-126485823D01*
X168240869Y-126005078D01*
X167872922Y-125637131D01*
X167589846Y-125519877D01*
X168140000Y-125519877D01*
X168257054Y-125496593D01*
X168356288Y-125430288D01*
X168422593Y-125331054D01*
X168445877Y-125214000D01*
X168445877Y-123198000D01*
X168422593Y-123080946D01*
X168356288Y-122981712D01*
X168257054Y-122915407D01*
X168140000Y-122892123D01*
X166124000Y-122892123D01*
X166006946Y-122915407D01*
X165907712Y-122981712D01*
X165841407Y-123080946D01*
X165818123Y-123198000D01*
X165818123Y-125214000D01*
X165841407Y-125331054D01*
X165907712Y-125430288D01*
X166006946Y-125496593D01*
X166124000Y-125519877D01*
X166674154Y-125519877D01*
X166391078Y-125637131D01*
X166023131Y-126005078D01*
X165929924Y-126230100D01*
X163281693Y-126230100D01*
X160858999Y-123807407D01*
X160858999Y-117721904D01*
X160869105Y-117671098D01*
X160858999Y-117620292D01*
X160858999Y-117620288D01*
X160829066Y-117469805D01*
X160715042Y-117299156D01*
X160671968Y-117270375D01*
X160628000Y-117226407D01*
X160628000Y-113491999D01*
X171363781Y-113491999D01*
X171750001Y-113878220D01*
G04 #@! TO.N,/Output-Linear*
G36*
X140900000Y-114900000D02*
X117100000Y-114900000D01*
X117100000Y-111612121D01*
X126050000Y-111612121D01*
X126050000Y-112387879D01*
X126346870Y-113104586D01*
X126895414Y-113653130D01*
X127612121Y-113950000D01*
X128387879Y-113950000D01*
X129104586Y-113653130D01*
X129653130Y-113104586D01*
X129950000Y-112387879D01*
X129950000Y-111612121D01*
X129653130Y-110895414D01*
X129104586Y-110346870D01*
X128387879Y-110050000D01*
X127612121Y-110050000D01*
X126895414Y-110346870D01*
X126346870Y-110895414D01*
X126050000Y-111612121D01*
X117100000Y-111612121D01*
X117100000Y-105822520D01*
X117705583Y-105822520D01*
X117705583Y-107538520D01*
X117728867Y-107655574D01*
X117795172Y-107754808D01*
X117894406Y-107821113D01*
X118011460Y-107844397D01*
X119727460Y-107844397D01*
X119844514Y-107821113D01*
X119943748Y-107754808D01*
X120010053Y-107655574D01*
X120033337Y-107538520D01*
X120033337Y-105822520D01*
X120010053Y-105705466D01*
X119943748Y-105606232D01*
X119844514Y-105539927D01*
X119727460Y-105516643D01*
X118011460Y-105516643D01*
X117894406Y-105539927D01*
X117795172Y-105606232D01*
X117728867Y-105705466D01*
X117705583Y-105822520D01*
X117100000Y-105822520D01*
X117100000Y-87612121D01*
X126050000Y-87612121D01*
X126050000Y-88387879D01*
X126346870Y-89104586D01*
X126895414Y-89653130D01*
X127612121Y-89950000D01*
X128387879Y-89950000D01*
X129104586Y-89653130D01*
X129653130Y-89104586D01*
X129950000Y-88387879D01*
X129950000Y-87612121D01*
X129653130Y-86895414D01*
X129104586Y-86346870D01*
X128387879Y-86050000D01*
X127612121Y-86050000D01*
X126895414Y-86346870D01*
X126346870Y-86895414D01*
X126050000Y-87612121D01*
X117100000Y-87612121D01*
X117100000Y-85100000D01*
X140900000Y-85100000D01*
X140900000Y-114900000D01*
X140900000Y-114900000D01*
G37*
X140900000Y-114900000D02*
X117100000Y-114900000D01*
X117100000Y-111612121D01*
X126050000Y-111612121D01*
X126050000Y-112387879D01*
X126346870Y-113104586D01*
X126895414Y-113653130D01*
X127612121Y-113950000D01*
X128387879Y-113950000D01*
X129104586Y-113653130D01*
X129653130Y-113104586D01*
X129950000Y-112387879D01*
X129950000Y-111612121D01*
X129653130Y-110895414D01*
X129104586Y-110346870D01*
X128387879Y-110050000D01*
X127612121Y-110050000D01*
X126895414Y-110346870D01*
X126346870Y-110895414D01*
X126050000Y-111612121D01*
X117100000Y-111612121D01*
X117100000Y-105822520D01*
X117705583Y-105822520D01*
X117705583Y-107538520D01*
X117728867Y-107655574D01*
X117795172Y-107754808D01*
X117894406Y-107821113D01*
X118011460Y-107844397D01*
X119727460Y-107844397D01*
X119844514Y-107821113D01*
X119943748Y-107754808D01*
X120010053Y-107655574D01*
X120033337Y-107538520D01*
X120033337Y-105822520D01*
X120010053Y-105705466D01*
X119943748Y-105606232D01*
X119844514Y-105539927D01*
X119727460Y-105516643D01*
X118011460Y-105516643D01*
X117894406Y-105539927D01*
X117795172Y-105606232D01*
X117728867Y-105705466D01*
X117705583Y-105822520D01*
X117100000Y-105822520D01*
X117100000Y-87612121D01*
X126050000Y-87612121D01*
X126050000Y-88387879D01*
X126346870Y-89104586D01*
X126895414Y-89653130D01*
X127612121Y-89950000D01*
X128387879Y-89950000D01*
X129104586Y-89653130D01*
X129653130Y-89104586D01*
X129950000Y-88387879D01*
X129950000Y-87612121D01*
X129653130Y-86895414D01*
X129104586Y-86346870D01*
X128387879Y-86050000D01*
X127612121Y-86050000D01*
X126895414Y-86346870D01*
X126346870Y-86895414D01*
X126050000Y-87612121D01*
X117100000Y-87612121D01*
X117100000Y-85100000D01*
X140900000Y-85100000D01*
X140900000Y-114900000D01*
G04 #@! TO.N,GND*
G36*
X162900000Y-108958578D02*
X160360478Y-111498100D01*
X157657805Y-111498100D01*
X157606999Y-111487994D01*
X157556193Y-111498100D01*
X157556189Y-111498100D01*
X157405706Y-111528033D01*
X157235057Y-111642057D01*
X157206274Y-111685134D01*
X156475132Y-112416276D01*
X156432058Y-112445057D01*
X156403277Y-112488131D01*
X156403275Y-112488133D01*
X156318034Y-112615706D01*
X156277994Y-112817000D01*
X156288101Y-112867811D01*
X156288100Y-114866615D01*
X156274272Y-114900000D01*
X142100000Y-114900000D01*
X142100000Y-111612121D01*
X150050000Y-111612121D01*
X150050000Y-112387879D01*
X150346870Y-113104586D01*
X150895414Y-113653130D01*
X151612121Y-113950000D01*
X152387879Y-113950000D01*
X153104586Y-113653130D01*
X153653130Y-113104586D01*
X153950000Y-112387879D01*
X153950000Y-111612121D01*
X153653130Y-110895414D01*
X153104586Y-110346870D01*
X152387879Y-110050000D01*
X151612121Y-110050000D01*
X150895414Y-110346870D01*
X150346870Y-110895414D01*
X150050000Y-111612121D01*
X142100000Y-111612121D01*
X142100000Y-87612121D01*
X150050000Y-87612121D01*
X150050000Y-88387879D01*
X150346870Y-89104586D01*
X150895414Y-89653130D01*
X151612121Y-89950000D01*
X152387879Y-89950000D01*
X153104586Y-89653130D01*
X153653130Y-89104586D01*
X153950000Y-88387879D01*
X153950000Y-87612121D01*
X153653130Y-86895414D01*
X153104586Y-86346870D01*
X152387879Y-86050000D01*
X151612121Y-86050000D01*
X150895414Y-86346870D01*
X150346870Y-86895414D01*
X150050000Y-87612121D01*
X142100000Y-87612121D01*
X142100000Y-85100000D01*
X162900000Y-85100000D01*
X162900000Y-108958578D01*
X162900000Y-108958578D01*
G37*
X162900000Y-108958578D02*
X160360478Y-111498100D01*
X157657805Y-111498100D01*
X157606999Y-111487994D01*
X157556193Y-111498100D01*
X157556189Y-111498100D01*
X157405706Y-111528033D01*
X157235057Y-111642057D01*
X157206274Y-111685134D01*
X156475132Y-112416276D01*
X156432058Y-112445057D01*
X156403277Y-112488131D01*
X156403275Y-112488133D01*
X156318034Y-112615706D01*
X156277994Y-112817000D01*
X156288101Y-112867811D01*
X156288100Y-114866615D01*
X156274272Y-114900000D01*
X142100000Y-114900000D01*
X142100000Y-111612121D01*
X150050000Y-111612121D01*
X150050000Y-112387879D01*
X150346870Y-113104586D01*
X150895414Y-113653130D01*
X151612121Y-113950000D01*
X152387879Y-113950000D01*
X153104586Y-113653130D01*
X153653130Y-113104586D01*
X153950000Y-112387879D01*
X153950000Y-111612121D01*
X153653130Y-110895414D01*
X153104586Y-110346870D01*
X152387879Y-110050000D01*
X151612121Y-110050000D01*
X150895414Y-110346870D01*
X150346870Y-110895414D01*
X150050000Y-111612121D01*
X142100000Y-111612121D01*
X142100000Y-87612121D01*
X150050000Y-87612121D01*
X150050000Y-88387879D01*
X150346870Y-89104586D01*
X150895414Y-89653130D01*
X151612121Y-89950000D01*
X152387879Y-89950000D01*
X153104586Y-89653130D01*
X153653130Y-89104586D01*
X153950000Y-88387879D01*
X153950000Y-87612121D01*
X153653130Y-86895414D01*
X153104586Y-86346870D01*
X152387879Y-86050000D01*
X151612121Y-86050000D01*
X150895414Y-86346870D01*
X150346870Y-86895414D01*
X150050000Y-87612121D01*
X142100000Y-87612121D01*
X142100000Y-85100000D01*
X162900000Y-85100000D01*
X162900000Y-108958578D01*
G36*
X159900000Y-114900000D02*
X158122900Y-114900000D01*
X158122900Y-114133358D01*
X158764260Y-113491999D01*
X159900000Y-113491999D01*
X159900000Y-114900000D01*
X159900000Y-114900000D01*
G37*
X159900000Y-114900000D02*
X158122900Y-114900000D01*
X158122900Y-114133358D01*
X158764260Y-113491999D01*
X159900000Y-113491999D01*
X159900000Y-114900000D01*
G36*
X159900000Y-116500069D02*
X159885347Y-116494000D01*
X159646653Y-116494000D01*
X159426127Y-116585344D01*
X159257344Y-116754127D01*
X159166000Y-116974653D01*
X159166000Y-117213347D01*
X159257344Y-117433873D01*
X159426127Y-117602656D01*
X159629163Y-117686756D01*
X159827199Y-117884792D01*
X159827200Y-123900000D01*
X158041422Y-123900000D01*
X156979900Y-122838478D01*
X156979900Y-121607384D01*
X157056756Y-121421837D01*
X157935868Y-120542724D01*
X157978943Y-120513943D01*
X158092967Y-120343294D01*
X158122900Y-120192811D01*
X158122900Y-120192807D01*
X158133006Y-120142001D01*
X158122900Y-120091195D01*
X158122900Y-115100000D01*
X159900000Y-115100000D01*
X159900000Y-116500069D01*
X159900000Y-116500069D01*
G37*
X159900000Y-116500069D02*
X159885347Y-116494000D01*
X159646653Y-116494000D01*
X159426127Y-116585344D01*
X159257344Y-116754127D01*
X159166000Y-116974653D01*
X159166000Y-117213347D01*
X159257344Y-117433873D01*
X159426127Y-117602656D01*
X159629163Y-117686756D01*
X159827199Y-117884792D01*
X159827200Y-123900000D01*
X158041422Y-123900000D01*
X156979900Y-122838478D01*
X156979900Y-121607384D01*
X157056756Y-121421837D01*
X157935868Y-120542724D01*
X157978943Y-120513943D01*
X158092967Y-120343294D01*
X158122900Y-120192811D01*
X158122900Y-120192807D01*
X158133006Y-120142001D01*
X158122900Y-120091195D01*
X158122900Y-115100000D01*
X159900000Y-115100000D01*
X159900000Y-116500069D01*
G36*
X156204000Y-115308347D02*
X156288100Y-115511384D01*
X156288101Y-118993106D01*
X154711315Y-120569893D01*
X153155877Y-119014455D01*
X153155877Y-118526000D01*
X153132593Y-118408946D01*
X153066288Y-118309712D01*
X152967054Y-118243407D01*
X152850000Y-118220123D01*
X152477716Y-118220123D01*
X152197825Y-117940233D01*
X152169042Y-117897156D01*
X151998393Y-117783132D01*
X151906220Y-117764798D01*
X149241422Y-115100000D01*
X156204000Y-115100000D01*
X156204000Y-115308347D01*
X156204000Y-115308347D01*
G37*
X156204000Y-115308347D02*
X156288100Y-115511384D01*
X156288101Y-118993106D01*
X154711315Y-120569893D01*
X153155877Y-119014455D01*
X153155877Y-118526000D01*
X153132593Y-118408946D01*
X153066288Y-118309712D01*
X152967054Y-118243407D01*
X152850000Y-118220123D01*
X152477716Y-118220123D01*
X152197825Y-117940233D01*
X152169042Y-117897156D01*
X151998393Y-117783132D01*
X151906220Y-117764798D01*
X149241422Y-115100000D01*
X156204000Y-115100000D01*
X156204000Y-115308347D01*
G04 #@! TO.N,/Output-Buck*
G36*
X114708000Y-127000000D02*
X114715612Y-127038268D01*
X114737289Y-127070711D01*
X114769732Y-127092388D01*
X114808000Y-127100000D01*
X134322123Y-127100000D01*
X134322123Y-128770000D01*
X134345407Y-128887054D01*
X134411712Y-128986288D01*
X134510946Y-129052593D01*
X134628000Y-129075877D01*
X136644000Y-129075877D01*
X136761054Y-129052593D01*
X136860288Y-128986288D01*
X136926593Y-128887054D01*
X136949877Y-128770000D01*
X136949877Y-128219846D01*
X137067131Y-128502922D01*
X137435078Y-128870869D01*
X137915823Y-129070000D01*
X138436177Y-129070000D01*
X138916922Y-128870869D01*
X139284869Y-128502922D01*
X139484000Y-128022177D01*
X139484000Y-127501823D01*
X139317560Y-127100000D01*
X143674507Y-127100000D01*
X143763344Y-127314473D01*
X143932127Y-127483256D01*
X144152653Y-127574600D01*
X144391347Y-127574600D01*
X144611873Y-127483256D01*
X144780656Y-127314473D01*
X144869493Y-127100000D01*
X160528000Y-127100000D01*
X160566268Y-127092388D01*
X160598711Y-127070711D01*
X160620388Y-127038268D01*
X160628000Y-127000000D01*
X160628000Y-125035592D01*
X162667276Y-127074869D01*
X162696057Y-127117943D01*
X162866706Y-127231967D01*
X163017189Y-127261900D01*
X163017194Y-127261900D01*
X163068000Y-127272006D01*
X163118806Y-127261900D01*
X165929924Y-127261900D01*
X166023131Y-127486922D01*
X166391078Y-127854869D01*
X166780083Y-128016000D01*
X166391078Y-128177131D01*
X166023131Y-128545078D01*
X165824000Y-129025823D01*
X165824000Y-129546177D01*
X166023131Y-130026922D01*
X166391078Y-130394869D01*
X166871823Y-130594000D01*
X167392177Y-130594000D01*
X167872922Y-130394869D01*
X168240869Y-130026922D01*
X168440000Y-129546177D01*
X168440000Y-129025823D01*
X168240869Y-128545078D01*
X167872922Y-128177131D01*
X167483917Y-128016000D01*
X167872922Y-127854869D01*
X168240869Y-127486922D01*
X168440000Y-127006177D01*
X168440000Y-126485823D01*
X168240869Y-126005078D01*
X167872922Y-125637131D01*
X167589846Y-125519877D01*
X168140000Y-125519877D01*
X168257054Y-125496593D01*
X168356288Y-125430288D01*
X168422593Y-125331054D01*
X168445877Y-125214000D01*
X168445877Y-123198000D01*
X168422593Y-123080946D01*
X168356288Y-122981712D01*
X168257054Y-122915407D01*
X168140000Y-122892123D01*
X166124000Y-122892123D01*
X166006946Y-122915407D01*
X165907712Y-122981712D01*
X165841407Y-123080946D01*
X165818123Y-123198000D01*
X165818123Y-125214000D01*
X165841407Y-125331054D01*
X165907712Y-125430288D01*
X166006946Y-125496593D01*
X166124000Y-125519877D01*
X166674154Y-125519877D01*
X166391078Y-125637131D01*
X166023131Y-126005078D01*
X165929924Y-126230100D01*
X163281693Y-126230100D01*
X160858999Y-123807407D01*
X160858999Y-117721904D01*
X160869105Y-117671098D01*
X160858999Y-117620292D01*
X160858999Y-117620288D01*
X160829066Y-117469805D01*
X160715042Y-117299156D01*
X160671968Y-117270375D01*
X160628000Y-117226407D01*
X160628000Y-113491999D01*
X171363781Y-113491999D01*
X171750001Y-113878220D01*
X171750001Y-113969810D01*
X171750002Y-113969815D01*
X171750001Y-115420711D01*
X171750002Y-115420715D01*
X171750002Y-122446123D01*
X171750001Y-130632189D01*
X171750001Y-131034429D01*
X171739895Y-131085235D01*
X171750001Y-131136041D01*
X171750001Y-131136046D01*
X171779935Y-131286529D01*
X171858000Y-131403362D01*
X171858000Y-134520000D01*
X112182440Y-134520000D01*
X111865070Y-133753800D01*
X111246200Y-133134930D01*
X110437607Y-132800000D01*
X109828000Y-132800000D01*
X109828000Y-130529931D01*
X116956000Y-130529931D01*
X116956000Y-131090069D01*
X117170356Y-131607568D01*
X117566432Y-132003644D01*
X118083931Y-132218000D01*
X118644069Y-132218000D01*
X119161568Y-132003644D01*
X119557644Y-131607568D01*
X119772000Y-131090069D01*
X119772000Y-130529931D01*
X119557644Y-130012432D01*
X119247212Y-129702000D01*
X122030123Y-129702000D01*
X122030123Y-131918000D01*
X122053407Y-132035054D01*
X122119712Y-132134288D01*
X122218946Y-132200593D01*
X122336000Y-132223877D01*
X124552000Y-132223877D01*
X124669054Y-132200593D01*
X124768288Y-132134288D01*
X124834593Y-132035054D01*
X124857877Y-131918000D01*
X124857877Y-130529931D01*
X155056000Y-130529931D01*
X155056000Y-131090069D01*
X155270356Y-131607568D01*
X155666432Y-132003644D01*
X156183931Y-132218000D01*
X156744069Y-132218000D01*
X157261568Y-132003644D01*
X157657644Y-131607568D01*
X157872000Y-131090069D01*
X157872000Y-130529931D01*
X157657644Y-130012432D01*
X157261568Y-129616356D01*
X156744069Y-129402000D01*
X156183931Y-129402000D01*
X155666432Y-129616356D01*
X155270356Y-130012432D01*
X155056000Y-130529931D01*
X124857877Y-130529931D01*
X124857877Y-129702000D01*
X124834593Y-129584946D01*
X124768288Y-129485712D01*
X124669054Y-129419407D01*
X124552000Y-129396123D01*
X122336000Y-129396123D01*
X122218946Y-129419407D01*
X122119712Y-129485712D01*
X122053407Y-129584946D01*
X122030123Y-129702000D01*
X119247212Y-129702000D01*
X119161568Y-129616356D01*
X118644069Y-129402000D01*
X118083931Y-129402000D01*
X117566432Y-129616356D01*
X117170356Y-130012432D01*
X116956000Y-130529931D01*
X109828000Y-130529931D01*
X109828000Y-101954000D01*
X114708000Y-101954000D01*
X114708000Y-127000000D01*
X114708000Y-127000000D01*
G37*
X114708000Y-127000000D02*
X114715612Y-127038268D01*
X114737289Y-127070711D01*
X114769732Y-127092388D01*
X114808000Y-127100000D01*
X134322123Y-127100000D01*
X134322123Y-128770000D01*
X134345407Y-128887054D01*
X134411712Y-128986288D01*
X134510946Y-129052593D01*
X134628000Y-129075877D01*
X136644000Y-129075877D01*
X136761054Y-129052593D01*
X136860288Y-128986288D01*
X136926593Y-128887054D01*
X136949877Y-128770000D01*
X136949877Y-128219846D01*
X137067131Y-128502922D01*
X137435078Y-128870869D01*
X137915823Y-129070000D01*
X138436177Y-129070000D01*
X138916922Y-128870869D01*
X139284869Y-128502922D01*
X139484000Y-128022177D01*
X139484000Y-127501823D01*
X139317560Y-127100000D01*
X143674507Y-127100000D01*
X143763344Y-127314473D01*
X143932127Y-127483256D01*
X144152653Y-127574600D01*
X144391347Y-127574600D01*
X144611873Y-127483256D01*
X144780656Y-127314473D01*
X144869493Y-127100000D01*
X160528000Y-127100000D01*
X160566268Y-127092388D01*
X160598711Y-127070711D01*
X160620388Y-127038268D01*
X160628000Y-127000000D01*
X160628000Y-125035592D01*
X162667276Y-127074869D01*
X162696057Y-127117943D01*
X162866706Y-127231967D01*
X163017189Y-127261900D01*
X163017194Y-127261900D01*
X163068000Y-127272006D01*
X163118806Y-127261900D01*
X165929924Y-127261900D01*
X166023131Y-127486922D01*
X166391078Y-127854869D01*
X166780083Y-128016000D01*
X166391078Y-128177131D01*
X166023131Y-128545078D01*
X165824000Y-129025823D01*
X165824000Y-129546177D01*
X166023131Y-130026922D01*
X166391078Y-130394869D01*
X166871823Y-130594000D01*
X167392177Y-130594000D01*
X167872922Y-130394869D01*
X168240869Y-130026922D01*
X168440000Y-129546177D01*
X168440000Y-129025823D01*
X168240869Y-128545078D01*
X167872922Y-128177131D01*
X167483917Y-128016000D01*
X167872922Y-127854869D01*
X168240869Y-127486922D01*
X168440000Y-127006177D01*
X168440000Y-126485823D01*
X168240869Y-126005078D01*
X167872922Y-125637131D01*
X167589846Y-125519877D01*
X168140000Y-125519877D01*
X168257054Y-125496593D01*
X168356288Y-125430288D01*
X168422593Y-125331054D01*
X168445877Y-125214000D01*
X168445877Y-123198000D01*
X168422593Y-123080946D01*
X168356288Y-122981712D01*
X168257054Y-122915407D01*
X168140000Y-122892123D01*
X166124000Y-122892123D01*
X166006946Y-122915407D01*
X165907712Y-122981712D01*
X165841407Y-123080946D01*
X165818123Y-123198000D01*
X165818123Y-125214000D01*
X165841407Y-125331054D01*
X165907712Y-125430288D01*
X166006946Y-125496593D01*
X166124000Y-125519877D01*
X166674154Y-125519877D01*
X166391078Y-125637131D01*
X166023131Y-126005078D01*
X165929924Y-126230100D01*
X163281693Y-126230100D01*
X160858999Y-123807407D01*
X160858999Y-117721904D01*
X160869105Y-117671098D01*
X160858999Y-117620292D01*
X160858999Y-117620288D01*
X160829066Y-117469805D01*
X160715042Y-117299156D01*
X160671968Y-117270375D01*
X160628000Y-117226407D01*
X160628000Y-113491999D01*
X171363781Y-113491999D01*
X171750001Y-113878220D01*
X171750001Y-113969810D01*
X171750002Y-113969815D01*
X171750001Y-115420711D01*
X171750002Y-115420715D01*
X171750002Y-122446123D01*
X171750001Y-130632189D01*
X171750001Y-131034429D01*
X171739895Y-131085235D01*
X171750001Y-131136041D01*
X171750001Y-131136046D01*
X171779935Y-131286529D01*
X171858000Y-131403362D01*
X171858000Y-134520000D01*
X112182440Y-134520000D01*
X111865070Y-133753800D01*
X111246200Y-133134930D01*
X110437607Y-132800000D01*
X109828000Y-132800000D01*
X109828000Y-130529931D01*
X116956000Y-130529931D01*
X116956000Y-131090069D01*
X117170356Y-131607568D01*
X117566432Y-132003644D01*
X118083931Y-132218000D01*
X118644069Y-132218000D01*
X119161568Y-132003644D01*
X119557644Y-131607568D01*
X119772000Y-131090069D01*
X119772000Y-130529931D01*
X119557644Y-130012432D01*
X119247212Y-129702000D01*
X122030123Y-129702000D01*
X122030123Y-131918000D01*
X122053407Y-132035054D01*
X122119712Y-132134288D01*
X122218946Y-132200593D01*
X122336000Y-132223877D01*
X124552000Y-132223877D01*
X124669054Y-132200593D01*
X124768288Y-132134288D01*
X124834593Y-132035054D01*
X124857877Y-131918000D01*
X124857877Y-130529931D01*
X155056000Y-130529931D01*
X155056000Y-131090069D01*
X155270356Y-131607568D01*
X155666432Y-132003644D01*
X156183931Y-132218000D01*
X156744069Y-132218000D01*
X157261568Y-132003644D01*
X157657644Y-131607568D01*
X157872000Y-131090069D01*
X157872000Y-130529931D01*
X157657644Y-130012432D01*
X157261568Y-129616356D01*
X156744069Y-129402000D01*
X156183931Y-129402000D01*
X155666432Y-129616356D01*
X155270356Y-130012432D01*
X155056000Y-130529931D01*
X124857877Y-130529931D01*
X124857877Y-129702000D01*
X124834593Y-129584946D01*
X124768288Y-129485712D01*
X124669054Y-129419407D01*
X124552000Y-129396123D01*
X122336000Y-129396123D01*
X122218946Y-129419407D01*
X122119712Y-129485712D01*
X122053407Y-129584946D01*
X122030123Y-129702000D01*
X119247212Y-129702000D01*
X119161568Y-129616356D01*
X118644069Y-129402000D01*
X118083931Y-129402000D01*
X117566432Y-129616356D01*
X117170356Y-130012432D01*
X116956000Y-130529931D01*
X109828000Y-130529931D01*
X109828000Y-101954000D01*
X114708000Y-101954000D01*
X114708000Y-127000000D01*
G04 #@! TD*
M02*
