M48
;DRILL file {KiCad (5.0.0)} date 10/21/18 14:19:49
;FORMAT={-:-/ absolute / metric / decimal}
FMAT,2
METRIC,TZ
T1C0.300
T2C0.700
T3C1.000
T4C1.100
T5C1.200
T6C1.600
T7C2.000
T8C3.000
T9C3.400
%
G90
G05
M71
T1
X115.57Y-97.536
X115.57Y-100.
X137.16Y-121.666
X138.176Y-119.126
X141.478Y-118.364
X141.478Y-121.539
X142.24Y-122.047
X144.272Y-124.206
X144.272Y-126.975
X145.202Y-119.212
X147.955Y-121.994
X148.26Y-123.622
X150.622Y-124.968
X154.813Y-119.761
X155.385Y-123.439
X156.464Y-121.285
X156.804Y-115.189
X159.766Y-117.094
X164.338Y-101.346
X164.338Y-103.886
X170.942Y-97.536
X182.245Y-125.349
X183.515Y-126.619
T2
X159.004Y-114.3
X161.544Y-114.3
X123.952Y-118.618
X134.111Y-118.621
X136.653Y-116.335
X146.812Y-116.332
X173.99Y-95.885
X176.53Y-95.885
X118.869Y-106.681
X118.872Y-116.84
X159.004Y-122.682
X161.544Y-122.682
X129.032Y-125.73
X131.572Y-125.73
X118.873Y-120.647
X129.032Y-120.65
X123.953Y-116.329
X134.112Y-116.332
X173.355Y-86.36
X173.355Y-88.9
T3
X174.117Y-125.857
X174.117Y-128.397
X174.117Y-130.937
X167.132Y-124.206
X167.132Y-126.746
X167.132Y-129.286
X186.69Y-117.094
X186.69Y-119.634
X186.69Y-122.174
X186.69Y-124.714
X186.69Y-127.254
X186.69Y-129.794
X186.69Y-132.334
X136.906Y-124.968
X139.446Y-124.968
X135.636Y-127.762
X138.176Y-127.762
X140.716Y-127.762
T4
X118.364Y-130.81
X123.444Y-130.81
X156.464Y-130.81
X161.544Y-130.81
X161.29Y-86.36
X166.37Y-86.36
T5
X170.942Y-114.3
X178.562Y-114.3
T6
X158.562Y-107.95
X178.562Y-107.95
T7
X128.Y-94.
X128.Y-97.
X128.Y-100.
X128.Y-103.
X128.Y-106.
X131.Y-91.
X131.Y-94.
X131.Y-97.
X131.Y-100.
X131.Y-103.
X131.Y-106.
X131.Y-109.
X134.Y-88.
X134.Y-91.
X134.Y-94.
X134.Y-106.
X134.Y-109.
X134.Y-112.
X137.Y-88.
X137.Y-91.
X137.Y-109.
X137.Y-112.
X140.Y-88.
X140.Y-91.
X140.Y-109.
X140.Y-112.
X143.Y-88.
X143.Y-91.
X143.Y-109.
X143.Y-112.
X146.Y-88.
X146.Y-91.
X146.Y-94.
X146.Y-106.
X146.Y-109.
X146.Y-112.
X149.Y-91.
X149.Y-94.
X149.Y-97.
X149.Y-100.
X149.Y-103.
X149.Y-106.
X149.Y-109.
X152.Y-94.
X152.Y-97.
X152.Y-100.
X152.Y-103.
X152.Y-106.
T8
X128.Y-88.
X128.Y-112.
X152.Y-88.
X152.Y-112.
T9
X195.Y-135.
X110.Y-85.
X110.Y-135.
X195.Y-85.
T0
M30
