%FSLAX45Y45*%
G04 Gerber Fmt 4.5, Leading zero omitted, Abs format (unit mm)*
G04 Created by KiCad (PCBNEW (5.0.0)) date 10/21/18 14:19:50*
%MOMM*%
%LPD*%
G01*
G04 APERTURE LIST*
%ADD10C,0.150000*%
%ADD11C,0.200000*%
%ADD12C,0.300000*%
G04 APERTURE END LIST*
D10*
X11000000Y-14000000D02*
G75*
G02X10500000Y-13500000I0J500000D01*
G01*
X10500000Y-8500000D02*
G75*
G02X11000000Y-8000000I500000J0D01*
G01*
X19500000Y-8000000D02*
G75*
G02X20000000Y-8500000I0J-500000D01*
G01*
X20000000Y-13500000D02*
G75*
G02X19500000Y-14000000I-500000J0D01*
G01*
X20000000Y-8500000D02*
X20000000Y-13500000D01*
X11000000Y-8000000D02*
X19500000Y-8000000D01*
X10500000Y-13500000D02*
X10500000Y-8500000D01*
X19500000Y-14000000D02*
X11000000Y-14000000D01*
D11*
D12*
X10778928Y-14473214D02*
X10778928Y-14173214D01*
X10850357Y-14173214D01*
X10893214Y-14187500D01*
X10921786Y-14216071D01*
X10936071Y-14244643D01*
X10950357Y-14301786D01*
X10950357Y-14344643D01*
X10936071Y-14401786D01*
X10921786Y-14430357D01*
X10893214Y-14458929D01*
X10850357Y-14473214D01*
X10778928Y-14473214D01*
X11078928Y-14473214D02*
X11078928Y-14273214D01*
X11078928Y-14330357D02*
X11093214Y-14301786D01*
X11107500Y-14287500D01*
X11136071Y-14273214D01*
X11164643Y-14273214D01*
X11264643Y-14473214D02*
X11264643Y-14273214D01*
X11264643Y-14173214D02*
X11250357Y-14187500D01*
X11264643Y-14201786D01*
X11278928Y-14187500D01*
X11264643Y-14173214D01*
X11264643Y-14201786D01*
X11450357Y-14473214D02*
X11421786Y-14458929D01*
X11407500Y-14430357D01*
X11407500Y-14173214D01*
X11607500Y-14473214D02*
X11578928Y-14458929D01*
X11564643Y-14430357D01*
X11564643Y-14173214D01*
X11950357Y-14473214D02*
X11950357Y-14173214D01*
X12050357Y-14387500D01*
X12150357Y-14173214D01*
X12150357Y-14473214D01*
X12421786Y-14473214D02*
X12421786Y-14316071D01*
X12407500Y-14287500D01*
X12378928Y-14273214D01*
X12321786Y-14273214D01*
X12293214Y-14287500D01*
X12421786Y-14458929D02*
X12393214Y-14473214D01*
X12321786Y-14473214D01*
X12293214Y-14458929D01*
X12278928Y-14430357D01*
X12278928Y-14401786D01*
X12293214Y-14373214D01*
X12321786Y-14358929D01*
X12393214Y-14358929D01*
X12421786Y-14344643D01*
X12564643Y-14273214D02*
X12564643Y-14573214D01*
X12564643Y-14287500D02*
X12593214Y-14273214D01*
X12650357Y-14273214D01*
X12678928Y-14287500D01*
X12693214Y-14301786D01*
X12707500Y-14330357D01*
X12707500Y-14416071D01*
X12693214Y-14444643D01*
X12678928Y-14458929D01*
X12650357Y-14473214D01*
X12593214Y-14473214D01*
X12564643Y-14458929D01*
X12836071Y-14444643D02*
X12850357Y-14458929D01*
X12836071Y-14473214D01*
X12821786Y-14458929D01*
X12836071Y-14444643D01*
X12836071Y-14473214D01*
X12836071Y-14287500D02*
X12850357Y-14301786D01*
X12836071Y-14316071D01*
X12821786Y-14301786D01*
X12836071Y-14287500D01*
X12836071Y-14316071D01*
M02*
