G04 #@! TF.GenerationSoftware,KiCad,Pcbnew,(5.0.0)*
G04 #@! TF.CreationDate,2018-10-21T14:19:47+08:00*
G04 #@! TF.ProjectId,PSU 4CH V1_PCBV2,505355203443482056315F5043425632,rev?*
G04 #@! TF.SameCoordinates,Original*
G04 #@! TF.FileFunction,Copper,L2,Bot,Signal*
G04 #@! TF.FilePolarity,Positive*
%FSLAX46Y46*%
G04 Gerber Fmt 4.6, Leading zero omitted, Abs format (unit mm)*
G04 Created by KiCad (PCBNEW (5.0.0)) date 10/21/18 14:19:47*
%MOMM*%
%LPD*%
G01*
G04 APERTURE LIST*
G04 #@! TA.AperFunction,SMDPad,CuDef*
%ADD10R,1.200000X0.750000*%
G04 #@! TD*
G04 #@! TA.AperFunction,SMDPad,CuDef*
%ADD11R,0.750000X1.200000*%
G04 #@! TD*
G04 #@! TA.AperFunction,ComponentPad*
%ADD12C,1.716000*%
G04 #@! TD*
G04 #@! TA.AperFunction,ComponentPad*
%ADD13R,1.716000X1.716000*%
G04 #@! TD*
G04 #@! TA.AperFunction,SMDPad,CuDef*
%ADD14R,1.250000X1.500000*%
G04 #@! TD*
G04 #@! TA.AperFunction,ComponentPad*
%ADD15O,3.200000X3.200000*%
G04 #@! TD*
G04 #@! TA.AperFunction,ComponentPad*
%ADD16R,3.200000X3.200000*%
G04 #@! TD*
G04 #@! TA.AperFunction,ComponentPad*
%ADD17R,2.016000X2.016000*%
G04 #@! TD*
G04 #@! TA.AperFunction,ComponentPad*
%ADD18C,2.016000*%
G04 #@! TD*
G04 #@! TA.AperFunction,ComponentPad*
%ADD19C,2.216000*%
G04 #@! TD*
G04 #@! TA.AperFunction,ComponentPad*
%ADD20R,2.216000X2.216000*%
G04 #@! TD*
G04 #@! TA.AperFunction,ComponentPad*
%ADD21C,1.962000*%
G04 #@! TD*
G04 #@! TA.AperFunction,ComponentPad*
%ADD22R,1.962000X1.962000*%
G04 #@! TD*
G04 #@! TA.AperFunction,SMDPad,CuDef*
%ADD23R,0.900000X0.800000*%
G04 #@! TD*
G04 #@! TA.AperFunction,SMDPad,CuDef*
%ADD24R,0.900000X1.200000*%
G04 #@! TD*
G04 #@! TA.AperFunction,SMDPad,CuDef*
%ADD25R,1.200000X0.900000*%
G04 #@! TD*
G04 #@! TA.AperFunction,SMDPad,CuDef*
%ADD26R,1.300000X1.500000*%
G04 #@! TD*
G04 #@! TA.AperFunction,SMDPad,CuDef*
%ADD27R,1.450000X0.450000*%
G04 #@! TD*
G04 #@! TA.AperFunction,ComponentPad*
%ADD28C,3.800000*%
G04 #@! TD*
G04 #@! TA.AperFunction,ViaPad*
%ADD29C,3.300000*%
G04 #@! TD*
G04 #@! TA.AperFunction,ViaPad*
%ADD30C,2.300000*%
G04 #@! TD*
G04 #@! TA.AperFunction,ViaPad*
%ADD31C,0.600000*%
G04 #@! TD*
G04 #@! TA.AperFunction,Conductor*
%ADD32C,0.863600*%
G04 #@! TD*
G04 #@! TA.AperFunction,Conductor*
%ADD33C,0.736600*%
G04 #@! TD*
G04 #@! TA.AperFunction,Conductor*
%ADD34C,0.431800*%
G04 #@! TD*
G04 #@! TA.AperFunction,Conductor*
%ADD35C,0.304800*%
G04 #@! TD*
G04 #@! TA.AperFunction,Conductor*
%ADD36C,2.032000*%
G04 #@! TD*
G04 #@! TA.AperFunction,Conductor*
%ADD37C,1.270000*%
G04 #@! TD*
G04 #@! TA.AperFunction,Conductor*
%ADD38C,0.203200*%
G04 #@! TD*
G04 #@! TA.AperFunction,Conductor*
%ADD39C,0.200000*%
G04 #@! TD*
G04 APERTURE END LIST*
D10*
G04 #@! TO.P,C1,1*
G04 #@! TO.N,+5V*
X141224000Y-123698000D03*
G04 #@! TO.P,C1,2*
G04 #@! TO.N,GND*
X143124000Y-123698000D03*
G04 #@! TD*
D11*
G04 #@! TO.P,C3,2*
G04 #@! TO.N,GND*
X156718000Y-112268000D03*
G04 #@! TO.P,C3,1*
G04 #@! TO.N,+5V*
X156718000Y-114168000D03*
G04 #@! TD*
G04 #@! TO.P,C4,2*
G04 #@! TO.N,-0V5*
X145796000Y-122052000D03*
G04 #@! TO.P,C4,1*
G04 #@! TO.N,GND*
X145796000Y-123952000D03*
G04 #@! TD*
G04 #@! TO.P,C5,1*
G04 #@! TO.N,GND*
X151892000Y-123068000D03*
G04 #@! TO.P,C5,2*
G04 #@! TO.N,-0V5*
X151892000Y-124968000D03*
G04 #@! TD*
G04 #@! TO.P,C6,2*
G04 #@! TO.N,-0V5*
X157734000Y-119126000D03*
G04 #@! TO.P,C6,1*
G04 #@! TO.N,GND*
X157734000Y-121026000D03*
G04 #@! TD*
G04 #@! TO.P,C7,1*
G04 #@! TO.N,GND*
X118872000Y-93284000D03*
G04 #@! TO.P,C7,2*
G04 #@! TO.N,-2V8*
X118872000Y-95184000D03*
G04 #@! TD*
D12*
G04 #@! TO.P,C9,2*
G04 #@! TO.N,GND*
X173990000Y-95885000D03*
D13*
G04 #@! TO.P,C9,1*
G04 #@! TO.N,/Input-V+*
X176530000Y-95885000D03*
G04 #@! TD*
G04 #@! TO.P,C10,1*
G04 #@! TO.N,/Input-V+*
X173355000Y-86360000D03*
D12*
G04 #@! TO.P,C10,2*
G04 #@! TO.N,GND*
X173355000Y-88900000D03*
G04 #@! TD*
D14*
G04 #@! TO.P,C11,2*
G04 #@! TO.N,Net-(C11-Pad2)*
X162560000Y-101366000D03*
G04 #@! TO.P,C11,1*
G04 #@! TO.N,Net-(C11-Pad1)*
X162560000Y-103866000D03*
G04 #@! TD*
D12*
G04 #@! TO.P,C12,2*
G04 #@! TO.N,GND*
X159004000Y-114300000D03*
D13*
G04 #@! TO.P,C12,1*
G04 #@! TO.N,/Output-Buck*
X161544000Y-114300000D03*
G04 #@! TD*
G04 #@! TO.P,C13,1*
G04 #@! TO.N,/Output-Buck*
X161544000Y-122682000D03*
D12*
G04 #@! TO.P,C13,2*
G04 #@! TO.N,GND*
X159004000Y-122682000D03*
G04 #@! TD*
D10*
G04 #@! TO.P,C14,1*
G04 #@! TO.N,/Output-Buck*
X161158000Y-120650000D03*
G04 #@! TO.P,C14,2*
G04 #@! TO.N,GND*
X159258000Y-120650000D03*
G04 #@! TD*
D12*
G04 #@! TO.P,C15,2*
G04 #@! TO.N,GND*
X131572000Y-125730000D03*
D13*
G04 #@! TO.P,C15,1*
G04 #@! TO.N,/Output-Linear*
X129032000Y-125730000D03*
G04 #@! TD*
D12*
G04 #@! TO.P,D1,2*
G04 #@! TO.N,Net-(D1-Pad2)*
X146812000Y-116332000D03*
D13*
G04 #@! TO.P,D1,1*
G04 #@! TO.N,Net-(D1-Pad1)*
X136652520Y-116334540D03*
G04 #@! TD*
G04 #@! TO.P,D2,1*
G04 #@! TO.N,Net-(D2-Pad1)*
X123952520Y-116329460D03*
D12*
G04 #@! TO.P,D2,2*
G04 #@! TO.N,Net-(D1-Pad1)*
X134112000Y-116332000D03*
G04 #@! TD*
G04 #@! TO.P,D3,2*
G04 #@! TO.N,Net-(D2-Pad1)*
X123952000Y-118618000D03*
D13*
G04 #@! TO.P,D3,1*
G04 #@! TO.N,Net-(D3-Pad1)*
X134111480Y-118620540D03*
G04 #@! TD*
D12*
G04 #@! TO.P,D4,2*
G04 #@! TO.N,Net-(D3-Pad1)*
X129032000Y-120650000D03*
D13*
G04 #@! TO.P,D4,1*
G04 #@! TO.N,Net-(D4-Pad1)*
X118872520Y-120647460D03*
G04 #@! TD*
G04 #@! TO.P,D5,1*
G04 #@! TO.N,Net-(D5-Pad1)*
X118869460Y-106680520D03*
D12*
G04 #@! TO.P,D5,2*
G04 #@! TO.N,Net-(D4-Pad1)*
X118872000Y-116840000D03*
G04 #@! TD*
D15*
G04 #@! TO.P,D6,2*
G04 #@! TO.N,GND*
X158562000Y-107950000D03*
D16*
G04 #@! TO.P,D6,1*
G04 #@! TO.N,Net-(C11-Pad1)*
X178562000Y-107950000D03*
G04 #@! TD*
D17*
G04 #@! TO.P,DAC1,1*
G04 #@! TO.N,+3V3*
X167132000Y-124206000D03*
D18*
G04 #@! TO.P,DAC1,2*
G04 #@! TO.N,/DAC_BUCK*
X167132000Y-126746000D03*
G04 #@! TO.P,DAC1,3*
G04 #@! TO.N,GND*
X167132000Y-129286000D03*
G04 #@! TD*
G04 #@! TO.P,DAC2,3*
G04 #@! TO.N,GND*
X174117000Y-130937000D03*
G04 #@! TO.P,DAC2,2*
G04 #@! TO.N,/DAC_LINEAR*
X174117000Y-128397000D03*
D17*
G04 #@! TO.P,DAC2,1*
G04 #@! TO.N,+3V3*
X174117000Y-125857000D03*
G04 #@! TD*
D18*
G04 #@! TO.P,J1,7*
G04 #@! TO.N,-2V8*
X186690000Y-132334000D03*
G04 #@! TO.P,J1,6*
G04 #@! TO.N,-0V5*
X186690000Y-129794000D03*
G04 #@! TO.P,J1,5*
G04 #@! TO.N,GND*
X186690000Y-127254000D03*
G04 #@! TO.P,J1,4*
G04 #@! TO.N,/I-ADC*
X186690000Y-124714000D03*
G04 #@! TO.P,J1,3*
G04 #@! TO.N,/V-ADC*
X186690000Y-122174000D03*
G04 #@! TO.P,J1,2*
G04 #@! TO.N,+3V3*
X186690000Y-119634000D03*
D17*
G04 #@! TO.P,J1,1*
G04 #@! TO.N,+5V*
X186690000Y-117094000D03*
G04 #@! TD*
D19*
G04 #@! TO.P,J2,2*
G04 #@! TO.N,/Output-GND*
X118364000Y-130810000D03*
D20*
G04 #@! TO.P,J2,1*
G04 #@! TO.N,/Output-Linear*
X123444000Y-130810000D03*
G04 #@! TD*
D18*
G04 #@! TO.P,J3,2*
G04 #@! TO.N,/Vfb-*
X139446000Y-124968000D03*
D17*
G04 #@! TO.P,J3,1*
G04 #@! TO.N,/Vfb+*
X136906000Y-124968000D03*
G04 #@! TD*
D20*
G04 #@! TO.P,J4,1*
G04 #@! TO.N,/Output-Buck*
X161544000Y-130810000D03*
D19*
G04 #@! TO.P,J4,2*
G04 #@! TO.N,/Output-GND*
X156464000Y-130810000D03*
G04 #@! TD*
D18*
G04 #@! TO.P,J5,3*
G04 #@! TO.N,/Output-Buck*
X140716000Y-127762000D03*
G04 #@! TO.P,J5,2*
G04 #@! TO.N,Net-(J5-Pad2)*
X138176000Y-127762000D03*
D17*
G04 #@! TO.P,J5,1*
G04 #@! TO.N,/Output-Linear*
X135636000Y-127762000D03*
G04 #@! TD*
D19*
G04 #@! TO.P,J6,2*
G04 #@! TO.N,GND*
X161290000Y-86360000D03*
D20*
G04 #@! TO.P,J6,1*
G04 #@! TO.N,/Input-V+*
X166370000Y-86360000D03*
G04 #@! TD*
D21*
G04 #@! TO.P,L1,2*
G04 #@! TO.N,/Output-Buck*
X170942000Y-114300000D03*
D22*
G04 #@! TO.P,L1,1*
G04 #@! TO.N,Net-(C11-Pad1)*
X178562000Y-114300000D03*
G04 #@! TD*
D23*
G04 #@! TO.P,Q1,3*
G04 #@! TO.N,/Vfb-Linear*
X120888000Y-97790000D03*
G04 #@! TO.P,Q1,2*
G04 #@! TO.N,-2V8*
X118888000Y-96840000D03*
G04 #@! TO.P,Q1,1*
G04 #@! TO.N,Net-(D5-Pad1)*
X118888000Y-98740000D03*
G04 #@! TD*
D24*
G04 #@! TO.P,R1,1*
G04 #@! TO.N,/Output-Buck*
X162814000Y-120904000D03*
G04 #@! TO.P,R1,2*
G04 #@! TO.N,Net-(R1-Pad2)*
X162814000Y-118704000D03*
G04 #@! TD*
D25*
G04 #@! TO.P,R2,2*
G04 #@! TO.N,GND*
X159090000Y-118872000D03*
G04 #@! TO.P,R2,1*
G04 #@! TO.N,Net-(R1-Pad2)*
X161290000Y-118872000D03*
G04 #@! TD*
D24*
G04 #@! TO.P,R3,1*
G04 #@! TO.N,/Output-Linear*
X117348000Y-99906000D03*
G04 #@! TO.P,R3,2*
G04 #@! TO.N,/Vfb-Linear*
X117348000Y-97706000D03*
G04 #@! TD*
D26*
G04 #@! TO.P,R12,2*
G04 #@! TO.N,GND*
X145200799Y-125688799D03*
G04 #@! TO.P,R12,1*
G04 #@! TO.N,/Output-GND*
X145200799Y-128388799D03*
G04 #@! TD*
G04 #@! TO.P,R13,1*
G04 #@! TO.N,/Output-GND*
X143320799Y-128388799D03*
G04 #@! TO.P,R13,2*
G04 #@! TO.N,GND*
X143320799Y-125688799D03*
G04 #@! TD*
D24*
G04 #@! TO.P,R15,1*
G04 #@! TO.N,Net-(R14-Pad2)*
X149606000Y-123104000D03*
G04 #@! TO.P,R15,2*
G04 #@! TO.N,GND*
X149606000Y-120904000D03*
G04 #@! TD*
D25*
G04 #@! TO.P,R18,2*
G04 #@! TO.N,Net-(R18-Pad2)*
X154686000Y-116332000D03*
G04 #@! TO.P,R18,1*
G04 #@! TO.N,Net-(D1-Pad2)*
X152486000Y-116332000D03*
G04 #@! TD*
D27*
G04 #@! TO.P,U1,1*
G04 #@! TO.N,Net-(R8-Pad2)*
X144100000Y-120254000D03*
G04 #@! TO.P,U1,2*
X144100000Y-120904000D03*
G04 #@! TO.P,U1,3*
G04 #@! TO.N,Net-(R5-Pad2)*
X144100000Y-121554000D03*
G04 #@! TO.P,U1,4*
G04 #@! TO.N,-0V5*
X144100000Y-122204000D03*
G04 #@! TO.P,U1,5*
G04 #@! TO.N,/Vfb-*
X139700000Y-122204000D03*
G04 #@! TO.P,U1,6*
G04 #@! TO.N,Net-(R10-Pad2)*
X139700000Y-121554000D03*
G04 #@! TO.P,U1,7*
X139700000Y-120904000D03*
G04 #@! TO.P,U1,8*
G04 #@! TO.N,+5V*
X139700000Y-120254000D03*
G04 #@! TD*
G04 #@! TO.P,U3,1*
G04 #@! TO.N,/Vfb-Buck*
X161204000Y-115865000D03*
G04 #@! TO.P,U3,2*
G04 #@! TO.N,Net-(R1-Pad2)*
X161204000Y-116515000D03*
G04 #@! TO.P,U3,3*
G04 #@! TO.N,/DAC_BUCK*
X161204000Y-117165000D03*
G04 #@! TO.P,U3,4*
G04 #@! TO.N,-0V5*
X161204000Y-117815000D03*
G04 #@! TO.P,U3,5*
G04 #@! TO.N,/DAC_LINEAR*
X156804000Y-117815000D03*
G04 #@! TO.P,U3,6*
G04 #@! TO.N,Net-(R16-Pad2)*
X156804000Y-117165000D03*
G04 #@! TO.P,U3,7*
G04 #@! TO.N,Net-(R18-Pad2)*
X156804000Y-116515000D03*
G04 #@! TO.P,U3,8*
G04 #@! TO.N,+5V*
X156804000Y-115865000D03*
G04 #@! TD*
D28*
G04 #@! TO.P,REF\002A\002A,1*
G04 #@! TO.N,N/C*
X110000000Y-135000000D03*
G04 #@! TD*
G04 #@! TO.P,REF\002A\002A,1*
G04 #@! TO.N,N/C*
X195000000Y-135000000D03*
G04 #@! TD*
G04 #@! TO.P,REF\002A\002A,1*
G04 #@! TO.N,N/C*
X195000000Y-85000000D03*
G04 #@! TD*
G04 #@! TO.P,REF\002A\002A,1*
G04 #@! TO.N,N/C*
X110000000Y-85000000D03*
G04 #@! TD*
D29*
G04 #@! TO.N,*
X152000000Y-88000000D03*
X152000000Y-112000000D03*
X128000000Y-112000000D03*
X128000000Y-88000000D03*
D30*
G04 #@! TO.N,GND*
X143000000Y-112000000D03*
X146000000Y-112000000D03*
X149000000Y-109000000D03*
X146000000Y-109000000D03*
X146000000Y-106000000D03*
X149000000Y-106000000D03*
X152000000Y-106000000D03*
X152000000Y-103000000D03*
X152000000Y-100000000D03*
X149000000Y-100000000D03*
X149000000Y-103000000D03*
X149000000Y-97000000D03*
X152000000Y-97000000D03*
X152000000Y-94000000D03*
X149000000Y-94000000D03*
X149000000Y-91000000D03*
X146000000Y-91000000D03*
X146000000Y-88000000D03*
X143000000Y-88000000D03*
X143000000Y-91000000D03*
X143000000Y-109000000D03*
X146000000Y-94000000D03*
D31*
X144272000Y-124206000D03*
X154813000Y-119761000D03*
G04 #@! TO.N,+5V*
X156804000Y-115189000D03*
X142240000Y-122047000D03*
G04 #@! TO.N,-0V5*
X150622000Y-124968000D03*
X156464000Y-121285000D03*
G04 #@! TO.N,Net-(C11-Pad2)*
X164338000Y-101346000D03*
G04 #@! TO.N,Net-(C11-Pad1)*
X164338000Y-103886000D03*
D30*
G04 #@! TO.N,/Output-Linear*
X140000000Y-88000000D03*
X137000000Y-112000000D03*
X140000000Y-112000000D03*
X140000000Y-91000000D03*
X137000000Y-91000000D03*
X134000000Y-91000000D03*
X134000000Y-88000000D03*
X137000000Y-88000000D03*
X131000000Y-91000000D03*
X128000000Y-94000000D03*
X131000000Y-94000000D03*
X134000000Y-94000000D03*
X131000000Y-97000000D03*
X128000000Y-97000000D03*
X128000000Y-100000000D03*
X128000000Y-103000000D03*
X128000000Y-106000000D03*
X131000000Y-106000000D03*
X131000000Y-103000000D03*
X131000000Y-100000000D03*
X131000000Y-109000000D03*
X134000000Y-112000000D03*
X134000000Y-109000000D03*
X134000000Y-106000000D03*
X137000000Y-109000000D03*
X140000000Y-109000000D03*
D31*
X115570000Y-100000000D03*
G04 #@! TO.N,/DAC_BUCK*
X159766000Y-117094000D03*
G04 #@! TO.N,/I-ADC*
X147955000Y-121994000D03*
X183515000Y-126619000D03*
G04 #@! TO.N,/V-ADC*
X155384500Y-123439300D03*
X182245000Y-125349000D03*
G04 #@! TO.N,Net-(J5-Pad2)*
X137160000Y-121666000D03*
G04 #@! TO.N,/Vfb-Linear*
X115570000Y-97536000D03*
G04 #@! TO.N,Net-(R5-Pad2)*
X138176000Y-119126000D03*
G04 #@! TO.N,Net-(R8-Pad2)*
X145202000Y-119212000D03*
G04 #@! TO.N,Net-(R10-Pad2)*
X141478000Y-121539000D03*
G04 #@! TO.N,Net-(R14-Pad2)*
X148259800Y-123621800D03*
G04 #@! TO.N,Net-(R16-Pad2)*
X141478000Y-118364000D03*
G04 #@! TO.N,/Vfb-Buck*
X170942000Y-97536000D03*
G04 #@! TO.N,/Output-GND*
X144272000Y-126974600D03*
G04 #@! TD*
D32*
G04 #@! TO.N,GND*
X159090000Y-120482000D02*
X159258000Y-120650000D01*
X159090000Y-118872000D02*
X159090000Y-120482000D01*
X159258000Y-122428000D02*
X159004000Y-122682000D01*
X159258000Y-120650000D02*
X159258000Y-122428000D01*
D33*
X156972000Y-112268000D02*
X159004000Y-114300000D01*
X156718000Y-112268000D02*
X156972000Y-112268000D01*
X157734000Y-121412000D02*
X159004000Y-122682000D01*
X157734000Y-121026000D02*
X157734000Y-121412000D01*
X143320799Y-125688799D02*
X143320799Y-125157201D01*
X143320799Y-125157201D02*
X144272000Y-124206000D01*
X145200799Y-125134799D02*
X144272000Y-124206000D01*
X145200799Y-125688799D02*
X145200799Y-125134799D01*
X141850001Y-86850001D02*
X143000000Y-88000000D01*
X140854699Y-85854699D02*
X141850001Y-86850001D01*
X126076301Y-85854699D02*
X140854699Y-85854699D01*
X118872000Y-93059000D02*
X126076301Y-85854699D01*
X118872000Y-93284000D02*
X118872000Y-93059000D01*
X167132000Y-129286000D02*
X165608000Y-129286000D01*
D34*
X173748321Y-122855099D02*
X165180901Y-122855099D01*
X175514000Y-124620778D02*
X173748321Y-122855099D01*
X174117000Y-130937000D02*
X175514000Y-129540000D01*
X175514000Y-129540000D02*
X175514000Y-124620778D01*
X163449000Y-124587000D02*
X160909000Y-124587000D01*
X165180901Y-122855099D02*
X163449000Y-124587000D01*
D33*
X165608000Y-129286000D02*
X160909000Y-124587000D01*
X160909000Y-124587000D02*
X159004000Y-122682000D01*
D34*
X180865572Y-122855099D02*
X173748321Y-122855099D01*
X185264473Y-127254000D02*
X180865572Y-122855099D01*
X186690000Y-127254000D02*
X185264473Y-127254000D01*
G04 #@! TO.N,+5V*
X156804000Y-114254000D02*
X156718000Y-114168000D01*
X156804000Y-115189000D02*
X156804000Y-114254000D01*
X156804000Y-115865000D02*
X156804000Y-115189000D01*
X142240000Y-122682000D02*
X141224000Y-123698000D01*
X139700000Y-120254000D02*
X141165724Y-120254000D01*
X141165724Y-120254000D02*
X142240000Y-121328276D01*
X142240000Y-122047000D02*
X142240000Y-122682000D01*
X142240000Y-121328276D02*
X142240000Y-122047000D01*
G04 #@! TO.N,-0V5*
X157734000Y-118560778D02*
X157734000Y-119126000D01*
X158479778Y-117815000D02*
X157734000Y-118560778D01*
X161204000Y-117815000D02*
X158479778Y-117815000D01*
X150622000Y-124968000D02*
X151892000Y-124968000D01*
X157734000Y-119126000D02*
X156464000Y-120396000D01*
X156464000Y-120396000D02*
X156464000Y-121285000D01*
X145644000Y-122204000D02*
X145796000Y-122052000D01*
X144100000Y-122204000D02*
X145644000Y-122204000D01*
X150197736Y-124968000D02*
X150622000Y-124968000D01*
D35*
X148487000Y-124968000D02*
X150197736Y-124968000D01*
D34*
X145796000Y-122052000D02*
X145796000Y-122277000D01*
D35*
X146836000Y-123317000D02*
X146836000Y-124230000D01*
X145796000Y-122277000D02*
X146836000Y-123317000D01*
X147574000Y-124968000D02*
X148487000Y-124968000D01*
X146836000Y-124230000D02*
X147574000Y-124968000D01*
D33*
G04 #@! TO.N,-2V8*
X118888000Y-95200000D02*
X118872000Y-95184000D01*
X118888000Y-96840000D02*
X118888000Y-95200000D01*
D34*
X184658000Y-134366000D02*
X186690000Y-132334000D01*
X115697000Y-134366000D02*
X184658000Y-134366000D01*
X114858791Y-133527791D02*
X115697000Y-134366000D01*
X114858791Y-97241407D02*
X114858791Y-133527791D01*
X118872000Y-95184000D02*
X116916198Y-95184000D01*
X116916198Y-95184000D02*
X114858791Y-97241407D01*
D33*
G04 #@! TO.N,Net-(C11-Pad2)*
X162560000Y-101366000D02*
X164318000Y-101366000D01*
X164318000Y-101366000D02*
X164338000Y-101346000D01*
G04 #@! TO.N,Net-(C11-Pad1)*
X162580000Y-103886000D02*
X162560000Y-103866000D01*
X164338000Y-103886000D02*
X162580000Y-103886000D01*
G04 #@! TO.N,/Output-Buck*
X161158000Y-122296000D02*
X161544000Y-122682000D01*
G04 #@! TO.N,/Output-Linear*
X115664000Y-99906000D02*
X115570000Y-100000000D01*
X117348000Y-99906000D02*
X115664000Y-99906000D01*
D36*
X123444000Y-127670000D02*
X125384000Y-125730000D01*
X123444000Y-130810000D02*
X123444000Y-127670000D01*
X125384000Y-125730000D02*
X129032000Y-125730000D01*
X129032000Y-126151482D02*
X129032000Y-125730000D01*
X130642518Y-127762000D02*
X129032000Y-126151482D01*
X135636000Y-127762000D02*
X130642518Y-127762000D01*
D33*
G04 #@! TO.N,Net-(D1-Pad2)*
X152486000Y-116332000D02*
X146812000Y-116332000D01*
G04 #@! TO.N,Net-(D1-Pad1)*
X134114540Y-116334540D02*
X134112000Y-116332000D01*
X136652520Y-116334540D02*
X134114540Y-116334540D01*
D37*
G04 #@! TO.N,Net-(D2-Pad1)*
X123952520Y-118617480D02*
X123952000Y-118618000D01*
X123952520Y-116329460D02*
X123952520Y-118617480D01*
G04 #@! TO.N,Net-(D3-Pad1)*
X132082020Y-120650000D02*
X134111480Y-118620540D01*
X129032000Y-120650000D02*
X132082020Y-120650000D01*
G04 #@! TO.N,Net-(D4-Pad1)*
X118872520Y-116840520D02*
X118872000Y-116840000D01*
X118872520Y-120647460D02*
X118872520Y-116840520D01*
D33*
G04 #@! TO.N,Net-(D5-Pad1)*
X118888000Y-106661980D02*
X118869460Y-106680520D01*
X118888000Y-98740000D02*
X118888000Y-106661980D01*
D34*
G04 #@! TO.N,/DAC_LINEAR*
X156804000Y-118471800D02*
X156804000Y-117815000D01*
X155821099Y-119454701D02*
X156804000Y-118471800D01*
X174117000Y-128397000D02*
X171877099Y-130636901D01*
D35*
X171877099Y-130636901D02*
X165181567Y-130636901D01*
X165181567Y-130636901D02*
X156472567Y-121927901D01*
D34*
X156472567Y-121927901D02*
X156090901Y-121927901D01*
X156090901Y-121927901D02*
X155821099Y-121658099D01*
X155821099Y-121658099D02*
X155821099Y-119454701D01*
G04 #@! TO.N,/DAC_BUCK*
X161204000Y-117165000D02*
X159837000Y-117165000D01*
X159837000Y-117165000D02*
X159766000Y-117094000D01*
D35*
G04 #@! TO.N,/I-ADC*
X159536268Y-131088268D02*
X159536268Y-132231268D01*
X176987190Y-133146810D02*
X183515000Y-126619000D01*
X159536268Y-132231268D02*
X160451810Y-133146810D01*
X160451810Y-133146810D02*
X176987190Y-133146810D01*
X159536268Y-128548268D02*
X159536268Y-131088268D01*
X147955000Y-121994000D02*
X152982000Y-121994000D01*
X152982000Y-121994000D02*
X159536268Y-128548268D01*
G04 #@! TO.N,/V-ADC*
X159968078Y-128022878D02*
X155384500Y-123439300D01*
X159968078Y-131953000D02*
X159968078Y-128022878D01*
X159968078Y-131953000D02*
X160730078Y-132715000D01*
X174879000Y-132715000D02*
X182245000Y-125349000D01*
X174244000Y-132715000D02*
X174879000Y-132715000D01*
X160730078Y-132715000D02*
X174244000Y-132715000D01*
D34*
G04 #@! TO.N,/Vfb-*
X139700000Y-124714000D02*
X139446000Y-124968000D01*
X139700000Y-122204000D02*
X139700000Y-124714000D01*
D38*
G04 #@! TO.N,Net-(J5-Pad2)*
X138176000Y-122682000D02*
X137160000Y-121666000D01*
X138176000Y-127762000D02*
X138176000Y-122682000D01*
D33*
G04 #@! TO.N,/Vfb-Linear*
X117348000Y-97706000D02*
X115740000Y-97706000D01*
X115740000Y-97706000D02*
X115570000Y-97536000D01*
X117432000Y-97790000D02*
X117348000Y-97706000D01*
X120888000Y-97790000D02*
X117432000Y-97790000D01*
G04 #@! TO.N,Net-(R1-Pad2)*
X162646000Y-118872000D02*
X162814000Y-118704000D01*
X161290000Y-118872000D02*
X162646000Y-118872000D01*
D34*
X161204000Y-116515000D02*
X162489000Y-116515000D01*
X162814000Y-116840000D02*
X162814000Y-118704000D01*
X162489000Y-116515000D02*
X162814000Y-116840000D01*
G04 #@! TO.N,Net-(R5-Pad2)*
X143256000Y-121554000D02*
X144100000Y-121554000D01*
X141127999Y-119425999D02*
X143256000Y-121554000D01*
X138176000Y-119126000D02*
X138475999Y-119425999D01*
X138475999Y-119425999D02*
X141127999Y-119425999D01*
G04 #@! TO.N,Net-(R8-Pad2)*
X144100000Y-120904000D02*
X144100000Y-120254000D01*
X145142000Y-119212000D02*
X144100000Y-120254000D01*
X145202000Y-119212000D02*
X145142000Y-119212000D01*
G04 #@! TO.N,Net-(R10-Pad2)*
X139700000Y-120904000D02*
X139700000Y-121554000D01*
X140731000Y-121539000D02*
X141605000Y-121539000D01*
X140716000Y-121554000D02*
X140731000Y-121539000D01*
X139700000Y-121554000D02*
X140716000Y-121554000D01*
G04 #@! TO.N,Net-(R14-Pad2)*
X149083000Y-123627000D02*
X149606000Y-123104000D01*
X148336000Y-123627000D02*
X149083000Y-123627000D01*
G04 #@! TO.N,Net-(R16-Pad2)*
X154503000Y-118364000D02*
X155702000Y-117165000D01*
X141478000Y-118364000D02*
X154503000Y-118364000D01*
X156804000Y-117165000D02*
X155702000Y-117165000D01*
G04 #@! TO.N,Net-(R18-Pad2)*
X154869000Y-116515000D02*
X154686000Y-116332000D01*
X156804000Y-116515000D02*
X154869000Y-116515000D01*
G04 #@! TO.N,/Vfb-Buck*
X170942000Y-107283800D02*
X170942000Y-106172000D01*
X162360800Y-115865000D02*
X170942000Y-107283800D01*
X161204000Y-115865000D02*
X162360800Y-115865000D01*
X170942000Y-106172000D02*
X170942000Y-97536000D01*
G04 #@! TO.N,/Output-GND*
X144272000Y-127460000D02*
X145200799Y-128388799D01*
X144272000Y-126974600D02*
X144272000Y-127460000D01*
X143343201Y-128388799D02*
X144272000Y-127460000D01*
X143320799Y-128388799D02*
X143343201Y-128388799D01*
G04 #@! TO.N,+3V3*
X167132000Y-124206000D02*
X169545000Y-124206000D01*
X171196000Y-125857000D02*
X174117000Y-125857000D01*
X169545000Y-124206000D02*
X171196000Y-125857000D01*
G04 #@! TD*
D39*
G04 #@! TO.N,/Output-Buck*
G36*
X163476000Y-123598000D02*
X160865118Y-123598000D01*
X160628000Y-123360882D01*
X160628000Y-120242000D01*
X163476000Y-120242000D01*
X163476000Y-123598000D01*
X163476000Y-123598000D01*
G37*
X163476000Y-123598000D02*
X160865118Y-123598000D01*
X160628000Y-123360882D01*
X160628000Y-120242000D01*
X163476000Y-120242000D01*
X163476000Y-123598000D01*
G04 #@! TO.N,/Output-GND*
G36*
X122204357Y-127156523D02*
X122135673Y-127501823D01*
X122102220Y-127670000D01*
X122128001Y-127799609D01*
X122128000Y-129480174D01*
X122119712Y-129485712D01*
X122053407Y-129584946D01*
X122030123Y-129702000D01*
X122030123Y-131918000D01*
X122053407Y-132035054D01*
X122119712Y-132134288D01*
X122218946Y-132200593D01*
X122336000Y-132223877D01*
X124552000Y-132223877D01*
X124669054Y-132200593D01*
X124768288Y-132134288D01*
X124834593Y-132035054D01*
X124857877Y-131918000D01*
X124857877Y-129702000D01*
X124834593Y-129584946D01*
X124768288Y-129485712D01*
X124760000Y-129480174D01*
X124760000Y-128215104D01*
X125875105Y-127100000D01*
X128083042Y-127100000D01*
X128083218Y-127100264D01*
X128193096Y-127173683D01*
X129620319Y-128600906D01*
X129693736Y-128710782D01*
X129803612Y-128784199D01*
X129803613Y-128784200D01*
X129933323Y-128870869D01*
X130129041Y-129001644D01*
X130512908Y-129078000D01*
X130512912Y-129078000D01*
X130642517Y-129103780D01*
X130772122Y-129078000D01*
X135765610Y-129078000D01*
X135776283Y-129075877D01*
X136644000Y-129075877D01*
X136761054Y-129052593D01*
X136860288Y-128986288D01*
X136926593Y-128887054D01*
X136949877Y-128770000D01*
X136949877Y-128219846D01*
X137067131Y-128502922D01*
X137435078Y-128870869D01*
X137915823Y-129070000D01*
X138436177Y-129070000D01*
X138916922Y-128870869D01*
X139284869Y-128502922D01*
X139446000Y-128113917D01*
X139607131Y-128502922D01*
X139975078Y-128870869D01*
X140455823Y-129070000D01*
X140976177Y-129070000D01*
X141456922Y-128870869D01*
X141824869Y-128502922D01*
X142024000Y-128022177D01*
X142024000Y-127501823D01*
X141857560Y-127100000D01*
X157448210Y-127100000D01*
X159083868Y-128735658D01*
X159083869Y-131043707D01*
X159083868Y-131043712D01*
X159083869Y-132186711D01*
X159075006Y-132231268D01*
X159110117Y-132407785D01*
X159122696Y-132426611D01*
X159210107Y-132557430D01*
X159247880Y-132582669D01*
X160100408Y-133435198D01*
X160125648Y-133472972D01*
X160275292Y-133572961D01*
X160407253Y-133599210D01*
X160407257Y-133599210D01*
X160451810Y-133608072D01*
X160496363Y-133599210D01*
X163984000Y-133599210D01*
X163984000Y-133850100D01*
X115924000Y-133850100D01*
X115924000Y-127100000D01*
X122242124Y-127100000D01*
X122204357Y-127156523D01*
X122204357Y-127156523D01*
G37*
X122204357Y-127156523D02*
X122135673Y-127501823D01*
X122102220Y-127670000D01*
X122128001Y-127799609D01*
X122128000Y-129480174D01*
X122119712Y-129485712D01*
X122053407Y-129584946D01*
X122030123Y-129702000D01*
X122030123Y-131918000D01*
X122053407Y-132035054D01*
X122119712Y-132134288D01*
X122218946Y-132200593D01*
X122336000Y-132223877D01*
X124552000Y-132223877D01*
X124669054Y-132200593D01*
X124768288Y-132134288D01*
X124834593Y-132035054D01*
X124857877Y-131918000D01*
X124857877Y-129702000D01*
X124834593Y-129584946D01*
X124768288Y-129485712D01*
X124760000Y-129480174D01*
X124760000Y-128215104D01*
X125875105Y-127100000D01*
X128083042Y-127100000D01*
X128083218Y-127100264D01*
X128193096Y-127173683D01*
X129620319Y-128600906D01*
X129693736Y-128710782D01*
X129803612Y-128784199D01*
X129803613Y-128784200D01*
X129933323Y-128870869D01*
X130129041Y-129001644D01*
X130512908Y-129078000D01*
X130512912Y-129078000D01*
X130642517Y-129103780D01*
X130772122Y-129078000D01*
X135765610Y-129078000D01*
X135776283Y-129075877D01*
X136644000Y-129075877D01*
X136761054Y-129052593D01*
X136860288Y-128986288D01*
X136926593Y-128887054D01*
X136949877Y-128770000D01*
X136949877Y-128219846D01*
X137067131Y-128502922D01*
X137435078Y-128870869D01*
X137915823Y-129070000D01*
X138436177Y-129070000D01*
X138916922Y-128870869D01*
X139284869Y-128502922D01*
X139446000Y-128113917D01*
X139607131Y-128502922D01*
X139975078Y-128870869D01*
X140455823Y-129070000D01*
X140976177Y-129070000D01*
X141456922Y-128870869D01*
X141824869Y-128502922D01*
X142024000Y-128022177D01*
X142024000Y-127501823D01*
X141857560Y-127100000D01*
X157448210Y-127100000D01*
X159083868Y-128735658D01*
X159083869Y-131043707D01*
X159083868Y-131043712D01*
X159083869Y-132186711D01*
X159075006Y-132231268D01*
X159110117Y-132407785D01*
X159122696Y-132426611D01*
X159210107Y-132557430D01*
X159247880Y-132582669D01*
X160100408Y-133435198D01*
X160125648Y-133472972D01*
X160275292Y-133572961D01*
X160407253Y-133599210D01*
X160407257Y-133599210D01*
X160451810Y-133608072D01*
X160496363Y-133599210D01*
X163984000Y-133599210D01*
X163984000Y-133850100D01*
X115924000Y-133850100D01*
X115924000Y-127100000D01*
X122242124Y-127100000D01*
X122204357Y-127156523D01*
G04 #@! TO.N,GND*
G36*
X155773123Y-118040000D02*
X155796407Y-118157054D01*
X155862712Y-118256288D01*
X155961946Y-118322593D01*
X156079000Y-118345877D01*
X156200330Y-118345877D01*
X155492231Y-119053977D01*
X155449157Y-119082758D01*
X155420376Y-119125832D01*
X155420374Y-119125834D01*
X155335133Y-119253407D01*
X155295093Y-119454701D01*
X155305200Y-119505512D01*
X155305199Y-121607293D01*
X155295093Y-121658099D01*
X155305199Y-121708905D01*
X155305199Y-121708909D01*
X155335132Y-121859392D01*
X155449156Y-122030042D01*
X155492233Y-122058825D01*
X155690175Y-122256767D01*
X155718958Y-122299844D01*
X155857572Y-122392463D01*
X155889607Y-122413868D01*
X156090901Y-122453908D01*
X156141712Y-122443801D01*
X156348678Y-122443801D01*
X159920000Y-126015123D01*
X159920000Y-126646000D01*
X159230990Y-126646000D01*
X155984500Y-123399511D01*
X155984500Y-123319953D01*
X155893156Y-123099427D01*
X155724373Y-122930644D01*
X155503847Y-122839300D01*
X155265153Y-122839300D01*
X155044627Y-122930644D01*
X154875844Y-123099427D01*
X154832312Y-123204523D01*
X153333403Y-121705614D01*
X153308162Y-121667838D01*
X153158518Y-121567849D01*
X153026557Y-121541600D01*
X153026553Y-121541600D01*
X152982000Y-121532738D01*
X152937447Y-121541600D01*
X148351129Y-121541600D01*
X148294873Y-121485344D01*
X148074347Y-121394000D01*
X147835653Y-121394000D01*
X147615127Y-121485344D01*
X147446344Y-121654127D01*
X147355000Y-121874653D01*
X147355000Y-122113347D01*
X147446344Y-122333873D01*
X147615127Y-122502656D01*
X147835653Y-122594000D01*
X148074347Y-122594000D01*
X148294873Y-122502656D01*
X148351129Y-122446400D01*
X148861581Y-122446400D01*
X148850123Y-122504000D01*
X148850123Y-123111100D01*
X148594738Y-123111100D01*
X148379147Y-123021800D01*
X148140453Y-123021800D01*
X147919927Y-123113144D01*
X147751144Y-123281927D01*
X147659800Y-123502453D01*
X147659800Y-123741147D01*
X147751144Y-123961673D01*
X147919927Y-124130456D01*
X148140453Y-124221800D01*
X148379147Y-124221800D01*
X148569630Y-124142900D01*
X149032194Y-124142900D01*
X149083000Y-124153006D01*
X149133806Y-124142900D01*
X149133811Y-124142900D01*
X149284294Y-124112967D01*
X149438579Y-124009877D01*
X150056000Y-124009877D01*
X150173054Y-123986593D01*
X150272288Y-123920288D01*
X150338593Y-123821054D01*
X150361877Y-123704000D01*
X150361877Y-122504000D01*
X150350419Y-122446400D01*
X152794611Y-122446400D01*
X156994210Y-126646000D01*
X144785325Y-126646000D01*
X144780656Y-126634727D01*
X144611873Y-126465944D01*
X144391347Y-126374600D01*
X144152653Y-126374600D01*
X143932127Y-126465944D01*
X143763344Y-126634727D01*
X143758675Y-126646000D01*
X141439706Y-126646000D01*
X140976177Y-126454000D01*
X140455823Y-126454000D01*
X139992294Y-126646000D01*
X138899706Y-126646000D01*
X138577600Y-126512579D01*
X138577600Y-125949391D01*
X138705078Y-126076869D01*
X139185823Y-126276000D01*
X139706177Y-126276000D01*
X140186922Y-126076869D01*
X140554869Y-125708922D01*
X140754000Y-125228177D01*
X140754000Y-124707823D01*
X140617185Y-124377521D01*
X140624000Y-124378877D01*
X141824000Y-124378877D01*
X141941054Y-124355593D01*
X142040288Y-124289288D01*
X142106593Y-124190054D01*
X142129877Y-124073000D01*
X142129877Y-123521716D01*
X142568868Y-123082725D01*
X142611943Y-123053943D01*
X142654109Y-122990838D01*
X142725966Y-122883295D01*
X142725967Y-122883294D01*
X142755900Y-122732811D01*
X142755900Y-122732806D01*
X142766006Y-122682000D01*
X142755900Y-122631194D01*
X142755900Y-122369384D01*
X142840000Y-122166347D01*
X142840000Y-121927653D01*
X142797532Y-121825125D01*
X142855276Y-121882869D01*
X142884057Y-121925943D01*
X142927131Y-121954724D01*
X142927132Y-121954725D01*
X143054705Y-122039967D01*
X143069123Y-122042835D01*
X143069123Y-122429000D01*
X143092407Y-122546054D01*
X143158712Y-122645288D01*
X143257946Y-122711593D01*
X143375000Y-122734877D01*
X144825000Y-122734877D01*
X144900293Y-122719900D01*
X145128629Y-122719900D01*
X145138407Y-122769054D01*
X145204712Y-122868288D01*
X145303946Y-122934593D01*
X145421000Y-122957877D01*
X145837088Y-122957877D01*
X146383600Y-123504390D01*
X146383601Y-124185443D01*
X146374738Y-124230000D01*
X146409849Y-124406517D01*
X146482736Y-124515600D01*
X146509839Y-124556162D01*
X146547612Y-124581401D01*
X147222598Y-125256388D01*
X147247838Y-125294162D01*
X147397482Y-125394151D01*
X147529443Y-125420400D01*
X147574000Y-125429263D01*
X147618557Y-125420400D01*
X149946205Y-125420400D01*
X149996442Y-125453967D01*
X150146925Y-125483900D01*
X150299616Y-125483900D01*
X150502653Y-125568000D01*
X150741347Y-125568000D01*
X150944384Y-125483900D01*
X151211123Y-125483900D01*
X151211123Y-125568000D01*
X151234407Y-125685054D01*
X151300712Y-125784288D01*
X151399946Y-125850593D01*
X151517000Y-125873877D01*
X152267000Y-125873877D01*
X152384054Y-125850593D01*
X152483288Y-125784288D01*
X152549593Y-125685054D01*
X152572877Y-125568000D01*
X152572877Y-124368000D01*
X152549593Y-124250946D01*
X152483288Y-124151712D01*
X152384054Y-124085407D01*
X152267000Y-124062123D01*
X151517000Y-124062123D01*
X151399946Y-124085407D01*
X151300712Y-124151712D01*
X151234407Y-124250946D01*
X151211123Y-124368000D01*
X151211123Y-124452100D01*
X150944384Y-124452100D01*
X150741347Y-124368000D01*
X150502653Y-124368000D01*
X150299616Y-124452100D01*
X150146925Y-124452100D01*
X149996442Y-124482033D01*
X149946205Y-124515600D01*
X147761390Y-124515600D01*
X147288400Y-124042611D01*
X147288400Y-123361552D01*
X147297262Y-123316999D01*
X147288400Y-123272444D01*
X147288400Y-123272443D01*
X147262151Y-123140482D01*
X147162162Y-122990838D01*
X147124389Y-122965599D01*
X146476877Y-122318088D01*
X146476877Y-121452000D01*
X146453593Y-121334946D01*
X146387288Y-121235712D01*
X146288054Y-121169407D01*
X146171000Y-121146123D01*
X145421000Y-121146123D01*
X145303946Y-121169407D01*
X145204712Y-121235712D01*
X145138407Y-121334946D01*
X145130877Y-121372801D01*
X145130877Y-121329000D01*
X145110985Y-121229000D01*
X145130877Y-121129000D01*
X145130877Y-120679000D01*
X145110985Y-120579000D01*
X145130877Y-120479000D01*
X145130877Y-120029000D01*
X145118220Y-119965372D01*
X145271593Y-119812000D01*
X145321347Y-119812000D01*
X145541873Y-119720656D01*
X145710656Y-119551873D01*
X145802000Y-119331347D01*
X145802000Y-119092653D01*
X145713876Y-118879900D01*
X154452194Y-118879900D01*
X154503000Y-118890006D01*
X154553806Y-118879900D01*
X154553811Y-118879900D01*
X154704294Y-118849967D01*
X154874943Y-118735943D01*
X154903726Y-118692866D01*
X155773123Y-117823470D01*
X155773123Y-118040000D01*
X155773123Y-118040000D01*
G37*
X155773123Y-118040000D02*
X155796407Y-118157054D01*
X155862712Y-118256288D01*
X155961946Y-118322593D01*
X156079000Y-118345877D01*
X156200330Y-118345877D01*
X155492231Y-119053977D01*
X155449157Y-119082758D01*
X155420376Y-119125832D01*
X155420374Y-119125834D01*
X155335133Y-119253407D01*
X155295093Y-119454701D01*
X155305200Y-119505512D01*
X155305199Y-121607293D01*
X155295093Y-121658099D01*
X155305199Y-121708905D01*
X155305199Y-121708909D01*
X155335132Y-121859392D01*
X155449156Y-122030042D01*
X155492233Y-122058825D01*
X155690175Y-122256767D01*
X155718958Y-122299844D01*
X155857572Y-122392463D01*
X155889607Y-122413868D01*
X156090901Y-122453908D01*
X156141712Y-122443801D01*
X156348678Y-122443801D01*
X159920000Y-126015123D01*
X159920000Y-126646000D01*
X159230990Y-126646000D01*
X155984500Y-123399511D01*
X155984500Y-123319953D01*
X155893156Y-123099427D01*
X155724373Y-122930644D01*
X155503847Y-122839300D01*
X155265153Y-122839300D01*
X155044627Y-122930644D01*
X154875844Y-123099427D01*
X154832312Y-123204523D01*
X153333403Y-121705614D01*
X153308162Y-121667838D01*
X153158518Y-121567849D01*
X153026557Y-121541600D01*
X153026553Y-121541600D01*
X152982000Y-121532738D01*
X152937447Y-121541600D01*
X148351129Y-121541600D01*
X148294873Y-121485344D01*
X148074347Y-121394000D01*
X147835653Y-121394000D01*
X147615127Y-121485344D01*
X147446344Y-121654127D01*
X147355000Y-121874653D01*
X147355000Y-122113347D01*
X147446344Y-122333873D01*
X147615127Y-122502656D01*
X147835653Y-122594000D01*
X148074347Y-122594000D01*
X148294873Y-122502656D01*
X148351129Y-122446400D01*
X148861581Y-122446400D01*
X148850123Y-122504000D01*
X148850123Y-123111100D01*
X148594738Y-123111100D01*
X148379147Y-123021800D01*
X148140453Y-123021800D01*
X147919927Y-123113144D01*
X147751144Y-123281927D01*
X147659800Y-123502453D01*
X147659800Y-123741147D01*
X147751144Y-123961673D01*
X147919927Y-124130456D01*
X148140453Y-124221800D01*
X148379147Y-124221800D01*
X148569630Y-124142900D01*
X149032194Y-124142900D01*
X149083000Y-124153006D01*
X149133806Y-124142900D01*
X149133811Y-124142900D01*
X149284294Y-124112967D01*
X149438579Y-124009877D01*
X150056000Y-124009877D01*
X150173054Y-123986593D01*
X150272288Y-123920288D01*
X150338593Y-123821054D01*
X150361877Y-123704000D01*
X150361877Y-122504000D01*
X150350419Y-122446400D01*
X152794611Y-122446400D01*
X156994210Y-126646000D01*
X144785325Y-126646000D01*
X144780656Y-126634727D01*
X144611873Y-126465944D01*
X144391347Y-126374600D01*
X144152653Y-126374600D01*
X143932127Y-126465944D01*
X143763344Y-126634727D01*
X143758675Y-126646000D01*
X141439706Y-126646000D01*
X140976177Y-126454000D01*
X140455823Y-126454000D01*
X139992294Y-126646000D01*
X138899706Y-126646000D01*
X138577600Y-126512579D01*
X138577600Y-125949391D01*
X138705078Y-126076869D01*
X139185823Y-126276000D01*
X139706177Y-126276000D01*
X140186922Y-126076869D01*
X140554869Y-125708922D01*
X140754000Y-125228177D01*
X140754000Y-124707823D01*
X140617185Y-124377521D01*
X140624000Y-124378877D01*
X141824000Y-124378877D01*
X141941054Y-124355593D01*
X142040288Y-124289288D01*
X142106593Y-124190054D01*
X142129877Y-124073000D01*
X142129877Y-123521716D01*
X142568868Y-123082725D01*
X142611943Y-123053943D01*
X142654109Y-122990838D01*
X142725966Y-122883295D01*
X142725967Y-122883294D01*
X142755900Y-122732811D01*
X142755900Y-122732806D01*
X142766006Y-122682000D01*
X142755900Y-122631194D01*
X142755900Y-122369384D01*
X142840000Y-122166347D01*
X142840000Y-121927653D01*
X142797532Y-121825125D01*
X142855276Y-121882869D01*
X142884057Y-121925943D01*
X142927131Y-121954724D01*
X142927132Y-121954725D01*
X143054705Y-122039967D01*
X143069123Y-122042835D01*
X143069123Y-122429000D01*
X143092407Y-122546054D01*
X143158712Y-122645288D01*
X143257946Y-122711593D01*
X143375000Y-122734877D01*
X144825000Y-122734877D01*
X144900293Y-122719900D01*
X145128629Y-122719900D01*
X145138407Y-122769054D01*
X145204712Y-122868288D01*
X145303946Y-122934593D01*
X145421000Y-122957877D01*
X145837088Y-122957877D01*
X146383600Y-123504390D01*
X146383601Y-124185443D01*
X146374738Y-124230000D01*
X146409849Y-124406517D01*
X146482736Y-124515600D01*
X146509839Y-124556162D01*
X146547612Y-124581401D01*
X147222598Y-125256388D01*
X147247838Y-125294162D01*
X147397482Y-125394151D01*
X147529443Y-125420400D01*
X147574000Y-125429263D01*
X147618557Y-125420400D01*
X149946205Y-125420400D01*
X149996442Y-125453967D01*
X150146925Y-125483900D01*
X150299616Y-125483900D01*
X150502653Y-125568000D01*
X150741347Y-125568000D01*
X150944384Y-125483900D01*
X151211123Y-125483900D01*
X151211123Y-125568000D01*
X151234407Y-125685054D01*
X151300712Y-125784288D01*
X151399946Y-125850593D01*
X151517000Y-125873877D01*
X152267000Y-125873877D01*
X152384054Y-125850593D01*
X152483288Y-125784288D01*
X152549593Y-125685054D01*
X152572877Y-125568000D01*
X152572877Y-124368000D01*
X152549593Y-124250946D01*
X152483288Y-124151712D01*
X152384054Y-124085407D01*
X152267000Y-124062123D01*
X151517000Y-124062123D01*
X151399946Y-124085407D01*
X151300712Y-124151712D01*
X151234407Y-124250946D01*
X151211123Y-124368000D01*
X151211123Y-124452100D01*
X150944384Y-124452100D01*
X150741347Y-124368000D01*
X150502653Y-124368000D01*
X150299616Y-124452100D01*
X150146925Y-124452100D01*
X149996442Y-124482033D01*
X149946205Y-124515600D01*
X147761390Y-124515600D01*
X147288400Y-124042611D01*
X147288400Y-123361552D01*
X147297262Y-123316999D01*
X147288400Y-123272444D01*
X147288400Y-123272443D01*
X147262151Y-123140482D01*
X147162162Y-122990838D01*
X147124389Y-122965599D01*
X146476877Y-122318088D01*
X146476877Y-121452000D01*
X146453593Y-121334946D01*
X146387288Y-121235712D01*
X146288054Y-121169407D01*
X146171000Y-121146123D01*
X145421000Y-121146123D01*
X145303946Y-121169407D01*
X145204712Y-121235712D01*
X145138407Y-121334946D01*
X145130877Y-121372801D01*
X145130877Y-121329000D01*
X145110985Y-121229000D01*
X145130877Y-121129000D01*
X145130877Y-120679000D01*
X145110985Y-120579000D01*
X145130877Y-120479000D01*
X145130877Y-120029000D01*
X145118220Y-119965372D01*
X145271593Y-119812000D01*
X145321347Y-119812000D01*
X145541873Y-119720656D01*
X145710656Y-119551873D01*
X145802000Y-119331347D01*
X145802000Y-119092653D01*
X145713876Y-118879900D01*
X154452194Y-118879900D01*
X154503000Y-118890006D01*
X154553806Y-118879900D01*
X154553811Y-118879900D01*
X154704294Y-118849967D01*
X154874943Y-118735943D01*
X154903726Y-118692866D01*
X155773123Y-117823470D01*
X155773123Y-118040000D01*
G36*
X159920000Y-116508354D02*
X159885347Y-116494000D01*
X159646653Y-116494000D01*
X159426127Y-116585344D01*
X159257344Y-116754127D01*
X159166000Y-116974653D01*
X159166000Y-117213347D01*
X159201520Y-117299100D01*
X158530583Y-117299100D01*
X158479777Y-117288994D01*
X158428971Y-117299100D01*
X158428967Y-117299100D01*
X158278484Y-117329033D01*
X158107835Y-117443057D01*
X158079052Y-117486134D01*
X157834877Y-117730309D01*
X157834877Y-117590000D01*
X157814985Y-117490000D01*
X157834877Y-117390000D01*
X157834877Y-116940000D01*
X157814985Y-116840000D01*
X157834877Y-116740000D01*
X157834877Y-116290000D01*
X157814985Y-116190000D01*
X157834877Y-116090000D01*
X157834877Y-115640000D01*
X157811593Y-115522946D01*
X157745288Y-115423712D01*
X157646054Y-115357407D01*
X157529000Y-115334123D01*
X157393323Y-115334123D01*
X157404000Y-115308347D01*
X157404000Y-115069653D01*
X157345927Y-114929452D01*
X157375593Y-114885054D01*
X157398877Y-114768000D01*
X157398877Y-113568000D01*
X157375593Y-113450946D01*
X157309288Y-113351712D01*
X157210054Y-113285407D01*
X157093000Y-113262123D01*
X156343000Y-113262123D01*
X156225946Y-113285407D01*
X156126712Y-113351712D01*
X156060407Y-113450946D01*
X156037123Y-113568000D01*
X156037123Y-114768000D01*
X156060407Y-114885054D01*
X156126712Y-114984288D01*
X156214941Y-115043240D01*
X156204000Y-115069653D01*
X156204000Y-115308347D01*
X156214677Y-115334123D01*
X156079000Y-115334123D01*
X155961946Y-115357407D01*
X155862712Y-115423712D01*
X155796407Y-115522946D01*
X155773123Y-115640000D01*
X155773123Y-115999100D01*
X155591877Y-115999100D01*
X155591877Y-115882000D01*
X155568593Y-115764946D01*
X155502288Y-115665712D01*
X155403054Y-115599407D01*
X155286000Y-115576123D01*
X154086000Y-115576123D01*
X153968946Y-115599407D01*
X153869712Y-115665712D01*
X153803407Y-115764946D01*
X153780123Y-115882000D01*
X153780123Y-116782000D01*
X153803407Y-116899054D01*
X153869712Y-116998288D01*
X153968946Y-117064593D01*
X154086000Y-117087877D01*
X155049530Y-117087877D01*
X154289308Y-117848100D01*
X141800384Y-117848100D01*
X141597347Y-117764000D01*
X141358653Y-117764000D01*
X141138127Y-117855344D01*
X140969344Y-118024127D01*
X140878000Y-118244653D01*
X140878000Y-118483347D01*
X140969344Y-118703873D01*
X141138127Y-118872656D01*
X141274453Y-118929124D01*
X141178810Y-118910099D01*
X141178805Y-118910099D01*
X141127999Y-118899993D01*
X141077193Y-118910099D01*
X138736006Y-118910099D01*
X138684656Y-118786127D01*
X138515873Y-118617344D01*
X138295347Y-118526000D01*
X138056653Y-118526000D01*
X137836127Y-118617344D01*
X137667344Y-118786127D01*
X137576000Y-119006653D01*
X137576000Y-119245347D01*
X137667344Y-119465873D01*
X137836127Y-119634656D01*
X138039164Y-119718756D01*
X138075273Y-119754865D01*
X138104056Y-119797942D01*
X138171571Y-119843054D01*
X138274705Y-119911966D01*
X138475999Y-119952006D01*
X138526810Y-119941899D01*
X138686449Y-119941899D01*
X138669123Y-120029000D01*
X138669123Y-120479000D01*
X138689015Y-120579000D01*
X138669123Y-120679000D01*
X138669123Y-121129000D01*
X138689015Y-121229000D01*
X138669123Y-121329000D01*
X138669123Y-121779000D01*
X138689015Y-121879000D01*
X138669123Y-121979000D01*
X138669123Y-122429000D01*
X138692407Y-122546054D01*
X138758712Y-122645288D01*
X138857946Y-122711593D01*
X138975000Y-122734877D01*
X139184100Y-122734877D01*
X139184101Y-123660713D01*
X138705078Y-123859131D01*
X138577600Y-123986609D01*
X138577600Y-122721549D01*
X138585467Y-122682000D01*
X138570096Y-122604725D01*
X138554298Y-122525304D01*
X138465537Y-122392463D01*
X138432007Y-122370059D01*
X137760000Y-121698052D01*
X137760000Y-121546653D01*
X137668656Y-121326127D01*
X137499873Y-121157344D01*
X137279347Y-121066000D01*
X137040653Y-121066000D01*
X136820127Y-121157344D01*
X136651344Y-121326127D01*
X136560000Y-121546653D01*
X136560000Y-121785347D01*
X136651344Y-122005873D01*
X136820127Y-122174656D01*
X137040653Y-122266000D01*
X137192052Y-122266000D01*
X137774401Y-122848349D01*
X137774401Y-123654123D01*
X135898000Y-123654123D01*
X135780946Y-123677407D01*
X135681712Y-123743712D01*
X135615407Y-123842946D01*
X135592123Y-123960000D01*
X135592123Y-125976000D01*
X135615407Y-126093054D01*
X135681712Y-126192288D01*
X135780946Y-126258593D01*
X135898000Y-126281877D01*
X137774400Y-126281877D01*
X137774400Y-126512579D01*
X137452294Y-126646000D01*
X136928394Y-126646000D01*
X136926593Y-126636946D01*
X136860288Y-126537712D01*
X136761054Y-126471407D01*
X136644000Y-126448123D01*
X135776283Y-126448123D01*
X135765610Y-126446000D01*
X131187623Y-126446000D01*
X130402000Y-125660377D01*
X130402000Y-121585000D01*
X131989934Y-121585000D01*
X132082020Y-121603317D01*
X132174106Y-121585000D01*
X132446839Y-121530750D01*
X132486418Y-121504304D01*
X132516470Y-121495205D01*
X140606789Y-116101659D01*
X145654000Y-116101659D01*
X145654000Y-116562341D01*
X145830295Y-116987955D01*
X146156045Y-117313705D01*
X146581659Y-117490000D01*
X147042341Y-117490000D01*
X147467955Y-117313705D01*
X147781360Y-117000300D01*
X151672723Y-117000300D01*
X151768946Y-117064593D01*
X151886000Y-117087877D01*
X153086000Y-117087877D01*
X153203054Y-117064593D01*
X153302288Y-116998288D01*
X153368593Y-116899054D01*
X153391877Y-116782000D01*
X153391877Y-115882000D01*
X153368593Y-115764946D01*
X153302288Y-115665712D01*
X153203054Y-115599407D01*
X153086000Y-115576123D01*
X151886000Y-115576123D01*
X151768946Y-115599407D01*
X151672723Y-115663700D01*
X147781360Y-115663700D01*
X147467955Y-115350295D01*
X147042341Y-115174000D01*
X146581659Y-115174000D01*
X146156045Y-115350295D01*
X145830295Y-115676045D01*
X145654000Y-116101659D01*
X140606789Y-116101659D01*
X142041470Y-115145205D01*
X142069089Y-115117644D01*
X142084058Y-115081612D01*
X142086000Y-115062000D01*
X142086000Y-111612121D01*
X150050000Y-111612121D01*
X150050000Y-112387879D01*
X150346870Y-113104586D01*
X150895414Y-113653130D01*
X151612121Y-113950000D01*
X152387879Y-113950000D01*
X153104586Y-113653130D01*
X153653130Y-113104586D01*
X153950000Y-112387879D01*
X153950000Y-111612121D01*
X153653130Y-110895414D01*
X153104586Y-110346870D01*
X152387879Y-110050000D01*
X151612121Y-110050000D01*
X150895414Y-110346870D01*
X150346870Y-110895414D01*
X150050000Y-111612121D01*
X142086000Y-111612121D01*
X142086000Y-87612121D01*
X150050000Y-87612121D01*
X150050000Y-88387879D01*
X150346870Y-89104586D01*
X150895414Y-89653130D01*
X151612121Y-89950000D01*
X152387879Y-89950000D01*
X153104586Y-89653130D01*
X153653130Y-89104586D01*
X153950000Y-88387879D01*
X153950000Y-87612121D01*
X153653130Y-86895414D01*
X153104586Y-86346870D01*
X152387879Y-86050000D01*
X151612121Y-86050000D01*
X150895414Y-86346870D01*
X150346870Y-86895414D01*
X150050000Y-87612121D01*
X142086000Y-87612121D01*
X142086000Y-84936000D01*
X159920000Y-84936000D01*
X159920000Y-116508354D01*
X159920000Y-116508354D01*
G37*
X159920000Y-116508354D02*
X159885347Y-116494000D01*
X159646653Y-116494000D01*
X159426127Y-116585344D01*
X159257344Y-116754127D01*
X159166000Y-116974653D01*
X159166000Y-117213347D01*
X159201520Y-117299100D01*
X158530583Y-117299100D01*
X158479777Y-117288994D01*
X158428971Y-117299100D01*
X158428967Y-117299100D01*
X158278484Y-117329033D01*
X158107835Y-117443057D01*
X158079052Y-117486134D01*
X157834877Y-117730309D01*
X157834877Y-117590000D01*
X157814985Y-117490000D01*
X157834877Y-117390000D01*
X157834877Y-116940000D01*
X157814985Y-116840000D01*
X157834877Y-116740000D01*
X157834877Y-116290000D01*
X157814985Y-116190000D01*
X157834877Y-116090000D01*
X157834877Y-115640000D01*
X157811593Y-115522946D01*
X157745288Y-115423712D01*
X157646054Y-115357407D01*
X157529000Y-115334123D01*
X157393323Y-115334123D01*
X157404000Y-115308347D01*
X157404000Y-115069653D01*
X157345927Y-114929452D01*
X157375593Y-114885054D01*
X157398877Y-114768000D01*
X157398877Y-113568000D01*
X157375593Y-113450946D01*
X157309288Y-113351712D01*
X157210054Y-113285407D01*
X157093000Y-113262123D01*
X156343000Y-113262123D01*
X156225946Y-113285407D01*
X156126712Y-113351712D01*
X156060407Y-113450946D01*
X156037123Y-113568000D01*
X156037123Y-114768000D01*
X156060407Y-114885054D01*
X156126712Y-114984288D01*
X156214941Y-115043240D01*
X156204000Y-115069653D01*
X156204000Y-115308347D01*
X156214677Y-115334123D01*
X156079000Y-115334123D01*
X155961946Y-115357407D01*
X155862712Y-115423712D01*
X155796407Y-115522946D01*
X155773123Y-115640000D01*
X155773123Y-115999100D01*
X155591877Y-115999100D01*
X155591877Y-115882000D01*
X155568593Y-115764946D01*
X155502288Y-115665712D01*
X155403054Y-115599407D01*
X155286000Y-115576123D01*
X154086000Y-115576123D01*
X153968946Y-115599407D01*
X153869712Y-115665712D01*
X153803407Y-115764946D01*
X153780123Y-115882000D01*
X153780123Y-116782000D01*
X153803407Y-116899054D01*
X153869712Y-116998288D01*
X153968946Y-117064593D01*
X154086000Y-117087877D01*
X155049530Y-117087877D01*
X154289308Y-117848100D01*
X141800384Y-117848100D01*
X141597347Y-117764000D01*
X141358653Y-117764000D01*
X141138127Y-117855344D01*
X140969344Y-118024127D01*
X140878000Y-118244653D01*
X140878000Y-118483347D01*
X140969344Y-118703873D01*
X141138127Y-118872656D01*
X141274453Y-118929124D01*
X141178810Y-118910099D01*
X141178805Y-118910099D01*
X141127999Y-118899993D01*
X141077193Y-118910099D01*
X138736006Y-118910099D01*
X138684656Y-118786127D01*
X138515873Y-118617344D01*
X138295347Y-118526000D01*
X138056653Y-118526000D01*
X137836127Y-118617344D01*
X137667344Y-118786127D01*
X137576000Y-119006653D01*
X137576000Y-119245347D01*
X137667344Y-119465873D01*
X137836127Y-119634656D01*
X138039164Y-119718756D01*
X138075273Y-119754865D01*
X138104056Y-119797942D01*
X138171571Y-119843054D01*
X138274705Y-119911966D01*
X138475999Y-119952006D01*
X138526810Y-119941899D01*
X138686449Y-119941899D01*
X138669123Y-120029000D01*
X138669123Y-120479000D01*
X138689015Y-120579000D01*
X138669123Y-120679000D01*
X138669123Y-121129000D01*
X138689015Y-121229000D01*
X138669123Y-121329000D01*
X138669123Y-121779000D01*
X138689015Y-121879000D01*
X138669123Y-121979000D01*
X138669123Y-122429000D01*
X138692407Y-122546054D01*
X138758712Y-122645288D01*
X138857946Y-122711593D01*
X138975000Y-122734877D01*
X139184100Y-122734877D01*
X139184101Y-123660713D01*
X138705078Y-123859131D01*
X138577600Y-123986609D01*
X138577600Y-122721549D01*
X138585467Y-122682000D01*
X138570096Y-122604725D01*
X138554298Y-122525304D01*
X138465537Y-122392463D01*
X138432007Y-122370059D01*
X137760000Y-121698052D01*
X137760000Y-121546653D01*
X137668656Y-121326127D01*
X137499873Y-121157344D01*
X137279347Y-121066000D01*
X137040653Y-121066000D01*
X136820127Y-121157344D01*
X136651344Y-121326127D01*
X136560000Y-121546653D01*
X136560000Y-121785347D01*
X136651344Y-122005873D01*
X136820127Y-122174656D01*
X137040653Y-122266000D01*
X137192052Y-122266000D01*
X137774401Y-122848349D01*
X137774401Y-123654123D01*
X135898000Y-123654123D01*
X135780946Y-123677407D01*
X135681712Y-123743712D01*
X135615407Y-123842946D01*
X135592123Y-123960000D01*
X135592123Y-125976000D01*
X135615407Y-126093054D01*
X135681712Y-126192288D01*
X135780946Y-126258593D01*
X135898000Y-126281877D01*
X137774400Y-126281877D01*
X137774400Y-126512579D01*
X137452294Y-126646000D01*
X136928394Y-126646000D01*
X136926593Y-126636946D01*
X136860288Y-126537712D01*
X136761054Y-126471407D01*
X136644000Y-126448123D01*
X135776283Y-126448123D01*
X135765610Y-126446000D01*
X131187623Y-126446000D01*
X130402000Y-125660377D01*
X130402000Y-121585000D01*
X131989934Y-121585000D01*
X132082020Y-121603317D01*
X132174106Y-121585000D01*
X132446839Y-121530750D01*
X132486418Y-121504304D01*
X132516470Y-121495205D01*
X140606789Y-116101659D01*
X145654000Y-116101659D01*
X145654000Y-116562341D01*
X145830295Y-116987955D01*
X146156045Y-117313705D01*
X146581659Y-117490000D01*
X147042341Y-117490000D01*
X147467955Y-117313705D01*
X147781360Y-117000300D01*
X151672723Y-117000300D01*
X151768946Y-117064593D01*
X151886000Y-117087877D01*
X153086000Y-117087877D01*
X153203054Y-117064593D01*
X153302288Y-116998288D01*
X153368593Y-116899054D01*
X153391877Y-116782000D01*
X153391877Y-115882000D01*
X153368593Y-115764946D01*
X153302288Y-115665712D01*
X153203054Y-115599407D01*
X153086000Y-115576123D01*
X151886000Y-115576123D01*
X151768946Y-115599407D01*
X151672723Y-115663700D01*
X147781360Y-115663700D01*
X147467955Y-115350295D01*
X147042341Y-115174000D01*
X146581659Y-115174000D01*
X146156045Y-115350295D01*
X145830295Y-115676045D01*
X145654000Y-116101659D01*
X140606789Y-116101659D01*
X142041470Y-115145205D01*
X142069089Y-115117644D01*
X142084058Y-115081612D01*
X142086000Y-115062000D01*
X142086000Y-111612121D01*
X150050000Y-111612121D01*
X150050000Y-112387879D01*
X150346870Y-113104586D01*
X150895414Y-113653130D01*
X151612121Y-113950000D01*
X152387879Y-113950000D01*
X153104586Y-113653130D01*
X153653130Y-113104586D01*
X153950000Y-112387879D01*
X153950000Y-111612121D01*
X153653130Y-110895414D01*
X153104586Y-110346870D01*
X152387879Y-110050000D01*
X151612121Y-110050000D01*
X150895414Y-110346870D01*
X150346870Y-110895414D01*
X150050000Y-111612121D01*
X142086000Y-111612121D01*
X142086000Y-87612121D01*
X150050000Y-87612121D01*
X150050000Y-88387879D01*
X150346870Y-89104586D01*
X150895414Y-89653130D01*
X151612121Y-89950000D01*
X152387879Y-89950000D01*
X153104586Y-89653130D01*
X153653130Y-89104586D01*
X153950000Y-88387879D01*
X153950000Y-87612121D01*
X153653130Y-86895414D01*
X153104586Y-86346870D01*
X152387879Y-86050000D01*
X151612121Y-86050000D01*
X150895414Y-86346870D01*
X150346870Y-86895414D01*
X150050000Y-87612121D01*
X142086000Y-87612121D01*
X142086000Y-84936000D01*
X159920000Y-84936000D01*
X159920000Y-116508354D01*
G36*
X159920000Y-124735545D02*
X156970321Y-121785866D01*
X156958534Y-121726607D01*
X156923442Y-121674087D01*
X156972656Y-121624873D01*
X157064000Y-121404347D01*
X157064000Y-121165653D01*
X156979900Y-120962616D01*
X156979900Y-120609692D01*
X157557716Y-120031877D01*
X158109000Y-120031877D01*
X158226054Y-120008593D01*
X158325288Y-119942288D01*
X158391593Y-119843054D01*
X158414877Y-119726000D01*
X158414877Y-118609493D01*
X158693470Y-118330900D01*
X159920000Y-118330900D01*
X159920000Y-124735545D01*
X159920000Y-124735545D01*
G37*
X159920000Y-124735545D02*
X156970321Y-121785866D01*
X156958534Y-121726607D01*
X156923442Y-121674087D01*
X156972656Y-121624873D01*
X157064000Y-121404347D01*
X157064000Y-121165653D01*
X156979900Y-120962616D01*
X156979900Y-120609692D01*
X157557716Y-120031877D01*
X158109000Y-120031877D01*
X158226054Y-120008593D01*
X158325288Y-119942288D01*
X158391593Y-119843054D01*
X158414877Y-119726000D01*
X158414877Y-118609493D01*
X158693470Y-118330900D01*
X159920000Y-118330900D01*
X159920000Y-124735545D01*
G04 #@! TD*
M02*
