G04 #@! TF.GenerationSoftware,KiCad,Pcbnew,(5.0.0)*
G04 #@! TF.CreationDate,2018-10-21T14:19:47+08:00*
G04 #@! TF.ProjectId,PSU 4CH V1_PCBV2,505355203443482056315F5043425632,rev?*
G04 #@! TF.SameCoordinates,Original*
G04 #@! TF.FileFunction,Legend,Top*
G04 #@! TF.FilePolarity,Positive*
%FSLAX46Y46*%
G04 Gerber Fmt 4.6, Leading zero omitted, Abs format (unit mm)*
G04 Created by KiCad (PCBNEW (5.0.0)) date 10/21/18 14:19:47*
%MOMM*%
%LPD*%
G01*
G04 APERTURE LIST*
%ADD10C,0.300000*%
%ADD11C,0.200000*%
%ADD12C,0.120000*%
%ADD13C,0.150000*%
G04 APERTURE END LIST*
D10*
X138785714Y-95067857D02*
X138285714Y-95067857D01*
X138285714Y-95853571D02*
X138285714Y-94353571D01*
X139000000Y-94353571D01*
X139500000Y-95425000D02*
X140214285Y-95425000D01*
X139357142Y-95853571D02*
X139857142Y-94353571D01*
X140357142Y-95853571D01*
X140857142Y-95853571D02*
X140857142Y-94353571D01*
X141714285Y-95853571D01*
X141714285Y-94353571D01*
X134928571Y-96903571D02*
X135857142Y-96903571D01*
X135357142Y-97475000D01*
X135571428Y-97475000D01*
X135714285Y-97546428D01*
X135785714Y-97617857D01*
X135857142Y-97760714D01*
X135857142Y-98117857D01*
X135785714Y-98260714D01*
X135714285Y-98332142D01*
X135571428Y-98403571D01*
X135142857Y-98403571D01*
X135000000Y-98332142D01*
X134928571Y-98260714D01*
X136785714Y-96903571D02*
X136928571Y-96903571D01*
X137071428Y-96975000D01*
X137142857Y-97046428D01*
X137214285Y-97189285D01*
X137285714Y-97475000D01*
X137285714Y-97832142D01*
X137214285Y-98117857D01*
X137142857Y-98260714D01*
X137071428Y-98332142D01*
X136928571Y-98403571D01*
X136785714Y-98403571D01*
X136642857Y-98332142D01*
X136571428Y-98260714D01*
X136500000Y-98117857D01*
X136428571Y-97832142D01*
X136428571Y-97475000D01*
X136500000Y-97189285D01*
X136571428Y-97046428D01*
X136642857Y-96975000D01*
X136785714Y-96903571D01*
X137928571Y-98403571D02*
X137928571Y-97403571D01*
X137928571Y-97546428D02*
X138000000Y-97475000D01*
X138142857Y-97403571D01*
X138357142Y-97403571D01*
X138500000Y-97475000D01*
X138571428Y-97617857D01*
X138571428Y-98403571D01*
X138571428Y-97617857D02*
X138642857Y-97475000D01*
X138785714Y-97403571D01*
X139000000Y-97403571D01*
X139142857Y-97475000D01*
X139214285Y-97617857D01*
X139214285Y-98403571D01*
X139928571Y-98403571D02*
X139928571Y-97403571D01*
X139928571Y-97546428D02*
X140000000Y-97475000D01*
X140142857Y-97403571D01*
X140357142Y-97403571D01*
X140500000Y-97475000D01*
X140571428Y-97617857D01*
X140571428Y-98403571D01*
X140571428Y-97617857D02*
X140642857Y-97475000D01*
X140785714Y-97403571D01*
X141000000Y-97403571D01*
X141142857Y-97475000D01*
X141214285Y-97617857D01*
X141214285Y-98403571D01*
X142357142Y-98975000D02*
X142285714Y-98903571D01*
X142142857Y-98689285D01*
X142071428Y-98546428D01*
X142000000Y-98332142D01*
X141928571Y-97975000D01*
X141928571Y-97689285D01*
X142000000Y-97332142D01*
X142071428Y-97117857D01*
X142142857Y-96975000D01*
X142285714Y-96760714D01*
X142357142Y-96689285D01*
X142785714Y-96903571D02*
X143142857Y-98403571D01*
X143428571Y-97332142D01*
X143714285Y-98403571D01*
X144071428Y-96903571D01*
X144500000Y-98975000D02*
X144571428Y-98903571D01*
X144714285Y-98689285D01*
X144785714Y-98546428D01*
X144857142Y-98332142D01*
X144928571Y-97975000D01*
X144928571Y-97689285D01*
X144857142Y-97332142D01*
X144785714Y-97117857D01*
X144714285Y-96975000D01*
X144571428Y-96760714D01*
X144500000Y-96689285D01*
X135035714Y-99453571D02*
X135964285Y-99453571D01*
X135464285Y-100025000D01*
X135678571Y-100025000D01*
X135821428Y-100096428D01*
X135892857Y-100167857D01*
X135964285Y-100310714D01*
X135964285Y-100667857D01*
X135892857Y-100810714D01*
X135821428Y-100882142D01*
X135678571Y-100953571D01*
X135250000Y-100953571D01*
X135107142Y-100882142D01*
X135035714Y-100810714D01*
X136892857Y-99453571D02*
X137035714Y-99453571D01*
X137178571Y-99525000D01*
X137250000Y-99596428D01*
X137321428Y-99739285D01*
X137392857Y-100025000D01*
X137392857Y-100382142D01*
X137321428Y-100667857D01*
X137250000Y-100810714D01*
X137178571Y-100882142D01*
X137035714Y-100953571D01*
X136892857Y-100953571D01*
X136750000Y-100882142D01*
X136678571Y-100810714D01*
X136607142Y-100667857D01*
X136535714Y-100382142D01*
X136535714Y-100025000D01*
X136607142Y-99739285D01*
X136678571Y-99596428D01*
X136750000Y-99525000D01*
X136892857Y-99453571D01*
X138035714Y-100953571D02*
X138035714Y-99953571D01*
X138035714Y-100096428D02*
X138107142Y-100025000D01*
X138250000Y-99953571D01*
X138464285Y-99953571D01*
X138607142Y-100025000D01*
X138678571Y-100167857D01*
X138678571Y-100953571D01*
X138678571Y-100167857D02*
X138750000Y-100025000D01*
X138892857Y-99953571D01*
X139107142Y-99953571D01*
X139250000Y-100025000D01*
X139321428Y-100167857D01*
X139321428Y-100953571D01*
X140035714Y-100953571D02*
X140035714Y-99953571D01*
X140035714Y-100096428D02*
X140107142Y-100025000D01*
X140250000Y-99953571D01*
X140464285Y-99953571D01*
X140607142Y-100025000D01*
X140678571Y-100167857D01*
X140678571Y-100953571D01*
X140678571Y-100167857D02*
X140750000Y-100025000D01*
X140892857Y-99953571D01*
X141107142Y-99953571D01*
X141250000Y-100025000D01*
X141321428Y-100167857D01*
X141321428Y-100953571D01*
X142464285Y-101525000D02*
X142392857Y-101453571D01*
X142250000Y-101239285D01*
X142178571Y-101096428D01*
X142107142Y-100882142D01*
X142035714Y-100525000D01*
X142035714Y-100239285D01*
X142107142Y-99882142D01*
X142178571Y-99667857D01*
X142250000Y-99525000D01*
X142392857Y-99310714D01*
X142464285Y-99239285D01*
X143535714Y-100167857D02*
X143750000Y-100239285D01*
X143821428Y-100310714D01*
X143892857Y-100453571D01*
X143892857Y-100667857D01*
X143821428Y-100810714D01*
X143750000Y-100882142D01*
X143607142Y-100953571D01*
X143035714Y-100953571D01*
X143035714Y-99453571D01*
X143535714Y-99453571D01*
X143678571Y-99525000D01*
X143750000Y-99596428D01*
X143821428Y-99739285D01*
X143821428Y-99882142D01*
X143750000Y-100025000D01*
X143678571Y-100096428D01*
X143535714Y-100167857D01*
X143035714Y-100167857D01*
X144392857Y-101525000D02*
X144464285Y-101453571D01*
X144607142Y-101239285D01*
X144678571Y-101096428D01*
X144750000Y-100882142D01*
X144821428Y-100525000D01*
X144821428Y-100239285D01*
X144750000Y-99882142D01*
X144678571Y-99667857D01*
X144607142Y-99525000D01*
X144464285Y-99310714D01*
X144392857Y-99239285D01*
X135928571Y-103503571D02*
X135071428Y-103503571D01*
X135500000Y-103503571D02*
X135500000Y-102003571D01*
X135357142Y-102217857D01*
X135214285Y-102360714D01*
X135071428Y-102432142D01*
X137285714Y-102003571D02*
X136571428Y-102003571D01*
X136500000Y-102717857D01*
X136571428Y-102646428D01*
X136714285Y-102575000D01*
X137071428Y-102575000D01*
X137214285Y-102646428D01*
X137285714Y-102717857D01*
X137357142Y-102860714D01*
X137357142Y-103217857D01*
X137285714Y-103360714D01*
X137214285Y-103432142D01*
X137071428Y-103503571D01*
X136714285Y-103503571D01*
X136571428Y-103432142D01*
X136500000Y-103360714D01*
X138000000Y-103503571D02*
X138000000Y-102503571D01*
X138000000Y-102646428D02*
X138071428Y-102575000D01*
X138214285Y-102503571D01*
X138428571Y-102503571D01*
X138571428Y-102575000D01*
X138642857Y-102717857D01*
X138642857Y-103503571D01*
X138642857Y-102717857D02*
X138714285Y-102575000D01*
X138857142Y-102503571D01*
X139071428Y-102503571D01*
X139214285Y-102575000D01*
X139285714Y-102717857D01*
X139285714Y-103503571D01*
X140000000Y-103503571D02*
X140000000Y-102503571D01*
X140000000Y-102646428D02*
X140071428Y-102575000D01*
X140214285Y-102503571D01*
X140428571Y-102503571D01*
X140571428Y-102575000D01*
X140642857Y-102717857D01*
X140642857Y-103503571D01*
X140642857Y-102717857D02*
X140714285Y-102575000D01*
X140857142Y-102503571D01*
X141071428Y-102503571D01*
X141214285Y-102575000D01*
X141285714Y-102717857D01*
X141285714Y-103503571D01*
X142428571Y-104075000D02*
X142357142Y-104003571D01*
X142214285Y-103789285D01*
X142142857Y-103646428D01*
X142071428Y-103432142D01*
X142000000Y-103075000D01*
X142000000Y-102789285D01*
X142071428Y-102432142D01*
X142142857Y-102217857D01*
X142214285Y-102075000D01*
X142357142Y-101860714D01*
X142428571Y-101789285D01*
X143000000Y-103503571D02*
X143000000Y-102003571D01*
X143000000Y-102717857D02*
X143857142Y-102717857D01*
X143857142Y-103503571D02*
X143857142Y-102003571D01*
X144428571Y-104075000D02*
X144500000Y-104003571D01*
X144642857Y-103789285D01*
X144714285Y-103646428D01*
X144785714Y-103432142D01*
X144857142Y-103075000D01*
X144857142Y-102789285D01*
X144785714Y-102432142D01*
X144714285Y-102217857D01*
X144642857Y-102075000D01*
X144500000Y-101860714D01*
X144428571Y-101789285D01*
D11*
X155000000Y-115000000D02*
X125000000Y-115000000D01*
X155000000Y-85000000D02*
X125000000Y-85000000D01*
X125000000Y-85000000D02*
X125000000Y-115000000D01*
X155000000Y-85000000D02*
X155000000Y-115000000D01*
X154000000Y-100000000D02*
G75*
G03X154000000Y-100000000I-14000000J0D01*
G01*
X147000000Y-100000000D02*
G75*
G03X147000000Y-100000000I-7000000J0D01*
G01*
D12*
G04 #@! TO.C,C2*
X154524000Y-119980000D02*
X154524000Y-120680000D01*
X153324000Y-120680000D02*
X153324000Y-119980000D01*
G04 #@! TO.C,C8*
X172050000Y-100869000D02*
X172050000Y-101569000D01*
X170850000Y-101569000D02*
X170850000Y-100869000D01*
D13*
G04 #@! TO.C,C9*
X179260000Y-95885000D02*
G75*
G03X179260000Y-95885000I-4000000J0D01*
G01*
X171386500Y-95186500D02*
X171386500Y-96456500D01*
X171450000Y-94869000D02*
X171386500Y-95186500D01*
X171450000Y-96964500D02*
X171450000Y-94869000D01*
X171577000Y-97345500D02*
X171450000Y-96964500D01*
X171577000Y-94551500D02*
X171577000Y-97345500D01*
X171704000Y-94170500D02*
X171577000Y-94551500D01*
X171704000Y-97536000D02*
X171704000Y-94170500D01*
X171831000Y-97790000D02*
X171704000Y-97536000D01*
X171831000Y-93980000D02*
X171831000Y-97790000D01*
X171958000Y-93789500D02*
X171831000Y-93980000D01*
X171958000Y-98044000D02*
X171958000Y-93789500D01*
X172085000Y-98298000D02*
X171958000Y-98044000D01*
X172085000Y-93535500D02*
X172085000Y-98298000D01*
X172212000Y-93408500D02*
X172085000Y-93535500D01*
X172212000Y-98361500D02*
X172212000Y-93408500D01*
X172339000Y-98488500D02*
X172212000Y-98361500D01*
X172339000Y-93281500D02*
X172339000Y-98488500D01*
X172466000Y-93154500D02*
X172339000Y-93281500D01*
X172466000Y-98679000D02*
X172466000Y-93154500D01*
X172593000Y-98742500D02*
X172466000Y-98679000D01*
X172593000Y-93027500D02*
X172593000Y-98742500D01*
X172720000Y-92837000D02*
X172593000Y-93027500D01*
X172720000Y-98933000D02*
X172720000Y-92837000D01*
X172847000Y-99060000D02*
X172720000Y-98933000D01*
X175260000Y-91948000D02*
X175133000Y-91948000D01*
X175260000Y-99885500D02*
X175260000Y-91948000D01*
X175260000Y-95885000D02*
G75*
G03X175260000Y-95885000I-1270000J0D01*
G01*
X172085000Y-93662500D02*
X172021500Y-93726000D01*
X172593000Y-93027500D02*
X172466000Y-93154500D01*
X171513500Y-94678500D02*
X171513500Y-94869000D01*
X171894500Y-97853500D02*
X172085000Y-97917000D01*
X171767500Y-97790000D02*
X171894500Y-97853500D01*
X172720000Y-98869500D02*
X172339000Y-98488500D01*
X172847000Y-96520000D02*
X172847000Y-98996500D01*
X172974000Y-96710500D02*
X172847000Y-96520000D01*
X172974000Y-99123500D02*
X172974000Y-96710500D01*
X173101000Y-99187000D02*
X172974000Y-99123500D01*
X173101000Y-96837500D02*
X173101000Y-99187000D01*
X173228000Y-96901000D02*
X173101000Y-96837500D01*
X173228000Y-99314000D02*
X173228000Y-96901000D01*
X173355000Y-99377500D02*
X173228000Y-99314000D01*
X173355000Y-97028000D02*
X173355000Y-99377500D01*
X173482000Y-97091500D02*
X173355000Y-97028000D01*
X173482000Y-99441000D02*
X173482000Y-97091500D01*
X173609000Y-99504500D02*
X173482000Y-99441000D01*
X173609000Y-97155000D02*
X173609000Y-99504500D01*
X173736000Y-97155000D02*
X173609000Y-97155000D01*
X173736000Y-99568000D02*
X173736000Y-97155000D01*
X173863000Y-99631500D02*
X173736000Y-99568000D01*
X173863000Y-97155000D02*
X173863000Y-99631500D01*
X173990000Y-97155000D02*
X173863000Y-97155000D01*
X173990000Y-99631500D02*
X173990000Y-97155000D01*
X174117000Y-99695000D02*
X173990000Y-99631500D01*
X174117000Y-97155000D02*
X174117000Y-99695000D01*
X174244000Y-97155000D02*
X174117000Y-97155000D01*
X174244000Y-99695000D02*
X174244000Y-97155000D01*
X174371000Y-99695000D02*
X174244000Y-99695000D01*
X174371000Y-97155000D02*
X174371000Y-99695000D01*
X174498000Y-97091500D02*
X174371000Y-97155000D01*
X174498000Y-99758500D02*
X174498000Y-97091500D01*
X174625000Y-99822000D02*
X174498000Y-99758500D01*
X174625000Y-97091500D02*
X174625000Y-99822000D01*
X174752000Y-96964500D02*
X174625000Y-97091500D01*
X174752000Y-99758500D02*
X174752000Y-96964500D01*
X174879000Y-99822000D02*
X174752000Y-99758500D01*
X174879000Y-96837500D02*
X174879000Y-99822000D01*
X175006000Y-96710500D02*
X174879000Y-96837500D01*
X175006000Y-99822000D02*
X175006000Y-96710500D01*
X172847000Y-95250000D02*
X172847000Y-92773500D01*
X172974000Y-95059500D02*
X172847000Y-95250000D01*
X172974000Y-92710000D02*
X172974000Y-95059500D01*
X173101000Y-92519500D02*
X172974000Y-92710000D01*
X173101000Y-94932500D02*
X173101000Y-92519500D01*
X173228000Y-94869000D02*
X173101000Y-94932500D01*
X173228000Y-92519500D02*
X173228000Y-94869000D01*
X173355000Y-92392500D02*
X173228000Y-92519500D01*
X173355000Y-94742000D02*
X173355000Y-92392500D01*
X173482000Y-94678500D02*
X173355000Y-94742000D01*
X173482000Y-92392500D02*
X173482000Y-94678500D01*
X173609000Y-92265500D02*
X173482000Y-92392500D01*
X173609000Y-94678500D02*
X173609000Y-92265500D01*
X173736000Y-94615000D02*
X173609000Y-94678500D01*
X173736000Y-92265500D02*
X173736000Y-94615000D01*
X173863000Y-92202000D02*
X173736000Y-92265500D01*
X173863000Y-94551500D02*
X173863000Y-92202000D01*
X173990000Y-94551500D02*
X173863000Y-94551500D01*
X173990000Y-92138500D02*
X173990000Y-94551500D01*
X174117000Y-92075000D02*
X173990000Y-92138500D01*
X174117000Y-94615000D02*
X174117000Y-92075000D01*
X174244000Y-94615000D02*
X174117000Y-94615000D01*
X174244000Y-92075000D02*
X174244000Y-94615000D01*
X174371000Y-92075000D02*
X174244000Y-92075000D01*
X174371000Y-94615000D02*
X174371000Y-92075000D01*
X174498000Y-94678500D02*
X174371000Y-94615000D01*
X174498000Y-92011500D02*
X174498000Y-94678500D01*
X174625000Y-91948000D02*
X174498000Y-92011500D01*
X174625000Y-94742000D02*
X174625000Y-91948000D01*
X174752000Y-94805500D02*
X174625000Y-94742000D01*
X174752000Y-91948000D02*
X174752000Y-94805500D01*
X174879000Y-91948000D02*
X174752000Y-91948000D01*
X174879000Y-94932500D02*
X174879000Y-91948000D01*
X175006000Y-95059500D02*
X174879000Y-94932500D01*
X175006000Y-91948000D02*
X175006000Y-95059500D01*
X175133000Y-91948000D02*
X175133000Y-95250000D01*
X175133000Y-96583500D02*
X175133000Y-99758500D01*
X175260000Y-96456500D02*
X175133000Y-96583500D01*
X178054000Y-95885000D02*
X178562000Y-95885000D01*
X178308000Y-96139000D02*
X178308000Y-95631000D01*
G04 #@! TO.C,C10*
X173609000Y-84582000D02*
X173101000Y-84582000D01*
X173355000Y-84836000D02*
X173355000Y-84328000D01*
X173926500Y-87630000D02*
X174053500Y-87757000D01*
X174053500Y-87757000D02*
X177228500Y-87757000D01*
X169418000Y-87757000D02*
X172720000Y-87757000D01*
X169418000Y-87884000D02*
X172529500Y-87884000D01*
X172529500Y-87884000D02*
X172402500Y-88011000D01*
X172402500Y-88011000D02*
X169418000Y-88011000D01*
X169418000Y-88011000D02*
X169418000Y-88138000D01*
X169418000Y-88138000D02*
X172275500Y-88138000D01*
X172275500Y-88138000D02*
X172212000Y-88265000D01*
X172212000Y-88265000D02*
X169418000Y-88265000D01*
X169418000Y-88265000D02*
X169481500Y-88392000D01*
X169481500Y-88392000D02*
X172148500Y-88392000D01*
X172148500Y-88392000D02*
X172085000Y-88519000D01*
X172085000Y-88519000D02*
X169545000Y-88519000D01*
X169545000Y-88519000D02*
X169545000Y-88646000D01*
X169545000Y-88646000D02*
X172085000Y-88646000D01*
X172085000Y-88646000D02*
X172085000Y-88773000D01*
X172085000Y-88773000D02*
X169545000Y-88773000D01*
X169545000Y-88773000D02*
X169608500Y-88900000D01*
X169608500Y-88900000D02*
X172021500Y-88900000D01*
X172021500Y-88900000D02*
X172021500Y-89027000D01*
X172021500Y-89027000D02*
X169672000Y-89027000D01*
X169672000Y-89027000D02*
X169735500Y-89154000D01*
X169735500Y-89154000D02*
X172085000Y-89154000D01*
X172085000Y-89154000D02*
X172148500Y-89281000D01*
X172148500Y-89281000D02*
X169735500Y-89281000D01*
X169735500Y-89281000D02*
X169862500Y-89408000D01*
X169862500Y-89408000D02*
X172148500Y-89408000D01*
X172148500Y-89408000D02*
X172212000Y-89535000D01*
X172212000Y-89535000D02*
X169862500Y-89535000D01*
X169862500Y-89535000D02*
X169989500Y-89662000D01*
X169989500Y-89662000D02*
X172339000Y-89662000D01*
X172339000Y-89662000D02*
X172402500Y-89789000D01*
X172402500Y-89789000D02*
X169989500Y-89789000D01*
X169989500Y-89789000D02*
X170180000Y-89916000D01*
X170180000Y-89916000D02*
X172529500Y-89916000D01*
X172529500Y-89916000D02*
X172720000Y-90043000D01*
X172720000Y-90043000D02*
X170243500Y-90043000D01*
X177292000Y-87884000D02*
X174180500Y-87884000D01*
X174180500Y-87884000D02*
X174307500Y-88011000D01*
X174307500Y-88011000D02*
X177292000Y-88011000D01*
X177292000Y-88011000D02*
X177228500Y-88138000D01*
X177228500Y-88138000D02*
X174434500Y-88138000D01*
X174434500Y-88138000D02*
X174561500Y-88265000D01*
X174561500Y-88265000D02*
X177292000Y-88265000D01*
X177292000Y-88265000D02*
X177228500Y-88392000D01*
X177228500Y-88392000D02*
X174561500Y-88392000D01*
X174561500Y-88392000D02*
X174625000Y-88519000D01*
X174625000Y-88519000D02*
X177165000Y-88519000D01*
X177165000Y-88519000D02*
X177165000Y-88646000D01*
X177165000Y-88646000D02*
X174625000Y-88646000D01*
X174625000Y-88646000D02*
X174625000Y-88773000D01*
X174625000Y-88773000D02*
X177165000Y-88773000D01*
X177165000Y-88773000D02*
X177101500Y-88900000D01*
X177101500Y-88900000D02*
X174625000Y-88900000D01*
X174625000Y-88900000D02*
X174625000Y-89027000D01*
X174625000Y-89027000D02*
X177101500Y-89027000D01*
X177101500Y-89027000D02*
X177038000Y-89154000D01*
X177038000Y-89154000D02*
X174625000Y-89154000D01*
X174625000Y-89154000D02*
X174625000Y-89281000D01*
X174625000Y-89281000D02*
X176974500Y-89281000D01*
X176974500Y-89281000D02*
X176911000Y-89408000D01*
X176911000Y-89408000D02*
X174561500Y-89408000D01*
X174561500Y-89408000D02*
X174498000Y-89535000D01*
X174498000Y-89535000D02*
X176847500Y-89535000D01*
X176847500Y-89535000D02*
X176784000Y-89662000D01*
X176784000Y-89662000D02*
X174371000Y-89662000D01*
X174371000Y-89662000D02*
X174307500Y-89789000D01*
X174307500Y-89789000D02*
X176657000Y-89789000D01*
X176657000Y-89789000D02*
X176593500Y-89916000D01*
X176593500Y-89916000D02*
X174180500Y-89916000D01*
X174180500Y-89916000D02*
X173990000Y-90043000D01*
X173990000Y-90043000D02*
X176466500Y-90043000D01*
X176339500Y-90170000D02*
X175958500Y-90551000D01*
X175260000Y-91122500D02*
X175323500Y-90995500D01*
X175323500Y-90995500D02*
X175387000Y-90805000D01*
X172148500Y-91376500D02*
X172339000Y-91376500D01*
X170497500Y-90297000D02*
X170624500Y-90424000D01*
X171132500Y-90805000D02*
X171196000Y-90868500D01*
X174625000Y-88900000D02*
G75*
G03X174625000Y-88900000I-1270000J0D01*
G01*
X177355500Y-87630000D02*
X169418000Y-87630000D01*
X169418000Y-87630000D02*
X169418000Y-87757000D01*
X176530000Y-90043000D02*
X176403000Y-90170000D01*
X176403000Y-90170000D02*
X170307000Y-90170000D01*
X170307000Y-90170000D02*
X170497500Y-90297000D01*
X170497500Y-90297000D02*
X176212500Y-90297000D01*
X176212500Y-90297000D02*
X176149000Y-90424000D01*
X176149000Y-90424000D02*
X170624500Y-90424000D01*
X170624500Y-90424000D02*
X170751500Y-90551000D01*
X170751500Y-90551000D02*
X175958500Y-90551000D01*
X175958500Y-90551000D02*
X175831500Y-90678000D01*
X175831500Y-90678000D02*
X170878500Y-90678000D01*
X170878500Y-90678000D02*
X171005500Y-90805000D01*
X171005500Y-90805000D02*
X175768000Y-90805000D01*
X175768000Y-90805000D02*
X175514000Y-90932000D01*
X175514000Y-90932000D02*
X171259500Y-90932000D01*
X171259500Y-90932000D02*
X171450000Y-91059000D01*
X171450000Y-91059000D02*
X175260000Y-91059000D01*
X175260000Y-91059000D02*
X175006000Y-91186000D01*
X175006000Y-91186000D02*
X171640500Y-91186000D01*
X171640500Y-91186000D02*
X172021500Y-91313000D01*
X172021500Y-91313000D02*
X174815500Y-91313000D01*
X174815500Y-91313000D02*
X174434500Y-91440000D01*
X174434500Y-91440000D02*
X172339000Y-91440000D01*
X172339000Y-91440000D02*
X172656500Y-91503500D01*
X172656500Y-91503500D02*
X173926500Y-91503500D01*
X177355000Y-87630000D02*
G75*
G03X177355000Y-87630000I-4000000J0D01*
G01*
G04 #@! TO.C,C12*
X164274000Y-114300000D02*
G75*
G03X164274000Y-114300000I-4000000J0D01*
G01*
X156400500Y-113601500D02*
X156400500Y-114871500D01*
X156464000Y-113284000D02*
X156400500Y-113601500D01*
X156464000Y-115379500D02*
X156464000Y-113284000D01*
X156591000Y-115760500D02*
X156464000Y-115379500D01*
X156591000Y-112966500D02*
X156591000Y-115760500D01*
X156718000Y-112585500D02*
X156591000Y-112966500D01*
X156718000Y-115951000D02*
X156718000Y-112585500D01*
X156845000Y-116205000D02*
X156718000Y-115951000D01*
X156845000Y-112395000D02*
X156845000Y-116205000D01*
X156972000Y-112204500D02*
X156845000Y-112395000D01*
X156972000Y-116459000D02*
X156972000Y-112204500D01*
X157099000Y-116713000D02*
X156972000Y-116459000D01*
X157099000Y-111950500D02*
X157099000Y-116713000D01*
X157226000Y-111823500D02*
X157099000Y-111950500D01*
X157226000Y-116776500D02*
X157226000Y-111823500D01*
X157353000Y-116903500D02*
X157226000Y-116776500D01*
X157353000Y-111696500D02*
X157353000Y-116903500D01*
X157480000Y-111569500D02*
X157353000Y-111696500D01*
X157480000Y-117094000D02*
X157480000Y-111569500D01*
X157607000Y-117157500D02*
X157480000Y-117094000D01*
X157607000Y-111442500D02*
X157607000Y-117157500D01*
X157734000Y-111252000D02*
X157607000Y-111442500D01*
X157734000Y-117348000D02*
X157734000Y-111252000D01*
X157861000Y-117475000D02*
X157734000Y-117348000D01*
X160274000Y-110363000D02*
X160147000Y-110363000D01*
X160274000Y-118300500D02*
X160274000Y-110363000D01*
X160274000Y-114300000D02*
G75*
G03X160274000Y-114300000I-1270000J0D01*
G01*
X157099000Y-112077500D02*
X157035500Y-112141000D01*
X157607000Y-111442500D02*
X157480000Y-111569500D01*
X156527500Y-113093500D02*
X156527500Y-113284000D01*
X156908500Y-116268500D02*
X157099000Y-116332000D01*
X156781500Y-116205000D02*
X156908500Y-116268500D01*
X157734000Y-117284500D02*
X157353000Y-116903500D01*
X157861000Y-114935000D02*
X157861000Y-117411500D01*
X157988000Y-115125500D02*
X157861000Y-114935000D01*
X157988000Y-117538500D02*
X157988000Y-115125500D01*
X158115000Y-117602000D02*
X157988000Y-117538500D01*
X158115000Y-115252500D02*
X158115000Y-117602000D01*
X158242000Y-115316000D02*
X158115000Y-115252500D01*
X158242000Y-117729000D02*
X158242000Y-115316000D01*
X158369000Y-117792500D02*
X158242000Y-117729000D01*
X158369000Y-115443000D02*
X158369000Y-117792500D01*
X158496000Y-115506500D02*
X158369000Y-115443000D01*
X158496000Y-117856000D02*
X158496000Y-115506500D01*
X158623000Y-117919500D02*
X158496000Y-117856000D01*
X158623000Y-115570000D02*
X158623000Y-117919500D01*
X158750000Y-115570000D02*
X158623000Y-115570000D01*
X158750000Y-117983000D02*
X158750000Y-115570000D01*
X158877000Y-118046500D02*
X158750000Y-117983000D01*
X158877000Y-115570000D02*
X158877000Y-118046500D01*
X159004000Y-115570000D02*
X158877000Y-115570000D01*
X159004000Y-118046500D02*
X159004000Y-115570000D01*
X159131000Y-118110000D02*
X159004000Y-118046500D01*
X159131000Y-115570000D02*
X159131000Y-118110000D01*
X159258000Y-115570000D02*
X159131000Y-115570000D01*
X159258000Y-118110000D02*
X159258000Y-115570000D01*
X159385000Y-118110000D02*
X159258000Y-118110000D01*
X159385000Y-115570000D02*
X159385000Y-118110000D01*
X159512000Y-115506500D02*
X159385000Y-115570000D01*
X159512000Y-118173500D02*
X159512000Y-115506500D01*
X159639000Y-118237000D02*
X159512000Y-118173500D01*
X159639000Y-115506500D02*
X159639000Y-118237000D01*
X159766000Y-115379500D02*
X159639000Y-115506500D01*
X159766000Y-118173500D02*
X159766000Y-115379500D01*
X159893000Y-118237000D02*
X159766000Y-118173500D01*
X159893000Y-115252500D02*
X159893000Y-118237000D01*
X160020000Y-115125500D02*
X159893000Y-115252500D01*
X160020000Y-118237000D02*
X160020000Y-115125500D01*
X157861000Y-113665000D02*
X157861000Y-111188500D01*
X157988000Y-113474500D02*
X157861000Y-113665000D01*
X157988000Y-111125000D02*
X157988000Y-113474500D01*
X158115000Y-110934500D02*
X157988000Y-111125000D01*
X158115000Y-113347500D02*
X158115000Y-110934500D01*
X158242000Y-113284000D02*
X158115000Y-113347500D01*
X158242000Y-110934500D02*
X158242000Y-113284000D01*
X158369000Y-110807500D02*
X158242000Y-110934500D01*
X158369000Y-113157000D02*
X158369000Y-110807500D01*
X158496000Y-113093500D02*
X158369000Y-113157000D01*
X158496000Y-110807500D02*
X158496000Y-113093500D01*
X158623000Y-110680500D02*
X158496000Y-110807500D01*
X158623000Y-113093500D02*
X158623000Y-110680500D01*
X158750000Y-113030000D02*
X158623000Y-113093500D01*
X158750000Y-110680500D02*
X158750000Y-113030000D01*
X158877000Y-110617000D02*
X158750000Y-110680500D01*
X158877000Y-112966500D02*
X158877000Y-110617000D01*
X159004000Y-112966500D02*
X158877000Y-112966500D01*
X159004000Y-110553500D02*
X159004000Y-112966500D01*
X159131000Y-110490000D02*
X159004000Y-110553500D01*
X159131000Y-113030000D02*
X159131000Y-110490000D01*
X159258000Y-113030000D02*
X159131000Y-113030000D01*
X159258000Y-110490000D02*
X159258000Y-113030000D01*
X159385000Y-110490000D02*
X159258000Y-110490000D01*
X159385000Y-113030000D02*
X159385000Y-110490000D01*
X159512000Y-113093500D02*
X159385000Y-113030000D01*
X159512000Y-110426500D02*
X159512000Y-113093500D01*
X159639000Y-110363000D02*
X159512000Y-110426500D01*
X159639000Y-113157000D02*
X159639000Y-110363000D01*
X159766000Y-113220500D02*
X159639000Y-113157000D01*
X159766000Y-110363000D02*
X159766000Y-113220500D01*
X159893000Y-110363000D02*
X159766000Y-110363000D01*
X159893000Y-113347500D02*
X159893000Y-110363000D01*
X160020000Y-113474500D02*
X159893000Y-113347500D01*
X160020000Y-110363000D02*
X160020000Y-113474500D01*
X160147000Y-110363000D02*
X160147000Y-113665000D01*
X160147000Y-114998500D02*
X160147000Y-118173500D01*
X160274000Y-114871500D02*
X160147000Y-114998500D01*
X163068000Y-114300000D02*
X163576000Y-114300000D01*
X163322000Y-114554000D02*
X163322000Y-114046000D01*
G04 #@! TO.C,C13*
X163322000Y-122936000D02*
X163322000Y-122428000D01*
X163068000Y-122682000D02*
X163576000Y-122682000D01*
X160274000Y-123253500D02*
X160147000Y-123380500D01*
X160147000Y-123380500D02*
X160147000Y-126555500D01*
X160147000Y-118745000D02*
X160147000Y-122047000D01*
X160020000Y-118745000D02*
X160020000Y-121856500D01*
X160020000Y-121856500D02*
X159893000Y-121729500D01*
X159893000Y-121729500D02*
X159893000Y-118745000D01*
X159893000Y-118745000D02*
X159766000Y-118745000D01*
X159766000Y-118745000D02*
X159766000Y-121602500D01*
X159766000Y-121602500D02*
X159639000Y-121539000D01*
X159639000Y-121539000D02*
X159639000Y-118745000D01*
X159639000Y-118745000D02*
X159512000Y-118808500D01*
X159512000Y-118808500D02*
X159512000Y-121475500D01*
X159512000Y-121475500D02*
X159385000Y-121412000D01*
X159385000Y-121412000D02*
X159385000Y-118872000D01*
X159385000Y-118872000D02*
X159258000Y-118872000D01*
X159258000Y-118872000D02*
X159258000Y-121412000D01*
X159258000Y-121412000D02*
X159131000Y-121412000D01*
X159131000Y-121412000D02*
X159131000Y-118872000D01*
X159131000Y-118872000D02*
X159004000Y-118935500D01*
X159004000Y-118935500D02*
X159004000Y-121348500D01*
X159004000Y-121348500D02*
X158877000Y-121348500D01*
X158877000Y-121348500D02*
X158877000Y-118999000D01*
X158877000Y-118999000D02*
X158750000Y-119062500D01*
X158750000Y-119062500D02*
X158750000Y-121412000D01*
X158750000Y-121412000D02*
X158623000Y-121475500D01*
X158623000Y-121475500D02*
X158623000Y-119062500D01*
X158623000Y-119062500D02*
X158496000Y-119189500D01*
X158496000Y-119189500D02*
X158496000Y-121475500D01*
X158496000Y-121475500D02*
X158369000Y-121539000D01*
X158369000Y-121539000D02*
X158369000Y-119189500D01*
X158369000Y-119189500D02*
X158242000Y-119316500D01*
X158242000Y-119316500D02*
X158242000Y-121666000D01*
X158242000Y-121666000D02*
X158115000Y-121729500D01*
X158115000Y-121729500D02*
X158115000Y-119316500D01*
X158115000Y-119316500D02*
X157988000Y-119507000D01*
X157988000Y-119507000D02*
X157988000Y-121856500D01*
X157988000Y-121856500D02*
X157861000Y-122047000D01*
X157861000Y-122047000D02*
X157861000Y-119570500D01*
X160020000Y-126619000D02*
X160020000Y-123507500D01*
X160020000Y-123507500D02*
X159893000Y-123634500D01*
X159893000Y-123634500D02*
X159893000Y-126619000D01*
X159893000Y-126619000D02*
X159766000Y-126555500D01*
X159766000Y-126555500D02*
X159766000Y-123761500D01*
X159766000Y-123761500D02*
X159639000Y-123888500D01*
X159639000Y-123888500D02*
X159639000Y-126619000D01*
X159639000Y-126619000D02*
X159512000Y-126555500D01*
X159512000Y-126555500D02*
X159512000Y-123888500D01*
X159512000Y-123888500D02*
X159385000Y-123952000D01*
X159385000Y-123952000D02*
X159385000Y-126492000D01*
X159385000Y-126492000D02*
X159258000Y-126492000D01*
X159258000Y-126492000D02*
X159258000Y-123952000D01*
X159258000Y-123952000D02*
X159131000Y-123952000D01*
X159131000Y-123952000D02*
X159131000Y-126492000D01*
X159131000Y-126492000D02*
X159004000Y-126428500D01*
X159004000Y-126428500D02*
X159004000Y-123952000D01*
X159004000Y-123952000D02*
X158877000Y-123952000D01*
X158877000Y-123952000D02*
X158877000Y-126428500D01*
X158877000Y-126428500D02*
X158750000Y-126365000D01*
X158750000Y-126365000D02*
X158750000Y-123952000D01*
X158750000Y-123952000D02*
X158623000Y-123952000D01*
X158623000Y-123952000D02*
X158623000Y-126301500D01*
X158623000Y-126301500D02*
X158496000Y-126238000D01*
X158496000Y-126238000D02*
X158496000Y-123888500D01*
X158496000Y-123888500D02*
X158369000Y-123825000D01*
X158369000Y-123825000D02*
X158369000Y-126174500D01*
X158369000Y-126174500D02*
X158242000Y-126111000D01*
X158242000Y-126111000D02*
X158242000Y-123698000D01*
X158242000Y-123698000D02*
X158115000Y-123634500D01*
X158115000Y-123634500D02*
X158115000Y-125984000D01*
X158115000Y-125984000D02*
X157988000Y-125920500D01*
X157988000Y-125920500D02*
X157988000Y-123507500D01*
X157988000Y-123507500D02*
X157861000Y-123317000D01*
X157861000Y-123317000D02*
X157861000Y-125793500D01*
X157734000Y-125666500D02*
X157353000Y-125285500D01*
X156781500Y-124587000D02*
X156908500Y-124650500D01*
X156908500Y-124650500D02*
X157099000Y-124714000D01*
X156527500Y-121475500D02*
X156527500Y-121666000D01*
X157607000Y-119824500D02*
X157480000Y-119951500D01*
X157099000Y-120459500D02*
X157035500Y-120523000D01*
X160274000Y-122682000D02*
G75*
G03X160274000Y-122682000I-1270000J0D01*
G01*
X160274000Y-126682500D02*
X160274000Y-118745000D01*
X160274000Y-118745000D02*
X160147000Y-118745000D01*
X157861000Y-125857000D02*
X157734000Y-125730000D01*
X157734000Y-125730000D02*
X157734000Y-119634000D01*
X157734000Y-119634000D02*
X157607000Y-119824500D01*
X157607000Y-119824500D02*
X157607000Y-125539500D01*
X157607000Y-125539500D02*
X157480000Y-125476000D01*
X157480000Y-125476000D02*
X157480000Y-119951500D01*
X157480000Y-119951500D02*
X157353000Y-120078500D01*
X157353000Y-120078500D02*
X157353000Y-125285500D01*
X157353000Y-125285500D02*
X157226000Y-125158500D01*
X157226000Y-125158500D02*
X157226000Y-120205500D01*
X157226000Y-120205500D02*
X157099000Y-120332500D01*
X157099000Y-120332500D02*
X157099000Y-125095000D01*
X157099000Y-125095000D02*
X156972000Y-124841000D01*
X156972000Y-124841000D02*
X156972000Y-120586500D01*
X156972000Y-120586500D02*
X156845000Y-120777000D01*
X156845000Y-120777000D02*
X156845000Y-124587000D01*
X156845000Y-124587000D02*
X156718000Y-124333000D01*
X156718000Y-124333000D02*
X156718000Y-120967500D01*
X156718000Y-120967500D02*
X156591000Y-121348500D01*
X156591000Y-121348500D02*
X156591000Y-124142500D01*
X156591000Y-124142500D02*
X156464000Y-123761500D01*
X156464000Y-123761500D02*
X156464000Y-121666000D01*
X156464000Y-121666000D02*
X156400500Y-121983500D01*
X156400500Y-121983500D02*
X156400500Y-123253500D01*
X164274000Y-122682000D02*
G75*
G03X164274000Y-122682000I-4000000J0D01*
G01*
G04 #@! TO.C,C15*
X134302000Y-125730000D02*
G75*
G03X134302000Y-125730000I-4000000J0D01*
G01*
X134175500Y-126428500D02*
X134175500Y-125158500D01*
X134112000Y-126746000D02*
X134175500Y-126428500D01*
X134112000Y-124650500D02*
X134112000Y-126746000D01*
X133985000Y-124269500D02*
X134112000Y-124650500D01*
X133985000Y-127063500D02*
X133985000Y-124269500D01*
X133858000Y-127444500D02*
X133985000Y-127063500D01*
X133858000Y-124079000D02*
X133858000Y-127444500D01*
X133731000Y-123825000D02*
X133858000Y-124079000D01*
X133731000Y-127635000D02*
X133731000Y-123825000D01*
X133604000Y-127825500D02*
X133731000Y-127635000D01*
X133604000Y-123571000D02*
X133604000Y-127825500D01*
X133477000Y-123317000D02*
X133604000Y-123571000D01*
X133477000Y-128079500D02*
X133477000Y-123317000D01*
X133350000Y-128206500D02*
X133477000Y-128079500D01*
X133350000Y-123253500D02*
X133350000Y-128206500D01*
X133223000Y-123126500D02*
X133350000Y-123253500D01*
X133223000Y-128333500D02*
X133223000Y-123126500D01*
X133096000Y-128460500D02*
X133223000Y-128333500D01*
X133096000Y-122936000D02*
X133096000Y-128460500D01*
X132969000Y-122872500D02*
X133096000Y-122936000D01*
X132969000Y-128587500D02*
X132969000Y-122872500D01*
X132842000Y-128778000D02*
X132969000Y-128587500D01*
X132842000Y-122682000D02*
X132842000Y-128778000D01*
X132715000Y-122555000D02*
X132842000Y-122682000D01*
X130302000Y-129667000D02*
X130429000Y-129667000D01*
X130302000Y-121729500D02*
X130302000Y-129667000D01*
X132842000Y-125730000D02*
G75*
G03X132842000Y-125730000I-1270000J0D01*
G01*
X133477000Y-127952500D02*
X133540500Y-127889000D01*
X132969000Y-128587500D02*
X133096000Y-128460500D01*
X134048500Y-126936500D02*
X134048500Y-126746000D01*
X133667500Y-123761500D02*
X133477000Y-123698000D01*
X133794500Y-123825000D02*
X133667500Y-123761500D01*
X132842000Y-122745500D02*
X133223000Y-123126500D01*
X132715000Y-125095000D02*
X132715000Y-122618500D01*
X132588000Y-124904500D02*
X132715000Y-125095000D01*
X132588000Y-122491500D02*
X132588000Y-124904500D01*
X132461000Y-122428000D02*
X132588000Y-122491500D01*
X132461000Y-124777500D02*
X132461000Y-122428000D01*
X132334000Y-124714000D02*
X132461000Y-124777500D01*
X132334000Y-122301000D02*
X132334000Y-124714000D01*
X132207000Y-122237500D02*
X132334000Y-122301000D01*
X132207000Y-124587000D02*
X132207000Y-122237500D01*
X132080000Y-124523500D02*
X132207000Y-124587000D01*
X132080000Y-122174000D02*
X132080000Y-124523500D01*
X131953000Y-122110500D02*
X132080000Y-122174000D01*
X131953000Y-124460000D02*
X131953000Y-122110500D01*
X131826000Y-124460000D02*
X131953000Y-124460000D01*
X131826000Y-122047000D02*
X131826000Y-124460000D01*
X131699000Y-121983500D02*
X131826000Y-122047000D01*
X131699000Y-124460000D02*
X131699000Y-121983500D01*
X131572000Y-124460000D02*
X131699000Y-124460000D01*
X131572000Y-121983500D02*
X131572000Y-124460000D01*
X131445000Y-121920000D02*
X131572000Y-121983500D01*
X131445000Y-124460000D02*
X131445000Y-121920000D01*
X131318000Y-124460000D02*
X131445000Y-124460000D01*
X131318000Y-121920000D02*
X131318000Y-124460000D01*
X131191000Y-121920000D02*
X131318000Y-121920000D01*
X131191000Y-124460000D02*
X131191000Y-121920000D01*
X131064000Y-124523500D02*
X131191000Y-124460000D01*
X131064000Y-121856500D02*
X131064000Y-124523500D01*
X130937000Y-121793000D02*
X131064000Y-121856500D01*
X130937000Y-124523500D02*
X130937000Y-121793000D01*
X130810000Y-124650500D02*
X130937000Y-124523500D01*
X130810000Y-121856500D02*
X130810000Y-124650500D01*
X130683000Y-121793000D02*
X130810000Y-121856500D01*
X130683000Y-124777500D02*
X130683000Y-121793000D01*
X130556000Y-124904500D02*
X130683000Y-124777500D01*
X130556000Y-121793000D02*
X130556000Y-124904500D01*
X132715000Y-126365000D02*
X132715000Y-128841500D01*
X132588000Y-126555500D02*
X132715000Y-126365000D01*
X132588000Y-128905000D02*
X132588000Y-126555500D01*
X132461000Y-129095500D02*
X132588000Y-128905000D01*
X132461000Y-126682500D02*
X132461000Y-129095500D01*
X132334000Y-126746000D02*
X132461000Y-126682500D01*
X132334000Y-129095500D02*
X132334000Y-126746000D01*
X132207000Y-129222500D02*
X132334000Y-129095500D01*
X132207000Y-126873000D02*
X132207000Y-129222500D01*
X132080000Y-126936500D02*
X132207000Y-126873000D01*
X132080000Y-129222500D02*
X132080000Y-126936500D01*
X131953000Y-129349500D02*
X132080000Y-129222500D01*
X131953000Y-126936500D02*
X131953000Y-129349500D01*
X131826000Y-127000000D02*
X131953000Y-126936500D01*
X131826000Y-129349500D02*
X131826000Y-127000000D01*
X131699000Y-129413000D02*
X131826000Y-129349500D01*
X131699000Y-127063500D02*
X131699000Y-129413000D01*
X131572000Y-127063500D02*
X131699000Y-127063500D01*
X131572000Y-129476500D02*
X131572000Y-127063500D01*
X131445000Y-129540000D02*
X131572000Y-129476500D01*
X131445000Y-127000000D02*
X131445000Y-129540000D01*
X131318000Y-127000000D02*
X131445000Y-127000000D01*
X131318000Y-129540000D02*
X131318000Y-127000000D01*
X131191000Y-129540000D02*
X131318000Y-129540000D01*
X131191000Y-127000000D02*
X131191000Y-129540000D01*
X131064000Y-126936500D02*
X131191000Y-127000000D01*
X131064000Y-129603500D02*
X131064000Y-126936500D01*
X130937000Y-129667000D02*
X131064000Y-129603500D01*
X130937000Y-126873000D02*
X130937000Y-129667000D01*
X130810000Y-126809500D02*
X130937000Y-126873000D01*
X130810000Y-129667000D02*
X130810000Y-126809500D01*
X130683000Y-129667000D02*
X130810000Y-129667000D01*
X130683000Y-126682500D02*
X130683000Y-129667000D01*
X130556000Y-126555500D02*
X130683000Y-126682500D01*
X130556000Y-129667000D02*
X130556000Y-126555500D01*
X130429000Y-129667000D02*
X130429000Y-126365000D01*
X130429000Y-125031500D02*
X130429000Y-121856500D01*
X130302000Y-125158500D02*
X130429000Y-125031500D01*
X127508000Y-125730000D02*
X127000000Y-125730000D01*
X127254000Y-125476000D02*
X127254000Y-125984000D01*
G04 #@! TO.C,D2*
X131318520Y-116329460D02*
X132715520Y-116329460D01*
X126873520Y-116329460D02*
X125349520Y-116329460D01*
X127508520Y-115567460D02*
X127508520Y-117091460D01*
X126746520Y-116329460D02*
X126746520Y-117091460D01*
X126746520Y-117091460D02*
X131318520Y-117091460D01*
X131318520Y-117091460D02*
X131318520Y-115567460D01*
X131318520Y-115567460D02*
X126746520Y-115567460D01*
X126746520Y-115567460D02*
X126746520Y-116329460D01*
G04 #@! TO.C,D3*
X131317480Y-119382540D02*
X131317480Y-118620540D01*
X126745480Y-119382540D02*
X131317480Y-119382540D01*
X126745480Y-117858540D02*
X126745480Y-119382540D01*
X131317480Y-117858540D02*
X126745480Y-117858540D01*
X131317480Y-118620540D02*
X131317480Y-117858540D01*
X130555480Y-119382540D02*
X130555480Y-117858540D01*
X131190480Y-118620540D02*
X132714480Y-118620540D01*
X126745480Y-118620540D02*
X125348480Y-118620540D01*
G04 #@! TO.C,D4*
X121666520Y-119885460D02*
X121666520Y-120647460D01*
X126238520Y-119885460D02*
X121666520Y-119885460D01*
X126238520Y-121409460D02*
X126238520Y-119885460D01*
X121666520Y-121409460D02*
X126238520Y-121409460D01*
X121666520Y-120647460D02*
X121666520Y-121409460D01*
X122428520Y-119885460D02*
X122428520Y-121409460D01*
X121793520Y-120647460D02*
X120269520Y-120647460D01*
X126238520Y-120647460D02*
X127635520Y-120647460D01*
G04 #@! TO.C,DAC1*
X168402000Y-122936000D02*
X165862000Y-122936000D01*
X165862000Y-122936000D02*
X165862000Y-130556000D01*
X165862000Y-130556000D02*
X168402000Y-130556000D01*
X168402000Y-130556000D02*
X168402000Y-122936000D01*
G04 #@! TO.C,DAC2*
X175387000Y-132207000D02*
X175387000Y-124587000D01*
X172847000Y-132207000D02*
X175387000Y-132207000D01*
X172847000Y-124587000D02*
X172847000Y-132207000D01*
X175387000Y-124587000D02*
X172847000Y-124587000D01*
G04 #@! TO.C,J1*
X185140000Y-115544000D02*
X188240000Y-115544000D01*
X185140000Y-117094000D02*
X185140000Y-115544000D01*
X187960000Y-118364000D02*
X185420000Y-118364000D01*
X188240000Y-115544000D02*
X188240000Y-117094000D01*
X185420000Y-131064000D02*
X185420000Y-118364000D01*
X187960000Y-118364000D02*
X187960000Y-131064000D01*
X185420000Y-131064000D02*
X185420000Y-133604000D01*
X185420000Y-133604000D02*
X187960000Y-133604000D01*
X187960000Y-133604000D02*
X187960000Y-131064000D01*
G04 #@! TO.C,J2*
X115824000Y-134620000D02*
X125984000Y-134620000D01*
X115824000Y-127000000D02*
X115824000Y-134620000D01*
X125984000Y-127000000D02*
X115824000Y-127000000D01*
X125984000Y-134620000D02*
X125984000Y-127000000D01*
G04 #@! TO.C,J3*
X135636000Y-123698000D02*
X135636000Y-126238000D01*
X140716000Y-123698000D02*
X135636000Y-123698000D01*
X140716000Y-126238000D02*
X140716000Y-123698000D01*
X135636000Y-126238000D02*
X140716000Y-126238000D01*
G04 #@! TO.C,J4*
X164084000Y-134620000D02*
X164084000Y-127000000D01*
X164084000Y-127000000D02*
X153924000Y-127000000D01*
X153924000Y-127000000D02*
X153924000Y-134620000D01*
X153924000Y-134620000D02*
X164084000Y-134620000D01*
G04 #@! TO.C,J5*
X141986000Y-126492000D02*
X134366000Y-126492000D01*
X141986000Y-129032000D02*
X141986000Y-126492000D01*
X134366000Y-129032000D02*
X141986000Y-129032000D01*
X134366000Y-126492000D02*
X134366000Y-129032000D01*
G04 #@! TO.C,J6*
X158750000Y-90170000D02*
X168910000Y-90170000D01*
X158750000Y-82550000D02*
X158750000Y-90170000D01*
X168910000Y-82550000D02*
X158750000Y-82550000D01*
X168910000Y-90170000D02*
X168910000Y-82550000D01*
G04 #@! TO.C,L1*
X184752000Y-114300000D02*
G75*
G03X184752000Y-114300000I-10000000J0D01*
G01*
D12*
G04 #@! TO.C,R4*
X136480000Y-122250000D02*
X136480000Y-121250000D01*
X137840000Y-121250000D02*
X137840000Y-122250000D01*
G04 #@! TO.C,R5*
X136316000Y-121082000D02*
X136316000Y-122082000D01*
X134956000Y-122082000D02*
X134956000Y-121082000D01*
G04 #@! TO.C,R6*
X138004000Y-122082000D02*
X138004000Y-121082000D01*
X139364000Y-121082000D02*
X139364000Y-122082000D01*
G04 #@! TO.C,R7*
X139528000Y-122250000D02*
X139528000Y-121250000D01*
X140888000Y-121250000D02*
X140888000Y-122250000D01*
G04 #@! TO.C,R8*
X150032000Y-119812000D02*
X150032000Y-120812000D01*
X148672000Y-120812000D02*
X148672000Y-119812000D01*
G04 #@! TO.C,R9*
X150196000Y-120812000D02*
X150196000Y-119812000D01*
X151556000Y-119812000D02*
X151556000Y-120812000D01*
G04 #@! TO.C,R10*
X151720000Y-120726000D02*
X151720000Y-119726000D01*
X153080000Y-119726000D02*
X153080000Y-120726000D01*
G04 #@! TO.C,R11*
X156064500Y-123007500D02*
X156064500Y-124007500D01*
X154704500Y-124007500D02*
X154704500Y-123007500D01*
G04 #@! TO.C,R14*
X148000000Y-121504000D02*
X148000000Y-122504000D01*
X146640000Y-122504000D02*
X146640000Y-121504000D01*
G04 #@! TO.C,R16*
X140888000Y-116764000D02*
X140888000Y-117764000D01*
X139528000Y-117764000D02*
X139528000Y-116764000D01*
G04 #@! TO.C,R17*
X143428000Y-116678000D02*
X143428000Y-117678000D01*
X142068000Y-117678000D02*
X142068000Y-116678000D01*
G04 #@! TO.C,U2*
X151638000Y-122332000D02*
X148638000Y-122332000D01*
X152638000Y-125572000D02*
X150638000Y-125572000D01*
G04 #@! TO.C,U4*
X164950000Y-95490000D02*
X166050000Y-95490000D01*
X164950000Y-94800000D02*
X164950000Y-95490000D01*
X163450000Y-94800000D02*
X164950000Y-94800000D01*
X164950000Y-104510000D02*
X170075000Y-104510000D01*
X164950000Y-105200000D02*
X164950000Y-104510000D01*
X163450000Y-105200000D02*
X164950000Y-105200000D01*
G04 #@! TO.C,U5*
X115050000Y-103390000D02*
X113950000Y-103390000D01*
X115050000Y-105200000D02*
X115050000Y-103390000D01*
X116550000Y-105200000D02*
X115050000Y-105200000D01*
X115050000Y-96610000D02*
X109925000Y-96610000D01*
X115050000Y-94800000D02*
X115050000Y-96610000D01*
X116550000Y-94800000D02*
X115050000Y-94800000D01*
G04 #@! TO.C,C2*
D13*
X155408333Y-118975142D02*
X155360714Y-119022761D01*
X155217857Y-119070380D01*
X155122619Y-119070380D01*
X154979761Y-119022761D01*
X154884523Y-118927523D01*
X154836904Y-118832285D01*
X154789285Y-118641809D01*
X154789285Y-118498952D01*
X154836904Y-118308476D01*
X154884523Y-118213238D01*
X154979761Y-118118000D01*
X155122619Y-118070380D01*
X155217857Y-118070380D01*
X155360714Y-118118000D01*
X155408333Y-118165619D01*
X155789285Y-118165619D02*
X155836904Y-118118000D01*
X155932142Y-118070380D01*
X156170238Y-118070380D01*
X156265476Y-118118000D01*
X156313095Y-118165619D01*
X156360714Y-118260857D01*
X156360714Y-118356095D01*
X156313095Y-118498952D01*
X155741666Y-119070380D01*
X156360714Y-119070380D01*
G04 #@! TO.C,C8*
X173188333Y-102846142D02*
X173140714Y-102893761D01*
X172997857Y-102941380D01*
X172902619Y-102941380D01*
X172759761Y-102893761D01*
X172664523Y-102798523D01*
X172616904Y-102703285D01*
X172569285Y-102512809D01*
X172569285Y-102369952D01*
X172616904Y-102179476D01*
X172664523Y-102084238D01*
X172759761Y-101989000D01*
X172902619Y-101941380D01*
X172997857Y-101941380D01*
X173140714Y-101989000D01*
X173188333Y-102036619D01*
X173759761Y-102369952D02*
X173664523Y-102322333D01*
X173616904Y-102274714D01*
X173569285Y-102179476D01*
X173569285Y-102131857D01*
X173616904Y-102036619D01*
X173664523Y-101989000D01*
X173759761Y-101941380D01*
X173950238Y-101941380D01*
X174045476Y-101989000D01*
X174093095Y-102036619D01*
X174140714Y-102131857D01*
X174140714Y-102179476D01*
X174093095Y-102274714D01*
X174045476Y-102322333D01*
X173950238Y-102369952D01*
X173759761Y-102369952D01*
X173664523Y-102417571D01*
X173616904Y-102465190D01*
X173569285Y-102560428D01*
X173569285Y-102750904D01*
X173616904Y-102846142D01*
X173664523Y-102893761D01*
X173759761Y-102941380D01*
X173950238Y-102941380D01*
X174045476Y-102893761D01*
X174093095Y-102846142D01*
X174140714Y-102750904D01*
X174140714Y-102560428D01*
X174093095Y-102465190D01*
X174045476Y-102417571D01*
X173950238Y-102369952D01*
G04 #@! TO.C,C9*
X178268333Y-100052142D02*
X178220714Y-100099761D01*
X178077857Y-100147380D01*
X177982619Y-100147380D01*
X177839761Y-100099761D01*
X177744523Y-100004523D01*
X177696904Y-99909285D01*
X177649285Y-99718809D01*
X177649285Y-99575952D01*
X177696904Y-99385476D01*
X177744523Y-99290238D01*
X177839761Y-99195000D01*
X177982619Y-99147380D01*
X178077857Y-99147380D01*
X178220714Y-99195000D01*
X178268333Y-99242619D01*
X178744523Y-100147380D02*
X178935000Y-100147380D01*
X179030238Y-100099761D01*
X179077857Y-100052142D01*
X179173095Y-99909285D01*
X179220714Y-99718809D01*
X179220714Y-99337857D01*
X179173095Y-99242619D01*
X179125476Y-99195000D01*
X179030238Y-99147380D01*
X178839761Y-99147380D01*
X178744523Y-99195000D01*
X178696904Y-99242619D01*
X178649285Y-99337857D01*
X178649285Y-99575952D01*
X178696904Y-99671190D01*
X178744523Y-99718809D01*
X178839761Y-99766428D01*
X179030238Y-99766428D01*
X179125476Y-99718809D01*
X179173095Y-99671190D01*
X179220714Y-99575952D01*
G04 #@! TO.C,C10*
X177157142Y-84812142D02*
X177109523Y-84859761D01*
X176966666Y-84907380D01*
X176871428Y-84907380D01*
X176728571Y-84859761D01*
X176633333Y-84764523D01*
X176585714Y-84669285D01*
X176538095Y-84478809D01*
X176538095Y-84335952D01*
X176585714Y-84145476D01*
X176633333Y-84050238D01*
X176728571Y-83955000D01*
X176871428Y-83907380D01*
X176966666Y-83907380D01*
X177109523Y-83955000D01*
X177157142Y-84002619D01*
X178109523Y-84907380D02*
X177538095Y-84907380D01*
X177823809Y-84907380D02*
X177823809Y-83907380D01*
X177728571Y-84050238D01*
X177633333Y-84145476D01*
X177538095Y-84193095D01*
X178728571Y-83907380D02*
X178823809Y-83907380D01*
X178919047Y-83955000D01*
X178966666Y-84002619D01*
X179014285Y-84097857D01*
X179061904Y-84288333D01*
X179061904Y-84526428D01*
X179014285Y-84716904D01*
X178966666Y-84812142D01*
X178919047Y-84859761D01*
X178823809Y-84907380D01*
X178728571Y-84907380D01*
X178633333Y-84859761D01*
X178585714Y-84812142D01*
X178538095Y-84716904D01*
X178490476Y-84526428D01*
X178490476Y-84288333D01*
X178538095Y-84097857D01*
X178585714Y-84002619D01*
X178633333Y-83955000D01*
X178728571Y-83907380D01*
G04 #@! TO.C,C12*
X162933142Y-118975142D02*
X162885523Y-119022761D01*
X162742666Y-119070380D01*
X162647428Y-119070380D01*
X162504571Y-119022761D01*
X162409333Y-118927523D01*
X162361714Y-118832285D01*
X162314095Y-118641809D01*
X162314095Y-118498952D01*
X162361714Y-118308476D01*
X162409333Y-118213238D01*
X162504571Y-118118000D01*
X162647428Y-118070380D01*
X162742666Y-118070380D01*
X162885523Y-118118000D01*
X162933142Y-118165619D01*
X163885523Y-119070380D02*
X163314095Y-119070380D01*
X163599809Y-119070380D02*
X163599809Y-118070380D01*
X163504571Y-118213238D01*
X163409333Y-118308476D01*
X163314095Y-118356095D01*
X164266476Y-118165619D02*
X164314095Y-118118000D01*
X164409333Y-118070380D01*
X164647428Y-118070380D01*
X164742666Y-118118000D01*
X164790285Y-118165619D01*
X164837904Y-118260857D01*
X164837904Y-118356095D01*
X164790285Y-118498952D01*
X164218857Y-119070380D01*
X164837904Y-119070380D01*
G04 #@! TO.C,C13*
X163695142Y-126595142D02*
X163647523Y-126642761D01*
X163504666Y-126690380D01*
X163409428Y-126690380D01*
X163266571Y-126642761D01*
X163171333Y-126547523D01*
X163123714Y-126452285D01*
X163076095Y-126261809D01*
X163076095Y-126118952D01*
X163123714Y-125928476D01*
X163171333Y-125833238D01*
X163266571Y-125738000D01*
X163409428Y-125690380D01*
X163504666Y-125690380D01*
X163647523Y-125738000D01*
X163695142Y-125785619D01*
X164647523Y-126690380D02*
X164076095Y-126690380D01*
X164361809Y-126690380D02*
X164361809Y-125690380D01*
X164266571Y-125833238D01*
X164171333Y-125928476D01*
X164076095Y-125976095D01*
X164980857Y-125690380D02*
X165599904Y-125690380D01*
X165266571Y-126071333D01*
X165409428Y-126071333D01*
X165504666Y-126118952D01*
X165552285Y-126166571D01*
X165599904Y-126261809D01*
X165599904Y-126499904D01*
X165552285Y-126595142D01*
X165504666Y-126642761D01*
X165409428Y-126690380D01*
X165123714Y-126690380D01*
X165028476Y-126642761D01*
X164980857Y-126595142D01*
G04 #@! TO.C,C15*
X129659142Y-131167142D02*
X129611523Y-131214761D01*
X129468666Y-131262380D01*
X129373428Y-131262380D01*
X129230571Y-131214761D01*
X129135333Y-131119523D01*
X129087714Y-131024285D01*
X129040095Y-130833809D01*
X129040095Y-130690952D01*
X129087714Y-130500476D01*
X129135333Y-130405238D01*
X129230571Y-130310000D01*
X129373428Y-130262380D01*
X129468666Y-130262380D01*
X129611523Y-130310000D01*
X129659142Y-130357619D01*
X130611523Y-131262380D02*
X130040095Y-131262380D01*
X130325809Y-131262380D02*
X130325809Y-130262380D01*
X130230571Y-130405238D01*
X130135333Y-130500476D01*
X130040095Y-130548095D01*
X131516285Y-130262380D02*
X131040095Y-130262380D01*
X130992476Y-130738571D01*
X131040095Y-130690952D01*
X131135333Y-130643333D01*
X131373428Y-130643333D01*
X131468666Y-130690952D01*
X131516285Y-130738571D01*
X131563904Y-130833809D01*
X131563904Y-131071904D01*
X131516285Y-131167142D01*
X131468666Y-131214761D01*
X131373428Y-131262380D01*
X131135333Y-131262380D01*
X131040095Y-131214761D01*
X130992476Y-131167142D01*
G04 #@! TO.C,D2*
X121181904Y-116784380D02*
X121181904Y-115784380D01*
X121420000Y-115784380D01*
X121562857Y-115832000D01*
X121658095Y-115927238D01*
X121705714Y-116022476D01*
X121753333Y-116212952D01*
X121753333Y-116355809D01*
X121705714Y-116546285D01*
X121658095Y-116641523D01*
X121562857Y-116736761D01*
X121420000Y-116784380D01*
X121181904Y-116784380D01*
X122134285Y-115879619D02*
X122181904Y-115832000D01*
X122277142Y-115784380D01*
X122515238Y-115784380D01*
X122610476Y-115832000D01*
X122658095Y-115879619D01*
X122705714Y-115974857D01*
X122705714Y-116070095D01*
X122658095Y-116212952D01*
X122086666Y-116784380D01*
X122705714Y-116784380D01*
G04 #@! TO.C,D3*
X121181904Y-119070380D02*
X121181904Y-118070380D01*
X121420000Y-118070380D01*
X121562857Y-118118000D01*
X121658095Y-118213238D01*
X121705714Y-118308476D01*
X121753333Y-118498952D01*
X121753333Y-118641809D01*
X121705714Y-118832285D01*
X121658095Y-118927523D01*
X121562857Y-119022761D01*
X121420000Y-119070380D01*
X121181904Y-119070380D01*
X122086666Y-118070380D02*
X122705714Y-118070380D01*
X122372380Y-118451333D01*
X122515238Y-118451333D01*
X122610476Y-118498952D01*
X122658095Y-118546571D01*
X122705714Y-118641809D01*
X122705714Y-118879904D01*
X122658095Y-118975142D01*
X122610476Y-119022761D01*
X122515238Y-119070380D01*
X122229523Y-119070380D01*
X122134285Y-119022761D01*
X122086666Y-118975142D01*
G04 #@! TO.C,D4*
X130325904Y-121102380D02*
X130325904Y-120102380D01*
X130564000Y-120102380D01*
X130706857Y-120150000D01*
X130802095Y-120245238D01*
X130849714Y-120340476D01*
X130897333Y-120530952D01*
X130897333Y-120673809D01*
X130849714Y-120864285D01*
X130802095Y-120959523D01*
X130706857Y-121054761D01*
X130564000Y-121102380D01*
X130325904Y-121102380D01*
X131754476Y-120435714D02*
X131754476Y-121102380D01*
X131516380Y-120054761D02*
X131278285Y-120769047D01*
X131897333Y-120769047D01*
G04 #@! TO.C,DAC1*
X165465333Y-131897380D02*
X165465333Y-130897380D01*
X165703428Y-130897380D01*
X165846285Y-130945000D01*
X165941523Y-131040238D01*
X165989142Y-131135476D01*
X166036761Y-131325952D01*
X166036761Y-131468809D01*
X165989142Y-131659285D01*
X165941523Y-131754523D01*
X165846285Y-131849761D01*
X165703428Y-131897380D01*
X165465333Y-131897380D01*
X166417714Y-131611666D02*
X166893904Y-131611666D01*
X166322476Y-131897380D02*
X166655809Y-130897380D01*
X166989142Y-131897380D01*
X167893904Y-131802142D02*
X167846285Y-131849761D01*
X167703428Y-131897380D01*
X167608190Y-131897380D01*
X167465333Y-131849761D01*
X167370095Y-131754523D01*
X167322476Y-131659285D01*
X167274857Y-131468809D01*
X167274857Y-131325952D01*
X167322476Y-131135476D01*
X167370095Y-131040238D01*
X167465333Y-130945000D01*
X167608190Y-130897380D01*
X167703428Y-130897380D01*
X167846285Y-130945000D01*
X167893904Y-130992619D01*
X168846285Y-131897380D02*
X168274857Y-131897380D01*
X168560571Y-131897380D02*
X168560571Y-130897380D01*
X168465333Y-131040238D01*
X168370095Y-131135476D01*
X168274857Y-131183095D01*
G04 #@! TO.C,DAC2*
X172450333Y-133548380D02*
X172450333Y-132548380D01*
X172688428Y-132548380D01*
X172831285Y-132596000D01*
X172926523Y-132691238D01*
X172974142Y-132786476D01*
X173021761Y-132976952D01*
X173021761Y-133119809D01*
X172974142Y-133310285D01*
X172926523Y-133405523D01*
X172831285Y-133500761D01*
X172688428Y-133548380D01*
X172450333Y-133548380D01*
X173402714Y-133262666D02*
X173878904Y-133262666D01*
X173307476Y-133548380D02*
X173640809Y-132548380D01*
X173974142Y-133548380D01*
X174878904Y-133453142D02*
X174831285Y-133500761D01*
X174688428Y-133548380D01*
X174593190Y-133548380D01*
X174450333Y-133500761D01*
X174355095Y-133405523D01*
X174307476Y-133310285D01*
X174259857Y-133119809D01*
X174259857Y-132976952D01*
X174307476Y-132786476D01*
X174355095Y-132691238D01*
X174450333Y-132596000D01*
X174593190Y-132548380D01*
X174688428Y-132548380D01*
X174831285Y-132596000D01*
X174878904Y-132643619D01*
X175259857Y-132643619D02*
X175307476Y-132596000D01*
X175402714Y-132548380D01*
X175640809Y-132548380D01*
X175736047Y-132596000D01*
X175783666Y-132643619D01*
X175831285Y-132738857D01*
X175831285Y-132834095D01*
X175783666Y-132976952D01*
X175212238Y-133548380D01*
X175831285Y-133548380D01*
G04 #@! TO.C,J1*
X186356666Y-114133380D02*
X186356666Y-114847666D01*
X186309047Y-114990523D01*
X186213809Y-115085761D01*
X186070952Y-115133380D01*
X185975714Y-115133380D01*
X187356666Y-115133380D02*
X186785238Y-115133380D01*
X187070952Y-115133380D02*
X187070952Y-114133380D01*
X186975714Y-114276238D01*
X186880476Y-114371476D01*
X186785238Y-114419095D01*
G04 #@! TO.C,J2*
X126666666Y-133564380D02*
X126666666Y-134278666D01*
X126619047Y-134421523D01*
X126523809Y-134516761D01*
X126380952Y-134564380D01*
X126285714Y-134564380D01*
X127095238Y-133659619D02*
X127142857Y-133612000D01*
X127238095Y-133564380D01*
X127476190Y-133564380D01*
X127571428Y-133612000D01*
X127619047Y-133659619D01*
X127666666Y-133754857D01*
X127666666Y-133850095D01*
X127619047Y-133992952D01*
X127047619Y-134564380D01*
X127666666Y-134564380D01*
G04 #@! TO.C,J3*
X141398666Y-124420380D02*
X141398666Y-125134666D01*
X141351047Y-125277523D01*
X141255809Y-125372761D01*
X141112952Y-125420380D01*
X141017714Y-125420380D01*
X141779619Y-124420380D02*
X142398666Y-124420380D01*
X142065333Y-124801333D01*
X142208190Y-124801333D01*
X142303428Y-124848952D01*
X142351047Y-124896571D01*
X142398666Y-124991809D01*
X142398666Y-125229904D01*
X142351047Y-125325142D01*
X142303428Y-125372761D01*
X142208190Y-125420380D01*
X141922476Y-125420380D01*
X141827238Y-125372761D01*
X141779619Y-125325142D01*
G04 #@! TO.C,J4*
X164666666Y-133452380D02*
X164666666Y-134166666D01*
X164619047Y-134309523D01*
X164523809Y-134404761D01*
X164380952Y-134452380D01*
X164285714Y-134452380D01*
X165571428Y-133785714D02*
X165571428Y-134452380D01*
X165333333Y-133404761D02*
X165095238Y-134119047D01*
X165714285Y-134119047D01*
G04 #@! TO.C,J5*
X137842666Y-129246380D02*
X137842666Y-129960666D01*
X137795047Y-130103523D01*
X137699809Y-130198761D01*
X137556952Y-130246380D01*
X137461714Y-130246380D01*
X138795047Y-129246380D02*
X138318857Y-129246380D01*
X138271238Y-129722571D01*
X138318857Y-129674952D01*
X138414095Y-129627333D01*
X138652190Y-129627333D01*
X138747428Y-129674952D01*
X138795047Y-129722571D01*
X138842666Y-129817809D01*
X138842666Y-130055904D01*
X138795047Y-130151142D01*
X138747428Y-130198761D01*
X138652190Y-130246380D01*
X138414095Y-130246380D01*
X138318857Y-130198761D01*
X138271238Y-130151142D01*
G04 #@! TO.C,J6*
X163496666Y-90892380D02*
X163496666Y-91606666D01*
X163449047Y-91749523D01*
X163353809Y-91844761D01*
X163210952Y-91892380D01*
X163115714Y-91892380D01*
X164401428Y-90892380D02*
X164210952Y-90892380D01*
X164115714Y-90940000D01*
X164068095Y-90987619D01*
X163972857Y-91130476D01*
X163925238Y-91320952D01*
X163925238Y-91701904D01*
X163972857Y-91797142D01*
X164020476Y-91844761D01*
X164115714Y-91892380D01*
X164306190Y-91892380D01*
X164401428Y-91844761D01*
X164449047Y-91797142D01*
X164496666Y-91701904D01*
X164496666Y-91463809D01*
X164449047Y-91368571D01*
X164401428Y-91320952D01*
X164306190Y-91273333D01*
X164115714Y-91273333D01*
X164020476Y-91320952D01*
X163972857Y-91368571D01*
X163925238Y-91463809D01*
G04 #@! TO.C,L1*
X180554333Y-124150380D02*
X180078142Y-124150380D01*
X180078142Y-123150380D01*
X181411476Y-124150380D02*
X180840047Y-124150380D01*
X181125761Y-124150380D02*
X181125761Y-123150380D01*
X181030523Y-123293238D01*
X180935285Y-123388476D01*
X180840047Y-123436095D01*
G04 #@! TO.C,R4*
X136739333Y-119324380D02*
X136406000Y-118848190D01*
X136167904Y-119324380D02*
X136167904Y-118324380D01*
X136548857Y-118324380D01*
X136644095Y-118372000D01*
X136691714Y-118419619D01*
X136739333Y-118514857D01*
X136739333Y-118657714D01*
X136691714Y-118752952D01*
X136644095Y-118800571D01*
X136548857Y-118848190D01*
X136167904Y-118848190D01*
X137596476Y-118657714D02*
X137596476Y-119324380D01*
X137358380Y-118276761D02*
X137120285Y-118991047D01*
X137739333Y-118991047D01*
G04 #@! TO.C,R5*
X133691333Y-122034380D02*
X133358000Y-121558190D01*
X133119904Y-122034380D02*
X133119904Y-121034380D01*
X133500857Y-121034380D01*
X133596095Y-121082000D01*
X133643714Y-121129619D01*
X133691333Y-121224857D01*
X133691333Y-121367714D01*
X133643714Y-121462952D01*
X133596095Y-121510571D01*
X133500857Y-121558190D01*
X133119904Y-121558190D01*
X134596095Y-121034380D02*
X134119904Y-121034380D01*
X134072285Y-121510571D01*
X134119904Y-121462952D01*
X134215142Y-121415333D01*
X134453238Y-121415333D01*
X134548476Y-121462952D01*
X134596095Y-121510571D01*
X134643714Y-121605809D01*
X134643714Y-121843904D01*
X134596095Y-121939142D01*
X134548476Y-121986761D01*
X134453238Y-122034380D01*
X134215142Y-122034380D01*
X134119904Y-121986761D01*
X134072285Y-121939142D01*
G04 #@! TO.C,R6*
X141692333Y-120721380D02*
X141359000Y-120245190D01*
X141120904Y-120721380D02*
X141120904Y-119721380D01*
X141501857Y-119721380D01*
X141597095Y-119769000D01*
X141644714Y-119816619D01*
X141692333Y-119911857D01*
X141692333Y-120054714D01*
X141644714Y-120149952D01*
X141597095Y-120197571D01*
X141501857Y-120245190D01*
X141120904Y-120245190D01*
X142549476Y-119721380D02*
X142359000Y-119721380D01*
X142263761Y-119769000D01*
X142216142Y-119816619D01*
X142120904Y-119959476D01*
X142073285Y-120149952D01*
X142073285Y-120530904D01*
X142120904Y-120626142D01*
X142168523Y-120673761D01*
X142263761Y-120721380D01*
X142454238Y-120721380D01*
X142549476Y-120673761D01*
X142597095Y-120626142D01*
X142644714Y-120530904D01*
X142644714Y-120292809D01*
X142597095Y-120197571D01*
X142549476Y-120149952D01*
X142454238Y-120102333D01*
X142263761Y-120102333D01*
X142168523Y-120149952D01*
X142120904Y-120197571D01*
X142073285Y-120292809D01*
G04 #@! TO.C,R7*
X141692333Y-123642380D02*
X141359000Y-123166190D01*
X141120904Y-123642380D02*
X141120904Y-122642380D01*
X141501857Y-122642380D01*
X141597095Y-122690000D01*
X141644714Y-122737619D01*
X141692333Y-122832857D01*
X141692333Y-122975714D01*
X141644714Y-123070952D01*
X141597095Y-123118571D01*
X141501857Y-123166190D01*
X141120904Y-123166190D01*
X142025666Y-122642380D02*
X142692333Y-122642380D01*
X142263761Y-123642380D01*
G04 #@! TO.C,R8*
X147407333Y-119578380D02*
X147074000Y-119102190D01*
X146835904Y-119578380D02*
X146835904Y-118578380D01*
X147216857Y-118578380D01*
X147312095Y-118626000D01*
X147359714Y-118673619D01*
X147407333Y-118768857D01*
X147407333Y-118911714D01*
X147359714Y-119006952D01*
X147312095Y-119054571D01*
X147216857Y-119102190D01*
X146835904Y-119102190D01*
X147978761Y-119006952D02*
X147883523Y-118959333D01*
X147835904Y-118911714D01*
X147788285Y-118816476D01*
X147788285Y-118768857D01*
X147835904Y-118673619D01*
X147883523Y-118626000D01*
X147978761Y-118578380D01*
X148169238Y-118578380D01*
X148264476Y-118626000D01*
X148312095Y-118673619D01*
X148359714Y-118768857D01*
X148359714Y-118816476D01*
X148312095Y-118911714D01*
X148264476Y-118959333D01*
X148169238Y-119006952D01*
X147978761Y-119006952D01*
X147883523Y-119054571D01*
X147835904Y-119102190D01*
X147788285Y-119197428D01*
X147788285Y-119387904D01*
X147835904Y-119483142D01*
X147883523Y-119530761D01*
X147978761Y-119578380D01*
X148169238Y-119578380D01*
X148264476Y-119530761D01*
X148312095Y-119483142D01*
X148359714Y-119387904D01*
X148359714Y-119197428D01*
X148312095Y-119102190D01*
X148264476Y-119054571D01*
X148169238Y-119006952D01*
G04 #@! TO.C,R9*
X150709333Y-118054380D02*
X150376000Y-117578190D01*
X150137904Y-118054380D02*
X150137904Y-117054380D01*
X150518857Y-117054380D01*
X150614095Y-117102000D01*
X150661714Y-117149619D01*
X150709333Y-117244857D01*
X150709333Y-117387714D01*
X150661714Y-117482952D01*
X150614095Y-117530571D01*
X150518857Y-117578190D01*
X150137904Y-117578190D01*
X151185523Y-118054380D02*
X151376000Y-118054380D01*
X151471238Y-118006761D01*
X151518857Y-117959142D01*
X151614095Y-117816285D01*
X151661714Y-117625809D01*
X151661714Y-117244857D01*
X151614095Y-117149619D01*
X151566476Y-117102000D01*
X151471238Y-117054380D01*
X151280761Y-117054380D01*
X151185523Y-117102000D01*
X151137904Y-117149619D01*
X151090285Y-117244857D01*
X151090285Y-117482952D01*
X151137904Y-117578190D01*
X151185523Y-117625809D01*
X151280761Y-117673428D01*
X151471238Y-117673428D01*
X151566476Y-117625809D01*
X151614095Y-117578190D01*
X151661714Y-117482952D01*
G04 #@! TO.C,R10*
X152519142Y-118054380D02*
X152185809Y-117578190D01*
X151947714Y-118054380D02*
X151947714Y-117054380D01*
X152328666Y-117054380D01*
X152423904Y-117102000D01*
X152471523Y-117149619D01*
X152519142Y-117244857D01*
X152519142Y-117387714D01*
X152471523Y-117482952D01*
X152423904Y-117530571D01*
X152328666Y-117578190D01*
X151947714Y-117578190D01*
X153471523Y-118054380D02*
X152900095Y-118054380D01*
X153185809Y-118054380D02*
X153185809Y-117054380D01*
X153090571Y-117197238D01*
X152995333Y-117292476D01*
X152900095Y-117340095D01*
X154090571Y-117054380D02*
X154185809Y-117054380D01*
X154281047Y-117102000D01*
X154328666Y-117149619D01*
X154376285Y-117244857D01*
X154423904Y-117435333D01*
X154423904Y-117673428D01*
X154376285Y-117863904D01*
X154328666Y-117959142D01*
X154281047Y-118006761D01*
X154185809Y-118054380D01*
X154090571Y-118054380D01*
X153995333Y-118006761D01*
X153947714Y-117959142D01*
X153900095Y-117863904D01*
X153852476Y-117673428D01*
X153852476Y-117435333D01*
X153900095Y-117244857D01*
X153947714Y-117149619D01*
X153995333Y-117102000D01*
X154090571Y-117054380D01*
G04 #@! TO.C,R11*
X155313142Y-126690380D02*
X154979809Y-126214190D01*
X154741714Y-126690380D02*
X154741714Y-125690380D01*
X155122666Y-125690380D01*
X155217904Y-125738000D01*
X155265523Y-125785619D01*
X155313142Y-125880857D01*
X155313142Y-126023714D01*
X155265523Y-126118952D01*
X155217904Y-126166571D01*
X155122666Y-126214190D01*
X154741714Y-126214190D01*
X156265523Y-126690380D02*
X155694095Y-126690380D01*
X155979809Y-126690380D02*
X155979809Y-125690380D01*
X155884571Y-125833238D01*
X155789333Y-125928476D01*
X155694095Y-125976095D01*
X157217904Y-126690380D02*
X156646476Y-126690380D01*
X156932190Y-126690380D02*
X156932190Y-125690380D01*
X156836952Y-125833238D01*
X156741714Y-125928476D01*
X156646476Y-125976095D01*
G04 #@! TO.C,R14*
X145915142Y-125166380D02*
X145581809Y-124690190D01*
X145343714Y-125166380D02*
X145343714Y-124166380D01*
X145724666Y-124166380D01*
X145819904Y-124214000D01*
X145867523Y-124261619D01*
X145915142Y-124356857D01*
X145915142Y-124499714D01*
X145867523Y-124594952D01*
X145819904Y-124642571D01*
X145724666Y-124690190D01*
X145343714Y-124690190D01*
X146867523Y-125166380D02*
X146296095Y-125166380D01*
X146581809Y-125166380D02*
X146581809Y-124166380D01*
X146486571Y-124309238D01*
X146391333Y-124404476D01*
X146296095Y-124452095D01*
X147724666Y-124499714D02*
X147724666Y-125166380D01*
X147486571Y-124118761D02*
X147248476Y-124833047D01*
X147867523Y-124833047D01*
G04 #@! TO.C,R16*
X139136380Y-117228857D02*
X138660190Y-117562190D01*
X139136380Y-117800285D02*
X138136380Y-117800285D01*
X138136380Y-117419333D01*
X138184000Y-117324095D01*
X138231619Y-117276476D01*
X138326857Y-117228857D01*
X138469714Y-117228857D01*
X138564952Y-117276476D01*
X138612571Y-117324095D01*
X138660190Y-117419333D01*
X138660190Y-117800285D01*
X139136380Y-116276476D02*
X139136380Y-116847904D01*
X139136380Y-116562190D02*
X138136380Y-116562190D01*
X138279238Y-116657428D01*
X138374476Y-116752666D01*
X138422095Y-116847904D01*
X138136380Y-115419333D02*
X138136380Y-115609809D01*
X138184000Y-115705047D01*
X138231619Y-115752666D01*
X138374476Y-115847904D01*
X138564952Y-115895523D01*
X138945904Y-115895523D01*
X139041142Y-115847904D01*
X139088761Y-115800285D01*
X139136380Y-115705047D01*
X139136380Y-115514571D01*
X139088761Y-115419333D01*
X139041142Y-115371714D01*
X138945904Y-115324095D01*
X138707809Y-115324095D01*
X138612571Y-115371714D01*
X138564952Y-115419333D01*
X138517333Y-115514571D01*
X138517333Y-115705047D01*
X138564952Y-115800285D01*
X138612571Y-115847904D01*
X138707809Y-115895523D01*
G04 #@! TO.C,R17*
X144724380Y-117820857D02*
X144248190Y-118154190D01*
X144724380Y-118392285D02*
X143724380Y-118392285D01*
X143724380Y-118011333D01*
X143772000Y-117916095D01*
X143819619Y-117868476D01*
X143914857Y-117820857D01*
X144057714Y-117820857D01*
X144152952Y-117868476D01*
X144200571Y-117916095D01*
X144248190Y-118011333D01*
X144248190Y-118392285D01*
X144724380Y-116868476D02*
X144724380Y-117439904D01*
X144724380Y-117154190D02*
X143724380Y-117154190D01*
X143867238Y-117249428D01*
X143962476Y-117344666D01*
X144010095Y-117439904D01*
X143724380Y-116535142D02*
X143724380Y-115868476D01*
X144724380Y-116297047D01*
G04 #@! TO.C,U2*
X150876095Y-125944380D02*
X150876095Y-126753904D01*
X150923714Y-126849142D01*
X150971333Y-126896761D01*
X151066571Y-126944380D01*
X151257047Y-126944380D01*
X151352285Y-126896761D01*
X151399904Y-126849142D01*
X151447523Y-126753904D01*
X151447523Y-125944380D01*
X151876095Y-126039619D02*
X151923714Y-125992000D01*
X152018952Y-125944380D01*
X152257047Y-125944380D01*
X152352285Y-125992000D01*
X152399904Y-126039619D01*
X152447523Y-126134857D01*
X152447523Y-126230095D01*
X152399904Y-126372952D01*
X151828476Y-126944380D01*
X152447523Y-126944380D01*
G04 #@! TO.C,U4*
X165354095Y-94194380D02*
X165354095Y-95003904D01*
X165401714Y-95099142D01*
X165449333Y-95146761D01*
X165544571Y-95194380D01*
X165735047Y-95194380D01*
X165830285Y-95146761D01*
X165877904Y-95099142D01*
X165925523Y-95003904D01*
X165925523Y-94194380D01*
X166830285Y-94527714D02*
X166830285Y-95194380D01*
X166592190Y-94146761D02*
X166354095Y-94861047D01*
X166973142Y-94861047D01*
G04 #@! TO.C,U5*
X117238095Y-92802380D02*
X117238095Y-93611904D01*
X117285714Y-93707142D01*
X117333333Y-93754761D01*
X117428571Y-93802380D01*
X117619047Y-93802380D01*
X117714285Y-93754761D01*
X117761904Y-93707142D01*
X117809523Y-93611904D01*
X117809523Y-92802380D01*
X118761904Y-92802380D02*
X118285714Y-92802380D01*
X118238095Y-93278571D01*
X118285714Y-93230952D01*
X118380952Y-93183333D01*
X118619047Y-93183333D01*
X118714285Y-93230952D01*
X118761904Y-93278571D01*
X118809523Y-93373809D01*
X118809523Y-93611904D01*
X118761904Y-93707142D01*
X118714285Y-93754761D01*
X118619047Y-93802380D01*
X118380952Y-93802380D01*
X118285714Y-93754761D01*
X118238095Y-93707142D01*
G04 #@! TD*
M02*
