G04 #@! TF.GenerationSoftware,KiCad,Pcbnew,(5.0.0)*
G04 #@! TF.CreationDate,2018-10-21T14:19:47+08:00*
G04 #@! TF.ProjectId,PSU 4CH V1_PCBV2,505355203443482056315F5043425632,rev?*
G04 #@! TF.SameCoordinates,Original*
G04 #@! TF.FileFunction,Legend,Bot*
G04 #@! TF.FilePolarity,Positive*
%FSLAX46Y46*%
G04 Gerber Fmt 4.6, Leading zero omitted, Abs format (unit mm)*
G04 Created by KiCad (PCBNEW (5.0.0)) date 10/21/18 14:19:47*
%MOMM*%
%LPD*%
G01*
G04 APERTURE LIST*
%ADD10C,0.200000*%
%ADD11C,0.120000*%
%ADD12C,0.150000*%
G04 APERTURE END LIST*
D10*
X125000000Y-115000000D02*
X155000000Y-115000000D01*
X125000000Y-85000000D02*
X125000000Y-115000000D01*
X155000000Y-85000000D02*
X125000000Y-85000000D01*
X155000000Y-115000000D02*
X155000000Y-85000000D01*
D11*
G04 #@! TO.C,C1*
X141824000Y-124298000D02*
X142524000Y-124298000D01*
X142524000Y-123098000D02*
X141824000Y-123098000D01*
G04 #@! TO.C,C3*
X156118000Y-112868000D02*
X156118000Y-113568000D01*
X157318000Y-113568000D02*
X157318000Y-112868000D01*
G04 #@! TO.C,C4*
X145196000Y-122652000D02*
X145196000Y-123352000D01*
X146396000Y-123352000D02*
X146396000Y-122652000D01*
G04 #@! TO.C,C5*
X151292000Y-123668000D02*
X151292000Y-124368000D01*
X152492000Y-124368000D02*
X152492000Y-123668000D01*
G04 #@! TO.C,C6*
X157134000Y-119726000D02*
X157134000Y-120426000D01*
X158334000Y-120426000D02*
X158334000Y-119726000D01*
G04 #@! TO.C,C7*
X118272000Y-93884000D02*
X118272000Y-94584000D01*
X119472000Y-94584000D02*
X119472000Y-93884000D01*
G04 #@! TO.C,C11*
X161710000Y-103116000D02*
X161710000Y-102116000D01*
X163410000Y-102116000D02*
X163410000Y-103116000D01*
G04 #@! TO.C,C14*
X160558000Y-120050000D02*
X159858000Y-120050000D01*
X159858000Y-121250000D02*
X160558000Y-121250000D01*
D12*
G04 #@! TO.C,D1*
X139446520Y-117096540D02*
X139446520Y-116334540D01*
X144018520Y-117096540D02*
X139446520Y-117096540D01*
X144018520Y-115572540D02*
X144018520Y-117096540D01*
X139446520Y-115572540D02*
X144018520Y-115572540D01*
X139446520Y-116334540D02*
X139446520Y-115572540D01*
X140208520Y-117096540D02*
X140208520Y-115572540D01*
X139573520Y-116334540D02*
X138049520Y-116334540D01*
X144018520Y-116334540D02*
X145415520Y-116334540D01*
G04 #@! TO.C,D5*
X118869460Y-114046520D02*
X118869460Y-115443520D01*
X118869460Y-109601520D02*
X118869460Y-108077520D01*
X118107460Y-110236520D02*
X119631460Y-110236520D01*
X118869460Y-109474520D02*
X119631460Y-109474520D01*
X119631460Y-109474520D02*
X119631460Y-114046520D01*
X119631460Y-114046520D02*
X118107460Y-114046520D01*
X118107460Y-114046520D02*
X118107460Y-109474520D01*
X118107460Y-109474520D02*
X118869460Y-109474520D01*
D11*
G04 #@! TO.C,D6*
X171747000Y-103340000D02*
X171747000Y-112560000D01*
X160342000Y-107950000D02*
X163952000Y-107950000D01*
X176782000Y-107950000D02*
X173172000Y-107950000D01*
X163952000Y-103340000D02*
X173172000Y-103340000D01*
X163952000Y-112560000D02*
X163952000Y-103340000D01*
X173172000Y-112560000D02*
X163952000Y-112560000D01*
X173172000Y-103340000D02*
X173172000Y-112560000D01*
G04 #@! TO.C,Q1*
X120648000Y-96210000D02*
X119188000Y-96210000D01*
X120648000Y-99370000D02*
X118488000Y-99370000D01*
X120648000Y-99370000D02*
X120648000Y-98440000D01*
X120648000Y-96210000D02*
X120648000Y-97140000D01*
G04 #@! TO.C,R1*
X162134000Y-119304000D02*
X162134000Y-120304000D01*
X163494000Y-120304000D02*
X163494000Y-119304000D01*
G04 #@! TO.C,R2*
X160690000Y-118192000D02*
X159690000Y-118192000D01*
X159690000Y-119552000D02*
X160690000Y-119552000D01*
G04 #@! TO.C,R3*
X116668000Y-98306000D02*
X116668000Y-99306000D01*
X118028000Y-99306000D02*
X118028000Y-98306000D01*
G04 #@! TO.C,R12*
X146080799Y-127638799D02*
X146080799Y-126438799D01*
X144320799Y-126438799D02*
X144320799Y-127638799D01*
G04 #@! TO.C,R13*
X142440799Y-126438799D02*
X142440799Y-127638799D01*
X144200799Y-127638799D02*
X144200799Y-126438799D01*
G04 #@! TO.C,R15*
X148926000Y-121504000D02*
X148926000Y-122504000D01*
X150286000Y-122504000D02*
X150286000Y-121504000D01*
G04 #@! TO.C,R18*
X153086000Y-117012000D02*
X154086000Y-117012000D01*
X154086000Y-115652000D02*
X153086000Y-115652000D01*
G04 #@! TO.C,U1*
X140900000Y-122849000D02*
X142900000Y-122849000D01*
X141900000Y-119609000D02*
X144900000Y-119609000D01*
G04 #@! TO.C,U3*
X158004000Y-118460000D02*
X160004000Y-118460000D01*
X159004000Y-115220000D02*
X162004000Y-115220000D01*
G04 #@! TO.C,C1*
D12*
X141644666Y-125452142D02*
X141692285Y-125499761D01*
X141835142Y-125547380D01*
X141930380Y-125547380D01*
X142073238Y-125499761D01*
X142168476Y-125404523D01*
X142216095Y-125309285D01*
X142263714Y-125118809D01*
X142263714Y-124975952D01*
X142216095Y-124785476D01*
X142168476Y-124690238D01*
X142073238Y-124595000D01*
X141930380Y-124547380D01*
X141835142Y-124547380D01*
X141692285Y-124595000D01*
X141644666Y-124642619D01*
X140692285Y-125547380D02*
X141263714Y-125547380D01*
X140978000Y-125547380D02*
X140978000Y-124547380D01*
X141073238Y-124690238D01*
X141168476Y-124785476D01*
X141263714Y-124833095D01*
G04 #@! TO.C,C3*
X156884666Y-110974142D02*
X156932285Y-111021761D01*
X157075142Y-111069380D01*
X157170380Y-111069380D01*
X157313238Y-111021761D01*
X157408476Y-110926523D01*
X157456095Y-110831285D01*
X157503714Y-110640809D01*
X157503714Y-110497952D01*
X157456095Y-110307476D01*
X157408476Y-110212238D01*
X157313238Y-110117000D01*
X157170380Y-110069380D01*
X157075142Y-110069380D01*
X156932285Y-110117000D01*
X156884666Y-110164619D01*
X156551333Y-110069380D02*
X155932285Y-110069380D01*
X156265619Y-110450333D01*
X156122761Y-110450333D01*
X156027523Y-110497952D01*
X155979904Y-110545571D01*
X155932285Y-110640809D01*
X155932285Y-110878904D01*
X155979904Y-110974142D01*
X156027523Y-111021761D01*
X156122761Y-111069380D01*
X156408476Y-111069380D01*
X156503714Y-111021761D01*
X156551333Y-110974142D01*
G04 #@! TO.C,C4*
X146089666Y-121007142D02*
X146137285Y-121054761D01*
X146280142Y-121102380D01*
X146375380Y-121102380D01*
X146518238Y-121054761D01*
X146613476Y-120959523D01*
X146661095Y-120864285D01*
X146708714Y-120673809D01*
X146708714Y-120530952D01*
X146661095Y-120340476D01*
X146613476Y-120245238D01*
X146518238Y-120150000D01*
X146375380Y-120102380D01*
X146280142Y-120102380D01*
X146137285Y-120150000D01*
X146089666Y-120197619D01*
X145232523Y-120435714D02*
X145232523Y-121102380D01*
X145470619Y-120054761D02*
X145708714Y-120769047D01*
X145089666Y-120769047D01*
G04 #@! TO.C,C5*
X152058666Y-126976142D02*
X152106285Y-127023761D01*
X152249142Y-127071380D01*
X152344380Y-127071380D01*
X152487238Y-127023761D01*
X152582476Y-126928523D01*
X152630095Y-126833285D01*
X152677714Y-126642809D01*
X152677714Y-126499952D01*
X152630095Y-126309476D01*
X152582476Y-126214238D01*
X152487238Y-126119000D01*
X152344380Y-126071380D01*
X152249142Y-126071380D01*
X152106285Y-126119000D01*
X152058666Y-126166619D01*
X151153904Y-126071380D02*
X151630095Y-126071380D01*
X151677714Y-126547571D01*
X151630095Y-126499952D01*
X151534857Y-126452333D01*
X151296761Y-126452333D01*
X151201523Y-126499952D01*
X151153904Y-126547571D01*
X151106285Y-126642809D01*
X151106285Y-126880904D01*
X151153904Y-126976142D01*
X151201523Y-127023761D01*
X151296761Y-127071380D01*
X151534857Y-127071380D01*
X151630095Y-127023761D01*
X151677714Y-126976142D01*
G04 #@! TO.C,C6*
X156249666Y-120372142D02*
X156297285Y-120419761D01*
X156440142Y-120467380D01*
X156535380Y-120467380D01*
X156678238Y-120419761D01*
X156773476Y-120324523D01*
X156821095Y-120229285D01*
X156868714Y-120038809D01*
X156868714Y-119895952D01*
X156821095Y-119705476D01*
X156773476Y-119610238D01*
X156678238Y-119515000D01*
X156535380Y-119467380D01*
X156440142Y-119467380D01*
X156297285Y-119515000D01*
X156249666Y-119562619D01*
X155392523Y-119467380D02*
X155583000Y-119467380D01*
X155678238Y-119515000D01*
X155725857Y-119562619D01*
X155821095Y-119705476D01*
X155868714Y-119895952D01*
X155868714Y-120276904D01*
X155821095Y-120372142D01*
X155773476Y-120419761D01*
X155678238Y-120467380D01*
X155487761Y-120467380D01*
X155392523Y-120419761D01*
X155344904Y-120372142D01*
X155297285Y-120276904D01*
X155297285Y-120038809D01*
X155344904Y-119943571D01*
X155392523Y-119895952D01*
X155487761Y-119848333D01*
X155678238Y-119848333D01*
X155773476Y-119895952D01*
X155821095Y-119943571D01*
X155868714Y-120038809D01*
G04 #@! TO.C,C7*
X119038666Y-92178142D02*
X119086285Y-92225761D01*
X119229142Y-92273380D01*
X119324380Y-92273380D01*
X119467238Y-92225761D01*
X119562476Y-92130523D01*
X119610095Y-92035285D01*
X119657714Y-91844809D01*
X119657714Y-91701952D01*
X119610095Y-91511476D01*
X119562476Y-91416238D01*
X119467238Y-91321000D01*
X119324380Y-91273380D01*
X119229142Y-91273380D01*
X119086285Y-91321000D01*
X119038666Y-91368619D01*
X118705333Y-91273380D02*
X118038666Y-91273380D01*
X118467238Y-92273380D01*
G04 #@! TO.C,C11*
X163202857Y-99925142D02*
X163250476Y-99972761D01*
X163393333Y-100020380D01*
X163488571Y-100020380D01*
X163631428Y-99972761D01*
X163726666Y-99877523D01*
X163774285Y-99782285D01*
X163821904Y-99591809D01*
X163821904Y-99448952D01*
X163774285Y-99258476D01*
X163726666Y-99163238D01*
X163631428Y-99068000D01*
X163488571Y-99020380D01*
X163393333Y-99020380D01*
X163250476Y-99068000D01*
X163202857Y-99115619D01*
X162250476Y-100020380D02*
X162821904Y-100020380D01*
X162536190Y-100020380D02*
X162536190Y-99020380D01*
X162631428Y-99163238D01*
X162726666Y-99258476D01*
X162821904Y-99306095D01*
X161298095Y-100020380D02*
X161869523Y-100020380D01*
X161583809Y-100020380D02*
X161583809Y-99020380D01*
X161679047Y-99163238D01*
X161774285Y-99258476D01*
X161869523Y-99306095D01*
G04 #@! TO.C,C14*
X160789857Y-124817142D02*
X160837476Y-124864761D01*
X160980333Y-124912380D01*
X161075571Y-124912380D01*
X161218428Y-124864761D01*
X161313666Y-124769523D01*
X161361285Y-124674285D01*
X161408904Y-124483809D01*
X161408904Y-124340952D01*
X161361285Y-124150476D01*
X161313666Y-124055238D01*
X161218428Y-123960000D01*
X161075571Y-123912380D01*
X160980333Y-123912380D01*
X160837476Y-123960000D01*
X160789857Y-124007619D01*
X159837476Y-124912380D02*
X160408904Y-124912380D01*
X160123190Y-124912380D02*
X160123190Y-123912380D01*
X160218428Y-124055238D01*
X160313666Y-124150476D01*
X160408904Y-124198095D01*
X158980333Y-124245714D02*
X158980333Y-124912380D01*
X159218428Y-123864761D02*
X159456523Y-124579047D01*
X158837476Y-124579047D01*
G04 #@! TO.C,D1*
X149455095Y-116784380D02*
X149455095Y-115784380D01*
X149217000Y-115784380D01*
X149074142Y-115832000D01*
X148978904Y-115927238D01*
X148931285Y-116022476D01*
X148883666Y-116212952D01*
X148883666Y-116355809D01*
X148931285Y-116546285D01*
X148978904Y-116641523D01*
X149074142Y-116736761D01*
X149217000Y-116784380D01*
X149455095Y-116784380D01*
X147931285Y-116784380D02*
X148502714Y-116784380D01*
X148217000Y-116784380D02*
X148217000Y-115784380D01*
X148312238Y-115927238D01*
X148407476Y-116022476D01*
X148502714Y-116070095D01*
G04 #@! TO.C,D5*
X121515095Y-112466380D02*
X121515095Y-111466380D01*
X121277000Y-111466380D01*
X121134142Y-111514000D01*
X121038904Y-111609238D01*
X120991285Y-111704476D01*
X120943666Y-111894952D01*
X120943666Y-112037809D01*
X120991285Y-112228285D01*
X121038904Y-112323523D01*
X121134142Y-112418761D01*
X121277000Y-112466380D01*
X121515095Y-112466380D01*
X120038904Y-111466380D02*
X120515095Y-111466380D01*
X120562714Y-111942571D01*
X120515095Y-111894952D01*
X120419857Y-111847333D01*
X120181761Y-111847333D01*
X120086523Y-111894952D01*
X120038904Y-111942571D01*
X119991285Y-112037809D01*
X119991285Y-112275904D01*
X120038904Y-112371142D01*
X120086523Y-112418761D01*
X120181761Y-112466380D01*
X120419857Y-112466380D01*
X120515095Y-112418761D01*
X120562714Y-112371142D01*
G04 #@! TO.C,D6*
X169300095Y-102792380D02*
X169300095Y-101792380D01*
X169062000Y-101792380D01*
X168919142Y-101840000D01*
X168823904Y-101935238D01*
X168776285Y-102030476D01*
X168728666Y-102220952D01*
X168728666Y-102363809D01*
X168776285Y-102554285D01*
X168823904Y-102649523D01*
X168919142Y-102744761D01*
X169062000Y-102792380D01*
X169300095Y-102792380D01*
X167871523Y-101792380D02*
X168062000Y-101792380D01*
X168157238Y-101840000D01*
X168204857Y-101887619D01*
X168300095Y-102030476D01*
X168347714Y-102220952D01*
X168347714Y-102601904D01*
X168300095Y-102697142D01*
X168252476Y-102744761D01*
X168157238Y-102792380D01*
X167966761Y-102792380D01*
X167871523Y-102744761D01*
X167823904Y-102697142D01*
X167776285Y-102601904D01*
X167776285Y-102363809D01*
X167823904Y-102268571D01*
X167871523Y-102220952D01*
X167966761Y-102173333D01*
X168157238Y-102173333D01*
X168252476Y-102220952D01*
X168300095Y-102268571D01*
X168347714Y-102363809D01*
G04 #@! TO.C,Q1*
X119983238Y-100837619D02*
X120078476Y-100790000D01*
X120173714Y-100694761D01*
X120316571Y-100551904D01*
X120411809Y-100504285D01*
X120507047Y-100504285D01*
X120459428Y-100742380D02*
X120554666Y-100694761D01*
X120649904Y-100599523D01*
X120697523Y-100409047D01*
X120697523Y-100075714D01*
X120649904Y-99885238D01*
X120554666Y-99790000D01*
X120459428Y-99742380D01*
X120268952Y-99742380D01*
X120173714Y-99790000D01*
X120078476Y-99885238D01*
X120030857Y-100075714D01*
X120030857Y-100409047D01*
X120078476Y-100599523D01*
X120173714Y-100694761D01*
X120268952Y-100742380D01*
X120459428Y-100742380D01*
X119078476Y-100742380D02*
X119649904Y-100742380D01*
X119364190Y-100742380D02*
X119364190Y-99742380D01*
X119459428Y-99885238D01*
X119554666Y-99980476D01*
X119649904Y-100028095D01*
G04 #@! TO.C,R1*
X164631666Y-120213380D02*
X164965000Y-119737190D01*
X165203095Y-120213380D02*
X165203095Y-119213380D01*
X164822142Y-119213380D01*
X164726904Y-119261000D01*
X164679285Y-119308619D01*
X164631666Y-119403857D01*
X164631666Y-119546714D01*
X164679285Y-119641952D01*
X164726904Y-119689571D01*
X164822142Y-119737190D01*
X165203095Y-119737190D01*
X163679285Y-120213380D02*
X164250714Y-120213380D01*
X163965000Y-120213380D02*
X163965000Y-119213380D01*
X164060238Y-119356238D01*
X164155476Y-119451476D01*
X164250714Y-119499095D01*
G04 #@! TO.C,R2*
X163361666Y-117673380D02*
X163695000Y-117197190D01*
X163933095Y-117673380D02*
X163933095Y-116673380D01*
X163552142Y-116673380D01*
X163456904Y-116721000D01*
X163409285Y-116768619D01*
X163361666Y-116863857D01*
X163361666Y-117006714D01*
X163409285Y-117101952D01*
X163456904Y-117149571D01*
X163552142Y-117197190D01*
X163933095Y-117197190D01*
X162980714Y-116768619D02*
X162933095Y-116721000D01*
X162837857Y-116673380D01*
X162599761Y-116673380D01*
X162504523Y-116721000D01*
X162456904Y-116768619D01*
X162409285Y-116863857D01*
X162409285Y-116959095D01*
X162456904Y-117101952D01*
X163028333Y-117673380D01*
X162409285Y-117673380D01*
G04 #@! TO.C,R3*
X117514666Y-96718380D02*
X117848000Y-96242190D01*
X118086095Y-96718380D02*
X118086095Y-95718380D01*
X117705142Y-95718380D01*
X117609904Y-95766000D01*
X117562285Y-95813619D01*
X117514666Y-95908857D01*
X117514666Y-96051714D01*
X117562285Y-96146952D01*
X117609904Y-96194571D01*
X117705142Y-96242190D01*
X118086095Y-96242190D01*
X117181333Y-95718380D02*
X116562285Y-95718380D01*
X116895619Y-96099333D01*
X116752761Y-96099333D01*
X116657523Y-96146952D01*
X116609904Y-96194571D01*
X116562285Y-96289809D01*
X116562285Y-96527904D01*
X116609904Y-96623142D01*
X116657523Y-96670761D01*
X116752761Y-96718380D01*
X117038476Y-96718380D01*
X117133714Y-96670761D01*
X117181333Y-96623142D01*
G04 #@! TO.C,R12*
X146438857Y-130754380D02*
X146772190Y-130278190D01*
X147010285Y-130754380D02*
X147010285Y-129754380D01*
X146629333Y-129754380D01*
X146534095Y-129802000D01*
X146486476Y-129849619D01*
X146438857Y-129944857D01*
X146438857Y-130087714D01*
X146486476Y-130182952D01*
X146534095Y-130230571D01*
X146629333Y-130278190D01*
X147010285Y-130278190D01*
X145486476Y-130754380D02*
X146057904Y-130754380D01*
X145772190Y-130754380D02*
X145772190Y-129754380D01*
X145867428Y-129897238D01*
X145962666Y-129992476D01*
X146057904Y-130040095D01*
X145105523Y-129849619D02*
X145057904Y-129802000D01*
X144962666Y-129754380D01*
X144724571Y-129754380D01*
X144629333Y-129802000D01*
X144581714Y-129849619D01*
X144534095Y-129944857D01*
X144534095Y-130040095D01*
X144581714Y-130182952D01*
X145153142Y-130754380D01*
X144534095Y-130754380D01*
G04 #@! TO.C,R13*
X143517857Y-130754380D02*
X143851190Y-130278190D01*
X144089285Y-130754380D02*
X144089285Y-129754380D01*
X143708333Y-129754380D01*
X143613095Y-129802000D01*
X143565476Y-129849619D01*
X143517857Y-129944857D01*
X143517857Y-130087714D01*
X143565476Y-130182952D01*
X143613095Y-130230571D01*
X143708333Y-130278190D01*
X144089285Y-130278190D01*
X142565476Y-130754380D02*
X143136904Y-130754380D01*
X142851190Y-130754380D02*
X142851190Y-129754380D01*
X142946428Y-129897238D01*
X143041666Y-129992476D01*
X143136904Y-130040095D01*
X142232142Y-129754380D02*
X141613095Y-129754380D01*
X141946428Y-130135333D01*
X141803571Y-130135333D01*
X141708333Y-130182952D01*
X141660714Y-130230571D01*
X141613095Y-130325809D01*
X141613095Y-130563904D01*
X141660714Y-130659142D01*
X141708333Y-130706761D01*
X141803571Y-130754380D01*
X142089285Y-130754380D01*
X142184523Y-130706761D01*
X142232142Y-130659142D01*
G04 #@! TO.C,R15*
X150248857Y-119832380D02*
X150582190Y-119356190D01*
X150820285Y-119832380D02*
X150820285Y-118832380D01*
X150439333Y-118832380D01*
X150344095Y-118880000D01*
X150296476Y-118927619D01*
X150248857Y-119022857D01*
X150248857Y-119165714D01*
X150296476Y-119260952D01*
X150344095Y-119308571D01*
X150439333Y-119356190D01*
X150820285Y-119356190D01*
X149296476Y-119832380D02*
X149867904Y-119832380D01*
X149582190Y-119832380D02*
X149582190Y-118832380D01*
X149677428Y-118975238D01*
X149772666Y-119070476D01*
X149867904Y-119118095D01*
X148391714Y-118832380D02*
X148867904Y-118832380D01*
X148915523Y-119308571D01*
X148867904Y-119260952D01*
X148772666Y-119213333D01*
X148534571Y-119213333D01*
X148439333Y-119260952D01*
X148391714Y-119308571D01*
X148344095Y-119403809D01*
X148344095Y-119641904D01*
X148391714Y-119737142D01*
X148439333Y-119784761D01*
X148534571Y-119832380D01*
X148772666Y-119832380D01*
X148867904Y-119784761D01*
X148915523Y-119737142D01*
G04 #@! TO.C,R18*
X154228857Y-118234380D02*
X154562190Y-117758190D01*
X154800285Y-118234380D02*
X154800285Y-117234380D01*
X154419333Y-117234380D01*
X154324095Y-117282000D01*
X154276476Y-117329619D01*
X154228857Y-117424857D01*
X154228857Y-117567714D01*
X154276476Y-117662952D01*
X154324095Y-117710571D01*
X154419333Y-117758190D01*
X154800285Y-117758190D01*
X153276476Y-118234380D02*
X153847904Y-118234380D01*
X153562190Y-118234380D02*
X153562190Y-117234380D01*
X153657428Y-117377238D01*
X153752666Y-117472476D01*
X153847904Y-117520095D01*
X152705047Y-117662952D02*
X152800285Y-117615333D01*
X152847904Y-117567714D01*
X152895523Y-117472476D01*
X152895523Y-117424857D01*
X152847904Y-117329619D01*
X152800285Y-117282000D01*
X152705047Y-117234380D01*
X152514571Y-117234380D01*
X152419333Y-117282000D01*
X152371714Y-117329619D01*
X152324095Y-117424857D01*
X152324095Y-117472476D01*
X152371714Y-117567714D01*
X152419333Y-117615333D01*
X152514571Y-117662952D01*
X152705047Y-117662952D01*
X152800285Y-117710571D01*
X152847904Y-117758190D01*
X152895523Y-117853428D01*
X152895523Y-118043904D01*
X152847904Y-118139142D01*
X152800285Y-118186761D01*
X152705047Y-118234380D01*
X152514571Y-118234380D01*
X152419333Y-118186761D01*
X152371714Y-118139142D01*
X152324095Y-118043904D01*
X152324095Y-117853428D01*
X152371714Y-117758190D01*
X152419333Y-117710571D01*
X152514571Y-117662952D01*
G04 #@! TO.C,U1*
X143636904Y-118197380D02*
X143636904Y-119006904D01*
X143589285Y-119102142D01*
X143541666Y-119149761D01*
X143446428Y-119197380D01*
X143255952Y-119197380D01*
X143160714Y-119149761D01*
X143113095Y-119102142D01*
X143065476Y-119006904D01*
X143065476Y-118197380D01*
X142065476Y-119197380D02*
X142636904Y-119197380D01*
X142351190Y-119197380D02*
X142351190Y-118197380D01*
X142446428Y-118340238D01*
X142541666Y-118435476D01*
X142636904Y-118483095D01*
G04 #@! TO.C,U3*
X164210904Y-115403380D02*
X164210904Y-116212904D01*
X164163285Y-116308142D01*
X164115666Y-116355761D01*
X164020428Y-116403380D01*
X163829952Y-116403380D01*
X163734714Y-116355761D01*
X163687095Y-116308142D01*
X163639476Y-116212904D01*
X163639476Y-115403380D01*
X163258523Y-115403380D02*
X162639476Y-115403380D01*
X162972809Y-115784333D01*
X162829952Y-115784333D01*
X162734714Y-115831952D01*
X162687095Y-115879571D01*
X162639476Y-115974809D01*
X162639476Y-116212904D01*
X162687095Y-116308142D01*
X162734714Y-116355761D01*
X162829952Y-116403380D01*
X163115666Y-116403380D01*
X163210904Y-116355761D01*
X163258523Y-116308142D01*
G04 #@! TD*
M02*
