M48
;DRILL file {KiCad 4.0.1-stable} date 7/15/2016 10:46:50 PM
;FORMAT={-:-/ absolute / inch / decimal}
FMAT,2
INCH,TZ
T1C0.024
T2C0.031
T3C0.032
T4C0.039
T5C0.040
T6C0.051
%
G90
G05
M72
T1
X5.8Y-4.35
X6.1Y-4.35
X6.25Y-4.45
X6.25Y-4.75
T2
X6.4Y-3.85
X6.4Y-3.95
X6.4Y-4.05
X6.4Y-4.15
X6.4Y-4.25
X6.4Y-4.35
X6.4Y-4.45
X6.7Y-3.85
X6.7Y-3.95
X6.7Y-4.05
X6.7Y-4.15
X6.7Y-4.25
X6.7Y-4.35
X6.7Y-4.45
T3
X6.025Y-4.05
X6.125Y-4.05
X6.225Y-4.05
X6.25Y-4.15
X6.25Y-4.25
X6.25Y-4.35
X6.35Y-3.5
X6.45Y-3.5
X6.475Y-4.75
X6.575Y-4.75
X6.7Y-3.5
X6.8Y-3.5
X6.85Y-4.05
X6.85Y-4.15
X6.85Y-4.25
X6.95Y-4.475
X7.025Y-4.75
X7.05Y-4.475
X7.125Y-4.75
X7.15Y-4.475
T4
X6.Y-3.2
X6.1Y-3.2
X6.925Y-5.05
X7.025Y-5.05
T5
X5.575Y-4.1
X5.575Y-4.55
X5.675Y-4.55
X5.7Y-4.175
X5.825Y-3.75
X5.825Y-3.925
X6.125Y-4.55
X6.15Y-4.175
X6.275Y-3.75
X6.275Y-3.925
X6.825Y-4.475
X6.825Y-4.925
X6.975Y-3.9
X6.975Y-4.35
T6
X6.45Y-3.2
X6.55Y-3.2
X6.65Y-3.2
T0
M30
