G04 #@! TF.FileFunction,Copper,L2,Bot,Signal*
%FSLAX46Y46*%
G04 Gerber Fmt 4.6, Leading zero omitted, Abs format (unit mm)*
G04 Created by KiCad (PCBNEW 4.0.1-stable) date 7/15/2016 10:46:23 PM*
%MOMM*%
G01*
G04 APERTURE LIST*
%ADD10C,0.100000*%
%ADD11C,1.397000*%
%ADD12R,1.651000X1.651000*%
%ADD13C,1.651000*%
%ADD14R,1.422400X1.422400*%
%ADD15C,1.422400*%
%ADD16R,2.000000X2.000000*%
%ADD17C,2.000000*%
%ADD18C,1.524000*%
%ADD19O,1.600000X1.600000*%
%ADD20C,0.260000*%
%ADD21C,0.410000*%
G04 APERTURE END LIST*
D10*
D11*
X158115000Y-102870000D03*
X153035000Y-102870000D03*
X155575000Y-102870000D03*
D12*
X164465000Y-120650000D03*
D13*
X167005000Y-120650000D03*
D11*
X181610000Y-113665000D03*
X176530000Y-113665000D03*
X179070000Y-113665000D03*
D12*
X180975000Y-120650000D03*
D13*
X178435000Y-120650000D03*
D12*
X161290000Y-88900000D03*
D13*
X163830000Y-88900000D03*
D12*
X170180000Y-88900000D03*
D13*
X172720000Y-88900000D03*
D11*
X158750000Y-105410000D03*
X158750000Y-110490000D03*
X158750000Y-107950000D03*
X173990000Y-107950000D03*
X173990000Y-102870000D03*
X173990000Y-105410000D03*
D14*
X154940000Y-110490000D03*
D15*
X147320000Y-110490000D03*
D14*
X158750000Y-113030000D03*
D15*
X158750000Y-120650000D03*
D16*
X163830000Y-81280000D03*
D17*
X166370000Y-81280000D03*
X168910000Y-81280000D03*
D18*
X159385000Y-99695000D03*
X147955000Y-99695000D03*
X156210000Y-106045000D03*
X144780000Y-106045000D03*
X141605000Y-104140000D03*
X141605000Y-115570000D03*
X159385000Y-95250000D03*
X147955000Y-95250000D03*
X144145000Y-115570000D03*
X155575000Y-115570000D03*
X173355000Y-125095000D03*
X173355000Y-113665000D03*
X177165000Y-110490000D03*
X177165000Y-99060000D03*
D16*
X152400000Y-81280000D03*
D17*
X154940000Y-81280000D03*
D19*
X162560000Y-97790000D03*
X162560000Y-100330000D03*
X162560000Y-102870000D03*
X162560000Y-105410000D03*
X162560000Y-107950000D03*
X162560000Y-110490000D03*
X162560000Y-113030000D03*
X170180000Y-113030000D03*
X170180000Y-110490000D03*
X170180000Y-107950000D03*
X170180000Y-105410000D03*
X170180000Y-102870000D03*
X170180000Y-100330000D03*
X170180000Y-97790000D03*
D16*
X178435000Y-128270000D03*
D17*
X175895000Y-128270000D03*
D20*
X159385000Y-99695000D02*
X162560000Y-102870000D01*
X158115000Y-102870000D02*
X162560000Y-102870000D01*
X152400000Y-81280000D02*
X152400000Y-93345000D01*
X149225000Y-102870000D02*
X153035000Y-102870000D01*
X146685000Y-100330000D02*
X149225000Y-102870000D01*
X146685000Y-99060000D02*
X146685000Y-100330000D01*
X152400000Y-93345000D02*
X146685000Y-99060000D01*
X155575000Y-102870000D02*
X153035000Y-102870000D01*
X158750000Y-120650000D02*
X164465000Y-120650000D01*
X164465000Y-120650000D02*
X168910000Y-125095000D01*
X168910000Y-125095000D02*
X173355000Y-125095000D01*
D21*
X154940000Y-81280000D02*
X154940000Y-99695000D01*
X147955000Y-99695000D02*
X154940000Y-99695000D01*
X154940000Y-105410000D02*
X154940000Y-110490000D01*
X156845000Y-103505000D02*
X154940000Y-105410000D01*
X156845000Y-101600000D02*
X156845000Y-103505000D01*
X154940000Y-99695000D02*
X156845000Y-101600000D01*
X162560000Y-107950000D02*
X166370000Y-104140000D01*
X166370000Y-104140000D02*
X166370000Y-86360000D01*
X158750000Y-110490000D02*
X158750000Y-107950000D01*
X162560000Y-107950000D02*
X170180000Y-107950000D01*
X178435000Y-120650000D02*
X175895000Y-123190000D01*
X175895000Y-123190000D02*
X175895000Y-128270000D01*
X167005000Y-120650000D02*
X167005000Y-111125000D01*
X167005000Y-111125000D02*
X170180000Y-107950000D01*
X178435000Y-120650000D02*
X167005000Y-120650000D01*
X154940000Y-109855000D02*
X154940000Y-110490000D01*
X154940000Y-110490000D02*
X158750000Y-110490000D01*
X170180000Y-107950000D02*
X158750000Y-107950000D01*
X173990000Y-107950000D02*
X170180000Y-107950000D01*
X170180000Y-88900000D02*
X168910000Y-88900000D01*
X168910000Y-88900000D02*
X166370000Y-86360000D01*
X166370000Y-81280000D02*
X166370000Y-86360000D01*
X166370000Y-86360000D02*
X163830000Y-88900000D01*
D20*
X181610000Y-113665000D02*
X180975000Y-114300000D01*
X180975000Y-114300000D02*
X180975000Y-120650000D01*
X177165000Y-99060000D02*
X181610000Y-103505000D01*
X181610000Y-103505000D02*
X181610000Y-113665000D01*
X170180000Y-113030000D02*
X174625000Y-117475000D01*
X174625000Y-117475000D02*
X177800000Y-117475000D01*
X177800000Y-117475000D02*
X180975000Y-120650000D01*
X178435000Y-128270000D02*
X180975000Y-125730000D01*
X180975000Y-125730000D02*
X180975000Y-120650000D01*
X177165000Y-110490000D02*
X177165000Y-113030000D01*
X177165000Y-113030000D02*
X176530000Y-113665000D01*
X170180000Y-110490000D02*
X173355000Y-113665000D01*
X173355000Y-113665000D02*
X176530000Y-113665000D01*
X179070000Y-113665000D02*
X173355000Y-113665000D01*
D21*
X158750000Y-105410000D02*
X162560000Y-105410000D01*
X156210000Y-106045000D02*
X156845000Y-105410000D01*
X156845000Y-105410000D02*
X162560000Y-105410000D01*
X161290000Y-88900000D02*
X164465000Y-92075000D01*
X164465000Y-103505000D02*
X162560000Y-105410000D01*
X164465000Y-92075000D02*
X164465000Y-103505000D01*
X163830000Y-81280000D02*
X163830000Y-86360000D01*
X163830000Y-86360000D02*
X161290000Y-88900000D01*
X173990000Y-105410000D02*
X173990000Y-102870000D01*
X170180000Y-105410000D02*
X173990000Y-105410000D01*
X172720000Y-88900000D02*
X168275000Y-93345000D01*
X168275000Y-103505000D02*
X170180000Y-105410000D01*
X168275000Y-93345000D02*
X168275000Y-103505000D01*
X168910000Y-81280000D02*
X168910000Y-85090000D01*
X168910000Y-85090000D02*
X172720000Y-88900000D01*
D20*
X144780000Y-106045000D02*
X147320000Y-108585000D01*
X147320000Y-108585000D02*
X147320000Y-110490000D01*
X141605000Y-104140000D02*
X142875000Y-104140000D01*
X142875000Y-104140000D02*
X144780000Y-106045000D01*
X155575000Y-115570000D02*
X158115000Y-113030000D01*
X158115000Y-113030000D02*
X162560000Y-113030000D01*
X147955000Y-95250000D02*
X145415000Y-97790000D01*
X149860000Y-115570000D02*
X151765000Y-117475000D01*
X149860000Y-107315000D02*
X149860000Y-115570000D01*
X145415000Y-102870000D02*
X149860000Y-107315000D01*
X145415000Y-97790000D02*
X145415000Y-102870000D01*
X162560000Y-110490000D02*
X164465000Y-112395000D01*
X146050000Y-117475000D02*
X144145000Y-115570000D01*
X160655000Y-117475000D02*
X151765000Y-117475000D01*
X151765000Y-117475000D02*
X146050000Y-117475000D01*
X164465000Y-113665000D02*
X160655000Y-117475000D01*
X164465000Y-112395000D02*
X164465000Y-113665000D01*
X144145000Y-115570000D02*
X141605000Y-115570000D01*
X159385000Y-95250000D02*
X160020000Y-95250000D01*
X160020000Y-95250000D02*
X162560000Y-97790000D01*
X162560000Y-97790000D02*
X162560000Y-100330000D01*
M02*
