G04 #@! TF.GenerationSoftware,KiCad,Pcbnew,(5.0.2)-1*
G04 #@! TF.CreationDate,2019-01-24T20:45:34+08:00*
G04 #@! TF.ProjectId,Inverter Trial 2,496e7665-7274-4657-9220-547269616c20,rev?*
G04 #@! TF.SameCoordinates,Original*
G04 #@! TF.FileFunction,Soldermask,Top*
G04 #@! TF.FilePolarity,Negative*
%FSLAX46Y46*%
G04 Gerber Fmt 4.6, Leading zero omitted, Abs format (unit mm)*
G04 Created by KiCad (PCBNEW (5.0.2)-1) date 01/24/19 20:45:34*
%MOMM*%
%LPD*%
G01*
G04 APERTURE LIST*
%ADD10C,0.100000*%
G04 APERTURE END LIST*
D10*
G36*
X192974083Y-64798975D02*
X192974085Y-64798976D01*
X192974086Y-64798976D01*
X193329145Y-64946046D01*
X193329146Y-64946047D01*
X193648693Y-65159561D01*
X193920439Y-65431307D01*
X193920441Y-65431310D01*
X194133954Y-65750855D01*
X194281024Y-66105914D01*
X194356000Y-66482843D01*
X194356000Y-66867157D01*
X194281024Y-67244086D01*
X194133954Y-67599145D01*
X194133953Y-67599146D01*
X193920439Y-67918693D01*
X193648693Y-68190439D01*
X193648690Y-68190441D01*
X193329145Y-68403954D01*
X192974086Y-68551024D01*
X192974085Y-68551024D01*
X192974083Y-68551025D01*
X192597158Y-68626000D01*
X192212842Y-68626000D01*
X191835917Y-68551025D01*
X191835915Y-68551024D01*
X191835914Y-68551024D01*
X191480855Y-68403954D01*
X191161310Y-68190441D01*
X191161307Y-68190439D01*
X190889561Y-67918693D01*
X190676047Y-67599146D01*
X190676046Y-67599145D01*
X190528976Y-67244086D01*
X190454000Y-66867157D01*
X190454000Y-66482843D01*
X190528976Y-66105914D01*
X190676046Y-65750855D01*
X190889559Y-65431310D01*
X190889561Y-65431307D01*
X191161307Y-65159561D01*
X191480854Y-64946047D01*
X191480855Y-64946046D01*
X191835914Y-64798976D01*
X191835915Y-64798976D01*
X191835917Y-64798975D01*
X192212842Y-64724000D01*
X192597158Y-64724000D01*
X192974083Y-64798975D01*
X192974083Y-64798975D01*
G37*
G36*
X152969083Y-64798975D02*
X152969085Y-64798976D01*
X152969086Y-64798976D01*
X153324145Y-64946046D01*
X153324146Y-64946047D01*
X153643693Y-65159561D01*
X153915439Y-65431307D01*
X153915441Y-65431310D01*
X154128954Y-65750855D01*
X154276024Y-66105914D01*
X154351000Y-66482843D01*
X154351000Y-66867157D01*
X154276024Y-67244086D01*
X154128954Y-67599145D01*
X154128953Y-67599146D01*
X153915439Y-67918693D01*
X153643693Y-68190439D01*
X153643690Y-68190441D01*
X153324145Y-68403954D01*
X152969086Y-68551024D01*
X152969085Y-68551024D01*
X152969083Y-68551025D01*
X152592158Y-68626000D01*
X152207842Y-68626000D01*
X151830917Y-68551025D01*
X151830915Y-68551024D01*
X151830914Y-68551024D01*
X151475855Y-68403954D01*
X151156310Y-68190441D01*
X151156307Y-68190439D01*
X150884561Y-67918693D01*
X150671047Y-67599146D01*
X150671046Y-67599145D01*
X150523976Y-67244086D01*
X150449000Y-66867157D01*
X150449000Y-66482843D01*
X150523976Y-66105914D01*
X150671046Y-65750855D01*
X150884559Y-65431310D01*
X150884561Y-65431307D01*
X151156307Y-65159561D01*
X151475854Y-64946047D01*
X151475855Y-64946046D01*
X151830914Y-64798976D01*
X151830915Y-64798976D01*
X151830917Y-64798975D01*
X152207842Y-64724000D01*
X152592158Y-64724000D01*
X152969083Y-64798975D01*
X152969083Y-64798975D01*
G37*
G36*
X180361000Y-63291000D02*
X179059000Y-63291000D01*
X179059000Y-62439000D01*
X180361000Y-62439000D01*
X180361000Y-63291000D01*
X180361000Y-63291000D01*
G37*
G36*
X182261000Y-63291000D02*
X180959000Y-63291000D01*
X180959000Y-62439000D01*
X182261000Y-62439000D01*
X182261000Y-63291000D01*
X182261000Y-63291000D01*
G37*
G36*
X171842145Y-60720932D02*
X172007572Y-60789454D01*
X172156457Y-60888936D01*
X172283064Y-61015543D01*
X172382546Y-61164428D01*
X172451068Y-61329855D01*
X172486000Y-61505470D01*
X172486000Y-61684530D01*
X172451068Y-61860145D01*
X172382546Y-62025572D01*
X172283064Y-62174457D01*
X172156457Y-62301064D01*
X172007572Y-62400546D01*
X171842145Y-62469068D01*
X171666530Y-62504000D01*
X171487470Y-62504000D01*
X171311855Y-62469068D01*
X171146428Y-62400546D01*
X170997543Y-62301064D01*
X170870936Y-62174457D01*
X170771454Y-62025572D01*
X170702932Y-61860145D01*
X170668000Y-61684530D01*
X170668000Y-61505470D01*
X170702932Y-61329855D01*
X170771454Y-61164428D01*
X170870936Y-61015543D01*
X170997543Y-60888936D01*
X171146428Y-60789454D01*
X171311855Y-60720932D01*
X171487470Y-60686000D01*
X171666530Y-60686000D01*
X171842145Y-60720932D01*
X171842145Y-60720932D01*
G37*
G36*
X192108065Y-58575539D02*
X192108067Y-58575540D01*
X192108068Y-58575540D01*
X192318992Y-58662907D01*
X192318993Y-58662908D01*
X192508822Y-58789748D01*
X192670252Y-58951178D01*
X192670254Y-58951181D01*
X192797093Y-59141008D01*
X192884460Y-59351932D01*
X192929000Y-59575848D01*
X192929000Y-59804152D01*
X192884460Y-60028068D01*
X192797093Y-60238992D01*
X192797092Y-60238993D01*
X192670252Y-60428822D01*
X192508822Y-60590252D01*
X192508819Y-60590254D01*
X192318992Y-60717093D01*
X192108068Y-60804460D01*
X192108067Y-60804460D01*
X192108065Y-60804461D01*
X191884153Y-60849000D01*
X191655847Y-60849000D01*
X191431935Y-60804461D01*
X191431933Y-60804460D01*
X191431932Y-60804460D01*
X191221008Y-60717093D01*
X191031181Y-60590254D01*
X191031178Y-60590252D01*
X190869748Y-60428822D01*
X190742908Y-60238993D01*
X190742907Y-60238992D01*
X190655540Y-60028068D01*
X190611000Y-59804152D01*
X190611000Y-59575848D01*
X190655540Y-59351932D01*
X190742907Y-59141008D01*
X190869746Y-58951181D01*
X190869748Y-58951178D01*
X191031178Y-58789748D01*
X191221007Y-58662908D01*
X191221008Y-58662907D01*
X191431932Y-58575540D01*
X191431933Y-58575540D01*
X191431935Y-58575539D01*
X191655847Y-58531000D01*
X191884153Y-58531000D01*
X192108065Y-58575539D01*
X192108065Y-58575539D01*
G37*
G36*
X153373065Y-58575539D02*
X153373067Y-58575540D01*
X153373068Y-58575540D01*
X153583992Y-58662907D01*
X153583993Y-58662908D01*
X153773822Y-58789748D01*
X153935252Y-58951178D01*
X153935254Y-58951181D01*
X154062093Y-59141008D01*
X154149460Y-59351932D01*
X154194000Y-59575848D01*
X154194000Y-59804152D01*
X154149460Y-60028068D01*
X154062093Y-60238992D01*
X154062092Y-60238993D01*
X153935252Y-60428822D01*
X153773822Y-60590252D01*
X153773819Y-60590254D01*
X153583992Y-60717093D01*
X153373068Y-60804460D01*
X153373067Y-60804460D01*
X153373065Y-60804461D01*
X153149153Y-60849000D01*
X152920847Y-60849000D01*
X152696935Y-60804461D01*
X152696933Y-60804460D01*
X152696932Y-60804460D01*
X152486008Y-60717093D01*
X152296181Y-60590254D01*
X152296178Y-60590252D01*
X152134748Y-60428822D01*
X152007908Y-60238993D01*
X152007907Y-60238992D01*
X151920540Y-60028068D01*
X151876000Y-59804152D01*
X151876000Y-59575848D01*
X151920540Y-59351932D01*
X152007907Y-59141008D01*
X152134746Y-58951181D01*
X152134748Y-58951178D01*
X152296178Y-58789748D01*
X152486007Y-58662908D01*
X152486008Y-58662907D01*
X152696932Y-58575540D01*
X152696933Y-58575540D01*
X152696935Y-58575539D01*
X152920847Y-58531000D01*
X153149153Y-58531000D01*
X153373065Y-58575539D01*
X153373065Y-58575539D01*
G37*
G36*
X182276000Y-60661000D02*
X179674000Y-60661000D01*
X179674000Y-56559000D01*
X182276000Y-56559000D01*
X182276000Y-60661000D01*
X182276000Y-60661000D01*
G37*
G36*
X172486000Y-59964000D02*
X170668000Y-59964000D01*
X170668000Y-58146000D01*
X172486000Y-58146000D01*
X172486000Y-59964000D01*
X172486000Y-59964000D01*
G37*
G36*
X164496000Y-58121000D02*
X161894000Y-58121000D01*
X161894000Y-54019000D01*
X164496000Y-54019000D01*
X164496000Y-58121000D01*
X164496000Y-58121000D01*
G37*
G36*
X192929000Y-55769000D02*
X190611000Y-55769000D01*
X190611000Y-53451000D01*
X192929000Y-53451000D01*
X192929000Y-55769000D01*
X192929000Y-55769000D01*
G37*
G36*
X154194000Y-55769000D02*
X151876000Y-55769000D01*
X151876000Y-53451000D01*
X154194000Y-53451000D01*
X154194000Y-55769000D01*
X154194000Y-55769000D01*
G37*
G36*
X173145000Y-55550000D02*
X172305000Y-55550000D01*
X172305000Y-54260000D01*
X173145000Y-54260000D01*
X173145000Y-55550000D01*
X173145000Y-55550000D01*
G37*
G36*
X170595000Y-55550000D02*
X169755000Y-55550000D01*
X169755000Y-54260000D01*
X170595000Y-54260000D01*
X170595000Y-55550000D01*
X170595000Y-55550000D01*
G37*
G36*
X174415000Y-55550000D02*
X173575000Y-55550000D01*
X173575000Y-54260000D01*
X174415000Y-54260000D01*
X174415000Y-55550000D01*
X174415000Y-55550000D01*
G37*
G36*
X171865000Y-55550000D02*
X171025000Y-55550000D01*
X171025000Y-54260000D01*
X171865000Y-54260000D01*
X171865000Y-55550000D01*
X171865000Y-55550000D01*
G37*
G36*
X174505000Y-50280000D02*
X174380000Y-50280000D01*
X174355614Y-50282402D01*
X174332165Y-50289515D01*
X174310554Y-50301066D01*
X174291612Y-50316612D01*
X174276066Y-50335554D01*
X174264515Y-50357165D01*
X174257402Y-50380614D01*
X174255000Y-50405000D01*
X174255000Y-53355000D01*
X169915000Y-53355000D01*
X169915000Y-50405000D01*
X169912598Y-50380614D01*
X169905485Y-50357165D01*
X169893934Y-50335554D01*
X169878388Y-50316612D01*
X169859446Y-50301066D01*
X169837835Y-50289515D01*
X169814386Y-50282402D01*
X169790000Y-50280000D01*
X169665000Y-50280000D01*
X169665000Y-48590000D01*
X174505000Y-48590000D01*
X174505000Y-50280000D01*
X174505000Y-50280000D01*
G37*
G36*
X182276000Y-52661000D02*
X179674000Y-52661000D01*
X179674000Y-48559000D01*
X182276000Y-48559000D01*
X182276000Y-52661000D01*
X182276000Y-52661000D01*
G37*
G36*
X192108065Y-48415539D02*
X192108067Y-48415540D01*
X192108068Y-48415540D01*
X192318992Y-48502907D01*
X192449335Y-48590000D01*
X192508822Y-48629748D01*
X192670252Y-48791178D01*
X192670254Y-48791181D01*
X192797093Y-48981008D01*
X192884460Y-49191932D01*
X192884461Y-49191935D01*
X192929000Y-49415847D01*
X192929000Y-49644153D01*
X192916897Y-49705000D01*
X192884460Y-49868068D01*
X192797093Y-50078992D01*
X192797092Y-50078993D01*
X192670252Y-50268822D01*
X192508822Y-50430252D01*
X192508819Y-50430254D01*
X192318992Y-50557093D01*
X192108068Y-50644460D01*
X192108067Y-50644460D01*
X192108065Y-50644461D01*
X191884153Y-50689000D01*
X191655847Y-50689000D01*
X191431935Y-50644461D01*
X191431933Y-50644460D01*
X191431932Y-50644460D01*
X191221008Y-50557093D01*
X191031181Y-50430254D01*
X191031178Y-50430252D01*
X190869748Y-50268822D01*
X190742908Y-50078993D01*
X190742907Y-50078992D01*
X190655540Y-49868068D01*
X190623104Y-49705000D01*
X190611000Y-49644153D01*
X190611000Y-49415847D01*
X190655539Y-49191935D01*
X190655540Y-49191932D01*
X190742907Y-48981008D01*
X190869746Y-48791181D01*
X190869748Y-48791178D01*
X191031178Y-48629748D01*
X191090665Y-48590000D01*
X191221008Y-48502907D01*
X191431932Y-48415540D01*
X191431933Y-48415540D01*
X191431935Y-48415539D01*
X191655847Y-48371000D01*
X191884153Y-48371000D01*
X192108065Y-48415539D01*
X192108065Y-48415539D01*
G37*
G36*
X153373065Y-48415539D02*
X153373067Y-48415540D01*
X153373068Y-48415540D01*
X153583992Y-48502907D01*
X153714335Y-48590000D01*
X153773822Y-48629748D01*
X153935252Y-48791178D01*
X153935254Y-48791181D01*
X154062093Y-48981008D01*
X154149460Y-49191932D01*
X154149461Y-49191935D01*
X154194000Y-49415847D01*
X154194000Y-49644153D01*
X154181897Y-49705000D01*
X154149460Y-49868068D01*
X154062093Y-50078992D01*
X154062092Y-50078993D01*
X153935252Y-50268822D01*
X153773822Y-50430252D01*
X153773819Y-50430254D01*
X153583992Y-50557093D01*
X153373068Y-50644460D01*
X153373067Y-50644460D01*
X153373065Y-50644461D01*
X153149153Y-50689000D01*
X152920847Y-50689000D01*
X152696935Y-50644461D01*
X152696933Y-50644460D01*
X152696932Y-50644460D01*
X152486008Y-50557093D01*
X152296181Y-50430254D01*
X152296178Y-50430252D01*
X152134748Y-50268822D01*
X152007908Y-50078993D01*
X152007907Y-50078992D01*
X151920540Y-49868068D01*
X151888104Y-49705000D01*
X151876000Y-49644153D01*
X151876000Y-49415847D01*
X151920539Y-49191935D01*
X151920540Y-49191932D01*
X152007907Y-48981008D01*
X152134746Y-48791181D01*
X152134748Y-48791178D01*
X152296178Y-48629748D01*
X152355665Y-48590000D01*
X152486008Y-48502907D01*
X152696932Y-48415540D01*
X152696933Y-48415540D01*
X152696935Y-48415539D01*
X152920847Y-48371000D01*
X153149153Y-48371000D01*
X153373065Y-48415539D01*
X153373065Y-48415539D01*
G37*
G36*
X164496000Y-50121000D02*
X161894000Y-50121000D01*
X161894000Y-46019000D01*
X164496000Y-46019000D01*
X164496000Y-50121000D01*
X164496000Y-50121000D01*
G37*
G36*
X192929000Y-45609000D02*
X190611000Y-45609000D01*
X190611000Y-43291000D01*
X192929000Y-43291000D01*
X192929000Y-45609000D01*
X192929000Y-45609000D01*
G37*
G36*
X154194000Y-45609000D02*
X151876000Y-45609000D01*
X151876000Y-43291000D01*
X154194000Y-43291000D01*
X154194000Y-45609000D01*
X154194000Y-45609000D01*
G37*
G36*
X185331000Y-43826000D02*
X180979000Y-43826000D01*
X180979000Y-38724000D01*
X185331000Y-38724000D01*
X185331000Y-43826000D01*
X185331000Y-43826000D01*
G37*
G36*
X172081000Y-43826000D02*
X167729000Y-43826000D01*
X167729000Y-38724000D01*
X172081000Y-38724000D01*
X172081000Y-43826000D01*
X172081000Y-43826000D01*
G37*
G36*
X161405000Y-38980000D02*
X161407402Y-39004386D01*
X161414515Y-39027835D01*
X161426066Y-39049446D01*
X161441612Y-39068388D01*
X161460554Y-39083934D01*
X161482165Y-39095485D01*
X161505614Y-39102598D01*
X161530000Y-39105000D01*
X164480000Y-39105000D01*
X164480000Y-43445000D01*
X161530000Y-43445000D01*
X161505614Y-43447402D01*
X161482165Y-43454515D01*
X161460554Y-43466066D01*
X161441612Y-43481612D01*
X161426066Y-43500554D01*
X161414515Y-43522165D01*
X161407402Y-43545614D01*
X161405000Y-43570000D01*
X161405000Y-43695000D01*
X159715000Y-43695000D01*
X159715000Y-38855000D01*
X161405000Y-38855000D01*
X161405000Y-38980000D01*
X161405000Y-38980000D01*
G37*
G36*
X166675000Y-43605000D02*
X165385000Y-43605000D01*
X165385000Y-42765000D01*
X166675000Y-42765000D01*
X166675000Y-43605000D01*
X166675000Y-43605000D01*
G37*
G36*
X166675000Y-42335000D02*
X165385000Y-42335000D01*
X165385000Y-41495000D01*
X166675000Y-41495000D01*
X166675000Y-42335000D01*
X166675000Y-42335000D01*
G37*
G36*
X166675000Y-41055000D02*
X165385000Y-41055000D01*
X165385000Y-40215000D01*
X166675000Y-40215000D01*
X166675000Y-41055000D01*
X166675000Y-41055000D01*
G37*
G36*
X150760145Y-38495932D02*
X150925572Y-38564454D01*
X151074457Y-38663936D01*
X151201064Y-38790543D01*
X151300546Y-38939428D01*
X151369068Y-39104855D01*
X151404000Y-39280470D01*
X151404000Y-39459530D01*
X151369068Y-39635145D01*
X151300546Y-39800572D01*
X151201064Y-39949457D01*
X151074457Y-40076064D01*
X150925572Y-40175546D01*
X150760145Y-40244068D01*
X150584530Y-40279000D01*
X150405470Y-40279000D01*
X150229855Y-40244068D01*
X150064428Y-40175546D01*
X149915543Y-40076064D01*
X149788936Y-39949457D01*
X149689454Y-39800572D01*
X149620932Y-39635145D01*
X149586000Y-39459530D01*
X149586000Y-39280470D01*
X149620932Y-39104855D01*
X149689454Y-38939428D01*
X149788936Y-38790543D01*
X149915543Y-38663936D01*
X150064428Y-38564454D01*
X150229855Y-38495932D01*
X150405470Y-38461000D01*
X150584530Y-38461000D01*
X150760145Y-38495932D01*
X150760145Y-38495932D01*
G37*
G36*
X166675000Y-39785000D02*
X165385000Y-39785000D01*
X165385000Y-38945000D01*
X166675000Y-38945000D01*
X166675000Y-39785000D01*
X166675000Y-39785000D01*
G37*
G36*
X150760145Y-35955932D02*
X150925572Y-36024454D01*
X151074457Y-36123936D01*
X151201064Y-36250543D01*
X151300546Y-36399428D01*
X151369068Y-36564855D01*
X151404000Y-36740470D01*
X151404000Y-36919530D01*
X151369068Y-37095145D01*
X151300546Y-37260572D01*
X151201064Y-37409457D01*
X151074457Y-37536064D01*
X150925572Y-37635546D01*
X150760145Y-37704068D01*
X150584530Y-37739000D01*
X150405470Y-37739000D01*
X150229855Y-37704068D01*
X150064428Y-37635546D01*
X149915543Y-37536064D01*
X149788936Y-37409457D01*
X149689454Y-37260572D01*
X149620932Y-37095145D01*
X149586000Y-36919530D01*
X149586000Y-36740470D01*
X149620932Y-36564855D01*
X149689454Y-36399428D01*
X149788936Y-36250543D01*
X149915543Y-36123936D01*
X150064428Y-36024454D01*
X150229855Y-35955932D01*
X150405470Y-35921000D01*
X150584530Y-35921000D01*
X150760145Y-35955932D01*
X150760145Y-35955932D01*
G37*
G36*
X164730145Y-35955932D02*
X164895572Y-36024454D01*
X165044457Y-36123936D01*
X165171064Y-36250543D01*
X165270546Y-36399428D01*
X165339068Y-36564855D01*
X165374000Y-36740470D01*
X165374000Y-36919530D01*
X165339068Y-37095145D01*
X165270546Y-37260572D01*
X165171064Y-37409457D01*
X165044457Y-37536064D01*
X164895572Y-37635546D01*
X164730145Y-37704068D01*
X164554530Y-37739000D01*
X164375470Y-37739000D01*
X164199855Y-37704068D01*
X164034428Y-37635546D01*
X163885543Y-37536064D01*
X163758936Y-37409457D01*
X163659454Y-37260572D01*
X163590932Y-37095145D01*
X163556000Y-36919530D01*
X163556000Y-36740470D01*
X163590932Y-36564855D01*
X163659454Y-36399428D01*
X163758936Y-36250543D01*
X163885543Y-36123936D01*
X164034428Y-36024454D01*
X164199855Y-35955932D01*
X164375470Y-35921000D01*
X164554530Y-35921000D01*
X164730145Y-35955932D01*
X164730145Y-35955932D01*
G37*
G36*
X162190145Y-35955932D02*
X162355572Y-36024454D01*
X162504457Y-36123936D01*
X162631064Y-36250543D01*
X162730546Y-36399428D01*
X162799068Y-36564855D01*
X162834000Y-36740470D01*
X162834000Y-36919530D01*
X162799068Y-37095145D01*
X162730546Y-37260572D01*
X162631064Y-37409457D01*
X162504457Y-37536064D01*
X162355572Y-37635546D01*
X162190145Y-37704068D01*
X162014530Y-37739000D01*
X161835470Y-37739000D01*
X161659855Y-37704068D01*
X161494428Y-37635546D01*
X161345543Y-37536064D01*
X161218936Y-37409457D01*
X161119454Y-37260572D01*
X161050932Y-37095145D01*
X161016000Y-36919530D01*
X161016000Y-36740470D01*
X161050932Y-36564855D01*
X161119454Y-36399428D01*
X161218936Y-36250543D01*
X161345543Y-36123936D01*
X161494428Y-36024454D01*
X161659855Y-35955932D01*
X161835470Y-35921000D01*
X162014530Y-35921000D01*
X162190145Y-35955932D01*
X162190145Y-35955932D01*
G37*
G36*
X167270145Y-35955932D02*
X167435572Y-36024454D01*
X167584457Y-36123936D01*
X167711064Y-36250543D01*
X167810546Y-36399428D01*
X167879068Y-36564855D01*
X167914000Y-36740470D01*
X167914000Y-36919530D01*
X167879068Y-37095145D01*
X167810546Y-37260572D01*
X167711064Y-37409457D01*
X167584457Y-37536064D01*
X167435572Y-37635546D01*
X167270145Y-37704068D01*
X167094530Y-37739000D01*
X166915470Y-37739000D01*
X166739855Y-37704068D01*
X166574428Y-37635546D01*
X166425543Y-37536064D01*
X166298936Y-37409457D01*
X166199454Y-37260572D01*
X166130932Y-37095145D01*
X166096000Y-36919530D01*
X166096000Y-36740470D01*
X166130932Y-36564855D01*
X166199454Y-36399428D01*
X166298936Y-36250543D01*
X166425543Y-36123936D01*
X166574428Y-36024454D01*
X166739855Y-35955932D01*
X166915470Y-35921000D01*
X167094530Y-35921000D01*
X167270145Y-35955932D01*
X167270145Y-35955932D01*
G37*
G36*
X167270145Y-33415932D02*
X167435572Y-33484454D01*
X167584457Y-33583936D01*
X167711064Y-33710543D01*
X167810546Y-33859428D01*
X167879068Y-34024855D01*
X167914000Y-34200470D01*
X167914000Y-34379530D01*
X167879068Y-34555145D01*
X167810546Y-34720572D01*
X167711064Y-34869457D01*
X167584457Y-34996064D01*
X167435572Y-35095546D01*
X167270145Y-35164068D01*
X167094530Y-35199000D01*
X166915470Y-35199000D01*
X166739855Y-35164068D01*
X166574428Y-35095546D01*
X166425543Y-34996064D01*
X166298936Y-34869457D01*
X166199454Y-34720572D01*
X166130932Y-34555145D01*
X166096000Y-34379530D01*
X166096000Y-34200470D01*
X166130932Y-34024855D01*
X166199454Y-33859428D01*
X166298936Y-33710543D01*
X166425543Y-33583936D01*
X166574428Y-33484454D01*
X166739855Y-33415932D01*
X166915470Y-33381000D01*
X167094530Y-33381000D01*
X167270145Y-33415932D01*
X167270145Y-33415932D01*
G37*
G36*
X157110145Y-33415932D02*
X157275572Y-33484454D01*
X157424457Y-33583936D01*
X157551064Y-33710543D01*
X157650546Y-33859428D01*
X157719068Y-34024855D01*
X157754000Y-34200470D01*
X157754000Y-34379530D01*
X157719068Y-34555145D01*
X157650546Y-34720572D01*
X157551064Y-34869457D01*
X157424457Y-34996064D01*
X157275572Y-35095546D01*
X157110145Y-35164068D01*
X156934530Y-35199000D01*
X156755470Y-35199000D01*
X156579855Y-35164068D01*
X156414428Y-35095546D01*
X156265543Y-34996064D01*
X156138936Y-34869457D01*
X156039454Y-34720572D01*
X155970932Y-34555145D01*
X155936000Y-34379530D01*
X155936000Y-34200470D01*
X155970932Y-34024855D01*
X156039454Y-33859428D01*
X156138936Y-33710543D01*
X156265543Y-33583936D01*
X156414428Y-33484454D01*
X156579855Y-33415932D01*
X156755470Y-33381000D01*
X156934530Y-33381000D01*
X157110145Y-33415932D01*
X157110145Y-33415932D01*
G37*
G36*
X150760145Y-33415932D02*
X150925572Y-33484454D01*
X151074457Y-33583936D01*
X151201064Y-33710543D01*
X151300546Y-33859428D01*
X151369068Y-34024855D01*
X151404000Y-34200470D01*
X151404000Y-34379530D01*
X151369068Y-34555145D01*
X151300546Y-34720572D01*
X151201064Y-34869457D01*
X151074457Y-34996064D01*
X150925572Y-35095546D01*
X150760145Y-35164068D01*
X150584530Y-35199000D01*
X150405470Y-35199000D01*
X150229855Y-35164068D01*
X150064428Y-35095546D01*
X149915543Y-34996064D01*
X149788936Y-34869457D01*
X149689454Y-34720572D01*
X149620932Y-34555145D01*
X149586000Y-34379530D01*
X149586000Y-34200470D01*
X149620932Y-34024855D01*
X149689454Y-33859428D01*
X149788936Y-33710543D01*
X149915543Y-33583936D01*
X150064428Y-33484454D01*
X150229855Y-33415932D01*
X150405470Y-33381000D01*
X150584530Y-33381000D01*
X150760145Y-33415932D01*
X150760145Y-33415932D01*
G37*
G36*
X152969083Y-28603975D02*
X152969085Y-28603976D01*
X152969086Y-28603976D01*
X153324145Y-28751046D01*
X153324146Y-28751047D01*
X153643693Y-28964561D01*
X153915439Y-29236307D01*
X153915441Y-29236310D01*
X154128954Y-29555855D01*
X154276024Y-29910914D01*
X154351000Y-30287843D01*
X154351000Y-30672157D01*
X154276024Y-31049086D01*
X154128954Y-31404145D01*
X154128953Y-31404146D01*
X153915439Y-31723693D01*
X153643693Y-31995439D01*
X153643690Y-31995441D01*
X153324145Y-32208954D01*
X152969086Y-32356024D01*
X152969085Y-32356024D01*
X152969083Y-32356025D01*
X152592158Y-32431000D01*
X152207842Y-32431000D01*
X151830917Y-32356025D01*
X151830915Y-32356024D01*
X151830914Y-32356024D01*
X151475855Y-32208954D01*
X151156310Y-31995441D01*
X151156307Y-31995439D01*
X150884561Y-31723693D01*
X150671047Y-31404146D01*
X150671046Y-31404145D01*
X150523976Y-31049086D01*
X150449000Y-30672157D01*
X150449000Y-30287843D01*
X150523976Y-29910914D01*
X150671046Y-29555855D01*
X150884559Y-29236310D01*
X150884561Y-29236307D01*
X151156307Y-28964561D01*
X151475854Y-28751047D01*
X151475855Y-28751046D01*
X151830914Y-28603976D01*
X151830915Y-28603976D01*
X151830917Y-28603975D01*
X152207842Y-28529000D01*
X152592158Y-28529000D01*
X152969083Y-28603975D01*
X152969083Y-28603975D01*
G37*
G36*
X192974083Y-28603975D02*
X192974085Y-28603976D01*
X192974086Y-28603976D01*
X193329145Y-28751046D01*
X193329146Y-28751047D01*
X193648693Y-28964561D01*
X193920439Y-29236307D01*
X193920441Y-29236310D01*
X194133954Y-29555855D01*
X194281024Y-29910914D01*
X194356000Y-30287843D01*
X194356000Y-30672157D01*
X194281024Y-31049086D01*
X194133954Y-31404145D01*
X194133953Y-31404146D01*
X193920439Y-31723693D01*
X193648693Y-31995439D01*
X193648690Y-31995441D01*
X193329145Y-32208954D01*
X192974086Y-32356024D01*
X192974085Y-32356024D01*
X192974083Y-32356025D01*
X192597158Y-32431000D01*
X192212842Y-32431000D01*
X191835917Y-32356025D01*
X191835915Y-32356024D01*
X191835914Y-32356024D01*
X191480855Y-32208954D01*
X191161310Y-31995441D01*
X191161307Y-31995439D01*
X190889561Y-31723693D01*
X190676047Y-31404146D01*
X190676046Y-31404145D01*
X190528976Y-31049086D01*
X190454000Y-30672157D01*
X190454000Y-30287843D01*
X190528976Y-29910914D01*
X190676046Y-29555855D01*
X190889559Y-29236310D01*
X190889561Y-29236307D01*
X191161307Y-28964561D01*
X191480854Y-28751047D01*
X191480855Y-28751046D01*
X191835914Y-28603976D01*
X191835915Y-28603976D01*
X191835917Y-28603975D01*
X192212842Y-28529000D01*
X192597158Y-28529000D01*
X192974083Y-28603975D01*
X192974083Y-28603975D01*
G37*
M02*
