M48
;DRILL file {KiCad (5.0.2)-1} date 01/24/19 20:45:36
;FORMAT={-:-/ absolute / metric / decimal}
FMAT,2
METRIC,TZ
T1C0.300
T2C0.700
T3C1.100
T4C3.400
%
G90
G05
T1
X164.91Y-39.37
X168.275Y-50.165
X168.275Y-54.356
T2
X157.48Y-41.275
X157.48Y-43.815
X158.115Y-59.69
X158.75Y-40.005
X158.75Y-42.545
X158.75Y-45.085
X160.02Y-59.69
X161.29Y-45.085
X161.925Y-59.69
X163.83Y-45.085
X163.83Y-59.69
X165.735Y-59.69
X178.435Y-60.96
X179.705Y-61.595
X181.61Y-61.595
X183.515Y-60.96
X184.785Y-45.085
X184.785Y-47.625
X186.055Y-40.005
X186.055Y-42.545
X186.055Y-46.355
X187.325Y-40.005
X188.595Y-40.005
X189.865Y-40.005
X191.135Y-40.005
X171.577Y-59.055
X171.577Y-61.595
X156.845Y-34.29
X167.005Y-34.29
X150.495Y-34.29
X150.495Y-36.83
X150.495Y-39.37
X161.925Y-36.83
X164.465Y-36.83
X167.005Y-36.83
T3
X153.035Y-54.61
X153.035Y-59.69
X153.035Y-44.45
X153.035Y-49.53
X191.77Y-44.45
X191.77Y-49.53
X191.77Y-54.61
X191.77Y-59.69
T4
X192.405Y-30.48
X192.405Y-66.675
X152.4Y-66.675
X152.4Y-30.48
T0
M30
