G04 #@! TF.GenerationSoftware,KiCad,Pcbnew,(5.0.2)-1*
G04 #@! TF.CreationDate,2019-01-24T20:45:34+08:00*
G04 #@! TF.ProjectId,Inverter Trial 2,496e7665-7274-4657-9220-547269616c20,rev?*
G04 #@! TF.SameCoordinates,Original*
G04 #@! TF.FileFunction,Copper,L2,Bot*
G04 #@! TF.FilePolarity,Positive*
%FSLAX46Y46*%
G04 Gerber Fmt 4.6, Leading zero omitted, Abs format (unit mm)*
G04 Created by KiCad (PCBNEW (5.0.2)-1) date 01/24/19 20:45:34*
%MOMM*%
%LPD*%
G01*
G04 APERTURE LIST*
G04 #@! TA.AperFunction,ComponentPad*
%ADD10C,3.800000*%
G04 #@! TD*
G04 #@! TA.AperFunction,SMDPad,CuDef*
%ADD11R,0.730000X0.300000*%
G04 #@! TD*
G04 #@! TA.AperFunction,SMDPad,CuDef*
%ADD12R,0.300000X0.730000*%
G04 #@! TD*
G04 #@! TA.AperFunction,SMDPad,CuDef*
%ADD13R,2.500000X4.000000*%
G04 #@! TD*
G04 #@! TA.AperFunction,SMDPad,CuDef*
%ADD14R,1.200000X0.750000*%
G04 #@! TD*
G04 #@! TA.AperFunction,ComponentPad*
%ADD15C,1.716000*%
G04 #@! TD*
G04 #@! TA.AperFunction,ComponentPad*
%ADD16R,1.716000X1.716000*%
G04 #@! TD*
G04 #@! TA.AperFunction,ComponentPad*
%ADD17C,2.216000*%
G04 #@! TD*
G04 #@! TA.AperFunction,ComponentPad*
%ADD18R,2.216000X2.216000*%
G04 #@! TD*
G04 #@! TA.AperFunction,SMDPad,CuDef*
%ADD19R,0.750000X1.200000*%
G04 #@! TD*
G04 #@! TA.AperFunction,ViaPad*
%ADD20C,0.900000*%
G04 #@! TD*
G04 #@! TA.AperFunction,ViaPad*
%ADD21C,0.600000*%
G04 #@! TD*
G04 #@! TA.AperFunction,Conductor*
%ADD22C,0.203200*%
G04 #@! TD*
G04 #@! TA.AperFunction,Conductor*
%ADD23C,0.800000*%
G04 #@! TD*
G04 #@! TA.AperFunction,Conductor*
%ADD24C,0.250000*%
G04 #@! TD*
G04 #@! TA.AperFunction,Conductor*
%ADD25C,0.254000*%
G04 #@! TD*
G04 APERTURE END LIST*
D10*
G04 #@! TO.P,REF\002A\002A,1*
G04 #@! TO.N,N/C*
X192405000Y-30480000D03*
G04 #@! TD*
G04 #@! TO.P,REF\002A\002A,1*
G04 #@! TO.N,N/C*
X192405000Y-66675000D03*
G04 #@! TD*
G04 #@! TO.P,REF\002A\002A,1*
G04 #@! TO.N,N/C*
X152400000Y-66675000D03*
G04 #@! TD*
D11*
G04 #@! TO.P,U1,20*
G04 #@! TO.N,Net-(R4-Pad2)*
X170130000Y-50435000D03*
G04 #@! TO.P,U1,19*
G04 #@! TO.N,Net-(C8-Pad2)*
X170130000Y-50935000D03*
G04 #@! TO.P,U1,18*
G04 #@! TO.N,Net-(C4-Pad1)*
X170130000Y-51435000D03*
G04 #@! TO.P,U1,17*
G04 #@! TO.N,Net-(R5-Pad2)*
X170130000Y-51935000D03*
G04 #@! TO.P,U1,16*
G04 #@! TO.N,GND*
X170130000Y-52435000D03*
D12*
G04 #@! TO.P,U1,15*
X171095000Y-53400000D03*
G04 #@! TO.P,U1,14*
G04 #@! TO.N,Net-(C7-Pad1)*
X171595000Y-53400000D03*
G04 #@! TO.P,U1,13*
G04 #@! TO.N,Net-(C4-Pad1)*
X172095000Y-53400000D03*
G04 #@! TO.P,U1,12*
G04 #@! TO.N,Net-(C12-Pad1)*
X172595000Y-53400000D03*
G04 #@! TO.P,U1,11*
X173095000Y-53400000D03*
D11*
G04 #@! TO.P,U1,10*
X174060000Y-52435000D03*
G04 #@! TO.P,U1,9*
X174060000Y-51935000D03*
G04 #@! TO.P,U1,8*
G04 #@! TO.N,Net-(R2-Pad1)*
X174060000Y-51435000D03*
G04 #@! TO.P,U1,7*
G04 #@! TO.N,Net-(C1-Pad1)*
X174060000Y-50935000D03*
G04 #@! TO.P,U1,6*
G04 #@! TO.N,/Vfb*
X174060000Y-50435000D03*
D12*
G04 #@! TO.P,U1,5*
G04 #@! TO.N,Net-(R2-Pad2)*
X173095000Y-49470000D03*
G04 #@! TO.P,U1,4*
G04 #@! TO.N,Net-(C5-Pad1)*
X172595000Y-49470000D03*
G04 #@! TO.P,U1,3*
G04 #@! TO.N,Net-(C1-Pad1)*
X172095000Y-49470000D03*
G04 #@! TO.P,U1,2*
X171595000Y-49470000D03*
G04 #@! TO.P,U1,1*
G04 #@! TO.N,Net-(C8-Pad1)*
X171095000Y-49470000D03*
G04 #@! TD*
D13*
G04 #@! TO.P,C2,1*
G04 #@! TO.N,Net-(C1-Pad1)*
X163195000Y-48070000D03*
G04 #@! TO.P,C2,2*
G04 #@! TO.N,GND*
X163195000Y-56070000D03*
G04 #@! TD*
D14*
G04 #@! TO.P,C3,2*
G04 #@! TO.N,GND*
X178115000Y-45085000D03*
G04 #@! TO.P,C3,1*
G04 #@! TO.N,Net-(C1-Pad1)*
X176215000Y-45085000D03*
G04 #@! TD*
G04 #@! TO.P,C4,1*
G04 #@! TO.N,Net-(C4-Pad1)*
X172532000Y-54610000D03*
G04 #@! TO.P,C4,2*
G04 #@! TO.N,GND*
X174432000Y-54610000D03*
G04 #@! TD*
D15*
G04 #@! TO.P,C5,2*
G04 #@! TO.N,GND*
X161925000Y-36830000D03*
X164465000Y-36830000D03*
G04 #@! TO.P,C5,1*
G04 #@! TO.N,Net-(C5-Pad1)*
X167005000Y-36830000D03*
G04 #@! TD*
G04 #@! TO.P,C6,1*
G04 #@! TO.N,Net-(C6-Pad1)*
X150495000Y-34290000D03*
G04 #@! TO.P,C6,2*
G04 #@! TO.N,GND*
X150495000Y-36830000D03*
X150495000Y-39370000D03*
G04 #@! TD*
D14*
G04 #@! TO.P,C7,2*
G04 #@! TO.N,GND*
X174432000Y-56007000D03*
G04 #@! TO.P,C7,1*
G04 #@! TO.N,Net-(C7-Pad1)*
X172532000Y-56007000D03*
G04 #@! TD*
G04 #@! TO.P,C8,1*
G04 #@! TO.N,Net-(C8-Pad1)*
X171064000Y-48006000D03*
G04 #@! TO.P,C8,2*
G04 #@! TO.N,Net-(C8-Pad2)*
X169164000Y-48006000D03*
G04 #@! TD*
D13*
G04 #@! TO.P,C10,1*
G04 #@! TO.N,Net-(C10-Pad1)*
X180975000Y-50610000D03*
G04 #@! TO.P,C10,2*
G04 #@! TO.N,GND*
X180975000Y-58610000D03*
G04 #@! TD*
D14*
G04 #@! TO.P,C11,1*
G04 #@! TO.N,Net-(C10-Pad1)*
X189291000Y-51308000D03*
G04 #@! TO.P,C11,2*
G04 #@! TO.N,GND*
X187391000Y-51308000D03*
G04 #@! TD*
D15*
G04 #@! TO.P,C12,2*
G04 #@! TO.N,GND*
X171577000Y-61595000D03*
D16*
G04 #@! TO.P,C12,1*
G04 #@! TO.N,Net-(C12-Pad1)*
X171577000Y-59055000D03*
G04 #@! TD*
D17*
G04 #@! TO.P,J1,2*
G04 #@! TO.N,Net-(C1-Pad1)*
X153035000Y-49530000D03*
D18*
G04 #@! TO.P,J1,1*
X153035000Y-44450000D03*
G04 #@! TD*
G04 #@! TO.P,J2,1*
G04 #@! TO.N,GND*
X153035000Y-54610000D03*
D17*
G04 #@! TO.P,J2,2*
X153035000Y-59690000D03*
G04 #@! TD*
D18*
G04 #@! TO.P,J3,1*
G04 #@! TO.N,Net-(C10-Pad1)*
X191770000Y-44450000D03*
D17*
G04 #@! TO.P,J3,2*
X191770000Y-49530000D03*
G04 #@! TD*
G04 #@! TO.P,J4,2*
G04 #@! TO.N,Net-(J4-Pad1)*
X191770000Y-59690000D03*
D18*
G04 #@! TO.P,J4,1*
X191770000Y-54610000D03*
G04 #@! TD*
D15*
G04 #@! TO.P,R1,2*
G04 #@! TO.N,Net-(C5-Pad1)*
X167005000Y-34290000D03*
G04 #@! TO.P,R1,1*
G04 #@! TO.N,Net-(C6-Pad1)*
X156845000Y-34290000D03*
G04 #@! TD*
D14*
G04 #@! TO.P,R2,1*
G04 #@! TO.N,Net-(R2-Pad1)*
X175448000Y-46990000D03*
G04 #@! TO.P,R2,2*
G04 #@! TO.N,Net-(R2-Pad2)*
X173548000Y-46990000D03*
G04 #@! TD*
D19*
G04 #@! TO.P,R3,1*
G04 #@! TO.N,GND*
X174625000Y-59370000D03*
G04 #@! TO.P,R3,2*
G04 #@! TO.N,Net-(R2-Pad1)*
X174625000Y-57470000D03*
G04 #@! TD*
G04 #@! TO.P,R4,1*
G04 #@! TO.N,Net-(Q1-Pad4)*
X170180000Y-44704000D03*
G04 #@! TO.P,R4,2*
G04 #@! TO.N,Net-(R4-Pad2)*
X170180000Y-46604000D03*
G04 #@! TD*
G04 #@! TO.P,R5,2*
G04 #@! TO.N,Net-(R5-Pad2)*
X169291000Y-54422000D03*
G04 #@! TO.P,R5,1*
G04 #@! TO.N,Net-(Q2-Pad4)*
X169291000Y-56322000D03*
G04 #@! TD*
D14*
G04 #@! TO.P,R6,2*
G04 #@! TO.N,Net-(C10-Pad1)*
X179004000Y-46990000D03*
G04 #@! TO.P,R6,1*
G04 #@! TO.N,/Vfb*
X177104000Y-46990000D03*
G04 #@! TD*
G04 #@! TO.P,R7,2*
G04 #@! TO.N,/Vfb*
X174564000Y-48387000D03*
G04 #@! TO.P,R7,1*
G04 #@! TO.N,GND*
X176464000Y-48387000D03*
G04 #@! TD*
G04 #@! TO.P,R9,1*
G04 #@! TO.N,GND*
X187330000Y-53975000D03*
G04 #@! TO.P,R9,2*
G04 #@! TO.N,Net-(J4-Pad1)*
X189230000Y-53975000D03*
G04 #@! TD*
G04 #@! TO.P,R10,2*
G04 #@! TO.N,Net-(J4-Pad1)*
X189230000Y-55880000D03*
G04 #@! TO.P,R10,1*
G04 #@! TO.N,GND*
X187330000Y-55880000D03*
G04 #@! TD*
G04 #@! TO.P,R11,1*
G04 #@! TO.N,GND*
X187330000Y-57785000D03*
G04 #@! TO.P,R11,2*
G04 #@! TO.N,Net-(J4-Pad1)*
X189230000Y-57785000D03*
G04 #@! TD*
G04 #@! TO.P,R12,2*
G04 #@! TO.N,Net-(J4-Pad1)*
X189230000Y-59690000D03*
G04 #@! TO.P,R12,1*
G04 #@! TO.N,GND*
X187330000Y-59690000D03*
G04 #@! TD*
D10*
G04 #@! TO.P,REF\002A\002A,1*
G04 #@! TO.N,N/C*
X152400000Y-30480000D03*
G04 #@! TD*
D20*
G04 #@! TO.N,GND*
X158115000Y-59690000D03*
X160020000Y-59690000D03*
X161925000Y-59690000D03*
X163830000Y-59690000D03*
X165735000Y-59690000D03*
X183515000Y-60960000D03*
X181610000Y-61595000D03*
X179705000Y-61595000D03*
X178435000Y-60960000D03*
G04 #@! TO.N,Net-(C1-Pad1)*
X158750000Y-40005000D03*
X158750000Y-42545000D03*
X158750000Y-45085000D03*
X161290000Y-45085000D03*
X163830000Y-45085000D03*
X157480000Y-43815000D03*
X157480000Y-41275000D03*
D21*
G04 #@! TO.N,Net-(C8-Pad2)*
X168275000Y-50165000D03*
D20*
G04 #@! TO.N,Net-(C10-Pad1)*
X186055000Y-40005000D03*
X187325000Y-40005000D03*
X188595000Y-40005000D03*
X189865000Y-40005000D03*
X191135000Y-40005000D03*
X184785000Y-45085000D03*
X186055000Y-46355000D03*
X186055000Y-42545000D03*
X184785000Y-47625000D03*
D21*
G04 #@! TO.N,Net-(Q1-Pad4)*
X164910002Y-39370000D03*
G04 #@! TO.N,Net-(Q2-Pad4)*
X168275000Y-54356000D03*
G04 #@! TD*
D22*
G04 #@! TO.N,GND*
X174207000Y-56007000D02*
X174432000Y-56007000D01*
X187391000Y-53914000D02*
X187330000Y-53975000D01*
D23*
X187391000Y-51308000D02*
X187391000Y-53914000D01*
D24*
G04 #@! TO.N,Net-(C1-Pad1)*
X171595000Y-49470000D02*
X172095000Y-49470000D01*
X174060000Y-50935000D02*
X172728000Y-50935000D01*
X172095000Y-50302000D02*
X172095000Y-49470000D01*
X172728000Y-50935000D02*
X172095000Y-50302000D01*
D22*
X172095000Y-48901800D02*
X172095000Y-49470000D01*
X172095000Y-46925118D02*
X172095000Y-48901800D01*
X163195000Y-47320000D02*
X163195000Y-48070000D01*
X164812601Y-45702399D02*
X163195000Y-47320000D01*
X171051399Y-45702399D02*
X164812601Y-45702399D01*
X171069000Y-45720000D02*
X171051399Y-45702399D01*
X172339000Y-45466000D02*
X172085000Y-45720000D01*
X172085000Y-45720000D02*
X171069000Y-45720000D01*
X172095000Y-45710000D02*
X172339000Y-45466000D01*
X172095000Y-46925118D02*
X172095000Y-45710000D01*
X176215000Y-45085000D02*
X172720000Y-45085000D01*
X172720000Y-45085000D02*
X172339000Y-45466000D01*
D24*
G04 #@! TO.N,Net-(C4-Pad1)*
X172095000Y-52785000D02*
X172095000Y-53400000D01*
X170745000Y-51435000D02*
X172095000Y-52785000D01*
X170130000Y-51435000D02*
X170745000Y-51435000D01*
X172095000Y-54173000D02*
X172532000Y-54610000D01*
X172095000Y-53400000D02*
X172095000Y-54173000D01*
D22*
G04 #@! TO.N,Net-(C5-Pad1)*
X167005000Y-34290000D02*
X167005000Y-36830000D01*
X177056281Y-45761601D02*
X177165000Y-45652882D01*
X173258517Y-45761601D02*
X177056281Y-45761601D01*
X172595000Y-49470000D02*
X172595000Y-46425118D01*
X172595000Y-46425118D02*
X173258517Y-45761601D01*
X168218395Y-36830000D02*
X167005000Y-36830000D01*
X169477882Y-36830000D02*
X168218395Y-36830000D01*
X177165000Y-44517118D02*
X169477882Y-36830000D01*
X177165000Y-45652882D02*
X177165000Y-44517118D01*
G04 #@! TO.N,Net-(C6-Pad1)*
X150495000Y-34290000D02*
X156845000Y-34290000D01*
D24*
G04 #@! TO.N,Net-(C7-Pad1)*
X172307000Y-56007000D02*
X172532000Y-56007000D01*
X171595000Y-55295000D02*
X172307000Y-56007000D01*
X171595000Y-53400000D02*
X171595000Y-55295000D01*
D22*
G04 #@! TO.N,Net-(C8-Pad1)*
X171095000Y-48037000D02*
X171064000Y-48006000D01*
X171095000Y-49470000D02*
X171095000Y-48037000D01*
G04 #@! TO.N,Net-(C8-Pad2)*
X169164000Y-48584200D02*
X169164000Y-48006000D01*
X169164000Y-50537200D02*
X169164000Y-48584200D01*
X169561800Y-50935000D02*
X169164000Y-50537200D01*
X170130000Y-50935000D02*
X169561800Y-50935000D01*
X169164000Y-48006000D02*
X169164000Y-49276000D01*
X169164000Y-49276000D02*
X168275000Y-50165000D01*
G04 #@! TO.N,Net-(C10-Pad1)*
X190662001Y-50637999D02*
X191770000Y-49530000D01*
X189992000Y-51308000D02*
X190662001Y-50637999D01*
X189291000Y-51308000D02*
X189992000Y-51308000D01*
X182055000Y-49530000D02*
X180975000Y-50610000D01*
D24*
G04 #@! TO.N,Net-(C12-Pad1)*
X172595000Y-53400000D02*
X173095000Y-53400000D01*
X174060000Y-52835000D02*
X174060000Y-52435000D01*
X173095000Y-53400000D02*
X173495000Y-53400000D01*
X173495000Y-53400000D02*
X174060000Y-52835000D01*
X174060000Y-51935000D02*
X174060000Y-52435000D01*
D22*
X172638200Y-59055000D02*
X171577000Y-59055000D01*
X173372601Y-58320599D02*
X172638200Y-59055000D01*
X173372601Y-56787719D02*
X173372601Y-58320599D01*
X173495000Y-56665320D02*
X173372601Y-56787719D01*
X173495000Y-53400000D02*
X173495000Y-56665320D01*
D24*
G04 #@! TO.N,Net-(Q1-Pad4)*
X165009002Y-39370000D02*
X164910002Y-39370000D01*
X170138999Y-44499997D02*
X165009002Y-39370000D01*
D22*
X165071000Y-39370000D02*
X164910002Y-39370000D01*
X170180000Y-44479000D02*
X165071000Y-39370000D01*
X170180000Y-44704000D02*
X170180000Y-44479000D01*
G04 #@! TO.N,Net-(Q2-Pad4)*
X169291000Y-56322000D02*
X169291000Y-56097000D01*
X169098000Y-56322000D02*
X169291000Y-56322000D01*
X168275000Y-54356000D02*
X168275000Y-55499000D01*
X168275000Y-55499000D02*
X169098000Y-56322000D01*
G04 #@! TO.N,Net-(R2-Pad1)*
X174596000Y-57404000D02*
X174371000Y-57404000D01*
X175509000Y-56491000D02*
X174596000Y-57404000D01*
X175255000Y-51435000D02*
X175509000Y-51181000D01*
X174060000Y-51435000D02*
X175255000Y-51435000D01*
X175509000Y-51181000D02*
X175509000Y-56491000D01*
X175514000Y-47056000D02*
X175448000Y-46990000D01*
X175514000Y-47625000D02*
X175514000Y-47056000D01*
X175509000Y-51181000D02*
X175509000Y-47630000D01*
X175509000Y-47630000D02*
X175514000Y-47625000D01*
G04 #@! TO.N,Net-(R2-Pad2)*
X173095000Y-47443000D02*
X173548000Y-46990000D01*
X173095000Y-49470000D02*
X173095000Y-47443000D01*
G04 #@! TO.N,Net-(R4-Pad2)*
X170130000Y-46654000D02*
X170180000Y-46604000D01*
X170130000Y-50435000D02*
X170130000Y-46654000D01*
G04 #@! TO.N,Net-(R5-Pad2)*
X169561800Y-51935000D02*
X170130000Y-51935000D01*
X169291000Y-52205800D02*
X169561800Y-51935000D01*
X169291000Y-54422000D02*
X169291000Y-52205800D01*
G04 #@! TO.N,/Vfb*
X174060000Y-48891000D02*
X174564000Y-48387000D01*
X174060000Y-50435000D02*
X174060000Y-48891000D01*
X176202399Y-46313399D02*
X174606719Y-46313399D01*
X176879000Y-46990000D02*
X176202399Y-46313399D01*
X174606719Y-46313399D02*
X174449601Y-46470517D01*
X177104000Y-46990000D02*
X176879000Y-46990000D01*
X174449601Y-47498000D02*
X174449601Y-47694401D01*
X174449601Y-46470517D02*
X174449601Y-47498000D01*
X174449601Y-48272601D02*
X174564000Y-48387000D01*
X174449601Y-47498000D02*
X174449601Y-48272601D01*
G04 #@! TD*
D25*
G04 #@! TO.N,Net-(J4-Pad1)*
G36*
X192913000Y-60833000D02*
X188722000Y-60833000D01*
X188722000Y-53467000D01*
X192913000Y-53467000D01*
X192913000Y-60833000D01*
X192913000Y-60833000D01*
G37*
X192913000Y-60833000D02*
X188722000Y-60833000D01*
X188722000Y-53467000D01*
X192913000Y-53467000D01*
X192913000Y-60833000D01*
G04 #@! TO.N,GND*
G36*
X166333751Y-33285405D02*
X166000405Y-33618751D01*
X165820000Y-34054289D01*
X165820000Y-34525711D01*
X166000405Y-34961249D01*
X166333751Y-35294595D01*
X166576400Y-35395103D01*
X166576401Y-35724897D01*
X166333751Y-35825405D01*
X166000405Y-36158751D01*
X165820000Y-36594289D01*
X165820000Y-37065711D01*
X166000405Y-37501249D01*
X166333751Y-37834595D01*
X166769289Y-38015000D01*
X167240711Y-38015000D01*
X167676249Y-37834595D01*
X168009595Y-37501249D01*
X168110103Y-37258600D01*
X169300352Y-37258600D01*
X176418344Y-44376594D01*
X175615000Y-44376594D01*
X175487411Y-44401973D01*
X175379246Y-44474246D01*
X175306973Y-44582411D01*
X175292256Y-44656400D01*
X172762204Y-44656400D01*
X172719999Y-44648005D01*
X172677794Y-44656400D01*
X172677790Y-44656400D01*
X172552769Y-44681268D01*
X172410997Y-44775997D01*
X172387086Y-44811782D01*
X172065783Y-45133087D01*
X172065781Y-45133088D01*
X171907470Y-45291400D01*
X171182096Y-45291400D01*
X171093609Y-45273799D01*
X171093608Y-45273799D01*
X171051399Y-45265403D01*
X171009190Y-45273799D01*
X170888406Y-45273799D01*
X170888406Y-44104000D01*
X170863027Y-43976411D01*
X170790754Y-43868246D01*
X170682589Y-43795973D01*
X170555000Y-43770594D01*
X170077726Y-43770594D01*
X165526105Y-39218975D01*
X165441547Y-39014833D01*
X165265169Y-38838455D01*
X165034720Y-38743000D01*
X164792000Y-38743000D01*
X164792000Y-38735000D01*
X164767109Y-38609863D01*
X164696224Y-38503776D01*
X164590137Y-38432891D01*
X164465000Y-38408000D01*
X151765000Y-38408000D01*
X151639863Y-38432891D01*
X151533776Y-38503776D01*
X151462891Y-38609863D01*
X151438000Y-38735000D01*
X151438000Y-50800000D01*
X151462891Y-50925137D01*
X151533776Y-51031224D01*
X151639863Y-51102109D01*
X151765000Y-51127000D01*
X164465000Y-51127000D01*
X164590137Y-51102109D01*
X164696224Y-51031224D01*
X164767109Y-50925137D01*
X164792000Y-50800000D01*
X164792000Y-46329132D01*
X164990133Y-46130999D01*
X169471594Y-46130999D01*
X169471594Y-47204000D01*
X169490211Y-47297594D01*
X168564000Y-47297594D01*
X168436411Y-47322973D01*
X168328246Y-47395246D01*
X168255973Y-47503411D01*
X168230594Y-47631000D01*
X168230594Y-48381000D01*
X168255973Y-48508589D01*
X168328246Y-48616754D01*
X168436411Y-48689027D01*
X168564000Y-48714406D01*
X168735401Y-48714406D01*
X168735401Y-49098468D01*
X168295869Y-49538000D01*
X168150282Y-49538000D01*
X167919833Y-49633455D01*
X167743455Y-49809833D01*
X167648000Y-50040282D01*
X167648000Y-50289718D01*
X167743455Y-50520167D01*
X167919833Y-50696545D01*
X168150282Y-50792000D01*
X168399718Y-50792000D01*
X168630167Y-50696545D01*
X168737375Y-50589337D01*
X168760268Y-50704430D01*
X168854997Y-50846203D01*
X168890787Y-50870117D01*
X169228886Y-51208218D01*
X169252797Y-51244003D01*
X169394569Y-51338732D01*
X169431594Y-51346097D01*
X169431594Y-51523903D01*
X169394569Y-51531268D01*
X169252797Y-51625997D01*
X169228884Y-51661785D01*
X169017785Y-51872885D01*
X168981998Y-51896797D01*
X168919036Y-51991027D01*
X168887269Y-52038569D01*
X168854004Y-52205800D01*
X168862401Y-52248014D01*
X168862400Y-53499256D01*
X168788411Y-53513973D01*
X168680246Y-53586246D01*
X168607973Y-53694411D01*
X168585764Y-53806063D01*
X168399718Y-53729000D01*
X168150282Y-53729000D01*
X167919833Y-53824455D01*
X167743455Y-54000833D01*
X167648000Y-54231282D01*
X167648000Y-54480718D01*
X167743455Y-54711167D01*
X167846400Y-54814112D01*
X167846401Y-55456787D01*
X167838004Y-55499000D01*
X167856983Y-55594411D01*
X167871269Y-55666231D01*
X167965998Y-55808003D01*
X168001785Y-55831915D01*
X168582594Y-56412725D01*
X168582594Y-56922000D01*
X168607973Y-57049589D01*
X168680246Y-57157754D01*
X168788411Y-57230027D01*
X168916000Y-57255406D01*
X169666000Y-57255406D01*
X169793589Y-57230027D01*
X169901754Y-57157754D01*
X169974027Y-57049589D01*
X169999406Y-56922000D01*
X169999406Y-55722000D01*
X169974027Y-55594411D01*
X169901754Y-55486246D01*
X169793589Y-55413973D01*
X169666000Y-55388594D01*
X168916000Y-55388594D01*
X168794827Y-55412697D01*
X168703600Y-55321470D01*
X168703600Y-55273359D01*
X168788411Y-55330027D01*
X168916000Y-55355406D01*
X169666000Y-55355406D01*
X169793589Y-55330027D01*
X169901754Y-55257754D01*
X169974027Y-55149589D01*
X169999406Y-55022000D01*
X169999406Y-53822000D01*
X169974027Y-53694411D01*
X169901754Y-53586246D01*
X169793589Y-53513973D01*
X169719600Y-53499256D01*
X169719600Y-52409375D01*
X169765000Y-52418406D01*
X170495000Y-52418406D01*
X170622589Y-52393027D01*
X170730754Y-52320754D01*
X170803027Y-52212589D01*
X170816356Y-52145580D01*
X171384419Y-52713644D01*
X171317411Y-52726973D01*
X171209246Y-52799246D01*
X171136973Y-52907411D01*
X171111594Y-53035000D01*
X171111594Y-53765000D01*
X171136973Y-53892589D01*
X171143000Y-53901610D01*
X171143001Y-55250478D01*
X171134145Y-55295000D01*
X171169225Y-55471361D01*
X171191702Y-55505000D01*
X171269127Y-55620874D01*
X171306867Y-55646091D01*
X171598594Y-55937818D01*
X171598594Y-56382000D01*
X171623973Y-56509589D01*
X171696246Y-56617754D01*
X171804411Y-56690027D01*
X171932000Y-56715406D01*
X172949989Y-56715406D01*
X172944001Y-56745509D01*
X172935605Y-56787719D01*
X172944001Y-56829928D01*
X172944002Y-58143067D01*
X172768406Y-58318663D01*
X172768406Y-58197000D01*
X172743027Y-58069411D01*
X172670754Y-57961246D01*
X172562589Y-57888973D01*
X172435000Y-57863594D01*
X170719000Y-57863594D01*
X170591411Y-57888973D01*
X170483246Y-57961246D01*
X170410973Y-58069411D01*
X170385594Y-58197000D01*
X170385594Y-59913000D01*
X170410973Y-60040589D01*
X170483246Y-60148754D01*
X170591411Y-60221027D01*
X170719000Y-60246406D01*
X172435000Y-60246406D01*
X172562589Y-60221027D01*
X172670754Y-60148754D01*
X172743027Y-60040589D01*
X172768406Y-59913000D01*
X172768406Y-59466097D01*
X172805431Y-59458732D01*
X172947203Y-59364003D01*
X172971117Y-59328213D01*
X173645819Y-58653513D01*
X173681604Y-58629602D01*
X173776333Y-58487830D01*
X173801201Y-58362809D01*
X173801201Y-58362808D01*
X173809597Y-58320599D01*
X173801201Y-58278390D01*
X173801201Y-56976195D01*
X173804003Y-56974323D01*
X173898732Y-56832551D01*
X173923600Y-56707530D01*
X173923600Y-56707529D01*
X173931996Y-56665321D01*
X173923600Y-56623112D01*
X173923600Y-53610624D01*
X174348134Y-53186091D01*
X174385874Y-53160874D01*
X174485775Y-53011362D01*
X174507530Y-52901990D01*
X174552589Y-52893027D01*
X174660754Y-52820754D01*
X174733027Y-52712589D01*
X174758406Y-52585000D01*
X174758406Y-52285000D01*
X174738515Y-52185000D01*
X174758406Y-52085000D01*
X174758406Y-51863600D01*
X175080400Y-51863600D01*
X175080401Y-56313468D01*
X174857275Y-56536594D01*
X174250000Y-56536594D01*
X174122411Y-56561973D01*
X174014246Y-56634246D01*
X173941973Y-56742411D01*
X173916594Y-56870000D01*
X173916594Y-58070000D01*
X173941973Y-58197589D01*
X174014246Y-58305754D01*
X174122411Y-58378027D01*
X174250000Y-58403406D01*
X175000000Y-58403406D01*
X175127589Y-58378027D01*
X175235754Y-58305754D01*
X175308027Y-58197589D01*
X175333406Y-58070000D01*
X175333406Y-57272724D01*
X175782216Y-56823915D01*
X175818003Y-56800003D01*
X175912732Y-56658231D01*
X175937600Y-56533210D01*
X175937600Y-56533209D01*
X175945996Y-56491000D01*
X175937600Y-56448791D01*
X175937600Y-51223209D01*
X175945996Y-51181001D01*
X175937600Y-51138790D01*
X175937600Y-47698406D01*
X176048000Y-47698406D01*
X176175589Y-47673027D01*
X176276000Y-47605935D01*
X176376411Y-47673027D01*
X176504000Y-47698406D01*
X177704000Y-47698406D01*
X177831589Y-47673027D01*
X177939754Y-47600754D01*
X178012027Y-47492589D01*
X178037406Y-47365000D01*
X178037406Y-46615000D01*
X178070594Y-46615000D01*
X178070594Y-47365000D01*
X178095973Y-47492589D01*
X178168246Y-47600754D01*
X178276411Y-47673027D01*
X178404000Y-47698406D01*
X178743000Y-47698406D01*
X178743000Y-52705000D01*
X178767891Y-52830137D01*
X178838776Y-52936224D01*
X178944863Y-53007109D01*
X179070000Y-53032000D01*
X188499479Y-53032000D01*
X188469863Y-53037891D01*
X188363776Y-53108776D01*
X188292891Y-53214863D01*
X188268000Y-53340000D01*
X188268000Y-60960000D01*
X188292891Y-61085137D01*
X188363776Y-61191224D01*
X188469863Y-61262109D01*
X188595000Y-61287000D01*
X193040000Y-61287000D01*
X193165137Y-61262109D01*
X193271224Y-61191224D01*
X193342109Y-61085137D01*
X193367000Y-60960000D01*
X193367000Y-53340000D01*
X193342109Y-53214863D01*
X193271224Y-53108776D01*
X193165137Y-53037891D01*
X193087760Y-53022500D01*
X193165137Y-53007109D01*
X193271224Y-52936224D01*
X193342109Y-52830137D01*
X193367000Y-52705000D01*
X193367000Y-38735000D01*
X193342109Y-38609863D01*
X193271224Y-38503776D01*
X193165137Y-38432891D01*
X193040000Y-38408000D01*
X179070000Y-38408000D01*
X178944863Y-38432891D01*
X178838776Y-38503776D01*
X178767891Y-38609863D01*
X178743000Y-38735000D01*
X178743000Y-46281594D01*
X178404000Y-46281594D01*
X178276411Y-46306973D01*
X178168246Y-46379246D01*
X178095973Y-46487411D01*
X178070594Y-46615000D01*
X178037406Y-46615000D01*
X178012027Y-46487411D01*
X177939754Y-46379246D01*
X177831589Y-46306973D01*
X177704000Y-46281594D01*
X176776725Y-46281594D01*
X176685332Y-46190201D01*
X177014072Y-46190201D01*
X177056281Y-46198597D01*
X177098490Y-46190201D01*
X177098491Y-46190201D01*
X177223512Y-46165333D01*
X177365284Y-46070604D01*
X177389198Y-46034815D01*
X177438215Y-45985798D01*
X177474003Y-45961885D01*
X177568732Y-45820113D01*
X177593600Y-45695092D01*
X177593600Y-45695091D01*
X177601996Y-45652882D01*
X177593600Y-45610673D01*
X177593600Y-44559328D01*
X177601996Y-44517118D01*
X177568732Y-44349886D01*
X177497913Y-44243899D01*
X177474003Y-44208115D01*
X177438219Y-44184205D01*
X169810799Y-36556787D01*
X169786885Y-36520997D01*
X169645113Y-36426268D01*
X169520092Y-36401400D01*
X169520091Y-36401400D01*
X169477882Y-36393004D01*
X169435673Y-36401400D01*
X168110103Y-36401400D01*
X168009595Y-36158751D01*
X167676249Y-35825405D01*
X167433600Y-35724897D01*
X167433600Y-35395103D01*
X167676249Y-35294595D01*
X168009595Y-34961249D01*
X168190000Y-34525711D01*
X168190000Y-34054289D01*
X168009595Y-33618751D01*
X167676249Y-33285405D01*
X167342108Y-33147000D01*
X194818000Y-33147000D01*
X194818000Y-63373000D01*
X149352000Y-63373000D01*
X149352000Y-34627108D01*
X149490405Y-34961249D01*
X149823751Y-35294595D01*
X150259289Y-35475000D01*
X150730711Y-35475000D01*
X151166249Y-35294595D01*
X151499595Y-34961249D01*
X151600103Y-34718600D01*
X155739897Y-34718600D01*
X155840405Y-34961249D01*
X156173751Y-35294595D01*
X156609289Y-35475000D01*
X157080711Y-35475000D01*
X157516249Y-35294595D01*
X157849595Y-34961249D01*
X158030000Y-34525711D01*
X158030000Y-34054289D01*
X157849595Y-33618751D01*
X157516249Y-33285405D01*
X157182108Y-33147000D01*
X166667892Y-33147000D01*
X166333751Y-33285405D01*
X166333751Y-33285405D01*
G37*
X166333751Y-33285405D02*
X166000405Y-33618751D01*
X165820000Y-34054289D01*
X165820000Y-34525711D01*
X166000405Y-34961249D01*
X166333751Y-35294595D01*
X166576400Y-35395103D01*
X166576401Y-35724897D01*
X166333751Y-35825405D01*
X166000405Y-36158751D01*
X165820000Y-36594289D01*
X165820000Y-37065711D01*
X166000405Y-37501249D01*
X166333751Y-37834595D01*
X166769289Y-38015000D01*
X167240711Y-38015000D01*
X167676249Y-37834595D01*
X168009595Y-37501249D01*
X168110103Y-37258600D01*
X169300352Y-37258600D01*
X176418344Y-44376594D01*
X175615000Y-44376594D01*
X175487411Y-44401973D01*
X175379246Y-44474246D01*
X175306973Y-44582411D01*
X175292256Y-44656400D01*
X172762204Y-44656400D01*
X172719999Y-44648005D01*
X172677794Y-44656400D01*
X172677790Y-44656400D01*
X172552769Y-44681268D01*
X172410997Y-44775997D01*
X172387086Y-44811782D01*
X172065783Y-45133087D01*
X172065781Y-45133088D01*
X171907470Y-45291400D01*
X171182096Y-45291400D01*
X171093609Y-45273799D01*
X171093608Y-45273799D01*
X171051399Y-45265403D01*
X171009190Y-45273799D01*
X170888406Y-45273799D01*
X170888406Y-44104000D01*
X170863027Y-43976411D01*
X170790754Y-43868246D01*
X170682589Y-43795973D01*
X170555000Y-43770594D01*
X170077726Y-43770594D01*
X165526105Y-39218975D01*
X165441547Y-39014833D01*
X165265169Y-38838455D01*
X165034720Y-38743000D01*
X164792000Y-38743000D01*
X164792000Y-38735000D01*
X164767109Y-38609863D01*
X164696224Y-38503776D01*
X164590137Y-38432891D01*
X164465000Y-38408000D01*
X151765000Y-38408000D01*
X151639863Y-38432891D01*
X151533776Y-38503776D01*
X151462891Y-38609863D01*
X151438000Y-38735000D01*
X151438000Y-50800000D01*
X151462891Y-50925137D01*
X151533776Y-51031224D01*
X151639863Y-51102109D01*
X151765000Y-51127000D01*
X164465000Y-51127000D01*
X164590137Y-51102109D01*
X164696224Y-51031224D01*
X164767109Y-50925137D01*
X164792000Y-50800000D01*
X164792000Y-46329132D01*
X164990133Y-46130999D01*
X169471594Y-46130999D01*
X169471594Y-47204000D01*
X169490211Y-47297594D01*
X168564000Y-47297594D01*
X168436411Y-47322973D01*
X168328246Y-47395246D01*
X168255973Y-47503411D01*
X168230594Y-47631000D01*
X168230594Y-48381000D01*
X168255973Y-48508589D01*
X168328246Y-48616754D01*
X168436411Y-48689027D01*
X168564000Y-48714406D01*
X168735401Y-48714406D01*
X168735401Y-49098468D01*
X168295869Y-49538000D01*
X168150282Y-49538000D01*
X167919833Y-49633455D01*
X167743455Y-49809833D01*
X167648000Y-50040282D01*
X167648000Y-50289718D01*
X167743455Y-50520167D01*
X167919833Y-50696545D01*
X168150282Y-50792000D01*
X168399718Y-50792000D01*
X168630167Y-50696545D01*
X168737375Y-50589337D01*
X168760268Y-50704430D01*
X168854997Y-50846203D01*
X168890787Y-50870117D01*
X169228886Y-51208218D01*
X169252797Y-51244003D01*
X169394569Y-51338732D01*
X169431594Y-51346097D01*
X169431594Y-51523903D01*
X169394569Y-51531268D01*
X169252797Y-51625997D01*
X169228884Y-51661785D01*
X169017785Y-51872885D01*
X168981998Y-51896797D01*
X168919036Y-51991027D01*
X168887269Y-52038569D01*
X168854004Y-52205800D01*
X168862401Y-52248014D01*
X168862400Y-53499256D01*
X168788411Y-53513973D01*
X168680246Y-53586246D01*
X168607973Y-53694411D01*
X168585764Y-53806063D01*
X168399718Y-53729000D01*
X168150282Y-53729000D01*
X167919833Y-53824455D01*
X167743455Y-54000833D01*
X167648000Y-54231282D01*
X167648000Y-54480718D01*
X167743455Y-54711167D01*
X167846400Y-54814112D01*
X167846401Y-55456787D01*
X167838004Y-55499000D01*
X167856983Y-55594411D01*
X167871269Y-55666231D01*
X167965998Y-55808003D01*
X168001785Y-55831915D01*
X168582594Y-56412725D01*
X168582594Y-56922000D01*
X168607973Y-57049589D01*
X168680246Y-57157754D01*
X168788411Y-57230027D01*
X168916000Y-57255406D01*
X169666000Y-57255406D01*
X169793589Y-57230027D01*
X169901754Y-57157754D01*
X169974027Y-57049589D01*
X169999406Y-56922000D01*
X169999406Y-55722000D01*
X169974027Y-55594411D01*
X169901754Y-55486246D01*
X169793589Y-55413973D01*
X169666000Y-55388594D01*
X168916000Y-55388594D01*
X168794827Y-55412697D01*
X168703600Y-55321470D01*
X168703600Y-55273359D01*
X168788411Y-55330027D01*
X168916000Y-55355406D01*
X169666000Y-55355406D01*
X169793589Y-55330027D01*
X169901754Y-55257754D01*
X169974027Y-55149589D01*
X169999406Y-55022000D01*
X169999406Y-53822000D01*
X169974027Y-53694411D01*
X169901754Y-53586246D01*
X169793589Y-53513973D01*
X169719600Y-53499256D01*
X169719600Y-52409375D01*
X169765000Y-52418406D01*
X170495000Y-52418406D01*
X170622589Y-52393027D01*
X170730754Y-52320754D01*
X170803027Y-52212589D01*
X170816356Y-52145580D01*
X171384419Y-52713644D01*
X171317411Y-52726973D01*
X171209246Y-52799246D01*
X171136973Y-52907411D01*
X171111594Y-53035000D01*
X171111594Y-53765000D01*
X171136973Y-53892589D01*
X171143000Y-53901610D01*
X171143001Y-55250478D01*
X171134145Y-55295000D01*
X171169225Y-55471361D01*
X171191702Y-55505000D01*
X171269127Y-55620874D01*
X171306867Y-55646091D01*
X171598594Y-55937818D01*
X171598594Y-56382000D01*
X171623973Y-56509589D01*
X171696246Y-56617754D01*
X171804411Y-56690027D01*
X171932000Y-56715406D01*
X172949989Y-56715406D01*
X172944001Y-56745509D01*
X172935605Y-56787719D01*
X172944001Y-56829928D01*
X172944002Y-58143067D01*
X172768406Y-58318663D01*
X172768406Y-58197000D01*
X172743027Y-58069411D01*
X172670754Y-57961246D01*
X172562589Y-57888973D01*
X172435000Y-57863594D01*
X170719000Y-57863594D01*
X170591411Y-57888973D01*
X170483246Y-57961246D01*
X170410973Y-58069411D01*
X170385594Y-58197000D01*
X170385594Y-59913000D01*
X170410973Y-60040589D01*
X170483246Y-60148754D01*
X170591411Y-60221027D01*
X170719000Y-60246406D01*
X172435000Y-60246406D01*
X172562589Y-60221027D01*
X172670754Y-60148754D01*
X172743027Y-60040589D01*
X172768406Y-59913000D01*
X172768406Y-59466097D01*
X172805431Y-59458732D01*
X172947203Y-59364003D01*
X172971117Y-59328213D01*
X173645819Y-58653513D01*
X173681604Y-58629602D01*
X173776333Y-58487830D01*
X173801201Y-58362809D01*
X173801201Y-58362808D01*
X173809597Y-58320599D01*
X173801201Y-58278390D01*
X173801201Y-56976195D01*
X173804003Y-56974323D01*
X173898732Y-56832551D01*
X173923600Y-56707530D01*
X173923600Y-56707529D01*
X173931996Y-56665321D01*
X173923600Y-56623112D01*
X173923600Y-53610624D01*
X174348134Y-53186091D01*
X174385874Y-53160874D01*
X174485775Y-53011362D01*
X174507530Y-52901990D01*
X174552589Y-52893027D01*
X174660754Y-52820754D01*
X174733027Y-52712589D01*
X174758406Y-52585000D01*
X174758406Y-52285000D01*
X174738515Y-52185000D01*
X174758406Y-52085000D01*
X174758406Y-51863600D01*
X175080400Y-51863600D01*
X175080401Y-56313468D01*
X174857275Y-56536594D01*
X174250000Y-56536594D01*
X174122411Y-56561973D01*
X174014246Y-56634246D01*
X173941973Y-56742411D01*
X173916594Y-56870000D01*
X173916594Y-58070000D01*
X173941973Y-58197589D01*
X174014246Y-58305754D01*
X174122411Y-58378027D01*
X174250000Y-58403406D01*
X175000000Y-58403406D01*
X175127589Y-58378027D01*
X175235754Y-58305754D01*
X175308027Y-58197589D01*
X175333406Y-58070000D01*
X175333406Y-57272724D01*
X175782216Y-56823915D01*
X175818003Y-56800003D01*
X175912732Y-56658231D01*
X175937600Y-56533210D01*
X175937600Y-56533209D01*
X175945996Y-56491000D01*
X175937600Y-56448791D01*
X175937600Y-51223209D01*
X175945996Y-51181001D01*
X175937600Y-51138790D01*
X175937600Y-47698406D01*
X176048000Y-47698406D01*
X176175589Y-47673027D01*
X176276000Y-47605935D01*
X176376411Y-47673027D01*
X176504000Y-47698406D01*
X177704000Y-47698406D01*
X177831589Y-47673027D01*
X177939754Y-47600754D01*
X178012027Y-47492589D01*
X178037406Y-47365000D01*
X178037406Y-46615000D01*
X178070594Y-46615000D01*
X178070594Y-47365000D01*
X178095973Y-47492589D01*
X178168246Y-47600754D01*
X178276411Y-47673027D01*
X178404000Y-47698406D01*
X178743000Y-47698406D01*
X178743000Y-52705000D01*
X178767891Y-52830137D01*
X178838776Y-52936224D01*
X178944863Y-53007109D01*
X179070000Y-53032000D01*
X188499479Y-53032000D01*
X188469863Y-53037891D01*
X188363776Y-53108776D01*
X188292891Y-53214863D01*
X188268000Y-53340000D01*
X188268000Y-60960000D01*
X188292891Y-61085137D01*
X188363776Y-61191224D01*
X188469863Y-61262109D01*
X188595000Y-61287000D01*
X193040000Y-61287000D01*
X193165137Y-61262109D01*
X193271224Y-61191224D01*
X193342109Y-61085137D01*
X193367000Y-60960000D01*
X193367000Y-53340000D01*
X193342109Y-53214863D01*
X193271224Y-53108776D01*
X193165137Y-53037891D01*
X193087760Y-53022500D01*
X193165137Y-53007109D01*
X193271224Y-52936224D01*
X193342109Y-52830137D01*
X193367000Y-52705000D01*
X193367000Y-38735000D01*
X193342109Y-38609863D01*
X193271224Y-38503776D01*
X193165137Y-38432891D01*
X193040000Y-38408000D01*
X179070000Y-38408000D01*
X178944863Y-38432891D01*
X178838776Y-38503776D01*
X178767891Y-38609863D01*
X178743000Y-38735000D01*
X178743000Y-46281594D01*
X178404000Y-46281594D01*
X178276411Y-46306973D01*
X178168246Y-46379246D01*
X178095973Y-46487411D01*
X178070594Y-46615000D01*
X178037406Y-46615000D01*
X178012027Y-46487411D01*
X177939754Y-46379246D01*
X177831589Y-46306973D01*
X177704000Y-46281594D01*
X176776725Y-46281594D01*
X176685332Y-46190201D01*
X177014072Y-46190201D01*
X177056281Y-46198597D01*
X177098490Y-46190201D01*
X177098491Y-46190201D01*
X177223512Y-46165333D01*
X177365284Y-46070604D01*
X177389198Y-46034815D01*
X177438215Y-45985798D01*
X177474003Y-45961885D01*
X177568732Y-45820113D01*
X177593600Y-45695092D01*
X177593600Y-45695091D01*
X177601996Y-45652882D01*
X177593600Y-45610673D01*
X177593600Y-44559328D01*
X177601996Y-44517118D01*
X177568732Y-44349886D01*
X177497913Y-44243899D01*
X177474003Y-44208115D01*
X177438219Y-44184205D01*
X169810799Y-36556787D01*
X169786885Y-36520997D01*
X169645113Y-36426268D01*
X169520092Y-36401400D01*
X169520091Y-36401400D01*
X169477882Y-36393004D01*
X169435673Y-36401400D01*
X168110103Y-36401400D01*
X168009595Y-36158751D01*
X167676249Y-35825405D01*
X167433600Y-35724897D01*
X167433600Y-35395103D01*
X167676249Y-35294595D01*
X168009595Y-34961249D01*
X168190000Y-34525711D01*
X168190000Y-34054289D01*
X168009595Y-33618751D01*
X167676249Y-33285405D01*
X167342108Y-33147000D01*
X194818000Y-33147000D01*
X194818000Y-63373000D01*
X149352000Y-63373000D01*
X149352000Y-34627108D01*
X149490405Y-34961249D01*
X149823751Y-35294595D01*
X150259289Y-35475000D01*
X150730711Y-35475000D01*
X151166249Y-35294595D01*
X151499595Y-34961249D01*
X151600103Y-34718600D01*
X155739897Y-34718600D01*
X155840405Y-34961249D01*
X156173751Y-35294595D01*
X156609289Y-35475000D01*
X157080711Y-35475000D01*
X157516249Y-35294595D01*
X157849595Y-34961249D01*
X158030000Y-34525711D01*
X158030000Y-34054289D01*
X157849595Y-33618751D01*
X157516249Y-33285405D01*
X157182108Y-33147000D01*
X166667892Y-33147000D01*
X166333751Y-33285405D01*
G04 #@! TO.N,Net-(C1-Pad1)*
G36*
X164338000Y-39112505D02*
X164283002Y-39245282D01*
X164283002Y-39494718D01*
X164338000Y-39627495D01*
X164338000Y-50673000D01*
X151892000Y-50673000D01*
X151892000Y-38862000D01*
X164338000Y-38862000D01*
X164338000Y-39112505D01*
X164338000Y-39112505D01*
G37*
X164338000Y-39112505D02*
X164283002Y-39245282D01*
X164283002Y-39494718D01*
X164338000Y-39627495D01*
X164338000Y-50673000D01*
X151892000Y-50673000D01*
X151892000Y-38862000D01*
X164338000Y-38862000D01*
X164338000Y-39112505D01*
G04 #@! TO.N,Net-(C10-Pad1)*
G36*
X192913000Y-52578000D02*
X188118000Y-52578000D01*
X188118000Y-51991144D01*
X188118589Y-51991027D01*
X188226754Y-51918754D01*
X188299027Y-51810589D01*
X188324406Y-51683000D01*
X188324406Y-50933000D01*
X188299027Y-50805411D01*
X188226754Y-50697246D01*
X188118589Y-50624973D01*
X187991000Y-50599594D01*
X187556076Y-50599594D01*
X187391000Y-50566758D01*
X187225923Y-50599594D01*
X186791000Y-50599594D01*
X186663411Y-50624973D01*
X186555246Y-50697246D01*
X186482973Y-50805411D01*
X186457594Y-50933000D01*
X186457594Y-51683000D01*
X186482973Y-51810589D01*
X186555246Y-51918754D01*
X186663411Y-51991027D01*
X186664000Y-51991144D01*
X186664000Y-52578000D01*
X179197000Y-52578000D01*
X179197000Y-38862000D01*
X192913000Y-38862000D01*
X192913000Y-52578000D01*
X192913000Y-52578000D01*
G37*
X192913000Y-52578000D02*
X188118000Y-52578000D01*
X188118000Y-51991144D01*
X188118589Y-51991027D01*
X188226754Y-51918754D01*
X188299027Y-51810589D01*
X188324406Y-51683000D01*
X188324406Y-50933000D01*
X188299027Y-50805411D01*
X188226754Y-50697246D01*
X188118589Y-50624973D01*
X187991000Y-50599594D01*
X187556076Y-50599594D01*
X187391000Y-50566758D01*
X187225923Y-50599594D01*
X186791000Y-50599594D01*
X186663411Y-50624973D01*
X186555246Y-50697246D01*
X186482973Y-50805411D01*
X186457594Y-50933000D01*
X186457594Y-51683000D01*
X186482973Y-51810589D01*
X186555246Y-51918754D01*
X186663411Y-51991027D01*
X186664000Y-51991144D01*
X186664000Y-52578000D01*
X179197000Y-52578000D01*
X179197000Y-38862000D01*
X192913000Y-38862000D01*
X192913000Y-52578000D01*
G04 #@! TD*
M02*
