G04 #@! TF.GenerationSoftware,KiCad,Pcbnew,(5.0.2)-1*
G04 #@! TF.CreationDate,2019-01-24T20:45:34+08:00*
G04 #@! TF.ProjectId,Inverter Trial 2,496e7665-7274-4657-9220-547269616c20,rev?*
G04 #@! TF.SameCoordinates,Original*
G04 #@! TF.FileFunction,Legend,Bot*
G04 #@! TF.FilePolarity,Positive*
%FSLAX46Y46*%
G04 Gerber Fmt 4.6, Leading zero omitted, Abs format (unit mm)*
G04 Created by KiCad (PCBNEW (5.0.2)-1) date 01/24/19 20:45:34*
%MOMM*%
%LPD*%
G01*
G04 APERTURE LIST*
%ADD10C,0.150000*%
%ADD11C,0.120000*%
G04 APERTURE END LIST*
D10*
G04 #@! TO.C,U1*
X169945000Y-53585000D02*
X169945000Y-52810000D01*
X174245000Y-53585000D02*
X174245000Y-52810000D01*
X174245000Y-49285000D02*
X174245000Y-50060000D01*
X169945000Y-49285000D02*
X169945000Y-50060000D01*
X174245000Y-53585000D02*
X173470000Y-53585000D01*
X174245000Y-49285000D02*
X173470000Y-49285000D01*
X169945000Y-53585000D02*
X170720000Y-53585000D01*
D11*
G04 #@! TO.C,C2*
X158745000Y-46860000D02*
X161635000Y-46860000D01*
X167645000Y-46860000D02*
X164755000Y-46860000D01*
X168405000Y-57280000D02*
X164755000Y-57280000D01*
X157985000Y-57280000D02*
X161635000Y-57280000D01*
X168405000Y-57280000D02*
X168405000Y-47620000D01*
X168405000Y-47620000D02*
X167645000Y-46860000D01*
X158745000Y-46860000D02*
X157985000Y-47620000D01*
X157985000Y-47620000D02*
X157985000Y-57280000D01*
G04 #@! TO.C,C3*
X177515000Y-44485000D02*
X176815000Y-44485000D01*
X176815000Y-45685000D02*
X177515000Y-45685000D01*
G04 #@! TO.C,C4*
X173132000Y-55210000D02*
X173832000Y-55210000D01*
X173832000Y-54010000D02*
X173132000Y-54010000D01*
G04 #@! TO.C,C7*
X173832000Y-55407000D02*
X173132000Y-55407000D01*
X173132000Y-56607000D02*
X173832000Y-56607000D01*
G04 #@! TO.C,C8*
X170464000Y-47406000D02*
X169764000Y-47406000D01*
X169764000Y-48606000D02*
X170464000Y-48606000D01*
G04 #@! TO.C,C10*
X176525000Y-49400000D02*
X179415000Y-49400000D01*
X185425000Y-49400000D02*
X182535000Y-49400000D01*
X186185000Y-59820000D02*
X182535000Y-59820000D01*
X175765000Y-59820000D02*
X179415000Y-59820000D01*
X186185000Y-59820000D02*
X186185000Y-50160000D01*
X186185000Y-50160000D02*
X185425000Y-49400000D01*
X176525000Y-49400000D02*
X175765000Y-50160000D01*
X175765000Y-50160000D02*
X175765000Y-59820000D01*
G04 #@! TO.C,C11*
X188691000Y-50708000D02*
X187991000Y-50708000D01*
X187991000Y-51908000D02*
X188691000Y-51908000D01*
G04 #@! TO.C,R2*
X174848000Y-46390000D02*
X174148000Y-46390000D01*
X174148000Y-47590000D02*
X174848000Y-47590000D01*
G04 #@! TO.C,R3*
X175225000Y-58770000D02*
X175225000Y-58070000D01*
X174025000Y-58070000D02*
X174025000Y-58770000D01*
G04 #@! TO.C,R4*
X169580000Y-45304000D02*
X169580000Y-46004000D01*
X170780000Y-46004000D02*
X170780000Y-45304000D01*
G04 #@! TO.C,R5*
X168691000Y-55022000D02*
X168691000Y-55722000D01*
X169891000Y-55722000D02*
X169891000Y-55022000D01*
G04 #@! TO.C,R6*
X178404000Y-46390000D02*
X177704000Y-46390000D01*
X177704000Y-47590000D02*
X178404000Y-47590000D01*
G04 #@! TO.C,R7*
X175164000Y-48987000D02*
X175864000Y-48987000D01*
X175864000Y-47787000D02*
X175164000Y-47787000D01*
G04 #@! TO.C,R9*
X187930000Y-54575000D02*
X188630000Y-54575000D01*
X188630000Y-53375000D02*
X187930000Y-53375000D01*
G04 #@! TO.C,R10*
X188630000Y-55280000D02*
X187930000Y-55280000D01*
X187930000Y-56480000D02*
X188630000Y-56480000D01*
G04 #@! TO.C,R11*
X187930000Y-58385000D02*
X188630000Y-58385000D01*
X188630000Y-57185000D02*
X187930000Y-57185000D01*
G04 #@! TO.C,R12*
X188630000Y-59090000D02*
X187930000Y-59090000D01*
X187930000Y-60290000D02*
X188630000Y-60290000D01*
G04 #@! TO.C,U1*
D10*
X173481904Y-47712380D02*
X173481904Y-48521904D01*
X173434285Y-48617142D01*
X173386666Y-48664761D01*
X173291428Y-48712380D01*
X173100952Y-48712380D01*
X173005714Y-48664761D01*
X172958095Y-48617142D01*
X172910476Y-48521904D01*
X172910476Y-47712380D01*
X171910476Y-48712380D02*
X172481904Y-48712380D01*
X172196190Y-48712380D02*
X172196190Y-47712380D01*
X172291428Y-47855238D01*
X172386666Y-47950476D01*
X172481904Y-47998095D01*
G04 #@! TO.C,C2*
X158916666Y-58777142D02*
X158964285Y-58824761D01*
X159107142Y-58872380D01*
X159202380Y-58872380D01*
X159345238Y-58824761D01*
X159440476Y-58729523D01*
X159488095Y-58634285D01*
X159535714Y-58443809D01*
X159535714Y-58300952D01*
X159488095Y-58110476D01*
X159440476Y-58015238D01*
X159345238Y-57920000D01*
X159202380Y-57872380D01*
X159107142Y-57872380D01*
X158964285Y-57920000D01*
X158916666Y-57967619D01*
X158535714Y-57967619D02*
X158488095Y-57920000D01*
X158392857Y-57872380D01*
X158154761Y-57872380D01*
X158059523Y-57920000D01*
X158011904Y-57967619D01*
X157964285Y-58062857D01*
X157964285Y-58158095D01*
X158011904Y-58300952D01*
X158583333Y-58872380D01*
X157964285Y-58872380D01*
X168236428Y-45909047D02*
X168236428Y-46670952D01*
X168617380Y-46290000D02*
X167855476Y-46290000D01*
G04 #@! TO.C,C3*
X180059666Y-45442142D02*
X180107285Y-45489761D01*
X180250142Y-45537380D01*
X180345380Y-45537380D01*
X180488238Y-45489761D01*
X180583476Y-45394523D01*
X180631095Y-45299285D01*
X180678714Y-45108809D01*
X180678714Y-44965952D01*
X180631095Y-44775476D01*
X180583476Y-44680238D01*
X180488238Y-44585000D01*
X180345380Y-44537380D01*
X180250142Y-44537380D01*
X180107285Y-44585000D01*
X180059666Y-44632619D01*
X179726333Y-44537380D02*
X179107285Y-44537380D01*
X179440619Y-44918333D01*
X179297761Y-44918333D01*
X179202523Y-44965952D01*
X179154904Y-45013571D01*
X179107285Y-45108809D01*
X179107285Y-45346904D01*
X179154904Y-45442142D01*
X179202523Y-45489761D01*
X179297761Y-45537380D01*
X179583476Y-45537380D01*
X179678714Y-45489761D01*
X179726333Y-45442142D01*
G04 #@! TO.C,C4*
X170981666Y-55094142D02*
X171029285Y-55141761D01*
X171172142Y-55189380D01*
X171267380Y-55189380D01*
X171410238Y-55141761D01*
X171505476Y-55046523D01*
X171553095Y-54951285D01*
X171600714Y-54760809D01*
X171600714Y-54617952D01*
X171553095Y-54427476D01*
X171505476Y-54332238D01*
X171410238Y-54237000D01*
X171267380Y-54189380D01*
X171172142Y-54189380D01*
X171029285Y-54237000D01*
X170981666Y-54284619D01*
X170124523Y-54522714D02*
X170124523Y-55189380D01*
X170362619Y-54141761D02*
X170600714Y-54856047D01*
X169981666Y-54856047D01*
G04 #@! TO.C,C7*
X170981666Y-56364142D02*
X171029285Y-56411761D01*
X171172142Y-56459380D01*
X171267380Y-56459380D01*
X171410238Y-56411761D01*
X171505476Y-56316523D01*
X171553095Y-56221285D01*
X171600714Y-56030809D01*
X171600714Y-55887952D01*
X171553095Y-55697476D01*
X171505476Y-55602238D01*
X171410238Y-55507000D01*
X171267380Y-55459380D01*
X171172142Y-55459380D01*
X171029285Y-55507000D01*
X170981666Y-55554619D01*
X170648333Y-55459380D02*
X169981666Y-55459380D01*
X170410238Y-56459380D01*
G04 #@! TO.C,C8*
X171997666Y-47347142D02*
X172045285Y-47394761D01*
X172188142Y-47442380D01*
X172283380Y-47442380D01*
X172426238Y-47394761D01*
X172521476Y-47299523D01*
X172569095Y-47204285D01*
X172616714Y-47013809D01*
X172616714Y-46870952D01*
X172569095Y-46680476D01*
X172521476Y-46585238D01*
X172426238Y-46490000D01*
X172283380Y-46442380D01*
X172188142Y-46442380D01*
X172045285Y-46490000D01*
X171997666Y-46537619D01*
X171426238Y-46870952D02*
X171521476Y-46823333D01*
X171569095Y-46775714D01*
X171616714Y-46680476D01*
X171616714Y-46632857D01*
X171569095Y-46537619D01*
X171521476Y-46490000D01*
X171426238Y-46442380D01*
X171235761Y-46442380D01*
X171140523Y-46490000D01*
X171092904Y-46537619D01*
X171045285Y-46632857D01*
X171045285Y-46680476D01*
X171092904Y-46775714D01*
X171140523Y-46823333D01*
X171235761Y-46870952D01*
X171426238Y-46870952D01*
X171521476Y-46918571D01*
X171569095Y-46966190D01*
X171616714Y-47061428D01*
X171616714Y-47251904D01*
X171569095Y-47347142D01*
X171521476Y-47394761D01*
X171426238Y-47442380D01*
X171235761Y-47442380D01*
X171140523Y-47394761D01*
X171092904Y-47347142D01*
X171045285Y-47251904D01*
X171045285Y-47061428D01*
X171092904Y-46966190D01*
X171140523Y-46918571D01*
X171235761Y-46870952D01*
G04 #@! TO.C,C10*
X186062857Y-61317142D02*
X186110476Y-61364761D01*
X186253333Y-61412380D01*
X186348571Y-61412380D01*
X186491428Y-61364761D01*
X186586666Y-61269523D01*
X186634285Y-61174285D01*
X186681904Y-60983809D01*
X186681904Y-60840952D01*
X186634285Y-60650476D01*
X186586666Y-60555238D01*
X186491428Y-60460000D01*
X186348571Y-60412380D01*
X186253333Y-60412380D01*
X186110476Y-60460000D01*
X186062857Y-60507619D01*
X185110476Y-61412380D02*
X185681904Y-61412380D01*
X185396190Y-61412380D02*
X185396190Y-60412380D01*
X185491428Y-60555238D01*
X185586666Y-60650476D01*
X185681904Y-60698095D01*
X184491428Y-60412380D02*
X184396190Y-60412380D01*
X184300952Y-60460000D01*
X184253333Y-60507619D01*
X184205714Y-60602857D01*
X184158095Y-60793333D01*
X184158095Y-61031428D01*
X184205714Y-61221904D01*
X184253333Y-61317142D01*
X184300952Y-61364761D01*
X184396190Y-61412380D01*
X184491428Y-61412380D01*
X184586666Y-61364761D01*
X184634285Y-61317142D01*
X184681904Y-61221904D01*
X184729523Y-61031428D01*
X184729523Y-60793333D01*
X184681904Y-60602857D01*
X184634285Y-60507619D01*
X184586666Y-60460000D01*
X184491428Y-60412380D01*
X186016428Y-48449047D02*
X186016428Y-49210952D01*
X186397380Y-48830000D02*
X185635476Y-48830000D01*
G04 #@! TO.C,C11*
X188983857Y-50415142D02*
X189031476Y-50462761D01*
X189174333Y-50510380D01*
X189269571Y-50510380D01*
X189412428Y-50462761D01*
X189507666Y-50367523D01*
X189555285Y-50272285D01*
X189602904Y-50081809D01*
X189602904Y-49938952D01*
X189555285Y-49748476D01*
X189507666Y-49653238D01*
X189412428Y-49558000D01*
X189269571Y-49510380D01*
X189174333Y-49510380D01*
X189031476Y-49558000D01*
X188983857Y-49605619D01*
X188031476Y-50510380D02*
X188602904Y-50510380D01*
X188317190Y-50510380D02*
X188317190Y-49510380D01*
X188412428Y-49653238D01*
X188507666Y-49748476D01*
X188602904Y-49796095D01*
X187079095Y-50510380D02*
X187650523Y-50510380D01*
X187364809Y-50510380D02*
X187364809Y-49510380D01*
X187460047Y-49653238D01*
X187555285Y-49748476D01*
X187650523Y-49796095D01*
G04 #@! TO.C,R2*
X174664666Y-46192380D02*
X174998000Y-45716190D01*
X175236095Y-46192380D02*
X175236095Y-45192380D01*
X174855142Y-45192380D01*
X174759904Y-45240000D01*
X174712285Y-45287619D01*
X174664666Y-45382857D01*
X174664666Y-45525714D01*
X174712285Y-45620952D01*
X174759904Y-45668571D01*
X174855142Y-45716190D01*
X175236095Y-45716190D01*
X174283714Y-45287619D02*
X174236095Y-45240000D01*
X174140857Y-45192380D01*
X173902761Y-45192380D01*
X173807523Y-45240000D01*
X173759904Y-45287619D01*
X173712285Y-45382857D01*
X173712285Y-45478095D01*
X173759904Y-45620952D01*
X174331333Y-46192380D01*
X173712285Y-46192380D01*
G04 #@! TO.C,R3*
X174791666Y-61412380D02*
X175125000Y-60936190D01*
X175363095Y-61412380D02*
X175363095Y-60412380D01*
X174982142Y-60412380D01*
X174886904Y-60460000D01*
X174839285Y-60507619D01*
X174791666Y-60602857D01*
X174791666Y-60745714D01*
X174839285Y-60840952D01*
X174886904Y-60888571D01*
X174982142Y-60936190D01*
X175363095Y-60936190D01*
X174458333Y-60412380D02*
X173839285Y-60412380D01*
X174172619Y-60793333D01*
X174029761Y-60793333D01*
X173934523Y-60840952D01*
X173886904Y-60888571D01*
X173839285Y-60983809D01*
X173839285Y-61221904D01*
X173886904Y-61317142D01*
X173934523Y-61364761D01*
X174029761Y-61412380D01*
X174315476Y-61412380D01*
X174410714Y-61364761D01*
X174458333Y-61317142D01*
G04 #@! TO.C,R4*
X172251666Y-45791380D02*
X172585000Y-45315190D01*
X172823095Y-45791380D02*
X172823095Y-44791380D01*
X172442142Y-44791380D01*
X172346904Y-44839000D01*
X172299285Y-44886619D01*
X172251666Y-44981857D01*
X172251666Y-45124714D01*
X172299285Y-45219952D01*
X172346904Y-45267571D01*
X172442142Y-45315190D01*
X172823095Y-45315190D01*
X171394523Y-45124714D02*
X171394523Y-45791380D01*
X171632619Y-44743761D02*
X171870714Y-45458047D01*
X171251666Y-45458047D01*
G04 #@! TO.C,R5*
X169457666Y-58237380D02*
X169791000Y-57761190D01*
X170029095Y-58237380D02*
X170029095Y-57237380D01*
X169648142Y-57237380D01*
X169552904Y-57285000D01*
X169505285Y-57332619D01*
X169457666Y-57427857D01*
X169457666Y-57570714D01*
X169505285Y-57665952D01*
X169552904Y-57713571D01*
X169648142Y-57761190D01*
X170029095Y-57761190D01*
X168552904Y-57237380D02*
X169029095Y-57237380D01*
X169076714Y-57713571D01*
X169029095Y-57665952D01*
X168933857Y-57618333D01*
X168695761Y-57618333D01*
X168600523Y-57665952D01*
X168552904Y-57713571D01*
X168505285Y-57808809D01*
X168505285Y-58046904D01*
X168552904Y-58142142D01*
X168600523Y-58189761D01*
X168695761Y-58237380D01*
X168933857Y-58237380D01*
X169029095Y-58189761D01*
X169076714Y-58142142D01*
G04 #@! TO.C,R6*
X180887666Y-47569380D02*
X181221000Y-47093190D01*
X181459095Y-47569380D02*
X181459095Y-46569380D01*
X181078142Y-46569380D01*
X180982904Y-46617000D01*
X180935285Y-46664619D01*
X180887666Y-46759857D01*
X180887666Y-46902714D01*
X180935285Y-46997952D01*
X180982904Y-47045571D01*
X181078142Y-47093190D01*
X181459095Y-47093190D01*
X180030523Y-46569380D02*
X180221000Y-46569380D01*
X180316238Y-46617000D01*
X180363857Y-46664619D01*
X180459095Y-46807476D01*
X180506714Y-46997952D01*
X180506714Y-47378904D01*
X180459095Y-47474142D01*
X180411476Y-47521761D01*
X180316238Y-47569380D01*
X180125761Y-47569380D01*
X180030523Y-47521761D01*
X179982904Y-47474142D01*
X179935285Y-47378904D01*
X179935285Y-47140809D01*
X179982904Y-47045571D01*
X180030523Y-46997952D01*
X180125761Y-46950333D01*
X180316238Y-46950333D01*
X180411476Y-46997952D01*
X180459095Y-47045571D01*
X180506714Y-47140809D01*
G04 #@! TO.C,R7*
X178474666Y-48839380D02*
X178808000Y-48363190D01*
X179046095Y-48839380D02*
X179046095Y-47839380D01*
X178665142Y-47839380D01*
X178569904Y-47887000D01*
X178522285Y-47934619D01*
X178474666Y-48029857D01*
X178474666Y-48172714D01*
X178522285Y-48267952D01*
X178569904Y-48315571D01*
X178665142Y-48363190D01*
X179046095Y-48363190D01*
X178141333Y-47839380D02*
X177474666Y-47839380D01*
X177903238Y-48839380D01*
G04 #@! TO.C,R9*
X188446666Y-53157380D02*
X188780000Y-52681190D01*
X189018095Y-53157380D02*
X189018095Y-52157380D01*
X188637142Y-52157380D01*
X188541904Y-52205000D01*
X188494285Y-52252619D01*
X188446666Y-52347857D01*
X188446666Y-52490714D01*
X188494285Y-52585952D01*
X188541904Y-52633571D01*
X188637142Y-52681190D01*
X189018095Y-52681190D01*
X187970476Y-53157380D02*
X187780000Y-53157380D01*
X187684761Y-53109761D01*
X187637142Y-53062142D01*
X187541904Y-52919285D01*
X187494285Y-52728809D01*
X187494285Y-52347857D01*
X187541904Y-52252619D01*
X187589523Y-52205000D01*
X187684761Y-52157380D01*
X187875238Y-52157380D01*
X187970476Y-52205000D01*
X188018095Y-52252619D01*
X188065714Y-52347857D01*
X188065714Y-52585952D01*
X188018095Y-52681190D01*
X187970476Y-52728809D01*
X187875238Y-52776428D01*
X187684761Y-52776428D01*
X187589523Y-52728809D01*
X187541904Y-52681190D01*
X187494285Y-52585952D01*
G04 #@! TO.C,R10*
X192412857Y-56967380D02*
X192746190Y-56491190D01*
X192984285Y-56967380D02*
X192984285Y-55967380D01*
X192603333Y-55967380D01*
X192508095Y-56015000D01*
X192460476Y-56062619D01*
X192412857Y-56157857D01*
X192412857Y-56300714D01*
X192460476Y-56395952D01*
X192508095Y-56443571D01*
X192603333Y-56491190D01*
X192984285Y-56491190D01*
X191460476Y-56967380D02*
X192031904Y-56967380D01*
X191746190Y-56967380D02*
X191746190Y-55967380D01*
X191841428Y-56110238D01*
X191936666Y-56205476D01*
X192031904Y-56253095D01*
X190841428Y-55967380D02*
X190746190Y-55967380D01*
X190650952Y-56015000D01*
X190603333Y-56062619D01*
X190555714Y-56157857D01*
X190508095Y-56348333D01*
X190508095Y-56586428D01*
X190555714Y-56776904D01*
X190603333Y-56872142D01*
X190650952Y-56919761D01*
X190746190Y-56967380D01*
X190841428Y-56967380D01*
X190936666Y-56919761D01*
X190984285Y-56872142D01*
X191031904Y-56776904D01*
X191079523Y-56586428D01*
X191079523Y-56348333D01*
X191031904Y-56157857D01*
X190984285Y-56062619D01*
X190936666Y-56015000D01*
X190841428Y-55967380D01*
G04 #@! TO.C,R11*
X192412857Y-58237380D02*
X192746190Y-57761190D01*
X192984285Y-58237380D02*
X192984285Y-57237380D01*
X192603333Y-57237380D01*
X192508095Y-57285000D01*
X192460476Y-57332619D01*
X192412857Y-57427857D01*
X192412857Y-57570714D01*
X192460476Y-57665952D01*
X192508095Y-57713571D01*
X192603333Y-57761190D01*
X192984285Y-57761190D01*
X191460476Y-58237380D02*
X192031904Y-58237380D01*
X191746190Y-58237380D02*
X191746190Y-57237380D01*
X191841428Y-57380238D01*
X191936666Y-57475476D01*
X192031904Y-57523095D01*
X190508095Y-58237380D02*
X191079523Y-58237380D01*
X190793809Y-58237380D02*
X190793809Y-57237380D01*
X190889047Y-57380238D01*
X190984285Y-57475476D01*
X191079523Y-57523095D01*
G04 #@! TO.C,R12*
X188922857Y-61392380D02*
X189256190Y-60916190D01*
X189494285Y-61392380D02*
X189494285Y-60392380D01*
X189113333Y-60392380D01*
X189018095Y-60440000D01*
X188970476Y-60487619D01*
X188922857Y-60582857D01*
X188922857Y-60725714D01*
X188970476Y-60820952D01*
X189018095Y-60868571D01*
X189113333Y-60916190D01*
X189494285Y-60916190D01*
X187970476Y-61392380D02*
X188541904Y-61392380D01*
X188256190Y-61392380D02*
X188256190Y-60392380D01*
X188351428Y-60535238D01*
X188446666Y-60630476D01*
X188541904Y-60678095D01*
X187589523Y-60487619D02*
X187541904Y-60440000D01*
X187446666Y-60392380D01*
X187208571Y-60392380D01*
X187113333Y-60440000D01*
X187065714Y-60487619D01*
X187018095Y-60582857D01*
X187018095Y-60678095D01*
X187065714Y-60820952D01*
X187637142Y-61392380D01*
X187018095Y-61392380D01*
G04 #@! TD*
M02*
