%FSLAX45Y45*%
G04 Gerber Fmt 4.5, Leading zero omitted, Abs format (unit mm)*
G04 Created by KiCad (PCBNEW (5.0.2)-1) date 01/24/19 20:45:36*
%MOMM*%
%LPD*%
G01*
G04 APERTURE LIST*
%ADD10C,0.150000*%
%ADD11C,0.200000*%
%ADD12C,0.300000*%
G04 APERTURE END LIST*
D10*
X14859000Y-3048000D02*
X14859000Y-3238500D01*
X19240500Y-2667000D02*
X15240000Y-2667000D01*
X19621500Y-3238500D02*
X19621500Y-3048000D01*
X19621500Y-6667500D02*
X19621500Y-6477000D01*
X15240000Y-7048500D02*
X19240500Y-7048500D01*
X14859000Y-6667500D02*
X14859000Y-6477000D01*
X19621500Y-6667500D02*
G75*
G02X19240500Y-7048500I-381000J0D01*
G01*
X15240000Y-7048500D02*
G75*
G02X14859000Y-6667500I0J381000D01*
G01*
X14859000Y-3048000D02*
G75*
G02X15240000Y-2667000I381000J0D01*
G01*
X19240500Y-2667000D02*
G75*
G02X19621500Y-3048000I0J-381000D01*
G01*
X19621500Y-6477000D02*
X19621500Y-3238500D01*
X14859000Y-3238500D02*
X14859000Y-6477000D01*
D11*
D12*
X15137928Y-7521714D02*
X15137928Y-7221714D01*
X15209357Y-7221714D01*
X15252214Y-7236000D01*
X15280786Y-7264571D01*
X15295071Y-7293143D01*
X15309357Y-7350286D01*
X15309357Y-7393143D01*
X15295071Y-7450286D01*
X15280786Y-7478857D01*
X15252214Y-7507429D01*
X15209357Y-7521714D01*
X15137928Y-7521714D01*
X15437928Y-7521714D02*
X15437928Y-7321714D01*
X15437928Y-7378857D02*
X15452214Y-7350286D01*
X15466500Y-7336000D01*
X15495071Y-7321714D01*
X15523643Y-7321714D01*
X15623643Y-7521714D02*
X15623643Y-7321714D01*
X15623643Y-7221714D02*
X15609357Y-7236000D01*
X15623643Y-7250286D01*
X15637928Y-7236000D01*
X15623643Y-7221714D01*
X15623643Y-7250286D01*
X15809357Y-7521714D02*
X15780786Y-7507429D01*
X15766500Y-7478857D01*
X15766500Y-7221714D01*
X15966500Y-7521714D02*
X15937928Y-7507429D01*
X15923643Y-7478857D01*
X15923643Y-7221714D01*
X16309357Y-7521714D02*
X16309357Y-7221714D01*
X16409357Y-7436000D01*
X16509357Y-7221714D01*
X16509357Y-7521714D01*
X16780786Y-7521714D02*
X16780786Y-7364571D01*
X16766500Y-7336000D01*
X16737928Y-7321714D01*
X16680786Y-7321714D01*
X16652214Y-7336000D01*
X16780786Y-7507429D02*
X16752214Y-7521714D01*
X16680786Y-7521714D01*
X16652214Y-7507429D01*
X16637928Y-7478857D01*
X16637928Y-7450286D01*
X16652214Y-7421714D01*
X16680786Y-7407429D01*
X16752214Y-7407429D01*
X16780786Y-7393143D01*
X16923643Y-7321714D02*
X16923643Y-7621714D01*
X16923643Y-7336000D02*
X16952214Y-7321714D01*
X17009357Y-7321714D01*
X17037928Y-7336000D01*
X17052214Y-7350286D01*
X17066500Y-7378857D01*
X17066500Y-7464571D01*
X17052214Y-7493143D01*
X17037928Y-7507429D01*
X17009357Y-7521714D01*
X16952214Y-7521714D01*
X16923643Y-7507429D01*
X17195071Y-7493143D02*
X17209357Y-7507429D01*
X17195071Y-7521714D01*
X17180786Y-7507429D01*
X17195071Y-7493143D01*
X17195071Y-7521714D01*
X17195071Y-7336000D02*
X17209357Y-7350286D01*
X17195071Y-7364571D01*
X17180786Y-7350286D01*
X17195071Y-7336000D01*
X17195071Y-7364571D01*
M02*
