M48
;DRILL file {KiCad 4.0.1-stable} date 01/28/17 17:52:13
;FORMAT={-:-/ absolute / metric / decimal}
FMAT,2
METRIC,TZ
T1C0.700
T2C0.900
T3C1.000
T4C3.200
%
G90
G05
M71
T1
X118.745Y-88.265
X118.745Y-90.805
X121.285Y-95.885
X121.285Y-106.045
X125.095Y-80.01
X125.095Y-88.265
X125.095Y-90.805
X125.095Y-93.345
X125.095Y-95.885
X125.73Y-113.665
X125.73Y-121.92
X126.365Y-103.505
X127.635Y-80.01
X128.27Y-113.665
X128.27Y-121.92
X128.905Y-106.172
X131.445Y-103.505
X132.715Y-88.265
X132.715Y-90.805
X132.715Y-93.345
X132.715Y-95.885
X135.255Y-103.505
X135.89Y-88.265
X135.89Y-98.425
X137.795Y-106.045
X137.795Y-116.205
X140.335Y-106.045
X140.335Y-116.205
X142.875Y-106.045
X142.875Y-116.205
X143.51Y-93.345
X143.51Y-95.885
X145.415Y-103.505
X145.415Y-106.045
X145.415Y-116.205
X147.955Y-100.33
X150.495Y-80.01
X150.495Y-100.33
X153.035Y-80.01
X153.035Y-93.345
X153.035Y-95.885
X153.035Y-100.33
X154.94Y-110.49
X154.94Y-118.745
X157.48Y-110.49
X157.48Y-118.745
X159.385Y-93.345
X159.385Y-95.885
X159.385Y-98.425
T2
X138.43Y-80.01
X143.51Y-80.01
T3
X111.76Y-88.265
X111.76Y-90.805
X120.015Y-111.125
X120.015Y-113.665
X120.015Y-116.205
X133.35Y-113.665
X133.35Y-116.205
X133.35Y-118.745
X149.86Y-113.665
X149.86Y-116.205
X149.86Y-118.745
X162.56Y-107.95
X162.56Y-110.49
X162.56Y-113.03
T4
X111.76Y-74.93
X111.76Y-125.73
X162.56Y-74.93
X162.56Y-125.73
T0
M30
