G04 #@! TF.GenerationSoftware,KiCad,Pcbnew,(5.0.0)*
G04 #@! TF.CreationDate,2018-09-08T20:17:39+08:00*
G04 #@! TF.ProjectId,I2C-Extenion,4932432D457874656E696F6E2E6B6963,rev?*
G04 #@! TF.SameCoordinates,Original*
G04 #@! TF.FileFunction,Copper,L2,Bot,Signal*
G04 #@! TF.FilePolarity,Positive*
%FSLAX46Y46*%
G04 Gerber Fmt 4.6, Leading zero omitted, Abs format (unit mm)*
G04 Created by KiCad (PCBNEW (5.0.0)) date 09/08/18 20:17:39*
%MOMM*%
%LPD*%
G01*
G04 APERTURE LIST*
G04 #@! TA.AperFunction,ComponentPad*
%ADD10C,1.716000*%
G04 #@! TD*
G04 #@! TA.AperFunction,SMDPad,CuDef*
%ADD11R,1.200000X0.750000*%
G04 #@! TD*
G04 #@! TA.AperFunction,SMDPad,CuDef*
%ADD12R,0.750000X1.200000*%
G04 #@! TD*
G04 #@! TA.AperFunction,ComponentPad*
%ADD13O,1.700000X1.700000*%
G04 #@! TD*
G04 #@! TA.AperFunction,ComponentPad*
%ADD14R,1.700000X1.700000*%
G04 #@! TD*
G04 #@! TA.AperFunction,ComponentPad*
%ADD15C,1.462000*%
G04 #@! TD*
G04 #@! TA.AperFunction,SMDPad,CuDef*
%ADD16R,1.450000X0.450000*%
G04 #@! TD*
G04 #@! TA.AperFunction,SMDPad,CuDef*
%ADD17R,1.350000X0.400000*%
G04 #@! TD*
G04 #@! TA.AperFunction,ViaPad*
%ADD18C,1.208000*%
G04 #@! TD*
G04 #@! TA.AperFunction,Conductor*
%ADD19C,0.304800*%
G04 #@! TD*
G04 APERTURE END LIST*
D10*
G04 #@! TO.P,R3,2*
G04 #@! TO.N,Net-(R3-Pad2)*
X111125000Y-94234000D03*
G04 #@! TO.P,R3,1*
G04 #@! TO.N,+3V3*
X100965000Y-94234000D03*
G04 #@! TD*
D11*
G04 #@! TO.P,C1,1*
G04 #@! TO.N,+3V3*
X117729000Y-96139000D03*
G04 #@! TO.P,C1,2*
G04 #@! TO.N,GND*
X115829000Y-96139000D03*
G04 #@! TD*
D12*
G04 #@! TO.P,C2,2*
G04 #@! TO.N,GND*
X103124000Y-86172000D03*
G04 #@! TO.P,C2,1*
G04 #@! TO.N,+3V3*
X103124000Y-88072000D03*
G04 #@! TD*
G04 #@! TO.P,C3,1*
G04 #@! TO.N,+3V3*
X102870000Y-93218000D03*
G04 #@! TO.P,C3,2*
G04 #@! TO.N,GND*
X102870000Y-91318000D03*
G04 #@! TD*
G04 #@! TO.P,C4,2*
G04 #@! TO.N,GND*
X130302000Y-89596000D03*
G04 #@! TO.P,C4,1*
G04 #@! TO.N,+3V3*
X130302000Y-87696000D03*
G04 #@! TD*
D13*
G04 #@! TO.P,J1,8*
G04 #@! TO.N,GND*
X125095000Y-82550000D03*
G04 #@! TO.P,J1,7*
G04 #@! TO.N,I2C_SCL*
X122555000Y-82550000D03*
G04 #@! TO.P,J1,6*
G04 #@! TO.N,I2C_SDA*
X120015000Y-82550000D03*
G04 #@! TO.P,J1,5*
G04 #@! TO.N,4V-REF*
X117475000Y-82550000D03*
G04 #@! TO.P,J1,4*
G04 #@! TO.N,2V5-REF*
X114935000Y-82550000D03*
G04 #@! TO.P,J1,3*
G04 #@! TO.N,1V-REF*
X112395000Y-82550000D03*
G04 #@! TO.P,J1,2*
G04 #@! TO.N,5V-REF*
X109855000Y-82550000D03*
D14*
G04 #@! TO.P,J1,1*
G04 #@! TO.N,+3V3*
X107315000Y-82550000D03*
G04 #@! TD*
D10*
G04 #@! TO.P,R1,2*
G04 #@! TO.N,I2C_SDA*
X122047000Y-94234000D03*
G04 #@! TO.P,R1,1*
G04 #@! TO.N,+3V3*
X132207000Y-94234000D03*
G04 #@! TD*
G04 #@! TO.P,R2,1*
G04 #@! TO.N,+3V3*
X132207000Y-91694000D03*
G04 #@! TO.P,R2,2*
G04 #@! TO.N,I2C_SCL*
X122047000Y-91694000D03*
G04 #@! TD*
G04 #@! TO.P,R4,1*
G04 #@! TO.N,+3V3*
X100965000Y-91694000D03*
D15*
G04 #@! TO.P,R4,2*
G04 #@! TO.N,Net-(R4-Pad2)*
X111125000Y-91694000D03*
G04 #@! TD*
D10*
G04 #@! TO.P,R5,2*
G04 #@! TO.N,Net-(R5-Pad2)*
X111125000Y-89154000D03*
G04 #@! TO.P,R5,1*
G04 #@! TO.N,+3V3*
X100965000Y-89154000D03*
G04 #@! TD*
G04 #@! TO.P,R6,1*
G04 #@! TO.N,+3V3*
X100965000Y-86360000D03*
D15*
G04 #@! TO.P,R6,2*
G04 #@! TO.N,Net-(R6-Pad2)*
X111125000Y-86360000D03*
G04 #@! TD*
D10*
G04 #@! TO.P,R7,1*
G04 #@! TO.N,+3V3*
X132207000Y-86614000D03*
G04 #@! TO.P,R7,2*
G04 #@! TO.N,Net-(R7-Pad2)*
X122047000Y-86614000D03*
G04 #@! TD*
G04 #@! TO.P,R8,2*
G04 #@! TO.N,Net-(R8-Pad2)*
X122047000Y-89154000D03*
G04 #@! TO.P,R8,1*
G04 #@! TO.N,+3V3*
X132207000Y-89154000D03*
G04 #@! TD*
D16*
G04 #@! TO.P,U1,20*
G04 #@! TO.N,+3V3*
X119507000Y-93487000D03*
G04 #@! TO.P,U1,19*
G04 #@! TO.N,I2C_SDA*
X119507000Y-92837000D03*
G04 #@! TO.P,U1,18*
G04 #@! TO.N,I2C_SCL*
X119507000Y-92187000D03*
G04 #@! TO.P,U1,17*
G04 #@! TO.N,Net-(U1-Pad17)*
X119507000Y-91537000D03*
G04 #@! TO.P,U1,16*
G04 #@! TO.N,Net-(U1-Pad16)*
X119507000Y-90887000D03*
G04 #@! TO.P,U1,15*
G04 #@! TO.N,Net-(U1-Pad15)*
X119507000Y-90237000D03*
G04 #@! TO.P,U1,14*
G04 #@! TO.N,Net-(U1-Pad14)*
X119507000Y-89587000D03*
G04 #@! TO.P,U1,13*
G04 #@! TO.N,Net-(R8-Pad2)*
X119507000Y-88937000D03*
G04 #@! TO.P,U1,12*
G04 #@! TO.N,Net-(R7-Pad2)*
X119507000Y-88287000D03*
G04 #@! TO.P,U1,11*
G04 #@! TO.N,Net-(U1-Pad11)*
X119507000Y-87637000D03*
G04 #@! TO.P,U1,10*
G04 #@! TO.N,GND*
X113607000Y-87637000D03*
G04 #@! TO.P,U1,9*
G04 #@! TO.N,Net-(R6-Pad2)*
X113607000Y-88287000D03*
G04 #@! TO.P,U1,8*
G04 #@! TO.N,Net-(R5-Pad2)*
X113607000Y-88937000D03*
G04 #@! TO.P,U1,7*
G04 #@! TO.N,Net-(U1-Pad7)*
X113607000Y-89587000D03*
G04 #@! TO.P,U1,6*
G04 #@! TO.N,Net-(R4-Pad2)*
X113607000Y-90237000D03*
G04 #@! TO.P,U1,5*
G04 #@! TO.N,Net-(R3-Pad2)*
X113607000Y-90887000D03*
G04 #@! TO.P,U1,4*
G04 #@! TO.N,Net-(U1-Pad4)*
X113607000Y-91537000D03*
G04 #@! TO.P,U1,3*
G04 #@! TO.N,+3V3*
X113607000Y-92187000D03*
G04 #@! TO.P,U1,2*
G04 #@! TO.N,GND*
X113607000Y-92837000D03*
G04 #@! TO.P,U1,1*
X113607000Y-93487000D03*
G04 #@! TD*
D17*
G04 #@! TO.P,U2,8*
G04 #@! TO.N,GND*
X104539000Y-91918000D03*
G04 #@! TO.P,U2,7*
G04 #@! TO.N,+3V3*
X104539000Y-92568000D03*
G04 #@! TO.P,U2,6*
G04 #@! TO.N,1V-REF*
X104539000Y-93218000D03*
G04 #@! TO.P,U2,5*
G04 #@! TO.N,+3V3*
X104539000Y-93868000D03*
G04 #@! TO.P,U2,4*
G04 #@! TO.N,Net-(R3-Pad2)*
X108839000Y-93868000D03*
G04 #@! TO.P,U2,3*
G04 #@! TO.N,Net-(R4-Pad2)*
X108839000Y-93218000D03*
G04 #@! TO.P,U2,2*
G04 #@! TO.N,+3V3*
X108839000Y-92568000D03*
G04 #@! TO.P,U2,1*
G04 #@! TO.N,5V-REF*
X108839000Y-91918000D03*
G04 #@! TD*
G04 #@! TO.P,U3,8*
G04 #@! TO.N,GND*
X104657000Y-86868000D03*
G04 #@! TO.P,U3,7*
G04 #@! TO.N,+3V3*
X104657000Y-87518000D03*
G04 #@! TO.P,U3,6*
G04 #@! TO.N,2V5-REF*
X104657000Y-88168000D03*
G04 #@! TO.P,U3,5*
G04 #@! TO.N,+3V3*
X104657000Y-88818000D03*
G04 #@! TO.P,U3,4*
G04 #@! TO.N,Net-(R5-Pad2)*
X108957000Y-88818000D03*
G04 #@! TO.P,U3,3*
G04 #@! TO.N,Net-(R6-Pad2)*
X108957000Y-88168000D03*
G04 #@! TO.P,U3,2*
G04 #@! TO.N,+3V3*
X108957000Y-87518000D03*
G04 #@! TO.P,U3,1*
G04 #@! TO.N,5V-REF*
X108957000Y-86868000D03*
G04 #@! TD*
G04 #@! TO.P,U4,1*
G04 #@! TO.N,5V-REF*
X124342000Y-88900000D03*
G04 #@! TO.P,U4,2*
G04 #@! TO.N,+3V3*
X124342000Y-88250000D03*
G04 #@! TO.P,U4,3*
G04 #@! TO.N,Net-(R8-Pad2)*
X124342000Y-87600000D03*
G04 #@! TO.P,U4,4*
G04 #@! TO.N,Net-(R7-Pad2)*
X124342000Y-86950000D03*
G04 #@! TO.P,U4,5*
G04 #@! TO.N,+3V3*
X128642000Y-86950000D03*
G04 #@! TO.P,U4,6*
G04 #@! TO.N,4V-REF*
X128642000Y-87600000D03*
G04 #@! TO.P,U4,7*
G04 #@! TO.N,+3V3*
X128642000Y-88250000D03*
G04 #@! TO.P,U4,8*
G04 #@! TO.N,GND*
X128642000Y-88900000D03*
G04 #@! TD*
D18*
G04 #@! TO.N,+3V3*
X110862257Y-84739602D03*
X107188000Y-84709000D03*
X122555000Y-84836000D03*
X116713000Y-84836000D03*
G04 #@! TO.N,GND*
X113284000Y-94674600D03*
X114322516Y-96426774D03*
X115697000Y-86106000D03*
X116078000Y-94869000D03*
G04 #@! TD*
D19*
G04 #@! TO.N,+3V3*
X100965000Y-94234000D02*
X100965000Y-91694000D01*
X100965000Y-86614000D02*
X100965000Y-89154000D01*
X103520000Y-93868000D02*
X102870000Y-93218000D01*
X104539000Y-93868000D02*
X103520000Y-93868000D01*
X103520000Y-92568000D02*
X102870000Y-93218000D01*
X104539000Y-92568000D02*
X103520000Y-92568000D01*
X103485000Y-87518000D02*
X102870000Y-88133000D01*
X104657000Y-87518000D02*
X103485000Y-87518000D01*
X103555000Y-88818000D02*
X102870000Y-88133000D01*
X104657000Y-88818000D02*
X103555000Y-88818000D01*
X129556000Y-86950000D02*
X130302000Y-87696000D01*
X128642000Y-86950000D02*
X129556000Y-86950000D01*
X129748000Y-88250000D02*
X130302000Y-87696000D01*
X128642000Y-88250000D02*
X129748000Y-88250000D01*
X132207000Y-94234000D02*
X132207000Y-91694000D01*
X132207000Y-91694000D02*
X132207000Y-89154000D01*
X127762000Y-96139000D02*
X132207000Y-91694000D01*
X105636800Y-88818000D02*
X105918000Y-89099200D01*
X104657000Y-88818000D02*
X105636800Y-88818000D01*
X105398322Y-92568000D02*
X104539000Y-92568000D01*
X105918000Y-92048322D02*
X105398322Y-92568000D01*
X105918000Y-89099200D02*
X105918000Y-92048322D01*
X102489000Y-93218000D02*
X100965000Y-91694000D01*
X102870000Y-93218000D02*
X102489000Y-93218000D01*
X100965000Y-91694000D02*
X100965000Y-89154000D01*
X105518800Y-93868000D02*
X104539000Y-93868000D01*
X106559200Y-93868000D02*
X105518800Y-93868000D01*
X107859200Y-92568000D02*
X106559200Y-93868000D01*
X108839000Y-92568000D02*
X107859200Y-92568000D01*
X106295810Y-88721390D02*
X105918000Y-89099200D01*
X106295810Y-84723990D02*
X106295810Y-88721390D01*
X107315000Y-83704800D02*
X106295810Y-84723990D01*
X107315000Y-82550000D02*
X107315000Y-83704800D01*
X114636800Y-92187000D02*
X113607000Y-92187000D01*
X114935000Y-92485200D02*
X114636800Y-92187000D01*
X114935000Y-94488000D02*
X114935000Y-92485200D01*
X113792000Y-95631000D02*
X114935000Y-94488000D01*
X100965000Y-94234000D02*
X102362000Y-95631000D01*
X102362000Y-95631000D02*
X113792000Y-95631000D01*
X117729000Y-94765000D02*
X117729000Y-94996000D01*
X117729000Y-96139000D02*
X117729000Y-94996000D01*
X117729000Y-94488000D02*
X117729000Y-94765000D01*
X118760000Y-93487000D02*
X119507000Y-93487000D01*
X117729000Y-94488000D02*
X118745000Y-93472000D01*
X118745000Y-93472000D02*
X118760000Y-93487000D01*
X115726200Y-92485200D02*
X117729000Y-94488000D01*
X114935000Y-92485200D02*
X115726200Y-92485200D01*
X109984401Y-85617458D02*
X110862257Y-84739602D01*
X109984401Y-87470399D02*
X109984401Y-85617458D01*
X108957000Y-87518000D02*
X109936800Y-87518000D01*
X109936800Y-87518000D02*
X109984401Y-87470399D01*
X107188000Y-83831800D02*
X107315000Y-83704800D01*
X107188000Y-84709000D02*
X107188000Y-83831800D01*
X131384000Y-86614000D02*
X130302000Y-87696000D01*
X132207000Y-86614000D02*
X131384000Y-86614000D01*
X128642000Y-88250000D02*
X127662200Y-88250000D01*
X127127000Y-93980000D02*
X124968000Y-96139000D01*
X117729000Y-96139000D02*
X124968000Y-96139000D01*
X124968000Y-96139000D02*
X127762000Y-96139000D01*
X127266200Y-93840800D02*
X127127000Y-93980000D01*
X127266200Y-88646000D02*
X127266200Y-93840800D01*
X127662200Y-88250000D02*
X127266200Y-88646000D01*
X125321800Y-88250000D02*
X125730000Y-87841800D01*
X124342000Y-88250000D02*
X125321800Y-88250000D01*
X125730000Y-87841800D02*
X125730000Y-86106000D01*
X125730000Y-86106000D02*
X125095000Y-85471000D01*
X125095000Y-85471000D02*
X123190000Y-85471000D01*
X123190000Y-85471000D02*
X122555000Y-84836000D01*
X110958655Y-84836000D02*
X110862257Y-84739602D01*
X116713000Y-84836000D02*
X110958655Y-84836000D01*
G04 #@! TO.N,GND*
X103470000Y-91918000D02*
X102870000Y-91318000D01*
X104539000Y-91918000D02*
X103470000Y-91918000D01*
X103505000Y-86868000D02*
X102870000Y-86233000D01*
X104657000Y-86868000D02*
X103505000Y-86868000D01*
X129606000Y-88900000D02*
X130302000Y-89596000D01*
X128642000Y-88900000D02*
X129606000Y-88900000D01*
X125095000Y-81347919D02*
X123757081Y-80010000D01*
X125095000Y-82550000D02*
X125095000Y-81347919D01*
X123757081Y-80010000D02*
X106806769Y-80010000D01*
X103124000Y-86397000D02*
X103124000Y-86172000D01*
X102365191Y-87155809D02*
X103124000Y-86397000D01*
X102365191Y-89908391D02*
X102365191Y-87155809D01*
X102870000Y-90413200D02*
X102365191Y-89908391D01*
X102870000Y-91318000D02*
X102870000Y-90413200D01*
X113607000Y-93487000D02*
X113607000Y-92837000D01*
X99754599Y-94814993D02*
X99754599Y-86033007D01*
X101078606Y-96139000D02*
X99754599Y-94814993D01*
X113607000Y-93487000D02*
X113607000Y-94351600D01*
X113607000Y-94351600D02*
X113284000Y-94674600D01*
X114610290Y-96139000D02*
X114935000Y-96139000D01*
X114322516Y-96426774D02*
X114610290Y-96139000D01*
X115829000Y-96139000D02*
X114935000Y-96139000D01*
X114935000Y-96139000D02*
X101078606Y-96139000D01*
X113607000Y-87637000D02*
X114166000Y-87637000D01*
X114166000Y-87637000D02*
X115697000Y-86106000D01*
X116078000Y-95890000D02*
X115829000Y-96139000D01*
X116078000Y-94869000D02*
X116078000Y-95890000D01*
X99754599Y-86033007D02*
X99754599Y-84268401D01*
X104013000Y-80010000D02*
X106806769Y-80010000D01*
X103124000Y-85267200D02*
X103124000Y-80899000D01*
X103124000Y-86172000D02*
X103124000Y-85267200D01*
X99754599Y-84268401D02*
X103124000Y-80899000D01*
X103124000Y-80899000D02*
X104013000Y-80010000D01*
X126297081Y-82550000D02*
X125095000Y-82550000D01*
X129934394Y-82550000D02*
X126297081Y-82550000D01*
X130302000Y-89596000D02*
X130302000Y-89281000D01*
X130302000Y-89281000D02*
X131758599Y-87824401D01*
X131758599Y-87824401D02*
X132787993Y-87824401D01*
X132787993Y-87824401D02*
X133417401Y-87194993D01*
X133417401Y-87194993D02*
X133417401Y-86033007D01*
X133417401Y-86033007D02*
X129934394Y-82550000D01*
G04 #@! TO.N,I2C_SCL*
X121554000Y-92187000D02*
X122047000Y-91694000D01*
X119507000Y-92187000D02*
X121554000Y-92187000D01*
X122047000Y-91694000D02*
X124460000Y-91694000D01*
X124460000Y-91694000D02*
X126761390Y-89392610D01*
X124460000Y-84455000D02*
X122555000Y-82550000D01*
X126761390Y-89392610D02*
X126746000Y-89377220D01*
X126746000Y-89377220D02*
X126746000Y-84963000D01*
X126746000Y-84963000D02*
X126238000Y-84455000D01*
X126238000Y-84455000D02*
X124460000Y-84455000D01*
G04 #@! TO.N,I2C_SDA*
X120650000Y-92837000D02*
X122047000Y-94234000D01*
X119507000Y-92837000D02*
X120650000Y-92837000D01*
X118237000Y-92596800D02*
X118237000Y-84328000D01*
X118477200Y-92837000D02*
X118237000Y-92596800D01*
X119507000Y-92837000D02*
X118477200Y-92837000D01*
X118237000Y-84328000D02*
X120015000Y-82550000D01*
G04 #@! TO.N,4V-REF*
X117475000Y-81026000D02*
X117475000Y-82550000D01*
X117983000Y-80518000D02*
X117475000Y-81026000D01*
X122302554Y-80518000D02*
X117983000Y-80518000D01*
X123825000Y-82040446D02*
X122302554Y-80518000D01*
X123825000Y-83058000D02*
X123825000Y-82040446D01*
X128642000Y-87600000D02*
X127635000Y-87600000D01*
X127635000Y-87600000D02*
X127508000Y-87473000D01*
X127508000Y-87473000D02*
X127508000Y-84836000D01*
X127508000Y-84836000D02*
X126619000Y-83947000D01*
X126619000Y-83947000D02*
X124714000Y-83947000D01*
X124714000Y-83947000D02*
X123825000Y-83058000D01*
G04 #@! TO.N,2V5-REF*
X104657000Y-88168000D02*
X105516322Y-88168000D01*
X105791000Y-81739678D02*
X105791000Y-87893322D01*
X106755488Y-80775190D02*
X105791000Y-81739678D01*
X112399744Y-80775190D02*
X106755488Y-80775190D01*
X114174554Y-82550000D02*
X112399744Y-80775190D01*
X114935000Y-82550000D02*
X114174554Y-82550000D01*
X105516322Y-88168000D02*
X105791000Y-87893322D01*
G04 #@! TO.N,1V-REF*
X105518800Y-93218000D02*
X107188000Y-91548800D01*
X104539000Y-93218000D02*
X105518800Y-93218000D01*
X112395000Y-82550000D02*
X111125000Y-81280000D01*
X109345446Y-81280000D02*
X108585000Y-82040446D01*
X111125000Y-81280000D02*
X109345446Y-81280000D01*
X107188000Y-86408091D02*
X107188000Y-86614000D01*
X108585000Y-85011091D02*
X107188000Y-86408091D01*
X108585000Y-82040446D02*
X108585000Y-85011091D01*
X107188000Y-91548800D02*
X107188000Y-86614000D01*
G04 #@! TO.N,5V-REF*
X108957000Y-86868000D02*
X108957000Y-85353000D01*
X109855000Y-84455000D02*
X109855000Y-82550000D01*
X108957000Y-85353000D02*
X109855000Y-84455000D01*
X108839000Y-91413200D02*
X107823000Y-90397200D01*
X108839000Y-91918000D02*
X108839000Y-91413200D01*
X107977200Y-86868000D02*
X108957000Y-86868000D01*
X107823000Y-87022200D02*
X107977200Y-86868000D01*
X107823000Y-90397200D02*
X107823000Y-87022200D01*
X111125000Y-83820000D02*
X109855000Y-82550000D01*
X125603000Y-84963000D02*
X124206000Y-84963000D01*
X126238000Y-85598000D02*
X125603000Y-84963000D01*
X126238000Y-88639620D02*
X126238000Y-85598000D01*
X126241190Y-88642810D02*
X126238000Y-88639620D01*
X125984000Y-88900000D02*
X126241190Y-88642810D01*
X124342000Y-88900000D02*
X125984000Y-88900000D01*
X124206000Y-84963000D02*
X122995401Y-83752401D01*
X122995401Y-83752401D02*
X121725401Y-83752401D01*
X121725401Y-83752401D02*
X121352599Y-83379599D01*
X121352599Y-83379599D02*
X121352599Y-81982599D01*
X121352599Y-81982599D02*
X120717599Y-81347599D01*
X117984554Y-83820000D02*
X111125000Y-83820000D01*
X120717599Y-81347599D02*
X119312401Y-81347599D01*
X119312401Y-81347599D02*
X118677401Y-81982599D01*
X118677401Y-81982599D02*
X118677401Y-83127153D01*
X118677401Y-83127153D02*
X117984554Y-83820000D01*
G04 #@! TO.N,Net-(R3-Pad2)*
X110759000Y-93868000D02*
X111125000Y-94234000D01*
X108839000Y-93868000D02*
X110759000Y-93868000D01*
X111982999Y-93376001D02*
X111125000Y-94234000D01*
X112208401Y-93150599D02*
X111982999Y-93376001D01*
X112208401Y-91351277D02*
X112208401Y-93150599D01*
X112672678Y-90887000D02*
X112208401Y-91351277D01*
X113607000Y-90887000D02*
X112672678Y-90887000D01*
G04 #@! TO.N,Net-(R4-Pad2)*
X111125000Y-91689200D02*
X111125000Y-91694000D01*
X112577200Y-90237000D02*
X111125000Y-91689200D01*
X113607000Y-90237000D02*
X112577200Y-90237000D01*
X109601000Y-93218000D02*
X111125000Y-91694000D01*
X108839000Y-93218000D02*
X109601000Y-93218000D01*
G04 #@! TO.N,Net-(R5-Pad2)*
X111342000Y-88937000D02*
X111125000Y-89154000D01*
X113607000Y-88937000D02*
X111342000Y-88937000D01*
X110789000Y-88818000D02*
X111125000Y-89154000D01*
X108957000Y-88818000D02*
X110789000Y-88818000D01*
G04 #@! TO.N,Net-(R6-Pad2)*
X113607000Y-88287000D02*
X112577200Y-88287000D01*
X108957000Y-88168000D02*
X109728000Y-88168000D01*
X109728000Y-88168000D02*
X110206000Y-88168000D01*
X111125000Y-87249000D02*
X111125000Y-86360000D01*
X110617000Y-87757000D02*
X112047200Y-87757000D01*
X112577200Y-88287000D02*
X112047200Y-87757000D01*
X110617000Y-87757000D02*
X111125000Y-87249000D01*
X110206000Y-88168000D02*
X110617000Y-87757000D01*
G04 #@! TO.N,Net-(R7-Pad2)*
X122047000Y-86776800D02*
X122047000Y-86614000D01*
X120536800Y-88287000D02*
X122047000Y-86776800D01*
X119507000Y-88287000D02*
X120536800Y-88287000D01*
X122383000Y-86950000D02*
X122047000Y-86614000D01*
X124342000Y-86950000D02*
X122383000Y-86950000D01*
G04 #@! TO.N,Net-(R8-Pad2)*
X121830000Y-88937000D02*
X122047000Y-89154000D01*
X119507000Y-88937000D02*
X121830000Y-88937000D01*
X122047000Y-88915200D02*
X122047000Y-89154000D01*
X123362200Y-87600000D02*
X122047000Y-88915200D01*
X124342000Y-87600000D02*
X123362200Y-87600000D01*
G04 #@! TD*
M02*
