M48
;DRILL file {KiCad (5.0.0)} date 09/08/18 20:17:45
;FORMAT={-:-/ absolute / metric / decimal}
FMAT,2
METRIC,TZ
T1C0.700
T2C1.000
%
G90
G05
M71
T1
X107.188Y-84.709
X110.862Y-84.74
X113.284Y-94.675
X114.323Y-96.427
X115.697Y-86.106
X116.078Y-94.869
X116.713Y-84.836
X122.555Y-84.836
X122.047Y-94.234
X132.207Y-94.234
X100.965Y-91.694
X111.125Y-91.694
X100.965Y-94.234
X111.125Y-94.234
X100.965Y-86.36
X111.125Y-86.36
X122.047Y-89.154
X132.207Y-89.154
X122.047Y-91.694
X132.207Y-91.694
X100.965Y-89.154
X111.125Y-89.154
X122.047Y-86.614
X132.207Y-86.614
T2
X107.315Y-82.55
X109.855Y-82.55
X112.395Y-82.55
X114.935Y-82.55
X117.475Y-82.55
X120.015Y-82.55
X122.555Y-82.55
X125.095Y-82.55
T0
M30
