%FSLAX45Y45*%
G04 Gerber Fmt 4.5, Leading zero omitted, Abs format (unit mm)*
G04 Created by KiCad (PCBNEW (5.0.0)) date 09/08/18 20:17:46*
%MOMM*%
%LPD*%
G01*
G04 APERTURE LIST*
%ADD10C,0.200000*%
%ADD11C,0.300000*%
G04 APERTURE END LIST*
D10*
X9906000Y-9779000D02*
X9906000Y-7874000D01*
X13462000Y-9779000D02*
X9906000Y-9779000D01*
X13462000Y-7874000D02*
X13462000Y-9779000D01*
X9906000Y-7874000D02*
X13462000Y-7874000D01*
D10*
D11*
X10182428Y-10254714D02*
X10182428Y-9954714D01*
X10253857Y-9954714D01*
X10296714Y-9969000D01*
X10325286Y-9997572D01*
X10339571Y-10026143D01*
X10353857Y-10083286D01*
X10353857Y-10126143D01*
X10339571Y-10183286D01*
X10325286Y-10211857D01*
X10296714Y-10240429D01*
X10253857Y-10254714D01*
X10182428Y-10254714D01*
X10482428Y-10254714D02*
X10482428Y-10054714D01*
X10482428Y-10111857D02*
X10496714Y-10083286D01*
X10511000Y-10069000D01*
X10539571Y-10054714D01*
X10568143Y-10054714D01*
X10668143Y-10254714D02*
X10668143Y-10054714D01*
X10668143Y-9954714D02*
X10653857Y-9969000D01*
X10668143Y-9983286D01*
X10682428Y-9969000D01*
X10668143Y-9954714D01*
X10668143Y-9983286D01*
X10853857Y-10254714D02*
X10825286Y-10240429D01*
X10811000Y-10211857D01*
X10811000Y-9954714D01*
X11011000Y-10254714D02*
X10982428Y-10240429D01*
X10968143Y-10211857D01*
X10968143Y-9954714D01*
X11353857Y-10254714D02*
X11353857Y-9954714D01*
X11453857Y-10169000D01*
X11553857Y-9954714D01*
X11553857Y-10254714D01*
X11825286Y-10254714D02*
X11825286Y-10097572D01*
X11811000Y-10069000D01*
X11782428Y-10054714D01*
X11725286Y-10054714D01*
X11696714Y-10069000D01*
X11825286Y-10240429D02*
X11796714Y-10254714D01*
X11725286Y-10254714D01*
X11696714Y-10240429D01*
X11682428Y-10211857D01*
X11682428Y-10183286D01*
X11696714Y-10154714D01*
X11725286Y-10140429D01*
X11796714Y-10140429D01*
X11825286Y-10126143D01*
X11968143Y-10054714D02*
X11968143Y-10354714D01*
X11968143Y-10069000D02*
X11996714Y-10054714D01*
X12053857Y-10054714D01*
X12082428Y-10069000D01*
X12096714Y-10083286D01*
X12111000Y-10111857D01*
X12111000Y-10197572D01*
X12096714Y-10226143D01*
X12082428Y-10240429D01*
X12053857Y-10254714D01*
X11996714Y-10254714D01*
X11968143Y-10240429D01*
X12239571Y-10226143D02*
X12253857Y-10240429D01*
X12239571Y-10254714D01*
X12225286Y-10240429D01*
X12239571Y-10226143D01*
X12239571Y-10254714D01*
X12239571Y-10069000D02*
X12253857Y-10083286D01*
X12239571Y-10097572D01*
X12225286Y-10083286D01*
X12239571Y-10069000D01*
X12239571Y-10097572D01*
M02*
