G04 #@! TF.FileFunction,Legend,Top*
%FSLAX46Y46*%
G04 Gerber Fmt 4.6, Leading zero omitted, Abs format (unit mm)*
G04 Created by KiCad (PCBNEW 4.0.1-stable) date 04/27/17 14:33:25*
%MOMM*%
G01*
G04 APERTURE LIST*
%ADD10C,0.100000*%
%ADD11C,0.150000*%
G04 APERTURE END LIST*
D10*
D11*
X184912000Y-75311000D02*
X184912000Y-75819000D01*
X185166000Y-75565000D02*
X184658000Y-75565000D01*
X187960000Y-74993500D02*
X188087000Y-74866500D01*
X188087000Y-74866500D02*
X188087000Y-71691500D01*
X188087000Y-79502000D02*
X188087000Y-76200000D01*
X188214000Y-79502000D02*
X188214000Y-76390500D01*
X188214000Y-76390500D02*
X188341000Y-76517500D01*
X188341000Y-76517500D02*
X188341000Y-79502000D01*
X188341000Y-79502000D02*
X188468000Y-79502000D01*
X188468000Y-79502000D02*
X188468000Y-76644500D01*
X188468000Y-76644500D02*
X188595000Y-76708000D01*
X188595000Y-76708000D02*
X188595000Y-79502000D01*
X188595000Y-79502000D02*
X188722000Y-79438500D01*
X188722000Y-79438500D02*
X188722000Y-76771500D01*
X188722000Y-76771500D02*
X188849000Y-76835000D01*
X188849000Y-76835000D02*
X188849000Y-79375000D01*
X188849000Y-79375000D02*
X188976000Y-79375000D01*
X188976000Y-79375000D02*
X188976000Y-76835000D01*
X188976000Y-76835000D02*
X189103000Y-76835000D01*
X189103000Y-76835000D02*
X189103000Y-79375000D01*
X189103000Y-79375000D02*
X189230000Y-79311500D01*
X189230000Y-79311500D02*
X189230000Y-76898500D01*
X189230000Y-76898500D02*
X189357000Y-76898500D01*
X189357000Y-76898500D02*
X189357000Y-79248000D01*
X189357000Y-79248000D02*
X189484000Y-79184500D01*
X189484000Y-79184500D02*
X189484000Y-76835000D01*
X189484000Y-76835000D02*
X189611000Y-76771500D01*
X189611000Y-76771500D02*
X189611000Y-79184500D01*
X189611000Y-79184500D02*
X189738000Y-79057500D01*
X189738000Y-79057500D02*
X189738000Y-76771500D01*
X189738000Y-76771500D02*
X189865000Y-76708000D01*
X189865000Y-76708000D02*
X189865000Y-79057500D01*
X189865000Y-79057500D02*
X189992000Y-78930500D01*
X189992000Y-78930500D02*
X189992000Y-76581000D01*
X189992000Y-76581000D02*
X190119000Y-76517500D01*
X190119000Y-76517500D02*
X190119000Y-78930500D01*
X190119000Y-78930500D02*
X190246000Y-78740000D01*
X190246000Y-78740000D02*
X190246000Y-76390500D01*
X190246000Y-76390500D02*
X190373000Y-76200000D01*
X190373000Y-76200000D02*
X190373000Y-78676500D01*
X188214000Y-71628000D02*
X188214000Y-74739500D01*
X188214000Y-74739500D02*
X188341000Y-74612500D01*
X188341000Y-74612500D02*
X188341000Y-71628000D01*
X188341000Y-71628000D02*
X188468000Y-71691500D01*
X188468000Y-71691500D02*
X188468000Y-74485500D01*
X188468000Y-74485500D02*
X188595000Y-74358500D01*
X188595000Y-74358500D02*
X188595000Y-71628000D01*
X188595000Y-71628000D02*
X188722000Y-71691500D01*
X188722000Y-71691500D02*
X188722000Y-74358500D01*
X188722000Y-74358500D02*
X188849000Y-74295000D01*
X188849000Y-74295000D02*
X188849000Y-71755000D01*
X188849000Y-71755000D02*
X188976000Y-71755000D01*
X188976000Y-71755000D02*
X188976000Y-74295000D01*
X188976000Y-74295000D02*
X189103000Y-74295000D01*
X189103000Y-74295000D02*
X189103000Y-71755000D01*
X189103000Y-71755000D02*
X189230000Y-71818500D01*
X189230000Y-71818500D02*
X189230000Y-74295000D01*
X189230000Y-74295000D02*
X189357000Y-74295000D01*
X189357000Y-74295000D02*
X189357000Y-71818500D01*
X189357000Y-71818500D02*
X189484000Y-71882000D01*
X189484000Y-71882000D02*
X189484000Y-74295000D01*
X189484000Y-74295000D02*
X189611000Y-74295000D01*
X189611000Y-74295000D02*
X189611000Y-71945500D01*
X189611000Y-71945500D02*
X189738000Y-72009000D01*
X189738000Y-72009000D02*
X189738000Y-74358500D01*
X189738000Y-74358500D02*
X189865000Y-74422000D01*
X189865000Y-74422000D02*
X189865000Y-72072500D01*
X189865000Y-72072500D02*
X189992000Y-72136000D01*
X189992000Y-72136000D02*
X189992000Y-74549000D01*
X189992000Y-74549000D02*
X190119000Y-74612500D01*
X190119000Y-74612500D02*
X190119000Y-72263000D01*
X190119000Y-72263000D02*
X190246000Y-72326500D01*
X190246000Y-72326500D02*
X190246000Y-74739500D01*
X190246000Y-74739500D02*
X190373000Y-74930000D01*
X190373000Y-74930000D02*
X190373000Y-72453500D01*
X190500000Y-72580500D02*
X190881000Y-72961500D01*
X191452500Y-73660000D02*
X191325500Y-73596500D01*
X191325500Y-73596500D02*
X191135000Y-73533000D01*
X191706500Y-76771500D02*
X191706500Y-76581000D01*
X190627000Y-78422500D02*
X190754000Y-78295500D01*
X191135000Y-77787500D02*
X191198500Y-77724000D01*
X190500000Y-75565000D02*
G75*
G03X190500000Y-75565000I-1270000J0D01*
G01*
X187960000Y-71564500D02*
X187960000Y-79502000D01*
X187960000Y-79502000D02*
X188087000Y-79502000D01*
X190373000Y-72390000D02*
X190500000Y-72517000D01*
X190500000Y-72517000D02*
X190500000Y-78613000D01*
X190500000Y-78613000D02*
X190627000Y-78422500D01*
X190627000Y-78422500D02*
X190627000Y-72707500D01*
X190627000Y-72707500D02*
X190754000Y-72771000D01*
X190754000Y-72771000D02*
X190754000Y-78295500D01*
X190754000Y-78295500D02*
X190881000Y-78168500D01*
X190881000Y-78168500D02*
X190881000Y-72961500D01*
X190881000Y-72961500D02*
X191008000Y-73088500D01*
X191008000Y-73088500D02*
X191008000Y-78041500D01*
X191008000Y-78041500D02*
X191135000Y-77914500D01*
X191135000Y-77914500D02*
X191135000Y-73152000D01*
X191135000Y-73152000D02*
X191262000Y-73406000D01*
X191262000Y-73406000D02*
X191262000Y-77660500D01*
X191262000Y-77660500D02*
X191389000Y-77470000D01*
X191389000Y-77470000D02*
X191389000Y-73660000D01*
X191389000Y-73660000D02*
X191516000Y-73914000D01*
X191516000Y-73914000D02*
X191516000Y-77279500D01*
X191516000Y-77279500D02*
X191643000Y-76898500D01*
X191643000Y-76898500D02*
X191643000Y-74104500D01*
X191643000Y-74104500D02*
X191770000Y-74485500D01*
X191770000Y-74485500D02*
X191770000Y-76581000D01*
X191770000Y-76581000D02*
X191833500Y-76263500D01*
X191833500Y-76263500D02*
X191833500Y-74993500D01*
X191960000Y-75565000D02*
G75*
G03X191960000Y-75565000I-4000000J0D01*
G01*
X190500000Y-68580000D02*
X193040000Y-68580000D01*
X193040000Y-68580000D02*
X193040000Y-71120000D01*
X193040000Y-71120000D02*
X190500000Y-71120000D01*
X187960000Y-71120000D02*
X185420000Y-71120000D01*
X185420000Y-71120000D02*
X185420000Y-68580000D01*
X185420000Y-68580000D02*
X187960000Y-68580000D01*
X187960000Y-68580000D02*
X190500000Y-68580000D01*
X187960000Y-71120000D02*
X190500000Y-71120000D01*
X178435000Y-80010000D02*
X175895000Y-80010000D01*
X175895000Y-80010000D02*
X175895000Y-77470000D01*
X175895000Y-77470000D02*
X178435000Y-77470000D01*
X180975000Y-77470000D02*
X183515000Y-77470000D01*
X183515000Y-77470000D02*
X183515000Y-80010000D01*
X183515000Y-80010000D02*
X180975000Y-80010000D01*
X180975000Y-80010000D02*
X178435000Y-80010000D01*
X180975000Y-77470000D02*
X178435000Y-77470000D01*
X158115000Y-67310000D02*
X155575000Y-67310000D01*
X155575000Y-67310000D02*
X155575000Y-64770000D01*
X155575000Y-64770000D02*
X158115000Y-64770000D01*
X160655000Y-64770000D02*
X163195000Y-64770000D01*
X163195000Y-64770000D02*
X163195000Y-67310000D01*
X163195000Y-67310000D02*
X160655000Y-67310000D01*
X160655000Y-67310000D02*
X158115000Y-67310000D01*
X160655000Y-64770000D02*
X158115000Y-64770000D01*
X199898000Y-75819000D02*
X199898000Y-75311000D01*
X199644000Y-75565000D02*
X200152000Y-75565000D01*
X196850000Y-76136500D02*
X196723000Y-76263500D01*
X196723000Y-76263500D02*
X196723000Y-79438500D01*
X196723000Y-71628000D02*
X196723000Y-74930000D01*
X196596000Y-71628000D02*
X196596000Y-74739500D01*
X196596000Y-74739500D02*
X196469000Y-74612500D01*
X196469000Y-74612500D02*
X196469000Y-71628000D01*
X196469000Y-71628000D02*
X196342000Y-71628000D01*
X196342000Y-71628000D02*
X196342000Y-74485500D01*
X196342000Y-74485500D02*
X196215000Y-74422000D01*
X196215000Y-74422000D02*
X196215000Y-71628000D01*
X196215000Y-71628000D02*
X196088000Y-71691500D01*
X196088000Y-71691500D02*
X196088000Y-74358500D01*
X196088000Y-74358500D02*
X195961000Y-74295000D01*
X195961000Y-74295000D02*
X195961000Y-71755000D01*
X195961000Y-71755000D02*
X195834000Y-71755000D01*
X195834000Y-71755000D02*
X195834000Y-74295000D01*
X195834000Y-74295000D02*
X195707000Y-74295000D01*
X195707000Y-74295000D02*
X195707000Y-71755000D01*
X195707000Y-71755000D02*
X195580000Y-71818500D01*
X195580000Y-71818500D02*
X195580000Y-74231500D01*
X195580000Y-74231500D02*
X195453000Y-74231500D01*
X195453000Y-74231500D02*
X195453000Y-71882000D01*
X195453000Y-71882000D02*
X195326000Y-71945500D01*
X195326000Y-71945500D02*
X195326000Y-74295000D01*
X195326000Y-74295000D02*
X195199000Y-74358500D01*
X195199000Y-74358500D02*
X195199000Y-71945500D01*
X195199000Y-71945500D02*
X195072000Y-72072500D01*
X195072000Y-72072500D02*
X195072000Y-74358500D01*
X195072000Y-74358500D02*
X194945000Y-74422000D01*
X194945000Y-74422000D02*
X194945000Y-72072500D01*
X194945000Y-72072500D02*
X194818000Y-72199500D01*
X194818000Y-72199500D02*
X194818000Y-74549000D01*
X194818000Y-74549000D02*
X194691000Y-74612500D01*
X194691000Y-74612500D02*
X194691000Y-72199500D01*
X194691000Y-72199500D02*
X194564000Y-72390000D01*
X194564000Y-72390000D02*
X194564000Y-74739500D01*
X194564000Y-74739500D02*
X194437000Y-74930000D01*
X194437000Y-74930000D02*
X194437000Y-72453500D01*
X196596000Y-79502000D02*
X196596000Y-76390500D01*
X196596000Y-76390500D02*
X196469000Y-76517500D01*
X196469000Y-76517500D02*
X196469000Y-79502000D01*
X196469000Y-79502000D02*
X196342000Y-79438500D01*
X196342000Y-79438500D02*
X196342000Y-76644500D01*
X196342000Y-76644500D02*
X196215000Y-76771500D01*
X196215000Y-76771500D02*
X196215000Y-79502000D01*
X196215000Y-79502000D02*
X196088000Y-79438500D01*
X196088000Y-79438500D02*
X196088000Y-76771500D01*
X196088000Y-76771500D02*
X195961000Y-76835000D01*
X195961000Y-76835000D02*
X195961000Y-79375000D01*
X195961000Y-79375000D02*
X195834000Y-79375000D01*
X195834000Y-79375000D02*
X195834000Y-76835000D01*
X195834000Y-76835000D02*
X195707000Y-76835000D01*
X195707000Y-76835000D02*
X195707000Y-79375000D01*
X195707000Y-79375000D02*
X195580000Y-79311500D01*
X195580000Y-79311500D02*
X195580000Y-76835000D01*
X195580000Y-76835000D02*
X195453000Y-76835000D01*
X195453000Y-76835000D02*
X195453000Y-79311500D01*
X195453000Y-79311500D02*
X195326000Y-79248000D01*
X195326000Y-79248000D02*
X195326000Y-76835000D01*
X195326000Y-76835000D02*
X195199000Y-76835000D01*
X195199000Y-76835000D02*
X195199000Y-79184500D01*
X195199000Y-79184500D02*
X195072000Y-79121000D01*
X195072000Y-79121000D02*
X195072000Y-76771500D01*
X195072000Y-76771500D02*
X194945000Y-76708000D01*
X194945000Y-76708000D02*
X194945000Y-79057500D01*
X194945000Y-79057500D02*
X194818000Y-78994000D01*
X194818000Y-78994000D02*
X194818000Y-76581000D01*
X194818000Y-76581000D02*
X194691000Y-76517500D01*
X194691000Y-76517500D02*
X194691000Y-78867000D01*
X194691000Y-78867000D02*
X194564000Y-78803500D01*
X194564000Y-78803500D02*
X194564000Y-76390500D01*
X194564000Y-76390500D02*
X194437000Y-76200000D01*
X194437000Y-76200000D02*
X194437000Y-78676500D01*
X194310000Y-78549500D02*
X193929000Y-78168500D01*
X193357500Y-77470000D02*
X193484500Y-77533500D01*
X193484500Y-77533500D02*
X193675000Y-77597000D01*
X193103500Y-74358500D02*
X193103500Y-74549000D01*
X194183000Y-72707500D02*
X194056000Y-72834500D01*
X193675000Y-73342500D02*
X193611500Y-73406000D01*
X196850000Y-75565000D02*
G75*
G03X196850000Y-75565000I-1270000J0D01*
G01*
X196850000Y-79565500D02*
X196850000Y-71628000D01*
X196850000Y-71628000D02*
X196723000Y-71628000D01*
X194437000Y-78740000D02*
X194310000Y-78613000D01*
X194310000Y-78613000D02*
X194310000Y-72517000D01*
X194310000Y-72517000D02*
X194183000Y-72707500D01*
X194183000Y-72707500D02*
X194183000Y-78422500D01*
X194183000Y-78422500D02*
X194056000Y-78359000D01*
X194056000Y-78359000D02*
X194056000Y-72834500D01*
X194056000Y-72834500D02*
X193929000Y-72961500D01*
X193929000Y-72961500D02*
X193929000Y-78168500D01*
X193929000Y-78168500D02*
X193802000Y-78041500D01*
X193802000Y-78041500D02*
X193802000Y-73088500D01*
X193802000Y-73088500D02*
X193675000Y-73215500D01*
X193675000Y-73215500D02*
X193675000Y-77978000D01*
X193675000Y-77978000D02*
X193548000Y-77724000D01*
X193548000Y-77724000D02*
X193548000Y-73469500D01*
X193548000Y-73469500D02*
X193421000Y-73660000D01*
X193421000Y-73660000D02*
X193421000Y-77470000D01*
X193421000Y-77470000D02*
X193294000Y-77216000D01*
X193294000Y-77216000D02*
X193294000Y-73850500D01*
X193294000Y-73850500D02*
X193167000Y-74231500D01*
X193167000Y-74231500D02*
X193167000Y-77025500D01*
X193167000Y-77025500D02*
X193040000Y-76644500D01*
X193040000Y-76644500D02*
X193040000Y-74549000D01*
X193040000Y-74549000D02*
X192976500Y-74866500D01*
X192976500Y-74866500D02*
X192976500Y-76136500D01*
X200850000Y-75565000D02*
G75*
G03X200850000Y-75565000I-4000000J0D01*
G01*
X182245000Y-92710000D02*
X184785000Y-92710000D01*
X184785000Y-92710000D02*
X184785000Y-95250000D01*
X184785000Y-95250000D02*
X182245000Y-95250000D01*
X179705000Y-95250000D02*
X177165000Y-95250000D01*
X177165000Y-95250000D02*
X177165000Y-92710000D01*
X177165000Y-92710000D02*
X179705000Y-92710000D01*
X179705000Y-92710000D02*
X182245000Y-92710000D01*
X179705000Y-95250000D02*
X182245000Y-95250000D01*
X187452000Y-96901000D02*
X187452000Y-97409000D01*
X187706000Y-97155000D02*
X187198000Y-97155000D01*
X190500000Y-96583500D02*
X190627000Y-96456500D01*
X190627000Y-96456500D02*
X190627000Y-93281500D01*
X190627000Y-101092000D02*
X190627000Y-97790000D01*
X190754000Y-101092000D02*
X190754000Y-97980500D01*
X190754000Y-97980500D02*
X190881000Y-98107500D01*
X190881000Y-98107500D02*
X190881000Y-101092000D01*
X190881000Y-101092000D02*
X191008000Y-101092000D01*
X191008000Y-101092000D02*
X191008000Y-98234500D01*
X191008000Y-98234500D02*
X191135000Y-98298000D01*
X191135000Y-98298000D02*
X191135000Y-101092000D01*
X191135000Y-101092000D02*
X191262000Y-101028500D01*
X191262000Y-101028500D02*
X191262000Y-98361500D01*
X191262000Y-98361500D02*
X191389000Y-98425000D01*
X191389000Y-98425000D02*
X191389000Y-100965000D01*
X191389000Y-100965000D02*
X191516000Y-100965000D01*
X191516000Y-100965000D02*
X191516000Y-98425000D01*
X191516000Y-98425000D02*
X191643000Y-98425000D01*
X191643000Y-98425000D02*
X191643000Y-100965000D01*
X191643000Y-100965000D02*
X191770000Y-100901500D01*
X191770000Y-100901500D02*
X191770000Y-98488500D01*
X191770000Y-98488500D02*
X191897000Y-98488500D01*
X191897000Y-98488500D02*
X191897000Y-100838000D01*
X191897000Y-100838000D02*
X192024000Y-100774500D01*
X192024000Y-100774500D02*
X192024000Y-98425000D01*
X192024000Y-98425000D02*
X192151000Y-98361500D01*
X192151000Y-98361500D02*
X192151000Y-100774500D01*
X192151000Y-100774500D02*
X192278000Y-100647500D01*
X192278000Y-100647500D02*
X192278000Y-98361500D01*
X192278000Y-98361500D02*
X192405000Y-98298000D01*
X192405000Y-98298000D02*
X192405000Y-100647500D01*
X192405000Y-100647500D02*
X192532000Y-100520500D01*
X192532000Y-100520500D02*
X192532000Y-98171000D01*
X192532000Y-98171000D02*
X192659000Y-98107500D01*
X192659000Y-98107500D02*
X192659000Y-100520500D01*
X192659000Y-100520500D02*
X192786000Y-100330000D01*
X192786000Y-100330000D02*
X192786000Y-97980500D01*
X192786000Y-97980500D02*
X192913000Y-97790000D01*
X192913000Y-97790000D02*
X192913000Y-100266500D01*
X190754000Y-93218000D02*
X190754000Y-96329500D01*
X190754000Y-96329500D02*
X190881000Y-96202500D01*
X190881000Y-96202500D02*
X190881000Y-93218000D01*
X190881000Y-93218000D02*
X191008000Y-93281500D01*
X191008000Y-93281500D02*
X191008000Y-96075500D01*
X191008000Y-96075500D02*
X191135000Y-95948500D01*
X191135000Y-95948500D02*
X191135000Y-93218000D01*
X191135000Y-93218000D02*
X191262000Y-93281500D01*
X191262000Y-93281500D02*
X191262000Y-95948500D01*
X191262000Y-95948500D02*
X191389000Y-95885000D01*
X191389000Y-95885000D02*
X191389000Y-93345000D01*
X191389000Y-93345000D02*
X191516000Y-93345000D01*
X191516000Y-93345000D02*
X191516000Y-95885000D01*
X191516000Y-95885000D02*
X191643000Y-95885000D01*
X191643000Y-95885000D02*
X191643000Y-93345000D01*
X191643000Y-93345000D02*
X191770000Y-93408500D01*
X191770000Y-93408500D02*
X191770000Y-95885000D01*
X191770000Y-95885000D02*
X191897000Y-95885000D01*
X191897000Y-95885000D02*
X191897000Y-93408500D01*
X191897000Y-93408500D02*
X192024000Y-93472000D01*
X192024000Y-93472000D02*
X192024000Y-95885000D01*
X192024000Y-95885000D02*
X192151000Y-95885000D01*
X192151000Y-95885000D02*
X192151000Y-93535500D01*
X192151000Y-93535500D02*
X192278000Y-93599000D01*
X192278000Y-93599000D02*
X192278000Y-95948500D01*
X192278000Y-95948500D02*
X192405000Y-96012000D01*
X192405000Y-96012000D02*
X192405000Y-93662500D01*
X192405000Y-93662500D02*
X192532000Y-93726000D01*
X192532000Y-93726000D02*
X192532000Y-96139000D01*
X192532000Y-96139000D02*
X192659000Y-96202500D01*
X192659000Y-96202500D02*
X192659000Y-93853000D01*
X192659000Y-93853000D02*
X192786000Y-93916500D01*
X192786000Y-93916500D02*
X192786000Y-96329500D01*
X192786000Y-96329500D02*
X192913000Y-96520000D01*
X192913000Y-96520000D02*
X192913000Y-94043500D01*
X193040000Y-94170500D02*
X193421000Y-94551500D01*
X193992500Y-95250000D02*
X193865500Y-95186500D01*
X193865500Y-95186500D02*
X193675000Y-95123000D01*
X194246500Y-98361500D02*
X194246500Y-98171000D01*
X193167000Y-100012500D02*
X193294000Y-99885500D01*
X193675000Y-99377500D02*
X193738500Y-99314000D01*
X193040000Y-97155000D02*
G75*
G03X193040000Y-97155000I-1270000J0D01*
G01*
X190500000Y-93154500D02*
X190500000Y-101092000D01*
X190500000Y-101092000D02*
X190627000Y-101092000D01*
X192913000Y-93980000D02*
X193040000Y-94107000D01*
X193040000Y-94107000D02*
X193040000Y-100203000D01*
X193040000Y-100203000D02*
X193167000Y-100012500D01*
X193167000Y-100012500D02*
X193167000Y-94297500D01*
X193167000Y-94297500D02*
X193294000Y-94361000D01*
X193294000Y-94361000D02*
X193294000Y-99885500D01*
X193294000Y-99885500D02*
X193421000Y-99758500D01*
X193421000Y-99758500D02*
X193421000Y-94551500D01*
X193421000Y-94551500D02*
X193548000Y-94678500D01*
X193548000Y-94678500D02*
X193548000Y-99631500D01*
X193548000Y-99631500D02*
X193675000Y-99504500D01*
X193675000Y-99504500D02*
X193675000Y-94742000D01*
X193675000Y-94742000D02*
X193802000Y-94996000D01*
X193802000Y-94996000D02*
X193802000Y-99250500D01*
X193802000Y-99250500D02*
X193929000Y-99060000D01*
X193929000Y-99060000D02*
X193929000Y-95250000D01*
X193929000Y-95250000D02*
X194056000Y-95504000D01*
X194056000Y-95504000D02*
X194056000Y-98869500D01*
X194056000Y-98869500D02*
X194183000Y-98488500D01*
X194183000Y-98488500D02*
X194183000Y-95694500D01*
X194183000Y-95694500D02*
X194310000Y-96075500D01*
X194310000Y-96075500D02*
X194310000Y-98171000D01*
X194310000Y-98171000D02*
X194373500Y-97853500D01*
X194373500Y-97853500D02*
X194373500Y-96583500D01*
X194500000Y-97155000D02*
G75*
G03X194500000Y-97155000I-4000000J0D01*
G01*
X197485000Y-100965000D02*
X197485000Y-103505000D01*
X197485000Y-103505000D02*
X194945000Y-103505000D01*
X194945000Y-103505000D02*
X194945000Y-100965000D01*
X194945000Y-98425000D02*
X194945000Y-95885000D01*
X194945000Y-95885000D02*
X197485000Y-95885000D01*
X197485000Y-95885000D02*
X197485000Y-98425000D01*
X197485000Y-98425000D02*
X197485000Y-100965000D01*
X194945000Y-98425000D02*
X194945000Y-100965000D01*
X172085000Y-81280000D02*
X174625000Y-81280000D01*
X174625000Y-81280000D02*
X174625000Y-83820000D01*
X174625000Y-83820000D02*
X172085000Y-83820000D01*
X169545000Y-83820000D02*
X167005000Y-83820000D01*
X167005000Y-83820000D02*
X167005000Y-81280000D01*
X167005000Y-81280000D02*
X169545000Y-81280000D01*
X169545000Y-81280000D02*
X172085000Y-81280000D01*
X169545000Y-83820000D02*
X172085000Y-83820000D01*
X158115000Y-80010000D02*
X160655000Y-80010000D01*
X160655000Y-80010000D02*
X160655000Y-82550000D01*
X160655000Y-82550000D02*
X158115000Y-82550000D01*
X155575000Y-82550000D02*
X153035000Y-82550000D01*
X153035000Y-82550000D02*
X153035000Y-80010000D01*
X153035000Y-80010000D02*
X155575000Y-80010000D01*
X155575000Y-80010000D02*
X158115000Y-80010000D01*
X155575000Y-82550000D02*
X158115000Y-82550000D01*
X149352000Y-87376000D02*
X149352000Y-87884000D01*
X149606000Y-87630000D02*
X149098000Y-87630000D01*
X152400000Y-87058500D02*
X152527000Y-86931500D01*
X152527000Y-86931500D02*
X152527000Y-83756500D01*
X152527000Y-91567000D02*
X152527000Y-88265000D01*
X152654000Y-91567000D02*
X152654000Y-88455500D01*
X152654000Y-88455500D02*
X152781000Y-88582500D01*
X152781000Y-88582500D02*
X152781000Y-91567000D01*
X152781000Y-91567000D02*
X152908000Y-91567000D01*
X152908000Y-91567000D02*
X152908000Y-88709500D01*
X152908000Y-88709500D02*
X153035000Y-88773000D01*
X153035000Y-88773000D02*
X153035000Y-91567000D01*
X153035000Y-91567000D02*
X153162000Y-91503500D01*
X153162000Y-91503500D02*
X153162000Y-88836500D01*
X153162000Y-88836500D02*
X153289000Y-88900000D01*
X153289000Y-88900000D02*
X153289000Y-91440000D01*
X153289000Y-91440000D02*
X153416000Y-91440000D01*
X153416000Y-91440000D02*
X153416000Y-88900000D01*
X153416000Y-88900000D02*
X153543000Y-88900000D01*
X153543000Y-88900000D02*
X153543000Y-91440000D01*
X153543000Y-91440000D02*
X153670000Y-91376500D01*
X153670000Y-91376500D02*
X153670000Y-88963500D01*
X153670000Y-88963500D02*
X153797000Y-88963500D01*
X153797000Y-88963500D02*
X153797000Y-91313000D01*
X153797000Y-91313000D02*
X153924000Y-91249500D01*
X153924000Y-91249500D02*
X153924000Y-88900000D01*
X153924000Y-88900000D02*
X154051000Y-88836500D01*
X154051000Y-88836500D02*
X154051000Y-91249500D01*
X154051000Y-91249500D02*
X154178000Y-91122500D01*
X154178000Y-91122500D02*
X154178000Y-88836500D01*
X154178000Y-88836500D02*
X154305000Y-88773000D01*
X154305000Y-88773000D02*
X154305000Y-91122500D01*
X154305000Y-91122500D02*
X154432000Y-90995500D01*
X154432000Y-90995500D02*
X154432000Y-88646000D01*
X154432000Y-88646000D02*
X154559000Y-88582500D01*
X154559000Y-88582500D02*
X154559000Y-90995500D01*
X154559000Y-90995500D02*
X154686000Y-90805000D01*
X154686000Y-90805000D02*
X154686000Y-88455500D01*
X154686000Y-88455500D02*
X154813000Y-88265000D01*
X154813000Y-88265000D02*
X154813000Y-90741500D01*
X152654000Y-83693000D02*
X152654000Y-86804500D01*
X152654000Y-86804500D02*
X152781000Y-86677500D01*
X152781000Y-86677500D02*
X152781000Y-83693000D01*
X152781000Y-83693000D02*
X152908000Y-83756500D01*
X152908000Y-83756500D02*
X152908000Y-86550500D01*
X152908000Y-86550500D02*
X153035000Y-86423500D01*
X153035000Y-86423500D02*
X153035000Y-83693000D01*
X153035000Y-83693000D02*
X153162000Y-83756500D01*
X153162000Y-83756500D02*
X153162000Y-86423500D01*
X153162000Y-86423500D02*
X153289000Y-86360000D01*
X153289000Y-86360000D02*
X153289000Y-83820000D01*
X153289000Y-83820000D02*
X153416000Y-83820000D01*
X153416000Y-83820000D02*
X153416000Y-86360000D01*
X153416000Y-86360000D02*
X153543000Y-86360000D01*
X153543000Y-86360000D02*
X153543000Y-83820000D01*
X153543000Y-83820000D02*
X153670000Y-83883500D01*
X153670000Y-83883500D02*
X153670000Y-86360000D01*
X153670000Y-86360000D02*
X153797000Y-86360000D01*
X153797000Y-86360000D02*
X153797000Y-83883500D01*
X153797000Y-83883500D02*
X153924000Y-83947000D01*
X153924000Y-83947000D02*
X153924000Y-86360000D01*
X153924000Y-86360000D02*
X154051000Y-86360000D01*
X154051000Y-86360000D02*
X154051000Y-84010500D01*
X154051000Y-84010500D02*
X154178000Y-84074000D01*
X154178000Y-84074000D02*
X154178000Y-86423500D01*
X154178000Y-86423500D02*
X154305000Y-86487000D01*
X154305000Y-86487000D02*
X154305000Y-84137500D01*
X154305000Y-84137500D02*
X154432000Y-84201000D01*
X154432000Y-84201000D02*
X154432000Y-86614000D01*
X154432000Y-86614000D02*
X154559000Y-86677500D01*
X154559000Y-86677500D02*
X154559000Y-84328000D01*
X154559000Y-84328000D02*
X154686000Y-84391500D01*
X154686000Y-84391500D02*
X154686000Y-86804500D01*
X154686000Y-86804500D02*
X154813000Y-86995000D01*
X154813000Y-86995000D02*
X154813000Y-84518500D01*
X154940000Y-84645500D02*
X155321000Y-85026500D01*
X155892500Y-85725000D02*
X155765500Y-85661500D01*
X155765500Y-85661500D02*
X155575000Y-85598000D01*
X156146500Y-88836500D02*
X156146500Y-88646000D01*
X155067000Y-90487500D02*
X155194000Y-90360500D01*
X155575000Y-89852500D02*
X155638500Y-89789000D01*
X154940000Y-87630000D02*
G75*
G03X154940000Y-87630000I-1270000J0D01*
G01*
X152400000Y-83629500D02*
X152400000Y-91567000D01*
X152400000Y-91567000D02*
X152527000Y-91567000D01*
X154813000Y-84455000D02*
X154940000Y-84582000D01*
X154940000Y-84582000D02*
X154940000Y-90678000D01*
X154940000Y-90678000D02*
X155067000Y-90487500D01*
X155067000Y-90487500D02*
X155067000Y-84772500D01*
X155067000Y-84772500D02*
X155194000Y-84836000D01*
X155194000Y-84836000D02*
X155194000Y-90360500D01*
X155194000Y-90360500D02*
X155321000Y-90233500D01*
X155321000Y-90233500D02*
X155321000Y-85026500D01*
X155321000Y-85026500D02*
X155448000Y-85153500D01*
X155448000Y-85153500D02*
X155448000Y-90106500D01*
X155448000Y-90106500D02*
X155575000Y-89979500D01*
X155575000Y-89979500D02*
X155575000Y-85217000D01*
X155575000Y-85217000D02*
X155702000Y-85471000D01*
X155702000Y-85471000D02*
X155702000Y-89725500D01*
X155702000Y-89725500D02*
X155829000Y-89535000D01*
X155829000Y-89535000D02*
X155829000Y-85725000D01*
X155829000Y-85725000D02*
X155956000Y-85979000D01*
X155956000Y-85979000D02*
X155956000Y-89344500D01*
X155956000Y-89344500D02*
X156083000Y-88963500D01*
X156083000Y-88963500D02*
X156083000Y-86169500D01*
X156083000Y-86169500D02*
X156210000Y-86550500D01*
X156210000Y-86550500D02*
X156210000Y-88646000D01*
X156210000Y-88646000D02*
X156273500Y-88328500D01*
X156273500Y-88328500D02*
X156273500Y-87058500D01*
X156400000Y-87630000D02*
G75*
G03X156400000Y-87630000I-4000000J0D01*
G01*
X149860000Y-94615000D02*
X147320000Y-94615000D01*
X147320000Y-94615000D02*
X147320000Y-92075000D01*
X147320000Y-92075000D02*
X149860000Y-92075000D01*
X152400000Y-92075000D02*
X154940000Y-92075000D01*
X154940000Y-92075000D02*
X154940000Y-94615000D01*
X154940000Y-94615000D02*
X152400000Y-94615000D01*
X152400000Y-94615000D02*
X149860000Y-94615000D01*
X152400000Y-92075000D02*
X149860000Y-92075000D01*
X161036000Y-90678000D02*
X161544000Y-90678000D01*
X161290000Y-90424000D02*
X161290000Y-90932000D01*
X160718500Y-87630000D02*
X160591500Y-87503000D01*
X160591500Y-87503000D02*
X157416500Y-87503000D01*
X165227000Y-87503000D02*
X161925000Y-87503000D01*
X165227000Y-87376000D02*
X162115500Y-87376000D01*
X162115500Y-87376000D02*
X162242500Y-87249000D01*
X162242500Y-87249000D02*
X165227000Y-87249000D01*
X165227000Y-87249000D02*
X165227000Y-87122000D01*
X165227000Y-87122000D02*
X162369500Y-87122000D01*
X162369500Y-87122000D02*
X162433000Y-86995000D01*
X162433000Y-86995000D02*
X165227000Y-86995000D01*
X165227000Y-86995000D02*
X165163500Y-86868000D01*
X165163500Y-86868000D02*
X162496500Y-86868000D01*
X162496500Y-86868000D02*
X162560000Y-86741000D01*
X162560000Y-86741000D02*
X165100000Y-86741000D01*
X165100000Y-86741000D02*
X165100000Y-86614000D01*
X165100000Y-86614000D02*
X162560000Y-86614000D01*
X162560000Y-86614000D02*
X162560000Y-86487000D01*
X162560000Y-86487000D02*
X165100000Y-86487000D01*
X165100000Y-86487000D02*
X165036500Y-86360000D01*
X165036500Y-86360000D02*
X162623500Y-86360000D01*
X162623500Y-86360000D02*
X162623500Y-86233000D01*
X162623500Y-86233000D02*
X164973000Y-86233000D01*
X164973000Y-86233000D02*
X164909500Y-86106000D01*
X164909500Y-86106000D02*
X162560000Y-86106000D01*
X162560000Y-86106000D02*
X162496500Y-85979000D01*
X162496500Y-85979000D02*
X164909500Y-85979000D01*
X164909500Y-85979000D02*
X164782500Y-85852000D01*
X164782500Y-85852000D02*
X162496500Y-85852000D01*
X162496500Y-85852000D02*
X162433000Y-85725000D01*
X162433000Y-85725000D02*
X164782500Y-85725000D01*
X164782500Y-85725000D02*
X164655500Y-85598000D01*
X164655500Y-85598000D02*
X162306000Y-85598000D01*
X162306000Y-85598000D02*
X162242500Y-85471000D01*
X162242500Y-85471000D02*
X164655500Y-85471000D01*
X164655500Y-85471000D02*
X164465000Y-85344000D01*
X164465000Y-85344000D02*
X162115500Y-85344000D01*
X162115500Y-85344000D02*
X161925000Y-85217000D01*
X161925000Y-85217000D02*
X164401500Y-85217000D01*
X157353000Y-87376000D02*
X160464500Y-87376000D01*
X160464500Y-87376000D02*
X160337500Y-87249000D01*
X160337500Y-87249000D02*
X157353000Y-87249000D01*
X157353000Y-87249000D02*
X157416500Y-87122000D01*
X157416500Y-87122000D02*
X160210500Y-87122000D01*
X160210500Y-87122000D02*
X160083500Y-86995000D01*
X160083500Y-86995000D02*
X157353000Y-86995000D01*
X157353000Y-86995000D02*
X157416500Y-86868000D01*
X157416500Y-86868000D02*
X160083500Y-86868000D01*
X160083500Y-86868000D02*
X160020000Y-86741000D01*
X160020000Y-86741000D02*
X157480000Y-86741000D01*
X157480000Y-86741000D02*
X157480000Y-86614000D01*
X157480000Y-86614000D02*
X160020000Y-86614000D01*
X160020000Y-86614000D02*
X160020000Y-86487000D01*
X160020000Y-86487000D02*
X157480000Y-86487000D01*
X157480000Y-86487000D02*
X157543500Y-86360000D01*
X157543500Y-86360000D02*
X160020000Y-86360000D01*
X160020000Y-86360000D02*
X160020000Y-86233000D01*
X160020000Y-86233000D02*
X157543500Y-86233000D01*
X157543500Y-86233000D02*
X157607000Y-86106000D01*
X157607000Y-86106000D02*
X160020000Y-86106000D01*
X160020000Y-86106000D02*
X160020000Y-85979000D01*
X160020000Y-85979000D02*
X157670500Y-85979000D01*
X157670500Y-85979000D02*
X157734000Y-85852000D01*
X157734000Y-85852000D02*
X160083500Y-85852000D01*
X160083500Y-85852000D02*
X160147000Y-85725000D01*
X160147000Y-85725000D02*
X157797500Y-85725000D01*
X157797500Y-85725000D02*
X157861000Y-85598000D01*
X157861000Y-85598000D02*
X160274000Y-85598000D01*
X160274000Y-85598000D02*
X160337500Y-85471000D01*
X160337500Y-85471000D02*
X157988000Y-85471000D01*
X157988000Y-85471000D02*
X158051500Y-85344000D01*
X158051500Y-85344000D02*
X160464500Y-85344000D01*
X160464500Y-85344000D02*
X160655000Y-85217000D01*
X160655000Y-85217000D02*
X158178500Y-85217000D01*
X158305500Y-85090000D02*
X158686500Y-84709000D01*
X159385000Y-84137500D02*
X159321500Y-84264500D01*
X159321500Y-84264500D02*
X159258000Y-84455000D01*
X162496500Y-83883500D02*
X162306000Y-83883500D01*
X164147500Y-84963000D02*
X164020500Y-84836000D01*
X163512500Y-84455000D02*
X163449000Y-84391500D01*
X162560000Y-86360000D02*
G75*
G03X162560000Y-86360000I-1270000J0D01*
G01*
X157289500Y-87630000D02*
X165227000Y-87630000D01*
X165227000Y-87630000D02*
X165227000Y-87503000D01*
X158115000Y-85217000D02*
X158242000Y-85090000D01*
X158242000Y-85090000D02*
X164338000Y-85090000D01*
X164338000Y-85090000D02*
X164147500Y-84963000D01*
X164147500Y-84963000D02*
X158432500Y-84963000D01*
X158432500Y-84963000D02*
X158496000Y-84836000D01*
X158496000Y-84836000D02*
X164020500Y-84836000D01*
X164020500Y-84836000D02*
X163893500Y-84709000D01*
X163893500Y-84709000D02*
X158686500Y-84709000D01*
X158686500Y-84709000D02*
X158813500Y-84582000D01*
X158813500Y-84582000D02*
X163766500Y-84582000D01*
X163766500Y-84582000D02*
X163639500Y-84455000D01*
X163639500Y-84455000D02*
X158877000Y-84455000D01*
X158877000Y-84455000D02*
X159131000Y-84328000D01*
X159131000Y-84328000D02*
X163385500Y-84328000D01*
X163385500Y-84328000D02*
X163195000Y-84201000D01*
X163195000Y-84201000D02*
X159385000Y-84201000D01*
X159385000Y-84201000D02*
X159639000Y-84074000D01*
X159639000Y-84074000D02*
X163004500Y-84074000D01*
X163004500Y-84074000D02*
X162623500Y-83947000D01*
X162623500Y-83947000D02*
X159829500Y-83947000D01*
X159829500Y-83947000D02*
X160210500Y-83820000D01*
X160210500Y-83820000D02*
X162306000Y-83820000D01*
X162306000Y-83820000D02*
X161988500Y-83756500D01*
X161988500Y-83756500D02*
X160718500Y-83756500D01*
X165290000Y-87630000D02*
G75*
G03X165290000Y-87630000I-4000000J0D01*
G01*
X178816520Y-102867460D02*
X180213520Y-102867460D01*
X174371520Y-102867460D02*
X172847520Y-102867460D01*
X175006520Y-102105460D02*
X175006520Y-103629460D01*
X174244520Y-102867460D02*
X174244520Y-103629460D01*
X174244520Y-103629460D02*
X178816520Y-103629460D01*
X178816520Y-103629460D02*
X178816520Y-102105460D01*
X178816520Y-102105460D02*
X174244520Y-102105460D01*
X174244520Y-102105460D02*
X174244520Y-102867460D01*
X166116520Y-102867460D02*
X167513520Y-102867460D01*
X161671520Y-102867460D02*
X160147520Y-102867460D01*
X162306520Y-102105460D02*
X162306520Y-103629460D01*
X161544520Y-102867460D02*
X161544520Y-103629460D01*
X161544520Y-103629460D02*
X166116520Y-103629460D01*
X166116520Y-103629460D02*
X166116520Y-102105460D01*
X166116520Y-102105460D02*
X161544520Y-102105460D01*
X161544520Y-102105460D02*
X161544520Y-102867460D01*
X148843480Y-95887540D02*
X147446480Y-95887540D01*
X153288480Y-95887540D02*
X154812480Y-95887540D01*
X152653480Y-96649540D02*
X152653480Y-95125540D01*
X153415480Y-95887540D02*
X153415480Y-95125540D01*
X153415480Y-95125540D02*
X148843480Y-95125540D01*
X148843480Y-95125540D02*
X148843480Y-96649540D01*
X148843480Y-96649540D02*
X153415480Y-96649540D01*
X153415480Y-96649540D02*
X153415480Y-95887540D01*
X185420000Y-102108000D02*
X185420000Y-104648000D01*
X185420000Y-104648000D02*
X193040000Y-104648000D01*
X193040000Y-104648000D02*
X193040000Y-102108000D01*
X193040000Y-102108000D02*
X185420000Y-102108000D01*
X144145000Y-71120000D02*
X144145000Y-76200000D01*
X144145000Y-76200000D02*
X146685000Y-76200000D01*
X146685000Y-76200000D02*
X146685000Y-71120000D01*
X146685000Y-71120000D02*
X144145000Y-71120000D01*
X144780000Y-78740000D02*
X144780000Y-83820000D01*
X144780000Y-83820000D02*
X147320000Y-83820000D01*
X147320000Y-83820000D02*
X147320000Y-78740000D01*
X147320000Y-78740000D02*
X144780000Y-78740000D01*
X150495000Y-60325000D02*
X155575000Y-60325000D01*
X155575000Y-60325000D02*
X155575000Y-57785000D01*
X155575000Y-57785000D02*
X150495000Y-57785000D01*
X150495000Y-57785000D02*
X150495000Y-60325000D01*
X158115000Y-60325000D02*
X163195000Y-60325000D01*
X163195000Y-60325000D02*
X163195000Y-57785000D01*
X163195000Y-57785000D02*
X158115000Y-57785000D01*
X158115000Y-57785000D02*
X158115000Y-60325000D01*
X165735000Y-60325000D02*
X170815000Y-60325000D01*
X170815000Y-60325000D02*
X170815000Y-57785000D01*
X170815000Y-57785000D02*
X165735000Y-57785000D01*
X165735000Y-57785000D02*
X165735000Y-60325000D01*
X159102305Y-99421990D02*
G75*
G03X159590000Y-100125000I2187695J996990D01*
G01*
X163477695Y-99421990D02*
G75*
G02X162990000Y-100125000I-2187695J996990D01*
G01*
X159590000Y-100125000D02*
X162990000Y-100125000D01*
X159105121Y-97431873D02*
G75*
G02X161290000Y-96025000I2184879J-993127D01*
G01*
X163474879Y-97431873D02*
G75*
G03X161290000Y-96025000I-2184879J-993127D01*
G01*
X168910000Y-97409000D02*
X175260000Y-97409000D01*
X175260000Y-99441000D02*
X168910000Y-99441000D01*
X168910000Y-98425000D02*
X168275000Y-98425000D01*
X175260000Y-98425000D02*
X175895000Y-98425000D01*
X175260000Y-98425000D02*
X175260000Y-99441000D01*
X168910000Y-99441000D02*
X168910000Y-97409000D01*
X175260000Y-97409000D02*
X175260000Y-98425000D01*
X154305000Y-99441000D02*
X147955000Y-99441000D01*
X147955000Y-97409000D02*
X154305000Y-97409000D01*
X154305000Y-98425000D02*
X154940000Y-98425000D01*
X147955000Y-98425000D02*
X147320000Y-98425000D01*
X147955000Y-98425000D02*
X147955000Y-97409000D01*
X154305000Y-97409000D02*
X154305000Y-99441000D01*
X147955000Y-99441000D02*
X147955000Y-98425000D01*
X178181000Y-67945000D02*
X178181000Y-74295000D01*
X176149000Y-74295000D02*
X176149000Y-67945000D01*
X177165000Y-67945000D02*
X177165000Y-67310000D01*
X177165000Y-74295000D02*
X177165000Y-74930000D01*
X177165000Y-74295000D02*
X176149000Y-74295000D01*
X176149000Y-67945000D02*
X178181000Y-67945000D01*
X178181000Y-74295000D02*
X177165000Y-74295000D01*
X178689000Y-74295000D02*
X178689000Y-67945000D01*
X180721000Y-67945000D02*
X180721000Y-74295000D01*
X179705000Y-74295000D02*
X179705000Y-74930000D01*
X179705000Y-67945000D02*
X179705000Y-67310000D01*
X179705000Y-67945000D02*
X180721000Y-67945000D01*
X180721000Y-74295000D02*
X178689000Y-74295000D01*
X178689000Y-67945000D02*
X179705000Y-67945000D01*
X160020000Y-63246000D02*
X153670000Y-63246000D01*
X153670000Y-61214000D02*
X160020000Y-61214000D01*
X160020000Y-62230000D02*
X160655000Y-62230000D01*
X153670000Y-62230000D02*
X153035000Y-62230000D01*
X153670000Y-62230000D02*
X153670000Y-61214000D01*
X160020000Y-61214000D02*
X160020000Y-63246000D01*
X153670000Y-63246000D02*
X153670000Y-62230000D01*
X165481000Y-64135000D02*
X165481000Y-70485000D01*
X163449000Y-70485000D02*
X163449000Y-64135000D01*
X164465000Y-64135000D02*
X164465000Y-63500000D01*
X164465000Y-70485000D02*
X164465000Y-71120000D01*
X164465000Y-70485000D02*
X163449000Y-70485000D01*
X163449000Y-64135000D02*
X165481000Y-64135000D01*
X165481000Y-70485000D02*
X164465000Y-70485000D01*
X169926000Y-85090000D02*
X167513000Y-85090000D01*
X171704000Y-85090000D02*
X174117000Y-85090000D01*
X169926000Y-85090000D02*
G75*
G03X170815000Y-85979000I889000J0D01*
G01*
X170815000Y-85979000D02*
G75*
G03X171704000Y-85090000I0J889000D01*
G01*
X167513000Y-95250000D02*
X167513000Y-95123000D01*
X167513000Y-92583000D02*
X167513000Y-92837000D01*
X167513000Y-90043000D02*
X167513000Y-90297000D01*
X167513000Y-87503000D02*
X167513000Y-87757000D01*
X167513000Y-85090000D02*
X167513000Y-85217000D01*
X174117000Y-85090000D02*
X174117000Y-85217000D01*
X174117000Y-95250000D02*
X174117000Y-95123000D01*
X174117000Y-92583000D02*
X174117000Y-92837000D01*
X174117000Y-90043000D02*
X174117000Y-90297000D01*
X174117000Y-87503000D02*
X174117000Y-87757000D01*
X167513000Y-95250000D02*
X174117000Y-95250000D01*
X169926000Y-69850000D02*
X167513000Y-69850000D01*
X171704000Y-69850000D02*
X174117000Y-69850000D01*
X169926000Y-69850000D02*
G75*
G03X170815000Y-70739000I889000J0D01*
G01*
X170815000Y-70739000D02*
G75*
G03X171704000Y-69850000I0J889000D01*
G01*
X167513000Y-80010000D02*
X167513000Y-79883000D01*
X167513000Y-77343000D02*
X167513000Y-77597000D01*
X167513000Y-74803000D02*
X167513000Y-75057000D01*
X167513000Y-72263000D02*
X167513000Y-72517000D01*
X167513000Y-69850000D02*
X167513000Y-69977000D01*
X174117000Y-69850000D02*
X174117000Y-69977000D01*
X174117000Y-80010000D02*
X174117000Y-79883000D01*
X174117000Y-77343000D02*
X174117000Y-77597000D01*
X174117000Y-74803000D02*
X174117000Y-75057000D01*
X174117000Y-72263000D02*
X174117000Y-72517000D01*
X167513000Y-80010000D02*
X174117000Y-80010000D01*
X157226000Y-68580000D02*
X154813000Y-68580000D01*
X159004000Y-68580000D02*
X161417000Y-68580000D01*
X157226000Y-68580000D02*
G75*
G03X158115000Y-69469000I889000J0D01*
G01*
X158115000Y-69469000D02*
G75*
G03X159004000Y-68580000I0J889000D01*
G01*
X154813000Y-78740000D02*
X154813000Y-78613000D01*
X154813000Y-76073000D02*
X154813000Y-76327000D01*
X154813000Y-73533000D02*
X154813000Y-73787000D01*
X154813000Y-70993000D02*
X154813000Y-71247000D01*
X154813000Y-68580000D02*
X154813000Y-68707000D01*
X161417000Y-68580000D02*
X161417000Y-68707000D01*
X161417000Y-78740000D02*
X161417000Y-78613000D01*
X161417000Y-76073000D02*
X161417000Y-76327000D01*
X161417000Y-73533000D02*
X161417000Y-73787000D01*
X161417000Y-70993000D02*
X161417000Y-71247000D01*
X154813000Y-78740000D02*
X161417000Y-78740000D01*
X187706000Y-81407000D02*
X187706000Y-82550000D01*
X190754000Y-81407000D02*
X190754000Y-82550000D01*
X194564000Y-82550000D02*
X194564000Y-86233000D01*
X194564000Y-86233000D02*
X183896000Y-86233000D01*
X183896000Y-86233000D02*
X183896000Y-82550000D01*
X194564000Y-81407000D02*
X194564000Y-82550000D01*
X194564000Y-82550000D02*
X183896000Y-82550000D01*
X183896000Y-82550000D02*
X183896000Y-81407000D01*
X189230000Y-81407000D02*
X183896000Y-81407000D01*
X189230000Y-81407000D02*
X194564000Y-81407000D01*
X190246000Y-87757000D02*
X190246000Y-88900000D01*
X193294000Y-87757000D02*
X193294000Y-88900000D01*
X197104000Y-88900000D02*
X197104000Y-92583000D01*
X197104000Y-92583000D02*
X186436000Y-92583000D01*
X186436000Y-92583000D02*
X186436000Y-88900000D01*
X197104000Y-87757000D02*
X197104000Y-88900000D01*
X197104000Y-88900000D02*
X186436000Y-88900000D01*
X186436000Y-88900000D02*
X186436000Y-87757000D01*
X191770000Y-87757000D02*
X186436000Y-87757000D01*
X191770000Y-87757000D02*
X197104000Y-87757000D01*
M02*
