%FSLAX45Y45*%
G04 Gerber Fmt 4.5, Leading zero omitted, Abs format (unit mm)*
G04 Created by KiCad (PCBNEW 4.0.1-stable) date 04/27/17 14:33:27*
%MOMM*%
G01*
G04 APERTURE LIST*
%ADD10C,0.127000*%
%ADD11C,0.150000*%
%ADD12C,0.200000*%
%ADD13C,0.300000*%
G04 APERTURE END LIST*
D10*
D11*
X20066000Y-11049000D02*
G75*
G03X20447000Y-10668000I0J381000D01*
G01*
X20447000Y-5842000D02*
G75*
G03X20066000Y-5461000I-381000J0D01*
G01*
X14605000Y-5461000D02*
G75*
G03X14224000Y-5842000I0J-381000D01*
G01*
X14224000Y-10668000D02*
G75*
G03X14605000Y-11049000I381000J0D01*
G01*
X14224000Y-5842000D02*
X14224000Y-10668000D01*
X20447000Y-10668000D02*
X20447000Y-5842000D01*
X20066000Y-11049000D02*
X14605000Y-11049000D01*
X20066000Y-5461000D02*
X14605000Y-5461000D01*
D12*
X14570000Y-9807500D02*
X14640000Y-9877500D01*
X14640000Y-9807500D02*
X14570000Y-9877500D01*
X14824000Y-9299500D02*
X14894000Y-9369500D01*
X14894000Y-9299500D02*
X14824000Y-9369500D01*
X15078000Y-8728000D02*
X15148000Y-8798000D01*
X15148000Y-8728000D02*
X15078000Y-8798000D01*
X15078000Y-9299500D02*
X15148000Y-9369500D01*
X15148000Y-9299500D02*
X15078000Y-9369500D01*
X15141500Y-6188000D02*
X15211500Y-6258000D01*
X15211500Y-6188000D02*
X15141500Y-6258000D01*
X15332000Y-8728000D02*
X15402000Y-8798000D01*
X15402000Y-8728000D02*
X15332000Y-8798000D01*
X15332000Y-9299500D02*
X15402000Y-9369500D01*
X15402000Y-9299500D02*
X15332000Y-9369500D01*
X15395500Y-6950000D02*
X15465500Y-7020000D01*
X15465500Y-6950000D02*
X15395500Y-7020000D01*
X15395500Y-7204000D02*
X15465500Y-7274000D01*
X15465500Y-7204000D02*
X15395500Y-7274000D01*
X15395500Y-7458000D02*
X15465500Y-7528000D01*
X15465500Y-7458000D02*
X15395500Y-7528000D01*
X15395500Y-7712000D02*
X15465500Y-7782000D01*
X15465500Y-7712000D02*
X15395500Y-7782000D01*
X15395500Y-8093000D02*
X15465500Y-8163000D01*
X15465500Y-8093000D02*
X15395500Y-8163000D01*
X15586000Y-9807500D02*
X15656000Y-9877500D01*
X15656000Y-9807500D02*
X15586000Y-9877500D01*
X15649500Y-6569000D02*
X15719500Y-6639000D01*
X15719500Y-6569000D02*
X15649500Y-6639000D01*
X15649500Y-8093000D02*
X15719500Y-8163000D01*
X15719500Y-8093000D02*
X15649500Y-8163000D01*
X15840000Y-9807500D02*
X15910000Y-9877500D01*
X15910000Y-9807500D02*
X15840000Y-9877500D01*
X15840052Y-10251746D02*
X15910052Y-10321746D01*
X15910052Y-10251746D02*
X15840052Y-10321746D01*
X15903500Y-6569000D02*
X15973500Y-6639000D01*
X15973500Y-6569000D02*
X15903500Y-6639000D01*
X15903500Y-8093000D02*
X15973500Y-8163000D01*
X15973500Y-8093000D02*
X15903500Y-8163000D01*
X16094000Y-8601000D02*
X16164000Y-8671000D01*
X16164000Y-8601000D02*
X16094000Y-8671000D01*
X16094000Y-8855000D02*
X16164000Y-8925000D01*
X16164000Y-8855000D02*
X16094000Y-8925000D01*
X16094000Y-9807500D02*
X16164000Y-9877500D01*
X16164000Y-9807500D02*
X16094000Y-9877500D01*
X16157500Y-6188000D02*
X16227500Y-6258000D01*
X16227500Y-6188000D02*
X16157500Y-6258000D01*
X16157500Y-6569000D02*
X16227500Y-6639000D01*
X16227500Y-6569000D02*
X16157500Y-6639000D01*
X16157500Y-6950000D02*
X16227500Y-7020000D01*
X16227500Y-6950000D02*
X16157500Y-7020000D01*
X16157500Y-7204000D02*
X16227500Y-7274000D01*
X16227500Y-7204000D02*
X16157500Y-7274000D01*
X16157500Y-7458000D02*
X16227500Y-7528000D01*
X16227500Y-7458000D02*
X16157500Y-7528000D01*
X16157500Y-7712000D02*
X16227500Y-7782000D01*
X16227500Y-7712000D02*
X16157500Y-7782000D01*
X16348000Y-9807500D02*
X16418000Y-9877500D01*
X16418000Y-9807500D02*
X16348000Y-9877500D01*
X16411500Y-6188000D02*
X16481500Y-6258000D01*
X16481500Y-6188000D02*
X16411500Y-6258000D01*
X16411500Y-7204000D02*
X16481500Y-7274000D01*
X16481500Y-7204000D02*
X16411500Y-7274000D01*
X16665500Y-7077000D02*
X16735500Y-7147000D01*
X16735500Y-7077000D02*
X16665500Y-7147000D01*
X16665500Y-7331000D02*
X16735500Y-7401000D01*
X16735500Y-7331000D02*
X16665500Y-7401000D01*
X16665500Y-7585000D02*
X16735500Y-7655000D01*
X16735500Y-7585000D02*
X16665500Y-7655000D01*
X16665500Y-7839000D02*
X16735500Y-7909000D01*
X16735500Y-7839000D02*
X16665500Y-7909000D01*
X16665500Y-8601000D02*
X16735500Y-8671000D01*
X16735500Y-8601000D02*
X16665500Y-8671000D01*
X16665500Y-8855000D02*
X16735500Y-8925000D01*
X16735500Y-8855000D02*
X16665500Y-8925000D01*
X16665500Y-9109000D02*
X16735500Y-9179000D01*
X16735500Y-9109000D02*
X16665500Y-9179000D01*
X16665500Y-9363000D02*
X16735500Y-9433000D01*
X16735500Y-9363000D02*
X16665500Y-9433000D01*
X16665500Y-9807500D02*
X16735500Y-9877500D01*
X16735500Y-9807500D02*
X16665500Y-9877500D01*
X16792500Y-8220000D02*
X16862500Y-8290000D01*
X16862500Y-8220000D02*
X16792500Y-8290000D01*
X16856000Y-10252000D02*
X16926000Y-10322000D01*
X16926000Y-10252000D02*
X16856000Y-10322000D01*
X17046500Y-8220000D02*
X17116500Y-8290000D01*
X17116500Y-8220000D02*
X17046500Y-8290000D01*
X17110052Y-10251746D02*
X17180052Y-10321746D01*
X17180052Y-10251746D02*
X17110052Y-10321746D01*
X17300500Y-8220000D02*
X17370500Y-8290000D01*
X17370500Y-8220000D02*
X17300500Y-8290000D01*
X17427500Y-7077000D02*
X17497500Y-7147000D01*
X17497500Y-7077000D02*
X17427500Y-7147000D01*
X17427500Y-7331000D02*
X17497500Y-7401000D01*
X17497500Y-7331000D02*
X17427500Y-7401000D01*
X17427500Y-7585000D02*
X17497500Y-7655000D01*
X17497500Y-7585000D02*
X17427500Y-7655000D01*
X17427500Y-7839000D02*
X17497500Y-7909000D01*
X17497500Y-7839000D02*
X17427500Y-7909000D01*
X17427500Y-8601000D02*
X17497500Y-8671000D01*
X17497500Y-8601000D02*
X17427500Y-8671000D01*
X17427500Y-8855000D02*
X17497500Y-8925000D01*
X17497500Y-8855000D02*
X17427500Y-8925000D01*
X17427500Y-9109000D02*
X17497500Y-9179000D01*
X17497500Y-9109000D02*
X17427500Y-9179000D01*
X17427500Y-9363000D02*
X17497500Y-9433000D01*
X17497500Y-9363000D02*
X17427500Y-9433000D01*
X17681500Y-6569000D02*
X17751500Y-6639000D01*
X17751500Y-6569000D02*
X17681500Y-6639000D01*
X17681500Y-7585000D02*
X17751500Y-7655000D01*
X17751500Y-7585000D02*
X17681500Y-7655000D01*
X17681500Y-7839000D02*
X17751500Y-7909000D01*
X17751500Y-7839000D02*
X17681500Y-7909000D01*
X17681500Y-9807500D02*
X17751500Y-9877500D01*
X17751500Y-9807500D02*
X17681500Y-9877500D01*
X17808500Y-9363000D02*
X17878500Y-9433000D01*
X17878500Y-9363000D02*
X17808500Y-9433000D01*
X17935500Y-6569000D02*
X18005500Y-6639000D01*
X18005500Y-6569000D02*
X17935500Y-6639000D01*
X17935500Y-7585000D02*
X18005500Y-7655000D01*
X18005500Y-7585000D02*
X17935500Y-7655000D01*
X17935500Y-7839000D02*
X18005500Y-7909000D01*
X18005500Y-7839000D02*
X17935500Y-7909000D01*
X18062500Y-9363000D02*
X18132500Y-9433000D01*
X18132500Y-9363000D02*
X18062500Y-9433000D01*
X18126000Y-10252000D02*
X18196000Y-10322000D01*
X18196000Y-10252000D02*
X18126000Y-10322000D01*
X18189500Y-7839000D02*
X18259500Y-7909000D01*
X18259500Y-7839000D02*
X18189500Y-7909000D01*
X18316500Y-9363000D02*
X18386500Y-9433000D01*
X18386500Y-9363000D02*
X18316500Y-9433000D01*
X18634000Y-6950000D02*
X18704000Y-7020000D01*
X18704000Y-6950000D02*
X18634000Y-7020000D01*
X18634000Y-7521500D02*
X18704000Y-7591500D01*
X18704000Y-7521500D02*
X18634000Y-7591500D01*
X18888000Y-6950000D02*
X18958000Y-7020000D01*
X18958000Y-6950000D02*
X18888000Y-7020000D01*
X18888000Y-7521500D02*
X18958000Y-7591500D01*
X18958000Y-7521500D02*
X18888000Y-7591500D01*
X18888000Y-9680500D02*
X18958000Y-9750500D01*
X18958000Y-9680500D02*
X18888000Y-9750500D01*
X19142000Y-6950000D02*
X19212000Y-7020000D01*
X19212000Y-6950000D02*
X19142000Y-7020000D01*
X19142000Y-9680500D02*
X19212000Y-9750500D01*
X19212000Y-9680500D02*
X19142000Y-9750500D01*
X19523000Y-7521500D02*
X19593000Y-7591500D01*
X19593000Y-7521500D02*
X19523000Y-7591500D01*
X19586500Y-9680500D02*
X19656500Y-9750500D01*
X19656500Y-9680500D02*
X19586500Y-9750500D01*
X19586500Y-9934500D02*
X19656500Y-10004500D01*
X19656500Y-9934500D02*
X19586500Y-10004500D01*
X19586500Y-10188500D02*
X19656500Y-10258500D01*
X19656500Y-10188500D02*
X19586500Y-10258500D01*
X19777000Y-7521500D02*
X19847000Y-7591500D01*
X19847000Y-7521500D02*
X19777000Y-7591500D01*
X14650000Y-9588500D02*
G75*
G03X14650000Y-9588500I-45000J0D01*
G01*
X15665948Y-9588754D02*
G75*
G03X15665948Y-9588754I-45000J0D01*
G01*
X14541500Y-7189000D02*
X14541500Y-7289000D01*
X14491500Y-7239000D02*
X14591500Y-7239000D01*
X14541500Y-7443000D02*
X14541500Y-7543000D01*
X14491500Y-7493000D02*
X14591500Y-7493000D01*
X14605000Y-7951000D02*
X14605000Y-8051000D01*
X14555000Y-8001000D02*
X14655000Y-8001000D01*
X14605000Y-8205000D02*
X14605000Y-8305000D01*
X14555000Y-8255000D02*
X14655000Y-8255000D01*
X15176500Y-5855500D02*
X15176500Y-5955500D01*
X15126500Y-5905500D02*
X15226500Y-5905500D01*
X15430500Y-5855500D02*
X15430500Y-5955500D01*
X15380500Y-5905500D02*
X15480500Y-5905500D01*
X15938500Y-5855500D02*
X15938500Y-5955500D01*
X15888500Y-5905500D02*
X15988500Y-5905500D01*
X16192500Y-5855500D02*
X16192500Y-5955500D01*
X16142500Y-5905500D02*
X16242500Y-5905500D01*
X16700500Y-5855500D02*
X16700500Y-5955500D01*
X16650500Y-5905500D02*
X16750500Y-5905500D01*
X16954500Y-5855500D02*
X16954500Y-5955500D01*
X16904500Y-5905500D02*
X17004500Y-5905500D01*
X18669000Y-10287800D02*
X18669000Y-10387800D01*
X18619000Y-10337800D02*
X18719000Y-10337800D01*
X18923000Y-10287800D02*
X18923000Y-10387800D01*
X18873000Y-10337800D02*
X18973000Y-10337800D01*
X19177000Y-10287800D02*
X19177000Y-10387800D01*
X19127000Y-10337800D02*
X19227000Y-10337800D01*
X18707891Y-8484391D02*
X18707891Y-8406609D01*
X18630109Y-8406609D01*
X18630109Y-8484391D01*
X18707891Y-8484391D01*
X18961891Y-8484391D02*
X18961891Y-8406609D01*
X18884109Y-8406609D01*
X18884109Y-8484391D01*
X18961891Y-8484391D01*
X18961891Y-9119391D02*
X18961891Y-9041609D01*
X18884109Y-9041609D01*
X18884109Y-9119391D01*
X18961891Y-9119391D01*
X19215891Y-8484391D02*
X19215891Y-8406609D01*
X19138109Y-8406609D01*
X19138109Y-8484391D01*
X19215891Y-8484391D01*
X19215891Y-9119391D02*
X19215891Y-9041609D01*
X19138109Y-9041609D01*
X19138109Y-9119391D01*
X19215891Y-9119391D01*
X19469891Y-9119391D02*
X19469891Y-9041609D01*
X19392109Y-9041609D01*
X19392109Y-9119391D01*
X19469891Y-9119391D01*
X14605000Y-6012000D02*
X14775000Y-5842000D01*
X14605000Y-5672000D01*
X14435000Y-5842000D01*
X14605000Y-6012000D01*
X14605000Y-10838000D02*
X14775000Y-10668000D01*
X14605000Y-10498000D01*
X14435000Y-10668000D01*
X14605000Y-10838000D01*
X20066000Y-6012000D02*
X20236000Y-5842000D01*
X20066000Y-5672000D01*
X19896000Y-5842000D01*
X20066000Y-6012000D01*
X20066000Y-10838000D02*
X20236000Y-10668000D01*
X20066000Y-10498000D01*
X19896000Y-10668000D01*
X20066000Y-10838000D01*
D13*
X14487928Y-11522214D02*
X14487928Y-11222214D01*
X14559357Y-11222214D01*
X14602214Y-11236500D01*
X14630786Y-11265071D01*
X14645071Y-11293643D01*
X14659357Y-11350786D01*
X14659357Y-11393643D01*
X14645071Y-11450786D01*
X14630786Y-11479357D01*
X14602214Y-11507929D01*
X14559357Y-11522214D01*
X14487928Y-11522214D01*
X14787928Y-11522214D02*
X14787928Y-11322214D01*
X14787928Y-11379357D02*
X14802214Y-11350786D01*
X14816500Y-11336500D01*
X14845071Y-11322214D01*
X14873643Y-11322214D01*
X14973643Y-11522214D02*
X14973643Y-11322214D01*
X14973643Y-11222214D02*
X14959357Y-11236500D01*
X14973643Y-11250786D01*
X14987928Y-11236500D01*
X14973643Y-11222214D01*
X14973643Y-11250786D01*
X15159357Y-11522214D02*
X15130786Y-11507929D01*
X15116500Y-11479357D01*
X15116500Y-11222214D01*
X15316500Y-11522214D02*
X15287928Y-11507929D01*
X15273643Y-11479357D01*
X15273643Y-11222214D01*
X15659357Y-11522214D02*
X15659357Y-11222214D01*
X15759357Y-11436500D01*
X15859357Y-11222214D01*
X15859357Y-11522214D01*
X16130786Y-11522214D02*
X16130786Y-11365071D01*
X16116500Y-11336500D01*
X16087928Y-11322214D01*
X16030786Y-11322214D01*
X16002214Y-11336500D01*
X16130786Y-11507929D02*
X16102214Y-11522214D01*
X16030786Y-11522214D01*
X16002214Y-11507929D01*
X15987928Y-11479357D01*
X15987928Y-11450786D01*
X16002214Y-11422214D01*
X16030786Y-11407929D01*
X16102214Y-11407929D01*
X16130786Y-11393643D01*
X16273643Y-11322214D02*
X16273643Y-11622214D01*
X16273643Y-11336500D02*
X16302214Y-11322214D01*
X16359357Y-11322214D01*
X16387928Y-11336500D01*
X16402214Y-11350786D01*
X16416500Y-11379357D01*
X16416500Y-11465071D01*
X16402214Y-11493643D01*
X16387928Y-11507929D01*
X16359357Y-11522214D01*
X16302214Y-11522214D01*
X16273643Y-11507929D01*
X16545071Y-11493643D02*
X16559357Y-11507929D01*
X16545071Y-11522214D01*
X16530786Y-11507929D01*
X16545071Y-11493643D01*
X16545071Y-11522214D01*
X16545071Y-11336500D02*
X16559357Y-11350786D01*
X16545071Y-11365071D01*
X16530786Y-11350786D01*
X16545071Y-11336500D01*
X16545071Y-11365071D01*
X14146500Y-11981500D02*
X14216500Y-12051500D01*
X14216500Y-11981500D02*
X14146500Y-12051500D01*
X14545071Y-11852214D02*
X14573643Y-11852214D01*
X14602214Y-11866500D01*
X14616500Y-11880786D01*
X14630786Y-11909357D01*
X14645071Y-11966500D01*
X14645071Y-12037929D01*
X14630786Y-12095071D01*
X14616500Y-12123643D01*
X14602214Y-12137929D01*
X14573643Y-12152214D01*
X14545071Y-12152214D01*
X14516500Y-12137929D01*
X14502214Y-12123643D01*
X14487928Y-12095071D01*
X14473643Y-12037929D01*
X14473643Y-11966500D01*
X14487928Y-11909357D01*
X14502214Y-11880786D01*
X14516500Y-11866500D01*
X14545071Y-11852214D01*
X14773643Y-12123643D02*
X14787928Y-12137929D01*
X14773643Y-12152214D01*
X14759357Y-12137929D01*
X14773643Y-12123643D01*
X14773643Y-12152214D01*
X14887928Y-11852214D02*
X15087928Y-11852214D01*
X14959357Y-12152214D01*
X15259357Y-11852214D02*
X15287928Y-11852214D01*
X15316500Y-11866500D01*
X15330786Y-11880786D01*
X15345071Y-11909357D01*
X15359357Y-11966500D01*
X15359357Y-12037929D01*
X15345071Y-12095071D01*
X15330786Y-12123643D01*
X15316500Y-12137929D01*
X15287928Y-12152214D01*
X15259357Y-12152214D01*
X15230786Y-12137929D01*
X15216500Y-12123643D01*
X15202214Y-12095071D01*
X15187928Y-12037929D01*
X15187928Y-11966500D01*
X15202214Y-11909357D01*
X15216500Y-11880786D01*
X15230786Y-11866500D01*
X15259357Y-11852214D01*
X15487928Y-12152214D02*
X15487928Y-11952214D01*
X15487928Y-11980786D02*
X15502214Y-11966500D01*
X15530786Y-11952214D01*
X15573643Y-11952214D01*
X15602214Y-11966500D01*
X15616500Y-11995071D01*
X15616500Y-12152214D01*
X15616500Y-11995071D02*
X15630786Y-11966500D01*
X15659357Y-11952214D01*
X15702214Y-11952214D01*
X15730786Y-11966500D01*
X15745071Y-11995071D01*
X15745071Y-12152214D01*
X15887928Y-12152214D02*
X15887928Y-11952214D01*
X15887928Y-11980786D02*
X15902214Y-11966500D01*
X15930786Y-11952214D01*
X15973643Y-11952214D01*
X16002214Y-11966500D01*
X16016500Y-11995071D01*
X16016500Y-12152214D01*
X16016500Y-11995071D02*
X16030786Y-11966500D01*
X16059357Y-11952214D01*
X16102214Y-11952214D01*
X16130786Y-11966500D01*
X16145071Y-11995071D01*
X16145071Y-12152214D01*
X16730786Y-11837929D02*
X16473643Y-12223643D01*
X17116500Y-11852214D02*
X17145071Y-11852214D01*
X17173643Y-11866500D01*
X17187928Y-11880786D01*
X17202214Y-11909357D01*
X17216500Y-11966500D01*
X17216500Y-12037929D01*
X17202214Y-12095071D01*
X17187928Y-12123643D01*
X17173643Y-12137929D01*
X17145071Y-12152214D01*
X17116500Y-12152214D01*
X17087928Y-12137929D01*
X17073643Y-12123643D01*
X17059357Y-12095071D01*
X17045071Y-12037929D01*
X17045071Y-11966500D01*
X17059357Y-11909357D01*
X17073643Y-11880786D01*
X17087928Y-11866500D01*
X17116500Y-11852214D01*
X17345071Y-12123643D02*
X17359357Y-12137929D01*
X17345071Y-12152214D01*
X17330786Y-12137929D01*
X17345071Y-12123643D01*
X17345071Y-12152214D01*
X17545071Y-11852214D02*
X17573643Y-11852214D01*
X17602214Y-11866500D01*
X17616500Y-11880786D01*
X17630786Y-11909357D01*
X17645071Y-11966500D01*
X17645071Y-12037929D01*
X17630786Y-12095071D01*
X17616500Y-12123643D01*
X17602214Y-12137929D01*
X17573643Y-12152214D01*
X17545071Y-12152214D01*
X17516500Y-12137929D01*
X17502214Y-12123643D01*
X17487928Y-12095071D01*
X17473643Y-12037929D01*
X17473643Y-11966500D01*
X17487928Y-11909357D01*
X17502214Y-11880786D01*
X17516500Y-11866500D01*
X17545071Y-11852214D01*
X17759357Y-11880786D02*
X17773643Y-11866500D01*
X17802214Y-11852214D01*
X17873643Y-11852214D01*
X17902214Y-11866500D01*
X17916500Y-11880786D01*
X17930786Y-11909357D01*
X17930786Y-11937929D01*
X17916500Y-11980786D01*
X17745071Y-12152214D01*
X17930786Y-12152214D01*
X18102214Y-11980786D02*
X18073643Y-11966500D01*
X18059357Y-11952214D01*
X18045071Y-11923643D01*
X18045071Y-11909357D01*
X18059357Y-11880786D01*
X18073643Y-11866500D01*
X18102214Y-11852214D01*
X18159357Y-11852214D01*
X18187928Y-11866500D01*
X18202214Y-11880786D01*
X18216500Y-11909357D01*
X18216500Y-11923643D01*
X18202214Y-11952214D01*
X18187928Y-11966500D01*
X18159357Y-11980786D01*
X18102214Y-11980786D01*
X18073643Y-11995071D01*
X18059357Y-12009357D01*
X18045071Y-12037929D01*
X18045071Y-12095071D01*
X18059357Y-12123643D01*
X18073643Y-12137929D01*
X18102214Y-12152214D01*
X18159357Y-12152214D01*
X18187928Y-12137929D01*
X18202214Y-12123643D01*
X18216500Y-12095071D01*
X18216500Y-12037929D01*
X18202214Y-12009357D01*
X18187928Y-11995071D01*
X18159357Y-11980786D01*
X18330786Y-11852214D02*
X18330786Y-11909357D01*
X18445071Y-11852214D02*
X18445071Y-11909357D01*
X18887928Y-12266500D02*
X18873643Y-12252214D01*
X18845071Y-12209357D01*
X18830786Y-12180786D01*
X18816500Y-12137929D01*
X18802214Y-12066500D01*
X18802214Y-12009357D01*
X18816500Y-11937929D01*
X18830786Y-11895071D01*
X18845071Y-11866500D01*
X18873643Y-11823643D01*
X18887928Y-11809357D01*
X18973643Y-11852214D02*
X19173643Y-11852214D01*
X19045071Y-12152214D01*
X19259357Y-11852214D02*
X19459357Y-11852214D01*
X19330786Y-12152214D01*
X19802214Y-12152214D02*
X19802214Y-11852214D01*
X19930786Y-12152214D02*
X19930786Y-11995071D01*
X19916500Y-11966500D01*
X19887928Y-11952214D01*
X19845071Y-11952214D01*
X19816500Y-11966500D01*
X19802214Y-11980786D01*
X20116500Y-12152214D02*
X20087928Y-12137929D01*
X20073643Y-12123643D01*
X20059357Y-12095071D01*
X20059357Y-12009357D01*
X20073643Y-11980786D01*
X20087928Y-11966500D01*
X20116500Y-11952214D01*
X20159357Y-11952214D01*
X20187928Y-11966500D01*
X20202214Y-11980786D01*
X20216500Y-12009357D01*
X20216500Y-12095071D01*
X20202214Y-12123643D01*
X20187928Y-12137929D01*
X20159357Y-12152214D01*
X20116500Y-12152214D01*
X20387928Y-12152214D02*
X20359357Y-12137929D01*
X20345071Y-12109357D01*
X20345071Y-11852214D01*
X20616500Y-12137929D02*
X20587929Y-12152214D01*
X20530786Y-12152214D01*
X20502214Y-12137929D01*
X20487929Y-12109357D01*
X20487929Y-11995071D01*
X20502214Y-11966500D01*
X20530786Y-11952214D01*
X20587929Y-11952214D01*
X20616500Y-11966500D01*
X20630786Y-11995071D01*
X20630786Y-12023643D01*
X20487929Y-12052214D01*
X20745071Y-12137929D02*
X20773643Y-12152214D01*
X20830786Y-12152214D01*
X20859357Y-12137929D01*
X20873643Y-12109357D01*
X20873643Y-12095071D01*
X20859357Y-12066500D01*
X20830786Y-12052214D01*
X20787929Y-12052214D01*
X20759357Y-12037929D01*
X20745071Y-12009357D01*
X20745071Y-11995071D01*
X20759357Y-11966500D01*
X20787929Y-11952214D01*
X20830786Y-11952214D01*
X20859357Y-11966500D01*
X20973643Y-12266500D02*
X20987929Y-12252214D01*
X21016500Y-12209357D01*
X21030786Y-12180786D01*
X21045071Y-12137929D01*
X21059357Y-12066500D01*
X21059357Y-12009357D01*
X21045071Y-11937929D01*
X21030786Y-11895071D01*
X21016500Y-11866500D01*
X20987929Y-11823643D01*
X20973643Y-11809357D01*
X14216500Y-12412500D02*
G75*
G03X14216500Y-12412500I-45000J0D01*
G01*
X14545071Y-12248214D02*
X14573643Y-12248214D01*
X14602214Y-12262500D01*
X14616500Y-12276786D01*
X14630786Y-12305357D01*
X14645071Y-12362500D01*
X14645071Y-12433929D01*
X14630786Y-12491071D01*
X14616500Y-12519643D01*
X14602214Y-12533929D01*
X14573643Y-12548214D01*
X14545071Y-12548214D01*
X14516500Y-12533929D01*
X14502214Y-12519643D01*
X14487928Y-12491071D01*
X14473643Y-12433929D01*
X14473643Y-12362500D01*
X14487928Y-12305357D01*
X14502214Y-12276786D01*
X14516500Y-12262500D01*
X14545071Y-12248214D01*
X14773643Y-12519643D02*
X14787928Y-12533929D01*
X14773643Y-12548214D01*
X14759357Y-12533929D01*
X14773643Y-12519643D01*
X14773643Y-12548214D01*
X14930786Y-12548214D02*
X14987928Y-12548214D01*
X15016500Y-12533929D01*
X15030786Y-12519643D01*
X15059357Y-12476786D01*
X15073643Y-12419643D01*
X15073643Y-12305357D01*
X15059357Y-12276786D01*
X15045071Y-12262500D01*
X15016500Y-12248214D01*
X14959357Y-12248214D01*
X14930786Y-12262500D01*
X14916500Y-12276786D01*
X14902214Y-12305357D01*
X14902214Y-12376786D01*
X14916500Y-12405357D01*
X14930786Y-12419643D01*
X14959357Y-12433929D01*
X15016500Y-12433929D01*
X15045071Y-12419643D01*
X15059357Y-12405357D01*
X15073643Y-12376786D01*
X15259357Y-12248214D02*
X15287928Y-12248214D01*
X15316500Y-12262500D01*
X15330786Y-12276786D01*
X15345071Y-12305357D01*
X15359357Y-12362500D01*
X15359357Y-12433929D01*
X15345071Y-12491071D01*
X15330786Y-12519643D01*
X15316500Y-12533929D01*
X15287928Y-12548214D01*
X15259357Y-12548214D01*
X15230786Y-12533929D01*
X15216500Y-12519643D01*
X15202214Y-12491071D01*
X15187928Y-12433929D01*
X15187928Y-12362500D01*
X15202214Y-12305357D01*
X15216500Y-12276786D01*
X15230786Y-12262500D01*
X15259357Y-12248214D01*
X15487928Y-12548214D02*
X15487928Y-12348214D01*
X15487928Y-12376786D02*
X15502214Y-12362500D01*
X15530786Y-12348214D01*
X15573643Y-12348214D01*
X15602214Y-12362500D01*
X15616500Y-12391071D01*
X15616500Y-12548214D01*
X15616500Y-12391071D02*
X15630786Y-12362500D01*
X15659357Y-12348214D01*
X15702214Y-12348214D01*
X15730786Y-12362500D01*
X15745071Y-12391071D01*
X15745071Y-12548214D01*
X15887928Y-12548214D02*
X15887928Y-12348214D01*
X15887928Y-12376786D02*
X15902214Y-12362500D01*
X15930786Y-12348214D01*
X15973643Y-12348214D01*
X16002214Y-12362500D01*
X16016500Y-12391071D01*
X16016500Y-12548214D01*
X16016500Y-12391071D02*
X16030786Y-12362500D01*
X16059357Y-12348214D01*
X16102214Y-12348214D01*
X16130786Y-12362500D01*
X16145071Y-12391071D01*
X16145071Y-12548214D01*
X16730786Y-12233929D02*
X16473643Y-12619643D01*
X17116500Y-12248214D02*
X17145071Y-12248214D01*
X17173643Y-12262500D01*
X17187928Y-12276786D01*
X17202214Y-12305357D01*
X17216500Y-12362500D01*
X17216500Y-12433929D01*
X17202214Y-12491071D01*
X17187928Y-12519643D01*
X17173643Y-12533929D01*
X17145071Y-12548214D01*
X17116500Y-12548214D01*
X17087928Y-12533929D01*
X17073643Y-12519643D01*
X17059357Y-12491071D01*
X17045071Y-12433929D01*
X17045071Y-12362500D01*
X17059357Y-12305357D01*
X17073643Y-12276786D01*
X17087928Y-12262500D01*
X17116500Y-12248214D01*
X17345071Y-12519643D02*
X17359357Y-12533929D01*
X17345071Y-12548214D01*
X17330786Y-12533929D01*
X17345071Y-12519643D01*
X17345071Y-12548214D01*
X17545071Y-12248214D02*
X17573643Y-12248214D01*
X17602214Y-12262500D01*
X17616500Y-12276786D01*
X17630786Y-12305357D01*
X17645071Y-12362500D01*
X17645071Y-12433929D01*
X17630786Y-12491071D01*
X17616500Y-12519643D01*
X17602214Y-12533929D01*
X17573643Y-12548214D01*
X17545071Y-12548214D01*
X17516500Y-12533929D01*
X17502214Y-12519643D01*
X17487928Y-12491071D01*
X17473643Y-12433929D01*
X17473643Y-12362500D01*
X17487928Y-12305357D01*
X17502214Y-12276786D01*
X17516500Y-12262500D01*
X17545071Y-12248214D01*
X17745071Y-12248214D02*
X17930786Y-12248214D01*
X17830786Y-12362500D01*
X17873643Y-12362500D01*
X17902214Y-12376786D01*
X17916500Y-12391071D01*
X17930786Y-12419643D01*
X17930786Y-12491071D01*
X17916500Y-12519643D01*
X17902214Y-12533929D01*
X17873643Y-12548214D01*
X17787928Y-12548214D01*
X17759357Y-12533929D01*
X17745071Y-12519643D01*
X18202214Y-12248214D02*
X18059357Y-12248214D01*
X18045071Y-12391071D01*
X18059357Y-12376786D01*
X18087928Y-12362500D01*
X18159357Y-12362500D01*
X18187928Y-12376786D01*
X18202214Y-12391071D01*
X18216500Y-12419643D01*
X18216500Y-12491071D01*
X18202214Y-12519643D01*
X18187928Y-12533929D01*
X18159357Y-12548214D01*
X18087928Y-12548214D01*
X18059357Y-12533929D01*
X18045071Y-12519643D01*
X18330786Y-12248214D02*
X18330786Y-12305357D01*
X18445071Y-12248214D02*
X18445071Y-12305357D01*
X18887928Y-12662500D02*
X18873643Y-12648214D01*
X18845071Y-12605357D01*
X18830786Y-12576786D01*
X18816500Y-12533929D01*
X18802214Y-12462500D01*
X18802214Y-12405357D01*
X18816500Y-12333929D01*
X18830786Y-12291071D01*
X18845071Y-12262500D01*
X18873643Y-12219643D01*
X18887928Y-12205357D01*
X18987928Y-12276786D02*
X19002214Y-12262500D01*
X19030786Y-12248214D01*
X19102214Y-12248214D01*
X19130786Y-12262500D01*
X19145071Y-12276786D01*
X19159357Y-12305357D01*
X19159357Y-12333929D01*
X19145071Y-12376786D01*
X18973643Y-12548214D01*
X19159357Y-12548214D01*
X19516500Y-12548214D02*
X19516500Y-12248214D01*
X19645071Y-12548214D02*
X19645071Y-12391071D01*
X19630786Y-12362500D01*
X19602214Y-12348214D01*
X19559357Y-12348214D01*
X19530786Y-12362500D01*
X19516500Y-12376786D01*
X19830786Y-12548214D02*
X19802214Y-12533929D01*
X19787928Y-12519643D01*
X19773643Y-12491071D01*
X19773643Y-12405357D01*
X19787928Y-12376786D01*
X19802214Y-12362500D01*
X19830786Y-12348214D01*
X19873643Y-12348214D01*
X19902214Y-12362500D01*
X19916500Y-12376786D01*
X19930786Y-12405357D01*
X19930786Y-12491071D01*
X19916500Y-12519643D01*
X19902214Y-12533929D01*
X19873643Y-12548214D01*
X19830786Y-12548214D01*
X20102214Y-12548214D02*
X20073643Y-12533929D01*
X20059357Y-12505357D01*
X20059357Y-12248214D01*
X20330786Y-12533929D02*
X20302214Y-12548214D01*
X20245071Y-12548214D01*
X20216500Y-12533929D01*
X20202214Y-12505357D01*
X20202214Y-12391071D01*
X20216500Y-12362500D01*
X20245071Y-12348214D01*
X20302214Y-12348214D01*
X20330786Y-12362500D01*
X20345071Y-12391071D01*
X20345071Y-12419643D01*
X20202214Y-12448214D01*
X20459357Y-12533929D02*
X20487929Y-12548214D01*
X20545071Y-12548214D01*
X20573643Y-12533929D01*
X20587929Y-12505357D01*
X20587929Y-12491071D01*
X20573643Y-12462500D01*
X20545071Y-12448214D01*
X20502214Y-12448214D01*
X20473643Y-12433929D01*
X20459357Y-12405357D01*
X20459357Y-12391071D01*
X20473643Y-12362500D01*
X20502214Y-12348214D01*
X20545071Y-12348214D01*
X20573643Y-12362500D01*
X20687928Y-12662500D02*
X20702214Y-12648214D01*
X20730786Y-12605357D01*
X20745071Y-12576786D01*
X20759357Y-12533929D01*
X20773643Y-12462500D01*
X20773643Y-12405357D01*
X20759357Y-12333929D01*
X20745071Y-12291071D01*
X20730786Y-12262500D01*
X20702214Y-12219643D01*
X20687928Y-12205357D01*
X14166500Y-12758500D02*
X14166500Y-12858500D01*
X14116500Y-12808500D02*
X14216500Y-12808500D01*
X14645071Y-12944214D02*
X14473643Y-12944214D01*
X14559357Y-12944214D02*
X14559357Y-12644214D01*
X14530786Y-12687071D01*
X14502214Y-12715643D01*
X14473643Y-12729929D01*
X14773643Y-12915643D02*
X14787928Y-12929929D01*
X14773643Y-12944214D01*
X14759357Y-12929929D01*
X14773643Y-12915643D01*
X14773643Y-12944214D01*
X14973643Y-12644214D02*
X15002214Y-12644214D01*
X15030786Y-12658500D01*
X15045071Y-12672786D01*
X15059357Y-12701357D01*
X15073643Y-12758500D01*
X15073643Y-12829929D01*
X15059357Y-12887071D01*
X15045071Y-12915643D01*
X15030786Y-12929929D01*
X15002214Y-12944214D01*
X14973643Y-12944214D01*
X14945071Y-12929929D01*
X14930786Y-12915643D01*
X14916500Y-12887071D01*
X14902214Y-12829929D01*
X14902214Y-12758500D01*
X14916500Y-12701357D01*
X14930786Y-12672786D01*
X14945071Y-12658500D01*
X14973643Y-12644214D01*
X15259357Y-12644214D02*
X15287928Y-12644214D01*
X15316500Y-12658500D01*
X15330786Y-12672786D01*
X15345071Y-12701357D01*
X15359357Y-12758500D01*
X15359357Y-12829929D01*
X15345071Y-12887071D01*
X15330786Y-12915643D01*
X15316500Y-12929929D01*
X15287928Y-12944214D01*
X15259357Y-12944214D01*
X15230786Y-12929929D01*
X15216500Y-12915643D01*
X15202214Y-12887071D01*
X15187928Y-12829929D01*
X15187928Y-12758500D01*
X15202214Y-12701357D01*
X15216500Y-12672786D01*
X15230786Y-12658500D01*
X15259357Y-12644214D01*
X15487928Y-12944214D02*
X15487928Y-12744214D01*
X15487928Y-12772786D02*
X15502214Y-12758500D01*
X15530786Y-12744214D01*
X15573643Y-12744214D01*
X15602214Y-12758500D01*
X15616500Y-12787071D01*
X15616500Y-12944214D01*
X15616500Y-12787071D02*
X15630786Y-12758500D01*
X15659357Y-12744214D01*
X15702214Y-12744214D01*
X15730786Y-12758500D01*
X15745071Y-12787071D01*
X15745071Y-12944214D01*
X15887928Y-12944214D02*
X15887928Y-12744214D01*
X15887928Y-12772786D02*
X15902214Y-12758500D01*
X15930786Y-12744214D01*
X15973643Y-12744214D01*
X16002214Y-12758500D01*
X16016500Y-12787071D01*
X16016500Y-12944214D01*
X16016500Y-12787071D02*
X16030786Y-12758500D01*
X16059357Y-12744214D01*
X16102214Y-12744214D01*
X16130786Y-12758500D01*
X16145071Y-12787071D01*
X16145071Y-12944214D01*
X16730786Y-12629929D02*
X16473643Y-13015643D01*
X17116500Y-12644214D02*
X17145071Y-12644214D01*
X17173643Y-12658500D01*
X17187928Y-12672786D01*
X17202214Y-12701357D01*
X17216500Y-12758500D01*
X17216500Y-12829929D01*
X17202214Y-12887071D01*
X17187928Y-12915643D01*
X17173643Y-12929929D01*
X17145071Y-12944214D01*
X17116500Y-12944214D01*
X17087928Y-12929929D01*
X17073643Y-12915643D01*
X17059357Y-12887071D01*
X17045071Y-12829929D01*
X17045071Y-12758500D01*
X17059357Y-12701357D01*
X17073643Y-12672786D01*
X17087928Y-12658500D01*
X17116500Y-12644214D01*
X17345071Y-12915643D02*
X17359357Y-12929929D01*
X17345071Y-12944214D01*
X17330786Y-12929929D01*
X17345071Y-12915643D01*
X17345071Y-12944214D01*
X17545071Y-12644214D02*
X17573643Y-12644214D01*
X17602214Y-12658500D01*
X17616500Y-12672786D01*
X17630786Y-12701357D01*
X17645071Y-12758500D01*
X17645071Y-12829929D01*
X17630786Y-12887071D01*
X17616500Y-12915643D01*
X17602214Y-12929929D01*
X17573643Y-12944214D01*
X17545071Y-12944214D01*
X17516500Y-12929929D01*
X17502214Y-12915643D01*
X17487928Y-12887071D01*
X17473643Y-12829929D01*
X17473643Y-12758500D01*
X17487928Y-12701357D01*
X17502214Y-12672786D01*
X17516500Y-12658500D01*
X17545071Y-12644214D01*
X17745071Y-12644214D02*
X17930786Y-12644214D01*
X17830786Y-12758500D01*
X17873643Y-12758500D01*
X17902214Y-12772786D01*
X17916500Y-12787071D01*
X17930786Y-12815643D01*
X17930786Y-12887071D01*
X17916500Y-12915643D01*
X17902214Y-12929929D01*
X17873643Y-12944214D01*
X17787928Y-12944214D01*
X17759357Y-12929929D01*
X17745071Y-12915643D01*
X18073643Y-12944214D02*
X18130786Y-12944214D01*
X18159357Y-12929929D01*
X18173643Y-12915643D01*
X18202214Y-12872786D01*
X18216500Y-12815643D01*
X18216500Y-12701357D01*
X18202214Y-12672786D01*
X18187928Y-12658500D01*
X18159357Y-12644214D01*
X18102214Y-12644214D01*
X18073643Y-12658500D01*
X18059357Y-12672786D01*
X18045071Y-12701357D01*
X18045071Y-12772786D01*
X18059357Y-12801357D01*
X18073643Y-12815643D01*
X18102214Y-12829929D01*
X18159357Y-12829929D01*
X18187928Y-12815643D01*
X18202214Y-12801357D01*
X18216500Y-12772786D01*
X18330786Y-12644214D02*
X18330786Y-12701357D01*
X18445071Y-12644214D02*
X18445071Y-12701357D01*
X18887928Y-13058500D02*
X18873643Y-13044214D01*
X18845071Y-13001357D01*
X18830786Y-12972786D01*
X18816500Y-12929929D01*
X18802214Y-12858500D01*
X18802214Y-12801357D01*
X18816500Y-12729929D01*
X18830786Y-12687071D01*
X18845071Y-12658500D01*
X18873643Y-12615643D01*
X18887928Y-12601357D01*
X19159357Y-12944214D02*
X18987928Y-12944214D01*
X19073643Y-12944214D02*
X19073643Y-12644214D01*
X19045071Y-12687071D01*
X19016500Y-12715643D01*
X18987928Y-12729929D01*
X19259357Y-12644214D02*
X19445071Y-12644214D01*
X19345071Y-12758500D01*
X19387928Y-12758500D01*
X19416500Y-12772786D01*
X19430786Y-12787071D01*
X19445071Y-12815643D01*
X19445071Y-12887071D01*
X19430786Y-12915643D01*
X19416500Y-12929929D01*
X19387928Y-12944214D01*
X19302214Y-12944214D01*
X19273643Y-12929929D01*
X19259357Y-12915643D01*
X19802214Y-12944214D02*
X19802214Y-12644214D01*
X19930786Y-12944214D02*
X19930786Y-12787071D01*
X19916500Y-12758500D01*
X19887928Y-12744214D01*
X19845071Y-12744214D01*
X19816500Y-12758500D01*
X19802214Y-12772786D01*
X20116500Y-12944214D02*
X20087928Y-12929929D01*
X20073643Y-12915643D01*
X20059357Y-12887071D01*
X20059357Y-12801357D01*
X20073643Y-12772786D01*
X20087928Y-12758500D01*
X20116500Y-12744214D01*
X20159357Y-12744214D01*
X20187928Y-12758500D01*
X20202214Y-12772786D01*
X20216500Y-12801357D01*
X20216500Y-12887071D01*
X20202214Y-12915643D01*
X20187928Y-12929929D01*
X20159357Y-12944214D01*
X20116500Y-12944214D01*
X20387928Y-12944214D02*
X20359357Y-12929929D01*
X20345071Y-12901357D01*
X20345071Y-12644214D01*
X20616500Y-12929929D02*
X20587929Y-12944214D01*
X20530786Y-12944214D01*
X20502214Y-12929929D01*
X20487929Y-12901357D01*
X20487929Y-12787071D01*
X20502214Y-12758500D01*
X20530786Y-12744214D01*
X20587929Y-12744214D01*
X20616500Y-12758500D01*
X20630786Y-12787071D01*
X20630786Y-12815643D01*
X20487929Y-12844214D01*
X20745071Y-12929929D02*
X20773643Y-12944214D01*
X20830786Y-12944214D01*
X20859357Y-12929929D01*
X20873643Y-12901357D01*
X20873643Y-12887071D01*
X20859357Y-12858500D01*
X20830786Y-12844214D01*
X20787929Y-12844214D01*
X20759357Y-12829929D01*
X20745071Y-12801357D01*
X20745071Y-12787071D01*
X20759357Y-12758500D01*
X20787929Y-12744214D01*
X20830786Y-12744214D01*
X20859357Y-12758500D01*
X20973643Y-13058500D02*
X20987929Y-13044214D01*
X21016500Y-13001357D01*
X21030786Y-12972786D01*
X21045071Y-12929929D01*
X21059357Y-12858500D01*
X21059357Y-12801357D01*
X21045071Y-12729929D01*
X21030786Y-12687071D01*
X21016500Y-12658500D01*
X20987929Y-12615643D01*
X20973643Y-12601357D01*
X14200391Y-13243391D02*
X14200391Y-13165609D01*
X14122609Y-13165609D01*
X14122609Y-13243391D01*
X14200391Y-13243391D01*
X14645071Y-13340214D02*
X14473643Y-13340214D01*
X14559357Y-13340214D02*
X14559357Y-13040214D01*
X14530786Y-13083071D01*
X14502214Y-13111643D01*
X14473643Y-13125929D01*
X14773643Y-13311643D02*
X14787928Y-13325929D01*
X14773643Y-13340214D01*
X14759357Y-13325929D01*
X14773643Y-13311643D01*
X14773643Y-13340214D01*
X15073643Y-13340214D02*
X14902214Y-13340214D01*
X14987928Y-13340214D02*
X14987928Y-13040214D01*
X14959357Y-13083071D01*
X14930786Y-13111643D01*
X14902214Y-13125929D01*
X15259357Y-13040214D02*
X15287928Y-13040214D01*
X15316500Y-13054500D01*
X15330786Y-13068786D01*
X15345071Y-13097357D01*
X15359357Y-13154500D01*
X15359357Y-13225929D01*
X15345071Y-13283071D01*
X15330786Y-13311643D01*
X15316500Y-13325929D01*
X15287928Y-13340214D01*
X15259357Y-13340214D01*
X15230786Y-13325929D01*
X15216500Y-13311643D01*
X15202214Y-13283071D01*
X15187928Y-13225929D01*
X15187928Y-13154500D01*
X15202214Y-13097357D01*
X15216500Y-13068786D01*
X15230786Y-13054500D01*
X15259357Y-13040214D01*
X15487928Y-13340214D02*
X15487928Y-13140214D01*
X15487928Y-13168786D02*
X15502214Y-13154500D01*
X15530786Y-13140214D01*
X15573643Y-13140214D01*
X15602214Y-13154500D01*
X15616500Y-13183071D01*
X15616500Y-13340214D01*
X15616500Y-13183071D02*
X15630786Y-13154500D01*
X15659357Y-13140214D01*
X15702214Y-13140214D01*
X15730786Y-13154500D01*
X15745071Y-13183071D01*
X15745071Y-13340214D01*
X15887928Y-13340214D02*
X15887928Y-13140214D01*
X15887928Y-13168786D02*
X15902214Y-13154500D01*
X15930786Y-13140214D01*
X15973643Y-13140214D01*
X16002214Y-13154500D01*
X16016500Y-13183071D01*
X16016500Y-13340214D01*
X16016500Y-13183071D02*
X16030786Y-13154500D01*
X16059357Y-13140214D01*
X16102214Y-13140214D01*
X16130786Y-13154500D01*
X16145071Y-13183071D01*
X16145071Y-13340214D01*
X16730786Y-13025929D02*
X16473643Y-13411643D01*
X17116500Y-13040214D02*
X17145071Y-13040214D01*
X17173643Y-13054500D01*
X17187928Y-13068786D01*
X17202214Y-13097357D01*
X17216500Y-13154500D01*
X17216500Y-13225929D01*
X17202214Y-13283071D01*
X17187928Y-13311643D01*
X17173643Y-13325929D01*
X17145071Y-13340214D01*
X17116500Y-13340214D01*
X17087928Y-13325929D01*
X17073643Y-13311643D01*
X17059357Y-13283071D01*
X17045071Y-13225929D01*
X17045071Y-13154500D01*
X17059357Y-13097357D01*
X17073643Y-13068786D01*
X17087928Y-13054500D01*
X17116500Y-13040214D01*
X17345071Y-13311643D02*
X17359357Y-13325929D01*
X17345071Y-13340214D01*
X17330786Y-13325929D01*
X17345071Y-13311643D01*
X17345071Y-13340214D01*
X17545071Y-13040214D02*
X17573643Y-13040214D01*
X17602214Y-13054500D01*
X17616500Y-13068786D01*
X17630786Y-13097357D01*
X17645071Y-13154500D01*
X17645071Y-13225929D01*
X17630786Y-13283071D01*
X17616500Y-13311643D01*
X17602214Y-13325929D01*
X17573643Y-13340214D01*
X17545071Y-13340214D01*
X17516500Y-13325929D01*
X17502214Y-13311643D01*
X17487928Y-13283071D01*
X17473643Y-13225929D01*
X17473643Y-13154500D01*
X17487928Y-13097357D01*
X17502214Y-13068786D01*
X17516500Y-13054500D01*
X17545071Y-13040214D01*
X17902214Y-13140214D02*
X17902214Y-13340214D01*
X17830786Y-13025929D02*
X17759357Y-13240214D01*
X17945071Y-13240214D01*
X18030786Y-13040214D02*
X18216500Y-13040214D01*
X18116500Y-13154500D01*
X18159357Y-13154500D01*
X18187928Y-13168786D01*
X18202214Y-13183071D01*
X18216500Y-13211643D01*
X18216500Y-13283071D01*
X18202214Y-13311643D01*
X18187928Y-13325929D01*
X18159357Y-13340214D01*
X18073643Y-13340214D01*
X18045071Y-13325929D01*
X18030786Y-13311643D01*
X18330786Y-13040214D02*
X18330786Y-13097357D01*
X18445071Y-13040214D02*
X18445071Y-13097357D01*
X18887928Y-13454500D02*
X18873643Y-13440214D01*
X18845071Y-13397357D01*
X18830786Y-13368786D01*
X18816500Y-13325929D01*
X18802214Y-13254500D01*
X18802214Y-13197357D01*
X18816500Y-13125929D01*
X18830786Y-13083071D01*
X18845071Y-13054500D01*
X18873643Y-13011643D01*
X18887928Y-12997357D01*
X19130786Y-13040214D02*
X19073643Y-13040214D01*
X19045071Y-13054500D01*
X19030786Y-13068786D01*
X19002214Y-13111643D01*
X18987928Y-13168786D01*
X18987928Y-13283071D01*
X19002214Y-13311643D01*
X19016500Y-13325929D01*
X19045071Y-13340214D01*
X19102214Y-13340214D01*
X19130786Y-13325929D01*
X19145071Y-13311643D01*
X19159357Y-13283071D01*
X19159357Y-13211643D01*
X19145071Y-13183071D01*
X19130786Y-13168786D01*
X19102214Y-13154500D01*
X19045071Y-13154500D01*
X19016500Y-13168786D01*
X19002214Y-13183071D01*
X18987928Y-13211643D01*
X19516500Y-13340214D02*
X19516500Y-13040214D01*
X19645071Y-13340214D02*
X19645071Y-13183071D01*
X19630786Y-13154500D01*
X19602214Y-13140214D01*
X19559357Y-13140214D01*
X19530786Y-13154500D01*
X19516500Y-13168786D01*
X19830786Y-13340214D02*
X19802214Y-13325929D01*
X19787928Y-13311643D01*
X19773643Y-13283071D01*
X19773643Y-13197357D01*
X19787928Y-13168786D01*
X19802214Y-13154500D01*
X19830786Y-13140214D01*
X19873643Y-13140214D01*
X19902214Y-13154500D01*
X19916500Y-13168786D01*
X19930786Y-13197357D01*
X19930786Y-13283071D01*
X19916500Y-13311643D01*
X19902214Y-13325929D01*
X19873643Y-13340214D01*
X19830786Y-13340214D01*
X20102214Y-13340214D02*
X20073643Y-13325929D01*
X20059357Y-13297357D01*
X20059357Y-13040214D01*
X20330786Y-13325929D02*
X20302214Y-13340214D01*
X20245071Y-13340214D01*
X20216500Y-13325929D01*
X20202214Y-13297357D01*
X20202214Y-13183071D01*
X20216500Y-13154500D01*
X20245071Y-13140214D01*
X20302214Y-13140214D01*
X20330786Y-13154500D01*
X20345071Y-13183071D01*
X20345071Y-13211643D01*
X20202214Y-13240214D01*
X20459357Y-13325929D02*
X20487929Y-13340214D01*
X20545071Y-13340214D01*
X20573643Y-13325929D01*
X20587929Y-13297357D01*
X20587929Y-13283071D01*
X20573643Y-13254500D01*
X20545071Y-13240214D01*
X20502214Y-13240214D01*
X20473643Y-13225929D01*
X20459357Y-13197357D01*
X20459357Y-13183071D01*
X20473643Y-13154500D01*
X20502214Y-13140214D01*
X20545071Y-13140214D01*
X20573643Y-13154500D01*
X20687928Y-13454500D02*
X20702214Y-13440214D01*
X20730786Y-13397357D01*
X20745071Y-13368786D01*
X20759357Y-13325929D01*
X20773643Y-13254500D01*
X20773643Y-13197357D01*
X20759357Y-13125929D01*
X20745071Y-13083071D01*
X20730786Y-13054500D01*
X20702214Y-13011643D01*
X20687928Y-12997357D01*
X14046500Y-13770500D02*
X14216500Y-13600500D01*
X14046500Y-13430500D01*
X13876500Y-13600500D01*
X14046500Y-13770500D01*
X14459357Y-13436214D02*
X14645071Y-13436214D01*
X14545071Y-13550500D01*
X14587928Y-13550500D01*
X14616500Y-13564786D01*
X14630786Y-13579071D01*
X14645071Y-13607643D01*
X14645071Y-13679071D01*
X14630786Y-13707643D01*
X14616500Y-13721929D01*
X14587928Y-13736214D01*
X14502214Y-13736214D01*
X14473643Y-13721929D01*
X14459357Y-13707643D01*
X14773643Y-13707643D02*
X14787928Y-13721929D01*
X14773643Y-13736214D01*
X14759357Y-13721929D01*
X14773643Y-13707643D01*
X14773643Y-13736214D01*
X15045071Y-13536214D02*
X15045071Y-13736214D01*
X14973643Y-13421929D02*
X14902214Y-13636214D01*
X15087928Y-13636214D01*
X15259357Y-13436214D02*
X15287928Y-13436214D01*
X15316500Y-13450500D01*
X15330786Y-13464786D01*
X15345071Y-13493357D01*
X15359357Y-13550500D01*
X15359357Y-13621929D01*
X15345071Y-13679071D01*
X15330786Y-13707643D01*
X15316500Y-13721929D01*
X15287928Y-13736214D01*
X15259357Y-13736214D01*
X15230786Y-13721929D01*
X15216500Y-13707643D01*
X15202214Y-13679071D01*
X15187928Y-13621929D01*
X15187928Y-13550500D01*
X15202214Y-13493357D01*
X15216500Y-13464786D01*
X15230786Y-13450500D01*
X15259357Y-13436214D01*
X15487928Y-13736214D02*
X15487928Y-13536214D01*
X15487928Y-13564786D02*
X15502214Y-13550500D01*
X15530786Y-13536214D01*
X15573643Y-13536214D01*
X15602214Y-13550500D01*
X15616500Y-13579071D01*
X15616500Y-13736214D01*
X15616500Y-13579071D02*
X15630786Y-13550500D01*
X15659357Y-13536214D01*
X15702214Y-13536214D01*
X15730786Y-13550500D01*
X15745071Y-13579071D01*
X15745071Y-13736214D01*
X15887928Y-13736214D02*
X15887928Y-13536214D01*
X15887928Y-13564786D02*
X15902214Y-13550500D01*
X15930786Y-13536214D01*
X15973643Y-13536214D01*
X16002214Y-13550500D01*
X16016500Y-13579071D01*
X16016500Y-13736214D01*
X16016500Y-13579071D02*
X16030786Y-13550500D01*
X16059357Y-13536214D01*
X16102214Y-13536214D01*
X16130786Y-13550500D01*
X16145071Y-13579071D01*
X16145071Y-13736214D01*
X16730786Y-13421929D02*
X16473643Y-13807643D01*
X17116500Y-13436214D02*
X17145071Y-13436214D01*
X17173643Y-13450500D01*
X17187928Y-13464786D01*
X17202214Y-13493357D01*
X17216500Y-13550500D01*
X17216500Y-13621929D01*
X17202214Y-13679071D01*
X17187928Y-13707643D01*
X17173643Y-13721929D01*
X17145071Y-13736214D01*
X17116500Y-13736214D01*
X17087928Y-13721929D01*
X17073643Y-13707643D01*
X17059357Y-13679071D01*
X17045071Y-13621929D01*
X17045071Y-13550500D01*
X17059357Y-13493357D01*
X17073643Y-13464786D01*
X17087928Y-13450500D01*
X17116500Y-13436214D01*
X17345071Y-13707643D02*
X17359357Y-13721929D01*
X17345071Y-13736214D01*
X17330786Y-13721929D01*
X17345071Y-13707643D01*
X17345071Y-13736214D01*
X17645071Y-13736214D02*
X17473643Y-13736214D01*
X17559357Y-13736214D02*
X17559357Y-13436214D01*
X17530786Y-13479071D01*
X17502214Y-13507643D01*
X17473643Y-13521929D01*
X17745071Y-13436214D02*
X17930786Y-13436214D01*
X17830786Y-13550500D01*
X17873643Y-13550500D01*
X17902214Y-13564786D01*
X17916500Y-13579071D01*
X17930786Y-13607643D01*
X17930786Y-13679071D01*
X17916500Y-13707643D01*
X17902214Y-13721929D01*
X17873643Y-13736214D01*
X17787928Y-13736214D01*
X17759357Y-13721929D01*
X17745071Y-13707643D01*
X18187928Y-13536214D02*
X18187928Y-13736214D01*
X18116500Y-13421929D02*
X18045071Y-13636214D01*
X18230786Y-13636214D01*
X18330786Y-13436214D02*
X18330786Y-13493357D01*
X18445071Y-13436214D02*
X18445071Y-13493357D01*
X18887928Y-13850500D02*
X18873643Y-13836214D01*
X18845071Y-13793357D01*
X18830786Y-13764786D01*
X18816500Y-13721929D01*
X18802214Y-13650500D01*
X18802214Y-13593357D01*
X18816500Y-13521929D01*
X18830786Y-13479071D01*
X18845071Y-13450500D01*
X18873643Y-13407643D01*
X18887928Y-13393357D01*
X19130786Y-13536214D02*
X19130786Y-13736214D01*
X19059357Y-13421929D02*
X18987928Y-13636214D01*
X19173643Y-13636214D01*
X19516500Y-13736214D02*
X19516500Y-13436214D01*
X19645071Y-13736214D02*
X19645071Y-13579071D01*
X19630786Y-13550500D01*
X19602214Y-13536214D01*
X19559357Y-13536214D01*
X19530786Y-13550500D01*
X19516500Y-13564786D01*
X19830786Y-13736214D02*
X19802214Y-13721929D01*
X19787928Y-13707643D01*
X19773643Y-13679071D01*
X19773643Y-13593357D01*
X19787928Y-13564786D01*
X19802214Y-13550500D01*
X19830786Y-13536214D01*
X19873643Y-13536214D01*
X19902214Y-13550500D01*
X19916500Y-13564786D01*
X19930786Y-13593357D01*
X19930786Y-13679071D01*
X19916500Y-13707643D01*
X19902214Y-13721929D01*
X19873643Y-13736214D01*
X19830786Y-13736214D01*
X20102214Y-13736214D02*
X20073643Y-13721929D01*
X20059357Y-13693357D01*
X20059357Y-13436214D01*
X20330786Y-13721929D02*
X20302214Y-13736214D01*
X20245071Y-13736214D01*
X20216500Y-13721929D01*
X20202214Y-13693357D01*
X20202214Y-13579071D01*
X20216500Y-13550500D01*
X20245071Y-13536214D01*
X20302214Y-13536214D01*
X20330786Y-13550500D01*
X20345071Y-13579071D01*
X20345071Y-13607643D01*
X20202214Y-13636214D01*
X20459357Y-13721929D02*
X20487929Y-13736214D01*
X20545071Y-13736214D01*
X20573643Y-13721929D01*
X20587929Y-13693357D01*
X20587929Y-13679071D01*
X20573643Y-13650500D01*
X20545071Y-13636214D01*
X20502214Y-13636214D01*
X20473643Y-13621929D01*
X20459357Y-13593357D01*
X20459357Y-13579071D01*
X20473643Y-13550500D01*
X20502214Y-13536214D01*
X20545071Y-13536214D01*
X20573643Y-13550500D01*
X20687928Y-13850500D02*
X20702214Y-13836214D01*
X20730786Y-13793357D01*
X20745071Y-13764786D01*
X20759357Y-13721929D01*
X20773643Y-13650500D01*
X20773643Y-13593357D01*
X20759357Y-13521929D01*
X20745071Y-13479071D01*
X20730786Y-13450500D01*
X20702214Y-13407643D01*
X20687928Y-13393357D01*
M02*
