M48
;DRILL file {KiCad 4.0.1-stable} date 04/27/17 14:33:27
;FORMAT={-:-/ absolute / metric / decimal}
FMAT,2
METRIC,TZ
T1C0.700
T2C0.900
T3C1.000
T4C1.100
T5C3.400
%
G90
G05
M71
T1
X146.05Y-98.425
X148.59Y-93.345
X151.13Y-87.63
X151.13Y-93.345
X151.765Y-62.23
X153.67Y-87.63
X153.67Y-93.345
X154.305Y-69.85
X154.305Y-72.39
X154.305Y-74.93
X154.305Y-77.47
X154.305Y-81.28
X156.21Y-98.425
X156.845Y-66.04
X156.845Y-81.28
X158.75Y-98.425
X158.751Y-102.867
X159.385Y-66.04
X159.385Y-81.28
X161.29Y-86.36
X161.29Y-88.9
X161.29Y-98.425
X161.925Y-62.23
X161.925Y-66.04
X161.925Y-69.85
X161.925Y-72.39
X161.925Y-74.93
X161.925Y-77.47
X163.83Y-98.425
X164.465Y-62.23
X164.465Y-72.39
X167.005Y-71.12
X167.005Y-73.66
X167.005Y-76.2
X167.005Y-78.74
X167.005Y-86.36
X167.005Y-88.9
X167.005Y-91.44
X167.005Y-93.98
X167.005Y-98.425
X168.275Y-82.55
X168.91Y-102.87
X170.815Y-82.55
X171.451Y-102.867
X173.355Y-82.55
X174.625Y-71.12
X174.625Y-73.66
X174.625Y-76.2
X174.625Y-78.74
X174.625Y-86.36
X174.625Y-88.9
X174.625Y-91.44
X174.625Y-93.98
X177.165Y-66.04
X177.165Y-76.2
X177.165Y-78.74
X177.165Y-98.425
X178.435Y-93.98
X179.705Y-66.04
X179.705Y-76.2
X179.705Y-78.74
X180.975Y-93.98
X181.61Y-102.87
X182.245Y-78.74
X183.515Y-93.98
X186.69Y-69.85
X186.69Y-75.565
X189.23Y-69.85
X189.23Y-75.565
X189.23Y-97.155
X191.77Y-69.85
X191.77Y-97.155
X195.58Y-75.565
X196.215Y-97.155
X196.215Y-99.695
X196.215Y-102.235
X198.12Y-75.565
T2
X146.05Y-95.885
X156.209Y-95.888
T3
X145.415Y-72.39
X145.415Y-74.93
X146.05Y-80.01
X146.05Y-82.55
X151.765Y-59.055
X154.305Y-59.055
X159.385Y-59.055
X161.925Y-59.055
X167.005Y-59.055
X169.545Y-59.055
X186.69Y-103.378
X189.23Y-103.378
X191.77Y-103.378
T4
X186.69Y-84.455
X189.23Y-84.455
X189.23Y-90.805
X191.77Y-84.455
X191.77Y-90.805
X194.31Y-90.805
T5
X146.05Y-58.42
X146.05Y-106.68
X200.66Y-58.42
X200.66Y-106.68
T0
M30
