G04 #@! TF.FileFunction,Copper,L2,Bot,Signal*
%FSLAX46Y46*%
G04 Gerber Fmt 4.6, Leading zero omitted, Abs format (unit mm)*
G04 Created by KiCad (PCBNEW 4.0.1-stable) date 04/27/17 14:33:25*
%MOMM*%
G01*
G04 APERTURE LIST*
%ADD10C,0.100000*%
%ADD11R,1.716000X1.716000*%
%ADD12C,1.716000*%
%ADD13R,1.916000X1.916000*%
%ADD14C,1.916000*%
%ADD15R,2.016000X2.016000*%
%ADD16C,2.016000*%
%ADD17C,1.989000*%
%ADD18R,1.989000X1.989000*%
%ADD19C,3.800000*%
%ADD20C,0.304800*%
G04 APERTURE END LIST*
D10*
D11*
X186690000Y-75565000D03*
D12*
X189230000Y-75565000D03*
X186690000Y-69850000D03*
X189230000Y-69850000D03*
X191770000Y-69850000D03*
X182245000Y-78740000D03*
X179705000Y-78740000D03*
X177165000Y-78740000D03*
X161925000Y-66040000D03*
X159385000Y-66040000D03*
X156845000Y-66040000D03*
D11*
X198120000Y-75565000D03*
D12*
X195580000Y-75565000D03*
X178435000Y-93980000D03*
X180975000Y-93980000D03*
X183515000Y-93980000D03*
D11*
X189230000Y-97155000D03*
D12*
X191770000Y-97155000D03*
X196215000Y-97155000D03*
X196215000Y-99695000D03*
X196215000Y-102235000D03*
X168275000Y-82550000D03*
X170815000Y-82550000D03*
X173355000Y-82550000D03*
X154305000Y-81280000D03*
X156845000Y-81280000D03*
X159385000Y-81280000D03*
D11*
X151130000Y-87630000D03*
D12*
X153670000Y-87630000D03*
X153670000Y-93345000D03*
X151130000Y-93345000D03*
X148590000Y-93345000D03*
D11*
X161290000Y-88900000D03*
D12*
X161290000Y-86360000D03*
D11*
X171450520Y-102867460D03*
D12*
X181610000Y-102870000D03*
D11*
X158750520Y-102867460D03*
D12*
X168910000Y-102870000D03*
D13*
X156209480Y-95887540D03*
D14*
X146050000Y-95885000D03*
D15*
X186690000Y-103378000D03*
D16*
X189230000Y-103378000D03*
X191770000Y-103378000D03*
D15*
X145415000Y-72390000D03*
D16*
X145415000Y-74930000D03*
D15*
X146050000Y-80010000D03*
D16*
X146050000Y-82550000D03*
D15*
X151765000Y-59055000D03*
D16*
X154305000Y-59055000D03*
D15*
X159385000Y-59055000D03*
D16*
X161925000Y-59055000D03*
D15*
X167005000Y-59055000D03*
D16*
X169545000Y-59055000D03*
D12*
X161290000Y-98425000D03*
X163830000Y-98425000D03*
X158750000Y-98425000D03*
X177165000Y-98425000D03*
X167005000Y-98425000D03*
X146050000Y-98425000D03*
X156210000Y-98425000D03*
X177165000Y-76200000D03*
X177165000Y-66040000D03*
X179705000Y-66040000D03*
X179705000Y-76200000D03*
X151765000Y-62230000D03*
X161925000Y-62230000D03*
X164465000Y-72390000D03*
X164465000Y-62230000D03*
X167005000Y-86360000D03*
X167005000Y-88900000D03*
X167005000Y-91440000D03*
X167005000Y-93980000D03*
X174625000Y-93980000D03*
X174625000Y-91440000D03*
X174625000Y-88900000D03*
X174625000Y-86360000D03*
X167005000Y-71120000D03*
X167005000Y-73660000D03*
X167005000Y-76200000D03*
X167005000Y-78740000D03*
X174625000Y-78740000D03*
X174625000Y-76200000D03*
X174625000Y-73660000D03*
X174625000Y-71120000D03*
X154305000Y-69850000D03*
X154305000Y-72390000D03*
X154305000Y-74930000D03*
X154305000Y-77470000D03*
X161925000Y-77470000D03*
X161925000Y-74930000D03*
X161925000Y-72390000D03*
X161925000Y-69850000D03*
D17*
X189230000Y-84455000D03*
D18*
X186690000Y-84455000D03*
D17*
X191770000Y-84455000D03*
X191770000Y-90805000D03*
D18*
X189230000Y-90805000D03*
D17*
X194310000Y-90805000D03*
D19*
X200660000Y-106680000D03*
X146050000Y-106680000D03*
X146050000Y-58420000D03*
X200660000Y-58420000D03*
D20*
X174625000Y-71120000D02*
X179070000Y-71120000D01*
X179070000Y-71120000D02*
X183515000Y-75565000D01*
X181610000Y-102870000D02*
X186690000Y-102870000D01*
X186690000Y-75565000D02*
X183515000Y-75565000D01*
X183515000Y-75565000D02*
X182245000Y-76835000D01*
X186690000Y-75565000D02*
X186690000Y-84455000D01*
X186690000Y-75565000D02*
X186690000Y-69850000D01*
X182245000Y-78740000D02*
X182245000Y-81280000D01*
X182245000Y-78740000D02*
X182245000Y-76835000D01*
X161925000Y-66040000D02*
X161925000Y-69850000D01*
X182245000Y-81280000D02*
X175895000Y-87630000D01*
X177165000Y-98425000D02*
X175895000Y-98425000D01*
X175895000Y-98425000D02*
X171450000Y-93980000D01*
X181610000Y-102870000D02*
X179070000Y-102870000D01*
X177165000Y-100965000D02*
X177165000Y-98425000D01*
X179070000Y-102870000D02*
X177165000Y-100965000D01*
X167005000Y-93980000D02*
X171450000Y-93980000D01*
X175895000Y-87630000D02*
X174625000Y-86360000D01*
X171450000Y-93980000D02*
X172720000Y-92710000D01*
X175895000Y-92075000D02*
X175895000Y-87630000D01*
X175260000Y-92710000D02*
X175895000Y-92075000D01*
X172720000Y-92710000D02*
X175260000Y-92710000D01*
X199390000Y-92075000D02*
X199390000Y-73025000D01*
X164465000Y-56515000D02*
X161925000Y-59055000D01*
X182880000Y-56515000D02*
X164465000Y-56515000D01*
X199390000Y-73025000D02*
X182880000Y-56515000D01*
X196215000Y-106680000D02*
X196850000Y-106680000D01*
X199390000Y-104140000D02*
X199390000Y-103505000D01*
X196850000Y-106680000D02*
X199390000Y-104140000D01*
X199390000Y-92075000D02*
X198755000Y-91440000D01*
X199390000Y-103505000D02*
X199390000Y-92075000D01*
X153670000Y-106045000D02*
X154305000Y-106680000D01*
X154305000Y-106680000D02*
X196215000Y-106680000D01*
X146050000Y-98425000D02*
X153670000Y-106045000D01*
X195580000Y-88265000D02*
X189230000Y-88265000D01*
X198755000Y-91440000D02*
X195580000Y-88265000D01*
X159385000Y-66040000D02*
X159385000Y-59055000D01*
X146050000Y-82550000D02*
X146050000Y-95885000D01*
X143510000Y-71120000D02*
X143510000Y-77470000D01*
X143510000Y-77470000D02*
X146050000Y-80010000D01*
X146050000Y-80010000D02*
X146050000Y-82550000D01*
X175895000Y-72390000D02*
X173990000Y-72390000D01*
X173990000Y-72390000D02*
X173355000Y-71755000D01*
X173355000Y-71755000D02*
X173355000Y-70485000D01*
X173355000Y-70485000D02*
X173990000Y-69850000D01*
X173990000Y-69850000D02*
X180975000Y-69850000D01*
X180975000Y-69850000D02*
X182245000Y-68580000D01*
X179705000Y-78740000D02*
X180975000Y-77470000D01*
X177800000Y-72390000D02*
X175895000Y-72390000D01*
X180975000Y-75565000D02*
X177800000Y-72390000D01*
X180975000Y-77470000D02*
X180975000Y-75565000D01*
X187960000Y-68580000D02*
X189230000Y-69850000D01*
X182245000Y-68580000D02*
X187960000Y-68580000D01*
X155575000Y-71120000D02*
X143510000Y-71120000D01*
X155575000Y-73025000D02*
X155575000Y-71120000D01*
X155575000Y-71120000D02*
X155575000Y-67310000D01*
X155575000Y-67310000D02*
X156845000Y-66040000D01*
X156845000Y-81280000D02*
X155575000Y-82550000D01*
X154940000Y-73660000D02*
X155575000Y-73025000D01*
X153670000Y-73660000D02*
X154940000Y-73660000D01*
X153035000Y-74295000D02*
X153670000Y-73660000D01*
X153035000Y-81915000D02*
X153035000Y-74295000D01*
X153670000Y-82550000D02*
X153035000Y-81915000D01*
X155575000Y-82550000D02*
X153670000Y-82550000D01*
X183515000Y-93980000D02*
X186055000Y-93980000D01*
X186055000Y-93980000D02*
X189230000Y-90805000D01*
X191770000Y-69850000D02*
X189230000Y-69850000D01*
X189230000Y-69850000D02*
X189230000Y-75565000D01*
X151130000Y-87630000D02*
X151130000Y-93345000D01*
X151130000Y-93345000D02*
X148590000Y-93345000D01*
X148590000Y-93345000D02*
X146050000Y-95885000D01*
X196215000Y-99695000D02*
X196215000Y-102235000D01*
X196215000Y-102235000D02*
X193675000Y-104775000D01*
X193675000Y-104775000D02*
X191135000Y-104775000D01*
X191135000Y-104775000D02*
X189230000Y-102870000D01*
X189230000Y-84455000D02*
X189230000Y-75565000D01*
X189230000Y-75565000D02*
X195580000Y-75565000D01*
X189230000Y-102870000D02*
X189230000Y-97155000D01*
X189230000Y-97155000D02*
X189230000Y-90805000D01*
X189230000Y-90805000D02*
X189230000Y-88265000D01*
X189230000Y-88265000D02*
X189230000Y-84455000D01*
X180975000Y-93980000D02*
X183515000Y-93980000D01*
X179705000Y-78740000D02*
X177165000Y-78740000D01*
X177165000Y-78740000D02*
X174625000Y-78740000D01*
X146050000Y-98425000D02*
X146050000Y-95885000D01*
X159385000Y-59055000D02*
X161925000Y-59055000D01*
X159385000Y-66040000D02*
X156845000Y-66040000D01*
X156845000Y-81280000D02*
X159385000Y-81280000D01*
X170815000Y-82550000D02*
X173355000Y-82550000D01*
X173355000Y-82550000D02*
X174625000Y-81280000D01*
X174625000Y-81280000D02*
X174625000Y-78740000D01*
X164465000Y-62230000D02*
X164465000Y-58420000D01*
X198120000Y-73025000D02*
X198120000Y-75565000D01*
X182245000Y-57150000D02*
X198120000Y-73025000D01*
X165735000Y-57150000D02*
X182245000Y-57150000D01*
X164465000Y-58420000D02*
X165735000Y-57150000D01*
X161925000Y-62230000D02*
X164465000Y-62230000D01*
X191770000Y-84455000D02*
X194945000Y-84455000D01*
X194945000Y-84455000D02*
X198120000Y-81280000D01*
X198120000Y-81280000D02*
X198120000Y-75565000D01*
X178435000Y-93980000D02*
X174625000Y-93980000D01*
X191770000Y-90805000D02*
X193040000Y-89535000D01*
X163195000Y-80645000D02*
X158115000Y-85725000D01*
X158115000Y-85725000D02*
X153670000Y-85725000D01*
X153670000Y-85725000D02*
X152400000Y-86995000D01*
X152400000Y-86995000D02*
X152400000Y-101600000D01*
X163195000Y-80645000D02*
X163195000Y-76200000D01*
X156845000Y-106045000D02*
X152400000Y-101600000D01*
X196469000Y-106045000D02*
X156845000Y-106045000D01*
X198755000Y-103759000D02*
X196469000Y-106045000D01*
X198755000Y-92710000D02*
X198755000Y-103759000D01*
X194945000Y-88900000D02*
X198755000Y-92710000D01*
X193675000Y-88900000D02*
X194945000Y-88900000D01*
X193040000Y-89535000D02*
X193675000Y-88900000D01*
X196215000Y-97155000D02*
X191770000Y-97155000D01*
X191770000Y-90805000D02*
X191770000Y-97155000D01*
X191770000Y-97155000D02*
X191770000Y-102870000D01*
X154305000Y-77470000D02*
X155575000Y-76200000D01*
X155575000Y-76200000D02*
X163195000Y-76200000D01*
X164465000Y-76200000D02*
X167005000Y-78740000D01*
X163195000Y-76200000D02*
X164465000Y-76200000D01*
X154305000Y-77470000D02*
X154305000Y-81280000D01*
X168275000Y-82550000D02*
X167005000Y-81280000D01*
X167005000Y-81280000D02*
X167005000Y-78740000D01*
X153670000Y-93345000D02*
X153670000Y-100965000D01*
X198120000Y-94615000D02*
X194310000Y-90805000D01*
X198120000Y-103505000D02*
X198120000Y-94615000D01*
X196215000Y-105410000D02*
X198120000Y-103505000D01*
X158115000Y-105410000D02*
X196215000Y-105410000D01*
X153670000Y-100965000D02*
X158115000Y-105410000D01*
X161290000Y-86360000D02*
X154940000Y-86360000D01*
X154940000Y-86360000D02*
X153670000Y-87630000D01*
X153670000Y-87630000D02*
X153670000Y-93345000D01*
X167005000Y-86360000D02*
X161290000Y-86360000D01*
X156209480Y-95887540D02*
X161290000Y-95887540D01*
X161290000Y-95887540D02*
X161290000Y-95885000D01*
X167005000Y-76200000D02*
X169545000Y-78740000D01*
X169545000Y-78740000D02*
X169545000Y-88900000D01*
X161290000Y-98425000D02*
X161290000Y-95885000D01*
X161290000Y-95885000D02*
X161290000Y-93983060D01*
X161290000Y-93983060D02*
X161290000Y-88900000D01*
X161290000Y-88900000D02*
X167005000Y-88900000D01*
X167005000Y-88900000D02*
X169545000Y-88900000D01*
X169545000Y-88900000D02*
X174625000Y-88900000D01*
X174625000Y-88900000D02*
X174625000Y-91440000D01*
X171450520Y-102867460D02*
X168912540Y-102867460D01*
X168912540Y-102867460D02*
X168910000Y-102870000D01*
X158750520Y-102867460D02*
X158750520Y-98425520D01*
X158750520Y-98425520D02*
X158750000Y-98425000D01*
X158750000Y-98425000D02*
X156210000Y-98425000D01*
X145415000Y-74930000D02*
X145415000Y-72390000D01*
X145415000Y-72390000D02*
X154305000Y-72390000D01*
X160020000Y-82550000D02*
X159385000Y-83185000D01*
X153035000Y-83185000D02*
X144780000Y-74930000D01*
X159385000Y-83185000D02*
X153035000Y-83185000D01*
X161925000Y-77470000D02*
X161925000Y-80645000D01*
X161925000Y-80645000D02*
X160020000Y-82550000D01*
X154305000Y-69850000D02*
X154305000Y-64770000D01*
X154305000Y-64770000D02*
X151765000Y-62230000D01*
X151765000Y-62230000D02*
X151765000Y-59055000D01*
X151765000Y-59055000D02*
X154305000Y-59055000D01*
X169545000Y-59055000D02*
X169545000Y-65405000D01*
X164465000Y-70485000D02*
X164465000Y-72390000D01*
X169545000Y-65405000D02*
X164465000Y-70485000D01*
X167005000Y-59055000D02*
X169545000Y-59055000D01*
X161925000Y-72390000D02*
X164465000Y-72390000D01*
X163830000Y-98425000D02*
X167005000Y-98425000D01*
X179705000Y-76200000D02*
X177165000Y-76200000D01*
X177165000Y-76200000D02*
X174625000Y-76200000D01*
X154305000Y-74930000D02*
X156845000Y-74930000D01*
X158115000Y-73660000D02*
X167005000Y-73660000D01*
X156845000Y-74930000D02*
X158115000Y-73660000D01*
X177165000Y-66040000D02*
X172085000Y-66040000D01*
X172085000Y-66040000D02*
X167005000Y-71120000D01*
X167005000Y-71120000D02*
X167005000Y-73660000D01*
X172085000Y-71120000D02*
X172085000Y-70485000D01*
X167640000Y-74930000D02*
X172085000Y-70485000D01*
X172085000Y-70485000D02*
X173990000Y-68580000D01*
X173990000Y-68580000D02*
X174625000Y-68580000D01*
X174625000Y-73660000D02*
X172720000Y-73660000D01*
X172085000Y-73025000D02*
X172085000Y-71120000D01*
X172720000Y-73660000D02*
X172085000Y-73025000D01*
X174625000Y-68580000D02*
X177165000Y-68580000D01*
X177165000Y-68580000D02*
X179705000Y-66040000D01*
X161925000Y-74930000D02*
X167640000Y-74930000D01*
M02*
