G04 #@! TF.FileFunction,Other,User*
%FSLAX46Y46*%
G04 Gerber Fmt 4.6, Leading zero omitted, Abs format (unit mm)*
G04 Created by KiCad (PCBNEW 4.0.7) date 11/25/17 11:10:42*
%MOMM*%
%LPD*%
G01*
G04 APERTURE LIST*
%ADD10C,0.100000*%
%ADD11C,0.300000*%
G04 APERTURE END LIST*
D10*
D11*
X216821429Y-88928573D02*
X216821429Y-88071430D01*
X216821429Y-88500002D02*
X218321429Y-88500002D01*
X218107143Y-88357145D01*
X217964286Y-88214287D01*
X217892857Y-88071430D01*
X218321429Y-89857144D02*
X218321429Y-90000001D01*
X218250000Y-90142858D01*
X218178571Y-90214287D01*
X218035714Y-90285716D01*
X217750000Y-90357144D01*
X217392857Y-90357144D01*
X217107143Y-90285716D01*
X216964286Y-90214287D01*
X216892857Y-90142858D01*
X216821429Y-90000001D01*
X216821429Y-89857144D01*
X216892857Y-89714287D01*
X216964286Y-89642858D01*
X217107143Y-89571430D01*
X217392857Y-89500001D01*
X217750000Y-89500001D01*
X218035714Y-89571430D01*
X218178571Y-89642858D01*
X218250000Y-89714287D01*
X218321429Y-89857144D01*
X218321429Y-91285715D02*
X218321429Y-91428572D01*
X218250000Y-91571429D01*
X218178571Y-91642858D01*
X218035714Y-91714287D01*
X217750000Y-91785715D01*
X217392857Y-91785715D01*
X217107143Y-91714287D01*
X216964286Y-91642858D01*
X216892857Y-91571429D01*
X216821429Y-91428572D01*
X216821429Y-91285715D01*
X216892857Y-91142858D01*
X216964286Y-91071429D01*
X217107143Y-91000001D01*
X217392857Y-90928572D01*
X217750000Y-90928572D01*
X218035714Y-91000001D01*
X218178571Y-91071429D01*
X218250000Y-91142858D01*
X218321429Y-91285715D01*
X216964286Y-92428572D02*
X216892857Y-92500000D01*
X216821429Y-92428572D01*
X216892857Y-92357143D01*
X216964286Y-92428572D01*
X216821429Y-92428572D01*
X218321429Y-93428572D02*
X218321429Y-93571429D01*
X218250000Y-93714286D01*
X218178571Y-93785715D01*
X218035714Y-93857144D01*
X217750000Y-93928572D01*
X217392857Y-93928572D01*
X217107143Y-93857144D01*
X216964286Y-93785715D01*
X216892857Y-93714286D01*
X216821429Y-93571429D01*
X216821429Y-93428572D01*
X216892857Y-93285715D01*
X216964286Y-93214286D01*
X217107143Y-93142858D01*
X217392857Y-93071429D01*
X217750000Y-93071429D01*
X218035714Y-93142858D01*
X218178571Y-93214286D01*
X218250000Y-93285715D01*
X218321429Y-93428572D01*
X218321429Y-94857143D02*
X218321429Y-95000000D01*
X218250000Y-95142857D01*
X218178571Y-95214286D01*
X218035714Y-95285715D01*
X217750000Y-95357143D01*
X217392857Y-95357143D01*
X217107143Y-95285715D01*
X216964286Y-95214286D01*
X216892857Y-95142857D01*
X216821429Y-95000000D01*
X216821429Y-94857143D01*
X216892857Y-94714286D01*
X216964286Y-94642857D01*
X217107143Y-94571429D01*
X217392857Y-94500000D01*
X217750000Y-94500000D01*
X218035714Y-94571429D01*
X218178571Y-94642857D01*
X218250000Y-94714286D01*
X218321429Y-94857143D01*
X218321429Y-96285714D02*
X218321429Y-96428571D01*
X218250000Y-96571428D01*
X218178571Y-96642857D01*
X218035714Y-96714286D01*
X217750000Y-96785714D01*
X217392857Y-96785714D01*
X217107143Y-96714286D01*
X216964286Y-96642857D01*
X216892857Y-96571428D01*
X216821429Y-96428571D01*
X216821429Y-96285714D01*
X216892857Y-96142857D01*
X216964286Y-96071428D01*
X217107143Y-96000000D01*
X217392857Y-95928571D01*
X217750000Y-95928571D01*
X218035714Y-96000000D01*
X218178571Y-96071428D01*
X218250000Y-96142857D01*
X218321429Y-96285714D01*
X216821429Y-98571428D02*
X217821429Y-98571428D01*
X217678571Y-98571428D02*
X217750000Y-98642856D01*
X217821429Y-98785714D01*
X217821429Y-98999999D01*
X217750000Y-99142856D01*
X217607143Y-99214285D01*
X216821429Y-99214285D01*
X217607143Y-99214285D02*
X217750000Y-99285714D01*
X217821429Y-99428571D01*
X217821429Y-99642856D01*
X217750000Y-99785714D01*
X217607143Y-99857142D01*
X216821429Y-99857142D01*
X216821429Y-100571428D02*
X217821429Y-100571428D01*
X217678571Y-100571428D02*
X217750000Y-100642856D01*
X217821429Y-100785714D01*
X217821429Y-100999999D01*
X217750000Y-101142856D01*
X217607143Y-101214285D01*
X216821429Y-101214285D01*
X217607143Y-101214285D02*
X217750000Y-101285714D01*
X217821429Y-101428571D01*
X217821429Y-101642856D01*
X217750000Y-101785714D01*
X217607143Y-101857142D01*
X216821429Y-101857142D01*
X215000000Y-45000000D02*
X215000000Y-145000000D01*
X210000000Y-45000000D02*
X215000000Y-45000000D01*
X210000000Y-145000000D02*
X215000000Y-145000000D01*
X215000000Y-145000000D02*
X214413579Y-143873496D01*
X215000000Y-145000000D02*
X215586421Y-143873496D01*
X215000000Y-45000000D02*
X214413579Y-46126504D01*
X215000000Y-45000000D02*
X215586421Y-46126504D01*
X128928573Y-153178571D02*
X128071430Y-153178571D01*
X128500002Y-153178571D02*
X128500002Y-151678571D01*
X128357145Y-151892857D01*
X128214287Y-152035714D01*
X128071430Y-152107143D01*
X130285716Y-151678571D02*
X129571430Y-151678571D01*
X129500001Y-152392857D01*
X129571430Y-152321429D01*
X129714287Y-152250000D01*
X130071430Y-152250000D01*
X130214287Y-152321429D01*
X130285716Y-152392857D01*
X130357144Y-152535714D01*
X130357144Y-152892857D01*
X130285716Y-153035714D01*
X130214287Y-153107143D01*
X130071430Y-153178571D01*
X129714287Y-153178571D01*
X129571430Y-153107143D01*
X129500001Y-153035714D01*
X131285715Y-151678571D02*
X131428572Y-151678571D01*
X131571429Y-151750000D01*
X131642858Y-151821429D01*
X131714287Y-151964286D01*
X131785715Y-152250000D01*
X131785715Y-152607143D01*
X131714287Y-152892857D01*
X131642858Y-153035714D01*
X131571429Y-153107143D01*
X131428572Y-153178571D01*
X131285715Y-153178571D01*
X131142858Y-153107143D01*
X131071429Y-153035714D01*
X131000001Y-152892857D01*
X130928572Y-152607143D01*
X130928572Y-152250000D01*
X131000001Y-151964286D01*
X131071429Y-151821429D01*
X131142858Y-151750000D01*
X131285715Y-151678571D01*
X132428572Y-153035714D02*
X132500000Y-153107143D01*
X132428572Y-153178571D01*
X132357143Y-153107143D01*
X132428572Y-153035714D01*
X132428572Y-153178571D01*
X133428572Y-151678571D02*
X133571429Y-151678571D01*
X133714286Y-151750000D01*
X133785715Y-151821429D01*
X133857144Y-151964286D01*
X133928572Y-152250000D01*
X133928572Y-152607143D01*
X133857144Y-152892857D01*
X133785715Y-153035714D01*
X133714286Y-153107143D01*
X133571429Y-153178571D01*
X133428572Y-153178571D01*
X133285715Y-153107143D01*
X133214286Y-153035714D01*
X133142858Y-152892857D01*
X133071429Y-152607143D01*
X133071429Y-152250000D01*
X133142858Y-151964286D01*
X133214286Y-151821429D01*
X133285715Y-151750000D01*
X133428572Y-151678571D01*
X134857143Y-151678571D02*
X135000000Y-151678571D01*
X135142857Y-151750000D01*
X135214286Y-151821429D01*
X135285715Y-151964286D01*
X135357143Y-152250000D01*
X135357143Y-152607143D01*
X135285715Y-152892857D01*
X135214286Y-153035714D01*
X135142857Y-153107143D01*
X135000000Y-153178571D01*
X134857143Y-153178571D01*
X134714286Y-153107143D01*
X134642857Y-153035714D01*
X134571429Y-152892857D01*
X134500000Y-152607143D01*
X134500000Y-152250000D01*
X134571429Y-151964286D01*
X134642857Y-151821429D01*
X134714286Y-151750000D01*
X134857143Y-151678571D01*
X136285714Y-151678571D02*
X136428571Y-151678571D01*
X136571428Y-151750000D01*
X136642857Y-151821429D01*
X136714286Y-151964286D01*
X136785714Y-152250000D01*
X136785714Y-152607143D01*
X136714286Y-152892857D01*
X136642857Y-153035714D01*
X136571428Y-153107143D01*
X136428571Y-153178571D01*
X136285714Y-153178571D01*
X136142857Y-153107143D01*
X136071428Y-153035714D01*
X136000000Y-152892857D01*
X135928571Y-152607143D01*
X135928571Y-152250000D01*
X136000000Y-151964286D01*
X136071428Y-151821429D01*
X136142857Y-151750000D01*
X136285714Y-151678571D01*
X138571428Y-153178571D02*
X138571428Y-152178571D01*
X138571428Y-152321429D02*
X138642856Y-152250000D01*
X138785714Y-152178571D01*
X138999999Y-152178571D01*
X139142856Y-152250000D01*
X139214285Y-152392857D01*
X139214285Y-153178571D01*
X139214285Y-152392857D02*
X139285714Y-152250000D01*
X139428571Y-152178571D01*
X139642856Y-152178571D01*
X139785714Y-152250000D01*
X139857142Y-152392857D01*
X139857142Y-153178571D01*
X140571428Y-153178571D02*
X140571428Y-152178571D01*
X140571428Y-152321429D02*
X140642856Y-152250000D01*
X140785714Y-152178571D01*
X140999999Y-152178571D01*
X141142856Y-152250000D01*
X141214285Y-152392857D01*
X141214285Y-153178571D01*
X141214285Y-152392857D02*
X141285714Y-152250000D01*
X141428571Y-152178571D01*
X141642856Y-152178571D01*
X141785714Y-152250000D01*
X141857142Y-152392857D01*
X141857142Y-153178571D01*
X60000000Y-150000000D02*
X210000000Y-150000000D01*
X60000000Y-145000000D02*
X60000000Y-150000000D01*
X210000000Y-145000000D02*
X210000000Y-150000000D01*
X210000000Y-150000000D02*
X208873496Y-150586421D01*
X210000000Y-150000000D02*
X208873496Y-149413579D01*
X60000000Y-150000000D02*
X61126504Y-150586421D01*
X60000000Y-150000000D02*
X61126504Y-149413579D01*
M02*
