G04 #@! TF.FileFunction,Soldermask,Top*
%FSLAX46Y46*%
G04 Gerber Fmt 4.6, Leading zero omitted, Abs format (unit mm)*
G04 Created by KiCad (PCBNEW 4.0.7) date 11/25/17 11:10:42*
%MOMM*%
%LPD*%
G01*
G04 APERTURE LIST*
%ADD10C,0.100000*%
%ADD11R,1.700000X1.700000*%
%ADD12O,1.700000X1.700000*%
%ADD13R,3.000000X1.980000*%
%ADD14R,1.100000X0.250000*%
%ADD15R,1.250000X1.500000*%
%ADD16R,1.300000X1.500000*%
%ADD17R,1.500000X1.250000*%
%ADD18R,3.750000X2.500000*%
%ADD19R,3.300000X4.500000*%
%ADD20R,2.216000X2.216000*%
%ADD21C,2.216000*%
%ADD22R,2.016000X2.016000*%
%ADD23C,1.762000*%
%ADD24R,1.762000X1.762000*%
%ADD25C,1.462000*%
%ADD26C,1.716000*%
%ADD27C,2.016000*%
%ADD28R,1.500000X1.300000*%
%ADD29C,1.662000*%
%ADD30C,1.500000*%
%ADD31R,1.100000X0.400000*%
%ADD32R,0.250000X1.300000*%
%ADD33R,1.300000X0.250000*%
%ADD34R,0.280000X1.500000*%
%ADD35R,1.500000X0.280000*%
%ADD36R,1.450000X0.450000*%
%ADD37C,1.520000*%
%ADD38C,2.700000*%
%ADD39R,1.980000X3.000000*%
%ADD40C,3.800000*%
G04 APERTURE END LIST*
D10*
D11*
X64000000Y-80000000D03*
D12*
X64000000Y-82540000D03*
X64000000Y-85080000D03*
X64000000Y-87620000D03*
X64000000Y-90160000D03*
X64000000Y-92700000D03*
X64000000Y-95240000D03*
X64000000Y-97780000D03*
X64000000Y-100320000D03*
X64000000Y-102860000D03*
X64000000Y-105400000D03*
X64000000Y-107940000D03*
X64000000Y-110480000D03*
X64000000Y-113020000D03*
X64000000Y-115560000D03*
X64000000Y-118100000D03*
X64000000Y-120640000D03*
X64000000Y-123180000D03*
X64000000Y-125720000D03*
X64000000Y-128260000D03*
D13*
X129500000Y-111870000D03*
X129500000Y-117130000D03*
X134500000Y-117130000D03*
X134500000Y-111870000D03*
D14*
X127000000Y-100000000D03*
X107500000Y-88500000D03*
X127000000Y-99500000D03*
X127000000Y-99000000D03*
X127000000Y-98500000D03*
X127000000Y-98000000D03*
X127000000Y-97500000D03*
X127000000Y-97000000D03*
X127000000Y-96500000D03*
X127000000Y-96000000D03*
X127000000Y-95500000D03*
X127000000Y-95000000D03*
X127000000Y-94500000D03*
X127000000Y-94000000D03*
X127000000Y-93500000D03*
X127000000Y-93000000D03*
X127000000Y-92500000D03*
X127000000Y-92000000D03*
X127000000Y-91500000D03*
X127000000Y-91000000D03*
X127000000Y-90500000D03*
X127000000Y-90000000D03*
X127000000Y-89500000D03*
X127000000Y-89000000D03*
X127000000Y-88500000D03*
X107500000Y-89000000D03*
X107500000Y-89500000D03*
X107500000Y-90000000D03*
X107500000Y-90500000D03*
X107500000Y-91000000D03*
X107500000Y-91500000D03*
X107500000Y-92000000D03*
X107500000Y-92500000D03*
X107500000Y-93000000D03*
X107500000Y-93500000D03*
X107500000Y-94000000D03*
X107500000Y-94500000D03*
X107500000Y-95000000D03*
X107500000Y-95500000D03*
X107500000Y-96000000D03*
X107500000Y-96500000D03*
X107500000Y-97000000D03*
X107500000Y-97500000D03*
X107500000Y-98000000D03*
X107500000Y-98500000D03*
X107500000Y-99000000D03*
X107500000Y-99500000D03*
X107500000Y-100000000D03*
D15*
X105875000Y-95375000D03*
X105875000Y-92875000D03*
D16*
X148844000Y-76374000D03*
X148844000Y-79074000D03*
D17*
X195985000Y-133829000D03*
X193485000Y-133829000D03*
X195985000Y-138401000D03*
X193485000Y-138401000D03*
D15*
X186925000Y-131225000D03*
X186925000Y-133725000D03*
D17*
X86850000Y-86200000D03*
X84350000Y-86200000D03*
D15*
X155956000Y-59924000D03*
X155956000Y-57424000D03*
X147828000Y-59924000D03*
X147828000Y-57424000D03*
X139700000Y-59924000D03*
X139700000Y-57424000D03*
X131572000Y-59924000D03*
X131572000Y-57424000D03*
X123444000Y-59924000D03*
X123444000Y-57424000D03*
X115316000Y-59924000D03*
X115316000Y-57424000D03*
X107188000Y-59924000D03*
X107188000Y-57424000D03*
X99060000Y-59924000D03*
X99060000Y-57424000D03*
D17*
X136750000Y-121745000D03*
X139250000Y-121745000D03*
X136750000Y-123495000D03*
X139250000Y-123495000D03*
X136750000Y-125245000D03*
X139250000Y-125245000D03*
X136750000Y-126995000D03*
X139250000Y-126995000D03*
D15*
X134000000Y-122245000D03*
X134000000Y-119745000D03*
D17*
X93750000Y-98245000D03*
X91250000Y-98245000D03*
D15*
X93250000Y-95745000D03*
X93250000Y-93245000D03*
X95000000Y-95745000D03*
X95000000Y-93245000D03*
X96750000Y-95745000D03*
X96750000Y-93245000D03*
X98500000Y-95745000D03*
X98500000Y-93245000D03*
X91300000Y-63150000D03*
X91300000Y-65650000D03*
X132250000Y-122245000D03*
X132250000Y-119745000D03*
X130500000Y-122245000D03*
X130500000Y-119745000D03*
D17*
X137750000Y-131745000D03*
X135250000Y-131745000D03*
X136750000Y-128745000D03*
X139250000Y-128745000D03*
D15*
X133250000Y-128745000D03*
X133250000Y-131245000D03*
D17*
X93750000Y-101745000D03*
X91250000Y-101745000D03*
X93750000Y-99995000D03*
X91250000Y-99995000D03*
D15*
X100250000Y-93245000D03*
X100250000Y-90745000D03*
D17*
X100250000Y-95745000D03*
X102750000Y-95745000D03*
X100250000Y-99245000D03*
X102750000Y-99245000D03*
X136750000Y-119745000D03*
X139250000Y-119745000D03*
D15*
X91250000Y-95745000D03*
X91250000Y-93245000D03*
D17*
X93200000Y-66100000D03*
X95700000Y-66100000D03*
X158770000Y-56642000D03*
X161270000Y-56642000D03*
X150642000Y-56642000D03*
X153142000Y-56642000D03*
X142514000Y-56642000D03*
X145014000Y-56642000D03*
X134386000Y-56642000D03*
X136886000Y-56642000D03*
X126258000Y-56642000D03*
X128758000Y-56642000D03*
X118130000Y-56642000D03*
X120630000Y-56642000D03*
X110002000Y-56642000D03*
X112502000Y-56642000D03*
X101874000Y-56642000D03*
X104374000Y-56642000D03*
D18*
X142625000Y-119250000D03*
X148875000Y-119250000D03*
D17*
X91200000Y-103850000D03*
X88700000Y-103850000D03*
D19*
X85750000Y-60100000D03*
X85750000Y-68900000D03*
D20*
X205540000Y-130980000D03*
D21*
X205540000Y-136060000D03*
D22*
X81000000Y-77250000D03*
D23*
X81000000Y-74710000D03*
X81000000Y-72170000D03*
X81000000Y-69630000D03*
X81000000Y-67090000D03*
X81000000Y-64550000D03*
D24*
X121500000Y-131245000D03*
D23*
X118960000Y-131245000D03*
X116420000Y-131245000D03*
X113880000Y-131245000D03*
X111340000Y-131245000D03*
X108800000Y-131245000D03*
D20*
X134112000Y-49276000D03*
D21*
X129032000Y-49276000D03*
D25*
X104900000Y-86900000D03*
X101900000Y-86900000D03*
D26*
X71000000Y-85000000D03*
X68333000Y-82460000D03*
X71000000Y-79920000D03*
D22*
X162052000Y-68580000D03*
D27*
X162052000Y-71120000D03*
X162052000Y-73660000D03*
D22*
X157988000Y-68580000D03*
D27*
X157988000Y-71120000D03*
X157988000Y-73660000D03*
D22*
X153924000Y-68580000D03*
D27*
X153924000Y-71120000D03*
X153924000Y-73660000D03*
D22*
X149860000Y-68580000D03*
D27*
X149860000Y-71120000D03*
X149860000Y-73660000D03*
D22*
X145796000Y-68580000D03*
D27*
X145796000Y-71120000D03*
X145796000Y-73660000D03*
D22*
X141732000Y-68580000D03*
D27*
X141732000Y-71120000D03*
X141732000Y-73660000D03*
D22*
X137668000Y-68580000D03*
D27*
X137668000Y-71120000D03*
X137668000Y-73660000D03*
D22*
X133604000Y-68580000D03*
D27*
X133604000Y-71120000D03*
X133604000Y-73660000D03*
D22*
X129540000Y-68580000D03*
D27*
X129540000Y-71120000D03*
X129540000Y-73660000D03*
D22*
X125476000Y-68580000D03*
D27*
X125476000Y-71120000D03*
X125476000Y-73660000D03*
D22*
X121412000Y-68580000D03*
D27*
X121412000Y-71120000D03*
X121412000Y-73660000D03*
D22*
X117348000Y-68580000D03*
D27*
X117348000Y-71120000D03*
X117348000Y-73660000D03*
D22*
X113284000Y-68580000D03*
D27*
X113284000Y-71120000D03*
X113284000Y-73660000D03*
D22*
X109220000Y-68580000D03*
D27*
X109220000Y-71120000D03*
X109220000Y-73660000D03*
D22*
X105156000Y-68580000D03*
D27*
X105156000Y-71120000D03*
X105156000Y-73660000D03*
D22*
X101092000Y-68580000D03*
D27*
X101092000Y-71120000D03*
X101092000Y-73660000D03*
D16*
X78250000Y-76850000D03*
X78250000Y-74150000D03*
D28*
X79350000Y-79850000D03*
X82050000Y-79850000D03*
D16*
X83850000Y-77450000D03*
X83850000Y-74750000D03*
X68000000Y-120750000D03*
X68000000Y-123450000D03*
D28*
X118900000Y-133850000D03*
X121600000Y-133850000D03*
D16*
X162052000Y-65866000D03*
X162052000Y-63166000D03*
X163068000Y-76374000D03*
X163068000Y-79074000D03*
X161036000Y-76374000D03*
X161036000Y-79074000D03*
X157988000Y-65866000D03*
X157988000Y-63166000D03*
X159004000Y-76374000D03*
X159004000Y-79074000D03*
X156972000Y-76374000D03*
X156972000Y-79074000D03*
X153924000Y-65866000D03*
X153924000Y-63166000D03*
X154940000Y-76374000D03*
X154940000Y-79074000D03*
X152908000Y-76374000D03*
X152908000Y-79074000D03*
X149860000Y-65866000D03*
X149860000Y-63166000D03*
X150876000Y-76374000D03*
X150876000Y-79074000D03*
X145796000Y-65866000D03*
X145796000Y-63166000D03*
X146812000Y-76374000D03*
X146812000Y-79074000D03*
X144780000Y-76374000D03*
X144780000Y-79074000D03*
X141732000Y-65866000D03*
X141732000Y-63166000D03*
X142748000Y-76374000D03*
X142748000Y-79074000D03*
X140716000Y-76374000D03*
X140716000Y-79074000D03*
X137668000Y-65866000D03*
X137668000Y-63166000D03*
X138684000Y-76374000D03*
X138684000Y-79074000D03*
X136652000Y-76374000D03*
X136652000Y-79074000D03*
X133604000Y-65866000D03*
X133604000Y-63166000D03*
X134620000Y-76374000D03*
X134620000Y-79074000D03*
X132588000Y-76374000D03*
X132588000Y-79074000D03*
X129540000Y-65866000D03*
X129540000Y-63166000D03*
X128524000Y-76374000D03*
X128524000Y-79074000D03*
X130556000Y-76374000D03*
X130556000Y-79074000D03*
X125476000Y-65866000D03*
X125476000Y-63166000D03*
X126492000Y-76374000D03*
X126492000Y-79074000D03*
X124460000Y-76374000D03*
X124460000Y-79074000D03*
X121412000Y-65866000D03*
X121412000Y-63166000D03*
X122428000Y-76374000D03*
X122428000Y-79074000D03*
X120396000Y-76374000D03*
X120396000Y-79074000D03*
X117348000Y-65866000D03*
X117348000Y-63166000D03*
X118364000Y-76374000D03*
X118364000Y-79074000D03*
X116332000Y-76374000D03*
X116332000Y-79074000D03*
X113284000Y-65866000D03*
X113284000Y-63166000D03*
X114300000Y-76374000D03*
X114300000Y-79074000D03*
X112268000Y-76374000D03*
X112268000Y-79074000D03*
X109220000Y-65866000D03*
X109220000Y-63166000D03*
X110236000Y-76374000D03*
X110236000Y-79074000D03*
X108204000Y-76374000D03*
X108204000Y-79074000D03*
X105156000Y-65866000D03*
X105156000Y-63166000D03*
X106172000Y-76374000D03*
X106172000Y-79074000D03*
X104140000Y-76374000D03*
X104140000Y-79074000D03*
X101092000Y-65866000D03*
X101092000Y-63166000D03*
X102108000Y-76374000D03*
X102108000Y-79074000D03*
X100076000Y-76374000D03*
X100076000Y-79074000D03*
D29*
X167005000Y-82550000D03*
X167005000Y-49530000D03*
X171450000Y-82550000D03*
X171450000Y-49530000D03*
X175895000Y-82550000D03*
X175895000Y-49530000D03*
X180340000Y-82550000D03*
X180340000Y-49530000D03*
X184785000Y-82550000D03*
X184785000Y-49530000D03*
D22*
X82296000Y-122428000D03*
D27*
X82296000Y-119888000D03*
D22*
X87376000Y-122428000D03*
D27*
X87376000Y-119888000D03*
D30*
X75184000Y-93472000D03*
X72644000Y-96012000D03*
X75184000Y-98552000D03*
X72644000Y-98552000D03*
X75184000Y-96012000D03*
D31*
X95560000Y-74695000D03*
X95560000Y-74045000D03*
X95560000Y-73395000D03*
X95560000Y-72745000D03*
X95560000Y-72095000D03*
X95560000Y-71445000D03*
X95560000Y-70795000D03*
X95560000Y-70145000D03*
X95560000Y-69495000D03*
X95560000Y-68845000D03*
X95560000Y-68195000D03*
X95560000Y-67545000D03*
X89860000Y-67545000D03*
X89860000Y-68195000D03*
X89860000Y-68845000D03*
X89860000Y-69495000D03*
X89860000Y-70145000D03*
X89860000Y-70795000D03*
X89860000Y-71445000D03*
X89860000Y-72095000D03*
X89860000Y-72745000D03*
X89860000Y-73395000D03*
X89860000Y-74045000D03*
X89860000Y-74695000D03*
D32*
X88000000Y-85600000D03*
X88500000Y-85600000D03*
X89000000Y-85600000D03*
X89500000Y-85600000D03*
X90000000Y-85600000D03*
X90500000Y-85600000D03*
X91000000Y-85600000D03*
X91500000Y-85600000D03*
X92000000Y-85600000D03*
X92500000Y-85600000D03*
X93000000Y-85600000D03*
X93500000Y-85600000D03*
D33*
X95100000Y-84000000D03*
X95100000Y-83500000D03*
X95100000Y-83000000D03*
X95100000Y-82500000D03*
X95100000Y-82000000D03*
X95100000Y-81500000D03*
X95100000Y-81000000D03*
X95100000Y-80500000D03*
X95100000Y-80000000D03*
X95100000Y-79500000D03*
X95100000Y-79000000D03*
X95100000Y-78500000D03*
D32*
X93500000Y-76900000D03*
X93000000Y-76900000D03*
X92500000Y-76900000D03*
X92000000Y-76900000D03*
X91500000Y-76900000D03*
X91000000Y-76900000D03*
X90500000Y-76900000D03*
X90000000Y-76900000D03*
X89500000Y-76900000D03*
X89000000Y-76900000D03*
X88500000Y-76900000D03*
X88000000Y-76900000D03*
D33*
X86400000Y-78500000D03*
X86400000Y-79000000D03*
X86400000Y-79500000D03*
X86400000Y-80000000D03*
X86400000Y-80500000D03*
X86400000Y-81000000D03*
X86400000Y-81500000D03*
X86400000Y-82000000D03*
X86400000Y-82500000D03*
X86400000Y-83000000D03*
X86400000Y-83500000D03*
X86400000Y-84000000D03*
D34*
X119000000Y-105095000D03*
X118500000Y-105095000D03*
X118000000Y-105095000D03*
X117500000Y-105095000D03*
X117000000Y-105095000D03*
X116500000Y-105095000D03*
X116000000Y-105095000D03*
X115500000Y-105095000D03*
X115000000Y-105095000D03*
X114500000Y-105095000D03*
X114000000Y-105095000D03*
X113500000Y-105095000D03*
X113000000Y-105095000D03*
X112500000Y-105095000D03*
X112000000Y-105095000D03*
X111500000Y-105095000D03*
X111000000Y-105095000D03*
X110500000Y-105095000D03*
X110000000Y-105095000D03*
X109500000Y-105095000D03*
X109000000Y-105095000D03*
X108500000Y-105095000D03*
X108000000Y-105095000D03*
X107500000Y-105095000D03*
X107000000Y-105095000D03*
D35*
X105100000Y-106995000D03*
X105100000Y-107495000D03*
X105100000Y-107995000D03*
X105100000Y-108495000D03*
X105100000Y-108995000D03*
X105100000Y-109495000D03*
X105100000Y-109995000D03*
X105100000Y-110495000D03*
X105100000Y-110995000D03*
X105100000Y-111495000D03*
X105100000Y-111995000D03*
X105100000Y-112495000D03*
X105100000Y-112995000D03*
X105100000Y-113495000D03*
X105100000Y-113995000D03*
X105100000Y-114495000D03*
X105100000Y-114995000D03*
X105100000Y-115495000D03*
X105100000Y-115995000D03*
X105100000Y-116495000D03*
X105100000Y-116995000D03*
X105100000Y-117495000D03*
X105100000Y-117995000D03*
X105100000Y-118495000D03*
X105100000Y-118995000D03*
D34*
X107000000Y-120895000D03*
X107500000Y-120895000D03*
X108000000Y-120895000D03*
X108500000Y-120895000D03*
X109000000Y-120895000D03*
X109500000Y-120895000D03*
X110000000Y-120895000D03*
X110500000Y-120895000D03*
X111000000Y-120895000D03*
X111500000Y-120895000D03*
X112000000Y-120895000D03*
X112500000Y-120895000D03*
X113000000Y-120895000D03*
X113500000Y-120895000D03*
X114000000Y-120895000D03*
X114500000Y-120895000D03*
X115000000Y-120895000D03*
X115500000Y-120895000D03*
X116000000Y-120895000D03*
X116500000Y-120895000D03*
X117000000Y-120895000D03*
X117500000Y-120895000D03*
X118000000Y-120895000D03*
X118500000Y-120895000D03*
X119000000Y-120895000D03*
D35*
X120900000Y-118995000D03*
X120900000Y-118495000D03*
X120900000Y-117995000D03*
X120900000Y-117495000D03*
X120900000Y-116995000D03*
X120900000Y-116495000D03*
X120900000Y-115995000D03*
X120900000Y-115495000D03*
X120900000Y-114995000D03*
X120900000Y-114495000D03*
X120900000Y-113995000D03*
X120900000Y-113495000D03*
X120900000Y-112995000D03*
X120900000Y-112495000D03*
X120900000Y-111995000D03*
X120900000Y-111495000D03*
X120900000Y-110995000D03*
X120900000Y-110495000D03*
X120900000Y-109995000D03*
X120900000Y-109495000D03*
X120900000Y-108995000D03*
X120900000Y-108495000D03*
X120900000Y-107995000D03*
X120900000Y-107495000D03*
X120900000Y-106995000D03*
D36*
X162220000Y-60411000D03*
X162220000Y-59761000D03*
X162220000Y-59111000D03*
X162220000Y-58461000D03*
X157820000Y-58461000D03*
X157820000Y-59111000D03*
X157820000Y-59761000D03*
X157820000Y-60411000D03*
X154092000Y-60411000D03*
X154092000Y-59761000D03*
X154092000Y-59111000D03*
X154092000Y-58461000D03*
X149692000Y-58461000D03*
X149692000Y-59111000D03*
X149692000Y-59761000D03*
X149692000Y-60411000D03*
X145964000Y-60411000D03*
X145964000Y-59761000D03*
X145964000Y-59111000D03*
X145964000Y-58461000D03*
X141564000Y-58461000D03*
X141564000Y-59111000D03*
X141564000Y-59761000D03*
X141564000Y-60411000D03*
X137836000Y-60411000D03*
X137836000Y-59761000D03*
X137836000Y-59111000D03*
X137836000Y-58461000D03*
X133436000Y-58461000D03*
X133436000Y-59111000D03*
X133436000Y-59761000D03*
X133436000Y-60411000D03*
X129708000Y-60411000D03*
X129708000Y-59761000D03*
X129708000Y-59111000D03*
X129708000Y-58461000D03*
X125308000Y-58461000D03*
X125308000Y-59111000D03*
X125308000Y-59761000D03*
X125308000Y-60411000D03*
X121580000Y-60411000D03*
X121580000Y-59761000D03*
X121580000Y-59111000D03*
X121580000Y-58461000D03*
X117180000Y-58461000D03*
X117180000Y-59111000D03*
X117180000Y-59761000D03*
X117180000Y-60411000D03*
X113452000Y-60411000D03*
X113452000Y-59761000D03*
X113452000Y-59111000D03*
X113452000Y-58461000D03*
X109052000Y-58461000D03*
X109052000Y-59111000D03*
X109052000Y-59761000D03*
X109052000Y-60411000D03*
X105324000Y-60411000D03*
X105324000Y-59761000D03*
X105324000Y-59111000D03*
X105324000Y-58461000D03*
X100924000Y-58461000D03*
X100924000Y-59111000D03*
X100924000Y-59761000D03*
X100924000Y-60411000D03*
D37*
X75057000Y-135255000D03*
X75057000Y-137795000D03*
X73057000Y-137795000D03*
X73057000Y-135255000D03*
D38*
X70357000Y-130525000D03*
X70357000Y-142525000D03*
D18*
X144625000Y-115250000D03*
X138375000Y-115250000D03*
D15*
X134950000Y-126850000D03*
X134950000Y-129350000D03*
D18*
X92625000Y-90495000D03*
X86375000Y-90495000D03*
D39*
X83620000Y-101245000D03*
X88880000Y-101245000D03*
X88880000Y-96245000D03*
X83620000Y-96245000D03*
D18*
X116125000Y-126995000D03*
X109875000Y-126995000D03*
D11*
X70500000Y-117000000D03*
D12*
X70500000Y-119540000D03*
X70500000Y-122080000D03*
X70500000Y-124620000D03*
X70500000Y-127160000D03*
D40*
X205000000Y-50000000D03*
X65000000Y-50000000D03*
X82500000Y-130000000D03*
X205000000Y-120000000D03*
M02*
