%FSLAX45Y45*%
G04 Gerber Fmt 4.5, Leading zero omitted, Abs format (unit mm)*
G04 Created by KiCad (PCBNEW 4.0.7) date 11/25/17 11:10:46*
%MOMM*%
%LPD*%
G01*
G04 APERTURE LIST*
%ADD10C,0.127000*%
%ADD11C,0.100000*%
%ADD12C,0.200000*%
%ADD13C,0.300000*%
G04 APERTURE END LIST*
D10*
D11*
X6000000Y-4500000D02*
X6000000Y-14500000D01*
X21000000Y-4500000D02*
X6000000Y-4500000D01*
X21000000Y-14500000D02*
X21000000Y-4500000D01*
X6000000Y-14500000D02*
X21000000Y-14500000D01*
D12*
X7587300Y-9217300D02*
X7612700Y-9242700D01*
X7612700Y-9217300D02*
X7587300Y-9242700D01*
X7814800Y-7527300D02*
X7840200Y-7552700D01*
X7840200Y-7527300D02*
X7814800Y-7552700D01*
X8292300Y-9059800D02*
X8317700Y-9085200D01*
X8317700Y-9059800D02*
X8292300Y-9085200D01*
X8319800Y-8694800D02*
X8345200Y-8720200D01*
X8345200Y-8694800D02*
X8319800Y-8720200D01*
X8432300Y-9214800D02*
X8457700Y-9240200D01*
X8457700Y-9214800D02*
X8432300Y-9240200D01*
X8537300Y-9214800D02*
X8562700Y-9240200D01*
X8562700Y-9214800D02*
X8537300Y-9240200D01*
X8542300Y-8614800D02*
X8567700Y-8640200D01*
X8567700Y-8614800D02*
X8542300Y-8640200D01*
X8577300Y-8452300D02*
X8602700Y-8477700D01*
X8602700Y-8452300D02*
X8577300Y-8477700D01*
X8582300Y-9849800D02*
X8607700Y-9875200D01*
X8607700Y-9849800D02*
X8582300Y-9875200D01*
X8623300Y-8877300D02*
X8648700Y-8902700D01*
X8648700Y-8877300D02*
X8623300Y-8902700D01*
X8629800Y-7564800D02*
X8655200Y-7590200D01*
X8655200Y-7564800D02*
X8629800Y-7590200D01*
X8707300Y-8512300D02*
X8732700Y-8537700D01*
X8732700Y-8512300D02*
X8707300Y-8537700D01*
X8709800Y-8447300D02*
X8735200Y-8472700D01*
X8735200Y-8447300D02*
X8709800Y-8472700D01*
X8727300Y-8187300D02*
X8752700Y-8212700D01*
X8752700Y-8187300D02*
X8727300Y-8212700D01*
X8732300Y-9509800D02*
X8757700Y-9535200D01*
X8757700Y-9509800D02*
X8732300Y-9535200D01*
X8732300Y-9619800D02*
X8757700Y-9645200D01*
X8757700Y-9619800D02*
X8732300Y-9645200D01*
X8737300Y-10172300D02*
X8762700Y-10197700D01*
X8762700Y-10172300D02*
X8737300Y-10197700D01*
X8752300Y-8347300D02*
X8777700Y-8372700D01*
X8777700Y-8347300D02*
X8752300Y-8372700D01*
X8792300Y-6917300D02*
X8817700Y-6942700D01*
X8817700Y-6917300D02*
X8792300Y-6942700D01*
X8792300Y-7062300D02*
X8817700Y-7087700D01*
X8817700Y-7062300D02*
X8792300Y-7087700D01*
X8852300Y-8889800D02*
X8877700Y-8915200D01*
X8877700Y-8889800D02*
X8852300Y-8915200D01*
X8852300Y-8994800D02*
X8877700Y-9020200D01*
X8877700Y-8994800D02*
X8852300Y-9020200D01*
X8857300Y-6867300D02*
X8882700Y-6892700D01*
X8882700Y-6867300D02*
X8857300Y-6892700D01*
X8862300Y-6987300D02*
X8887700Y-7012700D01*
X8887700Y-6987300D02*
X8862300Y-7012700D01*
X8882300Y-7327300D02*
X8907700Y-7352700D01*
X8907700Y-7327300D02*
X8882300Y-7352700D01*
X8882300Y-7392300D02*
X8907700Y-7417700D01*
X8907700Y-7392300D02*
X8882300Y-7417700D01*
X8944800Y-8242300D02*
X8970200Y-8267700D01*
X8970200Y-8242300D02*
X8944800Y-8267700D01*
X8972300Y-8447300D02*
X8997700Y-8472700D01*
X8997700Y-8447300D02*
X8972300Y-8472700D01*
X8992300Y-9912300D02*
X9017700Y-9937700D01*
X9017700Y-9912300D02*
X8992300Y-9937700D01*
X9024800Y-9311800D02*
X9050200Y-9337200D01*
X9050200Y-9311800D02*
X9024800Y-9337200D01*
X9037300Y-7517300D02*
X9062700Y-7542700D01*
X9062700Y-7517300D02*
X9037300Y-7542700D01*
X9062300Y-7132300D02*
X9087700Y-7157700D01*
X9087700Y-7132300D02*
X9062300Y-7157700D01*
X9067300Y-7067300D02*
X9092700Y-7092700D01*
X9092700Y-7067300D02*
X9067300Y-7092700D01*
X9072300Y-8342300D02*
X9097700Y-8367700D01*
X9097700Y-8342300D02*
X9072300Y-8367700D01*
X9094800Y-7887300D02*
X9120200Y-7912700D01*
X9120200Y-7887300D02*
X9094800Y-7912700D01*
X9112300Y-9186800D02*
X9137700Y-9212200D01*
X9137700Y-9186800D02*
X9112300Y-9212200D01*
X9112300Y-9436800D02*
X9137700Y-9462200D01*
X9137700Y-9436800D02*
X9112300Y-9462200D01*
X9197300Y-8237300D02*
X9222700Y-8262700D01*
X9222700Y-8237300D02*
X9197300Y-8262700D01*
X9197300Y-8239800D02*
X9222700Y-8265200D01*
X9222700Y-8239800D02*
X9197300Y-8265200D01*
X9212300Y-9311800D02*
X9237700Y-9337200D01*
X9237700Y-9311800D02*
X9212300Y-9337200D01*
X9222300Y-10347300D02*
X9247700Y-10372700D01*
X9247700Y-10347300D02*
X9222300Y-10372700D01*
X9224800Y-10112300D02*
X9250200Y-10137700D01*
X9250200Y-10112300D02*
X9224800Y-10137700D01*
X9237300Y-9811800D02*
X9262700Y-9837200D01*
X9262700Y-9811800D02*
X9237300Y-9837200D01*
X9237300Y-10011800D02*
X9262700Y-10037200D01*
X9262700Y-10011800D02*
X9237300Y-10037200D01*
X9252300Y-8139800D02*
X9277700Y-8165200D01*
X9277700Y-8139800D02*
X9252300Y-8165200D01*
X9292300Y-8447300D02*
X9317700Y-8472700D01*
X9317700Y-8447300D02*
X9292300Y-8472700D01*
X9327300Y-8164800D02*
X9352700Y-8190200D01*
X9352700Y-8164800D02*
X9327300Y-8190200D01*
X9342300Y-7937300D02*
X9367700Y-7962700D01*
X9367700Y-7937300D02*
X9342300Y-7962700D01*
X9362300Y-9436800D02*
X9387700Y-9462200D01*
X9387700Y-9436800D02*
X9362300Y-9462200D01*
X9382300Y-8342300D02*
X9407700Y-8367700D01*
X9407700Y-8342300D02*
X9382300Y-8367700D01*
X9387300Y-7987300D02*
X9412700Y-8012700D01*
X9412700Y-7987300D02*
X9387300Y-8012700D01*
X9387300Y-8137300D02*
X9412700Y-8162700D01*
X9412700Y-8137300D02*
X9387300Y-8162700D01*
X9389800Y-8239800D02*
X9415200Y-8265200D01*
X9415200Y-8239800D02*
X9389800Y-8265200D01*
X9422300Y-7714800D02*
X9447700Y-7740200D01*
X9447700Y-7714800D02*
X9422300Y-7740200D01*
X9427300Y-6597300D02*
X9452700Y-6622700D01*
X9452700Y-6597300D02*
X9427300Y-6622700D01*
X9437300Y-6322300D02*
X9462700Y-6347700D01*
X9462700Y-6322300D02*
X9437300Y-6347700D01*
X9452300Y-6882300D02*
X9477700Y-6907700D01*
X9477700Y-6882300D02*
X9452300Y-6907700D01*
X9452300Y-7342300D02*
X9477700Y-7367700D01*
X9477700Y-7342300D02*
X9452300Y-7367700D01*
X9462300Y-9436800D02*
X9487700Y-9462200D01*
X9487700Y-9436800D02*
X9462300Y-9462200D01*
X9512300Y-9187300D02*
X9537700Y-9212700D01*
X9537700Y-9187300D02*
X9512300Y-9212700D01*
X9612300Y-9436800D02*
X9637700Y-9462200D01*
X9637700Y-9436800D02*
X9612300Y-9462200D01*
X9637300Y-7262300D02*
X9662700Y-7287700D01*
X9662700Y-7262300D02*
X9637300Y-7287700D01*
X9682300Y-6587300D02*
X9707700Y-6612700D01*
X9707700Y-6587300D02*
X9682300Y-6612700D01*
X9712300Y-9436800D02*
X9737700Y-9462200D01*
X9737700Y-9436800D02*
X9712300Y-9462200D01*
X9762300Y-9462300D02*
X9787700Y-9487700D01*
X9787700Y-9462300D02*
X9762300Y-9487700D01*
X9807300Y-6082300D02*
X9832700Y-6107700D01*
X9832700Y-6082300D02*
X9807300Y-6107700D01*
X9837300Y-9202300D02*
X9862700Y-9227700D01*
X9862700Y-9202300D02*
X9837300Y-9227700D01*
X9862300Y-9424800D02*
X9887700Y-9450200D01*
X9887700Y-9424800D02*
X9862300Y-9450200D01*
X9879800Y-8484800D02*
X9905200Y-8510200D01*
X9905200Y-8484800D02*
X9879800Y-8510200D01*
X9932300Y-8492300D02*
X9957700Y-8517700D01*
X9957700Y-8492300D02*
X9932300Y-8517700D01*
X9937300Y-10187300D02*
X9962700Y-10212700D01*
X9962700Y-10187300D02*
X9937300Y-10212700D01*
X9962300Y-5852300D02*
X9987700Y-5877700D01*
X9987700Y-5852300D02*
X9962300Y-5877700D01*
X9962300Y-9186800D02*
X9987700Y-9212200D01*
X9987700Y-9186800D02*
X9962300Y-9212200D01*
X9987300Y-10212300D02*
X10012700Y-10237700D01*
X10012700Y-10212300D02*
X9987300Y-10237700D01*
X10037300Y-10187300D02*
X10062700Y-10212700D01*
X10062700Y-10187300D02*
X10037300Y-10212700D01*
X10067300Y-5652300D02*
X10092700Y-5677700D01*
X10092700Y-5652300D02*
X10067300Y-5677700D01*
X10087300Y-10212300D02*
X10112700Y-10237700D01*
X10112700Y-10212300D02*
X10087300Y-10237700D01*
X10127300Y-9192300D02*
X10152700Y-9217700D01*
X10152700Y-9192300D02*
X10127300Y-9217700D01*
X10137300Y-9562300D02*
X10162700Y-9587700D01*
X10162700Y-9562300D02*
X10137300Y-9587700D01*
X10137300Y-9644800D02*
X10162700Y-9670200D01*
X10162700Y-9644800D02*
X10137300Y-9670200D01*
X10137300Y-9961800D02*
X10162700Y-9987200D01*
X10162700Y-9961800D02*
X10137300Y-9987200D01*
X10139800Y-10644800D02*
X10165200Y-10670200D01*
X10165200Y-10644800D02*
X10139800Y-10670200D01*
X10144800Y-11787300D02*
X10170200Y-11812700D01*
X10170200Y-11787300D02*
X10144800Y-11812700D01*
X10194800Y-11827300D02*
X10220200Y-11852700D01*
X10220200Y-11827300D02*
X10194800Y-11852700D01*
X10242300Y-10392300D02*
X10267700Y-10417700D01*
X10267700Y-10392300D02*
X10242300Y-10417700D01*
X10244800Y-11799800D02*
X10270200Y-11825200D01*
X10270200Y-11799800D02*
X10244800Y-11825200D01*
X10248900Y-5956300D02*
X10274300Y-5981700D01*
X10274300Y-5956300D02*
X10248900Y-5981700D01*
X10274800Y-10339800D02*
X10300200Y-10365200D01*
X10300200Y-10339800D02*
X10274800Y-10365200D01*
X10289800Y-9187300D02*
X10315200Y-9212700D01*
X10315200Y-9187300D02*
X10289800Y-9212700D01*
X10294800Y-11827300D02*
X10320200Y-11852700D01*
X10320200Y-11827300D02*
X10294800Y-11852700D01*
X10350500Y-6032500D02*
X10375900Y-6057900D01*
X10375900Y-6032500D02*
X10350500Y-6057900D01*
X10352300Y-8694800D02*
X10377700Y-8720200D01*
X10377700Y-8694800D02*
X10352300Y-8720200D01*
X10357300Y-10507300D02*
X10382700Y-10532700D01*
X10382700Y-10507300D02*
X10357300Y-10532700D01*
X10362300Y-10737300D02*
X10387700Y-10762700D01*
X10387700Y-10737300D02*
X10362300Y-10762700D01*
X10362300Y-11337300D02*
X10387700Y-11362700D01*
X10387700Y-11337300D02*
X10362300Y-11362700D01*
X10362300Y-11437300D02*
X10387700Y-11462700D01*
X10387700Y-11437300D02*
X10362300Y-11462700D01*
X10362300Y-11537300D02*
X10387700Y-11562700D01*
X10387700Y-11537300D02*
X10362300Y-11562700D01*
X10362300Y-11637300D02*
X10387700Y-11662700D01*
X10387700Y-11637300D02*
X10362300Y-11662700D01*
X10379800Y-9907300D02*
X10405200Y-9932700D01*
X10405200Y-9907300D02*
X10379800Y-9932700D01*
X10382300Y-9712300D02*
X10407700Y-9737700D01*
X10407700Y-9712300D02*
X10382300Y-9737700D01*
X10387300Y-9377300D02*
X10412700Y-9402700D01*
X10412700Y-9377300D02*
X10387300Y-9402700D01*
X10387300Y-11287300D02*
X10412700Y-11312700D01*
X10412700Y-11287300D02*
X10387300Y-11312700D01*
X10387300Y-11387300D02*
X10412700Y-11412700D01*
X10412700Y-11387300D02*
X10387300Y-11412700D01*
X10387300Y-11487300D02*
X10412700Y-11512700D01*
X10412700Y-11487300D02*
X10387300Y-11512700D01*
X10387300Y-11587300D02*
X10412700Y-11612700D01*
X10412700Y-11587300D02*
X10387300Y-11612700D01*
X10387300Y-11687300D02*
X10412700Y-11712700D01*
X10412700Y-11687300D02*
X10387300Y-11712700D01*
X10392300Y-10457300D02*
X10417700Y-10482700D01*
X10417700Y-10457300D02*
X10392300Y-10482700D01*
X10409800Y-8912300D02*
X10435200Y-8937700D01*
X10435200Y-8912300D02*
X10409800Y-8937700D01*
X10412300Y-9187300D02*
X10437700Y-9212700D01*
X10437700Y-9187300D02*
X10412300Y-9212700D01*
X10512300Y-9662300D02*
X10537700Y-9687700D01*
X10537700Y-9662300D02*
X10512300Y-9687700D01*
X10537300Y-5537300D02*
X10562700Y-5562700D01*
X10562700Y-5537300D02*
X10537300Y-5562700D01*
X10612300Y-11737300D02*
X10637700Y-11762700D01*
X10637700Y-11737300D02*
X10612300Y-11762700D01*
X10612300Y-11836800D02*
X10637700Y-11862200D01*
X10637700Y-11836800D02*
X10612300Y-11862200D01*
X10614800Y-9812300D02*
X10640200Y-9837700D01*
X10640200Y-9812300D02*
X10614800Y-9837700D01*
X10737300Y-12862300D02*
X10762700Y-12887700D01*
X10762700Y-12862300D02*
X10737300Y-12887700D01*
X10787300Y-10886800D02*
X10812700Y-10912200D01*
X10812700Y-10886800D02*
X10787300Y-10912200D01*
X10787300Y-12187300D02*
X10812700Y-12212700D01*
X10812700Y-12187300D02*
X10787300Y-12212700D01*
X10787300Y-12442300D02*
X10812700Y-12467700D01*
X10812700Y-12442300D02*
X10787300Y-12467700D01*
X10829800Y-9387300D02*
X10855200Y-9412700D01*
X10855200Y-9387300D02*
X10829800Y-9412700D01*
X10837300Y-12212300D02*
X10862700Y-12237700D01*
X10862700Y-12212300D02*
X10837300Y-12237700D01*
X10837300Y-12467300D02*
X10862700Y-12492700D01*
X10862700Y-12467300D02*
X10837300Y-12492700D01*
X10849800Y-11887300D02*
X10875200Y-11912700D01*
X10875200Y-11887300D02*
X10849800Y-11912700D01*
X10877300Y-5652300D02*
X10902700Y-5677700D01*
X10902700Y-5652300D02*
X10877300Y-5677700D01*
X10887300Y-12186800D02*
X10912700Y-12212200D01*
X10912700Y-12186800D02*
X10887300Y-12212200D01*
X10937300Y-9962300D02*
X10962700Y-9987700D01*
X10962700Y-9962300D02*
X10937300Y-9987700D01*
X10937300Y-11736800D02*
X10962700Y-11762200D01*
X10962700Y-11736800D02*
X10937300Y-11762200D01*
X10937300Y-12212300D02*
X10962700Y-12237700D01*
X10962700Y-12212300D02*
X10937300Y-12237700D01*
X10972300Y-9449800D02*
X10997700Y-9475200D01*
X10997700Y-9449800D02*
X10972300Y-9475200D01*
X10977300Y-8854800D02*
X11002700Y-8880200D01*
X11002700Y-8854800D02*
X10977300Y-8880200D01*
X10977300Y-8982300D02*
X11002700Y-9007700D01*
X11002700Y-8982300D02*
X10977300Y-9007700D01*
X10987300Y-10012300D02*
X11012700Y-10037700D01*
X11012700Y-10012300D02*
X10987300Y-10037700D01*
X10987300Y-10607300D02*
X11012700Y-10632700D01*
X11012700Y-10607300D02*
X10987300Y-10632700D01*
X10987300Y-12186800D02*
X11012700Y-12212200D01*
X11012700Y-12186800D02*
X10987300Y-12212200D01*
X11037300Y-12212300D02*
X11062700Y-12237700D01*
X11062700Y-12212300D02*
X11037300Y-12237700D01*
X11061700Y-5956300D02*
X11087100Y-5981700D01*
X11087100Y-5956300D02*
X11061700Y-5981700D01*
X11087300Y-12186800D02*
X11112700Y-12212200D01*
X11112700Y-12186800D02*
X11087300Y-12212200D01*
X11137300Y-12212300D02*
X11162700Y-12237700D01*
X11162700Y-12212300D02*
X11137300Y-12237700D01*
X11163300Y-6032500D02*
X11188700Y-6057900D01*
X11188700Y-6032500D02*
X11163300Y-6057900D01*
X11187300Y-12186800D02*
X11212700Y-12212200D01*
X11212700Y-12186800D02*
X11187300Y-12212200D01*
X11237300Y-12212300D02*
X11262700Y-12237700D01*
X11262700Y-12212300D02*
X11237300Y-12237700D01*
X11254800Y-9449800D02*
X11280200Y-9475200D01*
X11280200Y-9449800D02*
X11254800Y-9475200D01*
X11287300Y-11961800D02*
X11312700Y-11987200D01*
X11312700Y-11961800D02*
X11287300Y-11987200D01*
X11337300Y-10662300D02*
X11362700Y-10687700D01*
X11362700Y-10662300D02*
X11337300Y-10687700D01*
X11354800Y-11944800D02*
X11380200Y-11970200D01*
X11380200Y-11944800D02*
X11354800Y-11970200D01*
X11387300Y-10687300D02*
X11412700Y-10712700D01*
X11412700Y-10687300D02*
X11387300Y-10712700D01*
X11387300Y-12212300D02*
X11412700Y-12237700D01*
X11412700Y-12212300D02*
X11387300Y-12237700D01*
X11391900Y-8661400D02*
X11417300Y-8686800D01*
X11417300Y-8661400D02*
X11391900Y-8686800D01*
X11437300Y-10612300D02*
X11462700Y-10637700D01*
X11462700Y-10612300D02*
X11437300Y-10637700D01*
X11437300Y-12186800D02*
X11462700Y-12212200D01*
X11462700Y-12186800D02*
X11437300Y-12212200D01*
X11594800Y-8414800D02*
X11620200Y-8440200D01*
X11620200Y-8414800D02*
X11594800Y-8440200D01*
X11595100Y-5651500D02*
X11620500Y-5676900D01*
X11620500Y-5651500D02*
X11595100Y-5676900D01*
X11687300Y-10386800D02*
X11712700Y-10412200D01*
X11712700Y-10386800D02*
X11687300Y-10412200D01*
X11687300Y-12192300D02*
X11712700Y-12217700D01*
X11712700Y-12192300D02*
X11687300Y-12217700D01*
X11707300Y-8687300D02*
X11732700Y-8712700D01*
X11732700Y-8687300D02*
X11707300Y-8712700D01*
X11737300Y-10344800D02*
X11762700Y-10370200D01*
X11762700Y-10344800D02*
X11737300Y-10370200D01*
X11762300Y-8889800D02*
X11787700Y-8915200D01*
X11787700Y-8889800D02*
X11762300Y-8915200D01*
X11787300Y-10386800D02*
X11812700Y-10412200D01*
X11812700Y-10386800D02*
X11787300Y-10412200D01*
X11837300Y-10359800D02*
X11862700Y-10385200D01*
X11862700Y-10359800D02*
X11837300Y-10385200D01*
X11837300Y-12194800D02*
X11862700Y-12220200D01*
X11862700Y-12194800D02*
X11837300Y-12220200D01*
X11862300Y-10687300D02*
X11887700Y-10712700D01*
X11887700Y-10687300D02*
X11862300Y-10712700D01*
X11874500Y-5956300D02*
X11899900Y-5981700D01*
X11899900Y-5956300D02*
X11874500Y-5981700D01*
X11887300Y-10386800D02*
X11912700Y-10412200D01*
X11912700Y-10386800D02*
X11887300Y-10412200D01*
X11887300Y-11962300D02*
X11912700Y-11987700D01*
X11912700Y-11962300D02*
X11887300Y-11987700D01*
X11962300Y-10736800D02*
X11987700Y-10762200D01*
X11987700Y-10736800D02*
X11962300Y-10762200D01*
X11962300Y-10986800D02*
X11987700Y-11012200D01*
X11987700Y-10986800D02*
X11962300Y-11012200D01*
X11976100Y-6032500D02*
X12001500Y-6057900D01*
X12001500Y-6032500D02*
X11976100Y-6057900D01*
X12069800Y-11962300D02*
X12095200Y-11987700D01*
X12095200Y-11962300D02*
X12069800Y-11987700D01*
X12187300Y-10786800D02*
X12212700Y-10812200D01*
X12212700Y-10786800D02*
X12187300Y-10812200D01*
X12187300Y-11686800D02*
X12212700Y-11712200D01*
X12212700Y-11686800D02*
X12187300Y-11712200D01*
X12187300Y-11786800D02*
X12212700Y-11812200D01*
X12212700Y-11786800D02*
X12187300Y-11812200D01*
X12212300Y-10937300D02*
X12237700Y-10962700D01*
X12237700Y-10937300D02*
X12212300Y-10962700D01*
X12214800Y-11737300D02*
X12240200Y-11762700D01*
X12240200Y-11737300D02*
X12214800Y-11762700D01*
X12227300Y-8722300D02*
X12252700Y-8747700D01*
X12252700Y-8722300D02*
X12227300Y-8747700D01*
X12237300Y-10812300D02*
X12262700Y-10837700D01*
X12262700Y-10812300D02*
X12237300Y-10837700D01*
X12237300Y-10887300D02*
X12262700Y-10912700D01*
X12262700Y-10887300D02*
X12237300Y-10912700D01*
X12337300Y-10362300D02*
X12362700Y-10387700D01*
X12362700Y-10362300D02*
X12337300Y-10387700D01*
X12407900Y-5651500D02*
X12433300Y-5676900D01*
X12433300Y-5651500D02*
X12407900Y-5676900D01*
X12562300Y-9187300D02*
X12587700Y-9212700D01*
X12587700Y-9187300D02*
X12562300Y-9212700D01*
X12587300Y-9137300D02*
X12612700Y-9162700D01*
X12612700Y-9137300D02*
X12587300Y-9162700D01*
X12587300Y-9237300D02*
X12612700Y-9262700D01*
X12612700Y-9237300D02*
X12587300Y-9262700D01*
X12587300Y-9637300D02*
X12612700Y-9662700D01*
X12612700Y-9637300D02*
X12587300Y-9662700D01*
X12609800Y-12862300D02*
X12635200Y-12887700D01*
X12635200Y-12862300D02*
X12609800Y-12887700D01*
X12612300Y-9587300D02*
X12637700Y-9612700D01*
X12637700Y-9587300D02*
X12612300Y-9612700D01*
X12637300Y-12811800D02*
X12662700Y-12837200D01*
X12662700Y-12811800D02*
X12637300Y-12837200D01*
X12637300Y-12911800D02*
X12662700Y-12937200D01*
X12662700Y-12911800D02*
X12637300Y-12937200D01*
X12687300Y-5956300D02*
X12712700Y-5981700D01*
X12712700Y-5956300D02*
X12687300Y-5981700D01*
X12779800Y-9387300D02*
X12805200Y-9412700D01*
X12805200Y-9387300D02*
X12779800Y-9412700D01*
X12788900Y-6032500D02*
X12814300Y-6057900D01*
X12814300Y-6032500D02*
X12788900Y-6057900D01*
X12912300Y-13111800D02*
X12937700Y-13137200D01*
X12937700Y-13111800D02*
X12912300Y-13137200D01*
X13012300Y-13211800D02*
X13037700Y-13237200D01*
X13037700Y-13211800D02*
X13012300Y-13237200D01*
X13062300Y-12086800D02*
X13087700Y-12112200D01*
X13087700Y-12086800D02*
X13062300Y-12112200D01*
X13062300Y-13242300D02*
X13087700Y-13267700D01*
X13087700Y-13242300D02*
X13062300Y-13267700D01*
X13112300Y-13211800D02*
X13137700Y-13237200D01*
X13137700Y-13211800D02*
X13112300Y-13237200D01*
X13162300Y-12086800D02*
X13187700Y-12112200D01*
X13187700Y-12086800D02*
X13162300Y-12112200D01*
X13162300Y-13237300D02*
X13187700Y-13262700D01*
X13187700Y-13237300D02*
X13162300Y-13262700D01*
X13220700Y-5651500D02*
X13246100Y-5676900D01*
X13246100Y-5651500D02*
X13220700Y-5676900D01*
X13262300Y-12986800D02*
X13287700Y-13012200D01*
X13287700Y-12986800D02*
X13262300Y-13012200D01*
X13289800Y-13224800D02*
X13315200Y-13250200D01*
X13315200Y-13224800D02*
X13289800Y-13250200D01*
X13339800Y-12087300D02*
X13365200Y-12112700D01*
X13365200Y-12087300D02*
X13339800Y-12112700D01*
X13347300Y-11842300D02*
X13372700Y-11867700D01*
X13372700Y-11842300D02*
X13347300Y-11867700D01*
X13412300Y-12086800D02*
X13437700Y-12112200D01*
X13437700Y-12086800D02*
X13412300Y-12112200D01*
X13482300Y-12312300D02*
X13507700Y-12337700D01*
X13507700Y-12312300D02*
X13482300Y-12337700D01*
X13500100Y-5956300D02*
X13525500Y-5981700D01*
X13525500Y-5956300D02*
X13500100Y-5981700D01*
X13587300Y-11537300D02*
X13612700Y-11562700D01*
X13612700Y-11537300D02*
X13587300Y-11562700D01*
X13601700Y-6032500D02*
X13627100Y-6057900D01*
X13627100Y-6032500D02*
X13601700Y-6057900D01*
X13612300Y-12987300D02*
X13637700Y-13012700D01*
X13637700Y-12987300D02*
X13612300Y-13012700D01*
X13662300Y-11861800D02*
X13687700Y-11887200D01*
X13687700Y-11861800D02*
X13662300Y-11887200D01*
X13662300Y-13236800D02*
X13687700Y-13262200D01*
X13687700Y-13236800D02*
X13662300Y-13262200D01*
X13749800Y-11262300D02*
X13775200Y-11287700D01*
X13775200Y-11262300D02*
X13749800Y-11287700D01*
X13787300Y-12211800D02*
X13812700Y-12237200D01*
X13812700Y-12211800D02*
X13787300Y-12237200D01*
X13787300Y-12311800D02*
X13812700Y-12337200D01*
X13812700Y-12311800D02*
X13787300Y-12337200D01*
X13787300Y-12461800D02*
X13812700Y-12487200D01*
X13812700Y-12461800D02*
X13787300Y-12487200D01*
X13787300Y-12611800D02*
X13812700Y-12637200D01*
X13812700Y-12611800D02*
X13787300Y-12637200D01*
X13787300Y-12711800D02*
X13812700Y-12737200D01*
X13812700Y-12711800D02*
X13787300Y-12737200D01*
X13787300Y-12811800D02*
X13812700Y-12837200D01*
X13812700Y-12811800D02*
X13787300Y-12837200D01*
X13912300Y-12061800D02*
X13937700Y-12087200D01*
X13937700Y-12061800D02*
X13912300Y-12087200D01*
X14012300Y-11312300D02*
X14037700Y-11337700D01*
X14037700Y-11312300D02*
X14012300Y-11337700D01*
X14022300Y-12589800D02*
X14047700Y-12615200D01*
X14047700Y-12589800D02*
X14022300Y-12615200D01*
X14024800Y-12862300D02*
X14050200Y-12887700D01*
X14050200Y-12862300D02*
X14024800Y-12887700D01*
X14033500Y-5651500D02*
X14058900Y-5676900D01*
X14058900Y-5651500D02*
X14033500Y-5676900D01*
X14222300Y-11262300D02*
X14247700Y-11287700D01*
X14247700Y-11262300D02*
X14222300Y-11287700D01*
X14312900Y-5956300D02*
X14338300Y-5981700D01*
X14338300Y-5956300D02*
X14312900Y-5981700D01*
X14412300Y-8887300D02*
X14437700Y-8912700D01*
X14437700Y-8887300D02*
X14412300Y-8912700D01*
X14414500Y-6032500D02*
X14439900Y-6057900D01*
X14439900Y-6032500D02*
X14414500Y-6057900D01*
X14612300Y-11712300D02*
X14637700Y-11737700D01*
X14637700Y-11712300D02*
X14612300Y-11737700D01*
X14846300Y-5651500D02*
X14871700Y-5676900D01*
X14871700Y-5651500D02*
X14846300Y-5676900D01*
X15125700Y-5956300D02*
X15151100Y-5981700D01*
X15151100Y-5956300D02*
X15125700Y-5981700D01*
X15227300Y-6032500D02*
X15252700Y-6057900D01*
X15252700Y-6032500D02*
X15227300Y-6057900D01*
X15659100Y-5651500D02*
X15684500Y-5676900D01*
X15684500Y-5651500D02*
X15659100Y-5676900D01*
X15938500Y-5956300D02*
X15963900Y-5981700D01*
X15963900Y-5956300D02*
X15938500Y-5981700D01*
X16040100Y-6032500D02*
X16065500Y-6057900D01*
X16065500Y-6032500D02*
X16040100Y-6057900D01*
X16214800Y-5752300D02*
X16240200Y-5777700D01*
X16240200Y-5752300D02*
X16214800Y-5777700D01*
X16527300Y-8414800D02*
X16552700Y-8440200D01*
X16552700Y-8414800D02*
X16527300Y-8440200D01*
X18429800Y-12284800D02*
X18455200Y-12310200D01*
X18455200Y-12284800D02*
X18429800Y-12310200D01*
X18429800Y-13584800D02*
X18455200Y-13610200D01*
X18455200Y-13584800D02*
X18429800Y-13610200D01*
X18504800Y-13109800D02*
X18530200Y-13135200D01*
X18530200Y-13109800D02*
X18504800Y-13135200D01*
X18504800Y-13359800D02*
X18530200Y-13385200D01*
X18530200Y-13359800D02*
X18504800Y-13385200D01*
X18714800Y-10714800D02*
X18740200Y-10740200D01*
X18740200Y-10714800D02*
X18714800Y-10740200D01*
X18714800Y-10749800D02*
X18740200Y-10775200D01*
X18740200Y-10749800D02*
X18714800Y-10775200D01*
X18714800Y-10789800D02*
X18740200Y-10815200D01*
X18740200Y-10789800D02*
X18714800Y-10815200D01*
X18714800Y-10832300D02*
X18740200Y-10857700D01*
X18740200Y-10832300D02*
X18714800Y-10857700D01*
X19206800Y-13395600D02*
X19232200Y-13421000D01*
X19232200Y-13395600D02*
X19206800Y-13421000D01*
X19206800Y-13446400D02*
X19232200Y-13471800D01*
X19232200Y-13446400D02*
X19206800Y-13471800D01*
X19206800Y-13751200D02*
X19232200Y-13776600D01*
X19232200Y-13751200D02*
X19206800Y-13776600D01*
X19206800Y-13802000D02*
X19232200Y-13827400D01*
X19232200Y-13802000D02*
X19206800Y-13827400D01*
X19232200Y-12862200D02*
X19257600Y-12887600D01*
X19257600Y-12862200D02*
X19232200Y-12887600D01*
X19283000Y-12862200D02*
X19308400Y-12887600D01*
X19308400Y-12862200D02*
X19283000Y-12887600D01*
X19333800Y-12862200D02*
X19359200Y-12887600D01*
X19359200Y-12862200D02*
X19333800Y-12887600D01*
X19384600Y-12862200D02*
X19410000Y-12887600D01*
X19410000Y-12862200D02*
X19384600Y-12887600D01*
X19435400Y-12862200D02*
X19460800Y-12887600D01*
X19460800Y-12862200D02*
X19435400Y-12887600D01*
X19435400Y-13395600D02*
X19460800Y-13421000D01*
X19460800Y-13395600D02*
X19435400Y-13421000D01*
X19435400Y-13446400D02*
X19460800Y-13471800D01*
X19460800Y-13446400D02*
X19435400Y-13471800D01*
X19435400Y-13751200D02*
X19460800Y-13776600D01*
X19460800Y-13751200D02*
X19435400Y-13776600D01*
X19435400Y-13802000D02*
X19460800Y-13827400D01*
X19460800Y-13802000D02*
X19435400Y-13827400D01*
X19587800Y-13497200D02*
X19613200Y-13522600D01*
X19613200Y-13497200D02*
X19587800Y-13522600D01*
X19587800Y-13548000D02*
X19613200Y-13573400D01*
X19613200Y-13548000D02*
X19587800Y-13573400D01*
X19587800Y-13649600D02*
X19613200Y-13675000D01*
X19613200Y-13649600D02*
X19587800Y-13675000D01*
X6868300Y-8246000D02*
G75*
G03X6868300Y-8246000I-35000J0D01*
G01*
X7135000Y-7992000D02*
G75*
G03X7135000Y-7992000I-35000J0D01*
G01*
X7135000Y-8500000D02*
G75*
G03X7135000Y-8500000I-35000J0D01*
G01*
X10225000Y-8690000D02*
G75*
G03X10225000Y-8690000I-35000J0D01*
G01*
X10525000Y-8690000D02*
G75*
G03X10525000Y-8690000I-35000J0D01*
G01*
X7264400Y-9561200D02*
X7264400Y-9641200D01*
X7224400Y-9601200D02*
X7304400Y-9601200D01*
X7264400Y-9815200D02*
X7264400Y-9895200D01*
X7224400Y-9855200D02*
X7304400Y-9855200D01*
X7518400Y-9307200D02*
X7518400Y-9387200D01*
X7478400Y-9347200D02*
X7558400Y-9347200D01*
X7518400Y-9561200D02*
X7518400Y-9641200D01*
X7478400Y-9601200D02*
X7558400Y-9601200D01*
X7518400Y-9815200D02*
X7518400Y-9895200D01*
X7478400Y-9855200D02*
X7558400Y-9855200D01*
X7334338Y-13554138D02*
X7334338Y-13496862D01*
X7277062Y-13496862D01*
X7277062Y-13554138D01*
X7334338Y-13554138D01*
X7334338Y-13808138D02*
X7334338Y-13750862D01*
X7277062Y-13750862D01*
X7277062Y-13808138D01*
X7334338Y-13808138D01*
X7534338Y-13554138D02*
X7534338Y-13496862D01*
X7477062Y-13496862D01*
X7477062Y-13554138D01*
X7534338Y-13554138D01*
X7534338Y-13808138D02*
X7534338Y-13750862D01*
X7477062Y-13750862D01*
X7477062Y-13808138D01*
X7534338Y-13808138D01*
X16700500Y-4998000D02*
X16745500Y-4953000D01*
X16700500Y-4908000D01*
X16655500Y-4953000D01*
X16700500Y-4998000D01*
X16700500Y-8300000D02*
X16745500Y-8255000D01*
X16700500Y-8210000D01*
X16655500Y-8255000D01*
X16700500Y-8300000D01*
X17145000Y-4998000D02*
X17190000Y-4953000D01*
X17145000Y-4908000D01*
X17100000Y-4953000D01*
X17145000Y-4998000D01*
X17145000Y-8300000D02*
X17190000Y-8255000D01*
X17145000Y-8210000D01*
X17100000Y-8255000D01*
X17145000Y-8300000D01*
X17589500Y-4998000D02*
X17634500Y-4953000D01*
X17589500Y-4908000D01*
X17544500Y-4953000D01*
X17589500Y-4998000D01*
X17589500Y-8300000D02*
X17634500Y-8255000D01*
X17589500Y-8210000D01*
X17544500Y-8255000D01*
X17589500Y-8300000D01*
X18034000Y-4998000D02*
X18079000Y-4953000D01*
X18034000Y-4908000D01*
X17989000Y-4953000D01*
X18034000Y-4998000D01*
X18034000Y-8300000D02*
X18079000Y-8255000D01*
X18034000Y-8210000D01*
X17989000Y-8255000D01*
X18034000Y-8300000D01*
X18478500Y-4998000D02*
X18523500Y-4953000D01*
X18478500Y-4908000D01*
X18433500Y-4953000D01*
X18478500Y-4998000D01*
X18478500Y-8300000D02*
X18523500Y-8255000D01*
X18478500Y-8210000D01*
X18433500Y-8255000D01*
X18478500Y-8300000D01*
X6350000Y-7950000D02*
X6450000Y-8050000D01*
X6450000Y-7950000D02*
X6350000Y-8050000D01*
X6450000Y-8000000D02*
G75*
G03X6450000Y-8000000I-50000J0D01*
G01*
X6350000Y-8204000D02*
X6450000Y-8304000D01*
X6450000Y-8204000D02*
X6350000Y-8304000D01*
X6450000Y-8254000D02*
G75*
G03X6450000Y-8254000I-50000J0D01*
G01*
X6350000Y-8458000D02*
X6450000Y-8558000D01*
X6450000Y-8458000D02*
X6350000Y-8558000D01*
X6450000Y-8508000D02*
G75*
G03X6450000Y-8508000I-50000J0D01*
G01*
X6350000Y-8712000D02*
X6450000Y-8812000D01*
X6450000Y-8712000D02*
X6350000Y-8812000D01*
X6450000Y-8762000D02*
G75*
G03X6450000Y-8762000I-50000J0D01*
G01*
X6350000Y-8966000D02*
X6450000Y-9066000D01*
X6450000Y-8966000D02*
X6350000Y-9066000D01*
X6450000Y-9016000D02*
G75*
G03X6450000Y-9016000I-50000J0D01*
G01*
X6350000Y-9220000D02*
X6450000Y-9320000D01*
X6450000Y-9220000D02*
X6350000Y-9320000D01*
X6450000Y-9270000D02*
G75*
G03X6450000Y-9270000I-50000J0D01*
G01*
X6350000Y-9474000D02*
X6450000Y-9574000D01*
X6450000Y-9474000D02*
X6350000Y-9574000D01*
X6450000Y-9524000D02*
G75*
G03X6450000Y-9524000I-50000J0D01*
G01*
X6350000Y-9728000D02*
X6450000Y-9828000D01*
X6450000Y-9728000D02*
X6350000Y-9828000D01*
X6450000Y-9778000D02*
G75*
G03X6450000Y-9778000I-50000J0D01*
G01*
X6350000Y-9982000D02*
X6450000Y-10082000D01*
X6450000Y-9982000D02*
X6350000Y-10082000D01*
X6450000Y-10032000D02*
G75*
G03X6450000Y-10032000I-50000J0D01*
G01*
X6350000Y-10236000D02*
X6450000Y-10336000D01*
X6450000Y-10236000D02*
X6350000Y-10336000D01*
X6450000Y-10286000D02*
G75*
G03X6450000Y-10286000I-50000J0D01*
G01*
X6350000Y-10490000D02*
X6450000Y-10590000D01*
X6450000Y-10490000D02*
X6350000Y-10590000D01*
X6450000Y-10540000D02*
G75*
G03X6450000Y-10540000I-50000J0D01*
G01*
X6350000Y-10744000D02*
X6450000Y-10844000D01*
X6450000Y-10744000D02*
X6350000Y-10844000D01*
X6450000Y-10794000D02*
G75*
G03X6450000Y-10794000I-50000J0D01*
G01*
X6350000Y-10998000D02*
X6450000Y-11098000D01*
X6450000Y-10998000D02*
X6350000Y-11098000D01*
X6450000Y-11048000D02*
G75*
G03X6450000Y-11048000I-50000J0D01*
G01*
X6350000Y-11252000D02*
X6450000Y-11352000D01*
X6450000Y-11252000D02*
X6350000Y-11352000D01*
X6450000Y-11302000D02*
G75*
G03X6450000Y-11302000I-50000J0D01*
G01*
X6350000Y-11506000D02*
X6450000Y-11606000D01*
X6450000Y-11506000D02*
X6350000Y-11606000D01*
X6450000Y-11556000D02*
G75*
G03X6450000Y-11556000I-50000J0D01*
G01*
X6350000Y-11760000D02*
X6450000Y-11860000D01*
X6450000Y-11760000D02*
X6350000Y-11860000D01*
X6450000Y-11810000D02*
G75*
G03X6450000Y-11810000I-50000J0D01*
G01*
X6350000Y-12014000D02*
X6450000Y-12114000D01*
X6450000Y-12014000D02*
X6350000Y-12114000D01*
X6450000Y-12064000D02*
G75*
G03X6450000Y-12064000I-50000J0D01*
G01*
X6350000Y-12268000D02*
X6450000Y-12368000D01*
X6450000Y-12268000D02*
X6350000Y-12368000D01*
X6450000Y-12318000D02*
G75*
G03X6450000Y-12318000I-50000J0D01*
G01*
X6350000Y-12522000D02*
X6450000Y-12622000D01*
X6450000Y-12522000D02*
X6350000Y-12622000D01*
X6450000Y-12572000D02*
G75*
G03X6450000Y-12572000I-50000J0D01*
G01*
X6350000Y-12776000D02*
X6450000Y-12876000D01*
X6450000Y-12776000D02*
X6350000Y-12876000D01*
X6450000Y-12826000D02*
G75*
G03X6450000Y-12826000I-50000J0D01*
G01*
X7000000Y-11650000D02*
X7100000Y-11750000D01*
X7100000Y-11650000D02*
X7000000Y-11750000D01*
X7100000Y-11700000D02*
G75*
G03X7100000Y-11700000I-50000J0D01*
G01*
X7000000Y-11904000D02*
X7100000Y-12004000D01*
X7100000Y-11904000D02*
X7000000Y-12004000D01*
X7100000Y-11954000D02*
G75*
G03X7100000Y-11954000I-50000J0D01*
G01*
X7000000Y-12158000D02*
X7100000Y-12258000D01*
X7100000Y-12158000D02*
X7000000Y-12258000D01*
X7100000Y-12208000D02*
G75*
G03X7100000Y-12208000I-50000J0D01*
G01*
X7000000Y-12412000D02*
X7100000Y-12512000D01*
X7100000Y-12412000D02*
X7000000Y-12512000D01*
X7100000Y-12462000D02*
G75*
G03X7100000Y-12462000I-50000J0D01*
G01*
X7000000Y-12666000D02*
X7100000Y-12766000D01*
X7100000Y-12666000D02*
X7000000Y-12766000D01*
X7100000Y-12716000D02*
G75*
G03X7100000Y-12716000I-50000J0D01*
G01*
X8050000Y-6405000D02*
X8150000Y-6505000D01*
X8150000Y-6405000D02*
X8050000Y-6505000D01*
X8150000Y-6455000D02*
G75*
G03X8150000Y-6455000I-50000J0D01*
G01*
X8050000Y-6659000D02*
X8150000Y-6759000D01*
X8150000Y-6659000D02*
X8050000Y-6759000D01*
X8150000Y-6709000D02*
G75*
G03X8150000Y-6709000I-50000J0D01*
G01*
X8050000Y-6913000D02*
X8150000Y-7013000D01*
X8150000Y-6913000D02*
X8050000Y-7013000D01*
X8150000Y-6963000D02*
G75*
G03X8150000Y-6963000I-50000J0D01*
G01*
X8050000Y-7167000D02*
X8150000Y-7267000D01*
X8150000Y-7167000D02*
X8050000Y-7267000D01*
X8150000Y-7217000D02*
G75*
G03X8150000Y-7217000I-50000J0D01*
G01*
X8050000Y-7421000D02*
X8150000Y-7521000D01*
X8150000Y-7421000D02*
X8050000Y-7521000D01*
X8150000Y-7471000D02*
G75*
G03X8150000Y-7471000I-50000J0D01*
G01*
X8050000Y-7675000D02*
X8150000Y-7775000D01*
X8150000Y-7675000D02*
X8050000Y-7775000D01*
X8150000Y-7725000D02*
G75*
G03X8150000Y-7725000I-50000J0D01*
G01*
X8179600Y-11938800D02*
X8279600Y-12038800D01*
X8279600Y-11938800D02*
X8179600Y-12038800D01*
X8279600Y-11988800D02*
G75*
G03X8279600Y-11988800I-50000J0D01*
G01*
X8179600Y-12192800D02*
X8279600Y-12292800D01*
X8279600Y-12192800D02*
X8179600Y-12292800D01*
X8279600Y-12242800D02*
G75*
G03X8279600Y-12242800I-50000J0D01*
G01*
X8687600Y-11938800D02*
X8787600Y-12038800D01*
X8787600Y-11938800D02*
X8687600Y-12038800D01*
X8787600Y-11988800D02*
G75*
G03X8787600Y-11988800I-50000J0D01*
G01*
X8687600Y-12192800D02*
X8787600Y-12292800D01*
X8787600Y-12192800D02*
X8687600Y-12292800D01*
X8787600Y-12242800D02*
G75*
G03X8787600Y-12242800I-50000J0D01*
G01*
X10059200Y-6808000D02*
X10159200Y-6908000D01*
X10159200Y-6808000D02*
X10059200Y-6908000D01*
X10159200Y-6858000D02*
G75*
G03X10159200Y-6858000I-50000J0D01*
G01*
X10059200Y-7062000D02*
X10159200Y-7162000D01*
X10159200Y-7062000D02*
X10059200Y-7162000D01*
X10159200Y-7112000D02*
G75*
G03X10159200Y-7112000I-50000J0D01*
G01*
X10059200Y-7316000D02*
X10159200Y-7416000D01*
X10159200Y-7316000D02*
X10059200Y-7416000D01*
X10159200Y-7366000D02*
G75*
G03X10159200Y-7366000I-50000J0D01*
G01*
X10465600Y-6808000D02*
X10565600Y-6908000D01*
X10565600Y-6808000D02*
X10465600Y-6908000D01*
X10565600Y-6858000D02*
G75*
G03X10565600Y-6858000I-50000J0D01*
G01*
X10465600Y-7062000D02*
X10565600Y-7162000D01*
X10565600Y-7062000D02*
X10465600Y-7162000D01*
X10565600Y-7112000D02*
G75*
G03X10565600Y-7112000I-50000J0D01*
G01*
X10465600Y-7316000D02*
X10565600Y-7416000D01*
X10565600Y-7316000D02*
X10465600Y-7416000D01*
X10565600Y-7366000D02*
G75*
G03X10565600Y-7366000I-50000J0D01*
G01*
X10830000Y-13074500D02*
X10930000Y-13174500D01*
X10930000Y-13074500D02*
X10830000Y-13174500D01*
X10930000Y-13124500D02*
G75*
G03X10930000Y-13124500I-50000J0D01*
G01*
X10872000Y-6808000D02*
X10972000Y-6908000D01*
X10972000Y-6808000D02*
X10872000Y-6908000D01*
X10972000Y-6858000D02*
G75*
G03X10972000Y-6858000I-50000J0D01*
G01*
X10872000Y-7062000D02*
X10972000Y-7162000D01*
X10972000Y-7062000D02*
X10872000Y-7162000D01*
X10972000Y-7112000D02*
G75*
G03X10972000Y-7112000I-50000J0D01*
G01*
X10872000Y-7316000D02*
X10972000Y-7416000D01*
X10972000Y-7316000D02*
X10872000Y-7416000D01*
X10972000Y-7366000D02*
G75*
G03X10972000Y-7366000I-50000J0D01*
G01*
X11084000Y-13074500D02*
X11184000Y-13174500D01*
X11184000Y-13074500D02*
X11084000Y-13174500D01*
X11184000Y-13124500D02*
G75*
G03X11184000Y-13124500I-50000J0D01*
G01*
X11278400Y-6808000D02*
X11378400Y-6908000D01*
X11378400Y-6808000D02*
X11278400Y-6908000D01*
X11378400Y-6858000D02*
G75*
G03X11378400Y-6858000I-50000J0D01*
G01*
X11278400Y-7062000D02*
X11378400Y-7162000D01*
X11378400Y-7062000D02*
X11278400Y-7162000D01*
X11378400Y-7112000D02*
G75*
G03X11378400Y-7112000I-50000J0D01*
G01*
X11278400Y-7316000D02*
X11378400Y-7416000D01*
X11378400Y-7316000D02*
X11278400Y-7416000D01*
X11378400Y-7366000D02*
G75*
G03X11378400Y-7366000I-50000J0D01*
G01*
X11338000Y-13074500D02*
X11438000Y-13174500D01*
X11438000Y-13074500D02*
X11338000Y-13174500D01*
X11438000Y-13124500D02*
G75*
G03X11438000Y-13124500I-50000J0D01*
G01*
X11592000Y-13074500D02*
X11692000Y-13174500D01*
X11692000Y-13074500D02*
X11592000Y-13174500D01*
X11692000Y-13124500D02*
G75*
G03X11692000Y-13124500I-50000J0D01*
G01*
X11684800Y-6808000D02*
X11784800Y-6908000D01*
X11784800Y-6808000D02*
X11684800Y-6908000D01*
X11784800Y-6858000D02*
G75*
G03X11784800Y-6858000I-50000J0D01*
G01*
X11684800Y-7062000D02*
X11784800Y-7162000D01*
X11784800Y-7062000D02*
X11684800Y-7162000D01*
X11784800Y-7112000D02*
G75*
G03X11784800Y-7112000I-50000J0D01*
G01*
X11684800Y-7316000D02*
X11784800Y-7416000D01*
X11784800Y-7316000D02*
X11684800Y-7416000D01*
X11784800Y-7366000D02*
G75*
G03X11784800Y-7366000I-50000J0D01*
G01*
X11846000Y-13074500D02*
X11946000Y-13174500D01*
X11946000Y-13074500D02*
X11846000Y-13174500D01*
X11946000Y-13124500D02*
G75*
G03X11946000Y-13124500I-50000J0D01*
G01*
X12091200Y-6808000D02*
X12191200Y-6908000D01*
X12191200Y-6808000D02*
X12091200Y-6908000D01*
X12191200Y-6858000D02*
G75*
G03X12191200Y-6858000I-50000J0D01*
G01*
X12091200Y-7062000D02*
X12191200Y-7162000D01*
X12191200Y-7062000D02*
X12091200Y-7162000D01*
X12191200Y-7112000D02*
G75*
G03X12191200Y-7112000I-50000J0D01*
G01*
X12091200Y-7316000D02*
X12191200Y-7416000D01*
X12191200Y-7316000D02*
X12091200Y-7416000D01*
X12191200Y-7366000D02*
G75*
G03X12191200Y-7366000I-50000J0D01*
G01*
X12100000Y-13074500D02*
X12200000Y-13174500D01*
X12200000Y-13074500D02*
X12100000Y-13174500D01*
X12200000Y-13124500D02*
G75*
G03X12200000Y-13124500I-50000J0D01*
G01*
X12497600Y-6808000D02*
X12597600Y-6908000D01*
X12597600Y-6808000D02*
X12497600Y-6908000D01*
X12597600Y-6858000D02*
G75*
G03X12597600Y-6858000I-50000J0D01*
G01*
X12497600Y-7062000D02*
X12597600Y-7162000D01*
X12597600Y-7062000D02*
X12497600Y-7162000D01*
X12597600Y-7112000D02*
G75*
G03X12597600Y-7112000I-50000J0D01*
G01*
X12497600Y-7316000D02*
X12597600Y-7416000D01*
X12597600Y-7316000D02*
X12497600Y-7416000D01*
X12597600Y-7366000D02*
G75*
G03X12597600Y-7366000I-50000J0D01*
G01*
X12904000Y-6808000D02*
X13004000Y-6908000D01*
X13004000Y-6808000D02*
X12904000Y-6908000D01*
X13004000Y-6858000D02*
G75*
G03X13004000Y-6858000I-50000J0D01*
G01*
X12904000Y-7062000D02*
X13004000Y-7162000D01*
X13004000Y-7062000D02*
X12904000Y-7162000D01*
X13004000Y-7112000D02*
G75*
G03X13004000Y-7112000I-50000J0D01*
G01*
X12904000Y-7316000D02*
X13004000Y-7416000D01*
X13004000Y-7316000D02*
X12904000Y-7416000D01*
X13004000Y-7366000D02*
G75*
G03X13004000Y-7366000I-50000J0D01*
G01*
X13310400Y-6808000D02*
X13410400Y-6908000D01*
X13410400Y-6808000D02*
X13310400Y-6908000D01*
X13410400Y-6858000D02*
G75*
G03X13410400Y-6858000I-50000J0D01*
G01*
X13310400Y-7062000D02*
X13410400Y-7162000D01*
X13410400Y-7062000D02*
X13310400Y-7162000D01*
X13410400Y-7112000D02*
G75*
G03X13410400Y-7112000I-50000J0D01*
G01*
X13310400Y-7316000D02*
X13410400Y-7416000D01*
X13410400Y-7316000D02*
X13310400Y-7416000D01*
X13410400Y-7366000D02*
G75*
G03X13410400Y-7366000I-50000J0D01*
G01*
X13716800Y-6808000D02*
X13816800Y-6908000D01*
X13816800Y-6808000D02*
X13716800Y-6908000D01*
X13816800Y-6858000D02*
G75*
G03X13816800Y-6858000I-50000J0D01*
G01*
X13716800Y-7062000D02*
X13816800Y-7162000D01*
X13816800Y-7062000D02*
X13716800Y-7162000D01*
X13816800Y-7112000D02*
G75*
G03X13816800Y-7112000I-50000J0D01*
G01*
X13716800Y-7316000D02*
X13816800Y-7416000D01*
X13816800Y-7316000D02*
X13716800Y-7416000D01*
X13816800Y-7366000D02*
G75*
G03X13816800Y-7366000I-50000J0D01*
G01*
X14123200Y-6808000D02*
X14223200Y-6908000D01*
X14223200Y-6808000D02*
X14123200Y-6908000D01*
X14223200Y-6858000D02*
G75*
G03X14223200Y-6858000I-50000J0D01*
G01*
X14123200Y-7062000D02*
X14223200Y-7162000D01*
X14223200Y-7062000D02*
X14123200Y-7162000D01*
X14223200Y-7112000D02*
G75*
G03X14223200Y-7112000I-50000J0D01*
G01*
X14123200Y-7316000D02*
X14223200Y-7416000D01*
X14223200Y-7316000D02*
X14123200Y-7416000D01*
X14223200Y-7366000D02*
G75*
G03X14223200Y-7366000I-50000J0D01*
G01*
X14529600Y-6808000D02*
X14629600Y-6908000D01*
X14629600Y-6808000D02*
X14529600Y-6908000D01*
X14629600Y-6858000D02*
G75*
G03X14629600Y-6858000I-50000J0D01*
G01*
X14529600Y-7062000D02*
X14629600Y-7162000D01*
X14629600Y-7062000D02*
X14529600Y-7162000D01*
X14629600Y-7112000D02*
G75*
G03X14629600Y-7112000I-50000J0D01*
G01*
X14529600Y-7316000D02*
X14629600Y-7416000D01*
X14629600Y-7316000D02*
X14529600Y-7416000D01*
X14629600Y-7366000D02*
G75*
G03X14629600Y-7366000I-50000J0D01*
G01*
X14936000Y-6808000D02*
X15036000Y-6908000D01*
X15036000Y-6808000D02*
X14936000Y-6908000D01*
X15036000Y-6858000D02*
G75*
G03X15036000Y-6858000I-50000J0D01*
G01*
X14936000Y-7062000D02*
X15036000Y-7162000D01*
X15036000Y-7062000D02*
X14936000Y-7162000D01*
X15036000Y-7112000D02*
G75*
G03X15036000Y-7112000I-50000J0D01*
G01*
X14936000Y-7316000D02*
X15036000Y-7416000D01*
X15036000Y-7316000D02*
X14936000Y-7416000D01*
X15036000Y-7366000D02*
G75*
G03X15036000Y-7366000I-50000J0D01*
G01*
X15342400Y-6808000D02*
X15442400Y-6908000D01*
X15442400Y-6808000D02*
X15342400Y-6908000D01*
X15442400Y-6858000D02*
G75*
G03X15442400Y-6858000I-50000J0D01*
G01*
X15342400Y-7062000D02*
X15442400Y-7162000D01*
X15442400Y-7062000D02*
X15342400Y-7162000D01*
X15442400Y-7112000D02*
G75*
G03X15442400Y-7112000I-50000J0D01*
G01*
X15342400Y-7316000D02*
X15442400Y-7416000D01*
X15442400Y-7316000D02*
X15342400Y-7416000D01*
X15442400Y-7366000D02*
G75*
G03X15442400Y-7366000I-50000J0D01*
G01*
X15748800Y-6808000D02*
X15848800Y-6908000D01*
X15848800Y-6808000D02*
X15748800Y-6908000D01*
X15848800Y-6858000D02*
G75*
G03X15848800Y-6858000I-50000J0D01*
G01*
X15748800Y-7062000D02*
X15848800Y-7162000D01*
X15848800Y-7062000D02*
X15748800Y-7162000D01*
X15848800Y-7112000D02*
G75*
G03X15848800Y-7112000I-50000J0D01*
G01*
X15748800Y-7316000D02*
X15848800Y-7416000D01*
X15848800Y-7316000D02*
X15748800Y-7416000D01*
X15848800Y-7366000D02*
G75*
G03X15848800Y-7366000I-50000J0D01*
G01*
X16155200Y-6808000D02*
X16255200Y-6908000D01*
X16255200Y-6808000D02*
X16155200Y-6908000D01*
X16255200Y-6858000D02*
G75*
G03X16255200Y-6858000I-50000J0D01*
G01*
X16155200Y-7062000D02*
X16255200Y-7162000D01*
X16255200Y-7062000D02*
X16155200Y-7162000D01*
X16255200Y-7112000D02*
G75*
G03X16255200Y-7112000I-50000J0D01*
G01*
X16155200Y-7316000D02*
X16255200Y-7416000D01*
X16255200Y-7316000D02*
X16155200Y-7416000D01*
X16255200Y-7366000D02*
G75*
G03X16255200Y-7366000I-50000J0D01*
G01*
X12848200Y-4872600D02*
X12958200Y-4982600D01*
X12958200Y-4872600D02*
X12848200Y-4982600D01*
X12903200Y-4872600D02*
X12903200Y-4982600D01*
X12848200Y-4927600D02*
X12958200Y-4927600D01*
X13356200Y-4872600D02*
X13466200Y-4982600D01*
X13466200Y-4872600D02*
X13356200Y-4982600D01*
X13411200Y-4872600D02*
X13411200Y-4982600D01*
X13356200Y-4927600D02*
X13466200Y-4927600D01*
X20499000Y-13043000D02*
X20609000Y-13153000D01*
X20609000Y-13043000D02*
X20499000Y-13153000D01*
X20554000Y-13043000D02*
X20554000Y-13153000D01*
X20499000Y-13098000D02*
X20609000Y-13098000D01*
X20499000Y-13551000D02*
X20609000Y-13661000D01*
X20609000Y-13551000D02*
X20499000Y-13661000D01*
X20554000Y-13551000D02*
X20554000Y-13661000D01*
X20499000Y-13606000D02*
X20609000Y-13606000D01*
X6920700Y-12937500D02*
X7150700Y-13167500D01*
X7150700Y-12937500D02*
X6920700Y-13167500D01*
X7117018Y-13133818D02*
X7117018Y-12971182D01*
X6954382Y-12971182D01*
X6954382Y-13133818D01*
X7117018Y-13133818D01*
X6920700Y-14137500D02*
X7150700Y-14367500D01*
X7150700Y-14137500D02*
X6920700Y-14367500D01*
X7117018Y-14333818D02*
X7117018Y-14171182D01*
X6954382Y-14171182D01*
X6954382Y-14333818D01*
X7117018Y-14333818D01*
X6330000Y-4830000D02*
X6670000Y-5170000D01*
X6670000Y-4830000D02*
X6330000Y-5170000D01*
X6500000Y-5170000D02*
X6670000Y-5000000D01*
X6500000Y-4830000D01*
X6330000Y-5000000D01*
X6500000Y-5170000D01*
X8080000Y-12830000D02*
X8420000Y-13170000D01*
X8420000Y-12830000D02*
X8080000Y-13170000D01*
X8250000Y-13170000D02*
X8420000Y-13000000D01*
X8250000Y-12830000D01*
X8080000Y-13000000D01*
X8250000Y-13170000D01*
X20330000Y-4830000D02*
X20670000Y-5170000D01*
X20670000Y-4830000D02*
X20330000Y-5170000D01*
X20500000Y-5170000D02*
X20670000Y-5000000D01*
X20500000Y-4830000D01*
X20330000Y-5000000D01*
X20500000Y-5170000D01*
X20330000Y-11830000D02*
X20670000Y-12170000D01*
X20670000Y-11830000D02*
X20330000Y-12170000D01*
X20500000Y-12170000D02*
X20670000Y-12000000D01*
X20500000Y-11830000D01*
X20330000Y-12000000D01*
X20500000Y-12170000D01*
D13*
X6266428Y-14970714D02*
X6266428Y-14670714D01*
X6337857Y-14670714D01*
X6380714Y-14685000D01*
X6409286Y-14713571D01*
X6423571Y-14742143D01*
X6437857Y-14799286D01*
X6437857Y-14842143D01*
X6423571Y-14899286D01*
X6409286Y-14927857D01*
X6380714Y-14956429D01*
X6337857Y-14970714D01*
X6266428Y-14970714D01*
X6566428Y-14970714D02*
X6566428Y-14770714D01*
X6566428Y-14827857D02*
X6580714Y-14799286D01*
X6595000Y-14785000D01*
X6623571Y-14770714D01*
X6652143Y-14770714D01*
X6752143Y-14970714D02*
X6752143Y-14770714D01*
X6752143Y-14670714D02*
X6737857Y-14685000D01*
X6752143Y-14699286D01*
X6766428Y-14685000D01*
X6752143Y-14670714D01*
X6752143Y-14699286D01*
X6937857Y-14970714D02*
X6909286Y-14956429D01*
X6895000Y-14927857D01*
X6895000Y-14670714D01*
X7095000Y-14970714D02*
X7066428Y-14956429D01*
X7052143Y-14927857D01*
X7052143Y-14670714D01*
X7437857Y-14970714D02*
X7437857Y-14670714D01*
X7537857Y-14885000D01*
X7637857Y-14670714D01*
X7637857Y-14970714D01*
X7909286Y-14970714D02*
X7909286Y-14813571D01*
X7895000Y-14785000D01*
X7866428Y-14770714D01*
X7809286Y-14770714D01*
X7780714Y-14785000D01*
X7909286Y-14956429D02*
X7880714Y-14970714D01*
X7809286Y-14970714D01*
X7780714Y-14956429D01*
X7766428Y-14927857D01*
X7766428Y-14899286D01*
X7780714Y-14870714D01*
X7809286Y-14856429D01*
X7880714Y-14856429D01*
X7909286Y-14842143D01*
X8052143Y-14770714D02*
X8052143Y-15070714D01*
X8052143Y-14785000D02*
X8080714Y-14770714D01*
X8137857Y-14770714D01*
X8166428Y-14785000D01*
X8180714Y-14799286D01*
X8195000Y-14827857D01*
X8195000Y-14913571D01*
X8180714Y-14942143D01*
X8166428Y-14956429D01*
X8137857Y-14970714D01*
X8080714Y-14970714D01*
X8052143Y-14956429D01*
X8323571Y-14942143D02*
X8337857Y-14956429D01*
X8323571Y-14970714D01*
X8309286Y-14956429D01*
X8323571Y-14942143D01*
X8323571Y-14970714D01*
X8323571Y-14785000D02*
X8337857Y-14799286D01*
X8323571Y-14813571D01*
X8309286Y-14799286D01*
X8323571Y-14785000D01*
X8323571Y-14813571D01*
X5969600Y-15452300D02*
X5995000Y-15477700D01*
X5995000Y-15452300D02*
X5969600Y-15477700D01*
X6323571Y-15300714D02*
X6352143Y-15300714D01*
X6380714Y-15315000D01*
X6395000Y-15329286D01*
X6409286Y-15357857D01*
X6423571Y-15415000D01*
X6423571Y-15486429D01*
X6409286Y-15543571D01*
X6395000Y-15572143D01*
X6380714Y-15586429D01*
X6352143Y-15600714D01*
X6323571Y-15600714D01*
X6295000Y-15586429D01*
X6280714Y-15572143D01*
X6266428Y-15543571D01*
X6252143Y-15486429D01*
X6252143Y-15415000D01*
X6266428Y-15357857D01*
X6280714Y-15329286D01*
X6295000Y-15315000D01*
X6323571Y-15300714D01*
X6552143Y-15572143D02*
X6566428Y-15586429D01*
X6552143Y-15600714D01*
X6537857Y-15586429D01*
X6552143Y-15572143D01*
X6552143Y-15600714D01*
X6680714Y-15329286D02*
X6695000Y-15315000D01*
X6723571Y-15300714D01*
X6795000Y-15300714D01*
X6823571Y-15315000D01*
X6837857Y-15329286D01*
X6852143Y-15357857D01*
X6852143Y-15386429D01*
X6837857Y-15429286D01*
X6666428Y-15600714D01*
X6852143Y-15600714D01*
X7123571Y-15300714D02*
X6980714Y-15300714D01*
X6966428Y-15443571D01*
X6980714Y-15429286D01*
X7009286Y-15415000D01*
X7080714Y-15415000D01*
X7109286Y-15429286D01*
X7123571Y-15443571D01*
X7137857Y-15472143D01*
X7137857Y-15543571D01*
X7123571Y-15572143D01*
X7109286Y-15586429D01*
X7080714Y-15600714D01*
X7009286Y-15600714D01*
X6980714Y-15586429D01*
X6966428Y-15572143D01*
X7266428Y-15600714D02*
X7266428Y-15400714D01*
X7266428Y-15429286D02*
X7280714Y-15415000D01*
X7309286Y-15400714D01*
X7352143Y-15400714D01*
X7380714Y-15415000D01*
X7395000Y-15443571D01*
X7395000Y-15600714D01*
X7395000Y-15443571D02*
X7409286Y-15415000D01*
X7437857Y-15400714D01*
X7480714Y-15400714D01*
X7509286Y-15415000D01*
X7523571Y-15443571D01*
X7523571Y-15600714D01*
X7666428Y-15600714D02*
X7666428Y-15400714D01*
X7666428Y-15429286D02*
X7680714Y-15415000D01*
X7709286Y-15400714D01*
X7752143Y-15400714D01*
X7780714Y-15415000D01*
X7795000Y-15443571D01*
X7795000Y-15600714D01*
X7795000Y-15443571D02*
X7809286Y-15415000D01*
X7837857Y-15400714D01*
X7880714Y-15400714D01*
X7909286Y-15415000D01*
X7923571Y-15443571D01*
X7923571Y-15600714D01*
X8509286Y-15286429D02*
X8252143Y-15672143D01*
X8895000Y-15300714D02*
X8923571Y-15300714D01*
X8952143Y-15315000D01*
X8966428Y-15329286D01*
X8980714Y-15357857D01*
X8995000Y-15415000D01*
X8995000Y-15486429D01*
X8980714Y-15543571D01*
X8966428Y-15572143D01*
X8952143Y-15586429D01*
X8923571Y-15600714D01*
X8895000Y-15600714D01*
X8866428Y-15586429D01*
X8852143Y-15572143D01*
X8837857Y-15543571D01*
X8823571Y-15486429D01*
X8823571Y-15415000D01*
X8837857Y-15357857D01*
X8852143Y-15329286D01*
X8866428Y-15315000D01*
X8895000Y-15300714D01*
X9123571Y-15572143D02*
X9137857Y-15586429D01*
X9123571Y-15600714D01*
X9109286Y-15586429D01*
X9123571Y-15572143D01*
X9123571Y-15600714D01*
X9323571Y-15300714D02*
X9352143Y-15300714D01*
X9380714Y-15315000D01*
X9395000Y-15329286D01*
X9409286Y-15357857D01*
X9423571Y-15415000D01*
X9423571Y-15486429D01*
X9409286Y-15543571D01*
X9395000Y-15572143D01*
X9380714Y-15586429D01*
X9352143Y-15600714D01*
X9323571Y-15600714D01*
X9295000Y-15586429D01*
X9280714Y-15572143D01*
X9266428Y-15543571D01*
X9252143Y-15486429D01*
X9252143Y-15415000D01*
X9266428Y-15357857D01*
X9280714Y-15329286D01*
X9295000Y-15315000D01*
X9323571Y-15300714D01*
X9709286Y-15600714D02*
X9537857Y-15600714D01*
X9623571Y-15600714D02*
X9623571Y-15300714D01*
X9595000Y-15343571D01*
X9566428Y-15372143D01*
X9537857Y-15386429D01*
X9895000Y-15300714D02*
X9923571Y-15300714D01*
X9952143Y-15315000D01*
X9966428Y-15329286D01*
X9980714Y-15357857D01*
X9995000Y-15415000D01*
X9995000Y-15486429D01*
X9980714Y-15543571D01*
X9966428Y-15572143D01*
X9952143Y-15586429D01*
X9923571Y-15600714D01*
X9895000Y-15600714D01*
X9866428Y-15586429D01*
X9852143Y-15572143D01*
X9837857Y-15543571D01*
X9823571Y-15486429D01*
X9823571Y-15415000D01*
X9837857Y-15357857D01*
X9852143Y-15329286D01*
X9866428Y-15315000D01*
X9895000Y-15300714D01*
X10109286Y-15300714D02*
X10109286Y-15357857D01*
X10223571Y-15300714D02*
X10223571Y-15357857D01*
X10666428Y-15715000D02*
X10652143Y-15700714D01*
X10623571Y-15657857D01*
X10609286Y-15629286D01*
X10595000Y-15586429D01*
X10580714Y-15515000D01*
X10580714Y-15457857D01*
X10595000Y-15386429D01*
X10609286Y-15343571D01*
X10623571Y-15315000D01*
X10652143Y-15272143D01*
X10666428Y-15257857D01*
X10766428Y-15329286D02*
X10780714Y-15315000D01*
X10809286Y-15300714D01*
X10880714Y-15300714D01*
X10909286Y-15315000D01*
X10923571Y-15329286D01*
X10937857Y-15357857D01*
X10937857Y-15386429D01*
X10923571Y-15429286D01*
X10752143Y-15600714D01*
X10937857Y-15600714D01*
X11209285Y-15300714D02*
X11066428Y-15300714D01*
X11052143Y-15443571D01*
X11066428Y-15429286D01*
X11095000Y-15415000D01*
X11166428Y-15415000D01*
X11195000Y-15429286D01*
X11209285Y-15443571D01*
X11223571Y-15472143D01*
X11223571Y-15543571D01*
X11209285Y-15572143D01*
X11195000Y-15586429D01*
X11166428Y-15600714D01*
X11095000Y-15600714D01*
X11066428Y-15586429D01*
X11052143Y-15572143D01*
X11323571Y-15300714D02*
X11523571Y-15300714D01*
X11395000Y-15600714D01*
X11866428Y-15600714D02*
X11866428Y-15300714D01*
X11995000Y-15600714D02*
X11995000Y-15443571D01*
X11980714Y-15415000D01*
X11952143Y-15400714D01*
X11909285Y-15400714D01*
X11880714Y-15415000D01*
X11866428Y-15429286D01*
X12180714Y-15600714D02*
X12152143Y-15586429D01*
X12137857Y-15572143D01*
X12123571Y-15543571D01*
X12123571Y-15457857D01*
X12137857Y-15429286D01*
X12152143Y-15415000D01*
X12180714Y-15400714D01*
X12223571Y-15400714D01*
X12252143Y-15415000D01*
X12266428Y-15429286D01*
X12280714Y-15457857D01*
X12280714Y-15543571D01*
X12266428Y-15572143D01*
X12252143Y-15586429D01*
X12223571Y-15600714D01*
X12180714Y-15600714D01*
X12452143Y-15600714D02*
X12423571Y-15586429D01*
X12409286Y-15557857D01*
X12409286Y-15300714D01*
X12680714Y-15586429D02*
X12652143Y-15600714D01*
X12595000Y-15600714D01*
X12566428Y-15586429D01*
X12552143Y-15557857D01*
X12552143Y-15443571D01*
X12566428Y-15415000D01*
X12595000Y-15400714D01*
X12652143Y-15400714D01*
X12680714Y-15415000D01*
X12695000Y-15443571D01*
X12695000Y-15472143D01*
X12552143Y-15500714D01*
X12809286Y-15586429D02*
X12837857Y-15600714D01*
X12895000Y-15600714D01*
X12923571Y-15586429D01*
X12937857Y-15557857D01*
X12937857Y-15543571D01*
X12923571Y-15515000D01*
X12895000Y-15500714D01*
X12852143Y-15500714D01*
X12823571Y-15486429D01*
X12809286Y-15457857D01*
X12809286Y-15443571D01*
X12823571Y-15415000D01*
X12852143Y-15400714D01*
X12895000Y-15400714D01*
X12923571Y-15415000D01*
X13037857Y-15715000D02*
X13052143Y-15700714D01*
X13080714Y-15657857D01*
X13095000Y-15629286D01*
X13109286Y-15586429D01*
X13123571Y-15515000D01*
X13123571Y-15457857D01*
X13109286Y-15386429D01*
X13095000Y-15343571D01*
X13080714Y-15315000D01*
X13052143Y-15272143D01*
X13037857Y-15257857D01*
X5995000Y-15861000D02*
G75*
G03X5995000Y-15861000I-35000J0D01*
G01*
X6323571Y-15696714D02*
X6352143Y-15696714D01*
X6380714Y-15711000D01*
X6395000Y-15725286D01*
X6409286Y-15753857D01*
X6423571Y-15811000D01*
X6423571Y-15882429D01*
X6409286Y-15939571D01*
X6395000Y-15968143D01*
X6380714Y-15982429D01*
X6352143Y-15996714D01*
X6323571Y-15996714D01*
X6295000Y-15982429D01*
X6280714Y-15968143D01*
X6266428Y-15939571D01*
X6252143Y-15882429D01*
X6252143Y-15811000D01*
X6266428Y-15753857D01*
X6280714Y-15725286D01*
X6295000Y-15711000D01*
X6323571Y-15696714D01*
X6552143Y-15968143D02*
X6566428Y-15982429D01*
X6552143Y-15996714D01*
X6537857Y-15982429D01*
X6552143Y-15968143D01*
X6552143Y-15996714D01*
X6666428Y-15696714D02*
X6866428Y-15696714D01*
X6737857Y-15996714D01*
X7037857Y-15696714D02*
X7066428Y-15696714D01*
X7095000Y-15711000D01*
X7109286Y-15725286D01*
X7123571Y-15753857D01*
X7137857Y-15811000D01*
X7137857Y-15882429D01*
X7123571Y-15939571D01*
X7109286Y-15968143D01*
X7095000Y-15982429D01*
X7066428Y-15996714D01*
X7037857Y-15996714D01*
X7009286Y-15982429D01*
X6995000Y-15968143D01*
X6980714Y-15939571D01*
X6966428Y-15882429D01*
X6966428Y-15811000D01*
X6980714Y-15753857D01*
X6995000Y-15725286D01*
X7009286Y-15711000D01*
X7037857Y-15696714D01*
X7266428Y-15996714D02*
X7266428Y-15796714D01*
X7266428Y-15825286D02*
X7280714Y-15811000D01*
X7309286Y-15796714D01*
X7352143Y-15796714D01*
X7380714Y-15811000D01*
X7395000Y-15839571D01*
X7395000Y-15996714D01*
X7395000Y-15839571D02*
X7409286Y-15811000D01*
X7437857Y-15796714D01*
X7480714Y-15796714D01*
X7509286Y-15811000D01*
X7523571Y-15839571D01*
X7523571Y-15996714D01*
X7666428Y-15996714D02*
X7666428Y-15796714D01*
X7666428Y-15825286D02*
X7680714Y-15811000D01*
X7709286Y-15796714D01*
X7752143Y-15796714D01*
X7780714Y-15811000D01*
X7795000Y-15839571D01*
X7795000Y-15996714D01*
X7795000Y-15839571D02*
X7809286Y-15811000D01*
X7837857Y-15796714D01*
X7880714Y-15796714D01*
X7909286Y-15811000D01*
X7923571Y-15839571D01*
X7923571Y-15996714D01*
X8509286Y-15682429D02*
X8252143Y-16068143D01*
X8895000Y-15696714D02*
X8923571Y-15696714D01*
X8952143Y-15711000D01*
X8966428Y-15725286D01*
X8980714Y-15753857D01*
X8995000Y-15811000D01*
X8995000Y-15882429D01*
X8980714Y-15939571D01*
X8966428Y-15968143D01*
X8952143Y-15982429D01*
X8923571Y-15996714D01*
X8895000Y-15996714D01*
X8866428Y-15982429D01*
X8852143Y-15968143D01*
X8837857Y-15939571D01*
X8823571Y-15882429D01*
X8823571Y-15811000D01*
X8837857Y-15753857D01*
X8852143Y-15725286D01*
X8866428Y-15711000D01*
X8895000Y-15696714D01*
X9123571Y-15968143D02*
X9137857Y-15982429D01*
X9123571Y-15996714D01*
X9109286Y-15982429D01*
X9123571Y-15968143D01*
X9123571Y-15996714D01*
X9323571Y-15696714D02*
X9352143Y-15696714D01*
X9380714Y-15711000D01*
X9395000Y-15725286D01*
X9409286Y-15753857D01*
X9423571Y-15811000D01*
X9423571Y-15882429D01*
X9409286Y-15939571D01*
X9395000Y-15968143D01*
X9380714Y-15982429D01*
X9352143Y-15996714D01*
X9323571Y-15996714D01*
X9295000Y-15982429D01*
X9280714Y-15968143D01*
X9266428Y-15939571D01*
X9252143Y-15882429D01*
X9252143Y-15811000D01*
X9266428Y-15753857D01*
X9280714Y-15725286D01*
X9295000Y-15711000D01*
X9323571Y-15696714D01*
X9537857Y-15725286D02*
X9552143Y-15711000D01*
X9580714Y-15696714D01*
X9652143Y-15696714D01*
X9680714Y-15711000D01*
X9695000Y-15725286D01*
X9709286Y-15753857D01*
X9709286Y-15782429D01*
X9695000Y-15825286D01*
X9523571Y-15996714D01*
X9709286Y-15996714D01*
X9880714Y-15825286D02*
X9852143Y-15811000D01*
X9837857Y-15796714D01*
X9823571Y-15768143D01*
X9823571Y-15753857D01*
X9837857Y-15725286D01*
X9852143Y-15711000D01*
X9880714Y-15696714D01*
X9937857Y-15696714D01*
X9966428Y-15711000D01*
X9980714Y-15725286D01*
X9995000Y-15753857D01*
X9995000Y-15768143D01*
X9980714Y-15796714D01*
X9966428Y-15811000D01*
X9937857Y-15825286D01*
X9880714Y-15825286D01*
X9852143Y-15839571D01*
X9837857Y-15853857D01*
X9823571Y-15882429D01*
X9823571Y-15939571D01*
X9837857Y-15968143D01*
X9852143Y-15982429D01*
X9880714Y-15996714D01*
X9937857Y-15996714D01*
X9966428Y-15982429D01*
X9980714Y-15968143D01*
X9995000Y-15939571D01*
X9995000Y-15882429D01*
X9980714Y-15853857D01*
X9966428Y-15839571D01*
X9937857Y-15825286D01*
X10109286Y-15696714D02*
X10109286Y-15753857D01*
X10223571Y-15696714D02*
X10223571Y-15753857D01*
X10666428Y-16111000D02*
X10652143Y-16096714D01*
X10623571Y-16053857D01*
X10609286Y-16025286D01*
X10595000Y-15982429D01*
X10580714Y-15911000D01*
X10580714Y-15853857D01*
X10595000Y-15782429D01*
X10609286Y-15739571D01*
X10623571Y-15711000D01*
X10652143Y-15668143D01*
X10666428Y-15653857D01*
X10923571Y-15696714D02*
X10780714Y-15696714D01*
X10766428Y-15839571D01*
X10780714Y-15825286D01*
X10809286Y-15811000D01*
X10880714Y-15811000D01*
X10909286Y-15825286D01*
X10923571Y-15839571D01*
X10937857Y-15868143D01*
X10937857Y-15939571D01*
X10923571Y-15968143D01*
X10909286Y-15982429D01*
X10880714Y-15996714D01*
X10809286Y-15996714D01*
X10780714Y-15982429D01*
X10766428Y-15968143D01*
X11295000Y-15996714D02*
X11295000Y-15696714D01*
X11423571Y-15996714D02*
X11423571Y-15839571D01*
X11409285Y-15811000D01*
X11380714Y-15796714D01*
X11337857Y-15796714D01*
X11309285Y-15811000D01*
X11295000Y-15825286D01*
X11609285Y-15996714D02*
X11580714Y-15982429D01*
X11566428Y-15968143D01*
X11552143Y-15939571D01*
X11552143Y-15853857D01*
X11566428Y-15825286D01*
X11580714Y-15811000D01*
X11609285Y-15796714D01*
X11652143Y-15796714D01*
X11680714Y-15811000D01*
X11695000Y-15825286D01*
X11709285Y-15853857D01*
X11709285Y-15939571D01*
X11695000Y-15968143D01*
X11680714Y-15982429D01*
X11652143Y-15996714D01*
X11609285Y-15996714D01*
X11880714Y-15996714D02*
X11852143Y-15982429D01*
X11837857Y-15953857D01*
X11837857Y-15696714D01*
X12109286Y-15982429D02*
X12080714Y-15996714D01*
X12023571Y-15996714D01*
X11995000Y-15982429D01*
X11980714Y-15953857D01*
X11980714Y-15839571D01*
X11995000Y-15811000D01*
X12023571Y-15796714D01*
X12080714Y-15796714D01*
X12109286Y-15811000D01*
X12123571Y-15839571D01*
X12123571Y-15868143D01*
X11980714Y-15896714D01*
X12237857Y-15982429D02*
X12266428Y-15996714D01*
X12323571Y-15996714D01*
X12352143Y-15982429D01*
X12366428Y-15953857D01*
X12366428Y-15939571D01*
X12352143Y-15911000D01*
X12323571Y-15896714D01*
X12280714Y-15896714D01*
X12252143Y-15882429D01*
X12237857Y-15853857D01*
X12237857Y-15839571D01*
X12252143Y-15811000D01*
X12280714Y-15796714D01*
X12323571Y-15796714D01*
X12352143Y-15811000D01*
X12466428Y-16111000D02*
X12480714Y-16096714D01*
X12509286Y-16053857D01*
X12523571Y-16025286D01*
X12537857Y-15982429D01*
X12552143Y-15911000D01*
X12552143Y-15853857D01*
X12537857Y-15782429D01*
X12523571Y-15739571D01*
X12509286Y-15711000D01*
X12480714Y-15668143D01*
X12466428Y-15653857D01*
X5955000Y-16217000D02*
X5955000Y-16297000D01*
X5915000Y-16257000D02*
X5995000Y-16257000D01*
X6323571Y-16092714D02*
X6352143Y-16092714D01*
X6380714Y-16107000D01*
X6395000Y-16121286D01*
X6409286Y-16149857D01*
X6423571Y-16207000D01*
X6423571Y-16278429D01*
X6409286Y-16335571D01*
X6395000Y-16364143D01*
X6380714Y-16378429D01*
X6352143Y-16392714D01*
X6323571Y-16392714D01*
X6295000Y-16378429D01*
X6280714Y-16364143D01*
X6266428Y-16335571D01*
X6252143Y-16278429D01*
X6252143Y-16207000D01*
X6266428Y-16149857D01*
X6280714Y-16121286D01*
X6295000Y-16107000D01*
X6323571Y-16092714D01*
X6552143Y-16364143D02*
X6566428Y-16378429D01*
X6552143Y-16392714D01*
X6537857Y-16378429D01*
X6552143Y-16364143D01*
X6552143Y-16392714D01*
X6737857Y-16221286D02*
X6709286Y-16207000D01*
X6695000Y-16192714D01*
X6680714Y-16164143D01*
X6680714Y-16149857D01*
X6695000Y-16121286D01*
X6709286Y-16107000D01*
X6737857Y-16092714D01*
X6795000Y-16092714D01*
X6823571Y-16107000D01*
X6837857Y-16121286D01*
X6852143Y-16149857D01*
X6852143Y-16164143D01*
X6837857Y-16192714D01*
X6823571Y-16207000D01*
X6795000Y-16221286D01*
X6737857Y-16221286D01*
X6709286Y-16235571D01*
X6695000Y-16249857D01*
X6680714Y-16278429D01*
X6680714Y-16335571D01*
X6695000Y-16364143D01*
X6709286Y-16378429D01*
X6737857Y-16392714D01*
X6795000Y-16392714D01*
X6823571Y-16378429D01*
X6837857Y-16364143D01*
X6852143Y-16335571D01*
X6852143Y-16278429D01*
X6837857Y-16249857D01*
X6823571Y-16235571D01*
X6795000Y-16221286D01*
X7037857Y-16092714D02*
X7066428Y-16092714D01*
X7095000Y-16107000D01*
X7109286Y-16121286D01*
X7123571Y-16149857D01*
X7137857Y-16207000D01*
X7137857Y-16278429D01*
X7123571Y-16335571D01*
X7109286Y-16364143D01*
X7095000Y-16378429D01*
X7066428Y-16392714D01*
X7037857Y-16392714D01*
X7009286Y-16378429D01*
X6995000Y-16364143D01*
X6980714Y-16335571D01*
X6966428Y-16278429D01*
X6966428Y-16207000D01*
X6980714Y-16149857D01*
X6995000Y-16121286D01*
X7009286Y-16107000D01*
X7037857Y-16092714D01*
X7266428Y-16392714D02*
X7266428Y-16192714D01*
X7266428Y-16221286D02*
X7280714Y-16207000D01*
X7309286Y-16192714D01*
X7352143Y-16192714D01*
X7380714Y-16207000D01*
X7395000Y-16235571D01*
X7395000Y-16392714D01*
X7395000Y-16235571D02*
X7409286Y-16207000D01*
X7437857Y-16192714D01*
X7480714Y-16192714D01*
X7509286Y-16207000D01*
X7523571Y-16235571D01*
X7523571Y-16392714D01*
X7666428Y-16392714D02*
X7666428Y-16192714D01*
X7666428Y-16221286D02*
X7680714Y-16207000D01*
X7709286Y-16192714D01*
X7752143Y-16192714D01*
X7780714Y-16207000D01*
X7795000Y-16235571D01*
X7795000Y-16392714D01*
X7795000Y-16235571D02*
X7809286Y-16207000D01*
X7837857Y-16192714D01*
X7880714Y-16192714D01*
X7909286Y-16207000D01*
X7923571Y-16235571D01*
X7923571Y-16392714D01*
X8509286Y-16078429D02*
X8252143Y-16464143D01*
X8895000Y-16092714D02*
X8923571Y-16092714D01*
X8952143Y-16107000D01*
X8966428Y-16121286D01*
X8980714Y-16149857D01*
X8995000Y-16207000D01*
X8995000Y-16278429D01*
X8980714Y-16335571D01*
X8966428Y-16364143D01*
X8952143Y-16378429D01*
X8923571Y-16392714D01*
X8895000Y-16392714D01*
X8866428Y-16378429D01*
X8852143Y-16364143D01*
X8837857Y-16335571D01*
X8823571Y-16278429D01*
X8823571Y-16207000D01*
X8837857Y-16149857D01*
X8852143Y-16121286D01*
X8866428Y-16107000D01*
X8895000Y-16092714D01*
X9123571Y-16364143D02*
X9137857Y-16378429D01*
X9123571Y-16392714D01*
X9109286Y-16378429D01*
X9123571Y-16364143D01*
X9123571Y-16392714D01*
X9323571Y-16092714D02*
X9352143Y-16092714D01*
X9380714Y-16107000D01*
X9395000Y-16121286D01*
X9409286Y-16149857D01*
X9423571Y-16207000D01*
X9423571Y-16278429D01*
X9409286Y-16335571D01*
X9395000Y-16364143D01*
X9380714Y-16378429D01*
X9352143Y-16392714D01*
X9323571Y-16392714D01*
X9295000Y-16378429D01*
X9280714Y-16364143D01*
X9266428Y-16335571D01*
X9252143Y-16278429D01*
X9252143Y-16207000D01*
X9266428Y-16149857D01*
X9280714Y-16121286D01*
X9295000Y-16107000D01*
X9323571Y-16092714D01*
X9523571Y-16092714D02*
X9709286Y-16092714D01*
X9609286Y-16207000D01*
X9652143Y-16207000D01*
X9680714Y-16221286D01*
X9695000Y-16235571D01*
X9709286Y-16264143D01*
X9709286Y-16335571D01*
X9695000Y-16364143D01*
X9680714Y-16378429D01*
X9652143Y-16392714D01*
X9566428Y-16392714D01*
X9537857Y-16378429D01*
X9523571Y-16364143D01*
X9995000Y-16392714D02*
X9823571Y-16392714D01*
X9909286Y-16392714D02*
X9909286Y-16092714D01*
X9880714Y-16135571D01*
X9852143Y-16164143D01*
X9823571Y-16178429D01*
X10109286Y-16092714D02*
X10109286Y-16149857D01*
X10223571Y-16092714D02*
X10223571Y-16149857D01*
X10666428Y-16507000D02*
X10652143Y-16492714D01*
X10623571Y-16449857D01*
X10609286Y-16421286D01*
X10595000Y-16378429D01*
X10580714Y-16307000D01*
X10580714Y-16249857D01*
X10595000Y-16178429D01*
X10609286Y-16135571D01*
X10623571Y-16107000D01*
X10652143Y-16064143D01*
X10666428Y-16049857D01*
X10923571Y-16092714D02*
X10780714Y-16092714D01*
X10766428Y-16235571D01*
X10780714Y-16221286D01*
X10809286Y-16207000D01*
X10880714Y-16207000D01*
X10909286Y-16221286D01*
X10923571Y-16235571D01*
X10937857Y-16264143D01*
X10937857Y-16335571D01*
X10923571Y-16364143D01*
X10909286Y-16378429D01*
X10880714Y-16392714D01*
X10809286Y-16392714D01*
X10780714Y-16378429D01*
X10766428Y-16364143D01*
X11295000Y-16392714D02*
X11295000Y-16092714D01*
X11423571Y-16392714D02*
X11423571Y-16235571D01*
X11409285Y-16207000D01*
X11380714Y-16192714D01*
X11337857Y-16192714D01*
X11309285Y-16207000D01*
X11295000Y-16221286D01*
X11609285Y-16392714D02*
X11580714Y-16378429D01*
X11566428Y-16364143D01*
X11552143Y-16335571D01*
X11552143Y-16249857D01*
X11566428Y-16221286D01*
X11580714Y-16207000D01*
X11609285Y-16192714D01*
X11652143Y-16192714D01*
X11680714Y-16207000D01*
X11695000Y-16221286D01*
X11709285Y-16249857D01*
X11709285Y-16335571D01*
X11695000Y-16364143D01*
X11680714Y-16378429D01*
X11652143Y-16392714D01*
X11609285Y-16392714D01*
X11880714Y-16392714D02*
X11852143Y-16378429D01*
X11837857Y-16349857D01*
X11837857Y-16092714D01*
X12109286Y-16378429D02*
X12080714Y-16392714D01*
X12023571Y-16392714D01*
X11995000Y-16378429D01*
X11980714Y-16349857D01*
X11980714Y-16235571D01*
X11995000Y-16207000D01*
X12023571Y-16192714D01*
X12080714Y-16192714D01*
X12109286Y-16207000D01*
X12123571Y-16235571D01*
X12123571Y-16264143D01*
X11980714Y-16292714D01*
X12237857Y-16378429D02*
X12266428Y-16392714D01*
X12323571Y-16392714D01*
X12352143Y-16378429D01*
X12366428Y-16349857D01*
X12366428Y-16335571D01*
X12352143Y-16307000D01*
X12323571Y-16292714D01*
X12280714Y-16292714D01*
X12252143Y-16278429D01*
X12237857Y-16249857D01*
X12237857Y-16235571D01*
X12252143Y-16207000D01*
X12280714Y-16192714D01*
X12323571Y-16192714D01*
X12352143Y-16207000D01*
X12466428Y-16507000D02*
X12480714Y-16492714D01*
X12509286Y-16449857D01*
X12523571Y-16421286D01*
X12537857Y-16378429D01*
X12552143Y-16307000D01*
X12552143Y-16249857D01*
X12537857Y-16178429D01*
X12523571Y-16135571D01*
X12509286Y-16107000D01*
X12480714Y-16064143D01*
X12466428Y-16049857D01*
X5983138Y-16681638D02*
X5983138Y-16624362D01*
X5925862Y-16624362D01*
X5925862Y-16681638D01*
X5983138Y-16681638D01*
X6323571Y-16488714D02*
X6352143Y-16488714D01*
X6380714Y-16503000D01*
X6395000Y-16517286D01*
X6409286Y-16545857D01*
X6423571Y-16603000D01*
X6423571Y-16674429D01*
X6409286Y-16731571D01*
X6395000Y-16760143D01*
X6380714Y-16774429D01*
X6352143Y-16788714D01*
X6323571Y-16788714D01*
X6295000Y-16774429D01*
X6280714Y-16760143D01*
X6266428Y-16731571D01*
X6252143Y-16674429D01*
X6252143Y-16603000D01*
X6266428Y-16545857D01*
X6280714Y-16517286D01*
X6295000Y-16503000D01*
X6323571Y-16488714D01*
X6552143Y-16760143D02*
X6566428Y-16774429D01*
X6552143Y-16788714D01*
X6537857Y-16774429D01*
X6552143Y-16760143D01*
X6552143Y-16788714D01*
X6737857Y-16617286D02*
X6709286Y-16603000D01*
X6695000Y-16588714D01*
X6680714Y-16560143D01*
X6680714Y-16545857D01*
X6695000Y-16517286D01*
X6709286Y-16503000D01*
X6737857Y-16488714D01*
X6795000Y-16488714D01*
X6823571Y-16503000D01*
X6837857Y-16517286D01*
X6852143Y-16545857D01*
X6852143Y-16560143D01*
X6837857Y-16588714D01*
X6823571Y-16603000D01*
X6795000Y-16617286D01*
X6737857Y-16617286D01*
X6709286Y-16631571D01*
X6695000Y-16645857D01*
X6680714Y-16674429D01*
X6680714Y-16731571D01*
X6695000Y-16760143D01*
X6709286Y-16774429D01*
X6737857Y-16788714D01*
X6795000Y-16788714D01*
X6823571Y-16774429D01*
X6837857Y-16760143D01*
X6852143Y-16731571D01*
X6852143Y-16674429D01*
X6837857Y-16645857D01*
X6823571Y-16631571D01*
X6795000Y-16617286D01*
X7137857Y-16788714D02*
X6966428Y-16788714D01*
X7052143Y-16788714D02*
X7052143Y-16488714D01*
X7023571Y-16531571D01*
X6995000Y-16560143D01*
X6966428Y-16574429D01*
X7266428Y-16788714D02*
X7266428Y-16588714D01*
X7266428Y-16617286D02*
X7280714Y-16603000D01*
X7309286Y-16588714D01*
X7352143Y-16588714D01*
X7380714Y-16603000D01*
X7395000Y-16631571D01*
X7395000Y-16788714D01*
X7395000Y-16631571D02*
X7409286Y-16603000D01*
X7437857Y-16588714D01*
X7480714Y-16588714D01*
X7509286Y-16603000D01*
X7523571Y-16631571D01*
X7523571Y-16788714D01*
X7666428Y-16788714D02*
X7666428Y-16588714D01*
X7666428Y-16617286D02*
X7680714Y-16603000D01*
X7709286Y-16588714D01*
X7752143Y-16588714D01*
X7780714Y-16603000D01*
X7795000Y-16631571D01*
X7795000Y-16788714D01*
X7795000Y-16631571D02*
X7809286Y-16603000D01*
X7837857Y-16588714D01*
X7880714Y-16588714D01*
X7909286Y-16603000D01*
X7923571Y-16631571D01*
X7923571Y-16788714D01*
X8509286Y-16474429D02*
X8252143Y-16860143D01*
X8895000Y-16488714D02*
X8923571Y-16488714D01*
X8952143Y-16503000D01*
X8966428Y-16517286D01*
X8980714Y-16545857D01*
X8995000Y-16603000D01*
X8995000Y-16674429D01*
X8980714Y-16731571D01*
X8966428Y-16760143D01*
X8952143Y-16774429D01*
X8923571Y-16788714D01*
X8895000Y-16788714D01*
X8866428Y-16774429D01*
X8852143Y-16760143D01*
X8837857Y-16731571D01*
X8823571Y-16674429D01*
X8823571Y-16603000D01*
X8837857Y-16545857D01*
X8852143Y-16517286D01*
X8866428Y-16503000D01*
X8895000Y-16488714D01*
X9123571Y-16760143D02*
X9137857Y-16774429D01*
X9123571Y-16788714D01*
X9109286Y-16774429D01*
X9123571Y-16760143D01*
X9123571Y-16788714D01*
X9323571Y-16488714D02*
X9352143Y-16488714D01*
X9380714Y-16503000D01*
X9395000Y-16517286D01*
X9409286Y-16545857D01*
X9423571Y-16603000D01*
X9423571Y-16674429D01*
X9409286Y-16731571D01*
X9395000Y-16760143D01*
X9380714Y-16774429D01*
X9352143Y-16788714D01*
X9323571Y-16788714D01*
X9295000Y-16774429D01*
X9280714Y-16760143D01*
X9266428Y-16731571D01*
X9252143Y-16674429D01*
X9252143Y-16603000D01*
X9266428Y-16545857D01*
X9280714Y-16517286D01*
X9295000Y-16503000D01*
X9323571Y-16488714D01*
X9523571Y-16488714D02*
X9709286Y-16488714D01*
X9609286Y-16603000D01*
X9652143Y-16603000D01*
X9680714Y-16617286D01*
X9695000Y-16631571D01*
X9709286Y-16660143D01*
X9709286Y-16731571D01*
X9695000Y-16760143D01*
X9680714Y-16774429D01*
X9652143Y-16788714D01*
X9566428Y-16788714D01*
X9537857Y-16774429D01*
X9523571Y-16760143D01*
X9823571Y-16517286D02*
X9837857Y-16503000D01*
X9866428Y-16488714D01*
X9937857Y-16488714D01*
X9966428Y-16503000D01*
X9980714Y-16517286D01*
X9995000Y-16545857D01*
X9995000Y-16574429D01*
X9980714Y-16617286D01*
X9809286Y-16788714D01*
X9995000Y-16788714D01*
X10109286Y-16488714D02*
X10109286Y-16545857D01*
X10223571Y-16488714D02*
X10223571Y-16545857D01*
X10666428Y-16903000D02*
X10652143Y-16888714D01*
X10623571Y-16845857D01*
X10609286Y-16817286D01*
X10595000Y-16774429D01*
X10580714Y-16703000D01*
X10580714Y-16645857D01*
X10595000Y-16574429D01*
X10609286Y-16531571D01*
X10623571Y-16503000D01*
X10652143Y-16460143D01*
X10666428Y-16445857D01*
X10909286Y-16588714D02*
X10909286Y-16788714D01*
X10837857Y-16474429D02*
X10766428Y-16688714D01*
X10952143Y-16688714D01*
X11295000Y-16788714D02*
X11295000Y-16488714D01*
X11423571Y-16788714D02*
X11423571Y-16631571D01*
X11409285Y-16603000D01*
X11380714Y-16588714D01*
X11337857Y-16588714D01*
X11309285Y-16603000D01*
X11295000Y-16617286D01*
X11609285Y-16788714D02*
X11580714Y-16774429D01*
X11566428Y-16760143D01*
X11552143Y-16731571D01*
X11552143Y-16645857D01*
X11566428Y-16617286D01*
X11580714Y-16603000D01*
X11609285Y-16588714D01*
X11652143Y-16588714D01*
X11680714Y-16603000D01*
X11695000Y-16617286D01*
X11709285Y-16645857D01*
X11709285Y-16731571D01*
X11695000Y-16760143D01*
X11680714Y-16774429D01*
X11652143Y-16788714D01*
X11609285Y-16788714D01*
X11880714Y-16788714D02*
X11852143Y-16774429D01*
X11837857Y-16745857D01*
X11837857Y-16488714D01*
X12109286Y-16774429D02*
X12080714Y-16788714D01*
X12023571Y-16788714D01*
X11995000Y-16774429D01*
X11980714Y-16745857D01*
X11980714Y-16631571D01*
X11995000Y-16603000D01*
X12023571Y-16588714D01*
X12080714Y-16588714D01*
X12109286Y-16603000D01*
X12123571Y-16631571D01*
X12123571Y-16660143D01*
X11980714Y-16688714D01*
X12237857Y-16774429D02*
X12266428Y-16788714D01*
X12323571Y-16788714D01*
X12352143Y-16774429D01*
X12366428Y-16745857D01*
X12366428Y-16731571D01*
X12352143Y-16703000D01*
X12323571Y-16688714D01*
X12280714Y-16688714D01*
X12252143Y-16674429D01*
X12237857Y-16645857D01*
X12237857Y-16631571D01*
X12252143Y-16603000D01*
X12280714Y-16588714D01*
X12323571Y-16588714D01*
X12352143Y-16603000D01*
X12466428Y-16903000D02*
X12480714Y-16888714D01*
X12509286Y-16845857D01*
X12523571Y-16817286D01*
X12537857Y-16774429D01*
X12552143Y-16703000D01*
X12552143Y-16645857D01*
X12537857Y-16574429D01*
X12523571Y-16531571D01*
X12509286Y-16503000D01*
X12480714Y-16460143D01*
X12466428Y-16445857D01*
X5950000Y-17094000D02*
X5995000Y-17049000D01*
X5950000Y-17004000D01*
X5905000Y-17049000D01*
X5950000Y-17094000D01*
X6323571Y-16884714D02*
X6352143Y-16884714D01*
X6380714Y-16899000D01*
X6395000Y-16913286D01*
X6409286Y-16941857D01*
X6423571Y-16999000D01*
X6423571Y-17070429D01*
X6409286Y-17127572D01*
X6395000Y-17156143D01*
X6380714Y-17170429D01*
X6352143Y-17184714D01*
X6323571Y-17184714D01*
X6295000Y-17170429D01*
X6280714Y-17156143D01*
X6266428Y-17127572D01*
X6252143Y-17070429D01*
X6252143Y-16999000D01*
X6266428Y-16941857D01*
X6280714Y-16913286D01*
X6295000Y-16899000D01*
X6323571Y-16884714D01*
X6552143Y-17156143D02*
X6566428Y-17170429D01*
X6552143Y-17184714D01*
X6537857Y-17170429D01*
X6552143Y-17156143D01*
X6552143Y-17184714D01*
X6709286Y-17184714D02*
X6766428Y-17184714D01*
X6795000Y-17170429D01*
X6809286Y-17156143D01*
X6837857Y-17113286D01*
X6852143Y-17056143D01*
X6852143Y-16941857D01*
X6837857Y-16913286D01*
X6823571Y-16899000D01*
X6795000Y-16884714D01*
X6737857Y-16884714D01*
X6709286Y-16899000D01*
X6695000Y-16913286D01*
X6680714Y-16941857D01*
X6680714Y-17013286D01*
X6695000Y-17041857D01*
X6709286Y-17056143D01*
X6737857Y-17070429D01*
X6795000Y-17070429D01*
X6823571Y-17056143D01*
X6837857Y-17041857D01*
X6852143Y-17013286D01*
X7037857Y-16884714D02*
X7066428Y-16884714D01*
X7095000Y-16899000D01*
X7109286Y-16913286D01*
X7123571Y-16941857D01*
X7137857Y-16999000D01*
X7137857Y-17070429D01*
X7123571Y-17127572D01*
X7109286Y-17156143D01*
X7095000Y-17170429D01*
X7066428Y-17184714D01*
X7037857Y-17184714D01*
X7009286Y-17170429D01*
X6995000Y-17156143D01*
X6980714Y-17127572D01*
X6966428Y-17070429D01*
X6966428Y-16999000D01*
X6980714Y-16941857D01*
X6995000Y-16913286D01*
X7009286Y-16899000D01*
X7037857Y-16884714D01*
X7266428Y-17184714D02*
X7266428Y-16984714D01*
X7266428Y-17013286D02*
X7280714Y-16999000D01*
X7309286Y-16984714D01*
X7352143Y-16984714D01*
X7380714Y-16999000D01*
X7395000Y-17027572D01*
X7395000Y-17184714D01*
X7395000Y-17027572D02*
X7409286Y-16999000D01*
X7437857Y-16984714D01*
X7480714Y-16984714D01*
X7509286Y-16999000D01*
X7523571Y-17027572D01*
X7523571Y-17184714D01*
X7666428Y-17184714D02*
X7666428Y-16984714D01*
X7666428Y-17013286D02*
X7680714Y-16999000D01*
X7709286Y-16984714D01*
X7752143Y-16984714D01*
X7780714Y-16999000D01*
X7795000Y-17027572D01*
X7795000Y-17184714D01*
X7795000Y-17027572D02*
X7809286Y-16999000D01*
X7837857Y-16984714D01*
X7880714Y-16984714D01*
X7909286Y-16999000D01*
X7923571Y-17027572D01*
X7923571Y-17184714D01*
X8509286Y-16870429D02*
X8252143Y-17256143D01*
X8895000Y-16884714D02*
X8923571Y-16884714D01*
X8952143Y-16899000D01*
X8966428Y-16913286D01*
X8980714Y-16941857D01*
X8995000Y-16999000D01*
X8995000Y-17070429D01*
X8980714Y-17127572D01*
X8966428Y-17156143D01*
X8952143Y-17170429D01*
X8923571Y-17184714D01*
X8895000Y-17184714D01*
X8866428Y-17170429D01*
X8852143Y-17156143D01*
X8837857Y-17127572D01*
X8823571Y-17070429D01*
X8823571Y-16999000D01*
X8837857Y-16941857D01*
X8852143Y-16913286D01*
X8866428Y-16899000D01*
X8895000Y-16884714D01*
X9123571Y-17156143D02*
X9137857Y-17170429D01*
X9123571Y-17184714D01*
X9109286Y-17170429D01*
X9123571Y-17156143D01*
X9123571Y-17184714D01*
X9323571Y-16884714D02*
X9352143Y-16884714D01*
X9380714Y-16899000D01*
X9395000Y-16913286D01*
X9409286Y-16941857D01*
X9423571Y-16999000D01*
X9423571Y-17070429D01*
X9409286Y-17127572D01*
X9395000Y-17156143D01*
X9380714Y-17170429D01*
X9352143Y-17184714D01*
X9323571Y-17184714D01*
X9295000Y-17170429D01*
X9280714Y-17156143D01*
X9266428Y-17127572D01*
X9252143Y-17070429D01*
X9252143Y-16999000D01*
X9266428Y-16941857D01*
X9280714Y-16913286D01*
X9295000Y-16899000D01*
X9323571Y-16884714D01*
X9523571Y-16884714D02*
X9709286Y-16884714D01*
X9609286Y-16999000D01*
X9652143Y-16999000D01*
X9680714Y-17013286D01*
X9695000Y-17027572D01*
X9709286Y-17056143D01*
X9709286Y-17127572D01*
X9695000Y-17156143D01*
X9680714Y-17170429D01*
X9652143Y-17184714D01*
X9566428Y-17184714D01*
X9537857Y-17170429D01*
X9523571Y-17156143D01*
X9980714Y-16884714D02*
X9837857Y-16884714D01*
X9823571Y-17027572D01*
X9837857Y-17013286D01*
X9866428Y-16999000D01*
X9937857Y-16999000D01*
X9966428Y-17013286D01*
X9980714Y-17027572D01*
X9995000Y-17056143D01*
X9995000Y-17127572D01*
X9980714Y-17156143D01*
X9966428Y-17170429D01*
X9937857Y-17184714D01*
X9866428Y-17184714D01*
X9837857Y-17170429D01*
X9823571Y-17156143D01*
X10109286Y-16884714D02*
X10109286Y-16941857D01*
X10223571Y-16884714D02*
X10223571Y-16941857D01*
X10666428Y-17299000D02*
X10652143Y-17284714D01*
X10623571Y-17241857D01*
X10609286Y-17213286D01*
X10595000Y-17170429D01*
X10580714Y-17099000D01*
X10580714Y-17041857D01*
X10595000Y-16970429D01*
X10609286Y-16927572D01*
X10623571Y-16899000D01*
X10652143Y-16856143D01*
X10666428Y-16841857D01*
X10937857Y-17184714D02*
X10766428Y-17184714D01*
X10852143Y-17184714D02*
X10852143Y-16884714D01*
X10823571Y-16927572D01*
X10795000Y-16956143D01*
X10766428Y-16970429D01*
X11123571Y-16884714D02*
X11152143Y-16884714D01*
X11180714Y-16899000D01*
X11195000Y-16913286D01*
X11209285Y-16941857D01*
X11223571Y-16999000D01*
X11223571Y-17070429D01*
X11209285Y-17127572D01*
X11195000Y-17156143D01*
X11180714Y-17170429D01*
X11152143Y-17184714D01*
X11123571Y-17184714D01*
X11095000Y-17170429D01*
X11080714Y-17156143D01*
X11066428Y-17127572D01*
X11052143Y-17070429D01*
X11052143Y-16999000D01*
X11066428Y-16941857D01*
X11080714Y-16913286D01*
X11095000Y-16899000D01*
X11123571Y-16884714D01*
X11580714Y-17184714D02*
X11580714Y-16884714D01*
X11709285Y-17184714D02*
X11709285Y-17027572D01*
X11695000Y-16999000D01*
X11666428Y-16984714D01*
X11623571Y-16984714D01*
X11595000Y-16999000D01*
X11580714Y-17013286D01*
X11895000Y-17184714D02*
X11866428Y-17170429D01*
X11852143Y-17156143D01*
X11837857Y-17127572D01*
X11837857Y-17041857D01*
X11852143Y-17013286D01*
X11866428Y-16999000D01*
X11895000Y-16984714D01*
X11937857Y-16984714D01*
X11966428Y-16999000D01*
X11980714Y-17013286D01*
X11995000Y-17041857D01*
X11995000Y-17127572D01*
X11980714Y-17156143D01*
X11966428Y-17170429D01*
X11937857Y-17184714D01*
X11895000Y-17184714D01*
X12166428Y-17184714D02*
X12137857Y-17170429D01*
X12123571Y-17141857D01*
X12123571Y-16884714D01*
X12395000Y-17170429D02*
X12366428Y-17184714D01*
X12309286Y-17184714D01*
X12280714Y-17170429D01*
X12266428Y-17141857D01*
X12266428Y-17027572D01*
X12280714Y-16999000D01*
X12309286Y-16984714D01*
X12366428Y-16984714D01*
X12395000Y-16999000D01*
X12409286Y-17027572D01*
X12409286Y-17056143D01*
X12266428Y-17084714D01*
X12523571Y-17170429D02*
X12552143Y-17184714D01*
X12609286Y-17184714D01*
X12637857Y-17170429D01*
X12652143Y-17141857D01*
X12652143Y-17127572D01*
X12637857Y-17099000D01*
X12609286Y-17084714D01*
X12566428Y-17084714D01*
X12537857Y-17070429D01*
X12523571Y-17041857D01*
X12523571Y-17027572D01*
X12537857Y-16999000D01*
X12566428Y-16984714D01*
X12609286Y-16984714D01*
X12637857Y-16999000D01*
X12752143Y-17299000D02*
X12766428Y-17284714D01*
X12795000Y-17241857D01*
X12809286Y-17213286D01*
X12823571Y-17170429D01*
X12837857Y-17099000D01*
X12837857Y-17041857D01*
X12823571Y-16970429D01*
X12809286Y-16927572D01*
X12795000Y-16899000D01*
X12766428Y-16856143D01*
X12752143Y-16841857D01*
X5895000Y-17395000D02*
X5995000Y-17495000D01*
X5995000Y-17395000D02*
X5895000Y-17495000D01*
X5995000Y-17445000D02*
G75*
G03X5995000Y-17445000I-50000J0D01*
G01*
X6423571Y-17580714D02*
X6252143Y-17580714D01*
X6337857Y-17580714D02*
X6337857Y-17280714D01*
X6309286Y-17323572D01*
X6280714Y-17352143D01*
X6252143Y-17366429D01*
X6552143Y-17552143D02*
X6566428Y-17566429D01*
X6552143Y-17580714D01*
X6537857Y-17566429D01*
X6552143Y-17552143D01*
X6552143Y-17580714D01*
X6752143Y-17280714D02*
X6780714Y-17280714D01*
X6809286Y-17295000D01*
X6823571Y-17309286D01*
X6837857Y-17337857D01*
X6852143Y-17395000D01*
X6852143Y-17466429D01*
X6837857Y-17523572D01*
X6823571Y-17552143D01*
X6809286Y-17566429D01*
X6780714Y-17580714D01*
X6752143Y-17580714D01*
X6723571Y-17566429D01*
X6709286Y-17552143D01*
X6695000Y-17523572D01*
X6680714Y-17466429D01*
X6680714Y-17395000D01*
X6695000Y-17337857D01*
X6709286Y-17309286D01*
X6723571Y-17295000D01*
X6752143Y-17280714D01*
X7037857Y-17280714D02*
X7066428Y-17280714D01*
X7095000Y-17295000D01*
X7109286Y-17309286D01*
X7123571Y-17337857D01*
X7137857Y-17395000D01*
X7137857Y-17466429D01*
X7123571Y-17523572D01*
X7109286Y-17552143D01*
X7095000Y-17566429D01*
X7066428Y-17580714D01*
X7037857Y-17580714D01*
X7009286Y-17566429D01*
X6995000Y-17552143D01*
X6980714Y-17523572D01*
X6966428Y-17466429D01*
X6966428Y-17395000D01*
X6980714Y-17337857D01*
X6995000Y-17309286D01*
X7009286Y-17295000D01*
X7037857Y-17280714D01*
X7266428Y-17580714D02*
X7266428Y-17380714D01*
X7266428Y-17409286D02*
X7280714Y-17395000D01*
X7309286Y-17380714D01*
X7352143Y-17380714D01*
X7380714Y-17395000D01*
X7395000Y-17423572D01*
X7395000Y-17580714D01*
X7395000Y-17423572D02*
X7409286Y-17395000D01*
X7437857Y-17380714D01*
X7480714Y-17380714D01*
X7509286Y-17395000D01*
X7523571Y-17423572D01*
X7523571Y-17580714D01*
X7666428Y-17580714D02*
X7666428Y-17380714D01*
X7666428Y-17409286D02*
X7680714Y-17395000D01*
X7709286Y-17380714D01*
X7752143Y-17380714D01*
X7780714Y-17395000D01*
X7795000Y-17423572D01*
X7795000Y-17580714D01*
X7795000Y-17423572D02*
X7809286Y-17395000D01*
X7837857Y-17380714D01*
X7880714Y-17380714D01*
X7909286Y-17395000D01*
X7923571Y-17423572D01*
X7923571Y-17580714D01*
X8509286Y-17266429D02*
X8252143Y-17652143D01*
X8895000Y-17280714D02*
X8923571Y-17280714D01*
X8952143Y-17295000D01*
X8966428Y-17309286D01*
X8980714Y-17337857D01*
X8995000Y-17395000D01*
X8995000Y-17466429D01*
X8980714Y-17523572D01*
X8966428Y-17552143D01*
X8952143Y-17566429D01*
X8923571Y-17580714D01*
X8895000Y-17580714D01*
X8866428Y-17566429D01*
X8852143Y-17552143D01*
X8837857Y-17523572D01*
X8823571Y-17466429D01*
X8823571Y-17395000D01*
X8837857Y-17337857D01*
X8852143Y-17309286D01*
X8866428Y-17295000D01*
X8895000Y-17280714D01*
X9123571Y-17552143D02*
X9137857Y-17566429D01*
X9123571Y-17580714D01*
X9109286Y-17566429D01*
X9123571Y-17552143D01*
X9123571Y-17580714D01*
X9323571Y-17280714D02*
X9352143Y-17280714D01*
X9380714Y-17295000D01*
X9395000Y-17309286D01*
X9409286Y-17337857D01*
X9423571Y-17395000D01*
X9423571Y-17466429D01*
X9409286Y-17523572D01*
X9395000Y-17552143D01*
X9380714Y-17566429D01*
X9352143Y-17580714D01*
X9323571Y-17580714D01*
X9295000Y-17566429D01*
X9280714Y-17552143D01*
X9266428Y-17523572D01*
X9252143Y-17466429D01*
X9252143Y-17395000D01*
X9266428Y-17337857D01*
X9280714Y-17309286D01*
X9295000Y-17295000D01*
X9323571Y-17280714D01*
X9523571Y-17280714D02*
X9709286Y-17280714D01*
X9609286Y-17395000D01*
X9652143Y-17395000D01*
X9680714Y-17409286D01*
X9695000Y-17423572D01*
X9709286Y-17452143D01*
X9709286Y-17523572D01*
X9695000Y-17552143D01*
X9680714Y-17566429D01*
X9652143Y-17580714D01*
X9566428Y-17580714D01*
X9537857Y-17566429D01*
X9523571Y-17552143D01*
X9852143Y-17580714D02*
X9909286Y-17580714D01*
X9937857Y-17566429D01*
X9952143Y-17552143D01*
X9980714Y-17509286D01*
X9995000Y-17452143D01*
X9995000Y-17337857D01*
X9980714Y-17309286D01*
X9966428Y-17295000D01*
X9937857Y-17280714D01*
X9880714Y-17280714D01*
X9852143Y-17295000D01*
X9837857Y-17309286D01*
X9823571Y-17337857D01*
X9823571Y-17409286D01*
X9837857Y-17437857D01*
X9852143Y-17452143D01*
X9880714Y-17466429D01*
X9937857Y-17466429D01*
X9966428Y-17452143D01*
X9980714Y-17437857D01*
X9995000Y-17409286D01*
X10109286Y-17280714D02*
X10109286Y-17337857D01*
X10223571Y-17280714D02*
X10223571Y-17337857D01*
X10666428Y-17695000D02*
X10652143Y-17680714D01*
X10623571Y-17637857D01*
X10609286Y-17609286D01*
X10595000Y-17566429D01*
X10580714Y-17495000D01*
X10580714Y-17437857D01*
X10595000Y-17366429D01*
X10609286Y-17323572D01*
X10623571Y-17295000D01*
X10652143Y-17252143D01*
X10666428Y-17237857D01*
X10823571Y-17409286D02*
X10795000Y-17395000D01*
X10780714Y-17380714D01*
X10766428Y-17352143D01*
X10766428Y-17337857D01*
X10780714Y-17309286D01*
X10795000Y-17295000D01*
X10823571Y-17280714D01*
X10880714Y-17280714D01*
X10909286Y-17295000D01*
X10923571Y-17309286D01*
X10937857Y-17337857D01*
X10937857Y-17352143D01*
X10923571Y-17380714D01*
X10909286Y-17395000D01*
X10880714Y-17409286D01*
X10823571Y-17409286D01*
X10795000Y-17423572D01*
X10780714Y-17437857D01*
X10766428Y-17466429D01*
X10766428Y-17523572D01*
X10780714Y-17552143D01*
X10795000Y-17566429D01*
X10823571Y-17580714D01*
X10880714Y-17580714D01*
X10909286Y-17566429D01*
X10923571Y-17552143D01*
X10937857Y-17523572D01*
X10937857Y-17466429D01*
X10923571Y-17437857D01*
X10909286Y-17423572D01*
X10880714Y-17409286D01*
X11080714Y-17580714D02*
X11137857Y-17580714D01*
X11166428Y-17566429D01*
X11180714Y-17552143D01*
X11209285Y-17509286D01*
X11223571Y-17452143D01*
X11223571Y-17337857D01*
X11209285Y-17309286D01*
X11195000Y-17295000D01*
X11166428Y-17280714D01*
X11109286Y-17280714D01*
X11080714Y-17295000D01*
X11066428Y-17309286D01*
X11052143Y-17337857D01*
X11052143Y-17409286D01*
X11066428Y-17437857D01*
X11080714Y-17452143D01*
X11109286Y-17466429D01*
X11166428Y-17466429D01*
X11195000Y-17452143D01*
X11209285Y-17437857D01*
X11223571Y-17409286D01*
X11580714Y-17580714D02*
X11580714Y-17280714D01*
X11709285Y-17580714D02*
X11709285Y-17423572D01*
X11695000Y-17395000D01*
X11666428Y-17380714D01*
X11623571Y-17380714D01*
X11595000Y-17395000D01*
X11580714Y-17409286D01*
X11895000Y-17580714D02*
X11866428Y-17566429D01*
X11852143Y-17552143D01*
X11837857Y-17523572D01*
X11837857Y-17437857D01*
X11852143Y-17409286D01*
X11866428Y-17395000D01*
X11895000Y-17380714D01*
X11937857Y-17380714D01*
X11966428Y-17395000D01*
X11980714Y-17409286D01*
X11995000Y-17437857D01*
X11995000Y-17523572D01*
X11980714Y-17552143D01*
X11966428Y-17566429D01*
X11937857Y-17580714D01*
X11895000Y-17580714D01*
X12166428Y-17580714D02*
X12137857Y-17566429D01*
X12123571Y-17537857D01*
X12123571Y-17280714D01*
X12395000Y-17566429D02*
X12366428Y-17580714D01*
X12309286Y-17580714D01*
X12280714Y-17566429D01*
X12266428Y-17537857D01*
X12266428Y-17423572D01*
X12280714Y-17395000D01*
X12309286Y-17380714D01*
X12366428Y-17380714D01*
X12395000Y-17395000D01*
X12409286Y-17423572D01*
X12409286Y-17452143D01*
X12266428Y-17480714D01*
X12523571Y-17566429D02*
X12552143Y-17580714D01*
X12609286Y-17580714D01*
X12637857Y-17566429D01*
X12652143Y-17537857D01*
X12652143Y-17523572D01*
X12637857Y-17495000D01*
X12609286Y-17480714D01*
X12566428Y-17480714D01*
X12537857Y-17466429D01*
X12523571Y-17437857D01*
X12523571Y-17423572D01*
X12537857Y-17395000D01*
X12566428Y-17380714D01*
X12609286Y-17380714D01*
X12637857Y-17395000D01*
X12752143Y-17695000D02*
X12766428Y-17680714D01*
X12795000Y-17637857D01*
X12809286Y-17609286D01*
X12823571Y-17566429D01*
X12837857Y-17495000D01*
X12837857Y-17437857D01*
X12823571Y-17366429D01*
X12809286Y-17323572D01*
X12795000Y-17295000D01*
X12766428Y-17252143D01*
X12752143Y-17237857D01*
X5885000Y-17786000D02*
X5995000Y-17896000D01*
X5995000Y-17786000D02*
X5885000Y-17896000D01*
X5940000Y-17786000D02*
X5940000Y-17896000D01*
X5885000Y-17841000D02*
X5995000Y-17841000D01*
X6423571Y-17976714D02*
X6252143Y-17976714D01*
X6337857Y-17976714D02*
X6337857Y-17676714D01*
X6309286Y-17719572D01*
X6280714Y-17748143D01*
X6252143Y-17762429D01*
X6552143Y-17948143D02*
X6566428Y-17962429D01*
X6552143Y-17976714D01*
X6537857Y-17962429D01*
X6552143Y-17948143D01*
X6552143Y-17976714D01*
X6852143Y-17976714D02*
X6680714Y-17976714D01*
X6766428Y-17976714D02*
X6766428Y-17676714D01*
X6737857Y-17719572D01*
X6709286Y-17748143D01*
X6680714Y-17762429D01*
X7037857Y-17676714D02*
X7066428Y-17676714D01*
X7095000Y-17691000D01*
X7109286Y-17705286D01*
X7123571Y-17733857D01*
X7137857Y-17791000D01*
X7137857Y-17862429D01*
X7123571Y-17919572D01*
X7109286Y-17948143D01*
X7095000Y-17962429D01*
X7066428Y-17976714D01*
X7037857Y-17976714D01*
X7009286Y-17962429D01*
X6995000Y-17948143D01*
X6980714Y-17919572D01*
X6966428Y-17862429D01*
X6966428Y-17791000D01*
X6980714Y-17733857D01*
X6995000Y-17705286D01*
X7009286Y-17691000D01*
X7037857Y-17676714D01*
X7266428Y-17976714D02*
X7266428Y-17776714D01*
X7266428Y-17805286D02*
X7280714Y-17791000D01*
X7309286Y-17776714D01*
X7352143Y-17776714D01*
X7380714Y-17791000D01*
X7395000Y-17819572D01*
X7395000Y-17976714D01*
X7395000Y-17819572D02*
X7409286Y-17791000D01*
X7437857Y-17776714D01*
X7480714Y-17776714D01*
X7509286Y-17791000D01*
X7523571Y-17819572D01*
X7523571Y-17976714D01*
X7666428Y-17976714D02*
X7666428Y-17776714D01*
X7666428Y-17805286D02*
X7680714Y-17791000D01*
X7709286Y-17776714D01*
X7752143Y-17776714D01*
X7780714Y-17791000D01*
X7795000Y-17819572D01*
X7795000Y-17976714D01*
X7795000Y-17819572D02*
X7809286Y-17791000D01*
X7837857Y-17776714D01*
X7880714Y-17776714D01*
X7909286Y-17791000D01*
X7923571Y-17819572D01*
X7923571Y-17976714D01*
X8509286Y-17662429D02*
X8252143Y-18048143D01*
X8895000Y-17676714D02*
X8923571Y-17676714D01*
X8952143Y-17691000D01*
X8966428Y-17705286D01*
X8980714Y-17733857D01*
X8995000Y-17791000D01*
X8995000Y-17862429D01*
X8980714Y-17919572D01*
X8966428Y-17948143D01*
X8952143Y-17962429D01*
X8923571Y-17976714D01*
X8895000Y-17976714D01*
X8866428Y-17962429D01*
X8852143Y-17948143D01*
X8837857Y-17919572D01*
X8823571Y-17862429D01*
X8823571Y-17791000D01*
X8837857Y-17733857D01*
X8852143Y-17705286D01*
X8866428Y-17691000D01*
X8895000Y-17676714D01*
X9123571Y-17948143D02*
X9137857Y-17962429D01*
X9123571Y-17976714D01*
X9109286Y-17962429D01*
X9123571Y-17948143D01*
X9123571Y-17976714D01*
X9323571Y-17676714D02*
X9352143Y-17676714D01*
X9380714Y-17691000D01*
X9395000Y-17705286D01*
X9409286Y-17733857D01*
X9423571Y-17791000D01*
X9423571Y-17862429D01*
X9409286Y-17919572D01*
X9395000Y-17948143D01*
X9380714Y-17962429D01*
X9352143Y-17976714D01*
X9323571Y-17976714D01*
X9295000Y-17962429D01*
X9280714Y-17948143D01*
X9266428Y-17919572D01*
X9252143Y-17862429D01*
X9252143Y-17791000D01*
X9266428Y-17733857D01*
X9280714Y-17705286D01*
X9295000Y-17691000D01*
X9323571Y-17676714D01*
X9680714Y-17776714D02*
X9680714Y-17976714D01*
X9609286Y-17662429D02*
X9537857Y-17876714D01*
X9723571Y-17876714D01*
X9809286Y-17676714D02*
X9995000Y-17676714D01*
X9895000Y-17791000D01*
X9937857Y-17791000D01*
X9966428Y-17805286D01*
X9980714Y-17819572D01*
X9995000Y-17848143D01*
X9995000Y-17919572D01*
X9980714Y-17948143D01*
X9966428Y-17962429D01*
X9937857Y-17976714D01*
X9852143Y-17976714D01*
X9823571Y-17962429D01*
X9809286Y-17948143D01*
X10109286Y-17676714D02*
X10109286Y-17733857D01*
X10223571Y-17676714D02*
X10223571Y-17733857D01*
X10666428Y-18091000D02*
X10652143Y-18076714D01*
X10623571Y-18033857D01*
X10609286Y-18005286D01*
X10595000Y-17962429D01*
X10580714Y-17891000D01*
X10580714Y-17833857D01*
X10595000Y-17762429D01*
X10609286Y-17719572D01*
X10623571Y-17691000D01*
X10652143Y-17648143D01*
X10666428Y-17633857D01*
X10909286Y-17776714D02*
X10909286Y-17976714D01*
X10837857Y-17662429D02*
X10766428Y-17876714D01*
X10952143Y-17876714D01*
X11295000Y-17976714D02*
X11295000Y-17676714D01*
X11423571Y-17976714D02*
X11423571Y-17819572D01*
X11409285Y-17791000D01*
X11380714Y-17776714D01*
X11337857Y-17776714D01*
X11309285Y-17791000D01*
X11295000Y-17805286D01*
X11609285Y-17976714D02*
X11580714Y-17962429D01*
X11566428Y-17948143D01*
X11552143Y-17919572D01*
X11552143Y-17833857D01*
X11566428Y-17805286D01*
X11580714Y-17791000D01*
X11609285Y-17776714D01*
X11652143Y-17776714D01*
X11680714Y-17791000D01*
X11695000Y-17805286D01*
X11709285Y-17833857D01*
X11709285Y-17919572D01*
X11695000Y-17948143D01*
X11680714Y-17962429D01*
X11652143Y-17976714D01*
X11609285Y-17976714D01*
X11880714Y-17976714D02*
X11852143Y-17962429D01*
X11837857Y-17933857D01*
X11837857Y-17676714D01*
X12109286Y-17962429D02*
X12080714Y-17976714D01*
X12023571Y-17976714D01*
X11995000Y-17962429D01*
X11980714Y-17933857D01*
X11980714Y-17819572D01*
X11995000Y-17791000D01*
X12023571Y-17776714D01*
X12080714Y-17776714D01*
X12109286Y-17791000D01*
X12123571Y-17819572D01*
X12123571Y-17848143D01*
X11980714Y-17876714D01*
X12237857Y-17962429D02*
X12266428Y-17976714D01*
X12323571Y-17976714D01*
X12352143Y-17962429D01*
X12366428Y-17933857D01*
X12366428Y-17919572D01*
X12352143Y-17891000D01*
X12323571Y-17876714D01*
X12280714Y-17876714D01*
X12252143Y-17862429D01*
X12237857Y-17833857D01*
X12237857Y-17819572D01*
X12252143Y-17791000D01*
X12280714Y-17776714D01*
X12323571Y-17776714D01*
X12352143Y-17791000D01*
X12466428Y-18091000D02*
X12480714Y-18076714D01*
X12509286Y-18033857D01*
X12523571Y-18005286D01*
X12537857Y-17962429D01*
X12552143Y-17891000D01*
X12552143Y-17833857D01*
X12537857Y-17762429D01*
X12523571Y-17719572D01*
X12509286Y-17691000D01*
X12480714Y-17648143D01*
X12466428Y-17633857D01*
X5765000Y-18122000D02*
X5995000Y-18352000D01*
X5995000Y-18122000D02*
X5765000Y-18352000D01*
X5961318Y-18318318D02*
X5961318Y-18155682D01*
X5798682Y-18155682D01*
X5798682Y-18318318D01*
X5961318Y-18318318D01*
X6252143Y-18101286D02*
X6266428Y-18087000D01*
X6295000Y-18072714D01*
X6366428Y-18072714D01*
X6395000Y-18087000D01*
X6409286Y-18101286D01*
X6423571Y-18129857D01*
X6423571Y-18158429D01*
X6409286Y-18201286D01*
X6237857Y-18372714D01*
X6423571Y-18372714D01*
X6552143Y-18344143D02*
X6566428Y-18358429D01*
X6552143Y-18372714D01*
X6537857Y-18358429D01*
X6552143Y-18344143D01*
X6552143Y-18372714D01*
X6666428Y-18072714D02*
X6852143Y-18072714D01*
X6752143Y-18187000D01*
X6795000Y-18187000D01*
X6823571Y-18201286D01*
X6837857Y-18215572D01*
X6852143Y-18244143D01*
X6852143Y-18315572D01*
X6837857Y-18344143D01*
X6823571Y-18358429D01*
X6795000Y-18372714D01*
X6709286Y-18372714D01*
X6680714Y-18358429D01*
X6666428Y-18344143D01*
X7037857Y-18072714D02*
X7066428Y-18072714D01*
X7095000Y-18087000D01*
X7109286Y-18101286D01*
X7123571Y-18129857D01*
X7137857Y-18187000D01*
X7137857Y-18258429D01*
X7123571Y-18315572D01*
X7109286Y-18344143D01*
X7095000Y-18358429D01*
X7066428Y-18372714D01*
X7037857Y-18372714D01*
X7009286Y-18358429D01*
X6995000Y-18344143D01*
X6980714Y-18315572D01*
X6966428Y-18258429D01*
X6966428Y-18187000D01*
X6980714Y-18129857D01*
X6995000Y-18101286D01*
X7009286Y-18087000D01*
X7037857Y-18072714D01*
X7266428Y-18372714D02*
X7266428Y-18172714D01*
X7266428Y-18201286D02*
X7280714Y-18187000D01*
X7309286Y-18172714D01*
X7352143Y-18172714D01*
X7380714Y-18187000D01*
X7395000Y-18215572D01*
X7395000Y-18372714D01*
X7395000Y-18215572D02*
X7409286Y-18187000D01*
X7437857Y-18172714D01*
X7480714Y-18172714D01*
X7509286Y-18187000D01*
X7523571Y-18215572D01*
X7523571Y-18372714D01*
X7666428Y-18372714D02*
X7666428Y-18172714D01*
X7666428Y-18201286D02*
X7680714Y-18187000D01*
X7709286Y-18172714D01*
X7752143Y-18172714D01*
X7780714Y-18187000D01*
X7795000Y-18215572D01*
X7795000Y-18372714D01*
X7795000Y-18215572D02*
X7809286Y-18187000D01*
X7837857Y-18172714D01*
X7880714Y-18172714D01*
X7909286Y-18187000D01*
X7923571Y-18215572D01*
X7923571Y-18372714D01*
X8509286Y-18058429D02*
X8252143Y-18444143D01*
X8895000Y-18072714D02*
X8923571Y-18072714D01*
X8952143Y-18087000D01*
X8966428Y-18101286D01*
X8980714Y-18129857D01*
X8995000Y-18187000D01*
X8995000Y-18258429D01*
X8980714Y-18315572D01*
X8966428Y-18344143D01*
X8952143Y-18358429D01*
X8923571Y-18372714D01*
X8895000Y-18372714D01*
X8866428Y-18358429D01*
X8852143Y-18344143D01*
X8837857Y-18315572D01*
X8823571Y-18258429D01*
X8823571Y-18187000D01*
X8837857Y-18129857D01*
X8852143Y-18101286D01*
X8866428Y-18087000D01*
X8895000Y-18072714D01*
X9123571Y-18344143D02*
X9137857Y-18358429D01*
X9123571Y-18372714D01*
X9109286Y-18358429D01*
X9123571Y-18344143D01*
X9123571Y-18372714D01*
X9323571Y-18072714D02*
X9352143Y-18072714D01*
X9380714Y-18087000D01*
X9395000Y-18101286D01*
X9409286Y-18129857D01*
X9423571Y-18187000D01*
X9423571Y-18258429D01*
X9409286Y-18315572D01*
X9395000Y-18344143D01*
X9380714Y-18358429D01*
X9352143Y-18372714D01*
X9323571Y-18372714D01*
X9295000Y-18358429D01*
X9280714Y-18344143D01*
X9266428Y-18315572D01*
X9252143Y-18258429D01*
X9252143Y-18187000D01*
X9266428Y-18129857D01*
X9280714Y-18101286D01*
X9295000Y-18087000D01*
X9323571Y-18072714D01*
X9566428Y-18372714D02*
X9623571Y-18372714D01*
X9652143Y-18358429D01*
X9666428Y-18344143D01*
X9695000Y-18301286D01*
X9709286Y-18244143D01*
X9709286Y-18129857D01*
X9695000Y-18101286D01*
X9680714Y-18087000D01*
X9652143Y-18072714D01*
X9595000Y-18072714D01*
X9566428Y-18087000D01*
X9552143Y-18101286D01*
X9537857Y-18129857D01*
X9537857Y-18201286D01*
X9552143Y-18229857D01*
X9566428Y-18244143D01*
X9595000Y-18258429D01*
X9652143Y-18258429D01*
X9680714Y-18244143D01*
X9695000Y-18229857D01*
X9709286Y-18201286D01*
X9995000Y-18372714D02*
X9823571Y-18372714D01*
X9909286Y-18372714D02*
X9909286Y-18072714D01*
X9880714Y-18115572D01*
X9852143Y-18144143D01*
X9823571Y-18158429D01*
X10109286Y-18072714D02*
X10109286Y-18129857D01*
X10223571Y-18072714D02*
X10223571Y-18129857D01*
X10666428Y-18487000D02*
X10652143Y-18472714D01*
X10623571Y-18429857D01*
X10609286Y-18401286D01*
X10595000Y-18358429D01*
X10580714Y-18287000D01*
X10580714Y-18229857D01*
X10595000Y-18158429D01*
X10609286Y-18115572D01*
X10623571Y-18087000D01*
X10652143Y-18044143D01*
X10666428Y-18029857D01*
X10766428Y-18101286D02*
X10780714Y-18087000D01*
X10809286Y-18072714D01*
X10880714Y-18072714D01*
X10909286Y-18087000D01*
X10923571Y-18101286D01*
X10937857Y-18129857D01*
X10937857Y-18158429D01*
X10923571Y-18201286D01*
X10752143Y-18372714D01*
X10937857Y-18372714D01*
X11295000Y-18372714D02*
X11295000Y-18072714D01*
X11423571Y-18372714D02*
X11423571Y-18215572D01*
X11409285Y-18187000D01*
X11380714Y-18172714D01*
X11337857Y-18172714D01*
X11309285Y-18187000D01*
X11295000Y-18201286D01*
X11609285Y-18372714D02*
X11580714Y-18358429D01*
X11566428Y-18344143D01*
X11552143Y-18315572D01*
X11552143Y-18229857D01*
X11566428Y-18201286D01*
X11580714Y-18187000D01*
X11609285Y-18172714D01*
X11652143Y-18172714D01*
X11680714Y-18187000D01*
X11695000Y-18201286D01*
X11709285Y-18229857D01*
X11709285Y-18315572D01*
X11695000Y-18344143D01*
X11680714Y-18358429D01*
X11652143Y-18372714D01*
X11609285Y-18372714D01*
X11880714Y-18372714D02*
X11852143Y-18358429D01*
X11837857Y-18329857D01*
X11837857Y-18072714D01*
X12109286Y-18358429D02*
X12080714Y-18372714D01*
X12023571Y-18372714D01*
X11995000Y-18358429D01*
X11980714Y-18329857D01*
X11980714Y-18215572D01*
X11995000Y-18187000D01*
X12023571Y-18172714D01*
X12080714Y-18172714D01*
X12109286Y-18187000D01*
X12123571Y-18215572D01*
X12123571Y-18244143D01*
X11980714Y-18272714D01*
X12237857Y-18358429D02*
X12266428Y-18372714D01*
X12323571Y-18372714D01*
X12352143Y-18358429D01*
X12366428Y-18329857D01*
X12366428Y-18315572D01*
X12352143Y-18287000D01*
X12323571Y-18272714D01*
X12280714Y-18272714D01*
X12252143Y-18258429D01*
X12237857Y-18229857D01*
X12237857Y-18215572D01*
X12252143Y-18187000D01*
X12280714Y-18172714D01*
X12323571Y-18172714D01*
X12352143Y-18187000D01*
X12466428Y-18487000D02*
X12480714Y-18472714D01*
X12509286Y-18429857D01*
X12523571Y-18401286D01*
X12537857Y-18358429D01*
X12552143Y-18287000D01*
X12552143Y-18229857D01*
X12537857Y-18158429D01*
X12523571Y-18115572D01*
X12509286Y-18087000D01*
X12480714Y-18044143D01*
X12466428Y-18029857D01*
X5655000Y-18463000D02*
X5995000Y-18803000D01*
X5995000Y-18463000D02*
X5655000Y-18803000D01*
X5825000Y-18803000D02*
X5995000Y-18633000D01*
X5825000Y-18463000D01*
X5655000Y-18633000D01*
X5825000Y-18803000D01*
X6237857Y-18468714D02*
X6423571Y-18468714D01*
X6323571Y-18583000D01*
X6366428Y-18583000D01*
X6395000Y-18597286D01*
X6409286Y-18611572D01*
X6423571Y-18640143D01*
X6423571Y-18711572D01*
X6409286Y-18740143D01*
X6395000Y-18754429D01*
X6366428Y-18768714D01*
X6280714Y-18768714D01*
X6252143Y-18754429D01*
X6237857Y-18740143D01*
X6552143Y-18740143D02*
X6566428Y-18754429D01*
X6552143Y-18768714D01*
X6537857Y-18754429D01*
X6552143Y-18740143D01*
X6552143Y-18768714D01*
X6823571Y-18568714D02*
X6823571Y-18768714D01*
X6752143Y-18454429D02*
X6680714Y-18668714D01*
X6866428Y-18668714D01*
X7037857Y-18468714D02*
X7066428Y-18468714D01*
X7095000Y-18483000D01*
X7109286Y-18497286D01*
X7123571Y-18525857D01*
X7137857Y-18583000D01*
X7137857Y-18654429D01*
X7123571Y-18711572D01*
X7109286Y-18740143D01*
X7095000Y-18754429D01*
X7066428Y-18768714D01*
X7037857Y-18768714D01*
X7009286Y-18754429D01*
X6995000Y-18740143D01*
X6980714Y-18711572D01*
X6966428Y-18654429D01*
X6966428Y-18583000D01*
X6980714Y-18525857D01*
X6995000Y-18497286D01*
X7009286Y-18483000D01*
X7037857Y-18468714D01*
X7266428Y-18768714D02*
X7266428Y-18568714D01*
X7266428Y-18597286D02*
X7280714Y-18583000D01*
X7309286Y-18568714D01*
X7352143Y-18568714D01*
X7380714Y-18583000D01*
X7395000Y-18611572D01*
X7395000Y-18768714D01*
X7395000Y-18611572D02*
X7409286Y-18583000D01*
X7437857Y-18568714D01*
X7480714Y-18568714D01*
X7509286Y-18583000D01*
X7523571Y-18611572D01*
X7523571Y-18768714D01*
X7666428Y-18768714D02*
X7666428Y-18568714D01*
X7666428Y-18597286D02*
X7680714Y-18583000D01*
X7709286Y-18568714D01*
X7752143Y-18568714D01*
X7780714Y-18583000D01*
X7795000Y-18611572D01*
X7795000Y-18768714D01*
X7795000Y-18611572D02*
X7809286Y-18583000D01*
X7837857Y-18568714D01*
X7880714Y-18568714D01*
X7909286Y-18583000D01*
X7923571Y-18611572D01*
X7923571Y-18768714D01*
X8509286Y-18454429D02*
X8252143Y-18840143D01*
X8895000Y-18468714D02*
X8923571Y-18468714D01*
X8952143Y-18483000D01*
X8966428Y-18497286D01*
X8980714Y-18525857D01*
X8995000Y-18583000D01*
X8995000Y-18654429D01*
X8980714Y-18711572D01*
X8966428Y-18740143D01*
X8952143Y-18754429D01*
X8923571Y-18768714D01*
X8895000Y-18768714D01*
X8866428Y-18754429D01*
X8852143Y-18740143D01*
X8837857Y-18711572D01*
X8823571Y-18654429D01*
X8823571Y-18583000D01*
X8837857Y-18525857D01*
X8852143Y-18497286D01*
X8866428Y-18483000D01*
X8895000Y-18468714D01*
X9123571Y-18740143D02*
X9137857Y-18754429D01*
X9123571Y-18768714D01*
X9109286Y-18754429D01*
X9123571Y-18740143D01*
X9123571Y-18768714D01*
X9423571Y-18768714D02*
X9252143Y-18768714D01*
X9337857Y-18768714D02*
X9337857Y-18468714D01*
X9309286Y-18511572D01*
X9280714Y-18540143D01*
X9252143Y-18554429D01*
X9523571Y-18468714D02*
X9709286Y-18468714D01*
X9609286Y-18583000D01*
X9652143Y-18583000D01*
X9680714Y-18597286D01*
X9695000Y-18611572D01*
X9709286Y-18640143D01*
X9709286Y-18711572D01*
X9695000Y-18740143D01*
X9680714Y-18754429D01*
X9652143Y-18768714D01*
X9566428Y-18768714D01*
X9537857Y-18754429D01*
X9523571Y-18740143D01*
X9966428Y-18568714D02*
X9966428Y-18768714D01*
X9895000Y-18454429D02*
X9823571Y-18668714D01*
X10009286Y-18668714D01*
X10109286Y-18468714D02*
X10109286Y-18525857D01*
X10223571Y-18468714D02*
X10223571Y-18525857D01*
X10666428Y-18883000D02*
X10652143Y-18868714D01*
X10623571Y-18825857D01*
X10609286Y-18797286D01*
X10595000Y-18754429D01*
X10580714Y-18683000D01*
X10580714Y-18625857D01*
X10595000Y-18554429D01*
X10609286Y-18511572D01*
X10623571Y-18483000D01*
X10652143Y-18440143D01*
X10666428Y-18425857D01*
X10909286Y-18568714D02*
X10909286Y-18768714D01*
X10837857Y-18454429D02*
X10766428Y-18668714D01*
X10952143Y-18668714D01*
X11295000Y-18768714D02*
X11295000Y-18468714D01*
X11423571Y-18768714D02*
X11423571Y-18611572D01*
X11409285Y-18583000D01*
X11380714Y-18568714D01*
X11337857Y-18568714D01*
X11309285Y-18583000D01*
X11295000Y-18597286D01*
X11609285Y-18768714D02*
X11580714Y-18754429D01*
X11566428Y-18740143D01*
X11552143Y-18711572D01*
X11552143Y-18625857D01*
X11566428Y-18597286D01*
X11580714Y-18583000D01*
X11609285Y-18568714D01*
X11652143Y-18568714D01*
X11680714Y-18583000D01*
X11695000Y-18597286D01*
X11709285Y-18625857D01*
X11709285Y-18711572D01*
X11695000Y-18740143D01*
X11680714Y-18754429D01*
X11652143Y-18768714D01*
X11609285Y-18768714D01*
X11880714Y-18768714D02*
X11852143Y-18754429D01*
X11837857Y-18725857D01*
X11837857Y-18468714D01*
X12109286Y-18754429D02*
X12080714Y-18768714D01*
X12023571Y-18768714D01*
X11995000Y-18754429D01*
X11980714Y-18725857D01*
X11980714Y-18611572D01*
X11995000Y-18583000D01*
X12023571Y-18568714D01*
X12080714Y-18568714D01*
X12109286Y-18583000D01*
X12123571Y-18611572D01*
X12123571Y-18640143D01*
X11980714Y-18668714D01*
X12237857Y-18754429D02*
X12266428Y-18768714D01*
X12323571Y-18768714D01*
X12352143Y-18754429D01*
X12366428Y-18725857D01*
X12366428Y-18711572D01*
X12352143Y-18683000D01*
X12323571Y-18668714D01*
X12280714Y-18668714D01*
X12252143Y-18654429D01*
X12237857Y-18625857D01*
X12237857Y-18611572D01*
X12252143Y-18583000D01*
X12280714Y-18568714D01*
X12323571Y-18568714D01*
X12352143Y-18583000D01*
X12466428Y-18883000D02*
X12480714Y-18868714D01*
X12509286Y-18825857D01*
X12523571Y-18797286D01*
X12537857Y-18754429D01*
X12552143Y-18683000D01*
X12552143Y-18625857D01*
X12537857Y-18554429D01*
X12523571Y-18511572D01*
X12509286Y-18483000D01*
X12480714Y-18440143D01*
X12466428Y-18425857D01*
M02*
