M48
;DRILL file {KiCad 4.0.7} date 11/25/17 11:10:45
;FORMAT={-:-/ absolute / metric / decimal}
FMAT,2
METRIC,TZ
T1C0.254
T2C0.700
T3C0.800
T4C0.810
T5C0.900
T6C1.000
T7C1.100
T8C2.300
T9C3.400
%
G90
G05
M71
T1
X76.Y-92.3
X78.275Y-75.4
X83.05Y-90.725
X83.325Y-87.075
X84.45Y-92.275
X85.5Y-92.275
X85.55Y-86.275
X85.9Y-84.65
X85.95Y-98.625
X86.36Y-88.9
X86.425Y-75.775
X87.2Y-85.25
X87.225Y-84.6
X87.4Y-82.
X87.45Y-95.225
X87.45Y-96.325
X87.5Y-101.85
X87.65Y-83.6
X88.05Y-69.3
X88.05Y-70.75
X88.65Y-89.025
X88.65Y-90.075
X88.7Y-68.8
X88.75Y-70.
X88.95Y-73.4
X88.95Y-74.05
X89.575Y-82.55
X89.85Y-84.6
X90.05Y-99.25
X90.375Y-93.245
X90.5Y-75.3
X90.75Y-71.45
X90.8Y-70.8
X90.85Y-83.55
X91.075Y-79.
X91.25Y-91.995
X91.25Y-94.495
X92.1Y-82.5
X92.1Y-82.525
X92.25Y-93.245
X92.35Y-103.6
X92.375Y-101.25
X92.5Y-98.245
X92.5Y-100.245
X92.65Y-81.525
X93.05Y-84.6
X93.4Y-81.775
X93.55Y-79.5
X93.75Y-94.495
X93.95Y-83.55
X94.Y-80.
X94.Y-81.5
X94.025Y-82.525
X94.35Y-77.275
X94.4Y-66.1
X94.5Y-63.35
X94.65Y-68.95
X94.65Y-73.55
X94.75Y-94.495
X95.25Y-92.
X96.25Y-94.495
X96.5Y-72.75
X96.95Y-66.
X97.25Y-94.495
X97.75Y-94.75
X98.2Y-60.95
X98.5Y-92.15
X98.75Y-94.375
X98.925Y-84.975
X99.45Y-85.05
X99.5Y-102.
X99.75Y-58.65
X99.75Y-91.995
X100.Y-102.25
X100.5Y-102.
X100.8Y-56.65
X101.Y-102.25
X101.4Y-92.05
X101.5Y-95.75
X101.5Y-96.575
X101.5Y-99.745
X101.525Y-106.575
X101.575Y-118.
X102.075Y-118.4
X102.55Y-104.05
X102.575Y-118.125
X102.616Y-59.69
X102.875Y-103.525
X103.025Y-92.
X103.075Y-118.4
X103.632Y-60.452
X103.65Y-87.075
X103.7Y-105.2
X103.75Y-107.5
X103.75Y-113.5
X103.75Y-114.5
X103.75Y-115.5
X103.75Y-116.5
X103.925Y-99.2
X103.95Y-97.25
X104.Y-93.9
X104.Y-113.
X104.Y-114.
X104.Y-115.
X104.Y-116.
X104.Y-117.
X104.05Y-104.7
X104.225Y-89.25
X104.25Y-92.
X105.25Y-96.75
X105.5Y-55.5
X106.25Y-117.5
X106.25Y-118.495
X106.275Y-98.25
X107.5Y-128.75
X108.Y-108.995
X108.Y-122.
X108.Y-124.55
X108.425Y-94.
X108.5Y-122.25
X108.5Y-124.8
X108.625Y-119.
X108.9Y-56.65
X109.Y-121.995
X109.5Y-99.75
X109.5Y-117.495
X109.5Y-122.25
X109.85Y-94.625
X109.9Y-88.675
X109.9Y-89.95
X110.Y-100.25
X110.Y-106.2
X110.Y-121.995
X110.5Y-122.25
X110.744Y-59.69
X111.Y-121.995
X111.5Y-122.25
X111.76Y-60.452
X112.Y-121.995
X112.5Y-122.25
X112.675Y-94.625
X113.Y-119.745
X113.5Y-106.75
X113.675Y-119.575
X114.Y-107.
X114.Y-122.25
X114.046Y-86.741
X114.5Y-106.25
X114.5Y-121.995
X116.075Y-84.275
X116.078Y-56.642
X117.Y-103.995
X117.Y-122.05
X117.2Y-87.
X117.5Y-103.575
X117.75Y-89.025
X118.Y-103.995
X118.5Y-103.725
X118.5Y-122.075
X118.75Y-107.
X118.872Y-59.69
X119.Y-103.995
X119.Y-119.75
X119.75Y-107.495
X119.75Y-109.995
X119.888Y-60.452
X120.825Y-119.75
X122.Y-107.995
X122.Y-116.995
X122.Y-117.995
X122.25Y-109.5
X122.275Y-117.5
X122.4Y-87.35
X122.5Y-108.25
X122.5Y-109.
X123.5Y-103.75
X124.206Y-56.642
X125.75Y-92.
X126.Y-91.5
X126.Y-92.5
X126.Y-96.5
X126.225Y-128.75
X126.25Y-96.
X126.5Y-128.245
X126.5Y-129.245
X127.Y-59.69
X127.925Y-94.
X128.016Y-60.452
X129.25Y-131.245
X130.25Y-132.245
X130.75Y-120.995
X130.75Y-132.55
X131.25Y-132.245
X131.75Y-120.995
X131.75Y-132.5
X132.334Y-56.642
X132.75Y-129.995
X133.025Y-132.375
X133.525Y-121.
X133.6Y-118.55
X134.25Y-120.995
X134.95Y-123.25
X135.128Y-59.69
X136.Y-115.5
X136.144Y-60.452
X136.25Y-130.
X136.75Y-118.745
X136.75Y-132.495
X137.625Y-112.75
X138.Y-122.245
X138.Y-123.245
X138.Y-124.745
X138.Y-126.245
X138.Y-127.245
X138.Y-128.245
X139.25Y-120.745
X140.25Y-113.25
X140.35Y-126.025
X140.375Y-128.75
X140.462Y-56.642
X142.35Y-112.75
X143.256Y-59.69
X144.25Y-89.
X144.272Y-60.452
X146.25Y-117.25
X148.59Y-56.642
X151.384Y-59.69
X152.4Y-60.452
X156.718Y-56.642
X159.512Y-59.69
X160.528Y-60.452
X162.275Y-57.65
X165.4Y-84.275
X184.425Y-122.975
X184.425Y-135.975
X185.175Y-131.225
X185.175Y-133.725
X187.275Y-107.275
X187.275Y-107.625
X187.275Y-108.025
X187.275Y-108.45
X192.195Y-134.083
X192.195Y-134.591
X192.195Y-137.639
X192.195Y-138.147
X192.449Y-128.749
X192.957Y-128.749
X193.465Y-128.749
X193.973Y-128.749
X194.481Y-128.749
X194.481Y-134.083
X194.481Y-134.591
X194.481Y-137.639
X194.481Y-138.147
X196.005Y-135.099
X196.005Y-135.607
X196.005Y-136.623
T2
X68.333Y-82.46
X71.Y-79.92
X71.Y-85.
X101.9Y-86.9
X104.9Y-86.9
T3
X72.644Y-96.012
X72.644Y-98.552
X75.184Y-93.472
X75.184Y-96.012
X75.184Y-98.552
T4
X73.057Y-135.255
X73.057Y-137.795
X75.057Y-135.255
X75.057Y-137.795
T5
X167.005Y-49.53
X167.005Y-82.55
X171.45Y-49.53
X171.45Y-82.55
X175.895Y-49.53
X175.895Y-82.55
X180.34Y-49.53
X180.34Y-82.55
X184.785Y-49.53
X184.785Y-82.55
T6
X64.Y-80.
X64.Y-82.54
X64.Y-85.08
X64.Y-87.62
X64.Y-90.16
X64.Y-92.7
X64.Y-95.24
X64.Y-97.78
X64.Y-100.32
X64.Y-102.86
X64.Y-105.4
X64.Y-107.94
X64.Y-110.48
X64.Y-113.02
X64.Y-115.56
X64.Y-118.1
X64.Y-120.64
X64.Y-123.18
X64.Y-125.72
X64.Y-128.26
X70.5Y-117.
X70.5Y-119.54
X70.5Y-122.08
X70.5Y-124.62
X70.5Y-127.16
X81.Y-64.55
X81.Y-67.09
X81.Y-69.63
X81.Y-72.17
X81.Y-74.71
X81.Y-77.25
X82.296Y-119.888
X82.296Y-122.428
X87.376Y-119.888
X87.376Y-122.428
X101.092Y-68.58
X101.092Y-71.12
X101.092Y-73.66
X105.156Y-68.58
X105.156Y-71.12
X105.156Y-73.66
X108.8Y-131.245
X109.22Y-68.58
X109.22Y-71.12
X109.22Y-73.66
X111.34Y-131.245
X113.284Y-68.58
X113.284Y-71.12
X113.284Y-73.66
X113.88Y-131.245
X116.42Y-131.245
X117.348Y-68.58
X117.348Y-71.12
X117.348Y-73.66
X118.96Y-131.245
X121.412Y-68.58
X121.412Y-71.12
X121.412Y-73.66
X121.5Y-131.245
X125.476Y-68.58
X125.476Y-71.12
X125.476Y-73.66
X129.54Y-68.58
X129.54Y-71.12
X129.54Y-73.66
X133.604Y-68.58
X133.604Y-71.12
X133.604Y-73.66
X137.668Y-68.58
X137.668Y-71.12
X137.668Y-73.66
X141.732Y-68.58
X141.732Y-71.12
X141.732Y-73.66
X145.796Y-68.58
X145.796Y-71.12
X145.796Y-73.66
X149.86Y-68.58
X149.86Y-71.12
X149.86Y-73.66
X153.924Y-68.58
X153.924Y-71.12
X153.924Y-73.66
X157.988Y-68.58
X157.988Y-71.12
X157.988Y-73.66
X162.052Y-68.58
X162.052Y-71.12
X162.052Y-73.66
T7
X129.032Y-49.276
X134.112Y-49.276
X205.54Y-130.98
X205.54Y-136.06
T8
X70.357Y-130.525
X70.357Y-142.525
T9
X65.Y-50.
X82.5Y-130.
X205.Y-50.
X205.Y-120.
T0
M30
