G04 #@! TF.FileFunction,Legend,Top*
%FSLAX46Y46*%
G04 Gerber Fmt 4.6, Leading zero omitted, Abs format (unit mm)*
G04 Created by KiCad (PCBNEW 4.0.7) date 11/25/17 11:10:42*
%MOMM*%
%LPD*%
G01*
G04 APERTURE LIST*
%ADD10C,0.100000*%
%ADD11C,0.300000*%
%ADD12C,0.200000*%
%ADD13C,0.120000*%
%ADD14C,0.150000*%
G04 APERTURE END LIST*
D10*
D11*
X149464286Y-134353571D02*
X149464286Y-132853571D01*
X149821429Y-132853571D01*
X150035714Y-132925000D01*
X150178572Y-133067857D01*
X150250000Y-133210714D01*
X150321429Y-133496429D01*
X150321429Y-133710714D01*
X150250000Y-133996429D01*
X150178572Y-134139286D01*
X150035714Y-134282143D01*
X149821429Y-134353571D01*
X149464286Y-134353571D01*
X151821429Y-134210714D02*
X151750000Y-134282143D01*
X151535714Y-134353571D01*
X151392857Y-134353571D01*
X151178572Y-134282143D01*
X151035714Y-134139286D01*
X150964286Y-133996429D01*
X150892857Y-133710714D01*
X150892857Y-133496429D01*
X150964286Y-133210714D01*
X151035714Y-133067857D01*
X151178572Y-132925000D01*
X151392857Y-132853571D01*
X151535714Y-132853571D01*
X151750000Y-132925000D01*
X151821429Y-132996429D01*
X153607143Y-133567857D02*
X154107143Y-133567857D01*
X154321429Y-134353571D02*
X153607143Y-134353571D01*
X153607143Y-132853571D01*
X154321429Y-132853571D01*
X155178572Y-134353571D02*
X155035714Y-134282143D01*
X154964286Y-134139286D01*
X154964286Y-132853571D01*
X156321428Y-134282143D02*
X156178571Y-134353571D01*
X155892857Y-134353571D01*
X155750000Y-134282143D01*
X155678571Y-134139286D01*
X155678571Y-133567857D01*
X155750000Y-133425000D01*
X155892857Y-133353571D01*
X156178571Y-133353571D01*
X156321428Y-133425000D01*
X156392857Y-133567857D01*
X156392857Y-133710714D01*
X155678571Y-133853571D01*
X157678571Y-134282143D02*
X157535714Y-134353571D01*
X157250000Y-134353571D01*
X157107142Y-134282143D01*
X157035714Y-134210714D01*
X156964285Y-134067857D01*
X156964285Y-133639286D01*
X157035714Y-133496429D01*
X157107142Y-133425000D01*
X157250000Y-133353571D01*
X157535714Y-133353571D01*
X157678571Y-133425000D01*
X158107142Y-133353571D02*
X158678571Y-133353571D01*
X158321428Y-132853571D02*
X158321428Y-134139286D01*
X158392856Y-134282143D01*
X158535714Y-134353571D01*
X158678571Y-134353571D01*
X159178571Y-134353571D02*
X159178571Y-133353571D01*
X159178571Y-133639286D02*
X159249999Y-133496429D01*
X159321428Y-133425000D01*
X159464285Y-133353571D01*
X159607142Y-133353571D01*
X160321428Y-134353571D02*
X160178570Y-134282143D01*
X160107142Y-134210714D01*
X160035713Y-134067857D01*
X160035713Y-133639286D01*
X160107142Y-133496429D01*
X160178570Y-133425000D01*
X160321428Y-133353571D01*
X160535713Y-133353571D01*
X160678570Y-133425000D01*
X160749999Y-133496429D01*
X160821428Y-133639286D01*
X160821428Y-134067857D01*
X160749999Y-134210714D01*
X160678570Y-134282143D01*
X160535713Y-134353571D01*
X160321428Y-134353571D01*
X161464285Y-133353571D02*
X161464285Y-134353571D01*
X161464285Y-133496429D02*
X161535713Y-133425000D01*
X161678571Y-133353571D01*
X161892856Y-133353571D01*
X162035713Y-133425000D01*
X162107142Y-133567857D01*
X162107142Y-134353571D01*
X162821428Y-134353571D02*
X162821428Y-133353571D01*
X162821428Y-132853571D02*
X162749999Y-132925000D01*
X162821428Y-132996429D01*
X162892856Y-132925000D01*
X162821428Y-132853571D01*
X162821428Y-132996429D01*
X164178571Y-134282143D02*
X164035714Y-134353571D01*
X163750000Y-134353571D01*
X163607142Y-134282143D01*
X163535714Y-134210714D01*
X163464285Y-134067857D01*
X163464285Y-133639286D01*
X163535714Y-133496429D01*
X163607142Y-133425000D01*
X163750000Y-133353571D01*
X164035714Y-133353571D01*
X164178571Y-133425000D01*
X166678571Y-134353571D02*
X165964285Y-134353571D01*
X165964285Y-132853571D01*
X167392857Y-134353571D02*
X167249999Y-134282143D01*
X167178571Y-134210714D01*
X167107142Y-134067857D01*
X167107142Y-133639286D01*
X167178571Y-133496429D01*
X167249999Y-133425000D01*
X167392857Y-133353571D01*
X167607142Y-133353571D01*
X167749999Y-133425000D01*
X167821428Y-133496429D01*
X167892857Y-133639286D01*
X167892857Y-134067857D01*
X167821428Y-134210714D01*
X167749999Y-134282143D01*
X167607142Y-134353571D01*
X167392857Y-134353571D01*
X169178571Y-134353571D02*
X169178571Y-133567857D01*
X169107142Y-133425000D01*
X168964285Y-133353571D01*
X168678571Y-133353571D01*
X168535714Y-133425000D01*
X169178571Y-134282143D02*
X169035714Y-134353571D01*
X168678571Y-134353571D01*
X168535714Y-134282143D01*
X168464285Y-134139286D01*
X168464285Y-133996429D01*
X168535714Y-133853571D01*
X168678571Y-133782143D01*
X169035714Y-133782143D01*
X169178571Y-133710714D01*
X170535714Y-134353571D02*
X170535714Y-132853571D01*
X170535714Y-134282143D02*
X170392857Y-134353571D01*
X170107143Y-134353571D01*
X169964285Y-134282143D01*
X169892857Y-134210714D01*
X169821428Y-134067857D01*
X169821428Y-133639286D01*
X169892857Y-133496429D01*
X169964285Y-133425000D01*
X170107143Y-133353571D01*
X170392857Y-133353571D01*
X170535714Y-133425000D01*
X154500001Y-136903571D02*
X154500001Y-135403571D01*
X154857144Y-135403571D01*
X155071429Y-135475000D01*
X155214287Y-135617857D01*
X155285715Y-135760714D01*
X155357144Y-136046429D01*
X155357144Y-136260714D01*
X155285715Y-136546429D01*
X155214287Y-136689286D01*
X155071429Y-136832143D01*
X154857144Y-136903571D01*
X154500001Y-136903571D01*
X156857144Y-136760714D02*
X156785715Y-136832143D01*
X156571429Y-136903571D01*
X156428572Y-136903571D01*
X156214287Y-136832143D01*
X156071429Y-136689286D01*
X156000001Y-136546429D01*
X155928572Y-136260714D01*
X155928572Y-136046429D01*
X156000001Y-135760714D01*
X156071429Y-135617857D01*
X156214287Y-135475000D01*
X156428572Y-135403571D01*
X156571429Y-135403571D01*
X156785715Y-135475000D01*
X156857144Y-135546429D01*
X157500001Y-136117857D02*
X158000001Y-136117857D01*
X158214287Y-136903571D02*
X157500001Y-136903571D01*
X157500001Y-135403571D01*
X158214287Y-135403571D01*
X159571430Y-136903571D02*
X158857144Y-136903571D01*
X158857144Y-135403571D01*
X160071430Y-136332143D02*
X161214287Y-136332143D01*
X162142859Y-136046429D02*
X162000001Y-135975000D01*
X161928573Y-135903571D01*
X161857144Y-135760714D01*
X161857144Y-135689286D01*
X161928573Y-135546429D01*
X162000001Y-135475000D01*
X162142859Y-135403571D01*
X162428573Y-135403571D01*
X162571430Y-135475000D01*
X162642859Y-135546429D01*
X162714287Y-135689286D01*
X162714287Y-135760714D01*
X162642859Y-135903571D01*
X162571430Y-135975000D01*
X162428573Y-136046429D01*
X162142859Y-136046429D01*
X162000001Y-136117857D01*
X161928573Y-136189286D01*
X161857144Y-136332143D01*
X161857144Y-136617857D01*
X161928573Y-136760714D01*
X162000001Y-136832143D01*
X162142859Y-136903571D01*
X162428573Y-136903571D01*
X162571430Y-136832143D01*
X162642859Y-136760714D01*
X162714287Y-136617857D01*
X162714287Y-136332143D01*
X162642859Y-136189286D01*
X162571430Y-136117857D01*
X162428573Y-136046429D01*
X163642858Y-135403571D02*
X163785715Y-135403571D01*
X163928572Y-135475000D01*
X164000001Y-135546429D01*
X164071430Y-135689286D01*
X164142858Y-135975000D01*
X164142858Y-136332143D01*
X164071430Y-136617857D01*
X164000001Y-136760714D01*
X163928572Y-136832143D01*
X163785715Y-136903571D01*
X163642858Y-136903571D01*
X163500001Y-136832143D01*
X163428572Y-136760714D01*
X163357144Y-136617857D01*
X163285715Y-136332143D01*
X163285715Y-135975000D01*
X163357144Y-135689286D01*
X163428572Y-135546429D01*
X163500001Y-135475000D01*
X163642858Y-135403571D01*
X165071429Y-135403571D02*
X165214286Y-135403571D01*
X165357143Y-135475000D01*
X165428572Y-135546429D01*
X165500001Y-135689286D01*
X165571429Y-135975000D01*
X165571429Y-136332143D01*
X165500001Y-136617857D01*
X165428572Y-136760714D01*
X165357143Y-136832143D01*
X165214286Y-136903571D01*
X165071429Y-136903571D01*
X164928572Y-136832143D01*
X164857143Y-136760714D01*
X164785715Y-136617857D01*
X164714286Y-136332143D01*
X164714286Y-135975000D01*
X164785715Y-135689286D01*
X164857143Y-135546429D01*
X164928572Y-135475000D01*
X165071429Y-135403571D01*
X156285716Y-137953571D02*
X156000002Y-137953571D01*
X155857145Y-138025000D01*
X155785716Y-138096429D01*
X155642859Y-138310714D01*
X155571430Y-138596429D01*
X155571430Y-139167857D01*
X155642859Y-139310714D01*
X155714287Y-139382143D01*
X155857145Y-139453571D01*
X156142859Y-139453571D01*
X156285716Y-139382143D01*
X156357145Y-139310714D01*
X156428573Y-139167857D01*
X156428573Y-138810714D01*
X156357145Y-138667857D01*
X156285716Y-138596429D01*
X156142859Y-138525000D01*
X155857145Y-138525000D01*
X155714287Y-138596429D01*
X155642859Y-138667857D01*
X155571430Y-138810714D01*
X157785716Y-137953571D02*
X157071430Y-137953571D01*
X157000001Y-138667857D01*
X157071430Y-138596429D01*
X157214287Y-138525000D01*
X157571430Y-138525000D01*
X157714287Y-138596429D01*
X157785716Y-138667857D01*
X157857144Y-138810714D01*
X157857144Y-139167857D01*
X157785716Y-139310714D01*
X157714287Y-139382143D01*
X157571430Y-139453571D01*
X157214287Y-139453571D01*
X157071430Y-139382143D01*
X157000001Y-139310714D01*
X158285715Y-137953571D02*
X158785715Y-139453571D01*
X159285715Y-137953571D01*
X161714286Y-139453571D02*
X160857143Y-139453571D01*
X161285715Y-139453571D02*
X161285715Y-137953571D01*
X161142858Y-138167857D01*
X161000000Y-138310714D01*
X160857143Y-138382143D01*
X162285714Y-138096429D02*
X162357143Y-138025000D01*
X162500000Y-137953571D01*
X162857143Y-137953571D01*
X163000000Y-138025000D01*
X163071429Y-138096429D01*
X163142857Y-138239286D01*
X163142857Y-138382143D01*
X163071429Y-138596429D01*
X162214286Y-139453571D01*
X163142857Y-139453571D01*
X163714285Y-139025000D02*
X164428571Y-139025000D01*
X163571428Y-139453571D02*
X164071428Y-137953571D01*
X164571428Y-139453571D01*
X154785715Y-140503571D02*
X155285715Y-142003571D01*
X155785715Y-140503571D01*
X156857143Y-141932143D02*
X156714286Y-142003571D01*
X156428572Y-142003571D01*
X156285715Y-141932143D01*
X156214286Y-141789286D01*
X156214286Y-141217857D01*
X156285715Y-141075000D01*
X156428572Y-141003571D01*
X156714286Y-141003571D01*
X156857143Y-141075000D01*
X156928572Y-141217857D01*
X156928572Y-141360714D01*
X156214286Y-141503571D01*
X157571429Y-142003571D02*
X157571429Y-141003571D01*
X157571429Y-141289286D02*
X157642857Y-141146429D01*
X157714286Y-141075000D01*
X157857143Y-141003571D01*
X158000000Y-141003571D01*
X158428571Y-141932143D02*
X158571428Y-142003571D01*
X158857143Y-142003571D01*
X159000000Y-141932143D01*
X159071428Y-141789286D01*
X159071428Y-141717857D01*
X159000000Y-141575000D01*
X158857143Y-141503571D01*
X158642857Y-141503571D01*
X158500000Y-141432143D01*
X158428571Y-141289286D01*
X158428571Y-141217857D01*
X158500000Y-141075000D01*
X158642857Y-141003571D01*
X158857143Y-141003571D01*
X159000000Y-141075000D01*
X159714286Y-142003571D02*
X159714286Y-141003571D01*
X159714286Y-140503571D02*
X159642857Y-140575000D01*
X159714286Y-140646429D01*
X159785714Y-140575000D01*
X159714286Y-140503571D01*
X159714286Y-140646429D01*
X160642858Y-142003571D02*
X160500000Y-141932143D01*
X160428572Y-141860714D01*
X160357143Y-141717857D01*
X160357143Y-141289286D01*
X160428572Y-141146429D01*
X160500000Y-141075000D01*
X160642858Y-141003571D01*
X160857143Y-141003571D01*
X161000000Y-141075000D01*
X161071429Y-141146429D01*
X161142858Y-141289286D01*
X161142858Y-141717857D01*
X161071429Y-141860714D01*
X161000000Y-141932143D01*
X160857143Y-142003571D01*
X160642858Y-142003571D01*
X161785715Y-141003571D02*
X161785715Y-142003571D01*
X161785715Y-141146429D02*
X161857143Y-141075000D01*
X162000001Y-141003571D01*
X162214286Y-141003571D01*
X162357143Y-141075000D01*
X162428572Y-141217857D01*
X162428572Y-142003571D01*
X164142858Y-140503571D02*
X165071429Y-140503571D01*
X164571429Y-141075000D01*
X164785715Y-141075000D01*
X164928572Y-141146429D01*
X165000001Y-141217857D01*
X165071429Y-141360714D01*
X165071429Y-141717857D01*
X165000001Y-141860714D01*
X164928572Y-141932143D01*
X164785715Y-142003571D01*
X164357143Y-142003571D01*
X164214286Y-141932143D01*
X164142858Y-141860714D01*
D12*
X93750000Y-97245000D02*
X94750000Y-97245000D01*
X93250000Y-96745000D02*
X93750000Y-97245000D01*
X92500000Y-96745000D02*
X94000000Y-96745000D01*
D13*
X62670000Y-129590000D02*
X65330000Y-129590000D01*
X62670000Y-81270000D02*
X62670000Y-129590000D01*
X65330000Y-81270000D02*
X65330000Y-129590000D01*
X62670000Y-81270000D02*
X65330000Y-81270000D01*
X62670000Y-80000000D02*
X62670000Y-78670000D01*
X62670000Y-78670000D02*
X64000000Y-78670000D01*
X131200000Y-110560000D02*
X131200000Y-110800000D01*
X131200000Y-110800000D02*
X132800000Y-110800000D01*
X132800000Y-118200000D02*
X131200000Y-118200000D01*
X134740000Y-113060000D02*
X134740000Y-115940000D01*
X129260000Y-115940000D02*
X129260000Y-113060000D01*
X129260000Y-113060000D02*
X127800000Y-113060000D01*
X126450000Y-88130000D02*
X108050000Y-88130000D01*
D10*
X108050000Y-100370000D02*
X127450000Y-100370000D01*
D13*
X105025000Y-93625000D02*
X105025000Y-94625000D01*
X106725000Y-94625000D02*
X106725000Y-93625000D01*
X147964000Y-78324000D02*
X147964000Y-77124000D01*
X149724000Y-77124000D02*
X149724000Y-78324000D01*
X194235000Y-134679000D02*
X195235000Y-134679000D01*
X195235000Y-132979000D02*
X194235000Y-132979000D01*
X194235000Y-139251000D02*
X195235000Y-139251000D01*
X195235000Y-137551000D02*
X194235000Y-137551000D01*
X187775000Y-132975000D02*
X187775000Y-131975000D01*
X186075000Y-131975000D02*
X186075000Y-132975000D01*
X85100000Y-87050000D02*
X86100000Y-87050000D01*
X86100000Y-85350000D02*
X85100000Y-85350000D01*
X155106000Y-58174000D02*
X155106000Y-59174000D01*
X156806000Y-59174000D02*
X156806000Y-58174000D01*
X146978000Y-58174000D02*
X146978000Y-59174000D01*
X148678000Y-59174000D02*
X148678000Y-58174000D01*
X138850000Y-58174000D02*
X138850000Y-59174000D01*
X140550000Y-59174000D02*
X140550000Y-58174000D01*
X130722000Y-58174000D02*
X130722000Y-59174000D01*
X132422000Y-59174000D02*
X132422000Y-58174000D01*
X122594000Y-58174000D02*
X122594000Y-59174000D01*
X124294000Y-59174000D02*
X124294000Y-58174000D01*
X114466000Y-58174000D02*
X114466000Y-59174000D01*
X116166000Y-59174000D02*
X116166000Y-58174000D01*
X106338000Y-58174000D02*
X106338000Y-59174000D01*
X108038000Y-59174000D02*
X108038000Y-58174000D01*
X98210000Y-58174000D02*
X98210000Y-59174000D01*
X99910000Y-59174000D02*
X99910000Y-58174000D01*
X138500000Y-120895000D02*
X137500000Y-120895000D01*
X137500000Y-122595000D02*
X138500000Y-122595000D01*
X138500000Y-122645000D02*
X137500000Y-122645000D01*
X137500000Y-124345000D02*
X138500000Y-124345000D01*
X138500000Y-124395000D02*
X137500000Y-124395000D01*
X137500000Y-126095000D02*
X138500000Y-126095000D01*
X138500000Y-126145000D02*
X137500000Y-126145000D01*
X137500000Y-127845000D02*
X138500000Y-127845000D01*
X133150000Y-120495000D02*
X133150000Y-121495000D01*
X134850000Y-121495000D02*
X134850000Y-120495000D01*
X92000000Y-99095000D02*
X93000000Y-99095000D01*
X93000000Y-97395000D02*
X92000000Y-97395000D01*
X92400000Y-93995000D02*
X92400000Y-94995000D01*
X94100000Y-94995000D02*
X94100000Y-93995000D01*
X94150000Y-93995000D02*
X94150000Y-94995000D01*
X95850000Y-94995000D02*
X95850000Y-93995000D01*
X95900000Y-93995000D02*
X95900000Y-94995000D01*
X97600000Y-94995000D02*
X97600000Y-93995000D01*
X97650000Y-93995000D02*
X97650000Y-94995000D01*
X99350000Y-94995000D02*
X99350000Y-93995000D01*
X92150000Y-64900000D02*
X92150000Y-63900000D01*
X90450000Y-63900000D02*
X90450000Y-64900000D01*
X131400000Y-120495000D02*
X131400000Y-121495000D01*
X133100000Y-121495000D02*
X133100000Y-120495000D01*
X129650000Y-120495000D02*
X129650000Y-121495000D01*
X131350000Y-121495000D02*
X131350000Y-120495000D01*
X136000000Y-132595000D02*
X137000000Y-132595000D01*
X137000000Y-130895000D02*
X136000000Y-130895000D01*
X138500000Y-127895000D02*
X137500000Y-127895000D01*
X137500000Y-129595000D02*
X138500000Y-129595000D01*
X134100000Y-130495000D02*
X134100000Y-129495000D01*
X132400000Y-129495000D02*
X132400000Y-130495000D01*
X92000000Y-102595000D02*
X93000000Y-102595000D01*
X93000000Y-100895000D02*
X92000000Y-100895000D01*
X92000000Y-100845000D02*
X93000000Y-100845000D01*
X93000000Y-99145000D02*
X92000000Y-99145000D01*
X99400000Y-91495000D02*
X99400000Y-92495000D01*
X101100000Y-92495000D02*
X101100000Y-91495000D01*
X102000000Y-94895000D02*
X101000000Y-94895000D01*
X101000000Y-96595000D02*
X102000000Y-96595000D01*
X102000000Y-98395000D02*
X101000000Y-98395000D01*
X101000000Y-100095000D02*
X102000000Y-100095000D01*
X138500000Y-118895000D02*
X137500000Y-118895000D01*
X137500000Y-120595000D02*
X138500000Y-120595000D01*
X90400000Y-93995000D02*
X90400000Y-94995000D01*
X92100000Y-94995000D02*
X92100000Y-93995000D01*
X94950000Y-65250000D02*
X93950000Y-65250000D01*
X93950000Y-66950000D02*
X94950000Y-66950000D01*
X160520000Y-55792000D02*
X159520000Y-55792000D01*
X159520000Y-57492000D02*
X160520000Y-57492000D01*
X152392000Y-55792000D02*
X151392000Y-55792000D01*
X151392000Y-57492000D02*
X152392000Y-57492000D01*
X144264000Y-55792000D02*
X143264000Y-55792000D01*
X143264000Y-57492000D02*
X144264000Y-57492000D01*
X136136000Y-55792000D02*
X135136000Y-55792000D01*
X135136000Y-57492000D02*
X136136000Y-57492000D01*
X128008000Y-55792000D02*
X127008000Y-55792000D01*
X127008000Y-57492000D02*
X128008000Y-57492000D01*
X119880000Y-55792000D02*
X118880000Y-55792000D01*
X118880000Y-57492000D02*
X119880000Y-57492000D01*
X111752000Y-55792000D02*
X110752000Y-55792000D01*
X110752000Y-57492000D02*
X111752000Y-57492000D01*
X103624000Y-55792000D02*
X102624000Y-55792000D01*
X102624000Y-57492000D02*
X103624000Y-57492000D01*
X140450000Y-117400000D02*
X148750000Y-117400000D01*
X140450000Y-121100000D02*
X148750000Y-121100000D01*
X140450000Y-117400000D02*
X140450000Y-121100000D01*
X89450000Y-104700000D02*
X90450000Y-104700000D01*
X90450000Y-103000000D02*
X89450000Y-103000000D01*
X82500000Y-57700000D02*
X89000000Y-57700000D01*
X82500000Y-57700000D02*
X82500000Y-68900000D01*
X89000000Y-57700000D02*
X89000000Y-68900000D01*
D14*
X209350000Y-128440000D02*
X201730000Y-128440000D01*
X201730000Y-128440000D02*
X201730000Y-138600000D01*
X201730000Y-138600000D02*
X209350000Y-138600000D01*
X209350000Y-138600000D02*
X209350000Y-128440000D01*
X79730000Y-75980000D02*
X79730000Y-63280000D01*
X79730000Y-63280000D02*
X82270000Y-63280000D01*
X82270000Y-63280000D02*
X82270000Y-75980000D01*
X79450000Y-78800000D02*
X79450000Y-77250000D01*
X79730000Y-75980000D02*
X82270000Y-75980000D01*
X82550000Y-77250000D02*
X82550000Y-78800000D01*
X82550000Y-78800000D02*
X79450000Y-78800000D01*
X120230000Y-132515000D02*
X107530000Y-132515000D01*
X107530000Y-132515000D02*
X107530000Y-129975000D01*
X107530000Y-129975000D02*
X120230000Y-129975000D01*
X123050000Y-132795000D02*
X121500000Y-132795000D01*
X120230000Y-132515000D02*
X120230000Y-129975000D01*
X121500000Y-129695000D02*
X123050000Y-129695000D01*
X123050000Y-129695000D02*
X123050000Y-132795000D01*
X136652000Y-53086000D02*
X136652000Y-45466000D01*
X136652000Y-45466000D02*
X126492000Y-45466000D01*
X126492000Y-45466000D02*
X126492000Y-53086000D01*
X126492000Y-53086000D02*
X136652000Y-53086000D01*
X106800000Y-86900000D02*
G75*
G03X106800000Y-86900000I-3400000J0D01*
G01*
X75445000Y-86270000D02*
X75445000Y-86905000D01*
X75445000Y-86905000D02*
X66428000Y-86905000D01*
X66428000Y-86905000D02*
X66428000Y-78015000D01*
X66428000Y-78015000D02*
X75445000Y-78015000D01*
X75445000Y-78015000D02*
X75445000Y-78777000D01*
X72778000Y-78015000D02*
X66428000Y-78015000D01*
X72778000Y-86905000D02*
X66428000Y-86905000D01*
X75445000Y-78650000D02*
X75445000Y-86270000D01*
X66428000Y-78396000D02*
X66428000Y-86524000D01*
X163322000Y-67310000D02*
X160782000Y-67310000D01*
X160782000Y-67310000D02*
X160782000Y-74930000D01*
X160782000Y-74930000D02*
X163322000Y-74930000D01*
X163322000Y-74930000D02*
X163322000Y-67310000D01*
X159258000Y-67310000D02*
X156718000Y-67310000D01*
X156718000Y-67310000D02*
X156718000Y-74930000D01*
X156718000Y-74930000D02*
X159258000Y-74930000D01*
X159258000Y-74930000D02*
X159258000Y-67310000D01*
X155194000Y-67310000D02*
X152654000Y-67310000D01*
X152654000Y-67310000D02*
X152654000Y-74930000D01*
X152654000Y-74930000D02*
X155194000Y-74930000D01*
X155194000Y-74930000D02*
X155194000Y-67310000D01*
X151130000Y-67310000D02*
X148590000Y-67310000D01*
X148590000Y-67310000D02*
X148590000Y-74930000D01*
X148590000Y-74930000D02*
X151130000Y-74930000D01*
X151130000Y-74930000D02*
X151130000Y-67310000D01*
X147066000Y-67310000D02*
X144526000Y-67310000D01*
X144526000Y-67310000D02*
X144526000Y-74930000D01*
X144526000Y-74930000D02*
X147066000Y-74930000D01*
X147066000Y-74930000D02*
X147066000Y-67310000D01*
X143002000Y-67310000D02*
X140462000Y-67310000D01*
X140462000Y-67310000D02*
X140462000Y-74930000D01*
X140462000Y-74930000D02*
X143002000Y-74930000D01*
X143002000Y-74930000D02*
X143002000Y-67310000D01*
X138938000Y-67310000D02*
X136398000Y-67310000D01*
X136398000Y-67310000D02*
X136398000Y-74930000D01*
X136398000Y-74930000D02*
X138938000Y-74930000D01*
X138938000Y-74930000D02*
X138938000Y-67310000D01*
X134874000Y-67310000D02*
X132334000Y-67310000D01*
X132334000Y-67310000D02*
X132334000Y-74930000D01*
X132334000Y-74930000D02*
X134874000Y-74930000D01*
X134874000Y-74930000D02*
X134874000Y-67310000D01*
X130810000Y-67310000D02*
X128270000Y-67310000D01*
X128270000Y-67310000D02*
X128270000Y-74930000D01*
X128270000Y-74930000D02*
X130810000Y-74930000D01*
X130810000Y-74930000D02*
X130810000Y-67310000D01*
X126746000Y-67310000D02*
X124206000Y-67310000D01*
X124206000Y-67310000D02*
X124206000Y-74930000D01*
X124206000Y-74930000D02*
X126746000Y-74930000D01*
X126746000Y-74930000D02*
X126746000Y-67310000D01*
X122682000Y-67310000D02*
X120142000Y-67310000D01*
X120142000Y-67310000D02*
X120142000Y-74930000D01*
X120142000Y-74930000D02*
X122682000Y-74930000D01*
X122682000Y-74930000D02*
X122682000Y-67310000D01*
X118618000Y-67310000D02*
X116078000Y-67310000D01*
X116078000Y-67310000D02*
X116078000Y-74930000D01*
X116078000Y-74930000D02*
X118618000Y-74930000D01*
X118618000Y-74930000D02*
X118618000Y-67310000D01*
X114554000Y-67310000D02*
X112014000Y-67310000D01*
X112014000Y-67310000D02*
X112014000Y-74930000D01*
X112014000Y-74930000D02*
X114554000Y-74930000D01*
X114554000Y-74930000D02*
X114554000Y-67310000D01*
X110490000Y-67310000D02*
X107950000Y-67310000D01*
X107950000Y-67310000D02*
X107950000Y-74930000D01*
X107950000Y-74930000D02*
X110490000Y-74930000D01*
X110490000Y-74930000D02*
X110490000Y-67310000D01*
X106426000Y-67310000D02*
X103886000Y-67310000D01*
X103886000Y-67310000D02*
X103886000Y-74930000D01*
X103886000Y-74930000D02*
X106426000Y-74930000D01*
X106426000Y-74930000D02*
X106426000Y-67310000D01*
X102362000Y-67310000D02*
X99822000Y-67310000D01*
X99822000Y-67310000D02*
X99822000Y-74930000D01*
X99822000Y-74930000D02*
X102362000Y-74930000D01*
X102362000Y-74930000D02*
X102362000Y-67310000D01*
D13*
X79130000Y-74900000D02*
X79130000Y-76100000D01*
X77370000Y-76100000D02*
X77370000Y-74900000D01*
X81300000Y-80730000D02*
X80100000Y-80730000D01*
X80100000Y-78970000D02*
X81300000Y-78970000D01*
X84730000Y-75500000D02*
X84730000Y-76700000D01*
X82970000Y-76700000D02*
X82970000Y-75500000D01*
X67120000Y-122700000D02*
X67120000Y-121500000D01*
X68880000Y-121500000D02*
X68880000Y-122700000D01*
X120850000Y-134730000D02*
X119650000Y-134730000D01*
X119650000Y-132970000D02*
X120850000Y-132970000D01*
X162932000Y-63916000D02*
X162932000Y-65116000D01*
X161172000Y-65116000D02*
X161172000Y-63916000D01*
X162188000Y-78324000D02*
X162188000Y-77124000D01*
X163948000Y-77124000D02*
X163948000Y-78324000D01*
X160156000Y-78324000D02*
X160156000Y-77124000D01*
X161916000Y-77124000D02*
X161916000Y-78324000D01*
X158868000Y-63916000D02*
X158868000Y-65116000D01*
X157108000Y-65116000D02*
X157108000Y-63916000D01*
X158124000Y-78324000D02*
X158124000Y-77124000D01*
X159884000Y-77124000D02*
X159884000Y-78324000D01*
X156092000Y-78324000D02*
X156092000Y-77124000D01*
X157852000Y-77124000D02*
X157852000Y-78324000D01*
X154804000Y-63916000D02*
X154804000Y-65116000D01*
X153044000Y-65116000D02*
X153044000Y-63916000D01*
X154060000Y-78324000D02*
X154060000Y-77124000D01*
X155820000Y-77124000D02*
X155820000Y-78324000D01*
X152028000Y-78324000D02*
X152028000Y-77124000D01*
X153788000Y-77124000D02*
X153788000Y-78324000D01*
X150740000Y-63916000D02*
X150740000Y-65116000D01*
X148980000Y-65116000D02*
X148980000Y-63916000D01*
X149996000Y-78324000D02*
X149996000Y-77124000D01*
X151756000Y-77124000D02*
X151756000Y-78324000D01*
X146676000Y-63916000D02*
X146676000Y-65116000D01*
X144916000Y-65116000D02*
X144916000Y-63916000D01*
X145932000Y-78324000D02*
X145932000Y-77124000D01*
X147692000Y-77124000D02*
X147692000Y-78324000D01*
X143900000Y-78324000D02*
X143900000Y-77124000D01*
X145660000Y-77124000D02*
X145660000Y-78324000D01*
X142612000Y-63916000D02*
X142612000Y-65116000D01*
X140852000Y-65116000D02*
X140852000Y-63916000D01*
X141868000Y-78324000D02*
X141868000Y-77124000D01*
X143628000Y-77124000D02*
X143628000Y-78324000D01*
X139836000Y-78324000D02*
X139836000Y-77124000D01*
X141596000Y-77124000D02*
X141596000Y-78324000D01*
X138548000Y-63916000D02*
X138548000Y-65116000D01*
X136788000Y-65116000D02*
X136788000Y-63916000D01*
X137804000Y-78324000D02*
X137804000Y-77124000D01*
X139564000Y-77124000D02*
X139564000Y-78324000D01*
X135772000Y-78324000D02*
X135772000Y-77124000D01*
X137532000Y-77124000D02*
X137532000Y-78324000D01*
X134484000Y-63916000D02*
X134484000Y-65116000D01*
X132724000Y-65116000D02*
X132724000Y-63916000D01*
X133740000Y-78324000D02*
X133740000Y-77124000D01*
X135500000Y-77124000D02*
X135500000Y-78324000D01*
X131708000Y-78324000D02*
X131708000Y-77124000D01*
X133468000Y-77124000D02*
X133468000Y-78324000D01*
X130420000Y-63916000D02*
X130420000Y-65116000D01*
X128660000Y-65116000D02*
X128660000Y-63916000D01*
X127644000Y-78324000D02*
X127644000Y-77124000D01*
X129404000Y-77124000D02*
X129404000Y-78324000D01*
X129676000Y-78324000D02*
X129676000Y-77124000D01*
X131436000Y-77124000D02*
X131436000Y-78324000D01*
X126356000Y-63916000D02*
X126356000Y-65116000D01*
X124596000Y-65116000D02*
X124596000Y-63916000D01*
X125612000Y-78324000D02*
X125612000Y-77124000D01*
X127372000Y-77124000D02*
X127372000Y-78324000D01*
X123580000Y-78324000D02*
X123580000Y-77124000D01*
X125340000Y-77124000D02*
X125340000Y-78324000D01*
X122292000Y-63916000D02*
X122292000Y-65116000D01*
X120532000Y-65116000D02*
X120532000Y-63916000D01*
X121548000Y-78324000D02*
X121548000Y-77124000D01*
X123308000Y-77124000D02*
X123308000Y-78324000D01*
X119516000Y-78324000D02*
X119516000Y-77124000D01*
X121276000Y-77124000D02*
X121276000Y-78324000D01*
X118228000Y-63916000D02*
X118228000Y-65116000D01*
X116468000Y-65116000D02*
X116468000Y-63916000D01*
X117484000Y-78324000D02*
X117484000Y-77124000D01*
X119244000Y-77124000D02*
X119244000Y-78324000D01*
X115452000Y-78324000D02*
X115452000Y-77124000D01*
X117212000Y-77124000D02*
X117212000Y-78324000D01*
X114164000Y-63916000D02*
X114164000Y-65116000D01*
X112404000Y-65116000D02*
X112404000Y-63916000D01*
X113420000Y-78324000D02*
X113420000Y-77124000D01*
X115180000Y-77124000D02*
X115180000Y-78324000D01*
X111388000Y-78324000D02*
X111388000Y-77124000D01*
X113148000Y-77124000D02*
X113148000Y-78324000D01*
X110100000Y-63916000D02*
X110100000Y-65116000D01*
X108340000Y-65116000D02*
X108340000Y-63916000D01*
X109356000Y-78324000D02*
X109356000Y-77124000D01*
X111116000Y-77124000D02*
X111116000Y-78324000D01*
X107324000Y-78324000D02*
X107324000Y-77124000D01*
X109084000Y-77124000D02*
X109084000Y-78324000D01*
X106036000Y-63916000D02*
X106036000Y-65116000D01*
X104276000Y-65116000D02*
X104276000Y-63916000D01*
X105292000Y-78324000D02*
X105292000Y-77124000D01*
X107052000Y-77124000D02*
X107052000Y-78324000D01*
X103260000Y-78324000D02*
X103260000Y-77124000D01*
X105020000Y-77124000D02*
X105020000Y-78324000D01*
X101972000Y-63916000D02*
X101972000Y-65116000D01*
X100212000Y-65116000D02*
X100212000Y-63916000D01*
X101228000Y-78324000D02*
X101228000Y-77124000D01*
X102988000Y-77124000D02*
X102988000Y-78324000D01*
X99196000Y-78324000D02*
X99196000Y-77124000D01*
X100956000Y-77124000D02*
X100956000Y-78324000D01*
D14*
X167005000Y-79375000D02*
X167005000Y-80645000D01*
X167005000Y-52705000D02*
X167005000Y-51435000D01*
X165100000Y-79375000D02*
X165100000Y-52705000D01*
X165100000Y-52705000D02*
X168910000Y-52705000D01*
X168910000Y-52705000D02*
X168910000Y-79375000D01*
X168910000Y-79375000D02*
X165100000Y-79375000D01*
X171450000Y-79375000D02*
X171450000Y-80645000D01*
X171450000Y-52705000D02*
X171450000Y-51435000D01*
X169545000Y-79375000D02*
X169545000Y-52705000D01*
X169545000Y-52705000D02*
X173355000Y-52705000D01*
X173355000Y-52705000D02*
X173355000Y-79375000D01*
X173355000Y-79375000D02*
X169545000Y-79375000D01*
X175895000Y-79375000D02*
X175895000Y-80645000D01*
X175895000Y-52705000D02*
X175895000Y-51435000D01*
X173990000Y-79375000D02*
X173990000Y-52705000D01*
X173990000Y-52705000D02*
X177800000Y-52705000D01*
X177800000Y-52705000D02*
X177800000Y-79375000D01*
X177800000Y-79375000D02*
X173990000Y-79375000D01*
X180340000Y-79375000D02*
X180340000Y-80645000D01*
X180340000Y-52705000D02*
X180340000Y-51435000D01*
X178435000Y-79375000D02*
X178435000Y-52705000D01*
X178435000Y-52705000D02*
X182245000Y-52705000D01*
X182245000Y-52705000D02*
X182245000Y-79375000D01*
X182245000Y-79375000D02*
X178435000Y-79375000D01*
X184785000Y-79375000D02*
X184785000Y-80645000D01*
X184785000Y-52705000D02*
X184785000Y-51435000D01*
X182880000Y-79375000D02*
X182880000Y-52705000D01*
X182880000Y-52705000D02*
X186690000Y-52705000D01*
X186690000Y-52705000D02*
X186690000Y-79375000D01*
X186690000Y-79375000D02*
X182880000Y-79375000D01*
X83566000Y-123698000D02*
X83566000Y-118618000D01*
X83566000Y-118618000D02*
X81026000Y-118618000D01*
X81026000Y-118618000D02*
X81026000Y-123698000D01*
X81026000Y-123698000D02*
X83566000Y-123698000D01*
X88646000Y-123698000D02*
X88646000Y-118618000D01*
X88646000Y-118618000D02*
X86106000Y-118618000D01*
X86106000Y-118618000D02*
X86106000Y-123698000D01*
X86106000Y-123698000D02*
X88646000Y-123698000D01*
X90385000Y-75145000D02*
X90385000Y-75120000D01*
X90385000Y-67095000D02*
X90385000Y-67120000D01*
X95035000Y-67095000D02*
X95035000Y-67120000D01*
X96110000Y-75195000D02*
X90385000Y-75195000D01*
X95035000Y-67095000D02*
X90385000Y-67095000D01*
X87125000Y-84875000D02*
X87575000Y-84875000D01*
X87125000Y-77625000D02*
X87650000Y-77625000D01*
X94375000Y-77625000D02*
X93850000Y-77625000D01*
X94375000Y-84875000D02*
X93850000Y-84875000D01*
X87125000Y-84875000D02*
X87125000Y-84350000D01*
X94375000Y-84875000D02*
X94375000Y-84350000D01*
X94375000Y-77625000D02*
X94375000Y-78150000D01*
X87125000Y-77625000D02*
X87125000Y-78150000D01*
X87575000Y-84875000D02*
X87575000Y-86250000D01*
X120125000Y-105870000D02*
X119475000Y-105870000D01*
X120125000Y-120120000D02*
X119365000Y-120120000D01*
X105875000Y-120120000D02*
X106635000Y-120120000D01*
X105875000Y-105870000D02*
X106635000Y-105870000D01*
X120125000Y-105870000D02*
X120125000Y-106630000D01*
X105875000Y-105870000D02*
X105875000Y-106630000D01*
X105875000Y-120120000D02*
X105875000Y-119360000D01*
X120125000Y-120120000D02*
X120125000Y-119360000D01*
X119475000Y-105870000D02*
X119475000Y-104345000D01*
X161695000Y-61111000D02*
X161695000Y-60936000D01*
X158345000Y-61111000D02*
X158345000Y-60861000D01*
X158345000Y-57761000D02*
X158345000Y-58011000D01*
X161695000Y-57761000D02*
X161695000Y-58011000D01*
X161695000Y-61111000D02*
X158345000Y-61111000D01*
X161695000Y-57761000D02*
X158345000Y-57761000D01*
X161695000Y-60936000D02*
X162945000Y-60936000D01*
X153567000Y-61111000D02*
X153567000Y-60936000D01*
X150217000Y-61111000D02*
X150217000Y-60861000D01*
X150217000Y-57761000D02*
X150217000Y-58011000D01*
X153567000Y-57761000D02*
X153567000Y-58011000D01*
X153567000Y-61111000D02*
X150217000Y-61111000D01*
X153567000Y-57761000D02*
X150217000Y-57761000D01*
X153567000Y-60936000D02*
X154817000Y-60936000D01*
X145439000Y-61111000D02*
X145439000Y-60936000D01*
X142089000Y-61111000D02*
X142089000Y-60861000D01*
X142089000Y-57761000D02*
X142089000Y-58011000D01*
X145439000Y-57761000D02*
X145439000Y-58011000D01*
X145439000Y-61111000D02*
X142089000Y-61111000D01*
X145439000Y-57761000D02*
X142089000Y-57761000D01*
X145439000Y-60936000D02*
X146689000Y-60936000D01*
X137311000Y-61111000D02*
X137311000Y-60936000D01*
X133961000Y-61111000D02*
X133961000Y-60861000D01*
X133961000Y-57761000D02*
X133961000Y-58011000D01*
X137311000Y-57761000D02*
X137311000Y-58011000D01*
X137311000Y-61111000D02*
X133961000Y-61111000D01*
X137311000Y-57761000D02*
X133961000Y-57761000D01*
X137311000Y-60936000D02*
X138561000Y-60936000D01*
X129183000Y-61111000D02*
X129183000Y-60936000D01*
X125833000Y-61111000D02*
X125833000Y-60861000D01*
X125833000Y-57761000D02*
X125833000Y-58011000D01*
X129183000Y-57761000D02*
X129183000Y-58011000D01*
X129183000Y-61111000D02*
X125833000Y-61111000D01*
X129183000Y-57761000D02*
X125833000Y-57761000D01*
X129183000Y-60936000D02*
X130433000Y-60936000D01*
X121055000Y-61111000D02*
X121055000Y-60936000D01*
X117705000Y-61111000D02*
X117705000Y-60861000D01*
X117705000Y-57761000D02*
X117705000Y-58011000D01*
X121055000Y-57761000D02*
X121055000Y-58011000D01*
X121055000Y-61111000D02*
X117705000Y-61111000D01*
X121055000Y-57761000D02*
X117705000Y-57761000D01*
X121055000Y-60936000D02*
X122305000Y-60936000D01*
X112927000Y-61111000D02*
X112927000Y-60936000D01*
X109577000Y-61111000D02*
X109577000Y-60861000D01*
X109577000Y-57761000D02*
X109577000Y-58011000D01*
X112927000Y-57761000D02*
X112927000Y-58011000D01*
X112927000Y-61111000D02*
X109577000Y-61111000D01*
X112927000Y-57761000D02*
X109577000Y-57761000D01*
X112927000Y-60936000D02*
X114177000Y-60936000D01*
X104799000Y-61111000D02*
X104799000Y-60936000D01*
X101449000Y-61111000D02*
X101449000Y-60861000D01*
X101449000Y-57761000D02*
X101449000Y-58011000D01*
X104799000Y-57761000D02*
X104799000Y-58011000D01*
X104799000Y-61111000D02*
X101449000Y-61111000D01*
X104799000Y-57761000D02*
X101449000Y-57761000D01*
X104799000Y-60936000D02*
X106049000Y-60936000D01*
D13*
X68707000Y-130425000D02*
X60067000Y-130425000D01*
X77087000Y-130425000D02*
X72007000Y-130425000D01*
X68707000Y-142625000D02*
X60067000Y-142625000D01*
X77087000Y-142625000D02*
X72007000Y-142625000D01*
X60067000Y-142625000D02*
X60067000Y-130425000D01*
X77087000Y-130425000D02*
X77087000Y-142625000D01*
X146800000Y-117100000D02*
X138500000Y-117100000D01*
X146800000Y-113400000D02*
X138500000Y-113400000D01*
X146800000Y-117100000D02*
X146800000Y-113400000D01*
X135800000Y-128600000D02*
X135800000Y-127600000D01*
X134100000Y-127600000D02*
X134100000Y-128600000D01*
X94800000Y-92345000D02*
X86500000Y-92345000D01*
X94800000Y-88645000D02*
X86500000Y-88645000D01*
X94800000Y-92345000D02*
X94800000Y-88645000D01*
X82310000Y-99545000D02*
X82550000Y-99545000D01*
X82550000Y-99545000D02*
X82550000Y-97945000D01*
X89950000Y-97945000D02*
X89950000Y-99545000D01*
X84810000Y-96005000D02*
X87690000Y-96005000D01*
X87690000Y-101485000D02*
X84810000Y-101485000D01*
X84810000Y-101485000D02*
X84810000Y-102945000D01*
X118300000Y-128845000D02*
X110000000Y-128845000D01*
X118300000Y-125145000D02*
X110000000Y-125145000D01*
X118300000Y-128845000D02*
X118300000Y-125145000D01*
X69170000Y-128490000D02*
X71830000Y-128490000D01*
X69170000Y-118270000D02*
X69170000Y-128490000D01*
X71830000Y-118270000D02*
X71830000Y-128490000D01*
X69170000Y-118270000D02*
X71830000Y-118270000D01*
X69170000Y-117000000D02*
X69170000Y-115670000D01*
X69170000Y-115670000D02*
X70500000Y-115670000D01*
D14*
X62833334Y-78122381D02*
X62357143Y-78122381D01*
X62357143Y-77122381D01*
X63738096Y-78027143D02*
X63690477Y-78074762D01*
X63547620Y-78122381D01*
X63452382Y-78122381D01*
X63309524Y-78074762D01*
X63214286Y-77979524D01*
X63166667Y-77884286D01*
X63119048Y-77693810D01*
X63119048Y-77550952D01*
X63166667Y-77360476D01*
X63214286Y-77265238D01*
X63309524Y-77170000D01*
X63452382Y-77122381D01*
X63547620Y-77122381D01*
X63690477Y-77170000D01*
X63738096Y-77217619D01*
X64166667Y-78122381D02*
X64166667Y-77122381D01*
X64404762Y-77122381D01*
X64547620Y-77170000D01*
X64642858Y-77265238D01*
X64690477Y-77360476D01*
X64738096Y-77550952D01*
X64738096Y-77693810D01*
X64690477Y-77884286D01*
X64642858Y-77979524D01*
X64547620Y-78074762D01*
X64404762Y-78122381D01*
X64166667Y-78122381D01*
X65690477Y-78122381D02*
X65119048Y-78122381D01*
X65404762Y-78122381D02*
X65404762Y-77122381D01*
X65309524Y-77265238D01*
X65214286Y-77360476D01*
X65119048Y-77408095D01*
X131603809Y-109958190D02*
X131603809Y-110434381D01*
X131270476Y-109434381D02*
X131603809Y-109958190D01*
X131937143Y-109434381D01*
X132222857Y-109529619D02*
X132270476Y-109482000D01*
X132365714Y-109434381D01*
X132603810Y-109434381D01*
X132699048Y-109482000D01*
X132746667Y-109529619D01*
X132794286Y-109624857D01*
X132794286Y-109720095D01*
X132746667Y-109862952D01*
X132175238Y-110434381D01*
X132794286Y-110434381D01*
X116011905Y-100702381D02*
X116011905Y-101511905D01*
X116059524Y-101607143D01*
X116107143Y-101654762D01*
X116202381Y-101702381D01*
X116392858Y-101702381D01*
X116488096Y-101654762D01*
X116535715Y-101607143D01*
X116583334Y-101511905D01*
X116583334Y-100702381D01*
X117583334Y-101702381D02*
X117011905Y-101702381D01*
X117297619Y-101702381D02*
X117297619Y-100702381D01*
X117202381Y-100845238D01*
X117107143Y-100940476D01*
X117011905Y-100988095D01*
X117916667Y-100702381D02*
X118535715Y-100702381D01*
X118202381Y-101083333D01*
X118345239Y-101083333D01*
X118440477Y-101130952D01*
X118488096Y-101178571D01*
X118535715Y-101273810D01*
X118535715Y-101511905D01*
X118488096Y-101607143D01*
X118440477Y-101654762D01*
X118345239Y-101702381D01*
X118059524Y-101702381D01*
X117964286Y-101654762D01*
X117916667Y-101607143D01*
X104607143Y-91357143D02*
X104559524Y-91404762D01*
X104416667Y-91452381D01*
X104321429Y-91452381D01*
X104178571Y-91404762D01*
X104083333Y-91309524D01*
X104035714Y-91214286D01*
X103988095Y-91023810D01*
X103988095Y-90880952D01*
X104035714Y-90690476D01*
X104083333Y-90595238D01*
X104178571Y-90500000D01*
X104321429Y-90452381D01*
X104416667Y-90452381D01*
X104559524Y-90500000D01*
X104607143Y-90547619D01*
X105511905Y-90452381D02*
X105035714Y-90452381D01*
X104988095Y-90928571D01*
X105035714Y-90880952D01*
X105130952Y-90833333D01*
X105369048Y-90833333D01*
X105464286Y-90880952D01*
X105511905Y-90928571D01*
X105559524Y-91023810D01*
X105559524Y-91261905D01*
X105511905Y-91357143D01*
X105464286Y-91404762D01*
X105369048Y-91452381D01*
X105130952Y-91452381D01*
X105035714Y-91404762D01*
X104988095Y-91357143D01*
X105940476Y-90547619D02*
X105988095Y-90500000D01*
X106083333Y-90452381D01*
X106321429Y-90452381D01*
X106416667Y-90500000D01*
X106464286Y-90547619D01*
X106511905Y-90642857D01*
X106511905Y-90738095D01*
X106464286Y-90880952D01*
X105892857Y-91452381D01*
X106511905Y-91452381D01*
X149296381Y-82430857D02*
X148820190Y-82764191D01*
X149296381Y-83002286D02*
X148296381Y-83002286D01*
X148296381Y-82621333D01*
X148344000Y-82526095D01*
X148391619Y-82478476D01*
X148486857Y-82430857D01*
X148629714Y-82430857D01*
X148724952Y-82478476D01*
X148772571Y-82526095D01*
X148820190Y-82621333D01*
X148820190Y-83002286D01*
X148391619Y-82049905D02*
X148344000Y-82002286D01*
X148296381Y-81907048D01*
X148296381Y-81668952D01*
X148344000Y-81573714D01*
X148391619Y-81526095D01*
X148486857Y-81478476D01*
X148582095Y-81478476D01*
X148724952Y-81526095D01*
X149296381Y-82097524D01*
X149296381Y-81478476D01*
X148629714Y-80621333D02*
X149296381Y-80621333D01*
X148248762Y-80859429D02*
X148963048Y-81097524D01*
X148963048Y-80478476D01*
X194651334Y-132691143D02*
X194603715Y-132738762D01*
X194460858Y-132786381D01*
X194365620Y-132786381D01*
X194222762Y-132738762D01*
X194127524Y-132643524D01*
X194079905Y-132548286D01*
X194032286Y-132357810D01*
X194032286Y-132214952D01*
X194079905Y-132024476D01*
X194127524Y-131929238D01*
X194222762Y-131834000D01*
X194365620Y-131786381D01*
X194460858Y-131786381D01*
X194603715Y-131834000D01*
X194651334Y-131881619D01*
X195603715Y-132786381D02*
X195032286Y-132786381D01*
X195318000Y-132786381D02*
X195318000Y-131786381D01*
X195222762Y-131929238D01*
X195127524Y-132024476D01*
X195032286Y-132072095D01*
X194397334Y-137009143D02*
X194349715Y-137056762D01*
X194206858Y-137104381D01*
X194111620Y-137104381D01*
X193968762Y-137056762D01*
X193873524Y-136961524D01*
X193825905Y-136866286D01*
X193778286Y-136675810D01*
X193778286Y-136532952D01*
X193825905Y-136342476D01*
X193873524Y-136247238D01*
X193968762Y-136152000D01*
X194111620Y-136104381D01*
X194206858Y-136104381D01*
X194349715Y-136152000D01*
X194397334Y-136199619D01*
X194778286Y-136199619D02*
X194825905Y-136152000D01*
X194921143Y-136104381D01*
X195159239Y-136104381D01*
X195254477Y-136152000D01*
X195302096Y-136199619D01*
X195349715Y-136294857D01*
X195349715Y-136390095D01*
X195302096Y-136532952D01*
X194730667Y-137104381D01*
X195349715Y-137104381D01*
X186777334Y-135739143D02*
X186729715Y-135786762D01*
X186586858Y-135834381D01*
X186491620Y-135834381D01*
X186348762Y-135786762D01*
X186253524Y-135691524D01*
X186205905Y-135596286D01*
X186158286Y-135405810D01*
X186158286Y-135262952D01*
X186205905Y-135072476D01*
X186253524Y-134977238D01*
X186348762Y-134882000D01*
X186491620Y-134834381D01*
X186586858Y-134834381D01*
X186729715Y-134882000D01*
X186777334Y-134929619D01*
X187110667Y-134834381D02*
X187729715Y-134834381D01*
X187396381Y-135215333D01*
X187539239Y-135215333D01*
X187634477Y-135262952D01*
X187682096Y-135310571D01*
X187729715Y-135405810D01*
X187729715Y-135643905D01*
X187682096Y-135739143D01*
X187634477Y-135786762D01*
X187539239Y-135834381D01*
X187253524Y-135834381D01*
X187158286Y-135786762D01*
X187110667Y-135739143D01*
X81357143Y-86657143D02*
X81309524Y-86704762D01*
X81166667Y-86752381D01*
X81071429Y-86752381D01*
X80928571Y-86704762D01*
X80833333Y-86609524D01*
X80785714Y-86514286D01*
X80738095Y-86323810D01*
X80738095Y-86180952D01*
X80785714Y-85990476D01*
X80833333Y-85895238D01*
X80928571Y-85800000D01*
X81071429Y-85752381D01*
X81166667Y-85752381D01*
X81309524Y-85800000D01*
X81357143Y-85847619D01*
X82309524Y-86752381D02*
X81738095Y-86752381D01*
X82023809Y-86752381D02*
X82023809Y-85752381D01*
X81928571Y-85895238D01*
X81833333Y-85990476D01*
X81738095Y-86038095D01*
X82785714Y-86752381D02*
X82976190Y-86752381D01*
X83071429Y-86704762D01*
X83119048Y-86657143D01*
X83214286Y-86514286D01*
X83261905Y-86323810D01*
X83261905Y-85942857D01*
X83214286Y-85847619D01*
X83166667Y-85800000D01*
X83071429Y-85752381D01*
X82880952Y-85752381D01*
X82785714Y-85800000D01*
X82738095Y-85847619D01*
X82690476Y-85942857D01*
X82690476Y-86180952D01*
X82738095Y-86276190D01*
X82785714Y-86323810D01*
X82880952Y-86371429D01*
X83071429Y-86371429D01*
X83166667Y-86323810D01*
X83214286Y-86276190D01*
X83261905Y-86180952D01*
X155313143Y-56237143D02*
X155265524Y-56284762D01*
X155122667Y-56332381D01*
X155027429Y-56332381D01*
X154884571Y-56284762D01*
X154789333Y-56189524D01*
X154741714Y-56094286D01*
X154694095Y-55903810D01*
X154694095Y-55760952D01*
X154741714Y-55570476D01*
X154789333Y-55475238D01*
X154884571Y-55380000D01*
X155027429Y-55332381D01*
X155122667Y-55332381D01*
X155265524Y-55380000D01*
X155313143Y-55427619D01*
X155694095Y-55427619D02*
X155741714Y-55380000D01*
X155836952Y-55332381D01*
X156075048Y-55332381D01*
X156170286Y-55380000D01*
X156217905Y-55427619D01*
X156265524Y-55522857D01*
X156265524Y-55618095D01*
X156217905Y-55760952D01*
X155646476Y-56332381D01*
X156265524Y-56332381D01*
X156884571Y-55332381D02*
X156979810Y-55332381D01*
X157075048Y-55380000D01*
X157122667Y-55427619D01*
X157170286Y-55522857D01*
X157217905Y-55713333D01*
X157217905Y-55951429D01*
X157170286Y-56141905D01*
X157122667Y-56237143D01*
X157075048Y-56284762D01*
X156979810Y-56332381D01*
X156884571Y-56332381D01*
X156789333Y-56284762D01*
X156741714Y-56237143D01*
X156694095Y-56141905D01*
X156646476Y-55951429D01*
X156646476Y-55713333D01*
X156694095Y-55522857D01*
X156741714Y-55427619D01*
X156789333Y-55380000D01*
X156884571Y-55332381D01*
X147185143Y-56237143D02*
X147137524Y-56284762D01*
X146994667Y-56332381D01*
X146899429Y-56332381D01*
X146756571Y-56284762D01*
X146661333Y-56189524D01*
X146613714Y-56094286D01*
X146566095Y-55903810D01*
X146566095Y-55760952D01*
X146613714Y-55570476D01*
X146661333Y-55475238D01*
X146756571Y-55380000D01*
X146899429Y-55332381D01*
X146994667Y-55332381D01*
X147137524Y-55380000D01*
X147185143Y-55427619D01*
X147566095Y-55427619D02*
X147613714Y-55380000D01*
X147708952Y-55332381D01*
X147947048Y-55332381D01*
X148042286Y-55380000D01*
X148089905Y-55427619D01*
X148137524Y-55522857D01*
X148137524Y-55618095D01*
X148089905Y-55760952D01*
X147518476Y-56332381D01*
X148137524Y-56332381D01*
X149089905Y-56332381D02*
X148518476Y-56332381D01*
X148804190Y-56332381D02*
X148804190Y-55332381D01*
X148708952Y-55475238D01*
X148613714Y-55570476D01*
X148518476Y-55618095D01*
X139057143Y-56237143D02*
X139009524Y-56284762D01*
X138866667Y-56332381D01*
X138771429Y-56332381D01*
X138628571Y-56284762D01*
X138533333Y-56189524D01*
X138485714Y-56094286D01*
X138438095Y-55903810D01*
X138438095Y-55760952D01*
X138485714Y-55570476D01*
X138533333Y-55475238D01*
X138628571Y-55380000D01*
X138771429Y-55332381D01*
X138866667Y-55332381D01*
X139009524Y-55380000D01*
X139057143Y-55427619D01*
X139438095Y-55427619D02*
X139485714Y-55380000D01*
X139580952Y-55332381D01*
X139819048Y-55332381D01*
X139914286Y-55380000D01*
X139961905Y-55427619D01*
X140009524Y-55522857D01*
X140009524Y-55618095D01*
X139961905Y-55760952D01*
X139390476Y-56332381D01*
X140009524Y-56332381D01*
X140390476Y-55427619D02*
X140438095Y-55380000D01*
X140533333Y-55332381D01*
X140771429Y-55332381D01*
X140866667Y-55380000D01*
X140914286Y-55427619D01*
X140961905Y-55522857D01*
X140961905Y-55618095D01*
X140914286Y-55760952D01*
X140342857Y-56332381D01*
X140961905Y-56332381D01*
X130929143Y-56237143D02*
X130881524Y-56284762D01*
X130738667Y-56332381D01*
X130643429Y-56332381D01*
X130500571Y-56284762D01*
X130405333Y-56189524D01*
X130357714Y-56094286D01*
X130310095Y-55903810D01*
X130310095Y-55760952D01*
X130357714Y-55570476D01*
X130405333Y-55475238D01*
X130500571Y-55380000D01*
X130643429Y-55332381D01*
X130738667Y-55332381D01*
X130881524Y-55380000D01*
X130929143Y-55427619D01*
X131310095Y-55427619D02*
X131357714Y-55380000D01*
X131452952Y-55332381D01*
X131691048Y-55332381D01*
X131786286Y-55380000D01*
X131833905Y-55427619D01*
X131881524Y-55522857D01*
X131881524Y-55618095D01*
X131833905Y-55760952D01*
X131262476Y-56332381D01*
X131881524Y-56332381D01*
X132214857Y-55332381D02*
X132833905Y-55332381D01*
X132500571Y-55713333D01*
X132643429Y-55713333D01*
X132738667Y-55760952D01*
X132786286Y-55808571D01*
X132833905Y-55903810D01*
X132833905Y-56141905D01*
X132786286Y-56237143D01*
X132738667Y-56284762D01*
X132643429Y-56332381D01*
X132357714Y-56332381D01*
X132262476Y-56284762D01*
X132214857Y-56237143D01*
X122801143Y-56237143D02*
X122753524Y-56284762D01*
X122610667Y-56332381D01*
X122515429Y-56332381D01*
X122372571Y-56284762D01*
X122277333Y-56189524D01*
X122229714Y-56094286D01*
X122182095Y-55903810D01*
X122182095Y-55760952D01*
X122229714Y-55570476D01*
X122277333Y-55475238D01*
X122372571Y-55380000D01*
X122515429Y-55332381D01*
X122610667Y-55332381D01*
X122753524Y-55380000D01*
X122801143Y-55427619D01*
X123182095Y-55427619D02*
X123229714Y-55380000D01*
X123324952Y-55332381D01*
X123563048Y-55332381D01*
X123658286Y-55380000D01*
X123705905Y-55427619D01*
X123753524Y-55522857D01*
X123753524Y-55618095D01*
X123705905Y-55760952D01*
X123134476Y-56332381D01*
X123753524Y-56332381D01*
X124610667Y-55665714D02*
X124610667Y-56332381D01*
X124372571Y-55284762D02*
X124134476Y-55999048D01*
X124753524Y-55999048D01*
X114673143Y-56237143D02*
X114625524Y-56284762D01*
X114482667Y-56332381D01*
X114387429Y-56332381D01*
X114244571Y-56284762D01*
X114149333Y-56189524D01*
X114101714Y-56094286D01*
X114054095Y-55903810D01*
X114054095Y-55760952D01*
X114101714Y-55570476D01*
X114149333Y-55475238D01*
X114244571Y-55380000D01*
X114387429Y-55332381D01*
X114482667Y-55332381D01*
X114625524Y-55380000D01*
X114673143Y-55427619D01*
X115054095Y-55427619D02*
X115101714Y-55380000D01*
X115196952Y-55332381D01*
X115435048Y-55332381D01*
X115530286Y-55380000D01*
X115577905Y-55427619D01*
X115625524Y-55522857D01*
X115625524Y-55618095D01*
X115577905Y-55760952D01*
X115006476Y-56332381D01*
X115625524Y-56332381D01*
X116530286Y-55332381D02*
X116054095Y-55332381D01*
X116006476Y-55808571D01*
X116054095Y-55760952D01*
X116149333Y-55713333D01*
X116387429Y-55713333D01*
X116482667Y-55760952D01*
X116530286Y-55808571D01*
X116577905Y-55903810D01*
X116577905Y-56141905D01*
X116530286Y-56237143D01*
X116482667Y-56284762D01*
X116387429Y-56332381D01*
X116149333Y-56332381D01*
X116054095Y-56284762D01*
X116006476Y-56237143D01*
X106545143Y-56237143D02*
X106497524Y-56284762D01*
X106354667Y-56332381D01*
X106259429Y-56332381D01*
X106116571Y-56284762D01*
X106021333Y-56189524D01*
X105973714Y-56094286D01*
X105926095Y-55903810D01*
X105926095Y-55760952D01*
X105973714Y-55570476D01*
X106021333Y-55475238D01*
X106116571Y-55380000D01*
X106259429Y-55332381D01*
X106354667Y-55332381D01*
X106497524Y-55380000D01*
X106545143Y-55427619D01*
X106926095Y-55427619D02*
X106973714Y-55380000D01*
X107068952Y-55332381D01*
X107307048Y-55332381D01*
X107402286Y-55380000D01*
X107449905Y-55427619D01*
X107497524Y-55522857D01*
X107497524Y-55618095D01*
X107449905Y-55760952D01*
X106878476Y-56332381D01*
X107497524Y-56332381D01*
X108354667Y-55332381D02*
X108164190Y-55332381D01*
X108068952Y-55380000D01*
X108021333Y-55427619D01*
X107926095Y-55570476D01*
X107878476Y-55760952D01*
X107878476Y-56141905D01*
X107926095Y-56237143D01*
X107973714Y-56284762D01*
X108068952Y-56332381D01*
X108259429Y-56332381D01*
X108354667Y-56284762D01*
X108402286Y-56237143D01*
X108449905Y-56141905D01*
X108449905Y-55903810D01*
X108402286Y-55808571D01*
X108354667Y-55760952D01*
X108259429Y-55713333D01*
X108068952Y-55713333D01*
X107973714Y-55760952D01*
X107926095Y-55808571D01*
X107878476Y-55903810D01*
X98417143Y-56237143D02*
X98369524Y-56284762D01*
X98226667Y-56332381D01*
X98131429Y-56332381D01*
X97988571Y-56284762D01*
X97893333Y-56189524D01*
X97845714Y-56094286D01*
X97798095Y-55903810D01*
X97798095Y-55760952D01*
X97845714Y-55570476D01*
X97893333Y-55475238D01*
X97988571Y-55380000D01*
X98131429Y-55332381D01*
X98226667Y-55332381D01*
X98369524Y-55380000D01*
X98417143Y-55427619D01*
X98798095Y-55427619D02*
X98845714Y-55380000D01*
X98940952Y-55332381D01*
X99179048Y-55332381D01*
X99274286Y-55380000D01*
X99321905Y-55427619D01*
X99369524Y-55522857D01*
X99369524Y-55618095D01*
X99321905Y-55760952D01*
X98750476Y-56332381D01*
X99369524Y-56332381D01*
X99702857Y-55332381D02*
X100369524Y-55332381D01*
X99940952Y-56332381D01*
X141107143Y-122357143D02*
X141059524Y-122404762D01*
X140916667Y-122452381D01*
X140821429Y-122452381D01*
X140678571Y-122404762D01*
X140583333Y-122309524D01*
X140535714Y-122214286D01*
X140488095Y-122023810D01*
X140488095Y-121880952D01*
X140535714Y-121690476D01*
X140583333Y-121595238D01*
X140678571Y-121500000D01*
X140821429Y-121452381D01*
X140916667Y-121452381D01*
X141059524Y-121500000D01*
X141107143Y-121547619D01*
X141488095Y-121547619D02*
X141535714Y-121500000D01*
X141630952Y-121452381D01*
X141869048Y-121452381D01*
X141964286Y-121500000D01*
X142011905Y-121547619D01*
X142059524Y-121642857D01*
X142059524Y-121738095D01*
X142011905Y-121880952D01*
X141440476Y-122452381D01*
X142059524Y-122452381D01*
X142535714Y-122452381D02*
X142726190Y-122452381D01*
X142821429Y-122404762D01*
X142869048Y-122357143D01*
X142964286Y-122214286D01*
X143011905Y-122023810D01*
X143011905Y-121642857D01*
X142964286Y-121547619D01*
X142916667Y-121500000D01*
X142821429Y-121452381D01*
X142630952Y-121452381D01*
X142535714Y-121500000D01*
X142488095Y-121547619D01*
X142440476Y-121642857D01*
X142440476Y-121880952D01*
X142488095Y-121976190D01*
X142535714Y-122023810D01*
X142630952Y-122071429D01*
X142821429Y-122071429D01*
X142916667Y-122023810D01*
X142964286Y-121976190D01*
X143011905Y-121880952D01*
X141107143Y-123852143D02*
X141059524Y-123899762D01*
X140916667Y-123947381D01*
X140821429Y-123947381D01*
X140678571Y-123899762D01*
X140583333Y-123804524D01*
X140535714Y-123709286D01*
X140488095Y-123518810D01*
X140488095Y-123375952D01*
X140535714Y-123185476D01*
X140583333Y-123090238D01*
X140678571Y-122995000D01*
X140821429Y-122947381D01*
X140916667Y-122947381D01*
X141059524Y-122995000D01*
X141107143Y-123042619D01*
X141440476Y-122947381D02*
X142059524Y-122947381D01*
X141726190Y-123328333D01*
X141869048Y-123328333D01*
X141964286Y-123375952D01*
X142011905Y-123423571D01*
X142059524Y-123518810D01*
X142059524Y-123756905D01*
X142011905Y-123852143D01*
X141964286Y-123899762D01*
X141869048Y-123947381D01*
X141583333Y-123947381D01*
X141488095Y-123899762D01*
X141440476Y-123852143D01*
X142678571Y-122947381D02*
X142773810Y-122947381D01*
X142869048Y-122995000D01*
X142916667Y-123042619D01*
X142964286Y-123137857D01*
X143011905Y-123328333D01*
X143011905Y-123566429D01*
X142964286Y-123756905D01*
X142916667Y-123852143D01*
X142869048Y-123899762D01*
X142773810Y-123947381D01*
X142678571Y-123947381D01*
X142583333Y-123899762D01*
X142535714Y-123852143D01*
X142488095Y-123756905D01*
X142440476Y-123566429D01*
X142440476Y-123328333D01*
X142488095Y-123137857D01*
X142535714Y-123042619D01*
X142583333Y-122995000D01*
X142678571Y-122947381D01*
X141107143Y-125602143D02*
X141059524Y-125649762D01*
X140916667Y-125697381D01*
X140821429Y-125697381D01*
X140678571Y-125649762D01*
X140583333Y-125554524D01*
X140535714Y-125459286D01*
X140488095Y-125268810D01*
X140488095Y-125125952D01*
X140535714Y-124935476D01*
X140583333Y-124840238D01*
X140678571Y-124745000D01*
X140821429Y-124697381D01*
X140916667Y-124697381D01*
X141059524Y-124745000D01*
X141107143Y-124792619D01*
X141440476Y-124697381D02*
X142059524Y-124697381D01*
X141726190Y-125078333D01*
X141869048Y-125078333D01*
X141964286Y-125125952D01*
X142011905Y-125173571D01*
X142059524Y-125268810D01*
X142059524Y-125506905D01*
X142011905Y-125602143D01*
X141964286Y-125649762D01*
X141869048Y-125697381D01*
X141583333Y-125697381D01*
X141488095Y-125649762D01*
X141440476Y-125602143D01*
X143011905Y-125697381D02*
X142440476Y-125697381D01*
X142726190Y-125697381D02*
X142726190Y-124697381D01*
X142630952Y-124840238D01*
X142535714Y-124935476D01*
X142440476Y-124983095D01*
X141107143Y-127352143D02*
X141059524Y-127399762D01*
X140916667Y-127447381D01*
X140821429Y-127447381D01*
X140678571Y-127399762D01*
X140583333Y-127304524D01*
X140535714Y-127209286D01*
X140488095Y-127018810D01*
X140488095Y-126875952D01*
X140535714Y-126685476D01*
X140583333Y-126590238D01*
X140678571Y-126495000D01*
X140821429Y-126447381D01*
X140916667Y-126447381D01*
X141059524Y-126495000D01*
X141107143Y-126542619D01*
X141440476Y-126447381D02*
X142059524Y-126447381D01*
X141726190Y-126828333D01*
X141869048Y-126828333D01*
X141964286Y-126875952D01*
X142011905Y-126923571D01*
X142059524Y-127018810D01*
X142059524Y-127256905D01*
X142011905Y-127352143D01*
X141964286Y-127399762D01*
X141869048Y-127447381D01*
X141583333Y-127447381D01*
X141488095Y-127399762D01*
X141440476Y-127352143D01*
X142440476Y-126542619D02*
X142488095Y-126495000D01*
X142583333Y-126447381D01*
X142821429Y-126447381D01*
X142916667Y-126495000D01*
X142964286Y-126542619D01*
X143011905Y-126637857D01*
X143011905Y-126733095D01*
X142964286Y-126875952D01*
X142392857Y-127447381D01*
X143011905Y-127447381D01*
X133857143Y-125392857D02*
X133904762Y-125440476D01*
X133952381Y-125583333D01*
X133952381Y-125678571D01*
X133904762Y-125821429D01*
X133809524Y-125916667D01*
X133714286Y-125964286D01*
X133523810Y-126011905D01*
X133380952Y-126011905D01*
X133190476Y-125964286D01*
X133095238Y-125916667D01*
X133000000Y-125821429D01*
X132952381Y-125678571D01*
X132952381Y-125583333D01*
X133000000Y-125440476D01*
X133047619Y-125392857D01*
X132952381Y-125059524D02*
X132952381Y-124440476D01*
X133333333Y-124773810D01*
X133333333Y-124630952D01*
X133380952Y-124535714D01*
X133428571Y-124488095D01*
X133523810Y-124440476D01*
X133761905Y-124440476D01*
X133857143Y-124488095D01*
X133904762Y-124535714D01*
X133952381Y-124630952D01*
X133952381Y-124916667D01*
X133904762Y-125011905D01*
X133857143Y-125059524D01*
X132952381Y-124107143D02*
X132952381Y-123488095D01*
X133333333Y-123821429D01*
X133333333Y-123678571D01*
X133380952Y-123583333D01*
X133428571Y-123535714D01*
X133523810Y-123488095D01*
X133761905Y-123488095D01*
X133857143Y-123535714D01*
X133904762Y-123583333D01*
X133952381Y-123678571D01*
X133952381Y-123964286D01*
X133904762Y-124059524D01*
X133857143Y-124107143D01*
X95607143Y-99102143D02*
X95559524Y-99149762D01*
X95416667Y-99197381D01*
X95321429Y-99197381D01*
X95178571Y-99149762D01*
X95083333Y-99054524D01*
X95035714Y-98959286D01*
X94988095Y-98768810D01*
X94988095Y-98625952D01*
X95035714Y-98435476D01*
X95083333Y-98340238D01*
X95178571Y-98245000D01*
X95321429Y-98197381D01*
X95416667Y-98197381D01*
X95559524Y-98245000D01*
X95607143Y-98292619D01*
X95940476Y-98197381D02*
X96559524Y-98197381D01*
X96226190Y-98578333D01*
X96369048Y-98578333D01*
X96464286Y-98625952D01*
X96511905Y-98673571D01*
X96559524Y-98768810D01*
X96559524Y-99006905D01*
X96511905Y-99102143D01*
X96464286Y-99149762D01*
X96369048Y-99197381D01*
X96083333Y-99197381D01*
X95988095Y-99149762D01*
X95940476Y-99102143D01*
X97416667Y-98530714D02*
X97416667Y-99197381D01*
X97178571Y-98149762D02*
X96940476Y-98864048D01*
X97559524Y-98864048D01*
X95607143Y-97852143D02*
X95559524Y-97899762D01*
X95416667Y-97947381D01*
X95321429Y-97947381D01*
X95178571Y-97899762D01*
X95083333Y-97804524D01*
X95035714Y-97709286D01*
X94988095Y-97518810D01*
X94988095Y-97375952D01*
X95035714Y-97185476D01*
X95083333Y-97090238D01*
X95178571Y-96995000D01*
X95321429Y-96947381D01*
X95416667Y-96947381D01*
X95559524Y-96995000D01*
X95607143Y-97042619D01*
X95940476Y-96947381D02*
X96559524Y-96947381D01*
X96226190Y-97328333D01*
X96369048Y-97328333D01*
X96464286Y-97375952D01*
X96511905Y-97423571D01*
X96559524Y-97518810D01*
X96559524Y-97756905D01*
X96511905Y-97852143D01*
X96464286Y-97899762D01*
X96369048Y-97947381D01*
X96083333Y-97947381D01*
X95988095Y-97899762D01*
X95940476Y-97852143D01*
X97464286Y-96947381D02*
X96988095Y-96947381D01*
X96940476Y-97423571D01*
X96988095Y-97375952D01*
X97083333Y-97328333D01*
X97321429Y-97328333D01*
X97416667Y-97375952D01*
X97464286Y-97423571D01*
X97511905Y-97518810D01*
X97511905Y-97756905D01*
X97464286Y-97852143D01*
X97416667Y-97899762D01*
X97321429Y-97947381D01*
X97083333Y-97947381D01*
X96988095Y-97899762D01*
X96940476Y-97852143D01*
X95857143Y-90892857D02*
X95904762Y-90940476D01*
X95952381Y-91083333D01*
X95952381Y-91178571D01*
X95904762Y-91321429D01*
X95809524Y-91416667D01*
X95714286Y-91464286D01*
X95523810Y-91511905D01*
X95380952Y-91511905D01*
X95190476Y-91464286D01*
X95095238Y-91416667D01*
X95000000Y-91321429D01*
X94952381Y-91178571D01*
X94952381Y-91083333D01*
X95000000Y-90940476D01*
X95047619Y-90892857D01*
X94952381Y-90559524D02*
X94952381Y-89940476D01*
X95333333Y-90273810D01*
X95333333Y-90130952D01*
X95380952Y-90035714D01*
X95428571Y-89988095D01*
X95523810Y-89940476D01*
X95761905Y-89940476D01*
X95857143Y-89988095D01*
X95904762Y-90035714D01*
X95952381Y-90130952D01*
X95952381Y-90416667D01*
X95904762Y-90511905D01*
X95857143Y-90559524D01*
X94952381Y-89083333D02*
X94952381Y-89273810D01*
X95000000Y-89369048D01*
X95047619Y-89416667D01*
X95190476Y-89511905D01*
X95380952Y-89559524D01*
X95761905Y-89559524D01*
X95857143Y-89511905D01*
X95904762Y-89464286D01*
X95952381Y-89369048D01*
X95952381Y-89178571D01*
X95904762Y-89083333D01*
X95857143Y-89035714D01*
X95761905Y-88988095D01*
X95523810Y-88988095D01*
X95428571Y-89035714D01*
X95380952Y-89083333D01*
X95333333Y-89178571D01*
X95333333Y-89369048D01*
X95380952Y-89464286D01*
X95428571Y-89511905D01*
X95523810Y-89559524D01*
X97357143Y-91387857D02*
X97404762Y-91435476D01*
X97452381Y-91578333D01*
X97452381Y-91673571D01*
X97404762Y-91816429D01*
X97309524Y-91911667D01*
X97214286Y-91959286D01*
X97023810Y-92006905D01*
X96880952Y-92006905D01*
X96690476Y-91959286D01*
X96595238Y-91911667D01*
X96500000Y-91816429D01*
X96452381Y-91673571D01*
X96452381Y-91578333D01*
X96500000Y-91435476D01*
X96547619Y-91387857D01*
X96452381Y-91054524D02*
X96452381Y-90435476D01*
X96833333Y-90768810D01*
X96833333Y-90625952D01*
X96880952Y-90530714D01*
X96928571Y-90483095D01*
X97023810Y-90435476D01*
X97261905Y-90435476D01*
X97357143Y-90483095D01*
X97404762Y-90530714D01*
X97452381Y-90625952D01*
X97452381Y-90911667D01*
X97404762Y-91006905D01*
X97357143Y-91054524D01*
X96452381Y-90102143D02*
X96452381Y-89435476D01*
X97452381Y-89864048D01*
X98857143Y-90892857D02*
X98904762Y-90940476D01*
X98952381Y-91083333D01*
X98952381Y-91178571D01*
X98904762Y-91321429D01*
X98809524Y-91416667D01*
X98714286Y-91464286D01*
X98523810Y-91511905D01*
X98380952Y-91511905D01*
X98190476Y-91464286D01*
X98095238Y-91416667D01*
X98000000Y-91321429D01*
X97952381Y-91178571D01*
X97952381Y-91083333D01*
X98000000Y-90940476D01*
X98047619Y-90892857D01*
X97952381Y-90559524D02*
X97952381Y-89940476D01*
X98333333Y-90273810D01*
X98333333Y-90130952D01*
X98380952Y-90035714D01*
X98428571Y-89988095D01*
X98523810Y-89940476D01*
X98761905Y-89940476D01*
X98857143Y-89988095D01*
X98904762Y-90035714D01*
X98952381Y-90130952D01*
X98952381Y-90416667D01*
X98904762Y-90511905D01*
X98857143Y-90559524D01*
X98380952Y-89369048D02*
X98333333Y-89464286D01*
X98285714Y-89511905D01*
X98190476Y-89559524D01*
X98142857Y-89559524D01*
X98047619Y-89511905D01*
X98000000Y-89464286D01*
X97952381Y-89369048D01*
X97952381Y-89178571D01*
X98000000Y-89083333D01*
X98047619Y-89035714D01*
X98142857Y-88988095D01*
X98190476Y-88988095D01*
X98285714Y-89035714D01*
X98333333Y-89083333D01*
X98380952Y-89178571D01*
X98380952Y-89369048D01*
X98428571Y-89464286D01*
X98476190Y-89511905D01*
X98571429Y-89559524D01*
X98761905Y-89559524D01*
X98857143Y-89511905D01*
X98904762Y-89464286D01*
X98952381Y-89369048D01*
X98952381Y-89178571D01*
X98904762Y-89083333D01*
X98857143Y-89035714D01*
X98761905Y-88988095D01*
X98571429Y-88988095D01*
X98476190Y-89035714D01*
X98428571Y-89083333D01*
X98380952Y-89178571D01*
X90732143Y-62007143D02*
X90684524Y-62054762D01*
X90541667Y-62102381D01*
X90446429Y-62102381D01*
X90303571Y-62054762D01*
X90208333Y-61959524D01*
X90160714Y-61864286D01*
X90113095Y-61673810D01*
X90113095Y-61530952D01*
X90160714Y-61340476D01*
X90208333Y-61245238D01*
X90303571Y-61150000D01*
X90446429Y-61102381D01*
X90541667Y-61102381D01*
X90684524Y-61150000D01*
X90732143Y-61197619D01*
X91065476Y-61102381D02*
X91684524Y-61102381D01*
X91351190Y-61483333D01*
X91494048Y-61483333D01*
X91589286Y-61530952D01*
X91636905Y-61578571D01*
X91684524Y-61673810D01*
X91684524Y-61911905D01*
X91636905Y-62007143D01*
X91589286Y-62054762D01*
X91494048Y-62102381D01*
X91208333Y-62102381D01*
X91113095Y-62054762D01*
X91065476Y-62007143D01*
X92160714Y-62102381D02*
X92351190Y-62102381D01*
X92446429Y-62054762D01*
X92494048Y-62007143D01*
X92589286Y-61864286D01*
X92636905Y-61673810D01*
X92636905Y-61292857D01*
X92589286Y-61197619D01*
X92541667Y-61150000D01*
X92446429Y-61102381D01*
X92255952Y-61102381D01*
X92160714Y-61150000D01*
X92113095Y-61197619D01*
X92065476Y-61292857D01*
X92065476Y-61530952D01*
X92113095Y-61626190D01*
X92160714Y-61673810D01*
X92255952Y-61721429D01*
X92446429Y-61721429D01*
X92541667Y-61673810D01*
X92589286Y-61626190D01*
X92636905Y-61530952D01*
X132357143Y-125392857D02*
X132404762Y-125440476D01*
X132452381Y-125583333D01*
X132452381Y-125678571D01*
X132404762Y-125821429D01*
X132309524Y-125916667D01*
X132214286Y-125964286D01*
X132023810Y-126011905D01*
X131880952Y-126011905D01*
X131690476Y-125964286D01*
X131595238Y-125916667D01*
X131500000Y-125821429D01*
X131452381Y-125678571D01*
X131452381Y-125583333D01*
X131500000Y-125440476D01*
X131547619Y-125392857D01*
X131452381Y-124488095D02*
X131452381Y-124964286D01*
X131928571Y-125011905D01*
X131880952Y-124964286D01*
X131833333Y-124869048D01*
X131833333Y-124630952D01*
X131880952Y-124535714D01*
X131928571Y-124488095D01*
X132023810Y-124440476D01*
X132261905Y-124440476D01*
X132357143Y-124488095D01*
X132404762Y-124535714D01*
X132452381Y-124630952D01*
X132452381Y-124869048D01*
X132404762Y-124964286D01*
X132357143Y-125011905D01*
X131452381Y-124107143D02*
X131452381Y-123488095D01*
X131833333Y-123821429D01*
X131833333Y-123678571D01*
X131880952Y-123583333D01*
X131928571Y-123535714D01*
X132023810Y-123488095D01*
X132261905Y-123488095D01*
X132357143Y-123535714D01*
X132404762Y-123583333D01*
X132452381Y-123678571D01*
X132452381Y-123964286D01*
X132404762Y-124059524D01*
X132357143Y-124107143D01*
X130857143Y-125387857D02*
X130904762Y-125435476D01*
X130952381Y-125578333D01*
X130952381Y-125673571D01*
X130904762Y-125816429D01*
X130809524Y-125911667D01*
X130714286Y-125959286D01*
X130523810Y-126006905D01*
X130380952Y-126006905D01*
X130190476Y-125959286D01*
X130095238Y-125911667D01*
X130000000Y-125816429D01*
X129952381Y-125673571D01*
X129952381Y-125578333D01*
X130000000Y-125435476D01*
X130047619Y-125387857D01*
X129952381Y-124483095D02*
X129952381Y-124959286D01*
X130428571Y-125006905D01*
X130380952Y-124959286D01*
X130333333Y-124864048D01*
X130333333Y-124625952D01*
X130380952Y-124530714D01*
X130428571Y-124483095D01*
X130523810Y-124435476D01*
X130761905Y-124435476D01*
X130857143Y-124483095D01*
X130904762Y-124530714D01*
X130952381Y-124625952D01*
X130952381Y-124864048D01*
X130904762Y-124959286D01*
X130857143Y-125006905D01*
X130285714Y-123578333D02*
X130952381Y-123578333D01*
X129904762Y-123816429D02*
X130619048Y-124054524D01*
X130619048Y-123435476D01*
X135755143Y-133961143D02*
X135707524Y-134008762D01*
X135564667Y-134056381D01*
X135469429Y-134056381D01*
X135326571Y-134008762D01*
X135231333Y-133913524D01*
X135183714Y-133818286D01*
X135136095Y-133627810D01*
X135136095Y-133484952D01*
X135183714Y-133294476D01*
X135231333Y-133199238D01*
X135326571Y-133104000D01*
X135469429Y-133056381D01*
X135564667Y-133056381D01*
X135707524Y-133104000D01*
X135755143Y-133151619D01*
X136659905Y-133056381D02*
X136183714Y-133056381D01*
X136136095Y-133532571D01*
X136183714Y-133484952D01*
X136278952Y-133437333D01*
X136517048Y-133437333D01*
X136612286Y-133484952D01*
X136659905Y-133532571D01*
X136707524Y-133627810D01*
X136707524Y-133865905D01*
X136659905Y-133961143D01*
X136612286Y-134008762D01*
X136517048Y-134056381D01*
X136278952Y-134056381D01*
X136183714Y-134008762D01*
X136136095Y-133961143D01*
X137612286Y-133056381D02*
X137136095Y-133056381D01*
X137088476Y-133532571D01*
X137136095Y-133484952D01*
X137231333Y-133437333D01*
X137469429Y-133437333D01*
X137564667Y-133484952D01*
X137612286Y-133532571D01*
X137659905Y-133627810D01*
X137659905Y-133865905D01*
X137612286Y-133961143D01*
X137564667Y-134008762D01*
X137469429Y-134056381D01*
X137231333Y-134056381D01*
X137136095Y-134008762D01*
X137088476Y-133961143D01*
X141607143Y-129107143D02*
X141559524Y-129154762D01*
X141416667Y-129202381D01*
X141321429Y-129202381D01*
X141178571Y-129154762D01*
X141083333Y-129059524D01*
X141035714Y-128964286D01*
X140988095Y-128773810D01*
X140988095Y-128630952D01*
X141035714Y-128440476D01*
X141083333Y-128345238D01*
X141178571Y-128250000D01*
X141321429Y-128202381D01*
X141416667Y-128202381D01*
X141559524Y-128250000D01*
X141607143Y-128297619D01*
X142511905Y-128202381D02*
X142035714Y-128202381D01*
X141988095Y-128678571D01*
X142035714Y-128630952D01*
X142130952Y-128583333D01*
X142369048Y-128583333D01*
X142464286Y-128630952D01*
X142511905Y-128678571D01*
X142559524Y-128773810D01*
X142559524Y-129011905D01*
X142511905Y-129107143D01*
X142464286Y-129154762D01*
X142369048Y-129202381D01*
X142130952Y-129202381D01*
X142035714Y-129154762D01*
X141988095Y-129107143D01*
X143416667Y-128202381D02*
X143226190Y-128202381D01*
X143130952Y-128250000D01*
X143083333Y-128297619D01*
X142988095Y-128440476D01*
X142940476Y-128630952D01*
X142940476Y-129011905D01*
X142988095Y-129107143D01*
X143035714Y-129154762D01*
X143130952Y-129202381D01*
X143321429Y-129202381D01*
X143416667Y-129154762D01*
X143464286Y-129107143D01*
X143511905Y-129011905D01*
X143511905Y-128773810D01*
X143464286Y-128678571D01*
X143416667Y-128630952D01*
X143321429Y-128583333D01*
X143130952Y-128583333D01*
X143035714Y-128630952D01*
X142988095Y-128678571D01*
X142940476Y-128773810D01*
X132107143Y-130637857D02*
X132154762Y-130685476D01*
X132202381Y-130828333D01*
X132202381Y-130923571D01*
X132154762Y-131066429D01*
X132059524Y-131161667D01*
X131964286Y-131209286D01*
X131773810Y-131256905D01*
X131630952Y-131256905D01*
X131440476Y-131209286D01*
X131345238Y-131161667D01*
X131250000Y-131066429D01*
X131202381Y-130923571D01*
X131202381Y-130828333D01*
X131250000Y-130685476D01*
X131297619Y-130637857D01*
X131202381Y-129733095D02*
X131202381Y-130209286D01*
X131678571Y-130256905D01*
X131630952Y-130209286D01*
X131583333Y-130114048D01*
X131583333Y-129875952D01*
X131630952Y-129780714D01*
X131678571Y-129733095D01*
X131773810Y-129685476D01*
X132011905Y-129685476D01*
X132107143Y-129733095D01*
X132154762Y-129780714D01*
X132202381Y-129875952D01*
X132202381Y-130114048D01*
X132154762Y-130209286D01*
X132107143Y-130256905D01*
X131202381Y-129352143D02*
X131202381Y-128685476D01*
X132202381Y-129114048D01*
X95607143Y-102102143D02*
X95559524Y-102149762D01*
X95416667Y-102197381D01*
X95321429Y-102197381D01*
X95178571Y-102149762D01*
X95083333Y-102054524D01*
X95035714Y-101959286D01*
X94988095Y-101768810D01*
X94988095Y-101625952D01*
X95035714Y-101435476D01*
X95083333Y-101340238D01*
X95178571Y-101245000D01*
X95321429Y-101197381D01*
X95416667Y-101197381D01*
X95559524Y-101245000D01*
X95607143Y-101292619D01*
X96511905Y-101197381D02*
X96035714Y-101197381D01*
X95988095Y-101673571D01*
X96035714Y-101625952D01*
X96130952Y-101578333D01*
X96369048Y-101578333D01*
X96464286Y-101625952D01*
X96511905Y-101673571D01*
X96559524Y-101768810D01*
X96559524Y-102006905D01*
X96511905Y-102102143D01*
X96464286Y-102149762D01*
X96369048Y-102197381D01*
X96130952Y-102197381D01*
X96035714Y-102149762D01*
X95988095Y-102102143D01*
X97130952Y-101625952D02*
X97035714Y-101578333D01*
X96988095Y-101530714D01*
X96940476Y-101435476D01*
X96940476Y-101387857D01*
X96988095Y-101292619D01*
X97035714Y-101245000D01*
X97130952Y-101197381D01*
X97321429Y-101197381D01*
X97416667Y-101245000D01*
X97464286Y-101292619D01*
X97511905Y-101387857D01*
X97511905Y-101435476D01*
X97464286Y-101530714D01*
X97416667Y-101578333D01*
X97321429Y-101625952D01*
X97130952Y-101625952D01*
X97035714Y-101673571D01*
X96988095Y-101721190D01*
X96940476Y-101816429D01*
X96940476Y-102006905D01*
X96988095Y-102102143D01*
X97035714Y-102149762D01*
X97130952Y-102197381D01*
X97321429Y-102197381D01*
X97416667Y-102149762D01*
X97464286Y-102102143D01*
X97511905Y-102006905D01*
X97511905Y-101816429D01*
X97464286Y-101721190D01*
X97416667Y-101673571D01*
X97321429Y-101625952D01*
X95607143Y-100602143D02*
X95559524Y-100649762D01*
X95416667Y-100697381D01*
X95321429Y-100697381D01*
X95178571Y-100649762D01*
X95083333Y-100554524D01*
X95035714Y-100459286D01*
X94988095Y-100268810D01*
X94988095Y-100125952D01*
X95035714Y-99935476D01*
X95083333Y-99840238D01*
X95178571Y-99745000D01*
X95321429Y-99697381D01*
X95416667Y-99697381D01*
X95559524Y-99745000D01*
X95607143Y-99792619D01*
X96511905Y-99697381D02*
X96035714Y-99697381D01*
X95988095Y-100173571D01*
X96035714Y-100125952D01*
X96130952Y-100078333D01*
X96369048Y-100078333D01*
X96464286Y-100125952D01*
X96511905Y-100173571D01*
X96559524Y-100268810D01*
X96559524Y-100506905D01*
X96511905Y-100602143D01*
X96464286Y-100649762D01*
X96369048Y-100697381D01*
X96130952Y-100697381D01*
X96035714Y-100649762D01*
X95988095Y-100602143D01*
X97035714Y-100697381D02*
X97226190Y-100697381D01*
X97321429Y-100649762D01*
X97369048Y-100602143D01*
X97464286Y-100459286D01*
X97511905Y-100268810D01*
X97511905Y-99887857D01*
X97464286Y-99792619D01*
X97416667Y-99745000D01*
X97321429Y-99697381D01*
X97130952Y-99697381D01*
X97035714Y-99745000D01*
X96988095Y-99792619D01*
X96940476Y-99887857D01*
X96940476Y-100125952D01*
X96988095Y-100221190D01*
X97035714Y-100268810D01*
X97130952Y-100316429D01*
X97321429Y-100316429D01*
X97416667Y-100268810D01*
X97464286Y-100221190D01*
X97511905Y-100125952D01*
X102607143Y-93142857D02*
X102654762Y-93190476D01*
X102702381Y-93333333D01*
X102702381Y-93428571D01*
X102654762Y-93571429D01*
X102559524Y-93666667D01*
X102464286Y-93714286D01*
X102273810Y-93761905D01*
X102130952Y-93761905D01*
X101940476Y-93714286D01*
X101845238Y-93666667D01*
X101750000Y-93571429D01*
X101702381Y-93428571D01*
X101702381Y-93333333D01*
X101750000Y-93190476D01*
X101797619Y-93142857D01*
X101702381Y-92285714D02*
X101702381Y-92476191D01*
X101750000Y-92571429D01*
X101797619Y-92619048D01*
X101940476Y-92714286D01*
X102130952Y-92761905D01*
X102511905Y-92761905D01*
X102607143Y-92714286D01*
X102654762Y-92666667D01*
X102702381Y-92571429D01*
X102702381Y-92380952D01*
X102654762Y-92285714D01*
X102607143Y-92238095D01*
X102511905Y-92190476D01*
X102273810Y-92190476D01*
X102178571Y-92238095D01*
X102130952Y-92285714D01*
X102083333Y-92380952D01*
X102083333Y-92571429D01*
X102130952Y-92666667D01*
X102178571Y-92714286D01*
X102273810Y-92761905D01*
X101702381Y-91571429D02*
X101702381Y-91476190D01*
X101750000Y-91380952D01*
X101797619Y-91333333D01*
X101892857Y-91285714D01*
X102083333Y-91238095D01*
X102321429Y-91238095D01*
X102511905Y-91285714D01*
X102607143Y-91333333D01*
X102654762Y-91380952D01*
X102702381Y-91476190D01*
X102702381Y-91571429D01*
X102654762Y-91666667D01*
X102607143Y-91714286D01*
X102511905Y-91761905D01*
X102321429Y-91809524D01*
X102083333Y-91809524D01*
X101892857Y-91761905D01*
X101797619Y-91714286D01*
X101750000Y-91666667D01*
X101702381Y-91571429D01*
X100857143Y-97852143D02*
X100809524Y-97899762D01*
X100666667Y-97947381D01*
X100571429Y-97947381D01*
X100428571Y-97899762D01*
X100333333Y-97804524D01*
X100285714Y-97709286D01*
X100238095Y-97518810D01*
X100238095Y-97375952D01*
X100285714Y-97185476D01*
X100333333Y-97090238D01*
X100428571Y-96995000D01*
X100571429Y-96947381D01*
X100666667Y-96947381D01*
X100809524Y-96995000D01*
X100857143Y-97042619D01*
X101714286Y-96947381D02*
X101523809Y-96947381D01*
X101428571Y-96995000D01*
X101380952Y-97042619D01*
X101285714Y-97185476D01*
X101238095Y-97375952D01*
X101238095Y-97756905D01*
X101285714Y-97852143D01*
X101333333Y-97899762D01*
X101428571Y-97947381D01*
X101619048Y-97947381D01*
X101714286Y-97899762D01*
X101761905Y-97852143D01*
X101809524Y-97756905D01*
X101809524Y-97518810D01*
X101761905Y-97423571D01*
X101714286Y-97375952D01*
X101619048Y-97328333D01*
X101428571Y-97328333D01*
X101333333Y-97375952D01*
X101285714Y-97423571D01*
X101238095Y-97518810D01*
X102761905Y-97947381D02*
X102190476Y-97947381D01*
X102476190Y-97947381D02*
X102476190Y-96947381D01*
X102380952Y-97090238D01*
X102285714Y-97185476D01*
X102190476Y-97233095D01*
X100857143Y-101352143D02*
X100809524Y-101399762D01*
X100666667Y-101447381D01*
X100571429Y-101447381D01*
X100428571Y-101399762D01*
X100333333Y-101304524D01*
X100285714Y-101209286D01*
X100238095Y-101018810D01*
X100238095Y-100875952D01*
X100285714Y-100685476D01*
X100333333Y-100590238D01*
X100428571Y-100495000D01*
X100571429Y-100447381D01*
X100666667Y-100447381D01*
X100809524Y-100495000D01*
X100857143Y-100542619D01*
X101714286Y-100447381D02*
X101523809Y-100447381D01*
X101428571Y-100495000D01*
X101380952Y-100542619D01*
X101285714Y-100685476D01*
X101238095Y-100875952D01*
X101238095Y-101256905D01*
X101285714Y-101352143D01*
X101333333Y-101399762D01*
X101428571Y-101447381D01*
X101619048Y-101447381D01*
X101714286Y-101399762D01*
X101761905Y-101352143D01*
X101809524Y-101256905D01*
X101809524Y-101018810D01*
X101761905Y-100923571D01*
X101714286Y-100875952D01*
X101619048Y-100828333D01*
X101428571Y-100828333D01*
X101333333Y-100875952D01*
X101285714Y-100923571D01*
X101238095Y-101018810D01*
X102190476Y-100542619D02*
X102238095Y-100495000D01*
X102333333Y-100447381D01*
X102571429Y-100447381D01*
X102666667Y-100495000D01*
X102714286Y-100542619D01*
X102761905Y-100637857D01*
X102761905Y-100733095D01*
X102714286Y-100875952D01*
X102142857Y-101447381D01*
X102761905Y-101447381D01*
X137357143Y-118357143D02*
X137309524Y-118404762D01*
X137166667Y-118452381D01*
X137071429Y-118452381D01*
X136928571Y-118404762D01*
X136833333Y-118309524D01*
X136785714Y-118214286D01*
X136738095Y-118023810D01*
X136738095Y-117880952D01*
X136785714Y-117690476D01*
X136833333Y-117595238D01*
X136928571Y-117500000D01*
X137071429Y-117452381D01*
X137166667Y-117452381D01*
X137309524Y-117500000D01*
X137357143Y-117547619D01*
X138214286Y-117452381D02*
X138023809Y-117452381D01*
X137928571Y-117500000D01*
X137880952Y-117547619D01*
X137785714Y-117690476D01*
X137738095Y-117880952D01*
X137738095Y-118261905D01*
X137785714Y-118357143D01*
X137833333Y-118404762D01*
X137928571Y-118452381D01*
X138119048Y-118452381D01*
X138214286Y-118404762D01*
X138261905Y-118357143D01*
X138309524Y-118261905D01*
X138309524Y-118023810D01*
X138261905Y-117928571D01*
X138214286Y-117880952D01*
X138119048Y-117833333D01*
X137928571Y-117833333D01*
X137833333Y-117880952D01*
X137785714Y-117928571D01*
X137738095Y-118023810D01*
X138642857Y-117452381D02*
X139309524Y-117452381D01*
X138880952Y-118452381D01*
X88107143Y-94102143D02*
X88059524Y-94149762D01*
X87916667Y-94197381D01*
X87821429Y-94197381D01*
X87678571Y-94149762D01*
X87583333Y-94054524D01*
X87535714Y-93959286D01*
X87488095Y-93768810D01*
X87488095Y-93625952D01*
X87535714Y-93435476D01*
X87583333Y-93340238D01*
X87678571Y-93245000D01*
X87821429Y-93197381D01*
X87916667Y-93197381D01*
X88059524Y-93245000D01*
X88107143Y-93292619D01*
X88964286Y-93197381D02*
X88773809Y-93197381D01*
X88678571Y-93245000D01*
X88630952Y-93292619D01*
X88535714Y-93435476D01*
X88488095Y-93625952D01*
X88488095Y-94006905D01*
X88535714Y-94102143D01*
X88583333Y-94149762D01*
X88678571Y-94197381D01*
X88869048Y-94197381D01*
X88964286Y-94149762D01*
X89011905Y-94102143D01*
X89059524Y-94006905D01*
X89059524Y-93768810D01*
X89011905Y-93673571D01*
X88964286Y-93625952D01*
X88869048Y-93578333D01*
X88678571Y-93578333D01*
X88583333Y-93625952D01*
X88535714Y-93673571D01*
X88488095Y-93768810D01*
X89630952Y-93625952D02*
X89535714Y-93578333D01*
X89488095Y-93530714D01*
X89440476Y-93435476D01*
X89440476Y-93387857D01*
X89488095Y-93292619D01*
X89535714Y-93245000D01*
X89630952Y-93197381D01*
X89821429Y-93197381D01*
X89916667Y-93245000D01*
X89964286Y-93292619D01*
X90011905Y-93387857D01*
X90011905Y-93435476D01*
X89964286Y-93530714D01*
X89916667Y-93578333D01*
X89821429Y-93625952D01*
X89630952Y-93625952D01*
X89535714Y-93673571D01*
X89488095Y-93721190D01*
X89440476Y-93816429D01*
X89440476Y-94006905D01*
X89488095Y-94102143D01*
X89535714Y-94149762D01*
X89630952Y-94197381D01*
X89821429Y-94197381D01*
X89916667Y-94149762D01*
X89964286Y-94102143D01*
X90011905Y-94006905D01*
X90011905Y-93816429D01*
X89964286Y-93721190D01*
X89916667Y-93673571D01*
X89821429Y-93625952D01*
X93807143Y-64707143D02*
X93759524Y-64754762D01*
X93616667Y-64802381D01*
X93521429Y-64802381D01*
X93378571Y-64754762D01*
X93283333Y-64659524D01*
X93235714Y-64564286D01*
X93188095Y-64373810D01*
X93188095Y-64230952D01*
X93235714Y-64040476D01*
X93283333Y-63945238D01*
X93378571Y-63850000D01*
X93521429Y-63802381D01*
X93616667Y-63802381D01*
X93759524Y-63850000D01*
X93807143Y-63897619D01*
X94140476Y-63802381D02*
X94807143Y-63802381D01*
X94378571Y-64802381D01*
X95092857Y-63802381D02*
X95711905Y-63802381D01*
X95378571Y-64183333D01*
X95521429Y-64183333D01*
X95616667Y-64230952D01*
X95664286Y-64278571D01*
X95711905Y-64373810D01*
X95711905Y-64611905D01*
X95664286Y-64707143D01*
X95616667Y-64754762D01*
X95521429Y-64802381D01*
X95235714Y-64802381D01*
X95140476Y-64754762D01*
X95092857Y-64707143D01*
X159377143Y-55475143D02*
X159329524Y-55522762D01*
X159186667Y-55570381D01*
X159091429Y-55570381D01*
X158948571Y-55522762D01*
X158853333Y-55427524D01*
X158805714Y-55332286D01*
X158758095Y-55141810D01*
X158758095Y-54998952D01*
X158805714Y-54808476D01*
X158853333Y-54713238D01*
X158948571Y-54618000D01*
X159091429Y-54570381D01*
X159186667Y-54570381D01*
X159329524Y-54618000D01*
X159377143Y-54665619D01*
X159710476Y-54570381D02*
X160377143Y-54570381D01*
X159948571Y-55570381D01*
X161186667Y-54903714D02*
X161186667Y-55570381D01*
X160948571Y-54522762D02*
X160710476Y-55237048D01*
X161329524Y-55237048D01*
X151249143Y-55475143D02*
X151201524Y-55522762D01*
X151058667Y-55570381D01*
X150963429Y-55570381D01*
X150820571Y-55522762D01*
X150725333Y-55427524D01*
X150677714Y-55332286D01*
X150630095Y-55141810D01*
X150630095Y-54998952D01*
X150677714Y-54808476D01*
X150725333Y-54713238D01*
X150820571Y-54618000D01*
X150963429Y-54570381D01*
X151058667Y-54570381D01*
X151201524Y-54618000D01*
X151249143Y-54665619D01*
X151582476Y-54570381D02*
X152249143Y-54570381D01*
X151820571Y-55570381D01*
X153106286Y-54570381D02*
X152630095Y-54570381D01*
X152582476Y-55046571D01*
X152630095Y-54998952D01*
X152725333Y-54951333D01*
X152963429Y-54951333D01*
X153058667Y-54998952D01*
X153106286Y-55046571D01*
X153153905Y-55141810D01*
X153153905Y-55379905D01*
X153106286Y-55475143D01*
X153058667Y-55522762D01*
X152963429Y-55570381D01*
X152725333Y-55570381D01*
X152630095Y-55522762D01*
X152582476Y-55475143D01*
X143121143Y-55475143D02*
X143073524Y-55522762D01*
X142930667Y-55570381D01*
X142835429Y-55570381D01*
X142692571Y-55522762D01*
X142597333Y-55427524D01*
X142549714Y-55332286D01*
X142502095Y-55141810D01*
X142502095Y-54998952D01*
X142549714Y-54808476D01*
X142597333Y-54713238D01*
X142692571Y-54618000D01*
X142835429Y-54570381D01*
X142930667Y-54570381D01*
X143073524Y-54618000D01*
X143121143Y-54665619D01*
X143454476Y-54570381D02*
X144121143Y-54570381D01*
X143692571Y-55570381D01*
X144930667Y-54570381D02*
X144740190Y-54570381D01*
X144644952Y-54618000D01*
X144597333Y-54665619D01*
X144502095Y-54808476D01*
X144454476Y-54998952D01*
X144454476Y-55379905D01*
X144502095Y-55475143D01*
X144549714Y-55522762D01*
X144644952Y-55570381D01*
X144835429Y-55570381D01*
X144930667Y-55522762D01*
X144978286Y-55475143D01*
X145025905Y-55379905D01*
X145025905Y-55141810D01*
X144978286Y-55046571D01*
X144930667Y-54998952D01*
X144835429Y-54951333D01*
X144644952Y-54951333D01*
X144549714Y-54998952D01*
X144502095Y-55046571D01*
X144454476Y-55141810D01*
X134993143Y-55475143D02*
X134945524Y-55522762D01*
X134802667Y-55570381D01*
X134707429Y-55570381D01*
X134564571Y-55522762D01*
X134469333Y-55427524D01*
X134421714Y-55332286D01*
X134374095Y-55141810D01*
X134374095Y-54998952D01*
X134421714Y-54808476D01*
X134469333Y-54713238D01*
X134564571Y-54618000D01*
X134707429Y-54570381D01*
X134802667Y-54570381D01*
X134945524Y-54618000D01*
X134993143Y-54665619D01*
X135326476Y-54570381D02*
X135993143Y-54570381D01*
X135564571Y-55570381D01*
X136278857Y-54570381D02*
X136945524Y-54570381D01*
X136516952Y-55570381D01*
X126865143Y-55475143D02*
X126817524Y-55522762D01*
X126674667Y-55570381D01*
X126579429Y-55570381D01*
X126436571Y-55522762D01*
X126341333Y-55427524D01*
X126293714Y-55332286D01*
X126246095Y-55141810D01*
X126246095Y-54998952D01*
X126293714Y-54808476D01*
X126341333Y-54713238D01*
X126436571Y-54618000D01*
X126579429Y-54570381D01*
X126674667Y-54570381D01*
X126817524Y-54618000D01*
X126865143Y-54665619D01*
X127198476Y-54570381D02*
X127865143Y-54570381D01*
X127436571Y-55570381D01*
X128388952Y-54998952D02*
X128293714Y-54951333D01*
X128246095Y-54903714D01*
X128198476Y-54808476D01*
X128198476Y-54760857D01*
X128246095Y-54665619D01*
X128293714Y-54618000D01*
X128388952Y-54570381D01*
X128579429Y-54570381D01*
X128674667Y-54618000D01*
X128722286Y-54665619D01*
X128769905Y-54760857D01*
X128769905Y-54808476D01*
X128722286Y-54903714D01*
X128674667Y-54951333D01*
X128579429Y-54998952D01*
X128388952Y-54998952D01*
X128293714Y-55046571D01*
X128246095Y-55094190D01*
X128198476Y-55189429D01*
X128198476Y-55379905D01*
X128246095Y-55475143D01*
X128293714Y-55522762D01*
X128388952Y-55570381D01*
X128579429Y-55570381D01*
X128674667Y-55522762D01*
X128722286Y-55475143D01*
X128769905Y-55379905D01*
X128769905Y-55189429D01*
X128722286Y-55094190D01*
X128674667Y-55046571D01*
X128579429Y-54998952D01*
X118737143Y-55475143D02*
X118689524Y-55522762D01*
X118546667Y-55570381D01*
X118451429Y-55570381D01*
X118308571Y-55522762D01*
X118213333Y-55427524D01*
X118165714Y-55332286D01*
X118118095Y-55141810D01*
X118118095Y-54998952D01*
X118165714Y-54808476D01*
X118213333Y-54713238D01*
X118308571Y-54618000D01*
X118451429Y-54570381D01*
X118546667Y-54570381D01*
X118689524Y-54618000D01*
X118737143Y-54665619D01*
X119070476Y-54570381D02*
X119737143Y-54570381D01*
X119308571Y-55570381D01*
X120165714Y-55570381D02*
X120356190Y-55570381D01*
X120451429Y-55522762D01*
X120499048Y-55475143D01*
X120594286Y-55332286D01*
X120641905Y-55141810D01*
X120641905Y-54760857D01*
X120594286Y-54665619D01*
X120546667Y-54618000D01*
X120451429Y-54570381D01*
X120260952Y-54570381D01*
X120165714Y-54618000D01*
X120118095Y-54665619D01*
X120070476Y-54760857D01*
X120070476Y-54998952D01*
X120118095Y-55094190D01*
X120165714Y-55141810D01*
X120260952Y-55189429D01*
X120451429Y-55189429D01*
X120546667Y-55141810D01*
X120594286Y-55094190D01*
X120641905Y-54998952D01*
X110609143Y-55475143D02*
X110561524Y-55522762D01*
X110418667Y-55570381D01*
X110323429Y-55570381D01*
X110180571Y-55522762D01*
X110085333Y-55427524D01*
X110037714Y-55332286D01*
X109990095Y-55141810D01*
X109990095Y-54998952D01*
X110037714Y-54808476D01*
X110085333Y-54713238D01*
X110180571Y-54618000D01*
X110323429Y-54570381D01*
X110418667Y-54570381D01*
X110561524Y-54618000D01*
X110609143Y-54665619D01*
X111180571Y-54998952D02*
X111085333Y-54951333D01*
X111037714Y-54903714D01*
X110990095Y-54808476D01*
X110990095Y-54760857D01*
X111037714Y-54665619D01*
X111085333Y-54618000D01*
X111180571Y-54570381D01*
X111371048Y-54570381D01*
X111466286Y-54618000D01*
X111513905Y-54665619D01*
X111561524Y-54760857D01*
X111561524Y-54808476D01*
X111513905Y-54903714D01*
X111466286Y-54951333D01*
X111371048Y-54998952D01*
X111180571Y-54998952D01*
X111085333Y-55046571D01*
X111037714Y-55094190D01*
X110990095Y-55189429D01*
X110990095Y-55379905D01*
X111037714Y-55475143D01*
X111085333Y-55522762D01*
X111180571Y-55570381D01*
X111371048Y-55570381D01*
X111466286Y-55522762D01*
X111513905Y-55475143D01*
X111561524Y-55379905D01*
X111561524Y-55189429D01*
X111513905Y-55094190D01*
X111466286Y-55046571D01*
X111371048Y-54998952D01*
X112180571Y-54570381D02*
X112275810Y-54570381D01*
X112371048Y-54618000D01*
X112418667Y-54665619D01*
X112466286Y-54760857D01*
X112513905Y-54951333D01*
X112513905Y-55189429D01*
X112466286Y-55379905D01*
X112418667Y-55475143D01*
X112371048Y-55522762D01*
X112275810Y-55570381D01*
X112180571Y-55570381D01*
X112085333Y-55522762D01*
X112037714Y-55475143D01*
X111990095Y-55379905D01*
X111942476Y-55189429D01*
X111942476Y-54951333D01*
X111990095Y-54760857D01*
X112037714Y-54665619D01*
X112085333Y-54618000D01*
X112180571Y-54570381D01*
X102481143Y-55475143D02*
X102433524Y-55522762D01*
X102290667Y-55570381D01*
X102195429Y-55570381D01*
X102052571Y-55522762D01*
X101957333Y-55427524D01*
X101909714Y-55332286D01*
X101862095Y-55141810D01*
X101862095Y-54998952D01*
X101909714Y-54808476D01*
X101957333Y-54713238D01*
X102052571Y-54618000D01*
X102195429Y-54570381D01*
X102290667Y-54570381D01*
X102433524Y-54618000D01*
X102481143Y-54665619D01*
X103052571Y-54998952D02*
X102957333Y-54951333D01*
X102909714Y-54903714D01*
X102862095Y-54808476D01*
X102862095Y-54760857D01*
X102909714Y-54665619D01*
X102957333Y-54618000D01*
X103052571Y-54570381D01*
X103243048Y-54570381D01*
X103338286Y-54618000D01*
X103385905Y-54665619D01*
X103433524Y-54760857D01*
X103433524Y-54808476D01*
X103385905Y-54903714D01*
X103338286Y-54951333D01*
X103243048Y-54998952D01*
X103052571Y-54998952D01*
X102957333Y-55046571D01*
X102909714Y-55094190D01*
X102862095Y-55189429D01*
X102862095Y-55379905D01*
X102909714Y-55475143D01*
X102957333Y-55522762D01*
X103052571Y-55570381D01*
X103243048Y-55570381D01*
X103338286Y-55522762D01*
X103385905Y-55475143D01*
X103433524Y-55379905D01*
X103433524Y-55189429D01*
X103385905Y-55094190D01*
X103338286Y-55046571D01*
X103243048Y-54998952D01*
X104385905Y-55570381D02*
X103814476Y-55570381D01*
X104100190Y-55570381D02*
X104100190Y-54570381D01*
X104004952Y-54713238D01*
X103909714Y-54808476D01*
X103814476Y-54856095D01*
X149217143Y-116943143D02*
X149169524Y-116990762D01*
X149026667Y-117038381D01*
X148931429Y-117038381D01*
X148788571Y-116990762D01*
X148693333Y-116895524D01*
X148645714Y-116800286D01*
X148598095Y-116609810D01*
X148598095Y-116466952D01*
X148645714Y-116276476D01*
X148693333Y-116181238D01*
X148788571Y-116086000D01*
X148931429Y-116038381D01*
X149026667Y-116038381D01*
X149169524Y-116086000D01*
X149217143Y-116133619D01*
X149693333Y-117038381D02*
X149883809Y-117038381D01*
X149979048Y-116990762D01*
X150026667Y-116943143D01*
X150121905Y-116800286D01*
X150169524Y-116609810D01*
X150169524Y-116228857D01*
X150121905Y-116133619D01*
X150074286Y-116086000D01*
X149979048Y-116038381D01*
X149788571Y-116038381D01*
X149693333Y-116086000D01*
X149645714Y-116133619D01*
X149598095Y-116228857D01*
X149598095Y-116466952D01*
X149645714Y-116562190D01*
X149693333Y-116609810D01*
X149788571Y-116657429D01*
X149979048Y-116657429D01*
X150074286Y-116609810D01*
X150121905Y-116562190D01*
X150169524Y-116466952D01*
X151121905Y-117038381D02*
X150550476Y-117038381D01*
X150836190Y-117038381D02*
X150836190Y-116038381D01*
X150740952Y-116181238D01*
X150645714Y-116276476D01*
X150550476Y-116324095D01*
X89273143Y-106021143D02*
X89225524Y-106068762D01*
X89082667Y-106116381D01*
X88987429Y-106116381D01*
X88844571Y-106068762D01*
X88749333Y-105973524D01*
X88701714Y-105878286D01*
X88654095Y-105687810D01*
X88654095Y-105544952D01*
X88701714Y-105354476D01*
X88749333Y-105259238D01*
X88844571Y-105164000D01*
X88987429Y-105116381D01*
X89082667Y-105116381D01*
X89225524Y-105164000D01*
X89273143Y-105211619D01*
X89749333Y-106116381D02*
X89939809Y-106116381D01*
X90035048Y-106068762D01*
X90082667Y-106021143D01*
X90177905Y-105878286D01*
X90225524Y-105687810D01*
X90225524Y-105306857D01*
X90177905Y-105211619D01*
X90130286Y-105164000D01*
X90035048Y-105116381D01*
X89844571Y-105116381D01*
X89749333Y-105164000D01*
X89701714Y-105211619D01*
X89654095Y-105306857D01*
X89654095Y-105544952D01*
X89701714Y-105640190D01*
X89749333Y-105687810D01*
X89844571Y-105735429D01*
X90035048Y-105735429D01*
X90130286Y-105687810D01*
X90177905Y-105640190D01*
X90225524Y-105544952D01*
X90796952Y-105544952D02*
X90701714Y-105497333D01*
X90654095Y-105449714D01*
X90606476Y-105354476D01*
X90606476Y-105306857D01*
X90654095Y-105211619D01*
X90701714Y-105164000D01*
X90796952Y-105116381D01*
X90987429Y-105116381D01*
X91082667Y-105164000D01*
X91130286Y-105211619D01*
X91177905Y-105306857D01*
X91177905Y-105354476D01*
X91130286Y-105449714D01*
X91082667Y-105497333D01*
X90987429Y-105544952D01*
X90796952Y-105544952D01*
X90701714Y-105592571D01*
X90654095Y-105640190D01*
X90606476Y-105735429D01*
X90606476Y-105925905D01*
X90654095Y-106021143D01*
X90701714Y-106068762D01*
X90796952Y-106116381D01*
X90987429Y-106116381D01*
X91082667Y-106068762D01*
X91130286Y-106021143D01*
X91177905Y-105925905D01*
X91177905Y-105735429D01*
X91130286Y-105640190D01*
X91082667Y-105592571D01*
X90987429Y-105544952D01*
X85113905Y-57348381D02*
X85113905Y-56348381D01*
X85352000Y-56348381D01*
X85494858Y-56396000D01*
X85590096Y-56491238D01*
X85637715Y-56586476D01*
X85685334Y-56776952D01*
X85685334Y-56919810D01*
X85637715Y-57110286D01*
X85590096Y-57205524D01*
X85494858Y-57300762D01*
X85352000Y-57348381D01*
X85113905Y-57348381D01*
X86542477Y-56348381D02*
X86352000Y-56348381D01*
X86256762Y-56396000D01*
X86209143Y-56443619D01*
X86113905Y-56586476D01*
X86066286Y-56776952D01*
X86066286Y-57157905D01*
X86113905Y-57253143D01*
X86161524Y-57300762D01*
X86256762Y-57348381D01*
X86447239Y-57348381D01*
X86542477Y-57300762D01*
X86590096Y-57253143D01*
X86637715Y-57157905D01*
X86637715Y-56919810D01*
X86590096Y-56824571D01*
X86542477Y-56776952D01*
X86447239Y-56729333D01*
X86256762Y-56729333D01*
X86161524Y-56776952D01*
X86113905Y-56824571D01*
X86066286Y-56919810D01*
X205206667Y-127257381D02*
X205206667Y-127971667D01*
X205159047Y-128114524D01*
X205063809Y-128209762D01*
X204920952Y-128257381D01*
X204825714Y-128257381D01*
X206206667Y-128257381D02*
X205635238Y-128257381D01*
X205920952Y-128257381D02*
X205920952Y-127257381D01*
X205825714Y-127400238D01*
X205730476Y-127495476D01*
X205635238Y-127543095D01*
X80666667Y-81802381D02*
X80666667Y-82516667D01*
X80619047Y-82659524D01*
X80523809Y-82754762D01*
X80380952Y-82802381D01*
X80285714Y-82802381D01*
X81095238Y-81897619D02*
X81142857Y-81850000D01*
X81238095Y-81802381D01*
X81476191Y-81802381D01*
X81571429Y-81850000D01*
X81619048Y-81897619D01*
X81666667Y-81992857D01*
X81666667Y-82088095D01*
X81619048Y-82230952D01*
X81047619Y-82802381D01*
X81666667Y-82802381D01*
X123872667Y-130770381D02*
X123872667Y-131484667D01*
X123825047Y-131627524D01*
X123729809Y-131722762D01*
X123586952Y-131770381D01*
X123491714Y-131770381D01*
X124253619Y-130770381D02*
X124872667Y-130770381D01*
X124539333Y-131151333D01*
X124682191Y-131151333D01*
X124777429Y-131198952D01*
X124825048Y-131246571D01*
X124872667Y-131341810D01*
X124872667Y-131579905D01*
X124825048Y-131675143D01*
X124777429Y-131722762D01*
X124682191Y-131770381D01*
X124396476Y-131770381D01*
X124301238Y-131722762D01*
X124253619Y-131675143D01*
X137334667Y-47712381D02*
X137334667Y-48426667D01*
X137287047Y-48569524D01*
X137191809Y-48664762D01*
X137048952Y-48712381D01*
X136953714Y-48712381D01*
X138239429Y-48045714D02*
X138239429Y-48712381D01*
X138001333Y-47664762D02*
X137763238Y-48379048D01*
X138382286Y-48379048D01*
X98583334Y-87202381D02*
X98107143Y-87202381D01*
X98107143Y-86202381D01*
X98869048Y-86297619D02*
X98916667Y-86250000D01*
X99011905Y-86202381D01*
X99250001Y-86202381D01*
X99345239Y-86250000D01*
X99392858Y-86297619D01*
X99440477Y-86392857D01*
X99440477Y-86488095D01*
X99392858Y-86630952D01*
X98821429Y-87202381D01*
X99440477Y-87202381D01*
X69357143Y-77452381D02*
X69357143Y-76452381D01*
X69738096Y-76452381D01*
X69833334Y-76500000D01*
X69880953Y-76547619D01*
X69928572Y-76642857D01*
X69928572Y-76785714D01*
X69880953Y-76880952D01*
X69833334Y-76928571D01*
X69738096Y-76976190D01*
X69357143Y-76976190D01*
X70547619Y-76452381D02*
X70738096Y-76452381D01*
X70833334Y-76500000D01*
X70928572Y-76595238D01*
X70976191Y-76785714D01*
X70976191Y-77119048D01*
X70928572Y-77309524D01*
X70833334Y-77404762D01*
X70738096Y-77452381D01*
X70547619Y-77452381D01*
X70452381Y-77404762D01*
X70357143Y-77309524D01*
X70309524Y-77119048D01*
X70309524Y-76785714D01*
X70357143Y-76595238D01*
X70452381Y-76500000D01*
X70547619Y-76452381D01*
X71261905Y-76452381D02*
X71833334Y-76452381D01*
X71547619Y-77452381D02*
X71547619Y-76452381D01*
X72690477Y-77452381D02*
X72119048Y-77452381D01*
X72404762Y-77452381D02*
X72404762Y-76452381D01*
X72309524Y-76595238D01*
X72214286Y-76690476D01*
X72119048Y-76738095D01*
X164631619Y-71215238D02*
X164584000Y-71310476D01*
X164488762Y-71405714D01*
X164345905Y-71548571D01*
X164298286Y-71643810D01*
X164298286Y-71739048D01*
X164536381Y-71691429D02*
X164488762Y-71786667D01*
X164393524Y-71881905D01*
X164203048Y-71929524D01*
X163869714Y-71929524D01*
X163679238Y-71881905D01*
X163584000Y-71786667D01*
X163536381Y-71691429D01*
X163536381Y-71500952D01*
X163584000Y-71405714D01*
X163679238Y-71310476D01*
X163869714Y-71262857D01*
X164203048Y-71262857D01*
X164393524Y-71310476D01*
X164488762Y-71405714D01*
X164536381Y-71500952D01*
X164536381Y-71691429D01*
X164536381Y-70310476D02*
X164536381Y-70881905D01*
X164536381Y-70596191D02*
X163536381Y-70596191D01*
X163679238Y-70691429D01*
X163774476Y-70786667D01*
X163822095Y-70881905D01*
X160567619Y-71215238D02*
X160520000Y-71310476D01*
X160424762Y-71405714D01*
X160281905Y-71548571D01*
X160234286Y-71643810D01*
X160234286Y-71739048D01*
X160472381Y-71691429D02*
X160424762Y-71786667D01*
X160329524Y-71881905D01*
X160139048Y-71929524D01*
X159805714Y-71929524D01*
X159615238Y-71881905D01*
X159520000Y-71786667D01*
X159472381Y-71691429D01*
X159472381Y-71500952D01*
X159520000Y-71405714D01*
X159615238Y-71310476D01*
X159805714Y-71262857D01*
X160139048Y-71262857D01*
X160329524Y-71310476D01*
X160424762Y-71405714D01*
X160472381Y-71500952D01*
X160472381Y-71691429D01*
X159567619Y-70881905D02*
X159520000Y-70834286D01*
X159472381Y-70739048D01*
X159472381Y-70500952D01*
X159520000Y-70405714D01*
X159567619Y-70358095D01*
X159662857Y-70310476D01*
X159758095Y-70310476D01*
X159900952Y-70358095D01*
X160472381Y-70929524D01*
X160472381Y-70310476D01*
X156503619Y-71215238D02*
X156456000Y-71310476D01*
X156360762Y-71405714D01*
X156217905Y-71548571D01*
X156170286Y-71643810D01*
X156170286Y-71739048D01*
X156408381Y-71691429D02*
X156360762Y-71786667D01*
X156265524Y-71881905D01*
X156075048Y-71929524D01*
X155741714Y-71929524D01*
X155551238Y-71881905D01*
X155456000Y-71786667D01*
X155408381Y-71691429D01*
X155408381Y-71500952D01*
X155456000Y-71405714D01*
X155551238Y-71310476D01*
X155741714Y-71262857D01*
X156075048Y-71262857D01*
X156265524Y-71310476D01*
X156360762Y-71405714D01*
X156408381Y-71500952D01*
X156408381Y-71691429D01*
X155408381Y-70929524D02*
X155408381Y-70310476D01*
X155789333Y-70643810D01*
X155789333Y-70500952D01*
X155836952Y-70405714D01*
X155884571Y-70358095D01*
X155979810Y-70310476D01*
X156217905Y-70310476D01*
X156313143Y-70358095D01*
X156360762Y-70405714D01*
X156408381Y-70500952D01*
X156408381Y-70786667D01*
X156360762Y-70881905D01*
X156313143Y-70929524D01*
X152439619Y-71215238D02*
X152392000Y-71310476D01*
X152296762Y-71405714D01*
X152153905Y-71548571D01*
X152106286Y-71643810D01*
X152106286Y-71739048D01*
X152344381Y-71691429D02*
X152296762Y-71786667D01*
X152201524Y-71881905D01*
X152011048Y-71929524D01*
X151677714Y-71929524D01*
X151487238Y-71881905D01*
X151392000Y-71786667D01*
X151344381Y-71691429D01*
X151344381Y-71500952D01*
X151392000Y-71405714D01*
X151487238Y-71310476D01*
X151677714Y-71262857D01*
X152011048Y-71262857D01*
X152201524Y-71310476D01*
X152296762Y-71405714D01*
X152344381Y-71500952D01*
X152344381Y-71691429D01*
X151677714Y-70405714D02*
X152344381Y-70405714D01*
X151296762Y-70643810D02*
X152011048Y-70881905D01*
X152011048Y-70262857D01*
X148375619Y-71215238D02*
X148328000Y-71310476D01*
X148232762Y-71405714D01*
X148089905Y-71548571D01*
X148042286Y-71643810D01*
X148042286Y-71739048D01*
X148280381Y-71691429D02*
X148232762Y-71786667D01*
X148137524Y-71881905D01*
X147947048Y-71929524D01*
X147613714Y-71929524D01*
X147423238Y-71881905D01*
X147328000Y-71786667D01*
X147280381Y-71691429D01*
X147280381Y-71500952D01*
X147328000Y-71405714D01*
X147423238Y-71310476D01*
X147613714Y-71262857D01*
X147947048Y-71262857D01*
X148137524Y-71310476D01*
X148232762Y-71405714D01*
X148280381Y-71500952D01*
X148280381Y-71691429D01*
X147280381Y-70358095D02*
X147280381Y-70834286D01*
X147756571Y-70881905D01*
X147708952Y-70834286D01*
X147661333Y-70739048D01*
X147661333Y-70500952D01*
X147708952Y-70405714D01*
X147756571Y-70358095D01*
X147851810Y-70310476D01*
X148089905Y-70310476D01*
X148185143Y-70358095D01*
X148232762Y-70405714D01*
X148280381Y-70500952D01*
X148280381Y-70739048D01*
X148232762Y-70834286D01*
X148185143Y-70881905D01*
X144311619Y-71215238D02*
X144264000Y-71310476D01*
X144168762Y-71405714D01*
X144025905Y-71548571D01*
X143978286Y-71643810D01*
X143978286Y-71739048D01*
X144216381Y-71691429D02*
X144168762Y-71786667D01*
X144073524Y-71881905D01*
X143883048Y-71929524D01*
X143549714Y-71929524D01*
X143359238Y-71881905D01*
X143264000Y-71786667D01*
X143216381Y-71691429D01*
X143216381Y-71500952D01*
X143264000Y-71405714D01*
X143359238Y-71310476D01*
X143549714Y-71262857D01*
X143883048Y-71262857D01*
X144073524Y-71310476D01*
X144168762Y-71405714D01*
X144216381Y-71500952D01*
X144216381Y-71691429D01*
X143216381Y-70405714D02*
X143216381Y-70596191D01*
X143264000Y-70691429D01*
X143311619Y-70739048D01*
X143454476Y-70834286D01*
X143644952Y-70881905D01*
X144025905Y-70881905D01*
X144121143Y-70834286D01*
X144168762Y-70786667D01*
X144216381Y-70691429D01*
X144216381Y-70500952D01*
X144168762Y-70405714D01*
X144121143Y-70358095D01*
X144025905Y-70310476D01*
X143787810Y-70310476D01*
X143692571Y-70358095D01*
X143644952Y-70405714D01*
X143597333Y-70500952D01*
X143597333Y-70691429D01*
X143644952Y-70786667D01*
X143692571Y-70834286D01*
X143787810Y-70881905D01*
X140247619Y-71215238D02*
X140200000Y-71310476D01*
X140104762Y-71405714D01*
X139961905Y-71548571D01*
X139914286Y-71643810D01*
X139914286Y-71739048D01*
X140152381Y-71691429D02*
X140104762Y-71786667D01*
X140009524Y-71881905D01*
X139819048Y-71929524D01*
X139485714Y-71929524D01*
X139295238Y-71881905D01*
X139200000Y-71786667D01*
X139152381Y-71691429D01*
X139152381Y-71500952D01*
X139200000Y-71405714D01*
X139295238Y-71310476D01*
X139485714Y-71262857D01*
X139819048Y-71262857D01*
X140009524Y-71310476D01*
X140104762Y-71405714D01*
X140152381Y-71500952D01*
X140152381Y-71691429D01*
X139152381Y-70929524D02*
X139152381Y-70262857D01*
X140152381Y-70691429D01*
X136183619Y-71215238D02*
X136136000Y-71310476D01*
X136040762Y-71405714D01*
X135897905Y-71548571D01*
X135850286Y-71643810D01*
X135850286Y-71739048D01*
X136088381Y-71691429D02*
X136040762Y-71786667D01*
X135945524Y-71881905D01*
X135755048Y-71929524D01*
X135421714Y-71929524D01*
X135231238Y-71881905D01*
X135136000Y-71786667D01*
X135088381Y-71691429D01*
X135088381Y-71500952D01*
X135136000Y-71405714D01*
X135231238Y-71310476D01*
X135421714Y-71262857D01*
X135755048Y-71262857D01*
X135945524Y-71310476D01*
X136040762Y-71405714D01*
X136088381Y-71500952D01*
X136088381Y-71691429D01*
X135516952Y-70691429D02*
X135469333Y-70786667D01*
X135421714Y-70834286D01*
X135326476Y-70881905D01*
X135278857Y-70881905D01*
X135183619Y-70834286D01*
X135136000Y-70786667D01*
X135088381Y-70691429D01*
X135088381Y-70500952D01*
X135136000Y-70405714D01*
X135183619Y-70358095D01*
X135278857Y-70310476D01*
X135326476Y-70310476D01*
X135421714Y-70358095D01*
X135469333Y-70405714D01*
X135516952Y-70500952D01*
X135516952Y-70691429D01*
X135564571Y-70786667D01*
X135612190Y-70834286D01*
X135707429Y-70881905D01*
X135897905Y-70881905D01*
X135993143Y-70834286D01*
X136040762Y-70786667D01*
X136088381Y-70691429D01*
X136088381Y-70500952D01*
X136040762Y-70405714D01*
X135993143Y-70358095D01*
X135897905Y-70310476D01*
X135707429Y-70310476D01*
X135612190Y-70358095D01*
X135564571Y-70405714D01*
X135516952Y-70500952D01*
X132119619Y-71215238D02*
X132072000Y-71310476D01*
X131976762Y-71405714D01*
X131833905Y-71548571D01*
X131786286Y-71643810D01*
X131786286Y-71739048D01*
X132024381Y-71691429D02*
X131976762Y-71786667D01*
X131881524Y-71881905D01*
X131691048Y-71929524D01*
X131357714Y-71929524D01*
X131167238Y-71881905D01*
X131072000Y-71786667D01*
X131024381Y-71691429D01*
X131024381Y-71500952D01*
X131072000Y-71405714D01*
X131167238Y-71310476D01*
X131357714Y-71262857D01*
X131691048Y-71262857D01*
X131881524Y-71310476D01*
X131976762Y-71405714D01*
X132024381Y-71500952D01*
X132024381Y-71691429D01*
X132024381Y-70786667D02*
X132024381Y-70596191D01*
X131976762Y-70500952D01*
X131929143Y-70453333D01*
X131786286Y-70358095D01*
X131595810Y-70310476D01*
X131214857Y-70310476D01*
X131119619Y-70358095D01*
X131072000Y-70405714D01*
X131024381Y-70500952D01*
X131024381Y-70691429D01*
X131072000Y-70786667D01*
X131119619Y-70834286D01*
X131214857Y-70881905D01*
X131452952Y-70881905D01*
X131548190Y-70834286D01*
X131595810Y-70786667D01*
X131643429Y-70691429D01*
X131643429Y-70500952D01*
X131595810Y-70405714D01*
X131548190Y-70358095D01*
X131452952Y-70310476D01*
X128055619Y-71691428D02*
X128008000Y-71786666D01*
X127912762Y-71881904D01*
X127769905Y-72024761D01*
X127722286Y-72120000D01*
X127722286Y-72215238D01*
X127960381Y-72167619D02*
X127912762Y-72262857D01*
X127817524Y-72358095D01*
X127627048Y-72405714D01*
X127293714Y-72405714D01*
X127103238Y-72358095D01*
X127008000Y-72262857D01*
X126960381Y-72167619D01*
X126960381Y-71977142D01*
X127008000Y-71881904D01*
X127103238Y-71786666D01*
X127293714Y-71739047D01*
X127627048Y-71739047D01*
X127817524Y-71786666D01*
X127912762Y-71881904D01*
X127960381Y-71977142D01*
X127960381Y-72167619D01*
X127960381Y-70786666D02*
X127960381Y-71358095D01*
X127960381Y-71072381D02*
X126960381Y-71072381D01*
X127103238Y-71167619D01*
X127198476Y-71262857D01*
X127246095Y-71358095D01*
X126960381Y-70167619D02*
X126960381Y-70072380D01*
X127008000Y-69977142D01*
X127055619Y-69929523D01*
X127150857Y-69881904D01*
X127341333Y-69834285D01*
X127579429Y-69834285D01*
X127769905Y-69881904D01*
X127865143Y-69929523D01*
X127912762Y-69977142D01*
X127960381Y-70072380D01*
X127960381Y-70167619D01*
X127912762Y-70262857D01*
X127865143Y-70310476D01*
X127769905Y-70358095D01*
X127579429Y-70405714D01*
X127341333Y-70405714D01*
X127150857Y-70358095D01*
X127055619Y-70310476D01*
X127008000Y-70262857D01*
X126960381Y-70167619D01*
X123991619Y-71691428D02*
X123944000Y-71786666D01*
X123848762Y-71881904D01*
X123705905Y-72024761D01*
X123658286Y-72120000D01*
X123658286Y-72215238D01*
X123896381Y-72167619D02*
X123848762Y-72262857D01*
X123753524Y-72358095D01*
X123563048Y-72405714D01*
X123229714Y-72405714D01*
X123039238Y-72358095D01*
X122944000Y-72262857D01*
X122896381Y-72167619D01*
X122896381Y-71977142D01*
X122944000Y-71881904D01*
X123039238Y-71786666D01*
X123229714Y-71739047D01*
X123563048Y-71739047D01*
X123753524Y-71786666D01*
X123848762Y-71881904D01*
X123896381Y-71977142D01*
X123896381Y-72167619D01*
X123896381Y-70786666D02*
X123896381Y-71358095D01*
X123896381Y-71072381D02*
X122896381Y-71072381D01*
X123039238Y-71167619D01*
X123134476Y-71262857D01*
X123182095Y-71358095D01*
X123896381Y-69834285D02*
X123896381Y-70405714D01*
X123896381Y-70120000D02*
X122896381Y-70120000D01*
X123039238Y-70215238D01*
X123134476Y-70310476D01*
X123182095Y-70405714D01*
X119927619Y-71691428D02*
X119880000Y-71786666D01*
X119784762Y-71881904D01*
X119641905Y-72024761D01*
X119594286Y-72120000D01*
X119594286Y-72215238D01*
X119832381Y-72167619D02*
X119784762Y-72262857D01*
X119689524Y-72358095D01*
X119499048Y-72405714D01*
X119165714Y-72405714D01*
X118975238Y-72358095D01*
X118880000Y-72262857D01*
X118832381Y-72167619D01*
X118832381Y-71977142D01*
X118880000Y-71881904D01*
X118975238Y-71786666D01*
X119165714Y-71739047D01*
X119499048Y-71739047D01*
X119689524Y-71786666D01*
X119784762Y-71881904D01*
X119832381Y-71977142D01*
X119832381Y-72167619D01*
X119832381Y-70786666D02*
X119832381Y-71358095D01*
X119832381Y-71072381D02*
X118832381Y-71072381D01*
X118975238Y-71167619D01*
X119070476Y-71262857D01*
X119118095Y-71358095D01*
X118927619Y-70405714D02*
X118880000Y-70358095D01*
X118832381Y-70262857D01*
X118832381Y-70024761D01*
X118880000Y-69929523D01*
X118927619Y-69881904D01*
X119022857Y-69834285D01*
X119118095Y-69834285D01*
X119260952Y-69881904D01*
X119832381Y-70453333D01*
X119832381Y-69834285D01*
X115863619Y-71691428D02*
X115816000Y-71786666D01*
X115720762Y-71881904D01*
X115577905Y-72024761D01*
X115530286Y-72120000D01*
X115530286Y-72215238D01*
X115768381Y-72167619D02*
X115720762Y-72262857D01*
X115625524Y-72358095D01*
X115435048Y-72405714D01*
X115101714Y-72405714D01*
X114911238Y-72358095D01*
X114816000Y-72262857D01*
X114768381Y-72167619D01*
X114768381Y-71977142D01*
X114816000Y-71881904D01*
X114911238Y-71786666D01*
X115101714Y-71739047D01*
X115435048Y-71739047D01*
X115625524Y-71786666D01*
X115720762Y-71881904D01*
X115768381Y-71977142D01*
X115768381Y-72167619D01*
X115768381Y-70786666D02*
X115768381Y-71358095D01*
X115768381Y-71072381D02*
X114768381Y-71072381D01*
X114911238Y-71167619D01*
X115006476Y-71262857D01*
X115054095Y-71358095D01*
X114768381Y-70453333D02*
X114768381Y-69834285D01*
X115149333Y-70167619D01*
X115149333Y-70024761D01*
X115196952Y-69929523D01*
X115244571Y-69881904D01*
X115339810Y-69834285D01*
X115577905Y-69834285D01*
X115673143Y-69881904D01*
X115720762Y-69929523D01*
X115768381Y-70024761D01*
X115768381Y-70310476D01*
X115720762Y-70405714D01*
X115673143Y-70453333D01*
X111799619Y-71691428D02*
X111752000Y-71786666D01*
X111656762Y-71881904D01*
X111513905Y-72024761D01*
X111466286Y-72120000D01*
X111466286Y-72215238D01*
X111704381Y-72167619D02*
X111656762Y-72262857D01*
X111561524Y-72358095D01*
X111371048Y-72405714D01*
X111037714Y-72405714D01*
X110847238Y-72358095D01*
X110752000Y-72262857D01*
X110704381Y-72167619D01*
X110704381Y-71977142D01*
X110752000Y-71881904D01*
X110847238Y-71786666D01*
X111037714Y-71739047D01*
X111371048Y-71739047D01*
X111561524Y-71786666D01*
X111656762Y-71881904D01*
X111704381Y-71977142D01*
X111704381Y-72167619D01*
X111704381Y-70786666D02*
X111704381Y-71358095D01*
X111704381Y-71072381D02*
X110704381Y-71072381D01*
X110847238Y-71167619D01*
X110942476Y-71262857D01*
X110990095Y-71358095D01*
X111037714Y-69929523D02*
X111704381Y-69929523D01*
X110656762Y-70167619D02*
X111371048Y-70405714D01*
X111371048Y-69786666D01*
X107735619Y-71691428D02*
X107688000Y-71786666D01*
X107592762Y-71881904D01*
X107449905Y-72024761D01*
X107402286Y-72120000D01*
X107402286Y-72215238D01*
X107640381Y-72167619D02*
X107592762Y-72262857D01*
X107497524Y-72358095D01*
X107307048Y-72405714D01*
X106973714Y-72405714D01*
X106783238Y-72358095D01*
X106688000Y-72262857D01*
X106640381Y-72167619D01*
X106640381Y-71977142D01*
X106688000Y-71881904D01*
X106783238Y-71786666D01*
X106973714Y-71739047D01*
X107307048Y-71739047D01*
X107497524Y-71786666D01*
X107592762Y-71881904D01*
X107640381Y-71977142D01*
X107640381Y-72167619D01*
X107640381Y-70786666D02*
X107640381Y-71358095D01*
X107640381Y-71072381D02*
X106640381Y-71072381D01*
X106783238Y-71167619D01*
X106878476Y-71262857D01*
X106926095Y-71358095D01*
X106640381Y-69881904D02*
X106640381Y-70358095D01*
X107116571Y-70405714D01*
X107068952Y-70358095D01*
X107021333Y-70262857D01*
X107021333Y-70024761D01*
X107068952Y-69929523D01*
X107116571Y-69881904D01*
X107211810Y-69834285D01*
X107449905Y-69834285D01*
X107545143Y-69881904D01*
X107592762Y-69929523D01*
X107640381Y-70024761D01*
X107640381Y-70262857D01*
X107592762Y-70358095D01*
X107545143Y-70405714D01*
X103671619Y-71691428D02*
X103624000Y-71786666D01*
X103528762Y-71881904D01*
X103385905Y-72024761D01*
X103338286Y-72120000D01*
X103338286Y-72215238D01*
X103576381Y-72167619D02*
X103528762Y-72262857D01*
X103433524Y-72358095D01*
X103243048Y-72405714D01*
X102909714Y-72405714D01*
X102719238Y-72358095D01*
X102624000Y-72262857D01*
X102576381Y-72167619D01*
X102576381Y-71977142D01*
X102624000Y-71881904D01*
X102719238Y-71786666D01*
X102909714Y-71739047D01*
X103243048Y-71739047D01*
X103433524Y-71786666D01*
X103528762Y-71881904D01*
X103576381Y-71977142D01*
X103576381Y-72167619D01*
X103576381Y-70786666D02*
X103576381Y-71358095D01*
X103576381Y-71072381D02*
X102576381Y-71072381D01*
X102719238Y-71167619D01*
X102814476Y-71262857D01*
X102862095Y-71358095D01*
X102576381Y-69929523D02*
X102576381Y-70120000D01*
X102624000Y-70215238D01*
X102671619Y-70262857D01*
X102814476Y-70358095D01*
X103004952Y-70405714D01*
X103385905Y-70405714D01*
X103481143Y-70358095D01*
X103528762Y-70310476D01*
X103576381Y-70215238D01*
X103576381Y-70024761D01*
X103528762Y-69929523D01*
X103481143Y-69881904D01*
X103385905Y-69834285D01*
X103147810Y-69834285D01*
X103052571Y-69881904D01*
X103004952Y-69929523D01*
X102957333Y-70024761D01*
X102957333Y-70215238D01*
X103004952Y-70310476D01*
X103052571Y-70358095D01*
X103147810Y-70405714D01*
X78083334Y-72952381D02*
X77750000Y-72476190D01*
X77511905Y-72952381D02*
X77511905Y-71952381D01*
X77892858Y-71952381D01*
X77988096Y-72000000D01*
X78035715Y-72047619D01*
X78083334Y-72142857D01*
X78083334Y-72285714D01*
X78035715Y-72380952D01*
X77988096Y-72428571D01*
X77892858Y-72476190D01*
X77511905Y-72476190D01*
X78940477Y-72285714D02*
X78940477Y-72952381D01*
X78702381Y-71904762D02*
X78464286Y-72619048D01*
X79083334Y-72619048D01*
X80533334Y-78602381D02*
X80200000Y-78126190D01*
X79961905Y-78602381D02*
X79961905Y-77602381D01*
X80342858Y-77602381D01*
X80438096Y-77650000D01*
X80485715Y-77697619D01*
X80533334Y-77792857D01*
X80533334Y-77935714D01*
X80485715Y-78030952D01*
X80438096Y-78078571D01*
X80342858Y-78126190D01*
X79961905Y-78126190D01*
X81438096Y-77602381D02*
X80961905Y-77602381D01*
X80914286Y-78078571D01*
X80961905Y-78030952D01*
X81057143Y-77983333D01*
X81295239Y-77983333D01*
X81390477Y-78030952D01*
X81438096Y-78078571D01*
X81485715Y-78173810D01*
X81485715Y-78411905D01*
X81438096Y-78507143D01*
X81390477Y-78554762D01*
X81295239Y-78602381D01*
X81057143Y-78602381D01*
X80961905Y-78554762D01*
X80914286Y-78507143D01*
X83683334Y-79702381D02*
X83350000Y-79226190D01*
X83111905Y-79702381D02*
X83111905Y-78702381D01*
X83492858Y-78702381D01*
X83588096Y-78750000D01*
X83635715Y-78797619D01*
X83683334Y-78892857D01*
X83683334Y-79035714D01*
X83635715Y-79130952D01*
X83588096Y-79178571D01*
X83492858Y-79226190D01*
X83111905Y-79226190D01*
X84540477Y-78702381D02*
X84350000Y-78702381D01*
X84254762Y-78750000D01*
X84207143Y-78797619D01*
X84111905Y-78940476D01*
X84064286Y-79130952D01*
X84064286Y-79511905D01*
X84111905Y-79607143D01*
X84159524Y-79654762D01*
X84254762Y-79702381D01*
X84445239Y-79702381D01*
X84540477Y-79654762D01*
X84588096Y-79607143D01*
X84635715Y-79511905D01*
X84635715Y-79273810D01*
X84588096Y-79178571D01*
X84540477Y-79130952D01*
X84445239Y-79083333D01*
X84254762Y-79083333D01*
X84159524Y-79130952D01*
X84111905Y-79178571D01*
X84064286Y-79273810D01*
X67651334Y-125674381D02*
X67318000Y-125198190D01*
X67079905Y-125674381D02*
X67079905Y-124674381D01*
X67460858Y-124674381D01*
X67556096Y-124722000D01*
X67603715Y-124769619D01*
X67651334Y-124864857D01*
X67651334Y-125007714D01*
X67603715Y-125102952D01*
X67556096Y-125150571D01*
X67460858Y-125198190D01*
X67079905Y-125198190D01*
X68127524Y-125674381D02*
X68318000Y-125674381D01*
X68413239Y-125626762D01*
X68460858Y-125579143D01*
X68556096Y-125436286D01*
X68603715Y-125245810D01*
X68603715Y-124864857D01*
X68556096Y-124769619D01*
X68508477Y-124722000D01*
X68413239Y-124674381D01*
X68222762Y-124674381D01*
X68127524Y-124722000D01*
X68079905Y-124769619D01*
X68032286Y-124864857D01*
X68032286Y-125102952D01*
X68079905Y-125198190D01*
X68127524Y-125245810D01*
X68222762Y-125293429D01*
X68413239Y-125293429D01*
X68508477Y-125245810D01*
X68556096Y-125198190D01*
X68603715Y-125102952D01*
X119607143Y-135952381D02*
X119273809Y-135476190D01*
X119035714Y-135952381D02*
X119035714Y-134952381D01*
X119416667Y-134952381D01*
X119511905Y-135000000D01*
X119559524Y-135047619D01*
X119607143Y-135142857D01*
X119607143Y-135285714D01*
X119559524Y-135380952D01*
X119511905Y-135428571D01*
X119416667Y-135476190D01*
X119035714Y-135476190D01*
X120559524Y-135952381D02*
X119988095Y-135952381D01*
X120273809Y-135952381D02*
X120273809Y-134952381D01*
X120178571Y-135095238D01*
X120083333Y-135190476D01*
X119988095Y-135238095D01*
X121178571Y-134952381D02*
X121273810Y-134952381D01*
X121369048Y-135000000D01*
X121416667Y-135047619D01*
X121464286Y-135142857D01*
X121511905Y-135333333D01*
X121511905Y-135571429D01*
X121464286Y-135761905D01*
X121416667Y-135857143D01*
X121369048Y-135904762D01*
X121273810Y-135952381D01*
X121178571Y-135952381D01*
X121083333Y-135904762D01*
X121035714Y-135857143D01*
X120988095Y-135761905D01*
X120940476Y-135571429D01*
X120940476Y-135333333D01*
X120988095Y-135142857D01*
X121035714Y-135047619D01*
X121083333Y-135000000D01*
X121178571Y-134952381D01*
X164282381Y-65158857D02*
X163806190Y-65492191D01*
X164282381Y-65730286D02*
X163282381Y-65730286D01*
X163282381Y-65349333D01*
X163330000Y-65254095D01*
X163377619Y-65206476D01*
X163472857Y-65158857D01*
X163615714Y-65158857D01*
X163710952Y-65206476D01*
X163758571Y-65254095D01*
X163806190Y-65349333D01*
X163806190Y-65730286D01*
X164282381Y-64206476D02*
X164282381Y-64777905D01*
X164282381Y-64492191D02*
X163282381Y-64492191D01*
X163425238Y-64587429D01*
X163520476Y-64682667D01*
X163568095Y-64777905D01*
X163282381Y-63873143D02*
X163282381Y-63254095D01*
X163663333Y-63587429D01*
X163663333Y-63444571D01*
X163710952Y-63349333D01*
X163758571Y-63301714D01*
X163853810Y-63254095D01*
X164091905Y-63254095D01*
X164187143Y-63301714D01*
X164234762Y-63349333D01*
X164282381Y-63444571D01*
X164282381Y-63730286D01*
X164234762Y-63825524D01*
X164187143Y-63873143D01*
X163520381Y-82430857D02*
X163044190Y-82764191D01*
X163520381Y-83002286D02*
X162520381Y-83002286D01*
X162520381Y-82621333D01*
X162568000Y-82526095D01*
X162615619Y-82478476D01*
X162710857Y-82430857D01*
X162853714Y-82430857D01*
X162948952Y-82478476D01*
X162996571Y-82526095D01*
X163044190Y-82621333D01*
X163044190Y-83002286D01*
X163520381Y-81478476D02*
X163520381Y-82049905D01*
X163520381Y-81764191D02*
X162520381Y-81764191D01*
X162663238Y-81859429D01*
X162758476Y-81954667D01*
X162806095Y-82049905D01*
X162853714Y-80621333D02*
X163520381Y-80621333D01*
X162472762Y-80859429D02*
X163187048Y-81097524D01*
X163187048Y-80478476D01*
X161488381Y-82430857D02*
X161012190Y-82764191D01*
X161488381Y-83002286D02*
X160488381Y-83002286D01*
X160488381Y-82621333D01*
X160536000Y-82526095D01*
X160583619Y-82478476D01*
X160678857Y-82430857D01*
X160821714Y-82430857D01*
X160916952Y-82478476D01*
X160964571Y-82526095D01*
X161012190Y-82621333D01*
X161012190Y-83002286D01*
X161488381Y-81478476D02*
X161488381Y-82049905D01*
X161488381Y-81764191D02*
X160488381Y-81764191D01*
X160631238Y-81859429D01*
X160726476Y-81954667D01*
X160774095Y-82049905D01*
X160488381Y-80573714D02*
X160488381Y-81049905D01*
X160964571Y-81097524D01*
X160916952Y-81049905D01*
X160869333Y-80954667D01*
X160869333Y-80716571D01*
X160916952Y-80621333D01*
X160964571Y-80573714D01*
X161059810Y-80526095D01*
X161297905Y-80526095D01*
X161393143Y-80573714D01*
X161440762Y-80621333D01*
X161488381Y-80716571D01*
X161488381Y-80954667D01*
X161440762Y-81049905D01*
X161393143Y-81097524D01*
X160218381Y-65158857D02*
X159742190Y-65492191D01*
X160218381Y-65730286D02*
X159218381Y-65730286D01*
X159218381Y-65349333D01*
X159266000Y-65254095D01*
X159313619Y-65206476D01*
X159408857Y-65158857D01*
X159551714Y-65158857D01*
X159646952Y-65206476D01*
X159694571Y-65254095D01*
X159742190Y-65349333D01*
X159742190Y-65730286D01*
X160218381Y-64206476D02*
X160218381Y-64777905D01*
X160218381Y-64492191D02*
X159218381Y-64492191D01*
X159361238Y-64587429D01*
X159456476Y-64682667D01*
X159504095Y-64777905D01*
X159218381Y-63349333D02*
X159218381Y-63539810D01*
X159266000Y-63635048D01*
X159313619Y-63682667D01*
X159456476Y-63777905D01*
X159646952Y-63825524D01*
X160027905Y-63825524D01*
X160123143Y-63777905D01*
X160170762Y-63730286D01*
X160218381Y-63635048D01*
X160218381Y-63444571D01*
X160170762Y-63349333D01*
X160123143Y-63301714D01*
X160027905Y-63254095D01*
X159789810Y-63254095D01*
X159694571Y-63301714D01*
X159646952Y-63349333D01*
X159599333Y-63444571D01*
X159599333Y-63635048D01*
X159646952Y-63730286D01*
X159694571Y-63777905D01*
X159789810Y-63825524D01*
X159456381Y-82430857D02*
X158980190Y-82764191D01*
X159456381Y-83002286D02*
X158456381Y-83002286D01*
X158456381Y-82621333D01*
X158504000Y-82526095D01*
X158551619Y-82478476D01*
X158646857Y-82430857D01*
X158789714Y-82430857D01*
X158884952Y-82478476D01*
X158932571Y-82526095D01*
X158980190Y-82621333D01*
X158980190Y-83002286D01*
X159456381Y-81478476D02*
X159456381Y-82049905D01*
X159456381Y-81764191D02*
X158456381Y-81764191D01*
X158599238Y-81859429D01*
X158694476Y-81954667D01*
X158742095Y-82049905D01*
X158456381Y-81145143D02*
X158456381Y-80478476D01*
X159456381Y-80907048D01*
X157424381Y-82430857D02*
X156948190Y-82764191D01*
X157424381Y-83002286D02*
X156424381Y-83002286D01*
X156424381Y-82621333D01*
X156472000Y-82526095D01*
X156519619Y-82478476D01*
X156614857Y-82430857D01*
X156757714Y-82430857D01*
X156852952Y-82478476D01*
X156900571Y-82526095D01*
X156948190Y-82621333D01*
X156948190Y-83002286D01*
X157424381Y-81478476D02*
X157424381Y-82049905D01*
X157424381Y-81764191D02*
X156424381Y-81764191D01*
X156567238Y-81859429D01*
X156662476Y-81954667D01*
X156710095Y-82049905D01*
X156852952Y-80907048D02*
X156805333Y-81002286D01*
X156757714Y-81049905D01*
X156662476Y-81097524D01*
X156614857Y-81097524D01*
X156519619Y-81049905D01*
X156472000Y-81002286D01*
X156424381Y-80907048D01*
X156424381Y-80716571D01*
X156472000Y-80621333D01*
X156519619Y-80573714D01*
X156614857Y-80526095D01*
X156662476Y-80526095D01*
X156757714Y-80573714D01*
X156805333Y-80621333D01*
X156852952Y-80716571D01*
X156852952Y-80907048D01*
X156900571Y-81002286D01*
X156948190Y-81049905D01*
X157043429Y-81097524D01*
X157233905Y-81097524D01*
X157329143Y-81049905D01*
X157376762Y-81002286D01*
X157424381Y-80907048D01*
X157424381Y-80716571D01*
X157376762Y-80621333D01*
X157329143Y-80573714D01*
X157233905Y-80526095D01*
X157043429Y-80526095D01*
X156948190Y-80573714D01*
X156900571Y-80621333D01*
X156852952Y-80716571D01*
X156154381Y-65158857D02*
X155678190Y-65492191D01*
X156154381Y-65730286D02*
X155154381Y-65730286D01*
X155154381Y-65349333D01*
X155202000Y-65254095D01*
X155249619Y-65206476D01*
X155344857Y-65158857D01*
X155487714Y-65158857D01*
X155582952Y-65206476D01*
X155630571Y-65254095D01*
X155678190Y-65349333D01*
X155678190Y-65730286D01*
X156154381Y-64206476D02*
X156154381Y-64777905D01*
X156154381Y-64492191D02*
X155154381Y-64492191D01*
X155297238Y-64587429D01*
X155392476Y-64682667D01*
X155440095Y-64777905D01*
X156154381Y-63730286D02*
X156154381Y-63539810D01*
X156106762Y-63444571D01*
X156059143Y-63396952D01*
X155916286Y-63301714D01*
X155725810Y-63254095D01*
X155344857Y-63254095D01*
X155249619Y-63301714D01*
X155202000Y-63349333D01*
X155154381Y-63444571D01*
X155154381Y-63635048D01*
X155202000Y-63730286D01*
X155249619Y-63777905D01*
X155344857Y-63825524D01*
X155582952Y-63825524D01*
X155678190Y-63777905D01*
X155725810Y-63730286D01*
X155773429Y-63635048D01*
X155773429Y-63444571D01*
X155725810Y-63349333D01*
X155678190Y-63301714D01*
X155582952Y-63254095D01*
X155392381Y-82430857D02*
X154916190Y-82764191D01*
X155392381Y-83002286D02*
X154392381Y-83002286D01*
X154392381Y-82621333D01*
X154440000Y-82526095D01*
X154487619Y-82478476D01*
X154582857Y-82430857D01*
X154725714Y-82430857D01*
X154820952Y-82478476D01*
X154868571Y-82526095D01*
X154916190Y-82621333D01*
X154916190Y-83002286D01*
X154487619Y-82049905D02*
X154440000Y-82002286D01*
X154392381Y-81907048D01*
X154392381Y-81668952D01*
X154440000Y-81573714D01*
X154487619Y-81526095D01*
X154582857Y-81478476D01*
X154678095Y-81478476D01*
X154820952Y-81526095D01*
X155392381Y-82097524D01*
X155392381Y-81478476D01*
X154392381Y-80859429D02*
X154392381Y-80764190D01*
X154440000Y-80668952D01*
X154487619Y-80621333D01*
X154582857Y-80573714D01*
X154773333Y-80526095D01*
X155011429Y-80526095D01*
X155201905Y-80573714D01*
X155297143Y-80621333D01*
X155344762Y-80668952D01*
X155392381Y-80764190D01*
X155392381Y-80859429D01*
X155344762Y-80954667D01*
X155297143Y-81002286D01*
X155201905Y-81049905D01*
X155011429Y-81097524D01*
X154773333Y-81097524D01*
X154582857Y-81049905D01*
X154487619Y-81002286D01*
X154440000Y-80954667D01*
X154392381Y-80859429D01*
X153360381Y-82430857D02*
X152884190Y-82764191D01*
X153360381Y-83002286D02*
X152360381Y-83002286D01*
X152360381Y-82621333D01*
X152408000Y-82526095D01*
X152455619Y-82478476D01*
X152550857Y-82430857D01*
X152693714Y-82430857D01*
X152788952Y-82478476D01*
X152836571Y-82526095D01*
X152884190Y-82621333D01*
X152884190Y-83002286D01*
X152455619Y-82049905D02*
X152408000Y-82002286D01*
X152360381Y-81907048D01*
X152360381Y-81668952D01*
X152408000Y-81573714D01*
X152455619Y-81526095D01*
X152550857Y-81478476D01*
X152646095Y-81478476D01*
X152788952Y-81526095D01*
X153360381Y-82097524D01*
X153360381Y-81478476D01*
X153360381Y-80526095D02*
X153360381Y-81097524D01*
X153360381Y-80811810D02*
X152360381Y-80811810D01*
X152503238Y-80907048D01*
X152598476Y-81002286D01*
X152646095Y-81097524D01*
X152090381Y-65158857D02*
X151614190Y-65492191D01*
X152090381Y-65730286D02*
X151090381Y-65730286D01*
X151090381Y-65349333D01*
X151138000Y-65254095D01*
X151185619Y-65206476D01*
X151280857Y-65158857D01*
X151423714Y-65158857D01*
X151518952Y-65206476D01*
X151566571Y-65254095D01*
X151614190Y-65349333D01*
X151614190Y-65730286D01*
X151185619Y-64777905D02*
X151138000Y-64730286D01*
X151090381Y-64635048D01*
X151090381Y-64396952D01*
X151138000Y-64301714D01*
X151185619Y-64254095D01*
X151280857Y-64206476D01*
X151376095Y-64206476D01*
X151518952Y-64254095D01*
X152090381Y-64825524D01*
X152090381Y-64206476D01*
X151185619Y-63825524D02*
X151138000Y-63777905D01*
X151090381Y-63682667D01*
X151090381Y-63444571D01*
X151138000Y-63349333D01*
X151185619Y-63301714D01*
X151280857Y-63254095D01*
X151376095Y-63254095D01*
X151518952Y-63301714D01*
X152090381Y-63873143D01*
X152090381Y-63254095D01*
X151328381Y-82430857D02*
X150852190Y-82764191D01*
X151328381Y-83002286D02*
X150328381Y-83002286D01*
X150328381Y-82621333D01*
X150376000Y-82526095D01*
X150423619Y-82478476D01*
X150518857Y-82430857D01*
X150661714Y-82430857D01*
X150756952Y-82478476D01*
X150804571Y-82526095D01*
X150852190Y-82621333D01*
X150852190Y-83002286D01*
X150423619Y-82049905D02*
X150376000Y-82002286D01*
X150328381Y-81907048D01*
X150328381Y-81668952D01*
X150376000Y-81573714D01*
X150423619Y-81526095D01*
X150518857Y-81478476D01*
X150614095Y-81478476D01*
X150756952Y-81526095D01*
X151328381Y-82097524D01*
X151328381Y-81478476D01*
X150328381Y-81145143D02*
X150328381Y-80526095D01*
X150709333Y-80859429D01*
X150709333Y-80716571D01*
X150756952Y-80621333D01*
X150804571Y-80573714D01*
X150899810Y-80526095D01*
X151137905Y-80526095D01*
X151233143Y-80573714D01*
X151280762Y-80621333D01*
X151328381Y-80716571D01*
X151328381Y-81002286D01*
X151280762Y-81097524D01*
X151233143Y-81145143D01*
X148026381Y-65158857D02*
X147550190Y-65492191D01*
X148026381Y-65730286D02*
X147026381Y-65730286D01*
X147026381Y-65349333D01*
X147074000Y-65254095D01*
X147121619Y-65206476D01*
X147216857Y-65158857D01*
X147359714Y-65158857D01*
X147454952Y-65206476D01*
X147502571Y-65254095D01*
X147550190Y-65349333D01*
X147550190Y-65730286D01*
X147121619Y-64777905D02*
X147074000Y-64730286D01*
X147026381Y-64635048D01*
X147026381Y-64396952D01*
X147074000Y-64301714D01*
X147121619Y-64254095D01*
X147216857Y-64206476D01*
X147312095Y-64206476D01*
X147454952Y-64254095D01*
X148026381Y-64825524D01*
X148026381Y-64206476D01*
X147026381Y-63301714D02*
X147026381Y-63777905D01*
X147502571Y-63825524D01*
X147454952Y-63777905D01*
X147407333Y-63682667D01*
X147407333Y-63444571D01*
X147454952Y-63349333D01*
X147502571Y-63301714D01*
X147597810Y-63254095D01*
X147835905Y-63254095D01*
X147931143Y-63301714D01*
X147978762Y-63349333D01*
X148026381Y-63444571D01*
X148026381Y-63682667D01*
X147978762Y-63777905D01*
X147931143Y-63825524D01*
X147264381Y-82430857D02*
X146788190Y-82764191D01*
X147264381Y-83002286D02*
X146264381Y-83002286D01*
X146264381Y-82621333D01*
X146312000Y-82526095D01*
X146359619Y-82478476D01*
X146454857Y-82430857D01*
X146597714Y-82430857D01*
X146692952Y-82478476D01*
X146740571Y-82526095D01*
X146788190Y-82621333D01*
X146788190Y-83002286D01*
X146359619Y-82049905D02*
X146312000Y-82002286D01*
X146264381Y-81907048D01*
X146264381Y-81668952D01*
X146312000Y-81573714D01*
X146359619Y-81526095D01*
X146454857Y-81478476D01*
X146550095Y-81478476D01*
X146692952Y-81526095D01*
X147264381Y-82097524D01*
X147264381Y-81478476D01*
X146264381Y-80621333D02*
X146264381Y-80811810D01*
X146312000Y-80907048D01*
X146359619Y-80954667D01*
X146502476Y-81049905D01*
X146692952Y-81097524D01*
X147073905Y-81097524D01*
X147169143Y-81049905D01*
X147216762Y-81002286D01*
X147264381Y-80907048D01*
X147264381Y-80716571D01*
X147216762Y-80621333D01*
X147169143Y-80573714D01*
X147073905Y-80526095D01*
X146835810Y-80526095D01*
X146740571Y-80573714D01*
X146692952Y-80621333D01*
X146645333Y-80716571D01*
X146645333Y-80907048D01*
X146692952Y-81002286D01*
X146740571Y-81049905D01*
X146835810Y-81097524D01*
X145232381Y-82430857D02*
X144756190Y-82764191D01*
X145232381Y-83002286D02*
X144232381Y-83002286D01*
X144232381Y-82621333D01*
X144280000Y-82526095D01*
X144327619Y-82478476D01*
X144422857Y-82430857D01*
X144565714Y-82430857D01*
X144660952Y-82478476D01*
X144708571Y-82526095D01*
X144756190Y-82621333D01*
X144756190Y-83002286D01*
X144327619Y-82049905D02*
X144280000Y-82002286D01*
X144232381Y-81907048D01*
X144232381Y-81668952D01*
X144280000Y-81573714D01*
X144327619Y-81526095D01*
X144422857Y-81478476D01*
X144518095Y-81478476D01*
X144660952Y-81526095D01*
X145232381Y-82097524D01*
X145232381Y-81478476D01*
X144232381Y-81145143D02*
X144232381Y-80478476D01*
X145232381Y-80907048D01*
X143962381Y-65158857D02*
X143486190Y-65492191D01*
X143962381Y-65730286D02*
X142962381Y-65730286D01*
X142962381Y-65349333D01*
X143010000Y-65254095D01*
X143057619Y-65206476D01*
X143152857Y-65158857D01*
X143295714Y-65158857D01*
X143390952Y-65206476D01*
X143438571Y-65254095D01*
X143486190Y-65349333D01*
X143486190Y-65730286D01*
X143057619Y-64777905D02*
X143010000Y-64730286D01*
X142962381Y-64635048D01*
X142962381Y-64396952D01*
X143010000Y-64301714D01*
X143057619Y-64254095D01*
X143152857Y-64206476D01*
X143248095Y-64206476D01*
X143390952Y-64254095D01*
X143962381Y-64825524D01*
X143962381Y-64206476D01*
X143390952Y-63635048D02*
X143343333Y-63730286D01*
X143295714Y-63777905D01*
X143200476Y-63825524D01*
X143152857Y-63825524D01*
X143057619Y-63777905D01*
X143010000Y-63730286D01*
X142962381Y-63635048D01*
X142962381Y-63444571D01*
X143010000Y-63349333D01*
X143057619Y-63301714D01*
X143152857Y-63254095D01*
X143200476Y-63254095D01*
X143295714Y-63301714D01*
X143343333Y-63349333D01*
X143390952Y-63444571D01*
X143390952Y-63635048D01*
X143438571Y-63730286D01*
X143486190Y-63777905D01*
X143581429Y-63825524D01*
X143771905Y-63825524D01*
X143867143Y-63777905D01*
X143914762Y-63730286D01*
X143962381Y-63635048D01*
X143962381Y-63444571D01*
X143914762Y-63349333D01*
X143867143Y-63301714D01*
X143771905Y-63254095D01*
X143581429Y-63254095D01*
X143486190Y-63301714D01*
X143438571Y-63349333D01*
X143390952Y-63444571D01*
X143200381Y-82430857D02*
X142724190Y-82764191D01*
X143200381Y-83002286D02*
X142200381Y-83002286D01*
X142200381Y-82621333D01*
X142248000Y-82526095D01*
X142295619Y-82478476D01*
X142390857Y-82430857D01*
X142533714Y-82430857D01*
X142628952Y-82478476D01*
X142676571Y-82526095D01*
X142724190Y-82621333D01*
X142724190Y-83002286D01*
X142295619Y-82049905D02*
X142248000Y-82002286D01*
X142200381Y-81907048D01*
X142200381Y-81668952D01*
X142248000Y-81573714D01*
X142295619Y-81526095D01*
X142390857Y-81478476D01*
X142486095Y-81478476D01*
X142628952Y-81526095D01*
X143200381Y-82097524D01*
X143200381Y-81478476D01*
X143200381Y-81002286D02*
X143200381Y-80811810D01*
X143152762Y-80716571D01*
X143105143Y-80668952D01*
X142962286Y-80573714D01*
X142771810Y-80526095D01*
X142390857Y-80526095D01*
X142295619Y-80573714D01*
X142248000Y-80621333D01*
X142200381Y-80716571D01*
X142200381Y-80907048D01*
X142248000Y-81002286D01*
X142295619Y-81049905D01*
X142390857Y-81097524D01*
X142628952Y-81097524D01*
X142724190Y-81049905D01*
X142771810Y-81002286D01*
X142819429Y-80907048D01*
X142819429Y-80716571D01*
X142771810Y-80621333D01*
X142724190Y-80573714D01*
X142628952Y-80526095D01*
X141168381Y-82430857D02*
X140692190Y-82764191D01*
X141168381Y-83002286D02*
X140168381Y-83002286D01*
X140168381Y-82621333D01*
X140216000Y-82526095D01*
X140263619Y-82478476D01*
X140358857Y-82430857D01*
X140501714Y-82430857D01*
X140596952Y-82478476D01*
X140644571Y-82526095D01*
X140692190Y-82621333D01*
X140692190Y-83002286D01*
X140168381Y-82097524D02*
X140168381Y-81478476D01*
X140549333Y-81811810D01*
X140549333Y-81668952D01*
X140596952Y-81573714D01*
X140644571Y-81526095D01*
X140739810Y-81478476D01*
X140977905Y-81478476D01*
X141073143Y-81526095D01*
X141120762Y-81573714D01*
X141168381Y-81668952D01*
X141168381Y-81954667D01*
X141120762Y-82049905D01*
X141073143Y-82097524D01*
X140168381Y-80859429D02*
X140168381Y-80764190D01*
X140216000Y-80668952D01*
X140263619Y-80621333D01*
X140358857Y-80573714D01*
X140549333Y-80526095D01*
X140787429Y-80526095D01*
X140977905Y-80573714D01*
X141073143Y-80621333D01*
X141120762Y-80668952D01*
X141168381Y-80764190D01*
X141168381Y-80859429D01*
X141120762Y-80954667D01*
X141073143Y-81002286D01*
X140977905Y-81049905D01*
X140787429Y-81097524D01*
X140549333Y-81097524D01*
X140358857Y-81049905D01*
X140263619Y-81002286D01*
X140216000Y-80954667D01*
X140168381Y-80859429D01*
X139898381Y-65158857D02*
X139422190Y-65492191D01*
X139898381Y-65730286D02*
X138898381Y-65730286D01*
X138898381Y-65349333D01*
X138946000Y-65254095D01*
X138993619Y-65206476D01*
X139088857Y-65158857D01*
X139231714Y-65158857D01*
X139326952Y-65206476D01*
X139374571Y-65254095D01*
X139422190Y-65349333D01*
X139422190Y-65730286D01*
X138898381Y-64825524D02*
X138898381Y-64206476D01*
X139279333Y-64539810D01*
X139279333Y-64396952D01*
X139326952Y-64301714D01*
X139374571Y-64254095D01*
X139469810Y-64206476D01*
X139707905Y-64206476D01*
X139803143Y-64254095D01*
X139850762Y-64301714D01*
X139898381Y-64396952D01*
X139898381Y-64682667D01*
X139850762Y-64777905D01*
X139803143Y-64825524D01*
X139898381Y-63254095D02*
X139898381Y-63825524D01*
X139898381Y-63539810D02*
X138898381Y-63539810D01*
X139041238Y-63635048D01*
X139136476Y-63730286D01*
X139184095Y-63825524D01*
X139136381Y-82430857D02*
X138660190Y-82764191D01*
X139136381Y-83002286D02*
X138136381Y-83002286D01*
X138136381Y-82621333D01*
X138184000Y-82526095D01*
X138231619Y-82478476D01*
X138326857Y-82430857D01*
X138469714Y-82430857D01*
X138564952Y-82478476D01*
X138612571Y-82526095D01*
X138660190Y-82621333D01*
X138660190Y-83002286D01*
X138136381Y-82097524D02*
X138136381Y-81478476D01*
X138517333Y-81811810D01*
X138517333Y-81668952D01*
X138564952Y-81573714D01*
X138612571Y-81526095D01*
X138707810Y-81478476D01*
X138945905Y-81478476D01*
X139041143Y-81526095D01*
X139088762Y-81573714D01*
X139136381Y-81668952D01*
X139136381Y-81954667D01*
X139088762Y-82049905D01*
X139041143Y-82097524D01*
X138231619Y-81097524D02*
X138184000Y-81049905D01*
X138136381Y-80954667D01*
X138136381Y-80716571D01*
X138184000Y-80621333D01*
X138231619Y-80573714D01*
X138326857Y-80526095D01*
X138422095Y-80526095D01*
X138564952Y-80573714D01*
X139136381Y-81145143D01*
X139136381Y-80526095D01*
X137104381Y-82430857D02*
X136628190Y-82764191D01*
X137104381Y-83002286D02*
X136104381Y-83002286D01*
X136104381Y-82621333D01*
X136152000Y-82526095D01*
X136199619Y-82478476D01*
X136294857Y-82430857D01*
X136437714Y-82430857D01*
X136532952Y-82478476D01*
X136580571Y-82526095D01*
X136628190Y-82621333D01*
X136628190Y-83002286D01*
X136104381Y-82097524D02*
X136104381Y-81478476D01*
X136485333Y-81811810D01*
X136485333Y-81668952D01*
X136532952Y-81573714D01*
X136580571Y-81526095D01*
X136675810Y-81478476D01*
X136913905Y-81478476D01*
X137009143Y-81526095D01*
X137056762Y-81573714D01*
X137104381Y-81668952D01*
X137104381Y-81954667D01*
X137056762Y-82049905D01*
X137009143Y-82097524D01*
X136104381Y-81145143D02*
X136104381Y-80526095D01*
X136485333Y-80859429D01*
X136485333Y-80716571D01*
X136532952Y-80621333D01*
X136580571Y-80573714D01*
X136675810Y-80526095D01*
X136913905Y-80526095D01*
X137009143Y-80573714D01*
X137056762Y-80621333D01*
X137104381Y-80716571D01*
X137104381Y-81002286D01*
X137056762Y-81097524D01*
X137009143Y-81145143D01*
X135834381Y-65158857D02*
X135358190Y-65492191D01*
X135834381Y-65730286D02*
X134834381Y-65730286D01*
X134834381Y-65349333D01*
X134882000Y-65254095D01*
X134929619Y-65206476D01*
X135024857Y-65158857D01*
X135167714Y-65158857D01*
X135262952Y-65206476D01*
X135310571Y-65254095D01*
X135358190Y-65349333D01*
X135358190Y-65730286D01*
X134834381Y-64825524D02*
X134834381Y-64206476D01*
X135215333Y-64539810D01*
X135215333Y-64396952D01*
X135262952Y-64301714D01*
X135310571Y-64254095D01*
X135405810Y-64206476D01*
X135643905Y-64206476D01*
X135739143Y-64254095D01*
X135786762Y-64301714D01*
X135834381Y-64396952D01*
X135834381Y-64682667D01*
X135786762Y-64777905D01*
X135739143Y-64825524D01*
X135167714Y-63349333D02*
X135834381Y-63349333D01*
X134786762Y-63587429D02*
X135501048Y-63825524D01*
X135501048Y-63206476D01*
X135072381Y-82430857D02*
X134596190Y-82764191D01*
X135072381Y-83002286D02*
X134072381Y-83002286D01*
X134072381Y-82621333D01*
X134120000Y-82526095D01*
X134167619Y-82478476D01*
X134262857Y-82430857D01*
X134405714Y-82430857D01*
X134500952Y-82478476D01*
X134548571Y-82526095D01*
X134596190Y-82621333D01*
X134596190Y-83002286D01*
X134072381Y-82097524D02*
X134072381Y-81478476D01*
X134453333Y-81811810D01*
X134453333Y-81668952D01*
X134500952Y-81573714D01*
X134548571Y-81526095D01*
X134643810Y-81478476D01*
X134881905Y-81478476D01*
X134977143Y-81526095D01*
X135024762Y-81573714D01*
X135072381Y-81668952D01*
X135072381Y-81954667D01*
X135024762Y-82049905D01*
X134977143Y-82097524D01*
X134072381Y-80573714D02*
X134072381Y-81049905D01*
X134548571Y-81097524D01*
X134500952Y-81049905D01*
X134453333Y-80954667D01*
X134453333Y-80716571D01*
X134500952Y-80621333D01*
X134548571Y-80573714D01*
X134643810Y-80526095D01*
X134881905Y-80526095D01*
X134977143Y-80573714D01*
X135024762Y-80621333D01*
X135072381Y-80716571D01*
X135072381Y-80954667D01*
X135024762Y-81049905D01*
X134977143Y-81097524D01*
X133040381Y-82430857D02*
X132564190Y-82764191D01*
X133040381Y-83002286D02*
X132040381Y-83002286D01*
X132040381Y-82621333D01*
X132088000Y-82526095D01*
X132135619Y-82478476D01*
X132230857Y-82430857D01*
X132373714Y-82430857D01*
X132468952Y-82478476D01*
X132516571Y-82526095D01*
X132564190Y-82621333D01*
X132564190Y-83002286D01*
X132040381Y-82097524D02*
X132040381Y-81478476D01*
X132421333Y-81811810D01*
X132421333Y-81668952D01*
X132468952Y-81573714D01*
X132516571Y-81526095D01*
X132611810Y-81478476D01*
X132849905Y-81478476D01*
X132945143Y-81526095D01*
X132992762Y-81573714D01*
X133040381Y-81668952D01*
X133040381Y-81954667D01*
X132992762Y-82049905D01*
X132945143Y-82097524D01*
X132040381Y-80621333D02*
X132040381Y-80811810D01*
X132088000Y-80907048D01*
X132135619Y-80954667D01*
X132278476Y-81049905D01*
X132468952Y-81097524D01*
X132849905Y-81097524D01*
X132945143Y-81049905D01*
X132992762Y-81002286D01*
X133040381Y-80907048D01*
X133040381Y-80716571D01*
X132992762Y-80621333D01*
X132945143Y-80573714D01*
X132849905Y-80526095D01*
X132611810Y-80526095D01*
X132516571Y-80573714D01*
X132468952Y-80621333D01*
X132421333Y-80716571D01*
X132421333Y-80907048D01*
X132468952Y-81002286D01*
X132516571Y-81049905D01*
X132611810Y-81097524D01*
X131770381Y-65158857D02*
X131294190Y-65492191D01*
X131770381Y-65730286D02*
X130770381Y-65730286D01*
X130770381Y-65349333D01*
X130818000Y-65254095D01*
X130865619Y-65206476D01*
X130960857Y-65158857D01*
X131103714Y-65158857D01*
X131198952Y-65206476D01*
X131246571Y-65254095D01*
X131294190Y-65349333D01*
X131294190Y-65730286D01*
X130770381Y-64825524D02*
X130770381Y-64206476D01*
X131151333Y-64539810D01*
X131151333Y-64396952D01*
X131198952Y-64301714D01*
X131246571Y-64254095D01*
X131341810Y-64206476D01*
X131579905Y-64206476D01*
X131675143Y-64254095D01*
X131722762Y-64301714D01*
X131770381Y-64396952D01*
X131770381Y-64682667D01*
X131722762Y-64777905D01*
X131675143Y-64825524D01*
X130770381Y-63873143D02*
X130770381Y-63206476D01*
X131770381Y-63635048D01*
X128976381Y-82430857D02*
X128500190Y-82764191D01*
X128976381Y-83002286D02*
X127976381Y-83002286D01*
X127976381Y-82621333D01*
X128024000Y-82526095D01*
X128071619Y-82478476D01*
X128166857Y-82430857D01*
X128309714Y-82430857D01*
X128404952Y-82478476D01*
X128452571Y-82526095D01*
X128500190Y-82621333D01*
X128500190Y-83002286D01*
X127976381Y-82097524D02*
X127976381Y-81478476D01*
X128357333Y-81811810D01*
X128357333Y-81668952D01*
X128404952Y-81573714D01*
X128452571Y-81526095D01*
X128547810Y-81478476D01*
X128785905Y-81478476D01*
X128881143Y-81526095D01*
X128928762Y-81573714D01*
X128976381Y-81668952D01*
X128976381Y-81954667D01*
X128928762Y-82049905D01*
X128881143Y-82097524D01*
X128404952Y-80907048D02*
X128357333Y-81002286D01*
X128309714Y-81049905D01*
X128214476Y-81097524D01*
X128166857Y-81097524D01*
X128071619Y-81049905D01*
X128024000Y-81002286D01*
X127976381Y-80907048D01*
X127976381Y-80716571D01*
X128024000Y-80621333D01*
X128071619Y-80573714D01*
X128166857Y-80526095D01*
X128214476Y-80526095D01*
X128309714Y-80573714D01*
X128357333Y-80621333D01*
X128404952Y-80716571D01*
X128404952Y-80907048D01*
X128452571Y-81002286D01*
X128500190Y-81049905D01*
X128595429Y-81097524D01*
X128785905Y-81097524D01*
X128881143Y-81049905D01*
X128928762Y-81002286D01*
X128976381Y-80907048D01*
X128976381Y-80716571D01*
X128928762Y-80621333D01*
X128881143Y-80573714D01*
X128785905Y-80526095D01*
X128595429Y-80526095D01*
X128500190Y-80573714D01*
X128452571Y-80621333D01*
X128404952Y-80716571D01*
X131008381Y-82430857D02*
X130532190Y-82764191D01*
X131008381Y-83002286D02*
X130008381Y-83002286D01*
X130008381Y-82621333D01*
X130056000Y-82526095D01*
X130103619Y-82478476D01*
X130198857Y-82430857D01*
X130341714Y-82430857D01*
X130436952Y-82478476D01*
X130484571Y-82526095D01*
X130532190Y-82621333D01*
X130532190Y-83002286D01*
X130008381Y-82097524D02*
X130008381Y-81478476D01*
X130389333Y-81811810D01*
X130389333Y-81668952D01*
X130436952Y-81573714D01*
X130484571Y-81526095D01*
X130579810Y-81478476D01*
X130817905Y-81478476D01*
X130913143Y-81526095D01*
X130960762Y-81573714D01*
X131008381Y-81668952D01*
X131008381Y-81954667D01*
X130960762Y-82049905D01*
X130913143Y-82097524D01*
X131008381Y-81002286D02*
X131008381Y-80811810D01*
X130960762Y-80716571D01*
X130913143Y-80668952D01*
X130770286Y-80573714D01*
X130579810Y-80526095D01*
X130198857Y-80526095D01*
X130103619Y-80573714D01*
X130056000Y-80621333D01*
X130008381Y-80716571D01*
X130008381Y-80907048D01*
X130056000Y-81002286D01*
X130103619Y-81049905D01*
X130198857Y-81097524D01*
X130436952Y-81097524D01*
X130532190Y-81049905D01*
X130579810Y-81002286D01*
X130627429Y-80907048D01*
X130627429Y-80716571D01*
X130579810Y-80621333D01*
X130532190Y-80573714D01*
X130436952Y-80526095D01*
X127706381Y-65158857D02*
X127230190Y-65492191D01*
X127706381Y-65730286D02*
X126706381Y-65730286D01*
X126706381Y-65349333D01*
X126754000Y-65254095D01*
X126801619Y-65206476D01*
X126896857Y-65158857D01*
X127039714Y-65158857D01*
X127134952Y-65206476D01*
X127182571Y-65254095D01*
X127230190Y-65349333D01*
X127230190Y-65730286D01*
X127039714Y-64301714D02*
X127706381Y-64301714D01*
X126658762Y-64539810D02*
X127373048Y-64777905D01*
X127373048Y-64158857D01*
X126706381Y-63587429D02*
X126706381Y-63492190D01*
X126754000Y-63396952D01*
X126801619Y-63349333D01*
X126896857Y-63301714D01*
X127087333Y-63254095D01*
X127325429Y-63254095D01*
X127515905Y-63301714D01*
X127611143Y-63349333D01*
X127658762Y-63396952D01*
X127706381Y-63492190D01*
X127706381Y-63587429D01*
X127658762Y-63682667D01*
X127611143Y-63730286D01*
X127515905Y-63777905D01*
X127325429Y-63825524D01*
X127087333Y-63825524D01*
X126896857Y-63777905D01*
X126801619Y-63730286D01*
X126754000Y-63682667D01*
X126706381Y-63587429D01*
X126944381Y-82430857D02*
X126468190Y-82764191D01*
X126944381Y-83002286D02*
X125944381Y-83002286D01*
X125944381Y-82621333D01*
X125992000Y-82526095D01*
X126039619Y-82478476D01*
X126134857Y-82430857D01*
X126277714Y-82430857D01*
X126372952Y-82478476D01*
X126420571Y-82526095D01*
X126468190Y-82621333D01*
X126468190Y-83002286D01*
X126277714Y-81573714D02*
X126944381Y-81573714D01*
X125896762Y-81811810D02*
X126611048Y-82049905D01*
X126611048Y-81430857D01*
X126944381Y-80526095D02*
X126944381Y-81097524D01*
X126944381Y-80811810D02*
X125944381Y-80811810D01*
X126087238Y-80907048D01*
X126182476Y-81002286D01*
X126230095Y-81097524D01*
X124912381Y-82430857D02*
X124436190Y-82764191D01*
X124912381Y-83002286D02*
X123912381Y-83002286D01*
X123912381Y-82621333D01*
X123960000Y-82526095D01*
X124007619Y-82478476D01*
X124102857Y-82430857D01*
X124245714Y-82430857D01*
X124340952Y-82478476D01*
X124388571Y-82526095D01*
X124436190Y-82621333D01*
X124436190Y-83002286D01*
X124245714Y-81573714D02*
X124912381Y-81573714D01*
X123864762Y-81811810D02*
X124579048Y-82049905D01*
X124579048Y-81430857D01*
X124007619Y-81097524D02*
X123960000Y-81049905D01*
X123912381Y-80954667D01*
X123912381Y-80716571D01*
X123960000Y-80621333D01*
X124007619Y-80573714D01*
X124102857Y-80526095D01*
X124198095Y-80526095D01*
X124340952Y-80573714D01*
X124912381Y-81145143D01*
X124912381Y-80526095D01*
X123642381Y-65158857D02*
X123166190Y-65492191D01*
X123642381Y-65730286D02*
X122642381Y-65730286D01*
X122642381Y-65349333D01*
X122690000Y-65254095D01*
X122737619Y-65206476D01*
X122832857Y-65158857D01*
X122975714Y-65158857D01*
X123070952Y-65206476D01*
X123118571Y-65254095D01*
X123166190Y-65349333D01*
X123166190Y-65730286D01*
X122975714Y-64301714D02*
X123642381Y-64301714D01*
X122594762Y-64539810D02*
X123309048Y-64777905D01*
X123309048Y-64158857D01*
X122642381Y-63873143D02*
X122642381Y-63254095D01*
X123023333Y-63587429D01*
X123023333Y-63444571D01*
X123070952Y-63349333D01*
X123118571Y-63301714D01*
X123213810Y-63254095D01*
X123451905Y-63254095D01*
X123547143Y-63301714D01*
X123594762Y-63349333D01*
X123642381Y-63444571D01*
X123642381Y-63730286D01*
X123594762Y-63825524D01*
X123547143Y-63873143D01*
X122880381Y-82430857D02*
X122404190Y-82764191D01*
X122880381Y-83002286D02*
X121880381Y-83002286D01*
X121880381Y-82621333D01*
X121928000Y-82526095D01*
X121975619Y-82478476D01*
X122070857Y-82430857D01*
X122213714Y-82430857D01*
X122308952Y-82478476D01*
X122356571Y-82526095D01*
X122404190Y-82621333D01*
X122404190Y-83002286D01*
X122213714Y-81573714D02*
X122880381Y-81573714D01*
X121832762Y-81811810D02*
X122547048Y-82049905D01*
X122547048Y-81430857D01*
X122213714Y-80621333D02*
X122880381Y-80621333D01*
X121832762Y-80859429D02*
X122547048Y-81097524D01*
X122547048Y-80478476D01*
X120848381Y-82430857D02*
X120372190Y-82764191D01*
X120848381Y-83002286D02*
X119848381Y-83002286D01*
X119848381Y-82621333D01*
X119896000Y-82526095D01*
X119943619Y-82478476D01*
X120038857Y-82430857D01*
X120181714Y-82430857D01*
X120276952Y-82478476D01*
X120324571Y-82526095D01*
X120372190Y-82621333D01*
X120372190Y-83002286D01*
X120181714Y-81573714D02*
X120848381Y-81573714D01*
X119800762Y-81811810D02*
X120515048Y-82049905D01*
X120515048Y-81430857D01*
X119848381Y-80573714D02*
X119848381Y-81049905D01*
X120324571Y-81097524D01*
X120276952Y-81049905D01*
X120229333Y-80954667D01*
X120229333Y-80716571D01*
X120276952Y-80621333D01*
X120324571Y-80573714D01*
X120419810Y-80526095D01*
X120657905Y-80526095D01*
X120753143Y-80573714D01*
X120800762Y-80621333D01*
X120848381Y-80716571D01*
X120848381Y-80954667D01*
X120800762Y-81049905D01*
X120753143Y-81097524D01*
X119578381Y-65158857D02*
X119102190Y-65492191D01*
X119578381Y-65730286D02*
X118578381Y-65730286D01*
X118578381Y-65349333D01*
X118626000Y-65254095D01*
X118673619Y-65206476D01*
X118768857Y-65158857D01*
X118911714Y-65158857D01*
X119006952Y-65206476D01*
X119054571Y-65254095D01*
X119102190Y-65349333D01*
X119102190Y-65730286D01*
X118911714Y-64301714D02*
X119578381Y-64301714D01*
X118530762Y-64539810D02*
X119245048Y-64777905D01*
X119245048Y-64158857D01*
X118578381Y-63349333D02*
X118578381Y-63539810D01*
X118626000Y-63635048D01*
X118673619Y-63682667D01*
X118816476Y-63777905D01*
X119006952Y-63825524D01*
X119387905Y-63825524D01*
X119483143Y-63777905D01*
X119530762Y-63730286D01*
X119578381Y-63635048D01*
X119578381Y-63444571D01*
X119530762Y-63349333D01*
X119483143Y-63301714D01*
X119387905Y-63254095D01*
X119149810Y-63254095D01*
X119054571Y-63301714D01*
X119006952Y-63349333D01*
X118959333Y-63444571D01*
X118959333Y-63635048D01*
X119006952Y-63730286D01*
X119054571Y-63777905D01*
X119149810Y-63825524D01*
X118816381Y-82430857D02*
X118340190Y-82764191D01*
X118816381Y-83002286D02*
X117816381Y-83002286D01*
X117816381Y-82621333D01*
X117864000Y-82526095D01*
X117911619Y-82478476D01*
X118006857Y-82430857D01*
X118149714Y-82430857D01*
X118244952Y-82478476D01*
X118292571Y-82526095D01*
X118340190Y-82621333D01*
X118340190Y-83002286D01*
X118149714Y-81573714D02*
X118816381Y-81573714D01*
X117768762Y-81811810D02*
X118483048Y-82049905D01*
X118483048Y-81430857D01*
X117816381Y-81145143D02*
X117816381Y-80478476D01*
X118816381Y-80907048D01*
X116784381Y-82430857D02*
X116308190Y-82764191D01*
X116784381Y-83002286D02*
X115784381Y-83002286D01*
X115784381Y-82621333D01*
X115832000Y-82526095D01*
X115879619Y-82478476D01*
X115974857Y-82430857D01*
X116117714Y-82430857D01*
X116212952Y-82478476D01*
X116260571Y-82526095D01*
X116308190Y-82621333D01*
X116308190Y-83002286D01*
X116117714Y-81573714D02*
X116784381Y-81573714D01*
X115736762Y-81811810D02*
X116451048Y-82049905D01*
X116451048Y-81430857D01*
X116212952Y-80907048D02*
X116165333Y-81002286D01*
X116117714Y-81049905D01*
X116022476Y-81097524D01*
X115974857Y-81097524D01*
X115879619Y-81049905D01*
X115832000Y-81002286D01*
X115784381Y-80907048D01*
X115784381Y-80716571D01*
X115832000Y-80621333D01*
X115879619Y-80573714D01*
X115974857Y-80526095D01*
X116022476Y-80526095D01*
X116117714Y-80573714D01*
X116165333Y-80621333D01*
X116212952Y-80716571D01*
X116212952Y-80907048D01*
X116260571Y-81002286D01*
X116308190Y-81049905D01*
X116403429Y-81097524D01*
X116593905Y-81097524D01*
X116689143Y-81049905D01*
X116736762Y-81002286D01*
X116784381Y-80907048D01*
X116784381Y-80716571D01*
X116736762Y-80621333D01*
X116689143Y-80573714D01*
X116593905Y-80526095D01*
X116403429Y-80526095D01*
X116308190Y-80573714D01*
X116260571Y-80621333D01*
X116212952Y-80716571D01*
X115514381Y-65158857D02*
X115038190Y-65492191D01*
X115514381Y-65730286D02*
X114514381Y-65730286D01*
X114514381Y-65349333D01*
X114562000Y-65254095D01*
X114609619Y-65206476D01*
X114704857Y-65158857D01*
X114847714Y-65158857D01*
X114942952Y-65206476D01*
X114990571Y-65254095D01*
X115038190Y-65349333D01*
X115038190Y-65730286D01*
X114847714Y-64301714D02*
X115514381Y-64301714D01*
X114466762Y-64539810D02*
X115181048Y-64777905D01*
X115181048Y-64158857D01*
X115514381Y-63730286D02*
X115514381Y-63539810D01*
X115466762Y-63444571D01*
X115419143Y-63396952D01*
X115276286Y-63301714D01*
X115085810Y-63254095D01*
X114704857Y-63254095D01*
X114609619Y-63301714D01*
X114562000Y-63349333D01*
X114514381Y-63444571D01*
X114514381Y-63635048D01*
X114562000Y-63730286D01*
X114609619Y-63777905D01*
X114704857Y-63825524D01*
X114942952Y-63825524D01*
X115038190Y-63777905D01*
X115085810Y-63730286D01*
X115133429Y-63635048D01*
X115133429Y-63444571D01*
X115085810Y-63349333D01*
X115038190Y-63301714D01*
X114942952Y-63254095D01*
X114752381Y-82430857D02*
X114276190Y-82764191D01*
X114752381Y-83002286D02*
X113752381Y-83002286D01*
X113752381Y-82621333D01*
X113800000Y-82526095D01*
X113847619Y-82478476D01*
X113942857Y-82430857D01*
X114085714Y-82430857D01*
X114180952Y-82478476D01*
X114228571Y-82526095D01*
X114276190Y-82621333D01*
X114276190Y-83002286D01*
X113752381Y-81526095D02*
X113752381Y-82002286D01*
X114228571Y-82049905D01*
X114180952Y-82002286D01*
X114133333Y-81907048D01*
X114133333Y-81668952D01*
X114180952Y-81573714D01*
X114228571Y-81526095D01*
X114323810Y-81478476D01*
X114561905Y-81478476D01*
X114657143Y-81526095D01*
X114704762Y-81573714D01*
X114752381Y-81668952D01*
X114752381Y-81907048D01*
X114704762Y-82002286D01*
X114657143Y-82049905D01*
X113752381Y-80859429D02*
X113752381Y-80764190D01*
X113800000Y-80668952D01*
X113847619Y-80621333D01*
X113942857Y-80573714D01*
X114133333Y-80526095D01*
X114371429Y-80526095D01*
X114561905Y-80573714D01*
X114657143Y-80621333D01*
X114704762Y-80668952D01*
X114752381Y-80764190D01*
X114752381Y-80859429D01*
X114704762Y-80954667D01*
X114657143Y-81002286D01*
X114561905Y-81049905D01*
X114371429Y-81097524D01*
X114133333Y-81097524D01*
X113942857Y-81049905D01*
X113847619Y-81002286D01*
X113800000Y-80954667D01*
X113752381Y-80859429D01*
X112720381Y-82430857D02*
X112244190Y-82764191D01*
X112720381Y-83002286D02*
X111720381Y-83002286D01*
X111720381Y-82621333D01*
X111768000Y-82526095D01*
X111815619Y-82478476D01*
X111910857Y-82430857D01*
X112053714Y-82430857D01*
X112148952Y-82478476D01*
X112196571Y-82526095D01*
X112244190Y-82621333D01*
X112244190Y-83002286D01*
X111720381Y-81526095D02*
X111720381Y-82002286D01*
X112196571Y-82049905D01*
X112148952Y-82002286D01*
X112101333Y-81907048D01*
X112101333Y-81668952D01*
X112148952Y-81573714D01*
X112196571Y-81526095D01*
X112291810Y-81478476D01*
X112529905Y-81478476D01*
X112625143Y-81526095D01*
X112672762Y-81573714D01*
X112720381Y-81668952D01*
X112720381Y-81907048D01*
X112672762Y-82002286D01*
X112625143Y-82049905D01*
X112720381Y-80526095D02*
X112720381Y-81097524D01*
X112720381Y-80811810D02*
X111720381Y-80811810D01*
X111863238Y-80907048D01*
X111958476Y-81002286D01*
X112006095Y-81097524D01*
X111450381Y-65158857D02*
X110974190Y-65492191D01*
X111450381Y-65730286D02*
X110450381Y-65730286D01*
X110450381Y-65349333D01*
X110498000Y-65254095D01*
X110545619Y-65206476D01*
X110640857Y-65158857D01*
X110783714Y-65158857D01*
X110878952Y-65206476D01*
X110926571Y-65254095D01*
X110974190Y-65349333D01*
X110974190Y-65730286D01*
X110450381Y-64254095D02*
X110450381Y-64730286D01*
X110926571Y-64777905D01*
X110878952Y-64730286D01*
X110831333Y-64635048D01*
X110831333Y-64396952D01*
X110878952Y-64301714D01*
X110926571Y-64254095D01*
X111021810Y-64206476D01*
X111259905Y-64206476D01*
X111355143Y-64254095D01*
X111402762Y-64301714D01*
X111450381Y-64396952D01*
X111450381Y-64635048D01*
X111402762Y-64730286D01*
X111355143Y-64777905D01*
X110545619Y-63825524D02*
X110498000Y-63777905D01*
X110450381Y-63682667D01*
X110450381Y-63444571D01*
X110498000Y-63349333D01*
X110545619Y-63301714D01*
X110640857Y-63254095D01*
X110736095Y-63254095D01*
X110878952Y-63301714D01*
X111450381Y-63873143D01*
X111450381Y-63254095D01*
X110688381Y-82430857D02*
X110212190Y-82764191D01*
X110688381Y-83002286D02*
X109688381Y-83002286D01*
X109688381Y-82621333D01*
X109736000Y-82526095D01*
X109783619Y-82478476D01*
X109878857Y-82430857D01*
X110021714Y-82430857D01*
X110116952Y-82478476D01*
X110164571Y-82526095D01*
X110212190Y-82621333D01*
X110212190Y-83002286D01*
X109688381Y-81526095D02*
X109688381Y-82002286D01*
X110164571Y-82049905D01*
X110116952Y-82002286D01*
X110069333Y-81907048D01*
X110069333Y-81668952D01*
X110116952Y-81573714D01*
X110164571Y-81526095D01*
X110259810Y-81478476D01*
X110497905Y-81478476D01*
X110593143Y-81526095D01*
X110640762Y-81573714D01*
X110688381Y-81668952D01*
X110688381Y-81907048D01*
X110640762Y-82002286D01*
X110593143Y-82049905D01*
X109688381Y-81145143D02*
X109688381Y-80526095D01*
X110069333Y-80859429D01*
X110069333Y-80716571D01*
X110116952Y-80621333D01*
X110164571Y-80573714D01*
X110259810Y-80526095D01*
X110497905Y-80526095D01*
X110593143Y-80573714D01*
X110640762Y-80621333D01*
X110688381Y-80716571D01*
X110688381Y-81002286D01*
X110640762Y-81097524D01*
X110593143Y-81145143D01*
X108656381Y-82430857D02*
X108180190Y-82764191D01*
X108656381Y-83002286D02*
X107656381Y-83002286D01*
X107656381Y-82621333D01*
X107704000Y-82526095D01*
X107751619Y-82478476D01*
X107846857Y-82430857D01*
X107989714Y-82430857D01*
X108084952Y-82478476D01*
X108132571Y-82526095D01*
X108180190Y-82621333D01*
X108180190Y-83002286D01*
X107656381Y-81526095D02*
X107656381Y-82002286D01*
X108132571Y-82049905D01*
X108084952Y-82002286D01*
X108037333Y-81907048D01*
X108037333Y-81668952D01*
X108084952Y-81573714D01*
X108132571Y-81526095D01*
X108227810Y-81478476D01*
X108465905Y-81478476D01*
X108561143Y-81526095D01*
X108608762Y-81573714D01*
X108656381Y-81668952D01*
X108656381Y-81907048D01*
X108608762Y-82002286D01*
X108561143Y-82049905D01*
X107989714Y-80621333D02*
X108656381Y-80621333D01*
X107608762Y-80859429D02*
X108323048Y-81097524D01*
X108323048Y-80478476D01*
X107386381Y-65158857D02*
X106910190Y-65492191D01*
X107386381Y-65730286D02*
X106386381Y-65730286D01*
X106386381Y-65349333D01*
X106434000Y-65254095D01*
X106481619Y-65206476D01*
X106576857Y-65158857D01*
X106719714Y-65158857D01*
X106814952Y-65206476D01*
X106862571Y-65254095D01*
X106910190Y-65349333D01*
X106910190Y-65730286D01*
X106386381Y-64254095D02*
X106386381Y-64730286D01*
X106862571Y-64777905D01*
X106814952Y-64730286D01*
X106767333Y-64635048D01*
X106767333Y-64396952D01*
X106814952Y-64301714D01*
X106862571Y-64254095D01*
X106957810Y-64206476D01*
X107195905Y-64206476D01*
X107291143Y-64254095D01*
X107338762Y-64301714D01*
X107386381Y-64396952D01*
X107386381Y-64635048D01*
X107338762Y-64730286D01*
X107291143Y-64777905D01*
X106386381Y-63301714D02*
X106386381Y-63777905D01*
X106862571Y-63825524D01*
X106814952Y-63777905D01*
X106767333Y-63682667D01*
X106767333Y-63444571D01*
X106814952Y-63349333D01*
X106862571Y-63301714D01*
X106957810Y-63254095D01*
X107195905Y-63254095D01*
X107291143Y-63301714D01*
X107338762Y-63349333D01*
X107386381Y-63444571D01*
X107386381Y-63682667D01*
X107338762Y-63777905D01*
X107291143Y-63825524D01*
X106624381Y-82430857D02*
X106148190Y-82764191D01*
X106624381Y-83002286D02*
X105624381Y-83002286D01*
X105624381Y-82621333D01*
X105672000Y-82526095D01*
X105719619Y-82478476D01*
X105814857Y-82430857D01*
X105957714Y-82430857D01*
X106052952Y-82478476D01*
X106100571Y-82526095D01*
X106148190Y-82621333D01*
X106148190Y-83002286D01*
X105624381Y-81526095D02*
X105624381Y-82002286D01*
X106100571Y-82049905D01*
X106052952Y-82002286D01*
X106005333Y-81907048D01*
X106005333Y-81668952D01*
X106052952Y-81573714D01*
X106100571Y-81526095D01*
X106195810Y-81478476D01*
X106433905Y-81478476D01*
X106529143Y-81526095D01*
X106576762Y-81573714D01*
X106624381Y-81668952D01*
X106624381Y-81907048D01*
X106576762Y-82002286D01*
X106529143Y-82049905D01*
X105624381Y-80621333D02*
X105624381Y-80811810D01*
X105672000Y-80907048D01*
X105719619Y-80954667D01*
X105862476Y-81049905D01*
X106052952Y-81097524D01*
X106433905Y-81097524D01*
X106529143Y-81049905D01*
X106576762Y-81002286D01*
X106624381Y-80907048D01*
X106624381Y-80716571D01*
X106576762Y-80621333D01*
X106529143Y-80573714D01*
X106433905Y-80526095D01*
X106195810Y-80526095D01*
X106100571Y-80573714D01*
X106052952Y-80621333D01*
X106005333Y-80716571D01*
X106005333Y-80907048D01*
X106052952Y-81002286D01*
X106100571Y-81049905D01*
X106195810Y-81097524D01*
X104592381Y-82430857D02*
X104116190Y-82764191D01*
X104592381Y-83002286D02*
X103592381Y-83002286D01*
X103592381Y-82621333D01*
X103640000Y-82526095D01*
X103687619Y-82478476D01*
X103782857Y-82430857D01*
X103925714Y-82430857D01*
X104020952Y-82478476D01*
X104068571Y-82526095D01*
X104116190Y-82621333D01*
X104116190Y-83002286D01*
X103592381Y-81526095D02*
X103592381Y-82002286D01*
X104068571Y-82049905D01*
X104020952Y-82002286D01*
X103973333Y-81907048D01*
X103973333Y-81668952D01*
X104020952Y-81573714D01*
X104068571Y-81526095D01*
X104163810Y-81478476D01*
X104401905Y-81478476D01*
X104497143Y-81526095D01*
X104544762Y-81573714D01*
X104592381Y-81668952D01*
X104592381Y-81907048D01*
X104544762Y-82002286D01*
X104497143Y-82049905D01*
X103592381Y-81145143D02*
X103592381Y-80478476D01*
X104592381Y-80907048D01*
X103322381Y-65412857D02*
X102846190Y-65746191D01*
X103322381Y-65984286D02*
X102322381Y-65984286D01*
X102322381Y-65603333D01*
X102370000Y-65508095D01*
X102417619Y-65460476D01*
X102512857Y-65412857D01*
X102655714Y-65412857D01*
X102750952Y-65460476D01*
X102798571Y-65508095D01*
X102846190Y-65603333D01*
X102846190Y-65984286D01*
X102322381Y-64508095D02*
X102322381Y-64984286D01*
X102798571Y-65031905D01*
X102750952Y-64984286D01*
X102703333Y-64889048D01*
X102703333Y-64650952D01*
X102750952Y-64555714D01*
X102798571Y-64508095D01*
X102893810Y-64460476D01*
X103131905Y-64460476D01*
X103227143Y-64508095D01*
X103274762Y-64555714D01*
X103322381Y-64650952D01*
X103322381Y-64889048D01*
X103274762Y-64984286D01*
X103227143Y-65031905D01*
X102750952Y-63889048D02*
X102703333Y-63984286D01*
X102655714Y-64031905D01*
X102560476Y-64079524D01*
X102512857Y-64079524D01*
X102417619Y-64031905D01*
X102370000Y-63984286D01*
X102322381Y-63889048D01*
X102322381Y-63698571D01*
X102370000Y-63603333D01*
X102417619Y-63555714D01*
X102512857Y-63508095D01*
X102560476Y-63508095D01*
X102655714Y-63555714D01*
X102703333Y-63603333D01*
X102750952Y-63698571D01*
X102750952Y-63889048D01*
X102798571Y-63984286D01*
X102846190Y-64031905D01*
X102941429Y-64079524D01*
X103131905Y-64079524D01*
X103227143Y-64031905D01*
X103274762Y-63984286D01*
X103322381Y-63889048D01*
X103322381Y-63698571D01*
X103274762Y-63603333D01*
X103227143Y-63555714D01*
X103131905Y-63508095D01*
X102941429Y-63508095D01*
X102846190Y-63555714D01*
X102798571Y-63603333D01*
X102750952Y-63698571D01*
X102560381Y-82430857D02*
X102084190Y-82764191D01*
X102560381Y-83002286D02*
X101560381Y-83002286D01*
X101560381Y-82621333D01*
X101608000Y-82526095D01*
X101655619Y-82478476D01*
X101750857Y-82430857D01*
X101893714Y-82430857D01*
X101988952Y-82478476D01*
X102036571Y-82526095D01*
X102084190Y-82621333D01*
X102084190Y-83002286D01*
X101560381Y-81526095D02*
X101560381Y-82002286D01*
X102036571Y-82049905D01*
X101988952Y-82002286D01*
X101941333Y-81907048D01*
X101941333Y-81668952D01*
X101988952Y-81573714D01*
X102036571Y-81526095D01*
X102131810Y-81478476D01*
X102369905Y-81478476D01*
X102465143Y-81526095D01*
X102512762Y-81573714D01*
X102560381Y-81668952D01*
X102560381Y-81907048D01*
X102512762Y-82002286D01*
X102465143Y-82049905D01*
X102560381Y-81002286D02*
X102560381Y-80811810D01*
X102512762Y-80716571D01*
X102465143Y-80668952D01*
X102322286Y-80573714D01*
X102131810Y-80526095D01*
X101750857Y-80526095D01*
X101655619Y-80573714D01*
X101608000Y-80621333D01*
X101560381Y-80716571D01*
X101560381Y-80907048D01*
X101608000Y-81002286D01*
X101655619Y-81049905D01*
X101750857Y-81097524D01*
X101988952Y-81097524D01*
X102084190Y-81049905D01*
X102131810Y-81002286D01*
X102179429Y-80907048D01*
X102179429Y-80716571D01*
X102131810Y-80621333D01*
X102084190Y-80573714D01*
X101988952Y-80526095D01*
X100528381Y-82430857D02*
X100052190Y-82764191D01*
X100528381Y-83002286D02*
X99528381Y-83002286D01*
X99528381Y-82621333D01*
X99576000Y-82526095D01*
X99623619Y-82478476D01*
X99718857Y-82430857D01*
X99861714Y-82430857D01*
X99956952Y-82478476D01*
X100004571Y-82526095D01*
X100052190Y-82621333D01*
X100052190Y-83002286D01*
X99528381Y-81573714D02*
X99528381Y-81764191D01*
X99576000Y-81859429D01*
X99623619Y-81907048D01*
X99766476Y-82002286D01*
X99956952Y-82049905D01*
X100337905Y-82049905D01*
X100433143Y-82002286D01*
X100480762Y-81954667D01*
X100528381Y-81859429D01*
X100528381Y-81668952D01*
X100480762Y-81573714D01*
X100433143Y-81526095D01*
X100337905Y-81478476D01*
X100099810Y-81478476D01*
X100004571Y-81526095D01*
X99956952Y-81573714D01*
X99909333Y-81668952D01*
X99909333Y-81859429D01*
X99956952Y-81954667D01*
X100004571Y-82002286D01*
X100099810Y-82049905D01*
X99528381Y-80859429D02*
X99528381Y-80764190D01*
X99576000Y-80668952D01*
X99623619Y-80621333D01*
X99718857Y-80573714D01*
X99909333Y-80526095D01*
X100147429Y-80526095D01*
X100337905Y-80573714D01*
X100433143Y-80621333D01*
X100480762Y-80668952D01*
X100528381Y-80764190D01*
X100528381Y-80859429D01*
X100480762Y-80954667D01*
X100433143Y-81002286D01*
X100337905Y-81049905D01*
X100147429Y-81097524D01*
X99909333Y-81097524D01*
X99718857Y-81049905D01*
X99623619Y-81002286D01*
X99576000Y-80954667D01*
X99528381Y-80859429D01*
X167457381Y-66682857D02*
X166981190Y-67016191D01*
X167457381Y-67254286D02*
X166457381Y-67254286D01*
X166457381Y-66873333D01*
X166505000Y-66778095D01*
X166552619Y-66730476D01*
X166647857Y-66682857D01*
X166790714Y-66682857D01*
X166885952Y-66730476D01*
X166933571Y-66778095D01*
X166981190Y-66873333D01*
X166981190Y-67254286D01*
X166457381Y-65825714D02*
X166457381Y-66016191D01*
X166505000Y-66111429D01*
X166552619Y-66159048D01*
X166695476Y-66254286D01*
X166885952Y-66301905D01*
X167266905Y-66301905D01*
X167362143Y-66254286D01*
X167409762Y-66206667D01*
X167457381Y-66111429D01*
X167457381Y-65920952D01*
X167409762Y-65825714D01*
X167362143Y-65778095D01*
X167266905Y-65730476D01*
X167028810Y-65730476D01*
X166933571Y-65778095D01*
X166885952Y-65825714D01*
X166838333Y-65920952D01*
X166838333Y-66111429D01*
X166885952Y-66206667D01*
X166933571Y-66254286D01*
X167028810Y-66301905D01*
X166885952Y-65159048D02*
X166838333Y-65254286D01*
X166790714Y-65301905D01*
X166695476Y-65349524D01*
X166647857Y-65349524D01*
X166552619Y-65301905D01*
X166505000Y-65254286D01*
X166457381Y-65159048D01*
X166457381Y-64968571D01*
X166505000Y-64873333D01*
X166552619Y-64825714D01*
X166647857Y-64778095D01*
X166695476Y-64778095D01*
X166790714Y-64825714D01*
X166838333Y-64873333D01*
X166885952Y-64968571D01*
X166885952Y-65159048D01*
X166933571Y-65254286D01*
X166981190Y-65301905D01*
X167076429Y-65349524D01*
X167266905Y-65349524D01*
X167362143Y-65301905D01*
X167409762Y-65254286D01*
X167457381Y-65159048D01*
X167457381Y-64968571D01*
X167409762Y-64873333D01*
X167362143Y-64825714D01*
X167266905Y-64778095D01*
X167076429Y-64778095D01*
X166981190Y-64825714D01*
X166933571Y-64873333D01*
X166885952Y-64968571D01*
X171902381Y-66682857D02*
X171426190Y-67016191D01*
X171902381Y-67254286D02*
X170902381Y-67254286D01*
X170902381Y-66873333D01*
X170950000Y-66778095D01*
X170997619Y-66730476D01*
X171092857Y-66682857D01*
X171235714Y-66682857D01*
X171330952Y-66730476D01*
X171378571Y-66778095D01*
X171426190Y-66873333D01*
X171426190Y-67254286D01*
X170902381Y-65825714D02*
X170902381Y-66016191D01*
X170950000Y-66111429D01*
X170997619Y-66159048D01*
X171140476Y-66254286D01*
X171330952Y-66301905D01*
X171711905Y-66301905D01*
X171807143Y-66254286D01*
X171854762Y-66206667D01*
X171902381Y-66111429D01*
X171902381Y-65920952D01*
X171854762Y-65825714D01*
X171807143Y-65778095D01*
X171711905Y-65730476D01*
X171473810Y-65730476D01*
X171378571Y-65778095D01*
X171330952Y-65825714D01*
X171283333Y-65920952D01*
X171283333Y-66111429D01*
X171330952Y-66206667D01*
X171378571Y-66254286D01*
X171473810Y-66301905D01*
X171902381Y-65254286D02*
X171902381Y-65063810D01*
X171854762Y-64968571D01*
X171807143Y-64920952D01*
X171664286Y-64825714D01*
X171473810Y-64778095D01*
X171092857Y-64778095D01*
X170997619Y-64825714D01*
X170950000Y-64873333D01*
X170902381Y-64968571D01*
X170902381Y-65159048D01*
X170950000Y-65254286D01*
X170997619Y-65301905D01*
X171092857Y-65349524D01*
X171330952Y-65349524D01*
X171426190Y-65301905D01*
X171473810Y-65254286D01*
X171521429Y-65159048D01*
X171521429Y-64968571D01*
X171473810Y-64873333D01*
X171426190Y-64825714D01*
X171330952Y-64778095D01*
X176347381Y-66682857D02*
X175871190Y-67016191D01*
X176347381Y-67254286D02*
X175347381Y-67254286D01*
X175347381Y-66873333D01*
X175395000Y-66778095D01*
X175442619Y-66730476D01*
X175537857Y-66682857D01*
X175680714Y-66682857D01*
X175775952Y-66730476D01*
X175823571Y-66778095D01*
X175871190Y-66873333D01*
X175871190Y-67254286D01*
X175347381Y-66349524D02*
X175347381Y-65682857D01*
X176347381Y-66111429D01*
X175347381Y-65111429D02*
X175347381Y-65016190D01*
X175395000Y-64920952D01*
X175442619Y-64873333D01*
X175537857Y-64825714D01*
X175728333Y-64778095D01*
X175966429Y-64778095D01*
X176156905Y-64825714D01*
X176252143Y-64873333D01*
X176299762Y-64920952D01*
X176347381Y-65016190D01*
X176347381Y-65111429D01*
X176299762Y-65206667D01*
X176252143Y-65254286D01*
X176156905Y-65301905D01*
X175966429Y-65349524D01*
X175728333Y-65349524D01*
X175537857Y-65301905D01*
X175442619Y-65254286D01*
X175395000Y-65206667D01*
X175347381Y-65111429D01*
X180792381Y-66682857D02*
X180316190Y-67016191D01*
X180792381Y-67254286D02*
X179792381Y-67254286D01*
X179792381Y-66873333D01*
X179840000Y-66778095D01*
X179887619Y-66730476D01*
X179982857Y-66682857D01*
X180125714Y-66682857D01*
X180220952Y-66730476D01*
X180268571Y-66778095D01*
X180316190Y-66873333D01*
X180316190Y-67254286D01*
X179792381Y-66349524D02*
X179792381Y-65682857D01*
X180792381Y-66111429D01*
X180792381Y-64778095D02*
X180792381Y-65349524D01*
X180792381Y-65063810D02*
X179792381Y-65063810D01*
X179935238Y-65159048D01*
X180030476Y-65254286D01*
X180078095Y-65349524D01*
X185237381Y-66682857D02*
X184761190Y-67016191D01*
X185237381Y-67254286D02*
X184237381Y-67254286D01*
X184237381Y-66873333D01*
X184285000Y-66778095D01*
X184332619Y-66730476D01*
X184427857Y-66682857D01*
X184570714Y-66682857D01*
X184665952Y-66730476D01*
X184713571Y-66778095D01*
X184761190Y-66873333D01*
X184761190Y-67254286D01*
X184237381Y-66349524D02*
X184237381Y-65682857D01*
X185237381Y-66111429D01*
X184332619Y-65349524D02*
X184285000Y-65301905D01*
X184237381Y-65206667D01*
X184237381Y-64968571D01*
X184285000Y-64873333D01*
X184332619Y-64825714D01*
X184427857Y-64778095D01*
X184523095Y-64778095D01*
X184665952Y-64825714D01*
X185237381Y-65397143D01*
X185237381Y-64778095D01*
X80962667Y-124864762D02*
X81105524Y-124912381D01*
X81343620Y-124912381D01*
X81438858Y-124864762D01*
X81486477Y-124817143D01*
X81534096Y-124721905D01*
X81534096Y-124626667D01*
X81486477Y-124531429D01*
X81438858Y-124483810D01*
X81343620Y-124436190D01*
X81153143Y-124388571D01*
X81057905Y-124340952D01*
X81010286Y-124293333D01*
X80962667Y-124198095D01*
X80962667Y-124102857D01*
X81010286Y-124007619D01*
X81057905Y-123960000D01*
X81153143Y-123912381D01*
X81391239Y-123912381D01*
X81534096Y-123960000D01*
X81867429Y-123912381D02*
X82105524Y-124912381D01*
X82296001Y-124198095D01*
X82486477Y-124912381D01*
X82724572Y-123912381D01*
X83629334Y-124912381D02*
X83057905Y-124912381D01*
X83343619Y-124912381D02*
X83343619Y-123912381D01*
X83248381Y-124055238D01*
X83153143Y-124150476D01*
X83057905Y-124198095D01*
X86042667Y-124864762D02*
X86185524Y-124912381D01*
X86423620Y-124912381D01*
X86518858Y-124864762D01*
X86566477Y-124817143D01*
X86614096Y-124721905D01*
X86614096Y-124626667D01*
X86566477Y-124531429D01*
X86518858Y-124483810D01*
X86423620Y-124436190D01*
X86233143Y-124388571D01*
X86137905Y-124340952D01*
X86090286Y-124293333D01*
X86042667Y-124198095D01*
X86042667Y-124102857D01*
X86090286Y-124007619D01*
X86137905Y-123960000D01*
X86233143Y-123912381D01*
X86471239Y-123912381D01*
X86614096Y-123960000D01*
X86947429Y-123912381D02*
X87185524Y-124912381D01*
X87376001Y-124198095D01*
X87566477Y-124912381D01*
X87804572Y-123912381D01*
X88137905Y-124007619D02*
X88185524Y-123960000D01*
X88280762Y-123912381D01*
X88518858Y-123912381D01*
X88614096Y-123960000D01*
X88661715Y-124007619D01*
X88709334Y-124102857D01*
X88709334Y-124198095D01*
X88661715Y-124340952D01*
X88090286Y-124912381D01*
X88709334Y-124912381D01*
X71382095Y-92924381D02*
X71953524Y-92924381D01*
X71667809Y-93924381D02*
X71667809Y-92924381D01*
X72286857Y-93924381D02*
X72286857Y-92924381D01*
X72667810Y-92924381D01*
X72763048Y-92972000D01*
X72810667Y-93019619D01*
X72858286Y-93114857D01*
X72858286Y-93257714D01*
X72810667Y-93352952D01*
X72763048Y-93400571D01*
X72667810Y-93448190D01*
X72286857Y-93448190D01*
X73810667Y-93924381D02*
X73239238Y-93924381D01*
X73524952Y-93924381D02*
X73524952Y-92924381D01*
X73429714Y-93067238D01*
X73334476Y-93162476D01*
X73239238Y-93210095D01*
X68842095Y-95464381D02*
X69413524Y-95464381D01*
X69127809Y-96464381D02*
X69127809Y-95464381D01*
X69746857Y-96464381D02*
X69746857Y-95464381D01*
X70127810Y-95464381D01*
X70223048Y-95512000D01*
X70270667Y-95559619D01*
X70318286Y-95654857D01*
X70318286Y-95797714D01*
X70270667Y-95892952D01*
X70223048Y-95940571D01*
X70127810Y-95988190D01*
X69746857Y-95988190D01*
X70699238Y-95559619D02*
X70746857Y-95512000D01*
X70842095Y-95464381D01*
X71080191Y-95464381D01*
X71175429Y-95512000D01*
X71223048Y-95559619D01*
X71270667Y-95654857D01*
X71270667Y-95750095D01*
X71223048Y-95892952D01*
X70651619Y-96464381D01*
X71270667Y-96464381D01*
X76462095Y-98004381D02*
X77033524Y-98004381D01*
X76747809Y-99004381D02*
X76747809Y-98004381D01*
X77366857Y-99004381D02*
X77366857Y-98004381D01*
X77747810Y-98004381D01*
X77843048Y-98052000D01*
X77890667Y-98099619D01*
X77938286Y-98194857D01*
X77938286Y-98337714D01*
X77890667Y-98432952D01*
X77843048Y-98480571D01*
X77747810Y-98528190D01*
X77366857Y-98528190D01*
X78271619Y-98004381D02*
X78890667Y-98004381D01*
X78557333Y-98385333D01*
X78700191Y-98385333D01*
X78795429Y-98432952D01*
X78843048Y-98480571D01*
X78890667Y-98575810D01*
X78890667Y-98813905D01*
X78843048Y-98909143D01*
X78795429Y-98956762D01*
X78700191Y-99004381D01*
X78414476Y-99004381D01*
X78319238Y-98956762D01*
X78271619Y-98909143D01*
X68842095Y-98004381D02*
X69413524Y-98004381D01*
X69127809Y-99004381D02*
X69127809Y-98004381D01*
X69746857Y-99004381D02*
X69746857Y-98004381D01*
X70127810Y-98004381D01*
X70223048Y-98052000D01*
X70270667Y-98099619D01*
X70318286Y-98194857D01*
X70318286Y-98337714D01*
X70270667Y-98432952D01*
X70223048Y-98480571D01*
X70127810Y-98528190D01*
X69746857Y-98528190D01*
X71175429Y-98337714D02*
X71175429Y-99004381D01*
X70937333Y-97956762D02*
X70699238Y-98671048D01*
X71318286Y-98671048D01*
X76462095Y-95464381D02*
X77033524Y-95464381D01*
X76747809Y-96464381D02*
X76747809Y-95464381D01*
X77366857Y-96464381D02*
X77366857Y-95464381D01*
X77747810Y-95464381D01*
X77843048Y-95512000D01*
X77890667Y-95559619D01*
X77938286Y-95654857D01*
X77938286Y-95797714D01*
X77890667Y-95892952D01*
X77843048Y-95940571D01*
X77747810Y-95988190D01*
X77366857Y-95988190D01*
X78843048Y-95464381D02*
X78366857Y-95464381D01*
X78319238Y-95940571D01*
X78366857Y-95892952D01*
X78462095Y-95845333D01*
X78700191Y-95845333D01*
X78795429Y-95892952D01*
X78843048Y-95940571D01*
X78890667Y-96035810D01*
X78890667Y-96273905D01*
X78843048Y-96369143D01*
X78795429Y-96416762D01*
X78700191Y-96464381D01*
X78462095Y-96464381D01*
X78366857Y-96416762D01*
X78319238Y-96369143D01*
X94488095Y-75452381D02*
X94488095Y-76261905D01*
X94535714Y-76357143D01*
X94583333Y-76404762D01*
X94678571Y-76452381D01*
X94869048Y-76452381D01*
X94964286Y-76404762D01*
X95011905Y-76357143D01*
X95059524Y-76261905D01*
X95059524Y-75452381D01*
X95678571Y-75880952D02*
X95583333Y-75833333D01*
X95535714Y-75785714D01*
X95488095Y-75690476D01*
X95488095Y-75642857D01*
X95535714Y-75547619D01*
X95583333Y-75500000D01*
X95678571Y-75452381D01*
X95869048Y-75452381D01*
X95964286Y-75500000D01*
X96011905Y-75547619D01*
X96059524Y-75642857D01*
X96059524Y-75690476D01*
X96011905Y-75785714D01*
X95964286Y-75833333D01*
X95869048Y-75880952D01*
X95678571Y-75880952D01*
X95583333Y-75928571D01*
X95535714Y-75976190D01*
X95488095Y-76071429D01*
X95488095Y-76261905D01*
X95535714Y-76357143D01*
X95583333Y-76404762D01*
X95678571Y-76452381D01*
X95869048Y-76452381D01*
X95964286Y-76404762D01*
X96011905Y-76357143D01*
X96059524Y-76261905D01*
X96059524Y-76071429D01*
X96011905Y-75976190D01*
X95964286Y-75928571D01*
X95869048Y-75880952D01*
X85938095Y-76352381D02*
X85938095Y-77161905D01*
X85985714Y-77257143D01*
X86033333Y-77304762D01*
X86128571Y-77352381D01*
X86319048Y-77352381D01*
X86414286Y-77304762D01*
X86461905Y-77257143D01*
X86509524Y-77161905D01*
X86509524Y-76352381D01*
X87033333Y-77352381D02*
X87223809Y-77352381D01*
X87319048Y-77304762D01*
X87366667Y-77257143D01*
X87461905Y-77114286D01*
X87509524Y-76923810D01*
X87509524Y-76542857D01*
X87461905Y-76447619D01*
X87414286Y-76400000D01*
X87319048Y-76352381D01*
X87128571Y-76352381D01*
X87033333Y-76400000D01*
X86985714Y-76447619D01*
X86938095Y-76542857D01*
X86938095Y-76780952D01*
X86985714Y-76876190D01*
X87033333Y-76923810D01*
X87128571Y-76971429D01*
X87319048Y-76971429D01*
X87414286Y-76923810D01*
X87461905Y-76876190D01*
X87509524Y-76780952D01*
X119919905Y-104608381D02*
X119919905Y-105417905D01*
X119967524Y-105513143D01*
X120015143Y-105560762D01*
X120110381Y-105608381D01*
X120300858Y-105608381D01*
X120396096Y-105560762D01*
X120443715Y-105513143D01*
X120491334Y-105417905D01*
X120491334Y-104608381D01*
X121491334Y-105608381D02*
X120919905Y-105608381D01*
X121205619Y-105608381D02*
X121205619Y-104608381D01*
X121110381Y-104751238D01*
X121015143Y-104846476D01*
X120919905Y-104894095D01*
X122110381Y-104608381D02*
X122205620Y-104608381D01*
X122300858Y-104656000D01*
X122348477Y-104703619D01*
X122396096Y-104798857D01*
X122443715Y-104989333D01*
X122443715Y-105227429D01*
X122396096Y-105417905D01*
X122348477Y-105513143D01*
X122300858Y-105560762D01*
X122205620Y-105608381D01*
X122110381Y-105608381D01*
X122015143Y-105560762D01*
X121967524Y-105513143D01*
X121919905Y-105417905D01*
X121872286Y-105227429D01*
X121872286Y-104989333D01*
X121919905Y-104798857D01*
X121967524Y-104703619D01*
X122015143Y-104656000D01*
X122110381Y-104608381D01*
X158781905Y-61428381D02*
X158781905Y-62237905D01*
X158829524Y-62333143D01*
X158877143Y-62380762D01*
X158972381Y-62428381D01*
X159162858Y-62428381D01*
X159258096Y-62380762D01*
X159305715Y-62333143D01*
X159353334Y-62237905D01*
X159353334Y-61428381D01*
X160353334Y-62428381D02*
X159781905Y-62428381D01*
X160067619Y-62428381D02*
X160067619Y-61428381D01*
X159972381Y-61571238D01*
X159877143Y-61666476D01*
X159781905Y-61714095D01*
X161210477Y-61761714D02*
X161210477Y-62428381D01*
X160972381Y-61380762D02*
X160734286Y-62095048D01*
X161353334Y-62095048D01*
X150653905Y-61428381D02*
X150653905Y-62237905D01*
X150701524Y-62333143D01*
X150749143Y-62380762D01*
X150844381Y-62428381D01*
X151034858Y-62428381D01*
X151130096Y-62380762D01*
X151177715Y-62333143D01*
X151225334Y-62237905D01*
X151225334Y-61428381D01*
X152225334Y-62428381D02*
X151653905Y-62428381D01*
X151939619Y-62428381D02*
X151939619Y-61428381D01*
X151844381Y-61571238D01*
X151749143Y-61666476D01*
X151653905Y-61714095D01*
X153130096Y-61428381D02*
X152653905Y-61428381D01*
X152606286Y-61904571D01*
X152653905Y-61856952D01*
X152749143Y-61809333D01*
X152987239Y-61809333D01*
X153082477Y-61856952D01*
X153130096Y-61904571D01*
X153177715Y-61999810D01*
X153177715Y-62237905D01*
X153130096Y-62333143D01*
X153082477Y-62380762D01*
X152987239Y-62428381D01*
X152749143Y-62428381D01*
X152653905Y-62380762D01*
X152606286Y-62333143D01*
X142525905Y-61428381D02*
X142525905Y-62237905D01*
X142573524Y-62333143D01*
X142621143Y-62380762D01*
X142716381Y-62428381D01*
X142906858Y-62428381D01*
X143002096Y-62380762D01*
X143049715Y-62333143D01*
X143097334Y-62237905D01*
X143097334Y-61428381D01*
X144097334Y-62428381D02*
X143525905Y-62428381D01*
X143811619Y-62428381D02*
X143811619Y-61428381D01*
X143716381Y-61571238D01*
X143621143Y-61666476D01*
X143525905Y-61714095D01*
X144954477Y-61428381D02*
X144764000Y-61428381D01*
X144668762Y-61476000D01*
X144621143Y-61523619D01*
X144525905Y-61666476D01*
X144478286Y-61856952D01*
X144478286Y-62237905D01*
X144525905Y-62333143D01*
X144573524Y-62380762D01*
X144668762Y-62428381D01*
X144859239Y-62428381D01*
X144954477Y-62380762D01*
X145002096Y-62333143D01*
X145049715Y-62237905D01*
X145049715Y-61999810D01*
X145002096Y-61904571D01*
X144954477Y-61856952D01*
X144859239Y-61809333D01*
X144668762Y-61809333D01*
X144573524Y-61856952D01*
X144525905Y-61904571D01*
X144478286Y-61999810D01*
X134397905Y-61428381D02*
X134397905Y-62237905D01*
X134445524Y-62333143D01*
X134493143Y-62380762D01*
X134588381Y-62428381D01*
X134778858Y-62428381D01*
X134874096Y-62380762D01*
X134921715Y-62333143D01*
X134969334Y-62237905D01*
X134969334Y-61428381D01*
X135969334Y-62428381D02*
X135397905Y-62428381D01*
X135683619Y-62428381D02*
X135683619Y-61428381D01*
X135588381Y-61571238D01*
X135493143Y-61666476D01*
X135397905Y-61714095D01*
X136302667Y-61428381D02*
X136969334Y-61428381D01*
X136540762Y-62428381D01*
X126269905Y-61428381D02*
X126269905Y-62237905D01*
X126317524Y-62333143D01*
X126365143Y-62380762D01*
X126460381Y-62428381D01*
X126650858Y-62428381D01*
X126746096Y-62380762D01*
X126793715Y-62333143D01*
X126841334Y-62237905D01*
X126841334Y-61428381D01*
X127841334Y-62428381D02*
X127269905Y-62428381D01*
X127555619Y-62428381D02*
X127555619Y-61428381D01*
X127460381Y-61571238D01*
X127365143Y-61666476D01*
X127269905Y-61714095D01*
X128412762Y-61856952D02*
X128317524Y-61809333D01*
X128269905Y-61761714D01*
X128222286Y-61666476D01*
X128222286Y-61618857D01*
X128269905Y-61523619D01*
X128317524Y-61476000D01*
X128412762Y-61428381D01*
X128603239Y-61428381D01*
X128698477Y-61476000D01*
X128746096Y-61523619D01*
X128793715Y-61618857D01*
X128793715Y-61666476D01*
X128746096Y-61761714D01*
X128698477Y-61809333D01*
X128603239Y-61856952D01*
X128412762Y-61856952D01*
X128317524Y-61904571D01*
X128269905Y-61952190D01*
X128222286Y-62047429D01*
X128222286Y-62237905D01*
X128269905Y-62333143D01*
X128317524Y-62380762D01*
X128412762Y-62428381D01*
X128603239Y-62428381D01*
X128698477Y-62380762D01*
X128746096Y-62333143D01*
X128793715Y-62237905D01*
X128793715Y-62047429D01*
X128746096Y-61952190D01*
X128698477Y-61904571D01*
X128603239Y-61856952D01*
X118141905Y-61428381D02*
X118141905Y-62237905D01*
X118189524Y-62333143D01*
X118237143Y-62380762D01*
X118332381Y-62428381D01*
X118522858Y-62428381D01*
X118618096Y-62380762D01*
X118665715Y-62333143D01*
X118713334Y-62237905D01*
X118713334Y-61428381D01*
X119713334Y-62428381D02*
X119141905Y-62428381D01*
X119427619Y-62428381D02*
X119427619Y-61428381D01*
X119332381Y-61571238D01*
X119237143Y-61666476D01*
X119141905Y-61714095D01*
X120189524Y-62428381D02*
X120380000Y-62428381D01*
X120475239Y-62380762D01*
X120522858Y-62333143D01*
X120618096Y-62190286D01*
X120665715Y-61999810D01*
X120665715Y-61618857D01*
X120618096Y-61523619D01*
X120570477Y-61476000D01*
X120475239Y-61428381D01*
X120284762Y-61428381D01*
X120189524Y-61476000D01*
X120141905Y-61523619D01*
X120094286Y-61618857D01*
X120094286Y-61856952D01*
X120141905Y-61952190D01*
X120189524Y-61999810D01*
X120284762Y-62047429D01*
X120475239Y-62047429D01*
X120570477Y-61999810D01*
X120618096Y-61952190D01*
X120665715Y-61856952D01*
X110013905Y-61428381D02*
X110013905Y-62237905D01*
X110061524Y-62333143D01*
X110109143Y-62380762D01*
X110204381Y-62428381D01*
X110394858Y-62428381D01*
X110490096Y-62380762D01*
X110537715Y-62333143D01*
X110585334Y-62237905D01*
X110585334Y-61428381D01*
X111013905Y-61523619D02*
X111061524Y-61476000D01*
X111156762Y-61428381D01*
X111394858Y-61428381D01*
X111490096Y-61476000D01*
X111537715Y-61523619D01*
X111585334Y-61618857D01*
X111585334Y-61714095D01*
X111537715Y-61856952D01*
X110966286Y-62428381D01*
X111585334Y-62428381D01*
X112204381Y-61428381D02*
X112299620Y-61428381D01*
X112394858Y-61476000D01*
X112442477Y-61523619D01*
X112490096Y-61618857D01*
X112537715Y-61809333D01*
X112537715Y-62047429D01*
X112490096Y-62237905D01*
X112442477Y-62333143D01*
X112394858Y-62380762D01*
X112299620Y-62428381D01*
X112204381Y-62428381D01*
X112109143Y-62380762D01*
X112061524Y-62333143D01*
X112013905Y-62237905D01*
X111966286Y-62047429D01*
X111966286Y-61809333D01*
X112013905Y-61618857D01*
X112061524Y-61523619D01*
X112109143Y-61476000D01*
X112204381Y-61428381D01*
X101885905Y-61428381D02*
X101885905Y-62237905D01*
X101933524Y-62333143D01*
X101981143Y-62380762D01*
X102076381Y-62428381D01*
X102266858Y-62428381D01*
X102362096Y-62380762D01*
X102409715Y-62333143D01*
X102457334Y-62237905D01*
X102457334Y-61428381D01*
X102885905Y-61523619D02*
X102933524Y-61476000D01*
X103028762Y-61428381D01*
X103266858Y-61428381D01*
X103362096Y-61476000D01*
X103409715Y-61523619D01*
X103457334Y-61618857D01*
X103457334Y-61714095D01*
X103409715Y-61856952D01*
X102838286Y-62428381D01*
X103457334Y-62428381D01*
X104409715Y-62428381D02*
X103838286Y-62428381D01*
X104124000Y-62428381D02*
X104124000Y-61428381D01*
X104028762Y-61571238D01*
X103933524Y-61666476D01*
X103838286Y-61714095D01*
X73445905Y-129246381D02*
X73445905Y-130055905D01*
X73493524Y-130151143D01*
X73541143Y-130198762D01*
X73636381Y-130246381D01*
X73826858Y-130246381D01*
X73922096Y-130198762D01*
X73969715Y-130151143D01*
X74017334Y-130055905D01*
X74017334Y-129246381D01*
X74445905Y-130198762D02*
X74588762Y-130246381D01*
X74826858Y-130246381D01*
X74922096Y-130198762D01*
X74969715Y-130151143D01*
X75017334Y-130055905D01*
X75017334Y-129960667D01*
X74969715Y-129865429D01*
X74922096Y-129817810D01*
X74826858Y-129770190D01*
X74636381Y-129722571D01*
X74541143Y-129674952D01*
X74493524Y-129627333D01*
X74445905Y-129532095D01*
X74445905Y-129436857D01*
X74493524Y-129341619D01*
X74541143Y-129294000D01*
X74636381Y-129246381D01*
X74874477Y-129246381D01*
X75017334Y-129294000D01*
X75779239Y-129722571D02*
X75922096Y-129770190D01*
X75969715Y-129817810D01*
X76017334Y-129913048D01*
X76017334Y-130055905D01*
X75969715Y-130151143D01*
X75922096Y-130198762D01*
X75826858Y-130246381D01*
X75445905Y-130246381D01*
X75445905Y-129246381D01*
X75779239Y-129246381D01*
X75874477Y-129294000D01*
X75922096Y-129341619D01*
X75969715Y-129436857D01*
X75969715Y-129532095D01*
X75922096Y-129627333D01*
X75874477Y-129674952D01*
X75779239Y-129722571D01*
X75445905Y-129722571D01*
X76969715Y-130246381D02*
X76398286Y-130246381D01*
X76684000Y-130246381D02*
X76684000Y-129246381D01*
X76588762Y-129389238D01*
X76493524Y-129484476D01*
X76398286Y-129532095D01*
X144645143Y-112879143D02*
X144597524Y-112926762D01*
X144454667Y-112974381D01*
X144359429Y-112974381D01*
X144216571Y-112926762D01*
X144121333Y-112831524D01*
X144073714Y-112736286D01*
X144026095Y-112545810D01*
X144026095Y-112402952D01*
X144073714Y-112212476D01*
X144121333Y-112117238D01*
X144216571Y-112022000D01*
X144359429Y-111974381D01*
X144454667Y-111974381D01*
X144597524Y-112022000D01*
X144645143Y-112069619D01*
X145121333Y-112974381D02*
X145311809Y-112974381D01*
X145407048Y-112926762D01*
X145454667Y-112879143D01*
X145549905Y-112736286D01*
X145597524Y-112545810D01*
X145597524Y-112164857D01*
X145549905Y-112069619D01*
X145502286Y-112022000D01*
X145407048Y-111974381D01*
X145216571Y-111974381D01*
X145121333Y-112022000D01*
X145073714Y-112069619D01*
X145026095Y-112164857D01*
X145026095Y-112402952D01*
X145073714Y-112498190D01*
X145121333Y-112545810D01*
X145216571Y-112593429D01*
X145407048Y-112593429D01*
X145502286Y-112545810D01*
X145549905Y-112498190D01*
X145597524Y-112402952D01*
X145930857Y-111974381D02*
X146549905Y-111974381D01*
X146216571Y-112355333D01*
X146359429Y-112355333D01*
X146454667Y-112402952D01*
X146502286Y-112450571D01*
X146549905Y-112545810D01*
X146549905Y-112783905D01*
X146502286Y-112879143D01*
X146454667Y-112926762D01*
X146359429Y-112974381D01*
X146073714Y-112974381D01*
X145978476Y-112926762D01*
X145930857Y-112879143D01*
X132057143Y-127307143D02*
X132009524Y-127354762D01*
X131866667Y-127402381D01*
X131771429Y-127402381D01*
X131628571Y-127354762D01*
X131533333Y-127259524D01*
X131485714Y-127164286D01*
X131438095Y-126973810D01*
X131438095Y-126830952D01*
X131485714Y-126640476D01*
X131533333Y-126545238D01*
X131628571Y-126450000D01*
X131771429Y-126402381D01*
X131866667Y-126402381D01*
X132009524Y-126450000D01*
X132057143Y-126497619D01*
X132533333Y-127402381D02*
X132723809Y-127402381D01*
X132819048Y-127354762D01*
X132866667Y-127307143D01*
X132961905Y-127164286D01*
X133009524Y-126973810D01*
X133009524Y-126592857D01*
X132961905Y-126497619D01*
X132914286Y-126450000D01*
X132819048Y-126402381D01*
X132628571Y-126402381D01*
X132533333Y-126450000D01*
X132485714Y-126497619D01*
X132438095Y-126592857D01*
X132438095Y-126830952D01*
X132485714Y-126926190D01*
X132533333Y-126973810D01*
X132628571Y-127021429D01*
X132819048Y-127021429D01*
X132914286Y-126973810D01*
X132961905Y-126926190D01*
X133009524Y-126830952D01*
X133866667Y-126735714D02*
X133866667Y-127402381D01*
X133628571Y-126354762D02*
X133390476Y-127069048D01*
X134009524Y-127069048D01*
X88857143Y-88352143D02*
X88809524Y-88399762D01*
X88666667Y-88447381D01*
X88571429Y-88447381D01*
X88428571Y-88399762D01*
X88333333Y-88304524D01*
X88285714Y-88209286D01*
X88238095Y-88018810D01*
X88238095Y-87875952D01*
X88285714Y-87685476D01*
X88333333Y-87590238D01*
X88428571Y-87495000D01*
X88571429Y-87447381D01*
X88666667Y-87447381D01*
X88809524Y-87495000D01*
X88857143Y-87542619D01*
X89333333Y-88447381D02*
X89523809Y-88447381D01*
X89619048Y-88399762D01*
X89666667Y-88352143D01*
X89761905Y-88209286D01*
X89809524Y-88018810D01*
X89809524Y-87637857D01*
X89761905Y-87542619D01*
X89714286Y-87495000D01*
X89619048Y-87447381D01*
X89428571Y-87447381D01*
X89333333Y-87495000D01*
X89285714Y-87542619D01*
X89238095Y-87637857D01*
X89238095Y-87875952D01*
X89285714Y-87971190D01*
X89333333Y-88018810D01*
X89428571Y-88066429D01*
X89619048Y-88066429D01*
X89714286Y-88018810D01*
X89761905Y-87971190D01*
X89809524Y-87875952D01*
X90142857Y-87447381D02*
X90809524Y-87447381D01*
X90380952Y-88447381D01*
X85773809Y-95221190D02*
X85773809Y-95697381D01*
X85440476Y-94697381D02*
X85773809Y-95221190D01*
X86107143Y-94697381D01*
X86345238Y-94697381D02*
X86964286Y-94697381D01*
X86630952Y-95078333D01*
X86773810Y-95078333D01*
X86869048Y-95125952D01*
X86916667Y-95173571D01*
X86964286Y-95268810D01*
X86964286Y-95506905D01*
X86916667Y-95602143D01*
X86869048Y-95649762D01*
X86773810Y-95697381D01*
X86488095Y-95697381D01*
X86392857Y-95649762D01*
X86345238Y-95602143D01*
X112357143Y-124602143D02*
X112309524Y-124649762D01*
X112166667Y-124697381D01*
X112071429Y-124697381D01*
X111928571Y-124649762D01*
X111833333Y-124554524D01*
X111785714Y-124459286D01*
X111738095Y-124268810D01*
X111738095Y-124125952D01*
X111785714Y-123935476D01*
X111833333Y-123840238D01*
X111928571Y-123745000D01*
X112071429Y-123697381D01*
X112166667Y-123697381D01*
X112309524Y-123745000D01*
X112357143Y-123792619D01*
X112928571Y-124125952D02*
X112833333Y-124078333D01*
X112785714Y-124030714D01*
X112738095Y-123935476D01*
X112738095Y-123887857D01*
X112785714Y-123792619D01*
X112833333Y-123745000D01*
X112928571Y-123697381D01*
X113119048Y-123697381D01*
X113214286Y-123745000D01*
X113261905Y-123792619D01*
X113309524Y-123887857D01*
X113309524Y-123935476D01*
X113261905Y-124030714D01*
X113214286Y-124078333D01*
X113119048Y-124125952D01*
X112928571Y-124125952D01*
X112833333Y-124173571D01*
X112785714Y-124221190D01*
X112738095Y-124316429D01*
X112738095Y-124506905D01*
X112785714Y-124602143D01*
X112833333Y-124649762D01*
X112928571Y-124697381D01*
X113119048Y-124697381D01*
X113214286Y-124649762D01*
X113261905Y-124602143D01*
X113309524Y-124506905D01*
X113309524Y-124316429D01*
X113261905Y-124221190D01*
X113214286Y-124173571D01*
X113119048Y-124125952D01*
X113785714Y-124697381D02*
X113976190Y-124697381D01*
X114071429Y-124649762D01*
X114119048Y-124602143D01*
X114214286Y-124459286D01*
X114261905Y-124268810D01*
X114261905Y-123887857D01*
X114214286Y-123792619D01*
X114166667Y-123745000D01*
X114071429Y-123697381D01*
X113880952Y-123697381D01*
X113785714Y-123745000D01*
X113738095Y-123792619D01*
X113690476Y-123887857D01*
X113690476Y-124125952D01*
X113738095Y-124221190D01*
X113785714Y-124268810D01*
X113880952Y-124316429D01*
X114071429Y-124316429D01*
X114166667Y-124268810D01*
X114214286Y-124221190D01*
X114261905Y-124125952D01*
X69880953Y-115122381D02*
X69547619Y-114646190D01*
X69309524Y-115122381D02*
X69309524Y-114122381D01*
X69690477Y-114122381D01*
X69785715Y-114170000D01*
X69833334Y-114217619D01*
X69880953Y-114312857D01*
X69880953Y-114455714D01*
X69833334Y-114550952D01*
X69785715Y-114598571D01*
X69690477Y-114646190D01*
X69309524Y-114646190D01*
X70309524Y-114598571D02*
X70642858Y-114598571D01*
X70785715Y-115122381D02*
X70309524Y-115122381D01*
X70309524Y-114122381D01*
X70785715Y-114122381D01*
X71738096Y-115122381D02*
X71166667Y-115122381D01*
X71452381Y-115122381D02*
X71452381Y-114122381D01*
X71357143Y-114265238D01*
X71261905Y-114360476D01*
X71166667Y-114408095D01*
M02*
