G04 #@! TF.FileFunction,Legend,Bot*
%FSLAX46Y46*%
G04 Gerber Fmt 4.6, Leading zero omitted, Abs format (unit mm)*
G04 Created by KiCad (PCBNEW 4.0.7) date 11/25/17 11:10:42*
%MOMM*%
%LPD*%
G01*
G04 APERTURE LIST*
%ADD10C,0.100000*%
%ADD11C,0.150000*%
%ADD12C,0.120000*%
G04 APERTURE END LIST*
D10*
D11*
X138675000Y-120320000D02*
X138675000Y-121270000D01*
X128325000Y-120320000D02*
X128325000Y-121370000D01*
X128325000Y-130670000D02*
X128325000Y-129620000D01*
X138675000Y-130670000D02*
X138675000Y-129620000D01*
X138675000Y-120320000D02*
X137625000Y-120320000D01*
X138675000Y-130670000D02*
X137625000Y-130670000D01*
X128325000Y-130670000D02*
X129375000Y-130670000D01*
X128325000Y-120320000D02*
X129375000Y-120320000D01*
X138675000Y-121270000D02*
X139950000Y-121270000D01*
D12*
X200615000Y-133910000D02*
X200615000Y-138210000D01*
X200615000Y-138210000D02*
X193315000Y-138210000D01*
X200615000Y-133910000D02*
X193315000Y-133910000D01*
D11*
X180345000Y-124991000D02*
X180345000Y-122959000D01*
X190505000Y-122959000D02*
X190505000Y-124991000D01*
D12*
X191415000Y-133765000D02*
X191415000Y-129465000D01*
X191415000Y-129465000D02*
X198715000Y-129465000D01*
X191415000Y-133765000D02*
X198715000Y-133765000D01*
X180025000Y-122775000D02*
X180025000Y-114475000D01*
X176325000Y-122775000D02*
X176325000Y-114475000D01*
X180025000Y-122775000D02*
X176325000Y-122775000D01*
X176275000Y-122775000D02*
X176275000Y-114475000D01*
X172575000Y-122775000D02*
X172575000Y-114475000D01*
X176275000Y-122775000D02*
X172575000Y-122775000D01*
X170775000Y-117725000D02*
X170775000Y-118725000D01*
X169075000Y-118725000D02*
X169075000Y-117725000D01*
X172525000Y-117725000D02*
X172525000Y-118725000D01*
X170825000Y-118725000D02*
X170825000Y-117725000D01*
X169025000Y-117725000D02*
X169025000Y-118725000D01*
X167325000Y-118725000D02*
X167325000Y-117725000D01*
X184300000Y-118050000D02*
X183300000Y-118050000D01*
X183300000Y-116350000D02*
X184300000Y-116350000D01*
X187600000Y-112700000D02*
X187600000Y-111700000D01*
X189300000Y-111700000D02*
X189300000Y-112700000D01*
X189300000Y-112700000D02*
X189300000Y-111700000D01*
X191000000Y-111700000D02*
X191000000Y-112700000D01*
X175500000Y-110150000D02*
X176500000Y-110150000D01*
X176500000Y-111850000D02*
X175500000Y-111850000D01*
X173600000Y-104200000D02*
X173600000Y-105200000D01*
X171900000Y-105200000D02*
X171900000Y-104200000D01*
X164400000Y-105850000D02*
X164400000Y-104850000D01*
X166100000Y-104850000D02*
X166100000Y-105850000D01*
X168000000Y-104850000D02*
X168000000Y-105850000D01*
X166300000Y-105850000D02*
X166300000Y-104850000D01*
X166250000Y-101200000D02*
X166250000Y-100200000D01*
X167950000Y-100200000D02*
X167950000Y-101200000D01*
X170650000Y-102300000D02*
X169650000Y-102300000D01*
X169650000Y-100600000D02*
X170650000Y-100600000D01*
X97850000Y-88550000D02*
X97850000Y-80250000D01*
X94150000Y-88550000D02*
X94150000Y-80250000D01*
X97850000Y-88550000D02*
X94150000Y-88550000D01*
X122135000Y-86622000D02*
X122135000Y-87622000D01*
X120435000Y-87622000D02*
X120435000Y-86622000D01*
X114625000Y-110475000D02*
X113625000Y-110475000D01*
X113625000Y-108775000D02*
X114625000Y-108775000D01*
X104250000Y-108350000D02*
X103250000Y-108350000D01*
X103250000Y-106650000D02*
X104250000Y-106650000D01*
X105750000Y-117895000D02*
X106750000Y-117895000D01*
X106750000Y-119595000D02*
X105750000Y-119595000D01*
X117650000Y-120250000D02*
X117650000Y-119250000D01*
X119350000Y-119250000D02*
X119350000Y-120250000D01*
X118900000Y-107995000D02*
X118900000Y-106995000D01*
X120600000Y-106995000D02*
X120600000Y-107995000D01*
X138500000Y-118595000D02*
X137500000Y-118595000D01*
X137500000Y-116895000D02*
X138500000Y-116895000D01*
X90350000Y-93995000D02*
X90350000Y-94995000D01*
X88650000Y-94995000D02*
X88650000Y-93995000D01*
X133250000Y-116895000D02*
X134250000Y-116895000D01*
X134250000Y-118595000D02*
X133250000Y-118595000D01*
X88650000Y-99745000D02*
X88650000Y-98745000D01*
X90350000Y-98745000D02*
X90350000Y-99745000D01*
X112688000Y-84574000D02*
X112688000Y-83574000D01*
X114388000Y-83574000D02*
X114388000Y-84574000D01*
X87100000Y-73750000D02*
X87100000Y-72750000D01*
X88800000Y-72750000D02*
X88800000Y-73750000D01*
X88900000Y-71250000D02*
X88900000Y-70250000D01*
X90600000Y-70250000D02*
X90600000Y-71250000D01*
X93500000Y-68150000D02*
X92500000Y-68150000D01*
X92500000Y-66450000D02*
X93500000Y-66450000D01*
X80272000Y-114466000D02*
X81272000Y-114466000D01*
X81272000Y-116166000D02*
X80272000Y-116166000D01*
X89400000Y-116166000D02*
X88400000Y-116166000D01*
X88400000Y-114466000D02*
X89400000Y-114466000D01*
X73425000Y-139675000D02*
X74425000Y-139675000D01*
X74425000Y-141375000D02*
X73425000Y-141375000D01*
X142050000Y-113150000D02*
X133750000Y-113150000D01*
X142050000Y-116850000D02*
X133750000Y-116850000D01*
X142050000Y-113150000D02*
X142050000Y-116850000D01*
X94800000Y-88645000D02*
X86500000Y-88645000D01*
X94800000Y-92345000D02*
X86500000Y-92345000D01*
X94800000Y-88645000D02*
X94800000Y-92345000D01*
X83400000Y-92445000D02*
X83400000Y-100745000D01*
X87100000Y-92445000D02*
X87100000Y-100745000D01*
X83400000Y-92445000D02*
X87100000Y-92445000D01*
X160694000Y-63365000D02*
X160694000Y-62365000D01*
X162394000Y-62365000D02*
X162394000Y-63365000D01*
X157646000Y-63365000D02*
X157646000Y-62365000D01*
X159346000Y-62365000D02*
X159346000Y-63365000D01*
X152566000Y-63365000D02*
X152566000Y-62365000D01*
X154266000Y-62365000D02*
X154266000Y-63365000D01*
X149518000Y-63365000D02*
X149518000Y-62365000D01*
X151218000Y-62365000D02*
X151218000Y-63365000D01*
X144438000Y-63365000D02*
X144438000Y-62365000D01*
X146138000Y-62365000D02*
X146138000Y-63365000D01*
X141390000Y-63365000D02*
X141390000Y-62365000D01*
X143090000Y-62365000D02*
X143090000Y-63365000D01*
X136310000Y-63365000D02*
X136310000Y-62365000D01*
X138010000Y-62365000D02*
X138010000Y-63365000D01*
X133262000Y-63365000D02*
X133262000Y-62365000D01*
X134962000Y-62365000D02*
X134962000Y-63365000D01*
X128182000Y-63365000D02*
X128182000Y-62365000D01*
X129882000Y-62365000D02*
X129882000Y-63365000D01*
X125134000Y-63365000D02*
X125134000Y-62365000D01*
X126834000Y-62365000D02*
X126834000Y-63365000D01*
X120054000Y-63365000D02*
X120054000Y-62365000D01*
X121754000Y-62365000D02*
X121754000Y-63365000D01*
X117006000Y-63365000D02*
X117006000Y-62365000D01*
X118706000Y-62365000D02*
X118706000Y-63365000D01*
X111926000Y-63365000D02*
X111926000Y-62365000D01*
X113626000Y-62365000D02*
X113626000Y-63365000D01*
X108878000Y-63365000D02*
X108878000Y-62365000D01*
X110578000Y-62365000D02*
X110578000Y-63365000D01*
X103798000Y-63365000D02*
X103798000Y-62365000D01*
X105498000Y-62365000D02*
X105498000Y-63365000D01*
X200615000Y-125020000D02*
X200615000Y-129320000D01*
X200615000Y-129320000D02*
X193315000Y-129320000D01*
X200615000Y-125020000D02*
X193315000Y-125020000D01*
X191415000Y-142655000D02*
X191415000Y-138355000D01*
X191415000Y-138355000D02*
X198715000Y-138355000D01*
X191415000Y-142655000D02*
X198715000Y-142655000D01*
X173375000Y-124075000D02*
X166875000Y-124075000D01*
X173375000Y-124075000D02*
X173375000Y-135275000D01*
X166875000Y-124075000D02*
X166875000Y-135275000D01*
X90970000Y-73150000D02*
X90970000Y-74350000D01*
X92730000Y-74350000D02*
X92730000Y-73150000D01*
X80172000Y-118228000D02*
X81372000Y-118228000D01*
X81372000Y-116468000D02*
X80172000Y-116468000D01*
X89500000Y-116468000D02*
X88300000Y-116468000D01*
X88300000Y-118228000D02*
X89500000Y-118228000D01*
X73900000Y-122880000D02*
X75100000Y-122880000D01*
X75100000Y-121120000D02*
X73900000Y-121120000D01*
X73900000Y-128030000D02*
X75100000Y-128030000D01*
X75100000Y-126270000D02*
X73900000Y-126270000D01*
X141880000Y-126595000D02*
X141880000Y-125395000D01*
X140120000Y-125395000D02*
X140120000Y-126595000D01*
X97850000Y-90120000D02*
X96650000Y-90120000D01*
X96650000Y-91880000D02*
X97850000Y-91880000D01*
X122310000Y-86522000D02*
X122310000Y-87722000D01*
X124070000Y-87722000D02*
X124070000Y-86522000D01*
X126838000Y-84972000D02*
X125638000Y-84972000D01*
X125638000Y-86732000D02*
X126838000Y-86732000D01*
X120387000Y-83785000D02*
X120387000Y-82585000D01*
X118627000Y-82585000D02*
X118627000Y-83785000D01*
X123350000Y-82870000D02*
X122150000Y-82870000D01*
X122150000Y-84630000D02*
X123350000Y-84630000D01*
X115942000Y-91786000D02*
X115942000Y-90586000D01*
X114182000Y-90586000D02*
X114182000Y-91786000D01*
X112404000Y-88681000D02*
X112404000Y-89881000D01*
X114164000Y-89881000D02*
X114164000Y-88681000D01*
X110880000Y-86014000D02*
X110880000Y-87214000D01*
X112640000Y-87214000D02*
X112640000Y-86014000D01*
X93970000Y-72950000D02*
X93970000Y-74150000D01*
X95730000Y-74150000D02*
X95730000Y-72950000D01*
X183875000Y-129775000D02*
X185375000Y-129775000D01*
X185375000Y-129775000D02*
X185375000Y-130465000D01*
X185375000Y-130465000D02*
X190500000Y-130465000D01*
X183875000Y-140175000D02*
X185375000Y-140175000D01*
X185375000Y-140175000D02*
X185375000Y-139485000D01*
X185375000Y-139485000D02*
X186475000Y-139485000D01*
X187200000Y-111520000D02*
X187200000Y-113020000D01*
X187200000Y-113020000D02*
X186930000Y-113020000D01*
X186930000Y-113020000D02*
X186930000Y-115850000D01*
X180300000Y-111520000D02*
X180300000Y-113020000D01*
X180300000Y-113020000D02*
X180570000Y-113020000D01*
X180570000Y-113020000D02*
X180570000Y-114120000D01*
D11*
X179125000Y-108225000D02*
X179075000Y-108225000D01*
X179125000Y-104075000D02*
X178980000Y-104075000D01*
X173975000Y-104075000D02*
X174120000Y-104075000D01*
X173975000Y-108225000D02*
X174120000Y-108225000D01*
X179125000Y-108225000D02*
X179125000Y-104075000D01*
X173975000Y-108225000D02*
X173975000Y-104075000D01*
X179075000Y-108225000D02*
X179075000Y-109625000D01*
D12*
X170800000Y-105750000D02*
X169200000Y-105750000D01*
X169200000Y-102550000D02*
X171500000Y-102550000D01*
D11*
X93915000Y-84225000D02*
X93915000Y-87225000D01*
X90915000Y-87225000D02*
X90915000Y-84225000D01*
X90740000Y-84225000D02*
X90740000Y-87225000D01*
X87740000Y-87225000D02*
X87740000Y-84225000D01*
X87565000Y-84225000D02*
X87565000Y-87225000D01*
X84565000Y-87225000D02*
X84565000Y-84225000D01*
X91825000Y-93820000D02*
X92775000Y-93820000D01*
X91825000Y-104170000D02*
X92875000Y-104170000D01*
X102175000Y-104170000D02*
X101125000Y-104170000D01*
X102175000Y-93820000D02*
X101125000Y-93820000D01*
X91825000Y-93820000D02*
X91825000Y-94870000D01*
X102175000Y-93820000D02*
X102175000Y-94870000D01*
X102175000Y-104170000D02*
X102175000Y-103120000D01*
X91825000Y-104170000D02*
X91825000Y-103120000D01*
X92775000Y-93820000D02*
X92775000Y-92545000D01*
X115673000Y-88797000D02*
X115673000Y-88622000D01*
X119023000Y-88797000D02*
X119023000Y-88547000D01*
X119023000Y-85447000D02*
X119023000Y-85697000D01*
X115673000Y-85447000D02*
X115673000Y-85697000D01*
X115673000Y-88797000D02*
X119023000Y-88797000D01*
X115673000Y-85447000D02*
X119023000Y-85447000D01*
X115673000Y-88622000D02*
X114423000Y-88622000D01*
D12*
X93460000Y-68270000D02*
X93460000Y-69200000D01*
X93460000Y-71430000D02*
X93460000Y-70500000D01*
X93460000Y-71430000D02*
X91300000Y-71430000D01*
X93460000Y-68270000D02*
X92000000Y-68270000D01*
X100750000Y-63365000D02*
X100750000Y-62365000D01*
X102450000Y-62365000D02*
X102450000Y-63365000D01*
X115150000Y-108610000D02*
X113350000Y-108610000D01*
X113350000Y-105390000D02*
X115800000Y-105390000D01*
X112100000Y-117295000D02*
X112100000Y-108995000D01*
X108400000Y-117295000D02*
X108400000Y-108995000D01*
X112100000Y-117295000D02*
X108400000Y-117295000D01*
D11*
X140488095Y-118947381D02*
X140488095Y-119756905D01*
X140440476Y-119852143D01*
X140392857Y-119899762D01*
X140297619Y-119947381D01*
X140107142Y-119947381D01*
X140011904Y-119899762D01*
X139964285Y-119852143D01*
X139916666Y-119756905D01*
X139916666Y-118947381D01*
X138916666Y-119947381D02*
X139488095Y-119947381D01*
X139202381Y-119947381D02*
X139202381Y-118947381D01*
X139297619Y-119090238D01*
X139392857Y-119185476D01*
X139488095Y-119233095D01*
X137964285Y-119947381D02*
X138535714Y-119947381D01*
X138250000Y-119947381D02*
X138250000Y-118947381D01*
X138345238Y-119090238D01*
X138440476Y-119185476D01*
X138535714Y-119233095D01*
X202468095Y-131940381D02*
X202468095Y-130940381D01*
X202230000Y-130940381D01*
X202087142Y-130988000D01*
X201991904Y-131083238D01*
X201944285Y-131178476D01*
X201896666Y-131368952D01*
X201896666Y-131511810D01*
X201944285Y-131702286D01*
X201991904Y-131797524D01*
X202087142Y-131892762D01*
X202230000Y-131940381D01*
X202468095Y-131940381D01*
X201563333Y-130940381D02*
X200944285Y-130940381D01*
X201277619Y-131321333D01*
X201134761Y-131321333D01*
X201039523Y-131368952D01*
X200991904Y-131416571D01*
X200944285Y-131511810D01*
X200944285Y-131749905D01*
X200991904Y-131845143D01*
X201039523Y-131892762D01*
X201134761Y-131940381D01*
X201420476Y-131940381D01*
X201515714Y-131892762D01*
X201563333Y-131845143D01*
X179490666Y-128976381D02*
X179966857Y-128976381D01*
X179966857Y-127976381D01*
X178633523Y-128976381D02*
X179204952Y-128976381D01*
X178919238Y-128976381D02*
X178919238Y-127976381D01*
X179014476Y-128119238D01*
X179109714Y-128214476D01*
X179204952Y-128262095D01*
X202468095Y-136512381D02*
X202468095Y-135512381D01*
X202230000Y-135512381D01*
X202087142Y-135560000D01*
X201991904Y-135655238D01*
X201944285Y-135750476D01*
X201896666Y-135940952D01*
X201896666Y-136083810D01*
X201944285Y-136274286D01*
X201991904Y-136369524D01*
X202087142Y-136464762D01*
X202230000Y-136512381D01*
X202468095Y-136512381D01*
X201515714Y-135607619D02*
X201468095Y-135560000D01*
X201372857Y-135512381D01*
X201134761Y-135512381D01*
X201039523Y-135560000D01*
X200991904Y-135607619D01*
X200944285Y-135702857D01*
X200944285Y-135798095D01*
X200991904Y-135940952D01*
X201563333Y-136512381D01*
X200944285Y-136512381D01*
X178341666Y-124182143D02*
X178389285Y-124229762D01*
X178532142Y-124277381D01*
X178627380Y-124277381D01*
X178770238Y-124229762D01*
X178865476Y-124134524D01*
X178913095Y-124039286D01*
X178960714Y-123848810D01*
X178960714Y-123705952D01*
X178913095Y-123515476D01*
X178865476Y-123420238D01*
X178770238Y-123325000D01*
X178627380Y-123277381D01*
X178532142Y-123277381D01*
X178389285Y-123325000D01*
X178341666Y-123372619D01*
X177484523Y-123610714D02*
X177484523Y-124277381D01*
X177722619Y-123229762D02*
X177960714Y-123944048D01*
X177341666Y-123944048D01*
X174591666Y-124182143D02*
X174639285Y-124229762D01*
X174782142Y-124277381D01*
X174877380Y-124277381D01*
X175020238Y-124229762D01*
X175115476Y-124134524D01*
X175163095Y-124039286D01*
X175210714Y-123848810D01*
X175210714Y-123705952D01*
X175163095Y-123515476D01*
X175115476Y-123420238D01*
X175020238Y-123325000D01*
X174877380Y-123277381D01*
X174782142Y-123277381D01*
X174639285Y-123325000D01*
X174591666Y-123372619D01*
X173686904Y-123277381D02*
X174163095Y-123277381D01*
X174210714Y-123753571D01*
X174163095Y-123705952D01*
X174067857Y-123658333D01*
X173829761Y-123658333D01*
X173734523Y-123705952D01*
X173686904Y-123753571D01*
X173639285Y-123848810D01*
X173639285Y-124086905D01*
X173686904Y-124182143D01*
X173734523Y-124229762D01*
X173829761Y-124277381D01*
X174067857Y-124277381D01*
X174163095Y-124229762D01*
X174210714Y-124182143D01*
X170091666Y-121757143D02*
X170139285Y-121804762D01*
X170282142Y-121852381D01*
X170377380Y-121852381D01*
X170520238Y-121804762D01*
X170615476Y-121709524D01*
X170663095Y-121614286D01*
X170710714Y-121423810D01*
X170710714Y-121280952D01*
X170663095Y-121090476D01*
X170615476Y-120995238D01*
X170520238Y-120900000D01*
X170377380Y-120852381D01*
X170282142Y-120852381D01*
X170139285Y-120900000D01*
X170091666Y-120947619D01*
X169234523Y-120852381D02*
X169425000Y-120852381D01*
X169520238Y-120900000D01*
X169567857Y-120947619D01*
X169663095Y-121090476D01*
X169710714Y-121280952D01*
X169710714Y-121661905D01*
X169663095Y-121757143D01*
X169615476Y-121804762D01*
X169520238Y-121852381D01*
X169329761Y-121852381D01*
X169234523Y-121804762D01*
X169186904Y-121757143D01*
X169139285Y-121661905D01*
X169139285Y-121423810D01*
X169186904Y-121328571D01*
X169234523Y-121280952D01*
X169329761Y-121233333D01*
X169520238Y-121233333D01*
X169615476Y-121280952D01*
X169663095Y-121328571D01*
X169710714Y-121423810D01*
X171841666Y-121757143D02*
X171889285Y-121804762D01*
X172032142Y-121852381D01*
X172127380Y-121852381D01*
X172270238Y-121804762D01*
X172365476Y-121709524D01*
X172413095Y-121614286D01*
X172460714Y-121423810D01*
X172460714Y-121280952D01*
X172413095Y-121090476D01*
X172365476Y-120995238D01*
X172270238Y-120900000D01*
X172127380Y-120852381D01*
X172032142Y-120852381D01*
X171889285Y-120900000D01*
X171841666Y-120947619D01*
X171508333Y-120852381D02*
X170841666Y-120852381D01*
X171270238Y-121852381D01*
X168341666Y-121757143D02*
X168389285Y-121804762D01*
X168532142Y-121852381D01*
X168627380Y-121852381D01*
X168770238Y-121804762D01*
X168865476Y-121709524D01*
X168913095Y-121614286D01*
X168960714Y-121423810D01*
X168960714Y-121280952D01*
X168913095Y-121090476D01*
X168865476Y-120995238D01*
X168770238Y-120900000D01*
X168627380Y-120852381D01*
X168532142Y-120852381D01*
X168389285Y-120900000D01*
X168341666Y-120947619D01*
X167770238Y-121280952D02*
X167865476Y-121233333D01*
X167913095Y-121185714D01*
X167960714Y-121090476D01*
X167960714Y-121042857D01*
X167913095Y-120947619D01*
X167865476Y-120900000D01*
X167770238Y-120852381D01*
X167579761Y-120852381D01*
X167484523Y-120900000D01*
X167436904Y-120947619D01*
X167389285Y-121042857D01*
X167389285Y-121090476D01*
X167436904Y-121185714D01*
X167484523Y-121233333D01*
X167579761Y-121280952D01*
X167770238Y-121280952D01*
X167865476Y-121328571D01*
X167913095Y-121376190D01*
X167960714Y-121471429D01*
X167960714Y-121661905D01*
X167913095Y-121757143D01*
X167865476Y-121804762D01*
X167770238Y-121852381D01*
X167579761Y-121852381D01*
X167484523Y-121804762D01*
X167436904Y-121757143D01*
X167389285Y-121661905D01*
X167389285Y-121471429D01*
X167436904Y-121376190D01*
X167484523Y-121328571D01*
X167579761Y-121280952D01*
X187166666Y-117557143D02*
X187214285Y-117604762D01*
X187357142Y-117652381D01*
X187452380Y-117652381D01*
X187595238Y-117604762D01*
X187690476Y-117509524D01*
X187738095Y-117414286D01*
X187785714Y-117223810D01*
X187785714Y-117080952D01*
X187738095Y-116890476D01*
X187690476Y-116795238D01*
X187595238Y-116700000D01*
X187452380Y-116652381D01*
X187357142Y-116652381D01*
X187214285Y-116700000D01*
X187166666Y-116747619D01*
X186690476Y-117652381D02*
X186500000Y-117652381D01*
X186404761Y-117604762D01*
X186357142Y-117557143D01*
X186261904Y-117414286D01*
X186214285Y-117223810D01*
X186214285Y-116842857D01*
X186261904Y-116747619D01*
X186309523Y-116700000D01*
X186404761Y-116652381D01*
X186595238Y-116652381D01*
X186690476Y-116700000D01*
X186738095Y-116747619D01*
X186785714Y-116842857D01*
X186785714Y-117080952D01*
X186738095Y-117176190D01*
X186690476Y-117223810D01*
X186595238Y-117271429D01*
X186404761Y-117271429D01*
X186309523Y-117223810D01*
X186261904Y-117176190D01*
X186214285Y-117080952D01*
X189392857Y-109857143D02*
X189440476Y-109904762D01*
X189583333Y-109952381D01*
X189678571Y-109952381D01*
X189821429Y-109904762D01*
X189916667Y-109809524D01*
X189964286Y-109714286D01*
X190011905Y-109523810D01*
X190011905Y-109380952D01*
X189964286Y-109190476D01*
X189916667Y-109095238D01*
X189821429Y-109000000D01*
X189678571Y-108952381D01*
X189583333Y-108952381D01*
X189440476Y-109000000D01*
X189392857Y-109047619D01*
X188440476Y-109952381D02*
X189011905Y-109952381D01*
X188726191Y-109952381D02*
X188726191Y-108952381D01*
X188821429Y-109095238D01*
X188916667Y-109190476D01*
X189011905Y-109238095D01*
X187821429Y-108952381D02*
X187726190Y-108952381D01*
X187630952Y-109000000D01*
X187583333Y-109047619D01*
X187535714Y-109142857D01*
X187488095Y-109333333D01*
X187488095Y-109571429D01*
X187535714Y-109761905D01*
X187583333Y-109857143D01*
X187630952Y-109904762D01*
X187726190Y-109952381D01*
X187821429Y-109952381D01*
X187916667Y-109904762D01*
X187964286Y-109857143D01*
X188011905Y-109761905D01*
X188059524Y-109571429D01*
X188059524Y-109333333D01*
X188011905Y-109142857D01*
X187964286Y-109047619D01*
X187916667Y-109000000D01*
X187821429Y-108952381D01*
X190792857Y-115457143D02*
X190840476Y-115504762D01*
X190983333Y-115552381D01*
X191078571Y-115552381D01*
X191221429Y-115504762D01*
X191316667Y-115409524D01*
X191364286Y-115314286D01*
X191411905Y-115123810D01*
X191411905Y-114980952D01*
X191364286Y-114790476D01*
X191316667Y-114695238D01*
X191221429Y-114600000D01*
X191078571Y-114552381D01*
X190983333Y-114552381D01*
X190840476Y-114600000D01*
X190792857Y-114647619D01*
X189840476Y-115552381D02*
X190411905Y-115552381D01*
X190126191Y-115552381D02*
X190126191Y-114552381D01*
X190221429Y-114695238D01*
X190316667Y-114790476D01*
X190411905Y-114838095D01*
X188888095Y-115552381D02*
X189459524Y-115552381D01*
X189173810Y-115552381D02*
X189173810Y-114552381D01*
X189269048Y-114695238D01*
X189364286Y-114790476D01*
X189459524Y-114838095D01*
X172592857Y-111357143D02*
X172640476Y-111404762D01*
X172783333Y-111452381D01*
X172878571Y-111452381D01*
X173021429Y-111404762D01*
X173116667Y-111309524D01*
X173164286Y-111214286D01*
X173211905Y-111023810D01*
X173211905Y-110880952D01*
X173164286Y-110690476D01*
X173116667Y-110595238D01*
X173021429Y-110500000D01*
X172878571Y-110452381D01*
X172783333Y-110452381D01*
X172640476Y-110500000D01*
X172592857Y-110547619D01*
X171640476Y-111452381D02*
X172211905Y-111452381D01*
X171926191Y-111452381D02*
X171926191Y-110452381D01*
X172021429Y-110595238D01*
X172116667Y-110690476D01*
X172211905Y-110738095D01*
X171259524Y-110547619D02*
X171211905Y-110500000D01*
X171116667Y-110452381D01*
X170878571Y-110452381D01*
X170783333Y-110500000D01*
X170735714Y-110547619D01*
X170688095Y-110642857D01*
X170688095Y-110738095D01*
X170735714Y-110880952D01*
X171307143Y-111452381D01*
X170688095Y-111452381D01*
X172892857Y-108157143D02*
X172940476Y-108204762D01*
X173083333Y-108252381D01*
X173178571Y-108252381D01*
X173321429Y-108204762D01*
X173416667Y-108109524D01*
X173464286Y-108014286D01*
X173511905Y-107823810D01*
X173511905Y-107680952D01*
X173464286Y-107490476D01*
X173416667Y-107395238D01*
X173321429Y-107300000D01*
X173178571Y-107252381D01*
X173083333Y-107252381D01*
X172940476Y-107300000D01*
X172892857Y-107347619D01*
X171940476Y-108252381D02*
X172511905Y-108252381D01*
X172226191Y-108252381D02*
X172226191Y-107252381D01*
X172321429Y-107395238D01*
X172416667Y-107490476D01*
X172511905Y-107538095D01*
X171607143Y-107252381D02*
X170988095Y-107252381D01*
X171321429Y-107633333D01*
X171178571Y-107633333D01*
X171083333Y-107680952D01*
X171035714Y-107728571D01*
X170988095Y-107823810D01*
X170988095Y-108061905D01*
X171035714Y-108157143D01*
X171083333Y-108204762D01*
X171178571Y-108252381D01*
X171464286Y-108252381D01*
X171559524Y-108204762D01*
X171607143Y-108157143D01*
X165542857Y-102857143D02*
X165590476Y-102904762D01*
X165733333Y-102952381D01*
X165828571Y-102952381D01*
X165971429Y-102904762D01*
X166066667Y-102809524D01*
X166114286Y-102714286D01*
X166161905Y-102523810D01*
X166161905Y-102380952D01*
X166114286Y-102190476D01*
X166066667Y-102095238D01*
X165971429Y-102000000D01*
X165828571Y-101952381D01*
X165733333Y-101952381D01*
X165590476Y-102000000D01*
X165542857Y-102047619D01*
X164590476Y-102952381D02*
X165161905Y-102952381D01*
X164876191Y-102952381D02*
X164876191Y-101952381D01*
X164971429Y-102095238D01*
X165066667Y-102190476D01*
X165161905Y-102238095D01*
X163733333Y-102285714D02*
X163733333Y-102952381D01*
X163971429Y-101904762D02*
X164209524Y-102619048D01*
X163590476Y-102619048D01*
X167692857Y-108607143D02*
X167740476Y-108654762D01*
X167883333Y-108702381D01*
X167978571Y-108702381D01*
X168121429Y-108654762D01*
X168216667Y-108559524D01*
X168264286Y-108464286D01*
X168311905Y-108273810D01*
X168311905Y-108130952D01*
X168264286Y-107940476D01*
X168216667Y-107845238D01*
X168121429Y-107750000D01*
X167978571Y-107702381D01*
X167883333Y-107702381D01*
X167740476Y-107750000D01*
X167692857Y-107797619D01*
X166740476Y-108702381D02*
X167311905Y-108702381D01*
X167026191Y-108702381D02*
X167026191Y-107702381D01*
X167121429Y-107845238D01*
X167216667Y-107940476D01*
X167311905Y-107988095D01*
X165835714Y-107702381D02*
X166311905Y-107702381D01*
X166359524Y-108178571D01*
X166311905Y-108130952D01*
X166216667Y-108083333D01*
X165978571Y-108083333D01*
X165883333Y-108130952D01*
X165835714Y-108178571D01*
X165788095Y-108273810D01*
X165788095Y-108511905D01*
X165835714Y-108607143D01*
X165883333Y-108654762D01*
X165978571Y-108702381D01*
X166216667Y-108702381D01*
X166311905Y-108654762D01*
X166359524Y-108607143D01*
X167642857Y-98157143D02*
X167690476Y-98204762D01*
X167833333Y-98252381D01*
X167928571Y-98252381D01*
X168071429Y-98204762D01*
X168166667Y-98109524D01*
X168214286Y-98014286D01*
X168261905Y-97823810D01*
X168261905Y-97680952D01*
X168214286Y-97490476D01*
X168166667Y-97395238D01*
X168071429Y-97300000D01*
X167928571Y-97252381D01*
X167833333Y-97252381D01*
X167690476Y-97300000D01*
X167642857Y-97347619D01*
X166690476Y-98252381D02*
X167261905Y-98252381D01*
X166976191Y-98252381D02*
X166976191Y-97252381D01*
X167071429Y-97395238D01*
X167166667Y-97490476D01*
X167261905Y-97538095D01*
X165833333Y-97252381D02*
X166023810Y-97252381D01*
X166119048Y-97300000D01*
X166166667Y-97347619D01*
X166261905Y-97490476D01*
X166309524Y-97680952D01*
X166309524Y-98061905D01*
X166261905Y-98157143D01*
X166214286Y-98204762D01*
X166119048Y-98252381D01*
X165928571Y-98252381D01*
X165833333Y-98204762D01*
X165785714Y-98157143D01*
X165738095Y-98061905D01*
X165738095Y-97823810D01*
X165785714Y-97728571D01*
X165833333Y-97680952D01*
X165928571Y-97633333D01*
X166119048Y-97633333D01*
X166214286Y-97680952D01*
X166261905Y-97728571D01*
X166309524Y-97823810D01*
X174542857Y-101807143D02*
X174590476Y-101854762D01*
X174733333Y-101902381D01*
X174828571Y-101902381D01*
X174971429Y-101854762D01*
X175066667Y-101759524D01*
X175114286Y-101664286D01*
X175161905Y-101473810D01*
X175161905Y-101330952D01*
X175114286Y-101140476D01*
X175066667Y-101045238D01*
X174971429Y-100950000D01*
X174828571Y-100902381D01*
X174733333Y-100902381D01*
X174590476Y-100950000D01*
X174542857Y-100997619D01*
X173590476Y-101902381D02*
X174161905Y-101902381D01*
X173876191Y-101902381D02*
X173876191Y-100902381D01*
X173971429Y-101045238D01*
X174066667Y-101140476D01*
X174161905Y-101188095D01*
X173257143Y-100902381D02*
X172590476Y-100902381D01*
X173019048Y-101902381D01*
X96642857Y-77857143D02*
X96690476Y-77904762D01*
X96833333Y-77952381D01*
X96928571Y-77952381D01*
X97071429Y-77904762D01*
X97166667Y-77809524D01*
X97214286Y-77714286D01*
X97261905Y-77523810D01*
X97261905Y-77380952D01*
X97214286Y-77190476D01*
X97166667Y-77095238D01*
X97071429Y-77000000D01*
X96928571Y-76952381D01*
X96833333Y-76952381D01*
X96690476Y-77000000D01*
X96642857Y-77047619D01*
X95690476Y-77952381D02*
X96261905Y-77952381D01*
X95976191Y-77952381D02*
X95976191Y-76952381D01*
X96071429Y-77095238D01*
X96166667Y-77190476D01*
X96261905Y-77238095D01*
X95119048Y-77380952D02*
X95214286Y-77333333D01*
X95261905Y-77285714D01*
X95309524Y-77190476D01*
X95309524Y-77142857D01*
X95261905Y-77047619D01*
X95214286Y-77000000D01*
X95119048Y-76952381D01*
X94928571Y-76952381D01*
X94833333Y-77000000D01*
X94785714Y-77047619D01*
X94738095Y-77142857D01*
X94738095Y-77190476D01*
X94785714Y-77285714D01*
X94833333Y-77333333D01*
X94928571Y-77380952D01*
X95119048Y-77380952D01*
X95214286Y-77428571D01*
X95261905Y-77476190D01*
X95309524Y-77571429D01*
X95309524Y-77761905D01*
X95261905Y-77857143D01*
X95214286Y-77904762D01*
X95119048Y-77952381D01*
X94928571Y-77952381D01*
X94833333Y-77904762D01*
X94785714Y-77857143D01*
X94738095Y-77761905D01*
X94738095Y-77571429D01*
X94785714Y-77476190D01*
X94833333Y-77428571D01*
X94928571Y-77380952D01*
X121407857Y-90627143D02*
X121455476Y-90674762D01*
X121598333Y-90722381D01*
X121693571Y-90722381D01*
X121836429Y-90674762D01*
X121931667Y-90579524D01*
X121979286Y-90484286D01*
X122026905Y-90293810D01*
X122026905Y-90150952D01*
X121979286Y-89960476D01*
X121931667Y-89865238D01*
X121836429Y-89770000D01*
X121693571Y-89722381D01*
X121598333Y-89722381D01*
X121455476Y-89770000D01*
X121407857Y-89817619D01*
X121026905Y-89817619D02*
X120979286Y-89770000D01*
X120884048Y-89722381D01*
X120645952Y-89722381D01*
X120550714Y-89770000D01*
X120503095Y-89817619D01*
X120455476Y-89912857D01*
X120455476Y-90008095D01*
X120503095Y-90150952D01*
X121074524Y-90722381D01*
X120455476Y-90722381D01*
X119884048Y-90150952D02*
X119979286Y-90103333D01*
X120026905Y-90055714D01*
X120074524Y-89960476D01*
X120074524Y-89912857D01*
X120026905Y-89817619D01*
X119979286Y-89770000D01*
X119884048Y-89722381D01*
X119693571Y-89722381D01*
X119598333Y-89770000D01*
X119550714Y-89817619D01*
X119503095Y-89912857D01*
X119503095Y-89960476D01*
X119550714Y-90055714D01*
X119598333Y-90103333D01*
X119693571Y-90150952D01*
X119884048Y-90150952D01*
X119979286Y-90198571D01*
X120026905Y-90246190D01*
X120074524Y-90341429D01*
X120074524Y-90531905D01*
X120026905Y-90627143D01*
X119979286Y-90674762D01*
X119884048Y-90722381D01*
X119693571Y-90722381D01*
X119598333Y-90674762D01*
X119550714Y-90627143D01*
X119503095Y-90531905D01*
X119503095Y-90341429D01*
X119550714Y-90246190D01*
X119598333Y-90198571D01*
X119693571Y-90150952D01*
X114767857Y-111732143D02*
X114815476Y-111779762D01*
X114958333Y-111827381D01*
X115053571Y-111827381D01*
X115196429Y-111779762D01*
X115291667Y-111684524D01*
X115339286Y-111589286D01*
X115386905Y-111398810D01*
X115386905Y-111255952D01*
X115339286Y-111065476D01*
X115291667Y-110970238D01*
X115196429Y-110875000D01*
X115053571Y-110827381D01*
X114958333Y-110827381D01*
X114815476Y-110875000D01*
X114767857Y-110922619D01*
X113910714Y-111160714D02*
X113910714Y-111827381D01*
X114148810Y-110779762D02*
X114386905Y-111494048D01*
X113767857Y-111494048D01*
X113482143Y-110827381D02*
X112815476Y-110827381D01*
X113244048Y-111827381D01*
X104392857Y-109357143D02*
X104440476Y-109404762D01*
X104583333Y-109452381D01*
X104678571Y-109452381D01*
X104821429Y-109404762D01*
X104916667Y-109309524D01*
X104964286Y-109214286D01*
X105011905Y-109023810D01*
X105011905Y-108880952D01*
X104964286Y-108690476D01*
X104916667Y-108595238D01*
X104821429Y-108500000D01*
X104678571Y-108452381D01*
X104583333Y-108452381D01*
X104440476Y-108500000D01*
X104392857Y-108547619D01*
X103535714Y-108785714D02*
X103535714Y-109452381D01*
X103773810Y-108404762D02*
X104011905Y-109119048D01*
X103392857Y-109119048D01*
X102869048Y-108880952D02*
X102964286Y-108833333D01*
X103011905Y-108785714D01*
X103059524Y-108690476D01*
X103059524Y-108642857D01*
X103011905Y-108547619D01*
X102964286Y-108500000D01*
X102869048Y-108452381D01*
X102678571Y-108452381D01*
X102583333Y-108500000D01*
X102535714Y-108547619D01*
X102488095Y-108642857D01*
X102488095Y-108690476D01*
X102535714Y-108785714D01*
X102583333Y-108833333D01*
X102678571Y-108880952D01*
X102869048Y-108880952D01*
X102964286Y-108928571D01*
X103011905Y-108976190D01*
X103059524Y-109071429D01*
X103059524Y-109261905D01*
X103011905Y-109357143D01*
X102964286Y-109404762D01*
X102869048Y-109452381D01*
X102678571Y-109452381D01*
X102583333Y-109404762D01*
X102535714Y-109357143D01*
X102488095Y-109261905D01*
X102488095Y-109071429D01*
X102535714Y-108976190D01*
X102583333Y-108928571D01*
X102678571Y-108880952D01*
X106892857Y-117602143D02*
X106940476Y-117649762D01*
X107083333Y-117697381D01*
X107178571Y-117697381D01*
X107321429Y-117649762D01*
X107416667Y-117554524D01*
X107464286Y-117459286D01*
X107511905Y-117268810D01*
X107511905Y-117125952D01*
X107464286Y-116935476D01*
X107416667Y-116840238D01*
X107321429Y-116745000D01*
X107178571Y-116697381D01*
X107083333Y-116697381D01*
X106940476Y-116745000D01*
X106892857Y-116792619D01*
X106035714Y-117030714D02*
X106035714Y-117697381D01*
X106273810Y-116649762D02*
X106511905Y-117364048D01*
X105892857Y-117364048D01*
X105464286Y-117697381D02*
X105273810Y-117697381D01*
X105178571Y-117649762D01*
X105130952Y-117602143D01*
X105035714Y-117459286D01*
X104988095Y-117268810D01*
X104988095Y-116887857D01*
X105035714Y-116792619D01*
X105083333Y-116745000D01*
X105178571Y-116697381D01*
X105369048Y-116697381D01*
X105464286Y-116745000D01*
X105511905Y-116792619D01*
X105559524Y-116887857D01*
X105559524Y-117125952D01*
X105511905Y-117221190D01*
X105464286Y-117268810D01*
X105369048Y-117316429D01*
X105178571Y-117316429D01*
X105083333Y-117268810D01*
X105035714Y-117221190D01*
X104988095Y-117125952D01*
X119260857Y-117197143D02*
X119308476Y-117244762D01*
X119451333Y-117292381D01*
X119546571Y-117292381D01*
X119689429Y-117244762D01*
X119784667Y-117149524D01*
X119832286Y-117054286D01*
X119879905Y-116863810D01*
X119879905Y-116720952D01*
X119832286Y-116530476D01*
X119784667Y-116435238D01*
X119689429Y-116340000D01*
X119546571Y-116292381D01*
X119451333Y-116292381D01*
X119308476Y-116340000D01*
X119260857Y-116387619D01*
X118356095Y-116292381D02*
X118832286Y-116292381D01*
X118879905Y-116768571D01*
X118832286Y-116720952D01*
X118737048Y-116673333D01*
X118498952Y-116673333D01*
X118403714Y-116720952D01*
X118356095Y-116768571D01*
X118308476Y-116863810D01*
X118308476Y-117101905D01*
X118356095Y-117197143D01*
X118403714Y-117244762D01*
X118498952Y-117292381D01*
X118737048Y-117292381D01*
X118832286Y-117244762D01*
X118879905Y-117197143D01*
X117689429Y-116292381D02*
X117594190Y-116292381D01*
X117498952Y-116340000D01*
X117451333Y-116387619D01*
X117403714Y-116482857D01*
X117356095Y-116673333D01*
X117356095Y-116911429D01*
X117403714Y-117101905D01*
X117451333Y-117197143D01*
X117498952Y-117244762D01*
X117594190Y-117292381D01*
X117689429Y-117292381D01*
X117784667Y-117244762D01*
X117832286Y-117197143D01*
X117879905Y-117101905D01*
X117927524Y-116911429D01*
X117927524Y-116673333D01*
X117879905Y-116482857D01*
X117832286Y-116387619D01*
X117784667Y-116340000D01*
X117689429Y-116292381D01*
X121292857Y-105005143D02*
X121340476Y-105052762D01*
X121483333Y-105100381D01*
X121578571Y-105100381D01*
X121721429Y-105052762D01*
X121816667Y-104957524D01*
X121864286Y-104862286D01*
X121911905Y-104671810D01*
X121911905Y-104528952D01*
X121864286Y-104338476D01*
X121816667Y-104243238D01*
X121721429Y-104148000D01*
X121578571Y-104100381D01*
X121483333Y-104100381D01*
X121340476Y-104148000D01*
X121292857Y-104195619D01*
X120388095Y-104100381D02*
X120864286Y-104100381D01*
X120911905Y-104576571D01*
X120864286Y-104528952D01*
X120769048Y-104481333D01*
X120530952Y-104481333D01*
X120435714Y-104528952D01*
X120388095Y-104576571D01*
X120340476Y-104671810D01*
X120340476Y-104909905D01*
X120388095Y-105005143D01*
X120435714Y-105052762D01*
X120530952Y-105100381D01*
X120769048Y-105100381D01*
X120864286Y-105052762D01*
X120911905Y-105005143D01*
X119388095Y-105100381D02*
X119959524Y-105100381D01*
X119673810Y-105100381D02*
X119673810Y-104100381D01*
X119769048Y-104243238D01*
X119864286Y-104338476D01*
X119959524Y-104386095D01*
X142392857Y-118607143D02*
X142440476Y-118654762D01*
X142583333Y-118702381D01*
X142678571Y-118702381D01*
X142821429Y-118654762D01*
X142916667Y-118559524D01*
X142964286Y-118464286D01*
X143011905Y-118273810D01*
X143011905Y-118130952D01*
X142964286Y-117940476D01*
X142916667Y-117845238D01*
X142821429Y-117750000D01*
X142678571Y-117702381D01*
X142583333Y-117702381D01*
X142440476Y-117750000D01*
X142392857Y-117797619D01*
X141535714Y-117702381D02*
X141726191Y-117702381D01*
X141821429Y-117750000D01*
X141869048Y-117797619D01*
X141964286Y-117940476D01*
X142011905Y-118130952D01*
X142011905Y-118511905D01*
X141964286Y-118607143D01*
X141916667Y-118654762D01*
X141821429Y-118702381D01*
X141630952Y-118702381D01*
X141535714Y-118654762D01*
X141488095Y-118607143D01*
X141440476Y-118511905D01*
X141440476Y-118273810D01*
X141488095Y-118178571D01*
X141535714Y-118130952D01*
X141630952Y-118083333D01*
X141821429Y-118083333D01*
X141916667Y-118130952D01*
X141964286Y-118178571D01*
X142011905Y-118273810D01*
X140964286Y-118702381D02*
X140773810Y-118702381D01*
X140678571Y-118654762D01*
X140630952Y-118607143D01*
X140535714Y-118464286D01*
X140488095Y-118273810D01*
X140488095Y-117892857D01*
X140535714Y-117797619D01*
X140583333Y-117750000D01*
X140678571Y-117702381D01*
X140869048Y-117702381D01*
X140964286Y-117750000D01*
X141011905Y-117797619D01*
X141059524Y-117892857D01*
X141059524Y-118130952D01*
X141011905Y-118226190D01*
X140964286Y-118273810D01*
X140869048Y-118321429D01*
X140678571Y-118321429D01*
X140583333Y-118273810D01*
X140535714Y-118226190D01*
X140488095Y-118130952D01*
X88257143Y-93852143D02*
X88304762Y-93804524D01*
X88352381Y-93661667D01*
X88352381Y-93566429D01*
X88304762Y-93423571D01*
X88209524Y-93328333D01*
X88114286Y-93280714D01*
X87923810Y-93233095D01*
X87780952Y-93233095D01*
X87590476Y-93280714D01*
X87495238Y-93328333D01*
X87400000Y-93423571D01*
X87352381Y-93566429D01*
X87352381Y-93661667D01*
X87400000Y-93804524D01*
X87447619Y-93852143D01*
X87352381Y-94185476D02*
X87352381Y-94852143D01*
X88352381Y-94423571D01*
X87352381Y-95423571D02*
X87352381Y-95518810D01*
X87400000Y-95614048D01*
X87447619Y-95661667D01*
X87542857Y-95709286D01*
X87733333Y-95756905D01*
X87971429Y-95756905D01*
X88161905Y-95709286D01*
X88257143Y-95661667D01*
X88304762Y-95614048D01*
X88352381Y-95518810D01*
X88352381Y-95423571D01*
X88304762Y-95328333D01*
X88257143Y-95280714D01*
X88161905Y-95233095D01*
X87971429Y-95185476D01*
X87733333Y-95185476D01*
X87542857Y-95233095D01*
X87447619Y-95280714D01*
X87400000Y-95328333D01*
X87352381Y-95423571D01*
X130642857Y-118107143D02*
X130690476Y-118154762D01*
X130833333Y-118202381D01*
X130928571Y-118202381D01*
X131071429Y-118154762D01*
X131166667Y-118059524D01*
X131214286Y-117964286D01*
X131261905Y-117773810D01*
X131261905Y-117630952D01*
X131214286Y-117440476D01*
X131166667Y-117345238D01*
X131071429Y-117250000D01*
X130928571Y-117202381D01*
X130833333Y-117202381D01*
X130690476Y-117250000D01*
X130642857Y-117297619D01*
X130309524Y-117202381D02*
X129642857Y-117202381D01*
X130071429Y-118202381D01*
X128738095Y-118202381D02*
X129309524Y-118202381D01*
X129023810Y-118202381D02*
X129023810Y-117202381D01*
X129119048Y-117345238D01*
X129214286Y-117440476D01*
X129309524Y-117488095D01*
X88257143Y-98602143D02*
X88304762Y-98554524D01*
X88352381Y-98411667D01*
X88352381Y-98316429D01*
X88304762Y-98173571D01*
X88209524Y-98078333D01*
X88114286Y-98030714D01*
X87923810Y-97983095D01*
X87780952Y-97983095D01*
X87590476Y-98030714D01*
X87495238Y-98078333D01*
X87400000Y-98173571D01*
X87352381Y-98316429D01*
X87352381Y-98411667D01*
X87400000Y-98554524D01*
X87447619Y-98602143D01*
X87352381Y-98935476D02*
X87352381Y-99602143D01*
X88352381Y-99173571D01*
X87447619Y-99935476D02*
X87400000Y-99983095D01*
X87352381Y-100078333D01*
X87352381Y-100316429D01*
X87400000Y-100411667D01*
X87447619Y-100459286D01*
X87542857Y-100506905D01*
X87638095Y-100506905D01*
X87780952Y-100459286D01*
X88352381Y-99887857D01*
X88352381Y-100506905D01*
X114180857Y-81637143D02*
X114228476Y-81684762D01*
X114371333Y-81732381D01*
X114466571Y-81732381D01*
X114609429Y-81684762D01*
X114704667Y-81589524D01*
X114752286Y-81494286D01*
X114799905Y-81303810D01*
X114799905Y-81160952D01*
X114752286Y-80970476D01*
X114704667Y-80875238D01*
X114609429Y-80780000D01*
X114466571Y-80732381D01*
X114371333Y-80732381D01*
X114228476Y-80780000D01*
X114180857Y-80827619D01*
X113609429Y-81160952D02*
X113704667Y-81113333D01*
X113752286Y-81065714D01*
X113799905Y-80970476D01*
X113799905Y-80922857D01*
X113752286Y-80827619D01*
X113704667Y-80780000D01*
X113609429Y-80732381D01*
X113418952Y-80732381D01*
X113323714Y-80780000D01*
X113276095Y-80827619D01*
X113228476Y-80922857D01*
X113228476Y-80970476D01*
X113276095Y-81065714D01*
X113323714Y-81113333D01*
X113418952Y-81160952D01*
X113609429Y-81160952D01*
X113704667Y-81208571D01*
X113752286Y-81256190D01*
X113799905Y-81351429D01*
X113799905Y-81541905D01*
X113752286Y-81637143D01*
X113704667Y-81684762D01*
X113609429Y-81732381D01*
X113418952Y-81732381D01*
X113323714Y-81684762D01*
X113276095Y-81637143D01*
X113228476Y-81541905D01*
X113228476Y-81351429D01*
X113276095Y-81256190D01*
X113323714Y-81208571D01*
X113418952Y-81160952D01*
X112847524Y-80827619D02*
X112799905Y-80780000D01*
X112704667Y-80732381D01*
X112466571Y-80732381D01*
X112371333Y-80780000D01*
X112323714Y-80827619D01*
X112276095Y-80922857D01*
X112276095Y-81018095D01*
X112323714Y-81160952D01*
X112895143Y-81732381D01*
X112276095Y-81732381D01*
X88692857Y-76507143D02*
X88740476Y-76554762D01*
X88883333Y-76602381D01*
X88978571Y-76602381D01*
X89121429Y-76554762D01*
X89216667Y-76459524D01*
X89264286Y-76364286D01*
X89311905Y-76173810D01*
X89311905Y-76030952D01*
X89264286Y-75840476D01*
X89216667Y-75745238D01*
X89121429Y-75650000D01*
X88978571Y-75602381D01*
X88883333Y-75602381D01*
X88740476Y-75650000D01*
X88692857Y-75697619D01*
X88121429Y-76030952D02*
X88216667Y-75983333D01*
X88264286Y-75935714D01*
X88311905Y-75840476D01*
X88311905Y-75792857D01*
X88264286Y-75697619D01*
X88216667Y-75650000D01*
X88121429Y-75602381D01*
X87930952Y-75602381D01*
X87835714Y-75650000D01*
X87788095Y-75697619D01*
X87740476Y-75792857D01*
X87740476Y-75840476D01*
X87788095Y-75935714D01*
X87835714Y-75983333D01*
X87930952Y-76030952D01*
X88121429Y-76030952D01*
X88216667Y-76078571D01*
X88264286Y-76126190D01*
X88311905Y-76221429D01*
X88311905Y-76411905D01*
X88264286Y-76507143D01*
X88216667Y-76554762D01*
X88121429Y-76602381D01*
X87930952Y-76602381D01*
X87835714Y-76554762D01*
X87788095Y-76507143D01*
X87740476Y-76411905D01*
X87740476Y-76221429D01*
X87788095Y-76126190D01*
X87835714Y-76078571D01*
X87930952Y-76030952D01*
X87407143Y-75602381D02*
X86788095Y-75602381D01*
X87121429Y-75983333D01*
X86978571Y-75983333D01*
X86883333Y-76030952D01*
X86835714Y-76078571D01*
X86788095Y-76173810D01*
X86788095Y-76411905D01*
X86835714Y-76507143D01*
X86883333Y-76554762D01*
X86978571Y-76602381D01*
X87264286Y-76602381D01*
X87359524Y-76554762D01*
X87407143Y-76507143D01*
X89892857Y-68207143D02*
X89940476Y-68254762D01*
X90083333Y-68302381D01*
X90178571Y-68302381D01*
X90321429Y-68254762D01*
X90416667Y-68159524D01*
X90464286Y-68064286D01*
X90511905Y-67873810D01*
X90511905Y-67730952D01*
X90464286Y-67540476D01*
X90416667Y-67445238D01*
X90321429Y-67350000D01*
X90178571Y-67302381D01*
X90083333Y-67302381D01*
X89940476Y-67350000D01*
X89892857Y-67397619D01*
X89321429Y-67730952D02*
X89416667Y-67683333D01*
X89464286Y-67635714D01*
X89511905Y-67540476D01*
X89511905Y-67492857D01*
X89464286Y-67397619D01*
X89416667Y-67350000D01*
X89321429Y-67302381D01*
X89130952Y-67302381D01*
X89035714Y-67350000D01*
X88988095Y-67397619D01*
X88940476Y-67492857D01*
X88940476Y-67540476D01*
X88988095Y-67635714D01*
X89035714Y-67683333D01*
X89130952Y-67730952D01*
X89321429Y-67730952D01*
X89416667Y-67778571D01*
X89464286Y-67826190D01*
X89511905Y-67921429D01*
X89511905Y-68111905D01*
X89464286Y-68207143D01*
X89416667Y-68254762D01*
X89321429Y-68302381D01*
X89130952Y-68302381D01*
X89035714Y-68254762D01*
X88988095Y-68207143D01*
X88940476Y-68111905D01*
X88940476Y-67921429D01*
X88988095Y-67826190D01*
X89035714Y-67778571D01*
X89130952Y-67730952D01*
X88083333Y-67635714D02*
X88083333Y-68302381D01*
X88321429Y-67254762D02*
X88559524Y-67969048D01*
X87940476Y-67969048D01*
X93352857Y-66143143D02*
X93400476Y-66190762D01*
X93543333Y-66238381D01*
X93638571Y-66238381D01*
X93781429Y-66190762D01*
X93876667Y-66095524D01*
X93924286Y-66000286D01*
X93971905Y-65809810D01*
X93971905Y-65666952D01*
X93924286Y-65476476D01*
X93876667Y-65381238D01*
X93781429Y-65286000D01*
X93638571Y-65238381D01*
X93543333Y-65238381D01*
X93400476Y-65286000D01*
X93352857Y-65333619D01*
X92781429Y-65666952D02*
X92876667Y-65619333D01*
X92924286Y-65571714D01*
X92971905Y-65476476D01*
X92971905Y-65428857D01*
X92924286Y-65333619D01*
X92876667Y-65286000D01*
X92781429Y-65238381D01*
X92590952Y-65238381D01*
X92495714Y-65286000D01*
X92448095Y-65333619D01*
X92400476Y-65428857D01*
X92400476Y-65476476D01*
X92448095Y-65571714D01*
X92495714Y-65619333D01*
X92590952Y-65666952D01*
X92781429Y-65666952D01*
X92876667Y-65714571D01*
X92924286Y-65762190D01*
X92971905Y-65857429D01*
X92971905Y-66047905D01*
X92924286Y-66143143D01*
X92876667Y-66190762D01*
X92781429Y-66238381D01*
X92590952Y-66238381D01*
X92495714Y-66190762D01*
X92448095Y-66143143D01*
X92400476Y-66047905D01*
X92400476Y-65857429D01*
X92448095Y-65762190D01*
X92495714Y-65714571D01*
X92590952Y-65666952D01*
X91495714Y-65238381D02*
X91971905Y-65238381D01*
X92019524Y-65714571D01*
X91971905Y-65666952D01*
X91876667Y-65619333D01*
X91638571Y-65619333D01*
X91543333Y-65666952D01*
X91495714Y-65714571D01*
X91448095Y-65809810D01*
X91448095Y-66047905D01*
X91495714Y-66143143D01*
X91543333Y-66190762D01*
X91638571Y-66238381D01*
X91876667Y-66238381D01*
X91971905Y-66190762D01*
X92019524Y-66143143D01*
X77350857Y-115673143D02*
X77398476Y-115720762D01*
X77541333Y-115768381D01*
X77636571Y-115768381D01*
X77779429Y-115720762D01*
X77874667Y-115625524D01*
X77922286Y-115530286D01*
X77969905Y-115339810D01*
X77969905Y-115196952D01*
X77922286Y-115006476D01*
X77874667Y-114911238D01*
X77779429Y-114816000D01*
X77636571Y-114768381D01*
X77541333Y-114768381D01*
X77398476Y-114816000D01*
X77350857Y-114863619D01*
X76779429Y-115196952D02*
X76874667Y-115149333D01*
X76922286Y-115101714D01*
X76969905Y-115006476D01*
X76969905Y-114958857D01*
X76922286Y-114863619D01*
X76874667Y-114816000D01*
X76779429Y-114768381D01*
X76588952Y-114768381D01*
X76493714Y-114816000D01*
X76446095Y-114863619D01*
X76398476Y-114958857D01*
X76398476Y-115006476D01*
X76446095Y-115101714D01*
X76493714Y-115149333D01*
X76588952Y-115196952D01*
X76779429Y-115196952D01*
X76874667Y-115244571D01*
X76922286Y-115292190D01*
X76969905Y-115387429D01*
X76969905Y-115577905D01*
X76922286Y-115673143D01*
X76874667Y-115720762D01*
X76779429Y-115768381D01*
X76588952Y-115768381D01*
X76493714Y-115720762D01*
X76446095Y-115673143D01*
X76398476Y-115577905D01*
X76398476Y-115387429D01*
X76446095Y-115292190D01*
X76493714Y-115244571D01*
X76588952Y-115196952D01*
X75541333Y-114768381D02*
X75731810Y-114768381D01*
X75827048Y-114816000D01*
X75874667Y-114863619D01*
X75969905Y-115006476D01*
X76017524Y-115196952D01*
X76017524Y-115577905D01*
X75969905Y-115673143D01*
X75922286Y-115720762D01*
X75827048Y-115768381D01*
X75636571Y-115768381D01*
X75541333Y-115720762D01*
X75493714Y-115673143D01*
X75446095Y-115577905D01*
X75446095Y-115339810D01*
X75493714Y-115244571D01*
X75541333Y-115196952D01*
X75636571Y-115149333D01*
X75827048Y-115149333D01*
X75922286Y-115196952D01*
X75969905Y-115244571D01*
X76017524Y-115339810D01*
X93606857Y-115673143D02*
X93654476Y-115720762D01*
X93797333Y-115768381D01*
X93892571Y-115768381D01*
X94035429Y-115720762D01*
X94130667Y-115625524D01*
X94178286Y-115530286D01*
X94225905Y-115339810D01*
X94225905Y-115196952D01*
X94178286Y-115006476D01*
X94130667Y-114911238D01*
X94035429Y-114816000D01*
X93892571Y-114768381D01*
X93797333Y-114768381D01*
X93654476Y-114816000D01*
X93606857Y-114863619D01*
X93035429Y-115196952D02*
X93130667Y-115149333D01*
X93178286Y-115101714D01*
X93225905Y-115006476D01*
X93225905Y-114958857D01*
X93178286Y-114863619D01*
X93130667Y-114816000D01*
X93035429Y-114768381D01*
X92844952Y-114768381D01*
X92749714Y-114816000D01*
X92702095Y-114863619D01*
X92654476Y-114958857D01*
X92654476Y-115006476D01*
X92702095Y-115101714D01*
X92749714Y-115149333D01*
X92844952Y-115196952D01*
X93035429Y-115196952D01*
X93130667Y-115244571D01*
X93178286Y-115292190D01*
X93225905Y-115387429D01*
X93225905Y-115577905D01*
X93178286Y-115673143D01*
X93130667Y-115720762D01*
X93035429Y-115768381D01*
X92844952Y-115768381D01*
X92749714Y-115720762D01*
X92702095Y-115673143D01*
X92654476Y-115577905D01*
X92654476Y-115387429D01*
X92702095Y-115292190D01*
X92749714Y-115244571D01*
X92844952Y-115196952D01*
X92321143Y-114768381D02*
X91654476Y-114768381D01*
X92083048Y-115768381D01*
X74842857Y-142482143D02*
X74890476Y-142529762D01*
X75033333Y-142577381D01*
X75128571Y-142577381D01*
X75271429Y-142529762D01*
X75366667Y-142434524D01*
X75414286Y-142339286D01*
X75461905Y-142148810D01*
X75461905Y-142005952D01*
X75414286Y-141815476D01*
X75366667Y-141720238D01*
X75271429Y-141625000D01*
X75128571Y-141577381D01*
X75033333Y-141577381D01*
X74890476Y-141625000D01*
X74842857Y-141672619D01*
X74271429Y-142005952D02*
X74366667Y-141958333D01*
X74414286Y-141910714D01*
X74461905Y-141815476D01*
X74461905Y-141767857D01*
X74414286Y-141672619D01*
X74366667Y-141625000D01*
X74271429Y-141577381D01*
X74080952Y-141577381D01*
X73985714Y-141625000D01*
X73938095Y-141672619D01*
X73890476Y-141767857D01*
X73890476Y-141815476D01*
X73938095Y-141910714D01*
X73985714Y-141958333D01*
X74080952Y-142005952D01*
X74271429Y-142005952D01*
X74366667Y-142053571D01*
X74414286Y-142101190D01*
X74461905Y-142196429D01*
X74461905Y-142386905D01*
X74414286Y-142482143D01*
X74366667Y-142529762D01*
X74271429Y-142577381D01*
X74080952Y-142577381D01*
X73985714Y-142529762D01*
X73938095Y-142482143D01*
X73890476Y-142386905D01*
X73890476Y-142196429D01*
X73938095Y-142101190D01*
X73985714Y-142053571D01*
X74080952Y-142005952D01*
X73319048Y-142005952D02*
X73414286Y-141958333D01*
X73461905Y-141910714D01*
X73509524Y-141815476D01*
X73509524Y-141767857D01*
X73461905Y-141672619D01*
X73414286Y-141625000D01*
X73319048Y-141577381D01*
X73128571Y-141577381D01*
X73033333Y-141625000D01*
X72985714Y-141672619D01*
X72938095Y-141767857D01*
X72938095Y-141815476D01*
X72985714Y-141910714D01*
X73033333Y-141958333D01*
X73128571Y-142005952D01*
X73319048Y-142005952D01*
X73414286Y-142053571D01*
X73461905Y-142101190D01*
X73509524Y-142196429D01*
X73509524Y-142386905D01*
X73461905Y-142482143D01*
X73414286Y-142529762D01*
X73319048Y-142577381D01*
X73128571Y-142577381D01*
X73033333Y-142529762D01*
X72985714Y-142482143D01*
X72938095Y-142386905D01*
X72938095Y-142196429D01*
X72985714Y-142101190D01*
X73033333Y-142053571D01*
X73128571Y-142005952D01*
X136392857Y-112857143D02*
X136440476Y-112904762D01*
X136583333Y-112952381D01*
X136678571Y-112952381D01*
X136821429Y-112904762D01*
X136916667Y-112809524D01*
X136964286Y-112714286D01*
X137011905Y-112523810D01*
X137011905Y-112380952D01*
X136964286Y-112190476D01*
X136916667Y-112095238D01*
X136821429Y-112000000D01*
X136678571Y-111952381D01*
X136583333Y-111952381D01*
X136440476Y-112000000D01*
X136392857Y-112047619D01*
X135916667Y-112952381D02*
X135726191Y-112952381D01*
X135630952Y-112904762D01*
X135583333Y-112857143D01*
X135488095Y-112714286D01*
X135440476Y-112523810D01*
X135440476Y-112142857D01*
X135488095Y-112047619D01*
X135535714Y-112000000D01*
X135630952Y-111952381D01*
X135821429Y-111952381D01*
X135916667Y-112000000D01*
X135964286Y-112047619D01*
X136011905Y-112142857D01*
X136011905Y-112380952D01*
X135964286Y-112476190D01*
X135916667Y-112523810D01*
X135821429Y-112571429D01*
X135630952Y-112571429D01*
X135535714Y-112523810D01*
X135488095Y-112476190D01*
X135440476Y-112380952D01*
X135059524Y-112047619D02*
X135011905Y-112000000D01*
X134916667Y-111952381D01*
X134678571Y-111952381D01*
X134583333Y-112000000D01*
X134535714Y-112047619D01*
X134488095Y-112142857D01*
X134488095Y-112238095D01*
X134535714Y-112380952D01*
X135107143Y-112952381D01*
X134488095Y-112952381D01*
X83446857Y-91797143D02*
X83494476Y-91844762D01*
X83637333Y-91892381D01*
X83732571Y-91892381D01*
X83875429Y-91844762D01*
X83970667Y-91749524D01*
X84018286Y-91654286D01*
X84065905Y-91463810D01*
X84065905Y-91320952D01*
X84018286Y-91130476D01*
X83970667Y-91035238D01*
X83875429Y-90940000D01*
X83732571Y-90892381D01*
X83637333Y-90892381D01*
X83494476Y-90940000D01*
X83446857Y-90987619D01*
X82970667Y-91892381D02*
X82780191Y-91892381D01*
X82684952Y-91844762D01*
X82637333Y-91797143D01*
X82542095Y-91654286D01*
X82494476Y-91463810D01*
X82494476Y-91082857D01*
X82542095Y-90987619D01*
X82589714Y-90940000D01*
X82684952Y-90892381D01*
X82875429Y-90892381D01*
X82970667Y-90940000D01*
X83018286Y-90987619D01*
X83065905Y-91082857D01*
X83065905Y-91320952D01*
X83018286Y-91416190D01*
X82970667Y-91463810D01*
X82875429Y-91511429D01*
X82684952Y-91511429D01*
X82589714Y-91463810D01*
X82542095Y-91416190D01*
X82494476Y-91320952D01*
X81589714Y-90892381D02*
X82065905Y-90892381D01*
X82113524Y-91368571D01*
X82065905Y-91320952D01*
X81970667Y-91273333D01*
X81732571Y-91273333D01*
X81637333Y-91320952D01*
X81589714Y-91368571D01*
X81542095Y-91463810D01*
X81542095Y-91701905D01*
X81589714Y-91797143D01*
X81637333Y-91844762D01*
X81732571Y-91892381D01*
X81970667Y-91892381D01*
X82065905Y-91844762D01*
X82113524Y-91797143D01*
X83107143Y-97102143D02*
X83154762Y-97054524D01*
X83202381Y-96911667D01*
X83202381Y-96816429D01*
X83154762Y-96673571D01*
X83059524Y-96578333D01*
X82964286Y-96530714D01*
X82773810Y-96483095D01*
X82630952Y-96483095D01*
X82440476Y-96530714D01*
X82345238Y-96578333D01*
X82250000Y-96673571D01*
X82202381Y-96816429D01*
X82202381Y-96911667D01*
X82250000Y-97054524D01*
X82297619Y-97102143D01*
X83202381Y-97578333D02*
X83202381Y-97768809D01*
X83154762Y-97864048D01*
X83107143Y-97911667D01*
X82964286Y-98006905D01*
X82773810Y-98054524D01*
X82392857Y-98054524D01*
X82297619Y-98006905D01*
X82250000Y-97959286D01*
X82202381Y-97864048D01*
X82202381Y-97673571D01*
X82250000Y-97578333D01*
X82297619Y-97530714D01*
X82392857Y-97483095D01*
X82630952Y-97483095D01*
X82726190Y-97530714D01*
X82773810Y-97578333D01*
X82821429Y-97673571D01*
X82821429Y-97864048D01*
X82773810Y-97959286D01*
X82726190Y-98006905D01*
X82630952Y-98054524D01*
X82202381Y-98911667D02*
X82202381Y-98721190D01*
X82250000Y-98625952D01*
X82297619Y-98578333D01*
X82440476Y-98483095D01*
X82630952Y-98435476D01*
X83011905Y-98435476D01*
X83107143Y-98483095D01*
X83154762Y-98530714D01*
X83202381Y-98625952D01*
X83202381Y-98816429D01*
X83154762Y-98911667D01*
X83107143Y-98959286D01*
X83011905Y-99006905D01*
X82773810Y-99006905D01*
X82678571Y-98959286D01*
X82630952Y-98911667D01*
X82583333Y-98816429D01*
X82583333Y-98625952D01*
X82630952Y-98530714D01*
X82678571Y-98483095D01*
X82773810Y-98435476D01*
X162142857Y-59857143D02*
X162190476Y-59904762D01*
X162333333Y-59952381D01*
X162428571Y-59952381D01*
X162571429Y-59904762D01*
X162666667Y-59809524D01*
X162714286Y-59714286D01*
X162761905Y-59523810D01*
X162761905Y-59380952D01*
X162714286Y-59190476D01*
X162666667Y-59095238D01*
X162571429Y-59000000D01*
X162428571Y-58952381D01*
X162333333Y-58952381D01*
X162190476Y-59000000D01*
X162142857Y-59047619D01*
X161666667Y-59952381D02*
X161476191Y-59952381D01*
X161380952Y-59904762D01*
X161333333Y-59857143D01*
X161238095Y-59714286D01*
X161190476Y-59523810D01*
X161190476Y-59142857D01*
X161238095Y-59047619D01*
X161285714Y-59000000D01*
X161380952Y-58952381D01*
X161571429Y-58952381D01*
X161666667Y-59000000D01*
X161714286Y-59047619D01*
X161761905Y-59142857D01*
X161761905Y-59380952D01*
X161714286Y-59476190D01*
X161666667Y-59523810D01*
X161571429Y-59571429D01*
X161380952Y-59571429D01*
X161285714Y-59523810D01*
X161238095Y-59476190D01*
X161190476Y-59380952D01*
X160714286Y-59952381D02*
X160523810Y-59952381D01*
X160428571Y-59904762D01*
X160380952Y-59857143D01*
X160285714Y-59714286D01*
X160238095Y-59523810D01*
X160238095Y-59142857D01*
X160285714Y-59047619D01*
X160333333Y-59000000D01*
X160428571Y-58952381D01*
X160619048Y-58952381D01*
X160714286Y-59000000D01*
X160761905Y-59047619D01*
X160809524Y-59142857D01*
X160809524Y-59380952D01*
X160761905Y-59476190D01*
X160714286Y-59523810D01*
X160619048Y-59571429D01*
X160428571Y-59571429D01*
X160333333Y-59523810D01*
X160285714Y-59476190D01*
X160238095Y-59380952D01*
X159488047Y-66143143D02*
X159535666Y-66190762D01*
X159678523Y-66238381D01*
X159773761Y-66238381D01*
X159916619Y-66190762D01*
X160011857Y-66095524D01*
X160059476Y-66000286D01*
X160107095Y-65809810D01*
X160107095Y-65666952D01*
X160059476Y-65476476D01*
X160011857Y-65381238D01*
X159916619Y-65286000D01*
X159773761Y-65238381D01*
X159678523Y-65238381D01*
X159535666Y-65286000D01*
X159488047Y-65333619D01*
X158535666Y-66238381D02*
X159107095Y-66238381D01*
X158821381Y-66238381D02*
X158821381Y-65238381D01*
X158916619Y-65381238D01*
X159011857Y-65476476D01*
X159107095Y-65524095D01*
X157916619Y-65238381D02*
X157821380Y-65238381D01*
X157726142Y-65286000D01*
X157678523Y-65333619D01*
X157630904Y-65428857D01*
X157583285Y-65619333D01*
X157583285Y-65857429D01*
X157630904Y-66047905D01*
X157678523Y-66143143D01*
X157726142Y-66190762D01*
X157821380Y-66238381D01*
X157916619Y-66238381D01*
X158011857Y-66190762D01*
X158059476Y-66143143D01*
X158107095Y-66047905D01*
X158154714Y-65857429D01*
X158154714Y-65619333D01*
X158107095Y-65428857D01*
X158059476Y-65333619D01*
X158011857Y-65286000D01*
X157916619Y-65238381D01*
X156964238Y-65238381D02*
X156868999Y-65238381D01*
X156773761Y-65286000D01*
X156726142Y-65333619D01*
X156678523Y-65428857D01*
X156630904Y-65619333D01*
X156630904Y-65857429D01*
X156678523Y-66047905D01*
X156726142Y-66143143D01*
X156773761Y-66190762D01*
X156868999Y-66238381D01*
X156964238Y-66238381D01*
X157059476Y-66190762D01*
X157107095Y-66143143D01*
X157154714Y-66047905D01*
X157202333Y-65857429D01*
X157202333Y-65619333D01*
X157154714Y-65428857D01*
X157107095Y-65333619D01*
X157059476Y-65286000D01*
X156964238Y-65238381D01*
X154869047Y-59857143D02*
X154916666Y-59904762D01*
X155059523Y-59952381D01*
X155154761Y-59952381D01*
X155297619Y-59904762D01*
X155392857Y-59809524D01*
X155440476Y-59714286D01*
X155488095Y-59523810D01*
X155488095Y-59380952D01*
X155440476Y-59190476D01*
X155392857Y-59095238D01*
X155297619Y-59000000D01*
X155154761Y-58952381D01*
X155059523Y-58952381D01*
X154916666Y-59000000D01*
X154869047Y-59047619D01*
X153916666Y-59952381D02*
X154488095Y-59952381D01*
X154202381Y-59952381D02*
X154202381Y-58952381D01*
X154297619Y-59095238D01*
X154392857Y-59190476D01*
X154488095Y-59238095D01*
X153297619Y-58952381D02*
X153202380Y-58952381D01*
X153107142Y-59000000D01*
X153059523Y-59047619D01*
X153011904Y-59142857D01*
X152964285Y-59333333D01*
X152964285Y-59571429D01*
X153011904Y-59761905D01*
X153059523Y-59857143D01*
X153107142Y-59904762D01*
X153202380Y-59952381D01*
X153297619Y-59952381D01*
X153392857Y-59904762D01*
X153440476Y-59857143D01*
X153488095Y-59761905D01*
X153535714Y-59571429D01*
X153535714Y-59333333D01*
X153488095Y-59142857D01*
X153440476Y-59047619D01*
X153392857Y-59000000D01*
X153297619Y-58952381D01*
X152011904Y-59952381D02*
X152583333Y-59952381D01*
X152297619Y-59952381D02*
X152297619Y-58952381D01*
X152392857Y-59095238D01*
X152488095Y-59190476D01*
X152583333Y-59238095D01*
X151487047Y-66143143D02*
X151534666Y-66190762D01*
X151677523Y-66238381D01*
X151772761Y-66238381D01*
X151915619Y-66190762D01*
X152010857Y-66095524D01*
X152058476Y-66000286D01*
X152106095Y-65809810D01*
X152106095Y-65666952D01*
X152058476Y-65476476D01*
X152010857Y-65381238D01*
X151915619Y-65286000D01*
X151772761Y-65238381D01*
X151677523Y-65238381D01*
X151534666Y-65286000D01*
X151487047Y-65333619D01*
X150534666Y-66238381D02*
X151106095Y-66238381D01*
X150820381Y-66238381D02*
X150820381Y-65238381D01*
X150915619Y-65381238D01*
X151010857Y-65476476D01*
X151106095Y-65524095D01*
X149915619Y-65238381D02*
X149820380Y-65238381D01*
X149725142Y-65286000D01*
X149677523Y-65333619D01*
X149629904Y-65428857D01*
X149582285Y-65619333D01*
X149582285Y-65857429D01*
X149629904Y-66047905D01*
X149677523Y-66143143D01*
X149725142Y-66190762D01*
X149820380Y-66238381D01*
X149915619Y-66238381D01*
X150010857Y-66190762D01*
X150058476Y-66143143D01*
X150106095Y-66047905D01*
X150153714Y-65857429D01*
X150153714Y-65619333D01*
X150106095Y-65428857D01*
X150058476Y-65333619D01*
X150010857Y-65286000D01*
X149915619Y-65238381D01*
X149201333Y-65333619D02*
X149153714Y-65286000D01*
X149058476Y-65238381D01*
X148820380Y-65238381D01*
X148725142Y-65286000D01*
X148677523Y-65333619D01*
X148629904Y-65428857D01*
X148629904Y-65524095D01*
X148677523Y-65666952D01*
X149248952Y-66238381D01*
X148629904Y-66238381D01*
X146869047Y-59857143D02*
X146916666Y-59904762D01*
X147059523Y-59952381D01*
X147154761Y-59952381D01*
X147297619Y-59904762D01*
X147392857Y-59809524D01*
X147440476Y-59714286D01*
X147488095Y-59523810D01*
X147488095Y-59380952D01*
X147440476Y-59190476D01*
X147392857Y-59095238D01*
X147297619Y-59000000D01*
X147154761Y-58952381D01*
X147059523Y-58952381D01*
X146916666Y-59000000D01*
X146869047Y-59047619D01*
X145916666Y-59952381D02*
X146488095Y-59952381D01*
X146202381Y-59952381D02*
X146202381Y-58952381D01*
X146297619Y-59095238D01*
X146392857Y-59190476D01*
X146488095Y-59238095D01*
X145297619Y-58952381D02*
X145202380Y-58952381D01*
X145107142Y-59000000D01*
X145059523Y-59047619D01*
X145011904Y-59142857D01*
X144964285Y-59333333D01*
X144964285Y-59571429D01*
X145011904Y-59761905D01*
X145059523Y-59857143D01*
X145107142Y-59904762D01*
X145202380Y-59952381D01*
X145297619Y-59952381D01*
X145392857Y-59904762D01*
X145440476Y-59857143D01*
X145488095Y-59761905D01*
X145535714Y-59571429D01*
X145535714Y-59333333D01*
X145488095Y-59142857D01*
X145440476Y-59047619D01*
X145392857Y-59000000D01*
X145297619Y-58952381D01*
X144630952Y-58952381D02*
X144011904Y-58952381D01*
X144345238Y-59333333D01*
X144202380Y-59333333D01*
X144107142Y-59380952D01*
X144059523Y-59428571D01*
X144011904Y-59523810D01*
X144011904Y-59761905D01*
X144059523Y-59857143D01*
X144107142Y-59904762D01*
X144202380Y-59952381D01*
X144488095Y-59952381D01*
X144583333Y-59904762D01*
X144630952Y-59857143D01*
X143359047Y-66143143D02*
X143406666Y-66190762D01*
X143549523Y-66238381D01*
X143644761Y-66238381D01*
X143787619Y-66190762D01*
X143882857Y-66095524D01*
X143930476Y-66000286D01*
X143978095Y-65809810D01*
X143978095Y-65666952D01*
X143930476Y-65476476D01*
X143882857Y-65381238D01*
X143787619Y-65286000D01*
X143644761Y-65238381D01*
X143549523Y-65238381D01*
X143406666Y-65286000D01*
X143359047Y-65333619D01*
X142406666Y-66238381D02*
X142978095Y-66238381D01*
X142692381Y-66238381D02*
X142692381Y-65238381D01*
X142787619Y-65381238D01*
X142882857Y-65476476D01*
X142978095Y-65524095D01*
X141787619Y-65238381D02*
X141692380Y-65238381D01*
X141597142Y-65286000D01*
X141549523Y-65333619D01*
X141501904Y-65428857D01*
X141454285Y-65619333D01*
X141454285Y-65857429D01*
X141501904Y-66047905D01*
X141549523Y-66143143D01*
X141597142Y-66190762D01*
X141692380Y-66238381D01*
X141787619Y-66238381D01*
X141882857Y-66190762D01*
X141930476Y-66143143D01*
X141978095Y-66047905D01*
X142025714Y-65857429D01*
X142025714Y-65619333D01*
X141978095Y-65428857D01*
X141930476Y-65333619D01*
X141882857Y-65286000D01*
X141787619Y-65238381D01*
X140597142Y-65571714D02*
X140597142Y-66238381D01*
X140835238Y-65190762D02*
X141073333Y-65905048D01*
X140454285Y-65905048D01*
X138619047Y-59857143D02*
X138666666Y-59904762D01*
X138809523Y-59952381D01*
X138904761Y-59952381D01*
X139047619Y-59904762D01*
X139142857Y-59809524D01*
X139190476Y-59714286D01*
X139238095Y-59523810D01*
X139238095Y-59380952D01*
X139190476Y-59190476D01*
X139142857Y-59095238D01*
X139047619Y-59000000D01*
X138904761Y-58952381D01*
X138809523Y-58952381D01*
X138666666Y-59000000D01*
X138619047Y-59047619D01*
X137666666Y-59952381D02*
X138238095Y-59952381D01*
X137952381Y-59952381D02*
X137952381Y-58952381D01*
X138047619Y-59095238D01*
X138142857Y-59190476D01*
X138238095Y-59238095D01*
X137047619Y-58952381D02*
X136952380Y-58952381D01*
X136857142Y-59000000D01*
X136809523Y-59047619D01*
X136761904Y-59142857D01*
X136714285Y-59333333D01*
X136714285Y-59571429D01*
X136761904Y-59761905D01*
X136809523Y-59857143D01*
X136857142Y-59904762D01*
X136952380Y-59952381D01*
X137047619Y-59952381D01*
X137142857Y-59904762D01*
X137190476Y-59857143D01*
X137238095Y-59761905D01*
X137285714Y-59571429D01*
X137285714Y-59333333D01*
X137238095Y-59142857D01*
X137190476Y-59047619D01*
X137142857Y-59000000D01*
X137047619Y-58952381D01*
X135809523Y-58952381D02*
X136285714Y-58952381D01*
X136333333Y-59428571D01*
X136285714Y-59380952D01*
X136190476Y-59333333D01*
X135952380Y-59333333D01*
X135857142Y-59380952D01*
X135809523Y-59428571D01*
X135761904Y-59523810D01*
X135761904Y-59761905D01*
X135809523Y-59857143D01*
X135857142Y-59904762D01*
X135952380Y-59952381D01*
X136190476Y-59952381D01*
X136285714Y-59904762D01*
X136333333Y-59857143D01*
X135231047Y-66143143D02*
X135278666Y-66190762D01*
X135421523Y-66238381D01*
X135516761Y-66238381D01*
X135659619Y-66190762D01*
X135754857Y-66095524D01*
X135802476Y-66000286D01*
X135850095Y-65809810D01*
X135850095Y-65666952D01*
X135802476Y-65476476D01*
X135754857Y-65381238D01*
X135659619Y-65286000D01*
X135516761Y-65238381D01*
X135421523Y-65238381D01*
X135278666Y-65286000D01*
X135231047Y-65333619D01*
X134278666Y-66238381D02*
X134850095Y-66238381D01*
X134564381Y-66238381D02*
X134564381Y-65238381D01*
X134659619Y-65381238D01*
X134754857Y-65476476D01*
X134850095Y-65524095D01*
X133659619Y-65238381D02*
X133564380Y-65238381D01*
X133469142Y-65286000D01*
X133421523Y-65333619D01*
X133373904Y-65428857D01*
X133326285Y-65619333D01*
X133326285Y-65857429D01*
X133373904Y-66047905D01*
X133421523Y-66143143D01*
X133469142Y-66190762D01*
X133564380Y-66238381D01*
X133659619Y-66238381D01*
X133754857Y-66190762D01*
X133802476Y-66143143D01*
X133850095Y-66047905D01*
X133897714Y-65857429D01*
X133897714Y-65619333D01*
X133850095Y-65428857D01*
X133802476Y-65333619D01*
X133754857Y-65286000D01*
X133659619Y-65238381D01*
X132469142Y-65238381D02*
X132659619Y-65238381D01*
X132754857Y-65286000D01*
X132802476Y-65333619D01*
X132897714Y-65476476D01*
X132945333Y-65666952D01*
X132945333Y-66047905D01*
X132897714Y-66143143D01*
X132850095Y-66190762D01*
X132754857Y-66238381D01*
X132564380Y-66238381D01*
X132469142Y-66190762D01*
X132421523Y-66143143D01*
X132373904Y-66047905D01*
X132373904Y-65809810D01*
X132421523Y-65714571D01*
X132469142Y-65666952D01*
X132564380Y-65619333D01*
X132754857Y-65619333D01*
X132850095Y-65666952D01*
X132897714Y-65714571D01*
X132945333Y-65809810D01*
X130369047Y-59857143D02*
X130416666Y-59904762D01*
X130559523Y-59952381D01*
X130654761Y-59952381D01*
X130797619Y-59904762D01*
X130892857Y-59809524D01*
X130940476Y-59714286D01*
X130988095Y-59523810D01*
X130988095Y-59380952D01*
X130940476Y-59190476D01*
X130892857Y-59095238D01*
X130797619Y-59000000D01*
X130654761Y-58952381D01*
X130559523Y-58952381D01*
X130416666Y-59000000D01*
X130369047Y-59047619D01*
X129416666Y-59952381D02*
X129988095Y-59952381D01*
X129702381Y-59952381D02*
X129702381Y-58952381D01*
X129797619Y-59095238D01*
X129892857Y-59190476D01*
X129988095Y-59238095D01*
X128797619Y-58952381D02*
X128702380Y-58952381D01*
X128607142Y-59000000D01*
X128559523Y-59047619D01*
X128511904Y-59142857D01*
X128464285Y-59333333D01*
X128464285Y-59571429D01*
X128511904Y-59761905D01*
X128559523Y-59857143D01*
X128607142Y-59904762D01*
X128702380Y-59952381D01*
X128797619Y-59952381D01*
X128892857Y-59904762D01*
X128940476Y-59857143D01*
X128988095Y-59761905D01*
X129035714Y-59571429D01*
X129035714Y-59333333D01*
X128988095Y-59142857D01*
X128940476Y-59047619D01*
X128892857Y-59000000D01*
X128797619Y-58952381D01*
X128130952Y-58952381D02*
X127464285Y-58952381D01*
X127892857Y-59952381D01*
X127103047Y-66143143D02*
X127150666Y-66190762D01*
X127293523Y-66238381D01*
X127388761Y-66238381D01*
X127531619Y-66190762D01*
X127626857Y-66095524D01*
X127674476Y-66000286D01*
X127722095Y-65809810D01*
X127722095Y-65666952D01*
X127674476Y-65476476D01*
X127626857Y-65381238D01*
X127531619Y-65286000D01*
X127388761Y-65238381D01*
X127293523Y-65238381D01*
X127150666Y-65286000D01*
X127103047Y-65333619D01*
X126150666Y-66238381D02*
X126722095Y-66238381D01*
X126436381Y-66238381D02*
X126436381Y-65238381D01*
X126531619Y-65381238D01*
X126626857Y-65476476D01*
X126722095Y-65524095D01*
X125531619Y-65238381D02*
X125436380Y-65238381D01*
X125341142Y-65286000D01*
X125293523Y-65333619D01*
X125245904Y-65428857D01*
X125198285Y-65619333D01*
X125198285Y-65857429D01*
X125245904Y-66047905D01*
X125293523Y-66143143D01*
X125341142Y-66190762D01*
X125436380Y-66238381D01*
X125531619Y-66238381D01*
X125626857Y-66190762D01*
X125674476Y-66143143D01*
X125722095Y-66047905D01*
X125769714Y-65857429D01*
X125769714Y-65619333D01*
X125722095Y-65428857D01*
X125674476Y-65333619D01*
X125626857Y-65286000D01*
X125531619Y-65238381D01*
X124626857Y-65666952D02*
X124722095Y-65619333D01*
X124769714Y-65571714D01*
X124817333Y-65476476D01*
X124817333Y-65428857D01*
X124769714Y-65333619D01*
X124722095Y-65286000D01*
X124626857Y-65238381D01*
X124436380Y-65238381D01*
X124341142Y-65286000D01*
X124293523Y-65333619D01*
X124245904Y-65428857D01*
X124245904Y-65476476D01*
X124293523Y-65571714D01*
X124341142Y-65619333D01*
X124436380Y-65666952D01*
X124626857Y-65666952D01*
X124722095Y-65714571D01*
X124769714Y-65762190D01*
X124817333Y-65857429D01*
X124817333Y-66047905D01*
X124769714Y-66143143D01*
X124722095Y-66190762D01*
X124626857Y-66238381D01*
X124436380Y-66238381D01*
X124341142Y-66190762D01*
X124293523Y-66143143D01*
X124245904Y-66047905D01*
X124245904Y-65857429D01*
X124293523Y-65762190D01*
X124341142Y-65714571D01*
X124436380Y-65666952D01*
X122369047Y-59857143D02*
X122416666Y-59904762D01*
X122559523Y-59952381D01*
X122654761Y-59952381D01*
X122797619Y-59904762D01*
X122892857Y-59809524D01*
X122940476Y-59714286D01*
X122988095Y-59523810D01*
X122988095Y-59380952D01*
X122940476Y-59190476D01*
X122892857Y-59095238D01*
X122797619Y-59000000D01*
X122654761Y-58952381D01*
X122559523Y-58952381D01*
X122416666Y-59000000D01*
X122369047Y-59047619D01*
X121416666Y-59952381D02*
X121988095Y-59952381D01*
X121702381Y-59952381D02*
X121702381Y-58952381D01*
X121797619Y-59095238D01*
X121892857Y-59190476D01*
X121988095Y-59238095D01*
X120797619Y-58952381D02*
X120702380Y-58952381D01*
X120607142Y-59000000D01*
X120559523Y-59047619D01*
X120511904Y-59142857D01*
X120464285Y-59333333D01*
X120464285Y-59571429D01*
X120511904Y-59761905D01*
X120559523Y-59857143D01*
X120607142Y-59904762D01*
X120702380Y-59952381D01*
X120797619Y-59952381D01*
X120892857Y-59904762D01*
X120940476Y-59857143D01*
X120988095Y-59761905D01*
X121035714Y-59571429D01*
X121035714Y-59333333D01*
X120988095Y-59142857D01*
X120940476Y-59047619D01*
X120892857Y-59000000D01*
X120797619Y-58952381D01*
X119988095Y-59952381D02*
X119797619Y-59952381D01*
X119702380Y-59904762D01*
X119654761Y-59857143D01*
X119559523Y-59714286D01*
X119511904Y-59523810D01*
X119511904Y-59142857D01*
X119559523Y-59047619D01*
X119607142Y-59000000D01*
X119702380Y-58952381D01*
X119892857Y-58952381D01*
X119988095Y-59000000D01*
X120035714Y-59047619D01*
X120083333Y-59142857D01*
X120083333Y-59380952D01*
X120035714Y-59476190D01*
X119988095Y-59523810D01*
X119892857Y-59571429D01*
X119702380Y-59571429D01*
X119607142Y-59523810D01*
X119559523Y-59476190D01*
X119511904Y-59380952D01*
X118975047Y-66143143D02*
X119022666Y-66190762D01*
X119165523Y-66238381D01*
X119260761Y-66238381D01*
X119403619Y-66190762D01*
X119498857Y-66095524D01*
X119546476Y-66000286D01*
X119594095Y-65809810D01*
X119594095Y-65666952D01*
X119546476Y-65476476D01*
X119498857Y-65381238D01*
X119403619Y-65286000D01*
X119260761Y-65238381D01*
X119165523Y-65238381D01*
X119022666Y-65286000D01*
X118975047Y-65333619D01*
X118022666Y-66238381D02*
X118594095Y-66238381D01*
X118308381Y-66238381D02*
X118308381Y-65238381D01*
X118403619Y-65381238D01*
X118498857Y-65476476D01*
X118594095Y-65524095D01*
X117070285Y-66238381D02*
X117641714Y-66238381D01*
X117356000Y-66238381D02*
X117356000Y-65238381D01*
X117451238Y-65381238D01*
X117546476Y-65476476D01*
X117641714Y-65524095D01*
X116451238Y-65238381D02*
X116355999Y-65238381D01*
X116260761Y-65286000D01*
X116213142Y-65333619D01*
X116165523Y-65428857D01*
X116117904Y-65619333D01*
X116117904Y-65857429D01*
X116165523Y-66047905D01*
X116213142Y-66143143D01*
X116260761Y-66190762D01*
X116355999Y-66238381D01*
X116451238Y-66238381D01*
X116546476Y-66190762D01*
X116594095Y-66143143D01*
X116641714Y-66047905D01*
X116689333Y-65857429D01*
X116689333Y-65619333D01*
X116641714Y-65428857D01*
X116594095Y-65333619D01*
X116546476Y-65286000D01*
X116451238Y-65238381D01*
X114119047Y-59857143D02*
X114166666Y-59904762D01*
X114309523Y-59952381D01*
X114404761Y-59952381D01*
X114547619Y-59904762D01*
X114642857Y-59809524D01*
X114690476Y-59714286D01*
X114738095Y-59523810D01*
X114738095Y-59380952D01*
X114690476Y-59190476D01*
X114642857Y-59095238D01*
X114547619Y-59000000D01*
X114404761Y-58952381D01*
X114309523Y-58952381D01*
X114166666Y-59000000D01*
X114119047Y-59047619D01*
X113166666Y-59952381D02*
X113738095Y-59952381D01*
X113452381Y-59952381D02*
X113452381Y-58952381D01*
X113547619Y-59095238D01*
X113642857Y-59190476D01*
X113738095Y-59238095D01*
X112214285Y-59952381D02*
X112785714Y-59952381D01*
X112500000Y-59952381D02*
X112500000Y-58952381D01*
X112595238Y-59095238D01*
X112690476Y-59190476D01*
X112785714Y-59238095D01*
X111261904Y-59952381D02*
X111833333Y-59952381D01*
X111547619Y-59952381D02*
X111547619Y-58952381D01*
X111642857Y-59095238D01*
X111738095Y-59190476D01*
X111833333Y-59238095D01*
X110847047Y-66143143D02*
X110894666Y-66190762D01*
X111037523Y-66238381D01*
X111132761Y-66238381D01*
X111275619Y-66190762D01*
X111370857Y-66095524D01*
X111418476Y-66000286D01*
X111466095Y-65809810D01*
X111466095Y-65666952D01*
X111418476Y-65476476D01*
X111370857Y-65381238D01*
X111275619Y-65286000D01*
X111132761Y-65238381D01*
X111037523Y-65238381D01*
X110894666Y-65286000D01*
X110847047Y-65333619D01*
X109894666Y-66238381D02*
X110466095Y-66238381D01*
X110180381Y-66238381D02*
X110180381Y-65238381D01*
X110275619Y-65381238D01*
X110370857Y-65476476D01*
X110466095Y-65524095D01*
X108942285Y-66238381D02*
X109513714Y-66238381D01*
X109228000Y-66238381D02*
X109228000Y-65238381D01*
X109323238Y-65381238D01*
X109418476Y-65476476D01*
X109513714Y-65524095D01*
X108561333Y-65333619D02*
X108513714Y-65286000D01*
X108418476Y-65238381D01*
X108180380Y-65238381D01*
X108085142Y-65286000D01*
X108037523Y-65333619D01*
X107989904Y-65428857D01*
X107989904Y-65524095D01*
X108037523Y-65666952D01*
X108608952Y-66238381D01*
X107989904Y-66238381D01*
X105869047Y-59857143D02*
X105916666Y-59904762D01*
X106059523Y-59952381D01*
X106154761Y-59952381D01*
X106297619Y-59904762D01*
X106392857Y-59809524D01*
X106440476Y-59714286D01*
X106488095Y-59523810D01*
X106488095Y-59380952D01*
X106440476Y-59190476D01*
X106392857Y-59095238D01*
X106297619Y-59000000D01*
X106154761Y-58952381D01*
X106059523Y-58952381D01*
X105916666Y-59000000D01*
X105869047Y-59047619D01*
X104916666Y-59952381D02*
X105488095Y-59952381D01*
X105202381Y-59952381D02*
X105202381Y-58952381D01*
X105297619Y-59095238D01*
X105392857Y-59190476D01*
X105488095Y-59238095D01*
X103964285Y-59952381D02*
X104535714Y-59952381D01*
X104250000Y-59952381D02*
X104250000Y-58952381D01*
X104345238Y-59095238D01*
X104440476Y-59190476D01*
X104535714Y-59238095D01*
X103630952Y-58952381D02*
X103011904Y-58952381D01*
X103345238Y-59333333D01*
X103202380Y-59333333D01*
X103107142Y-59380952D01*
X103059523Y-59428571D01*
X103011904Y-59523810D01*
X103011904Y-59761905D01*
X103059523Y-59857143D01*
X103107142Y-59904762D01*
X103202380Y-59952381D01*
X103488095Y-59952381D01*
X103583333Y-59904762D01*
X103630952Y-59857143D01*
X202468095Y-127368381D02*
X202468095Y-126368381D01*
X202230000Y-126368381D01*
X202087142Y-126416000D01*
X201991904Y-126511238D01*
X201944285Y-126606476D01*
X201896666Y-126796952D01*
X201896666Y-126939810D01*
X201944285Y-127130286D01*
X201991904Y-127225524D01*
X202087142Y-127320762D01*
X202230000Y-127368381D01*
X202468095Y-127368381D01*
X200944285Y-127368381D02*
X201515714Y-127368381D01*
X201230000Y-127368381D02*
X201230000Y-126368381D01*
X201325238Y-126511238D01*
X201420476Y-126606476D01*
X201515714Y-126654095D01*
X202468095Y-140830381D02*
X202468095Y-139830381D01*
X202230000Y-139830381D01*
X202087142Y-139878000D01*
X201991904Y-139973238D01*
X201944285Y-140068476D01*
X201896666Y-140258952D01*
X201896666Y-140401810D01*
X201944285Y-140592286D01*
X201991904Y-140687524D01*
X202087142Y-140782762D01*
X202230000Y-140830381D01*
X202468095Y-140830381D01*
X201039523Y-140163714D02*
X201039523Y-140830381D01*
X201277619Y-139782762D02*
X201515714Y-140497048D01*
X200896666Y-140497048D01*
X170918095Y-123642381D02*
X170918095Y-122642381D01*
X170680000Y-122642381D01*
X170537142Y-122690000D01*
X170441904Y-122785238D01*
X170394285Y-122880476D01*
X170346666Y-123070952D01*
X170346666Y-123213810D01*
X170394285Y-123404286D01*
X170441904Y-123499524D01*
X170537142Y-123594762D01*
X170680000Y-123642381D01*
X170918095Y-123642381D01*
X169441904Y-122642381D02*
X169918095Y-122642381D01*
X169965714Y-123118571D01*
X169918095Y-123070952D01*
X169822857Y-123023333D01*
X169584761Y-123023333D01*
X169489523Y-123070952D01*
X169441904Y-123118571D01*
X169394285Y-123213810D01*
X169394285Y-123451905D01*
X169441904Y-123547143D01*
X169489523Y-123594762D01*
X169584761Y-123642381D01*
X169822857Y-123642381D01*
X169918095Y-123594762D01*
X169965714Y-123547143D01*
X91916666Y-77202381D02*
X92250000Y-76726190D01*
X92488095Y-77202381D02*
X92488095Y-76202381D01*
X92107142Y-76202381D01*
X92011904Y-76250000D01*
X91964285Y-76297619D01*
X91916666Y-76392857D01*
X91916666Y-76535714D01*
X91964285Y-76630952D01*
X92011904Y-76678571D01*
X92107142Y-76726190D01*
X92488095Y-76726190D01*
X90964285Y-77202381D02*
X91535714Y-77202381D01*
X91250000Y-77202381D02*
X91250000Y-76202381D01*
X91345238Y-76345238D01*
X91440476Y-76440476D01*
X91535714Y-76488095D01*
X77382666Y-117800381D02*
X77716000Y-117324190D01*
X77954095Y-117800381D02*
X77954095Y-116800381D01*
X77573142Y-116800381D01*
X77477904Y-116848000D01*
X77430285Y-116895619D01*
X77382666Y-116990857D01*
X77382666Y-117133714D01*
X77430285Y-117228952D01*
X77477904Y-117276571D01*
X77573142Y-117324190D01*
X77954095Y-117324190D01*
X77001714Y-116895619D02*
X76954095Y-116848000D01*
X76858857Y-116800381D01*
X76620761Y-116800381D01*
X76525523Y-116848000D01*
X76477904Y-116895619D01*
X76430285Y-116990857D01*
X76430285Y-117086095D01*
X76477904Y-117228952D01*
X77049333Y-117800381D01*
X76430285Y-117800381D01*
X92622666Y-117800381D02*
X92956000Y-117324190D01*
X93194095Y-117800381D02*
X93194095Y-116800381D01*
X92813142Y-116800381D01*
X92717904Y-116848000D01*
X92670285Y-116895619D01*
X92622666Y-116990857D01*
X92622666Y-117133714D01*
X92670285Y-117228952D01*
X92717904Y-117276571D01*
X92813142Y-117324190D01*
X93194095Y-117324190D01*
X92289333Y-116800381D02*
X91670285Y-116800381D01*
X92003619Y-117181333D01*
X91860761Y-117181333D01*
X91765523Y-117228952D01*
X91717904Y-117276571D01*
X91670285Y-117371810D01*
X91670285Y-117609905D01*
X91717904Y-117705143D01*
X91765523Y-117752762D01*
X91860761Y-117800381D01*
X92146476Y-117800381D01*
X92241714Y-117752762D01*
X92289333Y-117705143D01*
X74666666Y-120752381D02*
X75000000Y-120276190D01*
X75238095Y-120752381D02*
X75238095Y-119752381D01*
X74857142Y-119752381D01*
X74761904Y-119800000D01*
X74714285Y-119847619D01*
X74666666Y-119942857D01*
X74666666Y-120085714D01*
X74714285Y-120180952D01*
X74761904Y-120228571D01*
X74857142Y-120276190D01*
X75238095Y-120276190D01*
X74333333Y-119752381D02*
X73666666Y-119752381D01*
X74095238Y-120752381D01*
X74666666Y-125902381D02*
X75000000Y-125426190D01*
X75238095Y-125902381D02*
X75238095Y-124902381D01*
X74857142Y-124902381D01*
X74761904Y-124950000D01*
X74714285Y-124997619D01*
X74666666Y-125092857D01*
X74666666Y-125235714D01*
X74714285Y-125330952D01*
X74761904Y-125378571D01*
X74857142Y-125426190D01*
X75238095Y-125426190D01*
X74095238Y-125330952D02*
X74190476Y-125283333D01*
X74238095Y-125235714D01*
X74285714Y-125140476D01*
X74285714Y-125092857D01*
X74238095Y-124997619D01*
X74190476Y-124950000D01*
X74095238Y-124902381D01*
X73904761Y-124902381D01*
X73809523Y-124950000D01*
X73761904Y-124997619D01*
X73714285Y-125092857D01*
X73714285Y-125140476D01*
X73761904Y-125235714D01*
X73809523Y-125283333D01*
X73904761Y-125330952D01*
X74095238Y-125330952D01*
X74190476Y-125378571D01*
X74238095Y-125426190D01*
X74285714Y-125521429D01*
X74285714Y-125711905D01*
X74238095Y-125807143D01*
X74190476Y-125854762D01*
X74095238Y-125902381D01*
X73904761Y-125902381D01*
X73809523Y-125854762D01*
X73761904Y-125807143D01*
X73714285Y-125711905D01*
X73714285Y-125521429D01*
X73761904Y-125426190D01*
X73809523Y-125378571D01*
X73904761Y-125330952D01*
X142374857Y-129484381D02*
X142708191Y-129008190D01*
X142946286Y-129484381D02*
X142946286Y-128484381D01*
X142565333Y-128484381D01*
X142470095Y-128532000D01*
X142422476Y-128579619D01*
X142374857Y-128674857D01*
X142374857Y-128817714D01*
X142422476Y-128912952D01*
X142470095Y-128960571D01*
X142565333Y-129008190D01*
X142946286Y-129008190D01*
X141422476Y-129484381D02*
X141993905Y-129484381D01*
X141708191Y-129484381D02*
X141708191Y-128484381D01*
X141803429Y-128627238D01*
X141898667Y-128722476D01*
X141993905Y-128770095D01*
X140470095Y-129484381D02*
X141041524Y-129484381D01*
X140755810Y-129484381D02*
X140755810Y-128484381D01*
X140851048Y-128627238D01*
X140946286Y-128722476D01*
X141041524Y-128770095D01*
X97892857Y-89952381D02*
X98226191Y-89476190D01*
X98464286Y-89952381D02*
X98464286Y-88952381D01*
X98083333Y-88952381D01*
X97988095Y-89000000D01*
X97940476Y-89047619D01*
X97892857Y-89142857D01*
X97892857Y-89285714D01*
X97940476Y-89380952D01*
X97988095Y-89428571D01*
X98083333Y-89476190D01*
X98464286Y-89476190D01*
X96940476Y-89952381D02*
X97511905Y-89952381D01*
X97226191Y-89952381D02*
X97226191Y-88952381D01*
X97321429Y-89095238D01*
X97416667Y-89190476D01*
X97511905Y-89238095D01*
X96559524Y-89047619D02*
X96511905Y-89000000D01*
X96416667Y-88952381D01*
X96178571Y-88952381D01*
X96083333Y-89000000D01*
X96035714Y-89047619D01*
X95988095Y-89142857D01*
X95988095Y-89238095D01*
X96035714Y-89380952D01*
X96607143Y-89952381D01*
X95988095Y-89952381D01*
X124340857Y-90622381D02*
X124674191Y-90146190D01*
X124912286Y-90622381D02*
X124912286Y-89622381D01*
X124531333Y-89622381D01*
X124436095Y-89670000D01*
X124388476Y-89717619D01*
X124340857Y-89812857D01*
X124340857Y-89955714D01*
X124388476Y-90050952D01*
X124436095Y-90098571D01*
X124531333Y-90146190D01*
X124912286Y-90146190D01*
X123483714Y-89622381D02*
X123674191Y-89622381D01*
X123769429Y-89670000D01*
X123817048Y-89717619D01*
X123912286Y-89860476D01*
X123959905Y-90050952D01*
X123959905Y-90431905D01*
X123912286Y-90527143D01*
X123864667Y-90574762D01*
X123769429Y-90622381D01*
X123578952Y-90622381D01*
X123483714Y-90574762D01*
X123436095Y-90527143D01*
X123388476Y-90431905D01*
X123388476Y-90193810D01*
X123436095Y-90098571D01*
X123483714Y-90050952D01*
X123578952Y-90003333D01*
X123769429Y-90003333D01*
X123864667Y-90050952D01*
X123912286Y-90098571D01*
X123959905Y-90193810D01*
X122436095Y-90622381D02*
X123007524Y-90622381D01*
X122721810Y-90622381D02*
X122721810Y-89622381D01*
X122817048Y-89765238D01*
X122912286Y-89860476D01*
X123007524Y-89908095D01*
X127388857Y-84780381D02*
X127722191Y-84304190D01*
X127960286Y-84780381D02*
X127960286Y-83780381D01*
X127579333Y-83780381D01*
X127484095Y-83828000D01*
X127436476Y-83875619D01*
X127388857Y-83970857D01*
X127388857Y-84113714D01*
X127436476Y-84208952D01*
X127484095Y-84256571D01*
X127579333Y-84304190D01*
X127960286Y-84304190D01*
X126531714Y-83780381D02*
X126722191Y-83780381D01*
X126817429Y-83828000D01*
X126865048Y-83875619D01*
X126960286Y-84018476D01*
X127007905Y-84208952D01*
X127007905Y-84589905D01*
X126960286Y-84685143D01*
X126912667Y-84732762D01*
X126817429Y-84780381D01*
X126626952Y-84780381D01*
X126531714Y-84732762D01*
X126484095Y-84685143D01*
X126436476Y-84589905D01*
X126436476Y-84351810D01*
X126484095Y-84256571D01*
X126531714Y-84208952D01*
X126626952Y-84161333D01*
X126817429Y-84161333D01*
X126912667Y-84208952D01*
X126960286Y-84256571D01*
X127007905Y-84351810D01*
X126055524Y-83875619D02*
X126007905Y-83828000D01*
X125912667Y-83780381D01*
X125674571Y-83780381D01*
X125579333Y-83828000D01*
X125531714Y-83875619D01*
X125484095Y-83970857D01*
X125484095Y-84066095D01*
X125531714Y-84208952D01*
X126103143Y-84780381D01*
X125484095Y-84780381D01*
X120149857Y-80716381D02*
X120483191Y-80240190D01*
X120721286Y-80716381D02*
X120721286Y-79716381D01*
X120340333Y-79716381D01*
X120245095Y-79764000D01*
X120197476Y-79811619D01*
X120149857Y-79906857D01*
X120149857Y-80049714D01*
X120197476Y-80144952D01*
X120245095Y-80192571D01*
X120340333Y-80240190D01*
X120721286Y-80240190D01*
X119292714Y-79716381D02*
X119483191Y-79716381D01*
X119578429Y-79764000D01*
X119626048Y-79811619D01*
X119721286Y-79954476D01*
X119768905Y-80144952D01*
X119768905Y-80525905D01*
X119721286Y-80621143D01*
X119673667Y-80668762D01*
X119578429Y-80716381D01*
X119387952Y-80716381D01*
X119292714Y-80668762D01*
X119245095Y-80621143D01*
X119197476Y-80525905D01*
X119197476Y-80287810D01*
X119245095Y-80192571D01*
X119292714Y-80144952D01*
X119387952Y-80097333D01*
X119578429Y-80097333D01*
X119673667Y-80144952D01*
X119721286Y-80192571D01*
X119768905Y-80287810D01*
X118864143Y-79716381D02*
X118245095Y-79716381D01*
X118578429Y-80097333D01*
X118435571Y-80097333D01*
X118340333Y-80144952D01*
X118292714Y-80192571D01*
X118245095Y-80287810D01*
X118245095Y-80525905D01*
X118292714Y-80621143D01*
X118340333Y-80668762D01*
X118435571Y-80716381D01*
X118721286Y-80716381D01*
X118816524Y-80668762D01*
X118864143Y-80621143D01*
X123392857Y-82678381D02*
X123726191Y-82202190D01*
X123964286Y-82678381D02*
X123964286Y-81678381D01*
X123583333Y-81678381D01*
X123488095Y-81726000D01*
X123440476Y-81773619D01*
X123392857Y-81868857D01*
X123392857Y-82011714D01*
X123440476Y-82106952D01*
X123488095Y-82154571D01*
X123583333Y-82202190D01*
X123964286Y-82202190D01*
X122535714Y-81678381D02*
X122726191Y-81678381D01*
X122821429Y-81726000D01*
X122869048Y-81773619D01*
X122964286Y-81916476D01*
X123011905Y-82106952D01*
X123011905Y-82487905D01*
X122964286Y-82583143D01*
X122916667Y-82630762D01*
X122821429Y-82678381D01*
X122630952Y-82678381D01*
X122535714Y-82630762D01*
X122488095Y-82583143D01*
X122440476Y-82487905D01*
X122440476Y-82249810D01*
X122488095Y-82154571D01*
X122535714Y-82106952D01*
X122630952Y-82059333D01*
X122821429Y-82059333D01*
X122916667Y-82106952D01*
X122964286Y-82154571D01*
X123011905Y-82249810D01*
X121583333Y-82011714D02*
X121583333Y-82678381D01*
X121821429Y-81630762D02*
X122059524Y-82345048D01*
X121440476Y-82345048D01*
X115704857Y-94686381D02*
X116038191Y-94210190D01*
X116276286Y-94686381D02*
X116276286Y-93686381D01*
X115895333Y-93686381D01*
X115800095Y-93734000D01*
X115752476Y-93781619D01*
X115704857Y-93876857D01*
X115704857Y-94019714D01*
X115752476Y-94114952D01*
X115800095Y-94162571D01*
X115895333Y-94210190D01*
X116276286Y-94210190D01*
X114847714Y-93686381D02*
X115038191Y-93686381D01*
X115133429Y-93734000D01*
X115181048Y-93781619D01*
X115276286Y-93924476D01*
X115323905Y-94114952D01*
X115323905Y-94495905D01*
X115276286Y-94591143D01*
X115228667Y-94638762D01*
X115133429Y-94686381D01*
X114942952Y-94686381D01*
X114847714Y-94638762D01*
X114800095Y-94591143D01*
X114752476Y-94495905D01*
X114752476Y-94257810D01*
X114800095Y-94162571D01*
X114847714Y-94114952D01*
X114942952Y-94067333D01*
X115133429Y-94067333D01*
X115228667Y-94114952D01*
X115276286Y-94162571D01*
X115323905Y-94257810D01*
X113847714Y-93686381D02*
X114323905Y-93686381D01*
X114371524Y-94162571D01*
X114323905Y-94114952D01*
X114228667Y-94067333D01*
X113990571Y-94067333D01*
X113895333Y-94114952D01*
X113847714Y-94162571D01*
X113800095Y-94257810D01*
X113800095Y-94495905D01*
X113847714Y-94591143D01*
X113895333Y-94638762D01*
X113990571Y-94686381D01*
X114228667Y-94686381D01*
X114323905Y-94638762D01*
X114371524Y-94591143D01*
X113418857Y-92781381D02*
X113752191Y-92305190D01*
X113990286Y-92781381D02*
X113990286Y-91781381D01*
X113609333Y-91781381D01*
X113514095Y-91829000D01*
X113466476Y-91876619D01*
X113418857Y-91971857D01*
X113418857Y-92114714D01*
X113466476Y-92209952D01*
X113514095Y-92257571D01*
X113609333Y-92305190D01*
X113990286Y-92305190D01*
X112561714Y-91781381D02*
X112752191Y-91781381D01*
X112847429Y-91829000D01*
X112895048Y-91876619D01*
X112990286Y-92019476D01*
X113037905Y-92209952D01*
X113037905Y-92590905D01*
X112990286Y-92686143D01*
X112942667Y-92733762D01*
X112847429Y-92781381D01*
X112656952Y-92781381D01*
X112561714Y-92733762D01*
X112514095Y-92686143D01*
X112466476Y-92590905D01*
X112466476Y-92352810D01*
X112514095Y-92257571D01*
X112561714Y-92209952D01*
X112656952Y-92162333D01*
X112847429Y-92162333D01*
X112942667Y-92209952D01*
X112990286Y-92257571D01*
X113037905Y-92352810D01*
X111609333Y-91781381D02*
X111799810Y-91781381D01*
X111895048Y-91829000D01*
X111942667Y-91876619D01*
X112037905Y-92019476D01*
X112085524Y-92209952D01*
X112085524Y-92590905D01*
X112037905Y-92686143D01*
X111990286Y-92733762D01*
X111895048Y-92781381D01*
X111704571Y-92781381D01*
X111609333Y-92733762D01*
X111561714Y-92686143D01*
X111514095Y-92590905D01*
X111514095Y-92352810D01*
X111561714Y-92257571D01*
X111609333Y-92209952D01*
X111704571Y-92162333D01*
X111895048Y-92162333D01*
X111990286Y-92209952D01*
X112037905Y-92257571D01*
X112085524Y-92352810D01*
X111894857Y-84145381D02*
X112228191Y-83669190D01*
X112466286Y-84145381D02*
X112466286Y-83145381D01*
X112085333Y-83145381D01*
X111990095Y-83193000D01*
X111942476Y-83240619D01*
X111894857Y-83335857D01*
X111894857Y-83478714D01*
X111942476Y-83573952D01*
X111990095Y-83621571D01*
X112085333Y-83669190D01*
X112466286Y-83669190D01*
X111037714Y-83145381D02*
X111228191Y-83145381D01*
X111323429Y-83193000D01*
X111371048Y-83240619D01*
X111466286Y-83383476D01*
X111513905Y-83573952D01*
X111513905Y-83954905D01*
X111466286Y-84050143D01*
X111418667Y-84097762D01*
X111323429Y-84145381D01*
X111132952Y-84145381D01*
X111037714Y-84097762D01*
X110990095Y-84050143D01*
X110942476Y-83954905D01*
X110942476Y-83716810D01*
X110990095Y-83621571D01*
X111037714Y-83573952D01*
X111132952Y-83526333D01*
X111323429Y-83526333D01*
X111418667Y-83573952D01*
X111466286Y-83621571D01*
X111513905Y-83716810D01*
X110609143Y-83145381D02*
X109942476Y-83145381D01*
X110371048Y-84145381D01*
X98142857Y-73952381D02*
X98476191Y-73476190D01*
X98714286Y-73952381D02*
X98714286Y-72952381D01*
X98333333Y-72952381D01*
X98238095Y-73000000D01*
X98190476Y-73047619D01*
X98142857Y-73142857D01*
X98142857Y-73285714D01*
X98190476Y-73380952D01*
X98238095Y-73428571D01*
X98333333Y-73476190D01*
X98714286Y-73476190D01*
X97809524Y-72952381D02*
X97142857Y-72952381D01*
X97571429Y-73952381D01*
X96857143Y-72952381D02*
X96238095Y-72952381D01*
X96571429Y-73333333D01*
X96428571Y-73333333D01*
X96333333Y-73380952D01*
X96285714Y-73428571D01*
X96238095Y-73523810D01*
X96238095Y-73761905D01*
X96285714Y-73857143D01*
X96333333Y-73904762D01*
X96428571Y-73952381D01*
X96714286Y-73952381D01*
X96809524Y-73904762D01*
X96857143Y-73857143D01*
X173989905Y-139406381D02*
X173989905Y-140215905D01*
X173942286Y-140311143D01*
X173894667Y-140358762D01*
X173799429Y-140406381D01*
X173608952Y-140406381D01*
X173513714Y-140358762D01*
X173466095Y-140311143D01*
X173418476Y-140215905D01*
X173418476Y-139406381D01*
X172418476Y-140406381D02*
X172989905Y-140406381D01*
X172704191Y-140406381D02*
X172704191Y-139406381D01*
X172799429Y-139549238D01*
X172894667Y-139644476D01*
X172989905Y-139692095D01*
X184461905Y-103752381D02*
X184461905Y-104561905D01*
X184414286Y-104657143D01*
X184366667Y-104704762D01*
X184271429Y-104752381D01*
X184080952Y-104752381D01*
X183985714Y-104704762D01*
X183938095Y-104657143D01*
X183890476Y-104561905D01*
X183890476Y-103752381D01*
X183461905Y-103847619D02*
X183414286Y-103800000D01*
X183319048Y-103752381D01*
X183080952Y-103752381D01*
X182985714Y-103800000D01*
X182938095Y-103847619D01*
X182890476Y-103942857D01*
X182890476Y-104038095D01*
X182938095Y-104180952D01*
X183509524Y-104752381D01*
X182890476Y-104752381D01*
X178815905Y-101306381D02*
X178815905Y-102115905D01*
X178768286Y-102211143D01*
X178720667Y-102258762D01*
X178625429Y-102306381D01*
X178434952Y-102306381D01*
X178339714Y-102258762D01*
X178292095Y-102211143D01*
X178244476Y-102115905D01*
X178244476Y-101306381D01*
X177863524Y-101306381D02*
X177244476Y-101306381D01*
X177577810Y-101687333D01*
X177434952Y-101687333D01*
X177339714Y-101734952D01*
X177292095Y-101782571D01*
X177244476Y-101877810D01*
X177244476Y-102115905D01*
X177292095Y-102211143D01*
X177339714Y-102258762D01*
X177434952Y-102306381D01*
X177720667Y-102306381D01*
X177815905Y-102258762D01*
X177863524Y-102211143D01*
X170761905Y-106002381D02*
X170761905Y-106811905D01*
X170714286Y-106907143D01*
X170666667Y-106954762D01*
X170571429Y-107002381D01*
X170380952Y-107002381D01*
X170285714Y-106954762D01*
X170238095Y-106907143D01*
X170190476Y-106811905D01*
X170190476Y-106002381D01*
X169285714Y-106335714D02*
X169285714Y-107002381D01*
X169523810Y-105954762D02*
X169761905Y-106669048D01*
X169142857Y-106669048D01*
X92455905Y-80986381D02*
X92455905Y-81795905D01*
X92408286Y-81891143D01*
X92360667Y-81938762D01*
X92265429Y-81986381D01*
X92074952Y-81986381D01*
X91979714Y-81938762D01*
X91932095Y-81891143D01*
X91884476Y-81795905D01*
X91884476Y-80986381D01*
X90932095Y-80986381D02*
X91408286Y-80986381D01*
X91455905Y-81462571D01*
X91408286Y-81414952D01*
X91313048Y-81367333D01*
X91074952Y-81367333D01*
X90979714Y-81414952D01*
X90932095Y-81462571D01*
X90884476Y-81557810D01*
X90884476Y-81795905D01*
X90932095Y-81891143D01*
X90979714Y-81938762D01*
X91074952Y-81986381D01*
X91313048Y-81986381D01*
X91408286Y-81938762D01*
X91455905Y-81891143D01*
X90169905Y-80986381D02*
X90169905Y-81795905D01*
X90122286Y-81891143D01*
X90074667Y-81938762D01*
X89979429Y-81986381D01*
X89788952Y-81986381D01*
X89693714Y-81938762D01*
X89646095Y-81891143D01*
X89598476Y-81795905D01*
X89598476Y-80986381D01*
X88693714Y-80986381D02*
X88884191Y-80986381D01*
X88979429Y-81034000D01*
X89027048Y-81081619D01*
X89122286Y-81224476D01*
X89169905Y-81414952D01*
X89169905Y-81795905D01*
X89122286Y-81891143D01*
X89074667Y-81938762D01*
X88979429Y-81986381D01*
X88788952Y-81986381D01*
X88693714Y-81938762D01*
X88646095Y-81891143D01*
X88598476Y-81795905D01*
X88598476Y-81557810D01*
X88646095Y-81462571D01*
X88693714Y-81414952D01*
X88788952Y-81367333D01*
X88979429Y-81367333D01*
X89074667Y-81414952D01*
X89122286Y-81462571D01*
X89169905Y-81557810D01*
X86867905Y-81494381D02*
X86867905Y-82303905D01*
X86820286Y-82399143D01*
X86772667Y-82446762D01*
X86677429Y-82494381D01*
X86486952Y-82494381D01*
X86391714Y-82446762D01*
X86344095Y-82399143D01*
X86296476Y-82303905D01*
X86296476Y-81494381D01*
X85915524Y-81494381D02*
X85248857Y-81494381D01*
X85677429Y-82494381D01*
X103988095Y-92447381D02*
X103988095Y-93256905D01*
X103940476Y-93352143D01*
X103892857Y-93399762D01*
X103797619Y-93447381D01*
X103607142Y-93447381D01*
X103511904Y-93399762D01*
X103464285Y-93352143D01*
X103416666Y-93256905D01*
X103416666Y-92447381D01*
X102416666Y-93447381D02*
X102988095Y-93447381D01*
X102702381Y-93447381D02*
X102702381Y-92447381D01*
X102797619Y-92590238D01*
X102892857Y-92685476D01*
X102988095Y-92733095D01*
X102035714Y-92542619D02*
X101988095Y-92495000D01*
X101892857Y-92447381D01*
X101654761Y-92447381D01*
X101559523Y-92495000D01*
X101511904Y-92542619D01*
X101464285Y-92637857D01*
X101464285Y-92733095D01*
X101511904Y-92875952D01*
X102083333Y-93447381D01*
X101464285Y-93447381D01*
X118586095Y-84161381D02*
X118586095Y-84970905D01*
X118538476Y-85066143D01*
X118490857Y-85113762D01*
X118395619Y-85161381D01*
X118205142Y-85161381D01*
X118109904Y-85113762D01*
X118062285Y-85066143D01*
X118014666Y-84970905D01*
X118014666Y-84161381D01*
X117586095Y-84256619D02*
X117538476Y-84209000D01*
X117443238Y-84161381D01*
X117205142Y-84161381D01*
X117109904Y-84209000D01*
X117062285Y-84256619D01*
X117014666Y-84351857D01*
X117014666Y-84447095D01*
X117062285Y-84589952D01*
X117633714Y-85161381D01*
X117014666Y-85161381D01*
X116633714Y-84256619D02*
X116586095Y-84209000D01*
X116490857Y-84161381D01*
X116252761Y-84161381D01*
X116157523Y-84209000D01*
X116109904Y-84256619D01*
X116062285Y-84351857D01*
X116062285Y-84447095D01*
X116109904Y-84589952D01*
X116681333Y-85161381D01*
X116062285Y-85161381D01*
X98099334Y-69302381D02*
X97766001Y-70302381D01*
X97432667Y-69302381D01*
X97099334Y-70302381D02*
X97099334Y-69635714D01*
X97099334Y-69826190D02*
X97051715Y-69730952D01*
X97004096Y-69683333D01*
X96908858Y-69635714D01*
X96813619Y-69635714D01*
X96099333Y-70254762D02*
X96194571Y-70302381D01*
X96385048Y-70302381D01*
X96480286Y-70254762D01*
X96527905Y-70159524D01*
X96527905Y-69778571D01*
X96480286Y-69683333D01*
X96385048Y-69635714D01*
X96194571Y-69635714D01*
X96099333Y-69683333D01*
X96051714Y-69778571D01*
X96051714Y-69873810D01*
X96527905Y-69969048D01*
X95766000Y-69635714D02*
X95385048Y-69635714D01*
X95623143Y-70302381D02*
X95623143Y-69445238D01*
X95575524Y-69350000D01*
X95480286Y-69302381D01*
X95385048Y-69302381D01*
X94527904Y-70302381D02*
X95099333Y-70302381D01*
X94813619Y-70302381D02*
X94813619Y-69302381D01*
X94908857Y-69445238D01*
X95004095Y-69540476D01*
X95099333Y-69588095D01*
X102719047Y-66143143D02*
X102766666Y-66190762D01*
X102909523Y-66238381D01*
X103004761Y-66238381D01*
X103147619Y-66190762D01*
X103242857Y-66095524D01*
X103290476Y-66000286D01*
X103338095Y-65809810D01*
X103338095Y-65666952D01*
X103290476Y-65476476D01*
X103242857Y-65381238D01*
X103147619Y-65286000D01*
X103004761Y-65238381D01*
X102909523Y-65238381D01*
X102766666Y-65286000D01*
X102719047Y-65333619D01*
X101766666Y-66238381D02*
X102338095Y-66238381D01*
X102052381Y-66238381D02*
X102052381Y-65238381D01*
X102147619Y-65381238D01*
X102242857Y-65476476D01*
X102338095Y-65524095D01*
X100814285Y-66238381D02*
X101385714Y-66238381D01*
X101100000Y-66238381D02*
X101100000Y-65238381D01*
X101195238Y-65381238D01*
X101290476Y-65476476D01*
X101385714Y-65524095D01*
X99957142Y-65571714D02*
X99957142Y-66238381D01*
X100195238Y-65190762D02*
X100433333Y-65905048D01*
X99814285Y-65905048D01*
X115030191Y-104624190D02*
X115030191Y-105100381D01*
X115363524Y-104100381D02*
X115030191Y-104624190D01*
X114696857Y-104100381D01*
X113839714Y-105100381D02*
X114411143Y-105100381D01*
X114125429Y-105100381D02*
X114125429Y-104100381D01*
X114220667Y-104243238D01*
X114315905Y-104338476D01*
X114411143Y-104386095D01*
X110892857Y-106602143D02*
X110940476Y-106649762D01*
X111083333Y-106697381D01*
X111178571Y-106697381D01*
X111321429Y-106649762D01*
X111416667Y-106554524D01*
X111464286Y-106459286D01*
X111511905Y-106268810D01*
X111511905Y-106125952D01*
X111464286Y-105935476D01*
X111416667Y-105840238D01*
X111321429Y-105745000D01*
X111178571Y-105697381D01*
X111083333Y-105697381D01*
X110940476Y-105745000D01*
X110892857Y-105792619D01*
X110416667Y-106697381D02*
X110226191Y-106697381D01*
X110130952Y-106649762D01*
X110083333Y-106602143D01*
X109988095Y-106459286D01*
X109940476Y-106268810D01*
X109940476Y-105887857D01*
X109988095Y-105792619D01*
X110035714Y-105745000D01*
X110130952Y-105697381D01*
X110321429Y-105697381D01*
X110416667Y-105745000D01*
X110464286Y-105792619D01*
X110511905Y-105887857D01*
X110511905Y-106125952D01*
X110464286Y-106221190D01*
X110416667Y-106268810D01*
X110321429Y-106316429D01*
X110130952Y-106316429D01*
X110035714Y-106268810D01*
X109988095Y-106221190D01*
X109940476Y-106125952D01*
X109321429Y-105697381D02*
X109226190Y-105697381D01*
X109130952Y-105745000D01*
X109083333Y-105792619D01*
X109035714Y-105887857D01*
X108988095Y-106078333D01*
X108988095Y-106316429D01*
X109035714Y-106506905D01*
X109083333Y-106602143D01*
X109130952Y-106649762D01*
X109226190Y-106697381D01*
X109321429Y-106697381D01*
X109416667Y-106649762D01*
X109464286Y-106602143D01*
X109511905Y-106506905D01*
X109559524Y-106316429D01*
X109559524Y-106078333D01*
X109511905Y-105887857D01*
X109464286Y-105792619D01*
X109416667Y-105745000D01*
X109321429Y-105697381D01*
M02*
