M48
;DRILL file {KiCad 4.0.1-stable} date 10/28/16 04:05:53
;FORMAT={-:-/ absolute / inch / decimal}
FMAT,2
INCH,TZ
T1C0.028
T2C0.039
T3C0.043
T4C0.126
%
G90
G05
M72
T1
X4.23Y-4.82
X4.23Y-5.22
X4.37Y-5.01
X4.37Y-5.11
X4.37Y-5.21
X4.43Y-3.54
X4.43Y-3.64
X4.51Y-4.51
X4.51Y-4.61
X4.51Y-4.71
X4.51Y-4.81
X4.51Y-4.91
X4.51Y-5.01
X4.51Y-5.11
X4.51Y-5.21
X4.72Y-3.68
X4.72Y-4.08
X4.81Y-4.51
X4.81Y-4.61
X4.81Y-4.71
X4.81Y-4.81
X4.81Y-4.91
X4.81Y-5.01
X4.81Y-5.11
X4.81Y-5.21
X4.86Y-3.68
X4.86Y-4.08
X4.96Y-4.63
X5.05Y-3.78
X5.05Y-3.88
X5.05Y-3.98
X5.05Y-4.08
X5.05Y-4.18
X5.05Y-4.28
X5.05Y-4.38
X5.06Y-4.63
X5.06Y-5.19
X5.06Y-5.29
X5.07Y-4.81
X5.07Y-4.91
X5.15Y-3.6
X5.16Y-4.63
X5.25Y-3.6
X5.35Y-3.6
X5.35Y-3.78
X5.35Y-3.88
X5.35Y-3.98
X5.35Y-4.08
X5.35Y-4.18
X5.35Y-4.28
X5.35Y-4.38
X5.39Y-4.9
X5.39Y-5.
X5.39Y-5.1
X5.58Y-4.19
X5.58Y-4.29
X5.58Y-4.39
X5.62Y-3.42
X5.62Y-3.52
X5.62Y-3.62
X5.9Y-3.59
X5.9Y-3.69
X5.9Y-3.79
X5.9Y-3.89
X5.9Y-3.99
X5.9Y-4.09
X5.9Y-4.19
X5.9Y-4.29
X6.2Y-3.59
X6.2Y-3.69
X6.2Y-3.79
X6.2Y-3.89
X6.2Y-3.99
X6.2Y-4.09
X6.2Y-4.19
X6.2Y-4.29
X6.46Y-3.39
X6.46Y-3.79
X6.46Y-3.89
X6.46Y-4.29
T2
X4.06Y-3.54
X4.06Y-3.64
X4.37Y-4.72
X4.37Y-4.82
X4.43Y-3.96
X4.53Y-3.96
X4.72Y-4.22
X4.72Y-4.32
X4.96Y-3.41
X5.06Y-3.41
X5.16Y-3.41
X5.26Y-3.41
X5.36Y-3.41
X5.46Y-3.41
T3
X3.95Y-4.26
X3.95Y-4.36
X3.95Y-4.46
X3.95Y-4.56
X4.06Y-4.21
X4.06Y-4.31
X4.06Y-4.41
X4.06Y-4.51
X4.06Y-4.61
T4
X3.7795Y-3.2677
X3.7795Y-5.3543
X4.005Y-3.925
X4.005Y-4.895
X6.5354Y-3.2677
X6.5354Y-5.3543
T0
M30
