%FSLAX45Y45*%
G04 Gerber Fmt 4.5, Leading zero omitted, Abs format (unit mm)*
G04 Created by KiCad (PCBNEW 4.0.1-stable) date 10/28/16 04:05:53*
%MOMM*%
G01*
G04 APERTURE LIST*
%ADD10C,0.127000*%
%ADD11C,0.150000*%
%ADD12C,0.200000*%
%ADD13C,0.300000*%
G04 APERTURE END LIST*
D10*
D11*
X9220200Y-7975600D02*
X16929100Y-7975600D01*
X16929100Y-13970000D02*
X9220200Y-13970000D01*
X9220200Y-7975600D02*
X9220200Y-8712200D01*
X16929100Y-13970000D02*
X16929100Y-7975600D01*
X9220200Y-9728200D02*
X9220200Y-13970000D01*
X9220200Y-9728200D02*
X9220200Y-8585200D01*
D12*
X10709200Y-12207800D02*
X10779200Y-12277800D01*
X10779200Y-12207800D02*
X10709200Y-12277800D01*
X10709200Y-13223800D02*
X10779200Y-13293800D01*
X10779200Y-13223800D02*
X10709200Y-13293800D01*
X11064800Y-12690400D02*
X11134800Y-12760400D01*
X11134800Y-12690400D02*
X11064800Y-12760400D01*
X11064800Y-12944400D02*
X11134800Y-13014400D01*
X11134800Y-12944400D02*
X11064800Y-13014400D01*
X11064800Y-13198400D02*
X11134800Y-13268400D01*
X11134800Y-13198400D02*
X11064800Y-13268400D01*
X11217200Y-8956600D02*
X11287200Y-9026600D01*
X11287200Y-8956600D02*
X11217200Y-9026600D01*
X11217200Y-9210600D02*
X11287200Y-9280600D01*
X11287200Y-9210600D02*
X11217200Y-9280600D01*
X11420400Y-11420400D02*
X11490400Y-11490400D01*
X11490400Y-11420400D02*
X11420400Y-11490400D01*
X11420400Y-11674400D02*
X11490400Y-11744400D01*
X11490400Y-11674400D02*
X11420400Y-11744400D01*
X11420400Y-11928400D02*
X11490400Y-11998400D01*
X11490400Y-11928400D02*
X11420400Y-11998400D01*
X11420400Y-12182400D02*
X11490400Y-12252400D01*
X11490400Y-12182400D02*
X11420400Y-12252400D01*
X11420400Y-12436400D02*
X11490400Y-12506400D01*
X11490400Y-12436400D02*
X11420400Y-12506400D01*
X11420400Y-12690400D02*
X11490400Y-12760400D01*
X11490400Y-12690400D02*
X11420400Y-12760400D01*
X11420400Y-12944400D02*
X11490400Y-13014400D01*
X11490400Y-12944400D02*
X11420400Y-13014400D01*
X11420400Y-13198400D02*
X11490400Y-13268400D01*
X11490400Y-13198400D02*
X11420400Y-13268400D01*
X11953800Y-9312200D02*
X12023800Y-9382200D01*
X12023800Y-9312200D02*
X11953800Y-9382200D01*
X11953800Y-10328200D02*
X12023800Y-10398200D01*
X12023800Y-10328200D02*
X11953800Y-10398200D01*
X12182400Y-11420400D02*
X12252400Y-11490400D01*
X12252400Y-11420400D02*
X12182400Y-11490400D01*
X12182400Y-11674400D02*
X12252400Y-11744400D01*
X12252400Y-11674400D02*
X12182400Y-11744400D01*
X12182400Y-11928400D02*
X12252400Y-11998400D01*
X12252400Y-11928400D02*
X12182400Y-11998400D01*
X12182400Y-12182400D02*
X12252400Y-12252400D01*
X12252400Y-12182400D02*
X12182400Y-12252400D01*
X12182400Y-12436400D02*
X12252400Y-12506400D01*
X12252400Y-12436400D02*
X12182400Y-12506400D01*
X12182400Y-12690400D02*
X12252400Y-12760400D01*
X12252400Y-12690400D02*
X12182400Y-12760400D01*
X12182400Y-12944400D02*
X12252400Y-13014400D01*
X12252400Y-12944400D02*
X12182400Y-13014400D01*
X12182400Y-13198400D02*
X12252400Y-13268400D01*
X12252400Y-13198400D02*
X12182400Y-13268400D01*
X12309400Y-9312200D02*
X12379400Y-9382200D01*
X12379400Y-9312200D02*
X12309400Y-9382200D01*
X12309400Y-10328200D02*
X12379400Y-10398200D01*
X12379400Y-10328200D02*
X12309400Y-10398200D01*
X12563400Y-11725200D02*
X12633400Y-11795200D01*
X12633400Y-11725200D02*
X12563400Y-11795200D01*
X12792000Y-9566200D02*
X12862000Y-9636200D01*
X12862000Y-9566200D02*
X12792000Y-9636200D01*
X12792000Y-9820200D02*
X12862000Y-9890200D01*
X12862000Y-9820200D02*
X12792000Y-9890200D01*
X12792000Y-10074200D02*
X12862000Y-10144200D01*
X12862000Y-10074200D02*
X12792000Y-10144200D01*
X12792000Y-10328200D02*
X12862000Y-10398200D01*
X12862000Y-10328200D02*
X12792000Y-10398200D01*
X12792000Y-10582200D02*
X12862000Y-10652200D01*
X12862000Y-10582200D02*
X12792000Y-10652200D01*
X12792000Y-10836200D02*
X12862000Y-10906200D01*
X12862000Y-10836200D02*
X12792000Y-10906200D01*
X12792000Y-11090200D02*
X12862000Y-11160200D01*
X12862000Y-11090200D02*
X12792000Y-11160200D01*
X12817400Y-11725200D02*
X12887400Y-11795200D01*
X12887400Y-11725200D02*
X12817400Y-11795200D01*
X12817400Y-13147600D02*
X12887400Y-13217600D01*
X12887400Y-13147600D02*
X12817400Y-13217600D01*
X12817400Y-13401600D02*
X12887400Y-13471600D01*
X12887400Y-13401600D02*
X12817400Y-13471600D01*
X12842800Y-12182400D02*
X12912800Y-12252400D01*
X12912800Y-12182400D02*
X12842800Y-12252400D01*
X12842800Y-12436400D02*
X12912800Y-12506400D01*
X12912800Y-12436400D02*
X12842800Y-12506400D01*
X13046000Y-9109000D02*
X13116000Y-9179000D01*
X13116000Y-9109000D02*
X13046000Y-9179000D01*
X13071400Y-11725200D02*
X13141400Y-11795200D01*
X13141400Y-11725200D02*
X13071400Y-11795200D01*
X13300000Y-9109000D02*
X13370000Y-9179000D01*
X13370000Y-9109000D02*
X13300000Y-9179000D01*
X13554000Y-9109000D02*
X13624000Y-9179000D01*
X13624000Y-9109000D02*
X13554000Y-9179000D01*
X13554000Y-9566200D02*
X13624000Y-9636200D01*
X13624000Y-9566200D02*
X13554000Y-9636200D01*
X13554000Y-9820200D02*
X13624000Y-9890200D01*
X13624000Y-9820200D02*
X13554000Y-9890200D01*
X13554000Y-10074200D02*
X13624000Y-10144200D01*
X13624000Y-10074200D02*
X13554000Y-10144200D01*
X13554000Y-10328200D02*
X13624000Y-10398200D01*
X13624000Y-10328200D02*
X13554000Y-10398200D01*
X13554000Y-10582200D02*
X13624000Y-10652200D01*
X13624000Y-10582200D02*
X13554000Y-10652200D01*
X13554000Y-10836200D02*
X13624000Y-10906200D01*
X13624000Y-10836200D02*
X13554000Y-10906200D01*
X13554000Y-11090200D02*
X13624000Y-11160200D01*
X13624000Y-11090200D02*
X13554000Y-11160200D01*
X13655600Y-12411000D02*
X13725600Y-12481000D01*
X13725600Y-12411000D02*
X13655600Y-12481000D01*
X13655600Y-12665000D02*
X13725600Y-12735000D01*
X13725600Y-12665000D02*
X13655600Y-12735000D01*
X13655600Y-12919000D02*
X13725600Y-12989000D01*
X13725600Y-12919000D02*
X13655600Y-12989000D01*
X14138200Y-10607600D02*
X14208200Y-10677600D01*
X14208200Y-10607600D02*
X14138200Y-10677600D01*
X14138200Y-10861600D02*
X14208200Y-10931600D01*
X14208200Y-10861600D02*
X14138200Y-10931600D01*
X14138200Y-11115600D02*
X14208200Y-11185600D01*
X14208200Y-11115600D02*
X14138200Y-11185600D01*
X14239800Y-8651800D02*
X14309800Y-8721800D01*
X14309800Y-8651800D02*
X14239800Y-8721800D01*
X14239800Y-8905800D02*
X14309800Y-8975800D01*
X14309800Y-8905800D02*
X14239800Y-8975800D01*
X14239800Y-9159800D02*
X14309800Y-9229800D01*
X14309800Y-9159800D02*
X14239800Y-9229800D01*
X14951000Y-9083600D02*
X15021000Y-9153600D01*
X15021000Y-9083600D02*
X14951000Y-9153600D01*
X14951000Y-9337600D02*
X15021000Y-9407600D01*
X15021000Y-9337600D02*
X14951000Y-9407600D01*
X14951000Y-9591600D02*
X15021000Y-9661600D01*
X15021000Y-9591600D02*
X14951000Y-9661600D01*
X14951000Y-9845600D02*
X15021000Y-9915600D01*
X15021000Y-9845600D02*
X14951000Y-9915600D01*
X14951000Y-10099600D02*
X15021000Y-10169600D01*
X15021000Y-10099600D02*
X14951000Y-10169600D01*
X14951000Y-10353600D02*
X15021000Y-10423600D01*
X15021000Y-10353600D02*
X14951000Y-10423600D01*
X14951000Y-10607600D02*
X15021000Y-10677600D01*
X15021000Y-10607600D02*
X14951000Y-10677600D01*
X14951000Y-10861600D02*
X15021000Y-10931600D01*
X15021000Y-10861600D02*
X14951000Y-10931600D01*
X15713000Y-9083600D02*
X15783000Y-9153600D01*
X15783000Y-9083600D02*
X15713000Y-9153600D01*
X15713000Y-9337600D02*
X15783000Y-9407600D01*
X15783000Y-9337600D02*
X15713000Y-9407600D01*
X15713000Y-9591600D02*
X15783000Y-9661600D01*
X15783000Y-9591600D02*
X15713000Y-9661600D01*
X15713000Y-9845600D02*
X15783000Y-9915600D01*
X15783000Y-9845600D02*
X15713000Y-9915600D01*
X15713000Y-10099600D02*
X15783000Y-10169600D01*
X15783000Y-10099600D02*
X15713000Y-10169600D01*
X15713000Y-10353600D02*
X15783000Y-10423600D01*
X15783000Y-10353600D02*
X15713000Y-10423600D01*
X15713000Y-10607600D02*
X15783000Y-10677600D01*
X15783000Y-10607600D02*
X15713000Y-10677600D01*
X15713000Y-10861600D02*
X15783000Y-10931600D01*
X15783000Y-10861600D02*
X15713000Y-10931600D01*
X16373400Y-8575600D02*
X16443400Y-8645600D01*
X16443400Y-8575600D02*
X16373400Y-8645600D01*
X16373400Y-9591600D02*
X16443400Y-9661600D01*
X16443400Y-9591600D02*
X16373400Y-9661600D01*
X16373400Y-9845600D02*
X16443400Y-9915600D01*
X16443400Y-9845600D02*
X16373400Y-9915600D01*
X16373400Y-10861600D02*
X16443400Y-10931600D01*
X16443400Y-10861600D02*
X16373400Y-10931600D01*
X10362400Y-8991600D02*
G75*
G03X10362400Y-8991600I-50000J0D01*
G01*
X10362400Y-9245600D02*
G75*
G03X10362400Y-9245600I-50000J0D01*
G01*
X11149800Y-11988800D02*
G75*
G03X11149800Y-11988800I-50000J0D01*
G01*
X11149800Y-12242800D02*
G75*
G03X11149800Y-12242800I-50000J0D01*
G01*
X11302200Y-10058400D02*
G75*
G03X11302200Y-10058400I-50000J0D01*
G01*
X11556200Y-10058400D02*
G75*
G03X11556200Y-10058400I-50000J0D01*
G01*
X12038800Y-10718800D02*
G75*
G03X12038800Y-10718800I-50000J0D01*
G01*
X12038800Y-10972800D02*
G75*
G03X12038800Y-10972800I-50000J0D01*
G01*
X12648400Y-8661400D02*
G75*
G03X12648400Y-8661400I-50000J0D01*
G01*
X12902400Y-8661400D02*
G75*
G03X12902400Y-8661400I-50000J0D01*
G01*
X13156400Y-8661400D02*
G75*
G03X13156400Y-8661400I-50000J0D01*
G01*
X13410400Y-8661400D02*
G75*
G03X13410400Y-8661400I-50000J0D01*
G01*
X13664400Y-8661400D02*
G75*
G03X13664400Y-8661400I-50000J0D01*
G01*
X13918400Y-8661400D02*
G75*
G03X13918400Y-8661400I-50000J0D01*
G01*
X10033000Y-10765400D02*
X10033000Y-10875400D01*
X9978000Y-10820400D02*
X10088000Y-10820400D01*
X10033000Y-11019400D02*
X10033000Y-11129400D01*
X9978000Y-11074400D02*
X10088000Y-11074400D01*
X10033000Y-11273400D02*
X10033000Y-11383400D01*
X9978000Y-11328400D02*
X10088000Y-11328400D01*
X10033000Y-11527400D02*
X10033000Y-11637400D01*
X9978000Y-11582400D02*
X10088000Y-11582400D01*
X10312400Y-10638400D02*
X10312400Y-10748400D01*
X10257400Y-10693400D02*
X10367400Y-10693400D01*
X10312400Y-10892400D02*
X10312400Y-11002400D01*
X10257400Y-10947400D02*
X10367400Y-10947400D01*
X10312400Y-11146400D02*
X10312400Y-11256400D01*
X10257400Y-11201400D02*
X10367400Y-11201400D01*
X10312400Y-11400400D02*
X10312400Y-11510400D01*
X10257400Y-11455400D02*
X10367400Y-11455400D01*
X10312400Y-11654400D02*
X10312400Y-11764400D01*
X10257400Y-11709400D02*
X10367400Y-11709400D01*
X9713138Y-8413138D02*
X9713138Y-8186862D01*
X9486862Y-8186862D01*
X9486862Y-8413138D01*
X9713138Y-8413138D01*
X9713138Y-13713138D02*
X9713138Y-13486862D01*
X9486862Y-13486862D01*
X9486862Y-13713138D01*
X9713138Y-13713138D01*
X10285838Y-10082638D02*
X10285838Y-9856362D01*
X10059562Y-9856362D01*
X10059562Y-10082638D01*
X10285838Y-10082638D01*
X10285838Y-12546438D02*
X10285838Y-12320162D01*
X10059562Y-12320162D01*
X10059562Y-12546438D01*
X10285838Y-12546438D01*
X16713138Y-8413138D02*
X16713138Y-8186862D01*
X16486862Y-8186862D01*
X16486862Y-8413138D01*
X16713138Y-8413138D01*
X16713138Y-13713138D02*
X16713138Y-13486862D01*
X16486862Y-13486862D01*
X16486862Y-13713138D01*
X16713138Y-13713138D01*
D13*
X9484129Y-14443214D02*
X9484129Y-14143214D01*
X9555557Y-14143214D01*
X9598414Y-14157500D01*
X9626986Y-14186071D01*
X9641271Y-14214643D01*
X9655557Y-14271786D01*
X9655557Y-14314643D01*
X9641271Y-14371786D01*
X9626986Y-14400357D01*
X9598414Y-14428929D01*
X9555557Y-14443214D01*
X9484129Y-14443214D01*
X9784129Y-14443214D02*
X9784129Y-14243214D01*
X9784129Y-14300357D02*
X9798414Y-14271786D01*
X9812700Y-14257500D01*
X9841271Y-14243214D01*
X9869843Y-14243214D01*
X9969843Y-14443214D02*
X9969843Y-14243214D01*
X9969843Y-14143214D02*
X9955557Y-14157500D01*
X9969843Y-14171786D01*
X9984129Y-14157500D01*
X9969843Y-14143214D01*
X9969843Y-14171786D01*
X10155557Y-14443214D02*
X10126986Y-14428929D01*
X10112700Y-14400357D01*
X10112700Y-14143214D01*
X10312700Y-14443214D02*
X10284129Y-14428929D01*
X10269843Y-14400357D01*
X10269843Y-14143214D01*
X10655557Y-14443214D02*
X10655557Y-14143214D01*
X10755557Y-14357500D01*
X10855557Y-14143214D01*
X10855557Y-14443214D01*
X11126986Y-14443214D02*
X11126986Y-14286071D01*
X11112700Y-14257500D01*
X11084129Y-14243214D01*
X11026986Y-14243214D01*
X10998414Y-14257500D01*
X11126986Y-14428929D02*
X11098414Y-14443214D01*
X11026986Y-14443214D01*
X10998414Y-14428929D01*
X10984129Y-14400357D01*
X10984129Y-14371786D01*
X10998414Y-14343214D01*
X11026986Y-14328929D01*
X11098414Y-14328929D01*
X11126986Y-14314643D01*
X11269843Y-14243214D02*
X11269843Y-14543214D01*
X11269843Y-14257500D02*
X11298414Y-14243214D01*
X11355557Y-14243214D01*
X11384128Y-14257500D01*
X11398414Y-14271786D01*
X11412700Y-14300357D01*
X11412700Y-14386071D01*
X11398414Y-14414643D01*
X11384128Y-14428929D01*
X11355557Y-14443214D01*
X11298414Y-14443214D01*
X11269843Y-14428929D01*
X11541271Y-14414643D02*
X11555557Y-14428929D01*
X11541271Y-14443214D01*
X11526986Y-14428929D01*
X11541271Y-14414643D01*
X11541271Y-14443214D01*
X11541271Y-14257500D02*
X11555557Y-14271786D01*
X11541271Y-14286071D01*
X11526986Y-14271786D01*
X11541271Y-14257500D01*
X11541271Y-14286071D01*
X9142700Y-14902500D02*
X9212700Y-14972500D01*
X9212700Y-14902500D02*
X9142700Y-14972500D01*
X9541271Y-14773214D02*
X9569843Y-14773214D01*
X9598414Y-14787500D01*
X9612700Y-14801786D01*
X9626986Y-14830357D01*
X9641271Y-14887500D01*
X9641271Y-14958929D01*
X9626986Y-15016071D01*
X9612700Y-15044643D01*
X9598414Y-15058929D01*
X9569843Y-15073214D01*
X9541271Y-15073214D01*
X9512700Y-15058929D01*
X9498414Y-15044643D01*
X9484129Y-15016071D01*
X9469843Y-14958929D01*
X9469843Y-14887500D01*
X9484129Y-14830357D01*
X9498414Y-14801786D01*
X9512700Y-14787500D01*
X9541271Y-14773214D01*
X9769843Y-15044643D02*
X9784129Y-15058929D01*
X9769843Y-15073214D01*
X9755557Y-15058929D01*
X9769843Y-15044643D01*
X9769843Y-15073214D01*
X9884128Y-14773214D02*
X10084128Y-14773214D01*
X9955557Y-15073214D01*
X10255557Y-14773214D02*
X10284129Y-14773214D01*
X10312700Y-14787500D01*
X10326986Y-14801786D01*
X10341271Y-14830357D01*
X10355557Y-14887500D01*
X10355557Y-14958929D01*
X10341271Y-15016071D01*
X10326986Y-15044643D01*
X10312700Y-15058929D01*
X10284129Y-15073214D01*
X10255557Y-15073214D01*
X10226986Y-15058929D01*
X10212700Y-15044643D01*
X10198414Y-15016071D01*
X10184129Y-14958929D01*
X10184129Y-14887500D01*
X10198414Y-14830357D01*
X10212700Y-14801786D01*
X10226986Y-14787500D01*
X10255557Y-14773214D01*
X10484129Y-15073214D02*
X10484129Y-14873214D01*
X10484129Y-14901786D02*
X10498414Y-14887500D01*
X10526986Y-14873214D01*
X10569843Y-14873214D01*
X10598414Y-14887500D01*
X10612700Y-14916071D01*
X10612700Y-15073214D01*
X10612700Y-14916071D02*
X10626986Y-14887500D01*
X10655557Y-14873214D01*
X10698414Y-14873214D01*
X10726986Y-14887500D01*
X10741271Y-14916071D01*
X10741271Y-15073214D01*
X10884129Y-15073214D02*
X10884129Y-14873214D01*
X10884129Y-14901786D02*
X10898414Y-14887500D01*
X10926986Y-14873214D01*
X10969843Y-14873214D01*
X10998414Y-14887500D01*
X11012700Y-14916071D01*
X11012700Y-15073214D01*
X11012700Y-14916071D02*
X11026986Y-14887500D01*
X11055557Y-14873214D01*
X11098414Y-14873214D01*
X11126986Y-14887500D01*
X11141271Y-14916071D01*
X11141271Y-15073214D01*
X11726986Y-14758929D02*
X11469843Y-15144643D01*
X12112700Y-14773214D02*
X12141271Y-14773214D01*
X12169843Y-14787500D01*
X12184128Y-14801786D01*
X12198414Y-14830357D01*
X12212700Y-14887500D01*
X12212700Y-14958929D01*
X12198414Y-15016071D01*
X12184128Y-15044643D01*
X12169843Y-15058929D01*
X12141271Y-15073214D01*
X12112700Y-15073214D01*
X12084128Y-15058929D01*
X12069843Y-15044643D01*
X12055557Y-15016071D01*
X12041271Y-14958929D01*
X12041271Y-14887500D01*
X12055557Y-14830357D01*
X12069843Y-14801786D01*
X12084128Y-14787500D01*
X12112700Y-14773214D01*
X12341271Y-15044643D02*
X12355557Y-15058929D01*
X12341271Y-15073214D01*
X12326986Y-15058929D01*
X12341271Y-15044643D01*
X12341271Y-15073214D01*
X12541271Y-14773214D02*
X12569843Y-14773214D01*
X12598414Y-14787500D01*
X12612700Y-14801786D01*
X12626985Y-14830357D01*
X12641271Y-14887500D01*
X12641271Y-14958929D01*
X12626985Y-15016071D01*
X12612700Y-15044643D01*
X12598414Y-15058929D01*
X12569843Y-15073214D01*
X12541271Y-15073214D01*
X12512700Y-15058929D01*
X12498414Y-15044643D01*
X12484128Y-15016071D01*
X12469843Y-14958929D01*
X12469843Y-14887500D01*
X12484128Y-14830357D01*
X12498414Y-14801786D01*
X12512700Y-14787500D01*
X12541271Y-14773214D01*
X12755557Y-14801786D02*
X12769843Y-14787500D01*
X12798414Y-14773214D01*
X12869843Y-14773214D01*
X12898414Y-14787500D01*
X12912700Y-14801786D01*
X12926985Y-14830357D01*
X12926985Y-14858929D01*
X12912700Y-14901786D01*
X12741271Y-15073214D01*
X12926985Y-15073214D01*
X13098414Y-14901786D02*
X13069843Y-14887500D01*
X13055557Y-14873214D01*
X13041271Y-14844643D01*
X13041271Y-14830357D01*
X13055557Y-14801786D01*
X13069843Y-14787500D01*
X13098414Y-14773214D01*
X13155557Y-14773214D01*
X13184128Y-14787500D01*
X13198414Y-14801786D01*
X13212700Y-14830357D01*
X13212700Y-14844643D01*
X13198414Y-14873214D01*
X13184128Y-14887500D01*
X13155557Y-14901786D01*
X13098414Y-14901786D01*
X13069843Y-14916071D01*
X13055557Y-14930357D01*
X13041271Y-14958929D01*
X13041271Y-15016071D01*
X13055557Y-15044643D01*
X13069843Y-15058929D01*
X13098414Y-15073214D01*
X13155557Y-15073214D01*
X13184128Y-15058929D01*
X13198414Y-15044643D01*
X13212700Y-15016071D01*
X13212700Y-14958929D01*
X13198414Y-14930357D01*
X13184128Y-14916071D01*
X13155557Y-14901786D01*
X13326986Y-14773214D02*
X13326986Y-14830357D01*
X13441271Y-14773214D02*
X13441271Y-14830357D01*
X13884128Y-15187500D02*
X13869843Y-15173214D01*
X13841271Y-15130357D01*
X13826985Y-15101786D01*
X13812700Y-15058929D01*
X13798414Y-14987500D01*
X13798414Y-14930357D01*
X13812700Y-14858929D01*
X13826985Y-14816071D01*
X13841271Y-14787500D01*
X13869843Y-14744643D01*
X13884128Y-14730357D01*
X14041271Y-14901786D02*
X14012700Y-14887500D01*
X13998414Y-14873214D01*
X13984128Y-14844643D01*
X13984128Y-14830357D01*
X13998414Y-14801786D01*
X14012700Y-14787500D01*
X14041271Y-14773214D01*
X14098414Y-14773214D01*
X14126985Y-14787500D01*
X14141271Y-14801786D01*
X14155557Y-14830357D01*
X14155557Y-14844643D01*
X14141271Y-14873214D01*
X14126985Y-14887500D01*
X14098414Y-14901786D01*
X14041271Y-14901786D01*
X14012700Y-14916071D01*
X13998414Y-14930357D01*
X13984128Y-14958929D01*
X13984128Y-15016071D01*
X13998414Y-15044643D01*
X14012700Y-15058929D01*
X14041271Y-15073214D01*
X14098414Y-15073214D01*
X14126985Y-15058929D01*
X14141271Y-15044643D01*
X14155557Y-15016071D01*
X14155557Y-14958929D01*
X14141271Y-14930357D01*
X14126985Y-14916071D01*
X14098414Y-14901786D01*
X14341271Y-14773214D02*
X14369843Y-14773214D01*
X14398414Y-14787500D01*
X14412700Y-14801786D01*
X14426985Y-14830357D01*
X14441271Y-14887500D01*
X14441271Y-14958929D01*
X14426985Y-15016071D01*
X14412700Y-15044643D01*
X14398414Y-15058929D01*
X14369843Y-15073214D01*
X14341271Y-15073214D01*
X14312700Y-15058929D01*
X14298414Y-15044643D01*
X14284128Y-15016071D01*
X14269843Y-14958929D01*
X14269843Y-14887500D01*
X14284128Y-14830357D01*
X14298414Y-14801786D01*
X14312700Y-14787500D01*
X14341271Y-14773214D01*
X14798414Y-15073214D02*
X14798414Y-14773214D01*
X14926985Y-15073214D02*
X14926985Y-14916071D01*
X14912700Y-14887500D01*
X14884128Y-14873214D01*
X14841271Y-14873214D01*
X14812700Y-14887500D01*
X14798414Y-14901786D01*
X15112700Y-15073214D02*
X15084128Y-15058929D01*
X15069843Y-15044643D01*
X15055557Y-15016071D01*
X15055557Y-14930357D01*
X15069843Y-14901786D01*
X15084128Y-14887500D01*
X15112700Y-14873214D01*
X15155557Y-14873214D01*
X15184128Y-14887500D01*
X15198414Y-14901786D01*
X15212700Y-14930357D01*
X15212700Y-15016071D01*
X15198414Y-15044643D01*
X15184128Y-15058929D01*
X15155557Y-15073214D01*
X15112700Y-15073214D01*
X15384128Y-15073214D02*
X15355557Y-15058929D01*
X15341271Y-15030357D01*
X15341271Y-14773214D01*
X15612700Y-15058929D02*
X15584128Y-15073214D01*
X15526986Y-15073214D01*
X15498414Y-15058929D01*
X15484128Y-15030357D01*
X15484128Y-14916071D01*
X15498414Y-14887500D01*
X15526986Y-14873214D01*
X15584128Y-14873214D01*
X15612700Y-14887500D01*
X15626986Y-14916071D01*
X15626986Y-14944643D01*
X15484128Y-14973214D01*
X15741271Y-15058929D02*
X15769843Y-15073214D01*
X15826986Y-15073214D01*
X15855557Y-15058929D01*
X15869843Y-15030357D01*
X15869843Y-15016071D01*
X15855557Y-14987500D01*
X15826986Y-14973214D01*
X15784128Y-14973214D01*
X15755557Y-14958929D01*
X15741271Y-14930357D01*
X15741271Y-14916071D01*
X15755557Y-14887500D01*
X15784128Y-14873214D01*
X15826986Y-14873214D01*
X15855557Y-14887500D01*
X15969843Y-15187500D02*
X15984128Y-15173214D01*
X16012700Y-15130357D01*
X16026986Y-15101786D01*
X16041271Y-15058929D01*
X16055557Y-14987500D01*
X16055557Y-14930357D01*
X16041271Y-14858929D01*
X16026986Y-14816071D01*
X16012700Y-14787500D01*
X15984128Y-14744643D01*
X15969843Y-14730357D01*
X9212700Y-15333500D02*
G75*
G03X9212700Y-15333500I-50000J0D01*
G01*
X9641271Y-15469214D02*
X9469843Y-15469214D01*
X9555557Y-15469214D02*
X9555557Y-15169214D01*
X9526986Y-15212071D01*
X9498414Y-15240643D01*
X9469843Y-15254929D01*
X9769843Y-15440643D02*
X9784129Y-15454929D01*
X9769843Y-15469214D01*
X9755557Y-15454929D01*
X9769843Y-15440643D01*
X9769843Y-15469214D01*
X9969843Y-15169214D02*
X9998414Y-15169214D01*
X10026986Y-15183500D01*
X10041271Y-15197786D01*
X10055557Y-15226357D01*
X10069843Y-15283500D01*
X10069843Y-15354929D01*
X10055557Y-15412071D01*
X10041271Y-15440643D01*
X10026986Y-15454929D01*
X9998414Y-15469214D01*
X9969843Y-15469214D01*
X9941271Y-15454929D01*
X9926986Y-15440643D01*
X9912700Y-15412071D01*
X9898414Y-15354929D01*
X9898414Y-15283500D01*
X9912700Y-15226357D01*
X9926986Y-15197786D01*
X9941271Y-15183500D01*
X9969843Y-15169214D01*
X10255557Y-15169214D02*
X10284129Y-15169214D01*
X10312700Y-15183500D01*
X10326986Y-15197786D01*
X10341271Y-15226357D01*
X10355557Y-15283500D01*
X10355557Y-15354929D01*
X10341271Y-15412071D01*
X10326986Y-15440643D01*
X10312700Y-15454929D01*
X10284129Y-15469214D01*
X10255557Y-15469214D01*
X10226986Y-15454929D01*
X10212700Y-15440643D01*
X10198414Y-15412071D01*
X10184129Y-15354929D01*
X10184129Y-15283500D01*
X10198414Y-15226357D01*
X10212700Y-15197786D01*
X10226986Y-15183500D01*
X10255557Y-15169214D01*
X10484129Y-15469214D02*
X10484129Y-15269214D01*
X10484129Y-15297786D02*
X10498414Y-15283500D01*
X10526986Y-15269214D01*
X10569843Y-15269214D01*
X10598414Y-15283500D01*
X10612700Y-15312071D01*
X10612700Y-15469214D01*
X10612700Y-15312071D02*
X10626986Y-15283500D01*
X10655557Y-15269214D01*
X10698414Y-15269214D01*
X10726986Y-15283500D01*
X10741271Y-15312071D01*
X10741271Y-15469214D01*
X10884129Y-15469214D02*
X10884129Y-15269214D01*
X10884129Y-15297786D02*
X10898414Y-15283500D01*
X10926986Y-15269214D01*
X10969843Y-15269214D01*
X10998414Y-15283500D01*
X11012700Y-15312071D01*
X11012700Y-15469214D01*
X11012700Y-15312071D02*
X11026986Y-15283500D01*
X11055557Y-15269214D01*
X11098414Y-15269214D01*
X11126986Y-15283500D01*
X11141271Y-15312071D01*
X11141271Y-15469214D01*
X11726986Y-15154929D02*
X11469843Y-15540643D01*
X12112700Y-15169214D02*
X12141271Y-15169214D01*
X12169843Y-15183500D01*
X12184128Y-15197786D01*
X12198414Y-15226357D01*
X12212700Y-15283500D01*
X12212700Y-15354929D01*
X12198414Y-15412071D01*
X12184128Y-15440643D01*
X12169843Y-15454929D01*
X12141271Y-15469214D01*
X12112700Y-15469214D01*
X12084128Y-15454929D01*
X12069843Y-15440643D01*
X12055557Y-15412071D01*
X12041271Y-15354929D01*
X12041271Y-15283500D01*
X12055557Y-15226357D01*
X12069843Y-15197786D01*
X12084128Y-15183500D01*
X12112700Y-15169214D01*
X12341271Y-15440643D02*
X12355557Y-15454929D01*
X12341271Y-15469214D01*
X12326986Y-15454929D01*
X12341271Y-15440643D01*
X12341271Y-15469214D01*
X12541271Y-15169214D02*
X12569843Y-15169214D01*
X12598414Y-15183500D01*
X12612700Y-15197786D01*
X12626985Y-15226357D01*
X12641271Y-15283500D01*
X12641271Y-15354929D01*
X12626985Y-15412071D01*
X12612700Y-15440643D01*
X12598414Y-15454929D01*
X12569843Y-15469214D01*
X12541271Y-15469214D01*
X12512700Y-15454929D01*
X12498414Y-15440643D01*
X12484128Y-15412071D01*
X12469843Y-15354929D01*
X12469843Y-15283500D01*
X12484128Y-15226357D01*
X12498414Y-15197786D01*
X12512700Y-15183500D01*
X12541271Y-15169214D01*
X12741271Y-15169214D02*
X12926985Y-15169214D01*
X12826985Y-15283500D01*
X12869843Y-15283500D01*
X12898414Y-15297786D01*
X12912700Y-15312071D01*
X12926985Y-15340643D01*
X12926985Y-15412071D01*
X12912700Y-15440643D01*
X12898414Y-15454929D01*
X12869843Y-15469214D01*
X12784128Y-15469214D01*
X12755557Y-15454929D01*
X12741271Y-15440643D01*
X13069843Y-15469214D02*
X13126985Y-15469214D01*
X13155557Y-15454929D01*
X13169843Y-15440643D01*
X13198414Y-15397786D01*
X13212700Y-15340643D01*
X13212700Y-15226357D01*
X13198414Y-15197786D01*
X13184128Y-15183500D01*
X13155557Y-15169214D01*
X13098414Y-15169214D01*
X13069843Y-15183500D01*
X13055557Y-15197786D01*
X13041271Y-15226357D01*
X13041271Y-15297786D01*
X13055557Y-15326357D01*
X13069843Y-15340643D01*
X13098414Y-15354929D01*
X13155557Y-15354929D01*
X13184128Y-15340643D01*
X13198414Y-15326357D01*
X13212700Y-15297786D01*
X13326986Y-15169214D02*
X13326986Y-15226357D01*
X13441271Y-15169214D02*
X13441271Y-15226357D01*
X13884128Y-15583500D02*
X13869843Y-15569214D01*
X13841271Y-15526357D01*
X13826985Y-15497786D01*
X13812700Y-15454929D01*
X13798414Y-15383500D01*
X13798414Y-15326357D01*
X13812700Y-15254929D01*
X13826985Y-15212071D01*
X13841271Y-15183500D01*
X13869843Y-15140643D01*
X13884128Y-15126357D01*
X14155557Y-15469214D02*
X13984128Y-15469214D01*
X14069843Y-15469214D02*
X14069843Y-15169214D01*
X14041271Y-15212071D01*
X14012700Y-15240643D01*
X13984128Y-15254929D01*
X14412700Y-15269214D02*
X14412700Y-15469214D01*
X14341271Y-15154929D02*
X14269843Y-15369214D01*
X14455557Y-15369214D01*
X14798414Y-15469214D02*
X14798414Y-15169214D01*
X14926985Y-15469214D02*
X14926985Y-15312071D01*
X14912700Y-15283500D01*
X14884128Y-15269214D01*
X14841271Y-15269214D01*
X14812700Y-15283500D01*
X14798414Y-15297786D01*
X15112700Y-15469214D02*
X15084128Y-15454929D01*
X15069843Y-15440643D01*
X15055557Y-15412071D01*
X15055557Y-15326357D01*
X15069843Y-15297786D01*
X15084128Y-15283500D01*
X15112700Y-15269214D01*
X15155557Y-15269214D01*
X15184128Y-15283500D01*
X15198414Y-15297786D01*
X15212700Y-15326357D01*
X15212700Y-15412071D01*
X15198414Y-15440643D01*
X15184128Y-15454929D01*
X15155557Y-15469214D01*
X15112700Y-15469214D01*
X15384128Y-15469214D02*
X15355557Y-15454929D01*
X15341271Y-15426357D01*
X15341271Y-15169214D01*
X15612700Y-15454929D02*
X15584128Y-15469214D01*
X15526986Y-15469214D01*
X15498414Y-15454929D01*
X15484128Y-15426357D01*
X15484128Y-15312071D01*
X15498414Y-15283500D01*
X15526986Y-15269214D01*
X15584128Y-15269214D01*
X15612700Y-15283500D01*
X15626986Y-15312071D01*
X15626986Y-15340643D01*
X15484128Y-15369214D01*
X15741271Y-15454929D02*
X15769843Y-15469214D01*
X15826986Y-15469214D01*
X15855557Y-15454929D01*
X15869843Y-15426357D01*
X15869843Y-15412071D01*
X15855557Y-15383500D01*
X15826986Y-15369214D01*
X15784128Y-15369214D01*
X15755557Y-15354929D01*
X15741271Y-15326357D01*
X15741271Y-15312071D01*
X15755557Y-15283500D01*
X15784128Y-15269214D01*
X15826986Y-15269214D01*
X15855557Y-15283500D01*
X15969843Y-15583500D02*
X15984128Y-15569214D01*
X16012700Y-15526357D01*
X16026986Y-15497786D01*
X16041271Y-15454929D01*
X16055557Y-15383500D01*
X16055557Y-15326357D01*
X16041271Y-15254929D01*
X16026986Y-15212071D01*
X16012700Y-15183500D01*
X15984128Y-15140643D01*
X15969843Y-15126357D01*
X9157700Y-15674500D02*
X9157700Y-15784500D01*
X9102700Y-15729500D02*
X9212700Y-15729500D01*
X9641271Y-15865214D02*
X9469843Y-15865214D01*
X9555557Y-15865214D02*
X9555557Y-15565214D01*
X9526986Y-15608071D01*
X9498414Y-15636643D01*
X9469843Y-15650929D01*
X9769843Y-15836643D02*
X9784129Y-15850929D01*
X9769843Y-15865214D01*
X9755557Y-15850929D01*
X9769843Y-15836643D01*
X9769843Y-15865214D01*
X10069843Y-15865214D02*
X9898414Y-15865214D01*
X9984128Y-15865214D02*
X9984128Y-15565214D01*
X9955557Y-15608071D01*
X9926986Y-15636643D01*
X9898414Y-15650929D01*
X10255557Y-15565214D02*
X10284129Y-15565214D01*
X10312700Y-15579500D01*
X10326986Y-15593786D01*
X10341271Y-15622357D01*
X10355557Y-15679500D01*
X10355557Y-15750929D01*
X10341271Y-15808071D01*
X10326986Y-15836643D01*
X10312700Y-15850929D01*
X10284129Y-15865214D01*
X10255557Y-15865214D01*
X10226986Y-15850929D01*
X10212700Y-15836643D01*
X10198414Y-15808071D01*
X10184129Y-15750929D01*
X10184129Y-15679500D01*
X10198414Y-15622357D01*
X10212700Y-15593786D01*
X10226986Y-15579500D01*
X10255557Y-15565214D01*
X10484129Y-15865214D02*
X10484129Y-15665214D01*
X10484129Y-15693786D02*
X10498414Y-15679500D01*
X10526986Y-15665214D01*
X10569843Y-15665214D01*
X10598414Y-15679500D01*
X10612700Y-15708071D01*
X10612700Y-15865214D01*
X10612700Y-15708071D02*
X10626986Y-15679500D01*
X10655557Y-15665214D01*
X10698414Y-15665214D01*
X10726986Y-15679500D01*
X10741271Y-15708071D01*
X10741271Y-15865214D01*
X10884129Y-15865214D02*
X10884129Y-15665214D01*
X10884129Y-15693786D02*
X10898414Y-15679500D01*
X10926986Y-15665214D01*
X10969843Y-15665214D01*
X10998414Y-15679500D01*
X11012700Y-15708071D01*
X11012700Y-15865214D01*
X11012700Y-15708071D02*
X11026986Y-15679500D01*
X11055557Y-15665214D01*
X11098414Y-15665214D01*
X11126986Y-15679500D01*
X11141271Y-15708071D01*
X11141271Y-15865214D01*
X11726986Y-15550929D02*
X11469843Y-15936643D01*
X12112700Y-15565214D02*
X12141271Y-15565214D01*
X12169843Y-15579500D01*
X12184128Y-15593786D01*
X12198414Y-15622357D01*
X12212700Y-15679500D01*
X12212700Y-15750929D01*
X12198414Y-15808071D01*
X12184128Y-15836643D01*
X12169843Y-15850929D01*
X12141271Y-15865214D01*
X12112700Y-15865214D01*
X12084128Y-15850929D01*
X12069843Y-15836643D01*
X12055557Y-15808071D01*
X12041271Y-15750929D01*
X12041271Y-15679500D01*
X12055557Y-15622357D01*
X12069843Y-15593786D01*
X12084128Y-15579500D01*
X12112700Y-15565214D01*
X12341271Y-15836643D02*
X12355557Y-15850929D01*
X12341271Y-15865214D01*
X12326986Y-15850929D01*
X12341271Y-15836643D01*
X12341271Y-15865214D01*
X12541271Y-15565214D02*
X12569843Y-15565214D01*
X12598414Y-15579500D01*
X12612700Y-15593786D01*
X12626985Y-15622357D01*
X12641271Y-15679500D01*
X12641271Y-15750929D01*
X12626985Y-15808071D01*
X12612700Y-15836643D01*
X12598414Y-15850929D01*
X12569843Y-15865214D01*
X12541271Y-15865214D01*
X12512700Y-15850929D01*
X12498414Y-15836643D01*
X12484128Y-15808071D01*
X12469843Y-15750929D01*
X12469843Y-15679500D01*
X12484128Y-15622357D01*
X12498414Y-15593786D01*
X12512700Y-15579500D01*
X12541271Y-15565214D01*
X12898414Y-15665214D02*
X12898414Y-15865214D01*
X12826985Y-15550929D02*
X12755557Y-15765214D01*
X12941271Y-15765214D01*
X13026985Y-15565214D02*
X13212700Y-15565214D01*
X13112700Y-15679500D01*
X13155557Y-15679500D01*
X13184128Y-15693786D01*
X13198414Y-15708071D01*
X13212700Y-15736643D01*
X13212700Y-15808071D01*
X13198414Y-15836643D01*
X13184128Y-15850929D01*
X13155557Y-15865214D01*
X13069843Y-15865214D01*
X13041271Y-15850929D01*
X13026985Y-15836643D01*
X13326986Y-15565214D02*
X13326986Y-15622357D01*
X13441271Y-15565214D02*
X13441271Y-15622357D01*
X13884128Y-15979500D02*
X13869843Y-15965214D01*
X13841271Y-15922357D01*
X13826985Y-15893786D01*
X13812700Y-15850929D01*
X13798414Y-15779500D01*
X13798414Y-15722357D01*
X13812700Y-15650929D01*
X13826985Y-15608071D01*
X13841271Y-15579500D01*
X13869843Y-15536643D01*
X13884128Y-15522357D01*
X14012700Y-15865214D02*
X14069843Y-15865214D01*
X14098414Y-15850929D01*
X14112700Y-15836643D01*
X14141271Y-15793786D01*
X14155557Y-15736643D01*
X14155557Y-15622357D01*
X14141271Y-15593786D01*
X14126985Y-15579500D01*
X14098414Y-15565214D01*
X14041271Y-15565214D01*
X14012700Y-15579500D01*
X13998414Y-15593786D01*
X13984128Y-15622357D01*
X13984128Y-15693786D01*
X13998414Y-15722357D01*
X14012700Y-15736643D01*
X14041271Y-15750929D01*
X14098414Y-15750929D01*
X14126985Y-15736643D01*
X14141271Y-15722357D01*
X14155557Y-15693786D01*
X14512700Y-15865214D02*
X14512700Y-15565214D01*
X14641271Y-15865214D02*
X14641271Y-15708071D01*
X14626985Y-15679500D01*
X14598414Y-15665214D01*
X14555557Y-15665214D01*
X14526985Y-15679500D01*
X14512700Y-15693786D01*
X14826985Y-15865214D02*
X14798414Y-15850929D01*
X14784128Y-15836643D01*
X14769843Y-15808071D01*
X14769843Y-15722357D01*
X14784128Y-15693786D01*
X14798414Y-15679500D01*
X14826985Y-15665214D01*
X14869843Y-15665214D01*
X14898414Y-15679500D01*
X14912700Y-15693786D01*
X14926985Y-15722357D01*
X14926985Y-15808071D01*
X14912700Y-15836643D01*
X14898414Y-15850929D01*
X14869843Y-15865214D01*
X14826985Y-15865214D01*
X15098414Y-15865214D02*
X15069843Y-15850929D01*
X15055557Y-15822357D01*
X15055557Y-15565214D01*
X15326986Y-15850929D02*
X15298414Y-15865214D01*
X15241271Y-15865214D01*
X15212700Y-15850929D01*
X15198414Y-15822357D01*
X15198414Y-15708071D01*
X15212700Y-15679500D01*
X15241271Y-15665214D01*
X15298414Y-15665214D01*
X15326986Y-15679500D01*
X15341271Y-15708071D01*
X15341271Y-15736643D01*
X15198414Y-15765214D01*
X15455557Y-15850929D02*
X15484128Y-15865214D01*
X15541271Y-15865214D01*
X15569843Y-15850929D01*
X15584128Y-15822357D01*
X15584128Y-15808071D01*
X15569843Y-15779500D01*
X15541271Y-15765214D01*
X15498414Y-15765214D01*
X15469843Y-15750929D01*
X15455557Y-15722357D01*
X15455557Y-15708071D01*
X15469843Y-15679500D01*
X15498414Y-15665214D01*
X15541271Y-15665214D01*
X15569843Y-15679500D01*
X15684128Y-15979500D02*
X15698414Y-15965214D01*
X15726986Y-15922357D01*
X15741271Y-15893786D01*
X15755557Y-15850929D01*
X15769843Y-15779500D01*
X15769843Y-15722357D01*
X15755557Y-15650929D01*
X15741271Y-15608071D01*
X15726986Y-15579500D01*
X15698414Y-15536643D01*
X15684128Y-15522357D01*
X9165838Y-16238638D02*
X9165838Y-16012362D01*
X8939562Y-16012362D01*
X8939562Y-16238638D01*
X9165838Y-16238638D01*
X9455557Y-15961214D02*
X9641271Y-15961214D01*
X9541271Y-16075500D01*
X9584129Y-16075500D01*
X9612700Y-16089786D01*
X9626986Y-16104071D01*
X9641271Y-16132643D01*
X9641271Y-16204071D01*
X9626986Y-16232643D01*
X9612700Y-16246929D01*
X9584129Y-16261214D01*
X9498414Y-16261214D01*
X9469843Y-16246929D01*
X9455557Y-16232643D01*
X9769843Y-16232643D02*
X9784129Y-16246929D01*
X9769843Y-16261214D01*
X9755557Y-16246929D01*
X9769843Y-16232643D01*
X9769843Y-16261214D01*
X9898414Y-15989786D02*
X9912700Y-15975500D01*
X9941271Y-15961214D01*
X10012700Y-15961214D01*
X10041271Y-15975500D01*
X10055557Y-15989786D01*
X10069843Y-16018357D01*
X10069843Y-16046929D01*
X10055557Y-16089786D01*
X9884128Y-16261214D01*
X10069843Y-16261214D01*
X10255557Y-15961214D02*
X10284129Y-15961214D01*
X10312700Y-15975500D01*
X10326986Y-15989786D01*
X10341271Y-16018357D01*
X10355557Y-16075500D01*
X10355557Y-16146929D01*
X10341271Y-16204071D01*
X10326986Y-16232643D01*
X10312700Y-16246929D01*
X10284129Y-16261214D01*
X10255557Y-16261214D01*
X10226986Y-16246929D01*
X10212700Y-16232643D01*
X10198414Y-16204071D01*
X10184129Y-16146929D01*
X10184129Y-16075500D01*
X10198414Y-16018357D01*
X10212700Y-15989786D01*
X10226986Y-15975500D01*
X10255557Y-15961214D01*
X10484129Y-16261214D02*
X10484129Y-16061214D01*
X10484129Y-16089786D02*
X10498414Y-16075500D01*
X10526986Y-16061214D01*
X10569843Y-16061214D01*
X10598414Y-16075500D01*
X10612700Y-16104071D01*
X10612700Y-16261214D01*
X10612700Y-16104071D02*
X10626986Y-16075500D01*
X10655557Y-16061214D01*
X10698414Y-16061214D01*
X10726986Y-16075500D01*
X10741271Y-16104071D01*
X10741271Y-16261214D01*
X10884129Y-16261214D02*
X10884129Y-16061214D01*
X10884129Y-16089786D02*
X10898414Y-16075500D01*
X10926986Y-16061214D01*
X10969843Y-16061214D01*
X10998414Y-16075500D01*
X11012700Y-16104071D01*
X11012700Y-16261214D01*
X11012700Y-16104071D02*
X11026986Y-16075500D01*
X11055557Y-16061214D01*
X11098414Y-16061214D01*
X11126986Y-16075500D01*
X11141271Y-16104071D01*
X11141271Y-16261214D01*
X11726986Y-15946929D02*
X11469843Y-16332643D01*
X12112700Y-15961214D02*
X12141271Y-15961214D01*
X12169843Y-15975500D01*
X12184128Y-15989786D01*
X12198414Y-16018357D01*
X12212700Y-16075500D01*
X12212700Y-16146929D01*
X12198414Y-16204071D01*
X12184128Y-16232643D01*
X12169843Y-16246929D01*
X12141271Y-16261214D01*
X12112700Y-16261214D01*
X12084128Y-16246929D01*
X12069843Y-16232643D01*
X12055557Y-16204071D01*
X12041271Y-16146929D01*
X12041271Y-16075500D01*
X12055557Y-16018357D01*
X12069843Y-15989786D01*
X12084128Y-15975500D01*
X12112700Y-15961214D01*
X12341271Y-16232643D02*
X12355557Y-16246929D01*
X12341271Y-16261214D01*
X12326986Y-16246929D01*
X12341271Y-16232643D01*
X12341271Y-16261214D01*
X12641271Y-16261214D02*
X12469843Y-16261214D01*
X12555557Y-16261214D02*
X12555557Y-15961214D01*
X12526985Y-16004071D01*
X12498414Y-16032643D01*
X12469843Y-16046929D01*
X12755557Y-15989786D02*
X12769843Y-15975500D01*
X12798414Y-15961214D01*
X12869843Y-15961214D01*
X12898414Y-15975500D01*
X12912700Y-15989786D01*
X12926985Y-16018357D01*
X12926985Y-16046929D01*
X12912700Y-16089786D01*
X12741271Y-16261214D01*
X12926985Y-16261214D01*
X13184128Y-15961214D02*
X13126985Y-15961214D01*
X13098414Y-15975500D01*
X13084128Y-15989786D01*
X13055557Y-16032643D01*
X13041271Y-16089786D01*
X13041271Y-16204071D01*
X13055557Y-16232643D01*
X13069843Y-16246929D01*
X13098414Y-16261214D01*
X13155557Y-16261214D01*
X13184128Y-16246929D01*
X13198414Y-16232643D01*
X13212700Y-16204071D01*
X13212700Y-16132643D01*
X13198414Y-16104071D01*
X13184128Y-16089786D01*
X13155557Y-16075500D01*
X13098414Y-16075500D01*
X13069843Y-16089786D01*
X13055557Y-16104071D01*
X13041271Y-16132643D01*
X13326986Y-15961214D02*
X13326986Y-16018357D01*
X13441271Y-15961214D02*
X13441271Y-16018357D01*
X13884128Y-16375500D02*
X13869843Y-16361214D01*
X13841271Y-16318357D01*
X13826985Y-16289786D01*
X13812700Y-16246929D01*
X13798414Y-16175500D01*
X13798414Y-16118357D01*
X13812700Y-16046929D01*
X13826985Y-16004071D01*
X13841271Y-15975500D01*
X13869843Y-15932643D01*
X13884128Y-15918357D01*
X14126985Y-15961214D02*
X14069843Y-15961214D01*
X14041271Y-15975500D01*
X14026985Y-15989786D01*
X13998414Y-16032643D01*
X13984128Y-16089786D01*
X13984128Y-16204071D01*
X13998414Y-16232643D01*
X14012700Y-16246929D01*
X14041271Y-16261214D01*
X14098414Y-16261214D01*
X14126985Y-16246929D01*
X14141271Y-16232643D01*
X14155557Y-16204071D01*
X14155557Y-16132643D01*
X14141271Y-16104071D01*
X14126985Y-16089786D01*
X14098414Y-16075500D01*
X14041271Y-16075500D01*
X14012700Y-16089786D01*
X13998414Y-16104071D01*
X13984128Y-16132643D01*
X14512700Y-16261214D02*
X14512700Y-15961214D01*
X14641271Y-16261214D02*
X14641271Y-16104071D01*
X14626985Y-16075500D01*
X14598414Y-16061214D01*
X14555557Y-16061214D01*
X14526985Y-16075500D01*
X14512700Y-16089786D01*
X14826985Y-16261214D02*
X14798414Y-16246929D01*
X14784128Y-16232643D01*
X14769843Y-16204071D01*
X14769843Y-16118357D01*
X14784128Y-16089786D01*
X14798414Y-16075500D01*
X14826985Y-16061214D01*
X14869843Y-16061214D01*
X14898414Y-16075500D01*
X14912700Y-16089786D01*
X14926985Y-16118357D01*
X14926985Y-16204071D01*
X14912700Y-16232643D01*
X14898414Y-16246929D01*
X14869843Y-16261214D01*
X14826985Y-16261214D01*
X15098414Y-16261214D02*
X15069843Y-16246929D01*
X15055557Y-16218357D01*
X15055557Y-15961214D01*
X15326986Y-16246929D02*
X15298414Y-16261214D01*
X15241271Y-16261214D01*
X15212700Y-16246929D01*
X15198414Y-16218357D01*
X15198414Y-16104071D01*
X15212700Y-16075500D01*
X15241271Y-16061214D01*
X15298414Y-16061214D01*
X15326986Y-16075500D01*
X15341271Y-16104071D01*
X15341271Y-16132643D01*
X15198414Y-16161214D01*
X15455557Y-16246929D02*
X15484128Y-16261214D01*
X15541271Y-16261214D01*
X15569843Y-16246929D01*
X15584128Y-16218357D01*
X15584128Y-16204071D01*
X15569843Y-16175500D01*
X15541271Y-16161214D01*
X15498414Y-16161214D01*
X15469843Y-16146929D01*
X15455557Y-16118357D01*
X15455557Y-16104071D01*
X15469843Y-16075500D01*
X15498414Y-16061214D01*
X15541271Y-16061214D01*
X15569843Y-16075500D01*
X15684128Y-16375500D02*
X15698414Y-16361214D01*
X15726986Y-16318357D01*
X15741271Y-16289786D01*
X15755557Y-16246929D01*
X15769843Y-16175500D01*
X15769843Y-16118357D01*
X15755557Y-16046929D01*
X15741271Y-16004071D01*
X15726986Y-15975500D01*
X15698414Y-15932643D01*
X15684128Y-15918357D01*
M02*
