G04 #@! TF.FileFunction,Legend,Top*
%FSLAX46Y46*%
G04 Gerber Fmt 4.6, Leading zero omitted, Abs format (unit mm)*
G04 Created by KiCad (PCBNEW 4.0.1-stable) date 10/28/16 04:05:47*
%MOMM*%
G01*
G04 APERTURE LIST*
%ADD10C,0.100000*%
%ADD11C,0.150000*%
G04 APERTURE END LIST*
D10*
D11*
X92202000Y-79756000D02*
X169291000Y-79756000D01*
X169291000Y-139700000D02*
X92202000Y-139700000D01*
X92202000Y-79756000D02*
X92202000Y-87122000D01*
X169291000Y-139700000D02*
X169291000Y-79756000D01*
X92202000Y-97282000D02*
X92202000Y-139700000D01*
X92202000Y-97282000D02*
X92202000Y-85852000D01*
X135763000Y-112395000D02*
X135763000Y-113538000D01*
X128397000Y-112395000D02*
X128397000Y-113538000D01*
X128397000Y-94869000D02*
X128397000Y-93726000D01*
X135763000Y-94869000D02*
X135763000Y-93726000D01*
X135763000Y-97155000D02*
X135763000Y-97409000D01*
X135763000Y-99695000D02*
X135763000Y-99949000D01*
X135763000Y-102235000D02*
X135763000Y-102489000D01*
X135763000Y-104775000D02*
X135763000Y-105029000D01*
X135763000Y-107315000D02*
X135763000Y-107569000D01*
X135763000Y-110109000D02*
X135763000Y-109855000D01*
X128397000Y-109855000D02*
X128397000Y-110109000D01*
X128397000Y-107315000D02*
X128397000Y-107569000D01*
X128397000Y-104775000D02*
X128397000Y-105029000D01*
X128397000Y-102235000D02*
X128397000Y-102489000D01*
X128397000Y-99695000D02*
X128397000Y-99949000D01*
X128397000Y-97155000D02*
X128397000Y-97409000D01*
X132969000Y-93726000D02*
X135763000Y-93726000D01*
X128397000Y-93726000D02*
X131191000Y-93726000D01*
X131191000Y-93726000D02*
G75*
G03X132969000Y-93726000I889000J0D01*
G01*
X128405000Y-113547000D02*
X135755000Y-113547000D01*
X127952500Y-133096000D02*
X127825500Y-132969000D01*
X127825500Y-132969000D02*
X124650500Y-132969000D01*
X132461000Y-132969000D02*
X129159000Y-132969000D01*
X132461000Y-132842000D02*
X129349500Y-132842000D01*
X129349500Y-132842000D02*
X129476500Y-132715000D01*
X129476500Y-132715000D02*
X132461000Y-132715000D01*
X132461000Y-132715000D02*
X132461000Y-132588000D01*
X132461000Y-132588000D02*
X129603500Y-132588000D01*
X129603500Y-132588000D02*
X129667000Y-132461000D01*
X129667000Y-132461000D02*
X132461000Y-132461000D01*
X132461000Y-132461000D02*
X132397500Y-132334000D01*
X132397500Y-132334000D02*
X129730500Y-132334000D01*
X129730500Y-132334000D02*
X129794000Y-132207000D01*
X129794000Y-132207000D02*
X132334000Y-132207000D01*
X132334000Y-132207000D02*
X132334000Y-132080000D01*
X132334000Y-132080000D02*
X129794000Y-132080000D01*
X129794000Y-132080000D02*
X129794000Y-131953000D01*
X129794000Y-131953000D02*
X132334000Y-131953000D01*
X132334000Y-131953000D02*
X132270500Y-131826000D01*
X132270500Y-131826000D02*
X129857500Y-131826000D01*
X129857500Y-131826000D02*
X129857500Y-131699000D01*
X129857500Y-131699000D02*
X132207000Y-131699000D01*
X132207000Y-131699000D02*
X132143500Y-131572000D01*
X132143500Y-131572000D02*
X129794000Y-131572000D01*
X129794000Y-131572000D02*
X129730500Y-131445000D01*
X129730500Y-131445000D02*
X132143500Y-131445000D01*
X132143500Y-131445000D02*
X132016500Y-131318000D01*
X132016500Y-131318000D02*
X129730500Y-131318000D01*
X129730500Y-131318000D02*
X129667000Y-131191000D01*
X129667000Y-131191000D02*
X132016500Y-131191000D01*
X132016500Y-131191000D02*
X131889500Y-131064000D01*
X131889500Y-131064000D02*
X129540000Y-131064000D01*
X129540000Y-131064000D02*
X129476500Y-130937000D01*
X129476500Y-130937000D02*
X131889500Y-130937000D01*
X131889500Y-130937000D02*
X131699000Y-130810000D01*
X131699000Y-130810000D02*
X129349500Y-130810000D01*
X129349500Y-130810000D02*
X129159000Y-130683000D01*
X129159000Y-130683000D02*
X131635500Y-130683000D01*
X124587000Y-132842000D02*
X127698500Y-132842000D01*
X127698500Y-132842000D02*
X127571500Y-132715000D01*
X127571500Y-132715000D02*
X124587000Y-132715000D01*
X124587000Y-132715000D02*
X124650500Y-132588000D01*
X124650500Y-132588000D02*
X127444500Y-132588000D01*
X127444500Y-132588000D02*
X127317500Y-132461000D01*
X127317500Y-132461000D02*
X124587000Y-132461000D01*
X124587000Y-132461000D02*
X124650500Y-132334000D01*
X124650500Y-132334000D02*
X127317500Y-132334000D01*
X127317500Y-132334000D02*
X127254000Y-132207000D01*
X127254000Y-132207000D02*
X124714000Y-132207000D01*
X124714000Y-132207000D02*
X124714000Y-132080000D01*
X124714000Y-132080000D02*
X127254000Y-132080000D01*
X127254000Y-132080000D02*
X127254000Y-131953000D01*
X127254000Y-131953000D02*
X124714000Y-131953000D01*
X124714000Y-131953000D02*
X124777500Y-131826000D01*
X124777500Y-131826000D02*
X127254000Y-131826000D01*
X127254000Y-131826000D02*
X127254000Y-131699000D01*
X127254000Y-131699000D02*
X124777500Y-131699000D01*
X124777500Y-131699000D02*
X124841000Y-131572000D01*
X124841000Y-131572000D02*
X127254000Y-131572000D01*
X127254000Y-131572000D02*
X127254000Y-131445000D01*
X127254000Y-131445000D02*
X124904500Y-131445000D01*
X124904500Y-131445000D02*
X124968000Y-131318000D01*
X124968000Y-131318000D02*
X127317500Y-131318000D01*
X127317500Y-131318000D02*
X127381000Y-131191000D01*
X127381000Y-131191000D02*
X125031500Y-131191000D01*
X125031500Y-131191000D02*
X125095000Y-131064000D01*
X125095000Y-131064000D02*
X127508000Y-131064000D01*
X127508000Y-131064000D02*
X127571500Y-130937000D01*
X127571500Y-130937000D02*
X125222000Y-130937000D01*
X125222000Y-130937000D02*
X125285500Y-130810000D01*
X125285500Y-130810000D02*
X127698500Y-130810000D01*
X127698500Y-130810000D02*
X127889000Y-130683000D01*
X127889000Y-130683000D02*
X125412500Y-130683000D01*
X128016000Y-137922000D02*
X129032000Y-137922000D01*
X129032000Y-137922000D02*
X128524000Y-137922000D01*
X128524000Y-137922000D02*
X128524000Y-138430000D01*
X128524000Y-138430000D02*
X128524000Y-137414000D01*
X125539500Y-130556000D02*
X125920500Y-130175000D01*
X126619000Y-129603500D02*
X126555500Y-129730500D01*
X126555500Y-129730500D02*
X126492000Y-129921000D01*
X129730500Y-129349500D02*
X129540000Y-129349500D01*
X131381500Y-130429000D02*
X131254500Y-130302000D01*
X130746500Y-129921000D02*
X130683000Y-129857500D01*
X129794000Y-131826000D02*
G75*
G03X129794000Y-131826000I-1270000J0D01*
G01*
X124523500Y-133096000D02*
X132461000Y-133096000D01*
X132461000Y-133096000D02*
X132461000Y-132969000D01*
X125349000Y-130683000D02*
X125476000Y-130556000D01*
X125476000Y-130556000D02*
X131572000Y-130556000D01*
X131572000Y-130556000D02*
X131381500Y-130429000D01*
X131381500Y-130429000D02*
X125666500Y-130429000D01*
X125666500Y-130429000D02*
X125730000Y-130302000D01*
X125730000Y-130302000D02*
X131254500Y-130302000D01*
X131254500Y-130302000D02*
X131127500Y-130175000D01*
X131127500Y-130175000D02*
X125920500Y-130175000D01*
X125920500Y-130175000D02*
X126047500Y-130048000D01*
X126047500Y-130048000D02*
X131000500Y-130048000D01*
X131000500Y-130048000D02*
X130873500Y-129921000D01*
X130873500Y-129921000D02*
X126111000Y-129921000D01*
X126111000Y-129921000D02*
X126365000Y-129794000D01*
X126365000Y-129794000D02*
X130619500Y-129794000D01*
X130619500Y-129794000D02*
X130429000Y-129667000D01*
X130429000Y-129667000D02*
X126619000Y-129667000D01*
X126619000Y-129667000D02*
X126873000Y-129540000D01*
X126873000Y-129540000D02*
X130238500Y-129540000D01*
X130238500Y-129540000D02*
X129857500Y-129413000D01*
X129857500Y-129413000D02*
X127063500Y-129413000D01*
X127063500Y-129413000D02*
X127444500Y-129286000D01*
X127444500Y-129286000D02*
X129540000Y-129286000D01*
X129540000Y-129286000D02*
X129222500Y-129222500D01*
X129222500Y-129222500D02*
X127952500Y-129222500D01*
X132524000Y-133096000D02*
G75*
G03X132524000Y-133096000I-4000000J0D01*
G01*
X128206500Y-123444000D02*
X128079500Y-123317000D01*
X128079500Y-123317000D02*
X124904500Y-123317000D01*
X132715000Y-123317000D02*
X129413000Y-123317000D01*
X132715000Y-123190000D02*
X129603500Y-123190000D01*
X129603500Y-123190000D02*
X129730500Y-123063000D01*
X129730500Y-123063000D02*
X132715000Y-123063000D01*
X132715000Y-123063000D02*
X132715000Y-122936000D01*
X132715000Y-122936000D02*
X129857500Y-122936000D01*
X129857500Y-122936000D02*
X129921000Y-122809000D01*
X129921000Y-122809000D02*
X132715000Y-122809000D01*
X132715000Y-122809000D02*
X132651500Y-122682000D01*
X132651500Y-122682000D02*
X129984500Y-122682000D01*
X129984500Y-122682000D02*
X130048000Y-122555000D01*
X130048000Y-122555000D02*
X132588000Y-122555000D01*
X132588000Y-122555000D02*
X132588000Y-122428000D01*
X132588000Y-122428000D02*
X130048000Y-122428000D01*
X130048000Y-122428000D02*
X130048000Y-122301000D01*
X130048000Y-122301000D02*
X132588000Y-122301000D01*
X132588000Y-122301000D02*
X132524500Y-122174000D01*
X132524500Y-122174000D02*
X130111500Y-122174000D01*
X130111500Y-122174000D02*
X130111500Y-122047000D01*
X130111500Y-122047000D02*
X132461000Y-122047000D01*
X132461000Y-122047000D02*
X132397500Y-121920000D01*
X132397500Y-121920000D02*
X130048000Y-121920000D01*
X130048000Y-121920000D02*
X129984500Y-121793000D01*
X129984500Y-121793000D02*
X132397500Y-121793000D01*
X132397500Y-121793000D02*
X132270500Y-121666000D01*
X132270500Y-121666000D02*
X129984500Y-121666000D01*
X129984500Y-121666000D02*
X129921000Y-121539000D01*
X129921000Y-121539000D02*
X132270500Y-121539000D01*
X132270500Y-121539000D02*
X132143500Y-121412000D01*
X132143500Y-121412000D02*
X129794000Y-121412000D01*
X129794000Y-121412000D02*
X129730500Y-121285000D01*
X129730500Y-121285000D02*
X132143500Y-121285000D01*
X132143500Y-121285000D02*
X131953000Y-121158000D01*
X131953000Y-121158000D02*
X129603500Y-121158000D01*
X129603500Y-121158000D02*
X129413000Y-121031000D01*
X129413000Y-121031000D02*
X131889500Y-121031000D01*
X124841000Y-123190000D02*
X127952500Y-123190000D01*
X127952500Y-123190000D02*
X127825500Y-123063000D01*
X127825500Y-123063000D02*
X124841000Y-123063000D01*
X124841000Y-123063000D02*
X124904500Y-122936000D01*
X124904500Y-122936000D02*
X127698500Y-122936000D01*
X127698500Y-122936000D02*
X127571500Y-122809000D01*
X127571500Y-122809000D02*
X124841000Y-122809000D01*
X124841000Y-122809000D02*
X124904500Y-122682000D01*
X124904500Y-122682000D02*
X127571500Y-122682000D01*
X127571500Y-122682000D02*
X127508000Y-122555000D01*
X127508000Y-122555000D02*
X124968000Y-122555000D01*
X124968000Y-122555000D02*
X124968000Y-122428000D01*
X124968000Y-122428000D02*
X127508000Y-122428000D01*
X127508000Y-122428000D02*
X127508000Y-122301000D01*
X127508000Y-122301000D02*
X124968000Y-122301000D01*
X124968000Y-122301000D02*
X125031500Y-122174000D01*
X125031500Y-122174000D02*
X127508000Y-122174000D01*
X127508000Y-122174000D02*
X127508000Y-122047000D01*
X127508000Y-122047000D02*
X125031500Y-122047000D01*
X125031500Y-122047000D02*
X125095000Y-121920000D01*
X125095000Y-121920000D02*
X127508000Y-121920000D01*
X127508000Y-121920000D02*
X127508000Y-121793000D01*
X127508000Y-121793000D02*
X125158500Y-121793000D01*
X125158500Y-121793000D02*
X125222000Y-121666000D01*
X125222000Y-121666000D02*
X127571500Y-121666000D01*
X127571500Y-121666000D02*
X127635000Y-121539000D01*
X127635000Y-121539000D02*
X125285500Y-121539000D01*
X125285500Y-121539000D02*
X125349000Y-121412000D01*
X125349000Y-121412000D02*
X127762000Y-121412000D01*
X127762000Y-121412000D02*
X127825500Y-121285000D01*
X127825500Y-121285000D02*
X125476000Y-121285000D01*
X125476000Y-121285000D02*
X125539500Y-121158000D01*
X125539500Y-121158000D02*
X127952500Y-121158000D01*
X127952500Y-121158000D02*
X128143000Y-121031000D01*
X128143000Y-121031000D02*
X125666500Y-121031000D01*
X128270000Y-128270000D02*
X129286000Y-128270000D01*
X129286000Y-128270000D02*
X128778000Y-128270000D01*
X128778000Y-128270000D02*
X128778000Y-128778000D01*
X128778000Y-128778000D02*
X128778000Y-127762000D01*
X125793500Y-120904000D02*
X126174500Y-120523000D01*
X126873000Y-119951500D02*
X126809500Y-120078500D01*
X126809500Y-120078500D02*
X126746000Y-120269000D01*
X129984500Y-119697500D02*
X129794000Y-119697500D01*
X131635500Y-120777000D02*
X131508500Y-120650000D01*
X131000500Y-120269000D02*
X130937000Y-120205500D01*
X130048000Y-122174000D02*
G75*
G03X130048000Y-122174000I-1270000J0D01*
G01*
X124777500Y-123444000D02*
X132715000Y-123444000D01*
X132715000Y-123444000D02*
X132715000Y-123317000D01*
X125603000Y-121031000D02*
X125730000Y-120904000D01*
X125730000Y-120904000D02*
X131826000Y-120904000D01*
X131826000Y-120904000D02*
X131635500Y-120777000D01*
X131635500Y-120777000D02*
X125920500Y-120777000D01*
X125920500Y-120777000D02*
X125984000Y-120650000D01*
X125984000Y-120650000D02*
X131508500Y-120650000D01*
X131508500Y-120650000D02*
X131381500Y-120523000D01*
X131381500Y-120523000D02*
X126174500Y-120523000D01*
X126174500Y-120523000D02*
X126301500Y-120396000D01*
X126301500Y-120396000D02*
X131254500Y-120396000D01*
X131254500Y-120396000D02*
X131127500Y-120269000D01*
X131127500Y-120269000D02*
X126365000Y-120269000D01*
X126365000Y-120269000D02*
X126619000Y-120142000D01*
X126619000Y-120142000D02*
X130873500Y-120142000D01*
X130873500Y-120142000D02*
X130683000Y-120015000D01*
X130683000Y-120015000D02*
X126873000Y-120015000D01*
X126873000Y-120015000D02*
X127127000Y-119888000D01*
X127127000Y-119888000D02*
X130492500Y-119888000D01*
X130492500Y-119888000D02*
X130111500Y-119761000D01*
X130111500Y-119761000D02*
X127317500Y-119761000D01*
X127317500Y-119761000D02*
X127698500Y-119634000D01*
X127698500Y-119634000D02*
X129794000Y-119634000D01*
X129794000Y-119634000D02*
X129476500Y-119570500D01*
X129476500Y-119570500D02*
X128206500Y-119570500D01*
X132778000Y-123444000D02*
G75*
G03X132778000Y-123444000I-4000000J0D01*
G01*
X104394000Y-91186000D02*
X104394000Y-93726000D01*
X104674000Y-88366000D02*
X104674000Y-89916000D01*
X104394000Y-91186000D02*
X101854000Y-91186000D01*
X101574000Y-89916000D02*
X101574000Y-88366000D01*
X101574000Y-88366000D02*
X104674000Y-88366000D01*
X101854000Y-91186000D02*
X101854000Y-93726000D01*
X101854000Y-93726000D02*
X104394000Y-93726000D01*
X127254000Y-85344000D02*
X139954000Y-85344000D01*
X139954000Y-85344000D02*
X139954000Y-87884000D01*
X139954000Y-87884000D02*
X127254000Y-87884000D01*
X124434000Y-85064000D02*
X125984000Y-85064000D01*
X127254000Y-85344000D02*
X127254000Y-87884000D01*
X125984000Y-88164000D02*
X124434000Y-88164000D01*
X124434000Y-88164000D02*
X124434000Y-85064000D01*
X113792000Y-99314000D02*
X116332000Y-99314000D01*
X110972000Y-99034000D02*
X112522000Y-99034000D01*
X113792000Y-99314000D02*
X113792000Y-101854000D01*
X112522000Y-102134000D02*
X110972000Y-102134000D01*
X110972000Y-102134000D02*
X110972000Y-99034000D01*
X113792000Y-101854000D02*
X116332000Y-101854000D01*
X116332000Y-101854000D02*
X116332000Y-99314000D01*
X112268000Y-121158000D02*
X112268000Y-123698000D01*
X112548000Y-118338000D02*
X112548000Y-119888000D01*
X112268000Y-121158000D02*
X109728000Y-121158000D01*
X109448000Y-119888000D02*
X109448000Y-118338000D01*
X109448000Y-118338000D02*
X112548000Y-118338000D01*
X109728000Y-121158000D02*
X109728000Y-123698000D01*
X109728000Y-123698000D02*
X112268000Y-123698000D01*
X118618000Y-108458000D02*
X118618000Y-105918000D01*
X118338000Y-111278000D02*
X118338000Y-109728000D01*
X118618000Y-108458000D02*
X121158000Y-108458000D01*
X121438000Y-109728000D02*
X121438000Y-111278000D01*
X121438000Y-111278000D02*
X118338000Y-111278000D01*
X121158000Y-108458000D02*
X121158000Y-105918000D01*
X121158000Y-105918000D02*
X118618000Y-105918000D01*
X124460000Y-95377000D02*
X124460000Y-101727000D01*
X122428000Y-101727000D02*
X122428000Y-95377000D01*
X123444000Y-95377000D02*
X123444000Y-94742000D01*
X123444000Y-101727000D02*
X123444000Y-102362000D01*
X123444000Y-101727000D02*
X122428000Y-101727000D01*
X122428000Y-95377000D02*
X124460000Y-95377000D01*
X124460000Y-101727000D02*
X123444000Y-101727000D01*
X163068000Y-107061000D02*
X163068000Y-100711000D01*
X165100000Y-100711000D02*
X165100000Y-107061000D01*
X164084000Y-107061000D02*
X164084000Y-107696000D01*
X164084000Y-100711000D02*
X164084000Y-100076000D01*
X164084000Y-100711000D02*
X165100000Y-100711000D01*
X165100000Y-107061000D02*
X163068000Y-107061000D01*
X163068000Y-100711000D02*
X164084000Y-100711000D01*
X165100000Y-88011000D02*
X165100000Y-94361000D01*
X163068000Y-94361000D02*
X163068000Y-88011000D01*
X164084000Y-88011000D02*
X164084000Y-87376000D01*
X164084000Y-94361000D02*
X164084000Y-94996000D01*
X164084000Y-94361000D02*
X163068000Y-94361000D01*
X163068000Y-88011000D02*
X165100000Y-88011000D01*
X165100000Y-94361000D02*
X164084000Y-94361000D01*
X108458000Y-124333000D02*
X108458000Y-130683000D01*
X106426000Y-130683000D02*
X106426000Y-124333000D01*
X107442000Y-124333000D02*
X107442000Y-123698000D01*
X107442000Y-130683000D02*
X107442000Y-131318000D01*
X107442000Y-130683000D02*
X106426000Y-130683000D01*
X106426000Y-124333000D02*
X108458000Y-124333000D01*
X108458000Y-130683000D02*
X107442000Y-130683000D01*
X118872000Y-101727000D02*
X118872000Y-95377000D01*
X120904000Y-95377000D02*
X120904000Y-101727000D01*
X119888000Y-101727000D02*
X119888000Y-102362000D01*
X119888000Y-95377000D02*
X119888000Y-94742000D01*
X119888000Y-95377000D02*
X120904000Y-95377000D01*
X120904000Y-101727000D02*
X118872000Y-101727000D01*
X118872000Y-95377000D02*
X119888000Y-95377000D01*
X149987000Y-95123000D02*
X149987000Y-94869000D01*
X149987000Y-97663000D02*
X149987000Y-97409000D01*
X149987000Y-100203000D02*
X149987000Y-99949000D01*
X149987000Y-102743000D02*
X149987000Y-102489000D01*
X149987000Y-105283000D02*
X149987000Y-105029000D01*
X149987000Y-107823000D02*
X149987000Y-107569000D01*
X149987000Y-110109000D02*
X149987000Y-111252000D01*
X157353000Y-110109000D02*
X157353000Y-111252000D01*
X157353000Y-107569000D02*
X157353000Y-107823000D01*
X157353000Y-105029000D02*
X157353000Y-105283000D01*
X157353000Y-102489000D02*
X157353000Y-102743000D01*
X157353000Y-99949000D02*
X157353000Y-100203000D01*
X157353000Y-97409000D02*
X157353000Y-97663000D01*
X157353000Y-94869000D02*
X157353000Y-95123000D01*
X149987000Y-92329000D02*
X149987000Y-92583000D01*
X149987000Y-90043000D02*
X149987000Y-88900000D01*
X157353000Y-90043000D02*
X157353000Y-88900000D01*
X157353000Y-92329000D02*
X157353000Y-92583000D01*
X154559000Y-88900000D02*
X157353000Y-88900000D01*
X149987000Y-88900000D02*
X152781000Y-88900000D01*
X152781000Y-88900000D02*
G75*
G03X154559000Y-88900000I889000J0D01*
G01*
X149995000Y-111261000D02*
X157345000Y-111261000D01*
X122047000Y-128397000D02*
X122047000Y-128651000D01*
X122047000Y-125857000D02*
X122047000Y-126111000D01*
X122047000Y-123317000D02*
X122047000Y-123571000D01*
X122047000Y-120777000D02*
X122047000Y-121031000D01*
X122047000Y-118237000D02*
X122047000Y-118491000D01*
X122047000Y-115697000D02*
X122047000Y-115951000D01*
X122047000Y-113411000D02*
X122047000Y-112268000D01*
X114681000Y-113411000D02*
X114681000Y-112268000D01*
X114681000Y-115951000D02*
X114681000Y-115697000D01*
X114681000Y-118491000D02*
X114681000Y-118237000D01*
X114681000Y-121031000D02*
X114681000Y-120777000D01*
X114681000Y-123571000D02*
X114681000Y-123317000D01*
X114681000Y-126111000D02*
X114681000Y-125857000D01*
X114681000Y-128651000D02*
X114681000Y-128397000D01*
X122047000Y-131191000D02*
X122047000Y-130937000D01*
X122047000Y-133477000D02*
X122047000Y-134620000D01*
X114681000Y-133477000D02*
X114681000Y-134620000D01*
X114681000Y-131191000D02*
X114681000Y-130937000D01*
X117475000Y-134620000D02*
X114681000Y-134620000D01*
X122047000Y-134620000D02*
X119253000Y-134620000D01*
X119253000Y-134620000D02*
G75*
G03X117475000Y-134620000I-889000J0D01*
G01*
X122039000Y-112259000D02*
X114689000Y-112259000D01*
X109728000Y-128524000D02*
X109728000Y-125984000D01*
X109728000Y-125984000D02*
X112268000Y-125984000D01*
X112268000Y-125984000D02*
X112268000Y-128524000D01*
X112268000Y-131064000D02*
X112268000Y-133604000D01*
X112268000Y-133604000D02*
X109728000Y-133604000D01*
X109728000Y-133604000D02*
X109728000Y-131064000D01*
X109728000Y-131064000D02*
X109728000Y-128524000D01*
X112268000Y-131064000D02*
X112268000Y-128524000D01*
X144018000Y-90678000D02*
X144018000Y-93218000D01*
X144018000Y-93218000D02*
X141478000Y-93218000D01*
X141478000Y-93218000D02*
X141478000Y-90678000D01*
X141478000Y-88138000D02*
X141478000Y-85598000D01*
X141478000Y-85598000D02*
X144018000Y-85598000D01*
X144018000Y-85598000D02*
X144018000Y-88138000D01*
X144018000Y-88138000D02*
X144018000Y-90678000D01*
X141478000Y-88138000D02*
X141478000Y-90678000D01*
X143002000Y-110236000D02*
X143002000Y-112776000D01*
X143002000Y-112776000D02*
X140462000Y-112776000D01*
X140462000Y-112776000D02*
X140462000Y-110236000D01*
X140462000Y-107696000D02*
X140462000Y-105156000D01*
X140462000Y-105156000D02*
X143002000Y-105156000D01*
X143002000Y-105156000D02*
X143002000Y-107696000D01*
X143002000Y-107696000D02*
X143002000Y-110236000D01*
X140462000Y-107696000D02*
X140462000Y-110236000D01*
X134620000Y-90170000D02*
X137160000Y-90170000D01*
X137160000Y-90170000D02*
X137160000Y-92710000D01*
X137160000Y-92710000D02*
X134620000Y-92710000D01*
X132080000Y-92710000D02*
X129540000Y-92710000D01*
X129540000Y-92710000D02*
X129540000Y-90170000D01*
X129540000Y-90170000D02*
X132080000Y-90170000D01*
X132080000Y-90170000D02*
X134620000Y-90170000D01*
X132080000Y-92710000D02*
X134620000Y-92710000D01*
X135636000Y-125730000D02*
X135636000Y-123190000D01*
X135636000Y-123190000D02*
X138176000Y-123190000D01*
X138176000Y-123190000D02*
X138176000Y-125730000D01*
X138176000Y-128270000D02*
X138176000Y-130810000D01*
X138176000Y-130810000D02*
X135636000Y-130810000D01*
X135636000Y-130810000D02*
X135636000Y-128270000D01*
X135636000Y-128270000D02*
X135636000Y-125730000D01*
X138176000Y-128270000D02*
X138176000Y-125730000D01*
X129794000Y-116332000D02*
X132334000Y-116332000D01*
X132334000Y-116332000D02*
X132334000Y-118872000D01*
X132334000Y-118872000D02*
X129794000Y-118872000D01*
X127254000Y-118872000D02*
X124714000Y-118872000D01*
X124714000Y-118872000D02*
X124714000Y-116332000D01*
X124714000Y-116332000D02*
X127254000Y-116332000D01*
X127254000Y-116332000D02*
X129794000Y-116332000D01*
X127254000Y-118872000D02*
X129794000Y-118872000D01*
X101727000Y-126873000D02*
X92202000Y-126873000D01*
X92202000Y-126873000D02*
X92202000Y-97155000D01*
X92202000Y-97155000D02*
X102362000Y-97155000D01*
X92202000Y-115824000D02*
X92202000Y-123444000D01*
X101727000Y-126873000D02*
X105156000Y-126873000D01*
X105156000Y-126873000D02*
X105156000Y-116713000D01*
X101727000Y-97155000D02*
X105156000Y-97155000D01*
X105156000Y-97155000D02*
X105156000Y-99314000D01*
X105156000Y-117094000D02*
X105156000Y-99314000D01*
X92202000Y-115824000D02*
X92202000Y-108204000D01*
X113093500Y-91186000D02*
X113220500Y-91313000D01*
X113220500Y-91313000D02*
X116395500Y-91313000D01*
X108585000Y-91313000D02*
X111887000Y-91313000D01*
X108585000Y-91440000D02*
X111696500Y-91440000D01*
X111696500Y-91440000D02*
X111569500Y-91567000D01*
X111569500Y-91567000D02*
X108585000Y-91567000D01*
X108585000Y-91567000D02*
X108585000Y-91694000D01*
X108585000Y-91694000D02*
X111442500Y-91694000D01*
X111442500Y-91694000D02*
X111379000Y-91821000D01*
X111379000Y-91821000D02*
X108585000Y-91821000D01*
X108585000Y-91821000D02*
X108648500Y-91948000D01*
X108648500Y-91948000D02*
X111315500Y-91948000D01*
X111315500Y-91948000D02*
X111252000Y-92075000D01*
X111252000Y-92075000D02*
X108712000Y-92075000D01*
X108712000Y-92075000D02*
X108712000Y-92202000D01*
X108712000Y-92202000D02*
X111252000Y-92202000D01*
X111252000Y-92202000D02*
X111252000Y-92329000D01*
X111252000Y-92329000D02*
X108712000Y-92329000D01*
X108712000Y-92329000D02*
X108775500Y-92456000D01*
X108775500Y-92456000D02*
X111188500Y-92456000D01*
X111188500Y-92456000D02*
X111188500Y-92583000D01*
X111188500Y-92583000D02*
X108839000Y-92583000D01*
X108839000Y-92583000D02*
X108902500Y-92710000D01*
X108902500Y-92710000D02*
X111252000Y-92710000D01*
X111252000Y-92710000D02*
X111315500Y-92837000D01*
X111315500Y-92837000D02*
X108902500Y-92837000D01*
X108902500Y-92837000D02*
X109029500Y-92964000D01*
X109029500Y-92964000D02*
X111315500Y-92964000D01*
X111315500Y-92964000D02*
X111379000Y-93091000D01*
X111379000Y-93091000D02*
X109029500Y-93091000D01*
X109029500Y-93091000D02*
X109156500Y-93218000D01*
X109156500Y-93218000D02*
X111506000Y-93218000D01*
X111506000Y-93218000D02*
X111569500Y-93345000D01*
X111569500Y-93345000D02*
X109156500Y-93345000D01*
X109156500Y-93345000D02*
X109347000Y-93472000D01*
X109347000Y-93472000D02*
X111696500Y-93472000D01*
X111696500Y-93472000D02*
X111887000Y-93599000D01*
X111887000Y-93599000D02*
X109410500Y-93599000D01*
X116459000Y-91440000D02*
X113347500Y-91440000D01*
X113347500Y-91440000D02*
X113474500Y-91567000D01*
X113474500Y-91567000D02*
X116459000Y-91567000D01*
X116459000Y-91567000D02*
X116395500Y-91694000D01*
X116395500Y-91694000D02*
X113601500Y-91694000D01*
X113601500Y-91694000D02*
X113728500Y-91821000D01*
X113728500Y-91821000D02*
X116459000Y-91821000D01*
X116459000Y-91821000D02*
X116395500Y-91948000D01*
X116395500Y-91948000D02*
X113728500Y-91948000D01*
X113728500Y-91948000D02*
X113792000Y-92075000D01*
X113792000Y-92075000D02*
X116332000Y-92075000D01*
X116332000Y-92075000D02*
X116332000Y-92202000D01*
X116332000Y-92202000D02*
X113792000Y-92202000D01*
X113792000Y-92202000D02*
X113792000Y-92329000D01*
X113792000Y-92329000D02*
X116332000Y-92329000D01*
X116332000Y-92329000D02*
X116268500Y-92456000D01*
X116268500Y-92456000D02*
X113792000Y-92456000D01*
X113792000Y-92456000D02*
X113792000Y-92583000D01*
X113792000Y-92583000D02*
X116268500Y-92583000D01*
X116268500Y-92583000D02*
X116205000Y-92710000D01*
X116205000Y-92710000D02*
X113792000Y-92710000D01*
X113792000Y-92710000D02*
X113792000Y-92837000D01*
X113792000Y-92837000D02*
X116141500Y-92837000D01*
X116141500Y-92837000D02*
X116078000Y-92964000D01*
X116078000Y-92964000D02*
X113728500Y-92964000D01*
X113728500Y-92964000D02*
X113665000Y-93091000D01*
X113665000Y-93091000D02*
X116014500Y-93091000D01*
X116014500Y-93091000D02*
X115951000Y-93218000D01*
X115951000Y-93218000D02*
X113538000Y-93218000D01*
X113538000Y-93218000D02*
X113474500Y-93345000D01*
X113474500Y-93345000D02*
X115824000Y-93345000D01*
X115824000Y-93345000D02*
X115760500Y-93472000D01*
X115760500Y-93472000D02*
X113347500Y-93472000D01*
X113347500Y-93472000D02*
X113157000Y-93599000D01*
X113157000Y-93599000D02*
X115633500Y-93599000D01*
X113030000Y-86360000D02*
X112014000Y-86360000D01*
X112014000Y-86360000D02*
X112522000Y-86360000D01*
X112522000Y-86360000D02*
X112522000Y-85852000D01*
X112522000Y-85852000D02*
X112522000Y-86868000D01*
X115506500Y-93726000D02*
X115125500Y-94107000D01*
X114427000Y-94678500D02*
X114490500Y-94551500D01*
X114490500Y-94551500D02*
X114554000Y-94361000D01*
X111315500Y-94932500D02*
X111506000Y-94932500D01*
X109664500Y-93853000D02*
X109791500Y-93980000D01*
X110299500Y-94361000D02*
X110363000Y-94424500D01*
X113792000Y-92456000D02*
G75*
G03X113792000Y-92456000I-1270000J0D01*
G01*
X116522500Y-91186000D02*
X108585000Y-91186000D01*
X108585000Y-91186000D02*
X108585000Y-91313000D01*
X115697000Y-93599000D02*
X115570000Y-93726000D01*
X115570000Y-93726000D02*
X109474000Y-93726000D01*
X109474000Y-93726000D02*
X109664500Y-93853000D01*
X109664500Y-93853000D02*
X115379500Y-93853000D01*
X115379500Y-93853000D02*
X115316000Y-93980000D01*
X115316000Y-93980000D02*
X109791500Y-93980000D01*
X109791500Y-93980000D02*
X109918500Y-94107000D01*
X109918500Y-94107000D02*
X115125500Y-94107000D01*
X115125500Y-94107000D02*
X114998500Y-94234000D01*
X114998500Y-94234000D02*
X110045500Y-94234000D01*
X110045500Y-94234000D02*
X110172500Y-94361000D01*
X110172500Y-94361000D02*
X114935000Y-94361000D01*
X114935000Y-94361000D02*
X114681000Y-94488000D01*
X114681000Y-94488000D02*
X110426500Y-94488000D01*
X110426500Y-94488000D02*
X110617000Y-94615000D01*
X110617000Y-94615000D02*
X114427000Y-94615000D01*
X114427000Y-94615000D02*
X114173000Y-94742000D01*
X114173000Y-94742000D02*
X110807500Y-94742000D01*
X110807500Y-94742000D02*
X111188500Y-94869000D01*
X111188500Y-94869000D02*
X113982500Y-94869000D01*
X113982500Y-94869000D02*
X113601500Y-94996000D01*
X113601500Y-94996000D02*
X111506000Y-94996000D01*
X111506000Y-94996000D02*
X111823500Y-95059500D01*
X111823500Y-95059500D02*
X113093500Y-95059500D01*
X116522000Y-91186000D02*
G75*
G03X116522000Y-91186000I-4000000J0D01*
G01*
X131064095Y-113752381D02*
X131064095Y-114561905D01*
X131111714Y-114657143D01*
X131159333Y-114704762D01*
X131254571Y-114752381D01*
X131445048Y-114752381D01*
X131540286Y-114704762D01*
X131587905Y-114657143D01*
X131635524Y-114561905D01*
X131635524Y-113752381D01*
X132064095Y-113847619D02*
X132111714Y-113800000D01*
X132206952Y-113752381D01*
X132445048Y-113752381D01*
X132540286Y-113800000D01*
X132587905Y-113847619D01*
X132635524Y-113942857D01*
X132635524Y-114038095D01*
X132587905Y-114180952D01*
X132016476Y-114752381D01*
X132635524Y-114752381D01*
X131151334Y-137771143D02*
X131103715Y-137818762D01*
X130960858Y-137866381D01*
X130865620Y-137866381D01*
X130722762Y-137818762D01*
X130627524Y-137723524D01*
X130579905Y-137628286D01*
X130532286Y-137437810D01*
X130532286Y-137294952D01*
X130579905Y-137104476D01*
X130627524Y-137009238D01*
X130722762Y-136914000D01*
X130865620Y-136866381D01*
X130960858Y-136866381D01*
X131103715Y-136914000D01*
X131151334Y-136961619D01*
X131722762Y-137294952D02*
X131627524Y-137247333D01*
X131579905Y-137199714D01*
X131532286Y-137104476D01*
X131532286Y-137056857D01*
X131579905Y-136961619D01*
X131627524Y-136914000D01*
X131722762Y-136866381D01*
X131913239Y-136866381D01*
X132008477Y-136914000D01*
X132056096Y-136961619D01*
X132103715Y-137056857D01*
X132103715Y-137104476D01*
X132056096Y-137199714D01*
X132008477Y-137247333D01*
X131913239Y-137294952D01*
X131722762Y-137294952D01*
X131627524Y-137342571D01*
X131579905Y-137390190D01*
X131532286Y-137485429D01*
X131532286Y-137675905D01*
X131579905Y-137771143D01*
X131627524Y-137818762D01*
X131722762Y-137866381D01*
X131913239Y-137866381D01*
X132008477Y-137818762D01*
X132056096Y-137771143D01*
X132103715Y-137675905D01*
X132103715Y-137485429D01*
X132056096Y-137390190D01*
X132008477Y-137342571D01*
X131913239Y-137294952D01*
X131405334Y-128119143D02*
X131357715Y-128166762D01*
X131214858Y-128214381D01*
X131119620Y-128214381D01*
X130976762Y-128166762D01*
X130881524Y-128071524D01*
X130833905Y-127976286D01*
X130786286Y-127785810D01*
X130786286Y-127642952D01*
X130833905Y-127452476D01*
X130881524Y-127357238D01*
X130976762Y-127262000D01*
X131119620Y-127214381D01*
X131214858Y-127214381D01*
X131357715Y-127262000D01*
X131405334Y-127309619D01*
X131881524Y-128214381D02*
X132072000Y-128214381D01*
X132167239Y-128166762D01*
X132214858Y-128119143D01*
X132310096Y-127976286D01*
X132357715Y-127785810D01*
X132357715Y-127404857D01*
X132310096Y-127309619D01*
X132262477Y-127262000D01*
X132167239Y-127214381D01*
X131976762Y-127214381D01*
X131881524Y-127262000D01*
X131833905Y-127309619D01*
X131786286Y-127404857D01*
X131786286Y-127642952D01*
X131833905Y-127738190D01*
X131881524Y-127785810D01*
X131976762Y-127833429D01*
X132167239Y-127833429D01*
X132262477Y-127785810D01*
X132310096Y-127738190D01*
X132357715Y-127642952D01*
X102790667Y-86828381D02*
X102790667Y-87542667D01*
X102743047Y-87685524D01*
X102647809Y-87780762D01*
X102504952Y-87828381D01*
X102409714Y-87828381D01*
X103790667Y-87828381D02*
X103219238Y-87828381D01*
X103504952Y-87828381D02*
X103504952Y-86828381D01*
X103409714Y-86971238D01*
X103314476Y-87066476D01*
X103219238Y-87114095D01*
X123110667Y-86066381D02*
X123110667Y-86780667D01*
X123063047Y-86923524D01*
X122967809Y-87018762D01*
X122824952Y-87066381D01*
X122729714Y-87066381D01*
X123491619Y-86066381D02*
X124110667Y-86066381D01*
X123777333Y-86447333D01*
X123920191Y-86447333D01*
X124015429Y-86494952D01*
X124063048Y-86542571D01*
X124110667Y-86637810D01*
X124110667Y-86875905D01*
X124063048Y-86971143D01*
X124015429Y-87018762D01*
X123920191Y-87066381D01*
X123634476Y-87066381D01*
X123539238Y-87018762D01*
X123491619Y-86971143D01*
X112672953Y-103576381D02*
X112196762Y-103576381D01*
X112196762Y-102576381D01*
X113006286Y-103052571D02*
X113339620Y-103052571D01*
X113482477Y-103576381D02*
X113006286Y-103576381D01*
X113006286Y-102576381D01*
X113482477Y-102576381D01*
X113911048Y-103576381D02*
X113911048Y-102576381D01*
X114149143Y-102576381D01*
X114292001Y-102624000D01*
X114387239Y-102719238D01*
X114434858Y-102814476D01*
X114482477Y-103004952D01*
X114482477Y-103147810D01*
X114434858Y-103338286D01*
X114387239Y-103433524D01*
X114292001Y-103528762D01*
X114149143Y-103576381D01*
X113911048Y-103576381D01*
X115434858Y-103576381D02*
X114863429Y-103576381D01*
X115149143Y-103576381D02*
X115149143Y-102576381D01*
X115053905Y-102719238D01*
X114958667Y-102814476D01*
X114863429Y-102862095D01*
X109878953Y-117800381D02*
X109402762Y-117800381D01*
X109402762Y-116800381D01*
X110212286Y-117276571D02*
X110545620Y-117276571D01*
X110688477Y-117800381D02*
X110212286Y-117800381D01*
X110212286Y-116800381D01*
X110688477Y-116800381D01*
X111117048Y-117800381D02*
X111117048Y-116800381D01*
X111355143Y-116800381D01*
X111498001Y-116848000D01*
X111593239Y-116943238D01*
X111640858Y-117038476D01*
X111688477Y-117228952D01*
X111688477Y-117371810D01*
X111640858Y-117562286D01*
X111593239Y-117657524D01*
X111498001Y-117752762D01*
X111355143Y-117800381D01*
X111117048Y-117800381D01*
X112069429Y-116895619D02*
X112117048Y-116848000D01*
X112212286Y-116800381D01*
X112450382Y-116800381D01*
X112545620Y-116848000D01*
X112593239Y-116895619D01*
X112640858Y-116990857D01*
X112640858Y-117086095D01*
X112593239Y-117228952D01*
X112021810Y-117800381D01*
X112640858Y-117800381D01*
X117800381Y-109577047D02*
X117800381Y-110053238D01*
X116800381Y-110053238D01*
X117276571Y-109243714D02*
X117276571Y-108910380D01*
X117800381Y-108767523D02*
X117800381Y-109243714D01*
X116800381Y-109243714D01*
X116800381Y-108767523D01*
X117800381Y-108338952D02*
X116800381Y-108338952D01*
X116800381Y-108100857D01*
X116848000Y-107957999D01*
X116943238Y-107862761D01*
X117038476Y-107815142D01*
X117228952Y-107767523D01*
X117371810Y-107767523D01*
X117562286Y-107815142D01*
X117657524Y-107862761D01*
X117752762Y-107957999D01*
X117800381Y-108100857D01*
X117800381Y-108338952D01*
X116800381Y-107434190D02*
X116800381Y-106815142D01*
X117181333Y-107148476D01*
X117181333Y-107005618D01*
X117228952Y-106910380D01*
X117276571Y-106862761D01*
X117371810Y-106815142D01*
X117609905Y-106815142D01*
X117705143Y-106862761D01*
X117752762Y-106910380D01*
X117800381Y-107005618D01*
X117800381Y-107291333D01*
X117752762Y-107386571D01*
X117705143Y-107434190D01*
X123896381Y-98718666D02*
X123420190Y-99052000D01*
X123896381Y-99290095D02*
X122896381Y-99290095D01*
X122896381Y-98909142D01*
X122944000Y-98813904D01*
X122991619Y-98766285D01*
X123086857Y-98718666D01*
X123229714Y-98718666D01*
X123324952Y-98766285D01*
X123372571Y-98813904D01*
X123420190Y-98909142D01*
X123420190Y-99290095D01*
X123896381Y-97766285D02*
X123896381Y-98337714D01*
X123896381Y-98052000D02*
X122896381Y-98052000D01*
X123039238Y-98147238D01*
X123134476Y-98242476D01*
X123182095Y-98337714D01*
X164536381Y-104052666D02*
X164060190Y-104386000D01*
X164536381Y-104624095D02*
X163536381Y-104624095D01*
X163536381Y-104243142D01*
X163584000Y-104147904D01*
X163631619Y-104100285D01*
X163726857Y-104052666D01*
X163869714Y-104052666D01*
X163964952Y-104100285D01*
X164012571Y-104147904D01*
X164060190Y-104243142D01*
X164060190Y-104624095D01*
X163631619Y-103671714D02*
X163584000Y-103624095D01*
X163536381Y-103528857D01*
X163536381Y-103290761D01*
X163584000Y-103195523D01*
X163631619Y-103147904D01*
X163726857Y-103100285D01*
X163822095Y-103100285D01*
X163964952Y-103147904D01*
X164536381Y-103719333D01*
X164536381Y-103100285D01*
X164536381Y-91352666D02*
X164060190Y-91686000D01*
X164536381Y-91924095D02*
X163536381Y-91924095D01*
X163536381Y-91543142D01*
X163584000Y-91447904D01*
X163631619Y-91400285D01*
X163726857Y-91352666D01*
X163869714Y-91352666D01*
X163964952Y-91400285D01*
X164012571Y-91447904D01*
X164060190Y-91543142D01*
X164060190Y-91924095D01*
X163536381Y-91019333D02*
X163536381Y-90400285D01*
X163917333Y-90733619D01*
X163917333Y-90590761D01*
X163964952Y-90495523D01*
X164012571Y-90447904D01*
X164107810Y-90400285D01*
X164345905Y-90400285D01*
X164441143Y-90447904D01*
X164488762Y-90495523D01*
X164536381Y-90590761D01*
X164536381Y-90876476D01*
X164488762Y-90971714D01*
X164441143Y-91019333D01*
X107894381Y-127674666D02*
X107418190Y-128008000D01*
X107894381Y-128246095D02*
X106894381Y-128246095D01*
X106894381Y-127865142D01*
X106942000Y-127769904D01*
X106989619Y-127722285D01*
X107084857Y-127674666D01*
X107227714Y-127674666D01*
X107322952Y-127722285D01*
X107370571Y-127769904D01*
X107418190Y-127865142D01*
X107418190Y-128246095D01*
X107227714Y-126817523D02*
X107894381Y-126817523D01*
X106846762Y-127055619D02*
X107561048Y-127293714D01*
X107561048Y-126674666D01*
X120340381Y-98718666D02*
X119864190Y-99052000D01*
X120340381Y-99290095D02*
X119340381Y-99290095D01*
X119340381Y-98909142D01*
X119388000Y-98813904D01*
X119435619Y-98766285D01*
X119530857Y-98718666D01*
X119673714Y-98718666D01*
X119768952Y-98766285D01*
X119816571Y-98813904D01*
X119864190Y-98909142D01*
X119864190Y-99290095D01*
X119340381Y-97813904D02*
X119340381Y-98290095D01*
X119816571Y-98337714D01*
X119768952Y-98290095D01*
X119721333Y-98194857D01*
X119721333Y-97956761D01*
X119768952Y-97861523D01*
X119816571Y-97813904D01*
X119911810Y-97766285D01*
X120149905Y-97766285D01*
X120245143Y-97813904D01*
X120292762Y-97861523D01*
X120340381Y-97956761D01*
X120340381Y-98194857D01*
X120292762Y-98290095D01*
X120245143Y-98337714D01*
X151638286Y-112672762D02*
X151781143Y-112720381D01*
X152019239Y-112720381D01*
X152114477Y-112672762D01*
X152162096Y-112625143D01*
X152209715Y-112529905D01*
X152209715Y-112434667D01*
X152162096Y-112339429D01*
X152114477Y-112291810D01*
X152019239Y-112244190D01*
X151828762Y-112196571D01*
X151733524Y-112148952D01*
X151685905Y-112101333D01*
X151638286Y-112006095D01*
X151638286Y-111910857D01*
X151685905Y-111815619D01*
X151733524Y-111768000D01*
X151828762Y-111720381D01*
X152066858Y-111720381D01*
X152209715Y-111768000D01*
X152828762Y-111720381D02*
X153019239Y-111720381D01*
X153114477Y-111768000D01*
X153209715Y-111863238D01*
X153257334Y-112053714D01*
X153257334Y-112387048D01*
X153209715Y-112577524D01*
X153114477Y-112672762D01*
X153019239Y-112720381D01*
X152828762Y-112720381D01*
X152733524Y-112672762D01*
X152638286Y-112577524D01*
X152590667Y-112387048D01*
X152590667Y-112053714D01*
X152638286Y-111863238D01*
X152733524Y-111768000D01*
X152828762Y-111720381D01*
X154257334Y-112625143D02*
X154209715Y-112672762D01*
X154066858Y-112720381D01*
X153971620Y-112720381D01*
X153828762Y-112672762D01*
X153733524Y-112577524D01*
X153685905Y-112482286D01*
X153638286Y-112291810D01*
X153638286Y-112148952D01*
X153685905Y-111958476D01*
X153733524Y-111863238D01*
X153828762Y-111768000D01*
X153971620Y-111720381D01*
X154066858Y-111720381D01*
X154209715Y-111768000D01*
X154257334Y-111815619D01*
X154685905Y-112720381D02*
X154685905Y-111720381D01*
X155257334Y-112720381D02*
X154828762Y-112148952D01*
X155257334Y-111720381D02*
X154685905Y-112291810D01*
X156209715Y-112720381D02*
X155638286Y-112720381D01*
X155924000Y-112720381D02*
X155924000Y-111720381D01*
X155828762Y-111863238D01*
X155733524Y-111958476D01*
X155638286Y-112006095D01*
X117602095Y-135088381D02*
X117602095Y-135897905D01*
X117649714Y-135993143D01*
X117697333Y-136040762D01*
X117792571Y-136088381D01*
X117983048Y-136088381D01*
X118078286Y-136040762D01*
X118125905Y-135993143D01*
X118173524Y-135897905D01*
X118173524Y-135088381D01*
X119173524Y-136088381D02*
X118602095Y-136088381D01*
X118887809Y-136088381D02*
X118887809Y-135088381D01*
X118792571Y-135231238D01*
X118697333Y-135326476D01*
X118602095Y-135374095D01*
X110577334Y-135231143D02*
X110529715Y-135278762D01*
X110386858Y-135326381D01*
X110291620Y-135326381D01*
X110148762Y-135278762D01*
X110053524Y-135183524D01*
X110005905Y-135088286D01*
X109958286Y-134897810D01*
X109958286Y-134754952D01*
X110005905Y-134564476D01*
X110053524Y-134469238D01*
X110148762Y-134374000D01*
X110291620Y-134326381D01*
X110386858Y-134326381D01*
X110529715Y-134374000D01*
X110577334Y-134421619D01*
X110958286Y-134421619D02*
X111005905Y-134374000D01*
X111101143Y-134326381D01*
X111339239Y-134326381D01*
X111434477Y-134374000D01*
X111482096Y-134421619D01*
X111529715Y-134516857D01*
X111529715Y-134612095D01*
X111482096Y-134754952D01*
X110910667Y-135326381D01*
X111529715Y-135326381D01*
X143105143Y-94654666D02*
X143152762Y-94702285D01*
X143200381Y-94845142D01*
X143200381Y-94940380D01*
X143152762Y-95083238D01*
X143057524Y-95178476D01*
X142962286Y-95226095D01*
X142771810Y-95273714D01*
X142628952Y-95273714D01*
X142438476Y-95226095D01*
X142343238Y-95178476D01*
X142248000Y-95083238D01*
X142200381Y-94940380D01*
X142200381Y-94845142D01*
X142248000Y-94702285D01*
X142295619Y-94654666D01*
X142200381Y-94321333D02*
X142200381Y-93702285D01*
X142581333Y-94035619D01*
X142581333Y-93892761D01*
X142628952Y-93797523D01*
X142676571Y-93749904D01*
X142771810Y-93702285D01*
X143009905Y-93702285D01*
X143105143Y-93749904D01*
X143152762Y-93797523D01*
X143200381Y-93892761D01*
X143200381Y-94178476D01*
X143152762Y-94273714D01*
X143105143Y-94321333D01*
X141565334Y-104243143D02*
X141517715Y-104290762D01*
X141374858Y-104338381D01*
X141279620Y-104338381D01*
X141136762Y-104290762D01*
X141041524Y-104195524D01*
X140993905Y-104100286D01*
X140946286Y-103909810D01*
X140946286Y-103766952D01*
X140993905Y-103576476D01*
X141041524Y-103481238D01*
X141136762Y-103386000D01*
X141279620Y-103338381D01*
X141374858Y-103338381D01*
X141517715Y-103386000D01*
X141565334Y-103433619D01*
X142422477Y-103671714D02*
X142422477Y-104338381D01*
X142184381Y-103290762D02*
X141946286Y-104005048D01*
X142565334Y-104005048D01*
X133183334Y-93829143D02*
X133135715Y-93876762D01*
X132992858Y-93924381D01*
X132897620Y-93924381D01*
X132754762Y-93876762D01*
X132659524Y-93781524D01*
X132611905Y-93686286D01*
X132564286Y-93495810D01*
X132564286Y-93352952D01*
X132611905Y-93162476D01*
X132659524Y-93067238D01*
X132754762Y-92972000D01*
X132897620Y-92924381D01*
X132992858Y-92924381D01*
X133135715Y-92972000D01*
X133183334Y-93019619D01*
X134088096Y-92924381D02*
X133611905Y-92924381D01*
X133564286Y-93400571D01*
X133611905Y-93352952D01*
X133707143Y-93305333D01*
X133945239Y-93305333D01*
X134040477Y-93352952D01*
X134088096Y-93400571D01*
X134135715Y-93495810D01*
X134135715Y-93733905D01*
X134088096Y-93829143D01*
X134040477Y-93876762D01*
X133945239Y-93924381D01*
X133707143Y-93924381D01*
X133611905Y-93876762D01*
X133564286Y-93829143D01*
X136739334Y-132437143D02*
X136691715Y-132484762D01*
X136548858Y-132532381D01*
X136453620Y-132532381D01*
X136310762Y-132484762D01*
X136215524Y-132389524D01*
X136167905Y-132294286D01*
X136120286Y-132103810D01*
X136120286Y-131960952D01*
X136167905Y-131770476D01*
X136215524Y-131675238D01*
X136310762Y-131580000D01*
X136453620Y-131532381D01*
X136548858Y-131532381D01*
X136691715Y-131580000D01*
X136739334Y-131627619D01*
X137596477Y-131532381D02*
X137406000Y-131532381D01*
X137310762Y-131580000D01*
X137263143Y-131627619D01*
X137167905Y-131770476D01*
X137120286Y-131960952D01*
X137120286Y-132341905D01*
X137167905Y-132437143D01*
X137215524Y-132484762D01*
X137310762Y-132532381D01*
X137501239Y-132532381D01*
X137596477Y-132484762D01*
X137644096Y-132437143D01*
X137691715Y-132341905D01*
X137691715Y-132103810D01*
X137644096Y-132008571D01*
X137596477Y-131960952D01*
X137501239Y-131913333D01*
X137310762Y-131913333D01*
X137215524Y-131960952D01*
X137167905Y-132008571D01*
X137120286Y-132103810D01*
X128357334Y-119991143D02*
X128309715Y-120038762D01*
X128166858Y-120086381D01*
X128071620Y-120086381D01*
X127928762Y-120038762D01*
X127833524Y-119943524D01*
X127785905Y-119848286D01*
X127738286Y-119657810D01*
X127738286Y-119514952D01*
X127785905Y-119324476D01*
X127833524Y-119229238D01*
X127928762Y-119134000D01*
X128071620Y-119086381D01*
X128166858Y-119086381D01*
X128309715Y-119134000D01*
X128357334Y-119181619D01*
X128690667Y-119086381D02*
X129357334Y-119086381D01*
X128928762Y-120086381D01*
X106894381Y-112347333D02*
X107608667Y-112347333D01*
X107751524Y-112394953D01*
X107846762Y-112490191D01*
X107894381Y-112633048D01*
X107894381Y-112728286D01*
X106989619Y-111918762D02*
X106942000Y-111871143D01*
X106894381Y-111775905D01*
X106894381Y-111537809D01*
X106942000Y-111442571D01*
X106989619Y-111394952D01*
X107084857Y-111347333D01*
X107180095Y-111347333D01*
X107322952Y-111394952D01*
X107894381Y-111966381D01*
X107894381Y-111347333D01*
X107799143Y-91352666D02*
X107846762Y-91400285D01*
X107894381Y-91543142D01*
X107894381Y-91638380D01*
X107846762Y-91781238D01*
X107751524Y-91876476D01*
X107656286Y-91924095D01*
X107465810Y-91971714D01*
X107322952Y-91971714D01*
X107132476Y-91924095D01*
X107037238Y-91876476D01*
X106942000Y-91781238D01*
X106894381Y-91638380D01*
X106894381Y-91543142D01*
X106942000Y-91400285D01*
X106989619Y-91352666D01*
X107894381Y-90400285D02*
X107894381Y-90971714D01*
X107894381Y-90686000D02*
X106894381Y-90686000D01*
X107037238Y-90781238D01*
X107132476Y-90876476D01*
X107180095Y-90971714D01*
M02*
