G04 #@! TF.FileFunction,Copper,L2,Bot,Signal*
%FSLAX46Y46*%
G04 Gerber Fmt 4.6, Leading zero omitted, Abs format (unit mm)*
G04 Created by KiCad (PCBNEW 4.0.1-stable) date 01/19/17 22:09:19*
%MOMM*%
G01*
G04 APERTURE LIST*
%ADD10C,0.100000*%
%ADD11C,1.716000*%
%ADD12R,1.716000X1.716000*%
%ADD13R,2.016000X2.016000*%
%ADD14C,2.016000*%
%ADD15O,3.416000X1.916000*%
%ADD16C,3.800000*%
%ADD17C,0.304800*%
G04 APERTURE END LIST*
D10*
D11*
X146685000Y-97155000D03*
X144145000Y-97155000D03*
X141605000Y-97155000D03*
X141605000Y-74930000D03*
X141605000Y-77470000D03*
X141605000Y-80010000D03*
X141605000Y-82550000D03*
X141605000Y-85090000D03*
X141605000Y-87630000D03*
X141605000Y-90170000D03*
X141605000Y-92710000D03*
X149225000Y-92710000D03*
X149225000Y-90170000D03*
X149225000Y-87630000D03*
X149225000Y-85090000D03*
X149225000Y-82550000D03*
X149225000Y-80010000D03*
X149225000Y-77470000D03*
X149225000Y-74930000D03*
D12*
X120015000Y-69850000D03*
D11*
X122555000Y-69850000D03*
X94615000Y-85090000D03*
X94615000Y-82550000D03*
X94615000Y-80010000D03*
X115570000Y-77470000D03*
X118110000Y-77470000D03*
X120650000Y-77470000D03*
X109855000Y-74295000D03*
X112395000Y-74295000D03*
X114935000Y-74295000D03*
X138430000Y-65405000D03*
X135890000Y-65405000D03*
X133350000Y-65405000D03*
D13*
X120015000Y-63500000D03*
D14*
X122555000Y-63500000D03*
D13*
X112395000Y-71120000D03*
D14*
X109855000Y-71120000D03*
X107315000Y-71120000D03*
X104775000Y-71120000D03*
X102235000Y-71120000D03*
X99695000Y-71120000D03*
D13*
X91440000Y-86360000D03*
D14*
X91440000Y-83820000D03*
X91440000Y-81280000D03*
X91440000Y-78740000D03*
D13*
X116205000Y-96520000D03*
D14*
X116205000Y-93980000D03*
X116205000Y-91440000D03*
X116205000Y-88900000D03*
X116205000Y-86360000D03*
X116205000Y-83820000D03*
D13*
X125730000Y-100330000D03*
D14*
X125730000Y-102870000D03*
D11*
X171450000Y-97155000D03*
X171450000Y-99695000D03*
X171450000Y-94615000D03*
X185420000Y-97155000D03*
X185420000Y-99695000D03*
X185420000Y-94615000D03*
X203835000Y-97155000D03*
X203835000Y-99695000D03*
X203835000Y-94615000D03*
X217805000Y-97155000D03*
X217805000Y-99695000D03*
X217805000Y-94615000D03*
X120015000Y-102870000D03*
X117475000Y-102870000D03*
X122555000Y-102870000D03*
X128270000Y-74930000D03*
X128270000Y-85090000D03*
X125730000Y-77470000D03*
X125730000Y-87630000D03*
X123190000Y-80010000D03*
X123190000Y-90170000D03*
X120650000Y-82550000D03*
X120650000Y-92710000D03*
X161925000Y-82550000D03*
X151765000Y-82550000D03*
X161925000Y-85090000D03*
X151765000Y-85090000D03*
X161925000Y-87630000D03*
X151765000Y-87630000D03*
X161925000Y-90170000D03*
X151765000Y-90170000D03*
X161925000Y-92710000D03*
X151765000Y-92710000D03*
X161925000Y-77470000D03*
X151765000Y-77470000D03*
X161925000Y-80010000D03*
X151765000Y-80010000D03*
X123825000Y-106680000D03*
X113665000Y-106680000D03*
X123825000Y-111760000D03*
X113665000Y-111760000D03*
X95885000Y-115570000D03*
X106045000Y-115570000D03*
X109855000Y-99695000D03*
X120015000Y-99695000D03*
X94615000Y-88900000D03*
X94615000Y-99060000D03*
X97155000Y-86360000D03*
X97155000Y-96520000D03*
X109855000Y-81280000D03*
X109855000Y-91440000D03*
X113030000Y-81280000D03*
X113030000Y-91440000D03*
D14*
X95885000Y-106680000D03*
X95885000Y-111760000D03*
X111125000Y-106680000D03*
X111125000Y-109220000D03*
X111125000Y-111760000D03*
D15*
X90805000Y-98425000D03*
X90805000Y-93980000D03*
X90805000Y-102870000D03*
D11*
X130810000Y-69850000D03*
X130810000Y-72390000D03*
X130810000Y-74930000D03*
X130810000Y-77470000D03*
X130810000Y-80010000D03*
X130810000Y-82550000D03*
X130810000Y-85090000D03*
X138430000Y-85090000D03*
X138430000Y-82550000D03*
X138430000Y-80010000D03*
X138430000Y-77470000D03*
X138430000Y-74930000D03*
X138430000Y-72390000D03*
X138430000Y-69850000D03*
X99695000Y-76200000D03*
X99695000Y-78740000D03*
X99695000Y-81280000D03*
X99695000Y-83820000D03*
X99695000Y-86360000D03*
X99695000Y-88900000D03*
X99695000Y-91440000D03*
X99695000Y-93980000D03*
X99695000Y-96520000D03*
X99695000Y-99060000D03*
X107315000Y-99060000D03*
X107315000Y-96520000D03*
X107315000Y-93980000D03*
X107315000Y-91440000D03*
X107315000Y-88900000D03*
X107315000Y-86360000D03*
X107315000Y-83820000D03*
X107315000Y-81280000D03*
X107315000Y-78740000D03*
X107315000Y-76200000D03*
X166370000Y-90170000D03*
X168910000Y-90170000D03*
X171450000Y-90170000D03*
X173990000Y-90170000D03*
X176530000Y-90170000D03*
X176530000Y-74930000D03*
X173990000Y-74930000D03*
X171450000Y-74930000D03*
X168910000Y-74930000D03*
X166370000Y-74930000D03*
X180340000Y-90170000D03*
X182880000Y-90170000D03*
X185420000Y-90170000D03*
X187960000Y-90170000D03*
X190500000Y-90170000D03*
X190500000Y-74930000D03*
X187960000Y-74930000D03*
X185420000Y-74930000D03*
X182880000Y-74930000D03*
X180340000Y-74930000D03*
X198755000Y-90170000D03*
X201295000Y-90170000D03*
X203835000Y-90170000D03*
X206375000Y-90170000D03*
X208915000Y-90170000D03*
X208915000Y-74930000D03*
X206375000Y-74930000D03*
X203835000Y-74930000D03*
X201295000Y-74930000D03*
X198755000Y-74930000D03*
X212725000Y-90170000D03*
X215265000Y-90170000D03*
X217805000Y-90170000D03*
X220345000Y-90170000D03*
X222885000Y-90170000D03*
X222885000Y-74930000D03*
X220345000Y-74930000D03*
X217805000Y-74930000D03*
X215265000Y-74930000D03*
X212725000Y-74930000D03*
D16*
X92710000Y-64135000D03*
X92710000Y-121285000D03*
X226060000Y-121285000D03*
X226060000Y-64135000D03*
D13*
X95885000Y-74930000D03*
D14*
X93345000Y-74930000D03*
D17*
X123190000Y-98425000D02*
X124460000Y-99695000D01*
X124460000Y-99695000D02*
X125095000Y-99695000D01*
X125095000Y-99695000D02*
X125730000Y-100330000D01*
X125730000Y-100330000D02*
X127000000Y-100330000D01*
X127635000Y-100965000D02*
X127635000Y-101600000D01*
X127000000Y-100330000D02*
X127635000Y-100965000D01*
X138430000Y-65405000D02*
X136525000Y-63500000D01*
X120015000Y-62230000D02*
X120015000Y-63500000D01*
X120650000Y-61595000D02*
X120015000Y-62230000D01*
X134620000Y-61595000D02*
X120650000Y-61595000D01*
X135255000Y-62230000D02*
X134620000Y-61595000D01*
X136525000Y-63500000D02*
X135255000Y-62230000D01*
X120015000Y-69850000D02*
X114300000Y-69850000D01*
X112395000Y-67945000D02*
X114300000Y-69850000D01*
X88265000Y-77470000D02*
X97790000Y-67945000D01*
X97790000Y-67945000D02*
X112395000Y-67945000D01*
X88265000Y-88265000D02*
X88265000Y-77470000D01*
X113030000Y-73025000D02*
X113665000Y-73025000D01*
X111760000Y-73025000D02*
X109855000Y-71120000D01*
X113665000Y-73025000D02*
X111760000Y-73025000D01*
X114300000Y-69850000D02*
X114300000Y-71755000D01*
X114300000Y-71755000D02*
X113030000Y-73025000D01*
X120015000Y-69850000D02*
X120015000Y-63500000D01*
X115570000Y-77470000D02*
X115570000Y-79375000D01*
X115570000Y-79375000D02*
X118110000Y-81915000D01*
X91440000Y-86360000D02*
X90170000Y-86360000D01*
X88265000Y-88265000D02*
X88265000Y-95885000D01*
X90170000Y-86360000D02*
X88265000Y-88265000D01*
X94615000Y-85090000D02*
X94615000Y-85725000D01*
X94615000Y-85725000D02*
X93980000Y-86360000D01*
X93980000Y-86360000D02*
X91440000Y-86360000D01*
X126365000Y-106680000D02*
X123825000Y-106680000D01*
X127635000Y-105410000D02*
X126365000Y-106680000D01*
X127635000Y-101600000D02*
X127635000Y-105410000D01*
X123825000Y-111760000D02*
X123825000Y-106680000D01*
X123190000Y-98425000D02*
X118745000Y-93980000D01*
X118745000Y-85090000D02*
X118110000Y-84455000D01*
X118745000Y-93980000D02*
X118745000Y-85090000D01*
X109855000Y-81280000D02*
X113030000Y-81280000D01*
X113030000Y-81280000D02*
X113665000Y-81915000D01*
X113665000Y-81915000D02*
X113665000Y-83820000D01*
X113665000Y-83820000D02*
X116205000Y-86360000D01*
X95885000Y-106680000D02*
X90170000Y-106680000D01*
X90170000Y-106680000D02*
X88265000Y-104775000D01*
X88265000Y-104775000D02*
X88265000Y-95885000D01*
X90805000Y-98425000D02*
X88265000Y-95885000D01*
X116205000Y-86360000D02*
X118110000Y-84455000D01*
X118110000Y-84455000D02*
X118110000Y-81915000D01*
X109855000Y-71120000D02*
X109855000Y-74295000D01*
X109855000Y-71120000D02*
X107950000Y-69215000D01*
X97790000Y-74295000D02*
X99695000Y-76200000D01*
X97790000Y-70485000D02*
X97790000Y-74295000D01*
X99060000Y-69215000D02*
X97790000Y-70485000D01*
X107950000Y-69215000D02*
X99060000Y-69215000D01*
X138430000Y-65405000D02*
X138430000Y-69850000D01*
X146685000Y-97155000D02*
X146685000Y-75565000D01*
X149225000Y-74930000D02*
X147320000Y-74930000D01*
X147320000Y-74930000D02*
X146685000Y-75565000D01*
X146685000Y-75565000D02*
X142875000Y-79375000D01*
X138430000Y-69850000D02*
X142875000Y-74295000D01*
X142875000Y-79375000D02*
X142240000Y-80010000D01*
X142875000Y-74295000D02*
X142875000Y-79375000D01*
X142240000Y-80010000D02*
X141605000Y-80010000D01*
X141605000Y-80010000D02*
X141605000Y-82550000D01*
X138430000Y-82550000D02*
X141605000Y-82550000D01*
X117475000Y-104140000D02*
X117475000Y-102870000D01*
X122555000Y-69850000D02*
X122555000Y-75565000D01*
X122555000Y-75565000D02*
X121285000Y-76835000D01*
X122555000Y-63500000D02*
X122555000Y-69850000D01*
X133350000Y-65405000D02*
X134620000Y-66675000D01*
X133350000Y-65405000D02*
X132715000Y-65405000D01*
X132715000Y-65405000D02*
X121285000Y-76835000D01*
X121285000Y-76835000D02*
X120650000Y-77470000D01*
X120650000Y-77470000D02*
X118110000Y-77470000D01*
X118110000Y-77470000D02*
X114935000Y-74295000D01*
X97155000Y-96520000D02*
X97155000Y-92075000D01*
X100965000Y-89535000D02*
X100965000Y-81915000D01*
X100330000Y-90170000D02*
X100965000Y-89535000D01*
X99060000Y-90170000D02*
X100330000Y-90170000D01*
X97155000Y-92075000D02*
X99060000Y-90170000D01*
X94615000Y-80010000D02*
X100330000Y-80010000D01*
X100330000Y-80010000D02*
X100965000Y-80645000D01*
X100965000Y-80645000D02*
X100965000Y-81915000D01*
X100330000Y-82550000D02*
X94615000Y-82550000D01*
X100965000Y-81915000D02*
X100330000Y-82550000D01*
X91440000Y-78740000D02*
X93345000Y-78740000D01*
X93345000Y-78740000D02*
X94615000Y-80010000D01*
X217805000Y-99695000D02*
X215265000Y-99695000D01*
X123190000Y-115570000D02*
X114300000Y-115570000D01*
X134620000Y-104140000D02*
X123190000Y-115570000D01*
X210820000Y-104140000D02*
X134620000Y-104140000D01*
X215265000Y-99695000D02*
X210820000Y-104140000D01*
X94615000Y-99060000D02*
X94615000Y-102235000D01*
X104775000Y-116840000D02*
X106045000Y-115570000D01*
X95250000Y-116840000D02*
X104775000Y-116840000D01*
X93980000Y-115570000D02*
X95250000Y-116840000D01*
X93980000Y-111125000D02*
X93980000Y-115570000D01*
X97790000Y-107315000D02*
X93980000Y-111125000D01*
X97790000Y-105410000D02*
X97790000Y-107315000D01*
X94615000Y-102235000D02*
X97790000Y-105410000D01*
X97155000Y-96520000D02*
X94615000Y-99060000D01*
X106045000Y-115570000D02*
X114300000Y-115570000D01*
X114300000Y-115570000D02*
X117475000Y-112395000D01*
X117475000Y-112395000D02*
X117475000Y-107315000D01*
X117475000Y-103505000D02*
X117475000Y-104140000D01*
X117475000Y-104140000D02*
X117475000Y-107315000D01*
X115570000Y-109220000D02*
X111125000Y-109220000D01*
X117475000Y-107315000D02*
X115570000Y-109220000D01*
X116205000Y-83820000D02*
X116205000Y-81915000D01*
X116205000Y-81915000D02*
X110490000Y-76200000D01*
X107315000Y-76200000D02*
X110490000Y-76200000D01*
X110490000Y-76200000D02*
X112395000Y-74295000D01*
X112395000Y-74295000D02*
X114935000Y-74295000D01*
X107315000Y-71120000D02*
X107315000Y-76200000D01*
X171450000Y-99695000D02*
X172720000Y-98425000D01*
X172720000Y-98425000D02*
X172720000Y-95885000D01*
X185420000Y-99695000D02*
X186690000Y-98425000D01*
X186690000Y-98425000D02*
X186690000Y-95885000D01*
X203835000Y-99695000D02*
X205105000Y-98425000D01*
X205105000Y-98425000D02*
X205105000Y-95885000D01*
X144145000Y-97155000D02*
X144145000Y-97790000D01*
X144145000Y-97790000D02*
X144780000Y-98425000D01*
X219075000Y-98425000D02*
X217805000Y-99695000D01*
X219075000Y-96520000D02*
X219075000Y-98425000D01*
X218440000Y-95885000D02*
X219075000Y-96520000D01*
X158750000Y-95885000D02*
X172720000Y-95885000D01*
X172720000Y-95885000D02*
X186690000Y-95885000D01*
X186690000Y-95885000D02*
X205105000Y-95885000D01*
X205105000Y-95885000D02*
X218440000Y-95885000D01*
X156210000Y-98425000D02*
X158750000Y-95885000D01*
X144780000Y-98425000D02*
X156210000Y-98425000D01*
X130810000Y-85090000D02*
X134620000Y-81280000D01*
X134620000Y-81280000D02*
X134620000Y-66675000D01*
X135890000Y-65405000D02*
X133350000Y-65405000D01*
X144145000Y-97155000D02*
X141605000Y-97155000D01*
X141605000Y-97155000D02*
X141605000Y-92710000D01*
X130810000Y-85090000D02*
X138430000Y-92710000D01*
X138430000Y-92710000D02*
X141605000Y-92710000D01*
X141605000Y-85090000D02*
X142240000Y-85090000D01*
X142240000Y-85090000D02*
X143510000Y-86360000D01*
X143510000Y-86360000D02*
X143510000Y-92075000D01*
X143510000Y-92075000D02*
X142875000Y-92710000D01*
X142875000Y-92710000D02*
X141605000Y-92710000D01*
X113665000Y-106680000D02*
X111125000Y-106680000D01*
X103505000Y-83185000D02*
X102870000Y-83820000D01*
X107315000Y-106680000D02*
X111125000Y-106680000D01*
X102870000Y-102235000D02*
X107315000Y-106680000D01*
X102870000Y-83820000D02*
X102870000Y-102235000D01*
X104140000Y-82550000D02*
X106045000Y-82550000D01*
X103505000Y-83185000D02*
X104140000Y-82550000D01*
X106045000Y-82550000D02*
X107950000Y-82550000D01*
X107950000Y-82550000D02*
X108585000Y-81915000D01*
X108585000Y-81915000D02*
X108585000Y-80010000D01*
X108585000Y-80010000D02*
X107315000Y-78740000D01*
X104775000Y-71120000D02*
X104775000Y-77470000D01*
X106045000Y-78740000D02*
X107315000Y-78740000D01*
X104775000Y-77470000D02*
X106045000Y-78740000D01*
X111125000Y-111760000D02*
X113665000Y-111760000D01*
X102870000Y-103505000D02*
X102235000Y-102870000D01*
X102235000Y-102870000D02*
X102235000Y-76200000D01*
X104775000Y-105410000D02*
X102870000Y-103505000D01*
X111125000Y-111760000D02*
X104775000Y-105410000D01*
X102235000Y-71120000D02*
X102235000Y-76200000D01*
X102235000Y-76200000D02*
X102870000Y-76835000D01*
X102870000Y-76835000D02*
X104775000Y-78740000D01*
X104775000Y-78740000D02*
X107315000Y-81280000D01*
X91440000Y-83820000D02*
X90805000Y-83820000D01*
X90805000Y-83820000D02*
X89535000Y-82550000D01*
X92075000Y-74930000D02*
X93345000Y-74930000D01*
X89535000Y-77470000D02*
X92075000Y-74930000D01*
X89535000Y-82550000D02*
X89535000Y-77470000D01*
X91440000Y-83820000D02*
X99695000Y-83820000D01*
X99695000Y-81280000D02*
X91440000Y-81280000D01*
X116205000Y-96520000D02*
X107315000Y-96520000D01*
X107315000Y-83820000D02*
X104140000Y-83820000D01*
X117475000Y-93980000D02*
X116205000Y-93980000D01*
X118110000Y-94615000D02*
X117475000Y-93980000D01*
X118110000Y-98425000D02*
X118110000Y-94615000D01*
X115570000Y-100965000D02*
X118110000Y-98425000D01*
X104775000Y-100965000D02*
X115570000Y-100965000D01*
X103505000Y-99695000D02*
X104775000Y-100965000D01*
X103505000Y-84455000D02*
X103505000Y-99695000D01*
X104140000Y-83820000D02*
X103505000Y-84455000D01*
X116205000Y-91440000D02*
X112395000Y-91440000D01*
X106045000Y-97790000D02*
X107315000Y-99060000D01*
X106045000Y-95885000D02*
X106045000Y-97790000D01*
X106680000Y-95250000D02*
X106045000Y-95885000D01*
X108585000Y-95250000D02*
X106680000Y-95250000D01*
X112395000Y-91440000D02*
X108585000Y-95250000D01*
X109855000Y-91440000D02*
X111125000Y-90170000D01*
X116205000Y-88900000D02*
X112395000Y-88900000D01*
X112395000Y-88900000D02*
X111125000Y-90170000D01*
X111125000Y-90170000D02*
X107315000Y-93980000D01*
X122555000Y-102870000D02*
X125730000Y-102870000D01*
X140335000Y-99060000D02*
X141605000Y-100330000D01*
X156845000Y-100330000D02*
X158115000Y-99060000D01*
X141605000Y-100330000D02*
X156845000Y-100330000D01*
X128270000Y-85090000D02*
X128270000Y-86995000D01*
X160020000Y-97155000D02*
X171450000Y-97155000D01*
X158115000Y-99060000D02*
X160020000Y-97155000D01*
X128270000Y-86995000D02*
X140335000Y-99060000D01*
X171450000Y-90170000D02*
X171450000Y-94615000D01*
X125730000Y-87630000D02*
X127000000Y-87630000D01*
X183515000Y-97155000D02*
X185420000Y-97155000D01*
X179070000Y-101600000D02*
X183515000Y-97155000D01*
X140970000Y-101600000D02*
X179070000Y-101600000D01*
X127000000Y-87630000D02*
X140970000Y-101600000D01*
X185420000Y-90170000D02*
X185420000Y-94615000D01*
X123190000Y-90170000D02*
X128270000Y-90170000D01*
X201930000Y-97155000D02*
X203835000Y-97155000D01*
X196850000Y-102235000D02*
X201930000Y-97155000D01*
X140335000Y-102235000D02*
X196850000Y-102235000D01*
X128270000Y-90170000D02*
X140335000Y-102235000D01*
X203835000Y-94615000D02*
X203835000Y-90170000D01*
X217805000Y-97155000D02*
X215900000Y-97155000D01*
X129540000Y-92710000D02*
X120650000Y-92710000D01*
X139700000Y-102870000D02*
X129540000Y-92710000D01*
X210185000Y-102870000D02*
X139700000Y-102870000D01*
X215900000Y-97155000D02*
X210185000Y-102870000D01*
X217805000Y-90170000D02*
X217805000Y-94615000D01*
X120015000Y-99695000D02*
X120015000Y-102870000D01*
X128270000Y-74930000D02*
X130810000Y-74930000D01*
X130810000Y-77470000D02*
X125730000Y-77470000D01*
X123190000Y-80010000D02*
X130810000Y-80010000D01*
X130810000Y-82550000D02*
X120650000Y-82550000D01*
X161925000Y-82550000D02*
X166370000Y-82550000D01*
X166370000Y-82550000D02*
X173990000Y-74930000D01*
X173990000Y-74930000D02*
X174625000Y-74930000D01*
X174625000Y-74930000D02*
X175895000Y-73660000D01*
X175895000Y-73660000D02*
X177165000Y-73660000D01*
X177165000Y-73660000D02*
X177800000Y-74295000D01*
X177800000Y-74295000D02*
X177800000Y-75565000D01*
X177800000Y-75565000D02*
X179070000Y-76835000D01*
X179070000Y-76835000D02*
X187325000Y-76835000D01*
X187325000Y-76835000D02*
X187960000Y-76200000D01*
X187960000Y-76200000D02*
X187960000Y-74930000D01*
X187960000Y-74930000D02*
X189230000Y-73660000D01*
X189230000Y-73660000D02*
X191135000Y-73660000D01*
X191135000Y-73660000D02*
X191770000Y-74295000D01*
X191770000Y-74295000D02*
X191770000Y-75565000D01*
X191770000Y-75565000D02*
X193170198Y-76965198D01*
X193170198Y-76965198D02*
X205609802Y-76965198D01*
X205609802Y-76965198D02*
X206375000Y-76200000D01*
X206375000Y-76200000D02*
X206375000Y-74930000D01*
X206375000Y-74930000D02*
X207645000Y-73660000D01*
X207645000Y-73660000D02*
X209550000Y-73660000D01*
X209550000Y-73660000D02*
X210185000Y-74295000D01*
X210185000Y-74295000D02*
X210185000Y-76200000D01*
X210185000Y-76200000D02*
X210820000Y-76835000D01*
X210820000Y-76835000D02*
X219710000Y-76835000D01*
X219710000Y-76835000D02*
X220345000Y-76200000D01*
X220345000Y-76200000D02*
X220345000Y-74930000D01*
X149225000Y-82550000D02*
X151765000Y-82550000D01*
X161925000Y-85090000D02*
X166370000Y-85090000D01*
X166370000Y-85090000D02*
X176530000Y-74930000D01*
X190500000Y-76835000D02*
X190500000Y-77470000D01*
X208915000Y-76835000D02*
X208915000Y-77470000D01*
X177800000Y-76835000D02*
X178435000Y-77470000D01*
X178435000Y-77470000D02*
X190500000Y-77470000D01*
X190500000Y-77470000D02*
X208915000Y-77470000D01*
X220345000Y-77470000D02*
X220980000Y-76835000D01*
X208915000Y-77470000D02*
X220345000Y-77470000D01*
X190500000Y-74930000D02*
X190500000Y-76835000D01*
X208915000Y-74930000D02*
X208915000Y-76835000D01*
X176530000Y-74930000D02*
X176530000Y-75565000D01*
X176530000Y-75565000D02*
X177800000Y-76835000D01*
X220980000Y-76835000D02*
X222885000Y-74930000D01*
X149225000Y-85090000D02*
X151765000Y-85090000D01*
X206375000Y-90170000D02*
X207645000Y-91440000D01*
X187960000Y-90170000D02*
X190500000Y-92710000D01*
X219075000Y-88900000D02*
X220345000Y-90170000D01*
X217170000Y-88900000D02*
X219075000Y-88900000D01*
X216535000Y-89535000D02*
X217170000Y-88900000D01*
X216535000Y-92075000D02*
X216535000Y-89535000D01*
X215900000Y-92710000D02*
X216535000Y-92075000D01*
X208915000Y-92710000D02*
X215900000Y-92710000D01*
X205105000Y-88900000D02*
X207645000Y-91440000D01*
X207645000Y-91440000D02*
X208915000Y-92710000D01*
X203200000Y-88900000D02*
X205105000Y-88900000D01*
X202565000Y-89535000D02*
X203200000Y-88900000D01*
X202565000Y-92075000D02*
X202565000Y-89535000D01*
X201930000Y-92710000D02*
X202565000Y-92075000D01*
X190500000Y-92710000D02*
X201930000Y-92710000D01*
X187960000Y-90170000D02*
X186690000Y-88900000D01*
X161925000Y-87630000D02*
X160020000Y-89535000D01*
X172720000Y-88900000D02*
X173990000Y-90170000D01*
X170815000Y-88900000D02*
X172720000Y-88900000D01*
X170180000Y-89535000D02*
X170815000Y-88900000D01*
X170180000Y-91440000D02*
X170180000Y-89535000D01*
X167005000Y-94615000D02*
X170180000Y-91440000D01*
X160655000Y-94615000D02*
X167005000Y-94615000D01*
X160020000Y-93980000D02*
X160655000Y-94615000D01*
X160020000Y-89535000D02*
X160020000Y-93980000D01*
X173990000Y-90170000D02*
X173990000Y-91440000D01*
X184785000Y-88900000D02*
X186690000Y-88900000D01*
X184150000Y-89535000D02*
X184785000Y-88900000D01*
X184150000Y-92075000D02*
X184150000Y-89535000D01*
X182880000Y-93345000D02*
X184150000Y-92075000D01*
X175895000Y-93345000D02*
X182880000Y-93345000D01*
X173990000Y-91440000D02*
X175895000Y-93345000D01*
X161925000Y-87630000D02*
X162560000Y-87630000D01*
X149225000Y-87630000D02*
X151765000Y-87630000D01*
X215265000Y-90170000D02*
X213995000Y-91440000D01*
X201295000Y-88900000D02*
X201295000Y-90170000D01*
X201930000Y-88265000D02*
X201295000Y-88900000D01*
X209550000Y-88265000D02*
X201930000Y-88265000D01*
X210820000Y-89535000D02*
X209550000Y-88265000D01*
X210820000Y-90805000D02*
X210820000Y-89535000D01*
X211455000Y-91440000D02*
X210820000Y-90805000D01*
X213995000Y-91440000D02*
X211455000Y-91440000D01*
X201295000Y-90170000D02*
X200025000Y-91440000D01*
X200025000Y-91440000D02*
X194310000Y-91440000D01*
X194310000Y-91440000D02*
X191135000Y-88265000D01*
X191135000Y-88265000D02*
X184150000Y-88265000D01*
X184150000Y-88265000D02*
X182880000Y-89535000D01*
X182880000Y-89535000D02*
X182880000Y-90805000D01*
X182880000Y-90805000D02*
X182245000Y-91440000D01*
X182245000Y-91440000D02*
X179705000Y-91440000D01*
X179705000Y-91440000D02*
X176530000Y-88265000D01*
X176530000Y-88265000D02*
X170180000Y-88265000D01*
X170180000Y-88265000D02*
X168910000Y-89535000D01*
X168910000Y-89535000D02*
X168910000Y-90170000D01*
X168910000Y-90170000D02*
X165735000Y-93345000D01*
X160655000Y-91440000D02*
X161925000Y-90170000D01*
X160655000Y-93345000D02*
X160655000Y-91440000D01*
X161290000Y-93980000D02*
X160655000Y-93345000D01*
X165100000Y-93980000D02*
X161290000Y-93980000D01*
X165735000Y-93345000D02*
X165100000Y-93980000D01*
X151765000Y-90170000D02*
X149225000Y-90170000D01*
X166370000Y-90170000D02*
X166370000Y-88900000D01*
X180340000Y-90170000D02*
X180340000Y-88900000D01*
X180340000Y-88900000D02*
X180340000Y-88265000D01*
X198755000Y-90170000D02*
X198755000Y-85090000D01*
X180340000Y-88265000D02*
X180340000Y-85090000D01*
X212725000Y-90170000D02*
X212725000Y-86995000D01*
X210820000Y-85090000D02*
X198755000Y-85090000D01*
X212725000Y-86995000D02*
X210820000Y-85090000D01*
X198755000Y-85090000D02*
X180340000Y-85090000D01*
X165100000Y-92710000D02*
X161925000Y-92710000D01*
X180340000Y-85090000D02*
X168910000Y-85090000D01*
X168910000Y-85090000D02*
X166370000Y-87630000D01*
X166370000Y-87630000D02*
X166370000Y-88900000D01*
X166370000Y-88900000D02*
X166370000Y-91440000D01*
X166370000Y-91440000D02*
X165100000Y-92710000D01*
X198755000Y-90170000D02*
X198755000Y-90043000D01*
X180340000Y-90170000D02*
X180467000Y-90170000D01*
X149225000Y-92710000D02*
X151765000Y-92710000D01*
X182880000Y-74930000D02*
X181610000Y-76200000D01*
X201295000Y-74930000D02*
X200025000Y-76200000D01*
X161925000Y-77470000D02*
X166370000Y-77470000D01*
X166370000Y-77470000D02*
X168910000Y-74930000D01*
X215265000Y-74930000D02*
X213995000Y-76200000D01*
X170815000Y-73025000D02*
X168910000Y-74930000D01*
X177419000Y-73025000D02*
X170815000Y-73025000D01*
X178435000Y-74041000D02*
X177419000Y-73025000D01*
X178435000Y-75184000D02*
X178435000Y-74041000D01*
X179451000Y-76200000D02*
X178435000Y-75184000D01*
X181610000Y-76200000D02*
X179451000Y-76200000D01*
X184785000Y-73025000D02*
X181610000Y-76200000D01*
X191516000Y-73025000D02*
X184785000Y-73025000D01*
X194818000Y-76327000D02*
X191516000Y-73025000D01*
X199898000Y-76327000D02*
X194818000Y-76327000D01*
X203200000Y-73025000D02*
X200025000Y-76200000D01*
X200025000Y-76200000D02*
X199898000Y-76327000D01*
X209804000Y-73025000D02*
X203200000Y-73025000D01*
X210820000Y-74041000D02*
X209804000Y-73025000D01*
X210820000Y-74295000D02*
X210820000Y-74041000D01*
X210820000Y-75565000D02*
X210820000Y-74295000D01*
X211455000Y-76200000D02*
X210820000Y-75565000D01*
X213995000Y-76200000D02*
X211455000Y-76200000D01*
X151765000Y-77470000D02*
X149225000Y-77470000D01*
X161925000Y-80010000D02*
X160020000Y-78105000D01*
X160655000Y-74930000D02*
X166370000Y-74930000D01*
X160020000Y-75565000D02*
X160655000Y-74930000D01*
X160020000Y-78105000D02*
X160020000Y-75565000D01*
X180340000Y-73025000D02*
X180340000Y-72390000D01*
X198755000Y-73025000D02*
X198755000Y-72390000D01*
X168275000Y-73025000D02*
X168910000Y-72390000D01*
X168910000Y-72390000D02*
X180340000Y-72390000D01*
X180340000Y-72390000D02*
X198755000Y-72390000D01*
X210185000Y-72390000D02*
X210820000Y-73025000D01*
X198755000Y-72390000D02*
X210185000Y-72390000D01*
X198755000Y-74930000D02*
X198755000Y-73025000D01*
X180340000Y-74930000D02*
X180340000Y-73025000D01*
X212725000Y-74930000D02*
X210820000Y-73025000D01*
X168275000Y-73025000D02*
X166370000Y-74930000D01*
X149225000Y-80010000D02*
X151765000Y-80010000D01*
X95885000Y-111760000D02*
X95885000Y-115570000D01*
X95885000Y-111760000D02*
X101600000Y-106045000D01*
X100965000Y-78740000D02*
X99695000Y-78740000D01*
X101600000Y-79375000D02*
X100965000Y-78740000D01*
X101600000Y-106045000D02*
X101600000Y-79375000D01*
X107315000Y-86360000D02*
X105410000Y-86360000D01*
X109220000Y-100330000D02*
X109855000Y-99695000D01*
X105410000Y-100330000D02*
X109220000Y-100330000D01*
X104140000Y-99060000D02*
X105410000Y-100330000D01*
X104140000Y-87630000D02*
X104140000Y-99060000D01*
X105410000Y-86360000D02*
X104140000Y-87630000D01*
X93027500Y-100647500D02*
X93027500Y-96202500D01*
X93027500Y-96202500D02*
X94615000Y-94615000D01*
X90805000Y-102870000D02*
X93027500Y-100647500D01*
X94615000Y-94615000D02*
X94615000Y-88900000D01*
X94615000Y-88900000D02*
X99695000Y-88900000D01*
X97155000Y-86360000D02*
X95885000Y-86360000D01*
X93345000Y-91440000D02*
X90805000Y-93980000D01*
X93345000Y-88265000D02*
X93345000Y-91440000D01*
X93980000Y-87630000D02*
X93345000Y-88265000D01*
X94615000Y-87630000D02*
X93980000Y-87630000D01*
X95885000Y-86360000D02*
X94615000Y-87630000D01*
X97155000Y-86360000D02*
X99695000Y-86360000D01*
X130810000Y-69850000D02*
X130810000Y-72390000D01*
X136525000Y-81915000D02*
X136525000Y-80645000D01*
X137160000Y-80010000D02*
X138430000Y-80010000D01*
X136525000Y-80645000D02*
X137160000Y-80010000D01*
X141605000Y-87630000D02*
X137795000Y-87630000D01*
X136525000Y-86360000D02*
X136525000Y-81915000D01*
X137795000Y-87630000D02*
X136525000Y-86360000D01*
X138430000Y-77470000D02*
X141605000Y-77470000D01*
X138430000Y-74930000D02*
X141605000Y-74930000D01*
X141605000Y-90170000D02*
X139065000Y-90170000D01*
X137160000Y-72390000D02*
X138430000Y-72390000D01*
X135890000Y-73660000D02*
X137160000Y-72390000D01*
X135890000Y-86995000D02*
X135890000Y-73660000D01*
X139065000Y-90170000D02*
X135890000Y-86995000D01*
X95885000Y-74930000D02*
X95885000Y-71120000D01*
X112395000Y-69850000D02*
X112395000Y-71120000D01*
X111125000Y-68580000D02*
X112395000Y-69850000D01*
X98425000Y-68580000D02*
X111125000Y-68580000D01*
X95885000Y-71120000D02*
X98425000Y-68580000D01*
X112395000Y-71120000D02*
X112395000Y-70485000D01*
M02*
