M48
;DRILL file {KiCad 4.0.1-stable} date 01/19/17 22:09:21
;FORMAT={-:-/ absolute / metric / decimal}
FMAT,2
METRIC,TZ
T1C0.700
T2C0.900
T3C1.000
T4C1.100
T5C3.200
%
G90
G05
M71
T1
X94.615Y-80.01
X94.615Y-82.55
X94.615Y-85.09
X94.615Y-88.9
X94.615Y-99.06
X95.885Y-115.57
X97.155Y-86.36
X97.155Y-96.52
X99.695Y-76.2
X99.695Y-78.74
X99.695Y-81.28
X99.695Y-83.82
X99.695Y-86.36
X99.695Y-88.9
X99.695Y-91.44
X99.695Y-93.98
X99.695Y-96.52
X99.695Y-99.06
X106.045Y-115.57
X107.315Y-76.2
X107.315Y-78.74
X107.315Y-81.28
X107.315Y-83.82
X107.315Y-86.36
X107.315Y-88.9
X107.315Y-91.44
X107.315Y-93.98
X107.315Y-96.52
X107.315Y-99.06
X109.855Y-74.295
X109.855Y-81.28
X109.855Y-91.44
X109.855Y-99.695
X112.395Y-74.295
X113.03Y-81.28
X113.03Y-91.44
X113.665Y-106.68
X113.665Y-111.76
X114.935Y-74.295
X115.57Y-77.47
X117.475Y-102.87
X118.11Y-77.47
X120.015Y-69.85
X120.015Y-99.695
X120.015Y-102.87
X120.65Y-77.47
X120.65Y-82.55
X120.65Y-92.71
X122.555Y-69.85
X122.555Y-102.87
X123.19Y-80.01
X123.19Y-90.17
X123.825Y-106.68
X123.825Y-111.76
X125.73Y-77.47
X125.73Y-87.63
X128.27Y-74.93
X128.27Y-85.09
X130.81Y-69.85
X130.81Y-72.39
X130.81Y-74.93
X130.81Y-77.47
X130.81Y-80.01
X130.81Y-82.55
X130.81Y-85.09
X133.35Y-65.405
X135.89Y-65.405
X138.43Y-65.405
X138.43Y-69.85
X138.43Y-72.39
X138.43Y-74.93
X138.43Y-77.47
X138.43Y-80.01
X138.43Y-82.55
X138.43Y-85.09
X141.605Y-74.93
X141.605Y-77.47
X141.605Y-80.01
X141.605Y-82.55
X141.605Y-85.09
X141.605Y-87.63
X141.605Y-90.17
X141.605Y-92.71
X141.605Y-97.155
X144.145Y-97.155
X146.685Y-97.155
X149.225Y-74.93
X149.225Y-77.47
X149.225Y-80.01
X149.225Y-82.55
X149.225Y-85.09
X149.225Y-87.63
X149.225Y-90.17
X149.225Y-92.71
X151.765Y-77.47
X151.765Y-80.01
X151.765Y-82.55
X151.765Y-85.09
X151.765Y-87.63
X151.765Y-90.17
X151.765Y-92.71
X161.925Y-77.47
X161.925Y-80.01
X161.925Y-82.55
X161.925Y-85.09
X161.925Y-87.63
X161.925Y-90.17
X161.925Y-92.71
X166.37Y-74.93
X166.37Y-90.17
X168.91Y-74.93
X168.91Y-90.17
X171.45Y-74.93
X171.45Y-90.17
X171.45Y-94.615
X171.45Y-97.155
X171.45Y-99.695
X173.99Y-74.93
X173.99Y-90.17
X176.53Y-74.93
X176.53Y-90.17
X180.34Y-74.93
X180.34Y-90.17
X182.88Y-74.93
X182.88Y-90.17
X185.42Y-74.93
X185.42Y-90.17
X185.42Y-94.615
X185.42Y-97.155
X185.42Y-99.695
X187.96Y-74.93
X187.96Y-90.17
X190.5Y-74.93
X190.5Y-90.17
X198.755Y-74.93
X198.755Y-90.17
X201.295Y-74.93
X201.295Y-90.17
X203.835Y-74.93
X203.835Y-90.17
X203.835Y-94.615
X203.835Y-97.155
X203.835Y-99.695
X206.375Y-74.93
X206.375Y-90.17
X208.915Y-74.93
X208.915Y-90.17
X212.725Y-74.93
X212.725Y-90.17
X215.265Y-74.93
X215.265Y-90.17
X217.805Y-74.93
X217.805Y-90.17
X217.805Y-94.615
X217.805Y-97.155
X217.805Y-99.695
X220.345Y-74.93
X220.345Y-90.17
X222.885Y-74.93
X222.885Y-90.17
T3
X91.44Y-78.74
X91.44Y-81.28
X91.44Y-83.82
X91.44Y-86.36
X93.345Y-74.93
X95.885Y-74.93
X99.695Y-71.12
X102.235Y-71.12
X104.775Y-71.12
X107.315Y-71.12
X109.855Y-71.12
X112.395Y-71.12
X116.205Y-83.82
X116.205Y-86.36
X116.205Y-88.9
X116.205Y-91.44
X116.205Y-93.98
X116.205Y-96.52
X120.015Y-63.5
X122.555Y-63.5
X125.73Y-100.33
X125.73Y-102.87
T4
X95.885Y-106.68
X95.885Y-111.76
X111.125Y-106.68
X111.125Y-109.22
X111.125Y-111.76
T5
X92.71Y-64.135
X92.71Y-121.285
X226.06Y-64.135
X226.06Y-121.285
T2
X91.555Y-93.98G85X90.055Y-93.98
G05
X91.555Y-98.425G85X90.055Y-98.425
G05
X91.555Y-102.87G85X90.055Y-102.87
G05
T0
M30
