G04 #@! TF.FileFunction,Copper,L2,Bot,Signal*
%FSLAX46Y46*%
G04 Gerber Fmt 4.6, Leading zero omitted, Abs format (unit mm)*
G04 Created by KiCad (PCBNEW 4.0.1-stable) date 12/26/16 04:16:57*
%MOMM*%
G01*
G04 APERTURE LIST*
%ADD10C,0.100000*%
%ADD11R,1.916000X1.916000*%
%ADD12C,1.916000*%
%ADD13C,1.716000*%
%ADD14R,1.962000X1.962000*%
%ADD15C,1.962000*%
%ADD16R,2.216000X2.216000*%
%ADD17C,2.216000*%
%ADD18C,3.800000*%
%ADD19C,1.270000*%
%ADD20C,0.508000*%
G04 APERTURE END LIST*
D10*
D11*
X147320000Y-104775000D03*
D12*
X147320000Y-112395000D03*
D11*
X129540000Y-104775000D03*
D12*
X129540000Y-112395000D03*
D13*
X159385000Y-114300000D03*
X161925000Y-114300000D03*
X164465000Y-114300000D03*
D11*
X172720000Y-133985000D03*
D12*
X172720000Y-126365000D03*
D11*
X180340000Y-105410000D03*
D12*
X180340000Y-113030000D03*
D11*
X159385000Y-120650000D03*
D12*
X164465000Y-120650000D03*
D14*
X151130000Y-140335000D03*
D15*
X158750000Y-140335000D03*
D13*
X146050000Y-122555000D03*
X148590000Y-119888000D03*
X151130000Y-122555000D03*
X190500000Y-131445000D03*
X187833000Y-128905000D03*
X190500000Y-126365000D03*
X126365000Y-120015000D03*
X136525000Y-120015000D03*
X154940000Y-118110000D03*
X154940000Y-128270000D03*
X180340000Y-136525000D03*
X190500000Y-136525000D03*
X190500000Y-121920000D03*
X180340000Y-121920000D03*
X106045000Y-129540000D03*
X106045000Y-119380000D03*
X109220000Y-119380000D03*
X109220000Y-129540000D03*
X130175000Y-117475000D03*
X120015000Y-117475000D03*
X112395000Y-119380000D03*
X112395000Y-129540000D03*
X115570000Y-129540000D03*
X115570000Y-119380000D03*
X142240000Y-123190000D03*
X132080000Y-123190000D03*
X119380000Y-123190000D03*
X129540000Y-123190000D03*
X138430000Y-129540000D03*
X148590000Y-129540000D03*
X142240000Y-137160000D03*
X132080000Y-137160000D03*
X111125000Y-143510000D03*
X121285000Y-143510000D03*
X124460000Y-143510000D03*
X134620000Y-143510000D03*
X134620000Y-140335000D03*
X124460000Y-140335000D03*
X121920000Y-137160000D03*
X111760000Y-137160000D03*
D16*
X115570000Y-104775000D03*
D17*
X115570000Y-109855000D03*
D16*
X193040000Y-105410000D03*
D17*
X193040000Y-110490000D03*
D12*
X161925000Y-109855000D03*
D11*
X159385000Y-109855000D03*
D12*
X164465000Y-109855000D03*
X167005000Y-109855000D03*
X165735000Y-104775000D03*
X163195000Y-104775000D03*
X160655000Y-104775000D03*
D13*
X107950000Y-134620000D03*
X107950000Y-132080000D03*
X107950000Y-137160000D03*
X134620000Y-126365000D03*
X132080000Y-126365000D03*
X129540000Y-126365000D03*
X127000000Y-126365000D03*
X124460000Y-126365000D03*
X121920000Y-126365000D03*
X119380000Y-126365000D03*
X119380000Y-133985000D03*
X121920000Y-133985000D03*
X124460000Y-133985000D03*
X127000000Y-133985000D03*
X129540000Y-133985000D03*
X132080000Y-133985000D03*
X134620000Y-133985000D03*
D18*
X200660000Y-101600000D03*
X101600000Y-101600000D03*
X101600000Y-147320000D03*
X200660000Y-147320000D03*
D19*
X126365000Y-120015000D02*
X123825000Y-117475000D01*
X129540000Y-104775000D02*
X132715000Y-104775000D01*
X106045000Y-119380000D02*
X106045000Y-114300000D01*
X106045000Y-114300000D02*
X112395000Y-107950000D01*
X127000000Y-126365000D02*
X127000000Y-120650000D01*
X127000000Y-120650000D02*
X123825000Y-117475000D01*
X123825000Y-117475000D02*
X120650000Y-114300000D01*
X120650000Y-114300000D02*
X119380000Y-113030000D01*
X112395000Y-107950000D02*
X115570000Y-104775000D01*
X112395000Y-110490000D02*
X112395000Y-107950000D01*
X114935000Y-113030000D02*
X112395000Y-110490000D01*
X119380000Y-113030000D02*
X114935000Y-113030000D01*
X127000000Y-120650000D02*
X119380000Y-113030000D01*
X115570000Y-104775000D02*
X129540000Y-104775000D01*
X132715000Y-104775000D02*
X147320000Y-104775000D01*
X147320000Y-104775000D02*
X160655000Y-104775000D01*
X180340000Y-121920000D02*
X177165000Y-121920000D01*
X177165000Y-121920000D02*
X172720000Y-126365000D01*
X164465000Y-120650000D02*
X172720000Y-120650000D01*
X172720000Y-126365000D02*
X172720000Y-120650000D01*
X172720000Y-120650000D02*
X180340000Y-113030000D01*
X193040000Y-110490000D02*
X182880000Y-110490000D01*
X182880000Y-110490000D02*
X180340000Y-113030000D01*
X164465000Y-120650000D02*
X170815000Y-114300000D01*
X168275000Y-107315000D02*
X161925000Y-107315000D01*
X170815000Y-109855000D02*
X168275000Y-107315000D01*
X170815000Y-114300000D02*
X170815000Y-109855000D01*
X130175000Y-117475000D02*
X130175000Y-113030000D01*
X130175000Y-113030000D02*
X129540000Y-112395000D01*
X107950000Y-134620000D02*
X114300000Y-134620000D01*
X121920000Y-131445000D02*
X124460000Y-128905000D01*
X117475000Y-131445000D02*
X121920000Y-131445000D01*
X114300000Y-134620000D02*
X117475000Y-131445000D01*
X147320000Y-112395000D02*
X149860000Y-112395000D01*
X154940000Y-118110000D02*
X154940000Y-117475000D01*
X154940000Y-117475000D02*
X153670000Y-116205000D01*
X154940000Y-117475000D02*
X153670000Y-116205000D01*
X153670000Y-116205000D02*
X149860000Y-112395000D01*
X129540000Y-126365000D02*
X129540000Y-133985000D01*
X129540000Y-133985000D02*
X127000000Y-133985000D01*
X127000000Y-133985000D02*
X124460000Y-133985000D01*
X124460000Y-133985000D02*
X124460000Y-128905000D01*
X124460000Y-128905000D02*
X124460000Y-126365000D01*
X115570000Y-109855000D02*
X127000000Y-109855000D01*
X127000000Y-109855000D02*
X129540000Y-112395000D01*
X129540000Y-112395000D02*
X149860000Y-112395000D01*
X154940000Y-107315000D02*
X161925000Y-107315000D01*
X149860000Y-112395000D02*
X154940000Y-107315000D01*
X161925000Y-107315000D02*
X163195000Y-106045000D01*
X163195000Y-106045000D02*
X163195000Y-104775000D01*
X151130000Y-140335000D02*
X151130000Y-136525000D01*
X159385000Y-128270000D02*
X159385000Y-120650000D01*
X151130000Y-136525000D02*
X159385000Y-128270000D01*
X159385000Y-109855000D02*
X159385000Y-114300000D01*
X159385000Y-114300000D02*
X159385000Y-120650000D01*
D20*
X164465000Y-114300000D02*
X161925000Y-114300000D01*
X161925000Y-114300000D02*
X161925000Y-109855000D01*
D19*
X158750000Y-140335000D02*
X166370000Y-140335000D01*
X166370000Y-140335000D02*
X172720000Y-133985000D01*
X172720000Y-133985000D02*
X173355000Y-133985000D01*
X173355000Y-133985000D02*
X195580000Y-111760000D01*
X195580000Y-111760000D02*
X195580000Y-107950000D01*
X195580000Y-107950000D02*
X193040000Y-105410000D01*
X180340000Y-105410000D02*
X193040000Y-105410000D01*
D20*
X136525000Y-120015000D02*
X143510000Y-120015000D01*
X143510000Y-120015000D02*
X146050000Y-122555000D01*
X148590000Y-119888000D02*
X148590000Y-123190000D01*
X143510000Y-124460000D02*
X142240000Y-123190000D01*
X147320000Y-124460000D02*
X143510000Y-124460000D01*
X148590000Y-123190000D02*
X147320000Y-124460000D01*
X154940000Y-128270000D02*
X154940000Y-126365000D01*
X154940000Y-126365000D02*
X151130000Y-122555000D01*
X190500000Y-131445000D02*
X190500000Y-136525000D01*
X167005000Y-109855000D02*
X167005000Y-114935000D01*
X187833000Y-135382000D02*
X187833000Y-128905000D01*
X180975000Y-142240000D02*
X187833000Y-135382000D01*
X158115000Y-142240000D02*
X180975000Y-142240000D01*
X156845000Y-140970000D02*
X158115000Y-142240000D01*
X156845000Y-139065000D02*
X156845000Y-140970000D01*
X161925000Y-133985000D02*
X156845000Y-139065000D01*
X161925000Y-120015000D02*
X161925000Y-133985000D01*
X167005000Y-114935000D02*
X161925000Y-120015000D01*
X190500000Y-126365000D02*
X190500000Y-121920000D01*
X107950000Y-132080000D02*
X107315000Y-132715000D01*
X107950000Y-137160000D02*
X106680000Y-135890000D01*
X106045000Y-129540000D02*
X109220000Y-129540000D01*
X106680000Y-135890000D02*
X106045000Y-135255000D01*
X109220000Y-130810000D02*
X109220000Y-129540000D01*
X106045000Y-133985000D02*
X107315000Y-132715000D01*
X107315000Y-132715000D02*
X109220000Y-130810000D01*
X106045000Y-135255000D02*
X106045000Y-133985000D01*
X111125000Y-143510000D02*
X104140000Y-136525000D01*
X104140000Y-124460000D02*
X109220000Y-119380000D01*
X104140000Y-136525000D02*
X104140000Y-124460000D01*
X120015000Y-117475000D02*
X114300000Y-117475000D01*
X114300000Y-117475000D02*
X112395000Y-119380000D01*
X109220000Y-119380000D02*
X112395000Y-119380000D01*
X112395000Y-129540000D02*
X115570000Y-129540000D01*
X115570000Y-129540000D02*
X120650000Y-129540000D01*
X120650000Y-129540000D02*
X121920000Y-128270000D01*
X121920000Y-128270000D02*
X121920000Y-126365000D01*
X115570000Y-119380000D02*
X119380000Y-123190000D01*
X119380000Y-123190000D02*
X119380000Y-126365000D01*
X138430000Y-129540000D02*
X135255000Y-129540000D01*
X135255000Y-129540000D02*
X132080000Y-126365000D01*
X129540000Y-123190000D02*
X132080000Y-123190000D01*
X132080000Y-123190000D02*
X132080000Y-126365000D01*
X142240000Y-137160000D02*
X142240000Y-129540000D01*
X142240000Y-129540000D02*
X139065000Y-126365000D01*
X134620000Y-126365000D02*
X139065000Y-126365000D01*
X139065000Y-126365000D02*
X145415000Y-126365000D01*
X145415000Y-126365000D02*
X148590000Y-129540000D01*
X124460000Y-143510000D02*
X121285000Y-143510000D01*
X124460000Y-143510000D02*
X128905000Y-143510000D01*
X132080000Y-140335000D02*
X132080000Y-137160000D01*
X128905000Y-143510000D02*
X132080000Y-140335000D01*
X132080000Y-137160000D02*
X132080000Y-133985000D01*
X134620000Y-133985000D02*
X134620000Y-140335000D01*
X134620000Y-140335000D02*
X134620000Y-143510000D01*
X124460000Y-140335000D02*
X124460000Y-139700000D01*
X124460000Y-139700000D02*
X121920000Y-137160000D01*
X121920000Y-137160000D02*
X121920000Y-133985000D01*
D19*
X165735000Y-104775000D02*
X165735000Y-104140000D01*
X165735000Y-104140000D02*
X163830000Y-102235000D01*
X163830000Y-102235000D02*
X113665000Y-102235000D01*
X113665000Y-102235000D02*
X102235000Y-113665000D01*
X102235000Y-113665000D02*
X102235000Y-137795000D01*
X102235000Y-137795000D02*
X110490000Y-146050000D01*
X110490000Y-146050000D02*
X113030000Y-146050000D01*
X113030000Y-146050000D02*
X116205000Y-142875000D01*
X116205000Y-142875000D02*
X116205000Y-137160000D01*
X111760000Y-137160000D02*
X116205000Y-137160000D01*
X116205000Y-137160000D02*
X119380000Y-133985000D01*
M02*
