M48
;DRILL file {KiCad 4.0.1-stable} date 12/26/16 04:17:00
;FORMAT={-:-/ absolute / metric / decimal}
FMAT,2
METRIC,TZ
T1C0.700
T2C0.900
T3C1.200
T4C3.200
%
G90
G05
M71
T1
X106.045Y-119.38
X106.045Y-129.54
X107.95Y-132.08
X107.95Y-134.62
X107.95Y-137.16
X109.22Y-119.38
X109.22Y-129.54
X111.125Y-143.51
X111.76Y-137.16
X112.395Y-119.38
X112.395Y-129.54
X115.57Y-119.38
X115.57Y-129.54
X119.38Y-123.19
X119.38Y-126.365
X119.38Y-133.985
X120.015Y-117.475
X121.285Y-143.51
X121.92Y-126.365
X121.92Y-133.985
X121.92Y-137.16
X124.46Y-126.365
X124.46Y-133.985
X124.46Y-140.335
X124.46Y-143.51
X126.365Y-120.015
X127.Y-126.365
X127.Y-133.985
X129.54Y-123.19
X129.54Y-126.365
X129.54Y-133.985
X130.175Y-117.475
X132.08Y-123.19
X132.08Y-126.365
X132.08Y-133.985
X132.08Y-137.16
X134.62Y-126.365
X134.62Y-133.985
X134.62Y-140.335
X134.62Y-143.51
X136.525Y-120.015
X138.43Y-129.54
X142.24Y-123.19
X142.24Y-137.16
X146.05Y-122.555
X148.59Y-119.888
X148.59Y-129.54
X151.13Y-122.555
X154.94Y-118.11
X154.94Y-128.27
X159.385Y-114.3
X161.925Y-114.3
X164.465Y-114.3
X180.34Y-121.92
X180.34Y-136.525
X187.833Y-128.905
X190.5Y-121.92
X190.5Y-126.365
X190.5Y-131.445
X190.5Y-136.525
T2
X129.54Y-104.775
X129.54Y-112.395
X147.32Y-104.775
X147.32Y-112.395
X159.385Y-109.855
X159.385Y-120.65
X160.655Y-104.775
X161.925Y-109.855
X163.195Y-104.775
X164.465Y-109.855
X164.465Y-120.65
X165.735Y-104.775
X167.005Y-109.855
X172.72Y-126.365
X172.72Y-133.985
X180.34Y-105.41
X180.34Y-113.03
T3
X115.57Y-104.775
X115.57Y-109.855
X151.13Y-140.335
X158.75Y-140.335
X193.04Y-105.41
X193.04Y-110.49
T4
X101.6Y-101.6
X101.6Y-147.32
X200.66Y-101.6
X200.66Y-147.32
T0
M30
