G04 #@! TF.FileFunction,Legend,Top*
%FSLAX46Y46*%
G04 Gerber Fmt 4.6, Leading zero omitted, Abs format (unit mm)*
G04 Created by KiCad (PCBNEW 4.0.1-stable) date 12/26/16 04:16:57*
%MOMM*%
G01*
G04 APERTURE LIST*
%ADD10C,0.100000*%
%ADD11C,0.150000*%
G04 APERTURE END LIST*
D10*
D11*
X147320000Y-102235000D02*
X147320000Y-103505000D01*
X147320000Y-103505000D02*
X147320000Y-102870000D01*
X147320000Y-102870000D02*
X147955000Y-102870000D01*
X147955000Y-102870000D02*
X146685000Y-102870000D01*
X147955000Y-111379000D02*
X146812000Y-111252000D01*
X148367269Y-112395000D02*
G75*
G03X148367269Y-112395000I-1047269J0D01*
G01*
X155321000Y-108585000D02*
X139319000Y-108585000D01*
X139319000Y-108585000D02*
X139344400Y-108712000D01*
X139344400Y-108712000D02*
X155295600Y-108712000D01*
X155295600Y-108712000D02*
X155295600Y-108839000D01*
X155295600Y-108839000D02*
X139395200Y-108839000D01*
X139395200Y-108839000D02*
X139395200Y-108966000D01*
X139395200Y-108966000D02*
X155270200Y-108966000D01*
X155270200Y-108966000D02*
X155270200Y-109093000D01*
X155270200Y-109093000D02*
X139395200Y-109093000D01*
X139395200Y-109093000D02*
X139395200Y-109220000D01*
X139395200Y-109220000D02*
X155295600Y-109220000D01*
X155295600Y-109220000D02*
X155219400Y-109347000D01*
X155219400Y-109347000D02*
X139420600Y-109347000D01*
X139420600Y-109347000D02*
X139420600Y-109474000D01*
X139420600Y-109474000D02*
X155219400Y-109474000D01*
X155219400Y-109474000D02*
X155219400Y-109601000D01*
X155219400Y-109601000D02*
X139471400Y-109601000D01*
X139471400Y-109601000D02*
X139471400Y-109728000D01*
X139471400Y-109728000D02*
X155219400Y-109728000D01*
X155219400Y-109728000D02*
X155168600Y-109855000D01*
X155168600Y-109855000D02*
X139471400Y-109855000D01*
X139471400Y-109855000D02*
X139496800Y-109982000D01*
X139496800Y-109982000D02*
X155143200Y-109982000D01*
X155143200Y-109982000D02*
X155117800Y-110109000D01*
X155117800Y-110109000D02*
X139522200Y-110109000D01*
X139522200Y-110109000D02*
X139547600Y-110236000D01*
X139547600Y-110236000D02*
X155041600Y-110236000D01*
X155041600Y-110236000D02*
X155041600Y-110363000D01*
X155041600Y-110363000D02*
X139598400Y-110363000D01*
X139598400Y-110363000D02*
X139623800Y-110490000D01*
X139623800Y-110490000D02*
X155016200Y-110490000D01*
X155016200Y-110490000D02*
X155016200Y-110617000D01*
X155016200Y-110617000D02*
X139649200Y-110617000D01*
X139649200Y-110617000D02*
X139649200Y-110744000D01*
X139649200Y-110744000D02*
X154965400Y-110744000D01*
X154965400Y-110744000D02*
X154940000Y-110871000D01*
X154940000Y-110871000D02*
X139700000Y-110871000D01*
X139700000Y-110871000D02*
X139763500Y-110998000D01*
X139763500Y-110998000D02*
X154876500Y-110998000D01*
X154876500Y-110998000D02*
X154813000Y-111125000D01*
X154813000Y-111125000D02*
X139763500Y-111125000D01*
X139763500Y-111125000D02*
X139827000Y-111252000D01*
X139827000Y-111252000D02*
X154813000Y-111252000D01*
X154813000Y-111252000D02*
X154749500Y-111379000D01*
X154749500Y-111379000D02*
X147764500Y-111379000D01*
X147764500Y-111379000D02*
X147891500Y-111506000D01*
X147891500Y-111506000D02*
X154686000Y-111506000D01*
X154686000Y-111506000D02*
X154686000Y-111633000D01*
X154686000Y-111633000D02*
X148082000Y-111633000D01*
X148082000Y-111633000D02*
X148209000Y-111760000D01*
X148209000Y-111760000D02*
X154559000Y-111760000D01*
X154559000Y-111760000D02*
X154559000Y-111887000D01*
X154559000Y-111887000D02*
X148272500Y-111887000D01*
X148272500Y-111887000D02*
X148336000Y-112014000D01*
X148336000Y-112014000D02*
X154495500Y-112014000D01*
X154495500Y-112014000D02*
X154432000Y-112141000D01*
X154432000Y-112141000D02*
X148399500Y-112141000D01*
X148399500Y-112141000D02*
X148399500Y-112268000D01*
X148399500Y-112268000D02*
X154368500Y-112268000D01*
X154368500Y-112268000D02*
X154305000Y-112395000D01*
X154305000Y-112395000D02*
X148399500Y-112395000D01*
X148399500Y-112395000D02*
X148399500Y-112522000D01*
X148399500Y-112522000D02*
X154241500Y-112522000D01*
X154241500Y-112522000D02*
X154178000Y-112649000D01*
X154178000Y-112649000D02*
X148399500Y-112649000D01*
X148399500Y-112649000D02*
X148336000Y-112776000D01*
X148336000Y-112776000D02*
X154051000Y-112776000D01*
X154051000Y-112776000D02*
X153987500Y-112903000D01*
X153987500Y-112903000D02*
X148272500Y-112903000D01*
X148272500Y-112903000D02*
X148209000Y-113030000D01*
X148209000Y-113030000D02*
X153924000Y-113030000D01*
X153924000Y-113030000D02*
X153797000Y-113157000D01*
X153797000Y-113157000D02*
X148082000Y-113157000D01*
X148082000Y-113157000D02*
X147891500Y-113284000D01*
X147891500Y-113284000D02*
X153733500Y-113284000D01*
X153733500Y-113284000D02*
X153606500Y-113411000D01*
X153606500Y-113411000D02*
X147637500Y-113411000D01*
X147637500Y-113411000D02*
X147637500Y-113538000D01*
X147637500Y-113538000D02*
X153543000Y-113538000D01*
X153543000Y-113538000D02*
X153416000Y-113665000D01*
X153416000Y-113665000D02*
X141224000Y-113665000D01*
X141224000Y-113665000D02*
X141287500Y-113792000D01*
X141287500Y-113792000D02*
X153289000Y-113792000D01*
X153289000Y-113792000D02*
X153225500Y-113919000D01*
X153225500Y-113919000D02*
X141414500Y-113919000D01*
X141414500Y-113919000D02*
X141541500Y-114046000D01*
X141541500Y-114046000D02*
X153098500Y-114046000D01*
X153098500Y-114046000D02*
X152971500Y-114173000D01*
X152971500Y-114173000D02*
X141732000Y-114173000D01*
X141732000Y-114173000D02*
X141795500Y-114300000D01*
X141795500Y-114300000D02*
X152844500Y-114300000D01*
X152844500Y-114300000D02*
X152781000Y-114427000D01*
X152781000Y-114427000D02*
X141986000Y-114427000D01*
X141986000Y-114427000D02*
X142049500Y-114554000D01*
X142049500Y-114554000D02*
X152590500Y-114554000D01*
X152590500Y-114554000D02*
X152463500Y-114681000D01*
X152463500Y-114681000D02*
X142303500Y-114681000D01*
X142303500Y-114681000D02*
X142367000Y-114808000D01*
X142367000Y-114808000D02*
X152273000Y-114808000D01*
X152273000Y-114808000D02*
X152146000Y-114935000D01*
X152146000Y-114935000D02*
X142494000Y-114935000D01*
X142494000Y-114935000D02*
X142748000Y-115062000D01*
X142748000Y-115062000D02*
X151892000Y-115062000D01*
X151892000Y-115062000D02*
X151765000Y-115189000D01*
X151765000Y-115189000D02*
X142875000Y-115189000D01*
X142875000Y-115189000D02*
X143065500Y-115316000D01*
X143065500Y-115316000D02*
X151574500Y-115316000D01*
X151574500Y-115316000D02*
X151384000Y-115443000D01*
X151384000Y-115443000D02*
X143319500Y-115443000D01*
X143319500Y-115443000D02*
X143510000Y-115570000D01*
X143510000Y-115570000D02*
X151130000Y-115570000D01*
X151130000Y-115570000D02*
X150876000Y-115697000D01*
X150876000Y-115697000D02*
X143764000Y-115697000D01*
X143764000Y-115697000D02*
X144018000Y-115824000D01*
X144018000Y-115824000D02*
X150622000Y-115824000D01*
X150622000Y-115824000D02*
X150304500Y-115951000D01*
X150304500Y-115951000D02*
X144335500Y-115951000D01*
X144335500Y-115951000D02*
X144589500Y-116078000D01*
X144589500Y-116078000D02*
X149987000Y-116078000D01*
X149987000Y-116078000D02*
X149606000Y-116205000D01*
X149606000Y-116205000D02*
X145034000Y-116205000D01*
X145034000Y-116205000D02*
X145415000Y-116332000D01*
X145415000Y-116332000D02*
X149098000Y-116332000D01*
X149098000Y-116332000D02*
X148590000Y-116459000D01*
X148590000Y-116459000D02*
X146050000Y-116459000D01*
X146050000Y-116459000D02*
X147574000Y-113538000D01*
X147574000Y-113538000D02*
X141224000Y-113538000D01*
X141224000Y-113538000D02*
X141033500Y-113411000D01*
X141033500Y-113411000D02*
X146939000Y-113411000D01*
X146939000Y-113411000D02*
X146748500Y-113284000D01*
X146748500Y-113284000D02*
X140906500Y-113284000D01*
X140906500Y-113284000D02*
X140779500Y-113157000D01*
X140779500Y-113157000D02*
X146558000Y-113157000D01*
X146558000Y-113157000D02*
X146494500Y-113030000D01*
X146494500Y-113030000D02*
X140779500Y-113030000D01*
X140779500Y-113030000D02*
X140652500Y-112903000D01*
X140652500Y-112903000D02*
X146367500Y-112903000D01*
X146367500Y-112903000D02*
X146304000Y-112776000D01*
X146304000Y-112776000D02*
X140589000Y-112776000D01*
X140589000Y-112776000D02*
X140525500Y-112649000D01*
X140525500Y-112649000D02*
X146240500Y-112649000D01*
X146240500Y-112649000D02*
X146240500Y-112522000D01*
X146240500Y-112522000D02*
X140398500Y-112522000D01*
X140398500Y-112522000D02*
X140335000Y-112395000D01*
X140335000Y-112395000D02*
X146240500Y-112395000D01*
X146240500Y-112395000D02*
X146240500Y-112268000D01*
X146240500Y-112268000D02*
X140271500Y-112268000D01*
X140271500Y-112268000D02*
X140208000Y-112141000D01*
X140208000Y-112141000D02*
X146304000Y-112141000D01*
X146304000Y-112141000D02*
X146304000Y-112014000D01*
X146304000Y-112014000D02*
X140144500Y-112014000D01*
X140144500Y-112014000D02*
X140081000Y-111887000D01*
X140081000Y-111887000D02*
X146367500Y-111887000D01*
X146367500Y-111887000D02*
X146431000Y-111760000D01*
X146431000Y-111760000D02*
X140081000Y-111760000D01*
X140081000Y-111760000D02*
X140017500Y-111633000D01*
X140017500Y-111633000D02*
X146558000Y-111633000D01*
X146558000Y-111633000D02*
X146748500Y-111506000D01*
X146748500Y-111506000D02*
X139954000Y-111506000D01*
X139954000Y-111506000D02*
X139890500Y-111379000D01*
X139890500Y-111379000D02*
X146875500Y-111379000D01*
X155320000Y-108585000D02*
G75*
G03X155320000Y-108585000I-8000000J0D01*
G01*
X129540000Y-102235000D02*
X129540000Y-103505000D01*
X129540000Y-103505000D02*
X129540000Y-102870000D01*
X129540000Y-102870000D02*
X130175000Y-102870000D01*
X130175000Y-102870000D02*
X128905000Y-102870000D01*
X130175000Y-111379000D02*
X129032000Y-111252000D01*
X130587269Y-112395000D02*
G75*
G03X130587269Y-112395000I-1047269J0D01*
G01*
X137541000Y-108585000D02*
X121539000Y-108585000D01*
X121539000Y-108585000D02*
X121564400Y-108712000D01*
X121564400Y-108712000D02*
X137515600Y-108712000D01*
X137515600Y-108712000D02*
X137515600Y-108839000D01*
X137515600Y-108839000D02*
X121615200Y-108839000D01*
X121615200Y-108839000D02*
X121615200Y-108966000D01*
X121615200Y-108966000D02*
X137490200Y-108966000D01*
X137490200Y-108966000D02*
X137490200Y-109093000D01*
X137490200Y-109093000D02*
X121615200Y-109093000D01*
X121615200Y-109093000D02*
X121615200Y-109220000D01*
X121615200Y-109220000D02*
X137515600Y-109220000D01*
X137515600Y-109220000D02*
X137439400Y-109347000D01*
X137439400Y-109347000D02*
X121640600Y-109347000D01*
X121640600Y-109347000D02*
X121640600Y-109474000D01*
X121640600Y-109474000D02*
X137439400Y-109474000D01*
X137439400Y-109474000D02*
X137439400Y-109601000D01*
X137439400Y-109601000D02*
X121691400Y-109601000D01*
X121691400Y-109601000D02*
X121691400Y-109728000D01*
X121691400Y-109728000D02*
X137439400Y-109728000D01*
X137439400Y-109728000D02*
X137388600Y-109855000D01*
X137388600Y-109855000D02*
X121691400Y-109855000D01*
X121691400Y-109855000D02*
X121716800Y-109982000D01*
X121716800Y-109982000D02*
X137363200Y-109982000D01*
X137363200Y-109982000D02*
X137337800Y-110109000D01*
X137337800Y-110109000D02*
X121742200Y-110109000D01*
X121742200Y-110109000D02*
X121767600Y-110236000D01*
X121767600Y-110236000D02*
X137261600Y-110236000D01*
X137261600Y-110236000D02*
X137261600Y-110363000D01*
X137261600Y-110363000D02*
X121818400Y-110363000D01*
X121818400Y-110363000D02*
X121843800Y-110490000D01*
X121843800Y-110490000D02*
X137236200Y-110490000D01*
X137236200Y-110490000D02*
X137236200Y-110617000D01*
X137236200Y-110617000D02*
X121869200Y-110617000D01*
X121869200Y-110617000D02*
X121869200Y-110744000D01*
X121869200Y-110744000D02*
X137185400Y-110744000D01*
X137185400Y-110744000D02*
X137160000Y-110871000D01*
X137160000Y-110871000D02*
X121920000Y-110871000D01*
X121920000Y-110871000D02*
X121983500Y-110998000D01*
X121983500Y-110998000D02*
X137096500Y-110998000D01*
X137096500Y-110998000D02*
X137033000Y-111125000D01*
X137033000Y-111125000D02*
X121983500Y-111125000D01*
X121983500Y-111125000D02*
X122047000Y-111252000D01*
X122047000Y-111252000D02*
X137033000Y-111252000D01*
X137033000Y-111252000D02*
X136969500Y-111379000D01*
X136969500Y-111379000D02*
X129984500Y-111379000D01*
X129984500Y-111379000D02*
X130111500Y-111506000D01*
X130111500Y-111506000D02*
X136906000Y-111506000D01*
X136906000Y-111506000D02*
X136906000Y-111633000D01*
X136906000Y-111633000D02*
X130302000Y-111633000D01*
X130302000Y-111633000D02*
X130429000Y-111760000D01*
X130429000Y-111760000D02*
X136779000Y-111760000D01*
X136779000Y-111760000D02*
X136779000Y-111887000D01*
X136779000Y-111887000D02*
X130492500Y-111887000D01*
X130492500Y-111887000D02*
X130556000Y-112014000D01*
X130556000Y-112014000D02*
X136715500Y-112014000D01*
X136715500Y-112014000D02*
X136652000Y-112141000D01*
X136652000Y-112141000D02*
X130619500Y-112141000D01*
X130619500Y-112141000D02*
X130619500Y-112268000D01*
X130619500Y-112268000D02*
X136588500Y-112268000D01*
X136588500Y-112268000D02*
X136525000Y-112395000D01*
X136525000Y-112395000D02*
X130619500Y-112395000D01*
X130619500Y-112395000D02*
X130619500Y-112522000D01*
X130619500Y-112522000D02*
X136461500Y-112522000D01*
X136461500Y-112522000D02*
X136398000Y-112649000D01*
X136398000Y-112649000D02*
X130619500Y-112649000D01*
X130619500Y-112649000D02*
X130556000Y-112776000D01*
X130556000Y-112776000D02*
X136271000Y-112776000D01*
X136271000Y-112776000D02*
X136207500Y-112903000D01*
X136207500Y-112903000D02*
X130492500Y-112903000D01*
X130492500Y-112903000D02*
X130429000Y-113030000D01*
X130429000Y-113030000D02*
X136144000Y-113030000D01*
X136144000Y-113030000D02*
X136017000Y-113157000D01*
X136017000Y-113157000D02*
X130302000Y-113157000D01*
X130302000Y-113157000D02*
X130111500Y-113284000D01*
X130111500Y-113284000D02*
X135953500Y-113284000D01*
X135953500Y-113284000D02*
X135826500Y-113411000D01*
X135826500Y-113411000D02*
X129857500Y-113411000D01*
X129857500Y-113411000D02*
X129857500Y-113538000D01*
X129857500Y-113538000D02*
X135763000Y-113538000D01*
X135763000Y-113538000D02*
X135636000Y-113665000D01*
X135636000Y-113665000D02*
X123444000Y-113665000D01*
X123444000Y-113665000D02*
X123507500Y-113792000D01*
X123507500Y-113792000D02*
X135509000Y-113792000D01*
X135509000Y-113792000D02*
X135445500Y-113919000D01*
X135445500Y-113919000D02*
X123634500Y-113919000D01*
X123634500Y-113919000D02*
X123761500Y-114046000D01*
X123761500Y-114046000D02*
X135318500Y-114046000D01*
X135318500Y-114046000D02*
X135191500Y-114173000D01*
X135191500Y-114173000D02*
X123952000Y-114173000D01*
X123952000Y-114173000D02*
X124015500Y-114300000D01*
X124015500Y-114300000D02*
X135064500Y-114300000D01*
X135064500Y-114300000D02*
X135001000Y-114427000D01*
X135001000Y-114427000D02*
X124206000Y-114427000D01*
X124206000Y-114427000D02*
X124269500Y-114554000D01*
X124269500Y-114554000D02*
X134810500Y-114554000D01*
X134810500Y-114554000D02*
X134683500Y-114681000D01*
X134683500Y-114681000D02*
X124523500Y-114681000D01*
X124523500Y-114681000D02*
X124587000Y-114808000D01*
X124587000Y-114808000D02*
X134493000Y-114808000D01*
X134493000Y-114808000D02*
X134366000Y-114935000D01*
X134366000Y-114935000D02*
X124714000Y-114935000D01*
X124714000Y-114935000D02*
X124968000Y-115062000D01*
X124968000Y-115062000D02*
X134112000Y-115062000D01*
X134112000Y-115062000D02*
X133985000Y-115189000D01*
X133985000Y-115189000D02*
X125095000Y-115189000D01*
X125095000Y-115189000D02*
X125285500Y-115316000D01*
X125285500Y-115316000D02*
X133794500Y-115316000D01*
X133794500Y-115316000D02*
X133604000Y-115443000D01*
X133604000Y-115443000D02*
X125539500Y-115443000D01*
X125539500Y-115443000D02*
X125730000Y-115570000D01*
X125730000Y-115570000D02*
X133350000Y-115570000D01*
X133350000Y-115570000D02*
X133096000Y-115697000D01*
X133096000Y-115697000D02*
X125984000Y-115697000D01*
X125984000Y-115697000D02*
X126238000Y-115824000D01*
X126238000Y-115824000D02*
X132842000Y-115824000D01*
X132842000Y-115824000D02*
X132524500Y-115951000D01*
X132524500Y-115951000D02*
X126555500Y-115951000D01*
X126555500Y-115951000D02*
X126809500Y-116078000D01*
X126809500Y-116078000D02*
X132207000Y-116078000D01*
X132207000Y-116078000D02*
X131826000Y-116205000D01*
X131826000Y-116205000D02*
X127254000Y-116205000D01*
X127254000Y-116205000D02*
X127635000Y-116332000D01*
X127635000Y-116332000D02*
X131318000Y-116332000D01*
X131318000Y-116332000D02*
X130810000Y-116459000D01*
X130810000Y-116459000D02*
X128270000Y-116459000D01*
X128270000Y-116459000D02*
X129794000Y-113538000D01*
X129794000Y-113538000D02*
X123444000Y-113538000D01*
X123444000Y-113538000D02*
X123253500Y-113411000D01*
X123253500Y-113411000D02*
X129159000Y-113411000D01*
X129159000Y-113411000D02*
X128968500Y-113284000D01*
X128968500Y-113284000D02*
X123126500Y-113284000D01*
X123126500Y-113284000D02*
X122999500Y-113157000D01*
X122999500Y-113157000D02*
X128778000Y-113157000D01*
X128778000Y-113157000D02*
X128714500Y-113030000D01*
X128714500Y-113030000D02*
X122999500Y-113030000D01*
X122999500Y-113030000D02*
X122872500Y-112903000D01*
X122872500Y-112903000D02*
X128587500Y-112903000D01*
X128587500Y-112903000D02*
X128524000Y-112776000D01*
X128524000Y-112776000D02*
X122809000Y-112776000D01*
X122809000Y-112776000D02*
X122745500Y-112649000D01*
X122745500Y-112649000D02*
X128460500Y-112649000D01*
X128460500Y-112649000D02*
X128460500Y-112522000D01*
X128460500Y-112522000D02*
X122618500Y-112522000D01*
X122618500Y-112522000D02*
X122555000Y-112395000D01*
X122555000Y-112395000D02*
X128460500Y-112395000D01*
X128460500Y-112395000D02*
X128460500Y-112268000D01*
X128460500Y-112268000D02*
X122491500Y-112268000D01*
X122491500Y-112268000D02*
X122428000Y-112141000D01*
X122428000Y-112141000D02*
X128524000Y-112141000D01*
X128524000Y-112141000D02*
X128524000Y-112014000D01*
X128524000Y-112014000D02*
X122364500Y-112014000D01*
X122364500Y-112014000D02*
X122301000Y-111887000D01*
X122301000Y-111887000D02*
X128587500Y-111887000D01*
X128587500Y-111887000D02*
X128651000Y-111760000D01*
X128651000Y-111760000D02*
X122301000Y-111760000D01*
X122301000Y-111760000D02*
X122237500Y-111633000D01*
X122237500Y-111633000D02*
X128778000Y-111633000D01*
X128778000Y-111633000D02*
X128968500Y-111506000D01*
X128968500Y-111506000D02*
X122174000Y-111506000D01*
X122174000Y-111506000D02*
X122110500Y-111379000D01*
X122110500Y-111379000D02*
X129095500Y-111379000D01*
X137540000Y-108585000D02*
G75*
G03X137540000Y-108585000I-8000000J0D01*
G01*
X163195000Y-113030000D02*
X165735000Y-113030000D01*
X165735000Y-113030000D02*
X165735000Y-115570000D01*
X165735000Y-115570000D02*
X163195000Y-115570000D01*
X160655000Y-115570000D02*
X158115000Y-115570000D01*
X158115000Y-115570000D02*
X158115000Y-113030000D01*
X158115000Y-113030000D02*
X160655000Y-113030000D01*
X160655000Y-113030000D02*
X163195000Y-113030000D01*
X160655000Y-115570000D02*
X163195000Y-115570000D01*
X172720000Y-136525000D02*
X172720000Y-135255000D01*
X172720000Y-135255000D02*
X172720000Y-135890000D01*
X172720000Y-135890000D02*
X172085000Y-135890000D01*
X172085000Y-135890000D02*
X173355000Y-135890000D01*
X172085000Y-127381000D02*
X173228000Y-127508000D01*
X173767269Y-126365000D02*
G75*
G03X173767269Y-126365000I-1047269J0D01*
G01*
X164719000Y-130175000D02*
X180721000Y-130175000D01*
X180721000Y-130175000D02*
X180695600Y-130048000D01*
X180695600Y-130048000D02*
X164744400Y-130048000D01*
X164744400Y-130048000D02*
X164744400Y-129921000D01*
X164744400Y-129921000D02*
X180644800Y-129921000D01*
X180644800Y-129921000D02*
X180644800Y-129794000D01*
X180644800Y-129794000D02*
X164769800Y-129794000D01*
X164769800Y-129794000D02*
X164769800Y-129667000D01*
X164769800Y-129667000D02*
X180644800Y-129667000D01*
X180644800Y-129667000D02*
X180644800Y-129540000D01*
X180644800Y-129540000D02*
X164744400Y-129540000D01*
X164744400Y-129540000D02*
X164820600Y-129413000D01*
X164820600Y-129413000D02*
X180619400Y-129413000D01*
X180619400Y-129413000D02*
X180619400Y-129286000D01*
X180619400Y-129286000D02*
X164820600Y-129286000D01*
X164820600Y-129286000D02*
X164820600Y-129159000D01*
X164820600Y-129159000D02*
X180568600Y-129159000D01*
X180568600Y-129159000D02*
X180568600Y-129032000D01*
X180568600Y-129032000D02*
X164820600Y-129032000D01*
X164820600Y-129032000D02*
X164871400Y-128905000D01*
X164871400Y-128905000D02*
X180568600Y-128905000D01*
X180568600Y-128905000D02*
X180543200Y-128778000D01*
X180543200Y-128778000D02*
X164896800Y-128778000D01*
X164896800Y-128778000D02*
X164922200Y-128651000D01*
X164922200Y-128651000D02*
X180517800Y-128651000D01*
X180517800Y-128651000D02*
X180492400Y-128524000D01*
X180492400Y-128524000D02*
X164998400Y-128524000D01*
X164998400Y-128524000D02*
X164998400Y-128397000D01*
X164998400Y-128397000D02*
X180441600Y-128397000D01*
X180441600Y-128397000D02*
X180416200Y-128270000D01*
X180416200Y-128270000D02*
X165023800Y-128270000D01*
X165023800Y-128270000D02*
X165023800Y-128143000D01*
X165023800Y-128143000D02*
X180390800Y-128143000D01*
X180390800Y-128143000D02*
X180390800Y-128016000D01*
X180390800Y-128016000D02*
X165074600Y-128016000D01*
X165074600Y-128016000D02*
X165100000Y-127889000D01*
X165100000Y-127889000D02*
X180340000Y-127889000D01*
X180340000Y-127889000D02*
X180276500Y-127762000D01*
X180276500Y-127762000D02*
X165163500Y-127762000D01*
X165163500Y-127762000D02*
X165227000Y-127635000D01*
X165227000Y-127635000D02*
X180276500Y-127635000D01*
X180276500Y-127635000D02*
X180213000Y-127508000D01*
X180213000Y-127508000D02*
X165227000Y-127508000D01*
X165227000Y-127508000D02*
X165290500Y-127381000D01*
X165290500Y-127381000D02*
X172275500Y-127381000D01*
X172275500Y-127381000D02*
X172148500Y-127254000D01*
X172148500Y-127254000D02*
X165354000Y-127254000D01*
X165354000Y-127254000D02*
X165354000Y-127127000D01*
X165354000Y-127127000D02*
X171958000Y-127127000D01*
X171958000Y-127127000D02*
X171831000Y-127000000D01*
X171831000Y-127000000D02*
X165481000Y-127000000D01*
X165481000Y-127000000D02*
X165481000Y-126873000D01*
X165481000Y-126873000D02*
X171767500Y-126873000D01*
X171767500Y-126873000D02*
X171704000Y-126746000D01*
X171704000Y-126746000D02*
X165544500Y-126746000D01*
X165544500Y-126746000D02*
X165608000Y-126619000D01*
X165608000Y-126619000D02*
X171640500Y-126619000D01*
X171640500Y-126619000D02*
X171640500Y-126492000D01*
X171640500Y-126492000D02*
X165671500Y-126492000D01*
X165671500Y-126492000D02*
X165735000Y-126365000D01*
X165735000Y-126365000D02*
X171640500Y-126365000D01*
X171640500Y-126365000D02*
X171640500Y-126238000D01*
X171640500Y-126238000D02*
X165798500Y-126238000D01*
X165798500Y-126238000D02*
X165862000Y-126111000D01*
X165862000Y-126111000D02*
X171640500Y-126111000D01*
X171640500Y-126111000D02*
X171704000Y-125984000D01*
X171704000Y-125984000D02*
X165989000Y-125984000D01*
X165989000Y-125984000D02*
X166052500Y-125857000D01*
X166052500Y-125857000D02*
X171767500Y-125857000D01*
X171767500Y-125857000D02*
X171831000Y-125730000D01*
X171831000Y-125730000D02*
X166116000Y-125730000D01*
X166116000Y-125730000D02*
X166243000Y-125603000D01*
X166243000Y-125603000D02*
X171958000Y-125603000D01*
X171958000Y-125603000D02*
X172148500Y-125476000D01*
X172148500Y-125476000D02*
X166306500Y-125476000D01*
X166306500Y-125476000D02*
X166433500Y-125349000D01*
X166433500Y-125349000D02*
X172402500Y-125349000D01*
X172402500Y-125349000D02*
X172402500Y-125222000D01*
X172402500Y-125222000D02*
X166497000Y-125222000D01*
X166497000Y-125222000D02*
X166624000Y-125095000D01*
X166624000Y-125095000D02*
X178816000Y-125095000D01*
X178816000Y-125095000D02*
X178752500Y-124968000D01*
X178752500Y-124968000D02*
X166751000Y-124968000D01*
X166751000Y-124968000D02*
X166814500Y-124841000D01*
X166814500Y-124841000D02*
X178625500Y-124841000D01*
X178625500Y-124841000D02*
X178498500Y-124714000D01*
X178498500Y-124714000D02*
X166941500Y-124714000D01*
X166941500Y-124714000D02*
X167068500Y-124587000D01*
X167068500Y-124587000D02*
X178308000Y-124587000D01*
X178308000Y-124587000D02*
X178244500Y-124460000D01*
X178244500Y-124460000D02*
X167195500Y-124460000D01*
X167195500Y-124460000D02*
X167259000Y-124333000D01*
X167259000Y-124333000D02*
X178054000Y-124333000D01*
X178054000Y-124333000D02*
X177990500Y-124206000D01*
X177990500Y-124206000D02*
X167449500Y-124206000D01*
X167449500Y-124206000D02*
X167576500Y-124079000D01*
X167576500Y-124079000D02*
X177736500Y-124079000D01*
X177736500Y-124079000D02*
X177673000Y-123952000D01*
X177673000Y-123952000D02*
X167767000Y-123952000D01*
X167767000Y-123952000D02*
X167894000Y-123825000D01*
X167894000Y-123825000D02*
X177546000Y-123825000D01*
X177546000Y-123825000D02*
X177292000Y-123698000D01*
X177292000Y-123698000D02*
X168148000Y-123698000D01*
X168148000Y-123698000D02*
X168275000Y-123571000D01*
X168275000Y-123571000D02*
X177165000Y-123571000D01*
X177165000Y-123571000D02*
X176974500Y-123444000D01*
X176974500Y-123444000D02*
X168465500Y-123444000D01*
X168465500Y-123444000D02*
X168656000Y-123317000D01*
X168656000Y-123317000D02*
X176720500Y-123317000D01*
X176720500Y-123317000D02*
X176530000Y-123190000D01*
X176530000Y-123190000D02*
X168910000Y-123190000D01*
X168910000Y-123190000D02*
X169164000Y-123063000D01*
X169164000Y-123063000D02*
X176276000Y-123063000D01*
X176276000Y-123063000D02*
X176022000Y-122936000D01*
X176022000Y-122936000D02*
X169418000Y-122936000D01*
X169418000Y-122936000D02*
X169735500Y-122809000D01*
X169735500Y-122809000D02*
X175704500Y-122809000D01*
X175704500Y-122809000D02*
X175450500Y-122682000D01*
X175450500Y-122682000D02*
X170053000Y-122682000D01*
X170053000Y-122682000D02*
X170434000Y-122555000D01*
X170434000Y-122555000D02*
X175006000Y-122555000D01*
X175006000Y-122555000D02*
X174625000Y-122428000D01*
X174625000Y-122428000D02*
X170942000Y-122428000D01*
X170942000Y-122428000D02*
X171450000Y-122301000D01*
X171450000Y-122301000D02*
X173990000Y-122301000D01*
X173990000Y-122301000D02*
X172466000Y-125222000D01*
X172466000Y-125222000D02*
X178816000Y-125222000D01*
X178816000Y-125222000D02*
X179006500Y-125349000D01*
X179006500Y-125349000D02*
X173101000Y-125349000D01*
X173101000Y-125349000D02*
X173291500Y-125476000D01*
X173291500Y-125476000D02*
X179133500Y-125476000D01*
X179133500Y-125476000D02*
X179260500Y-125603000D01*
X179260500Y-125603000D02*
X173482000Y-125603000D01*
X173482000Y-125603000D02*
X173545500Y-125730000D01*
X173545500Y-125730000D02*
X179260500Y-125730000D01*
X179260500Y-125730000D02*
X179387500Y-125857000D01*
X179387500Y-125857000D02*
X173672500Y-125857000D01*
X173672500Y-125857000D02*
X173736000Y-125984000D01*
X173736000Y-125984000D02*
X179451000Y-125984000D01*
X179451000Y-125984000D02*
X179514500Y-126111000D01*
X179514500Y-126111000D02*
X173799500Y-126111000D01*
X173799500Y-126111000D02*
X173799500Y-126238000D01*
X173799500Y-126238000D02*
X179641500Y-126238000D01*
X179641500Y-126238000D02*
X179705000Y-126365000D01*
X179705000Y-126365000D02*
X173799500Y-126365000D01*
X173799500Y-126365000D02*
X173799500Y-126492000D01*
X173799500Y-126492000D02*
X179768500Y-126492000D01*
X179768500Y-126492000D02*
X179832000Y-126619000D01*
X179832000Y-126619000D02*
X173736000Y-126619000D01*
X173736000Y-126619000D02*
X173736000Y-126746000D01*
X173736000Y-126746000D02*
X179895500Y-126746000D01*
X179895500Y-126746000D02*
X179959000Y-126873000D01*
X179959000Y-126873000D02*
X173672500Y-126873000D01*
X173672500Y-126873000D02*
X173609000Y-127000000D01*
X173609000Y-127000000D02*
X179959000Y-127000000D01*
X179959000Y-127000000D02*
X180022500Y-127127000D01*
X180022500Y-127127000D02*
X173482000Y-127127000D01*
X173482000Y-127127000D02*
X173291500Y-127254000D01*
X173291500Y-127254000D02*
X180086000Y-127254000D01*
X180086000Y-127254000D02*
X180149500Y-127381000D01*
X180149500Y-127381000D02*
X173164500Y-127381000D01*
X180720000Y-130175000D02*
G75*
G03X180720000Y-130175000I-8000000J0D01*
G01*
X180340000Y-102870000D02*
X180340000Y-104140000D01*
X180340000Y-104140000D02*
X180340000Y-103505000D01*
X180340000Y-103505000D02*
X180975000Y-103505000D01*
X180975000Y-103505000D02*
X179705000Y-103505000D01*
X180975000Y-112014000D02*
X179832000Y-111887000D01*
X181387269Y-113030000D02*
G75*
G03X181387269Y-113030000I-1047269J0D01*
G01*
X188341000Y-109220000D02*
X172339000Y-109220000D01*
X172339000Y-109220000D02*
X172364400Y-109347000D01*
X172364400Y-109347000D02*
X188315600Y-109347000D01*
X188315600Y-109347000D02*
X188315600Y-109474000D01*
X188315600Y-109474000D02*
X172415200Y-109474000D01*
X172415200Y-109474000D02*
X172415200Y-109601000D01*
X172415200Y-109601000D02*
X188290200Y-109601000D01*
X188290200Y-109601000D02*
X188290200Y-109728000D01*
X188290200Y-109728000D02*
X172415200Y-109728000D01*
X172415200Y-109728000D02*
X172415200Y-109855000D01*
X172415200Y-109855000D02*
X188315600Y-109855000D01*
X188315600Y-109855000D02*
X188239400Y-109982000D01*
X188239400Y-109982000D02*
X172440600Y-109982000D01*
X172440600Y-109982000D02*
X172440600Y-110109000D01*
X172440600Y-110109000D02*
X188239400Y-110109000D01*
X188239400Y-110109000D02*
X188239400Y-110236000D01*
X188239400Y-110236000D02*
X172491400Y-110236000D01*
X172491400Y-110236000D02*
X172491400Y-110363000D01*
X172491400Y-110363000D02*
X188239400Y-110363000D01*
X188239400Y-110363000D02*
X188188600Y-110490000D01*
X188188600Y-110490000D02*
X172491400Y-110490000D01*
X172491400Y-110490000D02*
X172516800Y-110617000D01*
X172516800Y-110617000D02*
X188163200Y-110617000D01*
X188163200Y-110617000D02*
X188137800Y-110744000D01*
X188137800Y-110744000D02*
X172542200Y-110744000D01*
X172542200Y-110744000D02*
X172567600Y-110871000D01*
X172567600Y-110871000D02*
X188061600Y-110871000D01*
X188061600Y-110871000D02*
X188061600Y-110998000D01*
X188061600Y-110998000D02*
X172618400Y-110998000D01*
X172618400Y-110998000D02*
X172643800Y-111125000D01*
X172643800Y-111125000D02*
X188036200Y-111125000D01*
X188036200Y-111125000D02*
X188036200Y-111252000D01*
X188036200Y-111252000D02*
X172669200Y-111252000D01*
X172669200Y-111252000D02*
X172669200Y-111379000D01*
X172669200Y-111379000D02*
X187985400Y-111379000D01*
X187985400Y-111379000D02*
X187960000Y-111506000D01*
X187960000Y-111506000D02*
X172720000Y-111506000D01*
X172720000Y-111506000D02*
X172783500Y-111633000D01*
X172783500Y-111633000D02*
X187896500Y-111633000D01*
X187896500Y-111633000D02*
X187833000Y-111760000D01*
X187833000Y-111760000D02*
X172783500Y-111760000D01*
X172783500Y-111760000D02*
X172847000Y-111887000D01*
X172847000Y-111887000D02*
X187833000Y-111887000D01*
X187833000Y-111887000D02*
X187769500Y-112014000D01*
X187769500Y-112014000D02*
X180784500Y-112014000D01*
X180784500Y-112014000D02*
X180911500Y-112141000D01*
X180911500Y-112141000D02*
X187706000Y-112141000D01*
X187706000Y-112141000D02*
X187706000Y-112268000D01*
X187706000Y-112268000D02*
X181102000Y-112268000D01*
X181102000Y-112268000D02*
X181229000Y-112395000D01*
X181229000Y-112395000D02*
X187579000Y-112395000D01*
X187579000Y-112395000D02*
X187579000Y-112522000D01*
X187579000Y-112522000D02*
X181292500Y-112522000D01*
X181292500Y-112522000D02*
X181356000Y-112649000D01*
X181356000Y-112649000D02*
X187515500Y-112649000D01*
X187515500Y-112649000D02*
X187452000Y-112776000D01*
X187452000Y-112776000D02*
X181419500Y-112776000D01*
X181419500Y-112776000D02*
X181419500Y-112903000D01*
X181419500Y-112903000D02*
X187388500Y-112903000D01*
X187388500Y-112903000D02*
X187325000Y-113030000D01*
X187325000Y-113030000D02*
X181419500Y-113030000D01*
X181419500Y-113030000D02*
X181419500Y-113157000D01*
X181419500Y-113157000D02*
X187261500Y-113157000D01*
X187261500Y-113157000D02*
X187198000Y-113284000D01*
X187198000Y-113284000D02*
X181419500Y-113284000D01*
X181419500Y-113284000D02*
X181356000Y-113411000D01*
X181356000Y-113411000D02*
X187071000Y-113411000D01*
X187071000Y-113411000D02*
X187007500Y-113538000D01*
X187007500Y-113538000D02*
X181292500Y-113538000D01*
X181292500Y-113538000D02*
X181229000Y-113665000D01*
X181229000Y-113665000D02*
X186944000Y-113665000D01*
X186944000Y-113665000D02*
X186817000Y-113792000D01*
X186817000Y-113792000D02*
X181102000Y-113792000D01*
X181102000Y-113792000D02*
X180911500Y-113919000D01*
X180911500Y-113919000D02*
X186753500Y-113919000D01*
X186753500Y-113919000D02*
X186626500Y-114046000D01*
X186626500Y-114046000D02*
X180657500Y-114046000D01*
X180657500Y-114046000D02*
X180657500Y-114173000D01*
X180657500Y-114173000D02*
X186563000Y-114173000D01*
X186563000Y-114173000D02*
X186436000Y-114300000D01*
X186436000Y-114300000D02*
X174244000Y-114300000D01*
X174244000Y-114300000D02*
X174307500Y-114427000D01*
X174307500Y-114427000D02*
X186309000Y-114427000D01*
X186309000Y-114427000D02*
X186245500Y-114554000D01*
X186245500Y-114554000D02*
X174434500Y-114554000D01*
X174434500Y-114554000D02*
X174561500Y-114681000D01*
X174561500Y-114681000D02*
X186118500Y-114681000D01*
X186118500Y-114681000D02*
X185991500Y-114808000D01*
X185991500Y-114808000D02*
X174752000Y-114808000D01*
X174752000Y-114808000D02*
X174815500Y-114935000D01*
X174815500Y-114935000D02*
X185864500Y-114935000D01*
X185864500Y-114935000D02*
X185801000Y-115062000D01*
X185801000Y-115062000D02*
X175006000Y-115062000D01*
X175006000Y-115062000D02*
X175069500Y-115189000D01*
X175069500Y-115189000D02*
X185610500Y-115189000D01*
X185610500Y-115189000D02*
X185483500Y-115316000D01*
X185483500Y-115316000D02*
X175323500Y-115316000D01*
X175323500Y-115316000D02*
X175387000Y-115443000D01*
X175387000Y-115443000D02*
X185293000Y-115443000D01*
X185293000Y-115443000D02*
X185166000Y-115570000D01*
X185166000Y-115570000D02*
X175514000Y-115570000D01*
X175514000Y-115570000D02*
X175768000Y-115697000D01*
X175768000Y-115697000D02*
X184912000Y-115697000D01*
X184912000Y-115697000D02*
X184785000Y-115824000D01*
X184785000Y-115824000D02*
X175895000Y-115824000D01*
X175895000Y-115824000D02*
X176085500Y-115951000D01*
X176085500Y-115951000D02*
X184594500Y-115951000D01*
X184594500Y-115951000D02*
X184404000Y-116078000D01*
X184404000Y-116078000D02*
X176339500Y-116078000D01*
X176339500Y-116078000D02*
X176530000Y-116205000D01*
X176530000Y-116205000D02*
X184150000Y-116205000D01*
X184150000Y-116205000D02*
X183896000Y-116332000D01*
X183896000Y-116332000D02*
X176784000Y-116332000D01*
X176784000Y-116332000D02*
X177038000Y-116459000D01*
X177038000Y-116459000D02*
X183642000Y-116459000D01*
X183642000Y-116459000D02*
X183324500Y-116586000D01*
X183324500Y-116586000D02*
X177355500Y-116586000D01*
X177355500Y-116586000D02*
X177609500Y-116713000D01*
X177609500Y-116713000D02*
X183007000Y-116713000D01*
X183007000Y-116713000D02*
X182626000Y-116840000D01*
X182626000Y-116840000D02*
X178054000Y-116840000D01*
X178054000Y-116840000D02*
X178435000Y-116967000D01*
X178435000Y-116967000D02*
X182118000Y-116967000D01*
X182118000Y-116967000D02*
X181610000Y-117094000D01*
X181610000Y-117094000D02*
X179070000Y-117094000D01*
X179070000Y-117094000D02*
X180594000Y-114173000D01*
X180594000Y-114173000D02*
X174244000Y-114173000D01*
X174244000Y-114173000D02*
X174053500Y-114046000D01*
X174053500Y-114046000D02*
X179959000Y-114046000D01*
X179959000Y-114046000D02*
X179768500Y-113919000D01*
X179768500Y-113919000D02*
X173926500Y-113919000D01*
X173926500Y-113919000D02*
X173799500Y-113792000D01*
X173799500Y-113792000D02*
X179578000Y-113792000D01*
X179578000Y-113792000D02*
X179514500Y-113665000D01*
X179514500Y-113665000D02*
X173799500Y-113665000D01*
X173799500Y-113665000D02*
X173672500Y-113538000D01*
X173672500Y-113538000D02*
X179387500Y-113538000D01*
X179387500Y-113538000D02*
X179324000Y-113411000D01*
X179324000Y-113411000D02*
X173609000Y-113411000D01*
X173609000Y-113411000D02*
X173545500Y-113284000D01*
X173545500Y-113284000D02*
X179260500Y-113284000D01*
X179260500Y-113284000D02*
X179260500Y-113157000D01*
X179260500Y-113157000D02*
X173418500Y-113157000D01*
X173418500Y-113157000D02*
X173355000Y-113030000D01*
X173355000Y-113030000D02*
X179260500Y-113030000D01*
X179260500Y-113030000D02*
X179260500Y-112903000D01*
X179260500Y-112903000D02*
X173291500Y-112903000D01*
X173291500Y-112903000D02*
X173228000Y-112776000D01*
X173228000Y-112776000D02*
X179324000Y-112776000D01*
X179324000Y-112776000D02*
X179324000Y-112649000D01*
X179324000Y-112649000D02*
X173164500Y-112649000D01*
X173164500Y-112649000D02*
X173101000Y-112522000D01*
X173101000Y-112522000D02*
X179387500Y-112522000D01*
X179387500Y-112522000D02*
X179451000Y-112395000D01*
X179451000Y-112395000D02*
X173101000Y-112395000D01*
X173101000Y-112395000D02*
X173037500Y-112268000D01*
X173037500Y-112268000D02*
X179578000Y-112268000D01*
X179578000Y-112268000D02*
X179768500Y-112141000D01*
X179768500Y-112141000D02*
X172974000Y-112141000D01*
X172974000Y-112141000D02*
X172910500Y-112014000D01*
X172910500Y-112014000D02*
X179895500Y-112014000D01*
X188340000Y-109220000D02*
G75*
G03X188340000Y-109220000I-8000000J0D01*
G01*
X160401000Y-117602000D02*
X160401000Y-118745000D01*
X163449000Y-117602000D02*
X163449000Y-118745000D01*
X167259000Y-118745000D02*
X167259000Y-122428000D01*
X167259000Y-122428000D02*
X156591000Y-122428000D01*
X156591000Y-122428000D02*
X156591000Y-118745000D01*
X167259000Y-117602000D02*
X167259000Y-118745000D01*
X167259000Y-118745000D02*
X156591000Y-118745000D01*
X156591000Y-118745000D02*
X156591000Y-117602000D01*
X161925000Y-117602000D02*
X156591000Y-117602000D01*
X161925000Y-117602000D02*
X167259000Y-117602000D01*
X164940000Y-140335000D02*
G75*
G03X164940000Y-140335000I-10000000J0D01*
G01*
X144780000Y-127000000D02*
X144145000Y-127000000D01*
X144145000Y-127000000D02*
X144145000Y-117983000D01*
X144145000Y-117983000D02*
X153035000Y-117983000D01*
X153035000Y-117983000D02*
X153035000Y-127000000D01*
X153035000Y-127000000D02*
X152273000Y-127000000D01*
X153035000Y-124333000D02*
X153035000Y-117983000D01*
X144145000Y-124333000D02*
X144145000Y-117983000D01*
X152400000Y-127000000D02*
X144780000Y-127000000D01*
X152654000Y-117983000D02*
X144526000Y-117983000D01*
X194945000Y-132715000D02*
X194945000Y-133350000D01*
X194945000Y-133350000D02*
X185928000Y-133350000D01*
X185928000Y-133350000D02*
X185928000Y-124460000D01*
X185928000Y-124460000D02*
X194945000Y-124460000D01*
X194945000Y-124460000D02*
X194945000Y-125222000D01*
X192278000Y-124460000D02*
X185928000Y-124460000D01*
X192278000Y-133350000D02*
X185928000Y-133350000D01*
X194945000Y-125095000D02*
X194945000Y-132715000D01*
X185928000Y-124841000D02*
X185928000Y-132969000D01*
X134620000Y-121031000D02*
X128270000Y-121031000D01*
X128270000Y-118999000D02*
X134620000Y-118999000D01*
X134620000Y-120015000D02*
X135255000Y-120015000D01*
X128270000Y-120015000D02*
X127635000Y-120015000D01*
X128270000Y-120015000D02*
X128270000Y-118999000D01*
X134620000Y-118999000D02*
X134620000Y-121031000D01*
X128270000Y-121031000D02*
X128270000Y-120015000D01*
X153924000Y-126365000D02*
X153924000Y-120015000D01*
X155956000Y-120015000D02*
X155956000Y-126365000D01*
X154940000Y-126365000D02*
X154940000Y-127000000D01*
X154940000Y-120015000D02*
X154940000Y-119380000D01*
X154940000Y-120015000D02*
X155956000Y-120015000D01*
X155956000Y-126365000D02*
X153924000Y-126365000D01*
X153924000Y-120015000D02*
X154940000Y-120015000D01*
X188595000Y-137541000D02*
X182245000Y-137541000D01*
X182245000Y-135509000D02*
X188595000Y-135509000D01*
X188595000Y-136525000D02*
X189230000Y-136525000D01*
X182245000Y-136525000D02*
X181610000Y-136525000D01*
X182245000Y-136525000D02*
X182245000Y-135509000D01*
X188595000Y-135509000D02*
X188595000Y-137541000D01*
X182245000Y-137541000D02*
X182245000Y-136525000D01*
X182245000Y-120904000D02*
X188595000Y-120904000D01*
X188595000Y-122936000D02*
X182245000Y-122936000D01*
X182245000Y-121920000D02*
X181610000Y-121920000D01*
X188595000Y-121920000D02*
X189230000Y-121920000D01*
X188595000Y-121920000D02*
X188595000Y-122936000D01*
X182245000Y-122936000D02*
X182245000Y-120904000D01*
X188595000Y-120904000D02*
X188595000Y-121920000D01*
X107061000Y-121285000D02*
X107061000Y-127635000D01*
X105029000Y-127635000D02*
X105029000Y-121285000D01*
X106045000Y-121285000D02*
X106045000Y-120650000D01*
X106045000Y-127635000D02*
X106045000Y-128270000D01*
X106045000Y-127635000D02*
X105029000Y-127635000D01*
X105029000Y-121285000D02*
X107061000Y-121285000D01*
X107061000Y-127635000D02*
X106045000Y-127635000D01*
X108204000Y-127635000D02*
X108204000Y-121285000D01*
X110236000Y-121285000D02*
X110236000Y-127635000D01*
X109220000Y-127635000D02*
X109220000Y-128270000D01*
X109220000Y-121285000D02*
X109220000Y-120650000D01*
X109220000Y-121285000D02*
X110236000Y-121285000D01*
X110236000Y-127635000D02*
X108204000Y-127635000D01*
X108204000Y-121285000D02*
X109220000Y-121285000D01*
X121920000Y-116459000D02*
X128270000Y-116459000D01*
X128270000Y-118491000D02*
X121920000Y-118491000D01*
X121920000Y-117475000D02*
X121285000Y-117475000D01*
X128270000Y-117475000D02*
X128905000Y-117475000D01*
X128270000Y-117475000D02*
X128270000Y-118491000D01*
X121920000Y-118491000D02*
X121920000Y-116459000D01*
X128270000Y-116459000D02*
X128270000Y-117475000D01*
X111379000Y-127635000D02*
X111379000Y-121285000D01*
X113411000Y-121285000D02*
X113411000Y-127635000D01*
X112395000Y-127635000D02*
X112395000Y-128270000D01*
X112395000Y-121285000D02*
X112395000Y-120650000D01*
X112395000Y-121285000D02*
X113411000Y-121285000D01*
X113411000Y-127635000D02*
X111379000Y-127635000D01*
X111379000Y-121285000D02*
X112395000Y-121285000D01*
X116586000Y-121285000D02*
X116586000Y-127635000D01*
X114554000Y-127635000D02*
X114554000Y-121285000D01*
X115570000Y-121285000D02*
X115570000Y-120650000D01*
X115570000Y-127635000D02*
X115570000Y-128270000D01*
X115570000Y-127635000D02*
X114554000Y-127635000D01*
X114554000Y-121285000D02*
X116586000Y-121285000D01*
X116586000Y-127635000D02*
X115570000Y-127635000D01*
X133985000Y-122174000D02*
X140335000Y-122174000D01*
X140335000Y-124206000D02*
X133985000Y-124206000D01*
X133985000Y-123190000D02*
X133350000Y-123190000D01*
X140335000Y-123190000D02*
X140970000Y-123190000D01*
X140335000Y-123190000D02*
X140335000Y-124206000D01*
X133985000Y-124206000D02*
X133985000Y-122174000D01*
X140335000Y-122174000D02*
X140335000Y-123190000D01*
X127635000Y-124206000D02*
X121285000Y-124206000D01*
X121285000Y-122174000D02*
X127635000Y-122174000D01*
X127635000Y-123190000D02*
X128270000Y-123190000D01*
X121285000Y-123190000D02*
X120650000Y-123190000D01*
X121285000Y-123190000D02*
X121285000Y-122174000D01*
X127635000Y-122174000D02*
X127635000Y-124206000D01*
X121285000Y-124206000D02*
X121285000Y-123190000D01*
X146685000Y-130556000D02*
X140335000Y-130556000D01*
X140335000Y-128524000D02*
X146685000Y-128524000D01*
X146685000Y-129540000D02*
X147320000Y-129540000D01*
X140335000Y-129540000D02*
X139700000Y-129540000D01*
X140335000Y-129540000D02*
X140335000Y-128524000D01*
X146685000Y-128524000D02*
X146685000Y-130556000D01*
X140335000Y-130556000D02*
X140335000Y-129540000D01*
X133985000Y-136144000D02*
X140335000Y-136144000D01*
X140335000Y-138176000D02*
X133985000Y-138176000D01*
X133985000Y-137160000D02*
X133350000Y-137160000D01*
X140335000Y-137160000D02*
X140970000Y-137160000D01*
X140335000Y-137160000D02*
X140335000Y-138176000D01*
X133985000Y-138176000D02*
X133985000Y-136144000D01*
X140335000Y-136144000D02*
X140335000Y-137160000D01*
X119380000Y-144526000D02*
X113030000Y-144526000D01*
X113030000Y-142494000D02*
X119380000Y-142494000D01*
X119380000Y-143510000D02*
X120015000Y-143510000D01*
X113030000Y-143510000D02*
X112395000Y-143510000D01*
X113030000Y-143510000D02*
X113030000Y-142494000D01*
X119380000Y-142494000D02*
X119380000Y-144526000D01*
X113030000Y-144526000D02*
X113030000Y-143510000D01*
X132715000Y-144526000D02*
X126365000Y-144526000D01*
X126365000Y-142494000D02*
X132715000Y-142494000D01*
X132715000Y-143510000D02*
X133350000Y-143510000D01*
X126365000Y-143510000D02*
X125730000Y-143510000D01*
X126365000Y-143510000D02*
X126365000Y-142494000D01*
X132715000Y-142494000D02*
X132715000Y-144526000D01*
X126365000Y-144526000D02*
X126365000Y-143510000D01*
X126365000Y-139319000D02*
X132715000Y-139319000D01*
X132715000Y-141351000D02*
X126365000Y-141351000D01*
X126365000Y-140335000D02*
X125730000Y-140335000D01*
X132715000Y-140335000D02*
X133350000Y-140335000D01*
X132715000Y-140335000D02*
X132715000Y-141351000D01*
X126365000Y-141351000D02*
X126365000Y-139319000D01*
X132715000Y-139319000D02*
X132715000Y-140335000D01*
X113665000Y-136144000D02*
X120015000Y-136144000D01*
X120015000Y-138176000D02*
X113665000Y-138176000D01*
X113665000Y-137160000D02*
X113030000Y-137160000D01*
X120015000Y-137160000D02*
X120650000Y-137160000D01*
X120015000Y-137160000D02*
X120015000Y-138176000D01*
X113665000Y-138176000D02*
X113665000Y-136144000D01*
X120015000Y-136144000D02*
X120015000Y-137160000D01*
X119380000Y-102235000D02*
X111760000Y-102235000D01*
X111760000Y-102235000D02*
X111760000Y-112395000D01*
X111760000Y-112395000D02*
X119380000Y-112395000D01*
X119380000Y-112395000D02*
X119380000Y-102235000D01*
X196850000Y-102870000D02*
X189230000Y-102870000D01*
X189230000Y-102870000D02*
X189230000Y-113030000D01*
X189230000Y-113030000D02*
X196850000Y-113030000D01*
X196850000Y-113030000D02*
X196850000Y-102870000D01*
X156591000Y-111760000D02*
X156591000Y-101854000D01*
X169799000Y-111760000D02*
X169799000Y-101854000D01*
X169799000Y-102997000D02*
X156591000Y-102997000D01*
X159131000Y-111760000D02*
X156591000Y-111760000D01*
X159131000Y-101854000D02*
X156591000Y-101854000D01*
X159131000Y-102997000D02*
X169799000Y-102997000D01*
X159131000Y-111760000D02*
X169799000Y-111760000D01*
X164465000Y-101854000D02*
X169799000Y-101854000D01*
X164465000Y-101854000D02*
X159131000Y-101854000D01*
X108946990Y-136807695D02*
G75*
G03X109650000Y-136320000I-996990J2187695D01*
G01*
X108946990Y-132432305D02*
G75*
G02X109650000Y-132920000I-996990J-2187695D01*
G01*
X109650000Y-136320000D02*
X109650000Y-132920000D01*
X106956873Y-136804879D02*
G75*
G02X105550000Y-134620000I993127J2184879D01*
G01*
X106956873Y-132435121D02*
G75*
G03X105550000Y-134620000I993127J-2184879D01*
G01*
X118237000Y-133858000D02*
X117094000Y-133858000D01*
X118237000Y-126492000D02*
X117094000Y-126492000D01*
X135763000Y-126492000D02*
X136906000Y-126492000D01*
X135763000Y-133858000D02*
X136906000Y-133858000D01*
X133477000Y-133858000D02*
X133223000Y-133858000D01*
X130937000Y-133858000D02*
X130683000Y-133858000D01*
X128397000Y-133858000D02*
X128143000Y-133858000D01*
X125857000Y-133858000D02*
X125603000Y-133858000D01*
X123317000Y-133858000D02*
X123063000Y-133858000D01*
X120523000Y-133858000D02*
X120777000Y-133858000D01*
X120777000Y-126492000D02*
X120523000Y-126492000D01*
X123317000Y-126492000D02*
X123063000Y-126492000D01*
X125857000Y-126492000D02*
X125603000Y-126492000D01*
X128397000Y-126492000D02*
X128143000Y-126492000D01*
X130937000Y-126492000D02*
X130683000Y-126492000D01*
X133477000Y-126492000D02*
X133223000Y-126492000D01*
X136906000Y-131064000D02*
X136906000Y-133858000D01*
X136906000Y-126492000D02*
X136906000Y-129286000D01*
X136906000Y-129286000D02*
G75*
G03X136906000Y-131064000I0J-889000D01*
G01*
X117085000Y-126500000D02*
X117085000Y-133850000D01*
X154662143Y-102401666D02*
X154709762Y-102449285D01*
X154757381Y-102592142D01*
X154757381Y-102687380D01*
X154709762Y-102830238D01*
X154614524Y-102925476D01*
X154519286Y-102973095D01*
X154328810Y-103020714D01*
X154185952Y-103020714D01*
X153995476Y-102973095D01*
X153900238Y-102925476D01*
X153805000Y-102830238D01*
X153757381Y-102687380D01*
X153757381Y-102592142D01*
X153805000Y-102449285D01*
X153852619Y-102401666D01*
X154757381Y-101449285D02*
X154757381Y-102020714D01*
X154757381Y-101735000D02*
X153757381Y-101735000D01*
X153900238Y-101830238D01*
X153995476Y-101925476D01*
X154043095Y-102020714D01*
X136882143Y-102401666D02*
X136929762Y-102449285D01*
X136977381Y-102592142D01*
X136977381Y-102687380D01*
X136929762Y-102830238D01*
X136834524Y-102925476D01*
X136739286Y-102973095D01*
X136548810Y-103020714D01*
X136405952Y-103020714D01*
X136215476Y-102973095D01*
X136120238Y-102925476D01*
X136025000Y-102830238D01*
X135977381Y-102687380D01*
X135977381Y-102592142D01*
X136025000Y-102449285D01*
X136072619Y-102401666D01*
X136072619Y-102020714D02*
X136025000Y-101973095D01*
X135977381Y-101877857D01*
X135977381Y-101639761D01*
X136025000Y-101544523D01*
X136072619Y-101496904D01*
X136167857Y-101449285D01*
X136263095Y-101449285D01*
X136405952Y-101496904D01*
X136977381Y-102068333D01*
X136977381Y-101449285D01*
X154642143Y-114466666D02*
X154689762Y-114514285D01*
X154737381Y-114657142D01*
X154737381Y-114752380D01*
X154689762Y-114895238D01*
X154594524Y-114990476D01*
X154499286Y-115038095D01*
X154308810Y-115085714D01*
X154165952Y-115085714D01*
X153975476Y-115038095D01*
X153880238Y-114990476D01*
X153785000Y-114895238D01*
X153737381Y-114752380D01*
X153737381Y-114657142D01*
X153785000Y-114514285D01*
X153832619Y-114466666D01*
X153737381Y-114133333D02*
X153737381Y-113514285D01*
X154118333Y-113847619D01*
X154118333Y-113704761D01*
X154165952Y-113609523D01*
X154213571Y-113561904D01*
X154308810Y-113514285D01*
X154546905Y-113514285D01*
X154642143Y-113561904D01*
X154689762Y-113609523D01*
X154737381Y-113704761D01*
X154737381Y-113990476D01*
X154689762Y-114085714D01*
X154642143Y-114133333D01*
X164187143Y-129071666D02*
X164234762Y-129119285D01*
X164282381Y-129262142D01*
X164282381Y-129357380D01*
X164234762Y-129500238D01*
X164139524Y-129595476D01*
X164044286Y-129643095D01*
X163853810Y-129690714D01*
X163710952Y-129690714D01*
X163520476Y-129643095D01*
X163425238Y-129595476D01*
X163330000Y-129500238D01*
X163282381Y-129357380D01*
X163282381Y-129262142D01*
X163330000Y-129119285D01*
X163377619Y-129071666D01*
X163615714Y-128214523D02*
X164282381Y-128214523D01*
X163234762Y-128452619D02*
X163949048Y-128690714D01*
X163949048Y-128071666D01*
X187682143Y-102401666D02*
X187729762Y-102449285D01*
X187777381Y-102592142D01*
X187777381Y-102687380D01*
X187729762Y-102830238D01*
X187634524Y-102925476D01*
X187539286Y-102973095D01*
X187348810Y-103020714D01*
X187205952Y-103020714D01*
X187015476Y-102973095D01*
X186920238Y-102925476D01*
X186825000Y-102830238D01*
X186777381Y-102687380D01*
X186777381Y-102592142D01*
X186825000Y-102449285D01*
X186872619Y-102401666D01*
X186777381Y-101496904D02*
X186777381Y-101973095D01*
X187253571Y-102020714D01*
X187205952Y-101973095D01*
X187158333Y-101877857D01*
X187158333Y-101639761D01*
X187205952Y-101544523D01*
X187253571Y-101496904D01*
X187348810Y-101449285D01*
X187586905Y-101449285D01*
X187682143Y-101496904D01*
X187729762Y-101544523D01*
X187777381Y-101639761D01*
X187777381Y-101877857D01*
X187729762Y-101973095D01*
X187682143Y-102020714D01*
X161186905Y-116022381D02*
X161186905Y-115022381D01*
X161425000Y-115022381D01*
X161567858Y-115070000D01*
X161663096Y-115165238D01*
X161710715Y-115260476D01*
X161758334Y-115450952D01*
X161758334Y-115593810D01*
X161710715Y-115784286D01*
X161663096Y-115879524D01*
X161567858Y-115974762D01*
X161425000Y-116022381D01*
X161186905Y-116022381D01*
X162710715Y-116022381D02*
X162139286Y-116022381D01*
X162425000Y-116022381D02*
X162425000Y-115022381D01*
X162329762Y-115165238D01*
X162234524Y-115260476D01*
X162139286Y-115308095D01*
X165568334Y-142057381D02*
X165092143Y-142057381D01*
X165092143Y-141057381D01*
X166425477Y-142057381D02*
X165854048Y-142057381D01*
X166139762Y-142057381D02*
X166139762Y-141057381D01*
X166044524Y-141200238D01*
X165949286Y-141295476D01*
X165854048Y-141343095D01*
X146439143Y-117419381D02*
X146439143Y-116419381D01*
X146820096Y-116419381D01*
X146915334Y-116467000D01*
X146962953Y-116514619D01*
X147010572Y-116609857D01*
X147010572Y-116752714D01*
X146962953Y-116847952D01*
X146915334Y-116895571D01*
X146820096Y-116943190D01*
X146439143Y-116943190D01*
X147629619Y-116419381D02*
X147820096Y-116419381D01*
X147915334Y-116467000D01*
X148010572Y-116562238D01*
X148058191Y-116752714D01*
X148058191Y-117086048D01*
X148010572Y-117276524D01*
X147915334Y-117371762D01*
X147820096Y-117419381D01*
X147629619Y-117419381D01*
X147534381Y-117371762D01*
X147439143Y-117276524D01*
X147391524Y-117086048D01*
X147391524Y-116752714D01*
X147439143Y-116562238D01*
X147534381Y-116467000D01*
X147629619Y-116419381D01*
X148343905Y-116419381D02*
X148915334Y-116419381D01*
X148629619Y-117419381D02*
X148629619Y-116419381D01*
X149772477Y-117419381D02*
X149201048Y-117419381D01*
X149486762Y-117419381D02*
X149486762Y-116419381D01*
X149391524Y-116562238D01*
X149296286Y-116657476D01*
X149201048Y-116705095D01*
X185364381Y-131055857D02*
X184364381Y-131055857D01*
X184364381Y-130674904D01*
X184412000Y-130579666D01*
X184459619Y-130532047D01*
X184554857Y-130484428D01*
X184697714Y-130484428D01*
X184792952Y-130532047D01*
X184840571Y-130579666D01*
X184888190Y-130674904D01*
X184888190Y-131055857D01*
X184364381Y-129865381D02*
X184364381Y-129674904D01*
X184412000Y-129579666D01*
X184507238Y-129484428D01*
X184697714Y-129436809D01*
X185031048Y-129436809D01*
X185221524Y-129484428D01*
X185316762Y-129579666D01*
X185364381Y-129674904D01*
X185364381Y-129865381D01*
X185316762Y-129960619D01*
X185221524Y-130055857D01*
X185031048Y-130103476D01*
X184697714Y-130103476D01*
X184507238Y-130055857D01*
X184412000Y-129960619D01*
X184364381Y-129865381D01*
X184364381Y-129151095D02*
X184364381Y-128579666D01*
X185364381Y-128865381D02*
X184364381Y-128865381D01*
X184459619Y-128293952D02*
X184412000Y-128246333D01*
X184364381Y-128151095D01*
X184364381Y-127912999D01*
X184412000Y-127817761D01*
X184459619Y-127770142D01*
X184554857Y-127722523D01*
X184650095Y-127722523D01*
X184792952Y-127770142D01*
X185364381Y-128341571D01*
X185364381Y-127722523D01*
X131278334Y-120467381D02*
X130945000Y-119991190D01*
X130706905Y-120467381D02*
X130706905Y-119467381D01*
X131087858Y-119467381D01*
X131183096Y-119515000D01*
X131230715Y-119562619D01*
X131278334Y-119657857D01*
X131278334Y-119800714D01*
X131230715Y-119895952D01*
X131183096Y-119943571D01*
X131087858Y-119991190D01*
X130706905Y-119991190D01*
X132230715Y-120467381D02*
X131659286Y-120467381D01*
X131945000Y-120467381D02*
X131945000Y-119467381D01*
X131849762Y-119610238D01*
X131754524Y-119705476D01*
X131659286Y-119753095D01*
X155392381Y-123356666D02*
X154916190Y-123690000D01*
X155392381Y-123928095D02*
X154392381Y-123928095D01*
X154392381Y-123547142D01*
X154440000Y-123451904D01*
X154487619Y-123404285D01*
X154582857Y-123356666D01*
X154725714Y-123356666D01*
X154820952Y-123404285D01*
X154868571Y-123451904D01*
X154916190Y-123547142D01*
X154916190Y-123928095D01*
X154487619Y-122975714D02*
X154440000Y-122928095D01*
X154392381Y-122832857D01*
X154392381Y-122594761D01*
X154440000Y-122499523D01*
X154487619Y-122451904D01*
X154582857Y-122404285D01*
X154678095Y-122404285D01*
X154820952Y-122451904D01*
X155392381Y-123023333D01*
X155392381Y-122404285D01*
X185253334Y-136977381D02*
X184920000Y-136501190D01*
X184681905Y-136977381D02*
X184681905Y-135977381D01*
X185062858Y-135977381D01*
X185158096Y-136025000D01*
X185205715Y-136072619D01*
X185253334Y-136167857D01*
X185253334Y-136310714D01*
X185205715Y-136405952D01*
X185158096Y-136453571D01*
X185062858Y-136501190D01*
X184681905Y-136501190D01*
X185586667Y-135977381D02*
X186205715Y-135977381D01*
X185872381Y-136358333D01*
X186015239Y-136358333D01*
X186110477Y-136405952D01*
X186158096Y-136453571D01*
X186205715Y-136548810D01*
X186205715Y-136786905D01*
X186158096Y-136882143D01*
X186110477Y-136929762D01*
X186015239Y-136977381D01*
X185729524Y-136977381D01*
X185634286Y-136929762D01*
X185586667Y-136882143D01*
X185253334Y-122372381D02*
X184920000Y-121896190D01*
X184681905Y-122372381D02*
X184681905Y-121372381D01*
X185062858Y-121372381D01*
X185158096Y-121420000D01*
X185205715Y-121467619D01*
X185253334Y-121562857D01*
X185253334Y-121705714D01*
X185205715Y-121800952D01*
X185158096Y-121848571D01*
X185062858Y-121896190D01*
X184681905Y-121896190D01*
X186110477Y-121705714D02*
X186110477Y-122372381D01*
X185872381Y-121324762D02*
X185634286Y-122039048D01*
X186253334Y-122039048D01*
X106497381Y-124626666D02*
X106021190Y-124960000D01*
X106497381Y-125198095D02*
X105497381Y-125198095D01*
X105497381Y-124817142D01*
X105545000Y-124721904D01*
X105592619Y-124674285D01*
X105687857Y-124626666D01*
X105830714Y-124626666D01*
X105925952Y-124674285D01*
X105973571Y-124721904D01*
X106021190Y-124817142D01*
X106021190Y-125198095D01*
X105497381Y-123721904D02*
X105497381Y-124198095D01*
X105973571Y-124245714D01*
X105925952Y-124198095D01*
X105878333Y-124102857D01*
X105878333Y-123864761D01*
X105925952Y-123769523D01*
X105973571Y-123721904D01*
X106068810Y-123674285D01*
X106306905Y-123674285D01*
X106402143Y-123721904D01*
X106449762Y-123769523D01*
X106497381Y-123864761D01*
X106497381Y-124102857D01*
X106449762Y-124198095D01*
X106402143Y-124245714D01*
X109672381Y-124626666D02*
X109196190Y-124960000D01*
X109672381Y-125198095D02*
X108672381Y-125198095D01*
X108672381Y-124817142D01*
X108720000Y-124721904D01*
X108767619Y-124674285D01*
X108862857Y-124626666D01*
X109005714Y-124626666D01*
X109100952Y-124674285D01*
X109148571Y-124721904D01*
X109196190Y-124817142D01*
X109196190Y-125198095D01*
X108672381Y-123769523D02*
X108672381Y-123960000D01*
X108720000Y-124055238D01*
X108767619Y-124102857D01*
X108910476Y-124198095D01*
X109100952Y-124245714D01*
X109481905Y-124245714D01*
X109577143Y-124198095D01*
X109624762Y-124150476D01*
X109672381Y-124055238D01*
X109672381Y-123864761D01*
X109624762Y-123769523D01*
X109577143Y-123721904D01*
X109481905Y-123674285D01*
X109243810Y-123674285D01*
X109148571Y-123721904D01*
X109100952Y-123769523D01*
X109053333Y-123864761D01*
X109053333Y-124055238D01*
X109100952Y-124150476D01*
X109148571Y-124198095D01*
X109243810Y-124245714D01*
X124928334Y-117927381D02*
X124595000Y-117451190D01*
X124356905Y-117927381D02*
X124356905Y-116927381D01*
X124737858Y-116927381D01*
X124833096Y-116975000D01*
X124880715Y-117022619D01*
X124928334Y-117117857D01*
X124928334Y-117260714D01*
X124880715Y-117355952D01*
X124833096Y-117403571D01*
X124737858Y-117451190D01*
X124356905Y-117451190D01*
X125261667Y-116927381D02*
X125928334Y-116927381D01*
X125499762Y-117927381D01*
X112847381Y-124626666D02*
X112371190Y-124960000D01*
X112847381Y-125198095D02*
X111847381Y-125198095D01*
X111847381Y-124817142D01*
X111895000Y-124721904D01*
X111942619Y-124674285D01*
X112037857Y-124626666D01*
X112180714Y-124626666D01*
X112275952Y-124674285D01*
X112323571Y-124721904D01*
X112371190Y-124817142D01*
X112371190Y-125198095D01*
X112275952Y-124055238D02*
X112228333Y-124150476D01*
X112180714Y-124198095D01*
X112085476Y-124245714D01*
X112037857Y-124245714D01*
X111942619Y-124198095D01*
X111895000Y-124150476D01*
X111847381Y-124055238D01*
X111847381Y-123864761D01*
X111895000Y-123769523D01*
X111942619Y-123721904D01*
X112037857Y-123674285D01*
X112085476Y-123674285D01*
X112180714Y-123721904D01*
X112228333Y-123769523D01*
X112275952Y-123864761D01*
X112275952Y-124055238D01*
X112323571Y-124150476D01*
X112371190Y-124198095D01*
X112466429Y-124245714D01*
X112656905Y-124245714D01*
X112752143Y-124198095D01*
X112799762Y-124150476D01*
X112847381Y-124055238D01*
X112847381Y-123864761D01*
X112799762Y-123769523D01*
X112752143Y-123721904D01*
X112656905Y-123674285D01*
X112466429Y-123674285D01*
X112371190Y-123721904D01*
X112323571Y-123769523D01*
X112275952Y-123864761D01*
X116022381Y-124626666D02*
X115546190Y-124960000D01*
X116022381Y-125198095D02*
X115022381Y-125198095D01*
X115022381Y-124817142D01*
X115070000Y-124721904D01*
X115117619Y-124674285D01*
X115212857Y-124626666D01*
X115355714Y-124626666D01*
X115450952Y-124674285D01*
X115498571Y-124721904D01*
X115546190Y-124817142D01*
X115546190Y-125198095D01*
X116022381Y-124150476D02*
X116022381Y-123960000D01*
X115974762Y-123864761D01*
X115927143Y-123817142D01*
X115784286Y-123721904D01*
X115593810Y-123674285D01*
X115212857Y-123674285D01*
X115117619Y-123721904D01*
X115070000Y-123769523D01*
X115022381Y-123864761D01*
X115022381Y-124055238D01*
X115070000Y-124150476D01*
X115117619Y-124198095D01*
X115212857Y-124245714D01*
X115450952Y-124245714D01*
X115546190Y-124198095D01*
X115593810Y-124150476D01*
X115641429Y-124055238D01*
X115641429Y-123864761D01*
X115593810Y-123769523D01*
X115546190Y-123721904D01*
X115450952Y-123674285D01*
X136517143Y-123642381D02*
X136183809Y-123166190D01*
X135945714Y-123642381D02*
X135945714Y-122642381D01*
X136326667Y-122642381D01*
X136421905Y-122690000D01*
X136469524Y-122737619D01*
X136517143Y-122832857D01*
X136517143Y-122975714D01*
X136469524Y-123070952D01*
X136421905Y-123118571D01*
X136326667Y-123166190D01*
X135945714Y-123166190D01*
X137469524Y-123642381D02*
X136898095Y-123642381D01*
X137183809Y-123642381D02*
X137183809Y-122642381D01*
X137088571Y-122785238D01*
X136993333Y-122880476D01*
X136898095Y-122928095D01*
X138088571Y-122642381D02*
X138183810Y-122642381D01*
X138279048Y-122690000D01*
X138326667Y-122737619D01*
X138374286Y-122832857D01*
X138421905Y-123023333D01*
X138421905Y-123261429D01*
X138374286Y-123451905D01*
X138326667Y-123547143D01*
X138279048Y-123594762D01*
X138183810Y-123642381D01*
X138088571Y-123642381D01*
X137993333Y-123594762D01*
X137945714Y-123547143D01*
X137898095Y-123451905D01*
X137850476Y-123261429D01*
X137850476Y-123023333D01*
X137898095Y-122832857D01*
X137945714Y-122737619D01*
X137993333Y-122690000D01*
X138088571Y-122642381D01*
X123817143Y-123642381D02*
X123483809Y-123166190D01*
X123245714Y-123642381D02*
X123245714Y-122642381D01*
X123626667Y-122642381D01*
X123721905Y-122690000D01*
X123769524Y-122737619D01*
X123817143Y-122832857D01*
X123817143Y-122975714D01*
X123769524Y-123070952D01*
X123721905Y-123118571D01*
X123626667Y-123166190D01*
X123245714Y-123166190D01*
X124769524Y-123642381D02*
X124198095Y-123642381D01*
X124483809Y-123642381D02*
X124483809Y-122642381D01*
X124388571Y-122785238D01*
X124293333Y-122880476D01*
X124198095Y-122928095D01*
X125721905Y-123642381D02*
X125150476Y-123642381D01*
X125436190Y-123642381D02*
X125436190Y-122642381D01*
X125340952Y-122785238D01*
X125245714Y-122880476D01*
X125150476Y-122928095D01*
X142867143Y-129992381D02*
X142533809Y-129516190D01*
X142295714Y-129992381D02*
X142295714Y-128992381D01*
X142676667Y-128992381D01*
X142771905Y-129040000D01*
X142819524Y-129087619D01*
X142867143Y-129182857D01*
X142867143Y-129325714D01*
X142819524Y-129420952D01*
X142771905Y-129468571D01*
X142676667Y-129516190D01*
X142295714Y-129516190D01*
X143819524Y-129992381D02*
X143248095Y-129992381D01*
X143533809Y-129992381D02*
X143533809Y-128992381D01*
X143438571Y-129135238D01*
X143343333Y-129230476D01*
X143248095Y-129278095D01*
X144200476Y-129087619D02*
X144248095Y-129040000D01*
X144343333Y-128992381D01*
X144581429Y-128992381D01*
X144676667Y-129040000D01*
X144724286Y-129087619D01*
X144771905Y-129182857D01*
X144771905Y-129278095D01*
X144724286Y-129420952D01*
X144152857Y-129992381D01*
X144771905Y-129992381D01*
X136517143Y-137612381D02*
X136183809Y-137136190D01*
X135945714Y-137612381D02*
X135945714Y-136612381D01*
X136326667Y-136612381D01*
X136421905Y-136660000D01*
X136469524Y-136707619D01*
X136517143Y-136802857D01*
X136517143Y-136945714D01*
X136469524Y-137040952D01*
X136421905Y-137088571D01*
X136326667Y-137136190D01*
X135945714Y-137136190D01*
X137469524Y-137612381D02*
X136898095Y-137612381D01*
X137183809Y-137612381D02*
X137183809Y-136612381D01*
X137088571Y-136755238D01*
X136993333Y-136850476D01*
X136898095Y-136898095D01*
X137802857Y-136612381D02*
X138421905Y-136612381D01*
X138088571Y-136993333D01*
X138231429Y-136993333D01*
X138326667Y-137040952D01*
X138374286Y-137088571D01*
X138421905Y-137183810D01*
X138421905Y-137421905D01*
X138374286Y-137517143D01*
X138326667Y-137564762D01*
X138231429Y-137612381D01*
X137945714Y-137612381D01*
X137850476Y-137564762D01*
X137802857Y-137517143D01*
X115562143Y-143962381D02*
X115228809Y-143486190D01*
X114990714Y-143962381D02*
X114990714Y-142962381D01*
X115371667Y-142962381D01*
X115466905Y-143010000D01*
X115514524Y-143057619D01*
X115562143Y-143152857D01*
X115562143Y-143295714D01*
X115514524Y-143390952D01*
X115466905Y-143438571D01*
X115371667Y-143486190D01*
X114990714Y-143486190D01*
X116514524Y-143962381D02*
X115943095Y-143962381D01*
X116228809Y-143962381D02*
X116228809Y-142962381D01*
X116133571Y-143105238D01*
X116038333Y-143200476D01*
X115943095Y-143248095D01*
X117371667Y-143295714D02*
X117371667Y-143962381D01*
X117133571Y-142914762D02*
X116895476Y-143629048D01*
X117514524Y-143629048D01*
X128897143Y-143962381D02*
X128563809Y-143486190D01*
X128325714Y-143962381D02*
X128325714Y-142962381D01*
X128706667Y-142962381D01*
X128801905Y-143010000D01*
X128849524Y-143057619D01*
X128897143Y-143152857D01*
X128897143Y-143295714D01*
X128849524Y-143390952D01*
X128801905Y-143438571D01*
X128706667Y-143486190D01*
X128325714Y-143486190D01*
X129849524Y-143962381D02*
X129278095Y-143962381D01*
X129563809Y-143962381D02*
X129563809Y-142962381D01*
X129468571Y-143105238D01*
X129373333Y-143200476D01*
X129278095Y-143248095D01*
X130754286Y-142962381D02*
X130278095Y-142962381D01*
X130230476Y-143438571D01*
X130278095Y-143390952D01*
X130373333Y-143343333D01*
X130611429Y-143343333D01*
X130706667Y-143390952D01*
X130754286Y-143438571D01*
X130801905Y-143533810D01*
X130801905Y-143771905D01*
X130754286Y-143867143D01*
X130706667Y-143914762D01*
X130611429Y-143962381D01*
X130373333Y-143962381D01*
X130278095Y-143914762D01*
X130230476Y-143867143D01*
X128897143Y-140787381D02*
X128563809Y-140311190D01*
X128325714Y-140787381D02*
X128325714Y-139787381D01*
X128706667Y-139787381D01*
X128801905Y-139835000D01*
X128849524Y-139882619D01*
X128897143Y-139977857D01*
X128897143Y-140120714D01*
X128849524Y-140215952D01*
X128801905Y-140263571D01*
X128706667Y-140311190D01*
X128325714Y-140311190D01*
X129849524Y-140787381D02*
X129278095Y-140787381D01*
X129563809Y-140787381D02*
X129563809Y-139787381D01*
X129468571Y-139930238D01*
X129373333Y-140025476D01*
X129278095Y-140073095D01*
X130706667Y-139787381D02*
X130516190Y-139787381D01*
X130420952Y-139835000D01*
X130373333Y-139882619D01*
X130278095Y-140025476D01*
X130230476Y-140215952D01*
X130230476Y-140596905D01*
X130278095Y-140692143D01*
X130325714Y-140739762D01*
X130420952Y-140787381D01*
X130611429Y-140787381D01*
X130706667Y-140739762D01*
X130754286Y-140692143D01*
X130801905Y-140596905D01*
X130801905Y-140358810D01*
X130754286Y-140263571D01*
X130706667Y-140215952D01*
X130611429Y-140168333D01*
X130420952Y-140168333D01*
X130325714Y-140215952D01*
X130278095Y-140263571D01*
X130230476Y-140358810D01*
X116197143Y-137612381D02*
X115863809Y-137136190D01*
X115625714Y-137612381D02*
X115625714Y-136612381D01*
X116006667Y-136612381D01*
X116101905Y-136660000D01*
X116149524Y-136707619D01*
X116197143Y-136802857D01*
X116197143Y-136945714D01*
X116149524Y-137040952D01*
X116101905Y-137088571D01*
X116006667Y-137136190D01*
X115625714Y-137136190D01*
X117149524Y-137612381D02*
X116578095Y-137612381D01*
X116863809Y-137612381D02*
X116863809Y-136612381D01*
X116768571Y-136755238D01*
X116673333Y-136850476D01*
X116578095Y-136898095D01*
X117482857Y-136612381D02*
X118149524Y-136612381D01*
X117720952Y-137612381D01*
X120102381Y-108576905D02*
X120102381Y-108005476D01*
X121102381Y-108291191D02*
X120102381Y-108291191D01*
X120578571Y-107338809D02*
X120626190Y-107195952D01*
X120673810Y-107148333D01*
X120769048Y-107100714D01*
X120911905Y-107100714D01*
X121007143Y-107148333D01*
X121054762Y-107195952D01*
X121102381Y-107291190D01*
X121102381Y-107672143D01*
X120102381Y-107672143D01*
X120102381Y-107338809D01*
X120150000Y-107243571D01*
X120197619Y-107195952D01*
X120292857Y-107148333D01*
X120388095Y-107148333D01*
X120483333Y-107195952D01*
X120530952Y-107243571D01*
X120578571Y-107338809D01*
X120578571Y-107672143D01*
X121102381Y-106148333D02*
X121102381Y-106719762D01*
X121102381Y-106434048D02*
X120102381Y-106434048D01*
X120245238Y-106529286D01*
X120340476Y-106624524D01*
X120388095Y-106719762D01*
X197572381Y-109211905D02*
X197572381Y-108640476D01*
X198572381Y-108926191D02*
X197572381Y-108926191D01*
X198048571Y-107973809D02*
X198096190Y-107830952D01*
X198143810Y-107783333D01*
X198239048Y-107735714D01*
X198381905Y-107735714D01*
X198477143Y-107783333D01*
X198524762Y-107830952D01*
X198572381Y-107926190D01*
X198572381Y-108307143D01*
X197572381Y-108307143D01*
X197572381Y-107973809D01*
X197620000Y-107878571D01*
X197667619Y-107830952D01*
X197762857Y-107783333D01*
X197858095Y-107783333D01*
X197953333Y-107830952D01*
X198000952Y-107878571D01*
X198048571Y-107973809D01*
X198048571Y-108307143D01*
X197667619Y-107354762D02*
X197620000Y-107307143D01*
X197572381Y-107211905D01*
X197572381Y-106973809D01*
X197620000Y-106878571D01*
X197667619Y-106830952D01*
X197762857Y-106783333D01*
X197858095Y-106783333D01*
X198000952Y-106830952D01*
X198572381Y-107402381D01*
X198572381Y-106783333D01*
X163703095Y-114387381D02*
X163703095Y-115196905D01*
X163750714Y-115292143D01*
X163798333Y-115339762D01*
X163893571Y-115387381D01*
X164084048Y-115387381D01*
X164179286Y-115339762D01*
X164226905Y-115292143D01*
X164274524Y-115196905D01*
X164274524Y-114387381D01*
X165274524Y-115387381D02*
X164703095Y-115387381D01*
X164988809Y-115387381D02*
X164988809Y-114387381D01*
X164893571Y-114530238D01*
X164798333Y-114625476D01*
X164703095Y-114673095D01*
X103402381Y-138993334D02*
X104402381Y-138660001D01*
X103402381Y-138326667D01*
X104402381Y-137993334D02*
X103735714Y-137993334D01*
X103926190Y-137993334D02*
X103830952Y-137945715D01*
X103783333Y-137898096D01*
X103735714Y-137802858D01*
X103735714Y-137707619D01*
X104354762Y-136993333D02*
X104402381Y-137088571D01*
X104402381Y-137279048D01*
X104354762Y-137374286D01*
X104259524Y-137421905D01*
X103878571Y-137421905D01*
X103783333Y-137374286D01*
X103735714Y-137279048D01*
X103735714Y-137088571D01*
X103783333Y-136993333D01*
X103878571Y-136945714D01*
X103973810Y-136945714D01*
X104069048Y-137421905D01*
X103735714Y-136660000D02*
X103735714Y-136279048D01*
X104402381Y-136517143D02*
X103545238Y-136517143D01*
X103450000Y-136469524D01*
X103402381Y-136374286D01*
X103402381Y-136279048D01*
X104402381Y-135421904D02*
X104402381Y-135993333D01*
X104402381Y-135707619D02*
X103402381Y-135707619D01*
X103545238Y-135802857D01*
X103640476Y-135898095D01*
X103688095Y-135993333D01*
X128103381Y-131190905D02*
X128912905Y-131190905D01*
X129008143Y-131143286D01*
X129055762Y-131095667D01*
X129103381Y-131000429D01*
X129103381Y-130809952D01*
X129055762Y-130714714D01*
X129008143Y-130667095D01*
X128912905Y-130619476D01*
X128103381Y-130619476D01*
X128198619Y-130190905D02*
X128151000Y-130143286D01*
X128103381Y-130048048D01*
X128103381Y-129809952D01*
X128151000Y-129714714D01*
X128198619Y-129667095D01*
X128293857Y-129619476D01*
X128389095Y-129619476D01*
X128531952Y-129667095D01*
X129103381Y-130238524D01*
X129103381Y-129619476D01*
M02*
