%FSLAX45Y45*%
G04 Gerber Fmt 4.5, Leading zero omitted, Abs format (unit mm)*
G04 Created by KiCad (PCBNEW (5.0.2)-1) date 04/20/19 16:34:49*
%MOMM*%
%LPD*%
G01*
G04 APERTURE LIST*
%ADD10C,0.150000*%
%ADD11C,0.200000*%
%ADD12C,0.300000*%
G04 APERTURE END LIST*
D10*
X25254000Y-15000000D02*
X25254000Y-5000000D01*
X15254000Y-15000000D02*
X25254000Y-15000000D01*
X15254000Y-5000000D02*
X15254000Y-15000000D01*
X25254000Y-5000000D02*
X15254000Y-5000000D01*
D11*
D12*
X15532928Y-15473214D02*
X15532928Y-15173214D01*
X15604357Y-15173214D01*
X15647214Y-15187500D01*
X15675786Y-15216071D01*
X15690071Y-15244643D01*
X15704357Y-15301786D01*
X15704357Y-15344643D01*
X15690071Y-15401786D01*
X15675786Y-15430357D01*
X15647214Y-15458929D01*
X15604357Y-15473214D01*
X15532928Y-15473214D01*
X15832928Y-15473214D02*
X15832928Y-15273214D01*
X15832928Y-15330357D02*
X15847214Y-15301786D01*
X15861500Y-15287500D01*
X15890071Y-15273214D01*
X15918643Y-15273214D01*
X16018643Y-15473214D02*
X16018643Y-15273214D01*
X16018643Y-15173214D02*
X16004357Y-15187500D01*
X16018643Y-15201786D01*
X16032928Y-15187500D01*
X16018643Y-15173214D01*
X16018643Y-15201786D01*
X16204357Y-15473214D02*
X16175786Y-15458929D01*
X16161500Y-15430357D01*
X16161500Y-15173214D01*
X16361500Y-15473214D02*
X16332928Y-15458929D01*
X16318643Y-15430357D01*
X16318643Y-15173214D01*
X16704357Y-15473214D02*
X16704357Y-15173214D01*
X16804357Y-15387500D01*
X16904357Y-15173214D01*
X16904357Y-15473214D01*
X17175786Y-15473214D02*
X17175786Y-15316071D01*
X17161500Y-15287500D01*
X17132928Y-15273214D01*
X17075786Y-15273214D01*
X17047214Y-15287500D01*
X17175786Y-15458929D02*
X17147214Y-15473214D01*
X17075786Y-15473214D01*
X17047214Y-15458929D01*
X17032928Y-15430357D01*
X17032928Y-15401786D01*
X17047214Y-15373214D01*
X17075786Y-15358929D01*
X17147214Y-15358929D01*
X17175786Y-15344643D01*
X17318643Y-15273214D02*
X17318643Y-15573214D01*
X17318643Y-15287500D02*
X17347214Y-15273214D01*
X17404357Y-15273214D01*
X17432928Y-15287500D01*
X17447214Y-15301786D01*
X17461500Y-15330357D01*
X17461500Y-15416071D01*
X17447214Y-15444643D01*
X17432928Y-15458929D01*
X17404357Y-15473214D01*
X17347214Y-15473214D01*
X17318643Y-15458929D01*
X17590071Y-15444643D02*
X17604357Y-15458929D01*
X17590071Y-15473214D01*
X17575786Y-15458929D01*
X17590071Y-15444643D01*
X17590071Y-15473214D01*
X17590071Y-15287500D02*
X17604357Y-15301786D01*
X17590071Y-15316071D01*
X17575786Y-15301786D01*
X17590071Y-15287500D01*
X17590071Y-15316071D01*
M02*
