G04 #@! TF.GenerationSoftware,KiCad,Pcbnew,(5.0.2)-1*
G04 #@! TF.CreationDate,2019-06-05T14:49:37+08:00*
G04 #@! TF.ProjectId,Peak Voltage Detector Version2,5065616b-2056-46f6-9c74-616765204465,rev?*
G04 #@! TF.SameCoordinates,Original*
G04 #@! TF.FileFunction,Legend,Top*
G04 #@! TF.FilePolarity,Positive*
%FSLAX46Y46*%
G04 Gerber Fmt 4.6, Leading zero omitted, Abs format (unit mm)*
G04 Created by KiCad (PCBNEW (5.0.2)-1) date 06/05/19 14:49:37*
%MOMM*%
%LPD*%
G01*
G04 APERTURE LIST*
%ADD10C,0.300000*%
%ADD11C,0.150000*%
%ADD12C,0.120000*%
G04 APERTURE END LIST*
D10*
X179714285Y-54903571D02*
X179714285Y-53403571D01*
X180285714Y-53403571D01*
X180428571Y-53475000D01*
X180500000Y-53546428D01*
X180571428Y-53689285D01*
X180571428Y-53903571D01*
X180500000Y-54046428D01*
X180428571Y-54117857D01*
X180285714Y-54189285D01*
X179714285Y-54189285D01*
X181785714Y-54832142D02*
X181642857Y-54903571D01*
X181357142Y-54903571D01*
X181214285Y-54832142D01*
X181142857Y-54689285D01*
X181142857Y-54117857D01*
X181214285Y-53975000D01*
X181357142Y-53903571D01*
X181642857Y-53903571D01*
X181785714Y-53975000D01*
X181857142Y-54117857D01*
X181857142Y-54260714D01*
X181142857Y-54403571D01*
X183142857Y-54903571D02*
X183142857Y-54117857D01*
X183071428Y-53975000D01*
X182928571Y-53903571D01*
X182642857Y-53903571D01*
X182500000Y-53975000D01*
X183142857Y-54832142D02*
X183000000Y-54903571D01*
X182642857Y-54903571D01*
X182500000Y-54832142D01*
X182428571Y-54689285D01*
X182428571Y-54546428D01*
X182500000Y-54403571D01*
X182642857Y-54332142D01*
X183000000Y-54332142D01*
X183142857Y-54260714D01*
X183857142Y-54903571D02*
X183857142Y-53403571D01*
X184000000Y-54332142D02*
X184428571Y-54903571D01*
X184428571Y-53903571D02*
X183857142Y-54475000D01*
X186000000Y-53403571D02*
X186500000Y-54903571D01*
X187000000Y-53403571D01*
X187714285Y-54903571D02*
X187571428Y-54832142D01*
X187500000Y-54760714D01*
X187428571Y-54617857D01*
X187428571Y-54189285D01*
X187500000Y-54046428D01*
X187571428Y-53975000D01*
X187714285Y-53903571D01*
X187928571Y-53903571D01*
X188071428Y-53975000D01*
X188142857Y-54046428D01*
X188214285Y-54189285D01*
X188214285Y-54617857D01*
X188142857Y-54760714D01*
X188071428Y-54832142D01*
X187928571Y-54903571D01*
X187714285Y-54903571D01*
X189071428Y-54903571D02*
X188928571Y-54832142D01*
X188857142Y-54689285D01*
X188857142Y-53403571D01*
X189428571Y-53903571D02*
X190000000Y-53903571D01*
X189642857Y-53403571D02*
X189642857Y-54689285D01*
X189714285Y-54832142D01*
X189857142Y-54903571D01*
X190000000Y-54903571D01*
X191142857Y-54903571D02*
X191142857Y-54117857D01*
X191071428Y-53975000D01*
X190928571Y-53903571D01*
X190642857Y-53903571D01*
X190500000Y-53975000D01*
X191142857Y-54832142D02*
X191000000Y-54903571D01*
X190642857Y-54903571D01*
X190500000Y-54832142D01*
X190428571Y-54689285D01*
X190428571Y-54546428D01*
X190500000Y-54403571D01*
X190642857Y-54332142D01*
X191000000Y-54332142D01*
X191142857Y-54260714D01*
X192500000Y-53903571D02*
X192500000Y-55117857D01*
X192428571Y-55260714D01*
X192357142Y-55332142D01*
X192214285Y-55403571D01*
X192000000Y-55403571D01*
X191857142Y-55332142D01*
X192500000Y-54832142D02*
X192357142Y-54903571D01*
X192071428Y-54903571D01*
X191928571Y-54832142D01*
X191857142Y-54760714D01*
X191785714Y-54617857D01*
X191785714Y-54189285D01*
X191857142Y-54046428D01*
X191928571Y-53975000D01*
X192071428Y-53903571D01*
X192357142Y-53903571D01*
X192500000Y-53975000D01*
X193785714Y-54832142D02*
X193642857Y-54903571D01*
X193357142Y-54903571D01*
X193214285Y-54832142D01*
X193142857Y-54689285D01*
X193142857Y-54117857D01*
X193214285Y-53975000D01*
X193357142Y-53903571D01*
X193642857Y-53903571D01*
X193785714Y-53975000D01*
X193857142Y-54117857D01*
X193857142Y-54260714D01*
X193142857Y-54403571D01*
X195642857Y-54903571D02*
X195642857Y-53403571D01*
X196000000Y-53403571D01*
X196214285Y-53475000D01*
X196357142Y-53617857D01*
X196428571Y-53760714D01*
X196500000Y-54046428D01*
X196500000Y-54260714D01*
X196428571Y-54546428D01*
X196357142Y-54689285D01*
X196214285Y-54832142D01*
X196000000Y-54903571D01*
X195642857Y-54903571D01*
X197714285Y-54832142D02*
X197571428Y-54903571D01*
X197285714Y-54903571D01*
X197142857Y-54832142D01*
X197071428Y-54689285D01*
X197071428Y-54117857D01*
X197142857Y-53975000D01*
X197285714Y-53903571D01*
X197571428Y-53903571D01*
X197714285Y-53975000D01*
X197785714Y-54117857D01*
X197785714Y-54260714D01*
X197071428Y-54403571D01*
X198214285Y-53903571D02*
X198785714Y-53903571D01*
X198428571Y-53403571D02*
X198428571Y-54689285D01*
X198500000Y-54832142D01*
X198642857Y-54903571D01*
X198785714Y-54903571D01*
X199857142Y-54832142D02*
X199714285Y-54903571D01*
X199428571Y-54903571D01*
X199285714Y-54832142D01*
X199214285Y-54689285D01*
X199214285Y-54117857D01*
X199285714Y-53975000D01*
X199428571Y-53903571D01*
X199714285Y-53903571D01*
X199857142Y-53975000D01*
X199928571Y-54117857D01*
X199928571Y-54260714D01*
X199214285Y-54403571D01*
X201214285Y-54832142D02*
X201071428Y-54903571D01*
X200785714Y-54903571D01*
X200642857Y-54832142D01*
X200571428Y-54760714D01*
X200500000Y-54617857D01*
X200500000Y-54189285D01*
X200571428Y-54046428D01*
X200642857Y-53975000D01*
X200785714Y-53903571D01*
X201071428Y-53903571D01*
X201214285Y-53975000D01*
X201642857Y-53903571D02*
X202214285Y-53903571D01*
X201857142Y-53403571D02*
X201857142Y-54689285D01*
X201928571Y-54832142D01*
X202071428Y-54903571D01*
X202214285Y-54903571D01*
X202928571Y-54903571D02*
X202785714Y-54832142D01*
X202714285Y-54760714D01*
X202642857Y-54617857D01*
X202642857Y-54189285D01*
X202714285Y-54046428D01*
X202785714Y-53975000D01*
X202928571Y-53903571D01*
X203142857Y-53903571D01*
X203285714Y-53975000D01*
X203357142Y-54046428D01*
X203428571Y-54189285D01*
X203428571Y-54617857D01*
X203357142Y-54760714D01*
X203285714Y-54832142D01*
X203142857Y-54903571D01*
X202928571Y-54903571D01*
X204071428Y-54903571D02*
X204071428Y-53903571D01*
X204071428Y-54189285D02*
X204142857Y-54046428D01*
X204214285Y-53975000D01*
X204357142Y-53903571D01*
X204500000Y-53903571D01*
X186785714Y-55953571D02*
X187285714Y-57453571D01*
X187785714Y-55953571D01*
X188857142Y-57382142D02*
X188714285Y-57453571D01*
X188428571Y-57453571D01*
X188285714Y-57382142D01*
X188214285Y-57239285D01*
X188214285Y-56667857D01*
X188285714Y-56525000D01*
X188428571Y-56453571D01*
X188714285Y-56453571D01*
X188857142Y-56525000D01*
X188928571Y-56667857D01*
X188928571Y-56810714D01*
X188214285Y-56953571D01*
X189571428Y-57453571D02*
X189571428Y-56453571D01*
X189571428Y-56739285D02*
X189642857Y-56596428D01*
X189714285Y-56525000D01*
X189857142Y-56453571D01*
X190000000Y-56453571D01*
X190428571Y-57382142D02*
X190571428Y-57453571D01*
X190857142Y-57453571D01*
X191000000Y-57382142D01*
X191071428Y-57239285D01*
X191071428Y-57167857D01*
X191000000Y-57025000D01*
X190857142Y-56953571D01*
X190642857Y-56953571D01*
X190500000Y-56882142D01*
X190428571Y-56739285D01*
X190428571Y-56667857D01*
X190500000Y-56525000D01*
X190642857Y-56453571D01*
X190857142Y-56453571D01*
X191000000Y-56525000D01*
X191714285Y-57453571D02*
X191714285Y-56453571D01*
X191714285Y-55953571D02*
X191642857Y-56025000D01*
X191714285Y-56096428D01*
X191785714Y-56025000D01*
X191714285Y-55953571D01*
X191714285Y-56096428D01*
X192642857Y-57453571D02*
X192500000Y-57382142D01*
X192428571Y-57310714D01*
X192357142Y-57167857D01*
X192357142Y-56739285D01*
X192428571Y-56596428D01*
X192500000Y-56525000D01*
X192642857Y-56453571D01*
X192857142Y-56453571D01*
X193000000Y-56525000D01*
X193071428Y-56596428D01*
X193142857Y-56739285D01*
X193142857Y-57167857D01*
X193071428Y-57310714D01*
X193000000Y-57382142D01*
X192857142Y-57453571D01*
X192642857Y-57453571D01*
X193785714Y-56453571D02*
X193785714Y-57453571D01*
X193785714Y-56596428D02*
X193857142Y-56525000D01*
X194000000Y-56453571D01*
X194214285Y-56453571D01*
X194357142Y-56525000D01*
X194428571Y-56667857D01*
X194428571Y-57453571D01*
X196214285Y-56096428D02*
X196285714Y-56025000D01*
X196428571Y-55953571D01*
X196785714Y-55953571D01*
X196928571Y-56025000D01*
X197000000Y-56096428D01*
X197071428Y-56239285D01*
X197071428Y-56382142D01*
X197000000Y-56596428D01*
X196142857Y-57453571D01*
X197071428Y-57453571D01*
D11*
G04 #@! TO.C,U26*
X187540000Y-139572000D02*
X186190000Y-139572000D01*
X187540000Y-142722000D02*
X192190000Y-142722000D01*
X187540000Y-139472000D02*
X192190000Y-139472000D01*
X187540000Y-142722000D02*
X187540000Y-142522000D01*
X192190000Y-142722000D02*
X192190000Y-142522000D01*
X192190000Y-139472000D02*
X192190000Y-139672000D01*
X187540000Y-139472000D02*
X187540000Y-139572000D01*
G04 #@! TO.C,U5*
X207879000Y-58631000D02*
X207879000Y-57256000D01*
X199004000Y-58631000D02*
X199004000Y-62781000D01*
X207904000Y-58631000D02*
X207904000Y-62781000D01*
X199004000Y-58631000D02*
X199119000Y-58631000D01*
X199004000Y-62781000D02*
X199119000Y-62781000D01*
X207904000Y-62781000D02*
X207789000Y-62781000D01*
X207904000Y-58631000D02*
X207879000Y-58631000D01*
G04 #@! TO.C,U2*
X164719000Y-71247000D02*
X165862000Y-71247000D01*
X164719000Y-68199000D02*
X165862000Y-68199000D01*
X165862000Y-64389000D02*
X169545000Y-64389000D01*
X169545000Y-64389000D02*
X169545000Y-75057000D01*
X169545000Y-75057000D02*
X165862000Y-75057000D01*
X164719000Y-64389000D02*
X165862000Y-64389000D01*
X165862000Y-64389000D02*
X165862000Y-75057000D01*
X165862000Y-75057000D02*
X164719000Y-75057000D01*
X164719000Y-69723000D02*
X164719000Y-75057000D01*
X164719000Y-69723000D02*
X164719000Y-64389000D01*
D12*
G04 #@! TO.C,C6*
X243555000Y-75530000D02*
X242855000Y-75530000D01*
X242855000Y-74330000D02*
X243555000Y-74330000D01*
G04 #@! TO.C,C7*
X230855000Y-75530000D02*
X230155000Y-75530000D01*
X230155000Y-74330000D02*
X230855000Y-74330000D01*
G04 #@! TO.C,C8*
X236571000Y-60233000D02*
X237271000Y-60233000D01*
X237271000Y-61433000D02*
X236571000Y-61433000D01*
G04 #@! TO.C,C10*
X218155000Y-75530000D02*
X217455000Y-75530000D01*
X217455000Y-74330000D02*
X218155000Y-74330000D01*
G04 #@! TO.C,C11*
X205455000Y-75530000D02*
X204755000Y-75530000D01*
X204755000Y-74330000D02*
X205455000Y-74330000D01*
G04 #@! TO.C,C12*
X211105000Y-59979000D02*
X211805000Y-59979000D01*
X211805000Y-61179000D02*
X211105000Y-61179000D01*
G04 #@! TO.C,C14*
X242855000Y-109255000D02*
X243555000Y-109255000D01*
X243555000Y-110455000D02*
X242855000Y-110455000D01*
G04 #@! TO.C,C15*
X230855000Y-110455000D02*
X230155000Y-110455000D01*
X230155000Y-109255000D02*
X230855000Y-109255000D01*
G04 #@! TO.C,C16*
X236887500Y-96040500D02*
X236187500Y-96040500D01*
X236187500Y-94840500D02*
X236887500Y-94840500D01*
G04 #@! TO.C,C18*
X211805000Y-96104000D02*
X211105000Y-96104000D01*
X211105000Y-94904000D02*
X211805000Y-94904000D01*
G04 #@! TO.C,C19*
X204755000Y-109255000D02*
X205455000Y-109255000D01*
X205455000Y-110455000D02*
X204755000Y-110455000D01*
G04 #@! TO.C,C20*
X218155000Y-110455000D02*
X217455000Y-110455000D01*
X217455000Y-109255000D02*
X218155000Y-109255000D01*
G04 #@! TO.C,C25*
X195164000Y-140874000D02*
X195164000Y-141574000D01*
X193964000Y-141574000D02*
X193964000Y-140874000D01*
G04 #@! TO.C,C29*
X181071000Y-106391000D02*
X180371000Y-106391000D01*
X180371000Y-105191000D02*
X181071000Y-105191000D01*
G04 #@! TO.C,C30*
X159735000Y-136490000D02*
X159035000Y-136490000D01*
X159035000Y-135290000D02*
X159735000Y-135290000D01*
G04 #@! TO.C,C32*
X175991000Y-94453000D02*
X175291000Y-94453000D01*
X175291000Y-93253000D02*
X175991000Y-93253000D01*
G04 #@! TO.C,C38*
X188626000Y-143164000D02*
X189326000Y-143164000D01*
X189326000Y-144364000D02*
X188626000Y-144364000D01*
G04 #@! TO.C,C43*
X175352000Y-127224000D02*
X175352000Y-127924000D01*
X174152000Y-127924000D02*
X174152000Y-127224000D01*
D11*
G04 #@! TO.C,D1*
X224409520Y-126997460D02*
X224409520Y-127759460D01*
X228981520Y-126997460D02*
X224409520Y-126997460D01*
X228981520Y-128521460D02*
X228981520Y-126997460D01*
X224409520Y-128521460D02*
X228981520Y-128521460D01*
X224409520Y-127759460D02*
X224409520Y-128521460D01*
X225171520Y-126997460D02*
X225171520Y-128521460D01*
X224536520Y-127759460D02*
X223012520Y-127759460D01*
X228981520Y-127759460D02*
X230378520Y-127759460D01*
G04 #@! TO.C,D2*
X228981520Y-137919460D02*
X230378520Y-137919460D01*
X224536520Y-137919460D02*
X223012520Y-137919460D01*
X225171520Y-137157460D02*
X225171520Y-138681460D01*
X224409520Y-137919460D02*
X224409520Y-138681460D01*
X224409520Y-138681460D02*
X228981520Y-138681460D01*
X228981520Y-138681460D02*
X228981520Y-137157460D01*
X228981520Y-137157460D02*
X224409520Y-137157460D01*
X224409520Y-137157460D02*
X224409520Y-137919460D01*
G04 #@! TO.C,D3*
X224409000Y-147320000D02*
X224409000Y-148082000D01*
X228981000Y-147320000D02*
X224409000Y-147320000D01*
X228981000Y-148844000D02*
X228981000Y-147320000D01*
X224409000Y-148844000D02*
X228981000Y-148844000D01*
X224409000Y-148082000D02*
X224409000Y-148844000D01*
X225171000Y-147320000D02*
X225171000Y-148844000D01*
X224536000Y-148082000D02*
X223012000Y-148082000D01*
X228981000Y-148082000D02*
X230378000Y-148082000D01*
G04 #@! TO.C,D4*
X177032920Y-129919960D02*
X177794920Y-129919960D01*
X177032920Y-125347960D02*
X177032920Y-129919960D01*
X178556920Y-125347960D02*
X177032920Y-125347960D01*
X178556920Y-129919960D02*
X178556920Y-125347960D01*
X177794920Y-129919960D02*
X178556920Y-129919960D01*
X177032920Y-129157960D02*
X178556920Y-129157960D01*
X177794920Y-129792960D02*
X177794920Y-131316960D01*
X177794920Y-125347960D02*
X177794920Y-123950960D01*
G04 #@! TO.C,D5*
X170947080Y-127255040D02*
X170185080Y-127255040D01*
X170947080Y-131827040D02*
X170947080Y-127255040D01*
X169423080Y-131827040D02*
X170947080Y-131827040D01*
X169423080Y-127255040D02*
X169423080Y-131827040D01*
X170185080Y-127255040D02*
X169423080Y-127255040D01*
X170947080Y-128017040D02*
X169423080Y-128017040D01*
X170185080Y-127382040D02*
X170185080Y-125858040D01*
X170185080Y-131827040D02*
X170185080Y-133224040D01*
G04 #@! TO.C,D6*
X167640000Y-127254000D02*
X167640000Y-125857000D01*
X167640000Y-131699000D02*
X167640000Y-133223000D01*
X166878000Y-131064000D02*
X168402000Y-131064000D01*
X167640000Y-131826000D02*
X168402000Y-131826000D01*
X168402000Y-131826000D02*
X168402000Y-127254000D01*
X168402000Y-127254000D02*
X166878000Y-127254000D01*
X166878000Y-127254000D02*
X166878000Y-131826000D01*
X166878000Y-131826000D02*
X167640000Y-131826000D01*
G04 #@! TO.C,D7*
X171830480Y-137289540D02*
X171830480Y-136527540D01*
X167258480Y-137289540D02*
X171830480Y-137289540D01*
X167258480Y-135765540D02*
X167258480Y-137289540D01*
X171830480Y-135765540D02*
X167258480Y-135765540D01*
X171830480Y-136527540D02*
X171830480Y-135765540D01*
X171068480Y-137289540D02*
X171068480Y-135765540D01*
X171703480Y-136527540D02*
X173227480Y-136527540D01*
X167258480Y-136527540D02*
X165861480Y-136527540D01*
G04 #@! TO.C,D8*
X192151520Y-137919460D02*
X193548520Y-137919460D01*
X187706520Y-137919460D02*
X186182520Y-137919460D01*
X188341520Y-137157460D02*
X188341520Y-138681460D01*
X187579520Y-137919460D02*
X187579520Y-138681460D01*
X187579520Y-138681460D02*
X192151520Y-138681460D01*
X192151520Y-138681460D02*
X192151520Y-137157460D01*
X192151520Y-137157460D02*
X187579520Y-137157460D01*
X187579520Y-137157460D02*
X187579520Y-137919460D01*
G04 #@! TO.C,J1*
X170307000Y-47498000D02*
X170307000Y-56388000D01*
X177927000Y-47498000D02*
X170307000Y-47498000D01*
X177927000Y-60198000D02*
X177927000Y-47498000D01*
X176657000Y-60198000D02*
X177927000Y-60198000D01*
X170307000Y-60198000D02*
X172212000Y-60198000D01*
X176022000Y-60198000D02*
X176657000Y-60198000D01*
G04 #@! TO.C,J2*
X167360000Y-92049000D02*
X170460000Y-92049000D01*
X167360000Y-93599000D02*
X167360000Y-92049000D01*
X170180000Y-94869000D02*
X167640000Y-94869000D01*
X170460000Y-92049000D02*
X170460000Y-93599000D01*
X167640000Y-107569000D02*
X167640000Y-94869000D01*
X170180000Y-107569000D02*
X167640000Y-107569000D01*
X170180000Y-94869000D02*
X170180000Y-107569000D01*
D12*
G04 #@! TO.C,LED1*
X158377001Y-72261042D02*
G75*
G03X163977000Y-73902512I3039999J-1958D01*
G01*
X158377001Y-72264958D02*
G75*
G02X163977000Y-70623488I3039999J1958D01*
G01*
X163917000Y-72263000D02*
G75*
G03X163917000Y-72263000I-2500000J0D01*
G01*
X163977000Y-73903000D02*
X163977000Y-70623000D01*
G04 #@! TO.C,LED2*
X162424999Y-129541958D02*
G75*
G03X156825000Y-127900488I-3039999J1958D01*
G01*
X162424999Y-129538042D02*
G75*
G02X156825000Y-131179512I-3039999J-1958D01*
G01*
X161885000Y-129540000D02*
G75*
G03X161885000Y-129540000I-2500000J0D01*
G01*
X156825000Y-127900000D02*
X156825000Y-131180000D01*
G04 #@! TO.C,LED3*
X225795000Y-120757000D02*
X222515000Y-120757000D01*
X226655000Y-123317000D02*
G75*
G03X226655000Y-123317000I-2500000J0D01*
G01*
X224156958Y-126356999D02*
G75*
G02X222515488Y-120757000I-1958J3039999D01*
G01*
X224153042Y-126356999D02*
G75*
G03X225794512Y-120757000I1958J3039999D01*
G01*
G04 #@! TO.C,LED4*
X225795000Y-130917000D02*
X222515000Y-130917000D01*
X226655000Y-133477000D02*
G75*
G03X226655000Y-133477000I-2500000J0D01*
G01*
X224156958Y-136516999D02*
G75*
G02X222515488Y-130917000I-1958J3039999D01*
G01*
X224153042Y-136516999D02*
G75*
G03X225794512Y-130917000I1958J3039999D01*
G01*
G04 #@! TO.C,LED5*
X225795000Y-141077000D02*
X222515000Y-141077000D01*
X226655000Y-143637000D02*
G75*
G03X226655000Y-143637000I-2500000J0D01*
G01*
X224156958Y-146676999D02*
G75*
G02X222515488Y-141077000I-1958J3039999D01*
G01*
X224153042Y-146676999D02*
G75*
G03X225794512Y-141077000I1958J3039999D01*
G01*
G04 #@! TO.C,PLUG1*
X239335000Y-129092000D02*
X241995000Y-129092000D01*
X239335000Y-129032000D02*
X239335000Y-129092000D01*
X241995000Y-129032000D02*
X241995000Y-129092000D01*
X239335000Y-129032000D02*
X241995000Y-129032000D01*
X239335000Y-127762000D02*
X239335000Y-126432000D01*
X239335000Y-126432000D02*
X240665000Y-126432000D01*
G04 #@! TO.C,PLUG2*
X239335000Y-131512000D02*
X240665000Y-131512000D01*
X239335000Y-132842000D02*
X239335000Y-131512000D01*
X239335000Y-134112000D02*
X241995000Y-134112000D01*
X241995000Y-134112000D02*
X241995000Y-134172000D01*
X239335000Y-134112000D02*
X239335000Y-134172000D01*
X239335000Y-134172000D02*
X241995000Y-134172000D01*
D11*
G04 #@! TO.C,POT1*
X174625000Y-137795000D02*
X175260000Y-137795000D01*
X175260000Y-137795000D02*
X175260000Y-146812000D01*
X175260000Y-146812000D02*
X166370000Y-146812000D01*
X166370000Y-146812000D02*
X166370000Y-137795000D01*
X166370000Y-137795000D02*
X167132000Y-137795000D01*
X166370000Y-140462000D02*
X166370000Y-146812000D01*
X175260000Y-140462000D02*
X175260000Y-146812000D01*
X167005000Y-137795000D02*
X174625000Y-137795000D01*
X166751000Y-146812000D02*
X174879000Y-146812000D01*
G04 #@! TO.C,POT2*
X182880000Y-136652000D02*
X191008000Y-136652000D01*
X183134000Y-127635000D02*
X190754000Y-127635000D01*
X191389000Y-130302000D02*
X191389000Y-136652000D01*
X182499000Y-130302000D02*
X182499000Y-136652000D01*
X182499000Y-127635000D02*
X183261000Y-127635000D01*
X182499000Y-136652000D02*
X182499000Y-127635000D01*
X191389000Y-136652000D02*
X182499000Y-136652000D01*
X191389000Y-127635000D02*
X191389000Y-136652000D01*
X190754000Y-127635000D02*
X191389000Y-127635000D01*
D12*
G04 #@! TO.C,Q1*
X228666522Y-120208522D02*
G75*
G03X230505000Y-124647000I1838478J-1838478D01*
G01*
X232343478Y-120208522D02*
G75*
G02X230505000Y-124647000I-1838478J-1838478D01*
G01*
X232305000Y-120197000D02*
X228705000Y-120197000D01*
G04 #@! TO.C,Q2*
X232305000Y-130357000D02*
X228705000Y-130357000D01*
X232343478Y-130368522D02*
G75*
G02X230505000Y-134807000I-1838478J-1838478D01*
G01*
X228666522Y-130368522D02*
G75*
G03X230505000Y-134807000I1838478J-1838478D01*
G01*
G04 #@! TO.C,Q3*
X228666522Y-140528522D02*
G75*
G03X230505000Y-144967000I1838478J-1838478D01*
G01*
X232343478Y-140528522D02*
G75*
G02X230505000Y-144967000I-1838478J-1838478D01*
G01*
X232305000Y-140517000D02*
X228705000Y-140517000D01*
G04 #@! TO.C,Q4*
X175840000Y-134515000D02*
X175840000Y-130915000D01*
X175828478Y-134553478D02*
G75*
G02X171390000Y-132715000I-1838478J1838478D01*
G01*
X175828478Y-130876522D02*
G75*
G03X171390000Y-132715000I-1838478J-1838478D01*
G01*
G04 #@! TO.C,R1*
X160790000Y-67519000D02*
X161790000Y-67519000D01*
X161790000Y-68879000D02*
X160790000Y-68879000D01*
G04 #@! TO.C,R2*
X165436000Y-95115000D02*
X165436000Y-94115000D01*
X166796000Y-94115000D02*
X166796000Y-95115000D01*
G04 #@! TO.C,R4*
X162896000Y-128897000D02*
X162896000Y-127897000D01*
X164256000Y-127897000D02*
X164256000Y-128897000D01*
G04 #@! TO.C,R8*
X229075000Y-118827000D02*
X230075000Y-118827000D01*
X230075000Y-120187000D02*
X229075000Y-120187000D01*
G04 #@! TO.C,R12*
X229075000Y-128987000D02*
X230075000Y-128987000D01*
X230075000Y-130347000D02*
X229075000Y-130347000D01*
G04 #@! TO.C,R16*
X229116000Y-139147000D02*
X230116000Y-139147000D01*
X230116000Y-140507000D02*
X229116000Y-140507000D01*
G04 #@! TO.C,R19*
X208325000Y-70450000D02*
X208325000Y-71450000D01*
X206965000Y-71450000D02*
X206965000Y-70450000D01*
G04 #@! TO.C,R20*
X209505000Y-71450000D02*
X209505000Y-70450000D01*
X210865000Y-70450000D02*
X210865000Y-71450000D01*
G04 #@! TO.C,R21*
X206965000Y-79410000D02*
X206965000Y-78410000D01*
X208325000Y-78410000D02*
X208325000Y-79410000D01*
G04 #@! TO.C,R22*
X203245000Y-78410000D02*
X203245000Y-79410000D01*
X201885000Y-79410000D02*
X201885000Y-78410000D01*
G04 #@! TO.C,R23*
X200705000Y-78410000D02*
X200705000Y-79410000D01*
X199345000Y-79410000D02*
X199345000Y-78410000D01*
G04 #@! TO.C,R24*
X201885000Y-71450000D02*
X201885000Y-70450000D01*
X203245000Y-70450000D02*
X203245000Y-71450000D01*
G04 #@! TO.C,R25*
X200705000Y-70450000D02*
X200705000Y-71450000D01*
X199345000Y-71450000D02*
X199345000Y-70450000D01*
G04 #@! TO.C,R26*
X219665000Y-71450000D02*
X219665000Y-70450000D01*
X221025000Y-70450000D02*
X221025000Y-71450000D01*
G04 #@! TO.C,R27*
X223565000Y-70450000D02*
X223565000Y-71450000D01*
X222205000Y-71450000D02*
X222205000Y-70450000D01*
G04 #@! TO.C,R28*
X221025000Y-78410000D02*
X221025000Y-79410000D01*
X219665000Y-79410000D02*
X219665000Y-78410000D01*
G04 #@! TO.C,R29*
X214585000Y-79410000D02*
X214585000Y-78410000D01*
X215945000Y-78410000D02*
X215945000Y-79410000D01*
G04 #@! TO.C,R30*
X213405000Y-78410000D02*
X213405000Y-79410000D01*
X212045000Y-79410000D02*
X212045000Y-78410000D01*
G04 #@! TO.C,R31*
X215945000Y-70450000D02*
X215945000Y-71450000D01*
X214585000Y-71450000D02*
X214585000Y-70450000D01*
G04 #@! TO.C,R32*
X212045000Y-71450000D02*
X212045000Y-70450000D01*
X213405000Y-70450000D02*
X213405000Y-71450000D01*
G04 #@! TO.C,R33*
X232365000Y-71450000D02*
X232365000Y-70450000D01*
X233725000Y-70450000D02*
X233725000Y-71450000D01*
G04 #@! TO.C,R34*
X236265000Y-70450000D02*
X236265000Y-71450000D01*
X234905000Y-71450000D02*
X234905000Y-70450000D01*
G04 #@! TO.C,R35*
X233725000Y-78410000D02*
X233725000Y-79410000D01*
X232365000Y-79410000D02*
X232365000Y-78410000D01*
G04 #@! TO.C,R36*
X227285000Y-79410000D02*
X227285000Y-78410000D01*
X228645000Y-78410000D02*
X228645000Y-79410000D01*
G04 #@! TO.C,R37*
X226105000Y-78410000D02*
X226105000Y-79410000D01*
X224745000Y-79410000D02*
X224745000Y-78410000D01*
G04 #@! TO.C,R38*
X227285000Y-71450000D02*
X227285000Y-70450000D01*
X228645000Y-70450000D02*
X228645000Y-71450000D01*
G04 #@! TO.C,R39*
X226105000Y-70450000D02*
X226105000Y-71450000D01*
X224745000Y-71450000D02*
X224745000Y-70450000D01*
G04 #@! TO.C,R40*
X245065000Y-71450000D02*
X245065000Y-70450000D01*
X246425000Y-70450000D02*
X246425000Y-71450000D01*
G04 #@! TO.C,R41*
X248965000Y-70450000D02*
X248965000Y-71450000D01*
X247605000Y-71450000D02*
X247605000Y-70450000D01*
G04 #@! TO.C,R42*
X246425000Y-78410000D02*
X246425000Y-79410000D01*
X245065000Y-79410000D02*
X245065000Y-78410000D01*
G04 #@! TO.C,R43*
X239985000Y-79410000D02*
X239985000Y-78410000D01*
X241345000Y-78410000D02*
X241345000Y-79410000D01*
G04 #@! TO.C,R44*
X238805000Y-78410000D02*
X238805000Y-79410000D01*
X237445000Y-79410000D02*
X237445000Y-78410000D01*
G04 #@! TO.C,R45*
X241345000Y-70450000D02*
X241345000Y-71450000D01*
X239985000Y-71450000D02*
X239985000Y-70450000D01*
G04 #@! TO.C,R46*
X238805000Y-70450000D02*
X238805000Y-71450000D01*
X237445000Y-71450000D02*
X237445000Y-70450000D01*
G04 #@! TO.C,R47*
X208325000Y-105375000D02*
X208325000Y-106375000D01*
X206965000Y-106375000D02*
X206965000Y-105375000D01*
G04 #@! TO.C,R48*
X210865000Y-105375000D02*
X210865000Y-106375000D01*
X209505000Y-106375000D02*
X209505000Y-105375000D01*
G04 #@! TO.C,R49*
X208325000Y-113335000D02*
X208325000Y-114335000D01*
X206965000Y-114335000D02*
X206965000Y-113335000D01*
G04 #@! TO.C,R50*
X201885000Y-114335000D02*
X201885000Y-113335000D01*
X203245000Y-113335000D02*
X203245000Y-114335000D01*
G04 #@! TO.C,R51*
X199345000Y-114335000D02*
X199345000Y-113335000D01*
X200705000Y-113335000D02*
X200705000Y-114335000D01*
G04 #@! TO.C,R52*
X203245000Y-105375000D02*
X203245000Y-106375000D01*
X201885000Y-106375000D02*
X201885000Y-105375000D01*
G04 #@! TO.C,R53*
X199345000Y-106375000D02*
X199345000Y-105375000D01*
X200705000Y-105375000D02*
X200705000Y-106375000D01*
G04 #@! TO.C,R54*
X219665000Y-106375000D02*
X219665000Y-105375000D01*
X221025000Y-105375000D02*
X221025000Y-106375000D01*
G04 #@! TO.C,R55*
X223565000Y-105375000D02*
X223565000Y-106375000D01*
X222205000Y-106375000D02*
X222205000Y-105375000D01*
G04 #@! TO.C,R56*
X219665000Y-114335000D02*
X219665000Y-113335000D01*
X221025000Y-113335000D02*
X221025000Y-114335000D01*
G04 #@! TO.C,R57*
X214585000Y-114335000D02*
X214585000Y-113335000D01*
X215945000Y-113335000D02*
X215945000Y-114335000D01*
G04 #@! TO.C,R58*
X213405000Y-113335000D02*
X213405000Y-114335000D01*
X212045000Y-114335000D02*
X212045000Y-113335000D01*
G04 #@! TO.C,R59*
X215945000Y-105375000D02*
X215945000Y-106375000D01*
X214585000Y-106375000D02*
X214585000Y-105375000D01*
G04 #@! TO.C,R60*
X213405000Y-105375000D02*
X213405000Y-106375000D01*
X212045000Y-106375000D02*
X212045000Y-105375000D01*
G04 #@! TO.C,R61*
X233725000Y-105375000D02*
X233725000Y-106375000D01*
X232365000Y-106375000D02*
X232365000Y-105375000D01*
G04 #@! TO.C,R62*
X234905000Y-106375000D02*
X234905000Y-105375000D01*
X236265000Y-105375000D02*
X236265000Y-106375000D01*
G04 #@! TO.C,R63*
X232365000Y-114335000D02*
X232365000Y-113335000D01*
X233725000Y-113335000D02*
X233725000Y-114335000D01*
G04 #@! TO.C,R64*
X228645000Y-113335000D02*
X228645000Y-114335000D01*
X227285000Y-114335000D02*
X227285000Y-113335000D01*
G04 #@! TO.C,R65*
X224745000Y-114335000D02*
X224745000Y-113335000D01*
X226105000Y-113335000D02*
X226105000Y-114335000D01*
G04 #@! TO.C,R66*
X227285000Y-106375000D02*
X227285000Y-105375000D01*
X228645000Y-105375000D02*
X228645000Y-106375000D01*
G04 #@! TO.C,R67*
X226105000Y-105375000D02*
X226105000Y-106375000D01*
X224745000Y-106375000D02*
X224745000Y-105375000D01*
G04 #@! TO.C,R68*
X246425000Y-105375000D02*
X246425000Y-106375000D01*
X245065000Y-106375000D02*
X245065000Y-105375000D01*
G04 #@! TO.C,R69*
X247605000Y-106375000D02*
X247605000Y-105375000D01*
X248965000Y-105375000D02*
X248965000Y-106375000D01*
G04 #@! TO.C,R70*
X245065000Y-114335000D02*
X245065000Y-113335000D01*
X246425000Y-113335000D02*
X246425000Y-114335000D01*
G04 #@! TO.C,R71*
X239985000Y-114335000D02*
X239985000Y-113335000D01*
X241345000Y-113335000D02*
X241345000Y-114335000D01*
G04 #@! TO.C,R72*
X238805000Y-113335000D02*
X238805000Y-114335000D01*
X237445000Y-114335000D02*
X237445000Y-113335000D01*
G04 #@! TO.C,R73*
X241345000Y-105375000D02*
X241345000Y-106375000D01*
X239985000Y-106375000D02*
X239985000Y-105375000D01*
G04 #@! TO.C,R74*
X238805000Y-105375000D02*
X238805000Y-106375000D01*
X237445000Y-106375000D02*
X237445000Y-105375000D01*
G04 #@! TO.C,R75*
X210865000Y-85690000D02*
X210865000Y-86690000D01*
X209505000Y-86690000D02*
X209505000Y-85690000D01*
G04 #@! TO.C,R76*
X222205000Y-86690000D02*
X222205000Y-85690000D01*
X223565000Y-85690000D02*
X223565000Y-86690000D01*
G04 #@! TO.C,R77*
X236265000Y-85690000D02*
X236265000Y-86690000D01*
X234905000Y-86690000D02*
X234905000Y-85690000D01*
G04 #@! TO.C,R78*
X247605000Y-86690000D02*
X247605000Y-85690000D01*
X248965000Y-85690000D02*
X248965000Y-86690000D01*
G04 #@! TO.C,R79*
X209505000Y-114335000D02*
X209505000Y-113335000D01*
X210865000Y-113335000D02*
X210865000Y-114335000D01*
G04 #@! TO.C,R80*
X223565000Y-113335000D02*
X223565000Y-114335000D01*
X222205000Y-114335000D02*
X222205000Y-113335000D01*
G04 #@! TO.C,R81*
X236265000Y-113335000D02*
X236265000Y-114335000D01*
X234905000Y-114335000D02*
X234905000Y-113335000D01*
G04 #@! TO.C,R82*
X247605000Y-114335000D02*
X247605000Y-113335000D01*
X248965000Y-113335000D02*
X248965000Y-114335000D01*
G04 #@! TO.C,R83*
X181401000Y-127219000D02*
X181401000Y-128219000D01*
X180041000Y-128219000D02*
X180041000Y-127219000D01*
G04 #@! TO.C,R84*
X180385000Y-123241000D02*
X180385000Y-124241000D01*
X179025000Y-124241000D02*
X179025000Y-123241000D01*
G04 #@! TO.C,R87*
X179025000Y-132410000D02*
X179025000Y-131410000D01*
X180385000Y-131410000D02*
X180385000Y-132410000D01*
G04 #@! TO.C,R88*
X180930000Y-132410000D02*
X180930000Y-131410000D01*
X182290000Y-131410000D02*
X182290000Y-132410000D01*
G04 #@! TO.C,R89*
X172294000Y-127924000D02*
X172294000Y-126924000D01*
X173654000Y-126924000D02*
X173654000Y-127924000D01*
D11*
G04 #@! TO.C,RLY1*
X203962000Y-127635000D02*
X203708000Y-127635000D01*
X206502000Y-127635000D02*
X206248000Y-127635000D01*
X209042000Y-127635000D02*
X208788000Y-127635000D01*
X211582000Y-127635000D02*
X211328000Y-127635000D01*
X214122000Y-127635000D02*
X213868000Y-127635000D01*
X216662000Y-127635000D02*
X216408000Y-127635000D01*
X218948000Y-127635000D02*
X220091000Y-127635000D01*
X218948000Y-120269000D02*
X220091000Y-120269000D01*
X216408000Y-120269000D02*
X216662000Y-120269000D01*
X213868000Y-120269000D02*
X214122000Y-120269000D01*
X211328000Y-120269000D02*
X211582000Y-120269000D01*
X208788000Y-120269000D02*
X209042000Y-120269000D01*
X206248000Y-120269000D02*
X206502000Y-120269000D01*
X203708000Y-120269000D02*
X203962000Y-120269000D01*
X201168000Y-127635000D02*
X201422000Y-127635000D01*
X198882000Y-127635000D02*
X197739000Y-127635000D01*
X198882000Y-120269000D02*
X197739000Y-120269000D01*
X201168000Y-120269000D02*
X201422000Y-120269000D01*
X197739000Y-123063000D02*
X197739000Y-120269000D01*
X197739000Y-127635000D02*
X197739000Y-124841000D01*
X197739000Y-124841000D02*
G75*
G03X197739000Y-123063000I0J889000D01*
G01*
X220100000Y-127627000D02*
X220100000Y-120277000D01*
G04 #@! TO.C,RLY2*
X220100000Y-137787000D02*
X220100000Y-130437000D01*
X197739000Y-135001000D02*
G75*
G03X197739000Y-133223000I0J889000D01*
G01*
X197739000Y-137795000D02*
X197739000Y-135001000D01*
X197739000Y-133223000D02*
X197739000Y-130429000D01*
X201168000Y-130429000D02*
X201422000Y-130429000D01*
X198882000Y-130429000D02*
X197739000Y-130429000D01*
X198882000Y-137795000D02*
X197739000Y-137795000D01*
X201168000Y-137795000D02*
X201422000Y-137795000D01*
X203708000Y-130429000D02*
X203962000Y-130429000D01*
X206248000Y-130429000D02*
X206502000Y-130429000D01*
X208788000Y-130429000D02*
X209042000Y-130429000D01*
X211328000Y-130429000D02*
X211582000Y-130429000D01*
X213868000Y-130429000D02*
X214122000Y-130429000D01*
X216408000Y-130429000D02*
X216662000Y-130429000D01*
X218948000Y-130429000D02*
X220091000Y-130429000D01*
X218948000Y-137795000D02*
X220091000Y-137795000D01*
X216662000Y-137795000D02*
X216408000Y-137795000D01*
X214122000Y-137795000D02*
X213868000Y-137795000D01*
X211582000Y-137795000D02*
X211328000Y-137795000D01*
X209042000Y-137795000D02*
X208788000Y-137795000D01*
X206502000Y-137795000D02*
X206248000Y-137795000D01*
X203962000Y-137795000D02*
X203708000Y-137795000D01*
G04 #@! TO.C,RLY3*
X203962000Y-147955000D02*
X203708000Y-147955000D01*
X206502000Y-147955000D02*
X206248000Y-147955000D01*
X209042000Y-147955000D02*
X208788000Y-147955000D01*
X211582000Y-147955000D02*
X211328000Y-147955000D01*
X214122000Y-147955000D02*
X213868000Y-147955000D01*
X216662000Y-147955000D02*
X216408000Y-147955000D01*
X218948000Y-147955000D02*
X220091000Y-147955000D01*
X218948000Y-140589000D02*
X220091000Y-140589000D01*
X216408000Y-140589000D02*
X216662000Y-140589000D01*
X213868000Y-140589000D02*
X214122000Y-140589000D01*
X211328000Y-140589000D02*
X211582000Y-140589000D01*
X208788000Y-140589000D02*
X209042000Y-140589000D01*
X206248000Y-140589000D02*
X206502000Y-140589000D01*
X203708000Y-140589000D02*
X203962000Y-140589000D01*
X201168000Y-147955000D02*
X201422000Y-147955000D01*
X198882000Y-147955000D02*
X197739000Y-147955000D01*
X198882000Y-140589000D02*
X197739000Y-140589000D01*
X201168000Y-140589000D02*
X201422000Y-140589000D01*
X197739000Y-143383000D02*
X197739000Y-140589000D01*
X197739000Y-147955000D02*
X197739000Y-145161000D01*
X197739000Y-145161000D02*
G75*
G03X197739000Y-143383000I0J889000D01*
G01*
X220100000Y-147947000D02*
X220100000Y-140597000D01*
G04 #@! TO.C,SW1*
X156185000Y-137240000D02*
X162585000Y-137240000D01*
X156205839Y-137226724D02*
G75*
G03X162585000Y-137240000I3179161J-5013276D01*
G01*
G04 #@! TO.C,SW2*
X194945000Y-134112000D02*
X194945000Y-126492000D01*
X192405000Y-134112000D02*
X194945000Y-134112000D01*
X192405000Y-126492000D02*
X192405000Y-134112000D01*
X194945000Y-126492000D02*
X192405000Y-126492000D01*
G04 #@! TO.C,U1*
X177165000Y-69723000D02*
X177165000Y-75057000D01*
X177165000Y-69723000D02*
X177165000Y-64389000D01*
X176022000Y-64389000D02*
X177165000Y-64389000D01*
X176022000Y-75057000D02*
X176022000Y-64389000D01*
X177165000Y-75057000D02*
X176022000Y-75057000D01*
X172339000Y-64389000D02*
X176022000Y-64389000D01*
X172339000Y-75057000D02*
X172339000Y-64389000D01*
X176022000Y-75057000D02*
X172339000Y-75057000D01*
X177165000Y-71247000D02*
X176022000Y-71247000D01*
X177165000Y-68199000D02*
X176022000Y-68199000D01*
G04 #@! TO.C,U3*
X181356000Y-122174000D02*
X187960000Y-122174000D01*
X187960000Y-114427000D02*
X187960000Y-114681000D01*
X187960000Y-116967000D02*
X187960000Y-117221000D01*
X187960000Y-119507000D02*
X187960000Y-119761000D01*
X187960000Y-122174000D02*
X187960000Y-122047000D01*
X187960000Y-112014000D02*
X187960000Y-112141000D01*
X181356000Y-112014000D02*
X181356000Y-112141000D01*
X181356000Y-114427000D02*
X181356000Y-114681000D01*
X181356000Y-116967000D02*
X181356000Y-117221000D01*
X181356000Y-119507000D02*
X181356000Y-119761000D01*
X181356000Y-122174000D02*
X181356000Y-122047000D01*
X184658000Y-112903000D02*
G75*
G03X185547000Y-112014000I0J889000D01*
G01*
X183769000Y-112014000D02*
G75*
G03X184658000Y-112903000I889000J0D01*
G01*
X185547000Y-112014000D02*
X187960000Y-112014000D01*
X183769000Y-112014000D02*
X181356000Y-112014000D01*
G04 #@! TO.C,U4*
X182060000Y-103124000D02*
X183435000Y-103124000D01*
X174810000Y-103574000D02*
X175335000Y-103574000D01*
X174810000Y-96324000D02*
X175335000Y-96324000D01*
X182060000Y-96324000D02*
X181535000Y-96324000D01*
X182060000Y-103574000D02*
X181535000Y-103574000D01*
X182060000Y-96324000D02*
X182060000Y-96849000D01*
X174810000Y-96324000D02*
X174810000Y-96849000D01*
X174810000Y-103574000D02*
X174810000Y-103049000D01*
X182060000Y-103574000D02*
X182060000Y-103124000D01*
G04 #@! TO.C,U24*
X179425000Y-135470000D02*
X179325000Y-135470000D01*
X179425000Y-140120000D02*
X179225000Y-140120000D01*
X176175000Y-140120000D02*
X176375000Y-140120000D01*
X176175000Y-135470000D02*
X176375000Y-135470000D01*
X179425000Y-135470000D02*
X179425000Y-140120000D01*
X176175000Y-135470000D02*
X176175000Y-140120000D01*
X179325000Y-135470000D02*
X179325000Y-134120000D01*
G04 #@! TO.C,U25*
X182779000Y-145073000D02*
X182879000Y-145073000D01*
X182779000Y-140423000D02*
X182979000Y-140423000D01*
X186029000Y-140423000D02*
X185829000Y-140423000D01*
X186029000Y-145073000D02*
X185829000Y-145073000D01*
X182779000Y-145073000D02*
X182779000Y-140423000D01*
X186029000Y-145073000D02*
X186029000Y-140423000D01*
X182879000Y-145073000D02*
X182879000Y-146423000D01*
G04 #@! TO.C,U9*
X233304000Y-58504000D02*
X233279000Y-58504000D01*
X233304000Y-62654000D02*
X233189000Y-62654000D01*
X224404000Y-62654000D02*
X224519000Y-62654000D01*
X224404000Y-58504000D02*
X224519000Y-58504000D01*
X233304000Y-58504000D02*
X233304000Y-62654000D01*
X224404000Y-58504000D02*
X224404000Y-62654000D01*
X233279000Y-58504000D02*
X233279000Y-57129000D01*
G04 #@! TO.C,U13*
X207879000Y-93429000D02*
X207879000Y-92054000D01*
X199004000Y-93429000D02*
X199004000Y-97579000D01*
X207904000Y-93429000D02*
X207904000Y-97579000D01*
X199004000Y-93429000D02*
X199119000Y-93429000D01*
X199004000Y-97579000D02*
X199119000Y-97579000D01*
X207904000Y-97579000D02*
X207789000Y-97579000D01*
X207904000Y-93429000D02*
X207879000Y-93429000D01*
G04 #@! TO.C,U17*
X233279000Y-93429000D02*
X233279000Y-92054000D01*
X224404000Y-93429000D02*
X224404000Y-97579000D01*
X233304000Y-93429000D02*
X233304000Y-97579000D01*
X224404000Y-93429000D02*
X224519000Y-93429000D01*
X224404000Y-97579000D02*
X224519000Y-97579000D01*
X233304000Y-97579000D02*
X233189000Y-97579000D01*
X233304000Y-93429000D02*
X233279000Y-93429000D01*
G04 #@! TO.C,U22*
X239247000Y-99254000D02*
X239247000Y-93279000D01*
X246147000Y-97729000D02*
X246147000Y-93279000D01*
G04 #@! TO.C,SEG1*
X211455000Y-84455000D02*
X211455000Y-65405000D01*
X198755000Y-84455000D02*
X211455000Y-84455000D01*
X198755000Y-65405000D02*
X198755000Y-84455000D01*
X211455000Y-65405000D02*
X198755000Y-65405000D01*
G04 #@! TO.C,SEG2*
X224155000Y-84455000D02*
X224155000Y-65405000D01*
X211455000Y-84455000D02*
X224155000Y-84455000D01*
X211455000Y-65405000D02*
X211455000Y-84455000D01*
X224155000Y-65405000D02*
X211455000Y-65405000D01*
G04 #@! TO.C,SEG3*
X236855000Y-65405000D02*
X224155000Y-65405000D01*
X224155000Y-65405000D02*
X224155000Y-84455000D01*
X224155000Y-84455000D02*
X236855000Y-84455000D01*
X236855000Y-84455000D02*
X236855000Y-65405000D01*
G04 #@! TO.C,SEG5*
X211455000Y-100330000D02*
X198755000Y-100330000D01*
X198755000Y-100330000D02*
X198755000Y-119380000D01*
X198755000Y-119380000D02*
X211455000Y-119380000D01*
X211455000Y-119380000D02*
X211455000Y-100330000D01*
G04 #@! TO.C,SEG6*
X224155000Y-119380000D02*
X224155000Y-100330000D01*
X211455000Y-119380000D02*
X224155000Y-119380000D01*
X211455000Y-100330000D02*
X211455000Y-119380000D01*
X224155000Y-100330000D02*
X211455000Y-100330000D01*
G04 #@! TO.C,SEG7*
X236849001Y-100330000D02*
X224149001Y-100330000D01*
X224149001Y-100330000D02*
X224149001Y-119380000D01*
X224149001Y-119380000D02*
X236849001Y-119380000D01*
X236849001Y-119380000D02*
X236849001Y-100330000D01*
G04 #@! TO.C,SEG4*
X249555000Y-65405000D02*
X236855000Y-65405000D01*
X236855000Y-65405000D02*
X236855000Y-84455000D01*
X236855000Y-84455000D02*
X249555000Y-84455000D01*
X249555000Y-84455000D02*
X249555000Y-65405000D01*
G04 #@! TO.C,SEG8*
X249555000Y-119380000D02*
X249555000Y-100330000D01*
X236855000Y-119380000D02*
X249555000Y-119380000D01*
X236855000Y-100330000D02*
X236855000Y-119380000D01*
X249555000Y-100330000D02*
X236855000Y-100330000D01*
G04 #@! TO.C,U26*
X190785904Y-143089380D02*
X190785904Y-143898904D01*
X190833523Y-143994142D01*
X190881142Y-144041761D01*
X190976380Y-144089380D01*
X191166857Y-144089380D01*
X191262095Y-144041761D01*
X191309714Y-143994142D01*
X191357333Y-143898904D01*
X191357333Y-143089380D01*
X191785904Y-143184619D02*
X191833523Y-143137000D01*
X191928761Y-143089380D01*
X192166857Y-143089380D01*
X192262095Y-143137000D01*
X192309714Y-143184619D01*
X192357333Y-143279857D01*
X192357333Y-143375095D01*
X192309714Y-143517952D01*
X191738285Y-144089380D01*
X192357333Y-144089380D01*
X193214476Y-143089380D02*
X193024000Y-143089380D01*
X192928761Y-143137000D01*
X192881142Y-143184619D01*
X192785904Y-143327476D01*
X192738285Y-143517952D01*
X192738285Y-143898904D01*
X192785904Y-143994142D01*
X192833523Y-144041761D01*
X192928761Y-144089380D01*
X193119238Y-144089380D01*
X193214476Y-144041761D01*
X193262095Y-143994142D01*
X193309714Y-143898904D01*
X193309714Y-143660809D01*
X193262095Y-143565571D01*
X193214476Y-143517952D01*
X193119238Y-143470333D01*
X192928761Y-143470333D01*
X192833523Y-143517952D01*
X192785904Y-143565571D01*
X192738285Y-143660809D01*
G04 #@! TO.C,U5*
X208281380Y-61467904D02*
X209090904Y-61467904D01*
X209186142Y-61420285D01*
X209233761Y-61372666D01*
X209281380Y-61277428D01*
X209281380Y-61086952D01*
X209233761Y-60991714D01*
X209186142Y-60944095D01*
X209090904Y-60896476D01*
X208281380Y-60896476D01*
X208281380Y-59944095D02*
X208281380Y-60420285D01*
X208757571Y-60467904D01*
X208709952Y-60420285D01*
X208662333Y-60325047D01*
X208662333Y-60086952D01*
X208709952Y-59991714D01*
X208757571Y-59944095D01*
X208852809Y-59896476D01*
X209090904Y-59896476D01*
X209186142Y-59944095D01*
X209233761Y-59991714D01*
X209281380Y-60086952D01*
X209281380Y-60325047D01*
X209233761Y-60420285D01*
X209186142Y-60467904D01*
G04 #@! TO.C,U2*
X167132095Y-75398380D02*
X167132095Y-76207904D01*
X167179714Y-76303142D01*
X167227333Y-76350761D01*
X167322571Y-76398380D01*
X167513047Y-76398380D01*
X167608285Y-76350761D01*
X167655904Y-76303142D01*
X167703523Y-76207904D01*
X167703523Y-75398380D01*
X168132095Y-75493619D02*
X168179714Y-75446000D01*
X168274952Y-75398380D01*
X168513047Y-75398380D01*
X168608285Y-75446000D01*
X168655904Y-75493619D01*
X168703523Y-75588857D01*
X168703523Y-75684095D01*
X168655904Y-75826952D01*
X168084476Y-76398380D01*
X168703523Y-76398380D01*
G04 #@! TO.C,C6*
X245832333Y-75287142D02*
X245784714Y-75334761D01*
X245641857Y-75382380D01*
X245546619Y-75382380D01*
X245403761Y-75334761D01*
X245308523Y-75239523D01*
X245260904Y-75144285D01*
X245213285Y-74953809D01*
X245213285Y-74810952D01*
X245260904Y-74620476D01*
X245308523Y-74525238D01*
X245403761Y-74430000D01*
X245546619Y-74382380D01*
X245641857Y-74382380D01*
X245784714Y-74430000D01*
X245832333Y-74477619D01*
X246689476Y-74382380D02*
X246499000Y-74382380D01*
X246403761Y-74430000D01*
X246356142Y-74477619D01*
X246260904Y-74620476D01*
X246213285Y-74810952D01*
X246213285Y-75191904D01*
X246260904Y-75287142D01*
X246308523Y-75334761D01*
X246403761Y-75382380D01*
X246594238Y-75382380D01*
X246689476Y-75334761D01*
X246737095Y-75287142D01*
X246784714Y-75191904D01*
X246784714Y-74953809D01*
X246737095Y-74858571D01*
X246689476Y-74810952D01*
X246594238Y-74763333D01*
X246403761Y-74763333D01*
X246308523Y-74810952D01*
X246260904Y-74858571D01*
X246213285Y-74953809D01*
G04 #@! TO.C,C7*
X233259333Y-75287142D02*
X233211714Y-75334761D01*
X233068857Y-75382380D01*
X232973619Y-75382380D01*
X232830761Y-75334761D01*
X232735523Y-75239523D01*
X232687904Y-75144285D01*
X232640285Y-74953809D01*
X232640285Y-74810952D01*
X232687904Y-74620476D01*
X232735523Y-74525238D01*
X232830761Y-74430000D01*
X232973619Y-74382380D01*
X233068857Y-74382380D01*
X233211714Y-74430000D01*
X233259333Y-74477619D01*
X233592666Y-74382380D02*
X234259333Y-74382380D01*
X233830761Y-75382380D01*
G04 #@! TO.C,C8*
X236754333Y-59940142D02*
X236706714Y-59987761D01*
X236563857Y-60035380D01*
X236468619Y-60035380D01*
X236325761Y-59987761D01*
X236230523Y-59892523D01*
X236182904Y-59797285D01*
X236135285Y-59606809D01*
X236135285Y-59463952D01*
X236182904Y-59273476D01*
X236230523Y-59178238D01*
X236325761Y-59083000D01*
X236468619Y-59035380D01*
X236563857Y-59035380D01*
X236706714Y-59083000D01*
X236754333Y-59130619D01*
X237325761Y-59463952D02*
X237230523Y-59416333D01*
X237182904Y-59368714D01*
X237135285Y-59273476D01*
X237135285Y-59225857D01*
X237182904Y-59130619D01*
X237230523Y-59083000D01*
X237325761Y-59035380D01*
X237516238Y-59035380D01*
X237611476Y-59083000D01*
X237659095Y-59130619D01*
X237706714Y-59225857D01*
X237706714Y-59273476D01*
X237659095Y-59368714D01*
X237611476Y-59416333D01*
X237516238Y-59463952D01*
X237325761Y-59463952D01*
X237230523Y-59511571D01*
X237182904Y-59559190D01*
X237135285Y-59654428D01*
X237135285Y-59844904D01*
X237182904Y-59940142D01*
X237230523Y-59987761D01*
X237325761Y-60035380D01*
X237516238Y-60035380D01*
X237611476Y-59987761D01*
X237659095Y-59940142D01*
X237706714Y-59844904D01*
X237706714Y-59654428D01*
X237659095Y-59559190D01*
X237611476Y-59511571D01*
X237516238Y-59463952D01*
G04 #@! TO.C,C10*
X220591142Y-75287142D02*
X220543523Y-75334761D01*
X220400666Y-75382380D01*
X220305428Y-75382380D01*
X220162571Y-75334761D01*
X220067333Y-75239523D01*
X220019714Y-75144285D01*
X219972095Y-74953809D01*
X219972095Y-74810952D01*
X220019714Y-74620476D01*
X220067333Y-74525238D01*
X220162571Y-74430000D01*
X220305428Y-74382380D01*
X220400666Y-74382380D01*
X220543523Y-74430000D01*
X220591142Y-74477619D01*
X221543523Y-75382380D02*
X220972095Y-75382380D01*
X221257809Y-75382380D02*
X221257809Y-74382380D01*
X221162571Y-74525238D01*
X221067333Y-74620476D01*
X220972095Y-74668095D01*
X222162571Y-74382380D02*
X222257809Y-74382380D01*
X222353047Y-74430000D01*
X222400666Y-74477619D01*
X222448285Y-74572857D01*
X222495904Y-74763333D01*
X222495904Y-75001428D01*
X222448285Y-75191904D01*
X222400666Y-75287142D01*
X222353047Y-75334761D01*
X222257809Y-75382380D01*
X222162571Y-75382380D01*
X222067333Y-75334761D01*
X222019714Y-75287142D01*
X221972095Y-75191904D01*
X221924476Y-75001428D01*
X221924476Y-74763333D01*
X221972095Y-74572857D01*
X222019714Y-74477619D01*
X222067333Y-74430000D01*
X222162571Y-74382380D01*
G04 #@! TO.C,C11*
X207891142Y-75287142D02*
X207843523Y-75334761D01*
X207700666Y-75382380D01*
X207605428Y-75382380D01*
X207462571Y-75334761D01*
X207367333Y-75239523D01*
X207319714Y-75144285D01*
X207272095Y-74953809D01*
X207272095Y-74810952D01*
X207319714Y-74620476D01*
X207367333Y-74525238D01*
X207462571Y-74430000D01*
X207605428Y-74382380D01*
X207700666Y-74382380D01*
X207843523Y-74430000D01*
X207891142Y-74477619D01*
X208843523Y-75382380D02*
X208272095Y-75382380D01*
X208557809Y-75382380D02*
X208557809Y-74382380D01*
X208462571Y-74525238D01*
X208367333Y-74620476D01*
X208272095Y-74668095D01*
X209795904Y-75382380D02*
X209224476Y-75382380D01*
X209510190Y-75382380D02*
X209510190Y-74382380D01*
X209414952Y-74525238D01*
X209319714Y-74620476D01*
X209224476Y-74668095D01*
G04 #@! TO.C,C12*
X210812142Y-59686142D02*
X210764523Y-59733761D01*
X210621666Y-59781380D01*
X210526428Y-59781380D01*
X210383571Y-59733761D01*
X210288333Y-59638523D01*
X210240714Y-59543285D01*
X210193095Y-59352809D01*
X210193095Y-59209952D01*
X210240714Y-59019476D01*
X210288333Y-58924238D01*
X210383571Y-58829000D01*
X210526428Y-58781380D01*
X210621666Y-58781380D01*
X210764523Y-58829000D01*
X210812142Y-58876619D01*
X211764523Y-59781380D02*
X211193095Y-59781380D01*
X211478809Y-59781380D02*
X211478809Y-58781380D01*
X211383571Y-58924238D01*
X211288333Y-59019476D01*
X211193095Y-59067095D01*
X212145476Y-58876619D02*
X212193095Y-58829000D01*
X212288333Y-58781380D01*
X212526428Y-58781380D01*
X212621666Y-58829000D01*
X212669285Y-58876619D01*
X212716904Y-58971857D01*
X212716904Y-59067095D01*
X212669285Y-59209952D01*
X212097857Y-59781380D01*
X212716904Y-59781380D01*
G04 #@! TO.C,C14*
X245864142Y-110212142D02*
X245816523Y-110259761D01*
X245673666Y-110307380D01*
X245578428Y-110307380D01*
X245435571Y-110259761D01*
X245340333Y-110164523D01*
X245292714Y-110069285D01*
X245245095Y-109878809D01*
X245245095Y-109735952D01*
X245292714Y-109545476D01*
X245340333Y-109450238D01*
X245435571Y-109355000D01*
X245578428Y-109307380D01*
X245673666Y-109307380D01*
X245816523Y-109355000D01*
X245864142Y-109402619D01*
X246816523Y-110307380D02*
X246245095Y-110307380D01*
X246530809Y-110307380D02*
X246530809Y-109307380D01*
X246435571Y-109450238D01*
X246340333Y-109545476D01*
X246245095Y-109593095D01*
X247673666Y-109640714D02*
X247673666Y-110307380D01*
X247435571Y-109259761D02*
X247197476Y-109974047D01*
X247816523Y-109974047D01*
G04 #@! TO.C,C15*
X233227642Y-110212142D02*
X233180023Y-110259761D01*
X233037166Y-110307380D01*
X232941928Y-110307380D01*
X232799071Y-110259761D01*
X232703833Y-110164523D01*
X232656214Y-110069285D01*
X232608595Y-109878809D01*
X232608595Y-109735952D01*
X232656214Y-109545476D01*
X232703833Y-109450238D01*
X232799071Y-109355000D01*
X232941928Y-109307380D01*
X233037166Y-109307380D01*
X233180023Y-109355000D01*
X233227642Y-109402619D01*
X234180023Y-110307380D02*
X233608595Y-110307380D01*
X233894309Y-110307380D02*
X233894309Y-109307380D01*
X233799071Y-109450238D01*
X233703833Y-109545476D01*
X233608595Y-109593095D01*
X235084785Y-109307380D02*
X234608595Y-109307380D01*
X234560976Y-109783571D01*
X234608595Y-109735952D01*
X234703833Y-109688333D01*
X234941928Y-109688333D01*
X235037166Y-109735952D01*
X235084785Y-109783571D01*
X235132404Y-109878809D01*
X235132404Y-110116904D01*
X235084785Y-110212142D01*
X235037166Y-110259761D01*
X234941928Y-110307380D01*
X234703833Y-110307380D01*
X234608595Y-110259761D01*
X234560976Y-110212142D01*
G04 #@! TO.C,C16*
X235894642Y-94547642D02*
X235847023Y-94595261D01*
X235704166Y-94642880D01*
X235608928Y-94642880D01*
X235466071Y-94595261D01*
X235370833Y-94500023D01*
X235323214Y-94404785D01*
X235275595Y-94214309D01*
X235275595Y-94071452D01*
X235323214Y-93880976D01*
X235370833Y-93785738D01*
X235466071Y-93690500D01*
X235608928Y-93642880D01*
X235704166Y-93642880D01*
X235847023Y-93690500D01*
X235894642Y-93738119D01*
X236847023Y-94642880D02*
X236275595Y-94642880D01*
X236561309Y-94642880D02*
X236561309Y-93642880D01*
X236466071Y-93785738D01*
X236370833Y-93880976D01*
X236275595Y-93928595D01*
X237704166Y-93642880D02*
X237513690Y-93642880D01*
X237418452Y-93690500D01*
X237370833Y-93738119D01*
X237275595Y-93880976D01*
X237227976Y-94071452D01*
X237227976Y-94452404D01*
X237275595Y-94547642D01*
X237323214Y-94595261D01*
X237418452Y-94642880D01*
X237608928Y-94642880D01*
X237704166Y-94595261D01*
X237751785Y-94547642D01*
X237799404Y-94452404D01*
X237799404Y-94214309D01*
X237751785Y-94119071D01*
X237704166Y-94071452D01*
X237608928Y-94023833D01*
X237418452Y-94023833D01*
X237323214Y-94071452D01*
X237275595Y-94119071D01*
X237227976Y-94214309D01*
G04 #@! TO.C,C18*
X210812142Y-94611142D02*
X210764523Y-94658761D01*
X210621666Y-94706380D01*
X210526428Y-94706380D01*
X210383571Y-94658761D01*
X210288333Y-94563523D01*
X210240714Y-94468285D01*
X210193095Y-94277809D01*
X210193095Y-94134952D01*
X210240714Y-93944476D01*
X210288333Y-93849238D01*
X210383571Y-93754000D01*
X210526428Y-93706380D01*
X210621666Y-93706380D01*
X210764523Y-93754000D01*
X210812142Y-93801619D01*
X211764523Y-94706380D02*
X211193095Y-94706380D01*
X211478809Y-94706380D02*
X211478809Y-93706380D01*
X211383571Y-93849238D01*
X211288333Y-93944476D01*
X211193095Y-93992095D01*
X212335952Y-94134952D02*
X212240714Y-94087333D01*
X212193095Y-94039714D01*
X212145476Y-93944476D01*
X212145476Y-93896857D01*
X212193095Y-93801619D01*
X212240714Y-93754000D01*
X212335952Y-93706380D01*
X212526428Y-93706380D01*
X212621666Y-93754000D01*
X212669285Y-93801619D01*
X212716904Y-93896857D01*
X212716904Y-93944476D01*
X212669285Y-94039714D01*
X212621666Y-94087333D01*
X212526428Y-94134952D01*
X212335952Y-94134952D01*
X212240714Y-94182571D01*
X212193095Y-94230190D01*
X212145476Y-94325428D01*
X212145476Y-94515904D01*
X212193095Y-94611142D01*
X212240714Y-94658761D01*
X212335952Y-94706380D01*
X212526428Y-94706380D01*
X212621666Y-94658761D01*
X212669285Y-94611142D01*
X212716904Y-94515904D01*
X212716904Y-94325428D01*
X212669285Y-94230190D01*
X212621666Y-94182571D01*
X212526428Y-94134952D01*
G04 #@! TO.C,C19*
X207891142Y-110212142D02*
X207843523Y-110259761D01*
X207700666Y-110307380D01*
X207605428Y-110307380D01*
X207462571Y-110259761D01*
X207367333Y-110164523D01*
X207319714Y-110069285D01*
X207272095Y-109878809D01*
X207272095Y-109735952D01*
X207319714Y-109545476D01*
X207367333Y-109450238D01*
X207462571Y-109355000D01*
X207605428Y-109307380D01*
X207700666Y-109307380D01*
X207843523Y-109355000D01*
X207891142Y-109402619D01*
X208843523Y-110307380D02*
X208272095Y-110307380D01*
X208557809Y-110307380D02*
X208557809Y-109307380D01*
X208462571Y-109450238D01*
X208367333Y-109545476D01*
X208272095Y-109593095D01*
X209319714Y-110307380D02*
X209510190Y-110307380D01*
X209605428Y-110259761D01*
X209653047Y-110212142D01*
X209748285Y-110069285D01*
X209795904Y-109878809D01*
X209795904Y-109497857D01*
X209748285Y-109402619D01*
X209700666Y-109355000D01*
X209605428Y-109307380D01*
X209414952Y-109307380D01*
X209319714Y-109355000D01*
X209272095Y-109402619D01*
X209224476Y-109497857D01*
X209224476Y-109735952D01*
X209272095Y-109831190D01*
X209319714Y-109878809D01*
X209414952Y-109926428D01*
X209605428Y-109926428D01*
X209700666Y-109878809D01*
X209748285Y-109831190D01*
X209795904Y-109735952D01*
G04 #@! TO.C,C20*
X220591142Y-110212142D02*
X220543523Y-110259761D01*
X220400666Y-110307380D01*
X220305428Y-110307380D01*
X220162571Y-110259761D01*
X220067333Y-110164523D01*
X220019714Y-110069285D01*
X219972095Y-109878809D01*
X219972095Y-109735952D01*
X220019714Y-109545476D01*
X220067333Y-109450238D01*
X220162571Y-109355000D01*
X220305428Y-109307380D01*
X220400666Y-109307380D01*
X220543523Y-109355000D01*
X220591142Y-109402619D01*
X220972095Y-109402619D02*
X221019714Y-109355000D01*
X221114952Y-109307380D01*
X221353047Y-109307380D01*
X221448285Y-109355000D01*
X221495904Y-109402619D01*
X221543523Y-109497857D01*
X221543523Y-109593095D01*
X221495904Y-109735952D01*
X220924476Y-110307380D01*
X221543523Y-110307380D01*
X222162571Y-109307380D02*
X222257809Y-109307380D01*
X222353047Y-109355000D01*
X222400666Y-109402619D01*
X222448285Y-109497857D01*
X222495904Y-109688333D01*
X222495904Y-109926428D01*
X222448285Y-110116904D01*
X222400666Y-110212142D01*
X222353047Y-110259761D01*
X222257809Y-110307380D01*
X222162571Y-110307380D01*
X222067333Y-110259761D01*
X222019714Y-110212142D01*
X221972095Y-110116904D01*
X221924476Y-109926428D01*
X221924476Y-109688333D01*
X221972095Y-109497857D01*
X222019714Y-109402619D01*
X222067333Y-109355000D01*
X222162571Y-109307380D01*
G04 #@! TO.C,C25*
X196171142Y-141866857D02*
X196218761Y-141914476D01*
X196266380Y-142057333D01*
X196266380Y-142152571D01*
X196218761Y-142295428D01*
X196123523Y-142390666D01*
X196028285Y-142438285D01*
X195837809Y-142485904D01*
X195694952Y-142485904D01*
X195504476Y-142438285D01*
X195409238Y-142390666D01*
X195314000Y-142295428D01*
X195266380Y-142152571D01*
X195266380Y-142057333D01*
X195314000Y-141914476D01*
X195361619Y-141866857D01*
X195361619Y-141485904D02*
X195314000Y-141438285D01*
X195266380Y-141343047D01*
X195266380Y-141104952D01*
X195314000Y-141009714D01*
X195361619Y-140962095D01*
X195456857Y-140914476D01*
X195552095Y-140914476D01*
X195694952Y-140962095D01*
X196266380Y-141533523D01*
X196266380Y-140914476D01*
X195266380Y-140009714D02*
X195266380Y-140485904D01*
X195742571Y-140533523D01*
X195694952Y-140485904D01*
X195647333Y-140390666D01*
X195647333Y-140152571D01*
X195694952Y-140057333D01*
X195742571Y-140009714D01*
X195837809Y-139962095D01*
X196075904Y-139962095D01*
X196171142Y-140009714D01*
X196218761Y-140057333D01*
X196266380Y-140152571D01*
X196266380Y-140390666D01*
X196218761Y-140485904D01*
X196171142Y-140533523D01*
G04 #@! TO.C,C29*
X180078142Y-107398142D02*
X180030523Y-107445761D01*
X179887666Y-107493380D01*
X179792428Y-107493380D01*
X179649571Y-107445761D01*
X179554333Y-107350523D01*
X179506714Y-107255285D01*
X179459095Y-107064809D01*
X179459095Y-106921952D01*
X179506714Y-106731476D01*
X179554333Y-106636238D01*
X179649571Y-106541000D01*
X179792428Y-106493380D01*
X179887666Y-106493380D01*
X180030523Y-106541000D01*
X180078142Y-106588619D01*
X180459095Y-106588619D02*
X180506714Y-106541000D01*
X180601952Y-106493380D01*
X180840047Y-106493380D01*
X180935285Y-106541000D01*
X180982904Y-106588619D01*
X181030523Y-106683857D01*
X181030523Y-106779095D01*
X180982904Y-106921952D01*
X180411476Y-107493380D01*
X181030523Y-107493380D01*
X181506714Y-107493380D02*
X181697190Y-107493380D01*
X181792428Y-107445761D01*
X181840047Y-107398142D01*
X181935285Y-107255285D01*
X181982904Y-107064809D01*
X181982904Y-106683857D01*
X181935285Y-106588619D01*
X181887666Y-106541000D01*
X181792428Y-106493380D01*
X181601952Y-106493380D01*
X181506714Y-106541000D01*
X181459095Y-106588619D01*
X181411476Y-106683857D01*
X181411476Y-106921952D01*
X181459095Y-107017190D01*
X181506714Y-107064809D01*
X181601952Y-107112428D01*
X181792428Y-107112428D01*
X181887666Y-107064809D01*
X181935285Y-107017190D01*
X181982904Y-106921952D01*
G04 #@! TO.C,C30*
X158742142Y-134997142D02*
X158694523Y-135044761D01*
X158551666Y-135092380D01*
X158456428Y-135092380D01*
X158313571Y-135044761D01*
X158218333Y-134949523D01*
X158170714Y-134854285D01*
X158123095Y-134663809D01*
X158123095Y-134520952D01*
X158170714Y-134330476D01*
X158218333Y-134235238D01*
X158313571Y-134140000D01*
X158456428Y-134092380D01*
X158551666Y-134092380D01*
X158694523Y-134140000D01*
X158742142Y-134187619D01*
X159075476Y-134092380D02*
X159694523Y-134092380D01*
X159361190Y-134473333D01*
X159504047Y-134473333D01*
X159599285Y-134520952D01*
X159646904Y-134568571D01*
X159694523Y-134663809D01*
X159694523Y-134901904D01*
X159646904Y-134997142D01*
X159599285Y-135044761D01*
X159504047Y-135092380D01*
X159218333Y-135092380D01*
X159123095Y-135044761D01*
X159075476Y-134997142D01*
X160313571Y-134092380D02*
X160408809Y-134092380D01*
X160504047Y-134140000D01*
X160551666Y-134187619D01*
X160599285Y-134282857D01*
X160646904Y-134473333D01*
X160646904Y-134711428D01*
X160599285Y-134901904D01*
X160551666Y-134997142D01*
X160504047Y-135044761D01*
X160408809Y-135092380D01*
X160313571Y-135092380D01*
X160218333Y-135044761D01*
X160170714Y-134997142D01*
X160123095Y-134901904D01*
X160075476Y-134711428D01*
X160075476Y-134473333D01*
X160123095Y-134282857D01*
X160170714Y-134187619D01*
X160218333Y-134140000D01*
X160313571Y-134092380D01*
G04 #@! TO.C,C32*
X174998142Y-92960142D02*
X174950523Y-93007761D01*
X174807666Y-93055380D01*
X174712428Y-93055380D01*
X174569571Y-93007761D01*
X174474333Y-92912523D01*
X174426714Y-92817285D01*
X174379095Y-92626809D01*
X174379095Y-92483952D01*
X174426714Y-92293476D01*
X174474333Y-92198238D01*
X174569571Y-92103000D01*
X174712428Y-92055380D01*
X174807666Y-92055380D01*
X174950523Y-92103000D01*
X174998142Y-92150619D01*
X175331476Y-92055380D02*
X175950523Y-92055380D01*
X175617190Y-92436333D01*
X175760047Y-92436333D01*
X175855285Y-92483952D01*
X175902904Y-92531571D01*
X175950523Y-92626809D01*
X175950523Y-92864904D01*
X175902904Y-92960142D01*
X175855285Y-93007761D01*
X175760047Y-93055380D01*
X175474333Y-93055380D01*
X175379095Y-93007761D01*
X175331476Y-92960142D01*
X176331476Y-92150619D02*
X176379095Y-92103000D01*
X176474333Y-92055380D01*
X176712428Y-92055380D01*
X176807666Y-92103000D01*
X176855285Y-92150619D01*
X176902904Y-92245857D01*
X176902904Y-92341095D01*
X176855285Y-92483952D01*
X176283857Y-93055380D01*
X176902904Y-93055380D01*
G04 #@! TO.C,C38*
X188333142Y-145645142D02*
X188285523Y-145692761D01*
X188142666Y-145740380D01*
X188047428Y-145740380D01*
X187904571Y-145692761D01*
X187809333Y-145597523D01*
X187761714Y-145502285D01*
X187714095Y-145311809D01*
X187714095Y-145168952D01*
X187761714Y-144978476D01*
X187809333Y-144883238D01*
X187904571Y-144788000D01*
X188047428Y-144740380D01*
X188142666Y-144740380D01*
X188285523Y-144788000D01*
X188333142Y-144835619D01*
X188666476Y-144740380D02*
X189285523Y-144740380D01*
X188952190Y-145121333D01*
X189095047Y-145121333D01*
X189190285Y-145168952D01*
X189237904Y-145216571D01*
X189285523Y-145311809D01*
X189285523Y-145549904D01*
X189237904Y-145645142D01*
X189190285Y-145692761D01*
X189095047Y-145740380D01*
X188809333Y-145740380D01*
X188714095Y-145692761D01*
X188666476Y-145645142D01*
X189856952Y-145168952D02*
X189761714Y-145121333D01*
X189714095Y-145073714D01*
X189666476Y-144978476D01*
X189666476Y-144930857D01*
X189714095Y-144835619D01*
X189761714Y-144788000D01*
X189856952Y-144740380D01*
X190047428Y-144740380D01*
X190142666Y-144788000D01*
X190190285Y-144835619D01*
X190237904Y-144930857D01*
X190237904Y-144978476D01*
X190190285Y-145073714D01*
X190142666Y-145121333D01*
X190047428Y-145168952D01*
X189856952Y-145168952D01*
X189761714Y-145216571D01*
X189714095Y-145264190D01*
X189666476Y-145359428D01*
X189666476Y-145549904D01*
X189714095Y-145645142D01*
X189761714Y-145692761D01*
X189856952Y-145740380D01*
X190047428Y-145740380D01*
X190142666Y-145692761D01*
X190190285Y-145645142D01*
X190237904Y-145549904D01*
X190237904Y-145359428D01*
X190190285Y-145264190D01*
X190142666Y-145216571D01*
X190047428Y-145168952D01*
G04 #@! TO.C,C43*
X174982142Y-124975857D02*
X175029761Y-125023476D01*
X175077380Y-125166333D01*
X175077380Y-125261571D01*
X175029761Y-125404428D01*
X174934523Y-125499666D01*
X174839285Y-125547285D01*
X174648809Y-125594904D01*
X174505952Y-125594904D01*
X174315476Y-125547285D01*
X174220238Y-125499666D01*
X174125000Y-125404428D01*
X174077380Y-125261571D01*
X174077380Y-125166333D01*
X174125000Y-125023476D01*
X174172619Y-124975857D01*
X174410714Y-124118714D02*
X175077380Y-124118714D01*
X174029761Y-124356809D02*
X174744047Y-124594904D01*
X174744047Y-123975857D01*
X174077380Y-123690142D02*
X174077380Y-123071095D01*
X174458333Y-123404428D01*
X174458333Y-123261571D01*
X174505952Y-123166333D01*
X174553571Y-123118714D01*
X174648809Y-123071095D01*
X174886904Y-123071095D01*
X174982142Y-123118714D01*
X175029761Y-123166333D01*
X175077380Y-123261571D01*
X175077380Y-123547285D01*
X175029761Y-123642523D01*
X174982142Y-123690142D01*
G04 #@! TO.C,D1*
X226210904Y-128214380D02*
X226210904Y-127214380D01*
X226449000Y-127214380D01*
X226591857Y-127262000D01*
X226687095Y-127357238D01*
X226734714Y-127452476D01*
X226782333Y-127642952D01*
X226782333Y-127785809D01*
X226734714Y-127976285D01*
X226687095Y-128071523D01*
X226591857Y-128166761D01*
X226449000Y-128214380D01*
X226210904Y-128214380D01*
X227734714Y-128214380D02*
X227163285Y-128214380D01*
X227449000Y-128214380D02*
X227449000Y-127214380D01*
X227353761Y-127357238D01*
X227258523Y-127452476D01*
X227163285Y-127500095D01*
G04 #@! TO.C,D2*
X226210904Y-138374380D02*
X226210904Y-137374380D01*
X226449000Y-137374380D01*
X226591857Y-137422000D01*
X226687095Y-137517238D01*
X226734714Y-137612476D01*
X226782333Y-137802952D01*
X226782333Y-137945809D01*
X226734714Y-138136285D01*
X226687095Y-138231523D01*
X226591857Y-138326761D01*
X226449000Y-138374380D01*
X226210904Y-138374380D01*
X227163285Y-137469619D02*
X227210904Y-137422000D01*
X227306142Y-137374380D01*
X227544238Y-137374380D01*
X227639476Y-137422000D01*
X227687095Y-137469619D01*
X227734714Y-137564857D01*
X227734714Y-137660095D01*
X227687095Y-137802952D01*
X227115666Y-138374380D01*
X227734714Y-138374380D01*
G04 #@! TO.C,D3*
X226210384Y-148536920D02*
X226210384Y-147536920D01*
X226448480Y-147536920D01*
X226591337Y-147584540D01*
X226686575Y-147679778D01*
X226734194Y-147775016D01*
X226781813Y-147965492D01*
X226781813Y-148108349D01*
X226734194Y-148298825D01*
X226686575Y-148394063D01*
X226591337Y-148489301D01*
X226448480Y-148536920D01*
X226210384Y-148536920D01*
X227115146Y-147536920D02*
X227734194Y-147536920D01*
X227400860Y-147917873D01*
X227543718Y-147917873D01*
X227638956Y-147965492D01*
X227686575Y-148013111D01*
X227734194Y-148108349D01*
X227734194Y-148346444D01*
X227686575Y-148441682D01*
X227638956Y-148489301D01*
X227543718Y-148536920D01*
X227258003Y-148536920D01*
X227162765Y-148489301D01*
X227115146Y-148441682D01*
G04 #@! TO.C,D4*
X178249840Y-128118575D02*
X177249840Y-128118575D01*
X177249840Y-127880480D01*
X177297460Y-127737622D01*
X177392698Y-127642384D01*
X177487936Y-127594765D01*
X177678412Y-127547146D01*
X177821269Y-127547146D01*
X178011745Y-127594765D01*
X178106983Y-127642384D01*
X178202221Y-127737622D01*
X178249840Y-127880480D01*
X178249840Y-128118575D01*
X177583174Y-126690003D02*
X178249840Y-126690003D01*
X177202221Y-126928099D02*
X177916507Y-127166194D01*
X177916507Y-126547146D01*
G04 #@! TO.C,D5*
X170634920Y-130532615D02*
X169634920Y-130532615D01*
X169634920Y-130294520D01*
X169682540Y-130151662D01*
X169777778Y-130056424D01*
X169873016Y-130008805D01*
X170063492Y-129961186D01*
X170206349Y-129961186D01*
X170396825Y-130008805D01*
X170492063Y-130056424D01*
X170587301Y-130151662D01*
X170634920Y-130294520D01*
X170634920Y-130532615D01*
X169634920Y-129056424D02*
X169634920Y-129532615D01*
X170111111Y-129580234D01*
X170063492Y-129532615D01*
X170015873Y-129437377D01*
X170015873Y-129199281D01*
X170063492Y-129104043D01*
X170111111Y-129056424D01*
X170206349Y-129008805D01*
X170444444Y-129008805D01*
X170539682Y-129056424D01*
X170587301Y-129104043D01*
X170634920Y-129199281D01*
X170634920Y-129437377D01*
X170587301Y-129532615D01*
X170539682Y-129580234D01*
G04 #@! TO.C,D6*
X168094920Y-130024615D02*
X167094920Y-130024615D01*
X167094920Y-129786520D01*
X167142540Y-129643662D01*
X167237778Y-129548424D01*
X167333016Y-129500805D01*
X167523492Y-129453186D01*
X167666349Y-129453186D01*
X167856825Y-129500805D01*
X167952063Y-129548424D01*
X168047301Y-129643662D01*
X168094920Y-129786520D01*
X168094920Y-130024615D01*
X167094920Y-128596043D02*
X167094920Y-128786520D01*
X167142540Y-128881758D01*
X167190159Y-128929377D01*
X167333016Y-129024615D01*
X167523492Y-129072234D01*
X167904444Y-129072234D01*
X167999682Y-129024615D01*
X168047301Y-128976996D01*
X168094920Y-128881758D01*
X168094920Y-128691281D01*
X168047301Y-128596043D01*
X167999682Y-128548424D01*
X167904444Y-128500805D01*
X167666349Y-128500805D01*
X167571111Y-128548424D01*
X167523492Y-128596043D01*
X167475873Y-128691281D01*
X167475873Y-128881758D01*
X167523492Y-128976996D01*
X167571111Y-129024615D01*
X167666349Y-129072234D01*
G04 #@! TO.C,D7*
X168552904Y-136977380D02*
X168552904Y-135977380D01*
X168791000Y-135977380D01*
X168933857Y-136025000D01*
X169029095Y-136120238D01*
X169076714Y-136215476D01*
X169124333Y-136405952D01*
X169124333Y-136548809D01*
X169076714Y-136739285D01*
X169029095Y-136834523D01*
X168933857Y-136929761D01*
X168791000Y-136977380D01*
X168552904Y-136977380D01*
X169457666Y-135977380D02*
X170124333Y-135977380D01*
X169695761Y-136977380D01*
G04 #@! TO.C,D8*
X189380904Y-138374380D02*
X189380904Y-137374380D01*
X189619000Y-137374380D01*
X189761857Y-137422000D01*
X189857095Y-137517238D01*
X189904714Y-137612476D01*
X189952333Y-137802952D01*
X189952333Y-137945809D01*
X189904714Y-138136285D01*
X189857095Y-138231523D01*
X189761857Y-138326761D01*
X189619000Y-138374380D01*
X189380904Y-138374380D01*
X190523761Y-137802952D02*
X190428523Y-137755333D01*
X190380904Y-137707714D01*
X190333285Y-137612476D01*
X190333285Y-137564857D01*
X190380904Y-137469619D01*
X190428523Y-137422000D01*
X190523761Y-137374380D01*
X190714238Y-137374380D01*
X190809476Y-137422000D01*
X190857095Y-137469619D01*
X190904714Y-137564857D01*
X190904714Y-137612476D01*
X190857095Y-137707714D01*
X190809476Y-137755333D01*
X190714238Y-137802952D01*
X190523761Y-137802952D01*
X190428523Y-137850571D01*
X190380904Y-137898190D01*
X190333285Y-137993428D01*
X190333285Y-138183904D01*
X190380904Y-138279142D01*
X190428523Y-138326761D01*
X190523761Y-138374380D01*
X190714238Y-138374380D01*
X190809476Y-138326761D01*
X190857095Y-138279142D01*
X190904714Y-138183904D01*
X190904714Y-137993428D01*
X190857095Y-137898190D01*
X190809476Y-137850571D01*
X190714238Y-137802952D01*
G04 #@! TO.C,J1*
X178014380Y-48466333D02*
X178728666Y-48466333D01*
X178871523Y-48513952D01*
X178966761Y-48609190D01*
X179014380Y-48752047D01*
X179014380Y-48847285D01*
X179014380Y-47466333D02*
X179014380Y-48037761D01*
X179014380Y-47752047D02*
X178014380Y-47752047D01*
X178157238Y-47847285D01*
X178252476Y-47942523D01*
X178300095Y-48037761D01*
G04 #@! TO.C,J2*
X168576666Y-87951380D02*
X168576666Y-88665666D01*
X168529047Y-88808523D01*
X168433809Y-88903761D01*
X168290952Y-88951380D01*
X168195714Y-88951380D01*
X169005238Y-88046619D02*
X169052857Y-87999000D01*
X169148095Y-87951380D01*
X169386190Y-87951380D01*
X169481428Y-87999000D01*
X169529047Y-88046619D01*
X169576666Y-88141857D01*
X169576666Y-88237095D01*
X169529047Y-88379952D01*
X168957619Y-88951380D01*
X169576666Y-88951380D01*
G04 #@! TO.C,LED1*
X160297952Y-76725380D02*
X159821761Y-76725380D01*
X159821761Y-75725380D01*
X160631285Y-76201571D02*
X160964619Y-76201571D01*
X161107476Y-76725380D02*
X160631285Y-76725380D01*
X160631285Y-75725380D01*
X161107476Y-75725380D01*
X161536047Y-76725380D02*
X161536047Y-75725380D01*
X161774142Y-75725380D01*
X161917000Y-75773000D01*
X162012238Y-75868238D01*
X162059857Y-75963476D01*
X162107476Y-76153952D01*
X162107476Y-76296809D01*
X162059857Y-76487285D01*
X162012238Y-76582523D01*
X161917000Y-76677761D01*
X161774142Y-76725380D01*
X161536047Y-76725380D01*
X163059857Y-76725380D02*
X162488428Y-76725380D01*
X162774142Y-76725380D02*
X162774142Y-75725380D01*
X162678904Y-75868238D01*
X162583666Y-75963476D01*
X162488428Y-76011095D01*
G04 #@! TO.C,LED2*
X158265952Y-125982380D02*
X157789761Y-125982380D01*
X157789761Y-124982380D01*
X158599285Y-125458571D02*
X158932619Y-125458571D01*
X159075476Y-125982380D02*
X158599285Y-125982380D01*
X158599285Y-124982380D01*
X159075476Y-124982380D01*
X159504047Y-125982380D02*
X159504047Y-124982380D01*
X159742142Y-124982380D01*
X159885000Y-125030000D01*
X159980238Y-125125238D01*
X160027857Y-125220476D01*
X160075476Y-125410952D01*
X160075476Y-125553809D01*
X160027857Y-125744285D01*
X159980238Y-125839523D01*
X159885000Y-125934761D01*
X159742142Y-125982380D01*
X159504047Y-125982380D01*
X160456428Y-125077619D02*
X160504047Y-125030000D01*
X160599285Y-124982380D01*
X160837380Y-124982380D01*
X160932619Y-125030000D01*
X160980238Y-125077619D01*
X161027857Y-125172857D01*
X161027857Y-125268095D01*
X160980238Y-125410952D01*
X160408809Y-125982380D01*
X161027857Y-125982380D01*
G04 #@! TO.C,LED3*
X223035952Y-119959380D02*
X222559761Y-119959380D01*
X222559761Y-118959380D01*
X223369285Y-119435571D02*
X223702619Y-119435571D01*
X223845476Y-119959380D02*
X223369285Y-119959380D01*
X223369285Y-118959380D01*
X223845476Y-118959380D01*
X224274047Y-119959380D02*
X224274047Y-118959380D01*
X224512142Y-118959380D01*
X224655000Y-119007000D01*
X224750238Y-119102238D01*
X224797857Y-119197476D01*
X224845476Y-119387952D01*
X224845476Y-119530809D01*
X224797857Y-119721285D01*
X224750238Y-119816523D01*
X224655000Y-119911761D01*
X224512142Y-119959380D01*
X224274047Y-119959380D01*
X225178809Y-118959380D02*
X225797857Y-118959380D01*
X225464523Y-119340333D01*
X225607380Y-119340333D01*
X225702619Y-119387952D01*
X225750238Y-119435571D01*
X225797857Y-119530809D01*
X225797857Y-119768904D01*
X225750238Y-119864142D01*
X225702619Y-119911761D01*
X225607380Y-119959380D01*
X225321666Y-119959380D01*
X225226428Y-119911761D01*
X225178809Y-119864142D01*
G04 #@! TO.C,LED4*
X223035952Y-130119380D02*
X222559761Y-130119380D01*
X222559761Y-129119380D01*
X223369285Y-129595571D02*
X223702619Y-129595571D01*
X223845476Y-130119380D02*
X223369285Y-130119380D01*
X223369285Y-129119380D01*
X223845476Y-129119380D01*
X224274047Y-130119380D02*
X224274047Y-129119380D01*
X224512142Y-129119380D01*
X224655000Y-129167000D01*
X224750238Y-129262238D01*
X224797857Y-129357476D01*
X224845476Y-129547952D01*
X224845476Y-129690809D01*
X224797857Y-129881285D01*
X224750238Y-129976523D01*
X224655000Y-130071761D01*
X224512142Y-130119380D01*
X224274047Y-130119380D01*
X225702619Y-129452714D02*
X225702619Y-130119380D01*
X225464523Y-129071761D02*
X225226428Y-129786047D01*
X225845476Y-129786047D01*
G04 #@! TO.C,LED5*
X223035952Y-140279380D02*
X222559761Y-140279380D01*
X222559761Y-139279380D01*
X223369285Y-139755571D02*
X223702619Y-139755571D01*
X223845476Y-140279380D02*
X223369285Y-140279380D01*
X223369285Y-139279380D01*
X223845476Y-139279380D01*
X224274047Y-140279380D02*
X224274047Y-139279380D01*
X224512142Y-139279380D01*
X224655000Y-139327000D01*
X224750238Y-139422238D01*
X224797857Y-139517476D01*
X224845476Y-139707952D01*
X224845476Y-139850809D01*
X224797857Y-140041285D01*
X224750238Y-140136523D01*
X224655000Y-140231761D01*
X224512142Y-140279380D01*
X224274047Y-140279380D01*
X225750238Y-139279380D02*
X225274047Y-139279380D01*
X225226428Y-139755571D01*
X225274047Y-139707952D01*
X225369285Y-139660333D01*
X225607380Y-139660333D01*
X225702619Y-139707952D01*
X225750238Y-139755571D01*
X225797857Y-139850809D01*
X225797857Y-140088904D01*
X225750238Y-140184142D01*
X225702619Y-140231761D01*
X225607380Y-140279380D01*
X225369285Y-140279380D01*
X225274047Y-140231761D01*
X225226428Y-140184142D01*
G04 #@! TO.C,PLUG1*
X238498333Y-125884380D02*
X238498333Y-124884380D01*
X238879285Y-124884380D01*
X238974523Y-124932000D01*
X239022142Y-124979619D01*
X239069761Y-125074857D01*
X239069761Y-125217714D01*
X239022142Y-125312952D01*
X238974523Y-125360571D01*
X238879285Y-125408190D01*
X238498333Y-125408190D01*
X239974523Y-125884380D02*
X239498333Y-125884380D01*
X239498333Y-124884380D01*
X240307857Y-124884380D02*
X240307857Y-125693904D01*
X240355476Y-125789142D01*
X240403095Y-125836761D01*
X240498333Y-125884380D01*
X240688809Y-125884380D01*
X240784047Y-125836761D01*
X240831666Y-125789142D01*
X240879285Y-125693904D01*
X240879285Y-124884380D01*
X241879285Y-124932000D02*
X241784047Y-124884380D01*
X241641190Y-124884380D01*
X241498333Y-124932000D01*
X241403095Y-125027238D01*
X241355476Y-125122476D01*
X241307857Y-125312952D01*
X241307857Y-125455809D01*
X241355476Y-125646285D01*
X241403095Y-125741523D01*
X241498333Y-125836761D01*
X241641190Y-125884380D01*
X241736428Y-125884380D01*
X241879285Y-125836761D01*
X241926904Y-125789142D01*
X241926904Y-125455809D01*
X241736428Y-125455809D01*
X242879285Y-125884380D02*
X242307857Y-125884380D01*
X242593571Y-125884380D02*
X242593571Y-124884380D01*
X242498333Y-125027238D01*
X242403095Y-125122476D01*
X242307857Y-125170095D01*
G04 #@! TO.C,PLUG2*
X238498333Y-130964380D02*
X238498333Y-129964380D01*
X238879285Y-129964380D01*
X238974523Y-130012000D01*
X239022142Y-130059619D01*
X239069761Y-130154857D01*
X239069761Y-130297714D01*
X239022142Y-130392952D01*
X238974523Y-130440571D01*
X238879285Y-130488190D01*
X238498333Y-130488190D01*
X239974523Y-130964380D02*
X239498333Y-130964380D01*
X239498333Y-129964380D01*
X240307857Y-129964380D02*
X240307857Y-130773904D01*
X240355476Y-130869142D01*
X240403095Y-130916761D01*
X240498333Y-130964380D01*
X240688809Y-130964380D01*
X240784047Y-130916761D01*
X240831666Y-130869142D01*
X240879285Y-130773904D01*
X240879285Y-129964380D01*
X241879285Y-130012000D02*
X241784047Y-129964380D01*
X241641190Y-129964380D01*
X241498333Y-130012000D01*
X241403095Y-130107238D01*
X241355476Y-130202476D01*
X241307857Y-130392952D01*
X241307857Y-130535809D01*
X241355476Y-130726285D01*
X241403095Y-130821523D01*
X241498333Y-130916761D01*
X241641190Y-130964380D01*
X241736428Y-130964380D01*
X241879285Y-130916761D01*
X241926904Y-130869142D01*
X241926904Y-130535809D01*
X241736428Y-130535809D01*
X242307857Y-130059619D02*
X242355476Y-130012000D01*
X242450714Y-129964380D01*
X242688809Y-129964380D01*
X242784047Y-130012000D01*
X242831666Y-130059619D01*
X242879285Y-130154857D01*
X242879285Y-130250095D01*
X242831666Y-130392952D01*
X242260238Y-130964380D01*
X242879285Y-130964380D01*
G04 #@! TO.C,POT1*
X169680142Y-148280380D02*
X169680142Y-147280380D01*
X170061095Y-147280380D01*
X170156333Y-147328000D01*
X170203952Y-147375619D01*
X170251571Y-147470857D01*
X170251571Y-147613714D01*
X170203952Y-147708952D01*
X170156333Y-147756571D01*
X170061095Y-147804190D01*
X169680142Y-147804190D01*
X170870619Y-147280380D02*
X171061095Y-147280380D01*
X171156333Y-147328000D01*
X171251571Y-147423238D01*
X171299190Y-147613714D01*
X171299190Y-147947047D01*
X171251571Y-148137523D01*
X171156333Y-148232761D01*
X171061095Y-148280380D01*
X170870619Y-148280380D01*
X170775380Y-148232761D01*
X170680142Y-148137523D01*
X170632523Y-147947047D01*
X170632523Y-147613714D01*
X170680142Y-147423238D01*
X170775380Y-147328000D01*
X170870619Y-147280380D01*
X171584904Y-147280380D02*
X172156333Y-147280380D01*
X171870619Y-148280380D02*
X171870619Y-147280380D01*
X173013476Y-148280380D02*
X172442047Y-148280380D01*
X172727761Y-148280380D02*
X172727761Y-147280380D01*
X172632523Y-147423238D01*
X172537285Y-147518476D01*
X172442047Y-147566095D01*
G04 #@! TO.C,POT2*
X191905142Y-136596380D02*
X191905142Y-135596380D01*
X192286095Y-135596380D01*
X192381333Y-135644000D01*
X192428952Y-135691619D01*
X192476571Y-135786857D01*
X192476571Y-135929714D01*
X192428952Y-136024952D01*
X192381333Y-136072571D01*
X192286095Y-136120190D01*
X191905142Y-136120190D01*
X193095619Y-135596380D02*
X193286095Y-135596380D01*
X193381333Y-135644000D01*
X193476571Y-135739238D01*
X193524190Y-135929714D01*
X193524190Y-136263047D01*
X193476571Y-136453523D01*
X193381333Y-136548761D01*
X193286095Y-136596380D01*
X193095619Y-136596380D01*
X193000380Y-136548761D01*
X192905142Y-136453523D01*
X192857523Y-136263047D01*
X192857523Y-135929714D01*
X192905142Y-135739238D01*
X193000380Y-135644000D01*
X193095619Y-135596380D01*
X193809904Y-135596380D02*
X194381333Y-135596380D01*
X194095619Y-136596380D02*
X194095619Y-135596380D01*
X194667047Y-135691619D02*
X194714666Y-135644000D01*
X194809904Y-135596380D01*
X195048000Y-135596380D01*
X195143238Y-135644000D01*
X195190857Y-135691619D01*
X195238476Y-135786857D01*
X195238476Y-135882095D01*
X195190857Y-136024952D01*
X194619428Y-136596380D01*
X195238476Y-136596380D01*
G04 #@! TO.C,Q1*
X230409761Y-126154619D02*
X230314523Y-126107000D01*
X230219285Y-126011761D01*
X230076428Y-125868904D01*
X229981190Y-125821285D01*
X229885952Y-125821285D01*
X229933571Y-126059380D02*
X229838333Y-126011761D01*
X229743095Y-125916523D01*
X229695476Y-125726047D01*
X229695476Y-125392714D01*
X229743095Y-125202238D01*
X229838333Y-125107000D01*
X229933571Y-125059380D01*
X230124047Y-125059380D01*
X230219285Y-125107000D01*
X230314523Y-125202238D01*
X230362142Y-125392714D01*
X230362142Y-125726047D01*
X230314523Y-125916523D01*
X230219285Y-126011761D01*
X230124047Y-126059380D01*
X229933571Y-126059380D01*
X231314523Y-126059380D02*
X230743095Y-126059380D01*
X231028809Y-126059380D02*
X231028809Y-125059380D01*
X230933571Y-125202238D01*
X230838333Y-125297476D01*
X230743095Y-125345095D01*
G04 #@! TO.C,Q2*
X230409761Y-136314619D02*
X230314523Y-136267000D01*
X230219285Y-136171761D01*
X230076428Y-136028904D01*
X229981190Y-135981285D01*
X229885952Y-135981285D01*
X229933571Y-136219380D02*
X229838333Y-136171761D01*
X229743095Y-136076523D01*
X229695476Y-135886047D01*
X229695476Y-135552714D01*
X229743095Y-135362238D01*
X229838333Y-135267000D01*
X229933571Y-135219380D01*
X230124047Y-135219380D01*
X230219285Y-135267000D01*
X230314523Y-135362238D01*
X230362142Y-135552714D01*
X230362142Y-135886047D01*
X230314523Y-136076523D01*
X230219285Y-136171761D01*
X230124047Y-136219380D01*
X229933571Y-136219380D01*
X230743095Y-135314619D02*
X230790714Y-135267000D01*
X230885952Y-135219380D01*
X231124047Y-135219380D01*
X231219285Y-135267000D01*
X231266904Y-135314619D01*
X231314523Y-135409857D01*
X231314523Y-135505095D01*
X231266904Y-135647952D01*
X230695476Y-136219380D01*
X231314523Y-136219380D01*
G04 #@! TO.C,Q3*
X230409761Y-146474619D02*
X230314523Y-146427000D01*
X230219285Y-146331761D01*
X230076428Y-146188904D01*
X229981190Y-146141285D01*
X229885952Y-146141285D01*
X229933571Y-146379380D02*
X229838333Y-146331761D01*
X229743095Y-146236523D01*
X229695476Y-146046047D01*
X229695476Y-145712714D01*
X229743095Y-145522238D01*
X229838333Y-145427000D01*
X229933571Y-145379380D01*
X230124047Y-145379380D01*
X230219285Y-145427000D01*
X230314523Y-145522238D01*
X230362142Y-145712714D01*
X230362142Y-146046047D01*
X230314523Y-146236523D01*
X230219285Y-146331761D01*
X230124047Y-146379380D01*
X229933571Y-146379380D01*
X230695476Y-145379380D02*
X231314523Y-145379380D01*
X230981190Y-145760333D01*
X231124047Y-145760333D01*
X231219285Y-145807952D01*
X231266904Y-145855571D01*
X231314523Y-145950809D01*
X231314523Y-146188904D01*
X231266904Y-146284142D01*
X231219285Y-146331761D01*
X231124047Y-146379380D01*
X230838333Y-146379380D01*
X230743095Y-146331761D01*
X230695476Y-146284142D01*
G04 #@! TO.C,Q4*
X177077619Y-130905238D02*
X177030000Y-131000476D01*
X176934761Y-131095714D01*
X176791904Y-131238571D01*
X176744285Y-131333809D01*
X176744285Y-131429047D01*
X176982380Y-131381428D02*
X176934761Y-131476666D01*
X176839523Y-131571904D01*
X176649047Y-131619523D01*
X176315714Y-131619523D01*
X176125238Y-131571904D01*
X176030000Y-131476666D01*
X175982380Y-131381428D01*
X175982380Y-131190952D01*
X176030000Y-131095714D01*
X176125238Y-131000476D01*
X176315714Y-130952857D01*
X176649047Y-130952857D01*
X176839523Y-131000476D01*
X176934761Y-131095714D01*
X176982380Y-131190952D01*
X176982380Y-131381428D01*
X176315714Y-130095714D02*
X176982380Y-130095714D01*
X175934761Y-130333809D02*
X176649047Y-130571904D01*
X176649047Y-129952857D01*
G04 #@! TO.C,R1*
X161123333Y-70101380D02*
X160790000Y-69625190D01*
X160551904Y-70101380D02*
X160551904Y-69101380D01*
X160932857Y-69101380D01*
X161028095Y-69149000D01*
X161075714Y-69196619D01*
X161123333Y-69291857D01*
X161123333Y-69434714D01*
X161075714Y-69529952D01*
X161028095Y-69577571D01*
X160932857Y-69625190D01*
X160551904Y-69625190D01*
X162075714Y-70101380D02*
X161504285Y-70101380D01*
X161790000Y-70101380D02*
X161790000Y-69101380D01*
X161694761Y-69244238D01*
X161599523Y-69339476D01*
X161504285Y-69387095D01*
G04 #@! TO.C,R2*
X168018380Y-94781666D02*
X167542190Y-95115000D01*
X168018380Y-95353095D02*
X167018380Y-95353095D01*
X167018380Y-94972142D01*
X167066000Y-94876904D01*
X167113619Y-94829285D01*
X167208857Y-94781666D01*
X167351714Y-94781666D01*
X167446952Y-94829285D01*
X167494571Y-94876904D01*
X167542190Y-94972142D01*
X167542190Y-95353095D01*
X167113619Y-94400714D02*
X167066000Y-94353095D01*
X167018380Y-94257857D01*
X167018380Y-94019761D01*
X167066000Y-93924523D01*
X167113619Y-93876904D01*
X167208857Y-93829285D01*
X167304095Y-93829285D01*
X167446952Y-93876904D01*
X168018380Y-94448333D01*
X168018380Y-93829285D01*
G04 #@! TO.C,R4*
X165478380Y-128563666D02*
X165002190Y-128897000D01*
X165478380Y-129135095D02*
X164478380Y-129135095D01*
X164478380Y-128754142D01*
X164526000Y-128658904D01*
X164573619Y-128611285D01*
X164668857Y-128563666D01*
X164811714Y-128563666D01*
X164906952Y-128611285D01*
X164954571Y-128658904D01*
X165002190Y-128754142D01*
X165002190Y-129135095D01*
X164811714Y-127706523D02*
X165478380Y-127706523D01*
X164430761Y-127944619D02*
X165145047Y-128182714D01*
X165145047Y-127563666D01*
G04 #@! TO.C,R8*
X232583333Y-119959380D02*
X232250000Y-119483190D01*
X232011904Y-119959380D02*
X232011904Y-118959380D01*
X232392857Y-118959380D01*
X232488095Y-119007000D01*
X232535714Y-119054619D01*
X232583333Y-119149857D01*
X232583333Y-119292714D01*
X232535714Y-119387952D01*
X232488095Y-119435571D01*
X232392857Y-119483190D01*
X232011904Y-119483190D01*
X233154761Y-119387952D02*
X233059523Y-119340333D01*
X233011904Y-119292714D01*
X232964285Y-119197476D01*
X232964285Y-119149857D01*
X233011904Y-119054619D01*
X233059523Y-119007000D01*
X233154761Y-118959380D01*
X233345238Y-118959380D01*
X233440476Y-119007000D01*
X233488095Y-119054619D01*
X233535714Y-119149857D01*
X233535714Y-119197476D01*
X233488095Y-119292714D01*
X233440476Y-119340333D01*
X233345238Y-119387952D01*
X233154761Y-119387952D01*
X233059523Y-119435571D01*
X233011904Y-119483190D01*
X232964285Y-119578428D01*
X232964285Y-119768904D01*
X233011904Y-119864142D01*
X233059523Y-119911761D01*
X233154761Y-119959380D01*
X233345238Y-119959380D01*
X233440476Y-119911761D01*
X233488095Y-119864142D01*
X233535714Y-119768904D01*
X233535714Y-119578428D01*
X233488095Y-119483190D01*
X233440476Y-119435571D01*
X233345238Y-119387952D01*
G04 #@! TO.C,R12*
X232107142Y-130119380D02*
X231773809Y-129643190D01*
X231535714Y-130119380D02*
X231535714Y-129119380D01*
X231916666Y-129119380D01*
X232011904Y-129167000D01*
X232059523Y-129214619D01*
X232107142Y-129309857D01*
X232107142Y-129452714D01*
X232059523Y-129547952D01*
X232011904Y-129595571D01*
X231916666Y-129643190D01*
X231535714Y-129643190D01*
X233059523Y-130119380D02*
X232488095Y-130119380D01*
X232773809Y-130119380D02*
X232773809Y-129119380D01*
X232678571Y-129262238D01*
X232583333Y-129357476D01*
X232488095Y-129405095D01*
X233440476Y-129214619D02*
X233488095Y-129167000D01*
X233583333Y-129119380D01*
X233821428Y-129119380D01*
X233916666Y-129167000D01*
X233964285Y-129214619D01*
X234011904Y-129309857D01*
X234011904Y-129405095D01*
X233964285Y-129547952D01*
X233392857Y-130119380D01*
X234011904Y-130119380D01*
G04 #@! TO.C,R16*
X232148142Y-140279380D02*
X231814809Y-139803190D01*
X231576714Y-140279380D02*
X231576714Y-139279380D01*
X231957666Y-139279380D01*
X232052904Y-139327000D01*
X232100523Y-139374619D01*
X232148142Y-139469857D01*
X232148142Y-139612714D01*
X232100523Y-139707952D01*
X232052904Y-139755571D01*
X231957666Y-139803190D01*
X231576714Y-139803190D01*
X233100523Y-140279380D02*
X232529095Y-140279380D01*
X232814809Y-140279380D02*
X232814809Y-139279380D01*
X232719571Y-139422238D01*
X232624333Y-139517476D01*
X232529095Y-139565095D01*
X233957666Y-139279380D02*
X233767190Y-139279380D01*
X233671952Y-139327000D01*
X233624333Y-139374619D01*
X233529095Y-139517476D01*
X233481476Y-139707952D01*
X233481476Y-140088904D01*
X233529095Y-140184142D01*
X233576714Y-140231761D01*
X233671952Y-140279380D01*
X233862428Y-140279380D01*
X233957666Y-140231761D01*
X234005285Y-140184142D01*
X234052904Y-140088904D01*
X234052904Y-139850809D01*
X234005285Y-139755571D01*
X233957666Y-139707952D01*
X233862428Y-139660333D01*
X233671952Y-139660333D01*
X233576714Y-139707952D01*
X233529095Y-139755571D01*
X233481476Y-139850809D01*
G04 #@! TO.C,R19*
X206494142Y-73985380D02*
X206160809Y-73509190D01*
X205922714Y-73985380D02*
X205922714Y-72985380D01*
X206303666Y-72985380D01*
X206398904Y-73033000D01*
X206446523Y-73080619D01*
X206494142Y-73175857D01*
X206494142Y-73318714D01*
X206446523Y-73413952D01*
X206398904Y-73461571D01*
X206303666Y-73509190D01*
X205922714Y-73509190D01*
X207446523Y-73985380D02*
X206875095Y-73985380D01*
X207160809Y-73985380D02*
X207160809Y-72985380D01*
X207065571Y-73128238D01*
X206970333Y-73223476D01*
X206875095Y-73271095D01*
X207922714Y-73985380D02*
X208113190Y-73985380D01*
X208208428Y-73937761D01*
X208256047Y-73890142D01*
X208351285Y-73747285D01*
X208398904Y-73556809D01*
X208398904Y-73175857D01*
X208351285Y-73080619D01*
X208303666Y-73033000D01*
X208208428Y-72985380D01*
X208017952Y-72985380D01*
X207922714Y-73033000D01*
X207875095Y-73080619D01*
X207827476Y-73175857D01*
X207827476Y-73413952D01*
X207875095Y-73509190D01*
X207922714Y-73556809D01*
X208017952Y-73604428D01*
X208208428Y-73604428D01*
X208303666Y-73556809D01*
X208351285Y-73509190D01*
X208398904Y-73413952D01*
G04 #@! TO.C,R20*
X209288142Y-73985380D02*
X208954809Y-73509190D01*
X208716714Y-73985380D02*
X208716714Y-72985380D01*
X209097666Y-72985380D01*
X209192904Y-73033000D01*
X209240523Y-73080619D01*
X209288142Y-73175857D01*
X209288142Y-73318714D01*
X209240523Y-73413952D01*
X209192904Y-73461571D01*
X209097666Y-73509190D01*
X208716714Y-73509190D01*
X209669095Y-73080619D02*
X209716714Y-73033000D01*
X209811952Y-72985380D01*
X210050047Y-72985380D01*
X210145285Y-73033000D01*
X210192904Y-73080619D01*
X210240523Y-73175857D01*
X210240523Y-73271095D01*
X210192904Y-73413952D01*
X209621476Y-73985380D01*
X210240523Y-73985380D01*
X210859571Y-72985380D02*
X210954809Y-72985380D01*
X211050047Y-73033000D01*
X211097666Y-73080619D01*
X211145285Y-73175857D01*
X211192904Y-73366333D01*
X211192904Y-73604428D01*
X211145285Y-73794904D01*
X211097666Y-73890142D01*
X211050047Y-73937761D01*
X210954809Y-73985380D01*
X210859571Y-73985380D01*
X210764333Y-73937761D01*
X210716714Y-73890142D01*
X210669095Y-73794904D01*
X210621476Y-73604428D01*
X210621476Y-73366333D01*
X210669095Y-73175857D01*
X210716714Y-73080619D01*
X210764333Y-73033000D01*
X210859571Y-72985380D01*
G04 #@! TO.C,R21*
X207002142Y-76906380D02*
X206668809Y-76430190D01*
X206430714Y-76906380D02*
X206430714Y-75906380D01*
X206811666Y-75906380D01*
X206906904Y-75954000D01*
X206954523Y-76001619D01*
X207002142Y-76096857D01*
X207002142Y-76239714D01*
X206954523Y-76334952D01*
X206906904Y-76382571D01*
X206811666Y-76430190D01*
X206430714Y-76430190D01*
X207383095Y-76001619D02*
X207430714Y-75954000D01*
X207525952Y-75906380D01*
X207764047Y-75906380D01*
X207859285Y-75954000D01*
X207906904Y-76001619D01*
X207954523Y-76096857D01*
X207954523Y-76192095D01*
X207906904Y-76334952D01*
X207335476Y-76906380D01*
X207954523Y-76906380D01*
X208906904Y-76906380D02*
X208335476Y-76906380D01*
X208621190Y-76906380D02*
X208621190Y-75906380D01*
X208525952Y-76049238D01*
X208430714Y-76144476D01*
X208335476Y-76192095D01*
G04 #@! TO.C,R22*
X202430142Y-76906380D02*
X202096809Y-76430190D01*
X201858714Y-76906380D02*
X201858714Y-75906380D01*
X202239666Y-75906380D01*
X202334904Y-75954000D01*
X202382523Y-76001619D01*
X202430142Y-76096857D01*
X202430142Y-76239714D01*
X202382523Y-76334952D01*
X202334904Y-76382571D01*
X202239666Y-76430190D01*
X201858714Y-76430190D01*
X202811095Y-76001619D02*
X202858714Y-75954000D01*
X202953952Y-75906380D01*
X203192047Y-75906380D01*
X203287285Y-75954000D01*
X203334904Y-76001619D01*
X203382523Y-76096857D01*
X203382523Y-76192095D01*
X203334904Y-76334952D01*
X202763476Y-76906380D01*
X203382523Y-76906380D01*
X203763476Y-76001619D02*
X203811095Y-75954000D01*
X203906333Y-75906380D01*
X204144428Y-75906380D01*
X204239666Y-75954000D01*
X204287285Y-76001619D01*
X204334904Y-76096857D01*
X204334904Y-76192095D01*
X204287285Y-76334952D01*
X203715857Y-76906380D01*
X204334904Y-76906380D01*
G04 #@! TO.C,R23*
X199636142Y-76906380D02*
X199302809Y-76430190D01*
X199064714Y-76906380D02*
X199064714Y-75906380D01*
X199445666Y-75906380D01*
X199540904Y-75954000D01*
X199588523Y-76001619D01*
X199636142Y-76096857D01*
X199636142Y-76239714D01*
X199588523Y-76334952D01*
X199540904Y-76382571D01*
X199445666Y-76430190D01*
X199064714Y-76430190D01*
X200017095Y-76001619D02*
X200064714Y-75954000D01*
X200159952Y-75906380D01*
X200398047Y-75906380D01*
X200493285Y-75954000D01*
X200540904Y-76001619D01*
X200588523Y-76096857D01*
X200588523Y-76192095D01*
X200540904Y-76334952D01*
X199969476Y-76906380D01*
X200588523Y-76906380D01*
X200921857Y-75906380D02*
X201540904Y-75906380D01*
X201207571Y-76287333D01*
X201350428Y-76287333D01*
X201445666Y-76334952D01*
X201493285Y-76382571D01*
X201540904Y-76477809D01*
X201540904Y-76715904D01*
X201493285Y-76811142D01*
X201445666Y-76858761D01*
X201350428Y-76906380D01*
X201064714Y-76906380D01*
X200969476Y-76858761D01*
X200921857Y-76811142D01*
G04 #@! TO.C,R24*
X202430142Y-73985380D02*
X202096809Y-73509190D01*
X201858714Y-73985380D02*
X201858714Y-72985380D01*
X202239666Y-72985380D01*
X202334904Y-73033000D01*
X202382523Y-73080619D01*
X202430142Y-73175857D01*
X202430142Y-73318714D01*
X202382523Y-73413952D01*
X202334904Y-73461571D01*
X202239666Y-73509190D01*
X201858714Y-73509190D01*
X202811095Y-73080619D02*
X202858714Y-73033000D01*
X202953952Y-72985380D01*
X203192047Y-72985380D01*
X203287285Y-73033000D01*
X203334904Y-73080619D01*
X203382523Y-73175857D01*
X203382523Y-73271095D01*
X203334904Y-73413952D01*
X202763476Y-73985380D01*
X203382523Y-73985380D01*
X204239666Y-73318714D02*
X204239666Y-73985380D01*
X204001571Y-72937761D02*
X203763476Y-73652047D01*
X204382523Y-73652047D01*
G04 #@! TO.C,R25*
X199636142Y-73985380D02*
X199302809Y-73509190D01*
X199064714Y-73985380D02*
X199064714Y-72985380D01*
X199445666Y-72985380D01*
X199540904Y-73033000D01*
X199588523Y-73080619D01*
X199636142Y-73175857D01*
X199636142Y-73318714D01*
X199588523Y-73413952D01*
X199540904Y-73461571D01*
X199445666Y-73509190D01*
X199064714Y-73509190D01*
X200017095Y-73080619D02*
X200064714Y-73033000D01*
X200159952Y-72985380D01*
X200398047Y-72985380D01*
X200493285Y-73033000D01*
X200540904Y-73080619D01*
X200588523Y-73175857D01*
X200588523Y-73271095D01*
X200540904Y-73413952D01*
X199969476Y-73985380D01*
X200588523Y-73985380D01*
X201493285Y-72985380D02*
X201017095Y-72985380D01*
X200969476Y-73461571D01*
X201017095Y-73413952D01*
X201112333Y-73366333D01*
X201350428Y-73366333D01*
X201445666Y-73413952D01*
X201493285Y-73461571D01*
X201540904Y-73556809D01*
X201540904Y-73794904D01*
X201493285Y-73890142D01*
X201445666Y-73937761D01*
X201350428Y-73985380D01*
X201112333Y-73985380D01*
X201017095Y-73937761D01*
X200969476Y-73890142D01*
G04 #@! TO.C,R26*
X219194142Y-73985380D02*
X218860809Y-73509190D01*
X218622714Y-73985380D02*
X218622714Y-72985380D01*
X219003666Y-72985380D01*
X219098904Y-73033000D01*
X219146523Y-73080619D01*
X219194142Y-73175857D01*
X219194142Y-73318714D01*
X219146523Y-73413952D01*
X219098904Y-73461571D01*
X219003666Y-73509190D01*
X218622714Y-73509190D01*
X219575095Y-73080619D02*
X219622714Y-73033000D01*
X219717952Y-72985380D01*
X219956047Y-72985380D01*
X220051285Y-73033000D01*
X220098904Y-73080619D01*
X220146523Y-73175857D01*
X220146523Y-73271095D01*
X220098904Y-73413952D01*
X219527476Y-73985380D01*
X220146523Y-73985380D01*
X221003666Y-72985380D02*
X220813190Y-72985380D01*
X220717952Y-73033000D01*
X220670333Y-73080619D01*
X220575095Y-73223476D01*
X220527476Y-73413952D01*
X220527476Y-73794904D01*
X220575095Y-73890142D01*
X220622714Y-73937761D01*
X220717952Y-73985380D01*
X220908428Y-73985380D01*
X221003666Y-73937761D01*
X221051285Y-73890142D01*
X221098904Y-73794904D01*
X221098904Y-73556809D01*
X221051285Y-73461571D01*
X221003666Y-73413952D01*
X220908428Y-73366333D01*
X220717952Y-73366333D01*
X220622714Y-73413952D01*
X220575095Y-73461571D01*
X220527476Y-73556809D01*
G04 #@! TO.C,R27*
X221988142Y-73985380D02*
X221654809Y-73509190D01*
X221416714Y-73985380D02*
X221416714Y-72985380D01*
X221797666Y-72985380D01*
X221892904Y-73033000D01*
X221940523Y-73080619D01*
X221988142Y-73175857D01*
X221988142Y-73318714D01*
X221940523Y-73413952D01*
X221892904Y-73461571D01*
X221797666Y-73509190D01*
X221416714Y-73509190D01*
X222369095Y-73080619D02*
X222416714Y-73033000D01*
X222511952Y-72985380D01*
X222750047Y-72985380D01*
X222845285Y-73033000D01*
X222892904Y-73080619D01*
X222940523Y-73175857D01*
X222940523Y-73271095D01*
X222892904Y-73413952D01*
X222321476Y-73985380D01*
X222940523Y-73985380D01*
X223273857Y-72985380D02*
X223940523Y-72985380D01*
X223511952Y-73985380D01*
G04 #@! TO.C,R28*
X219702142Y-76906380D02*
X219368809Y-76430190D01*
X219130714Y-76906380D02*
X219130714Y-75906380D01*
X219511666Y-75906380D01*
X219606904Y-75954000D01*
X219654523Y-76001619D01*
X219702142Y-76096857D01*
X219702142Y-76239714D01*
X219654523Y-76334952D01*
X219606904Y-76382571D01*
X219511666Y-76430190D01*
X219130714Y-76430190D01*
X220083095Y-76001619D02*
X220130714Y-75954000D01*
X220225952Y-75906380D01*
X220464047Y-75906380D01*
X220559285Y-75954000D01*
X220606904Y-76001619D01*
X220654523Y-76096857D01*
X220654523Y-76192095D01*
X220606904Y-76334952D01*
X220035476Y-76906380D01*
X220654523Y-76906380D01*
X221225952Y-76334952D02*
X221130714Y-76287333D01*
X221083095Y-76239714D01*
X221035476Y-76144476D01*
X221035476Y-76096857D01*
X221083095Y-76001619D01*
X221130714Y-75954000D01*
X221225952Y-75906380D01*
X221416428Y-75906380D01*
X221511666Y-75954000D01*
X221559285Y-76001619D01*
X221606904Y-76096857D01*
X221606904Y-76144476D01*
X221559285Y-76239714D01*
X221511666Y-76287333D01*
X221416428Y-76334952D01*
X221225952Y-76334952D01*
X221130714Y-76382571D01*
X221083095Y-76430190D01*
X221035476Y-76525428D01*
X221035476Y-76715904D01*
X221083095Y-76811142D01*
X221130714Y-76858761D01*
X221225952Y-76906380D01*
X221416428Y-76906380D01*
X221511666Y-76858761D01*
X221559285Y-76811142D01*
X221606904Y-76715904D01*
X221606904Y-76525428D01*
X221559285Y-76430190D01*
X221511666Y-76382571D01*
X221416428Y-76334952D01*
G04 #@! TO.C,R29*
X215130142Y-76906380D02*
X214796809Y-76430190D01*
X214558714Y-76906380D02*
X214558714Y-75906380D01*
X214939666Y-75906380D01*
X215034904Y-75954000D01*
X215082523Y-76001619D01*
X215130142Y-76096857D01*
X215130142Y-76239714D01*
X215082523Y-76334952D01*
X215034904Y-76382571D01*
X214939666Y-76430190D01*
X214558714Y-76430190D01*
X215511095Y-76001619D02*
X215558714Y-75954000D01*
X215653952Y-75906380D01*
X215892047Y-75906380D01*
X215987285Y-75954000D01*
X216034904Y-76001619D01*
X216082523Y-76096857D01*
X216082523Y-76192095D01*
X216034904Y-76334952D01*
X215463476Y-76906380D01*
X216082523Y-76906380D01*
X216558714Y-76906380D02*
X216749190Y-76906380D01*
X216844428Y-76858761D01*
X216892047Y-76811142D01*
X216987285Y-76668285D01*
X217034904Y-76477809D01*
X217034904Y-76096857D01*
X216987285Y-76001619D01*
X216939666Y-75954000D01*
X216844428Y-75906380D01*
X216653952Y-75906380D01*
X216558714Y-75954000D01*
X216511095Y-76001619D01*
X216463476Y-76096857D01*
X216463476Y-76334952D01*
X216511095Y-76430190D01*
X216558714Y-76477809D01*
X216653952Y-76525428D01*
X216844428Y-76525428D01*
X216939666Y-76477809D01*
X216987285Y-76430190D01*
X217034904Y-76334952D01*
G04 #@! TO.C,R30*
X212336142Y-76906380D02*
X212002809Y-76430190D01*
X211764714Y-76906380D02*
X211764714Y-75906380D01*
X212145666Y-75906380D01*
X212240904Y-75954000D01*
X212288523Y-76001619D01*
X212336142Y-76096857D01*
X212336142Y-76239714D01*
X212288523Y-76334952D01*
X212240904Y-76382571D01*
X212145666Y-76430190D01*
X211764714Y-76430190D01*
X212669476Y-75906380D02*
X213288523Y-75906380D01*
X212955190Y-76287333D01*
X213098047Y-76287333D01*
X213193285Y-76334952D01*
X213240904Y-76382571D01*
X213288523Y-76477809D01*
X213288523Y-76715904D01*
X213240904Y-76811142D01*
X213193285Y-76858761D01*
X213098047Y-76906380D01*
X212812333Y-76906380D01*
X212717095Y-76858761D01*
X212669476Y-76811142D01*
X213907571Y-75906380D02*
X214002809Y-75906380D01*
X214098047Y-75954000D01*
X214145666Y-76001619D01*
X214193285Y-76096857D01*
X214240904Y-76287333D01*
X214240904Y-76525428D01*
X214193285Y-76715904D01*
X214145666Y-76811142D01*
X214098047Y-76858761D01*
X214002809Y-76906380D01*
X213907571Y-76906380D01*
X213812333Y-76858761D01*
X213764714Y-76811142D01*
X213717095Y-76715904D01*
X213669476Y-76525428D01*
X213669476Y-76287333D01*
X213717095Y-76096857D01*
X213764714Y-76001619D01*
X213812333Y-75954000D01*
X213907571Y-75906380D01*
G04 #@! TO.C,R31*
X215257142Y-73985380D02*
X214923809Y-73509190D01*
X214685714Y-73985380D02*
X214685714Y-72985380D01*
X215066666Y-72985380D01*
X215161904Y-73033000D01*
X215209523Y-73080619D01*
X215257142Y-73175857D01*
X215257142Y-73318714D01*
X215209523Y-73413952D01*
X215161904Y-73461571D01*
X215066666Y-73509190D01*
X214685714Y-73509190D01*
X215590476Y-72985380D02*
X216209523Y-72985380D01*
X215876190Y-73366333D01*
X216019047Y-73366333D01*
X216114285Y-73413952D01*
X216161904Y-73461571D01*
X216209523Y-73556809D01*
X216209523Y-73794904D01*
X216161904Y-73890142D01*
X216114285Y-73937761D01*
X216019047Y-73985380D01*
X215733333Y-73985380D01*
X215638095Y-73937761D01*
X215590476Y-73890142D01*
X217161904Y-73985380D02*
X216590476Y-73985380D01*
X216876190Y-73985380D02*
X216876190Y-72985380D01*
X216780952Y-73128238D01*
X216685714Y-73223476D01*
X216590476Y-73271095D01*
G04 #@! TO.C,R32*
X212336142Y-73985380D02*
X212002809Y-73509190D01*
X211764714Y-73985380D02*
X211764714Y-72985380D01*
X212145666Y-72985380D01*
X212240904Y-73033000D01*
X212288523Y-73080619D01*
X212336142Y-73175857D01*
X212336142Y-73318714D01*
X212288523Y-73413952D01*
X212240904Y-73461571D01*
X212145666Y-73509190D01*
X211764714Y-73509190D01*
X212669476Y-72985380D02*
X213288523Y-72985380D01*
X212955190Y-73366333D01*
X213098047Y-73366333D01*
X213193285Y-73413952D01*
X213240904Y-73461571D01*
X213288523Y-73556809D01*
X213288523Y-73794904D01*
X213240904Y-73890142D01*
X213193285Y-73937761D01*
X213098047Y-73985380D01*
X212812333Y-73985380D01*
X212717095Y-73937761D01*
X212669476Y-73890142D01*
X213669476Y-73080619D02*
X213717095Y-73033000D01*
X213812333Y-72985380D01*
X214050428Y-72985380D01*
X214145666Y-73033000D01*
X214193285Y-73080619D01*
X214240904Y-73175857D01*
X214240904Y-73271095D01*
X214193285Y-73413952D01*
X213621857Y-73985380D01*
X214240904Y-73985380D01*
G04 #@! TO.C,R33*
X231767142Y-73985380D02*
X231433809Y-73509190D01*
X231195714Y-73985380D02*
X231195714Y-72985380D01*
X231576666Y-72985380D01*
X231671904Y-73033000D01*
X231719523Y-73080619D01*
X231767142Y-73175857D01*
X231767142Y-73318714D01*
X231719523Y-73413952D01*
X231671904Y-73461571D01*
X231576666Y-73509190D01*
X231195714Y-73509190D01*
X232100476Y-72985380D02*
X232719523Y-72985380D01*
X232386190Y-73366333D01*
X232529047Y-73366333D01*
X232624285Y-73413952D01*
X232671904Y-73461571D01*
X232719523Y-73556809D01*
X232719523Y-73794904D01*
X232671904Y-73890142D01*
X232624285Y-73937761D01*
X232529047Y-73985380D01*
X232243333Y-73985380D01*
X232148095Y-73937761D01*
X232100476Y-73890142D01*
X233052857Y-72985380D02*
X233671904Y-72985380D01*
X233338571Y-73366333D01*
X233481428Y-73366333D01*
X233576666Y-73413952D01*
X233624285Y-73461571D01*
X233671904Y-73556809D01*
X233671904Y-73794904D01*
X233624285Y-73890142D01*
X233576666Y-73937761D01*
X233481428Y-73985380D01*
X233195714Y-73985380D01*
X233100476Y-73937761D01*
X233052857Y-73890142D01*
G04 #@! TO.C,R34*
X234688142Y-73985380D02*
X234354809Y-73509190D01*
X234116714Y-73985380D02*
X234116714Y-72985380D01*
X234497666Y-72985380D01*
X234592904Y-73033000D01*
X234640523Y-73080619D01*
X234688142Y-73175857D01*
X234688142Y-73318714D01*
X234640523Y-73413952D01*
X234592904Y-73461571D01*
X234497666Y-73509190D01*
X234116714Y-73509190D01*
X235021476Y-72985380D02*
X235640523Y-72985380D01*
X235307190Y-73366333D01*
X235450047Y-73366333D01*
X235545285Y-73413952D01*
X235592904Y-73461571D01*
X235640523Y-73556809D01*
X235640523Y-73794904D01*
X235592904Y-73890142D01*
X235545285Y-73937761D01*
X235450047Y-73985380D01*
X235164333Y-73985380D01*
X235069095Y-73937761D01*
X235021476Y-73890142D01*
X236497666Y-73318714D02*
X236497666Y-73985380D01*
X236259571Y-72937761D02*
X236021476Y-73652047D01*
X236640523Y-73652047D01*
G04 #@! TO.C,R35*
X232402142Y-76906380D02*
X232068809Y-76430190D01*
X231830714Y-76906380D02*
X231830714Y-75906380D01*
X232211666Y-75906380D01*
X232306904Y-75954000D01*
X232354523Y-76001619D01*
X232402142Y-76096857D01*
X232402142Y-76239714D01*
X232354523Y-76334952D01*
X232306904Y-76382571D01*
X232211666Y-76430190D01*
X231830714Y-76430190D01*
X232735476Y-75906380D02*
X233354523Y-75906380D01*
X233021190Y-76287333D01*
X233164047Y-76287333D01*
X233259285Y-76334952D01*
X233306904Y-76382571D01*
X233354523Y-76477809D01*
X233354523Y-76715904D01*
X233306904Y-76811142D01*
X233259285Y-76858761D01*
X233164047Y-76906380D01*
X232878333Y-76906380D01*
X232783095Y-76858761D01*
X232735476Y-76811142D01*
X234259285Y-75906380D02*
X233783095Y-75906380D01*
X233735476Y-76382571D01*
X233783095Y-76334952D01*
X233878333Y-76287333D01*
X234116428Y-76287333D01*
X234211666Y-76334952D01*
X234259285Y-76382571D01*
X234306904Y-76477809D01*
X234306904Y-76715904D01*
X234259285Y-76811142D01*
X234211666Y-76858761D01*
X234116428Y-76906380D01*
X233878333Y-76906380D01*
X233783095Y-76858761D01*
X233735476Y-76811142D01*
G04 #@! TO.C,R36*
X227830142Y-76906380D02*
X227496809Y-76430190D01*
X227258714Y-76906380D02*
X227258714Y-75906380D01*
X227639666Y-75906380D01*
X227734904Y-75954000D01*
X227782523Y-76001619D01*
X227830142Y-76096857D01*
X227830142Y-76239714D01*
X227782523Y-76334952D01*
X227734904Y-76382571D01*
X227639666Y-76430190D01*
X227258714Y-76430190D01*
X228163476Y-75906380D02*
X228782523Y-75906380D01*
X228449190Y-76287333D01*
X228592047Y-76287333D01*
X228687285Y-76334952D01*
X228734904Y-76382571D01*
X228782523Y-76477809D01*
X228782523Y-76715904D01*
X228734904Y-76811142D01*
X228687285Y-76858761D01*
X228592047Y-76906380D01*
X228306333Y-76906380D01*
X228211095Y-76858761D01*
X228163476Y-76811142D01*
X229639666Y-75906380D02*
X229449190Y-75906380D01*
X229353952Y-75954000D01*
X229306333Y-76001619D01*
X229211095Y-76144476D01*
X229163476Y-76334952D01*
X229163476Y-76715904D01*
X229211095Y-76811142D01*
X229258714Y-76858761D01*
X229353952Y-76906380D01*
X229544428Y-76906380D01*
X229639666Y-76858761D01*
X229687285Y-76811142D01*
X229734904Y-76715904D01*
X229734904Y-76477809D01*
X229687285Y-76382571D01*
X229639666Y-76334952D01*
X229544428Y-76287333D01*
X229353952Y-76287333D01*
X229258714Y-76334952D01*
X229211095Y-76382571D01*
X229163476Y-76477809D01*
G04 #@! TO.C,R37*
X225036142Y-76906380D02*
X224702809Y-76430190D01*
X224464714Y-76906380D02*
X224464714Y-75906380D01*
X224845666Y-75906380D01*
X224940904Y-75954000D01*
X224988523Y-76001619D01*
X225036142Y-76096857D01*
X225036142Y-76239714D01*
X224988523Y-76334952D01*
X224940904Y-76382571D01*
X224845666Y-76430190D01*
X224464714Y-76430190D01*
X225369476Y-75906380D02*
X225988523Y-75906380D01*
X225655190Y-76287333D01*
X225798047Y-76287333D01*
X225893285Y-76334952D01*
X225940904Y-76382571D01*
X225988523Y-76477809D01*
X225988523Y-76715904D01*
X225940904Y-76811142D01*
X225893285Y-76858761D01*
X225798047Y-76906380D01*
X225512333Y-76906380D01*
X225417095Y-76858761D01*
X225369476Y-76811142D01*
X226321857Y-75906380D02*
X226988523Y-75906380D01*
X226559952Y-76906380D01*
G04 #@! TO.C,R38*
X227830142Y-73985380D02*
X227496809Y-73509190D01*
X227258714Y-73985380D02*
X227258714Y-72985380D01*
X227639666Y-72985380D01*
X227734904Y-73033000D01*
X227782523Y-73080619D01*
X227830142Y-73175857D01*
X227830142Y-73318714D01*
X227782523Y-73413952D01*
X227734904Y-73461571D01*
X227639666Y-73509190D01*
X227258714Y-73509190D01*
X228163476Y-72985380D02*
X228782523Y-72985380D01*
X228449190Y-73366333D01*
X228592047Y-73366333D01*
X228687285Y-73413952D01*
X228734904Y-73461571D01*
X228782523Y-73556809D01*
X228782523Y-73794904D01*
X228734904Y-73890142D01*
X228687285Y-73937761D01*
X228592047Y-73985380D01*
X228306333Y-73985380D01*
X228211095Y-73937761D01*
X228163476Y-73890142D01*
X229353952Y-73413952D02*
X229258714Y-73366333D01*
X229211095Y-73318714D01*
X229163476Y-73223476D01*
X229163476Y-73175857D01*
X229211095Y-73080619D01*
X229258714Y-73033000D01*
X229353952Y-72985380D01*
X229544428Y-72985380D01*
X229639666Y-73033000D01*
X229687285Y-73080619D01*
X229734904Y-73175857D01*
X229734904Y-73223476D01*
X229687285Y-73318714D01*
X229639666Y-73366333D01*
X229544428Y-73413952D01*
X229353952Y-73413952D01*
X229258714Y-73461571D01*
X229211095Y-73509190D01*
X229163476Y-73604428D01*
X229163476Y-73794904D01*
X229211095Y-73890142D01*
X229258714Y-73937761D01*
X229353952Y-73985380D01*
X229544428Y-73985380D01*
X229639666Y-73937761D01*
X229687285Y-73890142D01*
X229734904Y-73794904D01*
X229734904Y-73604428D01*
X229687285Y-73509190D01*
X229639666Y-73461571D01*
X229544428Y-73413952D01*
G04 #@! TO.C,R39*
X225036142Y-73985380D02*
X224702809Y-73509190D01*
X224464714Y-73985380D02*
X224464714Y-72985380D01*
X224845666Y-72985380D01*
X224940904Y-73033000D01*
X224988523Y-73080619D01*
X225036142Y-73175857D01*
X225036142Y-73318714D01*
X224988523Y-73413952D01*
X224940904Y-73461571D01*
X224845666Y-73509190D01*
X224464714Y-73509190D01*
X225369476Y-72985380D02*
X225988523Y-72985380D01*
X225655190Y-73366333D01*
X225798047Y-73366333D01*
X225893285Y-73413952D01*
X225940904Y-73461571D01*
X225988523Y-73556809D01*
X225988523Y-73794904D01*
X225940904Y-73890142D01*
X225893285Y-73937761D01*
X225798047Y-73985380D01*
X225512333Y-73985380D01*
X225417095Y-73937761D01*
X225369476Y-73890142D01*
X226464714Y-73985380D02*
X226655190Y-73985380D01*
X226750428Y-73937761D01*
X226798047Y-73890142D01*
X226893285Y-73747285D01*
X226940904Y-73556809D01*
X226940904Y-73175857D01*
X226893285Y-73080619D01*
X226845666Y-73033000D01*
X226750428Y-72985380D01*
X226559952Y-72985380D01*
X226464714Y-73033000D01*
X226417095Y-73080619D01*
X226369476Y-73175857D01*
X226369476Y-73413952D01*
X226417095Y-73509190D01*
X226464714Y-73556809D01*
X226559952Y-73604428D01*
X226750428Y-73604428D01*
X226845666Y-73556809D01*
X226893285Y-73509190D01*
X226940904Y-73413952D01*
G04 #@! TO.C,R40*
X244594142Y-73985380D02*
X244260809Y-73509190D01*
X244022714Y-73985380D02*
X244022714Y-72985380D01*
X244403666Y-72985380D01*
X244498904Y-73033000D01*
X244546523Y-73080619D01*
X244594142Y-73175857D01*
X244594142Y-73318714D01*
X244546523Y-73413952D01*
X244498904Y-73461571D01*
X244403666Y-73509190D01*
X244022714Y-73509190D01*
X245451285Y-73318714D02*
X245451285Y-73985380D01*
X245213190Y-72937761D02*
X244975095Y-73652047D01*
X245594142Y-73652047D01*
X246165571Y-72985380D02*
X246260809Y-72985380D01*
X246356047Y-73033000D01*
X246403666Y-73080619D01*
X246451285Y-73175857D01*
X246498904Y-73366333D01*
X246498904Y-73604428D01*
X246451285Y-73794904D01*
X246403666Y-73890142D01*
X246356047Y-73937761D01*
X246260809Y-73985380D01*
X246165571Y-73985380D01*
X246070333Y-73937761D01*
X246022714Y-73890142D01*
X245975095Y-73794904D01*
X245927476Y-73604428D01*
X245927476Y-73366333D01*
X245975095Y-73175857D01*
X246022714Y-73080619D01*
X246070333Y-73033000D01*
X246165571Y-72985380D01*
G04 #@! TO.C,R41*
X247388142Y-73985380D02*
X247054809Y-73509190D01*
X246816714Y-73985380D02*
X246816714Y-72985380D01*
X247197666Y-72985380D01*
X247292904Y-73033000D01*
X247340523Y-73080619D01*
X247388142Y-73175857D01*
X247388142Y-73318714D01*
X247340523Y-73413952D01*
X247292904Y-73461571D01*
X247197666Y-73509190D01*
X246816714Y-73509190D01*
X248245285Y-73318714D02*
X248245285Y-73985380D01*
X248007190Y-72937761D02*
X247769095Y-73652047D01*
X248388142Y-73652047D01*
X249292904Y-73985380D02*
X248721476Y-73985380D01*
X249007190Y-73985380D02*
X249007190Y-72985380D01*
X248911952Y-73128238D01*
X248816714Y-73223476D01*
X248721476Y-73271095D01*
G04 #@! TO.C,R42*
X245102142Y-76906380D02*
X244768809Y-76430190D01*
X244530714Y-76906380D02*
X244530714Y-75906380D01*
X244911666Y-75906380D01*
X245006904Y-75954000D01*
X245054523Y-76001619D01*
X245102142Y-76096857D01*
X245102142Y-76239714D01*
X245054523Y-76334952D01*
X245006904Y-76382571D01*
X244911666Y-76430190D01*
X244530714Y-76430190D01*
X245959285Y-76239714D02*
X245959285Y-76906380D01*
X245721190Y-75858761D02*
X245483095Y-76573047D01*
X246102142Y-76573047D01*
X246435476Y-76001619D02*
X246483095Y-75954000D01*
X246578333Y-75906380D01*
X246816428Y-75906380D01*
X246911666Y-75954000D01*
X246959285Y-76001619D01*
X247006904Y-76096857D01*
X247006904Y-76192095D01*
X246959285Y-76334952D01*
X246387857Y-76906380D01*
X247006904Y-76906380D01*
G04 #@! TO.C,R43*
X240530142Y-76906380D02*
X240196809Y-76430190D01*
X239958714Y-76906380D02*
X239958714Y-75906380D01*
X240339666Y-75906380D01*
X240434904Y-75954000D01*
X240482523Y-76001619D01*
X240530142Y-76096857D01*
X240530142Y-76239714D01*
X240482523Y-76334952D01*
X240434904Y-76382571D01*
X240339666Y-76430190D01*
X239958714Y-76430190D01*
X241387285Y-76239714D02*
X241387285Y-76906380D01*
X241149190Y-75858761D02*
X240911095Y-76573047D01*
X241530142Y-76573047D01*
X241815857Y-75906380D02*
X242434904Y-75906380D01*
X242101571Y-76287333D01*
X242244428Y-76287333D01*
X242339666Y-76334952D01*
X242387285Y-76382571D01*
X242434904Y-76477809D01*
X242434904Y-76715904D01*
X242387285Y-76811142D01*
X242339666Y-76858761D01*
X242244428Y-76906380D01*
X241958714Y-76906380D01*
X241863476Y-76858761D01*
X241815857Y-76811142D01*
G04 #@! TO.C,R44*
X237736142Y-76906380D02*
X237402809Y-76430190D01*
X237164714Y-76906380D02*
X237164714Y-75906380D01*
X237545666Y-75906380D01*
X237640904Y-75954000D01*
X237688523Y-76001619D01*
X237736142Y-76096857D01*
X237736142Y-76239714D01*
X237688523Y-76334952D01*
X237640904Y-76382571D01*
X237545666Y-76430190D01*
X237164714Y-76430190D01*
X238593285Y-76239714D02*
X238593285Y-76906380D01*
X238355190Y-75858761D02*
X238117095Y-76573047D01*
X238736142Y-76573047D01*
X239545666Y-76239714D02*
X239545666Y-76906380D01*
X239307571Y-75858761D02*
X239069476Y-76573047D01*
X239688523Y-76573047D01*
G04 #@! TO.C,R45*
X240530142Y-73985380D02*
X240196809Y-73509190D01*
X239958714Y-73985380D02*
X239958714Y-72985380D01*
X240339666Y-72985380D01*
X240434904Y-73033000D01*
X240482523Y-73080619D01*
X240530142Y-73175857D01*
X240530142Y-73318714D01*
X240482523Y-73413952D01*
X240434904Y-73461571D01*
X240339666Y-73509190D01*
X239958714Y-73509190D01*
X241387285Y-73318714D02*
X241387285Y-73985380D01*
X241149190Y-72937761D02*
X240911095Y-73652047D01*
X241530142Y-73652047D01*
X242387285Y-72985380D02*
X241911095Y-72985380D01*
X241863476Y-73461571D01*
X241911095Y-73413952D01*
X242006333Y-73366333D01*
X242244428Y-73366333D01*
X242339666Y-73413952D01*
X242387285Y-73461571D01*
X242434904Y-73556809D01*
X242434904Y-73794904D01*
X242387285Y-73890142D01*
X242339666Y-73937761D01*
X242244428Y-73985380D01*
X242006333Y-73985380D01*
X241911095Y-73937761D01*
X241863476Y-73890142D01*
G04 #@! TO.C,R46*
X237736142Y-73985380D02*
X237402809Y-73509190D01*
X237164714Y-73985380D02*
X237164714Y-72985380D01*
X237545666Y-72985380D01*
X237640904Y-73033000D01*
X237688523Y-73080619D01*
X237736142Y-73175857D01*
X237736142Y-73318714D01*
X237688523Y-73413952D01*
X237640904Y-73461571D01*
X237545666Y-73509190D01*
X237164714Y-73509190D01*
X238593285Y-73318714D02*
X238593285Y-73985380D01*
X238355190Y-72937761D02*
X238117095Y-73652047D01*
X238736142Y-73652047D01*
X239545666Y-72985380D02*
X239355190Y-72985380D01*
X239259952Y-73033000D01*
X239212333Y-73080619D01*
X239117095Y-73223476D01*
X239069476Y-73413952D01*
X239069476Y-73794904D01*
X239117095Y-73890142D01*
X239164714Y-73937761D01*
X239259952Y-73985380D01*
X239450428Y-73985380D01*
X239545666Y-73937761D01*
X239593285Y-73890142D01*
X239640904Y-73794904D01*
X239640904Y-73556809D01*
X239593285Y-73461571D01*
X239545666Y-73413952D01*
X239450428Y-73366333D01*
X239259952Y-73366333D01*
X239164714Y-73413952D01*
X239117095Y-73461571D01*
X239069476Y-73556809D01*
G04 #@! TO.C,R47*
X206367142Y-108910380D02*
X206033809Y-108434190D01*
X205795714Y-108910380D02*
X205795714Y-107910380D01*
X206176666Y-107910380D01*
X206271904Y-107958000D01*
X206319523Y-108005619D01*
X206367142Y-108100857D01*
X206367142Y-108243714D01*
X206319523Y-108338952D01*
X206271904Y-108386571D01*
X206176666Y-108434190D01*
X205795714Y-108434190D01*
X207224285Y-108243714D02*
X207224285Y-108910380D01*
X206986190Y-107862761D02*
X206748095Y-108577047D01*
X207367142Y-108577047D01*
X207652857Y-107910380D02*
X208319523Y-107910380D01*
X207890952Y-108910380D01*
G04 #@! TO.C,R48*
X209288142Y-108910380D02*
X208954809Y-108434190D01*
X208716714Y-108910380D02*
X208716714Y-107910380D01*
X209097666Y-107910380D01*
X209192904Y-107958000D01*
X209240523Y-108005619D01*
X209288142Y-108100857D01*
X209288142Y-108243714D01*
X209240523Y-108338952D01*
X209192904Y-108386571D01*
X209097666Y-108434190D01*
X208716714Y-108434190D01*
X210145285Y-108243714D02*
X210145285Y-108910380D01*
X209907190Y-107862761D02*
X209669095Y-108577047D01*
X210288142Y-108577047D01*
X210811952Y-108338952D02*
X210716714Y-108291333D01*
X210669095Y-108243714D01*
X210621476Y-108148476D01*
X210621476Y-108100857D01*
X210669095Y-108005619D01*
X210716714Y-107958000D01*
X210811952Y-107910380D01*
X211002428Y-107910380D01*
X211097666Y-107958000D01*
X211145285Y-108005619D01*
X211192904Y-108100857D01*
X211192904Y-108148476D01*
X211145285Y-108243714D01*
X211097666Y-108291333D01*
X211002428Y-108338952D01*
X210811952Y-108338952D01*
X210716714Y-108386571D01*
X210669095Y-108434190D01*
X210621476Y-108529428D01*
X210621476Y-108719904D01*
X210669095Y-108815142D01*
X210716714Y-108862761D01*
X210811952Y-108910380D01*
X211002428Y-108910380D01*
X211097666Y-108862761D01*
X211145285Y-108815142D01*
X211192904Y-108719904D01*
X211192904Y-108529428D01*
X211145285Y-108434190D01*
X211097666Y-108386571D01*
X211002428Y-108338952D01*
G04 #@! TO.C,R49*
X206494142Y-111831380D02*
X206160809Y-111355190D01*
X205922714Y-111831380D02*
X205922714Y-110831380D01*
X206303666Y-110831380D01*
X206398904Y-110879000D01*
X206446523Y-110926619D01*
X206494142Y-111021857D01*
X206494142Y-111164714D01*
X206446523Y-111259952D01*
X206398904Y-111307571D01*
X206303666Y-111355190D01*
X205922714Y-111355190D01*
X207351285Y-111164714D02*
X207351285Y-111831380D01*
X207113190Y-110783761D02*
X206875095Y-111498047D01*
X207494142Y-111498047D01*
X207922714Y-111831380D02*
X208113190Y-111831380D01*
X208208428Y-111783761D01*
X208256047Y-111736142D01*
X208351285Y-111593285D01*
X208398904Y-111402809D01*
X208398904Y-111021857D01*
X208351285Y-110926619D01*
X208303666Y-110879000D01*
X208208428Y-110831380D01*
X208017952Y-110831380D01*
X207922714Y-110879000D01*
X207875095Y-110926619D01*
X207827476Y-111021857D01*
X207827476Y-111259952D01*
X207875095Y-111355190D01*
X207922714Y-111402809D01*
X208017952Y-111450428D01*
X208208428Y-111450428D01*
X208303666Y-111402809D01*
X208351285Y-111355190D01*
X208398904Y-111259952D01*
G04 #@! TO.C,R50*
X202430142Y-111831380D02*
X202096809Y-111355190D01*
X201858714Y-111831380D02*
X201858714Y-110831380D01*
X202239666Y-110831380D01*
X202334904Y-110879000D01*
X202382523Y-110926619D01*
X202430142Y-111021857D01*
X202430142Y-111164714D01*
X202382523Y-111259952D01*
X202334904Y-111307571D01*
X202239666Y-111355190D01*
X201858714Y-111355190D01*
X203334904Y-110831380D02*
X202858714Y-110831380D01*
X202811095Y-111307571D01*
X202858714Y-111259952D01*
X202953952Y-111212333D01*
X203192047Y-111212333D01*
X203287285Y-111259952D01*
X203334904Y-111307571D01*
X203382523Y-111402809D01*
X203382523Y-111640904D01*
X203334904Y-111736142D01*
X203287285Y-111783761D01*
X203192047Y-111831380D01*
X202953952Y-111831380D01*
X202858714Y-111783761D01*
X202811095Y-111736142D01*
X204001571Y-110831380D02*
X204096809Y-110831380D01*
X204192047Y-110879000D01*
X204239666Y-110926619D01*
X204287285Y-111021857D01*
X204334904Y-111212333D01*
X204334904Y-111450428D01*
X204287285Y-111640904D01*
X204239666Y-111736142D01*
X204192047Y-111783761D01*
X204096809Y-111831380D01*
X204001571Y-111831380D01*
X203906333Y-111783761D01*
X203858714Y-111736142D01*
X203811095Y-111640904D01*
X203763476Y-111450428D01*
X203763476Y-111212333D01*
X203811095Y-111021857D01*
X203858714Y-110926619D01*
X203906333Y-110879000D01*
X204001571Y-110831380D01*
G04 #@! TO.C,R51*
X199636142Y-111831380D02*
X199302809Y-111355190D01*
X199064714Y-111831380D02*
X199064714Y-110831380D01*
X199445666Y-110831380D01*
X199540904Y-110879000D01*
X199588523Y-110926619D01*
X199636142Y-111021857D01*
X199636142Y-111164714D01*
X199588523Y-111259952D01*
X199540904Y-111307571D01*
X199445666Y-111355190D01*
X199064714Y-111355190D01*
X200540904Y-110831380D02*
X200064714Y-110831380D01*
X200017095Y-111307571D01*
X200064714Y-111259952D01*
X200159952Y-111212333D01*
X200398047Y-111212333D01*
X200493285Y-111259952D01*
X200540904Y-111307571D01*
X200588523Y-111402809D01*
X200588523Y-111640904D01*
X200540904Y-111736142D01*
X200493285Y-111783761D01*
X200398047Y-111831380D01*
X200159952Y-111831380D01*
X200064714Y-111783761D01*
X200017095Y-111736142D01*
X201540904Y-111831380D02*
X200969476Y-111831380D01*
X201255190Y-111831380D02*
X201255190Y-110831380D01*
X201159952Y-110974238D01*
X201064714Y-111069476D01*
X200969476Y-111117095D01*
G04 #@! TO.C,R52*
X202430142Y-108910380D02*
X202096809Y-108434190D01*
X201858714Y-108910380D02*
X201858714Y-107910380D01*
X202239666Y-107910380D01*
X202334904Y-107958000D01*
X202382523Y-108005619D01*
X202430142Y-108100857D01*
X202430142Y-108243714D01*
X202382523Y-108338952D01*
X202334904Y-108386571D01*
X202239666Y-108434190D01*
X201858714Y-108434190D01*
X203334904Y-107910380D02*
X202858714Y-107910380D01*
X202811095Y-108386571D01*
X202858714Y-108338952D01*
X202953952Y-108291333D01*
X203192047Y-108291333D01*
X203287285Y-108338952D01*
X203334904Y-108386571D01*
X203382523Y-108481809D01*
X203382523Y-108719904D01*
X203334904Y-108815142D01*
X203287285Y-108862761D01*
X203192047Y-108910380D01*
X202953952Y-108910380D01*
X202858714Y-108862761D01*
X202811095Y-108815142D01*
X203763476Y-108005619D02*
X203811095Y-107958000D01*
X203906333Y-107910380D01*
X204144428Y-107910380D01*
X204239666Y-107958000D01*
X204287285Y-108005619D01*
X204334904Y-108100857D01*
X204334904Y-108196095D01*
X204287285Y-108338952D01*
X203715857Y-108910380D01*
X204334904Y-108910380D01*
G04 #@! TO.C,R53*
X199636142Y-108910380D02*
X199302809Y-108434190D01*
X199064714Y-108910380D02*
X199064714Y-107910380D01*
X199445666Y-107910380D01*
X199540904Y-107958000D01*
X199588523Y-108005619D01*
X199636142Y-108100857D01*
X199636142Y-108243714D01*
X199588523Y-108338952D01*
X199540904Y-108386571D01*
X199445666Y-108434190D01*
X199064714Y-108434190D01*
X200540904Y-107910380D02*
X200064714Y-107910380D01*
X200017095Y-108386571D01*
X200064714Y-108338952D01*
X200159952Y-108291333D01*
X200398047Y-108291333D01*
X200493285Y-108338952D01*
X200540904Y-108386571D01*
X200588523Y-108481809D01*
X200588523Y-108719904D01*
X200540904Y-108815142D01*
X200493285Y-108862761D01*
X200398047Y-108910380D01*
X200159952Y-108910380D01*
X200064714Y-108862761D01*
X200017095Y-108815142D01*
X200921857Y-107910380D02*
X201540904Y-107910380D01*
X201207571Y-108291333D01*
X201350428Y-108291333D01*
X201445666Y-108338952D01*
X201493285Y-108386571D01*
X201540904Y-108481809D01*
X201540904Y-108719904D01*
X201493285Y-108815142D01*
X201445666Y-108862761D01*
X201350428Y-108910380D01*
X201064714Y-108910380D01*
X200969476Y-108862761D01*
X200921857Y-108815142D01*
G04 #@! TO.C,R54*
X219194142Y-108910380D02*
X218860809Y-108434190D01*
X218622714Y-108910380D02*
X218622714Y-107910380D01*
X219003666Y-107910380D01*
X219098904Y-107958000D01*
X219146523Y-108005619D01*
X219194142Y-108100857D01*
X219194142Y-108243714D01*
X219146523Y-108338952D01*
X219098904Y-108386571D01*
X219003666Y-108434190D01*
X218622714Y-108434190D01*
X220098904Y-107910380D02*
X219622714Y-107910380D01*
X219575095Y-108386571D01*
X219622714Y-108338952D01*
X219717952Y-108291333D01*
X219956047Y-108291333D01*
X220051285Y-108338952D01*
X220098904Y-108386571D01*
X220146523Y-108481809D01*
X220146523Y-108719904D01*
X220098904Y-108815142D01*
X220051285Y-108862761D01*
X219956047Y-108910380D01*
X219717952Y-108910380D01*
X219622714Y-108862761D01*
X219575095Y-108815142D01*
X221003666Y-108243714D02*
X221003666Y-108910380D01*
X220765571Y-107862761D02*
X220527476Y-108577047D01*
X221146523Y-108577047D01*
G04 #@! TO.C,R55*
X221988142Y-108910380D02*
X221654809Y-108434190D01*
X221416714Y-108910380D02*
X221416714Y-107910380D01*
X221797666Y-107910380D01*
X221892904Y-107958000D01*
X221940523Y-108005619D01*
X221988142Y-108100857D01*
X221988142Y-108243714D01*
X221940523Y-108338952D01*
X221892904Y-108386571D01*
X221797666Y-108434190D01*
X221416714Y-108434190D01*
X222892904Y-107910380D02*
X222416714Y-107910380D01*
X222369095Y-108386571D01*
X222416714Y-108338952D01*
X222511952Y-108291333D01*
X222750047Y-108291333D01*
X222845285Y-108338952D01*
X222892904Y-108386571D01*
X222940523Y-108481809D01*
X222940523Y-108719904D01*
X222892904Y-108815142D01*
X222845285Y-108862761D01*
X222750047Y-108910380D01*
X222511952Y-108910380D01*
X222416714Y-108862761D01*
X222369095Y-108815142D01*
X223845285Y-107910380D02*
X223369095Y-107910380D01*
X223321476Y-108386571D01*
X223369095Y-108338952D01*
X223464333Y-108291333D01*
X223702428Y-108291333D01*
X223797666Y-108338952D01*
X223845285Y-108386571D01*
X223892904Y-108481809D01*
X223892904Y-108719904D01*
X223845285Y-108815142D01*
X223797666Y-108862761D01*
X223702428Y-108910380D01*
X223464333Y-108910380D01*
X223369095Y-108862761D01*
X223321476Y-108815142D01*
G04 #@! TO.C,R56*
X219194142Y-111831380D02*
X218860809Y-111355190D01*
X218622714Y-111831380D02*
X218622714Y-110831380D01*
X219003666Y-110831380D01*
X219098904Y-110879000D01*
X219146523Y-110926619D01*
X219194142Y-111021857D01*
X219194142Y-111164714D01*
X219146523Y-111259952D01*
X219098904Y-111307571D01*
X219003666Y-111355190D01*
X218622714Y-111355190D01*
X220098904Y-110831380D02*
X219622714Y-110831380D01*
X219575095Y-111307571D01*
X219622714Y-111259952D01*
X219717952Y-111212333D01*
X219956047Y-111212333D01*
X220051285Y-111259952D01*
X220098904Y-111307571D01*
X220146523Y-111402809D01*
X220146523Y-111640904D01*
X220098904Y-111736142D01*
X220051285Y-111783761D01*
X219956047Y-111831380D01*
X219717952Y-111831380D01*
X219622714Y-111783761D01*
X219575095Y-111736142D01*
X221003666Y-110831380D02*
X220813190Y-110831380D01*
X220717952Y-110879000D01*
X220670333Y-110926619D01*
X220575095Y-111069476D01*
X220527476Y-111259952D01*
X220527476Y-111640904D01*
X220575095Y-111736142D01*
X220622714Y-111783761D01*
X220717952Y-111831380D01*
X220908428Y-111831380D01*
X221003666Y-111783761D01*
X221051285Y-111736142D01*
X221098904Y-111640904D01*
X221098904Y-111402809D01*
X221051285Y-111307571D01*
X221003666Y-111259952D01*
X220908428Y-111212333D01*
X220717952Y-111212333D01*
X220622714Y-111259952D01*
X220575095Y-111307571D01*
X220527476Y-111402809D01*
G04 #@! TO.C,R57*
X215257142Y-111831380D02*
X214923809Y-111355190D01*
X214685714Y-111831380D02*
X214685714Y-110831380D01*
X215066666Y-110831380D01*
X215161904Y-110879000D01*
X215209523Y-110926619D01*
X215257142Y-111021857D01*
X215257142Y-111164714D01*
X215209523Y-111259952D01*
X215161904Y-111307571D01*
X215066666Y-111355190D01*
X214685714Y-111355190D01*
X216161904Y-110831380D02*
X215685714Y-110831380D01*
X215638095Y-111307571D01*
X215685714Y-111259952D01*
X215780952Y-111212333D01*
X216019047Y-111212333D01*
X216114285Y-111259952D01*
X216161904Y-111307571D01*
X216209523Y-111402809D01*
X216209523Y-111640904D01*
X216161904Y-111736142D01*
X216114285Y-111783761D01*
X216019047Y-111831380D01*
X215780952Y-111831380D01*
X215685714Y-111783761D01*
X215638095Y-111736142D01*
X216542857Y-110831380D02*
X217209523Y-110831380D01*
X216780952Y-111831380D01*
G04 #@! TO.C,R58*
X212336142Y-111831380D02*
X212002809Y-111355190D01*
X211764714Y-111831380D02*
X211764714Y-110831380D01*
X212145666Y-110831380D01*
X212240904Y-110879000D01*
X212288523Y-110926619D01*
X212336142Y-111021857D01*
X212336142Y-111164714D01*
X212288523Y-111259952D01*
X212240904Y-111307571D01*
X212145666Y-111355190D01*
X211764714Y-111355190D01*
X213240904Y-110831380D02*
X212764714Y-110831380D01*
X212717095Y-111307571D01*
X212764714Y-111259952D01*
X212859952Y-111212333D01*
X213098047Y-111212333D01*
X213193285Y-111259952D01*
X213240904Y-111307571D01*
X213288523Y-111402809D01*
X213288523Y-111640904D01*
X213240904Y-111736142D01*
X213193285Y-111783761D01*
X213098047Y-111831380D01*
X212859952Y-111831380D01*
X212764714Y-111783761D01*
X212717095Y-111736142D01*
X213859952Y-111259952D02*
X213764714Y-111212333D01*
X213717095Y-111164714D01*
X213669476Y-111069476D01*
X213669476Y-111021857D01*
X213717095Y-110926619D01*
X213764714Y-110879000D01*
X213859952Y-110831380D01*
X214050428Y-110831380D01*
X214145666Y-110879000D01*
X214193285Y-110926619D01*
X214240904Y-111021857D01*
X214240904Y-111069476D01*
X214193285Y-111164714D01*
X214145666Y-111212333D01*
X214050428Y-111259952D01*
X213859952Y-111259952D01*
X213764714Y-111307571D01*
X213717095Y-111355190D01*
X213669476Y-111450428D01*
X213669476Y-111640904D01*
X213717095Y-111736142D01*
X213764714Y-111783761D01*
X213859952Y-111831380D01*
X214050428Y-111831380D01*
X214145666Y-111783761D01*
X214193285Y-111736142D01*
X214240904Y-111640904D01*
X214240904Y-111450428D01*
X214193285Y-111355190D01*
X214145666Y-111307571D01*
X214050428Y-111259952D01*
G04 #@! TO.C,R59*
X215257142Y-108910380D02*
X214923809Y-108434190D01*
X214685714Y-108910380D02*
X214685714Y-107910380D01*
X215066666Y-107910380D01*
X215161904Y-107958000D01*
X215209523Y-108005619D01*
X215257142Y-108100857D01*
X215257142Y-108243714D01*
X215209523Y-108338952D01*
X215161904Y-108386571D01*
X215066666Y-108434190D01*
X214685714Y-108434190D01*
X216161904Y-107910380D02*
X215685714Y-107910380D01*
X215638095Y-108386571D01*
X215685714Y-108338952D01*
X215780952Y-108291333D01*
X216019047Y-108291333D01*
X216114285Y-108338952D01*
X216161904Y-108386571D01*
X216209523Y-108481809D01*
X216209523Y-108719904D01*
X216161904Y-108815142D01*
X216114285Y-108862761D01*
X216019047Y-108910380D01*
X215780952Y-108910380D01*
X215685714Y-108862761D01*
X215638095Y-108815142D01*
X216685714Y-108910380D02*
X216876190Y-108910380D01*
X216971428Y-108862761D01*
X217019047Y-108815142D01*
X217114285Y-108672285D01*
X217161904Y-108481809D01*
X217161904Y-108100857D01*
X217114285Y-108005619D01*
X217066666Y-107958000D01*
X216971428Y-107910380D01*
X216780952Y-107910380D01*
X216685714Y-107958000D01*
X216638095Y-108005619D01*
X216590476Y-108100857D01*
X216590476Y-108338952D01*
X216638095Y-108434190D01*
X216685714Y-108481809D01*
X216780952Y-108529428D01*
X216971428Y-108529428D01*
X217066666Y-108481809D01*
X217114285Y-108434190D01*
X217161904Y-108338952D01*
G04 #@! TO.C,R60*
X212336142Y-108910380D02*
X212002809Y-108434190D01*
X211764714Y-108910380D02*
X211764714Y-107910380D01*
X212145666Y-107910380D01*
X212240904Y-107958000D01*
X212288523Y-108005619D01*
X212336142Y-108100857D01*
X212336142Y-108243714D01*
X212288523Y-108338952D01*
X212240904Y-108386571D01*
X212145666Y-108434190D01*
X211764714Y-108434190D01*
X213193285Y-107910380D02*
X213002809Y-107910380D01*
X212907571Y-107958000D01*
X212859952Y-108005619D01*
X212764714Y-108148476D01*
X212717095Y-108338952D01*
X212717095Y-108719904D01*
X212764714Y-108815142D01*
X212812333Y-108862761D01*
X212907571Y-108910380D01*
X213098047Y-108910380D01*
X213193285Y-108862761D01*
X213240904Y-108815142D01*
X213288523Y-108719904D01*
X213288523Y-108481809D01*
X213240904Y-108386571D01*
X213193285Y-108338952D01*
X213098047Y-108291333D01*
X212907571Y-108291333D01*
X212812333Y-108338952D01*
X212764714Y-108386571D01*
X212717095Y-108481809D01*
X213907571Y-107910380D02*
X214002809Y-107910380D01*
X214098047Y-107958000D01*
X214145666Y-108005619D01*
X214193285Y-108100857D01*
X214240904Y-108291333D01*
X214240904Y-108529428D01*
X214193285Y-108719904D01*
X214145666Y-108815142D01*
X214098047Y-108862761D01*
X214002809Y-108910380D01*
X213907571Y-108910380D01*
X213812333Y-108862761D01*
X213764714Y-108815142D01*
X213717095Y-108719904D01*
X213669476Y-108529428D01*
X213669476Y-108291333D01*
X213717095Y-108100857D01*
X213764714Y-108005619D01*
X213812333Y-107958000D01*
X213907571Y-107910380D01*
G04 #@! TO.C,R61*
X231894142Y-108910380D02*
X231560809Y-108434190D01*
X231322714Y-108910380D02*
X231322714Y-107910380D01*
X231703666Y-107910380D01*
X231798904Y-107958000D01*
X231846523Y-108005619D01*
X231894142Y-108100857D01*
X231894142Y-108243714D01*
X231846523Y-108338952D01*
X231798904Y-108386571D01*
X231703666Y-108434190D01*
X231322714Y-108434190D01*
X232751285Y-107910380D02*
X232560809Y-107910380D01*
X232465571Y-107958000D01*
X232417952Y-108005619D01*
X232322714Y-108148476D01*
X232275095Y-108338952D01*
X232275095Y-108719904D01*
X232322714Y-108815142D01*
X232370333Y-108862761D01*
X232465571Y-108910380D01*
X232656047Y-108910380D01*
X232751285Y-108862761D01*
X232798904Y-108815142D01*
X232846523Y-108719904D01*
X232846523Y-108481809D01*
X232798904Y-108386571D01*
X232751285Y-108338952D01*
X232656047Y-108291333D01*
X232465571Y-108291333D01*
X232370333Y-108338952D01*
X232322714Y-108386571D01*
X232275095Y-108481809D01*
X233798904Y-108910380D02*
X233227476Y-108910380D01*
X233513190Y-108910380D02*
X233513190Y-107910380D01*
X233417952Y-108053238D01*
X233322714Y-108148476D01*
X233227476Y-108196095D01*
G04 #@! TO.C,R62*
X234688142Y-108910380D02*
X234354809Y-108434190D01*
X234116714Y-108910380D02*
X234116714Y-107910380D01*
X234497666Y-107910380D01*
X234592904Y-107958000D01*
X234640523Y-108005619D01*
X234688142Y-108100857D01*
X234688142Y-108243714D01*
X234640523Y-108338952D01*
X234592904Y-108386571D01*
X234497666Y-108434190D01*
X234116714Y-108434190D01*
X235545285Y-107910380D02*
X235354809Y-107910380D01*
X235259571Y-107958000D01*
X235211952Y-108005619D01*
X235116714Y-108148476D01*
X235069095Y-108338952D01*
X235069095Y-108719904D01*
X235116714Y-108815142D01*
X235164333Y-108862761D01*
X235259571Y-108910380D01*
X235450047Y-108910380D01*
X235545285Y-108862761D01*
X235592904Y-108815142D01*
X235640523Y-108719904D01*
X235640523Y-108481809D01*
X235592904Y-108386571D01*
X235545285Y-108338952D01*
X235450047Y-108291333D01*
X235259571Y-108291333D01*
X235164333Y-108338952D01*
X235116714Y-108386571D01*
X235069095Y-108481809D01*
X236021476Y-108005619D02*
X236069095Y-107958000D01*
X236164333Y-107910380D01*
X236402428Y-107910380D01*
X236497666Y-107958000D01*
X236545285Y-108005619D01*
X236592904Y-108100857D01*
X236592904Y-108196095D01*
X236545285Y-108338952D01*
X235973857Y-108910380D01*
X236592904Y-108910380D01*
G04 #@! TO.C,R63*
X231894142Y-111831380D02*
X231560809Y-111355190D01*
X231322714Y-111831380D02*
X231322714Y-110831380D01*
X231703666Y-110831380D01*
X231798904Y-110879000D01*
X231846523Y-110926619D01*
X231894142Y-111021857D01*
X231894142Y-111164714D01*
X231846523Y-111259952D01*
X231798904Y-111307571D01*
X231703666Y-111355190D01*
X231322714Y-111355190D01*
X232751285Y-110831380D02*
X232560809Y-110831380D01*
X232465571Y-110879000D01*
X232417952Y-110926619D01*
X232322714Y-111069476D01*
X232275095Y-111259952D01*
X232275095Y-111640904D01*
X232322714Y-111736142D01*
X232370333Y-111783761D01*
X232465571Y-111831380D01*
X232656047Y-111831380D01*
X232751285Y-111783761D01*
X232798904Y-111736142D01*
X232846523Y-111640904D01*
X232846523Y-111402809D01*
X232798904Y-111307571D01*
X232751285Y-111259952D01*
X232656047Y-111212333D01*
X232465571Y-111212333D01*
X232370333Y-111259952D01*
X232322714Y-111307571D01*
X232275095Y-111402809D01*
X233179857Y-110831380D02*
X233798904Y-110831380D01*
X233465571Y-111212333D01*
X233608428Y-111212333D01*
X233703666Y-111259952D01*
X233751285Y-111307571D01*
X233798904Y-111402809D01*
X233798904Y-111640904D01*
X233751285Y-111736142D01*
X233703666Y-111783761D01*
X233608428Y-111831380D01*
X233322714Y-111831380D01*
X233227476Y-111783761D01*
X233179857Y-111736142D01*
G04 #@! TO.C,R64*
X227830142Y-111831380D02*
X227496809Y-111355190D01*
X227258714Y-111831380D02*
X227258714Y-110831380D01*
X227639666Y-110831380D01*
X227734904Y-110879000D01*
X227782523Y-110926619D01*
X227830142Y-111021857D01*
X227830142Y-111164714D01*
X227782523Y-111259952D01*
X227734904Y-111307571D01*
X227639666Y-111355190D01*
X227258714Y-111355190D01*
X228687285Y-110831380D02*
X228496809Y-110831380D01*
X228401571Y-110879000D01*
X228353952Y-110926619D01*
X228258714Y-111069476D01*
X228211095Y-111259952D01*
X228211095Y-111640904D01*
X228258714Y-111736142D01*
X228306333Y-111783761D01*
X228401571Y-111831380D01*
X228592047Y-111831380D01*
X228687285Y-111783761D01*
X228734904Y-111736142D01*
X228782523Y-111640904D01*
X228782523Y-111402809D01*
X228734904Y-111307571D01*
X228687285Y-111259952D01*
X228592047Y-111212333D01*
X228401571Y-111212333D01*
X228306333Y-111259952D01*
X228258714Y-111307571D01*
X228211095Y-111402809D01*
X229639666Y-111164714D02*
X229639666Y-111831380D01*
X229401571Y-110783761D02*
X229163476Y-111498047D01*
X229782523Y-111498047D01*
G04 #@! TO.C,R65*
X225036142Y-111831380D02*
X224702809Y-111355190D01*
X224464714Y-111831380D02*
X224464714Y-110831380D01*
X224845666Y-110831380D01*
X224940904Y-110879000D01*
X224988523Y-110926619D01*
X225036142Y-111021857D01*
X225036142Y-111164714D01*
X224988523Y-111259952D01*
X224940904Y-111307571D01*
X224845666Y-111355190D01*
X224464714Y-111355190D01*
X225893285Y-110831380D02*
X225702809Y-110831380D01*
X225607571Y-110879000D01*
X225559952Y-110926619D01*
X225464714Y-111069476D01*
X225417095Y-111259952D01*
X225417095Y-111640904D01*
X225464714Y-111736142D01*
X225512333Y-111783761D01*
X225607571Y-111831380D01*
X225798047Y-111831380D01*
X225893285Y-111783761D01*
X225940904Y-111736142D01*
X225988523Y-111640904D01*
X225988523Y-111402809D01*
X225940904Y-111307571D01*
X225893285Y-111259952D01*
X225798047Y-111212333D01*
X225607571Y-111212333D01*
X225512333Y-111259952D01*
X225464714Y-111307571D01*
X225417095Y-111402809D01*
X226893285Y-110831380D02*
X226417095Y-110831380D01*
X226369476Y-111307571D01*
X226417095Y-111259952D01*
X226512333Y-111212333D01*
X226750428Y-111212333D01*
X226845666Y-111259952D01*
X226893285Y-111307571D01*
X226940904Y-111402809D01*
X226940904Y-111640904D01*
X226893285Y-111736142D01*
X226845666Y-111783761D01*
X226750428Y-111831380D01*
X226512333Y-111831380D01*
X226417095Y-111783761D01*
X226369476Y-111736142D01*
G04 #@! TO.C,R66*
X227957142Y-108910380D02*
X227623809Y-108434190D01*
X227385714Y-108910380D02*
X227385714Y-107910380D01*
X227766666Y-107910380D01*
X227861904Y-107958000D01*
X227909523Y-108005619D01*
X227957142Y-108100857D01*
X227957142Y-108243714D01*
X227909523Y-108338952D01*
X227861904Y-108386571D01*
X227766666Y-108434190D01*
X227385714Y-108434190D01*
X228814285Y-107910380D02*
X228623809Y-107910380D01*
X228528571Y-107958000D01*
X228480952Y-108005619D01*
X228385714Y-108148476D01*
X228338095Y-108338952D01*
X228338095Y-108719904D01*
X228385714Y-108815142D01*
X228433333Y-108862761D01*
X228528571Y-108910380D01*
X228719047Y-108910380D01*
X228814285Y-108862761D01*
X228861904Y-108815142D01*
X228909523Y-108719904D01*
X228909523Y-108481809D01*
X228861904Y-108386571D01*
X228814285Y-108338952D01*
X228719047Y-108291333D01*
X228528571Y-108291333D01*
X228433333Y-108338952D01*
X228385714Y-108386571D01*
X228338095Y-108481809D01*
X229766666Y-107910380D02*
X229576190Y-107910380D01*
X229480952Y-107958000D01*
X229433333Y-108005619D01*
X229338095Y-108148476D01*
X229290476Y-108338952D01*
X229290476Y-108719904D01*
X229338095Y-108815142D01*
X229385714Y-108862761D01*
X229480952Y-108910380D01*
X229671428Y-108910380D01*
X229766666Y-108862761D01*
X229814285Y-108815142D01*
X229861904Y-108719904D01*
X229861904Y-108481809D01*
X229814285Y-108386571D01*
X229766666Y-108338952D01*
X229671428Y-108291333D01*
X229480952Y-108291333D01*
X229385714Y-108338952D01*
X229338095Y-108386571D01*
X229290476Y-108481809D01*
G04 #@! TO.C,R67*
X225036142Y-108910380D02*
X224702809Y-108434190D01*
X224464714Y-108910380D02*
X224464714Y-107910380D01*
X224845666Y-107910380D01*
X224940904Y-107958000D01*
X224988523Y-108005619D01*
X225036142Y-108100857D01*
X225036142Y-108243714D01*
X224988523Y-108338952D01*
X224940904Y-108386571D01*
X224845666Y-108434190D01*
X224464714Y-108434190D01*
X225893285Y-107910380D02*
X225702809Y-107910380D01*
X225607571Y-107958000D01*
X225559952Y-108005619D01*
X225464714Y-108148476D01*
X225417095Y-108338952D01*
X225417095Y-108719904D01*
X225464714Y-108815142D01*
X225512333Y-108862761D01*
X225607571Y-108910380D01*
X225798047Y-108910380D01*
X225893285Y-108862761D01*
X225940904Y-108815142D01*
X225988523Y-108719904D01*
X225988523Y-108481809D01*
X225940904Y-108386571D01*
X225893285Y-108338952D01*
X225798047Y-108291333D01*
X225607571Y-108291333D01*
X225512333Y-108338952D01*
X225464714Y-108386571D01*
X225417095Y-108481809D01*
X226321857Y-107910380D02*
X226988523Y-107910380D01*
X226559952Y-108910380D01*
G04 #@! TO.C,R68*
X244594142Y-108910380D02*
X244260809Y-108434190D01*
X244022714Y-108910380D02*
X244022714Y-107910380D01*
X244403666Y-107910380D01*
X244498904Y-107958000D01*
X244546523Y-108005619D01*
X244594142Y-108100857D01*
X244594142Y-108243714D01*
X244546523Y-108338952D01*
X244498904Y-108386571D01*
X244403666Y-108434190D01*
X244022714Y-108434190D01*
X245451285Y-107910380D02*
X245260809Y-107910380D01*
X245165571Y-107958000D01*
X245117952Y-108005619D01*
X245022714Y-108148476D01*
X244975095Y-108338952D01*
X244975095Y-108719904D01*
X245022714Y-108815142D01*
X245070333Y-108862761D01*
X245165571Y-108910380D01*
X245356047Y-108910380D01*
X245451285Y-108862761D01*
X245498904Y-108815142D01*
X245546523Y-108719904D01*
X245546523Y-108481809D01*
X245498904Y-108386571D01*
X245451285Y-108338952D01*
X245356047Y-108291333D01*
X245165571Y-108291333D01*
X245070333Y-108338952D01*
X245022714Y-108386571D01*
X244975095Y-108481809D01*
X246117952Y-108338952D02*
X246022714Y-108291333D01*
X245975095Y-108243714D01*
X245927476Y-108148476D01*
X245927476Y-108100857D01*
X245975095Y-108005619D01*
X246022714Y-107958000D01*
X246117952Y-107910380D01*
X246308428Y-107910380D01*
X246403666Y-107958000D01*
X246451285Y-108005619D01*
X246498904Y-108100857D01*
X246498904Y-108148476D01*
X246451285Y-108243714D01*
X246403666Y-108291333D01*
X246308428Y-108338952D01*
X246117952Y-108338952D01*
X246022714Y-108386571D01*
X245975095Y-108434190D01*
X245927476Y-108529428D01*
X245927476Y-108719904D01*
X245975095Y-108815142D01*
X246022714Y-108862761D01*
X246117952Y-108910380D01*
X246308428Y-108910380D01*
X246403666Y-108862761D01*
X246451285Y-108815142D01*
X246498904Y-108719904D01*
X246498904Y-108529428D01*
X246451285Y-108434190D01*
X246403666Y-108386571D01*
X246308428Y-108338952D01*
G04 #@! TO.C,R69*
X247388142Y-108910380D02*
X247054809Y-108434190D01*
X246816714Y-108910380D02*
X246816714Y-107910380D01*
X247197666Y-107910380D01*
X247292904Y-107958000D01*
X247340523Y-108005619D01*
X247388142Y-108100857D01*
X247388142Y-108243714D01*
X247340523Y-108338952D01*
X247292904Y-108386571D01*
X247197666Y-108434190D01*
X246816714Y-108434190D01*
X248245285Y-107910380D02*
X248054809Y-107910380D01*
X247959571Y-107958000D01*
X247911952Y-108005619D01*
X247816714Y-108148476D01*
X247769095Y-108338952D01*
X247769095Y-108719904D01*
X247816714Y-108815142D01*
X247864333Y-108862761D01*
X247959571Y-108910380D01*
X248150047Y-108910380D01*
X248245285Y-108862761D01*
X248292904Y-108815142D01*
X248340523Y-108719904D01*
X248340523Y-108481809D01*
X248292904Y-108386571D01*
X248245285Y-108338952D01*
X248150047Y-108291333D01*
X247959571Y-108291333D01*
X247864333Y-108338952D01*
X247816714Y-108386571D01*
X247769095Y-108481809D01*
X248816714Y-108910380D02*
X249007190Y-108910380D01*
X249102428Y-108862761D01*
X249150047Y-108815142D01*
X249245285Y-108672285D01*
X249292904Y-108481809D01*
X249292904Y-108100857D01*
X249245285Y-108005619D01*
X249197666Y-107958000D01*
X249102428Y-107910380D01*
X248911952Y-107910380D01*
X248816714Y-107958000D01*
X248769095Y-108005619D01*
X248721476Y-108100857D01*
X248721476Y-108338952D01*
X248769095Y-108434190D01*
X248816714Y-108481809D01*
X248911952Y-108529428D01*
X249102428Y-108529428D01*
X249197666Y-108481809D01*
X249245285Y-108434190D01*
X249292904Y-108338952D01*
G04 #@! TO.C,R70*
X244594142Y-111831380D02*
X244260809Y-111355190D01*
X244022714Y-111831380D02*
X244022714Y-110831380D01*
X244403666Y-110831380D01*
X244498904Y-110879000D01*
X244546523Y-110926619D01*
X244594142Y-111021857D01*
X244594142Y-111164714D01*
X244546523Y-111259952D01*
X244498904Y-111307571D01*
X244403666Y-111355190D01*
X244022714Y-111355190D01*
X244927476Y-110831380D02*
X245594142Y-110831380D01*
X245165571Y-111831380D01*
X246165571Y-110831380D02*
X246260809Y-110831380D01*
X246356047Y-110879000D01*
X246403666Y-110926619D01*
X246451285Y-111021857D01*
X246498904Y-111212333D01*
X246498904Y-111450428D01*
X246451285Y-111640904D01*
X246403666Y-111736142D01*
X246356047Y-111783761D01*
X246260809Y-111831380D01*
X246165571Y-111831380D01*
X246070333Y-111783761D01*
X246022714Y-111736142D01*
X245975095Y-111640904D01*
X245927476Y-111450428D01*
X245927476Y-111212333D01*
X245975095Y-111021857D01*
X246022714Y-110926619D01*
X246070333Y-110879000D01*
X246165571Y-110831380D01*
G04 #@! TO.C,R71*
X240657142Y-111831380D02*
X240323809Y-111355190D01*
X240085714Y-111831380D02*
X240085714Y-110831380D01*
X240466666Y-110831380D01*
X240561904Y-110879000D01*
X240609523Y-110926619D01*
X240657142Y-111021857D01*
X240657142Y-111164714D01*
X240609523Y-111259952D01*
X240561904Y-111307571D01*
X240466666Y-111355190D01*
X240085714Y-111355190D01*
X240990476Y-110831380D02*
X241657142Y-110831380D01*
X241228571Y-111831380D01*
X242561904Y-111831380D02*
X241990476Y-111831380D01*
X242276190Y-111831380D02*
X242276190Y-110831380D01*
X242180952Y-110974238D01*
X242085714Y-111069476D01*
X241990476Y-111117095D01*
G04 #@! TO.C,R72*
X237736142Y-111831380D02*
X237402809Y-111355190D01*
X237164714Y-111831380D02*
X237164714Y-110831380D01*
X237545666Y-110831380D01*
X237640904Y-110879000D01*
X237688523Y-110926619D01*
X237736142Y-111021857D01*
X237736142Y-111164714D01*
X237688523Y-111259952D01*
X237640904Y-111307571D01*
X237545666Y-111355190D01*
X237164714Y-111355190D01*
X238069476Y-110831380D02*
X238736142Y-110831380D01*
X238307571Y-111831380D01*
X239069476Y-110926619D02*
X239117095Y-110879000D01*
X239212333Y-110831380D01*
X239450428Y-110831380D01*
X239545666Y-110879000D01*
X239593285Y-110926619D01*
X239640904Y-111021857D01*
X239640904Y-111117095D01*
X239593285Y-111259952D01*
X239021857Y-111831380D01*
X239640904Y-111831380D01*
G04 #@! TO.C,R73*
X240657142Y-108910380D02*
X240323809Y-108434190D01*
X240085714Y-108910380D02*
X240085714Y-107910380D01*
X240466666Y-107910380D01*
X240561904Y-107958000D01*
X240609523Y-108005619D01*
X240657142Y-108100857D01*
X240657142Y-108243714D01*
X240609523Y-108338952D01*
X240561904Y-108386571D01*
X240466666Y-108434190D01*
X240085714Y-108434190D01*
X240990476Y-107910380D02*
X241657142Y-107910380D01*
X241228571Y-108910380D01*
X241942857Y-107910380D02*
X242561904Y-107910380D01*
X242228571Y-108291333D01*
X242371428Y-108291333D01*
X242466666Y-108338952D01*
X242514285Y-108386571D01*
X242561904Y-108481809D01*
X242561904Y-108719904D01*
X242514285Y-108815142D01*
X242466666Y-108862761D01*
X242371428Y-108910380D01*
X242085714Y-108910380D01*
X241990476Y-108862761D01*
X241942857Y-108815142D01*
G04 #@! TO.C,R74*
X237736142Y-108910380D02*
X237402809Y-108434190D01*
X237164714Y-108910380D02*
X237164714Y-107910380D01*
X237545666Y-107910380D01*
X237640904Y-107958000D01*
X237688523Y-108005619D01*
X237736142Y-108100857D01*
X237736142Y-108243714D01*
X237688523Y-108338952D01*
X237640904Y-108386571D01*
X237545666Y-108434190D01*
X237164714Y-108434190D01*
X238069476Y-107910380D02*
X238736142Y-107910380D01*
X238307571Y-108910380D01*
X239545666Y-108243714D02*
X239545666Y-108910380D01*
X239307571Y-107862761D02*
X239069476Y-108577047D01*
X239688523Y-108577047D01*
G04 #@! TO.C,R75*
X212087380Y-86832857D02*
X211611190Y-87166190D01*
X212087380Y-87404285D02*
X211087380Y-87404285D01*
X211087380Y-87023333D01*
X211135000Y-86928095D01*
X211182619Y-86880476D01*
X211277857Y-86832857D01*
X211420714Y-86832857D01*
X211515952Y-86880476D01*
X211563571Y-86928095D01*
X211611190Y-87023333D01*
X211611190Y-87404285D01*
X211087380Y-86499523D02*
X211087380Y-85832857D01*
X212087380Y-86261428D01*
X211087380Y-84975714D02*
X211087380Y-85451904D01*
X211563571Y-85499523D01*
X211515952Y-85451904D01*
X211468333Y-85356666D01*
X211468333Y-85118571D01*
X211515952Y-85023333D01*
X211563571Y-84975714D01*
X211658809Y-84928095D01*
X211896904Y-84928095D01*
X211992142Y-84975714D01*
X212039761Y-85023333D01*
X212087380Y-85118571D01*
X212087380Y-85356666D01*
X212039761Y-85451904D01*
X211992142Y-85499523D01*
G04 #@! TO.C,R76*
X224787380Y-86832857D02*
X224311190Y-87166190D01*
X224787380Y-87404285D02*
X223787380Y-87404285D01*
X223787380Y-87023333D01*
X223835000Y-86928095D01*
X223882619Y-86880476D01*
X223977857Y-86832857D01*
X224120714Y-86832857D01*
X224215952Y-86880476D01*
X224263571Y-86928095D01*
X224311190Y-87023333D01*
X224311190Y-87404285D01*
X223787380Y-86499523D02*
X223787380Y-85832857D01*
X224787380Y-86261428D01*
X223787380Y-85023333D02*
X223787380Y-85213809D01*
X223835000Y-85309047D01*
X223882619Y-85356666D01*
X224025476Y-85451904D01*
X224215952Y-85499523D01*
X224596904Y-85499523D01*
X224692142Y-85451904D01*
X224739761Y-85404285D01*
X224787380Y-85309047D01*
X224787380Y-85118571D01*
X224739761Y-85023333D01*
X224692142Y-84975714D01*
X224596904Y-84928095D01*
X224358809Y-84928095D01*
X224263571Y-84975714D01*
X224215952Y-85023333D01*
X224168333Y-85118571D01*
X224168333Y-85309047D01*
X224215952Y-85404285D01*
X224263571Y-85451904D01*
X224358809Y-85499523D01*
G04 #@! TO.C,R77*
X237487380Y-86832857D02*
X237011190Y-87166190D01*
X237487380Y-87404285D02*
X236487380Y-87404285D01*
X236487380Y-87023333D01*
X236535000Y-86928095D01*
X236582619Y-86880476D01*
X236677857Y-86832857D01*
X236820714Y-86832857D01*
X236915952Y-86880476D01*
X236963571Y-86928095D01*
X237011190Y-87023333D01*
X237011190Y-87404285D01*
X236487380Y-86499523D02*
X236487380Y-85832857D01*
X237487380Y-86261428D01*
X236487380Y-85547142D02*
X236487380Y-84880476D01*
X237487380Y-85309047D01*
G04 #@! TO.C,R78*
X250187380Y-86832857D02*
X249711190Y-87166190D01*
X250187380Y-87404285D02*
X249187380Y-87404285D01*
X249187380Y-87023333D01*
X249235000Y-86928095D01*
X249282619Y-86880476D01*
X249377857Y-86832857D01*
X249520714Y-86832857D01*
X249615952Y-86880476D01*
X249663571Y-86928095D01*
X249711190Y-87023333D01*
X249711190Y-87404285D01*
X249187380Y-86499523D02*
X249187380Y-85832857D01*
X250187380Y-86261428D01*
X249615952Y-85309047D02*
X249568333Y-85404285D01*
X249520714Y-85451904D01*
X249425476Y-85499523D01*
X249377857Y-85499523D01*
X249282619Y-85451904D01*
X249235000Y-85404285D01*
X249187380Y-85309047D01*
X249187380Y-85118571D01*
X249235000Y-85023333D01*
X249282619Y-84975714D01*
X249377857Y-84928095D01*
X249425476Y-84928095D01*
X249520714Y-84975714D01*
X249568333Y-85023333D01*
X249615952Y-85118571D01*
X249615952Y-85309047D01*
X249663571Y-85404285D01*
X249711190Y-85451904D01*
X249806428Y-85499523D01*
X249996904Y-85499523D01*
X250092142Y-85451904D01*
X250139761Y-85404285D01*
X250187380Y-85309047D01*
X250187380Y-85118571D01*
X250139761Y-85023333D01*
X250092142Y-84975714D01*
X249996904Y-84928095D01*
X249806428Y-84928095D01*
X249711190Y-84975714D01*
X249663571Y-85023333D01*
X249615952Y-85118571D01*
G04 #@! TO.C,R79*
X209288142Y-111831380D02*
X208954809Y-111355190D01*
X208716714Y-111831380D02*
X208716714Y-110831380D01*
X209097666Y-110831380D01*
X209192904Y-110879000D01*
X209240523Y-110926619D01*
X209288142Y-111021857D01*
X209288142Y-111164714D01*
X209240523Y-111259952D01*
X209192904Y-111307571D01*
X209097666Y-111355190D01*
X208716714Y-111355190D01*
X209621476Y-110831380D02*
X210288142Y-110831380D01*
X209859571Y-111831380D01*
X210716714Y-111831380D02*
X210907190Y-111831380D01*
X211002428Y-111783761D01*
X211050047Y-111736142D01*
X211145285Y-111593285D01*
X211192904Y-111402809D01*
X211192904Y-111021857D01*
X211145285Y-110926619D01*
X211097666Y-110879000D01*
X211002428Y-110831380D01*
X210811952Y-110831380D01*
X210716714Y-110879000D01*
X210669095Y-110926619D01*
X210621476Y-111021857D01*
X210621476Y-111259952D01*
X210669095Y-111355190D01*
X210716714Y-111402809D01*
X210811952Y-111450428D01*
X211002428Y-111450428D01*
X211097666Y-111402809D01*
X211145285Y-111355190D01*
X211192904Y-111259952D01*
G04 #@! TO.C,R80*
X221988142Y-111831380D02*
X221654809Y-111355190D01*
X221416714Y-111831380D02*
X221416714Y-110831380D01*
X221797666Y-110831380D01*
X221892904Y-110879000D01*
X221940523Y-110926619D01*
X221988142Y-111021857D01*
X221988142Y-111164714D01*
X221940523Y-111259952D01*
X221892904Y-111307571D01*
X221797666Y-111355190D01*
X221416714Y-111355190D01*
X222559571Y-111259952D02*
X222464333Y-111212333D01*
X222416714Y-111164714D01*
X222369095Y-111069476D01*
X222369095Y-111021857D01*
X222416714Y-110926619D01*
X222464333Y-110879000D01*
X222559571Y-110831380D01*
X222750047Y-110831380D01*
X222845285Y-110879000D01*
X222892904Y-110926619D01*
X222940523Y-111021857D01*
X222940523Y-111069476D01*
X222892904Y-111164714D01*
X222845285Y-111212333D01*
X222750047Y-111259952D01*
X222559571Y-111259952D01*
X222464333Y-111307571D01*
X222416714Y-111355190D01*
X222369095Y-111450428D01*
X222369095Y-111640904D01*
X222416714Y-111736142D01*
X222464333Y-111783761D01*
X222559571Y-111831380D01*
X222750047Y-111831380D01*
X222845285Y-111783761D01*
X222892904Y-111736142D01*
X222940523Y-111640904D01*
X222940523Y-111450428D01*
X222892904Y-111355190D01*
X222845285Y-111307571D01*
X222750047Y-111259952D01*
X223559571Y-110831380D02*
X223654809Y-110831380D01*
X223750047Y-110879000D01*
X223797666Y-110926619D01*
X223845285Y-111021857D01*
X223892904Y-111212333D01*
X223892904Y-111450428D01*
X223845285Y-111640904D01*
X223797666Y-111736142D01*
X223750047Y-111783761D01*
X223654809Y-111831380D01*
X223559571Y-111831380D01*
X223464333Y-111783761D01*
X223416714Y-111736142D01*
X223369095Y-111640904D01*
X223321476Y-111450428D01*
X223321476Y-111212333D01*
X223369095Y-111021857D01*
X223416714Y-110926619D01*
X223464333Y-110879000D01*
X223559571Y-110831380D01*
G04 #@! TO.C,R81*
X234688142Y-111831380D02*
X234354809Y-111355190D01*
X234116714Y-111831380D02*
X234116714Y-110831380D01*
X234497666Y-110831380D01*
X234592904Y-110879000D01*
X234640523Y-110926619D01*
X234688142Y-111021857D01*
X234688142Y-111164714D01*
X234640523Y-111259952D01*
X234592904Y-111307571D01*
X234497666Y-111355190D01*
X234116714Y-111355190D01*
X235259571Y-111259952D02*
X235164333Y-111212333D01*
X235116714Y-111164714D01*
X235069095Y-111069476D01*
X235069095Y-111021857D01*
X235116714Y-110926619D01*
X235164333Y-110879000D01*
X235259571Y-110831380D01*
X235450047Y-110831380D01*
X235545285Y-110879000D01*
X235592904Y-110926619D01*
X235640523Y-111021857D01*
X235640523Y-111069476D01*
X235592904Y-111164714D01*
X235545285Y-111212333D01*
X235450047Y-111259952D01*
X235259571Y-111259952D01*
X235164333Y-111307571D01*
X235116714Y-111355190D01*
X235069095Y-111450428D01*
X235069095Y-111640904D01*
X235116714Y-111736142D01*
X235164333Y-111783761D01*
X235259571Y-111831380D01*
X235450047Y-111831380D01*
X235545285Y-111783761D01*
X235592904Y-111736142D01*
X235640523Y-111640904D01*
X235640523Y-111450428D01*
X235592904Y-111355190D01*
X235545285Y-111307571D01*
X235450047Y-111259952D01*
X236592904Y-111831380D02*
X236021476Y-111831380D01*
X236307190Y-111831380D02*
X236307190Y-110831380D01*
X236211952Y-110974238D01*
X236116714Y-111069476D01*
X236021476Y-111117095D01*
G04 #@! TO.C,R82*
X247388142Y-111831380D02*
X247054809Y-111355190D01*
X246816714Y-111831380D02*
X246816714Y-110831380D01*
X247197666Y-110831380D01*
X247292904Y-110879000D01*
X247340523Y-110926619D01*
X247388142Y-111021857D01*
X247388142Y-111164714D01*
X247340523Y-111259952D01*
X247292904Y-111307571D01*
X247197666Y-111355190D01*
X246816714Y-111355190D01*
X247959571Y-111259952D02*
X247864333Y-111212333D01*
X247816714Y-111164714D01*
X247769095Y-111069476D01*
X247769095Y-111021857D01*
X247816714Y-110926619D01*
X247864333Y-110879000D01*
X247959571Y-110831380D01*
X248150047Y-110831380D01*
X248245285Y-110879000D01*
X248292904Y-110926619D01*
X248340523Y-111021857D01*
X248340523Y-111069476D01*
X248292904Y-111164714D01*
X248245285Y-111212333D01*
X248150047Y-111259952D01*
X247959571Y-111259952D01*
X247864333Y-111307571D01*
X247816714Y-111355190D01*
X247769095Y-111450428D01*
X247769095Y-111640904D01*
X247816714Y-111736142D01*
X247864333Y-111783761D01*
X247959571Y-111831380D01*
X248150047Y-111831380D01*
X248245285Y-111783761D01*
X248292904Y-111736142D01*
X248340523Y-111640904D01*
X248340523Y-111450428D01*
X248292904Y-111355190D01*
X248245285Y-111307571D01*
X248150047Y-111259952D01*
X248721476Y-110926619D02*
X248769095Y-110879000D01*
X248864333Y-110831380D01*
X249102428Y-110831380D01*
X249197666Y-110879000D01*
X249245285Y-110926619D01*
X249292904Y-111021857D01*
X249292904Y-111117095D01*
X249245285Y-111259952D01*
X248673857Y-111831380D01*
X249292904Y-111831380D01*
G04 #@! TO.C,R83*
X179723380Y-128361857D02*
X179247190Y-128695190D01*
X179723380Y-128933285D02*
X178723380Y-128933285D01*
X178723380Y-128552333D01*
X178771000Y-128457095D01*
X178818619Y-128409476D01*
X178913857Y-128361857D01*
X179056714Y-128361857D01*
X179151952Y-128409476D01*
X179199571Y-128457095D01*
X179247190Y-128552333D01*
X179247190Y-128933285D01*
X179151952Y-127790428D02*
X179104333Y-127885666D01*
X179056714Y-127933285D01*
X178961476Y-127980904D01*
X178913857Y-127980904D01*
X178818619Y-127933285D01*
X178771000Y-127885666D01*
X178723380Y-127790428D01*
X178723380Y-127599952D01*
X178771000Y-127504714D01*
X178818619Y-127457095D01*
X178913857Y-127409476D01*
X178961476Y-127409476D01*
X179056714Y-127457095D01*
X179104333Y-127504714D01*
X179151952Y-127599952D01*
X179151952Y-127790428D01*
X179199571Y-127885666D01*
X179247190Y-127933285D01*
X179342428Y-127980904D01*
X179532904Y-127980904D01*
X179628142Y-127933285D01*
X179675761Y-127885666D01*
X179723380Y-127790428D01*
X179723380Y-127599952D01*
X179675761Y-127504714D01*
X179628142Y-127457095D01*
X179532904Y-127409476D01*
X179342428Y-127409476D01*
X179247190Y-127457095D01*
X179199571Y-127504714D01*
X179151952Y-127599952D01*
X178723380Y-127076142D02*
X178723380Y-126457095D01*
X179104333Y-126790428D01*
X179104333Y-126647571D01*
X179151952Y-126552333D01*
X179199571Y-126504714D01*
X179294809Y-126457095D01*
X179532904Y-126457095D01*
X179628142Y-126504714D01*
X179675761Y-126552333D01*
X179723380Y-126647571D01*
X179723380Y-126933285D01*
X179675761Y-127028523D01*
X179628142Y-127076142D01*
G04 #@! TO.C,R84*
X181607380Y-124383857D02*
X181131190Y-124717190D01*
X181607380Y-124955285D02*
X180607380Y-124955285D01*
X180607380Y-124574333D01*
X180655000Y-124479095D01*
X180702619Y-124431476D01*
X180797857Y-124383857D01*
X180940714Y-124383857D01*
X181035952Y-124431476D01*
X181083571Y-124479095D01*
X181131190Y-124574333D01*
X181131190Y-124955285D01*
X181035952Y-123812428D02*
X180988333Y-123907666D01*
X180940714Y-123955285D01*
X180845476Y-124002904D01*
X180797857Y-124002904D01*
X180702619Y-123955285D01*
X180655000Y-123907666D01*
X180607380Y-123812428D01*
X180607380Y-123621952D01*
X180655000Y-123526714D01*
X180702619Y-123479095D01*
X180797857Y-123431476D01*
X180845476Y-123431476D01*
X180940714Y-123479095D01*
X180988333Y-123526714D01*
X181035952Y-123621952D01*
X181035952Y-123812428D01*
X181083571Y-123907666D01*
X181131190Y-123955285D01*
X181226428Y-124002904D01*
X181416904Y-124002904D01*
X181512142Y-123955285D01*
X181559761Y-123907666D01*
X181607380Y-123812428D01*
X181607380Y-123621952D01*
X181559761Y-123526714D01*
X181512142Y-123479095D01*
X181416904Y-123431476D01*
X181226428Y-123431476D01*
X181131190Y-123479095D01*
X181083571Y-123526714D01*
X181035952Y-123621952D01*
X180940714Y-122574333D02*
X181607380Y-122574333D01*
X180559761Y-122812428D02*
X181274047Y-123050523D01*
X181274047Y-122431476D01*
G04 #@! TO.C,R87*
X180792380Y-135897857D02*
X180316190Y-136231190D01*
X180792380Y-136469285D02*
X179792380Y-136469285D01*
X179792380Y-136088333D01*
X179840000Y-135993095D01*
X179887619Y-135945476D01*
X179982857Y-135897857D01*
X180125714Y-135897857D01*
X180220952Y-135945476D01*
X180268571Y-135993095D01*
X180316190Y-136088333D01*
X180316190Y-136469285D01*
X180220952Y-135326428D02*
X180173333Y-135421666D01*
X180125714Y-135469285D01*
X180030476Y-135516904D01*
X179982857Y-135516904D01*
X179887619Y-135469285D01*
X179840000Y-135421666D01*
X179792380Y-135326428D01*
X179792380Y-135135952D01*
X179840000Y-135040714D01*
X179887619Y-134993095D01*
X179982857Y-134945476D01*
X180030476Y-134945476D01*
X180125714Y-134993095D01*
X180173333Y-135040714D01*
X180220952Y-135135952D01*
X180220952Y-135326428D01*
X180268571Y-135421666D01*
X180316190Y-135469285D01*
X180411428Y-135516904D01*
X180601904Y-135516904D01*
X180697142Y-135469285D01*
X180744761Y-135421666D01*
X180792380Y-135326428D01*
X180792380Y-135135952D01*
X180744761Y-135040714D01*
X180697142Y-134993095D01*
X180601904Y-134945476D01*
X180411428Y-134945476D01*
X180316190Y-134993095D01*
X180268571Y-135040714D01*
X180220952Y-135135952D01*
X179792380Y-134612142D02*
X179792380Y-133945476D01*
X180792380Y-134374047D01*
G04 #@! TO.C,R88*
X181935380Y-135897857D02*
X181459190Y-136231190D01*
X181935380Y-136469285D02*
X180935380Y-136469285D01*
X180935380Y-136088333D01*
X180983000Y-135993095D01*
X181030619Y-135945476D01*
X181125857Y-135897857D01*
X181268714Y-135897857D01*
X181363952Y-135945476D01*
X181411571Y-135993095D01*
X181459190Y-136088333D01*
X181459190Y-136469285D01*
X181363952Y-135326428D02*
X181316333Y-135421666D01*
X181268714Y-135469285D01*
X181173476Y-135516904D01*
X181125857Y-135516904D01*
X181030619Y-135469285D01*
X180983000Y-135421666D01*
X180935380Y-135326428D01*
X180935380Y-135135952D01*
X180983000Y-135040714D01*
X181030619Y-134993095D01*
X181125857Y-134945476D01*
X181173476Y-134945476D01*
X181268714Y-134993095D01*
X181316333Y-135040714D01*
X181363952Y-135135952D01*
X181363952Y-135326428D01*
X181411571Y-135421666D01*
X181459190Y-135469285D01*
X181554428Y-135516904D01*
X181744904Y-135516904D01*
X181840142Y-135469285D01*
X181887761Y-135421666D01*
X181935380Y-135326428D01*
X181935380Y-135135952D01*
X181887761Y-135040714D01*
X181840142Y-134993095D01*
X181744904Y-134945476D01*
X181554428Y-134945476D01*
X181459190Y-134993095D01*
X181411571Y-135040714D01*
X181363952Y-135135952D01*
X181363952Y-134374047D02*
X181316333Y-134469285D01*
X181268714Y-134516904D01*
X181173476Y-134564523D01*
X181125857Y-134564523D01*
X181030619Y-134516904D01*
X180983000Y-134469285D01*
X180935380Y-134374047D01*
X180935380Y-134183571D01*
X180983000Y-134088333D01*
X181030619Y-134040714D01*
X181125857Y-133993095D01*
X181173476Y-133993095D01*
X181268714Y-134040714D01*
X181316333Y-134088333D01*
X181363952Y-134183571D01*
X181363952Y-134374047D01*
X181411571Y-134469285D01*
X181459190Y-134516904D01*
X181554428Y-134564523D01*
X181744904Y-134564523D01*
X181840142Y-134516904D01*
X181887761Y-134469285D01*
X181935380Y-134374047D01*
X181935380Y-134183571D01*
X181887761Y-134088333D01*
X181840142Y-134040714D01*
X181744904Y-133993095D01*
X181554428Y-133993095D01*
X181459190Y-134040714D01*
X181411571Y-134088333D01*
X181363952Y-134183571D01*
G04 #@! TO.C,R89*
X173299380Y-124721857D02*
X172823190Y-125055190D01*
X173299380Y-125293285D02*
X172299380Y-125293285D01*
X172299380Y-124912333D01*
X172347000Y-124817095D01*
X172394619Y-124769476D01*
X172489857Y-124721857D01*
X172632714Y-124721857D01*
X172727952Y-124769476D01*
X172775571Y-124817095D01*
X172823190Y-124912333D01*
X172823190Y-125293285D01*
X172727952Y-124150428D02*
X172680333Y-124245666D01*
X172632714Y-124293285D01*
X172537476Y-124340904D01*
X172489857Y-124340904D01*
X172394619Y-124293285D01*
X172347000Y-124245666D01*
X172299380Y-124150428D01*
X172299380Y-123959952D01*
X172347000Y-123864714D01*
X172394619Y-123817095D01*
X172489857Y-123769476D01*
X172537476Y-123769476D01*
X172632714Y-123817095D01*
X172680333Y-123864714D01*
X172727952Y-123959952D01*
X172727952Y-124150428D01*
X172775571Y-124245666D01*
X172823190Y-124293285D01*
X172918428Y-124340904D01*
X173108904Y-124340904D01*
X173204142Y-124293285D01*
X173251761Y-124245666D01*
X173299380Y-124150428D01*
X173299380Y-123959952D01*
X173251761Y-123864714D01*
X173204142Y-123817095D01*
X173108904Y-123769476D01*
X172918428Y-123769476D01*
X172823190Y-123817095D01*
X172775571Y-123864714D01*
X172727952Y-123959952D01*
X173299380Y-123293285D02*
X173299380Y-123102809D01*
X173251761Y-123007571D01*
X173204142Y-122959952D01*
X173061285Y-122864714D01*
X172870809Y-122817095D01*
X172489857Y-122817095D01*
X172394619Y-122864714D01*
X172347000Y-122912333D01*
X172299380Y-123007571D01*
X172299380Y-123198047D01*
X172347000Y-123293285D01*
X172394619Y-123340904D01*
X172489857Y-123388523D01*
X172727952Y-123388523D01*
X172823190Y-123340904D01*
X172870809Y-123293285D01*
X172918428Y-123198047D01*
X172918428Y-123007571D01*
X172870809Y-122912333D01*
X172823190Y-122864714D01*
X172727952Y-122817095D01*
G04 #@! TO.C,RLY1*
X209494380Y-124698000D02*
X209018190Y-125031333D01*
X209494380Y-125269428D02*
X208494380Y-125269428D01*
X208494380Y-124888476D01*
X208542000Y-124793238D01*
X208589619Y-124745619D01*
X208684857Y-124698000D01*
X208827714Y-124698000D01*
X208922952Y-124745619D01*
X208970571Y-124793238D01*
X209018190Y-124888476D01*
X209018190Y-125269428D01*
X209494380Y-123793238D02*
X209494380Y-124269428D01*
X208494380Y-124269428D01*
X209018190Y-123269428D02*
X209494380Y-123269428D01*
X208494380Y-123602761D02*
X209018190Y-123269428D01*
X208494380Y-122936095D01*
X209494380Y-122078952D02*
X209494380Y-122650380D01*
X209494380Y-122364666D02*
X208494380Y-122364666D01*
X208637238Y-122459904D01*
X208732476Y-122555142D01*
X208780095Y-122650380D01*
G04 #@! TO.C,RLY2*
X209494380Y-134858000D02*
X209018190Y-135191333D01*
X209494380Y-135429428D02*
X208494380Y-135429428D01*
X208494380Y-135048476D01*
X208542000Y-134953238D01*
X208589619Y-134905619D01*
X208684857Y-134858000D01*
X208827714Y-134858000D01*
X208922952Y-134905619D01*
X208970571Y-134953238D01*
X209018190Y-135048476D01*
X209018190Y-135429428D01*
X209494380Y-133953238D02*
X209494380Y-134429428D01*
X208494380Y-134429428D01*
X209018190Y-133429428D02*
X209494380Y-133429428D01*
X208494380Y-133762761D02*
X209018190Y-133429428D01*
X208494380Y-133096095D01*
X208589619Y-132810380D02*
X208542000Y-132762761D01*
X208494380Y-132667523D01*
X208494380Y-132429428D01*
X208542000Y-132334190D01*
X208589619Y-132286571D01*
X208684857Y-132238952D01*
X208780095Y-132238952D01*
X208922952Y-132286571D01*
X209494380Y-132858000D01*
X209494380Y-132238952D01*
G04 #@! TO.C,RLY3*
X209494380Y-145018000D02*
X209018190Y-145351333D01*
X209494380Y-145589428D02*
X208494380Y-145589428D01*
X208494380Y-145208476D01*
X208542000Y-145113238D01*
X208589619Y-145065619D01*
X208684857Y-145018000D01*
X208827714Y-145018000D01*
X208922952Y-145065619D01*
X208970571Y-145113238D01*
X209018190Y-145208476D01*
X209018190Y-145589428D01*
X209494380Y-144113238D02*
X209494380Y-144589428D01*
X208494380Y-144589428D01*
X209018190Y-143589428D02*
X209494380Y-143589428D01*
X208494380Y-143922761D02*
X209018190Y-143589428D01*
X208494380Y-143256095D01*
X208494380Y-143018000D02*
X208494380Y-142398952D01*
X208875333Y-142732285D01*
X208875333Y-142589428D01*
X208922952Y-142494190D01*
X208970571Y-142446571D01*
X209065809Y-142398952D01*
X209303904Y-142398952D01*
X209399142Y-142446571D01*
X209446761Y-142494190D01*
X209494380Y-142589428D01*
X209494380Y-142875142D01*
X209446761Y-142970380D01*
X209399142Y-143018000D01*
G04 #@! TO.C,SW1*
X158051666Y-136929761D02*
X158194523Y-136977380D01*
X158432619Y-136977380D01*
X158527857Y-136929761D01*
X158575476Y-136882142D01*
X158623095Y-136786904D01*
X158623095Y-136691666D01*
X158575476Y-136596428D01*
X158527857Y-136548809D01*
X158432619Y-136501190D01*
X158242142Y-136453571D01*
X158146904Y-136405952D01*
X158099285Y-136358333D01*
X158051666Y-136263095D01*
X158051666Y-136167857D01*
X158099285Y-136072619D01*
X158146904Y-136025000D01*
X158242142Y-135977380D01*
X158480238Y-135977380D01*
X158623095Y-136025000D01*
X158956428Y-135977380D02*
X159194523Y-136977380D01*
X159385000Y-136263095D01*
X159575476Y-136977380D01*
X159813571Y-135977380D01*
X160718333Y-136977380D02*
X160146904Y-136977380D01*
X160432619Y-136977380D02*
X160432619Y-135977380D01*
X160337380Y-136120238D01*
X160242142Y-136215476D01*
X160146904Y-136263095D01*
G04 #@! TO.C,SW2*
X192341666Y-126134761D02*
X192484523Y-126182380D01*
X192722619Y-126182380D01*
X192817857Y-126134761D01*
X192865476Y-126087142D01*
X192913095Y-125991904D01*
X192913095Y-125896666D01*
X192865476Y-125801428D01*
X192817857Y-125753809D01*
X192722619Y-125706190D01*
X192532142Y-125658571D01*
X192436904Y-125610952D01*
X192389285Y-125563333D01*
X192341666Y-125468095D01*
X192341666Y-125372857D01*
X192389285Y-125277619D01*
X192436904Y-125230000D01*
X192532142Y-125182380D01*
X192770238Y-125182380D01*
X192913095Y-125230000D01*
X193246428Y-125182380D02*
X193484523Y-126182380D01*
X193675000Y-125468095D01*
X193865476Y-126182380D01*
X194103571Y-125182380D01*
X194436904Y-125277619D02*
X194484523Y-125230000D01*
X194579761Y-125182380D01*
X194817857Y-125182380D01*
X194913095Y-125230000D01*
X194960714Y-125277619D01*
X195008333Y-125372857D01*
X195008333Y-125468095D01*
X194960714Y-125610952D01*
X194389285Y-126182380D01*
X195008333Y-126182380D01*
G04 #@! TO.C,U1*
X177379380Y-70484904D02*
X178188904Y-70484904D01*
X178284142Y-70437285D01*
X178331761Y-70389666D01*
X178379380Y-70294428D01*
X178379380Y-70103952D01*
X178331761Y-70008714D01*
X178284142Y-69961095D01*
X178188904Y-69913476D01*
X177379380Y-69913476D01*
X178379380Y-68913476D02*
X178379380Y-69484904D01*
X178379380Y-69199190D02*
X177379380Y-69199190D01*
X177522238Y-69294428D01*
X177617476Y-69389666D01*
X177665095Y-69484904D01*
G04 #@! TO.C,U3*
X184110380Y-117855904D02*
X184919904Y-117855904D01*
X185015142Y-117808285D01*
X185062761Y-117760666D01*
X185110380Y-117665428D01*
X185110380Y-117474952D01*
X185062761Y-117379714D01*
X185015142Y-117332095D01*
X184919904Y-117284476D01*
X184110380Y-117284476D01*
X184110380Y-116903523D02*
X184110380Y-116284476D01*
X184491333Y-116617809D01*
X184491333Y-116474952D01*
X184538952Y-116379714D01*
X184586571Y-116332095D01*
X184681809Y-116284476D01*
X184919904Y-116284476D01*
X185015142Y-116332095D01*
X185062761Y-116379714D01*
X185110380Y-116474952D01*
X185110380Y-116760666D01*
X185062761Y-116855904D01*
X185015142Y-116903523D01*
G04 #@! TO.C,U4*
X182372095Y-103465380D02*
X182372095Y-104274904D01*
X182419714Y-104370142D01*
X182467333Y-104417761D01*
X182562571Y-104465380D01*
X182753047Y-104465380D01*
X182848285Y-104417761D01*
X182895904Y-104370142D01*
X182943523Y-104274904D01*
X182943523Y-103465380D01*
X183848285Y-103798714D02*
X183848285Y-104465380D01*
X183610190Y-103417761D02*
X183372095Y-104132047D01*
X183991142Y-104132047D01*
G04 #@! TO.C,U24*
X179538380Y-139922095D02*
X180347904Y-139922095D01*
X180443142Y-139874476D01*
X180490761Y-139826857D01*
X180538380Y-139731619D01*
X180538380Y-139541142D01*
X180490761Y-139445904D01*
X180443142Y-139398285D01*
X180347904Y-139350666D01*
X179538380Y-139350666D01*
X179633619Y-138922095D02*
X179586000Y-138874476D01*
X179538380Y-138779238D01*
X179538380Y-138541142D01*
X179586000Y-138445904D01*
X179633619Y-138398285D01*
X179728857Y-138350666D01*
X179824095Y-138350666D01*
X179966952Y-138398285D01*
X180538380Y-138969714D01*
X180538380Y-138350666D01*
X179871714Y-137493523D02*
X180538380Y-137493523D01*
X179490761Y-137731619D02*
X180205047Y-137969714D01*
X180205047Y-137350666D01*
G04 #@! TO.C,U25*
X181306380Y-143986095D02*
X182115904Y-143986095D01*
X182211142Y-143938476D01*
X182258761Y-143890857D01*
X182306380Y-143795619D01*
X182306380Y-143605142D01*
X182258761Y-143509904D01*
X182211142Y-143462285D01*
X182115904Y-143414666D01*
X181306380Y-143414666D01*
X181401619Y-142986095D02*
X181354000Y-142938476D01*
X181306380Y-142843238D01*
X181306380Y-142605142D01*
X181354000Y-142509904D01*
X181401619Y-142462285D01*
X181496857Y-142414666D01*
X181592095Y-142414666D01*
X181734952Y-142462285D01*
X182306380Y-143033714D01*
X182306380Y-142414666D01*
X181306380Y-141509904D02*
X181306380Y-141986095D01*
X181782571Y-142033714D01*
X181734952Y-141986095D01*
X181687333Y-141890857D01*
X181687333Y-141652761D01*
X181734952Y-141557523D01*
X181782571Y-141509904D01*
X181877809Y-141462285D01*
X182115904Y-141462285D01*
X182211142Y-141509904D01*
X182258761Y-141557523D01*
X182306380Y-141652761D01*
X182306380Y-141890857D01*
X182258761Y-141986095D01*
X182211142Y-142033714D01*
G04 #@! TO.C,U9*
X233681380Y-61340904D02*
X234490904Y-61340904D01*
X234586142Y-61293285D01*
X234633761Y-61245666D01*
X234681380Y-61150428D01*
X234681380Y-60959952D01*
X234633761Y-60864714D01*
X234586142Y-60817095D01*
X234490904Y-60769476D01*
X233681380Y-60769476D01*
X234681380Y-60245666D02*
X234681380Y-60055190D01*
X234633761Y-59959952D01*
X234586142Y-59912333D01*
X234443285Y-59817095D01*
X234252809Y-59769476D01*
X233871857Y-59769476D01*
X233776619Y-59817095D01*
X233729000Y-59864714D01*
X233681380Y-59959952D01*
X233681380Y-60150428D01*
X233729000Y-60245666D01*
X233776619Y-60293285D01*
X233871857Y-60340904D01*
X234109952Y-60340904D01*
X234205190Y-60293285D01*
X234252809Y-60245666D01*
X234300428Y-60150428D01*
X234300428Y-59959952D01*
X234252809Y-59864714D01*
X234205190Y-59817095D01*
X234109952Y-59769476D01*
G04 #@! TO.C,U13*
X208281380Y-96742095D02*
X209090904Y-96742095D01*
X209186142Y-96694476D01*
X209233761Y-96646857D01*
X209281380Y-96551619D01*
X209281380Y-96361142D01*
X209233761Y-96265904D01*
X209186142Y-96218285D01*
X209090904Y-96170666D01*
X208281380Y-96170666D01*
X209281380Y-95170666D02*
X209281380Y-95742095D01*
X209281380Y-95456380D02*
X208281380Y-95456380D01*
X208424238Y-95551619D01*
X208519476Y-95646857D01*
X208567095Y-95742095D01*
X208281380Y-94837333D02*
X208281380Y-94218285D01*
X208662333Y-94551619D01*
X208662333Y-94408761D01*
X208709952Y-94313523D01*
X208757571Y-94265904D01*
X208852809Y-94218285D01*
X209090904Y-94218285D01*
X209186142Y-94265904D01*
X209233761Y-94313523D01*
X209281380Y-94408761D01*
X209281380Y-94694476D01*
X209233761Y-94789714D01*
X209186142Y-94837333D01*
G04 #@! TO.C,U17*
X233681380Y-96742095D02*
X234490904Y-96742095D01*
X234586142Y-96694476D01*
X234633761Y-96646857D01*
X234681380Y-96551619D01*
X234681380Y-96361142D01*
X234633761Y-96265904D01*
X234586142Y-96218285D01*
X234490904Y-96170666D01*
X233681380Y-96170666D01*
X234681380Y-95170666D02*
X234681380Y-95742095D01*
X234681380Y-95456380D02*
X233681380Y-95456380D01*
X233824238Y-95551619D01*
X233919476Y-95646857D01*
X233967095Y-95742095D01*
X233681380Y-94837333D02*
X233681380Y-94170666D01*
X234681380Y-94599238D01*
G04 #@! TO.C,U22*
X237849380Y-96742095D02*
X238658904Y-96742095D01*
X238754142Y-96694476D01*
X238801761Y-96646857D01*
X238849380Y-96551619D01*
X238849380Y-96361142D01*
X238801761Y-96265904D01*
X238754142Y-96218285D01*
X238658904Y-96170666D01*
X237849380Y-96170666D01*
X237944619Y-95742095D02*
X237897000Y-95694476D01*
X237849380Y-95599238D01*
X237849380Y-95361142D01*
X237897000Y-95265904D01*
X237944619Y-95218285D01*
X238039857Y-95170666D01*
X238135095Y-95170666D01*
X238277952Y-95218285D01*
X238849380Y-95789714D01*
X238849380Y-95170666D01*
X237944619Y-94789714D02*
X237897000Y-94742095D01*
X237849380Y-94646857D01*
X237849380Y-94408761D01*
X237897000Y-94313523D01*
X237944619Y-94265904D01*
X238039857Y-94218285D01*
X238135095Y-94218285D01*
X238277952Y-94265904D01*
X238849380Y-94837333D01*
X238849380Y-94218285D01*
G04 #@! TO.C,SEG1*
X203390714Y-69619761D02*
X203533571Y-69667380D01*
X203771666Y-69667380D01*
X203866904Y-69619761D01*
X203914523Y-69572142D01*
X203962142Y-69476904D01*
X203962142Y-69381666D01*
X203914523Y-69286428D01*
X203866904Y-69238809D01*
X203771666Y-69191190D01*
X203581190Y-69143571D01*
X203485952Y-69095952D01*
X203438333Y-69048333D01*
X203390714Y-68953095D01*
X203390714Y-68857857D01*
X203438333Y-68762619D01*
X203485952Y-68715000D01*
X203581190Y-68667380D01*
X203819285Y-68667380D01*
X203962142Y-68715000D01*
X204390714Y-69143571D02*
X204724047Y-69143571D01*
X204866904Y-69667380D02*
X204390714Y-69667380D01*
X204390714Y-68667380D01*
X204866904Y-68667380D01*
X205819285Y-68715000D02*
X205724047Y-68667380D01*
X205581190Y-68667380D01*
X205438333Y-68715000D01*
X205343095Y-68810238D01*
X205295476Y-68905476D01*
X205247857Y-69095952D01*
X205247857Y-69238809D01*
X205295476Y-69429285D01*
X205343095Y-69524523D01*
X205438333Y-69619761D01*
X205581190Y-69667380D01*
X205676428Y-69667380D01*
X205819285Y-69619761D01*
X205866904Y-69572142D01*
X205866904Y-69238809D01*
X205676428Y-69238809D01*
X206819285Y-69667380D02*
X206247857Y-69667380D01*
X206533571Y-69667380D02*
X206533571Y-68667380D01*
X206438333Y-68810238D01*
X206343095Y-68905476D01*
X206247857Y-68953095D01*
G04 #@! TO.C,SEG2*
X216090714Y-69619761D02*
X216233571Y-69667380D01*
X216471666Y-69667380D01*
X216566904Y-69619761D01*
X216614523Y-69572142D01*
X216662142Y-69476904D01*
X216662142Y-69381666D01*
X216614523Y-69286428D01*
X216566904Y-69238809D01*
X216471666Y-69191190D01*
X216281190Y-69143571D01*
X216185952Y-69095952D01*
X216138333Y-69048333D01*
X216090714Y-68953095D01*
X216090714Y-68857857D01*
X216138333Y-68762619D01*
X216185952Y-68715000D01*
X216281190Y-68667380D01*
X216519285Y-68667380D01*
X216662142Y-68715000D01*
X217090714Y-69143571D02*
X217424047Y-69143571D01*
X217566904Y-69667380D02*
X217090714Y-69667380D01*
X217090714Y-68667380D01*
X217566904Y-68667380D01*
X218519285Y-68715000D02*
X218424047Y-68667380D01*
X218281190Y-68667380D01*
X218138333Y-68715000D01*
X218043095Y-68810238D01*
X217995476Y-68905476D01*
X217947857Y-69095952D01*
X217947857Y-69238809D01*
X217995476Y-69429285D01*
X218043095Y-69524523D01*
X218138333Y-69619761D01*
X218281190Y-69667380D01*
X218376428Y-69667380D01*
X218519285Y-69619761D01*
X218566904Y-69572142D01*
X218566904Y-69238809D01*
X218376428Y-69238809D01*
X218947857Y-68762619D02*
X218995476Y-68715000D01*
X219090714Y-68667380D01*
X219328809Y-68667380D01*
X219424047Y-68715000D01*
X219471666Y-68762619D01*
X219519285Y-68857857D01*
X219519285Y-68953095D01*
X219471666Y-69095952D01*
X218900238Y-69667380D01*
X219519285Y-69667380D01*
G04 #@! TO.C,SEG3*
X228790714Y-69619761D02*
X228933571Y-69667380D01*
X229171666Y-69667380D01*
X229266904Y-69619761D01*
X229314523Y-69572142D01*
X229362142Y-69476904D01*
X229362142Y-69381666D01*
X229314523Y-69286428D01*
X229266904Y-69238809D01*
X229171666Y-69191190D01*
X228981190Y-69143571D01*
X228885952Y-69095952D01*
X228838333Y-69048333D01*
X228790714Y-68953095D01*
X228790714Y-68857857D01*
X228838333Y-68762619D01*
X228885952Y-68715000D01*
X228981190Y-68667380D01*
X229219285Y-68667380D01*
X229362142Y-68715000D01*
X229790714Y-69143571D02*
X230124047Y-69143571D01*
X230266904Y-69667380D02*
X229790714Y-69667380D01*
X229790714Y-68667380D01*
X230266904Y-68667380D01*
X231219285Y-68715000D02*
X231124047Y-68667380D01*
X230981190Y-68667380D01*
X230838333Y-68715000D01*
X230743095Y-68810238D01*
X230695476Y-68905476D01*
X230647857Y-69095952D01*
X230647857Y-69238809D01*
X230695476Y-69429285D01*
X230743095Y-69524523D01*
X230838333Y-69619761D01*
X230981190Y-69667380D01*
X231076428Y-69667380D01*
X231219285Y-69619761D01*
X231266904Y-69572142D01*
X231266904Y-69238809D01*
X231076428Y-69238809D01*
X231600238Y-68667380D02*
X232219285Y-68667380D01*
X231885952Y-69048333D01*
X232028809Y-69048333D01*
X232124047Y-69095952D01*
X232171666Y-69143571D01*
X232219285Y-69238809D01*
X232219285Y-69476904D01*
X232171666Y-69572142D01*
X232124047Y-69619761D01*
X232028809Y-69667380D01*
X231743095Y-69667380D01*
X231647857Y-69619761D01*
X231600238Y-69572142D01*
G04 #@! TO.C,SEG5*
X203390714Y-104544761D02*
X203533571Y-104592380D01*
X203771666Y-104592380D01*
X203866904Y-104544761D01*
X203914523Y-104497142D01*
X203962142Y-104401904D01*
X203962142Y-104306666D01*
X203914523Y-104211428D01*
X203866904Y-104163809D01*
X203771666Y-104116190D01*
X203581190Y-104068571D01*
X203485952Y-104020952D01*
X203438333Y-103973333D01*
X203390714Y-103878095D01*
X203390714Y-103782857D01*
X203438333Y-103687619D01*
X203485952Y-103640000D01*
X203581190Y-103592380D01*
X203819285Y-103592380D01*
X203962142Y-103640000D01*
X204390714Y-104068571D02*
X204724047Y-104068571D01*
X204866904Y-104592380D02*
X204390714Y-104592380D01*
X204390714Y-103592380D01*
X204866904Y-103592380D01*
X205819285Y-103640000D02*
X205724047Y-103592380D01*
X205581190Y-103592380D01*
X205438333Y-103640000D01*
X205343095Y-103735238D01*
X205295476Y-103830476D01*
X205247857Y-104020952D01*
X205247857Y-104163809D01*
X205295476Y-104354285D01*
X205343095Y-104449523D01*
X205438333Y-104544761D01*
X205581190Y-104592380D01*
X205676428Y-104592380D01*
X205819285Y-104544761D01*
X205866904Y-104497142D01*
X205866904Y-104163809D01*
X205676428Y-104163809D01*
X206771666Y-103592380D02*
X206295476Y-103592380D01*
X206247857Y-104068571D01*
X206295476Y-104020952D01*
X206390714Y-103973333D01*
X206628809Y-103973333D01*
X206724047Y-104020952D01*
X206771666Y-104068571D01*
X206819285Y-104163809D01*
X206819285Y-104401904D01*
X206771666Y-104497142D01*
X206724047Y-104544761D01*
X206628809Y-104592380D01*
X206390714Y-104592380D01*
X206295476Y-104544761D01*
X206247857Y-104497142D01*
G04 #@! TO.C,SEG6*
X216090714Y-104544761D02*
X216233571Y-104592380D01*
X216471666Y-104592380D01*
X216566904Y-104544761D01*
X216614523Y-104497142D01*
X216662142Y-104401904D01*
X216662142Y-104306666D01*
X216614523Y-104211428D01*
X216566904Y-104163809D01*
X216471666Y-104116190D01*
X216281190Y-104068571D01*
X216185952Y-104020952D01*
X216138333Y-103973333D01*
X216090714Y-103878095D01*
X216090714Y-103782857D01*
X216138333Y-103687619D01*
X216185952Y-103640000D01*
X216281190Y-103592380D01*
X216519285Y-103592380D01*
X216662142Y-103640000D01*
X217090714Y-104068571D02*
X217424047Y-104068571D01*
X217566904Y-104592380D02*
X217090714Y-104592380D01*
X217090714Y-103592380D01*
X217566904Y-103592380D01*
X218519285Y-103640000D02*
X218424047Y-103592380D01*
X218281190Y-103592380D01*
X218138333Y-103640000D01*
X218043095Y-103735238D01*
X217995476Y-103830476D01*
X217947857Y-104020952D01*
X217947857Y-104163809D01*
X217995476Y-104354285D01*
X218043095Y-104449523D01*
X218138333Y-104544761D01*
X218281190Y-104592380D01*
X218376428Y-104592380D01*
X218519285Y-104544761D01*
X218566904Y-104497142D01*
X218566904Y-104163809D01*
X218376428Y-104163809D01*
X219424047Y-103592380D02*
X219233571Y-103592380D01*
X219138333Y-103640000D01*
X219090714Y-103687619D01*
X218995476Y-103830476D01*
X218947857Y-104020952D01*
X218947857Y-104401904D01*
X218995476Y-104497142D01*
X219043095Y-104544761D01*
X219138333Y-104592380D01*
X219328809Y-104592380D01*
X219424047Y-104544761D01*
X219471666Y-104497142D01*
X219519285Y-104401904D01*
X219519285Y-104163809D01*
X219471666Y-104068571D01*
X219424047Y-104020952D01*
X219328809Y-103973333D01*
X219138333Y-103973333D01*
X219043095Y-104020952D01*
X218995476Y-104068571D01*
X218947857Y-104163809D01*
G04 #@! TO.C,SEG7*
X228784715Y-104544761D02*
X228927572Y-104592380D01*
X229165667Y-104592380D01*
X229260905Y-104544761D01*
X229308524Y-104497142D01*
X229356143Y-104401904D01*
X229356143Y-104306666D01*
X229308524Y-104211428D01*
X229260905Y-104163809D01*
X229165667Y-104116190D01*
X228975191Y-104068571D01*
X228879953Y-104020952D01*
X228832334Y-103973333D01*
X228784715Y-103878095D01*
X228784715Y-103782857D01*
X228832334Y-103687619D01*
X228879953Y-103640000D01*
X228975191Y-103592380D01*
X229213286Y-103592380D01*
X229356143Y-103640000D01*
X229784715Y-104068571D02*
X230118048Y-104068571D01*
X230260905Y-104592380D02*
X229784715Y-104592380D01*
X229784715Y-103592380D01*
X230260905Y-103592380D01*
X231213286Y-103640000D02*
X231118048Y-103592380D01*
X230975191Y-103592380D01*
X230832334Y-103640000D01*
X230737096Y-103735238D01*
X230689477Y-103830476D01*
X230641858Y-104020952D01*
X230641858Y-104163809D01*
X230689477Y-104354285D01*
X230737096Y-104449523D01*
X230832334Y-104544761D01*
X230975191Y-104592380D01*
X231070429Y-104592380D01*
X231213286Y-104544761D01*
X231260905Y-104497142D01*
X231260905Y-104163809D01*
X231070429Y-104163809D01*
X231594239Y-103592380D02*
X232260905Y-103592380D01*
X231832334Y-104592380D01*
G04 #@! TO.C,SEG4*
X241490714Y-69619761D02*
X241633571Y-69667380D01*
X241871666Y-69667380D01*
X241966904Y-69619761D01*
X242014523Y-69572142D01*
X242062142Y-69476904D01*
X242062142Y-69381666D01*
X242014523Y-69286428D01*
X241966904Y-69238809D01*
X241871666Y-69191190D01*
X241681190Y-69143571D01*
X241585952Y-69095952D01*
X241538333Y-69048333D01*
X241490714Y-68953095D01*
X241490714Y-68857857D01*
X241538333Y-68762619D01*
X241585952Y-68715000D01*
X241681190Y-68667380D01*
X241919285Y-68667380D01*
X242062142Y-68715000D01*
X242490714Y-69143571D02*
X242824047Y-69143571D01*
X242966904Y-69667380D02*
X242490714Y-69667380D01*
X242490714Y-68667380D01*
X242966904Y-68667380D01*
X243919285Y-68715000D02*
X243824047Y-68667380D01*
X243681190Y-68667380D01*
X243538333Y-68715000D01*
X243443095Y-68810238D01*
X243395476Y-68905476D01*
X243347857Y-69095952D01*
X243347857Y-69238809D01*
X243395476Y-69429285D01*
X243443095Y-69524523D01*
X243538333Y-69619761D01*
X243681190Y-69667380D01*
X243776428Y-69667380D01*
X243919285Y-69619761D01*
X243966904Y-69572142D01*
X243966904Y-69238809D01*
X243776428Y-69238809D01*
X244824047Y-69000714D02*
X244824047Y-69667380D01*
X244585952Y-68619761D02*
X244347857Y-69334047D01*
X244966904Y-69334047D01*
G04 #@! TO.C,SEG8*
X241490714Y-104544761D02*
X241633571Y-104592380D01*
X241871666Y-104592380D01*
X241966904Y-104544761D01*
X242014523Y-104497142D01*
X242062142Y-104401904D01*
X242062142Y-104306666D01*
X242014523Y-104211428D01*
X241966904Y-104163809D01*
X241871666Y-104116190D01*
X241681190Y-104068571D01*
X241585952Y-104020952D01*
X241538333Y-103973333D01*
X241490714Y-103878095D01*
X241490714Y-103782857D01*
X241538333Y-103687619D01*
X241585952Y-103640000D01*
X241681190Y-103592380D01*
X241919285Y-103592380D01*
X242062142Y-103640000D01*
X242490714Y-104068571D02*
X242824047Y-104068571D01*
X242966904Y-104592380D02*
X242490714Y-104592380D01*
X242490714Y-103592380D01*
X242966904Y-103592380D01*
X243919285Y-103640000D02*
X243824047Y-103592380D01*
X243681190Y-103592380D01*
X243538333Y-103640000D01*
X243443095Y-103735238D01*
X243395476Y-103830476D01*
X243347857Y-104020952D01*
X243347857Y-104163809D01*
X243395476Y-104354285D01*
X243443095Y-104449523D01*
X243538333Y-104544761D01*
X243681190Y-104592380D01*
X243776428Y-104592380D01*
X243919285Y-104544761D01*
X243966904Y-104497142D01*
X243966904Y-104163809D01*
X243776428Y-104163809D01*
X244538333Y-104020952D02*
X244443095Y-103973333D01*
X244395476Y-103925714D01*
X244347857Y-103830476D01*
X244347857Y-103782857D01*
X244395476Y-103687619D01*
X244443095Y-103640000D01*
X244538333Y-103592380D01*
X244728809Y-103592380D01*
X244824047Y-103640000D01*
X244871666Y-103687619D01*
X244919285Y-103782857D01*
X244919285Y-103830476D01*
X244871666Y-103925714D01*
X244824047Y-103973333D01*
X244728809Y-104020952D01*
X244538333Y-104020952D01*
X244443095Y-104068571D01*
X244395476Y-104116190D01*
X244347857Y-104211428D01*
X244347857Y-104401904D01*
X244395476Y-104497142D01*
X244443095Y-104544761D01*
X244538333Y-104592380D01*
X244728809Y-104592380D01*
X244824047Y-104544761D01*
X244871666Y-104497142D01*
X244919285Y-104401904D01*
X244919285Y-104211428D01*
X244871666Y-104116190D01*
X244824047Y-104068571D01*
X244728809Y-104020952D01*
G04 #@! TD*
M02*
