G04 #@! TF.GenerationSoftware,KiCad,Pcbnew,(5.0.2)-1*
G04 #@! TF.CreationDate,2019-06-05T14:49:37+08:00*
G04 #@! TF.ProjectId,Peak Voltage Detector Version2,5065616b-2056-46f6-9c74-616765204465,rev?*
G04 #@! TF.SameCoordinates,Original*
G04 #@! TF.FileFunction,Legend,Bot*
G04 #@! TF.FilePolarity,Positive*
%FSLAX46Y46*%
G04 Gerber Fmt 4.6, Leading zero omitted, Abs format (unit mm)*
G04 Created by KiCad (PCBNEW (5.0.2)-1) date 06/05/19 14:49:37*
%MOMM*%
%LPD*%
G01*
G04 APERTURE LIST*
%ADD10C,0.120000*%
%ADD11C,0.150000*%
G04 APERTURE END LIST*
D10*
G04 #@! TO.C,C1*
X175549000Y-68103000D02*
X175549000Y-68803000D01*
X176749000Y-68803000D02*
X176749000Y-68103000D01*
G04 #@! TO.C,C2*
X178523000Y-68060000D02*
X178523000Y-69060000D01*
X176823000Y-69060000D02*
X176823000Y-68060000D01*
G04 #@! TO.C,C3*
X172050000Y-70134000D02*
X172050000Y-69434000D01*
X170850000Y-69434000D02*
X170850000Y-70134000D01*
G04 #@! TO.C,C4*
X170649000Y-69370000D02*
X170649000Y-70370000D01*
X168949000Y-70370000D02*
X168949000Y-69370000D01*
G04 #@! TO.C,C5*
X176395000Y-75399000D02*
X175395000Y-75399000D01*
X175395000Y-73699000D02*
X176395000Y-73699000D01*
G04 #@! TO.C,C9*
X228504000Y-61179000D02*
X229204000Y-61179000D01*
X229204000Y-59979000D02*
X228504000Y-59979000D01*
G04 #@! TO.C,C13*
X203104000Y-61306000D02*
X203804000Y-61306000D01*
X203804000Y-60106000D02*
X203104000Y-60106000D01*
G04 #@! TO.C,C17*
X229204000Y-94904000D02*
X228504000Y-94904000D01*
X228504000Y-96104000D02*
X229204000Y-96104000D01*
G04 #@! TO.C,C21*
X203804000Y-94904000D02*
X203104000Y-94904000D01*
X203104000Y-96104000D02*
X203804000Y-96104000D01*
G04 #@! TO.C,C22*
X179105000Y-139223000D02*
X179105000Y-139923000D01*
X180305000Y-139923000D02*
X180305000Y-139223000D01*
G04 #@! TO.C,C23*
X175606000Y-125695000D02*
X176306000Y-125695000D01*
X176306000Y-124495000D02*
X175606000Y-124495000D01*
G04 #@! TO.C,C24*
X182972000Y-143098000D02*
X182972000Y-142398000D01*
X181772000Y-142398000D02*
X181772000Y-143098000D01*
G04 #@! TO.C,C26*
X243047000Y-94904000D02*
X242347000Y-94904000D01*
X242347000Y-96104000D02*
X243047000Y-96104000D01*
G04 #@! TO.C,C27*
X184058000Y-115474000D02*
X184058000Y-116174000D01*
X185258000Y-116174000D02*
X185258000Y-115474000D01*
G04 #@! TO.C,C28*
X164504000Y-71366000D02*
X164504000Y-70366000D01*
X166204000Y-70366000D02*
X166204000Y-71366000D01*
G04 #@! TO.C,C31*
X184058000Y-98710000D02*
X184058000Y-99410000D01*
X185258000Y-99410000D02*
X185258000Y-98710000D01*
G04 #@! TO.C,C33*
X182153000Y-118014000D02*
X182153000Y-118714000D01*
X183353000Y-118714000D02*
X183353000Y-118014000D01*
G04 #@! TO.C,C34*
X186528000Y-119984000D02*
X186528000Y-119284000D01*
X185328000Y-119284000D02*
X185328000Y-119984000D01*
G04 #@! TO.C,C35*
X178151000Y-137379000D02*
X178851000Y-137379000D01*
X178851000Y-136179000D02*
X178151000Y-136179000D01*
G04 #@! TO.C,C36*
X182845000Y-128300000D02*
X182845000Y-127600000D01*
X181645000Y-127600000D02*
X181645000Y-128300000D01*
G04 #@! TO.C,C37*
X183038000Y-146904000D02*
X183738000Y-146904000D01*
X183738000Y-145704000D02*
X183038000Y-145704000D01*
G04 #@! TO.C,C39*
X161075000Y-136644000D02*
X161075000Y-135644000D01*
X162775000Y-135644000D02*
X162775000Y-136644000D01*
G04 #@! TO.C,C40*
X158023000Y-135794000D02*
X158023000Y-136494000D01*
X159223000Y-136494000D02*
X159223000Y-135794000D01*
G04 #@! TO.C,C41*
X171485000Y-131410000D02*
X171485000Y-132110000D01*
X172685000Y-132110000D02*
X172685000Y-131410000D01*
G04 #@! TO.C,C42*
X170850000Y-142910000D02*
X170150000Y-142910000D01*
X170150000Y-144110000D02*
X170850000Y-144110000D01*
G04 #@! TO.C,C44*
X187228000Y-132496000D02*
X186528000Y-132496000D01*
X186528000Y-133696000D02*
X187228000Y-133696000D01*
G04 #@! TO.C,C45*
X188245000Y-139157000D02*
X188945000Y-139157000D01*
X188945000Y-137957000D02*
X188245000Y-137957000D01*
G04 #@! TO.C,C46*
X192440000Y-140747000D02*
X192440000Y-141447000D01*
X193640000Y-141447000D02*
X193640000Y-140747000D01*
G04 #@! TO.C,R3*
X160827000Y-136601000D02*
X160827000Y-135601000D01*
X159467000Y-135601000D02*
X159467000Y-136601000D01*
G04 #@! TO.C,R5*
X188984000Y-130220000D02*
X189984000Y-130220000D01*
X189984000Y-128860000D02*
X188984000Y-128860000D01*
G04 #@! TO.C,R6*
X188984000Y-128569000D02*
X189984000Y-128569000D01*
X189984000Y-127209000D02*
X188984000Y-127209000D01*
G04 #@! TO.C,R7*
X221015000Y-123907000D02*
X220015000Y-123907000D01*
X220015000Y-125267000D02*
X221015000Y-125267000D01*
G04 #@! TO.C,R9*
X200705000Y-124452000D02*
X200705000Y-123452000D01*
X199345000Y-123452000D02*
X199345000Y-124452000D01*
G04 #@! TO.C,R10*
X198800000Y-124452000D02*
X198800000Y-123452000D01*
X197440000Y-123452000D02*
X197440000Y-124452000D01*
G04 #@! TO.C,R11*
X221015000Y-134067000D02*
X220015000Y-134067000D01*
X220015000Y-135427000D02*
X221015000Y-135427000D01*
G04 #@! TO.C,R13*
X200705000Y-134612000D02*
X200705000Y-133612000D01*
X199345000Y-133612000D02*
X199345000Y-134612000D01*
G04 #@! TO.C,R14*
X198800000Y-134612000D02*
X198800000Y-133612000D01*
X197440000Y-133612000D02*
X197440000Y-134612000D01*
G04 #@! TO.C,R15*
X221015000Y-144227000D02*
X220015000Y-144227000D01*
X220015000Y-145587000D02*
X221015000Y-145587000D01*
G04 #@! TO.C,R17*
X200705000Y-144772000D02*
X200705000Y-143772000D01*
X199345000Y-143772000D02*
X199345000Y-144772000D01*
G04 #@! TO.C,R18*
X198800000Y-144772000D02*
X198800000Y-143772000D01*
X197440000Y-143772000D02*
X197440000Y-144772000D01*
G04 #@! TO.C,R85*
X170860000Y-132115000D02*
X170860000Y-131115000D01*
X169500000Y-131115000D02*
X169500000Y-132115000D01*
G04 #@! TO.C,R86*
X175215000Y-133020000D02*
X175215000Y-134020000D01*
X176575000Y-134020000D02*
X176575000Y-133020000D01*
G04 #@! TO.C,R90*
X186100000Y-141597000D02*
X186100000Y-140597000D01*
X184740000Y-140597000D02*
X184740000Y-141597000D01*
G04 #@! TO.C,R91*
X184576000Y-141724000D02*
X184576000Y-140724000D01*
X183216000Y-140724000D02*
X183216000Y-141724000D01*
G04 #@! TO.C,R92*
X186645000Y-140597000D02*
X186645000Y-141597000D01*
X188005000Y-141597000D02*
X188005000Y-140597000D01*
G04 #@! TO.C,R93*
X188550000Y-140597000D02*
X188550000Y-141597000D01*
X189910000Y-141597000D02*
X189910000Y-140597000D01*
G04 #@! TO.C,R94*
X190455000Y-140597000D02*
X190455000Y-141597000D01*
X191815000Y-141597000D02*
X191815000Y-140597000D01*
D11*
G04 #@! TO.C,U23*
X180125000Y-126110000D02*
X181475000Y-126110000D01*
X180125000Y-129260000D02*
X175475000Y-129260000D01*
X180125000Y-126010000D02*
X175475000Y-126010000D01*
X180125000Y-129260000D02*
X180125000Y-129060000D01*
X175475000Y-129260000D02*
X175475000Y-129060000D01*
X175475000Y-126010000D02*
X175475000Y-126210000D01*
X180125000Y-126010000D02*
X180125000Y-126110000D01*
G04 #@! TO.C,U6*
X208005000Y-56829000D02*
X208005000Y-62804000D01*
X214905000Y-58354000D02*
X214905000Y-62804000D01*
G04 #@! TO.C,U7*
X200030000Y-72855000D02*
X200055000Y-72855000D01*
X200030000Y-77005000D02*
X200135000Y-77005000D01*
X210180000Y-77005000D02*
X210075000Y-77005000D01*
X210180000Y-72855000D02*
X210075000Y-72855000D01*
X200030000Y-72855000D02*
X200030000Y-77005000D01*
X210180000Y-72855000D02*
X210180000Y-77005000D01*
X200055000Y-72855000D02*
X200055000Y-71480000D01*
G04 #@! TO.C,U8*
X212730000Y-72855000D02*
X212755000Y-72855000D01*
X212730000Y-77005000D02*
X212835000Y-77005000D01*
X222880000Y-77005000D02*
X222775000Y-77005000D01*
X222880000Y-72855000D02*
X222775000Y-72855000D01*
X212730000Y-72855000D02*
X212730000Y-77005000D01*
X222880000Y-72855000D02*
X222880000Y-77005000D01*
X212755000Y-72855000D02*
X212755000Y-71480000D01*
G04 #@! TO.C,U10*
X240305000Y-58354000D02*
X240305000Y-62804000D01*
X233405000Y-56829000D02*
X233405000Y-62804000D01*
G04 #@! TO.C,U11*
X225455000Y-72855000D02*
X225455000Y-71480000D01*
X235580000Y-72855000D02*
X235580000Y-77005000D01*
X225430000Y-72855000D02*
X225430000Y-77005000D01*
X235580000Y-72855000D02*
X235475000Y-72855000D01*
X235580000Y-77005000D02*
X235475000Y-77005000D01*
X225430000Y-77005000D02*
X225535000Y-77005000D01*
X225430000Y-72855000D02*
X225455000Y-72855000D01*
G04 #@! TO.C,U12*
X238130000Y-72855000D02*
X238155000Y-72855000D01*
X238130000Y-77005000D02*
X238235000Y-77005000D01*
X248280000Y-77005000D02*
X248175000Y-77005000D01*
X248280000Y-72855000D02*
X248175000Y-72855000D01*
X238130000Y-72855000D02*
X238130000Y-77005000D01*
X248280000Y-72855000D02*
X248280000Y-77005000D01*
X238155000Y-72855000D02*
X238155000Y-71480000D01*
G04 #@! TO.C,U14*
X208005000Y-91754000D02*
X208005000Y-97729000D01*
X214905000Y-93279000D02*
X214905000Y-97729000D01*
G04 #@! TO.C,U15*
X200055000Y-107780000D02*
X200055000Y-106405000D01*
X210180000Y-107780000D02*
X210180000Y-111930000D01*
X200030000Y-107780000D02*
X200030000Y-111930000D01*
X210180000Y-107780000D02*
X210075000Y-107780000D01*
X210180000Y-111930000D02*
X210075000Y-111930000D01*
X200030000Y-111930000D02*
X200135000Y-111930000D01*
X200030000Y-107780000D02*
X200055000Y-107780000D01*
G04 #@! TO.C,U16*
X212730000Y-107780000D02*
X212755000Y-107780000D01*
X212730000Y-111930000D02*
X212835000Y-111930000D01*
X222880000Y-111930000D02*
X222775000Y-111930000D01*
X222880000Y-107780000D02*
X222775000Y-107780000D01*
X212730000Y-107780000D02*
X212730000Y-111930000D01*
X222880000Y-107780000D02*
X222880000Y-111930000D01*
X212755000Y-107780000D02*
X212755000Y-106405000D01*
G04 #@! TO.C,U18*
X240305000Y-93279000D02*
X240305000Y-97729000D01*
X233405000Y-91754000D02*
X233405000Y-97729000D01*
G04 #@! TO.C,U19*
X225455000Y-107780000D02*
X225455000Y-106405000D01*
X235580000Y-107780000D02*
X235580000Y-111930000D01*
X225430000Y-107780000D02*
X225430000Y-111930000D01*
X235580000Y-107780000D02*
X235475000Y-107780000D01*
X235580000Y-111930000D02*
X235475000Y-111930000D01*
X225430000Y-111930000D02*
X225535000Y-111930000D01*
X225430000Y-107780000D02*
X225455000Y-107780000D01*
G04 #@! TO.C,U20*
X238155000Y-107780000D02*
X238155000Y-106405000D01*
X248280000Y-107780000D02*
X248280000Y-111930000D01*
X238130000Y-107780000D02*
X238130000Y-111930000D01*
X248280000Y-107780000D02*
X248175000Y-107780000D01*
X248280000Y-111930000D02*
X248175000Y-111930000D01*
X238130000Y-111930000D02*
X238235000Y-111930000D01*
X238130000Y-107780000D02*
X238155000Y-107780000D01*
G04 #@! TO.C,U21*
X248163000Y-89451000D02*
X248138000Y-89451000D01*
X248163000Y-85301000D02*
X248048000Y-85301000D01*
X239263000Y-85301000D02*
X239378000Y-85301000D01*
X239263000Y-89451000D02*
X239378000Y-89451000D01*
X248163000Y-89451000D02*
X248163000Y-85301000D01*
X239263000Y-89451000D02*
X239263000Y-85301000D01*
X248138000Y-89451000D02*
X248138000Y-90826000D01*
G04 #@! TO.C,C1*
X176506142Y-65619333D02*
X176553761Y-65571714D01*
X176601380Y-65428857D01*
X176601380Y-65333619D01*
X176553761Y-65190761D01*
X176458523Y-65095523D01*
X176363285Y-65047904D01*
X176172809Y-65000285D01*
X176029952Y-65000285D01*
X175839476Y-65047904D01*
X175744238Y-65095523D01*
X175649000Y-65190761D01*
X175601380Y-65333619D01*
X175601380Y-65428857D01*
X175649000Y-65571714D01*
X175696619Y-65619333D01*
X176601380Y-66571714D02*
X176601380Y-66000285D01*
X176601380Y-66286000D02*
X175601380Y-66286000D01*
X175744238Y-66190761D01*
X175839476Y-66095523D01*
X175887095Y-66000285D01*
G04 #@! TO.C,C2*
X178030142Y-65238333D02*
X178077761Y-65190714D01*
X178125380Y-65047857D01*
X178125380Y-64952619D01*
X178077761Y-64809761D01*
X177982523Y-64714523D01*
X177887285Y-64666904D01*
X177696809Y-64619285D01*
X177553952Y-64619285D01*
X177363476Y-64666904D01*
X177268238Y-64714523D01*
X177173000Y-64809761D01*
X177125380Y-64952619D01*
X177125380Y-65047857D01*
X177173000Y-65190714D01*
X177220619Y-65238333D01*
X177220619Y-65619285D02*
X177173000Y-65666904D01*
X177125380Y-65762142D01*
X177125380Y-66000238D01*
X177173000Y-66095476D01*
X177220619Y-66143095D01*
X177315857Y-66190714D01*
X177411095Y-66190714D01*
X177553952Y-66143095D01*
X178125380Y-65571666D01*
X178125380Y-66190714D01*
G04 #@! TO.C,C3*
X171807142Y-66889333D02*
X171854761Y-66841714D01*
X171902380Y-66698857D01*
X171902380Y-66603619D01*
X171854761Y-66460761D01*
X171759523Y-66365523D01*
X171664285Y-66317904D01*
X171473809Y-66270285D01*
X171330952Y-66270285D01*
X171140476Y-66317904D01*
X171045238Y-66365523D01*
X170950000Y-66460761D01*
X170902380Y-66603619D01*
X170902380Y-66698857D01*
X170950000Y-66841714D01*
X170997619Y-66889333D01*
X170902380Y-67222666D02*
X170902380Y-67841714D01*
X171283333Y-67508380D01*
X171283333Y-67651238D01*
X171330952Y-67746476D01*
X171378571Y-67794095D01*
X171473809Y-67841714D01*
X171711904Y-67841714D01*
X171807142Y-67794095D01*
X171854761Y-67746476D01*
X171902380Y-67651238D01*
X171902380Y-67365523D01*
X171854761Y-67270285D01*
X171807142Y-67222666D01*
G04 #@! TO.C,C4*
X170156142Y-66508333D02*
X170203761Y-66460714D01*
X170251380Y-66317857D01*
X170251380Y-66222619D01*
X170203761Y-66079761D01*
X170108523Y-65984523D01*
X170013285Y-65936904D01*
X169822809Y-65889285D01*
X169679952Y-65889285D01*
X169489476Y-65936904D01*
X169394238Y-65984523D01*
X169299000Y-66079761D01*
X169251380Y-66222619D01*
X169251380Y-66317857D01*
X169299000Y-66460714D01*
X169346619Y-66508333D01*
X169584714Y-67365476D02*
X170251380Y-67365476D01*
X169203761Y-67127380D02*
X169918047Y-66889285D01*
X169918047Y-67508333D01*
G04 #@! TO.C,C5*
X172886666Y-74906142D02*
X172934285Y-74953761D01*
X173077142Y-75001380D01*
X173172380Y-75001380D01*
X173315238Y-74953761D01*
X173410476Y-74858523D01*
X173458095Y-74763285D01*
X173505714Y-74572809D01*
X173505714Y-74429952D01*
X173458095Y-74239476D01*
X173410476Y-74144238D01*
X173315238Y-74049000D01*
X173172380Y-74001380D01*
X173077142Y-74001380D01*
X172934285Y-74049000D01*
X172886666Y-74096619D01*
X171981904Y-74001380D02*
X172458095Y-74001380D01*
X172505714Y-74477571D01*
X172458095Y-74429952D01*
X172362857Y-74382333D01*
X172124761Y-74382333D01*
X172029523Y-74429952D01*
X171981904Y-74477571D01*
X171934285Y-74572809D01*
X171934285Y-74810904D01*
X171981904Y-74906142D01*
X172029523Y-74953761D01*
X172124761Y-75001380D01*
X172362857Y-75001380D01*
X172458095Y-74953761D01*
X172505714Y-74906142D01*
G04 #@! TO.C,C9*
X229020666Y-59686142D02*
X229068285Y-59733761D01*
X229211142Y-59781380D01*
X229306380Y-59781380D01*
X229449238Y-59733761D01*
X229544476Y-59638523D01*
X229592095Y-59543285D01*
X229639714Y-59352809D01*
X229639714Y-59209952D01*
X229592095Y-59019476D01*
X229544476Y-58924238D01*
X229449238Y-58829000D01*
X229306380Y-58781380D01*
X229211142Y-58781380D01*
X229068285Y-58829000D01*
X229020666Y-58876619D01*
X228544476Y-59781380D02*
X228354000Y-59781380D01*
X228258761Y-59733761D01*
X228211142Y-59686142D01*
X228115904Y-59543285D01*
X228068285Y-59352809D01*
X228068285Y-58971857D01*
X228115904Y-58876619D01*
X228163523Y-58829000D01*
X228258761Y-58781380D01*
X228449238Y-58781380D01*
X228544476Y-58829000D01*
X228592095Y-58876619D01*
X228639714Y-58971857D01*
X228639714Y-59209952D01*
X228592095Y-59305190D01*
X228544476Y-59352809D01*
X228449238Y-59400428D01*
X228258761Y-59400428D01*
X228163523Y-59352809D01*
X228115904Y-59305190D01*
X228068285Y-59209952D01*
G04 #@! TO.C,C13*
X204096857Y-59813142D02*
X204144476Y-59860761D01*
X204287333Y-59908380D01*
X204382571Y-59908380D01*
X204525428Y-59860761D01*
X204620666Y-59765523D01*
X204668285Y-59670285D01*
X204715904Y-59479809D01*
X204715904Y-59336952D01*
X204668285Y-59146476D01*
X204620666Y-59051238D01*
X204525428Y-58956000D01*
X204382571Y-58908380D01*
X204287333Y-58908380D01*
X204144476Y-58956000D01*
X204096857Y-59003619D01*
X203144476Y-59908380D02*
X203715904Y-59908380D01*
X203430190Y-59908380D02*
X203430190Y-58908380D01*
X203525428Y-59051238D01*
X203620666Y-59146476D01*
X203715904Y-59194095D01*
X202811142Y-58908380D02*
X202192095Y-58908380D01*
X202525428Y-59289333D01*
X202382571Y-59289333D01*
X202287333Y-59336952D01*
X202239714Y-59384571D01*
X202192095Y-59479809D01*
X202192095Y-59717904D01*
X202239714Y-59813142D01*
X202287333Y-59860761D01*
X202382571Y-59908380D01*
X202668285Y-59908380D01*
X202763523Y-59860761D01*
X202811142Y-59813142D01*
G04 #@! TO.C,C17*
X229496857Y-94611142D02*
X229544476Y-94658761D01*
X229687333Y-94706380D01*
X229782571Y-94706380D01*
X229925428Y-94658761D01*
X230020666Y-94563523D01*
X230068285Y-94468285D01*
X230115904Y-94277809D01*
X230115904Y-94134952D01*
X230068285Y-93944476D01*
X230020666Y-93849238D01*
X229925428Y-93754000D01*
X229782571Y-93706380D01*
X229687333Y-93706380D01*
X229544476Y-93754000D01*
X229496857Y-93801619D01*
X228544476Y-94706380D02*
X229115904Y-94706380D01*
X228830190Y-94706380D02*
X228830190Y-93706380D01*
X228925428Y-93849238D01*
X229020666Y-93944476D01*
X229115904Y-93992095D01*
X228211142Y-93706380D02*
X227544476Y-93706380D01*
X227973047Y-94706380D01*
G04 #@! TO.C,C21*
X204096857Y-94611142D02*
X204144476Y-94658761D01*
X204287333Y-94706380D01*
X204382571Y-94706380D01*
X204525428Y-94658761D01*
X204620666Y-94563523D01*
X204668285Y-94468285D01*
X204715904Y-94277809D01*
X204715904Y-94134952D01*
X204668285Y-93944476D01*
X204620666Y-93849238D01*
X204525428Y-93754000D01*
X204382571Y-93706380D01*
X204287333Y-93706380D01*
X204144476Y-93754000D01*
X204096857Y-93801619D01*
X203715904Y-93801619D02*
X203668285Y-93754000D01*
X203573047Y-93706380D01*
X203334952Y-93706380D01*
X203239714Y-93754000D01*
X203192095Y-93801619D01*
X203144476Y-93896857D01*
X203144476Y-93992095D01*
X203192095Y-94134952D01*
X203763523Y-94706380D01*
X203144476Y-94706380D01*
X202192095Y-94706380D02*
X202763523Y-94706380D01*
X202477809Y-94706380D02*
X202477809Y-93706380D01*
X202573047Y-93849238D01*
X202668285Y-93944476D01*
X202763523Y-93992095D01*
G04 #@! TO.C,C22*
X181312142Y-138930142D02*
X181359761Y-138882523D01*
X181407380Y-138739666D01*
X181407380Y-138644428D01*
X181359761Y-138501571D01*
X181264523Y-138406333D01*
X181169285Y-138358714D01*
X180978809Y-138311095D01*
X180835952Y-138311095D01*
X180645476Y-138358714D01*
X180550238Y-138406333D01*
X180455000Y-138501571D01*
X180407380Y-138644428D01*
X180407380Y-138739666D01*
X180455000Y-138882523D01*
X180502619Y-138930142D01*
X180502619Y-139311095D02*
X180455000Y-139358714D01*
X180407380Y-139453952D01*
X180407380Y-139692047D01*
X180455000Y-139787285D01*
X180502619Y-139834904D01*
X180597857Y-139882523D01*
X180693095Y-139882523D01*
X180835952Y-139834904D01*
X181407380Y-139263476D01*
X181407380Y-139882523D01*
X180502619Y-140263476D02*
X180455000Y-140311095D01*
X180407380Y-140406333D01*
X180407380Y-140644428D01*
X180455000Y-140739666D01*
X180502619Y-140787285D01*
X180597857Y-140834904D01*
X180693095Y-140834904D01*
X180835952Y-140787285D01*
X181407380Y-140215857D01*
X181407380Y-140834904D01*
G04 #@! TO.C,C23*
X176537857Y-124182142D02*
X176585476Y-124229761D01*
X176728333Y-124277380D01*
X176823571Y-124277380D01*
X176966428Y-124229761D01*
X177061666Y-124134523D01*
X177109285Y-124039285D01*
X177156904Y-123848809D01*
X177156904Y-123705952D01*
X177109285Y-123515476D01*
X177061666Y-123420238D01*
X176966428Y-123325000D01*
X176823571Y-123277380D01*
X176728333Y-123277380D01*
X176585476Y-123325000D01*
X176537857Y-123372619D01*
X176156904Y-123372619D02*
X176109285Y-123325000D01*
X176014047Y-123277380D01*
X175775952Y-123277380D01*
X175680714Y-123325000D01*
X175633095Y-123372619D01*
X175585476Y-123467857D01*
X175585476Y-123563095D01*
X175633095Y-123705952D01*
X176204523Y-124277380D01*
X175585476Y-124277380D01*
X175252142Y-123277380D02*
X174633095Y-123277380D01*
X174966428Y-123658333D01*
X174823571Y-123658333D01*
X174728333Y-123705952D01*
X174680714Y-123753571D01*
X174633095Y-123848809D01*
X174633095Y-124086904D01*
X174680714Y-124182142D01*
X174728333Y-124229761D01*
X174823571Y-124277380D01*
X175109285Y-124277380D01*
X175204523Y-124229761D01*
X175252142Y-124182142D01*
G04 #@! TO.C,C24*
X181479142Y-142105142D02*
X181526761Y-142057523D01*
X181574380Y-141914666D01*
X181574380Y-141819428D01*
X181526761Y-141676571D01*
X181431523Y-141581333D01*
X181336285Y-141533714D01*
X181145809Y-141486095D01*
X181002952Y-141486095D01*
X180812476Y-141533714D01*
X180717238Y-141581333D01*
X180622000Y-141676571D01*
X180574380Y-141819428D01*
X180574380Y-141914666D01*
X180622000Y-142057523D01*
X180669619Y-142105142D01*
X180669619Y-142486095D02*
X180622000Y-142533714D01*
X180574380Y-142628952D01*
X180574380Y-142867047D01*
X180622000Y-142962285D01*
X180669619Y-143009904D01*
X180764857Y-143057523D01*
X180860095Y-143057523D01*
X181002952Y-143009904D01*
X181574380Y-142438476D01*
X181574380Y-143057523D01*
X180907714Y-143914666D02*
X181574380Y-143914666D01*
X180526761Y-143676571D02*
X181241047Y-143438476D01*
X181241047Y-144057523D01*
G04 #@! TO.C,C26*
X243339857Y-97111142D02*
X243387476Y-97158761D01*
X243530333Y-97206380D01*
X243625571Y-97206380D01*
X243768428Y-97158761D01*
X243863666Y-97063523D01*
X243911285Y-96968285D01*
X243958904Y-96777809D01*
X243958904Y-96634952D01*
X243911285Y-96444476D01*
X243863666Y-96349238D01*
X243768428Y-96254000D01*
X243625571Y-96206380D01*
X243530333Y-96206380D01*
X243387476Y-96254000D01*
X243339857Y-96301619D01*
X242958904Y-96301619D02*
X242911285Y-96254000D01*
X242816047Y-96206380D01*
X242577952Y-96206380D01*
X242482714Y-96254000D01*
X242435095Y-96301619D01*
X242387476Y-96396857D01*
X242387476Y-96492095D01*
X242435095Y-96634952D01*
X243006523Y-97206380D01*
X242387476Y-97206380D01*
X241530333Y-96206380D02*
X241720809Y-96206380D01*
X241816047Y-96254000D01*
X241863666Y-96301619D01*
X241958904Y-96444476D01*
X242006523Y-96634952D01*
X242006523Y-97015904D01*
X241958904Y-97111142D01*
X241911285Y-97158761D01*
X241816047Y-97206380D01*
X241625571Y-97206380D01*
X241530333Y-97158761D01*
X241482714Y-97111142D01*
X241435095Y-97015904D01*
X241435095Y-96777809D01*
X241482714Y-96682571D01*
X241530333Y-96634952D01*
X241625571Y-96587333D01*
X241816047Y-96587333D01*
X241911285Y-96634952D01*
X241958904Y-96682571D01*
X242006523Y-96777809D01*
G04 #@! TO.C,C27*
X185015142Y-112006142D02*
X185062761Y-111958523D01*
X185110380Y-111815666D01*
X185110380Y-111720428D01*
X185062761Y-111577571D01*
X184967523Y-111482333D01*
X184872285Y-111434714D01*
X184681809Y-111387095D01*
X184538952Y-111387095D01*
X184348476Y-111434714D01*
X184253238Y-111482333D01*
X184158000Y-111577571D01*
X184110380Y-111720428D01*
X184110380Y-111815666D01*
X184158000Y-111958523D01*
X184205619Y-112006142D01*
X184205619Y-112387095D02*
X184158000Y-112434714D01*
X184110380Y-112529952D01*
X184110380Y-112768047D01*
X184158000Y-112863285D01*
X184205619Y-112910904D01*
X184300857Y-112958523D01*
X184396095Y-112958523D01*
X184538952Y-112910904D01*
X185110380Y-112339476D01*
X185110380Y-112958523D01*
X184110380Y-113291857D02*
X184110380Y-113958523D01*
X185110380Y-113529952D01*
G04 #@! TO.C,C28*
X165711142Y-73906142D02*
X165758761Y-73858523D01*
X165806380Y-73715666D01*
X165806380Y-73620428D01*
X165758761Y-73477571D01*
X165663523Y-73382333D01*
X165568285Y-73334714D01*
X165377809Y-73287095D01*
X165234952Y-73287095D01*
X165044476Y-73334714D01*
X164949238Y-73382333D01*
X164854000Y-73477571D01*
X164806380Y-73620428D01*
X164806380Y-73715666D01*
X164854000Y-73858523D01*
X164901619Y-73906142D01*
X164901619Y-74287095D02*
X164854000Y-74334714D01*
X164806380Y-74429952D01*
X164806380Y-74668047D01*
X164854000Y-74763285D01*
X164901619Y-74810904D01*
X164996857Y-74858523D01*
X165092095Y-74858523D01*
X165234952Y-74810904D01*
X165806380Y-74239476D01*
X165806380Y-74858523D01*
X165234952Y-75429952D02*
X165187333Y-75334714D01*
X165139714Y-75287095D01*
X165044476Y-75239476D01*
X164996857Y-75239476D01*
X164901619Y-75287095D01*
X164854000Y-75334714D01*
X164806380Y-75429952D01*
X164806380Y-75620428D01*
X164854000Y-75715666D01*
X164901619Y-75763285D01*
X164996857Y-75810904D01*
X165044476Y-75810904D01*
X165139714Y-75763285D01*
X165187333Y-75715666D01*
X165234952Y-75620428D01*
X165234952Y-75429952D01*
X165282571Y-75334714D01*
X165330190Y-75287095D01*
X165425428Y-75239476D01*
X165615904Y-75239476D01*
X165711142Y-75287095D01*
X165758761Y-75334714D01*
X165806380Y-75429952D01*
X165806380Y-75620428D01*
X165758761Y-75715666D01*
X165711142Y-75763285D01*
X165615904Y-75810904D01*
X165425428Y-75810904D01*
X165330190Y-75763285D01*
X165282571Y-75715666D01*
X165234952Y-75620428D01*
G04 #@! TO.C,C31*
X183765142Y-98417142D02*
X183812761Y-98369523D01*
X183860380Y-98226666D01*
X183860380Y-98131428D01*
X183812761Y-97988571D01*
X183717523Y-97893333D01*
X183622285Y-97845714D01*
X183431809Y-97798095D01*
X183288952Y-97798095D01*
X183098476Y-97845714D01*
X183003238Y-97893333D01*
X182908000Y-97988571D01*
X182860380Y-98131428D01*
X182860380Y-98226666D01*
X182908000Y-98369523D01*
X182955619Y-98417142D01*
X182860380Y-98750476D02*
X182860380Y-99369523D01*
X183241333Y-99036190D01*
X183241333Y-99179047D01*
X183288952Y-99274285D01*
X183336571Y-99321904D01*
X183431809Y-99369523D01*
X183669904Y-99369523D01*
X183765142Y-99321904D01*
X183812761Y-99274285D01*
X183860380Y-99179047D01*
X183860380Y-98893333D01*
X183812761Y-98798095D01*
X183765142Y-98750476D01*
X183860380Y-100321904D02*
X183860380Y-99750476D01*
X183860380Y-100036190D02*
X182860380Y-100036190D01*
X183003238Y-99940952D01*
X183098476Y-99845714D01*
X183146095Y-99750476D01*
G04 #@! TO.C,C33*
X183110142Y-114546142D02*
X183157761Y-114498523D01*
X183205380Y-114355666D01*
X183205380Y-114260428D01*
X183157761Y-114117571D01*
X183062523Y-114022333D01*
X182967285Y-113974714D01*
X182776809Y-113927095D01*
X182633952Y-113927095D01*
X182443476Y-113974714D01*
X182348238Y-114022333D01*
X182253000Y-114117571D01*
X182205380Y-114260428D01*
X182205380Y-114355666D01*
X182253000Y-114498523D01*
X182300619Y-114546142D01*
X182205380Y-114879476D02*
X182205380Y-115498523D01*
X182586333Y-115165190D01*
X182586333Y-115308047D01*
X182633952Y-115403285D01*
X182681571Y-115450904D01*
X182776809Y-115498523D01*
X183014904Y-115498523D01*
X183110142Y-115450904D01*
X183157761Y-115403285D01*
X183205380Y-115308047D01*
X183205380Y-115022333D01*
X183157761Y-114927095D01*
X183110142Y-114879476D01*
X182205380Y-115831857D02*
X182205380Y-116450904D01*
X182586333Y-116117571D01*
X182586333Y-116260428D01*
X182633952Y-116355666D01*
X182681571Y-116403285D01*
X182776809Y-116450904D01*
X183014904Y-116450904D01*
X183110142Y-116403285D01*
X183157761Y-116355666D01*
X183205380Y-116260428D01*
X183205380Y-115974714D01*
X183157761Y-115879476D01*
X183110142Y-115831857D01*
G04 #@! TO.C,C34*
X185035142Y-118991142D02*
X185082761Y-118943523D01*
X185130380Y-118800666D01*
X185130380Y-118705428D01*
X185082761Y-118562571D01*
X184987523Y-118467333D01*
X184892285Y-118419714D01*
X184701809Y-118372095D01*
X184558952Y-118372095D01*
X184368476Y-118419714D01*
X184273238Y-118467333D01*
X184178000Y-118562571D01*
X184130380Y-118705428D01*
X184130380Y-118800666D01*
X184178000Y-118943523D01*
X184225619Y-118991142D01*
X184130380Y-119324476D02*
X184130380Y-119943523D01*
X184511333Y-119610190D01*
X184511333Y-119753047D01*
X184558952Y-119848285D01*
X184606571Y-119895904D01*
X184701809Y-119943523D01*
X184939904Y-119943523D01*
X185035142Y-119895904D01*
X185082761Y-119848285D01*
X185130380Y-119753047D01*
X185130380Y-119467333D01*
X185082761Y-119372095D01*
X185035142Y-119324476D01*
X184463714Y-120800666D02*
X185130380Y-120800666D01*
X184082761Y-120562571D02*
X184797047Y-120324476D01*
X184797047Y-120943523D01*
G04 #@! TO.C,C35*
X176506142Y-136136142D02*
X176553761Y-136088523D01*
X176601380Y-135945666D01*
X176601380Y-135850428D01*
X176553761Y-135707571D01*
X176458523Y-135612333D01*
X176363285Y-135564714D01*
X176172809Y-135517095D01*
X176029952Y-135517095D01*
X175839476Y-135564714D01*
X175744238Y-135612333D01*
X175649000Y-135707571D01*
X175601380Y-135850428D01*
X175601380Y-135945666D01*
X175649000Y-136088523D01*
X175696619Y-136136142D01*
X175601380Y-136469476D02*
X175601380Y-137088523D01*
X175982333Y-136755190D01*
X175982333Y-136898047D01*
X176029952Y-136993285D01*
X176077571Y-137040904D01*
X176172809Y-137088523D01*
X176410904Y-137088523D01*
X176506142Y-137040904D01*
X176553761Y-136993285D01*
X176601380Y-136898047D01*
X176601380Y-136612333D01*
X176553761Y-136517095D01*
X176506142Y-136469476D01*
X175601380Y-137993285D02*
X175601380Y-137517095D01*
X176077571Y-137469476D01*
X176029952Y-137517095D01*
X175982333Y-137612333D01*
X175982333Y-137850428D01*
X176029952Y-137945666D01*
X176077571Y-137993285D01*
X176172809Y-138040904D01*
X176410904Y-138040904D01*
X176506142Y-137993285D01*
X176553761Y-137945666D01*
X176601380Y-137850428D01*
X176601380Y-137612333D01*
X176553761Y-137517095D01*
X176506142Y-137469476D01*
G04 #@! TO.C,C36*
X183852142Y-127307142D02*
X183899761Y-127259523D01*
X183947380Y-127116666D01*
X183947380Y-127021428D01*
X183899761Y-126878571D01*
X183804523Y-126783333D01*
X183709285Y-126735714D01*
X183518809Y-126688095D01*
X183375952Y-126688095D01*
X183185476Y-126735714D01*
X183090238Y-126783333D01*
X182995000Y-126878571D01*
X182947380Y-127021428D01*
X182947380Y-127116666D01*
X182995000Y-127259523D01*
X183042619Y-127307142D01*
X182947380Y-127640476D02*
X182947380Y-128259523D01*
X183328333Y-127926190D01*
X183328333Y-128069047D01*
X183375952Y-128164285D01*
X183423571Y-128211904D01*
X183518809Y-128259523D01*
X183756904Y-128259523D01*
X183852142Y-128211904D01*
X183899761Y-128164285D01*
X183947380Y-128069047D01*
X183947380Y-127783333D01*
X183899761Y-127688095D01*
X183852142Y-127640476D01*
X182947380Y-129116666D02*
X182947380Y-128926190D01*
X182995000Y-128830952D01*
X183042619Y-128783333D01*
X183185476Y-128688095D01*
X183375952Y-128640476D01*
X183756904Y-128640476D01*
X183852142Y-128688095D01*
X183899761Y-128735714D01*
X183947380Y-128830952D01*
X183947380Y-129021428D01*
X183899761Y-129116666D01*
X183852142Y-129164285D01*
X183756904Y-129211904D01*
X183518809Y-129211904D01*
X183423571Y-129164285D01*
X183375952Y-129116666D01*
X183328333Y-129021428D01*
X183328333Y-128830952D01*
X183375952Y-128735714D01*
X183423571Y-128688095D01*
X183518809Y-128640476D01*
G04 #@! TO.C,C37*
X184030857Y-148185142D02*
X184078476Y-148232761D01*
X184221333Y-148280380D01*
X184316571Y-148280380D01*
X184459428Y-148232761D01*
X184554666Y-148137523D01*
X184602285Y-148042285D01*
X184649904Y-147851809D01*
X184649904Y-147708952D01*
X184602285Y-147518476D01*
X184554666Y-147423238D01*
X184459428Y-147328000D01*
X184316571Y-147280380D01*
X184221333Y-147280380D01*
X184078476Y-147328000D01*
X184030857Y-147375619D01*
X183697523Y-147280380D02*
X183078476Y-147280380D01*
X183411809Y-147661333D01*
X183268952Y-147661333D01*
X183173714Y-147708952D01*
X183126095Y-147756571D01*
X183078476Y-147851809D01*
X183078476Y-148089904D01*
X183126095Y-148185142D01*
X183173714Y-148232761D01*
X183268952Y-148280380D01*
X183554666Y-148280380D01*
X183649904Y-148232761D01*
X183697523Y-148185142D01*
X182745142Y-147280380D02*
X182078476Y-147280380D01*
X182507047Y-148280380D01*
G04 #@! TO.C,C39*
X162282142Y-131818142D02*
X162329761Y-131770523D01*
X162377380Y-131627666D01*
X162377380Y-131532428D01*
X162329761Y-131389571D01*
X162234523Y-131294333D01*
X162139285Y-131246714D01*
X161948809Y-131199095D01*
X161805952Y-131199095D01*
X161615476Y-131246714D01*
X161520238Y-131294333D01*
X161425000Y-131389571D01*
X161377380Y-131532428D01*
X161377380Y-131627666D01*
X161425000Y-131770523D01*
X161472619Y-131818142D01*
X161377380Y-132151476D02*
X161377380Y-132770523D01*
X161758333Y-132437190D01*
X161758333Y-132580047D01*
X161805952Y-132675285D01*
X161853571Y-132722904D01*
X161948809Y-132770523D01*
X162186904Y-132770523D01*
X162282142Y-132722904D01*
X162329761Y-132675285D01*
X162377380Y-132580047D01*
X162377380Y-132294333D01*
X162329761Y-132199095D01*
X162282142Y-132151476D01*
X162377380Y-133246714D02*
X162377380Y-133437190D01*
X162329761Y-133532428D01*
X162282142Y-133580047D01*
X162139285Y-133675285D01*
X161948809Y-133722904D01*
X161567857Y-133722904D01*
X161472619Y-133675285D01*
X161425000Y-133627666D01*
X161377380Y-133532428D01*
X161377380Y-133341952D01*
X161425000Y-133246714D01*
X161472619Y-133199095D01*
X161567857Y-133151476D01*
X161805952Y-133151476D01*
X161901190Y-133199095D01*
X161948809Y-133246714D01*
X161996428Y-133341952D01*
X161996428Y-133532428D01*
X161948809Y-133627666D01*
X161901190Y-133675285D01*
X161805952Y-133722904D01*
G04 #@! TO.C,C40*
X158980142Y-132326142D02*
X159027761Y-132278523D01*
X159075380Y-132135666D01*
X159075380Y-132040428D01*
X159027761Y-131897571D01*
X158932523Y-131802333D01*
X158837285Y-131754714D01*
X158646809Y-131707095D01*
X158503952Y-131707095D01*
X158313476Y-131754714D01*
X158218238Y-131802333D01*
X158123000Y-131897571D01*
X158075380Y-132040428D01*
X158075380Y-132135666D01*
X158123000Y-132278523D01*
X158170619Y-132326142D01*
X158408714Y-133183285D02*
X159075380Y-133183285D01*
X158027761Y-132945190D02*
X158742047Y-132707095D01*
X158742047Y-133326142D01*
X158075380Y-133897571D02*
X158075380Y-133992809D01*
X158123000Y-134088047D01*
X158170619Y-134135666D01*
X158265857Y-134183285D01*
X158456333Y-134230904D01*
X158694428Y-134230904D01*
X158884904Y-134183285D01*
X158980142Y-134135666D01*
X159027761Y-134088047D01*
X159075380Y-133992809D01*
X159075380Y-133897571D01*
X159027761Y-133802333D01*
X158980142Y-133754714D01*
X158884904Y-133707095D01*
X158694428Y-133659476D01*
X158456333Y-133659476D01*
X158265857Y-133707095D01*
X158170619Y-133754714D01*
X158123000Y-133802333D01*
X158075380Y-133897571D01*
G04 #@! TO.C,C41*
X172442142Y-127627142D02*
X172489761Y-127579523D01*
X172537380Y-127436666D01*
X172537380Y-127341428D01*
X172489761Y-127198571D01*
X172394523Y-127103333D01*
X172299285Y-127055714D01*
X172108809Y-127008095D01*
X171965952Y-127008095D01*
X171775476Y-127055714D01*
X171680238Y-127103333D01*
X171585000Y-127198571D01*
X171537380Y-127341428D01*
X171537380Y-127436666D01*
X171585000Y-127579523D01*
X171632619Y-127627142D01*
X171870714Y-128484285D02*
X172537380Y-128484285D01*
X171489761Y-128246190D02*
X172204047Y-128008095D01*
X172204047Y-128627142D01*
X172537380Y-129531904D02*
X172537380Y-128960476D01*
X172537380Y-129246190D02*
X171537380Y-129246190D01*
X171680238Y-129150952D01*
X171775476Y-129055714D01*
X171823095Y-128960476D01*
G04 #@! TO.C,C42*
X171142857Y-142617142D02*
X171190476Y-142664761D01*
X171333333Y-142712380D01*
X171428571Y-142712380D01*
X171571428Y-142664761D01*
X171666666Y-142569523D01*
X171714285Y-142474285D01*
X171761904Y-142283809D01*
X171761904Y-142140952D01*
X171714285Y-141950476D01*
X171666666Y-141855238D01*
X171571428Y-141760000D01*
X171428571Y-141712380D01*
X171333333Y-141712380D01*
X171190476Y-141760000D01*
X171142857Y-141807619D01*
X170285714Y-142045714D02*
X170285714Y-142712380D01*
X170523809Y-141664761D02*
X170761904Y-142379047D01*
X170142857Y-142379047D01*
X169809523Y-141807619D02*
X169761904Y-141760000D01*
X169666666Y-141712380D01*
X169428571Y-141712380D01*
X169333333Y-141760000D01*
X169285714Y-141807619D01*
X169238095Y-141902857D01*
X169238095Y-141998095D01*
X169285714Y-142140952D01*
X169857142Y-142712380D01*
X169238095Y-142712380D01*
G04 #@! TO.C,C44*
X187520857Y-132203142D02*
X187568476Y-132250761D01*
X187711333Y-132298380D01*
X187806571Y-132298380D01*
X187949428Y-132250761D01*
X188044666Y-132155523D01*
X188092285Y-132060285D01*
X188139904Y-131869809D01*
X188139904Y-131726952D01*
X188092285Y-131536476D01*
X188044666Y-131441238D01*
X187949428Y-131346000D01*
X187806571Y-131298380D01*
X187711333Y-131298380D01*
X187568476Y-131346000D01*
X187520857Y-131393619D01*
X186663714Y-131631714D02*
X186663714Y-132298380D01*
X186901809Y-131250761D02*
X187139904Y-131965047D01*
X186520857Y-131965047D01*
X185711333Y-131631714D02*
X185711333Y-132298380D01*
X185949428Y-131250761D02*
X186187523Y-131965047D01*
X185568476Y-131965047D01*
G04 #@! TO.C,C45*
X189237857Y-137664142D02*
X189285476Y-137711761D01*
X189428333Y-137759380D01*
X189523571Y-137759380D01*
X189666428Y-137711761D01*
X189761666Y-137616523D01*
X189809285Y-137521285D01*
X189856904Y-137330809D01*
X189856904Y-137187952D01*
X189809285Y-136997476D01*
X189761666Y-136902238D01*
X189666428Y-136807000D01*
X189523571Y-136759380D01*
X189428333Y-136759380D01*
X189285476Y-136807000D01*
X189237857Y-136854619D01*
X188380714Y-137092714D02*
X188380714Y-137759380D01*
X188618809Y-136711761D02*
X188856904Y-137426047D01*
X188237857Y-137426047D01*
X187380714Y-136759380D02*
X187856904Y-136759380D01*
X187904523Y-137235571D01*
X187856904Y-137187952D01*
X187761666Y-137140333D01*
X187523571Y-137140333D01*
X187428333Y-137187952D01*
X187380714Y-137235571D01*
X187333095Y-137330809D01*
X187333095Y-137568904D01*
X187380714Y-137664142D01*
X187428333Y-137711761D01*
X187523571Y-137759380D01*
X187761666Y-137759380D01*
X187856904Y-137711761D01*
X187904523Y-137664142D01*
G04 #@! TO.C,C46*
X193397142Y-143629142D02*
X193444761Y-143581523D01*
X193492380Y-143438666D01*
X193492380Y-143343428D01*
X193444761Y-143200571D01*
X193349523Y-143105333D01*
X193254285Y-143057714D01*
X193063809Y-143010095D01*
X192920952Y-143010095D01*
X192730476Y-143057714D01*
X192635238Y-143105333D01*
X192540000Y-143200571D01*
X192492380Y-143343428D01*
X192492380Y-143438666D01*
X192540000Y-143581523D01*
X192587619Y-143629142D01*
X192825714Y-144486285D02*
X193492380Y-144486285D01*
X192444761Y-144248190D02*
X193159047Y-144010095D01*
X193159047Y-144629142D01*
X192492380Y-145438666D02*
X192492380Y-145248190D01*
X192540000Y-145152952D01*
X192587619Y-145105333D01*
X192730476Y-145010095D01*
X192920952Y-144962476D01*
X193301904Y-144962476D01*
X193397142Y-145010095D01*
X193444761Y-145057714D01*
X193492380Y-145152952D01*
X193492380Y-145343428D01*
X193444761Y-145438666D01*
X193397142Y-145486285D01*
X193301904Y-145533904D01*
X193063809Y-145533904D01*
X192968571Y-145486285D01*
X192920952Y-145438666D01*
X192873333Y-145343428D01*
X192873333Y-145152952D01*
X192920952Y-145057714D01*
X192968571Y-145010095D01*
X193063809Y-144962476D01*
G04 #@! TO.C,R3*
X160599380Y-133056333D02*
X160123190Y-132723000D01*
X160599380Y-132484904D02*
X159599380Y-132484904D01*
X159599380Y-132865857D01*
X159647000Y-132961095D01*
X159694619Y-133008714D01*
X159789857Y-133056333D01*
X159932714Y-133056333D01*
X160027952Y-133008714D01*
X160075571Y-132961095D01*
X160123190Y-132865857D01*
X160123190Y-132484904D01*
X159599380Y-133389666D02*
X159599380Y-134008714D01*
X159980333Y-133675380D01*
X159980333Y-133818238D01*
X160027952Y-133913476D01*
X160075571Y-133961095D01*
X160170809Y-134008714D01*
X160408904Y-134008714D01*
X160504142Y-133961095D01*
X160551761Y-133913476D01*
X160599380Y-133818238D01*
X160599380Y-133532523D01*
X160551761Y-133437285D01*
X160504142Y-133389666D01*
G04 #@! TO.C,R5*
X186856666Y-129992380D02*
X187190000Y-129516190D01*
X187428095Y-129992380D02*
X187428095Y-128992380D01*
X187047142Y-128992380D01*
X186951904Y-129040000D01*
X186904285Y-129087619D01*
X186856666Y-129182857D01*
X186856666Y-129325714D01*
X186904285Y-129420952D01*
X186951904Y-129468571D01*
X187047142Y-129516190D01*
X187428095Y-129516190D01*
X185951904Y-128992380D02*
X186428095Y-128992380D01*
X186475714Y-129468571D01*
X186428095Y-129420952D01*
X186332857Y-129373333D01*
X186094761Y-129373333D01*
X185999523Y-129420952D01*
X185951904Y-129468571D01*
X185904285Y-129563809D01*
X185904285Y-129801904D01*
X185951904Y-129897142D01*
X185999523Y-129944761D01*
X186094761Y-129992380D01*
X186332857Y-129992380D01*
X186428095Y-129944761D01*
X186475714Y-129897142D01*
G04 #@! TO.C,R6*
X186856666Y-128341380D02*
X187190000Y-127865190D01*
X187428095Y-128341380D02*
X187428095Y-127341380D01*
X187047142Y-127341380D01*
X186951904Y-127389000D01*
X186904285Y-127436619D01*
X186856666Y-127531857D01*
X186856666Y-127674714D01*
X186904285Y-127769952D01*
X186951904Y-127817571D01*
X187047142Y-127865190D01*
X187428095Y-127865190D01*
X185999523Y-127341380D02*
X186190000Y-127341380D01*
X186285238Y-127389000D01*
X186332857Y-127436619D01*
X186428095Y-127579476D01*
X186475714Y-127769952D01*
X186475714Y-128150904D01*
X186428095Y-128246142D01*
X186380476Y-128293761D01*
X186285238Y-128341380D01*
X186094761Y-128341380D01*
X185999523Y-128293761D01*
X185951904Y-128246142D01*
X185904285Y-128150904D01*
X185904285Y-127912809D01*
X185951904Y-127817571D01*
X185999523Y-127769952D01*
X186094761Y-127722333D01*
X186285238Y-127722333D01*
X186380476Y-127769952D01*
X186428095Y-127817571D01*
X186475714Y-127912809D01*
G04 #@! TO.C,R7*
X220681666Y-126489380D02*
X221015000Y-126013190D01*
X221253095Y-126489380D02*
X221253095Y-125489380D01*
X220872142Y-125489380D01*
X220776904Y-125537000D01*
X220729285Y-125584619D01*
X220681666Y-125679857D01*
X220681666Y-125822714D01*
X220729285Y-125917952D01*
X220776904Y-125965571D01*
X220872142Y-126013190D01*
X221253095Y-126013190D01*
X220348333Y-125489380D02*
X219681666Y-125489380D01*
X220110238Y-126489380D01*
G04 #@! TO.C,R9*
X201927380Y-123785333D02*
X201451190Y-123452000D01*
X201927380Y-123213904D02*
X200927380Y-123213904D01*
X200927380Y-123594857D01*
X200975000Y-123690095D01*
X201022619Y-123737714D01*
X201117857Y-123785333D01*
X201260714Y-123785333D01*
X201355952Y-123737714D01*
X201403571Y-123690095D01*
X201451190Y-123594857D01*
X201451190Y-123213904D01*
X201927380Y-124261523D02*
X201927380Y-124452000D01*
X201879761Y-124547238D01*
X201832142Y-124594857D01*
X201689285Y-124690095D01*
X201498809Y-124737714D01*
X201117857Y-124737714D01*
X201022619Y-124690095D01*
X200975000Y-124642476D01*
X200927380Y-124547238D01*
X200927380Y-124356761D01*
X200975000Y-124261523D01*
X201022619Y-124213904D01*
X201117857Y-124166285D01*
X201355952Y-124166285D01*
X201451190Y-124213904D01*
X201498809Y-124261523D01*
X201546428Y-124356761D01*
X201546428Y-124547238D01*
X201498809Y-124642476D01*
X201451190Y-124690095D01*
X201355952Y-124737714D01*
G04 #@! TO.C,R10*
X197122380Y-123309142D02*
X196646190Y-122975809D01*
X197122380Y-122737714D02*
X196122380Y-122737714D01*
X196122380Y-123118666D01*
X196170000Y-123213904D01*
X196217619Y-123261523D01*
X196312857Y-123309142D01*
X196455714Y-123309142D01*
X196550952Y-123261523D01*
X196598571Y-123213904D01*
X196646190Y-123118666D01*
X196646190Y-122737714D01*
X197122380Y-124261523D02*
X197122380Y-123690095D01*
X197122380Y-123975809D02*
X196122380Y-123975809D01*
X196265238Y-123880571D01*
X196360476Y-123785333D01*
X196408095Y-123690095D01*
X196122380Y-124880571D02*
X196122380Y-124975809D01*
X196170000Y-125071047D01*
X196217619Y-125118666D01*
X196312857Y-125166285D01*
X196503333Y-125213904D01*
X196741428Y-125213904D01*
X196931904Y-125166285D01*
X197027142Y-125118666D01*
X197074761Y-125071047D01*
X197122380Y-124975809D01*
X197122380Y-124880571D01*
X197074761Y-124785333D01*
X197027142Y-124737714D01*
X196931904Y-124690095D01*
X196741428Y-124642476D01*
X196503333Y-124642476D01*
X196312857Y-124690095D01*
X196217619Y-124737714D01*
X196170000Y-124785333D01*
X196122380Y-124880571D01*
G04 #@! TO.C,R11*
X221157857Y-136649380D02*
X221491190Y-136173190D01*
X221729285Y-136649380D02*
X221729285Y-135649380D01*
X221348333Y-135649380D01*
X221253095Y-135697000D01*
X221205476Y-135744619D01*
X221157857Y-135839857D01*
X221157857Y-135982714D01*
X221205476Y-136077952D01*
X221253095Y-136125571D01*
X221348333Y-136173190D01*
X221729285Y-136173190D01*
X220205476Y-136649380D02*
X220776904Y-136649380D01*
X220491190Y-136649380D02*
X220491190Y-135649380D01*
X220586428Y-135792238D01*
X220681666Y-135887476D01*
X220776904Y-135935095D01*
X219253095Y-136649380D02*
X219824523Y-136649380D01*
X219538809Y-136649380D02*
X219538809Y-135649380D01*
X219634047Y-135792238D01*
X219729285Y-135887476D01*
X219824523Y-135935095D01*
G04 #@! TO.C,R13*
X201927380Y-133469142D02*
X201451190Y-133135809D01*
X201927380Y-132897714D02*
X200927380Y-132897714D01*
X200927380Y-133278666D01*
X200975000Y-133373904D01*
X201022619Y-133421523D01*
X201117857Y-133469142D01*
X201260714Y-133469142D01*
X201355952Y-133421523D01*
X201403571Y-133373904D01*
X201451190Y-133278666D01*
X201451190Y-132897714D01*
X201927380Y-134421523D02*
X201927380Y-133850095D01*
X201927380Y-134135809D02*
X200927380Y-134135809D01*
X201070238Y-134040571D01*
X201165476Y-133945333D01*
X201213095Y-133850095D01*
X200927380Y-134754857D02*
X200927380Y-135373904D01*
X201308333Y-135040571D01*
X201308333Y-135183428D01*
X201355952Y-135278666D01*
X201403571Y-135326285D01*
X201498809Y-135373904D01*
X201736904Y-135373904D01*
X201832142Y-135326285D01*
X201879761Y-135278666D01*
X201927380Y-135183428D01*
X201927380Y-134897714D01*
X201879761Y-134802476D01*
X201832142Y-134754857D01*
G04 #@! TO.C,R14*
X197122380Y-133469142D02*
X196646190Y-133135809D01*
X197122380Y-132897714D02*
X196122380Y-132897714D01*
X196122380Y-133278666D01*
X196170000Y-133373904D01*
X196217619Y-133421523D01*
X196312857Y-133469142D01*
X196455714Y-133469142D01*
X196550952Y-133421523D01*
X196598571Y-133373904D01*
X196646190Y-133278666D01*
X196646190Y-132897714D01*
X197122380Y-134421523D02*
X197122380Y-133850095D01*
X197122380Y-134135809D02*
X196122380Y-134135809D01*
X196265238Y-134040571D01*
X196360476Y-133945333D01*
X196408095Y-133850095D01*
X196455714Y-135278666D02*
X197122380Y-135278666D01*
X196074761Y-135040571D02*
X196789047Y-134802476D01*
X196789047Y-135421523D01*
G04 #@! TO.C,R15*
X221157857Y-146809380D02*
X221491190Y-146333190D01*
X221729285Y-146809380D02*
X221729285Y-145809380D01*
X221348333Y-145809380D01*
X221253095Y-145857000D01*
X221205476Y-145904619D01*
X221157857Y-145999857D01*
X221157857Y-146142714D01*
X221205476Y-146237952D01*
X221253095Y-146285571D01*
X221348333Y-146333190D01*
X221729285Y-146333190D01*
X220205476Y-146809380D02*
X220776904Y-146809380D01*
X220491190Y-146809380D02*
X220491190Y-145809380D01*
X220586428Y-145952238D01*
X220681666Y-146047476D01*
X220776904Y-146095095D01*
X219300714Y-145809380D02*
X219776904Y-145809380D01*
X219824523Y-146285571D01*
X219776904Y-146237952D01*
X219681666Y-146190333D01*
X219443571Y-146190333D01*
X219348333Y-146237952D01*
X219300714Y-146285571D01*
X219253095Y-146380809D01*
X219253095Y-146618904D01*
X219300714Y-146714142D01*
X219348333Y-146761761D01*
X219443571Y-146809380D01*
X219681666Y-146809380D01*
X219776904Y-146761761D01*
X219824523Y-146714142D01*
G04 #@! TO.C,R17*
X201927380Y-143629142D02*
X201451190Y-143295809D01*
X201927380Y-143057714D02*
X200927380Y-143057714D01*
X200927380Y-143438666D01*
X200975000Y-143533904D01*
X201022619Y-143581523D01*
X201117857Y-143629142D01*
X201260714Y-143629142D01*
X201355952Y-143581523D01*
X201403571Y-143533904D01*
X201451190Y-143438666D01*
X201451190Y-143057714D01*
X201927380Y-144581523D02*
X201927380Y-144010095D01*
X201927380Y-144295809D02*
X200927380Y-144295809D01*
X201070238Y-144200571D01*
X201165476Y-144105333D01*
X201213095Y-144010095D01*
X200927380Y-144914857D02*
X200927380Y-145581523D01*
X201927380Y-145152952D01*
G04 #@! TO.C,R18*
X197122380Y-143629142D02*
X196646190Y-143295809D01*
X197122380Y-143057714D02*
X196122380Y-143057714D01*
X196122380Y-143438666D01*
X196170000Y-143533904D01*
X196217619Y-143581523D01*
X196312857Y-143629142D01*
X196455714Y-143629142D01*
X196550952Y-143581523D01*
X196598571Y-143533904D01*
X196646190Y-143438666D01*
X196646190Y-143057714D01*
X197122380Y-144581523D02*
X197122380Y-144010095D01*
X197122380Y-144295809D02*
X196122380Y-144295809D01*
X196265238Y-144200571D01*
X196360476Y-144105333D01*
X196408095Y-144010095D01*
X196550952Y-145152952D02*
X196503333Y-145057714D01*
X196455714Y-145010095D01*
X196360476Y-144962476D01*
X196312857Y-144962476D01*
X196217619Y-145010095D01*
X196170000Y-145057714D01*
X196122380Y-145152952D01*
X196122380Y-145343428D01*
X196170000Y-145438666D01*
X196217619Y-145486285D01*
X196312857Y-145533904D01*
X196360476Y-145533904D01*
X196455714Y-145486285D01*
X196503333Y-145438666D01*
X196550952Y-145343428D01*
X196550952Y-145152952D01*
X196598571Y-145057714D01*
X196646190Y-145010095D01*
X196741428Y-144962476D01*
X196931904Y-144962476D01*
X197027142Y-145010095D01*
X197074761Y-145057714D01*
X197122380Y-145152952D01*
X197122380Y-145343428D01*
X197074761Y-145438666D01*
X197027142Y-145486285D01*
X196931904Y-145533904D01*
X196741428Y-145533904D01*
X196646190Y-145486285D01*
X196598571Y-145438666D01*
X196550952Y-145343428D01*
G04 #@! TO.C,R85*
X170632380Y-127627142D02*
X170156190Y-127293809D01*
X170632380Y-127055714D02*
X169632380Y-127055714D01*
X169632380Y-127436666D01*
X169680000Y-127531904D01*
X169727619Y-127579523D01*
X169822857Y-127627142D01*
X169965714Y-127627142D01*
X170060952Y-127579523D01*
X170108571Y-127531904D01*
X170156190Y-127436666D01*
X170156190Y-127055714D01*
X170060952Y-128198571D02*
X170013333Y-128103333D01*
X169965714Y-128055714D01*
X169870476Y-128008095D01*
X169822857Y-128008095D01*
X169727619Y-128055714D01*
X169680000Y-128103333D01*
X169632380Y-128198571D01*
X169632380Y-128389047D01*
X169680000Y-128484285D01*
X169727619Y-128531904D01*
X169822857Y-128579523D01*
X169870476Y-128579523D01*
X169965714Y-128531904D01*
X170013333Y-128484285D01*
X170060952Y-128389047D01*
X170060952Y-128198571D01*
X170108571Y-128103333D01*
X170156190Y-128055714D01*
X170251428Y-128008095D01*
X170441904Y-128008095D01*
X170537142Y-128055714D01*
X170584761Y-128103333D01*
X170632380Y-128198571D01*
X170632380Y-128389047D01*
X170584761Y-128484285D01*
X170537142Y-128531904D01*
X170441904Y-128579523D01*
X170251428Y-128579523D01*
X170156190Y-128531904D01*
X170108571Y-128484285D01*
X170060952Y-128389047D01*
X169632380Y-129484285D02*
X169632380Y-129008095D01*
X170108571Y-128960476D01*
X170060952Y-129008095D01*
X170013333Y-129103333D01*
X170013333Y-129341428D01*
X170060952Y-129436666D01*
X170108571Y-129484285D01*
X170203809Y-129531904D01*
X170441904Y-129531904D01*
X170537142Y-129484285D01*
X170584761Y-129436666D01*
X170632380Y-129341428D01*
X170632380Y-129103333D01*
X170584761Y-129008095D01*
X170537142Y-128960476D01*
G04 #@! TO.C,R86*
X176220380Y-129659142D02*
X175744190Y-129325809D01*
X176220380Y-129087714D02*
X175220380Y-129087714D01*
X175220380Y-129468666D01*
X175268000Y-129563904D01*
X175315619Y-129611523D01*
X175410857Y-129659142D01*
X175553714Y-129659142D01*
X175648952Y-129611523D01*
X175696571Y-129563904D01*
X175744190Y-129468666D01*
X175744190Y-129087714D01*
X175648952Y-130230571D02*
X175601333Y-130135333D01*
X175553714Y-130087714D01*
X175458476Y-130040095D01*
X175410857Y-130040095D01*
X175315619Y-130087714D01*
X175268000Y-130135333D01*
X175220380Y-130230571D01*
X175220380Y-130421047D01*
X175268000Y-130516285D01*
X175315619Y-130563904D01*
X175410857Y-130611523D01*
X175458476Y-130611523D01*
X175553714Y-130563904D01*
X175601333Y-130516285D01*
X175648952Y-130421047D01*
X175648952Y-130230571D01*
X175696571Y-130135333D01*
X175744190Y-130087714D01*
X175839428Y-130040095D01*
X176029904Y-130040095D01*
X176125142Y-130087714D01*
X176172761Y-130135333D01*
X176220380Y-130230571D01*
X176220380Y-130421047D01*
X176172761Y-130516285D01*
X176125142Y-130563904D01*
X176029904Y-130611523D01*
X175839428Y-130611523D01*
X175744190Y-130563904D01*
X175696571Y-130516285D01*
X175648952Y-130421047D01*
X175220380Y-131468666D02*
X175220380Y-131278190D01*
X175268000Y-131182952D01*
X175315619Y-131135333D01*
X175458476Y-131040095D01*
X175648952Y-130992476D01*
X176029904Y-130992476D01*
X176125142Y-131040095D01*
X176172761Y-131087714D01*
X176220380Y-131182952D01*
X176220380Y-131373428D01*
X176172761Y-131468666D01*
X176125142Y-131516285D01*
X176029904Y-131563904D01*
X175791809Y-131563904D01*
X175696571Y-131516285D01*
X175648952Y-131468666D01*
X175601333Y-131373428D01*
X175601333Y-131182952D01*
X175648952Y-131087714D01*
X175696571Y-131040095D01*
X175791809Y-130992476D01*
G04 #@! TO.C,R90*
X185872380Y-143629142D02*
X185396190Y-143295809D01*
X185872380Y-143057714D02*
X184872380Y-143057714D01*
X184872380Y-143438666D01*
X184920000Y-143533904D01*
X184967619Y-143581523D01*
X185062857Y-143629142D01*
X185205714Y-143629142D01*
X185300952Y-143581523D01*
X185348571Y-143533904D01*
X185396190Y-143438666D01*
X185396190Y-143057714D01*
X185872380Y-144105333D02*
X185872380Y-144295809D01*
X185824761Y-144391047D01*
X185777142Y-144438666D01*
X185634285Y-144533904D01*
X185443809Y-144581523D01*
X185062857Y-144581523D01*
X184967619Y-144533904D01*
X184920000Y-144486285D01*
X184872380Y-144391047D01*
X184872380Y-144200571D01*
X184920000Y-144105333D01*
X184967619Y-144057714D01*
X185062857Y-144010095D01*
X185300952Y-144010095D01*
X185396190Y-144057714D01*
X185443809Y-144105333D01*
X185491428Y-144200571D01*
X185491428Y-144391047D01*
X185443809Y-144486285D01*
X185396190Y-144533904D01*
X185300952Y-144581523D01*
X184872380Y-145200571D02*
X184872380Y-145295809D01*
X184920000Y-145391047D01*
X184967619Y-145438666D01*
X185062857Y-145486285D01*
X185253333Y-145533904D01*
X185491428Y-145533904D01*
X185681904Y-145486285D01*
X185777142Y-145438666D01*
X185824761Y-145391047D01*
X185872380Y-145295809D01*
X185872380Y-145200571D01*
X185824761Y-145105333D01*
X185777142Y-145057714D01*
X185681904Y-145010095D01*
X185491428Y-144962476D01*
X185253333Y-144962476D01*
X185062857Y-145010095D01*
X184967619Y-145057714D01*
X184920000Y-145105333D01*
X184872380Y-145200571D01*
G04 #@! TO.C,R91*
X184348380Y-143629142D02*
X183872190Y-143295809D01*
X184348380Y-143057714D02*
X183348380Y-143057714D01*
X183348380Y-143438666D01*
X183396000Y-143533904D01*
X183443619Y-143581523D01*
X183538857Y-143629142D01*
X183681714Y-143629142D01*
X183776952Y-143581523D01*
X183824571Y-143533904D01*
X183872190Y-143438666D01*
X183872190Y-143057714D01*
X184348380Y-144105333D02*
X184348380Y-144295809D01*
X184300761Y-144391047D01*
X184253142Y-144438666D01*
X184110285Y-144533904D01*
X183919809Y-144581523D01*
X183538857Y-144581523D01*
X183443619Y-144533904D01*
X183396000Y-144486285D01*
X183348380Y-144391047D01*
X183348380Y-144200571D01*
X183396000Y-144105333D01*
X183443619Y-144057714D01*
X183538857Y-144010095D01*
X183776952Y-144010095D01*
X183872190Y-144057714D01*
X183919809Y-144105333D01*
X183967428Y-144200571D01*
X183967428Y-144391047D01*
X183919809Y-144486285D01*
X183872190Y-144533904D01*
X183776952Y-144581523D01*
X184348380Y-145533904D02*
X184348380Y-144962476D01*
X184348380Y-145248190D02*
X183348380Y-145248190D01*
X183491238Y-145152952D01*
X183586476Y-145057714D01*
X183634095Y-144962476D01*
G04 #@! TO.C,R92*
X187904380Y-143629142D02*
X187428190Y-143295809D01*
X187904380Y-143057714D02*
X186904380Y-143057714D01*
X186904380Y-143438666D01*
X186952000Y-143533904D01*
X186999619Y-143581523D01*
X187094857Y-143629142D01*
X187237714Y-143629142D01*
X187332952Y-143581523D01*
X187380571Y-143533904D01*
X187428190Y-143438666D01*
X187428190Y-143057714D01*
X187904380Y-144105333D02*
X187904380Y-144295809D01*
X187856761Y-144391047D01*
X187809142Y-144438666D01*
X187666285Y-144533904D01*
X187475809Y-144581523D01*
X187094857Y-144581523D01*
X186999619Y-144533904D01*
X186952000Y-144486285D01*
X186904380Y-144391047D01*
X186904380Y-144200571D01*
X186952000Y-144105333D01*
X186999619Y-144057714D01*
X187094857Y-144010095D01*
X187332952Y-144010095D01*
X187428190Y-144057714D01*
X187475809Y-144105333D01*
X187523428Y-144200571D01*
X187523428Y-144391047D01*
X187475809Y-144486285D01*
X187428190Y-144533904D01*
X187332952Y-144581523D01*
X186999619Y-144962476D02*
X186952000Y-145010095D01*
X186904380Y-145105333D01*
X186904380Y-145343428D01*
X186952000Y-145438666D01*
X186999619Y-145486285D01*
X187094857Y-145533904D01*
X187190095Y-145533904D01*
X187332952Y-145486285D01*
X187904380Y-144914857D01*
X187904380Y-145533904D01*
G04 #@! TO.C,R93*
X189682380Y-143629142D02*
X189206190Y-143295809D01*
X189682380Y-143057714D02*
X188682380Y-143057714D01*
X188682380Y-143438666D01*
X188730000Y-143533904D01*
X188777619Y-143581523D01*
X188872857Y-143629142D01*
X189015714Y-143629142D01*
X189110952Y-143581523D01*
X189158571Y-143533904D01*
X189206190Y-143438666D01*
X189206190Y-143057714D01*
X189682380Y-144105333D02*
X189682380Y-144295809D01*
X189634761Y-144391047D01*
X189587142Y-144438666D01*
X189444285Y-144533904D01*
X189253809Y-144581523D01*
X188872857Y-144581523D01*
X188777619Y-144533904D01*
X188730000Y-144486285D01*
X188682380Y-144391047D01*
X188682380Y-144200571D01*
X188730000Y-144105333D01*
X188777619Y-144057714D01*
X188872857Y-144010095D01*
X189110952Y-144010095D01*
X189206190Y-144057714D01*
X189253809Y-144105333D01*
X189301428Y-144200571D01*
X189301428Y-144391047D01*
X189253809Y-144486285D01*
X189206190Y-144533904D01*
X189110952Y-144581523D01*
X188682380Y-144914857D02*
X188682380Y-145533904D01*
X189063333Y-145200571D01*
X189063333Y-145343428D01*
X189110952Y-145438666D01*
X189158571Y-145486285D01*
X189253809Y-145533904D01*
X189491904Y-145533904D01*
X189587142Y-145486285D01*
X189634761Y-145438666D01*
X189682380Y-145343428D01*
X189682380Y-145057714D01*
X189634761Y-144962476D01*
X189587142Y-144914857D01*
G04 #@! TO.C,R94*
X191587380Y-143629142D02*
X191111190Y-143295809D01*
X191587380Y-143057714D02*
X190587380Y-143057714D01*
X190587380Y-143438666D01*
X190635000Y-143533904D01*
X190682619Y-143581523D01*
X190777857Y-143629142D01*
X190920714Y-143629142D01*
X191015952Y-143581523D01*
X191063571Y-143533904D01*
X191111190Y-143438666D01*
X191111190Y-143057714D01*
X191587380Y-144105333D02*
X191587380Y-144295809D01*
X191539761Y-144391047D01*
X191492142Y-144438666D01*
X191349285Y-144533904D01*
X191158809Y-144581523D01*
X190777857Y-144581523D01*
X190682619Y-144533904D01*
X190635000Y-144486285D01*
X190587380Y-144391047D01*
X190587380Y-144200571D01*
X190635000Y-144105333D01*
X190682619Y-144057714D01*
X190777857Y-144010095D01*
X191015952Y-144010095D01*
X191111190Y-144057714D01*
X191158809Y-144105333D01*
X191206428Y-144200571D01*
X191206428Y-144391047D01*
X191158809Y-144486285D01*
X191111190Y-144533904D01*
X191015952Y-144581523D01*
X190920714Y-145438666D02*
X191587380Y-145438666D01*
X190539761Y-145200571D02*
X191254047Y-144962476D01*
X191254047Y-145581523D01*
G04 #@! TO.C,U23*
X180435095Y-124537380D02*
X180435095Y-125346904D01*
X180387476Y-125442142D01*
X180339857Y-125489761D01*
X180244619Y-125537380D01*
X180054142Y-125537380D01*
X179958904Y-125489761D01*
X179911285Y-125442142D01*
X179863666Y-125346904D01*
X179863666Y-124537380D01*
X179435095Y-124632619D02*
X179387476Y-124585000D01*
X179292238Y-124537380D01*
X179054142Y-124537380D01*
X178958904Y-124585000D01*
X178911285Y-124632619D01*
X178863666Y-124727857D01*
X178863666Y-124823095D01*
X178911285Y-124965952D01*
X179482714Y-125537380D01*
X178863666Y-125537380D01*
X178530333Y-124537380D02*
X177911285Y-124537380D01*
X178244619Y-124918333D01*
X178101761Y-124918333D01*
X178006523Y-124965952D01*
X177958904Y-125013571D01*
X177911285Y-125108809D01*
X177911285Y-125346904D01*
X177958904Y-125442142D01*
X178006523Y-125489761D01*
X178101761Y-125537380D01*
X178387476Y-125537380D01*
X178482714Y-125489761D01*
X178530333Y-125442142D01*
G04 #@! TO.C,U6*
X206607380Y-59817095D02*
X207416904Y-59817095D01*
X207512142Y-59864714D01*
X207559761Y-59912333D01*
X207607380Y-60007571D01*
X207607380Y-60198047D01*
X207559761Y-60293285D01*
X207512142Y-60340904D01*
X207416904Y-60388523D01*
X206607380Y-60388523D01*
X206607380Y-61293285D02*
X206607380Y-61102809D01*
X206655000Y-61007571D01*
X206702619Y-60959952D01*
X206845476Y-60864714D01*
X207035952Y-60817095D01*
X207416904Y-60817095D01*
X207512142Y-60864714D01*
X207559761Y-60912333D01*
X207607380Y-61007571D01*
X207607380Y-61198047D01*
X207559761Y-61293285D01*
X207512142Y-61340904D01*
X207416904Y-61388523D01*
X207178809Y-61388523D01*
X207083571Y-61340904D01*
X207035952Y-61293285D01*
X206988333Y-61198047D01*
X206988333Y-61007571D01*
X207035952Y-60912333D01*
X207083571Y-60864714D01*
X207178809Y-60817095D01*
G04 #@! TO.C,U7*
X198557380Y-74168095D02*
X199366904Y-74168095D01*
X199462142Y-74215714D01*
X199509761Y-74263333D01*
X199557380Y-74358571D01*
X199557380Y-74549047D01*
X199509761Y-74644285D01*
X199462142Y-74691904D01*
X199366904Y-74739523D01*
X198557380Y-74739523D01*
X198557380Y-75120476D02*
X198557380Y-75787142D01*
X199557380Y-75358571D01*
G04 #@! TO.C,U8*
X211257380Y-74168095D02*
X212066904Y-74168095D01*
X212162142Y-74215714D01*
X212209761Y-74263333D01*
X212257380Y-74358571D01*
X212257380Y-74549047D01*
X212209761Y-74644285D01*
X212162142Y-74691904D01*
X212066904Y-74739523D01*
X211257380Y-74739523D01*
X211685952Y-75358571D02*
X211638333Y-75263333D01*
X211590714Y-75215714D01*
X211495476Y-75168095D01*
X211447857Y-75168095D01*
X211352619Y-75215714D01*
X211305000Y-75263333D01*
X211257380Y-75358571D01*
X211257380Y-75549047D01*
X211305000Y-75644285D01*
X211352619Y-75691904D01*
X211447857Y-75739523D01*
X211495476Y-75739523D01*
X211590714Y-75691904D01*
X211638333Y-75644285D01*
X211685952Y-75549047D01*
X211685952Y-75358571D01*
X211733571Y-75263333D01*
X211781190Y-75215714D01*
X211876428Y-75168095D01*
X212066904Y-75168095D01*
X212162142Y-75215714D01*
X212209761Y-75263333D01*
X212257380Y-75358571D01*
X212257380Y-75549047D01*
X212209761Y-75644285D01*
X212162142Y-75691904D01*
X212066904Y-75739523D01*
X211876428Y-75739523D01*
X211781190Y-75691904D01*
X211733571Y-75644285D01*
X211685952Y-75549047D01*
G04 #@! TO.C,U10*
X232007380Y-59340904D02*
X232816904Y-59340904D01*
X232912142Y-59388523D01*
X232959761Y-59436142D01*
X233007380Y-59531380D01*
X233007380Y-59721857D01*
X232959761Y-59817095D01*
X232912142Y-59864714D01*
X232816904Y-59912333D01*
X232007380Y-59912333D01*
X233007380Y-60912333D02*
X233007380Y-60340904D01*
X233007380Y-60626619D02*
X232007380Y-60626619D01*
X232150238Y-60531380D01*
X232245476Y-60436142D01*
X232293095Y-60340904D01*
X232007380Y-61531380D02*
X232007380Y-61626619D01*
X232055000Y-61721857D01*
X232102619Y-61769476D01*
X232197857Y-61817095D01*
X232388333Y-61864714D01*
X232626428Y-61864714D01*
X232816904Y-61817095D01*
X232912142Y-61769476D01*
X232959761Y-61721857D01*
X233007380Y-61626619D01*
X233007380Y-61531380D01*
X232959761Y-61436142D01*
X232912142Y-61388523D01*
X232816904Y-61340904D01*
X232626428Y-61293285D01*
X232388333Y-61293285D01*
X232197857Y-61340904D01*
X232102619Y-61388523D01*
X232055000Y-61436142D01*
X232007380Y-61531380D01*
G04 #@! TO.C,U11*
X223957380Y-73691904D02*
X224766904Y-73691904D01*
X224862142Y-73739523D01*
X224909761Y-73787142D01*
X224957380Y-73882380D01*
X224957380Y-74072857D01*
X224909761Y-74168095D01*
X224862142Y-74215714D01*
X224766904Y-74263333D01*
X223957380Y-74263333D01*
X224957380Y-75263333D02*
X224957380Y-74691904D01*
X224957380Y-74977619D02*
X223957380Y-74977619D01*
X224100238Y-74882380D01*
X224195476Y-74787142D01*
X224243095Y-74691904D01*
X224957380Y-76215714D02*
X224957380Y-75644285D01*
X224957380Y-75930000D02*
X223957380Y-75930000D01*
X224100238Y-75834761D01*
X224195476Y-75739523D01*
X224243095Y-75644285D01*
G04 #@! TO.C,U12*
X236657380Y-73691904D02*
X237466904Y-73691904D01*
X237562142Y-73739523D01*
X237609761Y-73787142D01*
X237657380Y-73882380D01*
X237657380Y-74072857D01*
X237609761Y-74168095D01*
X237562142Y-74215714D01*
X237466904Y-74263333D01*
X236657380Y-74263333D01*
X237657380Y-75263333D02*
X237657380Y-74691904D01*
X237657380Y-74977619D02*
X236657380Y-74977619D01*
X236800238Y-74882380D01*
X236895476Y-74787142D01*
X236943095Y-74691904D01*
X236752619Y-75644285D02*
X236705000Y-75691904D01*
X236657380Y-75787142D01*
X236657380Y-76025238D01*
X236705000Y-76120476D01*
X236752619Y-76168095D01*
X236847857Y-76215714D01*
X236943095Y-76215714D01*
X237085952Y-76168095D01*
X237657380Y-75596666D01*
X237657380Y-76215714D01*
G04 #@! TO.C,U14*
X206607380Y-94265904D02*
X207416904Y-94265904D01*
X207512142Y-94313523D01*
X207559761Y-94361142D01*
X207607380Y-94456380D01*
X207607380Y-94646857D01*
X207559761Y-94742095D01*
X207512142Y-94789714D01*
X207416904Y-94837333D01*
X206607380Y-94837333D01*
X207607380Y-95837333D02*
X207607380Y-95265904D01*
X207607380Y-95551619D02*
X206607380Y-95551619D01*
X206750238Y-95456380D01*
X206845476Y-95361142D01*
X206893095Y-95265904D01*
X206940714Y-96694476D02*
X207607380Y-96694476D01*
X206559761Y-96456380D02*
X207274047Y-96218285D01*
X207274047Y-96837333D01*
G04 #@! TO.C,U15*
X198557380Y-108616904D02*
X199366904Y-108616904D01*
X199462142Y-108664523D01*
X199509761Y-108712142D01*
X199557380Y-108807380D01*
X199557380Y-108997857D01*
X199509761Y-109093095D01*
X199462142Y-109140714D01*
X199366904Y-109188333D01*
X198557380Y-109188333D01*
X199557380Y-110188333D02*
X199557380Y-109616904D01*
X199557380Y-109902619D02*
X198557380Y-109902619D01*
X198700238Y-109807380D01*
X198795476Y-109712142D01*
X198843095Y-109616904D01*
X198557380Y-111093095D02*
X198557380Y-110616904D01*
X199033571Y-110569285D01*
X198985952Y-110616904D01*
X198938333Y-110712142D01*
X198938333Y-110950238D01*
X198985952Y-111045476D01*
X199033571Y-111093095D01*
X199128809Y-111140714D01*
X199366904Y-111140714D01*
X199462142Y-111093095D01*
X199509761Y-111045476D01*
X199557380Y-110950238D01*
X199557380Y-110712142D01*
X199509761Y-110616904D01*
X199462142Y-110569285D01*
G04 #@! TO.C,U16*
X211257380Y-108616904D02*
X212066904Y-108616904D01*
X212162142Y-108664523D01*
X212209761Y-108712142D01*
X212257380Y-108807380D01*
X212257380Y-108997857D01*
X212209761Y-109093095D01*
X212162142Y-109140714D01*
X212066904Y-109188333D01*
X211257380Y-109188333D01*
X212257380Y-110188333D02*
X212257380Y-109616904D01*
X212257380Y-109902619D02*
X211257380Y-109902619D01*
X211400238Y-109807380D01*
X211495476Y-109712142D01*
X211543095Y-109616904D01*
X211257380Y-111045476D02*
X211257380Y-110855000D01*
X211305000Y-110759761D01*
X211352619Y-110712142D01*
X211495476Y-110616904D01*
X211685952Y-110569285D01*
X212066904Y-110569285D01*
X212162142Y-110616904D01*
X212209761Y-110664523D01*
X212257380Y-110759761D01*
X212257380Y-110950238D01*
X212209761Y-111045476D01*
X212162142Y-111093095D01*
X212066904Y-111140714D01*
X211828809Y-111140714D01*
X211733571Y-111093095D01*
X211685952Y-111045476D01*
X211638333Y-110950238D01*
X211638333Y-110759761D01*
X211685952Y-110664523D01*
X211733571Y-110616904D01*
X211828809Y-110569285D01*
G04 #@! TO.C,U18*
X232007380Y-94265904D02*
X232816904Y-94265904D01*
X232912142Y-94313523D01*
X232959761Y-94361142D01*
X233007380Y-94456380D01*
X233007380Y-94646857D01*
X232959761Y-94742095D01*
X232912142Y-94789714D01*
X232816904Y-94837333D01*
X232007380Y-94837333D01*
X233007380Y-95837333D02*
X233007380Y-95265904D01*
X233007380Y-95551619D02*
X232007380Y-95551619D01*
X232150238Y-95456380D01*
X232245476Y-95361142D01*
X232293095Y-95265904D01*
X232435952Y-96408761D02*
X232388333Y-96313523D01*
X232340714Y-96265904D01*
X232245476Y-96218285D01*
X232197857Y-96218285D01*
X232102619Y-96265904D01*
X232055000Y-96313523D01*
X232007380Y-96408761D01*
X232007380Y-96599238D01*
X232055000Y-96694476D01*
X232102619Y-96742095D01*
X232197857Y-96789714D01*
X232245476Y-96789714D01*
X232340714Y-96742095D01*
X232388333Y-96694476D01*
X232435952Y-96599238D01*
X232435952Y-96408761D01*
X232483571Y-96313523D01*
X232531190Y-96265904D01*
X232626428Y-96218285D01*
X232816904Y-96218285D01*
X232912142Y-96265904D01*
X232959761Y-96313523D01*
X233007380Y-96408761D01*
X233007380Y-96599238D01*
X232959761Y-96694476D01*
X232912142Y-96742095D01*
X232816904Y-96789714D01*
X232626428Y-96789714D01*
X232531190Y-96742095D01*
X232483571Y-96694476D01*
X232435952Y-96599238D01*
G04 #@! TO.C,U19*
X223957380Y-108616904D02*
X224766904Y-108616904D01*
X224862142Y-108664523D01*
X224909761Y-108712142D01*
X224957380Y-108807380D01*
X224957380Y-108997857D01*
X224909761Y-109093095D01*
X224862142Y-109140714D01*
X224766904Y-109188333D01*
X223957380Y-109188333D01*
X224957380Y-110188333D02*
X224957380Y-109616904D01*
X224957380Y-109902619D02*
X223957380Y-109902619D01*
X224100238Y-109807380D01*
X224195476Y-109712142D01*
X224243095Y-109616904D01*
X224957380Y-110664523D02*
X224957380Y-110855000D01*
X224909761Y-110950238D01*
X224862142Y-110997857D01*
X224719285Y-111093095D01*
X224528809Y-111140714D01*
X224147857Y-111140714D01*
X224052619Y-111093095D01*
X224005000Y-111045476D01*
X223957380Y-110950238D01*
X223957380Y-110759761D01*
X224005000Y-110664523D01*
X224052619Y-110616904D01*
X224147857Y-110569285D01*
X224385952Y-110569285D01*
X224481190Y-110616904D01*
X224528809Y-110664523D01*
X224576428Y-110759761D01*
X224576428Y-110950238D01*
X224528809Y-111045476D01*
X224481190Y-111093095D01*
X224385952Y-111140714D01*
G04 #@! TO.C,U20*
X236657380Y-108616904D02*
X237466904Y-108616904D01*
X237562142Y-108664523D01*
X237609761Y-108712142D01*
X237657380Y-108807380D01*
X237657380Y-108997857D01*
X237609761Y-109093095D01*
X237562142Y-109140714D01*
X237466904Y-109188333D01*
X236657380Y-109188333D01*
X236752619Y-109616904D02*
X236705000Y-109664523D01*
X236657380Y-109759761D01*
X236657380Y-109997857D01*
X236705000Y-110093095D01*
X236752619Y-110140714D01*
X236847857Y-110188333D01*
X236943095Y-110188333D01*
X237085952Y-110140714D01*
X237657380Y-109569285D01*
X237657380Y-110188333D01*
X236657380Y-110807380D02*
X236657380Y-110902619D01*
X236705000Y-110997857D01*
X236752619Y-111045476D01*
X236847857Y-111093095D01*
X237038333Y-111140714D01*
X237276428Y-111140714D01*
X237466904Y-111093095D01*
X237562142Y-111045476D01*
X237609761Y-110997857D01*
X237657380Y-110902619D01*
X237657380Y-110807380D01*
X237609761Y-110712142D01*
X237562142Y-110664523D01*
X237466904Y-110616904D01*
X237276428Y-110569285D01*
X237038333Y-110569285D01*
X236847857Y-110616904D01*
X236752619Y-110664523D01*
X236705000Y-110712142D01*
X236657380Y-110807380D01*
G04 #@! TO.C,U21*
X248540380Y-86137904D02*
X249349904Y-86137904D01*
X249445142Y-86185523D01*
X249492761Y-86233142D01*
X249540380Y-86328380D01*
X249540380Y-86518857D01*
X249492761Y-86614095D01*
X249445142Y-86661714D01*
X249349904Y-86709333D01*
X248540380Y-86709333D01*
X248635619Y-87137904D02*
X248588000Y-87185523D01*
X248540380Y-87280761D01*
X248540380Y-87518857D01*
X248588000Y-87614095D01*
X248635619Y-87661714D01*
X248730857Y-87709333D01*
X248826095Y-87709333D01*
X248968952Y-87661714D01*
X249540380Y-87090285D01*
X249540380Y-87709333D01*
X249540380Y-88661714D02*
X249540380Y-88090285D01*
X249540380Y-88376000D02*
X248540380Y-88376000D01*
X248683238Y-88280761D01*
X248778476Y-88185523D01*
X248826095Y-88090285D01*
G04 #@! TD*
M02*
