M48
;DRILL file {KiCad (5.0.2)-1} date 06/05/19 14:49:39
;FORMAT={-:-/ absolute / metric / decimal}
FMAT,2
METRIC,TZ
T1C0.300
T2C0.600
T3C0.700
T4C0.900
T5C1.000
T6C1.100
T7C2.700
T8C3.200
%
G90
G05
T1
X175.006Y-123.825
X175.895Y-127.264
X175.895Y-128.016
X176.53Y-97.917
X176.784Y-135.89
X177.673Y-96.774
X178.435Y-100.838
X178.562Y-105.791
X178.932Y-93.715
X179.07Y-128.27
X179.197Y-140.589
X179.578Y-102.87
X179.705Y-127.254
X179.705Y-129.54
X179.943Y-97.103
X179.959Y-97.871
X180.436Y-102.108
X181.356Y-93.726
X182.372Y-140.208
X183.261Y-128.778
X183.886Y-99.493
X183.896Y-141.224
X184.023Y-98.753
X184.424Y-143.37
X185.928Y-146.304
X186.029Y-140.774
X186.309Y-143.764
X186.67Y-139.192
X191.664Y-140.5
X191.664Y-141.694
X196.85Y-140.97
X199.644Y-59.309
X199.644Y-93.853
X200.66Y-76.327
X200.66Y-111.506
X200.992Y-59.768
X201.93Y-73.822
X201.93Y-110.398
X202.692Y-74.376
X203.189Y-110.952
X204.47Y-76.581
X204.47Y-111.379
X204.996Y-78.772
X205.105Y-113.665
X205.74Y-76.454
X205.74Y-111.506
X205.767Y-59.466
X206.375Y-78.74
X206.576Y-96.086
X206.595Y-61.653
X206.645Y-59.371
X207.202Y-59.925
X207.818Y-60.479
X208.153Y-111.353
X208.534Y-62.484
X208.534Y-97.536
X208.661Y-93.842
X208.694Y-94.95
X208.915Y-78.74
X208.915Y-113.792
X209.042Y-73.914
X209.169Y-56.388
X209.169Y-91.44
X209.296Y-95.504
X209.352Y-94.396
X209.55Y-108.077
X209.804Y-55.88
X209.804Y-90.932
X210.439Y-56.388
X210.449Y-91.319
X211.084Y-56.001
X211.089Y-90.923
X213.36Y-60.579
X213.36Y-76.327
X213.36Y-95.504
X213.36Y-111.379
X214.63Y-75.132
X214.63Y-110.057
X215.894Y-75.686
X215.894Y-110.611
X217.17Y-76.581
X217.17Y-111.379
X217.297Y-95.504
X217.805Y-78.74
X217.805Y-105.918
X217.805Y-113.609
X218.44Y-76.327
X218.44Y-111.379
X218.966Y-78.772
X219.075Y-113.665
X221.234Y-73.914
X221.234Y-96.012
X221.234Y-97.663
X221.506Y-113.697
X221.615Y-78.994
X222.25Y-108.204
X225.044Y-59.055
X225.044Y-93.98
X226.06Y-76.454
X226.06Y-111.506
X227.33Y-75.132
X228.026Y-109.386
X228.129Y-110.273
X228.594Y-75.686
X229.87Y-76.581
X229.87Y-111.379
X230.505Y-113.609
X230.759Y-78.994
X231.14Y-76.327
X231.14Y-111.379
X231.741Y-113.642
X231.775Y-78.994
X231.948Y-61.057
X231.948Y-96.058
X233.426Y-58.801
X233.426Y-62.766
X233.656Y-94.95
X233.68Y-93.842
X233.934Y-97.536
X233.958Y-59.355
X234.188Y-73.935
X234.188Y-95.504
X234.188Y-113.792
X234.315Y-78.994
X234.315Y-94.396
X234.569Y-56.388
X234.569Y-91.44
X234.67Y-59.736
X234.827Y-60.472
X234.95Y-108.204
X235.214Y-56.001
X235.214Y-91.053
X235.854Y-56.397
X235.854Y-91.449
X236.491Y-55.997
X236.491Y-91.049
X236.638Y-96.938
X238.76Y-111.506
X238.887Y-60.833
X238.887Y-76.454
X239.226Y-97.155
X239.268Y-94.488
X239.903Y-96.307
X240.03Y-75.132
X240.03Y-110.109
X240.838Y-93.731
X241.23Y-110.674
X241.294Y-75.686
X242.255Y-105.791
X242.57Y-76.581
X242.57Y-111.506
X243.205Y-78.867
X243.205Y-113.609
X243.84Y-76.327
X243.903Y-111.442
X244.511Y-113.563
X244.602Y-78.867
X245.618Y-97.282
X246.634Y-92.964
X246.649Y-93.741
X246.952Y-113.666
X247.142Y-73.914
X247.425Y-93.749
X247.426Y-94.532
X247.523Y-78.994
X247.602Y-99.52
X247.65Y-108.331
X248.163Y-98.176
X248.216Y-94.525
X248.716Y-96.139
T2
X173.99Y-131.445
X173.99Y-132.715
X173.99Y-133.985
X229.235Y-122.047
X230.505Y-122.047
X231.775Y-122.047
X229.235Y-132.207
X230.505Y-132.207
X231.775Y-132.207
X229.235Y-142.367
X230.505Y-142.367
X231.775Y-142.367
T3
X200.025Y-140.462
X200.025Y-148.082
X202.565Y-140.462
X202.565Y-148.082
X205.105Y-140.462
X205.105Y-148.082
X207.645Y-140.462
X207.645Y-148.082
X210.185Y-140.462
X210.185Y-148.082
X212.725Y-140.462
X212.725Y-148.082
X215.265Y-140.462
X215.265Y-148.082
X217.805Y-140.462
X217.805Y-148.082
X184.404Y-132.08
X186.944Y-134.747
X189.484Y-132.08
X212.725Y-102.235
X212.725Y-117.475
X215.265Y-102.235
X215.265Y-117.475
X217.805Y-102.235
X217.805Y-117.475
X220.345Y-102.235
X220.345Y-117.475
X222.885Y-102.235
X222.885Y-117.475
X200.025Y-130.302
X200.025Y-137.922
X202.565Y-130.302
X202.565Y-137.922
X205.105Y-130.302
X205.105Y-137.922
X207.645Y-130.302
X207.645Y-137.922
X210.185Y-130.302
X210.185Y-137.922
X212.725Y-130.302
X212.725Y-137.922
X215.265Y-130.302
X215.265Y-137.922
X217.805Y-130.302
X217.805Y-137.922
X184.786Y-137.919
X194.945Y-137.922
X200.025Y-120.142
X200.025Y-127.762
X202.565Y-120.142
X202.565Y-127.762
X205.105Y-120.142
X205.105Y-127.762
X207.645Y-120.142
X207.645Y-127.762
X210.185Y-120.142
X210.185Y-127.762
X212.725Y-120.142
X212.725Y-127.762
X215.265Y-120.142
X215.265Y-127.762
X217.805Y-120.142
X217.805Y-127.762
X167.64Y-134.62
X167.643Y-124.461
X180.848Y-113.284
X180.848Y-115.824
X180.848Y-118.364
X180.848Y-120.904
X188.468Y-113.284
X188.468Y-115.824
X188.468Y-118.364
X188.468Y-120.904
X225.425Y-67.31
X225.425Y-82.55
X227.965Y-67.31
X227.965Y-82.55
X230.505Y-67.31
X230.505Y-82.55
X233.045Y-67.31
X233.045Y-82.55
X235.585Y-67.31
X235.585Y-82.55
X164.465Y-136.525
X174.624Y-136.528
X168.275Y-142.24
X170.815Y-144.907
X173.355Y-142.24
X170.183Y-134.621
X170.185Y-124.461
X200.025Y-67.31
X200.025Y-82.55
X202.565Y-67.31
X202.565Y-82.55
X205.105Y-67.31
X205.105Y-82.55
X207.645Y-67.31
X207.645Y-82.55
X210.185Y-67.31
X210.185Y-82.55
X177.795Y-132.714
X177.797Y-122.554
X238.125Y-67.31
X238.125Y-82.55
X240.665Y-67.31
X240.665Y-82.55
X243.205Y-67.31
X243.205Y-82.55
X245.745Y-67.31
X245.745Y-82.55
X248.285Y-67.31
X248.285Y-82.55
X225.419Y-102.235
X225.419Y-117.475
X227.959Y-102.235
X227.959Y-117.475
X230.499Y-102.235
X230.499Y-117.475
X233.039Y-102.235
X233.039Y-117.475
X235.579Y-102.235
X235.579Y-117.475
X238.125Y-102.235
X238.125Y-117.475
X240.665Y-102.235
X240.665Y-117.475
X243.205Y-102.235
X243.205Y-117.475
X245.745Y-102.235
X245.745Y-117.475
X248.285Y-102.235
X248.285Y-117.475
X212.725Y-67.31
X212.725Y-82.55
X215.265Y-67.31
X215.265Y-82.55
X217.805Y-67.31
X217.805Y-82.55
X220.345Y-67.31
X220.345Y-82.55
X222.885Y-67.31
X222.885Y-82.55
X200.025Y-102.235
X200.025Y-117.475
X202.565Y-102.235
X202.565Y-117.475
X205.105Y-102.235
X205.105Y-117.475
X207.645Y-102.235
X207.645Y-117.475
X210.185Y-102.235
X210.185Y-117.475
T4
X221.616Y-127.759
X231.775Y-127.762
X224.155Y-142.367
X224.155Y-144.907
X224.155Y-132.207
X224.155Y-134.747
X224.155Y-122.047
X224.155Y-124.587
X156.845Y-139.7
X156.845Y-144.78
X161.925Y-139.7
X161.925Y-144.78
X158.115Y-129.54
X160.655Y-129.54
X160.147Y-72.263
X162.687Y-72.263
X221.616Y-137.919
X231.775Y-137.922
X221.615Y-148.082
X231.774Y-148.085
T5
X240.665Y-132.842
X168.91Y-93.599
X168.91Y-96.139
X168.91Y-98.679
X168.91Y-101.219
X168.91Y-103.759
X168.91Y-106.299
X193.675Y-127.762
X193.675Y-130.302
X193.675Y-132.842
X240.665Y-127.762
T6
X174.117Y-67.183
X174.117Y-69.723
X174.117Y-72.263
X167.767Y-67.183
X167.767Y-69.723
X167.767Y-72.263
T7
X169.672Y-58.293
X174.117Y-54.483
T8
X157.5Y-55.
X174.117Y-60.833
X247.5Y-145.
X247.5Y-55.
X162.5Y-115.
T0
M30
