M48
;DRILL file {KiCad (5.0.0)} date 08/29/18 20:23:03
;FORMAT={-:-/ absolute / metric / decimal}
FMAT,2
METRIC,TZ
T1C0.700
T2C0.900
T3C1.000
T4C1.200
%
G90
G05
M71
T1
X72.39Y-107.95
X74.93Y-107.95
X66.04Y-99.06
X68.58Y-99.06
X71.12Y-99.06
X91.44Y-88.9
X93.98Y-88.9
X96.52Y-88.9
X82.55Y-107.95
X85.09Y-107.95
X87.63Y-107.95
X69.85Y-91.44
X69.85Y-93.98
X69.85Y-96.52
X92.075Y-106.68
X94.615Y-104.013
X97.155Y-106.68
X77.47Y-107.95
T2
X81.28Y-76.2
X86.36Y-76.2
T3
X63.5Y-91.44
X63.5Y-93.98
X87.63Y-110.49
X91.44Y-91.44
X91.44Y-93.98
X83.82Y-68.58
X86.36Y-68.58
X93.98Y-76.2
X96.52Y-76.2
X57.15Y-91.44
X57.15Y-93.98
X74.93Y-105.41
X77.47Y-105.41
X74.93Y-86.36
X74.93Y-88.9
X74.93Y-91.44
X74.93Y-93.98
X74.93Y-96.52
X74.93Y-99.06
X74.93Y-101.6
X87.63Y-86.36
X87.63Y-88.9
X87.63Y-91.44
X87.63Y-93.98
X87.63Y-96.52
X87.63Y-99.06
X87.63Y-101.6
X68.58Y-101.6
X71.12Y-101.6
X50.8Y-91.44
X50.8Y-93.98
X82.55Y-105.41
X85.09Y-105.41
X93.98Y-82.55
X96.52Y-82.55
X91.44Y-96.52
X91.44Y-99.06
X68.58Y-104.14
X71.12Y-104.14
T4
X63.5Y-76.2
X71.12Y-76.2
T0
M30
