G04 #@! TF.FileFunction,Copper,L2,Bot,Signal*
%FSLAX46Y46*%
G04 Gerber Fmt 4.6, Leading zero omitted, Abs format (unit mm)*
G04 Created by KiCad (PCBNEW 4.0.7) date 06/12/18 06:08:35*
%MOMM*%
%LPD*%
G01*
G04 APERTURE LIST*
%ADD10C,0.100000*%
%ADD11C,1.716000*%
%ADD12R,1.500000X1.250000*%
%ADD13R,1.716000X1.716000*%
%ADD14R,1.250000X1.500000*%
%ADD15R,2.016000X2.016000*%
%ADD16C,2.016000*%
%ADD17R,2.216000X2.216000*%
%ADD18C,2.216000*%
%ADD19C,1.989000*%
%ADD20R,1.989000X1.989000*%
%ADD21R,1.300000X1.500000*%
%ADD22R,1.500000X1.300000*%
%ADD23C,3.800000*%
%ADD24C,0.508000*%
%ADD25C,0.304800*%
G04 APERTURE END LIST*
D10*
D11*
X163195000Y-89535000D03*
X163195000Y-92075000D03*
X163195000Y-94615000D03*
X163195000Y-97155000D03*
X170815000Y-97155000D03*
X170815000Y-94615000D03*
X170815000Y-92075000D03*
X170815000Y-89535000D03*
D12*
X168255000Y-92075000D03*
X165755000Y-92075000D03*
D13*
X170180000Y-83312000D03*
D11*
X167640000Y-83312000D03*
D13*
X161544000Y-81788000D03*
D11*
X159004000Y-81788000D03*
D14*
X161036000Y-93238000D03*
X161036000Y-95738000D03*
D13*
X147320000Y-89408000D03*
D11*
X149860000Y-89408000D03*
D13*
X147320000Y-98044000D03*
D11*
X149860000Y-98044000D03*
D13*
X157988000Y-89408000D03*
D11*
X155448000Y-89408000D03*
D13*
X157988000Y-98044000D03*
D11*
X155448000Y-98044000D03*
D14*
X168275000Y-94635000D03*
X168275000Y-97135000D03*
D13*
X173987460Y-92074480D03*
D11*
X173990000Y-81915000D03*
D13*
X173987460Y-104774480D03*
D11*
X173990000Y-94615000D03*
D15*
X170180000Y-77216000D03*
D16*
X167640000Y-77216000D03*
X165100000Y-77216000D03*
D15*
X147320000Y-83312000D03*
D16*
X149860000Y-83312000D03*
D17*
X191135000Y-93345000D03*
D18*
X191135000Y-98425000D03*
D15*
X163068000Y-101092000D03*
D16*
X165608000Y-101092000D03*
X168148000Y-101092000D03*
D19*
X180975000Y-89535000D03*
D20*
X178435000Y-89535000D03*
D19*
X183515000Y-89535000D03*
X180975000Y-97155000D03*
D20*
X178435000Y-97155000D03*
D19*
X183515000Y-97155000D03*
D21*
X159004000Y-95838000D03*
X159004000Y-93138000D03*
D22*
X181055000Y-86995000D03*
X178355000Y-86995000D03*
X181055000Y-92075000D03*
X178355000Y-92075000D03*
X178355000Y-94615000D03*
X181055000Y-94615000D03*
X178355000Y-99695000D03*
X181055000Y-99695000D03*
D21*
X187960000Y-89455000D03*
X187960000Y-92155000D03*
X187960000Y-94535000D03*
X187960000Y-97235000D03*
D23*
X145796000Y-75692000D03*
X193548000Y-75692000D03*
X193548000Y-106172000D03*
X145796000Y-106172000D03*
D24*
X181055000Y-86995000D02*
X181055000Y-86567000D01*
X181055000Y-86567000D02*
X171704000Y-77216000D01*
X171704000Y-77216000D02*
X170180000Y-77216000D01*
X170815000Y-89535000D02*
X170815000Y-83947000D01*
X170815000Y-83947000D02*
X170180000Y-83312000D01*
X170180000Y-83312000D02*
X170180000Y-77216000D01*
X168255000Y-92075000D02*
X168255000Y-90825000D01*
X169545000Y-89535000D02*
X170815000Y-89535000D01*
X168255000Y-90825000D02*
X169545000Y-89535000D01*
X181055000Y-92075000D02*
X181055000Y-89615000D01*
X181055000Y-89615000D02*
X180975000Y-89535000D01*
X181055000Y-86995000D02*
X181055000Y-89455000D01*
X181055000Y-89455000D02*
X180975000Y-89535000D01*
X161036000Y-93238000D02*
X161036000Y-90932000D01*
X161036000Y-90932000D02*
X161544000Y-90424000D01*
X191135000Y-98425000D02*
X193040000Y-96520000D01*
X168656000Y-75692000D02*
X167640000Y-76708000D01*
X176784000Y-75692000D02*
X168656000Y-75692000D01*
X193040000Y-91948000D02*
X176784000Y-75692000D01*
X193040000Y-96520000D02*
X193040000Y-91948000D01*
X167640000Y-76708000D02*
X167640000Y-77216000D01*
X163195000Y-92075000D02*
X161544000Y-90424000D01*
X161544000Y-85344000D02*
X165100000Y-81788000D01*
X161544000Y-90424000D02*
X161544000Y-85344000D01*
X161544000Y-81788000D02*
X165100000Y-81788000D01*
X165100000Y-81788000D02*
X167640000Y-79248000D01*
X167640000Y-77216000D02*
X167640000Y-79248000D01*
X167640000Y-79248000D02*
X167640000Y-83312000D01*
X149860000Y-83312000D02*
X160020000Y-83312000D01*
X160020000Y-83312000D02*
X161544000Y-81788000D01*
X168275000Y-97135000D02*
X167874000Y-97135000D01*
X167874000Y-97135000D02*
X165735000Y-94996000D01*
X165735000Y-94996000D02*
X165735000Y-94615000D01*
X165735000Y-94615000D02*
X165735000Y-94635000D01*
X165735000Y-94635000D02*
X165735000Y-92075000D01*
X165735000Y-92075000D02*
X165755000Y-92075000D01*
X165755000Y-92075000D02*
X163195000Y-92075000D01*
X161036000Y-102108000D02*
X148844000Y-102108000D01*
X149860000Y-77216000D02*
X162052000Y-77216000D01*
X145796000Y-81280000D02*
X149860000Y-77216000D01*
X145796000Y-99060000D02*
X145796000Y-81280000D01*
X148844000Y-102108000D02*
X145796000Y-99060000D01*
X161036000Y-95738000D02*
X161036000Y-102108000D01*
X175260000Y-106172000D02*
X181356000Y-100076000D01*
X165100000Y-106172000D02*
X175260000Y-106172000D01*
X161036000Y-102108000D02*
X165100000Y-106172000D01*
X181356000Y-100076000D02*
X181055000Y-99695000D01*
X161036000Y-95738000D02*
X161270000Y-95738000D01*
X161270000Y-95738000D02*
X162560000Y-97028000D01*
X162560000Y-97028000D02*
X163068000Y-97028000D01*
X163068000Y-97028000D02*
X163195000Y-97155000D01*
X165100000Y-77216000D02*
X162052000Y-77216000D01*
X159004000Y-80264000D02*
X159004000Y-81788000D01*
X162052000Y-77216000D02*
X159004000Y-80264000D01*
X163215000Y-97135000D02*
X163195000Y-97155000D01*
X181055000Y-99695000D02*
X181055000Y-97235000D01*
X181055000Y-97235000D02*
X180975000Y-97155000D01*
X180975000Y-97155000D02*
X180975000Y-94615000D01*
X180975000Y-94615000D02*
X181055000Y-94615000D01*
D25*
X161036000Y-96012000D02*
X161036000Y-95678000D01*
X147320000Y-89408000D02*
X147320000Y-84836000D01*
X157988000Y-89408000D02*
X157480000Y-89408000D01*
X157480000Y-89408000D02*
X155956000Y-87884000D01*
X155956000Y-87884000D02*
X150368000Y-87884000D01*
X150368000Y-87884000D02*
X147320000Y-84836000D01*
X147320000Y-84836000D02*
X147320000Y-83312000D01*
X149860000Y-98044000D02*
X149860000Y-89408000D01*
X157988000Y-98044000D02*
X157988000Y-97536000D01*
X157988000Y-97536000D02*
X159004000Y-96520000D01*
X159004000Y-96520000D02*
X159004000Y-95838000D01*
X147320000Y-98044000D02*
X148336000Y-99060000D01*
X156464000Y-99568000D02*
X157988000Y-98044000D01*
X148844000Y-99568000D02*
X156464000Y-99568000D01*
X148336000Y-99060000D02*
X148844000Y-99568000D01*
X155448000Y-98044000D02*
X155448000Y-89408000D01*
D24*
X170815000Y-94615000D02*
X171323000Y-94615000D01*
X171323000Y-94615000D02*
X172720000Y-96012000D01*
X186944000Y-93472000D02*
X187960000Y-94488000D01*
X177292000Y-93472000D02*
X186944000Y-93472000D01*
X174752000Y-96012000D02*
X177292000Y-93472000D01*
X172720000Y-96012000D02*
X174752000Y-96012000D01*
X187960000Y-94488000D02*
X187960000Y-94535000D01*
X168275000Y-94635000D02*
X170795000Y-94635000D01*
X170795000Y-94635000D02*
X170815000Y-94615000D01*
X189230000Y-93345000D02*
X187960000Y-92075000D01*
X187960000Y-92075000D02*
X187960000Y-92155000D01*
X191135000Y-93345000D02*
X189230000Y-93345000D01*
X189230000Y-93345000D02*
X187960000Y-94615000D01*
X187960000Y-94615000D02*
X187960000Y-94535000D01*
D25*
X187960000Y-92155000D02*
X188040000Y-92155000D01*
X187960000Y-94615000D02*
X187960000Y-94535000D01*
X187960000Y-92075000D02*
X187960000Y-92155000D01*
X170815000Y-92075000D02*
X173990000Y-92075000D01*
X173990000Y-92075000D02*
X173987460Y-92074480D01*
X173990000Y-94615000D02*
X173990000Y-92075000D01*
X173990000Y-92075000D02*
X173987460Y-92074480D01*
X173990000Y-81915000D02*
X173990000Y-82550000D01*
X173990000Y-82550000D02*
X178435000Y-86995000D01*
X178435000Y-86995000D02*
X178355000Y-86995000D01*
X178355000Y-86995000D02*
X178355000Y-89455000D01*
X178355000Y-89455000D02*
X178435000Y-89535000D01*
X178435000Y-89535000D02*
X178435000Y-92075000D01*
X178435000Y-92075000D02*
X178355000Y-92075000D01*
X173987460Y-104774480D02*
X173987460Y-104142540D01*
X173987460Y-104142540D02*
X178435000Y-99695000D01*
X178435000Y-99695000D02*
X178355000Y-99695000D01*
X178355000Y-99695000D02*
X178355000Y-97235000D01*
X178355000Y-97235000D02*
X178435000Y-97155000D01*
X178435000Y-97155000D02*
X178435000Y-94615000D01*
X178435000Y-94615000D02*
X178355000Y-94615000D01*
X163195000Y-94615000D02*
X163195000Y-95123000D01*
X163195000Y-95123000D02*
X164592000Y-96520000D01*
X164592000Y-99568000D02*
X163068000Y-101092000D01*
X164592000Y-96520000D02*
X164592000Y-99568000D01*
X159004000Y-93138000D02*
X159004000Y-93980000D01*
X159512000Y-94488000D02*
X163068000Y-94488000D01*
X159004000Y-93980000D02*
X159512000Y-94488000D01*
X163068000Y-94488000D02*
X163195000Y-94615000D01*
X163195000Y-94615000D02*
X162433000Y-94615000D01*
X165608000Y-101092000D02*
X168148000Y-98552000D01*
X170688000Y-98044000D02*
X170688000Y-97028000D01*
X170180000Y-98552000D02*
X170688000Y-98044000D01*
X168148000Y-98552000D02*
X170180000Y-98552000D01*
X170688000Y-97028000D02*
X170815000Y-97155000D01*
X170688000Y-97028000D02*
X170815000Y-97155000D01*
X163195000Y-89535000D02*
X165735000Y-89535000D01*
X169545000Y-95885000D02*
X170815000Y-97155000D01*
X167640000Y-95885000D02*
X169545000Y-95885000D01*
X167005000Y-95250000D02*
X167640000Y-95885000D01*
X167005000Y-90805000D02*
X167005000Y-95250000D01*
X165735000Y-89535000D02*
X167005000Y-90805000D01*
D24*
X187960000Y-89455000D02*
X183595000Y-89455000D01*
X183595000Y-89455000D02*
X183515000Y-89535000D01*
X183515000Y-97155000D02*
X187960000Y-97155000D01*
X187960000Y-97155000D02*
X187960000Y-97235000D01*
M02*
