M48
;DRILL file {KiCad 4.0.7} date 06/12/18 06:08:37
;FORMAT={-:-/ absolute / metric / decimal}
FMAT,2
METRIC,TZ
T1C0.700
T2C1.000
T3C1.100
T4C3.200
%
G90
G05
M71
T1
X147.32Y-89.408
X147.32Y-98.044
X149.86Y-89.408
X149.86Y-98.044
X155.448Y-89.408
X155.448Y-98.044
X157.988Y-89.408
X157.988Y-98.044
X159.004Y-81.788
X161.544Y-81.788
X163.195Y-89.535
X163.195Y-92.075
X163.195Y-94.615
X163.195Y-97.155
X167.64Y-83.312
X170.18Y-83.312
X170.815Y-89.535
X170.815Y-92.075
X170.815Y-94.615
X170.815Y-97.155
X173.987Y-92.074
X173.987Y-104.774
X173.99Y-81.915
X173.99Y-94.615
T2
X147.32Y-83.312
X149.86Y-83.312
X163.068Y-101.092
X165.1Y-77.216
X165.608Y-101.092
X167.64Y-77.216
X168.148Y-101.092
X170.18Y-77.216
T3
X178.435Y-89.535
X178.435Y-97.155
X180.975Y-89.535
X180.975Y-97.155
X183.515Y-89.535
X183.515Y-97.155
X191.135Y-93.345
X191.135Y-98.425
T4
X145.796Y-75.692
X145.796Y-106.172
X193.548Y-75.692
X193.548Y-106.172
T0
M30
