M48
;DRILL file {KiCad (5.0.2)-1} date 01/05/19 13:13:54
;FORMAT={-:-/ absolute / metric / decimal}
FMAT,2
METRIC,TZ
T1C0.300
T2C0.700
T3C1.000
T4C1.100
%
G90
G05
T1
X124.46Y-66.04
T2
X123.825Y-82.55
X126.365Y-82.55
X120.015Y-63.5
X122.555Y-63.5
X131.445Y-63.5
X133.985Y-63.5
X112.395Y-70.485
X114.935Y-70.485
X116.713Y-51.435
X126.873Y-51.435
X120.015Y-69.215
X120.015Y-76.835
X122.555Y-69.215
X122.555Y-76.835
X125.095Y-69.215
X125.095Y-76.835
X127.635Y-69.215
X127.635Y-76.835
X130.175Y-38.735
X130.175Y-48.895
X110.998Y-43.815
X113.665Y-41.275
X113.665Y-46.355
X120.015Y-41.275
X120.015Y-48.895
X122.555Y-41.275
X122.555Y-48.895
X125.095Y-41.275
X125.095Y-48.895
X127.635Y-41.275
X127.635Y-48.895
X133.35Y-71.755
X133.35Y-74.295
X135.89Y-41.275
X135.89Y-46.355
X138.557Y-43.815
T3
X139.065Y-54.61
X139.065Y-57.15
X139.065Y-59.69
X139.065Y-62.23
X139.065Y-64.77
X139.065Y-67.31
X139.065Y-69.85
X111.125Y-57.15
X111.125Y-59.69
X111.125Y-62.23
X111.125Y-64.77
T4
X117.475Y-57.15
X120.015Y-57.15
X122.555Y-57.15
X128.905Y-55.88
X131.445Y-55.88
X133.985Y-55.88
T0
M30
