G04 #@! TF.GenerationSoftware,KiCad,Pcbnew,(5.0.2)-1*
G04 #@! TF.CreationDate,2019-01-05T12:32:47+08:00*
G04 #@! TF.ProjectId,PSU 4CH,50535520-3443-4482-9e6b-696361645f70,rev?*
G04 #@! TF.SameCoordinates,Original*
G04 #@! TF.FileFunction,Legend,Top*
G04 #@! TF.FilePolarity,Positive*
%FSLAX46Y46*%
G04 Gerber Fmt 4.6, Leading zero omitted, Abs format (unit mm)*
G04 Created by KiCad (PCBNEW (5.0.2)-1) date 01/05/19 12:32:47*
%MOMM*%
%LPD*%
G01*
G04 APERTURE LIST*
%ADD10C,0.150000*%
G04 APERTURE END LIST*
D10*
G04 #@! TO.C,C3*
X125285000Y-63500000D02*
G75*
G03X125285000Y-63500000I-4000000J0D01*
G01*
X117411500Y-62801500D02*
X117411500Y-64071500D01*
X117475000Y-62484000D02*
X117411500Y-62801500D01*
X117475000Y-64579500D02*
X117475000Y-62484000D01*
X117602000Y-64960500D02*
X117475000Y-64579500D01*
X117602000Y-62166500D02*
X117602000Y-64960500D01*
X117729000Y-61785500D02*
X117602000Y-62166500D01*
X117729000Y-65151000D02*
X117729000Y-61785500D01*
X117856000Y-65405000D02*
X117729000Y-65151000D01*
X117856000Y-61595000D02*
X117856000Y-65405000D01*
X117983000Y-61404500D02*
X117856000Y-61595000D01*
X117983000Y-65659000D02*
X117983000Y-61404500D01*
X118110000Y-65913000D02*
X117983000Y-65659000D01*
X118110000Y-61150500D02*
X118110000Y-65913000D01*
X118237000Y-61023500D02*
X118110000Y-61150500D01*
X118237000Y-65976500D02*
X118237000Y-61023500D01*
X118364000Y-66103500D02*
X118237000Y-65976500D01*
X118364000Y-60896500D02*
X118364000Y-66103500D01*
X118491000Y-60769500D02*
X118364000Y-60896500D01*
X118491000Y-66294000D02*
X118491000Y-60769500D01*
X118618000Y-66357500D02*
X118491000Y-66294000D01*
X118618000Y-60642500D02*
X118618000Y-66357500D01*
X118745000Y-60452000D02*
X118618000Y-60642500D01*
X118745000Y-66548000D02*
X118745000Y-60452000D01*
X118872000Y-66675000D02*
X118745000Y-66548000D01*
X121285000Y-59563000D02*
X121158000Y-59563000D01*
X121285000Y-67500500D02*
X121285000Y-59563000D01*
X121285000Y-63500000D02*
G75*
G03X121285000Y-63500000I-1270000J0D01*
G01*
X118110000Y-61277500D02*
X118046500Y-61341000D01*
X118618000Y-60642500D02*
X118491000Y-60769500D01*
X117538500Y-62293500D02*
X117538500Y-62484000D01*
X117919500Y-65468500D02*
X118110000Y-65532000D01*
X117792500Y-65405000D02*
X117919500Y-65468500D01*
X118745000Y-66484500D02*
X118364000Y-66103500D01*
X118872000Y-64135000D02*
X118872000Y-66611500D01*
X118999000Y-64325500D02*
X118872000Y-64135000D01*
X118999000Y-66738500D02*
X118999000Y-64325500D01*
X119126000Y-66802000D02*
X118999000Y-66738500D01*
X119126000Y-64452500D02*
X119126000Y-66802000D01*
X119253000Y-64516000D02*
X119126000Y-64452500D01*
X119253000Y-66929000D02*
X119253000Y-64516000D01*
X119380000Y-66992500D02*
X119253000Y-66929000D01*
X119380000Y-64643000D02*
X119380000Y-66992500D01*
X119507000Y-64706500D02*
X119380000Y-64643000D01*
X119507000Y-67056000D02*
X119507000Y-64706500D01*
X119634000Y-67119500D02*
X119507000Y-67056000D01*
X119634000Y-64770000D02*
X119634000Y-67119500D01*
X119761000Y-64770000D02*
X119634000Y-64770000D01*
X119761000Y-67183000D02*
X119761000Y-64770000D01*
X119888000Y-67246500D02*
X119761000Y-67183000D01*
X119888000Y-64770000D02*
X119888000Y-67246500D01*
X120015000Y-64770000D02*
X119888000Y-64770000D01*
X120015000Y-67246500D02*
X120015000Y-64770000D01*
X120142000Y-67310000D02*
X120015000Y-67246500D01*
X120142000Y-64770000D02*
X120142000Y-67310000D01*
X120269000Y-64770000D02*
X120142000Y-64770000D01*
X120269000Y-67310000D02*
X120269000Y-64770000D01*
X120396000Y-67310000D02*
X120269000Y-67310000D01*
X120396000Y-64770000D02*
X120396000Y-67310000D01*
X120523000Y-64706500D02*
X120396000Y-64770000D01*
X120523000Y-67373500D02*
X120523000Y-64706500D01*
X120650000Y-67437000D02*
X120523000Y-67373500D01*
X120650000Y-64706500D02*
X120650000Y-67437000D01*
X120777000Y-64579500D02*
X120650000Y-64706500D01*
X120777000Y-67373500D02*
X120777000Y-64579500D01*
X120904000Y-67437000D02*
X120777000Y-67373500D01*
X120904000Y-64452500D02*
X120904000Y-67437000D01*
X121031000Y-64325500D02*
X120904000Y-64452500D01*
X121031000Y-67437000D02*
X121031000Y-64325500D01*
X118872000Y-62865000D02*
X118872000Y-60388500D01*
X118999000Y-62674500D02*
X118872000Y-62865000D01*
X118999000Y-60325000D02*
X118999000Y-62674500D01*
X119126000Y-60134500D02*
X118999000Y-60325000D01*
X119126000Y-62547500D02*
X119126000Y-60134500D01*
X119253000Y-62484000D02*
X119126000Y-62547500D01*
X119253000Y-60134500D02*
X119253000Y-62484000D01*
X119380000Y-60007500D02*
X119253000Y-60134500D01*
X119380000Y-62357000D02*
X119380000Y-60007500D01*
X119507000Y-62293500D02*
X119380000Y-62357000D01*
X119507000Y-60007500D02*
X119507000Y-62293500D01*
X119634000Y-59880500D02*
X119507000Y-60007500D01*
X119634000Y-62293500D02*
X119634000Y-59880500D01*
X119761000Y-62230000D02*
X119634000Y-62293500D01*
X119761000Y-59880500D02*
X119761000Y-62230000D01*
X119888000Y-59817000D02*
X119761000Y-59880500D01*
X119888000Y-62166500D02*
X119888000Y-59817000D01*
X120015000Y-62166500D02*
X119888000Y-62166500D01*
X120015000Y-59753500D02*
X120015000Y-62166500D01*
X120142000Y-59690000D02*
X120015000Y-59753500D01*
X120142000Y-62230000D02*
X120142000Y-59690000D01*
X120269000Y-62230000D02*
X120142000Y-62230000D01*
X120269000Y-59690000D02*
X120269000Y-62230000D01*
X120396000Y-59690000D02*
X120269000Y-59690000D01*
X120396000Y-62230000D02*
X120396000Y-59690000D01*
X120523000Y-62293500D02*
X120396000Y-62230000D01*
X120523000Y-59626500D02*
X120523000Y-62293500D01*
X120650000Y-59563000D02*
X120523000Y-59626500D01*
X120650000Y-62357000D02*
X120650000Y-59563000D01*
X120777000Y-62420500D02*
X120650000Y-62357000D01*
X120777000Y-59563000D02*
X120777000Y-62420500D01*
X120904000Y-59563000D02*
X120777000Y-59563000D01*
X120904000Y-62547500D02*
X120904000Y-59563000D01*
X121031000Y-62674500D02*
X120904000Y-62547500D01*
X121031000Y-59563000D02*
X121031000Y-62674500D01*
X121158000Y-59563000D02*
X121158000Y-62865000D01*
X121158000Y-64198500D02*
X121158000Y-67373500D01*
X121285000Y-64071500D02*
X121158000Y-64198500D01*
X124079000Y-63500000D02*
X124587000Y-63500000D01*
X124333000Y-63754000D02*
X124333000Y-63246000D01*
G04 #@! TO.C,U4*
X128905000Y-48387000D02*
X128905000Y-41783000D01*
X121158000Y-41783000D02*
X121412000Y-41783000D01*
X123698000Y-41783000D02*
X123952000Y-41783000D01*
X126238000Y-41783000D02*
X126492000Y-41783000D01*
X128905000Y-41783000D02*
X128778000Y-41783000D01*
X118745000Y-41783000D02*
X118872000Y-41783000D01*
X118745000Y-48387000D02*
X118872000Y-48387000D01*
X121158000Y-48387000D02*
X121412000Y-48387000D01*
X123698000Y-48387000D02*
X123952000Y-48387000D01*
X126238000Y-48387000D02*
X126492000Y-48387000D01*
X128905000Y-48387000D02*
X128778000Y-48387000D01*
X119634000Y-45085000D02*
G75*
G03X118745000Y-44196000I-889000J0D01*
G01*
X118745000Y-45974000D02*
G75*
G03X119634000Y-45085000I0J889000D01*
G01*
X118745000Y-44196000D02*
X118745000Y-41783000D01*
X118745000Y-45974000D02*
X118745000Y-48387000D01*
G04 #@! TO.C,R2*
X131191000Y-46990000D02*
X130175000Y-46990000D01*
X129159000Y-40640000D02*
X131191000Y-40640000D01*
X130175000Y-46990000D02*
X129159000Y-46990000D01*
X130175000Y-46990000D02*
X130175000Y-47625000D01*
X130175000Y-40640000D02*
X130175000Y-40005000D01*
X129159000Y-46990000D02*
X129159000Y-40640000D01*
X131191000Y-40640000D02*
X131191000Y-46990000D01*
G04 #@! TO.C,POT2*
X131445000Y-40005000D02*
X131445000Y-39370000D01*
X131445000Y-39370000D02*
X140462000Y-39370000D01*
X140462000Y-39370000D02*
X140462000Y-48260000D01*
X140462000Y-48260000D02*
X131445000Y-48260000D01*
X131445000Y-48260000D02*
X131445000Y-47498000D01*
X134112000Y-48260000D02*
X140462000Y-48260000D01*
X134112000Y-39370000D02*
X140462000Y-39370000D01*
X131445000Y-47625000D02*
X131445000Y-40005000D01*
X140462000Y-47879000D02*
X140462000Y-39751000D01*
G04 #@! TO.C,C1*
X116713000Y-70739000D02*
X116713000Y-70231000D01*
X116459000Y-70485000D02*
X116967000Y-70485000D01*
X113665000Y-71056500D02*
X113538000Y-71183500D01*
X113538000Y-71183500D02*
X113538000Y-74358500D01*
X113538000Y-66548000D02*
X113538000Y-69850000D01*
X113411000Y-66548000D02*
X113411000Y-69659500D01*
X113411000Y-69659500D02*
X113284000Y-69532500D01*
X113284000Y-69532500D02*
X113284000Y-66548000D01*
X113284000Y-66548000D02*
X113157000Y-66548000D01*
X113157000Y-66548000D02*
X113157000Y-69405500D01*
X113157000Y-69405500D02*
X113030000Y-69342000D01*
X113030000Y-69342000D02*
X113030000Y-66548000D01*
X113030000Y-66548000D02*
X112903000Y-66611500D01*
X112903000Y-66611500D02*
X112903000Y-69278500D01*
X112903000Y-69278500D02*
X112776000Y-69215000D01*
X112776000Y-69215000D02*
X112776000Y-66675000D01*
X112776000Y-66675000D02*
X112649000Y-66675000D01*
X112649000Y-66675000D02*
X112649000Y-69215000D01*
X112649000Y-69215000D02*
X112522000Y-69215000D01*
X112522000Y-69215000D02*
X112522000Y-66675000D01*
X112522000Y-66675000D02*
X112395000Y-66738500D01*
X112395000Y-66738500D02*
X112395000Y-69151500D01*
X112395000Y-69151500D02*
X112268000Y-69151500D01*
X112268000Y-69151500D02*
X112268000Y-66802000D01*
X112268000Y-66802000D02*
X112141000Y-66865500D01*
X112141000Y-66865500D02*
X112141000Y-69215000D01*
X112141000Y-69215000D02*
X112014000Y-69278500D01*
X112014000Y-69278500D02*
X112014000Y-66865500D01*
X112014000Y-66865500D02*
X111887000Y-66992500D01*
X111887000Y-66992500D02*
X111887000Y-69278500D01*
X111887000Y-69278500D02*
X111760000Y-69342000D01*
X111760000Y-69342000D02*
X111760000Y-66992500D01*
X111760000Y-66992500D02*
X111633000Y-67119500D01*
X111633000Y-67119500D02*
X111633000Y-69469000D01*
X111633000Y-69469000D02*
X111506000Y-69532500D01*
X111506000Y-69532500D02*
X111506000Y-67119500D01*
X111506000Y-67119500D02*
X111379000Y-67310000D01*
X111379000Y-67310000D02*
X111379000Y-69659500D01*
X111379000Y-69659500D02*
X111252000Y-69850000D01*
X111252000Y-69850000D02*
X111252000Y-67373500D01*
X113411000Y-74422000D02*
X113411000Y-71310500D01*
X113411000Y-71310500D02*
X113284000Y-71437500D01*
X113284000Y-71437500D02*
X113284000Y-74422000D01*
X113284000Y-74422000D02*
X113157000Y-74358500D01*
X113157000Y-74358500D02*
X113157000Y-71564500D01*
X113157000Y-71564500D02*
X113030000Y-71691500D01*
X113030000Y-71691500D02*
X113030000Y-74422000D01*
X113030000Y-74422000D02*
X112903000Y-74358500D01*
X112903000Y-74358500D02*
X112903000Y-71691500D01*
X112903000Y-71691500D02*
X112776000Y-71755000D01*
X112776000Y-71755000D02*
X112776000Y-74295000D01*
X112776000Y-74295000D02*
X112649000Y-74295000D01*
X112649000Y-74295000D02*
X112649000Y-71755000D01*
X112649000Y-71755000D02*
X112522000Y-71755000D01*
X112522000Y-71755000D02*
X112522000Y-74295000D01*
X112522000Y-74295000D02*
X112395000Y-74231500D01*
X112395000Y-74231500D02*
X112395000Y-71755000D01*
X112395000Y-71755000D02*
X112268000Y-71755000D01*
X112268000Y-71755000D02*
X112268000Y-74231500D01*
X112268000Y-74231500D02*
X112141000Y-74168000D01*
X112141000Y-74168000D02*
X112141000Y-71755000D01*
X112141000Y-71755000D02*
X112014000Y-71755000D01*
X112014000Y-71755000D02*
X112014000Y-74104500D01*
X112014000Y-74104500D02*
X111887000Y-74041000D01*
X111887000Y-74041000D02*
X111887000Y-71691500D01*
X111887000Y-71691500D02*
X111760000Y-71628000D01*
X111760000Y-71628000D02*
X111760000Y-73977500D01*
X111760000Y-73977500D02*
X111633000Y-73914000D01*
X111633000Y-73914000D02*
X111633000Y-71501000D01*
X111633000Y-71501000D02*
X111506000Y-71437500D01*
X111506000Y-71437500D02*
X111506000Y-73787000D01*
X111506000Y-73787000D02*
X111379000Y-73723500D01*
X111379000Y-73723500D02*
X111379000Y-71310500D01*
X111379000Y-71310500D02*
X111252000Y-71120000D01*
X111252000Y-71120000D02*
X111252000Y-73596500D01*
X111125000Y-73469500D02*
X110744000Y-73088500D01*
X110172500Y-72390000D02*
X110299500Y-72453500D01*
X110299500Y-72453500D02*
X110490000Y-72517000D01*
X109918500Y-69278500D02*
X109918500Y-69469000D01*
X110998000Y-67627500D02*
X110871000Y-67754500D01*
X110490000Y-68262500D02*
X110426500Y-68326000D01*
X113665000Y-70485000D02*
G75*
G03X113665000Y-70485000I-1270000J0D01*
G01*
X113665000Y-74485500D02*
X113665000Y-66548000D01*
X113665000Y-66548000D02*
X113538000Y-66548000D01*
X111252000Y-73660000D02*
X111125000Y-73533000D01*
X111125000Y-73533000D02*
X111125000Y-67437000D01*
X111125000Y-67437000D02*
X110998000Y-67627500D01*
X110998000Y-67627500D02*
X110998000Y-73342500D01*
X110998000Y-73342500D02*
X110871000Y-73279000D01*
X110871000Y-73279000D02*
X110871000Y-67754500D01*
X110871000Y-67754500D02*
X110744000Y-67881500D01*
X110744000Y-67881500D02*
X110744000Y-73088500D01*
X110744000Y-73088500D02*
X110617000Y-72961500D01*
X110617000Y-72961500D02*
X110617000Y-68008500D01*
X110617000Y-68008500D02*
X110490000Y-68135500D01*
X110490000Y-68135500D02*
X110490000Y-72898000D01*
X110490000Y-72898000D02*
X110363000Y-72644000D01*
X110363000Y-72644000D02*
X110363000Y-68389500D01*
X110363000Y-68389500D02*
X110236000Y-68580000D01*
X110236000Y-68580000D02*
X110236000Y-72390000D01*
X110236000Y-72390000D02*
X110109000Y-72136000D01*
X110109000Y-72136000D02*
X110109000Y-68770500D01*
X110109000Y-68770500D02*
X109982000Y-69151500D01*
X109982000Y-69151500D02*
X109982000Y-71945500D01*
X109982000Y-71945500D02*
X109855000Y-71564500D01*
X109855000Y-71564500D02*
X109855000Y-69469000D01*
X109855000Y-69469000D02*
X109791500Y-69786500D01*
X109791500Y-69786500D02*
X109791500Y-71056500D01*
X117665000Y-70485000D02*
G75*
G03X117665000Y-70485000I-4000000J0D01*
G01*
G04 #@! TO.C,C6*
X136715000Y-63500000D02*
G75*
G03X136715000Y-63500000I-4000000J0D01*
G01*
X136588500Y-64198500D02*
X136588500Y-62928500D01*
X136525000Y-64516000D02*
X136588500Y-64198500D01*
X136525000Y-62420500D02*
X136525000Y-64516000D01*
X136398000Y-62039500D02*
X136525000Y-62420500D01*
X136398000Y-64833500D02*
X136398000Y-62039500D01*
X136271000Y-65214500D02*
X136398000Y-64833500D01*
X136271000Y-61849000D02*
X136271000Y-65214500D01*
X136144000Y-61595000D02*
X136271000Y-61849000D01*
X136144000Y-65405000D02*
X136144000Y-61595000D01*
X136017000Y-65595500D02*
X136144000Y-65405000D01*
X136017000Y-61341000D02*
X136017000Y-65595500D01*
X135890000Y-61087000D02*
X136017000Y-61341000D01*
X135890000Y-65849500D02*
X135890000Y-61087000D01*
X135763000Y-65976500D02*
X135890000Y-65849500D01*
X135763000Y-61023500D02*
X135763000Y-65976500D01*
X135636000Y-60896500D02*
X135763000Y-61023500D01*
X135636000Y-66103500D02*
X135636000Y-60896500D01*
X135509000Y-66230500D02*
X135636000Y-66103500D01*
X135509000Y-60706000D02*
X135509000Y-66230500D01*
X135382000Y-60642500D02*
X135509000Y-60706000D01*
X135382000Y-66357500D02*
X135382000Y-60642500D01*
X135255000Y-66548000D02*
X135382000Y-66357500D01*
X135255000Y-60452000D02*
X135255000Y-66548000D01*
X135128000Y-60325000D02*
X135255000Y-60452000D01*
X132715000Y-67437000D02*
X132842000Y-67437000D01*
X132715000Y-59499500D02*
X132715000Y-67437000D01*
X135255000Y-63500000D02*
G75*
G03X135255000Y-63500000I-1270000J0D01*
G01*
X135890000Y-65722500D02*
X135953500Y-65659000D01*
X135382000Y-66357500D02*
X135509000Y-66230500D01*
X136461500Y-64706500D02*
X136461500Y-64516000D01*
X136080500Y-61531500D02*
X135890000Y-61468000D01*
X136207500Y-61595000D02*
X136080500Y-61531500D01*
X135255000Y-60515500D02*
X135636000Y-60896500D01*
X135128000Y-62865000D02*
X135128000Y-60388500D01*
X135001000Y-62674500D02*
X135128000Y-62865000D01*
X135001000Y-60261500D02*
X135001000Y-62674500D01*
X134874000Y-60198000D02*
X135001000Y-60261500D01*
X134874000Y-62547500D02*
X134874000Y-60198000D01*
X134747000Y-62484000D02*
X134874000Y-62547500D01*
X134747000Y-60071000D02*
X134747000Y-62484000D01*
X134620000Y-60007500D02*
X134747000Y-60071000D01*
X134620000Y-62357000D02*
X134620000Y-60007500D01*
X134493000Y-62293500D02*
X134620000Y-62357000D01*
X134493000Y-59944000D02*
X134493000Y-62293500D01*
X134366000Y-59880500D02*
X134493000Y-59944000D01*
X134366000Y-62230000D02*
X134366000Y-59880500D01*
X134239000Y-62230000D02*
X134366000Y-62230000D01*
X134239000Y-59817000D02*
X134239000Y-62230000D01*
X134112000Y-59753500D02*
X134239000Y-59817000D01*
X134112000Y-62230000D02*
X134112000Y-59753500D01*
X133985000Y-62230000D02*
X134112000Y-62230000D01*
X133985000Y-59753500D02*
X133985000Y-62230000D01*
X133858000Y-59690000D02*
X133985000Y-59753500D01*
X133858000Y-62230000D02*
X133858000Y-59690000D01*
X133731000Y-62230000D02*
X133858000Y-62230000D01*
X133731000Y-59690000D02*
X133731000Y-62230000D01*
X133604000Y-59690000D02*
X133731000Y-59690000D01*
X133604000Y-62230000D02*
X133604000Y-59690000D01*
X133477000Y-62293500D02*
X133604000Y-62230000D01*
X133477000Y-59626500D02*
X133477000Y-62293500D01*
X133350000Y-59563000D02*
X133477000Y-59626500D01*
X133350000Y-62293500D02*
X133350000Y-59563000D01*
X133223000Y-62420500D02*
X133350000Y-62293500D01*
X133223000Y-59626500D02*
X133223000Y-62420500D01*
X133096000Y-59563000D02*
X133223000Y-59626500D01*
X133096000Y-62547500D02*
X133096000Y-59563000D01*
X132969000Y-62674500D02*
X133096000Y-62547500D01*
X132969000Y-59563000D02*
X132969000Y-62674500D01*
X135128000Y-64135000D02*
X135128000Y-66611500D01*
X135001000Y-64325500D02*
X135128000Y-64135000D01*
X135001000Y-66675000D02*
X135001000Y-64325500D01*
X134874000Y-66865500D02*
X135001000Y-66675000D01*
X134874000Y-64452500D02*
X134874000Y-66865500D01*
X134747000Y-64516000D02*
X134874000Y-64452500D01*
X134747000Y-66865500D02*
X134747000Y-64516000D01*
X134620000Y-66992500D02*
X134747000Y-66865500D01*
X134620000Y-64643000D02*
X134620000Y-66992500D01*
X134493000Y-64706500D02*
X134620000Y-64643000D01*
X134493000Y-66992500D02*
X134493000Y-64706500D01*
X134366000Y-67119500D02*
X134493000Y-66992500D01*
X134366000Y-64706500D02*
X134366000Y-67119500D01*
X134239000Y-64770000D02*
X134366000Y-64706500D01*
X134239000Y-67119500D02*
X134239000Y-64770000D01*
X134112000Y-67183000D02*
X134239000Y-67119500D01*
X134112000Y-64833500D02*
X134112000Y-67183000D01*
X133985000Y-64833500D02*
X134112000Y-64833500D01*
X133985000Y-67246500D02*
X133985000Y-64833500D01*
X133858000Y-67310000D02*
X133985000Y-67246500D01*
X133858000Y-64770000D02*
X133858000Y-67310000D01*
X133731000Y-64770000D02*
X133858000Y-64770000D01*
X133731000Y-67310000D02*
X133731000Y-64770000D01*
X133604000Y-67310000D02*
X133731000Y-67310000D01*
X133604000Y-64770000D02*
X133604000Y-67310000D01*
X133477000Y-64706500D02*
X133604000Y-64770000D01*
X133477000Y-67373500D02*
X133477000Y-64706500D01*
X133350000Y-67437000D02*
X133477000Y-67373500D01*
X133350000Y-64643000D02*
X133350000Y-67437000D01*
X133223000Y-64579500D02*
X133350000Y-64643000D01*
X133223000Y-67437000D02*
X133223000Y-64579500D01*
X133096000Y-67437000D02*
X133223000Y-67437000D01*
X133096000Y-64452500D02*
X133096000Y-67437000D01*
X132969000Y-64325500D02*
X133096000Y-64452500D01*
X132969000Y-67437000D02*
X132969000Y-64325500D01*
X132842000Y-67437000D02*
X132842000Y-64135000D01*
X132842000Y-62801500D02*
X132842000Y-59626500D01*
X132715000Y-62928500D02*
X132842000Y-62801500D01*
X129921000Y-63500000D02*
X129413000Y-63500000D01*
X129667000Y-63246000D02*
X129667000Y-63754000D01*
G04 #@! TO.C,C8*
X122047000Y-82296000D02*
X122047000Y-82804000D01*
X122301000Y-82550000D02*
X121793000Y-82550000D01*
X125095000Y-81978500D02*
X125222000Y-81851500D01*
X125222000Y-81851500D02*
X125222000Y-78676500D01*
X125222000Y-86487000D02*
X125222000Y-83185000D01*
X125349000Y-86487000D02*
X125349000Y-83375500D01*
X125349000Y-83375500D02*
X125476000Y-83502500D01*
X125476000Y-83502500D02*
X125476000Y-86487000D01*
X125476000Y-86487000D02*
X125603000Y-86487000D01*
X125603000Y-86487000D02*
X125603000Y-83629500D01*
X125603000Y-83629500D02*
X125730000Y-83693000D01*
X125730000Y-83693000D02*
X125730000Y-86487000D01*
X125730000Y-86487000D02*
X125857000Y-86423500D01*
X125857000Y-86423500D02*
X125857000Y-83756500D01*
X125857000Y-83756500D02*
X125984000Y-83820000D01*
X125984000Y-83820000D02*
X125984000Y-86360000D01*
X125984000Y-86360000D02*
X126111000Y-86360000D01*
X126111000Y-86360000D02*
X126111000Y-83820000D01*
X126111000Y-83820000D02*
X126238000Y-83820000D01*
X126238000Y-83820000D02*
X126238000Y-86360000D01*
X126238000Y-86360000D02*
X126365000Y-86296500D01*
X126365000Y-86296500D02*
X126365000Y-83883500D01*
X126365000Y-83883500D02*
X126492000Y-83883500D01*
X126492000Y-83883500D02*
X126492000Y-86233000D01*
X126492000Y-86233000D02*
X126619000Y-86169500D01*
X126619000Y-86169500D02*
X126619000Y-83820000D01*
X126619000Y-83820000D02*
X126746000Y-83756500D01*
X126746000Y-83756500D02*
X126746000Y-86169500D01*
X126746000Y-86169500D02*
X126873000Y-86042500D01*
X126873000Y-86042500D02*
X126873000Y-83756500D01*
X126873000Y-83756500D02*
X127000000Y-83693000D01*
X127000000Y-83693000D02*
X127000000Y-86042500D01*
X127000000Y-86042500D02*
X127127000Y-85915500D01*
X127127000Y-85915500D02*
X127127000Y-83566000D01*
X127127000Y-83566000D02*
X127254000Y-83502500D01*
X127254000Y-83502500D02*
X127254000Y-85915500D01*
X127254000Y-85915500D02*
X127381000Y-85725000D01*
X127381000Y-85725000D02*
X127381000Y-83375500D01*
X127381000Y-83375500D02*
X127508000Y-83185000D01*
X127508000Y-83185000D02*
X127508000Y-85661500D01*
X125349000Y-78613000D02*
X125349000Y-81724500D01*
X125349000Y-81724500D02*
X125476000Y-81597500D01*
X125476000Y-81597500D02*
X125476000Y-78613000D01*
X125476000Y-78613000D02*
X125603000Y-78676500D01*
X125603000Y-78676500D02*
X125603000Y-81470500D01*
X125603000Y-81470500D02*
X125730000Y-81343500D01*
X125730000Y-81343500D02*
X125730000Y-78613000D01*
X125730000Y-78613000D02*
X125857000Y-78676500D01*
X125857000Y-78676500D02*
X125857000Y-81343500D01*
X125857000Y-81343500D02*
X125984000Y-81280000D01*
X125984000Y-81280000D02*
X125984000Y-78740000D01*
X125984000Y-78740000D02*
X126111000Y-78740000D01*
X126111000Y-78740000D02*
X126111000Y-81280000D01*
X126111000Y-81280000D02*
X126238000Y-81280000D01*
X126238000Y-81280000D02*
X126238000Y-78740000D01*
X126238000Y-78740000D02*
X126365000Y-78803500D01*
X126365000Y-78803500D02*
X126365000Y-81280000D01*
X126365000Y-81280000D02*
X126492000Y-81280000D01*
X126492000Y-81280000D02*
X126492000Y-78803500D01*
X126492000Y-78803500D02*
X126619000Y-78867000D01*
X126619000Y-78867000D02*
X126619000Y-81280000D01*
X126619000Y-81280000D02*
X126746000Y-81280000D01*
X126746000Y-81280000D02*
X126746000Y-78930500D01*
X126746000Y-78930500D02*
X126873000Y-78994000D01*
X126873000Y-78994000D02*
X126873000Y-81343500D01*
X126873000Y-81343500D02*
X127000000Y-81407000D01*
X127000000Y-81407000D02*
X127000000Y-79057500D01*
X127000000Y-79057500D02*
X127127000Y-79121000D01*
X127127000Y-79121000D02*
X127127000Y-81534000D01*
X127127000Y-81534000D02*
X127254000Y-81597500D01*
X127254000Y-81597500D02*
X127254000Y-79248000D01*
X127254000Y-79248000D02*
X127381000Y-79311500D01*
X127381000Y-79311500D02*
X127381000Y-81724500D01*
X127381000Y-81724500D02*
X127508000Y-81915000D01*
X127508000Y-81915000D02*
X127508000Y-79438500D01*
X127635000Y-79565500D02*
X128016000Y-79946500D01*
X128587500Y-80645000D02*
X128460500Y-80581500D01*
X128460500Y-80581500D02*
X128270000Y-80518000D01*
X128841500Y-83756500D02*
X128841500Y-83566000D01*
X127762000Y-85407500D02*
X127889000Y-85280500D01*
X128270000Y-84772500D02*
X128333500Y-84709000D01*
X127635000Y-82550000D02*
G75*
G03X127635000Y-82550000I-1270000J0D01*
G01*
X125095000Y-78549500D02*
X125095000Y-86487000D01*
X125095000Y-86487000D02*
X125222000Y-86487000D01*
X127508000Y-79375000D02*
X127635000Y-79502000D01*
X127635000Y-79502000D02*
X127635000Y-85598000D01*
X127635000Y-85598000D02*
X127762000Y-85407500D01*
X127762000Y-85407500D02*
X127762000Y-79692500D01*
X127762000Y-79692500D02*
X127889000Y-79756000D01*
X127889000Y-79756000D02*
X127889000Y-85280500D01*
X127889000Y-85280500D02*
X128016000Y-85153500D01*
X128016000Y-85153500D02*
X128016000Y-79946500D01*
X128016000Y-79946500D02*
X128143000Y-80073500D01*
X128143000Y-80073500D02*
X128143000Y-85026500D01*
X128143000Y-85026500D02*
X128270000Y-84899500D01*
X128270000Y-84899500D02*
X128270000Y-80137000D01*
X128270000Y-80137000D02*
X128397000Y-80391000D01*
X128397000Y-80391000D02*
X128397000Y-84645500D01*
X128397000Y-84645500D02*
X128524000Y-84455000D01*
X128524000Y-84455000D02*
X128524000Y-80645000D01*
X128524000Y-80645000D02*
X128651000Y-80899000D01*
X128651000Y-80899000D02*
X128651000Y-84264500D01*
X128651000Y-84264500D02*
X128778000Y-83883500D01*
X128778000Y-83883500D02*
X128778000Y-81089500D01*
X128778000Y-81089500D02*
X128905000Y-81470500D01*
X128905000Y-81470500D02*
X128905000Y-83566000D01*
X128905000Y-83566000D02*
X128968500Y-83248500D01*
X128968500Y-83248500D02*
X128968500Y-81978500D01*
X129095000Y-82550000D02*
G75*
G03X129095000Y-82550000I-4000000J0D01*
G01*
G04 #@! TO.C,C9*
X137350000Y-73025000D02*
G75*
G03X137350000Y-73025000I-4000000J0D01*
G01*
X134048500Y-69151500D02*
X132778500Y-69151500D01*
X134366000Y-69215000D02*
X134048500Y-69151500D01*
X132270500Y-69215000D02*
X134366000Y-69215000D01*
X131889500Y-69342000D02*
X132270500Y-69215000D01*
X134683500Y-69342000D02*
X131889500Y-69342000D01*
X135064500Y-69469000D02*
X134683500Y-69342000D01*
X131699000Y-69469000D02*
X135064500Y-69469000D01*
X131445000Y-69596000D02*
X131699000Y-69469000D01*
X135255000Y-69596000D02*
X131445000Y-69596000D01*
X135445500Y-69723000D02*
X135255000Y-69596000D01*
X131191000Y-69723000D02*
X135445500Y-69723000D01*
X130937000Y-69850000D02*
X131191000Y-69723000D01*
X135699500Y-69850000D02*
X130937000Y-69850000D01*
X135826500Y-69977000D02*
X135699500Y-69850000D01*
X130873500Y-69977000D02*
X135826500Y-69977000D01*
X130746500Y-70104000D02*
X130873500Y-69977000D01*
X135953500Y-70104000D02*
X130746500Y-70104000D01*
X136080500Y-70231000D02*
X135953500Y-70104000D01*
X130556000Y-70231000D02*
X136080500Y-70231000D01*
X130492500Y-70358000D02*
X130556000Y-70231000D01*
X136207500Y-70358000D02*
X130492500Y-70358000D01*
X136398000Y-70485000D02*
X136207500Y-70358000D01*
X130302000Y-70485000D02*
X136398000Y-70485000D01*
X130175000Y-70612000D02*
X130302000Y-70485000D01*
X137287000Y-73025000D02*
X137287000Y-72898000D01*
X129349500Y-73025000D02*
X137287000Y-73025000D01*
X134620000Y-71755000D02*
G75*
G03X134620000Y-71755000I-1270000J0D01*
G01*
X135572500Y-69850000D02*
X135509000Y-69786500D01*
X136207500Y-70358000D02*
X136080500Y-70231000D01*
X134556500Y-69278500D02*
X134366000Y-69278500D01*
X131381500Y-69659500D02*
X131318000Y-69850000D01*
X131445000Y-69532500D02*
X131381500Y-69659500D01*
X130365500Y-70485000D02*
X130746500Y-70104000D01*
X132715000Y-70612000D02*
X130238500Y-70612000D01*
X132524500Y-70739000D02*
X132715000Y-70612000D01*
X130111500Y-70739000D02*
X132524500Y-70739000D01*
X130048000Y-70866000D02*
X130111500Y-70739000D01*
X132397500Y-70866000D02*
X130048000Y-70866000D01*
X132334000Y-70993000D02*
X132397500Y-70866000D01*
X129921000Y-70993000D02*
X132334000Y-70993000D01*
X129857500Y-71120000D02*
X129921000Y-70993000D01*
X132207000Y-71120000D02*
X129857500Y-71120000D01*
X132143500Y-71247000D02*
X132207000Y-71120000D01*
X129794000Y-71247000D02*
X132143500Y-71247000D01*
X129730500Y-71374000D02*
X129794000Y-71247000D01*
X132080000Y-71374000D02*
X129730500Y-71374000D01*
X132080000Y-71501000D02*
X132080000Y-71374000D01*
X129667000Y-71501000D02*
X132080000Y-71501000D01*
X129603500Y-71628000D02*
X129667000Y-71501000D01*
X132080000Y-71628000D02*
X129603500Y-71628000D01*
X132080000Y-71755000D02*
X132080000Y-71628000D01*
X129603500Y-71755000D02*
X132080000Y-71755000D01*
X129540000Y-71882000D02*
X129603500Y-71755000D01*
X132080000Y-71882000D02*
X129540000Y-71882000D01*
X132080000Y-72009000D02*
X132080000Y-71882000D01*
X129540000Y-72009000D02*
X132080000Y-72009000D01*
X129540000Y-72136000D02*
X129540000Y-72009000D01*
X132080000Y-72136000D02*
X129540000Y-72136000D01*
X132143500Y-72263000D02*
X132080000Y-72136000D01*
X129476500Y-72263000D02*
X132143500Y-72263000D01*
X129413000Y-72390000D02*
X129476500Y-72263000D01*
X132143500Y-72390000D02*
X129413000Y-72390000D01*
X132270500Y-72517000D02*
X132143500Y-72390000D01*
X129476500Y-72517000D02*
X132270500Y-72517000D01*
X129413000Y-72644000D02*
X129476500Y-72517000D01*
X132397500Y-72644000D02*
X129413000Y-72644000D01*
X132524500Y-72771000D02*
X132397500Y-72644000D01*
X129413000Y-72771000D02*
X132524500Y-72771000D01*
X133985000Y-70612000D02*
X136461500Y-70612000D01*
X134175500Y-70739000D02*
X133985000Y-70612000D01*
X136525000Y-70739000D02*
X134175500Y-70739000D01*
X136715500Y-70866000D02*
X136525000Y-70739000D01*
X134302500Y-70866000D02*
X136715500Y-70866000D01*
X134366000Y-70993000D02*
X134302500Y-70866000D01*
X136715500Y-70993000D02*
X134366000Y-70993000D01*
X136842500Y-71120000D02*
X136715500Y-70993000D01*
X134493000Y-71120000D02*
X136842500Y-71120000D01*
X134556500Y-71247000D02*
X134493000Y-71120000D01*
X136842500Y-71247000D02*
X134556500Y-71247000D01*
X136969500Y-71374000D02*
X136842500Y-71247000D01*
X134556500Y-71374000D02*
X136969500Y-71374000D01*
X134620000Y-71501000D02*
X134556500Y-71374000D01*
X136969500Y-71501000D02*
X134620000Y-71501000D01*
X137033000Y-71628000D02*
X136969500Y-71501000D01*
X134683500Y-71628000D02*
X137033000Y-71628000D01*
X134683500Y-71755000D02*
X134683500Y-71628000D01*
X137096500Y-71755000D02*
X134683500Y-71755000D01*
X137160000Y-71882000D02*
X137096500Y-71755000D01*
X134620000Y-71882000D02*
X137160000Y-71882000D01*
X134620000Y-72009000D02*
X134620000Y-71882000D01*
X137160000Y-72009000D02*
X134620000Y-72009000D01*
X137160000Y-72136000D02*
X137160000Y-72009000D01*
X134620000Y-72136000D02*
X137160000Y-72136000D01*
X134556500Y-72263000D02*
X134620000Y-72136000D01*
X137223500Y-72263000D02*
X134556500Y-72263000D01*
X137287000Y-72390000D02*
X137223500Y-72263000D01*
X134493000Y-72390000D02*
X137287000Y-72390000D01*
X134429500Y-72517000D02*
X134493000Y-72390000D01*
X137287000Y-72517000D02*
X134429500Y-72517000D01*
X137287000Y-72644000D02*
X137287000Y-72517000D01*
X134302500Y-72644000D02*
X137287000Y-72644000D01*
X134175500Y-72771000D02*
X134302500Y-72644000D01*
X137287000Y-72771000D02*
X134175500Y-72771000D01*
X137287000Y-72898000D02*
X133985000Y-72898000D01*
X132651500Y-72898000D02*
X129476500Y-72898000D01*
X132778500Y-73025000D02*
X132651500Y-72898000D01*
X133350000Y-75819000D02*
X133350000Y-76327000D01*
X133096000Y-76073000D02*
X133604000Y-76073000D01*
G04 #@! TO.C,J1*
X109575000Y-55600000D02*
X112675000Y-55600000D01*
X109575000Y-57150000D02*
X109575000Y-55600000D01*
X112395000Y-58420000D02*
X109855000Y-58420000D01*
X112675000Y-55600000D02*
X112675000Y-57150000D01*
X109855000Y-66040000D02*
X112395000Y-66040000D01*
X112395000Y-58420000D02*
X112395000Y-66040000D01*
X109855000Y-66040000D02*
X109855000Y-58420000D01*
G04 #@! TO.C,J2*
X137515000Y-53060000D02*
X140615000Y-53060000D01*
X137515000Y-54610000D02*
X137515000Y-53060000D01*
X140335000Y-55880000D02*
X137795000Y-55880000D01*
X140615000Y-53060000D02*
X140615000Y-54610000D01*
X137795000Y-68580000D02*
X137795000Y-55880000D01*
X140335000Y-55880000D02*
X140335000Y-68580000D01*
X137795000Y-68580000D02*
X137795000Y-71120000D01*
X137795000Y-71120000D02*
X140335000Y-71120000D01*
X140335000Y-71120000D02*
X140335000Y-68580000D01*
G04 #@! TO.C,POT1*
X109093000Y-39751000D02*
X109093000Y-47879000D01*
X118110000Y-40005000D02*
X118110000Y-47625000D01*
X115443000Y-48260000D02*
X109093000Y-48260000D01*
X115443000Y-39370000D02*
X109093000Y-39370000D01*
X118110000Y-39370000D02*
X118110000Y-40132000D01*
X109093000Y-39370000D02*
X118110000Y-39370000D01*
X109093000Y-48260000D02*
X109093000Y-39370000D01*
X118110000Y-48260000D02*
X109093000Y-48260000D01*
X118110000Y-47625000D02*
X118110000Y-48260000D01*
G04 #@! TO.C,R1*
X118618000Y-50419000D02*
X124968000Y-50419000D01*
X124968000Y-52451000D02*
X118618000Y-52451000D01*
X118618000Y-51435000D02*
X117983000Y-51435000D01*
X124968000Y-51435000D02*
X125603000Y-51435000D01*
X124968000Y-51435000D02*
X124968000Y-52451000D01*
X118618000Y-52451000D02*
X118618000Y-50419000D01*
X124968000Y-50419000D02*
X124968000Y-51435000D01*
G04 #@! TO.C,U1*
X118491000Y-54102000D02*
X118491000Y-55245000D01*
X121539000Y-54102000D02*
X121539000Y-55245000D01*
X125349000Y-55245000D02*
X125349000Y-58928000D01*
X125349000Y-58928000D02*
X114681000Y-58928000D01*
X114681000Y-58928000D02*
X114681000Y-55245000D01*
X125349000Y-54102000D02*
X125349000Y-55245000D01*
X125349000Y-55245000D02*
X114681000Y-55245000D01*
X114681000Y-55245000D02*
X114681000Y-54102000D01*
X120015000Y-54102000D02*
X114681000Y-54102000D01*
X120015000Y-54102000D02*
X125349000Y-54102000D01*
G04 #@! TO.C,U2*
X131445000Y-58928000D02*
X126111000Y-58928000D01*
X131445000Y-58928000D02*
X136779000Y-58928000D01*
X136779000Y-57785000D02*
X136779000Y-58928000D01*
X126111000Y-57785000D02*
X136779000Y-57785000D01*
X126111000Y-58928000D02*
X126111000Y-57785000D01*
X136779000Y-54102000D02*
X136779000Y-57785000D01*
X126111000Y-54102000D02*
X136779000Y-54102000D01*
X126111000Y-57785000D02*
X126111000Y-54102000D01*
X129921000Y-58928000D02*
X129921000Y-57785000D01*
X132969000Y-58928000D02*
X132969000Y-57785000D01*
G04 #@! TO.C,U3*
X118745000Y-73914000D02*
X118745000Y-76327000D01*
X118745000Y-72136000D02*
X118745000Y-69723000D01*
X118745000Y-73914000D02*
G75*
G03X119634000Y-73025000I0J889000D01*
G01*
X119634000Y-73025000D02*
G75*
G03X118745000Y-72136000I-889000J0D01*
G01*
X128905000Y-76327000D02*
X128778000Y-76327000D01*
X126238000Y-76327000D02*
X126492000Y-76327000D01*
X123698000Y-76327000D02*
X123952000Y-76327000D01*
X121158000Y-76327000D02*
X121412000Y-76327000D01*
X118745000Y-76327000D02*
X118872000Y-76327000D01*
X118745000Y-69723000D02*
X118872000Y-69723000D01*
X128905000Y-69723000D02*
X128778000Y-69723000D01*
X126238000Y-69723000D02*
X126492000Y-69723000D01*
X123698000Y-69723000D02*
X123952000Y-69723000D01*
X121158000Y-69723000D02*
X121412000Y-69723000D01*
X128905000Y-76327000D02*
X128905000Y-69723000D01*
G04 #@! TO.C,C3*
X124928333Y-67032142D02*
X124880714Y-67079761D01*
X124737857Y-67127380D01*
X124642619Y-67127380D01*
X124499761Y-67079761D01*
X124404523Y-66984523D01*
X124356904Y-66889285D01*
X124309285Y-66698809D01*
X124309285Y-66555952D01*
X124356904Y-66365476D01*
X124404523Y-66270238D01*
X124499761Y-66175000D01*
X124642619Y-66127380D01*
X124737857Y-66127380D01*
X124880714Y-66175000D01*
X124928333Y-66222619D01*
X125261666Y-66127380D02*
X125880714Y-66127380D01*
X125547380Y-66508333D01*
X125690238Y-66508333D01*
X125785476Y-66555952D01*
X125833095Y-66603571D01*
X125880714Y-66698809D01*
X125880714Y-66936904D01*
X125833095Y-67032142D01*
X125785476Y-67079761D01*
X125690238Y-67127380D01*
X125404523Y-67127380D01*
X125309285Y-67079761D01*
X125261666Y-67032142D01*
G04 #@! TO.C,U4*
X123063095Y-44537380D02*
X123063095Y-45346904D01*
X123110714Y-45442142D01*
X123158333Y-45489761D01*
X123253571Y-45537380D01*
X123444047Y-45537380D01*
X123539285Y-45489761D01*
X123586904Y-45442142D01*
X123634523Y-45346904D01*
X123634523Y-44537380D01*
X124539285Y-44870714D02*
X124539285Y-45537380D01*
X124301190Y-44489761D02*
X124063095Y-45204047D01*
X124682142Y-45204047D01*
G04 #@! TO.C,R2*
X131913333Y-49982380D02*
X131580000Y-49506190D01*
X131341904Y-49982380D02*
X131341904Y-48982380D01*
X131722857Y-48982380D01*
X131818095Y-49030000D01*
X131865714Y-49077619D01*
X131913333Y-49172857D01*
X131913333Y-49315714D01*
X131865714Y-49410952D01*
X131818095Y-49458571D01*
X131722857Y-49506190D01*
X131341904Y-49506190D01*
X132294285Y-49077619D02*
X132341904Y-49030000D01*
X132437142Y-48982380D01*
X132675238Y-48982380D01*
X132770476Y-49030000D01*
X132818095Y-49077619D01*
X132865714Y-49172857D01*
X132865714Y-49268095D01*
X132818095Y-49410952D01*
X132246666Y-49982380D01*
X132865714Y-49982380D01*
G04 #@! TO.C,POT2*
X132342142Y-39187380D02*
X132342142Y-38187380D01*
X132723095Y-38187380D01*
X132818333Y-38235000D01*
X132865952Y-38282619D01*
X132913571Y-38377857D01*
X132913571Y-38520714D01*
X132865952Y-38615952D01*
X132818333Y-38663571D01*
X132723095Y-38711190D01*
X132342142Y-38711190D01*
X133532619Y-38187380D02*
X133723095Y-38187380D01*
X133818333Y-38235000D01*
X133913571Y-38330238D01*
X133961190Y-38520714D01*
X133961190Y-38854047D01*
X133913571Y-39044523D01*
X133818333Y-39139761D01*
X133723095Y-39187380D01*
X133532619Y-39187380D01*
X133437380Y-39139761D01*
X133342142Y-39044523D01*
X133294523Y-38854047D01*
X133294523Y-38520714D01*
X133342142Y-38330238D01*
X133437380Y-38235000D01*
X133532619Y-38187380D01*
X134246904Y-38187380D02*
X134818333Y-38187380D01*
X134532619Y-39187380D02*
X134532619Y-38187380D01*
X135104047Y-38282619D02*
X135151666Y-38235000D01*
X135246904Y-38187380D01*
X135485000Y-38187380D01*
X135580238Y-38235000D01*
X135627857Y-38282619D01*
X135675476Y-38377857D01*
X135675476Y-38473095D01*
X135627857Y-38615952D01*
X135056428Y-39187380D01*
X135675476Y-39187380D01*
G04 #@! TO.C,C1*
X113498333Y-65762142D02*
X113450714Y-65809761D01*
X113307857Y-65857380D01*
X113212619Y-65857380D01*
X113069761Y-65809761D01*
X112974523Y-65714523D01*
X112926904Y-65619285D01*
X112879285Y-65428809D01*
X112879285Y-65285952D01*
X112926904Y-65095476D01*
X112974523Y-65000238D01*
X113069761Y-64905000D01*
X113212619Y-64857380D01*
X113307857Y-64857380D01*
X113450714Y-64905000D01*
X113498333Y-64952619D01*
X114450714Y-65857380D02*
X113879285Y-65857380D01*
X114165000Y-65857380D02*
X114165000Y-64857380D01*
X114069761Y-65000238D01*
X113974523Y-65095476D01*
X113879285Y-65143095D01*
G04 #@! TO.C,C6*
X128103333Y-66397142D02*
X128055714Y-66444761D01*
X127912857Y-66492380D01*
X127817619Y-66492380D01*
X127674761Y-66444761D01*
X127579523Y-66349523D01*
X127531904Y-66254285D01*
X127484285Y-66063809D01*
X127484285Y-65920952D01*
X127531904Y-65730476D01*
X127579523Y-65635238D01*
X127674761Y-65540000D01*
X127817619Y-65492380D01*
X127912857Y-65492380D01*
X128055714Y-65540000D01*
X128103333Y-65587619D01*
X128960476Y-65492380D02*
X128770000Y-65492380D01*
X128674761Y-65540000D01*
X128627142Y-65587619D01*
X128531904Y-65730476D01*
X128484285Y-65920952D01*
X128484285Y-66301904D01*
X128531904Y-66397142D01*
X128579523Y-66444761D01*
X128674761Y-66492380D01*
X128865238Y-66492380D01*
X128960476Y-66444761D01*
X129008095Y-66397142D01*
X129055714Y-66301904D01*
X129055714Y-66063809D01*
X129008095Y-65968571D01*
X128960476Y-65920952D01*
X128865238Y-65873333D01*
X128674761Y-65873333D01*
X128579523Y-65920952D01*
X128531904Y-65968571D01*
X128484285Y-66063809D01*
G04 #@! TO.C,C8*
X124928333Y-87987142D02*
X124880714Y-88034761D01*
X124737857Y-88082380D01*
X124642619Y-88082380D01*
X124499761Y-88034761D01*
X124404523Y-87939523D01*
X124356904Y-87844285D01*
X124309285Y-87653809D01*
X124309285Y-87510952D01*
X124356904Y-87320476D01*
X124404523Y-87225238D01*
X124499761Y-87130000D01*
X124642619Y-87082380D01*
X124737857Y-87082380D01*
X124880714Y-87130000D01*
X124928333Y-87177619D01*
X125499761Y-87510952D02*
X125404523Y-87463333D01*
X125356904Y-87415714D01*
X125309285Y-87320476D01*
X125309285Y-87272857D01*
X125356904Y-87177619D01*
X125404523Y-87130000D01*
X125499761Y-87082380D01*
X125690238Y-87082380D01*
X125785476Y-87130000D01*
X125833095Y-87177619D01*
X125880714Y-87272857D01*
X125880714Y-87320476D01*
X125833095Y-87415714D01*
X125785476Y-87463333D01*
X125690238Y-87510952D01*
X125499761Y-87510952D01*
X125404523Y-87558571D01*
X125356904Y-87606190D01*
X125309285Y-87701428D01*
X125309285Y-87891904D01*
X125356904Y-87987142D01*
X125404523Y-88034761D01*
X125499761Y-88082380D01*
X125690238Y-88082380D01*
X125785476Y-88034761D01*
X125833095Y-87987142D01*
X125880714Y-87891904D01*
X125880714Y-87701428D01*
X125833095Y-87606190D01*
X125785476Y-87558571D01*
X125690238Y-87510952D01*
G04 #@! TO.C,C9*
X138787142Y-73191666D02*
X138834761Y-73239285D01*
X138882380Y-73382142D01*
X138882380Y-73477380D01*
X138834761Y-73620238D01*
X138739523Y-73715476D01*
X138644285Y-73763095D01*
X138453809Y-73810714D01*
X138310952Y-73810714D01*
X138120476Y-73763095D01*
X138025238Y-73715476D01*
X137930000Y-73620238D01*
X137882380Y-73477380D01*
X137882380Y-73382142D01*
X137930000Y-73239285D01*
X137977619Y-73191666D01*
X138882380Y-72715476D02*
X138882380Y-72525000D01*
X138834761Y-72429761D01*
X138787142Y-72382142D01*
X138644285Y-72286904D01*
X138453809Y-72239285D01*
X138072857Y-72239285D01*
X137977619Y-72286904D01*
X137930000Y-72334523D01*
X137882380Y-72429761D01*
X137882380Y-72620238D01*
X137930000Y-72715476D01*
X137977619Y-72763095D01*
X138072857Y-72810714D01*
X138310952Y-72810714D01*
X138406190Y-72763095D01*
X138453809Y-72715476D01*
X138501428Y-72620238D01*
X138501428Y-72429761D01*
X138453809Y-72334523D01*
X138406190Y-72286904D01*
X138310952Y-72239285D01*
G04 #@! TO.C,J1*
X110791666Y-54062380D02*
X110791666Y-54776666D01*
X110744047Y-54919523D01*
X110648809Y-55014761D01*
X110505952Y-55062380D01*
X110410714Y-55062380D01*
X111791666Y-55062380D02*
X111220238Y-55062380D01*
X111505952Y-55062380D02*
X111505952Y-54062380D01*
X111410714Y-54205238D01*
X111315476Y-54300476D01*
X111220238Y-54348095D01*
G04 #@! TO.C,J2*
X138731666Y-51522380D02*
X138731666Y-52236666D01*
X138684047Y-52379523D01*
X138588809Y-52474761D01*
X138445952Y-52522380D01*
X138350714Y-52522380D01*
X139160238Y-51617619D02*
X139207857Y-51570000D01*
X139303095Y-51522380D01*
X139541190Y-51522380D01*
X139636428Y-51570000D01*
X139684047Y-51617619D01*
X139731666Y-51712857D01*
X139731666Y-51808095D01*
X139684047Y-51950952D01*
X139112619Y-52522380D01*
X139731666Y-52522380D01*
G04 #@! TO.C,POT1*
X109482142Y-39187380D02*
X109482142Y-38187380D01*
X109863095Y-38187380D01*
X109958333Y-38235000D01*
X110005952Y-38282619D01*
X110053571Y-38377857D01*
X110053571Y-38520714D01*
X110005952Y-38615952D01*
X109958333Y-38663571D01*
X109863095Y-38711190D01*
X109482142Y-38711190D01*
X110672619Y-38187380D02*
X110863095Y-38187380D01*
X110958333Y-38235000D01*
X111053571Y-38330238D01*
X111101190Y-38520714D01*
X111101190Y-38854047D01*
X111053571Y-39044523D01*
X110958333Y-39139761D01*
X110863095Y-39187380D01*
X110672619Y-39187380D01*
X110577380Y-39139761D01*
X110482142Y-39044523D01*
X110434523Y-38854047D01*
X110434523Y-38520714D01*
X110482142Y-38330238D01*
X110577380Y-38235000D01*
X110672619Y-38187380D01*
X111386904Y-38187380D02*
X111958333Y-38187380D01*
X111672619Y-39187380D02*
X111672619Y-38187380D01*
X112815476Y-39187380D02*
X112244047Y-39187380D01*
X112529761Y-39187380D02*
X112529761Y-38187380D01*
X112434523Y-38330238D01*
X112339285Y-38425476D01*
X112244047Y-38473095D01*
G04 #@! TO.C,R1*
X128611333Y-51887380D02*
X128278000Y-51411190D01*
X128039904Y-51887380D02*
X128039904Y-50887380D01*
X128420857Y-50887380D01*
X128516095Y-50935000D01*
X128563714Y-50982619D01*
X128611333Y-51077857D01*
X128611333Y-51220714D01*
X128563714Y-51315952D01*
X128516095Y-51363571D01*
X128420857Y-51411190D01*
X128039904Y-51411190D01*
X129563714Y-51887380D02*
X128992285Y-51887380D01*
X129278000Y-51887380D02*
X129278000Y-50887380D01*
X129182761Y-51030238D01*
X129087523Y-51125476D01*
X128992285Y-51173095D01*
G04 #@! TO.C,U1*
X119253095Y-52792380D02*
X119253095Y-53601904D01*
X119300714Y-53697142D01*
X119348333Y-53744761D01*
X119443571Y-53792380D01*
X119634047Y-53792380D01*
X119729285Y-53744761D01*
X119776904Y-53697142D01*
X119824523Y-53601904D01*
X119824523Y-52792380D01*
X120824523Y-53792380D02*
X120253095Y-53792380D01*
X120538809Y-53792380D02*
X120538809Y-52792380D01*
X120443571Y-52935238D01*
X120348333Y-53030476D01*
X120253095Y-53078095D01*
G04 #@! TO.C,U2*
X130683095Y-52792380D02*
X130683095Y-53601904D01*
X130730714Y-53697142D01*
X130778333Y-53744761D01*
X130873571Y-53792380D01*
X131064047Y-53792380D01*
X131159285Y-53744761D01*
X131206904Y-53697142D01*
X131254523Y-53601904D01*
X131254523Y-52792380D01*
X131683095Y-52887619D02*
X131730714Y-52840000D01*
X131825952Y-52792380D01*
X132064047Y-52792380D01*
X132159285Y-52840000D01*
X132206904Y-52887619D01*
X132254523Y-52982857D01*
X132254523Y-53078095D01*
X132206904Y-53220952D01*
X131635476Y-53792380D01*
X132254523Y-53792380D01*
G04 #@! TO.C,U3*
X123063095Y-72477380D02*
X123063095Y-73286904D01*
X123110714Y-73382142D01*
X123158333Y-73429761D01*
X123253571Y-73477380D01*
X123444047Y-73477380D01*
X123539285Y-73429761D01*
X123586904Y-73382142D01*
X123634523Y-73286904D01*
X123634523Y-72477380D01*
X124015476Y-72477380D02*
X124634523Y-72477380D01*
X124301190Y-72858333D01*
X124444047Y-72858333D01*
X124539285Y-72905952D01*
X124586904Y-72953571D01*
X124634523Y-73048809D01*
X124634523Y-73286904D01*
X124586904Y-73382142D01*
X124539285Y-73429761D01*
X124444047Y-73477380D01*
X124158333Y-73477380D01*
X124063095Y-73429761D01*
X124015476Y-73382142D01*
G04 #@! TD*
M02*
