G04 #@! TF.GenerationSoftware,KiCad,Pcbnew,(5.0.2)-1*
G04 #@! TF.CreationDate,2019-01-05T12:32:47+08:00*
G04 #@! TF.ProjectId,PSU 4CH,50535520-3443-4482-9e6b-696361645f70,rev?*
G04 #@! TF.SameCoordinates,Original*
G04 #@! TF.FileFunction,Soldermask,Bot*
G04 #@! TF.FilePolarity,Negative*
%FSLAX46Y46*%
G04 Gerber Fmt 4.6, Leading zero omitted, Abs format (unit mm)*
G04 Created by KiCad (PCBNEW (5.0.2)-1) date 01/05/19 12:32:48*
%MOMM*%
%LPD*%
G01*
G04 APERTURE LIST*
%ADD10C,0.100000*%
G04 APERTURE END LIST*
D10*
G36*
X126630145Y-81675932D02*
X126795572Y-81744454D01*
X126944457Y-81843936D01*
X127071064Y-81970543D01*
X127170546Y-82119428D01*
X127239068Y-82284855D01*
X127274000Y-82460470D01*
X127274000Y-82639530D01*
X127239068Y-82815145D01*
X127170546Y-82980572D01*
X127071064Y-83129457D01*
X126944457Y-83256064D01*
X126795572Y-83355546D01*
X126630145Y-83424068D01*
X126454530Y-83459000D01*
X126275470Y-83459000D01*
X126099855Y-83424068D01*
X125934428Y-83355546D01*
X125785543Y-83256064D01*
X125658936Y-83129457D01*
X125559454Y-82980572D01*
X125490932Y-82815145D01*
X125456000Y-82639530D01*
X125456000Y-82460470D01*
X125490932Y-82284855D01*
X125559454Y-82119428D01*
X125658936Y-81970543D01*
X125785543Y-81843936D01*
X125934428Y-81744454D01*
X126099855Y-81675932D01*
X126275470Y-81641000D01*
X126454530Y-81641000D01*
X126630145Y-81675932D01*
X126630145Y-81675932D01*
G37*
G36*
X124734000Y-83459000D02*
X122916000Y-83459000D01*
X122916000Y-81641000D01*
X124734000Y-81641000D01*
X124734000Y-83459000D01*
X124734000Y-83459000D01*
G37*
G36*
X125360145Y-75960932D02*
X125525572Y-76029454D01*
X125674457Y-76128936D01*
X125801064Y-76255543D01*
X125900546Y-76404428D01*
X125969068Y-76569855D01*
X126004000Y-76745470D01*
X126004000Y-76924530D01*
X125969068Y-77100145D01*
X125900546Y-77265572D01*
X125801064Y-77414457D01*
X125674457Y-77541064D01*
X125525572Y-77640546D01*
X125360145Y-77709068D01*
X125184530Y-77744000D01*
X125005470Y-77744000D01*
X124829855Y-77709068D01*
X124664428Y-77640546D01*
X124515543Y-77541064D01*
X124388936Y-77414457D01*
X124289454Y-77265572D01*
X124220932Y-77100145D01*
X124186000Y-76924530D01*
X124186000Y-76745470D01*
X124220932Y-76569855D01*
X124289454Y-76404428D01*
X124388936Y-76255543D01*
X124515543Y-76128936D01*
X124664428Y-76029454D01*
X124829855Y-75960932D01*
X125005470Y-75926000D01*
X125184530Y-75926000D01*
X125360145Y-75960932D01*
X125360145Y-75960932D01*
G37*
G36*
X122820145Y-75960932D02*
X122985572Y-76029454D01*
X123134457Y-76128936D01*
X123261064Y-76255543D01*
X123360546Y-76404428D01*
X123429068Y-76569855D01*
X123464000Y-76745470D01*
X123464000Y-76924530D01*
X123429068Y-77100145D01*
X123360546Y-77265572D01*
X123261064Y-77414457D01*
X123134457Y-77541064D01*
X122985572Y-77640546D01*
X122820145Y-77709068D01*
X122644530Y-77744000D01*
X122465470Y-77744000D01*
X122289855Y-77709068D01*
X122124428Y-77640546D01*
X121975543Y-77541064D01*
X121848936Y-77414457D01*
X121749454Y-77265572D01*
X121680932Y-77100145D01*
X121646000Y-76924530D01*
X121646000Y-76745470D01*
X121680932Y-76569855D01*
X121749454Y-76404428D01*
X121848936Y-76255543D01*
X121975543Y-76128936D01*
X122124428Y-76029454D01*
X122289855Y-75960932D01*
X122465470Y-75926000D01*
X122644530Y-75926000D01*
X122820145Y-75960932D01*
X122820145Y-75960932D01*
G37*
G36*
X120280145Y-75960932D02*
X120445572Y-76029454D01*
X120594457Y-76128936D01*
X120721064Y-76255543D01*
X120820546Y-76404428D01*
X120889068Y-76569855D01*
X120924000Y-76745470D01*
X120924000Y-76924530D01*
X120889068Y-77100145D01*
X120820546Y-77265572D01*
X120721064Y-77414457D01*
X120594457Y-77541064D01*
X120445572Y-77640546D01*
X120280145Y-77709068D01*
X120104530Y-77744000D01*
X119925470Y-77744000D01*
X119749855Y-77709068D01*
X119584428Y-77640546D01*
X119435543Y-77541064D01*
X119308936Y-77414457D01*
X119209454Y-77265572D01*
X119140932Y-77100145D01*
X119106000Y-76924530D01*
X119106000Y-76745470D01*
X119140932Y-76569855D01*
X119209454Y-76404428D01*
X119308936Y-76255543D01*
X119435543Y-76128936D01*
X119584428Y-76029454D01*
X119749855Y-75960932D01*
X119925470Y-75926000D01*
X120104530Y-75926000D01*
X120280145Y-75960932D01*
X120280145Y-75960932D01*
G37*
G36*
X127900145Y-75960932D02*
X128065572Y-76029454D01*
X128214457Y-76128936D01*
X128341064Y-76255543D01*
X128440546Y-76404428D01*
X128509068Y-76569855D01*
X128544000Y-76745470D01*
X128544000Y-76924530D01*
X128509068Y-77100145D01*
X128440546Y-77265572D01*
X128341064Y-77414457D01*
X128214457Y-77541064D01*
X128065572Y-77640546D01*
X127900145Y-77709068D01*
X127724530Y-77744000D01*
X127545470Y-77744000D01*
X127369855Y-77709068D01*
X127204428Y-77640546D01*
X127055543Y-77541064D01*
X126928936Y-77414457D01*
X126829454Y-77265572D01*
X126760932Y-77100145D01*
X126726000Y-76924530D01*
X126726000Y-76745470D01*
X126760932Y-76569855D01*
X126829454Y-76404428D01*
X126928936Y-76255543D01*
X127055543Y-76128936D01*
X127204428Y-76029454D01*
X127369855Y-75960932D01*
X127545470Y-75926000D01*
X127724530Y-75926000D01*
X127900145Y-75960932D01*
X127900145Y-75960932D01*
G37*
G36*
X134259000Y-75204000D02*
X132441000Y-75204000D01*
X132441000Y-73386000D01*
X134259000Y-73386000D01*
X134259000Y-75204000D01*
X134259000Y-75204000D01*
G37*
G36*
X128311000Y-75076000D02*
X126959000Y-75076000D01*
X126959000Y-73474000D01*
X128311000Y-73474000D01*
X128311000Y-75076000D01*
X128311000Y-75076000D01*
G37*
G36*
X123231000Y-75076000D02*
X121879000Y-75076000D01*
X121879000Y-73474000D01*
X123231000Y-73474000D01*
X123231000Y-75076000D01*
X123231000Y-75076000D01*
G37*
G36*
X133615145Y-70880932D02*
X133780572Y-70949454D01*
X133929457Y-71048936D01*
X134056064Y-71175543D01*
X134155546Y-71324428D01*
X134224068Y-71489855D01*
X134259000Y-71665470D01*
X134259000Y-71844530D01*
X134224068Y-72020145D01*
X134155546Y-72185572D01*
X134056064Y-72334457D01*
X133929457Y-72461064D01*
X133780572Y-72560546D01*
X133615145Y-72629068D01*
X133439530Y-72664000D01*
X133260470Y-72664000D01*
X133084855Y-72629068D01*
X132919428Y-72560546D01*
X132770543Y-72461064D01*
X132643936Y-72334457D01*
X132544454Y-72185572D01*
X132475932Y-72020145D01*
X132441000Y-71844530D01*
X132441000Y-71665470D01*
X132475932Y-71489855D01*
X132544454Y-71324428D01*
X132643936Y-71175543D01*
X132770543Y-71048936D01*
X132919428Y-70949454D01*
X133084855Y-70880932D01*
X133260470Y-70846000D01*
X133439530Y-70846000D01*
X133615145Y-70880932D01*
X133615145Y-70880932D01*
G37*
G36*
X123231000Y-72576000D02*
X121879000Y-72576000D01*
X121879000Y-70974000D01*
X123231000Y-70974000D01*
X123231000Y-72576000D01*
X123231000Y-72576000D01*
G37*
G36*
X128311000Y-72576000D02*
X126959000Y-72576000D01*
X126959000Y-70974000D01*
X128311000Y-70974000D01*
X128311000Y-72576000D01*
X128311000Y-72576000D01*
G37*
G36*
X112660145Y-69610932D02*
X112825572Y-69679454D01*
X112974457Y-69778936D01*
X113101064Y-69905543D01*
X113200546Y-70054428D01*
X113269068Y-70219855D01*
X113304000Y-70395470D01*
X113304000Y-70574530D01*
X113269068Y-70750145D01*
X113200546Y-70915572D01*
X113101064Y-71064457D01*
X112974457Y-71191064D01*
X112825572Y-71290546D01*
X112660145Y-71359068D01*
X112484530Y-71394000D01*
X112305470Y-71394000D01*
X112129855Y-71359068D01*
X111964428Y-71290546D01*
X111815543Y-71191064D01*
X111688936Y-71064457D01*
X111589454Y-70915572D01*
X111520932Y-70750145D01*
X111486000Y-70574530D01*
X111486000Y-70395470D01*
X111520932Y-70219855D01*
X111589454Y-70054428D01*
X111688936Y-69905543D01*
X111815543Y-69778936D01*
X111964428Y-69679454D01*
X112129855Y-69610932D01*
X112305470Y-69576000D01*
X112484530Y-69576000D01*
X112660145Y-69610932D01*
X112660145Y-69610932D01*
G37*
G36*
X115844000Y-71394000D02*
X114026000Y-71394000D01*
X114026000Y-69576000D01*
X115844000Y-69576000D01*
X115844000Y-71394000D01*
X115844000Y-71394000D01*
G37*
G36*
X139373896Y-68831696D02*
X139373898Y-68831697D01*
X139373899Y-68831697D01*
X139566625Y-68911526D01*
X139739291Y-69026898D01*
X139740076Y-69027423D01*
X139887577Y-69174924D01*
X139887579Y-69174927D01*
X140003474Y-69348375D01*
X140058054Y-69480145D01*
X140083304Y-69541104D01*
X140124000Y-69745696D01*
X140124000Y-69954304D01*
X140097194Y-70089068D01*
X140083303Y-70158899D01*
X140003474Y-70351625D01*
X139888102Y-70524291D01*
X139887577Y-70525076D01*
X139740076Y-70672577D01*
X139740073Y-70672579D01*
X139566625Y-70788474D01*
X139373899Y-70868303D01*
X139373898Y-70868303D01*
X139373896Y-70868304D01*
X139169304Y-70909000D01*
X138960696Y-70909000D01*
X138756104Y-70868304D01*
X138756102Y-70868303D01*
X138756101Y-70868303D01*
X138563375Y-70788474D01*
X138389927Y-70672579D01*
X138389924Y-70672577D01*
X138242423Y-70525076D01*
X138241898Y-70524291D01*
X138126526Y-70351625D01*
X138046697Y-70158899D01*
X138032807Y-70089068D01*
X138006000Y-69954304D01*
X138006000Y-69745696D01*
X138046696Y-69541104D01*
X138071946Y-69480145D01*
X138126526Y-69348375D01*
X138242421Y-69174927D01*
X138242423Y-69174924D01*
X138389924Y-69027423D01*
X138390709Y-69026898D01*
X138563375Y-68911526D01*
X138756101Y-68831697D01*
X138756102Y-68831697D01*
X138756104Y-68831696D01*
X138960696Y-68791000D01*
X139169304Y-68791000D01*
X139373896Y-68831696D01*
X139373896Y-68831696D01*
G37*
G36*
X137201000Y-70631000D02*
X135849000Y-70631000D01*
X135849000Y-69029000D01*
X137201000Y-69029000D01*
X137201000Y-70631000D01*
X137201000Y-70631000D01*
G37*
G36*
X120280145Y-68340932D02*
X120445572Y-68409454D01*
X120594457Y-68508936D01*
X120721064Y-68635543D01*
X120820546Y-68784428D01*
X120889068Y-68949855D01*
X120924000Y-69125470D01*
X120924000Y-69304530D01*
X120889068Y-69480145D01*
X120820546Y-69645572D01*
X120721064Y-69794457D01*
X120594457Y-69921064D01*
X120445572Y-70020546D01*
X120280145Y-70089068D01*
X120104530Y-70124000D01*
X119925470Y-70124000D01*
X119749855Y-70089068D01*
X119584428Y-70020546D01*
X119435543Y-69921064D01*
X119308936Y-69794457D01*
X119209454Y-69645572D01*
X119140932Y-69480145D01*
X119106000Y-69304530D01*
X119106000Y-69125470D01*
X119140932Y-68949855D01*
X119209454Y-68784428D01*
X119308936Y-68635543D01*
X119435543Y-68508936D01*
X119584428Y-68409454D01*
X119749855Y-68340932D01*
X119925470Y-68306000D01*
X120104530Y-68306000D01*
X120280145Y-68340932D01*
X120280145Y-68340932D01*
G37*
G36*
X122820145Y-68340932D02*
X122985572Y-68409454D01*
X123134457Y-68508936D01*
X123261064Y-68635543D01*
X123360546Y-68784428D01*
X123429068Y-68949855D01*
X123464000Y-69125470D01*
X123464000Y-69304530D01*
X123429068Y-69480145D01*
X123360546Y-69645572D01*
X123261064Y-69794457D01*
X123134457Y-69921064D01*
X122985572Y-70020546D01*
X122820145Y-70089068D01*
X122644530Y-70124000D01*
X122465470Y-70124000D01*
X122289855Y-70089068D01*
X122124428Y-70020546D01*
X121975543Y-69921064D01*
X121848936Y-69794457D01*
X121749454Y-69645572D01*
X121680932Y-69480145D01*
X121646000Y-69304530D01*
X121646000Y-69125470D01*
X121680932Y-68949855D01*
X121749454Y-68784428D01*
X121848936Y-68635543D01*
X121975543Y-68508936D01*
X122124428Y-68409454D01*
X122289855Y-68340932D01*
X122465470Y-68306000D01*
X122644530Y-68306000D01*
X122820145Y-68340932D01*
X122820145Y-68340932D01*
G37*
G36*
X127900145Y-68340932D02*
X128065572Y-68409454D01*
X128214457Y-68508936D01*
X128341064Y-68635543D01*
X128440546Y-68784428D01*
X128509068Y-68949855D01*
X128544000Y-69125470D01*
X128544000Y-69304530D01*
X128509068Y-69480145D01*
X128440546Y-69645572D01*
X128341064Y-69794457D01*
X128214457Y-69921064D01*
X128065572Y-70020546D01*
X127900145Y-70089068D01*
X127724530Y-70124000D01*
X127545470Y-70124000D01*
X127369855Y-70089068D01*
X127204428Y-70020546D01*
X127055543Y-69921064D01*
X126928936Y-69794457D01*
X126829454Y-69645572D01*
X126760932Y-69480145D01*
X126726000Y-69304530D01*
X126726000Y-69125470D01*
X126760932Y-68949855D01*
X126829454Y-68784428D01*
X126928936Y-68635543D01*
X127055543Y-68508936D01*
X127204428Y-68409454D01*
X127369855Y-68340932D01*
X127545470Y-68306000D01*
X127724530Y-68306000D01*
X127900145Y-68340932D01*
X127900145Y-68340932D01*
G37*
G36*
X125360145Y-68340932D02*
X125525572Y-68409454D01*
X125674457Y-68508936D01*
X125801064Y-68635543D01*
X125900546Y-68784428D01*
X125969068Y-68949855D01*
X126004000Y-69125470D01*
X126004000Y-69304530D01*
X125969068Y-69480145D01*
X125900546Y-69645572D01*
X125801064Y-69794457D01*
X125674457Y-69921064D01*
X125525572Y-70020546D01*
X125360145Y-70089068D01*
X125184530Y-70124000D01*
X125005470Y-70124000D01*
X124829855Y-70089068D01*
X124664428Y-70020546D01*
X124515543Y-69921064D01*
X124388936Y-69794457D01*
X124289454Y-69645572D01*
X124220932Y-69480145D01*
X124186000Y-69304530D01*
X124186000Y-69125470D01*
X124220932Y-68949855D01*
X124289454Y-68784428D01*
X124388936Y-68635543D01*
X124515543Y-68508936D01*
X124664428Y-68409454D01*
X124829855Y-68340932D01*
X125005470Y-68306000D01*
X125184530Y-68306000D01*
X125360145Y-68340932D01*
X125360145Y-68340932D01*
G37*
G36*
X115696000Y-68621000D02*
X114094000Y-68621000D01*
X114094000Y-67269000D01*
X115696000Y-67269000D01*
X115696000Y-68621000D01*
X115696000Y-68621000D01*
G37*
G36*
X113196000Y-68621000D02*
X111594000Y-68621000D01*
X111594000Y-67269000D01*
X113196000Y-67269000D01*
X113196000Y-68621000D01*
X113196000Y-68621000D01*
G37*
G36*
X139373896Y-66291696D02*
X139373898Y-66291697D01*
X139373899Y-66291697D01*
X139566625Y-66371526D01*
X139739291Y-66486898D01*
X139740076Y-66487423D01*
X139887577Y-66634924D01*
X139887579Y-66634927D01*
X140003474Y-66808375D01*
X140083303Y-67001101D01*
X140124000Y-67205698D01*
X140124000Y-67414302D01*
X140083303Y-67618899D01*
X140003474Y-67811625D01*
X139888102Y-67984291D01*
X139887577Y-67985076D01*
X139740076Y-68132577D01*
X139740073Y-68132579D01*
X139566625Y-68248474D01*
X139373899Y-68328303D01*
X139373898Y-68328303D01*
X139373896Y-68328304D01*
X139169304Y-68369000D01*
X138960696Y-68369000D01*
X138756104Y-68328304D01*
X138756102Y-68328303D01*
X138756101Y-68328303D01*
X138563375Y-68248474D01*
X138389927Y-68132579D01*
X138389924Y-68132577D01*
X138242423Y-67985076D01*
X138241898Y-67984291D01*
X138126526Y-67811625D01*
X138046697Y-67618899D01*
X138006000Y-67414302D01*
X138006000Y-67205698D01*
X138046697Y-67001101D01*
X138126526Y-66808375D01*
X138242421Y-66634927D01*
X138242423Y-66634924D01*
X138389924Y-66487423D01*
X138390709Y-66486898D01*
X138563375Y-66371526D01*
X138756101Y-66291697D01*
X138756102Y-66291697D01*
X138756104Y-66291696D01*
X138960696Y-66251000D01*
X139169304Y-66251000D01*
X139373896Y-66291696D01*
X139373896Y-66291696D01*
G37*
G36*
X137201000Y-68131000D02*
X135849000Y-68131000D01*
X135849000Y-66529000D01*
X137201000Y-66529000D01*
X137201000Y-68131000D01*
X137201000Y-68131000D01*
G37*
G36*
X128777000Y-66716000D02*
X127175000Y-66716000D01*
X127175000Y-65364000D01*
X128777000Y-65364000D01*
X128777000Y-66716000D01*
X128777000Y-66716000D01*
G37*
G36*
X126277000Y-66716000D02*
X124675000Y-66716000D01*
X124675000Y-65364000D01*
X126277000Y-65364000D01*
X126277000Y-66716000D01*
X126277000Y-66716000D01*
G37*
G36*
X111433896Y-63751696D02*
X111433898Y-63751697D01*
X111433899Y-63751697D01*
X111626625Y-63831526D01*
X111774857Y-63930572D01*
X111800076Y-63947423D01*
X111947577Y-64094924D01*
X111947579Y-64094927D01*
X112063474Y-64268375D01*
X112143303Y-64461101D01*
X112184000Y-64665698D01*
X112184000Y-64874302D01*
X112143303Y-65078899D01*
X112063474Y-65271625D01*
X111948102Y-65444291D01*
X111947577Y-65445076D01*
X111800076Y-65592577D01*
X111800073Y-65592579D01*
X111626625Y-65708474D01*
X111433899Y-65788303D01*
X111433898Y-65788303D01*
X111433896Y-65788304D01*
X111229304Y-65829000D01*
X111020696Y-65829000D01*
X110816104Y-65788304D01*
X110816102Y-65788303D01*
X110816101Y-65788303D01*
X110623375Y-65708474D01*
X110449927Y-65592579D01*
X110449924Y-65592577D01*
X110302423Y-65445076D01*
X110301898Y-65444291D01*
X110186526Y-65271625D01*
X110106697Y-65078899D01*
X110066000Y-64874302D01*
X110066000Y-64665698D01*
X110106697Y-64461101D01*
X110186526Y-64268375D01*
X110302421Y-64094927D01*
X110302423Y-64094924D01*
X110449924Y-63947423D01*
X110475143Y-63930572D01*
X110623375Y-63831526D01*
X110816101Y-63751697D01*
X110816102Y-63751697D01*
X110816104Y-63751696D01*
X111020696Y-63711000D01*
X111229304Y-63711000D01*
X111433896Y-63751696D01*
X111433896Y-63751696D01*
G37*
G36*
X139373896Y-63751696D02*
X139373898Y-63751697D01*
X139373899Y-63751697D01*
X139566625Y-63831526D01*
X139714857Y-63930572D01*
X139740076Y-63947423D01*
X139887577Y-64094924D01*
X139887579Y-64094927D01*
X140003474Y-64268375D01*
X140083303Y-64461101D01*
X140124000Y-64665698D01*
X140124000Y-64874302D01*
X140083303Y-65078899D01*
X140003474Y-65271625D01*
X139888102Y-65444291D01*
X139887577Y-65445076D01*
X139740076Y-65592577D01*
X139740073Y-65592579D01*
X139566625Y-65708474D01*
X139373899Y-65788303D01*
X139373898Y-65788303D01*
X139373896Y-65788304D01*
X139169304Y-65829000D01*
X138960696Y-65829000D01*
X138756104Y-65788304D01*
X138756102Y-65788303D01*
X138756101Y-65788303D01*
X138563375Y-65708474D01*
X138389927Y-65592579D01*
X138389924Y-65592577D01*
X138242423Y-65445076D01*
X138241898Y-65444291D01*
X138126526Y-65271625D01*
X138046697Y-65078899D01*
X138006000Y-64874302D01*
X138006000Y-64665698D01*
X138046697Y-64461101D01*
X138126526Y-64268375D01*
X138242421Y-64094927D01*
X138242423Y-64094924D01*
X138389924Y-63947423D01*
X138415143Y-63930572D01*
X138563375Y-63831526D01*
X138756101Y-63751697D01*
X138756102Y-63751697D01*
X138756104Y-63751696D01*
X138960696Y-63711000D01*
X139169304Y-63711000D01*
X139373896Y-63751696D01*
X139373896Y-63751696D01*
G37*
G36*
X120280145Y-62625932D02*
X120445572Y-62694454D01*
X120594457Y-62793936D01*
X120721064Y-62920543D01*
X120820546Y-63069428D01*
X120889068Y-63234855D01*
X120924000Y-63410470D01*
X120924000Y-63589530D01*
X120889068Y-63765145D01*
X120820546Y-63930572D01*
X120721064Y-64079457D01*
X120594457Y-64206064D01*
X120445572Y-64305546D01*
X120280145Y-64374068D01*
X120104530Y-64409000D01*
X119925470Y-64409000D01*
X119749855Y-64374068D01*
X119584428Y-64305546D01*
X119435543Y-64206064D01*
X119308936Y-64079457D01*
X119209454Y-63930572D01*
X119140932Y-63765145D01*
X119106000Y-63589530D01*
X119106000Y-63410470D01*
X119140932Y-63234855D01*
X119209454Y-63069428D01*
X119308936Y-62920543D01*
X119435543Y-62793936D01*
X119584428Y-62694454D01*
X119749855Y-62625932D01*
X119925470Y-62591000D01*
X120104530Y-62591000D01*
X120280145Y-62625932D01*
X120280145Y-62625932D01*
G37*
G36*
X123464000Y-64409000D02*
X121646000Y-64409000D01*
X121646000Y-62591000D01*
X123464000Y-62591000D01*
X123464000Y-64409000D01*
X123464000Y-64409000D01*
G37*
G36*
X134250145Y-62625932D02*
X134415572Y-62694454D01*
X134564457Y-62793936D01*
X134691064Y-62920543D01*
X134790546Y-63069428D01*
X134859068Y-63234855D01*
X134894000Y-63410470D01*
X134894000Y-63589530D01*
X134859068Y-63765145D01*
X134790546Y-63930572D01*
X134691064Y-64079457D01*
X134564457Y-64206064D01*
X134415572Y-64305546D01*
X134250145Y-64374068D01*
X134074530Y-64409000D01*
X133895470Y-64409000D01*
X133719855Y-64374068D01*
X133554428Y-64305546D01*
X133405543Y-64206064D01*
X133278936Y-64079457D01*
X133179454Y-63930572D01*
X133110932Y-63765145D01*
X133076000Y-63589530D01*
X133076000Y-63410470D01*
X133110932Y-63234855D01*
X133179454Y-63069428D01*
X133278936Y-62920543D01*
X133405543Y-62793936D01*
X133554428Y-62694454D01*
X133719855Y-62625932D01*
X133895470Y-62591000D01*
X134074530Y-62591000D01*
X134250145Y-62625932D01*
X134250145Y-62625932D01*
G37*
G36*
X132354000Y-64409000D02*
X130536000Y-64409000D01*
X130536000Y-62591000D01*
X132354000Y-62591000D01*
X132354000Y-64409000D01*
X132354000Y-64409000D01*
G37*
G36*
X139373896Y-61211696D02*
X139373898Y-61211697D01*
X139373899Y-61211697D01*
X139566625Y-61291526D01*
X139739291Y-61406898D01*
X139740076Y-61407423D01*
X139887577Y-61554924D01*
X139887579Y-61554927D01*
X140003474Y-61728375D01*
X140083303Y-61921101D01*
X140124000Y-62125698D01*
X140124000Y-62334302D01*
X140083303Y-62538899D01*
X140003474Y-62731625D01*
X139888102Y-62904291D01*
X139887577Y-62905076D01*
X139740076Y-63052577D01*
X139740073Y-63052579D01*
X139566625Y-63168474D01*
X139373899Y-63248303D01*
X139373898Y-63248303D01*
X139373896Y-63248304D01*
X139169304Y-63289000D01*
X138960696Y-63289000D01*
X138756104Y-63248304D01*
X138756102Y-63248303D01*
X138756101Y-63248303D01*
X138563375Y-63168474D01*
X138389927Y-63052579D01*
X138389924Y-63052577D01*
X138242423Y-62905076D01*
X138241898Y-62904291D01*
X138126526Y-62731625D01*
X138046697Y-62538899D01*
X138006000Y-62334302D01*
X138006000Y-62125698D01*
X138046697Y-61921101D01*
X138126526Y-61728375D01*
X138242421Y-61554927D01*
X138242423Y-61554924D01*
X138389924Y-61407423D01*
X138390709Y-61406898D01*
X138563375Y-61291526D01*
X138756101Y-61211697D01*
X138756102Y-61211697D01*
X138756104Y-61211696D01*
X138960696Y-61171000D01*
X139169304Y-61171000D01*
X139373896Y-61211696D01*
X139373896Y-61211696D01*
G37*
G36*
X111433896Y-61211696D02*
X111433898Y-61211697D01*
X111433899Y-61211697D01*
X111626625Y-61291526D01*
X111799291Y-61406898D01*
X111800076Y-61407423D01*
X111947577Y-61554924D01*
X111947579Y-61554927D01*
X112063474Y-61728375D01*
X112143303Y-61921101D01*
X112184000Y-62125698D01*
X112184000Y-62334302D01*
X112143303Y-62538899D01*
X112063474Y-62731625D01*
X111948102Y-62904291D01*
X111947577Y-62905076D01*
X111800076Y-63052577D01*
X111800073Y-63052579D01*
X111626625Y-63168474D01*
X111433899Y-63248303D01*
X111433898Y-63248303D01*
X111433896Y-63248304D01*
X111229304Y-63289000D01*
X111020696Y-63289000D01*
X110816104Y-63248304D01*
X110816102Y-63248303D01*
X110816101Y-63248303D01*
X110623375Y-63168474D01*
X110449927Y-63052579D01*
X110449924Y-63052577D01*
X110302423Y-62905076D01*
X110301898Y-62904291D01*
X110186526Y-62731625D01*
X110106697Y-62538899D01*
X110066000Y-62334302D01*
X110066000Y-62125698D01*
X110106697Y-61921101D01*
X110186526Y-61728375D01*
X110302421Y-61554927D01*
X110302423Y-61554924D01*
X110449924Y-61407423D01*
X110450709Y-61406898D01*
X110623375Y-61291526D01*
X110816101Y-61211697D01*
X110816102Y-61211697D01*
X110816104Y-61211696D01*
X111020696Y-61171000D01*
X111229304Y-61171000D01*
X111433896Y-61211696D01*
X111433896Y-61211696D01*
G37*
G36*
X137201000Y-61761000D02*
X135849000Y-61761000D01*
X135849000Y-60159000D01*
X137201000Y-60159000D01*
X137201000Y-61761000D01*
X137201000Y-61761000D01*
G37*
G36*
X111433896Y-58671696D02*
X111433898Y-58671697D01*
X111433899Y-58671697D01*
X111626625Y-58751526D01*
X111799291Y-58866898D01*
X111800076Y-58867423D01*
X111947577Y-59014924D01*
X111947579Y-59014927D01*
X112063474Y-59188375D01*
X112143303Y-59381101D01*
X112184000Y-59585698D01*
X112184000Y-59794302D01*
X112143303Y-59998899D01*
X112063474Y-60191625D01*
X111948102Y-60364291D01*
X111947577Y-60365076D01*
X111800076Y-60512577D01*
X111800073Y-60512579D01*
X111626625Y-60628474D01*
X111433899Y-60708303D01*
X111433898Y-60708303D01*
X111433896Y-60708304D01*
X111229304Y-60749000D01*
X111020696Y-60749000D01*
X110816104Y-60708304D01*
X110816102Y-60708303D01*
X110816101Y-60708303D01*
X110623375Y-60628474D01*
X110449927Y-60512579D01*
X110449924Y-60512577D01*
X110302423Y-60365076D01*
X110301898Y-60364291D01*
X110186526Y-60191625D01*
X110106697Y-59998899D01*
X110066000Y-59794302D01*
X110066000Y-59585698D01*
X110106697Y-59381101D01*
X110186526Y-59188375D01*
X110302421Y-59014927D01*
X110302423Y-59014924D01*
X110449924Y-58867423D01*
X110450709Y-58866898D01*
X110623375Y-58751526D01*
X110816101Y-58671697D01*
X110816102Y-58671697D01*
X110816104Y-58671696D01*
X111020696Y-58631000D01*
X111229304Y-58631000D01*
X111433896Y-58671696D01*
X111433896Y-58671696D01*
G37*
G36*
X139373896Y-58671696D02*
X139373898Y-58671697D01*
X139373899Y-58671697D01*
X139566625Y-58751526D01*
X139739291Y-58866898D01*
X139740076Y-58867423D01*
X139887577Y-59014924D01*
X139887579Y-59014927D01*
X140003474Y-59188375D01*
X140083303Y-59381101D01*
X140124000Y-59585698D01*
X140124000Y-59794302D01*
X140083303Y-59998899D01*
X140003474Y-60191625D01*
X139888102Y-60364291D01*
X139887577Y-60365076D01*
X139740076Y-60512577D01*
X139740073Y-60512579D01*
X139566625Y-60628474D01*
X139373899Y-60708303D01*
X139373898Y-60708303D01*
X139373896Y-60708304D01*
X139169304Y-60749000D01*
X138960696Y-60749000D01*
X138756104Y-60708304D01*
X138756102Y-60708303D01*
X138756101Y-60708303D01*
X138563375Y-60628474D01*
X138389927Y-60512579D01*
X138389924Y-60512577D01*
X138242423Y-60365076D01*
X138241898Y-60364291D01*
X138126526Y-60191625D01*
X138046697Y-59998899D01*
X138006000Y-59794302D01*
X138006000Y-59585698D01*
X138046697Y-59381101D01*
X138126526Y-59188375D01*
X138242421Y-59014927D01*
X138242423Y-59014924D01*
X138389924Y-58867423D01*
X138390709Y-58866898D01*
X138563375Y-58751526D01*
X138756101Y-58671697D01*
X138756102Y-58671697D01*
X138756104Y-58671696D01*
X138960696Y-58631000D01*
X139169304Y-58631000D01*
X139373896Y-58671696D01*
X139373896Y-58671696D01*
G37*
G36*
X137201000Y-59261000D02*
X135849000Y-59261000D01*
X135849000Y-57659000D01*
X137201000Y-57659000D01*
X137201000Y-59261000D01*
X137201000Y-59261000D01*
G37*
G36*
X112184000Y-58209000D02*
X110066000Y-58209000D01*
X110066000Y-56091000D01*
X112184000Y-56091000D01*
X112184000Y-58209000D01*
X112184000Y-58209000D01*
G37*
G36*
X139373896Y-56131696D02*
X139373898Y-56131697D01*
X139373899Y-56131697D01*
X139566625Y-56211526D01*
X139739291Y-56326898D01*
X139740076Y-56327423D01*
X139887577Y-56474924D01*
X139887579Y-56474927D01*
X140003474Y-56648375D01*
X140021582Y-56692093D01*
X140083304Y-56841104D01*
X140124000Y-57045696D01*
X140124000Y-57254304D01*
X140084087Y-57454961D01*
X140083303Y-57458899D01*
X140003474Y-57651625D01*
X139893329Y-57816468D01*
X139887577Y-57825076D01*
X139740076Y-57972577D01*
X139740073Y-57972579D01*
X139566625Y-58088474D01*
X139373899Y-58168303D01*
X139373898Y-58168303D01*
X139373896Y-58168304D01*
X139169304Y-58209000D01*
X138960696Y-58209000D01*
X138756104Y-58168304D01*
X138756102Y-58168303D01*
X138756101Y-58168303D01*
X138563375Y-58088474D01*
X138389927Y-57972579D01*
X138389924Y-57972577D01*
X138242423Y-57825076D01*
X138236671Y-57816468D01*
X138126526Y-57651625D01*
X138046697Y-57458899D01*
X138045914Y-57454961D01*
X138006000Y-57254304D01*
X138006000Y-57045696D01*
X138046696Y-56841104D01*
X138108418Y-56692093D01*
X138126526Y-56648375D01*
X138242421Y-56474927D01*
X138242423Y-56474924D01*
X138389924Y-56327423D01*
X138390709Y-56326898D01*
X138563375Y-56211526D01*
X138756101Y-56131697D01*
X138756102Y-56131697D01*
X138756104Y-56131696D01*
X138960696Y-56091000D01*
X139169304Y-56091000D01*
X139373896Y-56131696D01*
X139373896Y-56131696D01*
G37*
G36*
X122859961Y-56144677D02*
X123050229Y-56223489D01*
X123221471Y-56337909D01*
X123367091Y-56483529D01*
X123481511Y-56654771D01*
X123560323Y-56845039D01*
X123600500Y-57047026D01*
X123600500Y-57252974D01*
X123560323Y-57454961D01*
X123481511Y-57645229D01*
X123367091Y-57816471D01*
X123221471Y-57962091D01*
X123050229Y-58076511D01*
X122859961Y-58155323D01*
X122657974Y-58195500D01*
X122452026Y-58195500D01*
X122250039Y-58155323D01*
X122059771Y-58076511D01*
X121888529Y-57962091D01*
X121742909Y-57816471D01*
X121628489Y-57645229D01*
X121549677Y-57454961D01*
X121509500Y-57252974D01*
X121509500Y-57047026D01*
X121549677Y-56845039D01*
X121628489Y-56654771D01*
X121742909Y-56483529D01*
X121888529Y-56337909D01*
X122059771Y-56223489D01*
X122250039Y-56144677D01*
X122452026Y-56104500D01*
X122657974Y-56104500D01*
X122859961Y-56144677D01*
X122859961Y-56144677D01*
G37*
G36*
X118520500Y-58195500D02*
X116429500Y-58195500D01*
X116429500Y-56104500D01*
X118520500Y-56104500D01*
X118520500Y-58195500D01*
X118520500Y-58195500D01*
G37*
G36*
X120319961Y-56144677D02*
X120510229Y-56223489D01*
X120681471Y-56337909D01*
X120827091Y-56483529D01*
X120941511Y-56654771D01*
X121020323Y-56845039D01*
X121060500Y-57047026D01*
X121060500Y-57252974D01*
X121020323Y-57454961D01*
X120941511Y-57645229D01*
X120827091Y-57816471D01*
X120681471Y-57962091D01*
X120510229Y-58076511D01*
X120319961Y-58155323D01*
X120117974Y-58195500D01*
X119912026Y-58195500D01*
X119710039Y-58155323D01*
X119519771Y-58076511D01*
X119348529Y-57962091D01*
X119202909Y-57816471D01*
X119088489Y-57645229D01*
X119009677Y-57454961D01*
X118969500Y-57252974D01*
X118969500Y-57047026D01*
X119009677Y-56845039D01*
X119088489Y-56654771D01*
X119202909Y-56483529D01*
X119348529Y-56337909D01*
X119519771Y-56223489D01*
X119710039Y-56144677D01*
X119912026Y-56104500D01*
X120117974Y-56104500D01*
X120319961Y-56144677D01*
X120319961Y-56144677D01*
G37*
G36*
X131749961Y-54874677D02*
X131940229Y-54953489D01*
X132111471Y-55067909D01*
X132257091Y-55213529D01*
X132371511Y-55384771D01*
X132450323Y-55575039D01*
X132490500Y-55777026D01*
X132490500Y-55982974D01*
X132450323Y-56184961D01*
X132371511Y-56375229D01*
X132257091Y-56546471D01*
X132111471Y-56692091D01*
X131940229Y-56806511D01*
X131749961Y-56885323D01*
X131547974Y-56925500D01*
X131342026Y-56925500D01*
X131140039Y-56885323D01*
X130949771Y-56806511D01*
X130778529Y-56692091D01*
X130632909Y-56546471D01*
X130518489Y-56375229D01*
X130439677Y-56184961D01*
X130399500Y-55982974D01*
X130399500Y-55777026D01*
X130439677Y-55575039D01*
X130518489Y-55384771D01*
X130632909Y-55213529D01*
X130778529Y-55067909D01*
X130949771Y-54953489D01*
X131140039Y-54874677D01*
X131342026Y-54834500D01*
X131547974Y-54834500D01*
X131749961Y-54874677D01*
X131749961Y-54874677D01*
G37*
G36*
X135030500Y-56925500D02*
X132939500Y-56925500D01*
X132939500Y-54834500D01*
X135030500Y-54834500D01*
X135030500Y-56925500D01*
X135030500Y-56925500D01*
G37*
G36*
X129209961Y-54874677D02*
X129400229Y-54953489D01*
X129571471Y-55067909D01*
X129717091Y-55213529D01*
X129831511Y-55384771D01*
X129910323Y-55575039D01*
X129950500Y-55777026D01*
X129950500Y-55982974D01*
X129910323Y-56184961D01*
X129831511Y-56375229D01*
X129717091Y-56546471D01*
X129571471Y-56692091D01*
X129400229Y-56806511D01*
X129209961Y-56885323D01*
X129007974Y-56925500D01*
X128802026Y-56925500D01*
X128600039Y-56885323D01*
X128409771Y-56806511D01*
X128238529Y-56692091D01*
X128092909Y-56546471D01*
X127978489Y-56375229D01*
X127899677Y-56184961D01*
X127859500Y-55982974D01*
X127859500Y-55777026D01*
X127899677Y-55575039D01*
X127978489Y-55384771D01*
X128092909Y-55213529D01*
X128238529Y-55067909D01*
X128409771Y-54953489D01*
X128600039Y-54874677D01*
X128802026Y-54834500D01*
X129007974Y-54834500D01*
X129209961Y-54874677D01*
X129209961Y-54874677D01*
G37*
G36*
X140124000Y-55669000D02*
X138006000Y-55669000D01*
X138006000Y-53551000D01*
X140124000Y-53551000D01*
X140124000Y-55669000D01*
X140124000Y-55669000D01*
G37*
G36*
X116978145Y-50560932D02*
X117143572Y-50629454D01*
X117292457Y-50728936D01*
X117419064Y-50855543D01*
X117518546Y-51004428D01*
X117587068Y-51169855D01*
X117622000Y-51345470D01*
X117622000Y-51524530D01*
X117587068Y-51700145D01*
X117518546Y-51865572D01*
X117419064Y-52014457D01*
X117292457Y-52141064D01*
X117143572Y-52240546D01*
X116978145Y-52309068D01*
X116802530Y-52344000D01*
X116623470Y-52344000D01*
X116447855Y-52309068D01*
X116282428Y-52240546D01*
X116133543Y-52141064D01*
X116006936Y-52014457D01*
X115907454Y-51865572D01*
X115838932Y-51700145D01*
X115804000Y-51524530D01*
X115804000Y-51345470D01*
X115838932Y-51169855D01*
X115907454Y-51004428D01*
X116006936Y-50855543D01*
X116133543Y-50728936D01*
X116282428Y-50629454D01*
X116447855Y-50560932D01*
X116623470Y-50526000D01*
X116802530Y-50526000D01*
X116978145Y-50560932D01*
X116978145Y-50560932D01*
G37*
G36*
X127138145Y-50560932D02*
X127303572Y-50629454D01*
X127452457Y-50728936D01*
X127579064Y-50855543D01*
X127678546Y-51004428D01*
X127747068Y-51169855D01*
X127782000Y-51345470D01*
X127782000Y-51524530D01*
X127747068Y-51700145D01*
X127678546Y-51865572D01*
X127579064Y-52014457D01*
X127452457Y-52141064D01*
X127303572Y-52240546D01*
X127138145Y-52309068D01*
X126962530Y-52344000D01*
X126783470Y-52344000D01*
X126607855Y-52309068D01*
X126442428Y-52240546D01*
X126293543Y-52141064D01*
X126166936Y-52014457D01*
X126067454Y-51865572D01*
X125998932Y-51700145D01*
X125964000Y-51524530D01*
X125964000Y-51345470D01*
X125998932Y-51169855D01*
X126067454Y-51004428D01*
X126166936Y-50855543D01*
X126293543Y-50728936D01*
X126442428Y-50629454D01*
X126607855Y-50560932D01*
X126783470Y-50526000D01*
X126962530Y-50526000D01*
X127138145Y-50560932D01*
X127138145Y-50560932D01*
G37*
G36*
X120280145Y-48020932D02*
X120445572Y-48089454D01*
X120594457Y-48188936D01*
X120721064Y-48315543D01*
X120820546Y-48464428D01*
X120889068Y-48629855D01*
X120924000Y-48805470D01*
X120924000Y-48984530D01*
X120889068Y-49160145D01*
X120820546Y-49325572D01*
X120721064Y-49474457D01*
X120594457Y-49601064D01*
X120445572Y-49700546D01*
X120280145Y-49769068D01*
X120104530Y-49804000D01*
X119925470Y-49804000D01*
X119749855Y-49769068D01*
X119584428Y-49700546D01*
X119435543Y-49601064D01*
X119308936Y-49474457D01*
X119209454Y-49325572D01*
X119140932Y-49160145D01*
X119106000Y-48984530D01*
X119106000Y-48805470D01*
X119140932Y-48629855D01*
X119209454Y-48464428D01*
X119308936Y-48315543D01*
X119435543Y-48188936D01*
X119584428Y-48089454D01*
X119749855Y-48020932D01*
X119925470Y-47986000D01*
X120104530Y-47986000D01*
X120280145Y-48020932D01*
X120280145Y-48020932D01*
G37*
G36*
X122820145Y-48020932D02*
X122985572Y-48089454D01*
X123134457Y-48188936D01*
X123261064Y-48315543D01*
X123360546Y-48464428D01*
X123429068Y-48629855D01*
X123464000Y-48805470D01*
X123464000Y-48984530D01*
X123429068Y-49160145D01*
X123360546Y-49325572D01*
X123261064Y-49474457D01*
X123134457Y-49601064D01*
X122985572Y-49700546D01*
X122820145Y-49769068D01*
X122644530Y-49804000D01*
X122465470Y-49804000D01*
X122289855Y-49769068D01*
X122124428Y-49700546D01*
X121975543Y-49601064D01*
X121848936Y-49474457D01*
X121749454Y-49325572D01*
X121680932Y-49160145D01*
X121646000Y-48984530D01*
X121646000Y-48805470D01*
X121680932Y-48629855D01*
X121749454Y-48464428D01*
X121848936Y-48315543D01*
X121975543Y-48188936D01*
X122124428Y-48089454D01*
X122289855Y-48020932D01*
X122465470Y-47986000D01*
X122644530Y-47986000D01*
X122820145Y-48020932D01*
X122820145Y-48020932D01*
G37*
G36*
X130440145Y-48020932D02*
X130605572Y-48089454D01*
X130754457Y-48188936D01*
X130881064Y-48315543D01*
X130980546Y-48464428D01*
X131049068Y-48629855D01*
X131084000Y-48805470D01*
X131084000Y-48984530D01*
X131049068Y-49160145D01*
X130980546Y-49325572D01*
X130881064Y-49474457D01*
X130754457Y-49601064D01*
X130605572Y-49700546D01*
X130440145Y-49769068D01*
X130264530Y-49804000D01*
X130085470Y-49804000D01*
X129909855Y-49769068D01*
X129744428Y-49700546D01*
X129595543Y-49601064D01*
X129468936Y-49474457D01*
X129369454Y-49325572D01*
X129300932Y-49160145D01*
X129266000Y-48984530D01*
X129266000Y-48805470D01*
X129300932Y-48629855D01*
X129369454Y-48464428D01*
X129468936Y-48315543D01*
X129595543Y-48188936D01*
X129744428Y-48089454D01*
X129909855Y-48020932D01*
X130085470Y-47986000D01*
X130264530Y-47986000D01*
X130440145Y-48020932D01*
X130440145Y-48020932D01*
G37*
G36*
X127900145Y-48020932D02*
X128065572Y-48089454D01*
X128214457Y-48188936D01*
X128341064Y-48315543D01*
X128440546Y-48464428D01*
X128509068Y-48629855D01*
X128544000Y-48805470D01*
X128544000Y-48984530D01*
X128509068Y-49160145D01*
X128440546Y-49325572D01*
X128341064Y-49474457D01*
X128214457Y-49601064D01*
X128065572Y-49700546D01*
X127900145Y-49769068D01*
X127724530Y-49804000D01*
X127545470Y-49804000D01*
X127369855Y-49769068D01*
X127204428Y-49700546D01*
X127055543Y-49601064D01*
X126928936Y-49474457D01*
X126829454Y-49325572D01*
X126760932Y-49160145D01*
X126726000Y-48984530D01*
X126726000Y-48805470D01*
X126760932Y-48629855D01*
X126829454Y-48464428D01*
X126928936Y-48315543D01*
X127055543Y-48188936D01*
X127204428Y-48089454D01*
X127369855Y-48020932D01*
X127545470Y-47986000D01*
X127724530Y-47986000D01*
X127900145Y-48020932D01*
X127900145Y-48020932D01*
G37*
G36*
X125360145Y-48020932D02*
X125525572Y-48089454D01*
X125674457Y-48188936D01*
X125801064Y-48315543D01*
X125900546Y-48464428D01*
X125969068Y-48629855D01*
X126004000Y-48805470D01*
X126004000Y-48984530D01*
X125969068Y-49160145D01*
X125900546Y-49325572D01*
X125801064Y-49474457D01*
X125674457Y-49601064D01*
X125525572Y-49700546D01*
X125360145Y-49769068D01*
X125184530Y-49804000D01*
X125005470Y-49804000D01*
X124829855Y-49769068D01*
X124664428Y-49700546D01*
X124515543Y-49601064D01*
X124388936Y-49474457D01*
X124289454Y-49325572D01*
X124220932Y-49160145D01*
X124186000Y-48984530D01*
X124186000Y-48805470D01*
X124220932Y-48629855D01*
X124289454Y-48464428D01*
X124388936Y-48315543D01*
X124515543Y-48188936D01*
X124664428Y-48089454D01*
X124829855Y-48020932D01*
X125005470Y-47986000D01*
X125184530Y-47986000D01*
X125360145Y-48020932D01*
X125360145Y-48020932D01*
G37*
G36*
X113930145Y-45480932D02*
X114095572Y-45549454D01*
X114244457Y-45648936D01*
X114371064Y-45775543D01*
X114470546Y-45924428D01*
X114539068Y-46089855D01*
X114574000Y-46265470D01*
X114574000Y-46444530D01*
X114539068Y-46620145D01*
X114470546Y-46785572D01*
X114371064Y-46934457D01*
X114244457Y-47061064D01*
X114095572Y-47160546D01*
X113930145Y-47229068D01*
X113754530Y-47264000D01*
X113575470Y-47264000D01*
X113399855Y-47229068D01*
X113234428Y-47160546D01*
X113085543Y-47061064D01*
X112958936Y-46934457D01*
X112859454Y-46785572D01*
X112790932Y-46620145D01*
X112756000Y-46444530D01*
X112756000Y-46265470D01*
X112790932Y-46089855D01*
X112859454Y-45924428D01*
X112958936Y-45775543D01*
X113085543Y-45648936D01*
X113234428Y-45549454D01*
X113399855Y-45480932D01*
X113575470Y-45446000D01*
X113754530Y-45446000D01*
X113930145Y-45480932D01*
X113930145Y-45480932D01*
G37*
G36*
X136155145Y-45480932D02*
X136320572Y-45549454D01*
X136469457Y-45648936D01*
X136596064Y-45775543D01*
X136695546Y-45924428D01*
X136764068Y-46089855D01*
X136799000Y-46265470D01*
X136799000Y-46444530D01*
X136764068Y-46620145D01*
X136695546Y-46785572D01*
X136596064Y-46934457D01*
X136469457Y-47061064D01*
X136320572Y-47160546D01*
X136155145Y-47229068D01*
X135979530Y-47264000D01*
X135800470Y-47264000D01*
X135624855Y-47229068D01*
X135459428Y-47160546D01*
X135310543Y-47061064D01*
X135183936Y-46934457D01*
X135084454Y-46785572D01*
X135015932Y-46620145D01*
X134981000Y-46444530D01*
X134981000Y-46265470D01*
X135015932Y-46089855D01*
X135084454Y-45924428D01*
X135183936Y-45775543D01*
X135310543Y-45648936D01*
X135459428Y-45549454D01*
X135624855Y-45480932D01*
X135800470Y-45446000D01*
X135979530Y-45446000D01*
X136155145Y-45480932D01*
X136155145Y-45480932D01*
G37*
G36*
X128311000Y-47156000D02*
X126959000Y-47156000D01*
X126959000Y-45554000D01*
X128311000Y-45554000D01*
X128311000Y-47156000D01*
X128311000Y-47156000D01*
G37*
G36*
X131631000Y-47031000D02*
X130029000Y-47031000D01*
X130029000Y-45679000D01*
X131631000Y-45679000D01*
X131631000Y-47031000D01*
X131631000Y-47031000D01*
G37*
G36*
X134131000Y-47031000D02*
X132529000Y-47031000D01*
X132529000Y-45679000D01*
X134131000Y-45679000D01*
X134131000Y-47031000D01*
X134131000Y-47031000D01*
G37*
G36*
X138822145Y-42940932D02*
X138987572Y-43009454D01*
X139136457Y-43108936D01*
X139263064Y-43235543D01*
X139362546Y-43384428D01*
X139431068Y-43549855D01*
X139466000Y-43725470D01*
X139466000Y-43904530D01*
X139431068Y-44080145D01*
X139362546Y-44245572D01*
X139263064Y-44394457D01*
X139136457Y-44521064D01*
X138987572Y-44620546D01*
X138822145Y-44689068D01*
X138646530Y-44724000D01*
X138467470Y-44724000D01*
X138291855Y-44689068D01*
X138126428Y-44620546D01*
X137977543Y-44521064D01*
X137850936Y-44394457D01*
X137751454Y-44245572D01*
X137682932Y-44080145D01*
X137648000Y-43904530D01*
X137648000Y-43725470D01*
X137682932Y-43549855D01*
X137751454Y-43384428D01*
X137850936Y-43235543D01*
X137977543Y-43108936D01*
X138126428Y-43009454D01*
X138291855Y-42940932D01*
X138467470Y-42906000D01*
X138646530Y-42906000D01*
X138822145Y-42940932D01*
X138822145Y-42940932D01*
G37*
G36*
X111263145Y-42940932D02*
X111428572Y-43009454D01*
X111577457Y-43108936D01*
X111704064Y-43235543D01*
X111803546Y-43384428D01*
X111872068Y-43549855D01*
X111907000Y-43725470D01*
X111907000Y-43904530D01*
X111872068Y-44080145D01*
X111803546Y-44245572D01*
X111704064Y-44394457D01*
X111577457Y-44521064D01*
X111428572Y-44620546D01*
X111263145Y-44689068D01*
X111087530Y-44724000D01*
X110908470Y-44724000D01*
X110732855Y-44689068D01*
X110567428Y-44620546D01*
X110418543Y-44521064D01*
X110291936Y-44394457D01*
X110192454Y-44245572D01*
X110123932Y-44080145D01*
X110089000Y-43904530D01*
X110089000Y-43725470D01*
X110123932Y-43549855D01*
X110192454Y-43384428D01*
X110291936Y-43235543D01*
X110418543Y-43108936D01*
X110567428Y-43009454D01*
X110732855Y-42940932D01*
X110908470Y-42906000D01*
X111087530Y-42906000D01*
X111263145Y-42940932D01*
X111263145Y-42940932D01*
G37*
G36*
X128311000Y-44656000D02*
X126959000Y-44656000D01*
X126959000Y-43054000D01*
X128311000Y-43054000D01*
X128311000Y-44656000D01*
X128311000Y-44656000D01*
G37*
G36*
X125896000Y-44491000D02*
X124294000Y-44491000D01*
X124294000Y-43139000D01*
X125896000Y-43139000D01*
X125896000Y-44491000D01*
X125896000Y-44491000D01*
G37*
G36*
X123396000Y-44491000D02*
X121794000Y-44491000D01*
X121794000Y-43139000D01*
X123396000Y-43139000D01*
X123396000Y-44491000D01*
X123396000Y-44491000D01*
G37*
G36*
X125360145Y-40400932D02*
X125525572Y-40469454D01*
X125674457Y-40568936D01*
X125801064Y-40695543D01*
X125900546Y-40844428D01*
X125969068Y-41009855D01*
X126004000Y-41185470D01*
X126004000Y-41364530D01*
X125969068Y-41540145D01*
X125900546Y-41705572D01*
X125801064Y-41854457D01*
X125674457Y-41981064D01*
X125525572Y-42080546D01*
X125360145Y-42149068D01*
X125184530Y-42184000D01*
X125005470Y-42184000D01*
X124829855Y-42149068D01*
X124664428Y-42080546D01*
X124515543Y-41981064D01*
X124388936Y-41854457D01*
X124289454Y-41705572D01*
X124220932Y-41540145D01*
X124186000Y-41364530D01*
X124186000Y-41185470D01*
X124220932Y-41009855D01*
X124289454Y-40844428D01*
X124388936Y-40695543D01*
X124515543Y-40568936D01*
X124664428Y-40469454D01*
X124829855Y-40400932D01*
X125005470Y-40366000D01*
X125184530Y-40366000D01*
X125360145Y-40400932D01*
X125360145Y-40400932D01*
G37*
G36*
X113930145Y-40400932D02*
X114095572Y-40469454D01*
X114244457Y-40568936D01*
X114371064Y-40695543D01*
X114470546Y-40844428D01*
X114539068Y-41009855D01*
X114574000Y-41185470D01*
X114574000Y-41364530D01*
X114539068Y-41540145D01*
X114470546Y-41705572D01*
X114371064Y-41854457D01*
X114244457Y-41981064D01*
X114095572Y-42080546D01*
X113930145Y-42149068D01*
X113754530Y-42184000D01*
X113575470Y-42184000D01*
X113399855Y-42149068D01*
X113234428Y-42080546D01*
X113085543Y-41981064D01*
X112958936Y-41854457D01*
X112859454Y-41705572D01*
X112790932Y-41540145D01*
X112756000Y-41364530D01*
X112756000Y-41185470D01*
X112790932Y-41009855D01*
X112859454Y-40844428D01*
X112958936Y-40695543D01*
X113085543Y-40568936D01*
X113234428Y-40469454D01*
X113399855Y-40400932D01*
X113575470Y-40366000D01*
X113754530Y-40366000D01*
X113930145Y-40400932D01*
X113930145Y-40400932D01*
G37*
G36*
X120280145Y-40400932D02*
X120445572Y-40469454D01*
X120594457Y-40568936D01*
X120721064Y-40695543D01*
X120820546Y-40844428D01*
X120889068Y-41009855D01*
X120924000Y-41185470D01*
X120924000Y-41364530D01*
X120889068Y-41540145D01*
X120820546Y-41705572D01*
X120721064Y-41854457D01*
X120594457Y-41981064D01*
X120445572Y-42080546D01*
X120280145Y-42149068D01*
X120104530Y-42184000D01*
X119925470Y-42184000D01*
X119749855Y-42149068D01*
X119584428Y-42080546D01*
X119435543Y-41981064D01*
X119308936Y-41854457D01*
X119209454Y-41705572D01*
X119140932Y-41540145D01*
X119106000Y-41364530D01*
X119106000Y-41185470D01*
X119140932Y-41009855D01*
X119209454Y-40844428D01*
X119308936Y-40695543D01*
X119435543Y-40568936D01*
X119584428Y-40469454D01*
X119749855Y-40400932D01*
X119925470Y-40366000D01*
X120104530Y-40366000D01*
X120280145Y-40400932D01*
X120280145Y-40400932D01*
G37*
G36*
X122820145Y-40400932D02*
X122985572Y-40469454D01*
X123134457Y-40568936D01*
X123261064Y-40695543D01*
X123360546Y-40844428D01*
X123429068Y-41009855D01*
X123464000Y-41185470D01*
X123464000Y-41364530D01*
X123429068Y-41540145D01*
X123360546Y-41705572D01*
X123261064Y-41854457D01*
X123134457Y-41981064D01*
X122985572Y-42080546D01*
X122820145Y-42149068D01*
X122644530Y-42184000D01*
X122465470Y-42184000D01*
X122289855Y-42149068D01*
X122124428Y-42080546D01*
X121975543Y-41981064D01*
X121848936Y-41854457D01*
X121749454Y-41705572D01*
X121680932Y-41540145D01*
X121646000Y-41364530D01*
X121646000Y-41185470D01*
X121680932Y-41009855D01*
X121749454Y-40844428D01*
X121848936Y-40695543D01*
X121975543Y-40568936D01*
X122124428Y-40469454D01*
X122289855Y-40400932D01*
X122465470Y-40366000D01*
X122644530Y-40366000D01*
X122820145Y-40400932D01*
X122820145Y-40400932D01*
G37*
G36*
X127900145Y-40400932D02*
X128065572Y-40469454D01*
X128214457Y-40568936D01*
X128341064Y-40695543D01*
X128440546Y-40844428D01*
X128509068Y-41009855D01*
X128544000Y-41185470D01*
X128544000Y-41364530D01*
X128509068Y-41540145D01*
X128440546Y-41705572D01*
X128341064Y-41854457D01*
X128214457Y-41981064D01*
X128065572Y-42080546D01*
X127900145Y-42149068D01*
X127724530Y-42184000D01*
X127545470Y-42184000D01*
X127369855Y-42149068D01*
X127204428Y-42080546D01*
X127055543Y-41981064D01*
X126928936Y-41854457D01*
X126829454Y-41705572D01*
X126760932Y-41540145D01*
X126726000Y-41364530D01*
X126726000Y-41185470D01*
X126760932Y-41009855D01*
X126829454Y-40844428D01*
X126928936Y-40695543D01*
X127055543Y-40568936D01*
X127204428Y-40469454D01*
X127369855Y-40400932D01*
X127545470Y-40366000D01*
X127724530Y-40366000D01*
X127900145Y-40400932D01*
X127900145Y-40400932D01*
G37*
G36*
X136155145Y-40400932D02*
X136320572Y-40469454D01*
X136469457Y-40568936D01*
X136596064Y-40695543D01*
X136695546Y-40844428D01*
X136764068Y-41009855D01*
X136799000Y-41185470D01*
X136799000Y-41364530D01*
X136764068Y-41540145D01*
X136695546Y-41705572D01*
X136596064Y-41854457D01*
X136469457Y-41981064D01*
X136320572Y-42080546D01*
X136155145Y-42149068D01*
X135979530Y-42184000D01*
X135800470Y-42184000D01*
X135624855Y-42149068D01*
X135459428Y-42080546D01*
X135310543Y-41981064D01*
X135183936Y-41854457D01*
X135084454Y-41705572D01*
X135015932Y-41540145D01*
X134981000Y-41364530D01*
X134981000Y-41185470D01*
X135015932Y-41009855D01*
X135084454Y-40844428D01*
X135183936Y-40695543D01*
X135310543Y-40568936D01*
X135459428Y-40469454D01*
X135624855Y-40400932D01*
X135800470Y-40366000D01*
X135979530Y-40366000D01*
X136155145Y-40400932D01*
X136155145Y-40400932D01*
G37*
G36*
X130440145Y-37860932D02*
X130605572Y-37929454D01*
X130754457Y-38028936D01*
X130881064Y-38155543D01*
X130980546Y-38304428D01*
X131049068Y-38469855D01*
X131084000Y-38645470D01*
X131084000Y-38824530D01*
X131049068Y-39000145D01*
X130980546Y-39165572D01*
X130881064Y-39314457D01*
X130754457Y-39441064D01*
X130605572Y-39540546D01*
X130440145Y-39609068D01*
X130264530Y-39644000D01*
X130085470Y-39644000D01*
X129909855Y-39609068D01*
X129744428Y-39540546D01*
X129595543Y-39441064D01*
X129468936Y-39314457D01*
X129369454Y-39165572D01*
X129300932Y-39000145D01*
X129266000Y-38824530D01*
X129266000Y-38645470D01*
X129300932Y-38469855D01*
X129369454Y-38304428D01*
X129468936Y-38155543D01*
X129595543Y-38028936D01*
X129744428Y-37929454D01*
X129909855Y-37860932D01*
X130085470Y-37826000D01*
X130264530Y-37826000D01*
X130440145Y-37860932D01*
X130440145Y-37860932D01*
G37*
M02*
