%FSLAX45Y45*%
G04 Gerber Fmt 4.5, Leading zero omitted, Abs format (unit mm)*
G04 Created by KiCad (PCBNEW (5.0.2)-1) date 01/05/19 12:32:56*
%MOMM*%
%LPD*%
G01*
G04 APERTURE LIST*
%ADD10C,0.150000*%
%ADD11C,0.200000*%
%ADD12C,0.300000*%
G04 APERTURE END LIST*
D10*
X10668000Y-3683000D02*
X10668000Y-9017000D01*
X14414500Y-3683000D02*
X10668000Y-3683000D01*
X14414500Y-9017000D02*
X14414500Y-3683000D01*
X10668000Y-9017000D02*
X14414500Y-9017000D01*
D11*
D12*
X10946928Y-9490214D02*
X10946928Y-9190214D01*
X11018357Y-9190214D01*
X11061214Y-9204500D01*
X11089786Y-9233072D01*
X11104071Y-9261643D01*
X11118357Y-9318786D01*
X11118357Y-9361643D01*
X11104071Y-9418786D01*
X11089786Y-9447357D01*
X11061214Y-9475929D01*
X11018357Y-9490214D01*
X10946928Y-9490214D01*
X11246928Y-9490214D02*
X11246928Y-9290214D01*
X11246928Y-9347357D02*
X11261214Y-9318786D01*
X11275500Y-9304500D01*
X11304071Y-9290214D01*
X11332643Y-9290214D01*
X11432643Y-9490214D02*
X11432643Y-9290214D01*
X11432643Y-9190214D02*
X11418357Y-9204500D01*
X11432643Y-9218786D01*
X11446928Y-9204500D01*
X11432643Y-9190214D01*
X11432643Y-9218786D01*
X11618357Y-9490214D02*
X11589786Y-9475929D01*
X11575500Y-9447357D01*
X11575500Y-9190214D01*
X11775500Y-9490214D02*
X11746928Y-9475929D01*
X11732643Y-9447357D01*
X11732643Y-9190214D01*
X12118357Y-9490214D02*
X12118357Y-9190214D01*
X12218357Y-9404500D01*
X12318357Y-9190214D01*
X12318357Y-9490214D01*
X12589786Y-9490214D02*
X12589786Y-9333072D01*
X12575500Y-9304500D01*
X12546928Y-9290214D01*
X12489786Y-9290214D01*
X12461214Y-9304500D01*
X12589786Y-9475929D02*
X12561214Y-9490214D01*
X12489786Y-9490214D01*
X12461214Y-9475929D01*
X12446928Y-9447357D01*
X12446928Y-9418786D01*
X12461214Y-9390214D01*
X12489786Y-9375929D01*
X12561214Y-9375929D01*
X12589786Y-9361643D01*
X12732643Y-9290214D02*
X12732643Y-9590214D01*
X12732643Y-9304500D02*
X12761214Y-9290214D01*
X12818357Y-9290214D01*
X12846928Y-9304500D01*
X12861214Y-9318786D01*
X12875500Y-9347357D01*
X12875500Y-9433072D01*
X12861214Y-9461643D01*
X12846928Y-9475929D01*
X12818357Y-9490214D01*
X12761214Y-9490214D01*
X12732643Y-9475929D01*
X13004071Y-9461643D02*
X13018357Y-9475929D01*
X13004071Y-9490214D01*
X12989786Y-9475929D01*
X13004071Y-9461643D01*
X13004071Y-9490214D01*
X13004071Y-9304500D02*
X13018357Y-9318786D01*
X13004071Y-9333072D01*
X12989786Y-9318786D01*
X13004071Y-9304500D01*
X13004071Y-9333072D01*
M02*
