M48
;DRILL file {KiCad 4.0.1-stable} date 04/17/17 03:19:09
;FORMAT={-:-/ absolute / metric / decimal}
FMAT,2
METRIC,TZ
T1C0.700
T2C0.900
T3C1.000
T4C1.100
T5C2.600
T6C3.200
T7C9.000
%
G90
G05
M71
T1
X113.03Y-47.625
X113.03Y-50.165
X113.03Y-52.705
X113.03Y-57.785
X113.03Y-60.325
X113.03Y-62.865
X113.031Y-55.242
X119.38Y-67.945
X123.19Y-47.625
X123.19Y-50.165
X123.19Y-52.705
X123.19Y-55.245
X125.73Y-47.625
X125.73Y-50.165
X125.73Y-52.705
X126.365Y-70.485
X126.365Y-73.025
X126.365Y-75.565
X127.635Y-80.01
X127.635Y-90.17
X127.635Y-92.71
X127.635Y-95.25
X127.635Y-97.79
X129.54Y-56.515
X129.54Y-67.945
X130.81Y-76.835
X130.81Y-84.455
X133.35Y-62.865
X133.35Y-65.405
X133.35Y-67.945
X133.35Y-70.485
X133.35Y-76.835
X133.35Y-84.455
X133.35Y-121.285
X135.89Y-76.835
X135.89Y-84.455
X136.525Y-47.705
X136.525Y-52.705
X138.43Y-76.835
X138.43Y-84.455
X138.43Y-121.285
X139.7Y-56.515
X140.97Y-62.865
X140.97Y-65.405
X140.97Y-67.945
X140.97Y-70.485
X143.51Y-70.485
X143.51Y-121.285
X144.145Y-82.55
X144.145Y-85.09
X146.685Y-76.2
X149.225Y-76.2
X153.667Y-67.944
X153.67Y-57.785
X153.67Y-70.485
X153.67Y-76.2
X153.67Y-78.74
X153.67Y-81.28
T2
X120.015Y-60.325
X122.555Y-60.325
X125.095Y-60.325
T3
X116.84Y-65.405
X116.84Y-67.945
X116.84Y-70.485
X156.21Y-65.405
X156.21Y-67.945
X156.21Y-70.485
X160.02Y-65.405
X160.02Y-67.945
X160.02Y-70.485
X163.195Y-60.325
X163.195Y-62.865
X163.195Y-65.405
T4
X116.84Y-74.295
X116.84Y-125.095
X160.02Y-74.295
X160.02Y-125.095
X167.64Y-50.8
X167.64Y-55.88
T5
X143.51Y-54.61
X147.955Y-50.8
X147.955Y-57.15
X154.94Y-54.61
X159.385Y-50.8
X159.385Y-57.15
T6
X109.22Y-69.85
X109.22Y-125.095
X171.45Y-44.45
X171.45Y-125.095
T7
X138.43Y-100.965
T0
M30
